<?xml version="1.0" encoding="UTF-8" standalone="no"?>
<!DOCTYPE svg PUBLIC "-//W3C//DTD SVG 1.1//EN"
"http://www.w3.org/Graphics/SVG/1.1/DTD/svg11.dtd">


<!-- Page 1 -->
<svg x="0" y="0" width="1719" height="1082" viewBox="0 0 1719 1082" version="1.1" xmlns="http://www.w3.org/2000/svg" xmlns:xlink="http://www.w3.org/1999/xlink"
style="display: block;margin-left: auto;margin-right: auto;">
<defs>
<clipPath id="c0_1"><path d="M845.5,212.5l0,-113l32,0l0,113Z" /></clipPath>
<clipPath id="c1_1"><path d="M1475.5,94.5l0,-57l199,0l0,57Z" /></clipPath>
<clipPath id="c2_1"><path d="M52.5,91.5l0,-47l163,0l0,47Z" /></clipPath>

<style type="text/css"><![CDATA[

.g2_1{
fill: #FFFFFF;
}
.g5_1{
fill: none;
stroke: #000000;
stroke-width: 1;
stroke-linecap: butt;
stroke-linejoin: miter;
}
.g3_1{
fill: #8D62A9;
}
.g4_1{
fill: #C7B5D8;
}
.g1_1{
}

.s7_1{
font-size: 77.31px;
font-family: PixelSplitter-Bold_g;
fill: #FFFFFF;
}
.s5_1{
font-size: 11.90px;
font-family: OCRB_d;
fill: #000000;
}
.s12_1{
font-size: 31.43px;
font-family: PixelSplitter-Bold_g;
fill: #FFFFFF;
}
.s9_1{
font-size: 58.37px;
font-family: PixelSplitter-Bold_g;
fill: #FFFFFF;
}
.s3_1{
font-size: 10.69px;
font-family: Frutiger-Roman_c;
fill: #000000;
}
.s10_1{
font-size: 20.55px;
font-family: PixelSplitter-Bold_g;
fill: #FFFFFF;
}
.s14_1{
font-size: 17.74px;
font-family: Futura-Book_b;
fill: #000000;
}
.s15_1{
font-size: 17.74px;
font-family: Futura-Bold_l;
fill: #000000;
}
.s18_1{
font-size: 141.13px;
font-family: PixelSplitter-Bold_g;
fill: #FFFFFF;
}
.s1_1{
font-size: 12.22px;
font-family: Futura-Book_b;
fill: #FFFFFF;
}
.s13_1{
font-size: 17.14px;
font-family: PixelSplitter-Bold_g;
fill: #FFFFFF;
}
.s6_1{
font-size: 40.60px;
font-family: PixelSplitter-Bold_g;
fill: #FFFFFF;
}
.s11_1{
font-size: 30.25px;
font-family: PixelSplitter-Bold_g;
fill: #000000;
}
.s8_1{
font-size: 30.66px;
font-family: PixelSplitter-Bold_g;
fill: #FFFFFF;
}
.s17_1{
font-size: 22.58px;
font-family: PixelSplitter-Bold_g;
fill: #FFFFFF;
}
.s4_1{
font-size: 16.36px;
font-family: OCRB_d;
fill: #000000;
}
.s2_1{
font-size: 16.81px;
font-family: Frutiger-Roman_c;
fill: #000000;
}
.s16_1{
font-size: 16.81px;
font-family: Futura-Book_b;
fill: #000000;
}
.s19_1{
font-size: 78.88px;
font-family: PixelSplitter-Bold_g;
fill: #FFFFFF;
}

]]></style>

</defs>
<path d="M0,0
L0,1082
L1719,1082
L1719,0 Z "
fill="#FFFFFF" stroke="none" />
<image x="-56" y="-55" width="1832" height="1182" style="mix-blend-mode: multiply;" xlink:href="1/img/cover.png" />
<path d="M835,1082l48,0L883,0L835,0l0,1082Z" class="g1_1" />
<path d="M835,239l48,0L883,74l-48,0l0,165Z" class="g2_1" />
<path d="M835,691l48,0l0,-347l-48,0l0,347Z" class="g2_1" />
<text
x="699"
y="956"
dx="0,0,0,-0.7,0,0,0,0,0,0,0,0,0,0,0,0,0"
class="s1_1"
>www.coderdojo.com</text>

<path d="M637,1049l173,0l0,-86l-173,0l0,86Z" class="g2_1" />
<path d="M620,963l-16,0l0,6l-6,0l0,74l6,0l0,6l16,0Z" class="g3_1" />
<text
transform="matrix(0, 1, -1, 0, 603, 984)"
dx="0,0,0,0,0"
class="s2_1"
>£9.99</text>

<path d="M637,963l-17,0l0,86l17,0l0,-86Z" class="g4_1" />
<text
transform="matrix(0, 1, -1, 0, 625, 971)"
dx="0,0,0,0,0,0,0,0,0,0,0,0"
class="s3_1"
>egmont.co.uk</text>

<path d="M643,1047l161,0l0,-80l-161,0l0,80Z" class="g2_1" />
<path d="M659.5,1040.5l0,-57" class="g5_1" />
<path d="M661.5,1040.5l0,-57" class="g5_1" />
<path d="M664,983l5,0l0,50l-5,0l0,-50Z" class="g1_1" />
<path d="M670,983l3,0l0,50l-3,0l0,-50Z" class="g1_1" />
<path d="M677.5,1033.5l0,-50" class="g5_1" />
<path d="M682.5,1033.5l0,-50" class="g5_1" />
<path d="M684,983l3,0l0,50l-3,0l0,-50Z" class="g1_1" />
<path d="M690,983l3,0l0,50l-3,0l0,-50Z" class="g1_1" />
<path d="M694.5,1033.5l0,-50" class="g5_1" />
<path d="M700,983l3,0l0,50l-3,0l0,-50Z" class="g1_1" />
<path d="M704.5,1033.5l0,-50" class="g5_1" />
<path d="M709,983l4,0l0,50l-4,0l0,-50Z" class="g1_1" />
<path d="M714,983l3,0l0,50l-3,0l0,-50Z" class="g1_1" />
<path d="M721.5,1033.5l0,-50" class="g5_1" />
<path d="M724.5,1040.5l0,-57" class="g5_1" />
<path d="M727.5,1040.5l0,-57" class="g5_1" />
<path d="M730,983l3,0l0,50l-3,0l0,-50Z" class="g1_1" />
<path d="M734,983l3,0l0,50l-3,0l0,-50Z" class="g1_1" />
<path d="M740.5,1033.5l0,-50" class="g5_1" />
<path d="M746.5,1033.5l0,-50" class="g5_1" />
<path d="M750.5,1033.5l0,-50" class="g5_1" />
<path d="M754.5,1033.5l0,-50" class="g5_1" />
<path d="M760.5,1033.5l0,-50" class="g5_1" />
<path d="M766.5,1033.5l0,-50" class="g5_1" />
<path d="M770.5,1033.5l0,-50" class="g5_1" />
<path d="M777.5,1033.5l0,-50" class="g5_1" />
<path d="M780.5,1033.5l0,-50" class="g5_1" />
<path d="M786.5,1033.5l0,-50" class="g5_1" />
<path d="M790.5,1040.5l0,-57" class="g5_1" />
<path d="M793.5,1040.5l0,-57" class="g5_1" />
<text
x="644"
y="1046"
dx="0,0,-4.6,-2,-2,-2,-2,-2,5.1,-2,-2,-2,-2,-2"
class="s4_1"
>9 781405278737</text>

<text
transform="matrix(0.84, 0, 0, 1, 644, 977)"
dx="0,0,0,0,0,0,0,0,0,0,0,0,0,0,0,0,0,0,0,0,0,0"
class="s5_1"
>ISBN 978-1-4052-7873-7</text>

<path d="M835,1049l23,0l0,-86l-23,0l0,86Z" class="g1_1" />
<path d="M848,1010.6c-2.1,0,-3.9,1,-3.9,3.6c0,2.6,1.8,3.5,3.9,3.5c2.2,0,4,-0.9,4,-3.5c0,-2.6,-1.8,-3.6,-4,-3.6m0,-1.9c3.1,0,4.5,3,4.5,5.5c0,2.4,-1.4,5.4,-4.5,5.4c-3,0,-4.5,-3,-4.5,-5.4c0,-2.5,1.5,-5.5,4.5,-5.5Z" class="g2_1" />
<path d="M843.7,999.6l6.9,-3.5L844.3,995l-0.3,1.4l-0.3,0l0,-3.8l0.3,0l0.3,1.5l8,1.5l0,1.4l-6.6,3.3l6.6,3.6l0,1.3l-8,1.4l-0.3,1.6l-0.3,0l0,-4.8l0.3,0l0.3,1.5l6.4,-1.1l-7,-3.8Z" class="g2_1" />
<path d="M852.4,1021.7l0,1l-6.6,7l5.9,0l0.3,-1.6l0.3,0l0,3.6l-0.3,0l-0.3,-1.2l-8.1,0l0,-0.8l6.8,-7.2l-6.1,0l-0.3,1.6l-0.3,0l0,-3.8l0.3,0l0.3,1.4Z" class="g2_1" />
<path d="M844.2,974.9l3.7,0l0,5.4l0.6,0l0,-5.4l3.3,0l0,0.2c0,1.6,-0.5,5.2,-0.5,5.2l1,0l0,-8.7l-0.3,0l-0.3,1.6l-7.4,0L844,971.6l-0.3,0l0,8.8l1.1,0c0,0,-0.6,-4.1,-0.6,-5.2Z" class="g2_1" />
<path d="M847.7,987.9l-0.4,0l-0.3,1.6l-2.7,0c-0.1,-0.5,-0.2,-1.1,-0.2,-2.1c0,-2.5,1.5,-3.7,3.8,-3.7c3.1,0,4,1.7,4,3.8c0,1.4,-0.5,2.7,-0.9,3.5l1,0.3c0.3,-1.1,0.5,-2.5,0.5,-4c0,-2.3,-1.1,-5.5,-4.7,-5.5c-2.7,0,-4.3,2.7,-4.3,5.6c0,1.2,0.1,2.1,0.4,3.8l3.1,0l0.3,1.3l0.4,0Z" class="g2_1" />
<path d="M852.3,1041.3l-1,0c0,0,0.5,-2.3,0.5,-3.4l0,-0.3l-7.5,0l-0.3,1.6l-0.3,0l0,-4.9l0.3,0l0.3,1.6l7.5,0l0,-0.3c0,-1.1,-0.5,-3.3,-0.5,-3.3l1,0Z" class="g2_1" />
<path d="M810,1049l25,0l0,-86l-25,0l0,86Z" class="g1_1" />
<path d="M822.9,1010.6c-2.2,0,-4,1,-4,3.6c0,2.6,1.8,3.5,4,3.5c2.1,0,3.9,-0.9,3.9,-3.5c0,-2.6,-1.8,-3.6,-3.9,-3.6m0,-1.9c3,0,4.5,3,4.5,5.5c0,2.4,-1.5,5.4,-4.5,5.4c-3.1,0,-4.6,-3,-4.6,-5.4c0,-2.5,1.5,-5.5,4.6,-5.5Z" class="g2_1" />
<path d="M818.6,999.6l6.9,-3.5L819.2,995l-0.3,1.4l-0.3,0l0,-3.8l0.3,0l0.3,1.5l8,1.5l0,1.4l-6.6,3.3l6.6,3.6l0,1.3l-8,1.4l-0.3,1.6l-0.3,0l0,-4.8l0.3,0l0.3,1.5l6.3,-1.1l-6.9,-3.8Z" class="g2_1" />
<path d="M827.3,1021.7l0,1l-6.6,7l5.9,0l0.2,-1.6l0.4,0l0,3.6l-0.4,0l-0.2,-1.2l-8.1,0l0,-0.8l6.8,-7.2l-6.1,0l-0.3,1.6l-0.3,0l0,-3.8l0.3,0l0.3,1.4Z" class="g2_1" />
<path d="M819.1,974.9l3.7,0l0,5.4l0.6,0l0,-5.4l3.3,0l0,0.2c0,1.6,-0.5,5.2,-0.5,5.2l1,0l0,-8.7l-0.4,0l-0.2,1.6l-7.4,0l-0.3,-1.6l-0.3,0l0,8.8l1,0c0,0,-0.5,-4.1,-0.5,-5.2Z" class="g2_1" />
<path d="M822.5,987.9l-0.3,0l-0.3,1.6l-2.8,0c-0.1,-0.5,-0.2,-1.1,-0.2,-2.1c0,-2.5,1.6,-3.7,3.9,-3.7c3.1,0,4,1.7,4,3.8c0,1.4,-0.5,2.7,-0.9,3.5l1,0.3c0.3,-1.1,0.5,-2.5,0.5,-4c0,-2.3,-1.2,-5.5,-4.7,-5.5c-2.8,0,-4.4,2.7,-4.4,5.6c0,1.2,0.1,2.1,0.5,3.8l3.1,0l0.3,1.3l0.3,0Z" class="g2_1" />
<path d="M827.2,1041.3l-1,0c0,0,0.5,-2.3,0.5,-3.4l0,-0.3l-7.5,0l-0.3,1.6l-0.3,0l0,-4.9l0.3,0l0.3,1.6l7.5,0l0,-0.3c0,-1.1,-0.5,-3.3,-0.5,-3.3l1,0Z" class="g2_1" />
<path d="M344,94L43,94l0,260l301,0L344,94Z" class="g2_1" />
<path d="M49,35l0,6l-6,0l0,53l191,0l0,-59Z" class="g2_1" />
<path d="M234,35l0,59l110,0l0,-53l-6,0l0,-6Z" class="g1_1" />
<path d="M946,888l0,6l-6,0l0,135l6,0l0,6l387,0l0,-6l6,0l0,-135l-6,0l0,-6Z" class="g1_1" />
<path d="M43,354l0,104l6,0l0,6l289,0l0,-6l6,0l0,-104Z" class="g1_1" />
<text
x="960"
y="937"
dx="0,-3.5,-4,-3.8,-5.8,0,0,-3.8,-3.3,-3.3,0,0,-3.2,-3.2,0"
class="s6_1"
>build your own </text>

<text
x="958"
y="1014"
dx="0,-6.2,-10.3,-8.1,-8.3,-9.4,-8"
class="s7_1"
>website</text>

<text
x="58"
y="391"
dx="0,-2.6,-3,-2.9,-4.4,0,0,-2.9,-2.5,-2.5,0,0,-2.5,-2.5,0"
class="s8_1"
>build your own </text>

<text
x="56"
y="449"
dx="0,-4.7,-7.8,-6.1,-6.2,-7.1,-6.1"
class="s9_1"
>website</text>

<text
transform="matrix(0, 1, -1, 0, 852, 249)"
dx="0"
class="s10_1"
>&lt;</text>

<text
transform="matrix(0, 1, -1, 0, 851, 261)"
dx="0,-1.7,-1.7,-1.6"
class="s10_1"
>NANO</text>

<text
transform="matrix(0, 1, -1, 0, 852, 322)"
dx="0"
class="s10_1"
>&gt;</text>

<g clip-path="url(#c0_1)">
<path fill-rule="evenodd" d="M850.1,115.5l0,-0.2c0,-0.4,0,-0.7,0,-1.1c0,-0.1,0,-0.2,0,-0.3c-0.1,-0.2,-0.3,-0.4,-0.6,-0.3c-0.2,0,-0.4,0.2,-0.4,0.5c0,1.3,0,2.5,0,3.8c0,0,0,0.1,0,0.1c0,0.2,0.1,0.3,0.3,0.4c0.1,0,0.2,0,0.2,0c0.8,0,1.6,0,2.4,0c0.1,0,0.1,0,0.1,0c0.3,0,0.5,-0.3,0.4,-0.6c0,-0.2,-0.2,-0.3,-0.5,-0.3c-0.5,0,-1.1,0,-1.7,0l-0.2,0c0,-0.4,0,-0.7,0,-1l0.7,0c0.3,0,0.5,0,0.8,0l0.7,0l0.7,0c0.3,0,0.5,0,0.8,0c0.2,0,0.5,0,0.7,0l0.7,0c0.3,0,0.5,0,0.8,0c0.2,0,0.4,0,0.7,0l0,-0.6c0,-0.6,0,-1.2,0,-1.8c0,-0.3,-0.2,-0.5,-0.5,-0.5c-0.3,0,-0.5,0.2,-0.5,0.5c0,0.4,0,0.8,0,1.2l0,0.2Zm-3.5,-4.2c0,0,0,-0.1,0.1,-0.1c0.3,-0.5,0.6,-0.9,1,-1.3c2,-1.8,4.3,-2.6,6.9,-2.2c2,0.2,3.6,1.2,4.8,2.6c1.4,1.6,2.1,3.4,2.1,5.5c0,0.4,0.1,0.8,0.1,1.2c0.3,1.8,1.1,3.3,2.5,4.5c1.8,1.6,3.9,2.3,6.3,1.8c1.9,-0.3,3.5,-1.3,4.6,-2.9c0.9,-1.1,1.4,-2.5,1.5,-3.9c0.1,-0.5,0.1,-1,0,-1.6c0,-0.9,-0.2,-1.9,-0.4,-2.9c-1.1,-4.5,-4.1,-8.2,-8.2,-10.2c-1.8,-0.9,-3.7,-1.4,-5.7,-1.5c-0.7,-0.1,-1.5,-0.1,-2.2,0c-0.9,0.1,-1.7,0.2,-2.6,0.4c-2.7,0.8,-5.1,2.1,-7,4.1c-1.8,1.8,-3,3.9,-3.8,6.3c0,0.1,0,0.1,0,0.2m30.6,5.2c0,0.2,-0.1,0.4,-0.1,0.7c-0.1,1.9,-0.6,3.8,-1.5,5.6c-1.9,3.9,-5,6.6,-9.1,8.1c-1.1,0.4,-2.4,0.7,-3.6,0.8c-7.6,0.8,-14.5,-3.9,-16.8,-10.9c-0.4,-1.2,-0.7,-2.4,-0.8,-3.7c0,-0.2,0,-0.4,0,-0.6c0,-0.1,0,-0.2,0,-0.3l0,-0.9c0,-0.1,0,-0.2,0,-0.3c0,-0.9,0.1,-1.8,0.3,-2.7c0.9,-3.7,2.8,-6.8,5.8,-9.2c2.6,-2.1,5.5,-3.2,8.7,-3.4c0.2,0,0.4,-0.1,0.5,-0.1l1.2,0c0.2,0,0.3,0.1,0.5,0.1c1.2,0.1,2.3,0.2,3.5,0.6c4.4,1.4,7.7,4.3,9.8,8.5c0.9,1.8,1.4,3.7,1.5,5.7c0,0.3,0.1,0.5,0.1,0.8Z" class="g1_1" />
</g>
<path fill-rule="evenodd" d="M858.6,209.4c1.2,0,2.4,0,3.6,0c0.5,0,0.9,0,1.3,0c0.2,0,0.3,0,0.5,0c0.1,-0.1,0.2,-0.2,0.3,-0.4c0.1,-0.3,0.1,-0.6,0,-0.9c-0.1,-0.1,-0.2,-0.3,-0.4,-0.3c-0.1,0,-0.3,-0.1,-0.4,-0.1c-3.3,0,-6.5,0,-9.7,0c-0.2,0,-0.3,0.1,-0.5,0.1c-0.1,0,-0.3,0.1,-0.3,0.3c-0.1,0.3,-0.1,0.6,0,0.9c0,0.2,0.2,0.3,0.4,0.4c0.2,0,0.3,0,0.5,0c1.6,0,3.2,0,4.7,0m-5.4,2.7l-0.1,0c-1.2,-0.1,-2.3,-0.8,-2.7,-2.4c-0.1,-0.8,-0.1,-1.6,0.1,-2.4c0.3,-1.2,1.1,-1.9,2.4,-2.2c0.2,0,0.5,-0.1,0.8,-0.1c3.3,0,6.6,0,9.8,0c0.5,0,0.9,0.1,1.3,0.2c1,0.3,1.7,1,2,2c0.3,0.9,0.3,1.8,0,2.6c-0.3,1.2,-1.1,2,-2.3,2.2c-0.2,0.1,-0.3,0.1,-0.4,0.1Z" class="g1_1" />
<path fill-rule="evenodd" d="M853.2,185c0,0.4,0,0.8,0,1.2c0.1,0.4,0.3,0.6,0.7,0.7c0.2,0,0.4,0.1,0.5,0.1c4.5,0,8.9,0,13.3,0c0.1,0,0.2,0,0.3,0c0.6,-0.1,0.9,-0.4,0.9,-1.1c0,-0.2,0,-0.5,0,-0.8c0,0,0,-0.1,0,-0.1Zm18.5,-3l0,0.2c0,1.2,0,2.4,0,3.6c0,0.5,0,1.1,-0.2,1.6c-0.3,1.3,-1.2,2.1,-2.5,2.4c-0.4,0.1,-0.8,0.1,-1.1,0.1c-4.6,0,-9.1,0,-13.6,0c-0.5,0,-0.9,0,-1.4,-0.2c-1.2,-0.3,-1.9,-1.1,-2.2,-2.3c-0.2,-0.4,-0.2,-0.9,-0.2,-1.3c0,-1.3,0,-2.6,0,-3.9c0,-0.1,0,-0.1,0,-0.2c0.1,0,0.1,0,0.2,0c7,0,13.9,0,20.9,0c0,0,0.1,0,0.1,0Z" class="g1_1" />
<path fill-rule="evenodd" d="M858.8,144.8l0,2.7c0,0,-0.1,0,-0.1,0c-1.7,0,-3.4,0,-5,0c-0.5,0,-0.9,-0.1,-1.3,-0.2c-1,-0.3,-1.7,-1,-2,-2c-0.2,-1.1,-0.2,-2.1,0.1,-3.2c0.4,-1.2,1.2,-1.9,2.4,-2.2c0.4,-0.1,0.7,-0.1,1.1,-0.1c4.7,0,9.4,0,14.1,0c0.5,0,0.9,0.1,1.4,0.2c1.1,0.3,1.8,1,2.2,2.1c0.3,1,0.3,2,0.1,3c-0.3,1.2,-1.1,1.9,-2.3,2.3c-0.5,0.1,-1,0.1,-1.5,0.1c-1.2,0,-2.5,0,-3.8,0l-0.2,0l0,-2.7l0.2,0c1.3,0,2.5,0,3.8,0c0.2,0,0.4,0,0.6,-0.1c0.3,0,0.5,-0.2,0.5,-0.5c0,-0.3,0,-0.5,0,-0.7c0,-0.3,-0.2,-0.6,-0.6,-0.6c-0.2,-0.1,-0.4,-0.1,-0.6,-0.1c-3.5,0,-7.1,0,-10.7,0c-1,0,-2,0,-3,0c-0.2,0,-0.4,0,-0.6,0.1c-0.3,0,-0.5,0.2,-0.6,0.6c0,0.2,0,0.5,0,0.7c0.1,0.3,0.2,0.4,0.5,0.5c0.2,0,0.4,0.1,0.6,0.1c1.5,0,3,0,4.5,0Z" class="g1_1" />
<path fill-rule="evenodd" d="M858.6,160.9c-1.5,0,-3.1,0,-4.6,0c-0.3,0,-0.5,0,-0.7,0c-0.1,0.1,-0.2,0.1,-0.3,0.3c-0.1,0.5,0,1,0.5,1.3c0.1,0.1,0.2,0.1,0.4,0.1c1.2,0,2.4,0,3.7,0c1.9,0,3.9,0,5.8,0c0.2,0,0.3,0,0.4,-0.1c0.4,-0.3,0.5,-0.7,0.5,-1.1c-0.1,-0.3,-0.2,-0.5,-0.5,-0.5c-0.2,0,-0.3,0,-0.5,0c-1.5,0,-3.1,0,-4.7,0m7.9,1.7l5.2,0c0,1,0,1.9,0,2.8l-21.2,0c0,-0.2,0,-2.2,0,-2.4c0.1,-0.1,0.2,-0.1,0.3,-0.1c0,0,0,-0.1,0,-0.1c-0.3,-0.4,-0.4,-0.9,-0.5,-1.4c0,-0.5,0,-0.9,0.1,-1.3c0.3,-1,0.9,-1.6,1.8,-1.8c0.5,-0.1,0.9,-0.2,1.4,-0.2c3.3,0,6.7,0,10.1,0c0.5,0,0.9,0.1,1.4,0.2c1,0.3,1.6,0.9,1.8,2c0,0.6,0,1.2,-0.2,1.7c0,0.2,-0.1,0.4,-0.2,0.6Z" class="g1_1" />
<path fill-rule="evenodd" d="M858.6,152c-1.7,0,-3.3,0,-4.9,0c-0.1,0,-0.3,0,-0.4,0c-0.2,0.1,-0.3,0.2,-0.4,0.4c-0.1,0.2,-0.1,0.5,0,0.8c0.1,0.2,0.2,0.4,0.4,0.4c0.1,0,0.3,0.1,0.5,0.1c3.2,0,6.4,0,9.5,0c0.2,0,0.4,-0.1,0.5,-0.1c0.2,0,0.4,-0.2,0.4,-0.4c0.1,-0.2,0.1,-0.5,0,-0.8c0,-0.2,-0.2,-0.3,-0.4,-0.4c-0.1,0,-0.3,0,-0.4,0c-1.6,0,-3.2,0,-4.8,0m0,4.4c-1.7,0,-3.4,0,-5.1,0c-0.3,0,-0.7,-0.1,-1.1,-0.2c-1,-0.3,-1.7,-1,-2,-2c-0.2,-0.9,-0.2,-1.8,0,-2.7c0.3,-1.2,1.1,-1.9,2.3,-2.1c0.3,-0.1,0.6,-0.1,1,-0.1c3.2,0,6.5,0,9.7,0c0.4,0,0.8,0,1.2,0.1c1.1,0.3,1.8,1,2.1,2.1c0.3,0.8,0.3,1.7,0.1,2.5c-0.4,1.3,-1.2,2,-2.5,2.3c-0.3,0,-0.6,0.1,-0.9,0.1c-1.6,0,-3.2,0,-4.8,0Z" class="g1_1" />
<path fill-rule="evenodd" d="M858.6,196.1l3.2,0c0.5,0,1,0,1.6,0c0.1,0,0.3,-0.1,0.5,-0.1c0.1,0,0.3,-0.2,0.3,-0.4c0.1,-0.2,0.1,-0.5,0,-0.8c0,-0.2,-0.1,-0.3,-0.3,-0.4c-0.2,0,-0.3,0,-0.5,0c-3.2,0,-6.5,0,-9.7,0c-0.1,0,-0.3,0,-0.4,0c-0.2,0.1,-0.3,0.2,-0.4,0.4c-0.1,0.3,-0.1,0.6,0,0.9c0.1,0.1,0.2,0.3,0.4,0.3c0.1,0,0.3,0.1,0.5,0.1c1.6,0,3.2,0,4.8,0m0,-4.4c1.6,0,3.2,0,4.8,0c0.5,0,0.9,0,1.3,0.1c1,0.3,1.7,1,2,2.1c0.3,0.9,0.3,1.7,0.1,2.6c-0.4,1.2,-1.1,1.9,-2.3,2.2c-0.4,0,-0.7,0.1,-1.1,0.1c-3.2,0,-6.4,0,-9.7,0c-0.4,0,-0.8,-0.1,-1.3,-0.2c-1,-0.3,-1.7,-1,-2,-2c-0.2,-0.9,-0.2,-1.8,0,-2.7c0.3,-1.2,1.2,-1.9,2.4,-2.1c0.3,-0.1,0.6,-0.1,0.9,-0.1c1.6,0,3.3,0,4.9,0Z" class="g1_1" />
<path fill-rule="evenodd" d="M860.1,171.2c0,0,0.1,0,0.1,0c1.1,0,2.2,0,3.2,0c0.2,0,0.3,0,0.5,-0.1c0.1,0,0.2,-0.1,0.3,-0.3c0.1,-0.2,0.1,-0.4,0,-0.6c0,-0.2,-0.1,-0.4,-0.4,-0.4c-0.1,-0.1,-0.3,-0.1,-0.4,-0.1c-1.1,0,-2.1,0,-3.2,0c0,0,-0.1,0,-0.1,0Zm-2.1,2.7l0,-4.2c-0.1,0,-0.2,0,-0.2,0c-1.4,0,-2.7,0,-4,0c-0.2,0,-0.4,0,-0.5,0.1c-0.3,0,-0.4,0.2,-0.4,0.4c0,0.2,0,0.4,0,0.5c0,0.2,0.2,0.4,0.4,0.5c0.1,0,0.3,0,0.5,0c0.8,0,1.6,0,2.4,0l0.2,0c0,0.2,0,2.4,0,2.7c0,0,-0.1,0,-0.1,0c-0.9,0,-1.8,0,-2.7,0c-0.4,0,-0.8,-0.1,-1.3,-0.2c-0.9,-0.3,-1.6,-1,-1.9,-2c-0.2,-0.8,-0.2,-1.6,0,-2.4c0.2,-1.1,0.9,-1.8,2,-2.1c0.4,-0.1,0.9,-0.1,1.3,-0.1c3.2,0,6.5,0,9.7,0c0.5,0,0.9,0,1.4,0.1c1.1,0.4,1.7,1.1,2,2.2c0.2,0.8,0.2,1.6,-0.1,2.4c-0.3,1.1,-1.1,1.7,-2.2,2c-0.4,0.1,-0.7,0.1,-1.1,0.1c-1.7,0,-3.5,0,-5.2,0Z" class="g1_1" />
<path fill-rule="evenodd" d="M847.2,198.2l2.6,0c-0.1,0.1,-0.1,0.3,-0.1,0.4c-0.1,0.3,-0.1,0.7,-0.1,1.1c0,0.1,0,0.2,0,0.2c0,0.3,0.2,0.5,0.5,0.6c0.2,0,0.4,0.1,0.6,0.1c0.1,0,0.1,0,0.2,0l15.6,0l0.2,0c0,0.1,0.1,2.5,0,2.7l-0.2,0l-13.2,0c-0.9,0,-1.8,0,-2.7,0c-0.4,0,-0.9,0,-1.3,-0.1c-1.1,-0.3,-1.9,-1,-2.1,-2.1c-0.3,-1,-0.3,-1.9,0,-2.8l0,-0.1Z" class="g1_1" />
<path fill-rule="evenodd" d="M866.6,180.6l-3,0c0.1,-0.1,0.1,-0.2,0.2,-0.4c0.3,-0.4,0.3,-0.8,0.3,-1.2c-0.1,-0.2,-0.2,-0.4,-0.3,-0.5c-0.1,-0.2,-0.3,-0.2,-0.5,-0.2c-4.2,0,-8.4,0,-12.6,0l-0.2,0l0,-2.8c0.1,0,15.8,0,16.1,0c0.1,0.1,0.1,2,0.1,2.4c-0.2,0,-0.3,0,-0.4,0.1c0.5,0.8,0.7,1.7,0.3,2.6Z" class="g1_1" />
<path fill-rule="evenodd" d="M867.8,200.6l3.9,0c0.1,0.1,0.1,2.4,0.1,2.7c-0.2,0,-3.7,0,-4,0Z" class="g1_1" />
<path fill-rule="evenodd" d="M867.5,113.9l0,2.9c0.2,0.1,5.5,0.1,5.6,0l0,-2.9Zm2.8,3.9c-0.9,0,-1.9,0,-2.8,0c-0.5,0,-1,-0.4,-1,-1c0,-0.9,0,-1.9,0,-2.9c0,-0.4,0.3,-0.8,0.7,-0.9c0.1,0,0.2,0,0.3,0c1.9,0,3.7,0,5.6,0c0.2,0,0.4,0,0.5,0.1c0.3,0.2,0.5,0.4,0.5,0.8c0,1,0,2,0,3c0,0.4,-0.4,0.9,-0.9,0.9c-1,0,-1.9,0,-2.9,0Z" class="g1_1" />
<text
transform="matrix(0, 1, -1, 0, 847, 363)"
dx="0,-3.6,-2.6,-3.8,-3.2,-3.1,0,0,-2.9,-3.7,-3.1,0,0,-3.6,-2.7,-2.5"
class="s11_1"
>create with code</text>

<path d="M1469,30l0,5l-6,0l0,65l225,0l0,-65l-6,0l0,-5Z" class="g2_1" />
<path d="M1463,100l0,52l6,0l0,6l213,0l0,-6l6,0l0,-52Z" class="g1_1" />
<g clip-path="url(#c1_1)">
<path fill-rule="evenodd" d="M1503.8,85.6l-0.4,0c-0.6,0,-1.3,0,-2,0c-0.1,0,-0.3,0,-0.4,0.1c-0.4,0.1,-0.7,0.5,-0.6,0.9c0.1,0.5,0.4,0.7,0.9,0.7c2.2,0,4.5,0,6.7,0c0,0,0.1,0,0.2,0c0.3,0,0.6,-0.2,0.7,-0.5c0,-0.1,0,-0.2,0,-0.4c0,-1.4,0,-2.8,0,-4.2c0,-0.1,0,-0.2,0,-0.2c0,-0.5,-0.5,-0.9,-1,-0.7c-0.4,0.1,-0.7,0.4,-0.7,0.8c0,1.1,0,2.1,0,3.1l0,0.4c-0.6,0,-1.1,0,-1.7,0l0,-1.3c0,-0.4,0,-0.9,0,-1.3l0,-1.3l0,-1.3c0,-0.4,0,-0.9,0,-1.3c0,-0.4,0,-0.9,0,-1.3l0,-1.3c0,-0.4,0,-0.9,0,-1.3c0,-0.4,0,-0.8,0,-1.3l-1.1,0c-1,0,-2.1,0,-3.1,0c-0.5,0,-0.9,0.4,-0.9,0.9c0,0.4,0.4,0.8,0.8,0.8c0.8,0,1.5,0,2.2,0l0.4,0Zm-7.5,6.3c0,-0.1,0,-0.1,0,-0.1c0,0,-0.1,-0.1,-0.2,-0.1c-0.8,-0.6,-1.6,-1.2,-2.2,-1.9c-3.3,-3.5,-4.7,-7.5,-4,-12.2c0.5,-3.4,2.1,-6.3,4.7,-8.6c2.7,-2.4,6,-3.6,9.7,-3.7c0.7,0,1.4,0,2.1,-0.1c3.2,-0.6,5.9,-2,8.1,-4.4c2.8,-3.2,3.9,-7,3.1,-11.2c-0.6,-3.4,-2.3,-6.1,-5.1,-8.2c-2.1,-1.6,-4.4,-2.4,-7,-2.7c-0.9,0,-1.8,0,-2.7,0c-1.8,0.1,-3.5,0.4,-5.2,0.8c-8,2,-14.5,7.3,-18.1,14.6c-1.6,3.1,-2.5,6.5,-2.7,10c-0.1,1.3,-0.1,2.6,0,3.9c0.2,1.6,0.4,3.1,0.8,4.6c1.3,4.9,3.7,9,7.3,12.5c3.2,3.1,6.9,5.4,11.1,6.7c0.1,0,0.2,0,0.3,0.1m9.2,-54.3c0.4,0,0.8,0.1,1.2,0.1c3.5,0.3,6.8,1.1,9.9,2.7c7,3.4,11.8,8.8,14.4,16.1c0.8,2,1.2,4.2,1.5,6.4c1.4,13.5,-6.9,25.8,-19.3,29.8c-2.1,0.7,-4.3,1.2,-6.5,1.3c-0.4,0.1,-0.8,0.1,-1.3,0.1c-0.1,0,-0.2,0.1,-0.3,0.1l-1.6,0c-0.2,0,-0.4,-0.1,-0.6,-0.1c-1.6,-0.1,-3.2,-0.3,-4.8,-0.6C1491.5,92,1486,88.6,1481.7,83.3c-3.6,-4.5,-5.6,-9.7,-6,-15.5c0,-0.3,-0.1,-0.6,-0.1,-0.8l0,-2.2c0,-0.3,0.1,-0.6,0.1,-0.8c0.1,-2.1,0.5,-4.2,1.1,-6.2c2.5,-7.9,7.6,-13.7,15,-17.4c3.2,-1.6,6.6,-2.4,10.2,-2.7c0.4,0,0.9,-0.1,1.3,-0.1Z" class="g1_1" />
<path fill-rule="evenodd" d="M1670.2,70.4c0,-2.1,0,-4.2,0,-6.3c0,-0.8,0,-1.5,0,-2.3c0,-0.3,0,-0.5,-0.1,-0.8c-0.1,-0.3,-0.3,-0.5,-0.5,-0.6c-0.6,-0.1,-1.1,-0.1,-1.7,0c-0.3,0.1,-0.5,0.3,-0.5,0.6c-0.1,0.3,-0.1,0.6,-0.2,0.9c0,5.7,0,11.4,0,17.2c0,0.2,0.1,0.5,0.1,0.8c0.1,0.3,0.3,0.5,0.6,0.5c0.5,0.2,1,0.2,1.6,0.1c0.3,-0.1,0.6,-0.4,0.6,-0.7c0.1,-0.3,0.1,-0.7,0.1,-1c0,-2.8,0,-5.6,0,-8.4M1675,80c0,0.1,-0.1,0.2,-0.1,0.2c-0.1,2.1,-1.4,4.2,-4.2,4.8c-1.4,0.3,-2.8,0.3,-4.2,-0.1c-2.2,-0.5,-3.5,-2,-3.9,-4.2c-0.1,-0.5,-0.1,-1,-0.1,-1.6c-0.1,-5.8,-0.1,-11.6,-0.1,-17.4c0,-0.7,0.1,-1.4,0.3,-2.1c0.5,-1.9,1.8,-3.1,3.6,-3.6c1.6,-0.5,3.1,-0.5,4.6,-0.1c2.2,0.6,3.5,2,4,4.2c0,0.2,0.1,0.5,0.1,0.8Z" class="g1_1" />
</g>
<path fill-rule="evenodd" d="M1626.9,80c0.8,0,1.5,0.1,2.2,0c0.7,0,1.1,-0.5,1.2,-1.1c0.1,-0.3,0.1,-0.7,0.1,-1c0,-7.8,0,-15.7,0,-23.5c0,-0.1,0,-0.3,0,-0.5c-0.1,-1.1,-0.7,-1.7,-1.8,-1.7c-0.5,0,-1,0,-1.4,0c-0.1,0,-0.2,0.1,-0.3,0.1Zm-5.2,-32.7l0.3,0c2.2,0,4.3,0,6.4,0c0.9,0,1.8,0.1,2.7,0.3c2.3,0.7,3.8,2.2,4.3,4.5c0.2,0.7,0.3,1.3,0.3,2c0,8,0,16,0,24c0,0.9,-0.1,1.7,-0.4,2.5c-0.6,2.1,-1.9,3.4,-4.1,4c-0.8,0.2,-1.6,0.3,-2.4,0.3c-2.3,0,-4.6,0,-6.9,0c-0.1,0,-0.1,0,-0.2,0c-0.1,0,-0.1,0,-0.1,-0.1c0,0,0,-0.1,0,-0.2c0,-12.4,0,-24.8,0,-37.2l0.1,-0.1Z" class="g1_1" />
<path fill-rule="evenodd" d="M1555.6,70.1l4.9,0c0,0.1,0.1,0.2,0.1,0.3c-0.1,2.9,-0.1,5.9,-0.1,8.9c0,0.7,-0.1,1.5,-0.4,2.2c-0.6,1.8,-1.8,3,-3.6,3.5c-1.8,0.5,-3.7,0.5,-5.5,-0.1c-2.2,-0.7,-3.4,-2.1,-3.9,-4.3c-0.2,-0.7,-0.2,-1.3,-0.2,-2c0,-8.3,0,-16.6,0,-24.9c0,-0.8,0.1,-1.7,0.3,-2.5c0.6,-1.9,1.8,-3.2,3.8,-3.9c1.7,-0.5,3.4,-0.6,5.2,-0.1c2.1,0.5,3.5,1.9,4.1,4c0.2,0.9,0.3,1.7,0.3,2.6c0,2.3,0,4.5,0,6.8l0,0.4l-5,0l0,-0.4c0,-2.3,0,-4.5,0,-6.8c0,-0.3,0,-0.7,-0.1,-1c-0.1,-0.6,-0.4,-0.8,-0.9,-0.9c-0.4,-0.1,-0.8,-0.1,-1.2,0c-0.6,0.1,-1,0.4,-1.2,1c0,0.4,-0.1,0.7,-0.1,1.1c0,6.3,0,12.6,0,18.9c0,1.8,0,3.6,0,5.4c0,0.4,0.1,0.7,0.1,1c0.2,0.6,0.6,1,1.2,1.1c0.4,0.1,0.8,0.1,1.2,0c0.5,-0.1,0.8,-0.4,0.9,-0.8c0.1,-0.4,0.1,-0.8,0.1,-1.2c0,-2.6,0,-5.2,0,-7.8Z" class="g1_1" />
<path fill-rule="evenodd" d="M1584.2,70.4c0,2.8,0,5.6,0,8.3c0,0.4,0,0.8,0.1,1.2c0,0.2,0.2,0.4,0.4,0.5c1,0.2,1.8,0,2.4,-0.8c0.1,-0.2,0.2,-0.4,0.2,-0.7c0,-2.2,0,-4.4,0,-6.6c0,-3.4,0,-6.9,0,-10.3c0,-0.3,-0.1,-0.6,-0.2,-0.8c-0.5,-0.6,-1.2,-0.8,-2,-0.7c-0.6,0,-0.8,0.2,-0.9,0.8c0,0.3,0,0.6,0,0.9c0,2.7,0,5.5,0,8.2m3.1,-13.9l0,-9.2c1.6,0,3.2,0,4.8,0l0,37.6c-0.2,0,-3.7,0.1,-4.2,0c-0.1,-0.2,-0.1,-0.4,-0.1,-0.6c-0.1,0,-0.1,0,-0.2,0c-0.8,0.6,-1.6,0.8,-2.5,0.9c-0.8,0.1,-1.6,0,-2.3,-0.2c-1.7,-0.4,-2.7,-1.5,-3.2,-3.2c-0.2,-0.7,-0.3,-1.5,-0.3,-2.4c0,-5.9,0,-11.9,0,-17.9c0,-0.8,0.1,-1.6,0.3,-2.4c0.5,-1.9,1.7,-2.9,3.6,-3.2c1,-0.2,2,-0.2,3,0.2c0.4,0.1,0.7,0.3,1.1,0.4Z" class="g1_1" />
<path fill-rule="evenodd" d="M1568.4,70.6c0,2.9,0,5.7,0,8.6c0,0.2,0,0.5,0.1,0.8c0,0.3,0.3,0.5,0.6,0.6c0.5,0.1,1,0.1,1.6,0c0.3,-0.1,0.5,-0.3,0.6,-0.7c0,-0.2,0.1,-0.5,0.1,-0.8c0,-5.7,0,-11.3,0,-17c0,-0.3,-0.1,-0.6,-0.1,-0.9c-0.1,-0.3,-0.3,-0.6,-0.7,-0.6c-0.5,-0.2,-1,-0.2,-1.4,0c-0.4,0,-0.6,0.3,-0.7,0.6c-0.1,0.3,-0.1,0.6,-0.1,0.9c0,2.8,0,5.7,0,8.5m7.8,0c0,3,0,5.9,0,8.9c0,0.6,-0.1,1.3,-0.3,1.9c-0.5,1.9,-1.7,3.1,-3.6,3.6c-1.6,0.4,-3.2,0.4,-4.8,0c-2,-0.5,-3.2,-1.9,-3.7,-3.9c-0.2,-0.6,-0.2,-1.3,-0.2,-1.9c0,-5.7,0,-11.5,0,-17.3c0,-0.7,0.1,-1.4,0.2,-2c0.6,-2,1.8,-3.2,3.7,-3.8c1.5,-0.4,3.1,-0.4,4.6,0c2.2,0.5,3.5,2,3.9,4.3c0.1,0.5,0.2,1.1,0.2,1.7c0,2.8,0,5.7,0,8.5Z" class="g1_1" />
<path fill-rule="evenodd" d="M1646.5,70.6l0,-5.7c0,-1,0,-1.9,0,-2.8c0,-0.3,0,-0.6,-0.1,-0.9c0,-0.3,-0.2,-0.5,-0.6,-0.6c-0.5,-0.2,-1,-0.2,-1.5,0c-0.3,0.1,-0.6,0.3,-0.6,0.6c-0.1,0.3,-0.1,0.5,-0.1,0.8c0,5.8,0,11.5,0,17.2c0,0.3,0,0.5,0.1,0.8c0,0.3,0.2,0.5,0.6,0.6c0.5,0.1,1,0.1,1.5,0c0.4,-0.1,0.6,-0.3,0.6,-0.6c0.1,-0.3,0.1,-0.7,0.1,-1c0,-2.8,0,-5.6,0,-8.4m-7.7,0c0,-2.9,0,-5.8,0,-8.7c0,-0.7,0,-1.4,0.2,-2.1c0.6,-1.9,1.8,-3.2,3.7,-3.7c1.5,-0.4,3.1,-0.4,4.6,0c2.1,0.5,3.4,1.9,3.9,4c0.1,0.6,0.2,1.3,0.2,1.9c0,5.7,0,11.4,0,17.1c0,0.8,-0.1,1.6,-0.3,2.3c-0.6,1.9,-1.8,3.1,-3.6,3.6c-1.6,0.4,-3.2,0.4,-4.7,0c-2.2,-0.5,-3.5,-2,-3.9,-4.2c-0.1,-0.5,-0.1,-1.1,-0.1,-1.6c0,-2.9,0,-5.8,0,-8.6Z" class="g1_1" />
<path fill-rule="evenodd" d="M1602.5,67.9c0,-0.1,0,-0.2,0,-0.2c0,-1.9,0,-3.8,0,-5.7c0,-0.3,0,-0.6,-0.1,-0.8c-0.1,-0.3,-0.3,-0.5,-0.6,-0.6c-0.4,-0.1,-0.8,-0.1,-1.1,0c-0.4,0,-0.7,0.3,-0.8,0.6c0,0.3,-0.1,0.6,-0.1,0.8c0,1.9,0,3.8,0,5.6c0,0.1,0,0.2,0,0.3Zm4.7,3.7l-7.4,0c0,0.2,0,0.3,0,0.4c0,2.4,0,4.7,0,7c0,0.4,0.1,0.7,0.1,1c0.1,0.4,0.4,0.6,0.8,0.6c0.3,0.1,0.6,0.1,0.9,0c0.4,0,0.7,-0.3,0.8,-0.7c0.1,-0.2,0.1,-0.5,0.1,-0.8c0,-1.4,0,-2.9,0,-4.3l0,-0.4c0.3,0,4.3,0,4.7,0c0,0.1,0,0.2,0,0.3c0,1.5,0,3.1,0,4.7c0,0.7,-0.1,1.5,-0.3,2.2c-0.5,1.8,-1.7,2.9,-3.5,3.4c-1.4,0.4,-2.8,0.4,-4.3,0.1c-1.9,-0.5,-3.1,-1.7,-3.7,-3.6c-0.2,-0.8,-0.3,-1.5,-0.3,-2.3c0,-5.7,0,-11.5,0,-17.2c0,-0.8,0.1,-1.6,0.4,-2.4c0.6,-1.9,1.9,-3.2,3.8,-3.6c1.4,-0.3,2.8,-0.3,4.2,0.1c1.9,0.6,3.1,2,3.5,4c0.2,0.6,0.2,1.2,0.2,1.9c0,3.1,0,6.2,0,9.2Z" class="g1_1" />
<path fill-rule="evenodd" d="M1650.4,90.7l0,-4.5c0.2,0,0.4,0.1,0.6,0.1c0.6,0.2,1.3,0.3,2,0.2c0.1,0,0.3,0,0.4,0c0.5,-0.1,0.8,-0.4,1,-0.8c0.1,-0.4,0.1,-0.8,0.1,-1.2c0,-0.1,0,-0.2,0,-0.4l0,-27.5l0,-0.4c0.3,-0.1,4.5,-0.1,4.9,-0.1l0,0.5l0,23.4c0,1.5,0,3.1,0,4.6c0,0.8,0,1.7,-0.3,2.5c-0.5,1.9,-1.7,3.2,-3.7,3.7c-1.6,0.4,-3.2,0.4,-4.9,0c0,0,-0.1,0,-0.1,-0.1Z" class="g1_1" />
<path fill-rule="evenodd" d="M1619.2,56.4l0,5.3c-0.2,-0.1,-0.5,-0.3,-0.7,-0.5c-0.7,-0.5,-1.4,-0.5,-2.2,-0.3c-0.3,0,-0.6,0.2,-0.9,0.4c-0.3,0.2,-0.4,0.5,-0.4,0.9c0,7.4,0,14.8,0,22.3l0,0.4l-4.9,0c0,-0.2,-0.1,-28.1,0,-28.6c0.2,-0.1,3.6,-0.1,4.2,0c0.1,0.2,0.1,0.4,0.2,0.6c1.5,-1,3.1,-1.2,4.7,-0.5Z" class="g1_1" />
<path fill-rule="evenodd" d="M1654.6,54.2l0,-7c0.2,-0.1,4.2,-0.1,4.8,0c0,0.2,0.1,6.5,0,7Z" class="g1_1" />
<path fill-rule="evenodd" d="M1501,54.8l5.1,0c0.1,-0.4,0.1,-9.7,0,-10l-5.1,0Zm6.8,-5c0,1.7,0,3.3,0.1,5c0,0.9,-0.7,1.8,-1.8,1.7c-1.7,0,-3.4,0,-5.1,0c-0.9,0,-1.5,-0.5,-1.7,-1.2c0,-0.2,0,-0.3,0,-0.5c0,-3.3,0,-6.7,0,-10c0,-0.4,0,-0.7,0.2,-0.9c0.3,-0.5,0.8,-0.8,1.4,-0.8c1.8,0,3.6,0,5.3,0c0.8,-0.1,1.7,0.7,1.6,1.6c0,1.7,0,3.4,0,5.1Z" class="g1_1" />
<text
x="1511"
y="140"
dx="0"
class="s12_1"
>&lt;</text>

<text
x="1529"
y="141"
dx="0,-2.6,-2.6,-2.5"
class="s12_1"
>NANO</text>

<text
x="1622"
y="140"
dx="0"
class="s12_1"
>&gt;</text>

<text
transform="matrix(0, 1, -1, 0, 851, 710)"
dx="0,-1.5,-1.7,-1.6,-2.5,0,0,-1.6,-1.4,-1.4,0,0,-1.4,-1.4,0,0,-1.4,-2.3,-1.8,-1.8,-2.1,-1.8"
class="s13_1"
>build your own website</text>

<text
x="63"
y="124"
dx="0,0,0,0,0,0,0,0,0,0,0.3,0,0,0.3,0,0.3,0,0,0,0,0,0,0.3,0,0,0,0,0,0,0,0.3,0,0"
class="s14_1"
>CoderDojo is a global network of </text>

<text
x="63"
y="145"
dx="0,0,0,0,0,5.4,0,0,0,0,0,0,0,0,0,5.4,0,0,0,0,0,5.4,0,0,0,5.4,0,0,0,0,0"
class="s14_1"
>free computing clubs for young </text>

<text
x="63"
y="166"
dx="0,0,0,0,0,0,0,0,0.7,0,0,0,0,0,0,0,0.7,0,0,0,0,0,0,0,0,0.7,0,0,0.7,0,0,0,0,0"
class="s14_1"
>people, working together to build </text>

<text
x="132"
y="188"
dx="0,0,0,0,0,0,0,0,0,0,0,0,0,0,0,0,0,0,0"
class="s14_1"
>their code skills. </text>

<text
x="63"
y="230"
dx="0,0,0,-0.5,0,0,0,0,-0.5,0,0,0,0,0,0,0,0,0,-0.5,0,0,0,0,0,0,-0.5,0,0,0,0.1,0,-0.5,0,0,0"
class="s14_1"
>In this handbook, you’ll learn how </text>

<text
x="63"
y="251"
dx="0,0,0,-0.4,0,0,0,-0.4,0,0,0,0,0,0,0,0,-0.4,0,0,0,0,-0.4,0,0,0,-0.4,0,0,0,0,0,0,0"
class="s14_1"
>to put together your own amazing </text>

<text
x="63"
y="273"
dx="0,0,0,0,0,0,0,0,0,5.1,0,0,0,0"
class="s14_1"
>websites with </text>

<text
x="181"
y="273"
dx="0,0,0,0,0,0,5.7,0,0"
class="s15_1"
>HTML, CSS</text>

<text
x="293"
y="273"
dx="0,0,0,0"
class="s14_1"
>and </text>

<text
x="63"
y="294"
dx="0,0,0,0,0,0,0,0,0,0"
class="s15_1"
>JavaScript</text>

<text
x="168"
y="294"
dx="0,0,3.9,0,0,0,3.9,0,0,0,3.9,0,0,3.9,0,0,0,0.4,0"
class="s14_1"
>– and how to start </text>

<text
x="63"
y="315"
dx="0,0,0,0,0,2.6,0,0,0,2.6,0,0,0,0,0,0,0,0,0,2.6,0,0,0,0,2.6,0,0,0,0"
class="s14_1"
>your own CoderDojo Nano with </text>

<text
x="147"
y="337"
dx="0,0,0,0,0"
class="s14_1"
>your </text>

<text
x="186"
y="337"
dx="0,0,0,0,0,0,0,0"
class="s16_1"
>friends.</text>

<g clip-path="url(#c2_1)">
<path fill-rule="evenodd" d="M75.5,84l-0.3,0c-0.6,0,-1.1,0,-1.7,0c-0.1,0,-0.2,0,-0.3,0.1c-0.4,0,-0.6,0.4,-0.5,0.7c0,0.4,0.3,0.6,0.7,0.6c1.8,0,3.7,0,5.5,0c0,0,0.1,0,0.1,0c0.3,0,0.5,-0.2,0.6,-0.4c0.1,-0.1,0.1,-0.2,0.1,-0.3c0,-1.2,0,-2.3,0,-3.5c0,-0.1,0,-0.1,0,-0.2C79.6,80.6,79.2,80.4,78.8,80.5c-0.3,0,-0.5,0.3,-0.5,0.7c0,0.8,0,1.7,0,2.5l0,0.3c-0.5,0,-0.9,0,-1.4,0l0,-1.1c0,-0.3,0,-0.7,0,-1l0,-1.1l0,-1c0,-0.4,0,-0.8,0,-1.1c0,-0.4,0,-0.7,0,-1.1l0,-1c0,-0.4,0,-0.7,0,-1.1c0,-0.3,0,-0.7,0,-1.1l-0.9,0c-0.9,0,-1.7,0.1,-2.6,0c-0.4,0,-0.7,0.4,-0.7,0.7c0,0.4,0.3,0.7,0.7,0.7c0.6,0,1.2,0,1.8,0l0.3,0Zm-6.1,5.1C69.3,89.1,69.3,89,69.2,89C68.5,88.5,67.9,88,67.3,87.4c-2.7,-2.8,-3.8,-6.1,-3.2,-10c0.4,-2.8,1.7,-5.1,3.8,-7c2.3,-2,5,-3,8,-3c0.6,0,1.2,0,1.7,-0.1c2.6,-0.4,4.8,-1.6,6.6,-3.6c2.3,-2.6,3.2,-5.7,2.6,-9.2c-0.5,-2.7,-1.9,-5,-4.2,-6.7C80.9,46.6,79,45.8,76.9,45.7c-0.8,-0.1,-1.5,-0.1,-2.3,0c-1.4,0,-2.8,0.2,-4.2,0.6C63.9,47.9,58.5,52.2,55.6,58.2c-1.3,2.6,-2,5.4,-2.2,8.2c-0.1,1.1,-0.1,2.2,0,3.2c0.1,1.3,0.3,2.6,0.6,3.8c1.1,4,3.1,7.4,6,10.2c2.6,2.6,5.6,4.4,9.1,5.5c0.1,0,0.2,0,0.3,0M76.9,44.7c0.3,0,0.6,0.1,1,0.1C80.7,45,83.4,45.7,86,47c5.6,2.8,9.6,7.2,11.7,13.2c0.7,1.7,1,3.4,1.2,5.2c1.2,11.1,-5.6,21.1,-15.8,24.4c-1.7,0.6,-3.5,1,-5.3,1.1c-0.3,0,-0.7,0.1,-1,0.1c-0.1,0,-0.2,0,-0.3,0l-1.3,0c-0.2,0,-0.3,0,-0.4,0c-1.4,-0.1,-2.7,-0.2,-4,-0.5c-5.4,-1.3,-9.9,-4,-13.4,-8.4C54.5,78.4,52.8,74.2,52.5,69.4c0,-0.2,-0.1,-0.4,-0.1,-0.6l0,-1.8c0,-0.3,0.1,-0.5,0.1,-0.7c0.1,-1.7,0.4,-3.4,0.9,-5C55.5,54.8,59.6,50,65.7,47c2.6,-1.3,5.4,-2,8.3,-2.2c0.4,0,0.7,-0.1,1.1,-0.1Z" class="g1_1" />
<path fill-rule="evenodd" d="M211.7,71.6c0,-1.7,0,-3.5,0,-5.2c0,-0.6,0,-1.3,0,-1.9c0,-0.2,-0.1,-0.4,-0.1,-0.6c-0.1,-0.3,-0.3,-0.4,-0.5,-0.5c-0.4,-0.1,-0.9,-0.1,-1.3,0c-0.3,0.1,-0.4,0.3,-0.5,0.5c0,0.2,-0.1,0.5,-0.1,0.7c0,4.7,0,9.4,0,14.1c0,0.2,0.1,0.4,0.1,0.6c0.1,0.3,0.2,0.4,0.5,0.5c0.4,0.1,0.8,0.1,1.2,0c0.4,-0.1,0.5,-0.3,0.6,-0.6c0,-0.2,0.1,-0.5,0.1,-0.7c0,-2.3,0,-4.6,0,-6.9m3.9,7.9c-0.1,0,-0.1,0.1,-0.1,0.1c-0.1,1.7,-1.2,3.4,-3.4,3.9c-1.2,0.2,-2.4,0.2,-3.5,-0.1C206.8,83,205.8,81.8,205.4,80c-0.1,-0.4,-0.1,-0.9,-0.1,-1.3c0,-4.7,0,-9.5,0,-14.2c0,-0.6,0.1,-1.2,0.2,-1.8c0.5,-1.5,1.4,-2.5,3,-2.9c1.2,-0.4,2.5,-0.4,3.7,-0.1c1.8,0.5,2.9,1.6,3.3,3.4c0,0.2,0,0.4,0.1,0.7Z" class="g1_1" />
</g>
<path fill-rule="evenodd" d="M176.2,79.4c0.6,0,1.2,0.1,1.8,0c0.6,0,0.9,-0.4,1,-0.9c0.1,-0.3,0.1,-0.5,0.1,-0.8c0,-6.4,0,-12.8,0,-19.2c0,-0.1,0,-0.3,0,-0.4c-0.1,-0.9,-0.6,-1.4,-1.5,-1.4c-0.4,0,-0.8,0,-1.2,0c-0.1,0,-0.1,0,-0.2,0ZM171.9,52.7l0.3,0c1.8,0,3.5,0,5.2,0c0.8,0,1.5,0,2.3,0.2c1.9,0.6,3,1.8,3.5,3.7c0.1,0.5,0.2,1.1,0.2,1.6c0,6.6,0,13.1,0,19.7c0,0.7,-0.1,1.3,-0.3,2c-0.5,1.7,-1.6,2.8,-3.4,3.3c-0.6,0.2,-1.2,0.2,-1.9,0.2c-1.9,0.1,-3.8,0.1,-5.7,0c0,0,-0.1,0,-0.2,0c0,-0.1,0,-0.2,0,-0.2c0,-10.2,0,-20.3,0,-30.4c0,-0.1,0,-0.1,0,-0.1Z" class="g1_1" />
<path fill-rule="evenodd" d="M117.9,71.4l4,0c0,0,0,0.1,0,0.1c0,2.5,0,4.9,0,7.3c0,0.7,-0.1,1.3,-0.3,1.9c-0.5,1.4,-1.5,2.4,-3,2.8c-1.5,0.4,-3,0.4,-4.5,-0.1c-1.8,-0.5,-2.8,-1.7,-3.2,-3.5c-0.1,-0.5,-0.2,-1.1,-0.2,-1.6c0,-6.8,0,-13.6,0,-20.4c0,-0.7,0.1,-1.4,0.3,-2c0.4,-1.6,1.5,-2.7,3.1,-3.2c1.4,-0.5,2.8,-0.5,4.2,-0.2c1.8,0.5,2.9,1.6,3.4,3.4c0.2,0.7,0.2,1.4,0.2,2.1c0,1.8,0,3.7,0,5.6l0,0.3l-4,0l0,-0.4c0,-1.8,0,-3.6,0,-5.5c0,-0.3,0,-0.6,-0.1,-0.8c-0.1,-0.5,-0.3,-0.7,-0.8,-0.8c-0.3,0,-0.6,0,-0.9,0c-0.5,0.1,-0.9,0.4,-1,0.9c0,0.3,-0.1,0.6,-0.1,0.8c0,5.2,0,10.4,0,15.5c0,1.5,0,3,0,4.5c0,0.2,0.1,0.5,0.1,0.8c0.1,0.5,0.4,0.8,0.9,0.9c0.4,0,0.7,0,1.1,-0.1c0.3,0,0.6,-0.3,0.7,-0.6c0,-0.3,0.1,-0.7,0.1,-1c0,-2.1,0,-4.3,0,-6.4Z" class="g1_1" />
<path fill-rule="evenodd" d="M141.2,71.6c0,2.3,0,4.5,0,6.8c0,0.3,0.1,0.6,0.1,0.9c0.1,0.2,0.2,0.4,0.4,0.4c0.8,0.2,1.4,0.1,1.9,-0.6c0.2,-0.1,0.2,-0.3,0.2,-0.5c0,-1.8,0,-3.6,0,-5.4c0,-2.9,0,-5.7,0,-8.5c0,-0.3,-0.1,-0.5,-0.2,-0.6c-0.4,-0.6,-1,-0.7,-1.6,-0.7c-0.5,0.1,-0.7,0.2,-0.7,0.7c0,0.3,-0.1,0.5,-0.1,0.7c0,2.3,0,4.5,0,6.8m2.6,-11.4l0,-7.5c1.3,-0.1,2.6,0,4,0l0,30.7c-0.2,0.1,-3.1,0.1,-3.5,0c-0.1,-0.1,-0.1,-0.3,-0.1,-0.5c-0.1,0,-0.1,0,-0.1,0.1c-0.7,0.4,-1.4,0.6,-2.1,0.7c-0.6,0,-1.3,0,-1.9,-0.1c-1.4,-0.4,-2.2,-1.3,-2.6,-2.7c-0.2,-0.6,-0.3,-1.3,-0.3,-1.9c0,-4.9,0,-9.8,0,-14.7c0,-0.7,0.1,-1.4,0.3,-2c0.4,-1.5,1.4,-2.4,2.9,-2.6c0.9,-0.1,1.7,-0.1,2.5,0.2c0.3,0,0.6,0.2,0.9,0.3Z" class="g1_1" />
<path fill-rule="evenodd" d="M128.3,71.7c0,2.4,0,4.7,0,7c0,0.3,0.1,0.5,0.1,0.7c0.1,0.3,0.2,0.4,0.5,0.5c0.4,0.1,0.8,0.1,1.3,0c0.3,-0.1,0.4,-0.2,0.5,-0.5c0,-0.3,0.1,-0.5,0.1,-0.7c0,-4.7,0,-9.3,0,-13.9c0,-0.3,-0.1,-0.5,-0.1,-0.7c-0.1,-0.3,-0.3,-0.5,-0.5,-0.6c-0.4,-0.1,-0.8,-0.1,-1.3,0c-0.2,0.1,-0.4,0.3,-0.5,0.6c0,0.2,-0.1,0.4,-0.1,0.7c0,2.3,0,4.6,0,6.9m6.4,0c0,2.4,0,4.9,0,7.3c0,0.5,-0.1,1.1,-0.2,1.6c-0.5,1.5,-1.5,2.5,-3,2.9c-1.3,0.4,-2.6,0.4,-3.9,0c-1.7,-0.4,-2.7,-1.5,-3,-3.2c-0.2,-0.5,-0.2,-1,-0.2,-1.5c0,-4.7,0,-9.4,0,-14.2c0,-0.5,0.1,-1.1,0.2,-1.7c0.4,-1.5,1.4,-2.6,3,-3c1.2,-0.4,2.5,-0.4,3.7,-0.1c1.9,0.5,2.9,1.7,3.3,3.6c0.1,0.4,0.1,0.9,0.1,1.4c0,2.3,0,4.6,0,6.9Z" class="g1_1" />
<path fill-rule="evenodd" d="M192.3,71.7l0,-4.6c0,-0.8,0,-1.6,0,-2.3c0,-0.3,-0.1,-0.5,-0.1,-0.7c-0.1,-0.3,-0.2,-0.5,-0.5,-0.6c-0.4,-0.1,-0.9,-0.1,-1.3,0c-0.2,0.1,-0.4,0.3,-0.5,0.5c0,0.2,0,0.5,0,0.7c-0.1,4.7,-0.1,9.4,-0.1,14.1c0,0.2,0.1,0.4,0.1,0.6c0.1,0.3,0.2,0.4,0.5,0.5c0.4,0.1,0.9,0.1,1.3,0c0.3,-0.1,0.4,-0.2,0.5,-0.5c0,-0.3,0.1,-0.5,0.1,-0.8c0,-2.3,0,-4.6,0,-6.9m-6.4,0c0,-2.4,0,-4.7,0,-7.1c0,-0.6,0.1,-1.1,0.2,-1.7c0.5,-1.6,1.5,-2.6,3,-3c1.3,-0.4,2.6,-0.4,3.8,-0.1c1.7,0.5,2.8,1.6,3.2,3.4c0.1,0.5,0.1,1,0.1,1.5c0,4.7,0,9.3,0,14c0,0.7,0,1.3,-0.2,1.9c-0.5,1.5,-1.4,2.5,-2.9,2.9c-1.3,0.4,-2.6,0.4,-3.9,0c-1.8,-0.4,-2.8,-1.6,-3.2,-3.4c0,-0.5,-0.1,-0.9,-0.1,-1.3c0,-2.4,0,-4.8,0,-7.1Z" class="g1_1" />
<path fill-rule="evenodd" d="M156.2,69.5c0.1,-0.1,0.1,-0.1,0.1,-0.2c0,-1.5,0,-3.1,0,-4.6c0,-0.3,-0.1,-0.5,-0.2,-0.7c0,-0.2,-0.2,-0.4,-0.5,-0.4c-0.3,-0.1,-0.6,-0.1,-0.9,-0.1c-0.3,0.1,-0.5,0.3,-0.6,0.6c0,0.2,-0.1,0.4,-0.1,0.6c0,1.5,0,3.1,0,4.6c0,0.1,0,0.1,0.1,0.2Zm3.9,3.1l-6.1,0c0,0.1,0,0.2,0,0.3c0,1.9,0,3.8,0,5.7c0,0.3,0.1,0.6,0.1,0.8c0.1,0.3,0.3,0.5,0.7,0.5c0.2,0.1,0.5,0.1,0.7,0c0.4,0,0.6,-0.2,0.7,-0.5c0,-0.3,0.1,-0.5,0.1,-0.7c0,-1.2,0,-2.4,0,-3.5l0,-0.3c0.2,-0.1,3.5,-0.1,3.8,0c0,0,0,0.1,0,0.2c0,1.2,0,2.5,0,3.8c0,0.6,-0.1,1.2,-0.3,1.8c-0.4,1.5,-1.4,2.4,-2.8,2.8c-1.2,0.4,-2.3,0.4,-3.5,0.1c-1.6,-0.4,-2.6,-1.4,-3,-3c-0.2,-0.6,-0.3,-1.2,-0.3,-1.9c0,-4.6,0,-9.3,0,-14c0,-0.7,0.1,-1.3,0.3,-2c0.5,-1.6,1.5,-2.6,3.2,-2.9c1.1,-0.3,2.2,-0.3,3.3,0.1c1.7,0.5,2.6,1.6,3,3.2c0.1,0.5,0.1,1.1,0.1,1.6c0,2.5,0,5,0,7.6Z" class="g1_1" />
<path fill-rule="evenodd" d="M195.4,88.2l0,-3.7c0.2,0,0.4,0,0.5,0.1c0.6,0.1,1.1,0.2,1.6,0.2c0.2,0,0.3,0,0.4,-0.1c0.4,0,0.7,-0.3,0.8,-0.7c0.1,-0.3,0.1,-0.6,0.1,-0.9c0,-0.1,0,-0.2,0,-0.3l0,-22.5l0,-0.4c0.2,-0.1,3.7,-0.1,4,0l0,0.4l0,19.1c0,1.3,0,2.5,0,3.8c0,0.7,0,1.4,-0.2,2c-0.4,1.6,-1.5,2.6,-3.1,3.1c-1.3,0.3,-2.6,0.3,-4,-0.1l-0.1,0Z" class="g1_1" />
<path fill-rule="evenodd" d="M169.9,60.1l0,4.4c-0.2,-0.2,-0.4,-0.3,-0.6,-0.4c-0.5,-0.5,-1.2,-0.5,-1.8,-0.3c-0.2,0,-0.5,0.1,-0.7,0.3c-0.2,0.2,-0.3,0.4,-0.3,0.8c0,6,0,12.1,0,18.2l0,0.3l-4,0c-0.1,-0.2,-0.1,-23,0,-23.4c0.2,0,2.9,-0.1,3.4,0c0.1,0.2,0.1,0.3,0.1,0.5c1.3,-0.8,2.6,-1,3.9,-0.4Z" class="g1_1" />
<path fill-rule="evenodd" d="M198.8,58.3l0,-5.7c0.2,-0.1,3.5,-0.1,4,0c0,0.2,0.1,5.3,0,5.7Z" class="g1_1" />
<path fill-rule="evenodd" d="M73.2,58.8l4.2,0c0,-0.3,0,-8,0,-8.2l-4.2,0Zm5.6,-4.1c0,1.4,0,2.7,0,4.1c0,0.7,-0.6,1.4,-1.5,1.4c-1.4,0,-2.7,0,-4.1,0c-0.7,0,-1.2,-0.4,-1.4,-1c0,-0.1,0,-0.3,0,-0.4c0,-2.7,0,-5.5,0,-8.2c0,-0.3,0,-0.5,0.2,-0.8c0.2,-0.4,0.6,-0.6,1.1,-0.6c1.5,0,2.9,0,4.4,0c0.6,0,1.3,0.6,1.3,1.3c0,1.4,0,2.8,0,4.2Z" class="g1_1" />
<text
x="242"
y="73"
dx="0,0,-1.9,-1.9,-1.8,0"
class="s17_1"
>&lt;NANO&gt;</text>

<path d="M1115,321l0,6l-6,0l0,220l6,0l0,7l562,0l0,-7l6,0l0,-220l-6,0l0,-6Z" class="g1_1" />
<text
x="1115"
y="528"
dx="0"
class="s18_1"
>&lt;</text>

<text
x="1194"
y="531"
dx="0,-16.8,-12.7,-11.9"
class="s18_1"
>code</text>

<text
x="1593"
y="528"
dx="0"
class="s18_1"
>&gt;</text>

<text
x="1120"
y="403"
dx="0,-9.4,-6.9,-9.9,-8.4,-8.2,0,0,-7.7,-9.6,-8.2"
class="s19_1"
>create with</text>



<!-- Any embedded fonts defined here -->
<style type="text/css" ><![CDATA[

@font-face {
	font-family: Futura-Book_b;
	src: url("fonts/Futura-Book_b.woff") format("woff");
}

@font-face {
	font-family: PixelSplitter-Bold_g;
	src: url("fonts/PixelSplitter-Bold_g.woff") format("woff");
}

@font-face {
	font-family: Futura-Bold_l;
	src: url("fonts/Futura-Bold_l.woff") format("woff");
}

@font-face {
	font-family: Frutiger-Roman_c;
	src: url("fonts/Frutiger-Roman_c.woff") format("woff");
}

@font-face {
	font-family: OCRB_d;
	src: url("fonts/OCRB_d.woff") format("woff");
}

]]></style>

</svg>
