<?xml version="1.0" encoding="UTF-8" standalone="no"?>
<!DOCTYPE svg PUBLIC "-//W3C//DTD SVG 1.1//EN"
"http://www.w3.org/Graphics/SVG/1.1/DTD/svg11.dtd">


<!-- Page 10 -->
<svg x="0" y="0" width="1645" height="1061" viewBox="0 0 1645 1061" version="1.1" xmlns="http://www.w3.org/2000/svg" xmlns:xlink="http://www.w3.org/1999/xlink"
style="display: block;margin-left: auto;margin-right: auto;">
<defs>

<style type="text/css"><![CDATA[

.g5_10{
fill: #B3CBC8;
}
.g14_10{
fill: none;
stroke: #FFFFFF;
stroke-width: 2;
stroke-linecap: round;
stroke-linejoin: round;
stroke-miterlimit: 4;
}
.g6_10{
fill: #F37A6D;
}
.g15_10{
fill: none;
stroke: #FFFFFF;
stroke-width: 3;
stroke-linecap: round;
stroke-linejoin: round;
stroke-miterlimit: 4;
}
.g21_10{
fill: none;
stroke: #FFFFFF;
stroke-width: 2;
stroke-linecap: butt;
stroke-linejoin: miter;
stroke-opacity: 0;
}
.g7_10{
fill: #89BA6E;
}
.g18_10{
fill: none;
stroke: #11151D;
stroke-width: 3;
stroke-linecap: round;
stroke-linejoin: round;
stroke-miterlimit: 4;
}
.g1_10{
fill: #FAAD60;
}
.g9_10{
fill: none;
stroke: #F37A6D;
stroke-width: 5;
stroke-linecap: butt;
stroke-linejoin: miter;
stroke-miterlimit: 4;
}
.g17_10{
fill: #11151D;
}
.g8_10{
fill: none;
stroke: #FFD400;
stroke-width: 5;
stroke-linecap: butt;
stroke-linejoin: miter;
stroke-miterlimit: 4;
}
.g12_10{
fill: #989797;
}
.g20_10{
fill: none;
stroke: #11151D;
stroke-width: 5;
stroke-linecap: butt;
stroke-linejoin: miter;
stroke-miterlimit: 4;
}
.g2_10{
fill: #FFF200;
}
.g11_10{
fill: none;
stroke: #989898;
stroke-width: 5;
stroke-linecap: butt;
stroke-linejoin: miter;
stroke-miterlimit: 4;
}
.g13_10{
fill: none;
stroke: #FFFFFF;
stroke-width: 1;
stroke-linecap: round;
stroke-linejoin: round;
}
.g16_10{
fill: none;
stroke: #11151D;
stroke-width: 1;
stroke-linecap: butt;
stroke-linejoin: miter;
stroke-miterlimit: 4;
}
.g10_10{
fill: none;
stroke: #89BA6E;
stroke-width: 5;
stroke-linecap: butt;
stroke-linejoin: miter;
stroke-miterlimit: 4;
}
.g19_10{
fill: none;
stroke: #11151D;
stroke-width: 1;
stroke-linecap: butt;
stroke-linejoin: miter;
}
.g3_10{
fill: #FFFFFF;
}
.g4_10{
fill: #FFD400;
}

.s5_10{
font-size: 21.39px;
font-family: PixelSplitter-Bold_1bs;
fill: #11151D;
}
.s15_10{
font-size: 22.32px;
font-family: PixelSplitter-Bold_8g;
fill: #FFFFFF;
}
.s11_10{
font-size: 10.69px;
font-family: Helvetica-Light_1by;
fill: #11151D;
}
.s9_10{
font-size: 15.28px;
font-family: Helvetica-Bold_8a;
fill: #FFFFFF;
}
.s16_10{
font-size: 12.22px;
font-family: PixelSplitter-Bold_1bs;
fill: #11151D;
}
.s8_10{
font-size: 15.28px;
font-family: Helvetica-Bold_84;
fill: #FFFFFF;
}
.s6_10{
font-size: 15.28px;
font-family: Helvetica-LightOblique_1di;
fill: #11151D;
}
.s1_10{
font-size: 15.28px;
font-family: Helvetica-Light_1by;
fill: #11151D;
}
.s2_10{
font-size: 15.28px;
font-family: Helvetica-Bold_1bu;
fill: #11151D;
}
.s3_10{
font-size: 15.28px;
font-family: AndaleMono_1cn;
fill: #11151D;
}
.s4_10{
font-size: 15.28px;
font-family: Wingdings-Regular_1c4;
fill: #11151D;
}
.s7_10{
font-size: 42.78px;
font-family: PixelSplitter-Bold_7-;
fill: #FFFFFF;
}
.s12_10{
font-size: 19.14px;
font-family: PixelSplitter-Bold_1bs;
fill: #11151D;
}
.s14_10{
font-size: 21.15px;
font-family: PixelSplitter-Bold_8g;
fill: #FFFFFF;
}
.s13_10{
font-size: 24.09px;
font-family: PixelSplitter-Bold_8g;
fill: #FFFFFF;
}
.s10_10{
font-size: 18.98px;
font-family: Helvetica-Bold_1bu;
fill: #11151D;
}

]]></style>

</defs>
<path d="M0,0
L0,1061
L1645,1061
L1645,0 Z " 
fill="#FFFFFF" stroke="none" />
<image x="-33" y="-32" width="1713" height="1115" xlink:href="10/img/1.png" />
<image x="-13" y="-11" width="1674" height="1073" opacity="0.5" xlink:href="10/img/2.png" />
<image x="-1" y="681" width="876" height="382" xlink:href="10/img/3.png" />
<path d="M47,54l0,4l-4,0l0,59l732,0l0,-4l4,0l0,-55l-4,0l0,-4Z" class="g1_10" />
<path d="M1397,1013l4,0l0,4l197,0l0,-4l4,0l0,-91l-205,0Z" class="g2_10" />
<image x="1413" y="932" width="74" height="74" xlink:href="10/img/4.png" />
<path d="M1397,922l205,0l0,-30l-4,0l0,-4l-197,0l0,4l-4,0Z" class="g3_10" />
<path d="M447,256l0,4l-4,0l0,88l4,0l0,5l92,0l0,-97Z" class="g4_10" />
<image x="441" y="260" width="88" height="89" xlink:href="10/img/5.png" />
<path d="M55,387l0,4l-5,0l0,364l5,0l0,4l720,0l0,-4l4,0l0,-364l-4,0l0,-4Z" class="g5_10" />
<path d="M427,786l0,5l-5,0l0,35l5,0l0,4l347,0l0,-4l4,0l0,-35l-4,0l0,-5Z" class="g5_10" />
<path d="M870,280l0,4l-4,0l0,88l4,0l0,5l92,0l0,-97Z" class="g4_10" />
<image x="864" y="284" width="88" height="89" xlink:href="10/img/6.png" />
<path d="M870,557l0,5l-4,0l0,87l4,0l0,5l92,0l0,-97Z" class="g6_10" />
<image x="875" y="562" width="88" height="88" xlink:href="10/img/7.png" />
<path d="M871,899l0,4l-4,0l0,88l4,0l0,4l98,0l0,-96Z" class="g7_10" />
<image x="874" y="903" width="88" height="89" xlink:href="10/img/8.png" />
<path d="M43,117l0,41l4,0l0,5l317,0l0,-5l5,0l0,-41Z" class="g3_10" />
<path d="M542,304l0,60l2,0l2,0l0,3l0,2l226,0l0,-2l0,-3l3,0l2,0l0,-56l-2,0l-3,0l0,-2l0,-2Z" class="g3_10" />
<path d="M542.5,304.5l0,60l2,0l2,0l0,3l0,2l226,0l0,-2l0,-3l3,0l2,0l0,-56l-2,0l-3,0l0,-2l0,-2l-230,0Z" class="g8_10" />
<path d="M539,256l0,45l152,0l0,-41l-4,0l0,-4Z" class="g4_10" />
<path d="M965,324l0,215l2,0l2,0l0,2l0,2l624,0l0,-2l0,-2l2,0l2,0l0,-210l-2,0l-2,0l0,-2l0,-3Z" class="g3_10" />
<path d="M965.5,324.5l0,215l2,0l2,0l0,2l0,2l624,0l0,-2l0,-2l2,0l2,0l0,-210l-2,0l-2,0l0,-2l0,-3l-628,0Z" class="g8_10" />
<path d="M962,280l0,42l142,0l0,-38l-4,0l0,-4Z" class="g4_10" />
<path d="M965,603l0,107l635,0l0,-102l-2,0l-3,0l0,-3l0,-2Z" class="g3_10" />
<path d="M965.5,603.5l0,107l635,0l0,-102l-2,0l-3,0l0,-3l0,-2l-630,0Z" class="g9_10" />
<path d="M962,557l0,44l260,0l0,-39l-4,0l0,-5Z" class="g6_10" />
<path d="M965,944l0,45l3,0l2,0l0,2l0,2l339,0l0,-2l0,-2l2,0l2,0l0,-40l-2,0l-2,0l0,-3l0,-2Z" class="g3_10" />
<path d="M965.5,944.5l0,45l3,0l2,0l0,2l0,2l339,0l0,-2l0,-2l2,0l2,0l0,-40l-2,0l-2,0l0,-3l0,-2l-344,0Z" class="g10_10" />
<path d="M963,899l0,43l188,0l0,-39l-4,0l0,-4Z" class="g7_10" />
<path d="M1231,104l0,2l0,2l-2,0l-2,0l0,188l2,0l2,0l0,2l0,2l364,0l0,-2l0,-2l3,0l2,0l0,-188l-2,0l-3,0l0,-2l0,-2Z" class="g3_10" />
<path d="M1231.5,104.5l0,2l0,2l-2,0l-2,0l0,188l2,0l2,0l0,2l0,2l364,0l0,-2l0,-2l3,0l2,0l0,-188l-2,0l-3,0l0,-2l0,-2l-364,0Z" class="g11_10" />
<path d="M1229,102l0,4l-4,0l0,33l377,0l0,-33l-4,0l0,-4Z" class="g12_10" />
<path d="M1243.7,115.1c1.8,0,3.2,-1.4,3.2,-3.2c0,-1.8,-1.4,-3.2,-3.2,-3.2c-1.7,0,-3.2,1.4,-3.2,3.2c0,1.8,1.5,3.2,3.2,3.2Z" class="g3_10" />
<path d="M1256.2,115.1c1.8,0,3.2,-1.4,3.2,-3.2c0,-1.8,-1.4,-3.2,-3.2,-3.2c-1.8,0,-3.2,1.4,-3.2,3.2c0,1.8,1.4,3.2,3.2,3.2Z" class="g3_10" />
<path d="M1268.7,115.1c1.8,0,3.2,-1.4,3.2,-3.2c0,-1.8,-1.4,-3.2,-3.2,-3.2c-1.8,0,-3.2,1.4,-3.2,3.2c0,1.8,1.4,3.2,3.2,3.2Z" class="g3_10" />
<path d="M1240.7,124.5c0,0,-2.2,0,-2.2,2.2l0,4.9c0,0,0,2.1,2.2,2.1l336,0c0,0,2.2,0,2.2,-2.1l0,-4.9c0,0,0,-2.2,-2.2,-2.2Z" class="g3_10" />
<path d="M1595.5,124.7l0,4.1c-0.1,0,-0.1,0,-0.1,0c-0.5,-0.1,-1.1,-0.2,-1.6,-0.3c-0.7,-0.2,-1.4,-0.3,-2.1,-0.4c-0.1,-0.1,-0.3,-0.1,-0.4,-0.1c0.5,-0.4,0.9,-0.8,1.4,-1.1c0,-0.1,0,-0.1,0,-0.1c-0.7,-0.4,-1.4,-0.5,-2.2,-0.4c-0.7,0.2,-1.3,0.6,-1.7,1.2c-0.4,0.6,-0.5,1.3,-0.4,2.1c0.1,0.7,0.4,1.2,1,1.7c0.7,0.5,1.5,0.7,2.4,0.6c0.9,-0.2,1.5,-0.8,1.9,-1.6l0,-0.1c0.6,0.2,1.1,0.3,1.6,0.4c-0.3,0.9,-0.9,1.6,-1.6,2.1c-0.7,0.5,-1.5,0.8,-2.4,0.8l-0.1,0l-0.2,0l-0.1,0c-0.3,0,-0.6,-0.1,-0.8,-0.1c-0.9,-0.3,-1.7,-0.7,-2.3,-1.4c-0.6,-0.7,-0.9,-1.5,-1,-2.4c0,-0.2,0,-0.3,-0.1,-0.4l0,-0.2c0.1,-0.1,0.1,-0.1,0.1,-0.1c0,-0.2,0,-0.4,0,-0.6c0.2,-0.8,0.6,-1.6,1.1,-2.2c0.7,-0.7,1.5,-1.2,2.5,-1.3c0.5,-0.1,1,-0.1,1.5,0c0.8,0.1,1.5,0.4,2,0.9c0.1,0,0.1,0,0.2,0c0.2,-0.2,0.5,-0.5,0.8,-0.7c0.2,-0.1,0.4,-0.3,0.6,-0.4Z" class="g3_10" />
<path d="M1595.5,124.7l0,4.1c-0.1,0,-0.1,0,-0.1,0c-0.5,-0.1,-1.1,-0.2,-1.6,-0.3c-0.7,-0.2,-1.4,-0.3,-2.1,-0.4c-0.1,-0.1,-0.3,-0.1,-0.4,-0.1c0.5,-0.4,0.9,-0.8,1.4,-1.1c0,-0.1,0,-0.1,0,-0.1c-0.7,-0.4,-1.4,-0.5,-2.2,-0.4c-0.7,0.2,-1.3,0.6,-1.7,1.2c-0.4,0.6,-0.5,1.3,-0.4,2.1c0.1,0.7,0.4,1.2,1,1.7c0.7,0.5,1.5,0.7,2.4,0.6c0.9,-0.2,1.5,-0.8,1.9,-1.6l0,-0.1c0.6,0.2,1.1,0.3,1.6,0.4c-0.3,0.9,-0.9,1.6,-1.6,2.1c-0.7,0.5,-1.5,0.8,-2.4,0.8l-0.1,0l-0.2,0l-0.1,0c-0.3,0,-0.6,-0.1,-0.8,-0.1c-0.9,-0.3,-1.7,-0.7,-2.3,-1.4c-0.6,-0.7,-0.9,-1.5,-1,-2.4c0,-0.2,0,-0.3,-0.1,-0.4l0,-0.2c0.1,-0.1,0.1,-0.1,0.1,-0.1c0,-0.2,0,-0.4,0,-0.6c0.2,-0.8,0.6,-1.6,1.1,-2.2c0.7,-0.7,1.5,-1.2,2.5,-1.3c0.5,-0.1,1,-0.1,1.5,0c0.8,0.1,1.5,0.4,2,0.9c0.1,0,0.1,0,0.2,0c0.2,-0.2,0.5,-0.5,0.8,-0.7c0.2,-0.1,0.4,-0.3,0.6,-0.4Z" class="g13_10" />
<path d="M1586,112l9,0" class="g14_10" />
<path d="M1586,114l9,0" class="g14_10" />
<path d="M1586,116l9,0" class="g14_10" />
<path d="M1234,125.7l-3,3.5l3,3.4" class="g15_10" />
<path d="M962,708l0,167l5,0l0,5l631,0l0,-5l4,0l0,-167Z" class="g6_10" />
<text 
x="56" 
y="193" 
dx="0,0,0,0.8,0,0,0,0.8,0,0,0,0,0,0,0.8,0,0,0,0,0.8,0,0,0,0.8,0,0,0,0,0,0.8,0,0,0.8,0,0,0,0,0,0.8,0,0,0,0.8,0,0,0,0.8,0,0,0,0,0,0.8,0,0,0,0,0.8,0,0,0,0.8,0,0,0,0.8,0,0,0,0.8,0,0,0.8,0,0,0,0,0.8,0,0,0,0,0,0.8,0,0,0,0.8,0,0,0.8,0,0,0,0" 
class="s1_10"
>By now you’ve made the About Us page, the Our Songs page and the See Us Play page. But to make </text>

<text 
x="56" 
y="214" 
dx="0,0,0,0,0,1.1,0,0,0,0,1.1,0,1.1,0,0,0,0,0,0,0,1.1,0,0,0,0,0,0,1.1,0,0,0,0,1.1,0,0,1.1,0,0,0,0,1.1,0,0,0,0,1.1,0,0,0,1.1,0,0,0,0,0,0,0,0,1.1,0,0,1.1,0,0,0,0,1.1,0,0,0,1.1,0,0,0,1.1,0,0,1.1,0,-0.3,0,0,1.1,0,0,0,1.1,0,0,1.1,0,0,0,0,0,0,-1.4,0,1.1,-0.3,0,0,-0.3,0" 
class="s1_10"
>them into a website you’ll need to link them all together so that you can go from one to another. We’re </text>

<text 
x="56" 
y="235" 
dx="0,0,0,0,0,0,-0.9,0,0,-0.9,0,0,-0.9,0,0,0,0,-0.9,0,0,0,-0.9,0,0,-0.9,0,0,0,0,0,0,-0.9,0,0,0" 
class="s1_10"
>going to do that now by making the </text>

<text 
x="294" 
y="235" 
dx="0,0,0,0,0,-0.9,0,-0.1,0.1" 
class="s2_10"
>home page</text>

<text 
x="374" 
y="235" 
dx="0" 
class="s1_10"
>.</text>

<text 
x="56" 
y="278" 
dx="0,0,0,0,0,2.4,0,0,0" 
class="s1_10"
>Open the </text>

<path d="M136.7,276.8l0,-3.4c0,-1.8,-0.9,-2.8,-2.7,-2.8c-0.9,0,-1.9,0.3,-3,0.8l0.4,0.9c0.3,-0.2,0.7,-0.4,1.1,-0.5c0.5,-0.1,0.8,-0.2,1.1,-0.2c1.3,0,1.9,0.7,1.9,2l0,0.4l-1.3,0.1c-0.6,0.1,-1.1,0.1,-1.5,0.3c-0.5,0.1,-0.8,0.2,-1.1,0.4c-0.3,0.2,-0.5,0.5,-0.7,0.8c-0.2,0.3,-0.2,0.6,-0.2,1c0,0.6,0.2,1.2,0.6,1.6c0.5,0.4,1,0.6,1.6,0.6c1.1,0,2,-0.5,2.7,-1.5c0,0.6,0,1,0.1,1.3l1.2,0c-0.2,-0.5,-0.2,-1.1,-0.2,-1.8Zm-2.3,0.5c-0.4,0.2,-0.8,0.4,-1.2,0.4c-0.4,0,-0.7,-0.1,-0.9,-0.4c-0.3,-0.2,-0.4,-0.4,-0.4,-0.8c0,-0.4,0.1,-0.7,0.4,-0.9c0.3,-0.2,0.6,-0.4,1,-0.5c0.4,0,1.1,-0.1,2.2,-0.2l0,1.4c-0.3,0.4,-0.7,0.8,-1.1,1Z" class="g16_10" />
<path d="M141,268.1l-1.2,0l0,10.5l1.2,0l0,-1.1c0.2,0.4,0.6,0.7,1,0.9c0.4,0.3,0.9,0.4,1.4,0.4c0.9,0,1.6,-0.4,2.1,-1.2c0.5,-0.8,0.8,-1.8,0.8,-3c0,-1.2,-0.2,-2.2,-0.7,-2.9c-0.5,-0.7,-1.3,-1.1,-2.2,-1.1c-0.4,0,-0.9,0.1,-1.4,0.4c-0.4,0.2,-0.7,0.5,-1,0.8l0,-3.7Zm2.1,3.5c0.6,0,1.1,0.3,1.5,0.9c0.3,0.5,0.5,1.3,0.5,2.1c0,0.9,-0.2,1.6,-0.6,2.2c-0.3,0.6,-0.8,0.9,-1.5,0.9c-0.4,0,-0.7,-0.1,-1.1,-0.4c-0.4,-0.3,-0.7,-0.7,-0.9,-1.1l0,-3.2c0.6,-0.9,1.3,-1.4,2.1,-1.4Z" class="g16_10" />
<path d="M149.4,271.7c-0.6,0.8,-0.9,1.8,-0.9,3c0,1.2,0.3,2.2,0.9,3c0.7,0.7,1.5,1.1,2.6,1.1c1.1,0,1.9,-0.4,2.5,-1.1c0.7,-0.8,1,-1.8,1,-3c0,-1.2,-0.3,-2.2,-1,-3c-0.6,-0.7,-1.4,-1.1,-2.5,-1.1c-1.1,0,-1.9,0.4,-2.6,1.1Zm0.9,5.2c-0.4,-0.6,-0.6,-1.3,-0.6,-2.2c0,-0.9,0.2,-1.6,0.6,-2.2c0.4,-0.6,1,-0.9,1.7,-0.9c0.7,0,1.3,0.3,1.7,0.9c0.4,0.6,0.6,1.3,0.6,2.2c0,0.9,-0.2,1.6,-0.6,2.2c-0.5,0.6,-1,0.9,-1.7,0.9c-0.7,0,-1.3,-0.3,-1.7,-0.9Z" class="g16_10" />
<path d="M164.1,270.8l-1.1,0l0,5.6c-0.8,0.9,-1.6,1.4,-2.3,1.4c-0.5,0,-0.9,-0.2,-1.1,-0.5c-0.2,-0.4,-0.3,-0.9,-0.3,-1.5l0,-5l-1.1,0l0,5.3c0,1.8,0.7,2.7,2.1,2.7c1,0,1.8,-0.5,2.7,-1.4l0,1.2l1.1,0l0,-7.8Z" class="g16_10" />
<path d="M173.2,277.3c-0.6,0.3,-1.2,0.5,-1.9,0.5c-0.3,0,-0.6,-0.2,-0.8,-0.4c-0.2,-0.3,-0.3,-0.7,-0.3,-1.1l0,-4.5l2.6,0l0,-1l-2.6,0l0,-2.1l-1.2,0l0,2.1l-1.5,0l0,1l1.5,0l0,4.8c0,1.4,0.7,2.2,2.1,2.2c0.8,0,1.5,-0.2,2.3,-0.6l-0.2,-0.9Z" class="g16_10" />
<path d="M181.5,273.5l-4,0l0,1l4,0l0,-1Z" class="g16_10" />
<path d="M191.7,270.8l-1.2,0l0,5.6c-0.8,0.9,-1.6,1.4,-2.3,1.4c-0.5,0,-0.9,-0.2,-1.1,-0.5c-0.2,-0.4,-0.3,-0.9,-0.3,-1.5l0,-5l-1.1,0l0,5.3c0,1.8,0.7,2.7,2.1,2.7c1,0,1.9,-0.5,2.7,-1.4l0,1.2l1.2,0l0,-7.8Z" class="g16_10" />
<path d="M200.3,270.9c-0.8,-0.2,-1.5,-0.3,-2.1,-0.3c-1,0,-1.8,0.2,-2.3,0.6c-0.6,0.4,-0.9,0.9,-0.9,1.6c0,0.3,0,0.6,0.2,0.8c0.1,0.3,0.3,0.5,0.5,0.7c0.3,0.2,0.5,0.3,0.8,0.4c0.3,0.1,0.7,0.2,1.3,0.4c0.8,0.2,1.3,0.5,1.5,0.7c0.2,0.2,0.3,0.4,0.3,0.7c0,0.4,-0.2,0.7,-0.6,0.9c-0.4,0.3,-1,0.4,-1.6,0.4c-0.8,0,-1.5,-0.1,-2.1,-0.5l-0.2,1.1c0.6,0.2,1.4,0.4,2.3,0.4c1,0,1.8,-0.2,2.4,-0.7c0.6,-0.4,0.9,-1,0.9,-1.7c0,-0.4,0,-0.7,-0.2,-1c-0.2,-0.3,-0.4,-0.5,-0.7,-0.7c-0.4,-0.2,-0.8,-0.4,-1.3,-0.6l-1.1,-0.3c-0.5,-0.1,-0.8,-0.3,-1,-0.4c-0.2,-0.2,-0.3,-0.4,-0.3,-0.6c0,-0.4,0.2,-0.7,0.6,-0.9c0.3,-0.2,0.8,-0.3,1.5,-0.3c0.6,0,1.2,0.1,1.8,0.3l0.3,-1Z" class="g16_10" />
<path d="M206.3,277.1c-0.2,0.2,-0.3,0.4,-0.3,0.7c0,0.3,0.1,0.5,0.3,0.7c0.2,0.2,0.4,0.3,0.6,0.3c0.3,0,0.5,-0.1,0.7,-0.3c0.2,-0.2,0.3,-0.4,0.3,-0.7c0,-0.3,-0.1,-0.5,-0.3,-0.7c-0.2,-0.1,-0.4,-0.2,-0.7,-0.2c-0.2,0,-0.4,0.1,-0.6,0.2Z" class="g16_10" />
<path d="M219.2,273.3c0,-1.8,-0.8,-2.7,-2.2,-2.7c-0.9,0,-1.8,0.5,-2.7,1.4l0,-3.9l-1.1,0l0,10.5l1.1,0l0,-5.6c0.9,-0.9,1.6,-1.4,2.3,-1.4c0.5,0,0.9,0.2,1.1,0.5c0.2,0.3,0.3,0.8,0.3,1.5l0,5l1.2,0l0,-5.3Z" class="g16_10" />
<path d="M228.2,277.3c-0.6,0.3,-1.2,0.5,-1.9,0.5c-0.3,0,-0.6,-0.2,-0.8,-0.4c-0.2,-0.3,-0.3,-0.7,-0.3,-1.1l0,-4.5l2.6,0l0,-1l-2.6,0l0,-2.1l-1.2,0l0,2.1l-1.5,0l0,1l1.5,0l0,4.8c0,1.4,0.7,2.2,2.1,2.2c0.8,0,1.5,-0.2,2.3,-0.6l-0.2,-0.9Z" class="g16_10" />
<path d="M238.1,273.1c0,-1.6,-0.5,-2.5,-1.4,-2.5c-0.3,0,-0.6,0.1,-0.9,0.4c-0.3,0.2,-0.5,0.6,-0.8,1c-0.1,-0.4,-0.2,-0.8,-0.5,-1c-0.2,-0.3,-0.5,-0.4,-0.8,-0.4c-0.3,0,-0.6,0.1,-0.9,0.4c-0.3,0.2,-0.6,0.6,-0.8,1l0,-1.2l-1.1,0l0,7.8l1.1,0l0,-5.6c0,-0.1,0.2,-0.3,0.5,-0.7c0.2,-0.5,0.5,-0.7,0.7,-0.7c0.5,0,0.7,0.6,0.7,1.9l0,5.1l1.2,0l0,-5.6c0,-0.1,0.1,-0.3,0.4,-0.7c0.3,-0.5,0.5,-0.7,0.8,-0.7c0.4,0,0.7,0.6,0.7,1.9l0,5.1l1.1,0l0,-5.5Z" class="g16_10" />
<path d="M246.5,277.5l-2,0l0,-9l-4,0l0,1l2,0l0,9l4,0l0,-1Z" class="g16_10" />
<text 
x="129" 
y="278" 
dx="0,0,0,0,0,0,0,0,0,0,0,0,0" 
class="s3_10"
>about-us.html</text>

<text 
x="254" 
y="278" 
dx="0,0,0,0,0,0,2.4,0,0,0,0,2.4,0,0,2.4,0,0,2.4,0,0,0,2.4,0,0,0,0" 
class="s1_10"
>file. Then go to the File </text>

<text 
x="56" 
y="299" 
dx="0,0,0,0,0,-0.2,0,0,0,-0.2,0,0,0,0,0,0,-0.2,0,0,0,-0.2,0,0,0,0,-0.2,0,0,-0.2,0,0,0,0,0,0,0,-0.2,0,0,0,0,-0.2,0,0,0,-0.2,0,0,0,0,-0.2,0" 
class="s1_10"
>menu and choose the Save As option. Save the file as</text>

<path d="M60.8,310.9c-0.1,0.1,-0.2,0.3,-0.2,0.5c0,0.3,0.1,0.4,0.2,0.6c0.2,0.2,0.4,0.3,0.6,0.3c0.2,0,0.4,-0.1,0.6,-0.3c0.1,-0.1,0.2,-0.3,0.2,-0.6c0,-0.2,-0.1,-0.4,-0.3,-0.5c-0.1,-0.2,-0.3,-0.2,-0.5,-0.2c-0.2,0,-0.4,0,-0.6,0.2Zm1.2,2.7l-3.5,0l0,1l2.3,0l0,6.8l1.2,0l0,-7.8Z" class="g16_10" />
<path d="M73.1,316c0,-1.7,-0.8,-2.6,-2.2,-2.6c-0.9,0,-1.8,0.4,-2.7,1.3l0,-1.1l-1.1,0l0,7.8l1.1,0l0,-5.7c0.9,-0.8,1.6,-1.3,2.3,-1.3c0.5,0,0.8,0.2,1.1,0.5c0.2,0.3,0.3,0.8,0.3,1.5l0,5l1.2,0l0,-5.4Z" class="g16_10" />
<path d="M82.2,310.8l-1.2,0l0,3.8c-0.6,-0.8,-1.3,-1.2,-2.3,-1.2c-0.9,0,-1.6,0.4,-2.2,1.1c-0.5,0.8,-0.8,1.7,-0.8,2.9c0,1.2,0.3,2.2,0.8,3c0.5,0.8,1.2,1.2,2.1,1.2c0.5,0,1,-0.2,1.4,-0.4c0.5,-0.3,0.8,-0.6,1,-1l0,1.2l1.2,0l0,-10.6Zm-1.6,8.8c-0.2,0.3,-0.5,0.5,-0.8,0.7c-0.3,0.1,-0.6,0.2,-0.9,0.2c-0.6,0,-1.1,-0.3,-1.4,-0.9c-0.4,-0.5,-0.6,-1.3,-0.6,-2.2c0,-0.8,0.2,-1.6,0.6,-2.1c0.4,-0.6,0.9,-0.9,1.5,-0.9c0.8,0,1.5,0.5,2,1.4l0,3.2c0,0.1,-0.1,0.2,-0.4,0.6Z" class="g16_10" />
<path d="M91.6,317.1c0,-1.1,-0.3,-2,-0.9,-2.7c-0.6,-0.7,-1.3,-1,-2.2,-1c-1,0,-1.8,0.4,-2.5,1.1c-0.6,0.7,-0.9,1.7,-0.9,3c0,1.2,0.3,2.2,1,3c0.7,0.7,1.7,1.1,2.8,1.1c0.9,0,1.7,-0.2,2.4,-0.5l-0.2,-0.9c-0.7,0.2,-1.5,0.3,-2.2,0.3c-0.7,0,-1.3,-0.2,-1.8,-0.8c-0.5,-0.6,-0.8,-1.3,-0.8,-2.2l5.3,0l0,-0.4Zm-5.2,-0.5c0,-0.7,0.2,-1.2,0.6,-1.6c0.4,-0.4,0.9,-0.6,1.5,-0.6c0.5,0,0.9,0.2,1.3,0.6c0.4,0.4,0.6,1,0.6,1.6l-4,0Z" class="g16_10" />
<path d="M98.1,317.4l2.7,-3.8l-1.2,0l-2.1,3l-2.1,-3l-1.3,0l2.7,3.9l-2.7,3.9l1.2,0l2.1,-3.1l2.1,3.1l1.3,0l-2.7,-4Z" class="g16_10" />
<path d="M106,319.9c-0.2,0.2,-0.2,0.4,-0.2,0.7c0,0.3,0,0.5,0.2,0.7c0.2,0.2,0.4,0.3,0.7,0.3c0.2,0,0.5,-0.1,0.6,-0.3c0.2,-0.2,0.3,-0.4,0.3,-0.7c0,-0.3,-0.1,-0.5,-0.3,-0.7c-0.1,-0.2,-0.4,-0.2,-0.6,-0.2c-0.3,0,-0.5,0,-0.7,0.2Z" class="g16_10" />
<path d="M118.9,316c0,-1.7,-0.7,-2.6,-2.2,-2.6c-0.9,0,-1.8,0.4,-2.6,1.3l0,-3.9l-1.2,0l0,10.6l1.2,0l0,-5.7c0.8,-0.8,1.6,-1.3,2.3,-1.3c0.4,0,0.8,0.2,1,0.5c0.2,0.3,0.3,0.8,0.3,1.5l0,5l1.2,0l0,-5.4Z" class="g16_10" />
<path d="M127.9,320.1c-0.6,0.3,-1.2,0.4,-1.8,0.4c-0.4,0,-0.7,-0.1,-0.9,-0.4c-0.2,-0.2,-0.3,-0.6,-0.3,-1.1l0,-4.4l2.6,0l0,-1l-2.6,0l0,-2.1l-1.1,0l0,2.1l-1.5,0l0,1l1.5,0l0,4.7c0,1.5,0.7,2.2,2,2.2c0.8,0,1.6,-0.1,2.3,-0.5l-0.2,-0.9Z" class="g16_10" />
<path d="M137.9,315.9c0,-1.7,-0.5,-2.5,-1.5,-2.5c-0.3,0,-0.6,0.1,-0.9,0.4c-0.3,0.2,-0.5,0.5,-0.7,1c-0.1,-0.5,-0.3,-0.8,-0.6,-1c-0.2,-0.3,-0.5,-0.4,-0.8,-0.4c-0.3,0,-0.6,0.1,-0.9,0.4c-0.3,0.2,-0.6,0.5,-0.8,1l0,-1.2l-1.1,0l0,7.8l1.2,0l0,-5.6c0,-0.1,0.1,-0.3,0.4,-0.8c0.3,-0.4,0.5,-0.6,0.8,-0.6c0.4,0,0.7,0.6,0.7,1.9l0,5.1l1.1,0l0,-5.6c0,-0.1,0.1,-0.3,0.4,-0.8c0.3,-0.4,0.6,-0.6,0.8,-0.6c0.5,0,0.7,0.6,0.7,1.9l0,5.1l1.2,0l0,-5.5Z" class="g16_10" />
<path d="M145.5,320.5l-2,0l0,-10l-3,0l0,1l2,0l0,10l3,0l0,-1Z" class="g16_10" />
<path d="M151.9,319.9c-0.2,0.2,-0.3,0.4,-0.3,0.7c0,0.3,0.1,0.5,0.3,0.7c0.1,0.2,0.4,0.3,0.6,0.3c0.3,0,0.5,-0.1,0.7,-0.3c0.2,-0.2,0.2,-0.4,0.2,-0.7c0,-0.3,0,-0.5,-0.2,-0.7c-0.2,-0.2,-0.4,-0.2,-0.7,-0.2c-0.2,0,-0.5,0,-0.6,0.2Z" class="g16_10" />
<text 
x="56" 
y="321" 
dx="0,0,0,0,0,0,0,0,0,0,0" 
class="s3_10"
>index.html.</text>

<text 
x="56" 
y="364" 
dx="0,0,0,0,0,0,0" 
class="s1_10"
>Change </text>

<path d="M118.6,353.7c-0.2,0.1,-0.2,0.3,-0.2,0.5c0,0.2,0,0.4,0.2,0.6c0.1,0.2,0.3,0.2,0.5,0.2c0.3,0,0.4,0,0.6,-0.2c0.1,-0.2,0.2,-0.3,0.2,-0.6c0,-0.2,-0.1,-0.4,-0.2,-0.5c-0.2,-0.2,-0.4,-0.3,-0.6,-0.3c-0.2,0,-0.4,0.1,-0.5,0.3Zm1.1,2.7l-3.5,0l0,1l2.3,0l0,6.7l1.2,0l0,-7.7Z" class="g16_10" />
<path d="M130.8,358.8c0,-1.7,-0.7,-2.6,-2.2,-2.6c-0.9,0,-1.8,0.4,-2.6,1.3l0,-1.1l-1.2,0l0,7.7l1.2,0l0,-5.6c0.8,-0.9,1.6,-1.3,2.3,-1.3c0.4,0,0.8,0.1,1,0.5c0.2,0.3,0.3,0.8,0.3,1.5l0,4.9l1.2,0l0,-5.3Z" class="g16_10" />
<path d="M139.9,353.6l-1.1,0l0,3.8c-0.6,-0.8,-1.4,-1.2,-2.4,-1.2c-0.9,0,-1.6,0.4,-2.1,1.1c-0.6,0.8,-0.8,1.7,-0.8,2.8c0,1.3,0.2,2.3,0.7,3.1c0.6,0.7,1.3,1.1,2.1,1.1c0.5,0,1,-0.1,1.5,-0.3c0.4,-0.3,0.7,-0.6,1,-1l0,1.1l1.1,0l0,-10.5Zm-1.5,8.7c-0.3,0.4,-0.6,0.6,-0.9,0.8c-0.3,0.1,-0.6,0.2,-0.8,0.2c-0.7,0,-1.1,-0.3,-1.5,-0.9c-0.3,-0.6,-0.5,-1.3,-0.5,-2.2c0,-0.9,0.2,-1.6,0.5,-2.2c0.4,-0.5,0.9,-0.8,1.6,-0.8c0.7,0,1.4,0.4,2,1.3l0,3.3c0,0,-0.2,0.2,-0.4,0.5Z" class="g16_10" />
<path d="M149.4,359.9c0,-1.1,-0.3,-2,-0.9,-2.7c-0.6,-0.7,-1.4,-1,-2.3,-1c-1,0,-1.8,0.3,-2.4,1.1c-0.7,0.7,-1,1.7,-1,2.9c0,1.3,0.4,2.3,1.1,3c0.7,0.8,1.6,1.1,2.8,1.1c0.9,0,1.7,-0.1,2.4,-0.4l-0.2,-1c-0.8,0.3,-1.5,0.4,-2.2,0.4c-0.8,0,-1.4,-0.3,-1.9,-0.8c-0.5,-0.6,-0.8,-1.3,-0.8,-2.2l5.4,0l0,-0.4Zm-5.3,-0.6c0.1,-0.6,0.3,-1.1,0.7,-1.5c0.4,-0.4,0.9,-0.6,1.5,-0.6c0.4,0,0.9,0.2,1.2,0.6c0.4,0.4,0.6,0.9,0.6,1.5l-4,0Z" class="g16_10" />
<path d="M155.8,360.2l2.8,-3.8l-1.3,0l-2.1,3l-2.1,-3l-1.3,0l2.8,3.8l-2.8,3.9l1.2,0l2.2,-3l2.1,3l1.3,0l-2.8,-3.9Z" class="g16_10" />
<path d="M163.8,362.7c-0.2,0.2,-0.3,0.4,-0.3,0.7c0,0.2,0.1,0.5,0.3,0.7c0.1,0.1,0.4,0.2,0.6,0.2c0.3,0,0.5,-0.1,0.7,-0.2c0.2,-0.2,0.2,-0.5,0.2,-0.7c0,-0.3,0,-0.5,-0.2,-0.7c-0.2,-0.2,-0.4,-0.3,-0.7,-0.3c-0.2,0,-0.5,0.1,-0.6,0.3Z" class="g16_10" />
<path d="M176.6,358.8c0,-1.7,-0.7,-2.6,-2.1,-2.6c-1,0,-1.8,0.4,-2.7,1.3l0,-3.9l-1.1,0l0,10.5l1.1,0l0,-5.6c0.8,-0.9,1.6,-1.3,2.3,-1.3c0.5,0,0.8,0.1,1,0.5c0.3,0.3,0.4,0.8,0.4,1.5l0,4.9l1.1,0l0,-5.3Z" class="g16_10" />
<path d="M185.7,362.9c-0.6,0.3,-1.3,0.4,-1.9,0.4c-0.4,0,-0.6,-0.1,-0.9,-0.4c-0.2,-0.2,-0.3,-0.6,-0.3,-1.1l0,-4.4l2.7,0l0,-1l-2.7,0l0,-2.2l-1.1,0l0,2.2l-1.5,0l0,1l1.5,0l0,4.7c0,1.5,0.7,2.2,2.1,2.2c0.7,0,1.5,-0.2,2.3,-0.5l-0.2,-0.9Z" class="g16_10" />
<path d="M195.6,358.7c0,-1.7,-0.5,-2.5,-1.4,-2.5c-0.3,0,-0.6,0.1,-0.9,0.3c-0.3,0.3,-0.6,0.6,-0.8,1c-0.1,-0.4,-0.3,-0.7,-0.5,-1c-0.3,-0.2,-0.5,-0.3,-0.9,-0.3c-0.3,0,-0.6,0.1,-0.9,0.3c-0.3,0.3,-0.5,0.6,-0.7,1l0,-1.1l-1.2,0l0,7.7l1.2,0l0,-5.6c0,0,0.2,-0.2,0.4,-0.7c0.3,-0.4,0.6,-0.6,0.8,-0.6c0.5,0,0.7,0.6,0.7,1.8l0,5.1l1.1,0l0,-5.6c0,0,0.2,-0.2,0.5,-0.7c0.3,-0.4,0.5,-0.6,0.7,-0.6c0.5,0,0.7,0.6,0.7,1.8l0,5.1l1.2,0l0,-5.4Z" class="g16_10" />
<path d="M203.5,363.5l-2,0l0,-10l-3,0l0,1l2,0l0,10l3,0l0,-1Z" class="g16_10" />
<text 
x="114" 
y="364" 
dx="0,0,0,0,0,0,0,0,0,0" 
class="s3_10"
>index.html</text>

<text 
x="209" 
y="364" 
dx="0,0,0,-0.9,0,0,0,0,-0.9,0,0,0,0,-0.9,0,0,0,0" 
class="s1_10"
>to look like this:</text>

<text 
x="1238" 
y="64" 
dx="0,0,0,0.2,0,0,0,0.2,0,0,0,0,0,0,0,0.2,0,0,0,0.2,0,0,0,0,0.2,0,0,0,0,0.2,0,0,0.2,0,0.2,0,-0.3,0,0,0,0,0,0.2,0,0,0.2,0,0,0,0,0,0" 
class="s1_10"
>If you display the home page in a browser it should </text>

<text 
x="1238" 
y="86" 
dx="0,0,0,0,0,-0.9,0,0,0,0,-0.9,0,0,0,0" 
class="s1_10"
>look like this:</text>

<text 
x="56" 
y="802" 
dx="0,0,0,0,0.9,0,0,0,0,0.9,0,0,0,0,0.9,0,0,0,0.9,0,0,-0.3,0,0" 
class="s1_10"
>The home page has three </text>

<text 
x="240" 
y="802" 
dx="0,0,0,0,0" 
class="s2_10"
>links</text>

<text 
x="280" 
y="802" 
dx="0,0,0,0.9,0,0,0,0.9,0,0,0,0,0.9,0,0,0,0,0,0" 
class="s1_10"
>on it. They appear </text>

<text 
x="56" 
y="824" 
dx="0,0,0,0,0,0,0,0.5,0,0,0" 
class="s1_10"
>inside the </text>

<path d="M134.5,822.5l-2,0l0,-9l-3,0l0,1l2,0l0,10l3,0l0,-2Z" class="g16_10" />
<path d="M141.5,813.5c-0.2,0.2,-0.2,0.4,-0.2,0.6c0,0.2,0,0.4,0.2,0.6c0.1,0.1,0.3,0.2,0.5,0.2c0.3,0,0.4,-0.1,0.6,-0.2c0.1,-0.2,0.2,-0.4,0.2,-0.6c0,-0.2,-0.1,-0.4,-0.2,-0.6c-0.2,-0.1,-0.3,-0.2,-0.6,-0.2c-0.2,0,-0.4,0.1,-0.5,0.2Zm1.1,2.7l-3.5,0l0,1l2.3,0l0,6.8l1.2,0l0,-7.8Z" class="g16_10" />
<text 
x="127" 
y="824" 
dx="0,0" 
class="s3_10"
>li</text>

<text 
x="150" 
y="824" 
dx="0,0,0,0,0,0,0,0,0,0.5,0,0,0.5,0" 
class="s1_10"
>elements of a </text>

<path d="M255.9,816.2l-1.2,0l0,5.6c-0.8,0.9,-1.5,1.4,-2.3,1.4c-0.5,0,-0.8,-0.2,-1,-0.5c-0.2,-0.3,-0.3,-0.8,-0.3,-1.5l0,-5l-1.2,0l0,5.3c0,1.8,0.7,2.7,2.2,2.7c0.9,0,1.8,-0.5,2.6,-1.3l0,1.1l1.2,0l0,-7.8Z" class="g16_10" />
<path d="M264.5,822.5l-2,0l0,-9l-3,0l0,1l2,0l0,10l3,0l0,-2Z" class="g16_10" />
<text 
x="248" 
y="824" 
dx="0,0" 
class="s3_10"
>ul</text>

<text 
x="271" 
y="824" 
dx="0,0,0,0,0,0,0.5,0,0,0,0.5,0,0,0,0,0.5,0,0,0.5,0,0,0" 
class="s1_10"
>list. The code to the </text>

<text 
x="56" 
y="845" 
dx="0,0,0,0,0,0,-0.9,0,0,-0.9,0,0,0,-0.9,0,0,0,0,-0.9,0,0,-0.9,0,0,0,-0.9,0,0,0,0,0,-0.9,0,0,-0.9,0,0,0,0" 
class="s1_10"
>right is the link to the About Us page.</text>

<text 
x="879" 
y="64" 
dx="0,0,-0.9,0,0,0,0,-0.9,0,0,0,-0.9,0,0,0,-0.9,0,0,0,0,-0.9,0,0,0.3,0,0" 
class="s1_10"
>A link has two main parts:</text>

<text 
x="879" 
y="86" 
dx="0" 
class="s4_10"
>[</text>

<text 
x="906" 
y="86" 
dx="0,0,0,0,4.5,0,0,0,4.5,0,0,0,0,0,0,4.5,0,0,0" 
class="s1_10"
>the bit inside the </text>

<path d="M1049.6,80.8c0,-1.8,-0.7,-2.7,-2.2,-2.7c-0.9,0,-1.8,0.5,-2.6,1.4l0,-3.9l-1.2,0l0,10.5l1.2,0l0,-5.6c0.8,-0.9,1.5,-1.4,2.2,-1.4c0.5,0,0.9,0.2,1.1,0.5c0.2,0.3,0.3,0.8,0.3,1.5l0,5l1.2,0l0,-5.3Z" class="g16_10" />
<path d="M1057.2,78.1c-1,0,-1.8,0.6,-2.5,1.8l0,-1.6l-1.1,0l0,7.8l1.1,0l0,-5c0,-0.1,0.2,-0.3,0.5,-0.7c0.2,-0.3,0.5,-0.6,0.9,-0.8c0.3,-0.2,0.6,-0.3,1,-0.3c0.3,0,0.8,0.1,1.3,0.3l0.5,-1.1c-0.6,-0.2,-1.2,-0.4,-1.7,-0.4Z" class="g16_10" />
<path d="M1068.2,81.9c0,-1.2,-0.3,-2.1,-1,-2.8c-0.6,-0.6,-1.3,-1,-2.2,-1c-1,0,-1.8,0.4,-2.5,1.1c-0.6,0.8,-0.9,1.7,-0.9,3c0,1.2,0.3,2.2,1.1,3c0.7,0.7,1.6,1.1,2.7,1.1c1,0,1.8,-0.2,2.4,-0.5l-0.2,-0.9c-0.7,0.2,-1.4,0.4,-2.1,0.4c-0.8,0,-1.4,-0.3,-1.9,-0.9c-0.5,-0.6,-0.8,-1.3,-0.8,-2.2l5.4,0l0,-0.3Zm-5.3,-0.6c0,-0.7,0.3,-1.2,0.7,-1.6c0.3,-0.4,0.8,-0.6,1.4,-0.6c0.5,0,0.9,0.2,1.3,0.7c0.4,0.4,0.6,0.9,0.6,1.5l-4,0Z" class="g16_10" />
<path d="M1075.4,75.4c-0.9,0,-1.4,0.2,-1.8,0.6c-0.3,0.4,-0.5,1.1,-0.5,2.1l0,0.2l-1.9,0l0,1l1.9,0l0,6.8l1.2,0l0,-6.8l2.6,0l0,-1l-2.6,0l0,-0.1c0,-0.7,0.1,-1.2,0.2,-1.5c0.2,-0.2,0.5,-0.3,0.9,-0.3c0.4,0,0.9,0.1,1.5,0.2l0.3,-0.9c-0.7,-0.2,-1.3,-0.3,-1.8,-0.3Z" class="g16_10" />
<text 
x="1041" 
y="86" 
dx="0,0,0,0" 
class="s3_10"
>href</text>

<text 
x="1087" 
y="86" 
dx="0,0,0,0,0,0,-0.3,0,0" 
class="s2_10"
>attribute</text>

<text 
x="1157" 
y="86" 
dx="0,0,0,4.5,0,0,0" 
class="s1_10"
>is the </text>

<text 
x="906" 
y="107" 
dx="0,0,0,0,0,-0.7,0,0,-0.7,0,0,0,-0.7,0,0,0,0,-0.7,0,0,0,-0.7,0,0,0,0,-0.7,0,0,0,-0.7,0,0,0,0,-0.7,0,0,-0.7,0,0,-0.7,0,0,0" 
class="s1_10"
>name of the page you want the link to go to. </text>

<text 
x="906" 
y="128" 
dx="0,0,0" 
class="s1_10"
>So </text>

<path d="M938.9,123.5c0,-1.7,-0.7,-2.6,-2.1,-2.6c-1,0,-1.8,0.4,-2.7,1.3l0,-3.9l-1.1,0l0,10.6l1.1,0l0,-5.7c0.8,-0.8,1.6,-1.3,2.3,-1.3c0.5,0,0.8,0.2,1,0.5c0.3,0.3,0.4,0.8,0.4,1.5l0,5l1.1,0l0,-5.4Z" class="g16_10" />
<path d="M946.5,120.9c-1,0,-1.8,0.6,-2.4,1.8l0,-1.6l-1.1,0l0,7.8l1.1,0l0,-5.1c0,0,0.1,-0.2,0.4,-0.6c0.3,-0.3,0.6,-0.6,0.9,-0.8c0.4,-0.2,0.7,-0.3,1,-0.3c0.4,0,0.9,0.1,1.4,0.3l0.4,-1.1c-0.5,-0.3,-1.1,-0.4,-1.7,-0.4Z" class="g16_10" />
<path d="M957.5,124.6c0,-1.1,-0.3,-2,-0.9,-2.7c-0.6,-0.7,-1.3,-1,-2.2,-1c-1,0,-1.9,0.4,-2.5,1.1c-0.6,0.7,-0.9,1.7,-0.9,3c0,1.2,0.3,2.2,1,3c0.7,0.7,1.7,1.1,2.8,1.1c0.9,0,1.7,-0.2,2.4,-0.5L957,127.7c-0.7,0.2,-1.5,0.3,-2.2,0.3c-0.7,0,-1.3,-0.2,-1.9,-0.8c-0.5,-0.6,-0.7,-1.3,-0.7,-2.2l5.3,0l0,-0.4Zm-5.2,-0.5c0,-0.7,0.2,-1.2,0.6,-1.6c0.4,-0.4,0.9,-0.6,1.5,-0.6c0.5,0,0.9,0.2,1.3,0.6c0.4,0.4,0.5,1,0.5,1.6l-3.9,0Z" class="g16_10" />
<path d="M964.7,118.2c-0.8,0,-1.4,0.1,-1.7,0.5c-0.4,0.4,-0.5,1.1,-0.5,2.1l0,0.3l-2,0l0,1l2,0l0,6.8l1.1,0l0,-6.8l2.6,0l0,-1l-2.6,0l0,-0.2c0,-0.7,0.1,-1.1,0.3,-1.4c0.1,-0.2,0.4,-0.3,0.8,-0.3c0.5,0,1,0,1.5,0.2l0.3,-0.9c-0.6,-0.2,-1.2,-0.3,-1.8,-0.3Z" class="g16_10" />
<path d="M976.5,121.5l-7,0l0,1l7,0l0,-1Zm0,3l-7,0l0,1l7,0l0,-1Z" class="g16_10" />
<path d="M983.7,118.3l-1.1,0l0,1.8l0.2,2.1l0.6,0l0.3,-2.1l0,-1.8Zm-2.7,0l-1.2,0l0,1.8l0.3,2.1l0.6,0l0.3,-2.1l0,-1.8Z" class="g16_10" />
<path d="M994,127.1l0,-3.4c0,-1.9,-0.9,-2.8,-2.7,-2.8c-0.9,0,-1.9,0.3,-3,0.8l0.3,0.9c0.4,-0.2,0.8,-0.4,1.2,-0.5c0.5,-0.1,0.8,-0.2,1.1,-0.2c1.3,0,1.9,0.7,1.9,2l0,0.4l-1.3,0.1c-0.6,0,-1.1,0.1,-1.5,0.2c-0.5,0.1,-0.8,0.3,-1.1,0.5c-0.3,0.2,-0.6,0.5,-0.7,0.7c-0.2,0.3,-0.2,0.7,-0.2,1.1c0,0.6,0.2,1.1,0.6,1.5c0.5,0.5,1,0.7,1.6,0.7c1.1,0,2,-0.5,2.6,-1.5c0,0.5,0.1,0.9,0.2,1.3l1.1,0C994,128.3,994,127.7,994,127.1Zm-2.3,0.5c-0.4,0.2,-0.8,0.3,-1.2,0.3c-0.4,0,-0.7,-0.1,-0.9,-0.3c-0.3,-0.2,-0.4,-0.5,-0.4,-0.8c0,-0.4,0.1,-0.7,0.4,-0.9c0.3,-0.3,0.6,-0.4,1,-0.5c0.4,-0.1,1.1,-0.2,2.2,-0.3l0,1.5c-0.3,0.4,-0.7,0.7,-1.1,1Z" class="g16_10" />
<path d="M998.3,118.3l-1.2,0l0,10.6l1.2,0l0,-1.2c0.2,0.4,0.6,0.8,1,1c0.4,0.2,0.9,0.4,1.3,0.4c0.9,0,1.7,-0.4,2.2,-1.2c0.5,-0.8,0.8,-1.8,0.8,-3c0,-1.2,-0.2,-2.2,-0.7,-2.9c-0.6,-0.7,-1.3,-1.1,-2.2,-1.1c-0.5,0,-0.9,0.1,-1.4,0.3c-0.4,0.3,-0.7,0.5,-1,0.9l0,-3.8Zm2.1,3.6c0.6,0,1.1,0.3,1.5,0.8c0.3,0.6,0.5,1.3,0.5,2.2c0,0.9,-0.2,1.6,-0.6,2.2c-0.3,0.6,-0.8,0.9,-1.5,0.9c-0.4,0,-0.7,-0.1,-1.1,-0.4c-0.4,-0.3,-0.7,-0.7,-0.9,-1.1l0,-3.2c0.6,-0.9,1.3,-1.4,2.1,-1.4Z" class="g16_10" />
<path d="M1006.7,122c-0.6,0.8,-0.9,1.7,-0.9,3c0,1.2,0.3,2.2,0.9,2.9c0.7,0.8,1.5,1.2,2.6,1.2c1,0,1.9,-0.4,2.5,-1.2c0.7,-0.7,1,-1.7,1,-2.9c0,-1.2,-0.3,-2.2,-1,-3c-0.6,-0.7,-1.5,-1.1,-2.5,-1.1c-1.1,0,-1.9,0.4,-2.6,1.1Zm0.9,5.2c-0.4,-0.6,-0.6,-1.4,-0.6,-2.2c0,-0.9,0.2,-1.7,0.6,-2.2c0.4,-0.6,1,-0.9,1.7,-0.9c0.7,0,1.3,0.3,1.7,0.9c0.4,0.6,0.6,1.3,0.6,2.2c0,0.8,-0.2,1.6,-0.7,2.2c-0.4,0.6,-0.9,0.8,-1.6,0.8c-0.7,0,-1.3,-0.2,-1.7,-0.8Z" class="g16_10" />
<path d="M1021.4,121.1l-1.1,0l0,5.6c-0.8,0.9,-1.6,1.3,-2.3,1.3c-0.5,0,-0.9,-0.1,-1.1,-0.5c-0.2,-0.3,-0.3,-0.8,-0.3,-1.4l0,-5l-1.1,0l0,5.3c0,1.8,0.7,2.6,2.1,2.6c1,0,1.8,-0.4,2.7,-1.3l0,1.2l1.1,0l0,-7.8Z" class="g16_10" />
<path d="M1030.5,127.6c-0.6,0.3,-1.3,0.4,-1.9,0.4c-0.3,0,-0.6,-0.1,-0.8,-0.4c-0.2,-0.2,-0.4,-0.6,-0.4,-1.1l0,-4.4l2.7,0l0,-1l-2.7,0l0,-2.1l-1.1,0l0,2.1l-1.5,0l0,1l1.5,0l0,4.7c0,1.5,0.7,2.2,2.1,2.2c0.8,0,1.5,-0.1,2.3,-0.5l-0.2,-0.9Z" class="g16_10" />
<path d="M1038.5,124.5l-4,0l0,1l4,0l0,-1Z" class="g16_10" />
<path d="M1048.9,121.1l-1.1,0l0,5.6c-0.8,0.9,-1.6,1.3,-2.3,1.3c-0.5,0,-0.9,-0.1,-1.1,-0.5c-0.2,-0.3,-0.3,-0.8,-0.3,-1.4l0,-5l-1.1,0l0,5.3c0,1.8,0.7,2.6,2.1,2.6c1,0,1.8,-0.4,2.7,-1.3l0,1.2l1.1,0l0,-7.8Z" class="g16_10" />
<path d="M1057.6,121.2c-0.8,-0.2,-1.5,-0.3,-2.1,-0.3c-1,0,-1.8,0.2,-2.3,0.6c-0.6,0.4,-0.9,0.9,-0.9,1.6c0,0.3,0,0.6,0.2,0.8c0.1,0.3,0.3,0.5,0.5,0.7c0.3,0.1,0.5,0.3,0.8,0.4c0.3,0.1,0.7,0.2,1.3,0.4c0.8,0.2,1.3,0.4,1.5,0.6c0.2,0.3,0.3,0.5,0.3,0.8c0,0.4,-0.2,0.7,-0.6,0.9c-0.5,0.3,-1,0.4,-1.6,0.4c-0.8,0,-1.5,-0.2,-2.1,-0.5l-0.2,1c0.6,0.3,1.4,0.5,2.3,0.5c1,0,1.8,-0.3,2.4,-0.7c0.6,-0.4,0.9,-1,0.9,-1.7c0,-0.4,-0.1,-0.7,-0.2,-1c-0.2,-0.3,-0.4,-0.6,-0.7,-0.8c-0.4,-0.2,-0.8,-0.3,-1.3,-0.5l-1.1,-0.3c-0.5,-0.1,-0.9,-0.3,-1,-0.5c-0.2,-0.1,-0.3,-0.3,-0.3,-0.6c0,-0.3,0.2,-0.6,0.6,-0.8c0.3,-0.2,0.8,-0.3,1.5,-0.3c0.6,0,1.2,0.1,1.8,0.3l0.3,-1Z" class="g16_10" />
<path d="M1063.6,127.4c-0.2,0.2,-0.3,0.4,-0.3,0.7c0,0.3,0.1,0.5,0.3,0.7c0.2,0.2,0.4,0.3,0.6,0.3c0.3,0,0.5,-0.1,0.7,-0.3c0.2,-0.2,0.3,-0.4,0.3,-0.7c0,-0.3,-0.1,-0.5,-0.3,-0.7c-0.2,-0.2,-0.4,-0.2,-0.7,-0.2c-0.2,0,-0.4,0,-0.6,0.2Z" class="g16_10" />
<path d="M1076.5,123.5c0,-1.7,-0.8,-2.6,-2.2,-2.6c-0.9,0,-1.8,0.4,-2.7,1.3l0,-3.9l-1.1,0l0,10.6l1.1,0l0,-5.7c0.9,-0.8,1.6,-1.3,2.3,-1.3c0.5,0,0.9,0.2,1.1,0.5c0.2,0.3,0.3,0.8,0.3,1.5l0,5l1.2,0l0,-5.4Z" class="g16_10" />
<path d="M1085.5,127.6c-0.6,0.3,-1.2,0.4,-1.9,0.4c-0.3,0,-0.6,-0.1,-0.8,-0.4c-0.2,-0.2,-0.3,-0.6,-0.3,-1.1l0,-4.4l2.6,0l0,-1l-2.6,0l0,-2.1l-1.2,0l0,2.1l-1.5,0l0,1l1.5,0l0,4.7c0,1.5,0.7,2.2,2.1,2.2c0.8,0,1.5,-0.1,2.3,-0.5l-0.2,-0.9Z" class="g16_10" />
<path d="M1095.4,123.4c0,-1.7,-0.5,-2.5,-1.4,-2.5c-0.3,0,-0.6,0.1,-0.9,0.4c-0.3,0.2,-0.6,0.5,-0.8,1c-0.1,-0.5,-0.2,-0.8,-0.5,-1c-0.2,-0.3,-0.5,-0.4,-0.8,-0.4c-0.3,0,-0.6,0.1,-0.9,0.4c-0.3,0.2,-0.6,0.5,-0.8,1l0,-1.2l-1.1,0l0,7.8l1.1,0l0,-5.6c0,-0.1,0.2,-0.3,0.5,-0.8c0.2,-0.4,0.5,-0.6,0.7,-0.6c0.5,0,0.7,0.6,0.7,1.9l0,5.1l1.2,0l0,-5.6c0,-0.1,0.1,-0.3,0.4,-0.8c0.3,-0.4,0.5,-0.6,0.8,-0.6c0.4,0,0.7,0.6,0.7,1.9l0,5.1l1.1,0l0,-5.5Z" class="g16_10" />
<path d="M1103.5,127.5l-2,0l0,-9l-3,0l0,1l2,0l0,9l3,0l0,-1Z" class="g16_10" />
<path d="M1112.1,118.3l-1.2,0l0,1.8l0.3,2.1l0.6,0l0.3,-2.1l0,-1.8Zm-2.7,0l-1.2,0l0,1.8l0.3,2.1l0.6,0l0.3,-2.1l0,-1.8Z" class="g16_10" />
<text 
x="931" 
y="128" 
dx="0,0,0,0,0,0,0,0,0,0,0,0,0,0,0,0,0,0,0,0" 
class="s3_10"
>href="about-us.html"</text>

<text 
x="1121" 
y="128" 
dx="0,0,0,0,0,0,2.6,0,0,0,0" 
class="s1_10"
>would take </text>

<text 
x="906" 
y="150" 
dx="0,0,0,0,-0.9,0,0,-0.9,0,0,0,-0.9,0,0,0,0,0,-0.9,0,0,-0.9,0,0,0,0" 
class="s1_10"
>you to the About Us page.</text>

<text 
x="879" 
y="171" 
dx="0" 
class="s4_10"
>[</text>

<text 
x="906" 
y="171" 
dx="0,0,0,0,4.2,0,0,0,0,4.2,0,0,0,0,0,0,0,4.2,0,0,0,4.2,0,0,0,0,-1.1,0,4.2,0,0,0,0,0,0,0,4.2,0,0,0" 
class="s1_10"
>the text between the link’s opening and </text>

<text 
x="906" 
y="193" 
dx="0,0,0,0,0,0,0,0,1.1,0,0,0,0,1.1,0,0,1.1,0,0,0,1.1,0,0,0,0,1.1,0,0,0,0,1.1,0,0,0,1.1,-0.3,0,0,0,0,0,1.1,0,0,0,0" 
class="s1_10"
>closing tags is the text that the reader will </text>

<text 
x="906" 
y="214" 
dx="0,0,0,0,0,0,-0.4,0,0,0,-0.4,0,0,0,0,0,-0.4,0,0,0,0,-0.4,0,0,0,0,-0.4,0,0,0,0,0,0,0,-0.4,0,0,0,0,0,0,0,0,0,0" 
class="s1_10"
>click on. Often this text appears underlined </text>

<text 
x="906" 
y="235" 
dx="0,0,0,1.1,0,0,0,1.1,0,0,0,1.1,0,0,0,0,0,1.1,0,0,1.1,0,0,0,1.1,0,0,0,0,0,0,0,0,1.1,0,0,0,1.1,0,0,0,0" 
class="s1_10"
>on the web page. In our example, the link </text>

<text 
x="906" 
y="257" 
dx="0,0,0,0,0,-0.9,0,0,0,0,-0.9,0,0,-0.9,0,0,0,0,0,0,-0.9,0,0" 
class="s1_10"
>text will be ‘About Us’</text>

<text 
x="552" 
y="332" 
dx="0,0,0,0,0,1.2,0,0,0,0,0,1.2,0,-0.3,0,1.2,0,0,0,0,0,0,0,1.2,0,0,0,0,0" 
class="s1_10"
>Home pages are usually given </text>

<text 
x="552" 
y="353" 
dx="0,0,-0.9,0,0,0,0,-0.9,0,0,0,0,-0.9,0,0" 
class="s1_10"
>a file name of </text>

<path d="M649.9,343c-0.1,0.1,-0.2,0.3,-0.2,0.5c0,0.2,0.1,0.4,0.2,0.6c0.2,0.2,0.3,0.2,0.6,0.2c0.2,0,0.4,0,0.5,-0.2c0.2,-0.1,0.2,-0.3,0.2,-0.6c0,-0.2,0,-0.4,-0.2,-0.5c-0.1,-0.2,-0.3,-0.3,-0.5,-0.3c-0.3,0,-0.4,0.1,-0.6,0.3Zm1.1,2.7l-3.4,0l0,1l2.3,0l0,6.7l1.1,0l0,-7.7Z" class="g16_10" />
<path d="M662.1,348.1c0,-1.7,-0.7,-2.6,-2.2,-2.6c-0.9,0,-1.8,0.4,-2.6,1.3l0,-1.1l-1.2,0l0,7.7l1.2,0l0,-5.6c0.8,-0.9,1.6,-1.3,2.3,-1.3c0.5,0,0.8,0.1,1,0.5c0.3,0.3,0.4,0.8,0.4,1.5l0,4.9l1.1,0l0,-5.3Z" class="g16_10" />
<path d="M671.3,342.9l-1.2,0l0,3.8c-0.6,-0.8,-1.4,-1.2,-2.4,-1.2c-0.9,0,-1.6,0.4,-2.1,1.1c-0.5,0.8,-0.8,1.7,-0.8,2.8c0,1.3,0.2,2.3,0.8,3.1c0.5,0.8,1.2,1.1,2.1,1.1c0.5,0,0.9,-0.1,1.4,-0.3c0.4,-0.3,0.8,-0.6,1,-1l0,1.1l1.2,0l0,-10.5Zm-1.6,8.7c-0.3,0.4,-0.5,0.6,-0.8,0.8c-0.3,0.1,-0.6,0.2,-0.9,0.2c-0.6,0,-1.1,-0.3,-1.5,-0.9c-0.3,-0.6,-0.5,-1.3,-0.5,-2.2c0,-0.9,0.2,-1.6,0.6,-2.2c0.3,-0.5,0.8,-0.8,1.5,-0.8c0.8,0,1.4,0.4,2,1.3l0,3.3c0,0,-0.1,0.2,-0.4,0.5Z" class="g16_10" />
<path d="M680.7,349.2c0,-1.1,-0.3,-2,-0.9,-2.7c-0.6,-0.7,-1.4,-1,-2.3,-1c-1,0,-1.8,0.4,-2.4,1.1c-0.6,0.7,-1,1.7,-1,2.9c0,1.3,0.4,2.3,1.1,3c0.7,0.8,1.6,1.1,2.8,1.1c0.9,0,1.7,-0.1,2.4,-0.4l-0.2,-0.9c-0.8,0.2,-1.5,0.3,-2.2,0.3c-0.7,0,-1.4,-0.3,-1.9,-0.8c-0.5,-0.6,-0.7,-1.3,-0.7,-2.2l5.3,0l0,-0.4Zm-5.3,-0.6c0.1,-0.6,0.3,-1.1,0.7,-1.5c0.4,-0.4,0.9,-0.6,1.5,-0.6c0.5,0,0.9,0.2,1.3,0.6c0.3,0.4,0.5,0.9,0.5,1.5l-4,0Z" class="g16_10" />
<path d="M687.2,349.5l2.7,-3.8l-1.2,0l-2.2,3l-2,-3l-1.4,0l2.8,3.9l-2.8,3.8l1.3,0l2.1,-3l2.1,3l1.3,0l-2.7,-3.9Z" class="g16_10" />
<path d="M695.1,352c-0.2,0.2,-0.3,0.4,-0.3,0.7c0,0.2,0.1,0.5,0.3,0.7c0.2,0.2,0.4,0.2,0.6,0.2c0.3,0,0.5,0,0.7,-0.2c0.2,-0.2,0.3,-0.5,0.3,-0.7c0,-0.3,-0.1,-0.5,-0.3,-0.7c-0.2,-0.2,-0.4,-0.3,-0.7,-0.3c-0.2,0,-0.4,0.1,-0.6,0.3Z" class="g16_10" />
<path d="M708,348.1c0,-1.7,-0.8,-2.6,-2.2,-2.6c-0.9,0,-1.8,0.4,-2.7,1.3l0,-3.9l-1.1,0l0,10.5l1.1,0l0,-5.6c0.9,-0.9,1.6,-1.3,2.3,-1.3c0.5,0,0.8,0.1,1.1,0.5c0.2,0.3,0.3,0.8,0.3,1.5l0,4.9l1.2,0l0,-5.3Z" class="g16_10" />
<path d="M717,352.2c-0.6,0.3,-1.2,0.4,-1.9,0.4c-0.3,0,-0.6,-0.1,-0.8,-0.4C714.1,352,714,351.6,714,351.1l0,-4.4l2.6,0l0,-1l-2.6,0l0,-2.2l-1.2,0l0,2.2l-1.5,0l0,1l1.5,0l0,4.7c0,1.5,0.7,2.2,2.1,2.2c0.8,0,1.5,-0.1,2.3,-0.5L717,352.2Z" class="g16_10" />
<path d="M726.9,348c0,-1.7,-0.5,-2.5,-1.4,-2.5c-0.3,0,-0.6,0.1,-0.9,0.4c-0.3,0.2,-0.6,0.5,-0.8,0.9c-0.1,-0.4,-0.2,-0.7,-0.5,-0.9c-0.2,-0.3,-0.5,-0.4,-0.8,-0.4c-0.3,0,-0.6,0.1,-0.9,0.4c-0.3,0.2,-0.6,0.5,-0.8,0.9l0,-1.1l-1.1,0l0,7.7l1.1,0l0,-5.6c0,0,0.2,-0.2,0.5,-0.7c0.2,-0.4,0.5,-0.6,0.7,-0.6c0.5,0,0.7,0.6,0.7,1.8l0,5.1l1.2,0l0,-5.6c0,0,0.1,-0.2,0.4,-0.7c0.3,-0.4,0.5,-0.6,0.8,-0.6c0.4,0,0.7,0.6,0.7,1.8l0,5.1l1.1,0l0,-5.4Z" class="g16_10" />
<path d="M734.5,352.5l-2,0l0,-10l-3,0l0,1l2,0l0,10l3,0l0,-1Z" class="g16_10" />
<text 
x="645" 
y="353" 
dx="0,0,0,0,0,0,0,0,0,0" 
class="s3_10"
>index.html</text>

<text 
x="548" 
y="289" 
dx="0,-2.1,-2.1,-2.9,-1.8,0,0,-2.6,-2.1" 
class="s5_10"
>NINJA TIP</text>

<text 
x="63" 
y="417" 
dx="0,0,0,0,0,0,0,0,0,0,-1.8,0,0,0,0" 
class="s3_10"
>&lt;!DOCTYPE html&gt;</text>

<text 
x="63" 
y="439" 
dx="0,0,0,0,0,0" 
class="s3_10"
>&lt;html&gt;</text>

<text 
x="63" 
y="460" 
dx="0,0,0,0,0,0" 
class="s3_10"
>&lt;head&gt;</text>

<text 
x="63" 
y="481" 
dx="0,0,0,0,0,0,0,0,0,0,0,0,0,0,0,0,0,0,0" 
class="s3_10"
>&lt;title&gt;Home&lt;/title&gt;</text>

<text 
x="63" 
y="503" 
dx="0,0,0,0,0,0,-1.8,0,0,0,0,0,0,0,0,0,0,0,0,0,0,0,-1.8,0,0,0,0,0,0,0,0,0,0,0,0,0,0,0,0,-1.8,0,0,0,0,0,0,0,0,0,0,0,0,0,0,0,0,0,0,0,0,0,0,0,0,0,0,0,0,0,0,0,0,0,0,0" 
class="s3_10"
>&lt;link type="text/css" rel="stylesheet" href="css/my-first-stylesheet.css"/&gt;</text>

<text 
x="63" 
y="524" 
dx="0,0,0,0,0,0,0" 
class="s3_10"
>&lt;/head&gt;</text>

<text 
x="63" 
y="545" 
dx="0,0,0,0,0,0" 
class="s3_10"
>&lt;body&gt;</text>

<text 
x="63" 
y="567" 
dx="0,0,0,0,0,0,0,-1.8,0,0,0,-1.8,0,0,0,-1.8,0,0,0,0,0,0,0,0,0,0,0,0,0,0" 
class="s3_10"
>&lt;h1&gt;We are the Nanonauts!&lt;/h1&gt;</text>

<text 
x="63" 
y="588" 
dx="0,0,0,0,0,0,0,0,-1.8,0,0,-1.8,0,0,0,-1.8,0,0,0,0,0,0,0,0,-1.8,0,0,0,0,0,-1.8,0,0,-1.8,0,-1.8,0,0,0,0,-1.8,0,0,-1.8,0,0,0,0,0,-1.8,0,-1.8,0,0,0,0,0,0,0,0" 
class="s3_10"
>&lt;p&gt;This is our website. Click on a link to visit a page:&lt;/p&gt;</text>

<text 
x="63" 
y="610" 
dx="0,0,0,0" 
class="s3_10"
>&lt;ul&gt;</text>

<text 
x="63" 
y="631" 
dx="0,0,0,0,0,0,0,-1.8,0,0,0,0,0,0,0,0,0,0,0,0,0,0,0,0,0,0,0,0,0,0,0,0,0,0,-1.8,0,0,0,0,0,0,0,0,0,0" 
class="s3_10"
>&lt;li&gt;&lt;a href="about-us.html"&gt;About Us&lt;/a&gt;&lt;/li&gt;</text>

<text 
x="63" 
y="652" 
dx="0,0,0,0,0,0,0,-1.8,0,0,0,0,0,0,0,0,0,0,0,0,0,0,0,0,0,0,0,0,0,0,0,0,0,-1.8,0,0,0,0,0,0,0,0,0,0,0,0,0" 
class="s3_10"
>&lt;li&gt;&lt;a href="our-songs.html"&gt;Our Songs&lt;/a&gt;&lt;/li&gt;</text>

<text 
x="63" 
y="674" 
dx="0,0,0,0,0,0,0,-1.8,0,0,0,0,0,0,0,0,0,0,0,0,0,0,0,0,0,0,0,0,0,0,0,0,0,0,0,-1.8,0,0,-1.8,0,0,0,0,0,0,0,0,0,0,0,0" 
class="s3_10"
>&lt;li&gt;&lt;a href="see-us-play.html"&gt;See Us Play&lt;/a&gt;&lt;/li&gt;</text>

<text 
x="63" 
y="695" 
dx="0,0,0,0,0" 
class="s3_10"
>&lt;/ul&gt;</text>

<text 
x="63" 
y="717" 
dx="0,0,0,0,0,0,0" 
class="s3_10"
>&lt;/body&gt;</text>

<text 
x="63" 
y="738" 
dx="0,0,0,0,0,0,0" 
class="s3_10"
>&lt;/html&gt;</text>

<text 
x="439" 
y="813" 
dx="0,0,0,-1.8,0,0,0,0,0,0,0,0,0,0,0,0,0,0,0,0,0,0,0,0,0,0,0,0,0,0,-1.8,0,0,0,0,0" 
class="s3_10"
>&lt;a href="about-us.html"&gt;About Us&lt;/a&gt;</text>

<text 
x="975" 
y="353" 
dx="0,0,0,0.1,0,0,-0.3,0,0,0,0,0.1,0,0,0,0,0.1,0,0,0,0,-0.3,0,0.1,0,0,0,0,0,0,0.1,0,0,0,0,0,0,0.1,-1.4,0,0,0.1,0,0,0,0,0.1,0,0,0.1,0,0,0,0.1,0,0,0,0,0.1,0,0,0,0,0,0,0,0.1,0,0,0,0,0,0,0.1,0,0,0,0,0.1,0,0,0,0,0,0,0.1,0,0,0,0" 
class="s1_10"
>Be careful when you’re typing links. You have to get them exactly right! They always have </text>

<text 
x="975" 
y="374" 
dx="0,0,0,0,-0.9,0,0,0,0,-0.9,0,0,0,0,0,0.3,0" 
class="s1_10"
>the same pattern:</text>

<text 
x="975" 
y="406" 
dx="0,0,0,0,0.3,0,-0.9,0,0,0,-0.9,0,0" 
class="s6_10"
>start and end</text>

<path d="M1076.2,405.1l0,-3.3c0,-1.9,-0.9,-2.8,-2.7,-2.8c-0.9,0,-1.9,0.2,-2.9,0.8l0.3,0.8c0.3,-0.2,0.7,-0.3,1.1,-0.4c0.5,-0.2,0.9,-0.2,1.1,-0.2c1.3,0,1.9,0.6,1.9,2l0,0.3l-1.3,0.1c-0.6,0.1,-1.1,0.2,-1.5,0.3c-0.4,0.1,-0.8,0.3,-1.1,0.5c-0.3,0.2,-0.5,0.4,-0.7,0.7c-0.1,0.3,-0.2,0.6,-0.2,1c0,0.7,0.2,1.2,0.6,1.6c0.5,0.4,1,0.6,1.6,0.6c1.1,0,2,-0.5,2.7,-1.4c0,0.5,0,0.9,0.1,1.2l1.2,0c-0.2,-0.5,-0.2,-1.1,-0.2,-1.8Zm-2.3,0.5c-0.4,0.3,-0.8,0.4,-1.2,0.4c-0.4,0,-0.7,-0.1,-0.9,-0.3c-0.3,-0.2,-0.4,-0.5,-0.4,-0.9c0,-0.3,0.1,-0.6,0.4,-0.9c0.3,-0.2,0.7,-0.4,1.1,-0.4c0.3,-0.1,1.1,-0.2,2.1,-0.3l0,1.4c-0.3,0.4,-0.7,0.8,-1.1,1Z" class="g16_10" />
<text 
x="1068" 
y="406" 
dx="0" 
class="s3_10"
>a</text>

<text 
x="1081" 
y="406" 
dx="0,0,0,0,0" 
class="s6_10"
>tags </text>

<path d="M1148,404.2l-4.5,-2.6l4.5,-2.8l0,-1l-5.6,3.3l0,0.9l5.6,3.3l0,-1.1Z" class="g16_10" />
<path d="M1157.5,405.1l0,-3.3c0,-1.9,-0.9,-2.8,-2.6,-2.8c-1,0,-1.9,0.2,-3,0.8l0.3,0.8c0.3,-0.2,0.7,-0.3,1.2,-0.4c0.4,-0.2,0.8,-0.2,1.1,-0.2c1.2,0,1.8,0.6,1.8,2l0,0.3l-1.3,0.1c-0.5,0.1,-1,0.2,-1.5,0.3c-0.4,0.1,-0.8,0.3,-1.1,0.5c-0.3,0.2,-0.5,0.4,-0.6,0.7c-0.2,0.3,-0.3,0.6,-0.3,1c0,0.7,0.2,1.2,0.7,1.6c0.4,0.4,0.9,0.6,1.5,0.6c1.1,0,2,-0.5,2.7,-1.4c0,0.5,0.1,0.9,0.2,1.2l1.1,0c-0.1,-0.5,-0.2,-1.1,-0.2,-1.8Zm-2.2,0.5c-0.4,0.3,-0.8,0.4,-1.3,0.4c-0.3,0,-0.6,-0.1,-0.9,-0.3c-0.2,-0.2,-0.4,-0.5,-0.4,-0.9c0,-0.3,0.2,-0.6,0.5,-0.9c0.3,-0.2,0.6,-0.4,1,-0.4c0.4,-0.1,1.1,-0.2,2.1,-0.3l0,1.4c-0.3,0.4,-0.6,0.8,-1,1Z" class="g16_10" />
<text 
x="1140" 
y="406" 
dx="0,0,0,-1.8,0,0,0,0,0,0,0,0,0,0,0,0,0,0,0,0" 
class="s3_10"
>&lt;a href="songs.html"</text>

<path d="M1329.8,401.1l-5.5,-3.4l0,1.1l4.4,2.8l-4.4,2.6l0,1.1l5.5,-3.3l0,-0.9Z" class="g16_10" />
<text 
x="1322" 
y="406" 
dx="0,0,0,0,0,-1.8,0,0,0,0" 
class="s3_10"
>&gt;Our Songs</text>

<path d="M1419.4,404.2l-4.5,-2.6l4.5,-2.8l0,-1l-5.6,3.3l0,0.9l5.6,3.3l0,-1.1Z" class="g16_10" />
<path d="M1427.5,396.2l-4.6,10.9l1.1,0l4.6,-10.9l-1.1,0Z" class="g16_10" />
<path d="M1438.1,405.1l0,-3.3c0,-1.9,-0.9,-2.8,-2.7,-2.8c-0.9,0,-1.9,0.2,-3,0.8l0.4,0.8c0.3,-0.2,0.7,-0.3,1.1,-0.4c0.5,-0.2,0.8,-0.2,1.1,-0.2c1.3,0,1.9,0.6,1.9,2l0,0.3l-1.3,0.1c-0.6,0.1,-1.1,0.2,-1.5,0.3c-0.5,0.1,-0.8,0.3,-1.1,0.5c-0.3,0.2,-0.5,0.4,-0.7,0.7c-0.2,0.3,-0.2,0.6,-0.2,1c0,0.7,0.2,1.2,0.6,1.6c0.5,0.4,1,0.6,1.6,0.6c1.1,0,2,-0.5,2.7,-1.4c0,0.5,0,0.9,0.1,1.2l1.2,0c-0.2,-0.5,-0.2,-1.1,-0.2,-1.8Zm-2.3,0.5c-0.4,0.3,-0.8,0.4,-1.2,0.4c-0.4,0,-0.7,-0.1,-0.9,-0.3c-0.3,-0.2,-0.4,-0.5,-0.4,-0.9c0,-0.3,0.1,-0.6,0.4,-0.9c0.3,-0.2,0.6,-0.4,1,-0.4c0.4,-0.1,1.1,-0.2,2.2,-0.3l0,1.4c-0.3,0.4,-0.7,0.8,-1.1,1Z" class="g16_10" />
<path d="M1447.2,401.1l-5.6,-3.4l0,1.1l4.5,2.8l-4.5,2.6l0,1.1l5.6,-3.3l0,-0.9Z" class="g16_10" />
<text 
x="1412" 
y="406" 
dx="0,0,0,0" 
class="s3_10"
>&lt;/a&gt;</text>

<path d="M983.3,423c0,-1.8,-0.7,-2.7,-2.1,-2.7c-1,0,-1.8,0.5,-2.7,1.4l0,-3.9l-1.1,0l0,10.5l1.1,0l0,-5.6c0.8,-0.9,1.6,-1.3,2.3,-1.3c0.5,0,0.8,0.1,1.1,0.4c0.2,0.3,0.3,0.8,0.3,1.5l0,5l1.1,0l0,-5.3Z" class="g16_10" />
<path d="M990.9,420.3c-1,0,-1.8,0.6,-2.4,1.8l0,-1.6l-1.1,0l0,7.8l1.1,0l0,-5c0,-0.1,0.1,-0.3,0.4,-0.6c0.3,-0.4,0.6,-0.7,0.9,-0.9c0.4,-0.2,0.7,-0.3,1,-0.3c0.4,0,0.9,0.1,1.4,0.4l0.4,-1.2c-0.5,-0.2,-1.1,-0.4,-1.7,-0.4Z" class="g16_10" />
<path d="M1001.9,424.1c0,-1.1,-0.3,-2,-0.9,-2.7c-0.6,-0.7,-1.3,-1.1,-2.2,-1.1c-1,0,-1.9,0.4,-2.5,1.1c-0.6,0.8,-0.9,1.8,-0.9,3c0,1.3,0.3,2.3,1,3c0.7,0.7,1.7,1.1,2.8,1.1c0.9,0,1.7,-0.1,2.4,-0.5l-0.2,-0.9c-0.7,0.3,-1.5,0.4,-2.2,0.4c-0.7,0,-1.3,-0.3,-1.9,-0.9c-0.5,-0.5,-0.7,-1.3,-0.7,-2.1l5.3,0l0,-0.4Zm-5.2,-0.6c0,-0.6,0.2,-1.2,0.6,-1.5c0.4,-0.4,0.9,-0.6,1.5,-0.6c0.5,0,0.9,0.2,1.3,0.6c0.4,0.4,0.5,0.9,0.5,1.5l-3.9,0Z" class="g16_10" />
<path d="M1009.1,417.6c-0.8,0,-1.4,0.2,-1.7,0.6c-0.4,0.4,-0.5,1.1,-0.5,2.1l0,0.2l-2,0l0,1l2,0l0,6.8l1.1,0l0,-6.8l2.6,0l0,-1l-2.6,0l0,-0.1c0,-0.7,0.1,-1.2,0.3,-1.4c0.1,-0.3,0.4,-0.4,0.8,-0.4c0.5,0,1,0.1,1.5,0.2l0.3,-0.9c-0.6,-0.2,-1.2,-0.3,-1.8,-0.3Z" class="g16_10" />
<text 
x="975" 
y="428" 
dx="0,0,0,0" 
class="s3_10"
>href</text>

<text 
x="1015" 
y="428" 
dx="0,0,0,0,0,0,0,0,0" 
class="s6_10"
>attribute</text>

<text 
x="1140" 
y="428" 
dx="0,0,0" 
class="s3_10"
>&lt;a </text>

<path d="M1174,423c0,-1.8,-0.7,-2.7,-2.2,-2.7c-0.9,0,-1.8,0.5,-2.6,1.4l0,-3.9l-1.2,0l0,10.5l1.2,0l0,-5.6c0.8,-0.9,1.6,-1.3,2.3,-1.3c0.5,0,0.8,0.1,1,0.4c0.2,0.3,0.4,0.8,0.4,1.5l0,5l1.1,0l0,-5.3Z" class="g16_10" />
<path d="M1181.6,420.3c-1,0,-1.8,0.6,-2.4,1.8l0,-1.6l-1.2,0l0,7.8l1.2,0l0,-5c0,-0.1,0.1,-0.3,0.4,-0.6c0.3,-0.4,0.6,-0.7,0.9,-0.9c0.3,-0.2,0.7,-0.3,1,-0.3c0.4,0,0.8,0.1,1.3,0.4l0.5,-1.2c-0.5,-0.2,-1.1,-0.4,-1.7,-0.4Z" class="g16_10" />
<path d="M1192.6,424.1c0,-1.1,-0.3,-2,-0.9,-2.7c-0.6,-0.7,-1.4,-1.1,-2.3,-1.1c-1,0,-1.8,0.4,-2.4,1.1c-0.7,0.8,-1,1.8,-1,3c0,1.3,0.4,2.3,1.1,3c0.7,0.7,1.6,1.1,2.8,1.1c0.9,0,1.7,-0.1,2.4,-0.5l-0.2,-0.9c-0.8,0.3,-1.5,0.4,-2.2,0.4c-0.7,0,-1.4,-0.3,-1.9,-0.9c-0.5,-0.5,-0.7,-1.3,-0.7,-2.1l5.3,0l0,-0.4Zm-5.3,-0.6c0.1,-0.6,0.3,-1.2,0.7,-1.5c0.4,-0.4,0.9,-0.6,1.5,-0.6c0.4,0,0.9,0.2,1.2,0.6c0.4,0.4,0.6,0.9,0.6,1.5l-4,0Z" class="g16_10" />
<path d="M1199.8,417.6c-0.8,0,-1.4,0.2,-1.7,0.6c-0.4,0.4,-0.6,1.1,-0.6,2.1l0,0.2l-1.9,0l0,1l1.9,0l0,6.8l1.2,0l0,-6.8l2.6,0l0,-1l-2.6,0l0,-0.1c0,-0.7,0.1,-1.2,0.2,-1.4c0.2,-0.3,0.5,-0.4,0.9,-0.4c0.4,0,0.9,0.1,1.5,0.2l0.3,-0.9c-0.7,-0.2,-1.3,-0.3,-1.8,-0.3Z" class="g16_10" />
<path d="M1211.5,420.5l-7,0l0,1l7,0l0,-1Zm0,3l-7,0l0,1l7,0l0,-1Z" class="g16_10" />
<path d="M1218.8,417.8l-1.2,0l0,1.8l0.3,2.1l0.6,0l0.3,-2.1l0,-1.8Zm-2.7,0l-1.2,0l0,1.8l0.3,2.1l0.6,0l0.3,-2.1l0,-1.8Z" class="g16_10" />
<text 
x="1166" 
y="428" 
dx="0,0,0,0,0,0,0,0,0,0,0,0,0,0,0,0" 
class="s3_10"
>href="songs.html</text>

<path d="M1319.6,417.8l-1.1,0l0,1.8l0.3,2.1l0.5,0l0.3,-2.1l0,-1.8Zm-2.7,0l-1.1,0l0,1.8l0.2,2.1l0.6,0l0.3,-2.1l0,-1.8Z" class="g16_10" />
<text 
x="1313" 
y="428" 
dx="0,0,0,0,0,0,-1.8,0,0,0,0,0,0,0,0" 
class="s3_10"
>"&gt;Our Songs&lt;/a&gt;</text>

<text 
x="975" 
y="449" 
dx="0,0,0,0,0,0,0,0" 
class="s6_10"
>filename</text>

<text 
x="1140" 
y="449" 
dx="0,0,0,-1.8,0,0,0,0,0" 
class="s3_10"
>&lt;a href="</text>

<path d="M1228.5,442.1c-0.8,-0.3,-1.5,-0.4,-2.1,-0.4c-1,0,-1.8,0.2,-2.4,0.6c-0.5,0.4,-0.8,1,-0.8,1.6c0,0.3,0,0.6,0.2,0.9c0.1,0.2,0.3,0.4,0.5,0.6c0.3,0.2,0.5,0.3,0.8,0.4c0.3,0.1,0.7,0.2,1.3,0.4c0.8,0.2,1.3,0.5,1.5,0.7c0.2,0.2,0.3,0.4,0.3,0.7c0,0.4,-0.2,0.7,-0.7,1c-0.4,0.2,-0.9,0.3,-1.5,0.3c-0.8,0,-1.5,-0.1,-2.1,-0.4l-0.2,1c0.6,0.3,1.4,0.4,2.3,0.4c1,0,1.8,-0.2,2.4,-0.6c0.6,-0.5,0.9,-1.1,0.9,-1.8c0,-0.4,-0.1,-0.7,-0.2,-1c-0.2,-0.3,-0.4,-0.5,-0.7,-0.7c-0.4,-0.2,-0.8,-0.4,-1.3,-0.6l-1.1,-0.3c-0.5,-0.1,-0.9,-0.3,-1,-0.4c-0.2,-0.2,-0.3,-0.4,-0.3,-0.6c0,-0.4,0.2,-0.7,0.6,-0.9c0.3,-0.2,0.8,-0.3,1.5,-0.3c0.5,0,1.2,0.1,1.8,0.3l0.3,-0.9Z" class="g16_10" />
<path d="M1232.6,442.9c-0.6,0.7,-0.9,1.7,-0.9,2.9c0,1.2,0.3,2.2,0.9,3c0.7,0.7,1.5,1.1,2.6,1.1c1,0,1.9,-0.4,2.5,-1.1c0.7,-0.8,1,-1.8,1,-3c0,-1.2,-0.3,-2.2,-1,-2.9c-0.6,-0.8,-1.5,-1.2,-2.5,-1.2c-1.1,0,-1.9,0.4,-2.6,1.2Zm0.9,5.1c-0.4,-0.6,-0.6,-1.3,-0.6,-2.2c0,-0.9,0.2,-1.6,0.6,-2.2c0.4,-0.6,1,-0.9,1.7,-0.9c0.7,0,1.3,0.3,1.7,0.9c0.4,0.6,0.6,1.3,0.6,2.2c0,0.9,-0.2,1.6,-0.6,2.2c-0.5,0.6,-1,0.9,-1.7,0.9c-0.7,0,-1.3,-0.3,-1.7,-0.9Z" class="g16_10" />
<path d="M1247.4,444.4c0,-1.8,-0.8,-2.7,-2.2,-2.7c-0.9,0,-1.8,0.5,-2.7,1.4l0,-1.2l-1.1,0l0,7.8l1.1,0l0,-5.6c0.9,-0.9,1.6,-1.4,2.3,-1.4c0.5,0,0.8,0.2,1.1,0.5c0.2,0.3,0.3,0.8,0.3,1.5l0,5l1.2,0l0,-5.3Z" class="g16_10" />
<path d="M1253.2,446.8c0.7,0,1.3,-0.3,1.8,-0.8c0.5,-0.4,0.8,-1,0.8,-1.7c0,-0.6,-0.1,-1,-0.4,-1.4l1.5,0l0,-1.2l-2.3,0.4c-0.4,-0.2,-0.9,-0.3,-1.4,-0.3c-0.8,0,-1.4,0.2,-1.9,0.7c-0.5,0.4,-0.8,1,-0.8,1.8c0,0.4,0.2,0.8,0.4,1.2c0.2,0.4,0.5,0.8,0.9,1c-0.9,0.5,-1.3,1,-1.3,1.5c0,0.5,0.3,0.9,1,1.3c-0.8,0.4,-1.2,0.9,-1.2,1.5c0,0.6,0.2,1.1,0.8,1.4c0.5,0.4,1.2,0.6,2.1,0.6c1,0,2,-0.3,2.7,-0.8c0.8,-0.5,1.2,-1.2,1.2,-2.1c0,-0.6,-0.1,-1,-0.5,-1.3c-0.3,-0.3,-0.8,-0.5,-1.4,-0.5l-2.7,0.1c-0.2,0,-0.5,0,-0.6,-0.1c-0.2,-0.1,-0.3,-0.3,-0.3,-0.4c0,-0.3,0.4,-0.6,1.1,-0.9c0.1,0,0.3,0,0.5,0Zm-1.1,-1.4c-0.3,-0.3,-0.4,-0.7,-0.4,-1.1c0,-0.5,0.1,-0.9,0.4,-1.2c0.3,-0.3,0.6,-0.4,1.1,-0.4c0.4,0,0.7,0.1,1,0.4c0.3,0.3,0.4,0.7,0.4,1.2c0,0.4,-0.1,0.8,-0.4,1.1c-0.3,0.3,-0.6,0.5,-1,0.5c-0.5,0,-0.8,-0.2,-1.1,-0.5Zm-0.2,6.1c-0.4,-0.2,-0.5,-0.4,-0.5,-0.7c0,-0.2,0,-0.4,0.1,-0.6c0.2,-0.2,0.3,-0.4,0.6,-0.5c0.2,-0.2,0.4,-0.3,0.5,-0.3c0.2,0,0.5,0,0.9,0c0.6,-0.1,1.1,-0.1,1.3,-0.1c0.8,0,1.2,0.3,1.2,0.8c0,0.5,-0.3,0.9,-0.8,1.3c-0.6,0.3,-1.2,0.5,-2,0.5c-0.6,0,-1,-0.1,-1.3,-0.4Z" class="g16_10" />
<path d="M1265.1,442.1c-0.7,-0.3,-1.4,-0.4,-2,-0.4c-1,0,-1.8,0.2,-2.4,0.6c-0.6,0.4,-0.9,1,-0.9,1.6c0,0.3,0.1,0.6,0.2,0.9c0.2,0.2,0.3,0.4,0.6,0.6c0.2,0.2,0.5,0.3,0.8,0.4c0.3,0.1,0.7,0.2,1.3,0.4c0.8,0.2,1.2,0.5,1.4,0.7c0.2,0.2,0.3,0.4,0.3,0.7c0,0.4,-0.2,0.7,-0.6,1c-0.4,0.2,-0.9,0.3,-1.6,0.3c-0.7,0,-1.4,-0.1,-2.1,-0.4l-0.2,1c0.6,0.3,1.4,0.4,2.4,0.4c0.9,0,1.7,-0.2,2.4,-0.6c0.6,-0.5,0.9,-1.1,0.9,-1.8c0,-0.4,-0.1,-0.7,-0.2,-1c-0.2,-0.3,-0.5,-0.5,-0.8,-0.7c-0.3,-0.2,-0.7,-0.4,-1.2,-0.6l-1.1,-0.3c-0.5,-0.1,-0.9,-0.3,-1.1,-0.4c-0.1,-0.2,-0.2,-0.4,-0.2,-0.6c0,-0.4,0.2,-0.7,0.5,-0.9c0.4,-0.2,0.9,-0.3,1.5,-0.3c0.6,0,1.2,0.1,1.9,0.3l0.2,-0.9Z" class="g16_10" />
<path d="M1271.2,448.3c-0.2,0.1,-0.3,0.4,-0.3,0.6c0,0.3,0.1,0.5,0.3,0.7c0.1,0.2,0.4,0.3,0.6,0.3c0.3,0,0.5,-0.1,0.7,-0.3c0.1,-0.2,0.2,-0.4,0.2,-0.7c0,-0.2,0,-0.5,-0.2,-0.6c-0.2,-0.2,-0.4,-0.3,-0.7,-0.3c-0.3,0,-0.5,0.1,-0.6,0.3Z" class="g16_10" />
<path d="M1284,444.4c0,-1.8,-0.7,-2.7,-2.2,-2.7c-0.9,0,-1.8,0.5,-2.6,1.4l0,-3.9l-1.2,0l0,10.5l1.2,0l0,-5.6c0.8,-0.9,1.6,-1.4,2.3,-1.4c0.5,0,0.8,0.2,1,0.5c0.3,0.3,0.4,0.8,0.4,1.5l0,5l1.1,0l0,-5.3Z" class="g16_10" />
<path d="M1293.1,448.4c-0.6,0.3,-1.3,0.5,-1.9,0.5c-0.4,0,-0.7,-0.2,-0.9,-0.4c-0.2,-0.3,-0.3,-0.7,-0.3,-1.1l0,-4.5l2.7,0l0,-1l-2.7,0l0,-2.1l-1.1,0l0,2.1l-1.5,0l0,1l1.5,0l0,4.8c0,1.4,0.7,2.2,2.1,2.2c0.7,0,1.5,-0.2,2.3,-0.6l-0.2,-0.9Z" class="g16_10" />
<path d="M1303,444.3c0,-1.7,-0.5,-2.6,-1.4,-2.6c-0.3,0,-0.6,0.2,-0.9,0.4c-0.3,0.3,-0.6,0.6,-0.8,1c-0.1,-0.4,-0.3,-0.7,-0.5,-1c-0.3,-0.2,-0.5,-0.4,-0.9,-0.4c-0.3,0,-0.6,0.2,-0.9,0.4c-0.3,0.3,-0.5,0.6,-0.7,1l0,-1.2l-1.2,0l0,7.8l1.2,0l0,-5.6c0,-0.1,0.1,-0.3,0.4,-0.7c0.3,-0.4,0.6,-0.7,0.8,-0.7c0.5,0,0.7,0.7,0.7,1.9l0,5.1l1.1,0l0,-5.6c0,-0.1,0.2,-0.3,0.5,-0.7c0.2,-0.4,0.5,-0.7,0.7,-0.7c0.5,0,0.7,0.7,0.7,1.9l0,5.1l1.2,0l0,-5.4Z" class="g16_10" />
<path d="M1310.5,448.5l-2,0l0,-9l-3,0l0,1l2,0l0,9l3,0l0,-1Z" class="g16_10" />
<text 
x="1221" 
y="449" 
dx="0,0,0,0,0,0,0,0,0,0,0,0,0,0,0,0,-1.8,0,0,0,0,0,0,0,0" 
class="s3_10"
>songs.html"&gt;Our Songs&lt;/a&gt;</text>

<text 
x="975" 
y="471" 
dx="0,0,0,0,0,-0.9,0,0,0,0" 
class="s6_10"
>link text </text>

<text 
x="1140" 
y="471" 
dx="0,0,0,-1.8,0,0,0,0,0,0,0,0,0,0,0,0,0,0,0,0,0" 
class="s3_10"
>&lt;a href="songs.html"&gt;</text>

<path d="M1333.3,461.8c-0.6,0.9,-0.9,2.2,-0.9,4c0,1.8,0.3,3.2,0.9,4.1c0.6,0.9,1.5,1.4,2.7,1.4c1.2,0,2.1,-0.5,2.7,-1.4c0.6,-1,0.9,-2.3,0.9,-4.1c0,-1.8,-0.3,-3.1,-0.9,-4c-0.6,-1,-1.5,-1.4,-2.7,-1.4c-1.2,0,-2.1,0.4,-2.7,1.4Zm1,7.3c-0.4,-0.8,-0.6,-1.8,-0.6,-3.3c0,-1.4,0.2,-2.5,0.6,-3.2c0.4,-0.8,1,-1.2,1.7,-1.2c1.6,0,2.3,1.5,2.3,4.4c0,2.9,-0.7,4.4,-2.3,4.4c-0.7,0,-1.3,-0.4,-1.7,-1.1Z" class="g16_10" />
<path d="M1348.2,463.3l-1.2,0l0,5.6c-0.8,0.9,-1.5,1.4,-2.3,1.4c-0.5,0,-0.8,-0.2,-1,-0.5c-0.2,-0.4,-0.3,-0.9,-0.3,-1.5l0,-5l-1.2,0l0,5.3c0,1.8,0.7,2.7,2.2,2.7c0.9,0,1.8,-0.5,2.6,-1.4l0,1.2l1.2,0l0,-7.8Z" class="g16_10" />
<path d="M1355.8,463.1c-1,0,-1.8,0.6,-2.4,1.8l0,-1.6l-1.2,0l0,7.8l1.2,0l0,-5c0,-0.1,0.1,-0.3,0.4,-0.7c0.3,-0.3,0.6,-0.6,0.9,-0.8c0.3,-0.2,0.7,-0.3,1,-0.3c0.4,0,0.8,0.1,1.3,0.3l0.5,-1.1c-0.6,-0.2,-1.1,-0.4,-1.7,-0.4Z" class="g16_10" />
<path d="M1373.4,460.7c-0.7,-0.2,-1.4,-0.3,-2.1,-0.3c-1,0,-1.8,0.2,-2.4,0.7c-0.6,0.5,-0.9,1.2,-0.9,2c0,0.4,0,0.7,0.2,0.9c0.1,0.3,0.2,0.6,0.5,0.8c0.2,0.2,0.4,0.4,0.6,0.5c0.2,0.1,0.7,0.4,1.5,0.7c0.7,0.4,1.2,0.7,1.5,1c0.3,0.3,0.4,0.7,0.4,1.2c0,0.6,-0.2,1.1,-0.6,1.5c-0.4,0.4,-1,0.5,-1.7,0.5c-0.6,0,-1.3,-0.1,-2.1,-0.5l-0.2,1c0.6,0.4,1.4,0.6,2.3,0.6c1,0,1.8,-0.3,2.5,-0.9c0.7,-0.5,1,-1.3,1,-2.3c0,-0.5,-0.1,-0.8,-0.2,-1.2c-0.2,-0.3,-0.4,-0.6,-0.6,-0.8c-0.3,-0.3,-0.6,-0.5,-0.8,-0.6c-0.3,-0.1,-0.8,-0.4,-1.6,-0.7c-1,-0.5,-1.5,-1.1,-1.5,-1.7c0,-0.6,0.2,-1,0.6,-1.3c0.4,-0.3,0.9,-0.4,1.5,-0.4c0.6,0,1.2,0.1,1.8,0.3l0.3,-1Z" class="g16_10" />
<path d="M1377.5,464.2c-0.6,0.8,-1,1.8,-1,3c0,1.2,0.4,2.2,1,3c0.6,0.7,1.5,1.1,2.5,1.1c1.1,0,2,-0.4,2.6,-1.1c0.6,-0.8,0.9,-1.8,0.9,-3c0,-1.2,-0.3,-2.2,-0.9,-3c-0.6,-0.7,-1.5,-1.1,-2.6,-1.1c-1,0,-1.9,0.4,-2.5,1.1Zm0.9,5.2c-0.4,-0.6,-0.6,-1.3,-0.6,-2.2c0,-0.9,0.2,-1.6,0.6,-2.2c0.4,-0.6,0.9,-0.9,1.6,-0.9c0.8,0,1.3,0.3,1.7,0.9c0.4,0.6,0.6,1.3,0.6,2.2c0,0.9,-0.2,1.6,-0.6,2.2c-0.4,0.6,-1,0.9,-1.7,0.9c-0.7,0,-1.2,-0.3,-1.6,-0.9Z" class="g16_10" />
<path d="M1392.2,465.8c0,-1.8,-0.7,-2.7,-2.2,-2.7c-0.9,0,-1.8,0.5,-2.6,1.4l0,-1.2l-1.2,0l0,7.8l1.2,0l0,-5.6c0.8,-0.9,1.6,-1.4,2.3,-1.4c0.5,0,0.8,0.2,1,0.5c0.2,0.3,0.4,0.8,0.4,1.5l0,5l1.1,0l0,-5.3Z" class="g16_10" />
<path d="M1398,468.2c0.8,0,1.4,-0.3,1.9,-0.8c0.5,-0.4,0.7,-1,0.7,-1.8c0,-0.5,-0.1,-0.9,-0.3,-1.3l1.5,0l0,-1.2l-2.3,0.4c-0.5,-0.2,-1,-0.4,-1.5,-0.4c-0.7,0,-1.4,0.3,-1.9,0.7c-0.5,0.5,-0.7,1.1,-0.7,1.8c0,0.5,0.1,0.9,0.3,1.3c0.3,0.4,0.6,0.8,1,1c-0.9,0.5,-1.4,1,-1.4,1.5c0,0.5,0.4,0.9,1.1,1.2c-0.9,0.5,-1.3,1,-1.3,1.6c0,0.6,0.3,1.1,0.8,1.4c0.6,0.4,1.3,0.6,2.2,0.6c1,0,1.9,-0.3,2.7,-0.8c0.8,-0.5,1.2,-1.2,1.2,-2.1c0,-0.6,-0.2,-1,-0.5,-1.3c-0.4,-0.3,-0.9,-0.5,-1.5,-0.5l-2.6,0.1c-0.3,0,-0.5,0,-0.7,-0.1c-0.2,-0.1,-0.2,-0.3,-0.2,-0.4c0,-0.3,0.3,-0.6,1.1,-0.9c0.1,0,0.2,0,0.4,0Zm-1,-1.4c-0.3,-0.3,-0.5,-0.7,-0.5,-1.1c0,-0.5,0.2,-0.9,0.5,-1.2c0.2,-0.3,0.6,-0.4,1,-0.4c0.5,0,0.8,0.1,1.1,0.4c0.2,0.3,0.4,0.7,0.4,1.2c0,0.4,-0.2,0.8,-0.4,1.1c-0.3,0.3,-0.7,0.5,-1.1,0.5c-0.4,0,-0.8,-0.2,-1,-0.5Zm-0.3,6.1c-0.3,-0.2,-0.5,-0.4,-0.5,-0.7c0,-0.2,0.1,-0.4,0.2,-0.6c0.1,-0.2,0.3,-0.4,0.5,-0.6c0.3,-0.1,0.4,-0.2,0.5,-0.2c0.3,0,0.6,0,1,-0.1c0.6,0,1,0,1.3,0c0.7,0,1.1,0.3,1.1,0.8c0,0.5,-0.2,0.9,-0.8,1.2c-0.5,0.4,-1.2,0.6,-1.9,0.6c-0.6,0,-1,-0.2,-1.4,-0.4Z" class="g16_10" />
<path d="M1410,463.4c-0.8,-0.2,-1.5,-0.3,-2.1,-0.3c-1,0,-1.7,0.2,-2.3,0.6c-0.6,0.4,-0.9,0.9,-0.9,1.6c0,0.3,0.1,0.6,0.2,0.8c0.1,0.3,0.3,0.5,0.5,0.7c0.3,0.2,0.6,0.3,0.8,0.4c0.3,0.1,0.8,0.2,1.4,0.4c0.7,0.2,1.2,0.5,1.4,0.7c0.2,0.2,0.3,0.4,0.3,0.7c0,0.4,-0.2,0.7,-0.6,0.9c-0.4,0.3,-1,0.4,-1.6,0.4c-0.7,0,-1.4,-0.1,-2.1,-0.5l-0.2,1.1c0.6,0.2,1.4,0.4,2.3,0.4c1,0,1.8,-0.2,2.4,-0.7c0.6,-0.4,1,-1,1,-1.7c0,-0.4,-0.1,-0.7,-0.3,-1c-0.2,-0.3,-0.4,-0.5,-0.7,-0.7c-0.3,-0.2,-0.8,-0.4,-1.3,-0.6l-1.1,-0.3c-0.5,-0.1,-0.8,-0.3,-1,-0.4c-0.2,-0.2,-0.3,-0.4,-0.3,-0.6c0,-0.4,0.2,-0.7,0.6,-0.9c0.4,-0.2,0.9,-0.3,1.5,-0.3c0.6,0,1.2,0.1,1.8,0.3l0.3,-1Z" class="g16_10" />
<text 
x="1331" 
y="471" 
dx="0,0,0,0,-1.8,0,0,0,0,0,0,0,0" 
class="s3_10"
>Our Songs&lt;/a&gt;</text>

<text 
x="975" 
y="503" 
dx="0,0,0,0,0,0,0,1.3,0,0,0,1.3,0,0,0" 
class="s1_10"
>Notice how the </text>

<path d="M1093.5,497.8c0,-1.7,-0.7,-2.6,-2.2,-2.6c-0.9,0,-1.8,0.5,-2.6,1.3l0,-3.9l-1.2,0l0,10.6l1.2,0l0,-5.7c0.8,-0.8,1.6,-1.3,2.3,-1.3c0.4,0,0.8,0.2,1,0.5c0.2,0.3,0.3,0.8,0.3,1.5l0,5l1.2,0l0,-5.4Z" class="g16_10" />
<path d="M1101.1,495.2c-1,0,-1.8,0.6,-2.4,1.8l0,-1.6l-1.2,0l0,7.8l1.2,0l0,-5.1c0,0,0.1,-0.2,0.4,-0.6c0.3,-0.3,0.6,-0.6,0.9,-0.8c0.3,-0.2,0.7,-0.3,1,-0.3c0.4,0,0.8,0.1,1.3,0.3l0.5,-1.1c-0.6,-0.3,-1.1,-0.4,-1.7,-0.4Z" class="g16_10" />
<path d="M1112.1,499c0,-1.2,-0.3,-2.1,-0.9,-2.8c-0.6,-0.7,-1.4,-1,-2.3,-1c-1,0,-1.8,0.4,-2.4,1.1c-0.7,0.7,-1,1.7,-1,3c0,1.2,0.4,2.2,1.1,3c0.7,0.7,1.6,1.1,2.8,1.1c0.9,0,1.7,-0.2,2.4,-0.5l-0.2,-0.9c-0.8,0.2,-1.5,0.4,-2.2,0.4c-0.8,0,-1.4,-0.3,-1.9,-0.9c-0.5,-0.6,-0.8,-1.3,-0.8,-2.2l5.4,0l0,-0.3Zm-5.3,-0.6c0.1,-0.7,0.3,-1.2,0.7,-1.6c0.4,-0.4,0.9,-0.6,1.5,-0.6c0.4,0,0.9,0.2,1.2,0.6c0.4,0.5,0.6,1,0.6,1.6l-4,0Z" class="g16_10" />
<path d="M1119.3,492.5c-0.8,0,-1.4,0.2,-1.8,0.6c-0.3,0.4,-0.5,1,-0.5,2l0,0.3l-1.9,0l0,1l1.9,0l0,6.8l1.2,0l0,-6.8l2.6,0l0,-1l-2.6,0l0,-0.1c0,-0.8,0.1,-1.2,0.2,-1.5c0.2,-0.2,0.5,-0.3,0.9,-0.3c0.4,0,0.9,0,1.5,0.2l0.3,-0.9c-0.7,-0.2,-1.3,-0.3,-1.8,-0.3Z" class="g16_10" />
<text 
x="1085" 
y="503" 
dx="0,0,0,0" 
class="s3_10"
>href</text>

<text 
x="1128" 
y="503" 
dx="0,0,0,0,0,0,0,0,0,0,1.3,0,0,0,0,1.3,0,0,0,0,0,1.3,0,0,0,0,0,1.3,0,-0.3,0,0,0,0,1.3,0,0,0,1.3,0,0,0,0,0,0,0,0,1.3,0,0,0,1.3,0,0,0,1.3,0,0,1.3,0,0,0,0,0" 
class="s1_10"
>attribute puts quote marks around the filename and how it comes </text>

<text 
x="975" 
y="524" 
dx="0,0,0,0,0,0,0,-0.9,0,0,0" 
class="s1_10"
>inside the </text>

<path d="M1052.1,522.8l0,-3.4c0,-1.9,-0.9,-2.8,-2.6,-2.8c-0.9,0,-1.9,0.3,-3,0.8l0.3,0.8c0.3,-0.1,0.7,-0.3,1.2,-0.4c0.4,-0.1,0.8,-0.2,1.1,-0.2c1.2,0,1.9,0.7,1.9,2l0,0.4l-1.3,0.1c-0.6,0,-1.1,0.1,-1.6,0.2c-0.4,0.1,-0.8,0.3,-1.1,0.5c-0.3,0.2,-0.5,0.4,-0.6,0.7c-0.2,0.3,-0.3,0.7,-0.3,1.1c0,0.6,0.3,1.1,0.7,1.5c0.4,0.5,0.9,0.7,1.5,0.7c1.2,0,2.1,-0.5,2.7,-1.5c0,0.5,0.1,0.9,0.2,1.3l1.1,0c-0.1,-0.6,-0.2,-1.2,-0.2,-1.8Zm-2.2,0.5c-0.4,0.2,-0.8,0.3,-1.2,0.3c-0.4,0,-0.7,-0.1,-1,-0.3c-0.2,-0.2,-0.3,-0.5,-0.3,-0.8c0,-0.4,0.1,-0.7,0.4,-0.9c0.3,-0.3,0.6,-0.4,1,-0.5c0.4,-0.1,1.1,-0.2,2.2,-0.3l0,1.5c-0.3,0.4,-0.7,0.7,-1.1,1Z" class="g16_10" />
<text 
x="1044" 
y="524" 
dx="0" 
class="s3_10"
>a</text>

<text 
x="1057" 
y="524" 
dx="0,0,0,0,0.3,0,-0.9,0,0,0" 
class="s1_10"
>start tag.</text>

<text 
x="971" 
y="310" 
dx="0,-2.1,-2.1,-2.9,-1.8,0,0,-2.6,-2.1" 
class="s5_10"
>NINJA TIP</text>

<text 
x="975" 
y="631" 
dx="0,0,0,0,0,-0.2,0,0,-0.3,0,0,-0.2,0,0,0,0,0,-0.2,0,0,0,0,0,-0.2,0,-0.3,0,0,-0.2,0,0,0,-0.2,0,0,0,0,-0.2,0,0,0,0,-0.2,0,0,-0.2,0,0,-0.2,0,0,-0.2,0,0,0,-0.2,0,0,0,0,-0.2,0,0,0,-0.2,0,0,0,-0.2,0,0,0,0,-0.2,0,0,0,-0.2,0,0,0,-0.2,0,0,0,0,0" 
class="s1_10"
>Make three other pages from the site map. Do it in the same way you made the Our Songs </text>

<text 
x="975" 
y="652" 
dx="0,0,0,0,0,0.2,0,0.2,0,0,0,0,0.2,0,0,0.2,0,0,0,0,0,0,0,0,0.2,0,0,0,0,0.2,0,0,0,0,0.2,0,0.2,0,0,0,0.2,0,0,0,0,0.2,0,0,0,0.2,0,0,0,0,0.2,0,0,0,0,0,0,0.2,0,0,0,0.2,0,0,0,0,0,0,0,0.2,0,0,0.2,0,0,0,0.2,0,0,0,0,0" 
class="s1_10"
>page – save an existing page with a new name and then change the content of the page. </text>

<text 
x="975" 
y="674" 
dx="0,0,0,0,0,-0.9,0,0,0,0,0,0,-0.9,0,0,0,0,-0.9,0,0,0,-0.9,0,0,0,0,0,-0.9,0,0,0,-0.9,0,0,0,0,0,-0.9,0,0,-0.9,0,0,0,-0.9,0,0,0,-0.9,0,0,0,0,0,-0.9,0,-0.3,0,0,-0.9,0,0,0,-0.9,0,0,0,0,-0.9,0,0,0,0" 
class="s1_10"
>When you’ve made the page, add links to the new pages from the home page.</text>

<text 
x="975" 
y="695" 
dx="0,0,0,0,0,-0.9,0,0,0,0,0,0,0,0,0,0,0,-0.9,0,0,0,0,0,-0.9,0,0,0,-0.9,0,0,0,0,0,-0.9,0,0,0,0,0,0,0,0,0" 
class="s1_10"
>Some suggestions (your own ideas welcome!):</text>

<text 
x="971" 
y="588" 
dx="0,-2.2,-2.1,-2.1,-1.8,-2.5,0,0,-2.2,0,0,-1.8,0,0,-1.7,-2.8,-2.4" 
class="s5_10"
>Things to do next</text>

<text 
x="976" 
y="973" 
dx="0,0,0,0,0,0,0,-0.9,0,0,0,0,0,-0.9,0,0,-0.9,0,0,0,0,0,-0.9,0,-0.9,0,0,0,0,0,0,0,0,0,0,0,0,0,0,0,0,0,0,0,0,0,0,0,0" 
class="s1_10"
>Adding links to pages – http://nano.tips/addlinks</text>

<text 
x="972" 
y="930" 
dx="0,-1.7,-1.7,-1.9,0,0,-1.7,-1.6,-3.2,-2.1,-1.7" 
class="s5_10"
>more online</text>

<text 
x="56" 
y="150" 
dx="0,-1.8,-1.8,-2.7,-2.1,-1.8,0,0,-2.2,-1.7,0,0,-1.7,-1.7,-1.7,0,0,-2.5,-1.8,-2.1" 
class="s5_10"
>making the home page</text>

<path d="M47,54l0,4l-4,0l0,59l732,0l0,-4l4,0l0,-55l-4,0l0,-4Z" class="g17_10" />
<text 
x="64" 
y="102" 
dx="0,0,-3.6,-4.5,-4.1,-3.6,-4.9,-4.1,-3.6,0,0,-5.2,0,0,-3.3,-5.6,0,0,-4.4,-3.6,-4.2,-6.3,-4.4,-3.4,-5.3,0,0" 
class="s7_10"
>&lt;Bringing it all together &gt;</text>

<text 
x="976" 
y="759" 
dx="0,0,0,0,0,0,0,0,0,-0.9,0,0,0,0,0,0,0,0,0,0" 
class="s1_10"
>Choosing Instruments</text>

<text 
x="976" 
y="781" 
dx="0,0,0,0,0,0,0,0,-0.9,0,0,0,0,0,-0.9,-1.7,0,0,0,0,0,0" 
class="s1_10"
>Playing Songs Together</text>

<text 
x="976" 
y="802" 
dx="0,-1.4,0,0,0,0,0,-0.9,0" 
class="s1_10"
>Tuning Up</text>

<text 
x="976" 
y="824" 
dx="0,0,0,0,0,0,0,0,-0.9,0,-0.9,0,0,0,0,0,0.3" 
class="s1_10"
>Playing a Concert</text>

<text 
x="976" 
y="845" 
dx="0,0,0,0,0,0,0,0,0,0,0,0,0" 
class="s1_10"
>Amplification</text>

<text 
x="976" 
y="866" 
dx="0,0,0,0,0,0,0,0,-0.9,0,0,0,0,0,0,0,-0.3,0,-0.9,0,0,-0.9,0,0,0,0,0,0,0,0" 
class="s1_10"
>Finding Somewhere to Practice </text>

<text 
x="1337" 
y="759" 
dx="0,0,0,0,0,0,0,0,0,0,0,0,0,0,0,0,0,0,0,0,0,0,0,0,0" 
class="s3_10"
>choosing-instruments.html</text>

<text 
x="1337" 
y="781" 
dx="0,0,0,0,0,0,0,0,0,0,0,0,0,0,0,0,0,0,0,0,0,0,0,0,0,0,0" 
class="s3_10"
>playing-songs-together.html</text>

<text 
x="1337" 
y="802" 
dx="0,0,0,0,0,0,0,0,0,0,0,0,0,0" 
class="s3_10"
>tuning-up.html</text>

<text 
x="1337" 
y="824" 
dx="0,0,0,0,0,0,0,0,0,0,0,0,0,0,0,0,0,0,0,0,0,0" 
class="s3_10"
>playing-a-concert.html</text>

<text 
x="1337" 
y="845" 
dx="0,0,0,0,0,0,0,0,0,0,0,0,0,0,0,0,0,0" 
class="s3_10"
>amplification.html</text>

<text 
x="1337" 
y="866" 
dx="0,0,0,0,0,0,0,0,0,0,0,0,0,0,0,0,0,0,0,0,0,0,0,0,0,0" 
class="s3_10"
>somewhere-to-practice.html</text>

<path d="M1324.5,755.5l-191,0" class="g18_10" />
<path d="M1325.4,753.9l0,-1.3c0,-0.2,0,-0.4,-0.1,-0.5c-0.2,-0.1,-0.3,-0.2,-0.5,-0.2l-1.4,0l0,-1.3c0,-0.2,0,-0.4,-0.1,-0.5c-0.2,-0.1,-0.3,-0.2,-0.5,-0.2l-1.4,0l0,-1.2c0,-0.2,0,-0.3,-0.1,-0.5c-0.2,-0.1,-0.3,-0.1,-0.5,-0.1l-1.9,0c-0.2,0,-0.3,0,-0.5,0.1c-0.1,0.2,-0.1,0.3,-0.1,0.5l0,1.9c0,0.2,0,0.3,0.1,0.4c0.2,0.2,0.3,0.2,0.5,0.2l1.2,0l0,1.4c0,0.2,0.1,0.3,0.2,0.4c0.2,0.2,0.3,0.2,0.5,0.2l1.3,0l0,1.4c0,0.2,0.1,0.3,0.2,0.5c0.2,0.1,0.3,0.1,0.5,0.1l1.3,0l0,0.9l-1.2,0c-0.2,0,-0.3,0.1,-0.5,0.2c-0.1,0.1,-0.1,0.3,-0.1,0.4l0,1.4l-1.4,0c-0.2,0,-0.3,0.1,-0.4,0.2c-0.2,0.1,-0.2,0.3,-0.2,0.4l0,1.4l-1.4,0c-0.2,0,-0.3,0.1,-0.5,0.2c-0.1,0.1,-0.1,0.3,-0.1,0.5l0,1.7c0,0.2,0,0.3,0.1,0.5c0.2,0.1,0.3,0.2,0.5,0.2l1.7,0c0.2,0,0.4,-0.1,0.5,-0.2c0.1,-0.2,0.2,-0.3,0.2,-0.5l0,-1.3l1.4,0c0.1,0,0.3,-0.1,0.4,-0.2c0.2,-0.2,0.2,-0.3,0.2,-0.5l0,-1.4l1.4,0c0.2,0,0.3,0,0.4,-0.2c0.2,-0.1,0.2,-0.2,0.2,-0.4l0,-1.4l1.4,0c0.2,0,0.3,0,0.5,-0.2c0.1,-0.1,0.1,-0.2,0.1,-0.4l0,-1.9c0,-0.2,0,-0.3,-0.1,-0.5c-0.2,-0.1,-0.3,-0.2,-0.5,-0.2Z" class="g17_10" />
<path d="M1324.5,776.5l-181,0" class="g18_10" />
<path d="M1325.4,775.2l0,-1.4c0,-0.2,0,-0.3,-0.1,-0.5c-0.2,-0.1,-0.3,-0.1,-0.5,-0.1l-1.4,0l0,-1.4c0,-0.2,0,-0.3,-0.1,-0.5c-0.2,-0.1,-0.3,-0.2,-0.5,-0.2l-1.4,0l0,-1.2c0,-0.2,0,-0.3,-0.1,-0.4c-0.2,-0.2,-0.3,-0.2,-0.5,-0.2l-1.9,0c-0.2,0,-0.3,0,-0.5,0.2c-0.1,0.1,-0.1,0.2,-0.1,0.4l0,1.9c0,0.2,0,0.3,0.1,0.5c0.2,0.1,0.3,0.2,0.5,0.2l1.2,0l0,1.3c0,0.2,0.1,0.3,0.2,0.5c0.2,0.1,0.3,0.2,0.5,0.2l1.3,0l0,1.3c0,0.2,0.1,0.4,0.2,0.5c0.2,0.1,0.3,0.2,0.5,0.2l1.3,0l0,0.8l-1.2,0c-0.2,0,-0.3,0.1,-0.5,0.2c-0.1,0.1,-0.1,0.3,-0.1,0.5l0,1.3l-1.4,0c-0.2,0,-0.3,0.1,-0.4,0.2c-0.2,0.1,-0.2,0.3,-0.2,0.5l0,1.3l-1.4,0c-0.2,0,-0.3,0.1,-0.5,0.2c-0.1,0.1,-0.1,0.3,-0.1,0.5l0,1.7c0,0.2,0,0.4,0.1,0.5c0.2,0.1,0.3,0.2,0.5,0.2l1.7,0c0.2,0,0.4,-0.1,0.5,-0.2c0.1,-0.1,0.2,-0.3,0.2,-0.5l0,-1.3l1.4,0c0.1,0,0.3,-0.1,0.4,-0.2c0.2,-0.1,0.2,-0.3,0.2,-0.5l0,-1.4l1.4,0c0.2,0,0.3,0,0.4,-0.1c0.2,-0.2,0.2,-0.3,0.2,-0.5l0,-1.3l1.4,0c0.2,0,0.3,-0.1,0.5,-0.2c0.1,-0.2,0.1,-0.3,0.1,-0.5l0,-1.9c0,-0.2,0,-0.3,-0.1,-0.4c-0.2,-0.2,-0.3,-0.2,-0.5,-0.2Z" class="g17_10" />
<path d="M1324.5,798.5l-271,0" class="g18_10" />
<path d="M1325.4,796.4l0,-1.4c0,-0.2,0,-0.3,-0.1,-0.4c-0.2,-0.2,-0.3,-0.2,-0.5,-0.2l-1.4,0l0,-1.4c0,-0.2,0,-0.3,-0.1,-0.4c-0.2,-0.2,-0.3,-0.2,-0.5,-0.2l-1.4,0l0,-1.3c0,-0.1,0,-0.3,-0.1,-0.4c-0.2,-0.1,-0.3,-0.2,-0.5,-0.2l-1.9,0c-0.2,0,-0.3,0.1,-0.5,0.2c-0.1,0.1,-0.1,0.3,-0.1,0.4l0,1.9c0,0.2,0,0.4,0.1,0.5c0.2,0.1,0.3,0.2,0.5,0.2l1.2,0l0,1.3c0,0.2,0.1,0.4,0.2,0.5c0.2,0.1,0.3,0.2,0.5,0.2l1.3,0l0,1.3c0,0.2,0.1,0.4,0.2,0.5c0.2,0.1,0.3,0.2,0.5,0.2l1.3,0l0,0.8l-1.2,0c-0.2,0,-0.3,0.1,-0.5,0.2c-0.1,0.1,-0.1,0.3,-0.1,0.5l0,1.3l-1.4,0c-0.2,0,-0.3,0.1,-0.4,0.2c-0.2,0.2,-0.2,0.3,-0.2,0.5l0,1.3l-1.4,0c-0.2,0,-0.3,0.1,-0.5,0.2c-0.1,0.2,-0.1,0.3,-0.1,0.5l0,1.8c0,0.1,0,0.3,0.1,0.4c0.2,0.1,0.3,0.2,0.5,0.2l1.7,0c0.2,0,0.4,-0.1,0.5,-0.2c0.1,-0.1,0.2,-0.3,0.2,-0.4l0,-1.4l1.4,0c0.1,0,0.3,-0.1,0.4,-0.2c0.2,-0.1,0.2,-0.3,0.2,-0.4l0,-1.4l1.4,0c0.2,0,0.3,-0.1,0.4,-0.2c0.2,-0.1,0.2,-0.3,0.2,-0.5l0,-1.3l1.4,0c0.2,0,0.3,-0.1,0.5,-0.2c0.1,-0.2,0.1,-0.3,0.1,-0.5l0,-1.9c0,-0.1,0,-0.3,-0.1,-0.4c-0.2,-0.2,-0.3,-0.2,-0.5,-0.2Z" class="g17_10" />
<path d="M1324.5,819.5l-224,0" class="g18_10" />
<path d="M1325.6,817.6l0,-1.3c0,-0.2,0,-0.4,-0.1,-0.5c-0.2,-0.1,-0.3,-0.2,-0.5,-0.2l-1.2,0l0,-1.3c0,-0.2,0,-0.4,-0.2,-0.5c-0.1,-0.2,-0.2,-0.2,-0.4,-0.2l-1.2,0l0,-1.2c0,-0.2,0,-0.4,-0.2,-0.5c-0.1,-0.1,-0.2,-0.2,-0.4,-0.2l-1.7,0c-0.2,0,-0.3,0.1,-0.4,0.2c-0.1,0.1,-0.2,0.3,-0.2,0.5l0,1.9c0,0.1,0.1,0.3,0.2,0.4c0.1,0.1,0.2,0.2,0.4,0.2l1.1,0l0,1.4c0,0.1,0.1,0.3,0.2,0.4c0.1,0.1,0.3,0.2,0.4,0.2l1.2,0l0,1.4c0,0.1,0.1,0.3,0.2,0.4c0.1,0.1,0.3,0.2,0.4,0.2l1.3,0l0,0.9l-1.2,0c-0.1,0,-0.3,0,-0.4,0.1c-0.1,0.2,-0.2,0.3,-0.2,0.5l0,1.3l-1.2,0c-0.1,0,-0.3,0.1,-0.4,0.2c-0.1,0.2,-0.2,0.3,-0.2,0.5l0,1.3l-1.2,0c-0.2,0,-0.3,0.1,-0.4,0.2c-0.1,0.2,-0.2,0.3,-0.2,0.5l0,1.8c0,0.2,0.1,0.3,0.2,0.4c0.1,0.2,0.2,0.2,0.4,0.2l1.6,0c0.2,0,0.3,0,0.4,-0.2c0.1,-0.1,0.2,-0.2,0.2,-0.4l0,-1.4l1.2,0c0.2,0,0.3,0,0.4,-0.2c0.1,-0.1,0.2,-0.2,0.2,-0.4l0,-1.4l1.2,0c0.2,0,0.3,-0.1,0.5,-0.2c0.1,-0.1,0.1,-0.3,0.1,-0.5l0,-1.3l1.2,0c0.2,0,0.4,-0.1,0.5,-0.2c0.1,-0.1,0.1,-0.3,0.1,-0.5l0,-1.8c0,-0.2,0,-0.4,-0.1,-0.5c-0.1,-0.1,-0.3,-0.2,-0.5,-0.2Z" class="g17_10" />
<path d="M1324.5,840.5l-251,0" class="g18_10" />
<path d="M1325.4,838.8l0,-1.3c0,-0.2,0,-0.4,-0.1,-0.5c-0.2,-0.1,-0.3,-0.2,-0.5,-0.2l-1.4,0l0,-1.3c0,-0.2,0,-0.4,-0.1,-0.5c-0.2,-0.1,-0.3,-0.2,-0.5,-0.2l-1.4,0l0,-1.2c0,-0.2,0,-0.4,-0.1,-0.5c-0.2,-0.1,-0.3,-0.2,-0.5,-0.2l-1.9,0c-0.2,0,-0.3,0.1,-0.5,0.2c-0.1,0.1,-0.1,0.3,-0.1,0.5l0,1.9c0,0.1,0,0.3,0.1,0.4c0.2,0.2,0.3,0.2,0.5,0.2l1.2,0l0,1.4c0,0.1,0.1,0.3,0.2,0.4c0.2,0.2,0.3,0.2,0.5,0.2l1.3,0l0,1.4c0,0.2,0.1,0.3,0.2,0.4c0.2,0.2,0.3,0.2,0.5,0.2l1.3,0l0,0.9l-1.2,0c-0.2,0,-0.3,0,-0.5,0.2c-0.1,0.1,-0.1,0.2,-0.1,0.4l0,1.4l-1.4,0c-0.2,0,-0.3,0,-0.4,0.2c-0.2,0.1,-0.2,0.2,-0.2,0.4l0,1.4l-1.4,0c-0.2,0,-0.3,0,-0.5,0.2c-0.1,0.1,-0.1,0.3,-0.1,0.4l0,1.8c0,0.2,0,0.3,0.1,0.5c0.2,0.1,0.3,0.2,0.5,0.2l1.7,0c0.2,0,0.4,-0.1,0.5,-0.2c0.1,-0.2,0.2,-0.3,0.2,-0.5l0,-1.3l1.4,0c0.1,0,0.3,-0.1,0.4,-0.2c0.2,-0.2,0.2,-0.3,0.2,-0.5l0,-1.4l1.4,0c0.2,0,0.3,0,0.4,-0.2c0.2,-0.1,0.2,-0.3,0.2,-0.4l0,-1.4l1.4,0c0.2,0,0.3,-0.1,0.5,-0.2c0.1,-0.1,0.1,-0.3,0.1,-0.4l0,-1.9c0,-0.2,0,-0.4,-0.1,-0.5c-0.2,-0.1,-0.3,-0.2,-0.5,-0.2Z" class="g17_10" />
<path d="M1324.5,861.5l-127,0" class="g18_10" />
<path d="M1325.4,860l0,-1.3c0,-0.2,0,-0.4,-0.1,-0.5c-0.2,-0.1,-0.3,-0.2,-0.5,-0.2l-1.4,0l0,-1.3c0,-0.2,0,-0.4,-0.1,-0.5c-0.2,-0.1,-0.3,-0.2,-0.5,-0.2l-1.4,0l0,-1.2c0,-0.2,0,-0.3,-0.1,-0.5c-0.2,-0.1,-0.3,-0.1,-0.5,-0.1l-1.9,0c-0.2,0,-0.3,0,-0.5,0.1c-0.1,0.2,-0.1,0.3,-0.1,0.5l0,1.9c0,0.2,0,0.3,0.1,0.5c0.2,0.1,0.3,0.1,0.5,0.1l1.2,0l0,1.4c0,0.2,0.1,0.3,0.2,0.4c0.2,0.2,0.3,0.2,0.5,0.2l1.3,0l0,1.4c0,0.2,0.1,0.3,0.2,0.5c0.2,0.1,0.3,0.1,0.5,0.1l1.3,0l0,0.9l-1.2,0c-0.2,0,-0.3,0.1,-0.5,0.2c-0.1,0.1,-0.1,0.3,-0.1,0.4l0,1.4l-1.4,0c-0.2,0,-0.3,0.1,-0.4,0.2c-0.2,0.1,-0.2,0.3,-0.2,0.4l0,1.4l-1.4,0c-0.2,0,-0.3,0.1,-0.5,0.2c-0.1,0.1,-0.1,0.3,-0.1,0.5l0,1.7c0,0.2,0,0.3,0.1,0.5c0.2,0.1,0.3,0.2,0.5,0.2l1.7,0c0.2,0,0.4,-0.1,0.5,-0.2c0.1,-0.2,0.2,-0.3,0.2,-0.5l0,-1.3l1.4,0c0.1,0,0.3,-0.1,0.4,-0.2c0.2,-0.2,0.2,-0.3,0.2,-0.5l0,-1.4l1.4,0c0.2,0,0.3,0,0.4,-0.2c0.2,-0.1,0.2,-0.2,0.2,-0.4l0,-1.4l1.4,0c0.2,0,0.3,0,0.5,-0.2c0.1,-0.1,0.1,-0.2,0.1,-0.4l0,-1.9c0,-0.2,0,-0.3,-0.1,-0.5c-0.2,-0.1,-0.3,-0.2,-0.5,-0.2Z" class="g17_10" />
<path d="M1340,713l0,4l-5,0l0,13l5,0l0,4l251,0l0,-4l4,0l0,-13l-4,0l0,-4Z" class="g17_10" />
<text 
x="1350" 
y="729" 
dx="0,0,0,0,0,-0.9,0,0,0" 
class="s8_10"
>FILE NAME</text>

<path d="M973,713l0,4l-4,0l0,13l4,0l0,4l350,0l0,-4l4,0l0,-13l-4,0l0,-4Z" class="g17_10" />
<text 
x="983" 
y="729" 
dx="0,-1.5,-0.8,0,0,-0.9,0,0,0" 
class="s9_10"
>PAGE NAME</text>

<text 
x="1249" 
y="171" 
dx="0,-0.7,0,-1.1,0,0,0,-1.1,0,0,0,-1.1,0,0,0,0,0,0,0,0,0" 
class="s10_10"
>We are the Nanonauts!</text>

<path d="M1276.5,226.5l44,0" class="g19_10" />
<path d="M1276.5,247.5l51,0" class="g19_10" />
<path d="M1276.5,268.5l57,0" class="g19_10" />
<text 
x="1249" 
y="203" 
dx="0,0,0,0,0,-0.6,0,0,-0.6,0,0,0,-0.6,0,0,0,0,0,0,0,0,-0.6,0,0,0,0,0,-0.6,0,0,-0.6,0,-0.6,0,0,0,0,-0.6,0,0,-0.6,0,0,0,0,0,-0.6,0,-0.6,0,0,0,0" 
class="s11_10"
>This is our website. Click on a link to visit a page:</text>

<text 
x="1249" 
y="225" 
dx="0,0" 
class="s11_10"
>• </text>

<text 
x="1276" 
y="225" 
dx="0,0,0,0,0,0,-0.6,0" 
class="s11_10"
>About Us</text>

<text 
x="1249" 
y="246" 
dx="0,0" 
class="s11_10"
>• </text>

<text 
x="1276" 
y="246" 
dx="0,0,0,0,-0.6,0,0,0,0" 
class="s11_10"
>Our Songs</text>

<text 
x="1249" 
y="267" 
dx="0,0" 
class="s11_10"
>• </text>

<text 
x="1276" 
y="267" 
dx="0,0,0,0,-0.6,0,0,-0.6,0,0,0" 
class="s11_10"
>See Us Play</text>

<path d="M1410,106l4,0l0,-4l4,0l0,-4l4,0l0,-4l4,0l0,-4l-4,0l-4,0l-4,0l-4,0l-4,0l-4,0l-4,0l-4,0l-4,0l0,4l4,0l0,4l4,0l0,4l4,0l0,4l4,0l0,4l4,0Z" class="g17_10" />
<text 
x="1410" 
y="914" 
dx="0,-1.6,-1.8,-1.7,-1.9,0,0,-1.6,-1.5,-2.6,-1.6,-2.3,-2.1,-2.5" 
class="s12_10"
>Badge unlocked</text>

<path d="M1399.5,1010.5l2,0l2,0l0,3l0,2l192,0l0,-2l0,-3l3,0l2,0l0,-116l-2,0l-3,0l0,-2l0,-2l-192,0l0,2l0,2l-2,0l-2,0l0,116Z" class="g20_10" />
<path d="M1499.5,922.5l-102,0" class="g20_10" />
<path d="M1600,1010l-5,0l0,5l-94,0l0,-93l99,0Z" class="g17_10" />
<path d="M1600.5,1010.5l-5,0l0,5l-94,0l0,-93l99,0l0,88Z" class="g20_10" />
<path d="M1515,1002l72,0" class="g21_10" />
<path d="M1515,1006l72,0" class="g21_10" />
<text 
x="1515" 
y="952" 
dx="0,-1.9,-1.9,-1.9" 
class="s13_10"
>Home</text>

<text 
x="1514" 
y="974" 
dx="0,-1.9,-1.7,-2.6,-3.1" 
class="s14_10"
>sweet</text>

<text 
x="1515" 
y="996" 
dx="0,-1.8,-1.8,-1.8,0" 
class="s15_10"
>home!</text>

<text 
x="36" 
y="1019" 
dx="0,-1.3" 
class="s16_10"
>18</text>



<!-- Any embedded fonts defined here -->
<style type="text/css" ><![CDATA[

@font-face {
	font-family: PixelSplitter-Bold_8g;
	src: url("fonts/PixelSplitter-Bold_8g.woff") format("woff");
}

@font-face {
	font-family: AndaleMono_1cn;
	src: url("fonts/AndaleMono_1cn.woff") format("woff");
}

@font-face {
	font-family: Helvetica-LightOblique_1di;
	src: url("fonts/Helvetica-LightOblique_1di.woff") format("woff");
}

@font-face {
	font-family: Helvetica-Light_1by;
	src: url("fonts/Helvetica-Light_1by.woff") format("woff");
}

@font-face {
	font-family: Helvetica-Bold_84;
	src: url("fonts/Helvetica-Bold_84.woff") format("woff");
}

@font-face {
	font-family: PixelSplitter-Bold_7-;
	src: url("fonts/PixelSplitter-Bold_7-.woff") format("woff");
}

@font-face {
	font-family: PixelSplitter-Bold_1bs;
	src: url("fonts/PixelSplitter-Bold_1bs.woff") format("woff");
}

@font-face {
	font-family: Helvetica-Bold_8a;
	src: url("fonts/Helvetica-Bold_8a.woff") format("woff");
}

@font-face {
	font-family: Helvetica-Bold_1bu;
	src: url("fonts/Helvetica-Bold_1bu.woff") format("woff");
}

@font-face {
	font-family: Wingdings-Regular_1c4;
	src: url("fonts/Wingdings-Regular_1c4.woff") format("woff");
}

]]></style>

</svg>
