<?xml version="1.0" encoding="UTF-8" standalone="no"?>
<!DOCTYPE svg PUBLIC "-//W3C//DTD SVG 1.1//EN"
"http://www.w3.org/Graphics/SVG/1.1/DTD/svg11.dtd">


<!-- Page 11 -->
<svg x="0" y="0" width="1645" height="1061" viewBox="0 0 1645 1061" version="1.1" xmlns="http://www.w3.org/2000/svg" xmlns:xlink="http://www.w3.org/1999/xlink"
style="display: block;margin-left: auto;margin-right: auto;">
<defs>

<style type="text/css"><![CDATA[

.g14_11{
fill: none;
stroke: #11151D;
stroke-width: 1;
stroke-linecap: butt;
stroke-linejoin: miter;
stroke-miterlimit: 4;
}
.g5_11{
fill: #89BA6E;
}
.g6_11{
fill: #FFFFFF;
}
.g8_11{
fill: #92BDDD;
}
.g11_11{
fill: none;
stroke: #FFFFFF;
stroke-width: 3;
stroke-linecap: round;
stroke-linejoin: round;
stroke-miterlimit: 4;
}
.g16_11{
fill: none;
stroke: #11151D;
stroke-width: 4;
stroke-linecap: round;
stroke-linejoin: round;
stroke-miterlimit: 4;
}
.g7_11{
fill: #B3CBC8;
}
.g1_11{
fill: #FAAD60;
}
.g10_11{
fill: #989797;
}
.g15_11{
fill: #11151D;
}
.g2_11{
fill: #FFD400;
}
.g12_11{
fill: none;
stroke: #FFFFFF;
stroke-width: 1;
stroke-linecap: round;
stroke-linejoin: round;
}
.g13_11{
fill: none;
stroke: #FFFFFF;
stroke-width: 2;
stroke-linecap: round;
stroke-linejoin: round;
stroke-miterlimit: 4;
}
.g3_11{
fill: #F37A6D;
}
.g4_11{
fill: #7AB0D6;
}
.g9_11{
fill: none;
stroke: #989898;
stroke-width: 5;
stroke-linecap: butt;
stroke-linejoin: miter;
stroke-miterlimit: 4;
}

.s11_11{
font-size: 12.22px;
font-family: Helvetica-Bold_1bu;
fill: #11151D;
}
.s14_11{
font-size: 12.22px;
font-family: PixelSplitter-Bold_1bs;
fill: #11151D;
}
.s7_11{
font-size: 10.69px;
font-family: Helvetica_1e3;
fill: #11151D;
}
.s8_11{
font-size: 10.69px;
font-family: Helvetica_1dx;
fill: #11151D;
}
.s5_11{
font-size: 35.14px;
font-family: PixelSplitter-Bold_aa;
fill: #FFFFFF;
}
.s1_11{
font-size: 15.28px;
font-family: Helvetica-Light_1by;
fill: #11151D;
}
.s2_11{
font-size: 15.28px;
font-family: AndaleMono_1cn;
fill: #11151D;
}
.s3_11{
font-size: 15.28px;
font-family: Helvetica-Bold_1bu;
fill: #11151D;
}
.s12_11{
font-size: 9.17px;
font-family: Helvetica-Bold_1bu;
fill: #11151D;
}
.s13_11{
font-size: 9.17px;
font-family: Helvetica-Light_1by;
fill: #11151D;
}
.s10_11{
font-size: 9.17px;
font-family: Helvetica_1e3;
fill: #11151D;
}
.s9_11{
font-size: 9.17px;
font-family: Helvetica_1dx;
fill: #11151D;
}
.s6_11{
font-size: 19.86px;
font-family: Helvetica-Bold_1bu;
fill: #11151D;
}
.s4_11{
font-size: 16.81px;
font-family: Helvetica-Bold_1bu;
fill: #11151D;
}

]]></style>

</defs>
<path d="M0,0
L0,1061
L1645,1061
L1645,0 Z " 
fill="#FFFFFF" stroke="none" />
<image x="-33" y="-32" width="1713" height="1115" xlink:href="11/img/1.png" />
<image x="-13" y="-11" width="1674" height="1073" opacity="0.5" xlink:href="11/img/2.png" />
<image x="-33" y="417" width="1714" height="667" xlink:href="11/img/3.png" />
<path d="M47,54l0,4l-4,0l0,47l4,0l0,4l728,0l0,-4l4,0l0,-47l-4,0l0,-4Z" class="g1_11" />
<path d="M47,156l0,4l-4,0l0,160l4,0l0,4l160,0l0,-4l5,0l0,-160l-5,0l0,-4Z" class="g2_11" />
<path d="M236,156l0,4l-4,0l0,159l4,0l0,4l160,0l0,-4l5,0l0,-159l-5,0l0,-4Z" class="g3_11" />
<path d="M425,156l0,4l-4,0l0,159l4,0l0,4l161,0l0,-4l4,0l0,-159l-4,0l0,-4Z" class="g4_11" />
<path d="M614,156l0,4l-4,0l0,159l4,0l0,4l161,0l0,-4l4,0l0,-159l-4,0l0,-4Z" class="g5_11" />
<path d="M534,715l0,4l-4,0l0,244l4,0l0,5l241,0l0,-5l4,0l0,-244l-4,0l0,-4Z" class="g6_11" />
<path d="M550,793l0,4l-4,0l0,26l4,0l0,4l210,0l0,-4l4,0l0,-26l-4,0l0,-4Z" class="g7_11" />
<path d="M550,836l0,4l-4,0l0,26l4,0l0,4l210,0l0,-4l4,0l0,-26l-4,0l0,-4Z" class="g7_11" />
<path d="M550,878l0,5l-4,0l0,26l4,0l0,4l210,0l0,-4l4,0l0,-26l-4,0l0,-5Z" class="g7_11" />
<path d="M550,921l0,5l-4,0l0,25l4,0l0,5l210,0l0,-5l4,0l0,-25l-4,0l0,-5Z" class="g7_11" />
<path d="M1381,61l0,4l-4,0l0,29l4,0l0,5l198,0l0,-5l4,0l0,-29l-4,0l0,-4Z" class="g6_11" />
<path d="M1381,127l0,4l-4,0l0,49l4,0l0,4l198,0l0,-4l4,0l0,-49l-4,0l0,-4Z" class="g3_11" />
<path d="M1381,247l0,4l-4,0l0,67l4,0l0,4l198,0l0,-4l4,0l0,-67l-4,0l0,-4Z" class="g3_11" />
<path d="M1381,386l0,4l-4,0l0,67l4,0l0,4l198,0l0,-4l4,0l0,-67l-4,0l0,-4Z" class="g3_11" />
<path d="M1381,695l0,5l-4,0l0,201l4,0l0,4l198,0l0,-4l4,0l0,-201l-4,0l0,-5Z" class="g8_11" />
<path d="M1382,533l0,5l-4,0l0,71l4,0l0,4l198,0l0,-4l4,0l0,-71l-4,0l0,-5Z" class="g3_11" />
<path d="M873,120l0,2l0,2l-3,0l-2,0l0,575l2,0l3,0l0,3l0,2l443,0l0,-2l0,-3l2,0l2,0l0,-575l-2,0l-2,0l0,-2l0,-2Z" class="g6_11" />
<path d="M873.5,120.5l0,2l0,2l-3,0l-2,0l0,575l2,0l3,0l0,3l0,2l443,0l0,-2l0,-3l2,0l2,0l0,-575l-2,0l-2,0l0,-2l0,-2l-443,0Z" class="g9_11" />
<path d="M870,117l0,5l-4,0l0,33l456,0l0,-33l-4,0l0,-5Z" class="g10_11" />
<path d="M884.8,134c1.8,0,3.2,-1.5,3.2,-3.3c0,-1.7,-1.4,-3.2,-3.2,-3.2c-1.8,0,-3.2,1.5,-3.2,3.2c0,1.8,1.4,3.3,3.2,3.3Z" class="g6_11" />
<path d="M897.3,134c1.8,0,3.2,-1.5,3.2,-3.3c0,-1.7,-1.4,-3.2,-3.2,-3.2c-1.8,0,-3.2,1.5,-3.2,3.2c0,1.8,1.4,3.3,3.2,3.3Z" class="g6_11" />
<path d="M909.8,134c1.8,0,3.2,-1.5,3.2,-3.3c0,-1.7,-1.4,-3.2,-3.2,-3.2c-1.8,0,-3.2,1.5,-3.2,3.2c0,1.8,1.4,3.3,3.2,3.3Z" class="g6_11" />
<path d="M881.8,140.1c0,0,-2.2,0,-2.2,2.2l0,4.8c0,0,0,2.2,2.2,2.2l407.6,0c0,0,2.2,0,2.2,-2.2l0,-4.8c0,0,0,-2.2,-2.2,-2.2Z" class="g6_11" />
<path d="M885.5,141.3l-3,3.4l3,3.5" class="g11_11" />
<path d="M1312.5,140.7l0,4.1l-0.1,-0.1c-0.5,0,-1,-0.1,-1.5,-0.2c-0.7,-0.2,-1.5,-0.3,-2.2,-0.4c-0.1,-0.1,-0.2,-0.1,-0.4,-0.1c0.5,-0.4,1,-0.8,1.5,-1.2c-0.1,0,-0.1,0,-0.1,0c-0.6,-0.4,-1.4,-0.6,-2.1,-0.4c-0.8,0.2,-1.3,0.6,-1.7,1.2c-0.4,0.6,-0.6,1.3,-0.5,2c0.2,0.7,0.5,1.3,1,1.8c0.7,0.5,1.5,0.7,2.4,0.5c0.9,-0.2,1.5,-0.7,1.9,-1.5c0.1,0,0.1,-0.1,0.1,-0.1c0.5,0.1,1,0.3,1.5,0.4c-0.3,0.9,-0.8,1.6,-1.6,2.1c-0.7,0.5,-1.5,0.7,-2.3,0.8c-0.1,0,-0.1,0,-0.1,0l-0.2,0c0,0,-0.1,0,-0.1,0c-0.3,0,-0.6,-0.1,-0.9,-0.2c-0.9,-0.2,-1.6,-0.7,-2.2,-1.4c-0.6,-0.6,-1,-1.4,-1.1,-2.4c0,-0.1,0,-0.2,0,-0.3l0,-0.2c0,-0.1,0,-0.1,0,-0.1c0,-0.2,0,-0.4,0.1,-0.6c0.1,-0.8,0.5,-1.6,1.1,-2.2c0.7,-0.7,1.5,-1.2,2.4,-1.4c0.5,-0.1,1.1,-0.1,1.6,0c0.7,0.2,1.4,0.5,2,1c0,0,0.1,0,0.1,0c0.3,-0.3,0.6,-0.5,0.8,-0.7c0.2,-0.1,0.4,-0.3,0.6,-0.4Z" class="g6_11" />
<path d="M1312.5,140.7l0,4.1l-0.1,-0.1c-0.5,0,-1,-0.1,-1.5,-0.2c-0.7,-0.2,-1.5,-0.3,-2.2,-0.4c-0.1,-0.1,-0.2,-0.1,-0.4,-0.1c0.5,-0.4,1,-0.8,1.5,-1.2c-0.1,0,-0.1,0,-0.1,0c-0.6,-0.4,-1.4,-0.6,-2.1,-0.4c-0.8,0.2,-1.3,0.6,-1.7,1.2c-0.4,0.6,-0.6,1.3,-0.5,2c0.2,0.7,0.5,1.3,1,1.8c0.7,0.5,1.5,0.7,2.4,0.5c0.9,-0.2,1.5,-0.7,1.9,-1.5c0.1,0,0.1,-0.1,0.1,-0.1c0.5,0.1,1,0.3,1.5,0.4c-0.3,0.9,-0.8,1.6,-1.6,2.1c-0.7,0.5,-1.5,0.7,-2.3,0.8c-0.1,0,-0.1,0,-0.1,0l-0.2,0c0,0,-0.1,0,-0.1,0c-0.3,0,-0.6,-0.1,-0.9,-0.2c-0.9,-0.2,-1.6,-0.7,-2.2,-1.4c-0.6,-0.6,-1,-1.4,-1.1,-2.4c0,-0.1,0,-0.2,0,-0.3l0,-0.2c0,-0.1,0,-0.1,0,-0.1c0,-0.2,0,-0.4,0.1,-0.6c0.1,-0.8,0.5,-1.6,1.1,-2.2c0.7,-0.7,1.5,-1.2,2.4,-1.4c0.5,-0.1,1.1,-0.1,1.6,0c0.7,0.2,1.4,0.5,2,1c0,0,0.1,0,0.1,0c0.3,-0.3,0.6,-0.5,0.8,-0.7c0.2,-0.1,0.4,-0.3,0.6,-0.4Z" class="g12_11" />
<path d="M1303,128l9,0" class="g13_11" />
<path d="M1303,130l9,0" class="g13_11" />
<path d="M1303,132l9,0" class="g13_11" />
<path d="M875.6,141.3l-3,3.4l3,3.5" class="g11_11" />
<path d="M50,380l0,2l0,2l-3,0l-2,0l0,315l2,0l3,0l0,3l0,2l722,0l0,-2l0,-3l3,0l2,0l0,-315l-2,0l-3,0l0,-2l0,-2Z" class="g6_11" />
<path d="M50.5,380.5l0,2l0,2l-3,0l-2,0l0,315l2,0l3,0l0,3l0,2l722,0l0,-2l0,-3l3,0l2,0l0,-315l-2,0l-3,0l0,-2l0,-2l-722,0Z" class="g9_11" />
<path d="M47,378l0,4l-4,0l0,33l736,0l0,-33l-4,0l0,-4Z" class="g10_11" />
<path d="M61.9,394.3c1.8,0,3.3,-1.5,3.3,-3.3c0,-1.7,-1.5,-3.2,-3.3,-3.2c-1.7,0,-3.2,1.5,-3.2,3.2c0,1.8,1.5,3.3,3.2,3.3Z" class="g6_11" />
<path d="M74.4,394.3c1.8,0,3.3,-1.5,3.3,-3.3c0,-1.7,-1.5,-3.2,-3.3,-3.2c-1.7,0,-3.2,1.5,-3.2,3.2c0,1.8,1.5,3.3,3.2,3.3Z" class="g6_11" />
<path d="M86.9,394.3c1.8,0,3.3,-1.5,3.3,-3.3c0,-1.7,-1.5,-3.2,-3.3,-3.2c-1.7,0,-3.2,1.5,-3.2,3.2c0,1.8,1.5,3.3,3.2,3.3Z" class="g6_11" />
<path d="M58.9,400.4c0,0,-2.2,0,-2.2,2.2l0,4.8c0,0,0,2.2,2.2,2.2l686,0c0,0,2.1,0,2.1,-2.2l0,-4.8c0,0,0,-2.2,-2.1,-2.2Z" class="g6_11" />
<path d="M62.6,401.6l-3,3.4l3,3.5" class="g11_11" />
<path d="M767.3,400.6l0,4.1c0,0,-0.1,0,-0.1,0c-0.5,-0.1,-1,-0.2,-1.6,-0.3c-0.7,-0.2,-1.4,-0.3,-2.1,-0.4c-0.1,-0.1,-0.2,-0.1,-0.4,-0.1c0.5,-0.4,1,-0.8,1.4,-1.2c-0.7,-0.4,-1.4,-0.6,-2.2,-0.4c-0.7,0.2,-1.2,0.6,-1.6,1.2c-0.4,0.6,-0.6,1.3,-0.5,2.1c0.1,0.6,0.5,1.2,1,1.7c0.7,0.5,1.5,0.7,2.4,0.5c0.9,-0.1,1.5,-0.7,1.9,-1.5c0,0,0,-0.1,0.1,-0.1c0.5,0.1,1,0.3,1.5,0.4c-0.3,0.9,-0.8,1.6,-1.6,2.1c-0.7,0.5,-1.5,0.7,-2.3,0.8c-0.1,0,-0.1,0,-0.1,0l-0.2,0c-0.1,0,-0.1,0,-0.1,0c-0.3,0,-0.6,-0.1,-0.9,-0.2c-0.9,-0.2,-1.7,-0.7,-2.3,-1.3c-0.6,-0.7,-0.9,-1.5,-1,-2.5c0,-0.1,0,-0.2,0,-0.3l0,-0.2c0,-0.1,0,-0.1,0,-0.1c0,-0.2,0,-0.4,0,-0.6c0.2,-0.8,0.6,-1.6,1.2,-2.2c0.6,-0.7,1.4,-1.2,2.4,-1.3c0.5,-0.1,1.1,-0.1,1.6,0c0.7,0.1,1.4,0.4,2,0.9l0.1,0c0.3,-0.3,0.5,-0.5,0.8,-0.7c0.2,-0.1,0.4,-0.3,0.6,-0.4Z" class="g6_11" />
<path d="M767.3,400.6l0,4.1c0,0,-0.1,0,-0.1,0c-0.5,-0.1,-1,-0.2,-1.6,-0.3c-0.7,-0.2,-1.4,-0.3,-2.1,-0.4c-0.1,-0.1,-0.2,-0.1,-0.4,-0.1c0.5,-0.4,1,-0.8,1.4,-1.2c-0.7,-0.4,-1.4,-0.6,-2.2,-0.4c-0.7,0.2,-1.2,0.6,-1.6,1.2c-0.4,0.6,-0.6,1.3,-0.5,2.1c0.1,0.6,0.5,1.2,1,1.7c0.7,0.5,1.5,0.7,2.4,0.5c0.9,-0.1,1.5,-0.7,1.9,-1.5c0,0,0,-0.1,0.1,-0.1c0.5,0.1,1,0.3,1.5,0.4c-0.3,0.9,-0.8,1.6,-1.6,2.1c-0.7,0.5,-1.5,0.7,-2.3,0.8c-0.1,0,-0.1,0,-0.1,0l-0.2,0c-0.1,0,-0.1,0,-0.1,0c-0.3,0,-0.6,-0.1,-0.9,-0.2c-0.9,-0.2,-1.7,-0.7,-2.3,-1.3c-0.6,-0.7,-0.9,-1.5,-1,-2.5c0,-0.1,0,-0.2,0,-0.3l0,-0.2c0,-0.1,0,-0.1,0,-0.1c0,-0.2,0,-0.4,0,-0.6c0.2,-0.8,0.6,-1.6,1.2,-2.2c0.6,-0.7,1.4,-1.2,2.4,-1.3c0.5,-0.1,1.1,-0.1,1.6,0c0.7,0.1,1.4,0.4,2,0.9l0.1,0c0.3,-0.3,0.5,-0.5,0.8,-0.7c0.2,-0.1,0.4,-0.3,0.6,-0.4Z" class="g12_11" />
<path d="M758,388l9,0" class="g13_11" />
<path d="M758,390l9,0" class="g13_11" />
<path d="M758,392l9,0" class="g13_11" />
<path d="M52.5,401.6L49.6,405l2.9,3.5" class="g11_11" />
<image x="317" y="672" width="211" height="345" style="mix-blend-mode: multiply;" xlink:href="11/img/4.png" />
<image x="108" y="672" width="284" height="350" style="mix-blend-mode: multiply;" xlink:href="11/img/5.png" />
<image x="330" y="683" width="185" height="334" xlink:href="11/img/6.png" />
<image x="121" y="683" width="260" height="338" xlink:href="11/img/7.png" />
<image x="914" y="684" width="448" height="291" xlink:href="11/img/8.png" />
<image x="901" y="960" width="471" height="86" style="mix-blend-mode: multiply;" xlink:href="11/img/9.png" />
<text 
transform="matrix(0.98, 0, 0, 1, 56, 139)"
dx="0,0,0,0,-0.9,0,0,0,0,0,0,0,0,0,-0.9,0,0,0,-0.9,0,0,0,0,-0.9,0,0,-0.9,0,0,0,0,0,-0.9,0,0,0,-0.9,0,0,0,0,-0.9,0,0,-0.9,0,0,0,-0.9,0,0,-0.9,0,0,0,0,0,-0.9,0,0,0,0,0,0,0,0,-0.9,0,-0.9,0,0,0,0,0,0.3,0,0,-0.9,0,0,0,0" 
class="s1_11"
>The Nanonauts had lots of ideas for what to put on their 'Playing a Concert' page:</text>

<text 
x="51" 
y="353" 
dx="0,0,0,-0.9,0,0,0,0,0,-0.9,0,0,0,0,-0.9,0,0,0,-0.9,0,0,-0.9,0,0,0,0,-0.9,0,0,0,0,0,-0.9,0,0,0,0,-0.9,0,0,0,0,-0.9,0,0,0,0,-0.9,0,0,0,-0.9,0,0,0,0,-0.9,0,0,0,-0.9,0,0,-0.9,0,0,0,-0.9,0,0,0,0,-0.9,0,0,-0.9,0,0,0,0.3,0,0,0,-0.9,0,0,-0.9,0,0,0,0,-0.9,0,-0.9,0,0,0,0,0,0,-0.9,0,0,0,0,0,0,0,0,0" 
class="s1_11"
>In fact, they had so many ideas that when they put them all on the page it started to look a little confusing:</text>

<text 
x="543" 
y="738" 
dx="0,0,0,0,6.5,0,0,0,0,0,6.5,0,0,0,0,6.5,0,0,0,6.5,0,0,0,6.5,-0.3,0,0,0,0" 
class="s1_11"
>How could they fix it? We’ve </text>

<text 
x="543" 
y="759" 
dx="0,0,0,-0.3,0,0,0,0,-0.7,0,0,0,0,-0.7,0,0,0,0,0,-0.7,0,-0.7,0,0,0,-0.7,0,0,-0.3,0,0,-0.3,0,0,0" 
class="s1_11"
>already seen quite a few different </text>

<text 
x="543" 
y="781" 
dx="0,0,0,0,0,-0.9,0,0,0,0,0,0,0,0,0,-0.9,0,0,0,-0.9,0,0,0,0,0,0,0" 
class="s1_11"
>HTML elements. For example:</text>

<path d="M608.5,808c0,-1.8,-0.7,-2.7,-2.2,-2.7c-0.9,0,-1.8,0.5,-2.6,1.4l0,-3.9l-1.2,0l0,10.5l1.2,0l0,-5.6c0.8,-0.9,1.6,-1.3,2.3,-1.3c0.4,0,0.8,0.1,1,0.4c0.2,0.3,0.3,0.8,0.3,1.5l0,5l1.2,0l0,-5.3Z" class="g14_11" />
<path d="M617.7,812.2l-2.1,0l0,-9.5l-1.1,0l-2.2,1.2l0,1.2l2.1,-1l0,8.1l-2.3,0l0,1.1l5.6,0l0,-1.1Z" class="g14_11" />
<text 
x="600" 
y="813" 
dx="0,0" 
class="s2_11"
>h1</text>

<text 
x="622" 
y="813" 
dx="0,0,0,-0.9,0,-0.9,0,0,0,0,0,0" 
class="s1_11"
>is a heading</text>

<path d="M569,848.3l-1.1,0l0,5.6c-0.9,0.9,-1.6,1.4,-2.3,1.4c-0.5,0,-0.9,-0.2,-1.1,-0.5c-0.2,-0.4,-0.3,-0.9,-0.3,-1.5l0,-5l-1.2,0l0,5.3c0,1.8,0.8,2.7,2.2,2.7c0.9,0,1.8,-0.5,2.7,-1.4l0,1.2l1.1,0l0,-7.8Z" class="g14_11" />
<path d="M577.5,855.5l-2,0l0,-10l-3,0l0,1l2,0l0,10l3,0l0,-1Z" class="g14_11" />
<text 
x="561" 
y="856" 
dx="0,0" 
class="s2_11"
>ul</text>

<text 
x="583" 
y="856" 
dx="0,0,0,-0.9,0,-0.9,0,0,0,0,-0.9,0,0,0,0,-0.9,0,0,0,0,0,0,-0.9,0,0,0,0,0" 
class="s1_11"
>is a list with bullet points</text>

<path d="M584.8,892c-0.6,0.8,-0.9,1.7,-0.9,3c0,1.2,0.3,2.2,0.9,2.9c0.7,0.8,1.5,1.2,2.6,1.2c1.1,0,1.9,-0.4,2.5,-1.2c0.7,-0.7,1,-1.7,1,-2.9c0,-1.2,-0.3,-2.2,-1,-3c-0.6,-0.7,-1.4,-1.1,-2.5,-1.1c-1.1,0,-1.9,0.4,-2.6,1.1Zm0.9,5.2c-0.4,-0.6,-0.6,-1.4,-0.6,-2.2c0,-0.9,0.2,-1.7,0.6,-2.2c0.4,-0.6,1,-0.9,1.7,-0.9c0.7,0,1.3,0.3,1.7,0.9c0.4,0.6,0.6,1.3,0.6,2.2c0,0.8,-0.2,1.6,-0.6,2.2c-0.4,0.6,-1,0.8,-1.7,0.8c-0.7,0,-1.3,-0.2,-1.7,-0.8Z" class="g14_11" />
<path d="M599.5,897.5l-3,0l0,-9l-3,0l0,1l2,0l0,9l4,0l0,-1Z" class="g14_11" />
<text 
x="582" 
y="898" 
dx="0,0" 
class="s2_11"
>ol</text>

<text 
x="604" 
y="898" 
dx="0,0,0,-0.9,0,-0.9,0,0,0,0,0,-0.3,0,0,-0.9,0,0,0" 
class="s1_11"
>is a numbered list</text>

<path d="M600.2,933.9l-1.2,0l0,10.8l1.2,0l0,-4.2c0.3,0.4,0.6,0.7,1,1c0.4,0.2,0.9,0.3,1.4,0.3c0.9,0,1.6,-0.4,2.1,-1.1c0.6,-0.8,0.8,-1.8,0.8,-3c0,-1.2,-0.2,-2.2,-0.7,-2.9c-0.6,-0.7,-1.3,-1.1,-2.1,-1.1c-0.5,0,-1,0.1,-1.4,0.3c-0.5,0.2,-0.8,0.5,-1.1,0.9l0,-1Zm2.1,0.8c0.6,0,1.1,0.3,1.5,0.8c0.3,0.6,0.5,1.3,0.5,2.2c0,0.9,-0.2,1.6,-0.5,2.2c-0.4,0.6,-0.9,0.9,-1.5,0.9c-0.4,0,-0.8,-0.1,-1.2,-0.4c-0.4,-0.3,-0.7,-0.7,-0.9,-1.1l0,-3.3c0.6,-0.9,1.3,-1.3,2.1,-1.3Z" class="g14_11" />
<text 
x="597" 
y="941" 
dx="0" 
class="s2_11"
>p</text>

<text 
x="610" 
y="941" 
dx="0,0,0,-0.9,0,-0.9,0,0,0,0,0,0,0,0" 
class="s1_11"
>is a paragraph</text>

<text 
x="56" 
y="182" 
dx="0,-0.3,-1.7,-0.3,-0.3,6.2,-0.3,-0.3,-0.3,-0.3,6.2,-0.3,6.2,-0.3,-0.3,-0.3,-0.3,6.2,-0.3,0" 
class="s1_11"
>“You need a list of </text>

<text 
x="56" 
y="203" 
dx="0,-0.3,-0.3,-0.3,6.4,-0.3,-0.3,-0.3,-0.3,-0.3,6.4,-0.3,-0.3,-0.3,-0.3,-0.3,-0.3,6.4,-0.3,0" 
class="s1_11"
>the songs you’ll be </text>

<text 
x="56" 
y="225" 
dx="0,-0.3,-0.3,-0.3,-0.3,-0.3,-0.3,-0.3,-0.3,3.7,-0.3,-0.3,3.7,-0.3,-0.3,-0.3,-0.3,3.7,-0.3,-0.3,0" 
class="s1_11"
>playing, in case you </text>

<text 
x="56" 
y="246" 
dx="0,-0.3,-0.3,-0.3,-0.3,-0.3,-0.3" 
class="s1_11"
>forget </text>

<text 
x="111" 
y="246" 
dx="0,-0.3,-0.3,-0.3,-0.3" 
class="s1_11"
>what </text>

<text 
x="159" 
y="246" 
dx="0,-0.3,-0.3,-0.3,-0.3,-0.6,0" 
class="s1_11"
>you're </text>

<text 
x="56" 
y="267" 
dx="0,-0.3,-0.3,-0.3,-0.3,-0.3,-0.3,-0.3,-0.3,-1.1,-0.3,-0.3,-1.1,-0.3,-0.3,-1.1,-0.3,-0.3,-0.3,-0.3,0" 
class="s1_11"
>supposed to be doing </text>

<text 
x="56" 
y="289" 
dx="0,-0.3,-0.3,-0.3,-0.3,-0.3,-0.3,-1.2,-0.3,-0.3,-0.3,-0.3,-1.2,-0.3,-0.3,-0.3,-0.3,-1.7" 
class="s1_11"
>next!” said Holly.</text>

<text 
x="245" 
y="182" 
dx="0,0,0,0,0,-0.3,0,7.1,0,0,0,0,0,0,7.1,0,0,0,0,0" 
class="s1_11"
>“Don’t forget about </text>

<text 
x="245" 
y="203" 
dx="0,0,0,0,-0.1,0,0,0,-0.1,0,0,0,-0.3,0,-0.1,0,0,0,0,-0.1,0,0,0" 
class="s1_11"
>all the spare bits and </text>

<text 
x="245" 
y="225" 
dx="0,0,0,0,0,0,0,5.7,0,0,0,5.7,0,0,0,0,5.7,0" 
class="s1_11"
>pieces you need – </text>

<text 
x="245" 
y="246" 
dx="0,0,0,0,0,2.9,0,0,0,0,0,0,2.9,0,0,0,0,0,0,0,2.9,0,0" 
class="s1_11"
>like guitar strings or </text>

<text 
x="245" 
y="267" 
dx="0,0,0,0,0,0,0,0,0,0" 
class="s1_11"
>saxophone </text>

<text 
x="343" 
y="267" 
dx="0,-0.3,0,0,0,0,0" 
class="s1_11"
>reeds” </text>

<text 
x="245" 
y="289" 
dx="0,0,0,0,0,-0.9,0,0,0,0,0,0" 
class="s1_11"
>said Dervla.</text>

<text 
x="434" 
y="182" 
dx="0,-0.6,-0.6,-0.6,-0.6,2.4,-0.6,-0.6,2.4,-0.6,-0.6,-0.6,-0.6,-0.6,2.4,-0.6,-0.6,2.4,-0.6,-0.6,0" 
class="s1_11"
>“Set up drums on the </text>

<text 
x="434" 
y="203" 
dx="0,-0.6,-0.6,-0.6,-0.6,-0.6,2.3,-0.6,-0.6,-0.6,-0.6,-0.6,-0.6,-0.6,2.3,-0.6,-0.6,-0.6,-0.6,2.3,-0.6,-0.6,-0.6,0" 
class="s1_11"
>stage first,” said Sam. </text>

<text 
x="434" 
y="225" 
dx="0,-0.6,-0.6,-0.6,-0.6,-0.6,-1.7,-0.6,4.5,-0.6,-0.6,4.5,-0.6,-0.6,-0.6,-0.6,4.5,-0.6,-0.6,4.5,-0.6,-0.6,0" 
class="s1_11"
>“That’s my tip. If you </text>

<text 
x="434" 
y="246" 
dx="0,-0.6,-0.6,-0.6,-0.6,-0.6,-0.7,-0.6,-0.6,-0.6,-0.6,-0.7,-0.6,-0.6,-0.6,-0.6,-0.7,-0.6,-0.6,-0.6,-0.6,-0.7,-0.6,-0.6,-0.6,-0.9,0" 
class="s1_11"
>leave them till last there </text>

<text 
x="434" 
y="267" 
dx="0,-0.6,-0.6,-0.6,-0.6,-0.6,4,-0.6,-0.6,-0.6,4,-0.6,-0.6,4,-0.6,-0.6,-0.6,-0.6,-0.6,0" 
class="s1_11"
>might not be enough </text>

<text 
x="434" 
y="289" 
dx="0,-0.9,-0.6,-0.6,-0.6,-1.5,-0.6,-0.6,-0.6,-1.5,-0.6,-0.6,-0.6,-0.6,-0.6" 
class="s1_11"
>room for them.”</text>

<text 
x="623" 
y="182" 
dx="0,0,0,0,0,0" 
class="s1_11"
>“Make </text>

<text 
x="689" 
y="182" 
dx="0,0,0,-0.3,0" 
class="s1_11"
>sure </text>

<text 
x="741" 
y="182" 
dx="0,0,0,0" 
class="s1_11"
>you </text>

<text 
x="623" 
y="203" 
dx="0,0,0,0,0,8.1,0,0,0,-0.3,0,8.1,0,0,0,0,-0.3,0" 
class="s1_11"
>know where you’re </text>

<text 
x="623" 
y="225" 
dx="0,0,0,0,0,0,0,6.5,0,0,0,0,6.5,0,0,0,0,0,0,0" 
class="s1_11"
>going” said Daniel. </text>

<text 
x="623" 
y="246" 
dx="0,0,-0.3,0,9,0,0,-0.3,0,9,0,0,0,0,9,0,0,0" 
class="s1_11"
>“We were late for </text>

<text 
x="623" 
y="267" 
dx="0,0,0,-1.1,0" 
class="s1_11"
>Jo’s </text>

<text 
x="668" 
y="267" 
dx="0,0,0,0.3,0,0,0,0,0" 
class="s1_11"
>birthday </text>

<text 
x="744" 
y="267" 
dx="0,0,0,0" 
class="s1_11"
>gig </text>

<text 
x="623" 
y="289" 
dx="0,0,0,0,0,0,0,0,0.7,0,0,0.7,0,0,0,0,0,0,-0.3,0" 
class="s1_11"
>because we couldn’t </text>

<text 
x="623" 
y="310" 
dx="0,0,0,0,0,-0.9,0,0,0,-0.9,0,0,0,0,0,0" 
class="s1_11"
>find the house.”</text>

<text 
x="881" 
y="75" 
dx="0,0,0,4.3,0,0,0,0,0,4.3,0,0,0,0,0,4.3,0,0,0,0,0,0,0,0,4.3,0,0,0,4.3,0,0,0,0,0,0,4.3,0,0,4.3,0,4.3,0,0,0,4.3,0,0,0,4.3,0,0,0,0,4.3,0,0,0" 
class="s1_11"
>By using these elements and mixing in a few new ones the </text>

<text 
x="881" 
y="96" 
dx="0,0,0,0,0,0,0,0,0,0,-0.9,0,0,0,0,-0.9,0,0,0,0,0,-0.9,0,0,0,0,-0.9,0,0,0,0,-0.9,0,0,0,0,0,0,-0.9,0,0,-0.9,-0.3,0,0,0,0,-0.9,0,0,0,0,-0.9,0,0,0,0,0,-0.9,0,0,-0.9,0,0,0,0" 
class="s1_11"
>Nanonauts make their page much easier to read. Like this, in fact:</text>

<text 
x="1390" 
y="150" 
dx="0,0" 
class="s3_11"
>1)</text>

<text 
x="1409" 
y="150" 
dx="0,0,0,0,0,0.7,0,0,0,0" 
class="s1_11"
>They used </text>

<text 
x="1486" 
y="150" 
dx="0,0,0,0,0,0,0,0" 
class="s3_11"
>headings</text>

<text 
x="1558" 
y="150" 
dx="0,0,0" 
class="s1_11"
>to </text>

<text 
x="1390" 
y="171" 
dx="0,0,0,0,0,0,0,-0.9,0,0,-0.9,0,0,0,-0.9,0,0,0" 
class="s1_11"
>divide up the page</text>

<text 
x="1393" 
y="86" 
dx="0,0,0,-0.9,0,-0.3,0,-0.9,0,0,0,-0.9,0,0,-0.3,0,-0.9,0,0,-0.9,0,0" 
class="s4_11"
>So how did they do it?</text>

<text 
x="1390" 
y="267" 
dx="0,0" 
class="s3_11"
>2)</text>

<text 
x="1417" 
y="267" 
dx="0,0,0,0,0,9.6,0,0,0,0" 
class="s1_11"
>They used </text>

<text 
x="1512" 
y="267" 
dx="0,-0.3,0,0,0,0,0,0,0" 
class="s3_11"
>bulleted </text>

<text 
x="1390" 
y="289" 
dx="0,0,0,0,0,0" 
class="s3_11"
>lists </text>

<text 
x="1428" 
y="289" 
dx="0,0,0,3.3,0,0,0,0,3.3,0,0,3.3,0,0,0,0,0,0,3.3,0,0" 
class="s1_11"
>to make it easier to </text>

<text 
x="1390" 
y="310" 
dx="0,-0.3,0,0,0" 
class="s1_11"
>read.</text>

<text 
x="1390" 
y="406" 
dx="0,0" 
class="s3_11"
>3)</text>

<text 
x="1408" 
y="406" 
dx="0,0,0,0,0,0.5,0,0,0,0,0,0,0,0.5,0,0,0.5,0,0,0,0,0" 
class="s1_11"
>They chopped up large </text>

<text 
x="1390" 
y="428" 
dx="0,0,0,0,0,0,0,1.8,0,0,1.8,0,0,0,0,1.8,0,0,0,0,1.8,0,0,0,0,0,0,0" 
class="s1_11"
>blocks of text into smaller </text>

<text 
x="1390" 
y="449" 
dx="0,0,0,0,-0.1,0,0,0,0,0" 
class="s3_11"
>paragraphs</text>

<text 
x="1473" 
y="449" 
dx="0,0" 
class="s1_11"
>. </text>

<text 
x="1390" 
y="717" 
dx="0,0,0,0,8.6,0,0,0,8.6,0,0,8.6,0,0,0,0,0,8.6,0,0,0" 
class="s1_11"
>The way in which you </text>

<text 
x="1390" 
y="738" 
dx="0,0,0,0,6.1,0,0,0,0,0,0,0,0,6.1,0,0,0,0,6.1,0,0,0,0" 
class="s1_11"
>put together your HTML </text>

<text 
x="1390" 
y="759" 
dx="0,0,0,0,0,0,0,0,0" 
class="s1_11"
>elements </text>

<text 
x="1467" 
y="759" 
dx="0,0,0" 
class="s1_11"
>is </text>

<text 
x="1494" 
y="759" 
dx="0,0,0,0,0,0" 
class="s1_11"
>known </text>

<text 
x="1554" 
y="759" 
dx="0,0,0" 
class="s1_11"
>as </text>

<text 
x="1390" 
y="781" 
dx="0,0,0,0,0,0" 
class="s3_11"
>markup</text>

<text 
x="1445" 
y="781" 
dx="0,0" 
class="s1_11"
>. </text>

<text 
x="1466" 
y="781" 
dx="0,0,0,0,0,0,0" 
class="s1_11"
>Markup </text>

<text 
x="1534" 
y="781" 
dx="0,0,0" 
class="s1_11"
>is </text>

<text 
x="1562" 
y="781" 
dx="0,0" 
class="s1_11"
>a </text>

<text 
x="1390" 
y="802" 
dx="0,0,0,-0.3,0,10.7,0,-0.3,0,0,0,0,0,0,0,0,0,10.7,0,0,0" 
class="s1_11"
>word programmers use </text>

<text 
x="1390" 
y="824" 
dx="0,0,2.8,0,0,0,0,2.8,0,0,0,0,2.8,0,0,0,0,0,0,2.8,0,0,2.8,0,0,0" 
class="s1_11"
>a lot. Good markup is all </text>

<text 
x="1390" 
y="845" 
dx="0,0,0,0,0,0,4.9,0,0,0,0,0,4.9,0,0,0,4.9,0,0,-0.3,0,0,-0.3,0,0,0" 
class="s1_11"
>about using the different </text>

<text 
x="1390" 
y="866" 
dx="0,0,0,0,0,0,0,0,0,8.6,0,0,8.6,0,0,0,0,8.6,0,0,0,0" 
class="s1_11"
>elements to make your </text>

<text 
x="1390" 
y="888" 
dx="0,0,0,0,0,-0.9,0,0,0,0,-0.9,0,0,-0.9,-0.3,0,0,0" 
class="s1_11"
>page easy to read.</text>

<path d="M47,54l0,4l-4,0l0,47l4,0l0,4l728,0l0,-4l4,0l0,-47l-4,0l0,-4Z" class="g15_11" />
<text 
x="56" 
y="96" 
dx="0,0,-2.8,-4.4,-3.2,-3.5,-3.4,-3,-4.2,0,0,-1.4,-4.1,-2.9,-3.1,-3,-3.4,-3.1,-2.9,-4,-3.5,0,-1.4,-2.9,-3.2,0,-1.4,-5.3,-4.1,-4,-4.4,0,-1.4" 
class="s5_11"
>&lt;Headings, paragraphs and lists &gt;</text>

<text 
x="64" 
y="439" 
dx="0,0,0,-0.4,0,0,0,0,-1.1,0,-1.1,0,0,0,0,0,0.4" 
class="s6_11"
>Playing a Concert</text>

<text 
x="887" 
y="182" 
dx="0,0,0,-0.4,0,0,0,0,-1.1,0,-1.1,0,0,0,0,0,0.4" 
class="s6_11"
>Playing a Concert</text>

<text 
x="60" 
y="461" 
dx="0,0,0,0,0,0,0,0,0.3,0,0.3,0,0,0,0,0,0,0,0.3,0,0,0,0.3,0,0,0.3,0,0,0,0,0,0.3,0,0,0,0,0.3,0,0,0.3,0,0,0.3,0,0,0,0.3,0,0,0.3,0,0,0,0,0,0,0,0.3,0,0,0,0,0,0,0.3,0,0,0,0,0,0,0,0,0,0.3,0,0,0,0,0.3,0,0,0.3,0,0,0,0.3,0,0,0,0,0.3,0,0,0,0,0,0.3,0,0,0.3,0,0,0,0,0,0.3,0,0,0,0.3,0,0,0,0,0,0,0,0,0.3,0,0.3,0,0,0,0,0.3,0,0,0.3,0,0,0,0.3,0,0,0,0.3,0,0,0,0,0.3,0,0,0,0.3,0,0,0,0,0" 
class="s7_11"
>Playing a concert can be great fun! Or it can be totally scary! Sometimes both at the same time. So we’ve put together a list of our top tips for great </text>

<text 
x="60" 
y="475" 
dx="0,0,0,0,0,0,0,0,0" 
class="s8_11"
>concerts.</text>

<text 
x="60" 
y="502" 
dx="0,0,0,0,0,-0.4,0,0,0,-0.4,0,-0.4,0,0,0,0,0,0,0,0,0,-1,-0.6,-0.4,0,0,0,0,0,0,0,0,-0.4,0,0,-0.4,0,-0.4,0,0,0,0,-0.4,0,0,-0.4,0,0,0,-0.4,0,0,0,0,-0.4,0,0,0,0,0,-0.4,0,0,-0.4,0,0,0,-0.4,0,0,0,0,0,-0.4,0,0,0,0,0,0,-0.4,0,0,0,0,-0.4,0,0,0,0,0,-0.4,0,0,0,0,-0.4,0,0,0,0,0,0,-0.4,0,0,0,-0.4,0,0,0,0,0,0,0,0,0,-0.4,0,0,0,0,0,-0.4,0,0,-0.4,0,0,0,-0.4,0,0,-0.4,0,0,0,0,-0.4,0,0,0,-0.4,0,0,0,-0.4,0,0,0,0,0,-0.4,0,0,0,0,-0.4,0,0,-0.4,0,0,-0.4,0,0,-0.2,0" 
class="s7_11"
>Copy out a set-list. A set-list is a list of all your songs in the order you’ll play them. Make copies for everyone. Print it big so that you can still read it if it’s </text>

<text 
x="60" 
y="516" 
dx="0,0,0,0,0,-0.6,0,0,-0.6,0,0,0,0,-0.6,0,0,0,0,-0.6,0,0,-0.6,0,0,0,-0.6,0,0,0,0,0,-0.6,0,0,-0.6,0,0,-0.6,0,0,0,-0.6,0,0,0,0,0,0,0,0,-0.6,0,0,0,0,0,-0.6,0,0,0,0,-0.6,0,0,0,0" 
class="s7_11"
>down by your feet on the floor or if the lighting isn’t very good.</text>

<text 
x="60" 
y="544" 
dx="0,0,0,0,0,0,0,0,0,0.3,0,0,0,0,0.3,0,0,0,0,0,0,0,0.2,0,0,0,0,0.3,0,0,0,0,0,0,0,0,0,0,0,0.2,0,0,0,0,0.3,0,0,0,0,0,0.3,0,0,0,0,0.2,0,0,0,0,0.3,0,0,0.3,0,0,0.3,0,0,0,0,0,0,0,0,0.3,0,0,0.2,0,0,0,0,0.3,0,0,0,0,0.3,0,0,0,0.3,0,0,0.3,0,0,0,0,0,0,0.3,0,0,0,0.3,0,0,0,0,0,0,0,0,0.3,0,0,0,0,0,0,0.3,0,0,0,0,0,0,0,0,0.3,0,0,0,0,0,0,0,0,0,0.3,0,0" 
class="s7_11"
>Remember your spares. Some instruments have parts that need to be replaced if they wear out or break. For example: guitar strings, saxophone or </text>

<text 
x="60" 
y="557" 
dx="0,0,0,0,0,0,0,0,0,-0.6,0,0,0,0,0,-0.6,0,0,0,-0.6,0,0,0,0,0,0,0,0,0,0,0,-0.6,0,0,0,0,-0.6,0,-0.6,0,0,0,0,-0.6,0,0,-0.6,0,0,0,-0.6,0,0,0,0,0,0,-0.6,0,0,0,-0.6,0,0,0,0,0,-0.6,0,0,0,0,-0.6,0,0,0,-0.6,0,0,0,0,-0.6,0,0,0,0,-0.6,0,0,0,-0.6,0,0,0,0,-0.6,0,0,0,0,0,-0.6,0,0,0,0,-0.6,0,0,0,-0.6,0,0,-0.6,0,0,-0.6,0,0,0,0,0,0,0,0,-0.8" 
class="s7_11"
>clarinet reeds and drumsticks. Make a list of the spares you might need and make sure you know where they are in an emergency.</text>

<text 
x="60" 
y="585" 
dx="0,0,0,0,0,-0.4,0,0,0,0,0,-0.4,0,0,0,0,0,0,-0.4,0,0,-0.4,0,0,-0.4,0,0,0,-0.4,0,0,0,0,0,0,-0.4,0,0,0,0,0,0,-0.4,0,0,0,-0.4,0,0,0,0,0,-0.4,0,0,-0.4,0,0,0,-0.4,0,0,-0.4,0,0,0,0,-0.4,0,0,0,0,0,0,0,0,0,0,0,0,-0.4,0,0,0,0,-0.4,0,-0.4,0,0,0,-0.4,0,0,0,0,0,0,0,-0.4,0,0,-0.4,0,0,0,0,0,0,-0.4,0,0,0,0,0,-0.4,0,0,0,0,0,0,-0.4,0,0,0,-0.4,0,0,0,0,0,-0.4,0,0,-0.4,0,0,0,-0.4,0,0,0,0,-0.4,0,0,0,-0.4,0,0,0,0,0" 
class="s7_11"
>Plan where you’ll be on the stage. Before you start to set up your instruments, take a few minutes to decide where you’re all going to be. Will the drums </text>

<text 
x="60" 
y="599" 
dx="0,0,0,-0.6,0,0,0,0,0,0,-0.6,0,0,0,0,0,0,-0.6,0,0,-0.6,0,-0.2,0,-0.6,0,0,-0.6,0,0,0,-0.6,0,0,0,0,0,-0.6,0,0,-0.6,0,0,0,0,0,-0.6,0,-0.6,0,0,0,0,0,0,0,0,0,0,0,0,-0.6,0,0,0,-0.6,0,0,0,-0.6,0,0,0,0,0,0,0,0,0,-0.6,0,0,-0.6,0,0,0,0,-0.6,0,0,0,0,0,0,-0.6,0,0,0,0,0,0,-0.6,0,0,0,0,0,0,-0.6,0,0,-0.6,0,0,0,-0.6,0,0,0,0,0" 
class="s7_11"
>be centre stage? Or off to one side? Is there a power-socket for the amplifier if your guitar player stands on the right?</text>

<text 
x="60" 
y="626" 
dx="0,0,0,-0.2,0,0.9,0,0,0,0,0.9,0,0,0,0,0,0,0.9,0,0,0.9,0,0,0,0,0,0.9,0,0,0,0,0,0.9,0,0,0,0.9,0,0,0,0,0.9,0,0,0,0,0,0,0.9,0,0,0,0.9,0,0,0,0,0,0.9,0,0,0,0,0,0,0,0.9,0,0,0.9,0,0,0,0,0.9,0,0,0,0,0,0,0,0,0,0,0,0,0.9,0,0,-0.2,0,0.9,0,0,0,0,0,0,0.9,0,0,0,0,0,0,0,0,0,0.9,0,0,0.9,0,0,0,0.9,0,0,0,0,0.9,0,0,0.9,0,0,0,0,0,0.9,0,0,0,0,0,0,0,0,0,0,0.9,0,0,0,0,0,0,0.9,0,0,0" 
class="s7_11"
>It’s much better to think about all this before you start setting up your instruments. It’s really annnoying if you have to start unplugging things and </text>

<text 
x="60" 
y="640" 
dx="0,0,0,0,0,0,0,0,0,0.1,0,0,0,0,0,0,0.1,0,0,0,0,0.1,0,0,0,0,0,0,0.1,0,0,0,0,0,0.1,0,0,0.1,0,0,0,0.1,0,0,0,0,0,0,0.1,0,0,0,0.1,0,0,0,0,0.1,0,0,0,0,0,0.1,0,0,0,0,0,0,0.1,0,0,0,0,0,0,0.1,0,0,0,0,0.1,0,0,0,0,0.1,0,0,0,0,0,0,0.1,0,0,0,0.1,0,0,0.1,0,0,0,0,0,0,0.1,0,0,0,0,0,0,0,0.1,0,0.1,0,0,0,0,0,0,0,0.1,0,0,0,0,0,0,0,0,0,0.1,0,0,0,0,0,0" 
class="s7_11"
>swapping places once you’ve begun to set things up! Know where you're going, know when you're on. If you’re playing a concert somewhere you’ve </text>

<text 
x="60" 
y="654" 
dx="0,0,0,0,0,0,0,0,0,0,0,0.1,0,0,0,0,0,0,0,0,0,0,0,0,0,0,0,0,0,0,0,0,0,0,0,0,0,0,0,0,0,0,0,0,0,0,0,0,0,0,0,0,0,0,0,0,0,0,0,0,0,0,0,0,0,0,0,0,0,0,0,0,0,0,0,0,0,0,0,0,0,0,0,0,0,0,0,0,0,0,0,0,0,0,0,0,0,0,0,0,0,0,0,0,0,-0.1,0,0,0,0,0,-0.2,0,0,0,0,0,0,0,0,0,0.1,0,0,0,0,0,0,0,0,0,0,0,0,0,0,0,0,0.1,0,0,0,0,0,0,0,0,0,0" 
class="s7_11"
>never been before make sure you know where it is. Print out a map or set the sat nav before you set out. There’s nothing worse than being lost in an </text>

<text 
x="60" 
y="667" 
dx="0,0,0,0,0,0,0,0,0,0,0,-0.4,0,0,0,0,0,-0.4,0,0,0,0,0,0,0,0,0,0,0,0,-0.4,0,0,0,0,0,0,-0.4,0,0,0,0,0,0,-0.4,0,0,0,-0.4,0,0,-0.4,0,0,-0.4,0,0,0,0,0,0,0,0,0,-1,0,0,0,-0.4,0,0,0,0,-0.4,0,0,0,-0.4,0,0,-0.4,0,0,0,0,0,0,0,-0.4,0,0,0,-0.4,0,0,0,0,0,-0.4,0,0,0,0,0,-0.4,0,0,0,-0.4,0,0,0,0,0,0,-0.4,0,0,-0.4,0,0,-0.4,0,0,0,0,-0.4,0,0,0,-0.4,0,0,0,0,-0.4,0,0,0,0,-0.4,0,0,0,0,0,0,-0.4,0,0,0,-0.4,0,0" 
class="s7_11"
>unfamiliar place half-an-hour before you’re due to go on-stage. And when you do arrive, the first thing you should do is find out what time you’re on. On </text>

<text 
x="60" 
y="681" 
dx="0,0,0,0,-0.6,0,0,0,0,0,-0.6,0,0,0,0,0,-0.6,0,0,0,0,0,-0.6,0,0,0,0,0,0,0,-1.2,0,0,0,-0.6,0,0,0,0,0,0,0,-0.6,0,0,-0.6,0,0,0,0,0,0,0,-0.6,0,0,0,-0.6,0,0,0,0,0,-0.6,0,0,0,0,-0.6,0,0,0,0,0,0,-0.6,0,0,-0.6,0,0,0,-0.6,0,0,0,0,0,-0.6,0,0,0,-0.6,0,0,0,0,0,0,-0.6,0,0,0" 
class="s7_11"
>the night times often change. Ask whoever is running the event when you’ll be on. Don’t get caught out!</text>

<text 
x="887" 
y="204" 
dx="0,0,0,0,0,0,0,0,-0.5,0,-0.5,0,0,0,0,0,0,0,-0.5,0,0,0,-0.5,0,0,-0.5,0,0,0,0,0,-0.5,0,0,0,0,-0.5,0,0,-0.5,0,0,-0.5,0,0,0,-0.5,0,0,-0.5,0,0,0,0,0,0,0,-0.5,0,0,0,0,0,0,-0.5,0,0,0,0,0,0,0,0,0,-0.5,0,0,0,0,-0.5,0,0,-0.5,0,0,0,-0.5,0,0,0,0,-0.5,0,0,0,0" 
class="s9_11"
>Playing a concert can be great fun! Or it can be totally scary! Sometimes both at the same time.</text>

<text 
x="887" 
y="228" 
dx="0,0,0,-0.5,0,0,0,0,0,-0.5,0,0,0,-0.5,0,0,0,0,0,0,0,0,-0.5,0,-0.5,0,0,0,0,-0.5,0,0,-0.5,0,0,0,-0.5,0,0,0,-0.5,0,0,0,0,-0.5,0,0,0,-0.5,0,0,0,0,0,-0.5,0,0,0,0,0,0,0,0" 
class="s10_11"
>So we’ve put together a list of our top tips for great concerts.</text>

<text 
x="887" 
y="253" 
dx="0,0,0,-0.2,0,-0.7,0,0,0,-0.7,0,-0.7,0,0,0,0,0,0,0" 
class="s11_11"
>Copy out a set-list</text>

<text 
x="887" 
y="277" 
dx="0,-0.5" 
class="s10_11"
>A </text>

<text 
x="895" 
y="277" 
dx="0,0,0,0,0,0,0,0" 
class="s12_11"
>set-list</text>

<text 
x="926" 
y="277" 
dx="0,0,0,-0.5,0,-0.5,0,0,0,0,-0.5,0,0,-0.5,0,0,0,-0.5,0,0,0,0,-0.5,0,0,0,0,0,-0.5,0,0,-0.5,0,0,0,-0.5,0,0,0,0,0,-0.5,0,0,0,0,0,0,-0.5,0,0,0,0,-0.5,0,0,0,0" 
class="s10_11"
>is a list of all your songs in the order you’ll play them.</text>

<text 
x="887" 
y="302" 
dx="0,0,0,0,0,-0.5,0,0,0,0,0,0,-0.5,0,0,0,-0.5,0,0,0,0,0,0,0,0" 
class="s10_11"
>Make copies for everyone.</text>

<text 
x="887" 
y="326" 
dx="0,0,0,0,0,0,-0.5,0,0" 
class="s9_11"
>Print it </text>

<text 
x="914" 
y="326" 
dx="0,0,0,0" 
class="s12_11"
>BIG!</text>

<text 
x="936" 
y="326" 
dx="0,0,0,-0.5,0,0,0,0,-0.5,0,0,0,-0.5,0,0,0,-0.5,0,0,0,0,0,-0.5,0,0,0,0,-0.5,0,0,-0.5,0,0,-0.5,0,0,-0.2,0,-0.5,0,0,0,0,-0.5,0,0,-0.5,0,0,0,0,-0.5,0,0,0,0,-0.5,0,0,-0.5,0,0,0,-0.5,0,0,0,0,0,-0.5,0,0,-0.5,0,0,-0.5,0,0,0,-0.5,0,0,0,0,0,0,0,0,-0.5,0,0,0,0,0,-0.5,0,0,0,0,-0.5,0,0,0,0" 
class="s10_11"
>so that you can still read it if it’s down by your feet on the floor or if the lighting isn’t very good.</text>

<text 
x="887" 
y="350" 
dx="0,0,0,0,0,0,0,0,0,-0.7,-0.3,0,0,0,-0.7,0,0,0,0,0" 
class="s11_11"
>Remember your spares</text>

<text 
x="887" 
y="375" 
dx="0,0,0,0,0,-0.5,0,0,0,0,0,0,0,0,0,0,0,-0.5,0,0,0,0,-0.5,0,0,0,0,0,-0.5,0,0,0,0,-0.5,0,0,0,0,-0.5,0,0,-0.5,0,0,-0.5,0,0,0,0,0,0,0,0,-0.5,0,0,-0.5,0,0,0,0,-0.5,0,0,0,0,-0.5,0,0,0,-0.5,0,0,-0.5,0,0,0,0,0,0,-0.5,0,0,0,-0.5,0,0,0,0,0,0,0" 
class="s10_11"
>Some instruments have parts that need to be replaced if they wear out or break. For example:</text>

<text 
x="901" 
y="399" 
dx="0" 
class="s13_11"
>•</text>

<text 
x="914" 
y="399" 
dx="0,0,0,0,0,0,0,-0.5,0,0,0,0,0,0" 
class="s9_11"
>guitar strings</text>

<text 
x="901" 
y="412" 
dx="0" 
class="s13_11"
>•</text>

<text 
x="914" 
y="412" 
dx="0,0,0,0,0,0,0,0,0,0,-0.5,0,0,-0.5,0,0,0,0,0,0,0,0,-0.5,0,0,0,0" 
class="s10_11"
>saxophone or clarinet reeds</text>

<text 
x="901" 
y="424" 
dx="0" 
class="s13_11"
>•</text>

<text 
x="914" 
y="424" 
dx="0,0,0,0,0,0,0,0,0,0" 
class="s10_11"
>drumsticks</text>

<text 
x="887" 
y="448" 
dx="0,0,0,0,0,-0.5,0,-0.5,0,0,0,0,-0.5,0,0,-0.5,0,0,0,-0.5,0,0,0,0,0,0,-0.5,0,0,0,-0.5,0,0,0,0,0,-0.5,0,0,0,0,-0.5,0,0,0,-0.5,0,0,0,0,-0.5,0,0,0,0,-0.5,0,0,0,-0.5,0,0,0,0,-0.5,0,0,0,0,0,-0.5,0,0,0,0,-0.5,0,0,0,-0.5,0,0,-0.5,0,0,-0.5,0,0,0,0,0,0,0,0,-0.7" 
class="s10_11"
>Make a list of the spares you might need and make sure you know where they are in an emergency.</text>

<text 
x="887" 
y="473" 
dx="0,0,0,0,0,-0.7,0,0,0,0,0,-0.7,-0.3,0,0,-0.2,0,0,-0.7,0,0,-0.7,0,0,-0.7,0,0,0,-0.7,0,0,-0.1,0.1" 
class="s11_11"
>Plan where you’ll be on the stage</text>

<text 
x="887" 
y="497" 
dx="0,0,0,0,0,0,0,-0.5,0,0,0,-0.5,0,0,0,0,0,-0.5,0,0,-0.5,0,0,0,-0.5,0,0,-0.5,0,0,0,0,-0.5,0,0,0,0,0,0,0,0,0,0,0,0,-0.5,0,0,0,0,-0.5,0,-0.5,0,0,0,-0.5,0,0,0,0,0,0,0,-0.5,0,0,-0.5,0,0,0,0,0,0,-0.5,0,0,0,0,0,-0.5,0,0,0,0,0,0,-0.5,0,0,0,-0.5,0,0,0,0,0,-0.5,0,0,-0.5,0,0" 
class="s10_11"
>Before you start to set up your instruments, take a few minutes to decide where you’re all going to be.</text>

<text 
x="901" 
y="522" 
dx="0" 
class="s13_11"
>•</text>

<text 
x="914" 
y="522" 
dx="0,0,0,0,0,-0.5,0,0,0,-0.5,0,0,0,0,0,-0.5,0,0,-0.5,0,0,0,0,0,0,-0.5,0,0,0,0,0,0,-0.5,0,0,-0.5,0,-0.2,0,-0.5,0,0,-0.5,0,0,0,-0.5,0,0,0,0" 
class="s10_11"
>Will the drums be centre stage? Or off to one side?</text>

<text 
x="901" 
y="534" 
dx="0" 
class="s13_11"
>•</text>

<text 
x="914" 
y="534" 
dx="0,0,0,-0.5,0,0,0,0,0,-0.5,0,-0.5,0,0,0,0,0,0,0,0,0,0,0,0,-0.5,0,0,0,-0.5,0,0,0,-0.5,0,0,0,0,0,0,0,0,0,-0.5,0,0,-0.5,0,0,0,0,-0.5,0,0,0,0,0,0,-0.5,0,0,0,0,0,0,-0.5,0,0,0,0,0,0,-0.5,0,0,-0.5,0,0,0,-0.5,0,0,0,0,0" 
class="s10_11"
>Is there a power-socket for the amplifier if your guitar player stands on the right?</text>

<text 
x="887" 
y="558" 
dx="0,0,0,-0.2,0,-0.3,0,0,0,0,-0.3,0,0,0,0,0,0,-0.3,0,0,-0.3,0,0,0,0,0,-0.3,0,0,0,0,0,-0.3,0,0,0,-0.2,0,0,0,0" 
class="s10_11"
>It’s much better to think about all this </text>

<text 
x="1036" 
y="558" 
dx="0,0,0,-0.2,0,0" 
class="s12_11"
>before</text>

<text 
x="1066" 
y="558" 
dx="0,0,0,0,-0.3,0,0,0,0,0,-0.3,0,0,0,0,0,0,0,-0.3,0,0,-0.3,0,0,0,0,-0.3,0,0,0,0,0,0,0,0,0,0,0,0,-0.3,0,0,-0.2,0,-0.3,0,0,0,0,0,0,-0.2,0,0,0,0,0,0,0,0,0,-0.2,0,0" 
class="s10_11"
>you start setting up your instruments. It’s really annnoying if </text>

<text 
x="887" 
y="570" 
dx="0,0,0,0,-0.5,0,0,0,0,-0.5,0,0,-0.5,0,0,0,0,0,-0.5,0,0,0,0,0,0,0,0,0,0,-0.5,0,0,0,0,0,0,-0.5,0,0,0,-0.5,0,0,0,0,0,0,0,0,-0.5,0,0,0,0,0,0,-0.5,0,0,0,0,-0.5,0,0,0,0,0,0,-0.5,0,0,0,0,0,-0.5,0,0,-0.5,0,0,0,-0.5,0,0,0,0,0,0,-0.5,0,0" 
class="s10_11"
>you have to start unplugging things and swapping places once you’ve begun to set things up!</text>

<text 
x="887" 
y="595" 
dx="0,0,0,-0.2,0,-0.7,0,0,0,0,0,-0.7,-0.3,0,0,-0.5,0,0,-0.7,0,0,0,0,0,-0.5,-0.7,0,0,-0.2,0,-0.7,0,0,0,0,-0.7,-0.3,0,0,-0.5,0,0,-0.7,0" 
class="s11_11"
>Know where you’re going, know when you’re on</text>

<text 
x="887" 
y="619" 
dx="0,0,0,0.2,0,0,0,0,0,0,0.2,0,0,0,0,0,0,0,0.2,0,0.2,0,0,0,0,0,0,0,0.2,0,0,0,0,0,0,0,0,0,0.2,0,0,0,0,0,0,0.2,0,0,0,0,0,0.2,0,0,0,0,0.2,0,0,0,0,0,0,0.2,0,0,0,0,0.2,0,0,0,0,0.2,0,0,0,0.2,0,0,0,0,0.2,0,0,0,0,0,0.2,0,0,0.2,0,0,0,0.2,0,0,0,0,0" 
class="s10_11"
>If you’re playing a concert somewhere you’ve never been before make sure you know where it is. Print </text>

<text 
x="887" 
y="632" 
dx="0,0,0,0,0.3,0,0.3,0,0,0,0.3,0,0,0.3,0,0,0,0.3,0,0,0,0.3,0,0,0,0.3,0,0,0,0.3,0,0,0,0,0,0,0.3,0,0,0,0.3,0,0,0,0.3,0,0,0,0,0.2,0,0,0,0,0,-0.2,0,0.3,0,0,0,0,0,0,0,0.3,0,0,0,0,0,0.3,0,0,0,0,0.3,0,0,0,0,0,0.3,0,0,0,0,0.3,0,0,0.3,0,0,0.3,0,0,0,0,0,0,0,0,0,0" 
class="s10_11"
>out a map or set the sat nav before you set out. There’s nothing worse than being lost in an unfamiliar </text>

<text 
x="887" 
y="644" 
dx="0,0,0,0,0,0,-0.5,0,0,0,0,0,0,0,0,0,0,0,0,-0.5,0,0,0,0,0,0,-0.5,0,0,0,0,0,0,-0.5,0,0,0,-0.5,0,0,-0.5,0,0,-0.5,0,0,0,0,0,0,0,0" 
class="s10_11"
>place half-an-hour before you’re due to go on-stage.</text>

<text 
x="887" 
y="668" 
dx="0,0,0,0,-0.4,0,0,0,0,-0.4,0,0,0,-0.4,0,0,-0.4,0,0,0,0,0,0,0,-0.4,0,0,0,-0.4,0,0,0,0,0,-0.4,0,0,0,0,0,-0.4,0,0,0,-0.4,0,0,0,0,0,0,-0.4,0,0,-0.4,0,0" 
class="s10_11"
>And when you do arrive, the first thing you should do is </text>

<text 
x="1107" 
y="668" 
dx="0,0,0,0,0,-0.4,0,0,0,-0.4,0,0,0,0,-0.4,0,0,0,0,-0.4,-0.2,0,0,-0.4,0,0,-0.4,0" 
class="s12_11"
>find out what time you’re on</text>

<text 
x="1227" 
y="668" 
dx="0,0,-0.4,0,0,-0.4,0,0,0,-0.4,0,0,0,0,0,-0.4,0,0,0,0,0" 
class="s9_11"
>. On the night times </text>

<text 
x="887" 
y="680" 
dx="0,0,0,0,0,0,-0.5,0,0,0,0,0,0,0,-1,0,0,0,-0.5,0,0,0,0,0,0,0,-0.5,0,0,-0.5,0,0,0,0,0,0,0,-0.5,0,0,0,-0.5,0,0,0,0,0,-0.5,0,0,0,0,-0.5,0,0,0,0,0,0,-0.5,0,0,-0.5,0,0,0,-0.5,0,0,0,0,0,-0.5,0,0,0,-0.5,0,0,0,0,0,0,-0.5,0,0,0" 
class="s10_11"
>often change. Ask whoever is running the event when you’ll be on. Don’t get caught out!</text>

<path d="M1009,249l344,0l0,-89l16,0" class="g16_11" />
<path d="M1008.4,250.7l0,1.4c0,0.2,0.1,0.3,0.2,0.4c0.2,0.2,0.3,0.2,0.5,0.2l1.3,0l0,1.4c0,0.2,0.1,0.3,0.2,0.5c0.2,0.1,0.3,0.2,0.5,0.2l1.3,0l0,1.2c0,0.2,0.1,0.3,0.2,0.4c0.2,0.2,0.3,0.2,0.5,0.2l1.9,0c0.2,0,0.3,0,0.5,-0.2c0.1,-0.1,0.1,-0.2,0.1,-0.4l0,-1.9c0,-0.2,0,-0.3,-0.1,-0.5c-0.2,-0.1,-0.3,-0.2,-0.5,-0.2l-1.3,0l0,-1.3c0,-0.2,0,-0.3,-0.1,-0.5c-0.2,-0.1,-0.3,-0.2,-0.5,-0.2l-1.3,0l0,-1.3c0,-0.2,-0.1,-0.4,-0.2,-0.5c-0.2,-0.1,-0.3,-0.2,-0.5,-0.2l-1.3,0l0,-0.8l1.2,0c0.2,0,0.3,-0.1,0.4,-0.2c0.2,-0.1,0.2,-0.3,0.2,-0.5l0,-1.3l1.4,0c0.2,0,0.3,-0.1,0.4,-0.2c0.2,-0.1,0.2,-0.3,0.2,-0.5l0,-1.3l1.4,0c0.2,0,0.3,-0.1,0.5,-0.2c0.1,-0.1,0.1,-0.3,0.1,-0.5l0,-1.7c0,-0.2,0,-0.4,-0.1,-0.5c-0.2,-0.1,-0.3,-0.2,-0.5,-0.2l-1.8,0c-0.1,0,-0.3,0.1,-0.4,0.2c-0.1,0.1,-0.2,0.3,-0.2,0.5l0,1.3l-1.4,0c-0.1,0,-0.3,0.1,-0.4,0.2c-0.2,0.1,-0.2,0.3,-0.2,0.5l0,1.3l-1.4,0c-0.2,0,-0.3,0.1,-0.4,0.2c-0.2,0.2,-0.2,0.3,-0.2,0.5l0,1.3l-1.4,0c-0.2,0,-0.3,0.1,-0.5,0.2c-0.1,0.2,-0.1,0.3,-0.1,0.5l0,1.9c0,0.2,0,0.3,0.1,0.4c0.2,0.2,0.3,0.2,0.5,0.2Z" class="g15_11" />
<path d="M1054,405l298,0l0,-126l16,0" class="g16_11" />
<path d="M1053.7,406.8l0,1.4c0,0.1,0,0.3,0.1,0.4c0.2,0.1,0.3,0.2,0.5,0.2l1.4,0l0,1.3c0,0.2,0,0.4,0.2,0.5c0.1,0.2,0.2,0.2,0.4,0.2l1.4,0l0,1.2c0,0.2,0,0.4,0.2,0.5c0.1,0.1,0.2,0.2,0.4,0.2l1.9,0c0.2,0,0.3,-0.1,0.5,-0.2c0.1,-0.1,0.2,-0.3,0.2,-0.5l0,-1.9c0,-0.1,-0.1,-0.3,-0.2,-0.4c-0.2,-0.1,-0.3,-0.2,-0.5,-0.2l-1.2,0l0,-1.3c0,-0.2,-0.1,-0.4,-0.2,-0.5c-0.1,-0.1,-0.3,-0.2,-0.5,-0.2l-1.3,0l0,-1.3c0,-0.2,-0.1,-0.4,-0.2,-0.5c-0.2,-0.1,-0.3,-0.2,-0.5,-0.2l-1.3,0l0,-0.8l1.2,0c0.2,0,0.3,-0.1,0.5,-0.2c0.1,-0.2,0.2,-0.3,0.2,-0.5l0,-1.3l1.3,0c0.2,0,0.3,-0.1,0.5,-0.2c0.1,-0.2,0.2,-0.3,0.2,-0.5l0,-1.3l1.3,0c0.2,0,0.3,-0.1,0.5,-0.2c0.1,-0.2,0.2,-0.3,0.2,-0.5l0,-1.8c0,-0.2,-0.1,-0.3,-0.2,-0.4c-0.2,-0.2,-0.3,-0.2,-0.5,-0.2l-1.7,0c-0.2,0,-0.4,0,-0.5,0.2c-0.1,0.1,-0.2,0.2,-0.2,0.4l0,1.4l-1.4,0c-0.1,0,-0.3,0,-0.4,0.2c-0.1,0.1,-0.2,0.2,-0.2,0.4l0,1.4l-1.4,0c-0.2,0,-0.3,0.1,-0.4,0.2c-0.2,0.1,-0.2,0.3,-0.2,0.5l0,1.3l-1.4,0c-0.2,0,-0.3,0.1,-0.4,0.2c-0.2,0.1,-0.2,0.3,-0.2,0.5l0,1.9c0,0.1,0,0.3,0.2,0.4c0.1,0.1,0.2,0.2,0.4,0.2Z" class="g15_11" />
<path d="M1317,564l36,0l0,-139l16,0" class="g16_11" />
<path d="M1316.7,566.3l0,1.4c0,0.1,0,0.3,0.2,0.4c0.1,0.1,0.2,0.2,0.4,0.2l1.4,0l0,1.4c0,0.1,0,0.3,0.2,0.4c0.1,0.2,0.3,0.2,0.4,0.2l1.4,0l0,1.2c0,0.2,0,0.4,0.2,0.5c0.1,0.1,0.3,0.2,0.4,0.2l1.9,0c0.2,0,0.4,-0.1,0.5,-0.2c0.1,-0.1,0.2,-0.3,0.2,-0.5l0,-1.8c0,-0.2,-0.1,-0.4,-0.2,-0.5c-0.1,-0.1,-0.3,-0.2,-0.5,-0.2l-1.2,0l0,-1.3c0,-0.2,-0.1,-0.4,-0.2,-0.5c-0.1,-0.1,-0.3,-0.2,-0.5,-0.2l-1.3,0l0,-1.3c0,-0.2,-0.1,-0.4,-0.2,-0.5c-0.1,-0.1,-0.3,-0.2,-0.5,-0.2l-1.3,0l0,-0.8l1.2,0c0.2,0,0.3,-0.1,0.5,-0.2c0.1,-0.1,0.2,-0.3,0.2,-0.5l0,-1.3l1.3,0c0.2,0,0.3,-0.1,0.5,-0.2c0.1,-0.2,0.2,-0.3,0.2,-0.5l0,-1.3l1.3,0c0.2,0,0.4,-0.1,0.5,-0.2c0.1,-0.2,0.2,-0.3,0.2,-0.5l0,-1.8c0,-0.1,-0.1,-0.3,-0.2,-0.4c-0.1,-0.2,-0.3,-0.2,-0.5,-0.2l-1.7,0c-0.2,0,-0.4,0,-0.5,0.2c-0.1,0.1,-0.2,0.3,-0.2,0.4l0,1.4l-1.3,0c-0.2,0,-0.4,0,-0.5,0.2c-0.1,0.1,-0.2,0.3,-0.2,0.4l0,1.4l-1.4,0c-0.1,0,-0.3,0.1,-0.4,0.2c-0.1,0.1,-0.2,0.3,-0.2,0.5l0,1.3l-1.4,0c-0.2,0,-0.3,0.1,-0.4,0.2c-0.2,0.1,-0.2,0.3,-0.2,0.5l0,1.9c0,0.1,0,0.3,0.2,0.4c0.1,0.1,0.2,0.2,0.4,0.2Z" class="g15_11" />
<path d="M1485,127l4,0l0,-4l4,0l0,-4l4,0l0,-4l4,0l0,-4l-4,0l-4,0l-4,0l-4,0l-4,0l-4,0l-4,0l-4,0l-4,0l0,4l4,0l0,4l4,0l0,4l4,0l0,4l4,0l0,4l4,0Z" class="g15_11" />
<text 
x="1390" 
y="556" 
dx="0,0,0" 
class="s3_11"
>4) </text>

<text 
x="1407" 
y="556" 
dx="0,0,0,0,0,-0.1,0,0,0,0,0,0,0,0,0,0,-0.1,0,0,0,0" 
class="s1_11"
>They emphasised some </text>

<text 
x="1390" 
y="578" 
dx="0,0,0,0,0,0.3,0,0,0,0,1,0,0,-0.3,0,0,1,0,0,0,0,0,1,0,0,0" 
class="s1_11"
>important words using the </text>

<path d="M1397.2,591.8c-0.8,-0.2,-1.5,-0.3,-2.1,-0.3c-1,0,-1.7,0.2,-2.3,0.5c-0.6,0.4,-0.9,1,-0.9,1.6c0,0.4,0.1,0.6,0.2,0.9c0.1,0.2,0.3,0.4,0.5,0.6c0.3,0.2,0.5,0.3,0.8,0.4c0.3,0.1,0.8,0.3,1.4,0.4c0.7,0.3,1.2,0.5,1.4,0.7c0.2,0.2,0.3,0.5,0.3,0.7c0,0.4,-0.2,0.7,-0.6,1c-0.4,0.2,-1,0.3,-1.6,0.3c-0.7,0,-1.4,-0.1,-2.1,-0.4l-0.2,1c0.6,0.3,1.4,0.4,2.3,0.4c1,0,1.8,-0.2,2.4,-0.6c0.6,-0.5,0.9,-1,0.9,-1.8c0,-0.4,0,-0.7,-0.2,-1c-0.2,-0.3,-0.4,-0.5,-0.7,-0.7c-0.3,-0.2,-0.8,-0.4,-1.3,-0.5l-1.1,-0.3c-0.5,-0.2,-0.8,-0.3,-1,-0.5c-0.2,-0.2,-0.3,-0.4,-0.3,-0.6c0,-0.4,0.2,-0.6,0.6,-0.8c0.4,-0.3,0.9,-0.4,1.5,-0.4c0.6,0,1.2,0.1,1.8,0.4l0.3,-1Z" class="g14_11" />
<path d="M1406.8,598.2c-0.6,0.2,-1.3,0.4,-1.9,0.4c-0.4,0,-0.6,-0.1,-0.8,-0.4c-0.3,-0.3,-0.4,-0.6,-0.4,-1.1l0,-4.4l2.7,0l0,-1.1l-2.7,0l0,-2.1l-1.1,0l0,2.1l-1.5,0l0,1.1l1.5,0l0,4.7c0,1.5,0.7,2.2,2.1,2.2c0.7,0,1.5,-0.2,2.3,-0.5l-0.2,-0.9Z" class="g14_11" />
<path d="M1414.5,591.5c-1,0,-1.8,0.5,-2.4,1.7l0,-1.6l-1.2,0l0,7.8l1.2,0l0,-5c0,-0.1,0.1,-0.3,0.4,-0.6c0.3,-0.4,0.6,-0.7,0.9,-0.9c0.3,-0.2,0.7,-0.3,1,-0.3c0.4,0,0.8,0.1,1.3,0.4l0.5,-1.1c-0.5,-0.3,-1.1,-0.4,-1.7,-0.4Z" class="g14_11" />
<path d="M1419.7,592.6c-0.6,0.7,-1,1.7,-1,2.9c0,1.3,0.4,2.2,1,3c0.6,0.7,1.5,1.1,2.5,1.1c1.1,0,2,-0.4,2.6,-1.1c0.6,-0.8,0.9,-1.7,0.9,-3c0,-1.2,-0.3,-2.2,-0.9,-2.9c-0.6,-0.8,-1.5,-1.1,-2.6,-1.1c-1,0,-1.9,0.3,-2.5,1.1Zm0.9,5.1c-0.4,-0.6,-0.6,-1.3,-0.6,-2.2c0,-0.9,0.2,-1.6,0.6,-2.2c0.4,-0.5,0.9,-0.8,1.6,-0.8c0.8,0,1.3,0.3,1.7,0.8c0.4,0.6,0.6,1.3,0.6,2.2c0,0.9,-0.2,1.6,-0.6,2.2c-0.4,0.6,-1,0.9,-1.7,0.9c-0.7,0,-1.2,-0.3,-1.6,-0.9Z" class="g14_11" />
<path d="M1434.4,594.1c0,-1.8,-0.7,-2.6,-2.2,-2.6c-0.9,0,-1.8,0.4,-2.6,1.3l0,-1.2l-1.2,0l0,7.8l1.2,0l0,-5.6c0.8,-0.9,1.6,-1.3,2.3,-1.3c0.5,0,0.8,0.1,1,0.4c0.3,0.3,0.4,0.8,0.4,1.5l0,5l1.1,0l0,-5.3Z" class="g14_11" />
<path d="M1440.2,596.5c0.8,0,1.4,-0.2,1.9,-0.7c0.5,-0.5,0.7,-1.1,0.7,-1.8c0,-0.6,-0.1,-1,-0.3,-1.4l1.5,0l0,-1.1l-2.3,0.3c-0.5,-0.2,-0.9,-0.3,-1.5,-0.3c-0.7,0,-1.4,0.2,-1.9,0.7c-0.4,0.4,-0.7,1,-0.7,1.8c0,0.4,0.1,0.9,0.3,1.3c0.3,0.4,0.6,0.7,1,0.9c-0.9,0.5,-1.4,1,-1.4,1.6c0,0.4,0.4,0.8,1.1,1.2c-0.9,0.4,-1.3,0.9,-1.3,1.6c0,0.5,0.3,1,0.8,1.4c0.6,0.3,1.3,0.5,2.2,0.5c1,0,1.9,-0.3,2.7,-0.8c0.8,-0.5,1.2,-1.2,1.2,-2.1c0,-0.6,-0.2,-1,-0.5,-1.3c-0.4,-0.3,-0.9,-0.4,-1.5,-0.4l-2.6,0c-0.3,0,-0.5,0,-0.7,-0.1c-0.1,-0.1,-0.2,-0.2,-0.2,-0.4c0,-0.2,0.3,-0.6,1.1,-0.9c0.1,0,0.3,0,0.4,0Zm-1,-1.4c-0.3,-0.3,-0.4,-0.6,-0.4,-1.1c0,-0.5,0.1,-0.9,0.4,-1.2c0.3,-0.3,0.6,-0.4,1,-0.4c0.5,0,0.8,0.1,1.1,0.4c0.2,0.3,0.4,0.7,0.4,1.2c0,0.5,-0.2,0.9,-0.4,1.2c-0.3,0.2,-0.7,0.4,-1.1,0.4c-0.4,0,-0.7,-0.2,-1,-0.5Zm-0.3,6.2c-0.3,-0.3,-0.5,-0.5,-0.5,-0.8c0,-0.2,0.1,-0.4,0.2,-0.6c0.1,-0.2,0.3,-0.3,0.5,-0.5c0.3,-0.2,0.4,-0.3,0.5,-0.3c0.3,0,0.6,0,1,0c0.6,0,1,-0.1,1.3,-0.1c0.7,0,1.1,0.3,1.1,0.8c0,0.5,-0.2,0.9,-0.8,1.3c-0.5,0.3,-1.2,0.5,-1.9,0.5c-0.6,0,-1,-0.1,-1.4,-0.3Z" class="g14_11" />
<text 
x="1390" 
y="599" 
dx="0,0,0,0,0,0" 
class="s2_11"
>strong</text>

<text 
x="1448" 
y="599" 
dx="0,0,0,0,0,0,0,0,0" 
class="s1_11"
>element. </text>

<path d="M1183,655l0,-13l295,0l0,-23" class="g16_11" />
<path d="M1181.7,656.7l-1.3,0c-0.2,0,-0.4,-0.1,-0.5,-0.2c-0.1,-0.1,-0.2,-0.3,-0.2,-0.5l0,-1.3l-1.3,0c-0.2,0,-0.4,-0.1,-0.5,-0.2c-0.1,-0.1,-0.2,-0.3,-0.2,-0.5l0,-1.3l-1.2,0c-0.2,0,-0.4,-0.1,-0.5,-0.2c-0.1,-0.1,-0.2,-0.3,-0.2,-0.5l0,-1.9c0,-0.1,0.1,-0.3,0.2,-0.4c0.1,-0.1,0.3,-0.2,0.5,-0.2l1.9,0c0.1,0,0.3,0.1,0.4,0.2c0.2,0.1,0.2,0.3,0.2,0.4l0,1.3l1.4,0c0.1,0,0.3,0,0.4,0.2c0.2,0.1,0.2,0.3,0.2,0.4l0,1.4l1.4,0c0.2,0,0.3,0.1,0.4,0.2c0.2,0.1,0.2,0.3,0.2,0.4l0,1.4l0.9,0l0,-1.3c0,-0.1,0,-0.3,0.1,-0.4c0.2,-0.1,0.3,-0.2,0.5,-0.2l1.4,0l0,-1.4c0,-0.1,0,-0.3,0.2,-0.4c0.1,-0.1,0.2,-0.2,0.4,-0.2l1.4,0l0,-1.4c0,-0.1,0,-0.3,0.2,-0.4c0.1,-0.1,0.2,-0.2,0.4,-0.2l1.8,0c0.2,0,0.3,0.1,0.4,0.2c0.2,0.1,0.2,0.3,0.2,0.4l0,1.8c0,0.2,0,0.3,-0.2,0.5c-0.1,0.1,-0.2,0.1,-0.4,0.1l-1.4,0l0,1.4c0,0.2,0,0.3,-0.1,0.5c-0.2,0.1,-0.3,0.2,-0.5,0.2l-1.4,0l0,1.3c0,0.2,-0.1,0.4,-0.2,0.5c-0.1,0.1,-0.3,0.2,-0.4,0.2l-1.4,0l0,1.3c0,0.2,-0.1,0.4,-0.2,0.5c-0.1,0.1,-0.3,0.2,-0.4,0.2l-1.9,0c-0.2,0,-0.4,-0.1,-0.5,-0.2c-0.1,-0.1,-0.2,-0.3,-0.2,-0.5Z" class="g15_11" />
<text 
x="1591" 
y="1019" 
dx="0,-1.4" 
class="s14_11"
>21</text>

<text 
x="35" 
y="1019" 
dx="0,-1.2" 
class="s14_11"
>20</text>



<!-- Any embedded fonts defined here -->
<style type="text/css" ><![CDATA[

@font-face {
	font-family: AndaleMono_1cn;
	src: url("fonts/AndaleMono_1cn.woff") format("woff");
}

@font-face {
	font-family: PixelSplitter-Bold_aa;
	src: url("fonts/PixelSplitter-Bold_aa.woff") format("woff");
}

@font-face {
	font-family: Helvetica-Light_1by;
	src: url("fonts/Helvetica-Light_1by.woff") format("woff");
}

@font-face {
	font-family: Helvetica_1dx;
	src: url("fonts/Helvetica_1dx.woff") format("woff");
}

@font-face {
	font-family: PixelSplitter-Bold_1bs;
	src: url("fonts/PixelSplitter-Bold_1bs.woff") format("woff");
}

@font-face {
	font-family: Helvetica-Bold_1bu;
	src: url("fonts/Helvetica-Bold_1bu.woff") format("woff");
}

@font-face {
	font-family: Helvetica_1e3;
	src: url("fonts/Helvetica_1e3.woff") format("woff");
}

]]></style>

</svg>
