<?xml version="1.0" encoding="UTF-8" standalone="no"?>
<!DOCTYPE svg PUBLIC "-//W3C//DTD SVG 1.1//EN"
"http://www.w3.org/Graphics/SVG/1.1/DTD/svg11.dtd">


<!-- Page 12 -->
<svg x="0" y="0" width="1645" height="1061" viewBox="0 0 1645 1061" version="1.1" xmlns="http://www.w3.org/2000/svg" xmlns:xlink="http://www.w3.org/1999/xlink"
style="display: block;margin-left: auto;margin-right: auto;">
<defs>

<style type="text/css"><![CDATA[

.g4_12{
fill: none;
stroke: #FFD400;
stroke-width: 5;
stroke-linecap: butt;
stroke-linejoin: miter;
stroke-miterlimit: 4;
}
.g2_12{
fill: #FFD400;
}
.g3_12{
fill: #FFFFFF;
}
.g5_12{
fill: none;
stroke: #11151D;
stroke-width: 1;
stroke-linecap: butt;
stroke-linejoin: miter;
stroke-miterlimit: 4;
}
.g1_12{
fill: #B3CBC8;
}

.s3_12{
font-size: 15.28px;
font-family: Helvetica_1e3;
fill: #11151D;
}
.s4_12{
font-size: 21.39px;
font-family: PixelSplitter-Bold_1bs;
fill: #11151D;
}
.s5_12{
font-size: 12.22px;
font-family: PixelSplitter-Bold_1bs;
fill: #11151D;
}
.s1_12{
font-size: 15.28px;
font-family: Helvetica-Light_1by;
fill: #11151D;
}
.s2_12{
font-size: 15.28px;
font-family: AndaleMono_1cn;
fill: #11151D;
}

]]></style>

</defs>
<path d="M0,0
L0,1061
L1645,1061
L1645,0 Z " 
fill="#FFFFFF" stroke="none" />
<image x="-33" y="-32" width="1713" height="1115" xlink:href="12/img/1.png" />
<image x="-13" y="-11" width="1674" height="1073" opacity="0.5" xlink:href="12/img/2.png" />
<image x="809" y="-40" width="871" height="1120" xlink:href="12/img/3.png" />
<path d="M47,94l0,4l-4,0l0,892l4,0l0,5l728,0l0,-5l4,0L779,98l-4,0l0,-4Z" class="g1_12" />
<path d="M870,51l0,4l-4,0l0,187l4,0l0,4l728,0l0,-4l4,0l0,-187l-4,0l0,-4Z" class="g1_12" />
<path d="M870,460l0,4l-4,0l0,88l4,0l0,4l92,0l0,-96Z" class="g2_12" />
<image x="864" y="464" width="88" height="89" xlink:href="12/img/4.png" />
<path d="M870,867l0,4l-4,0l0,88l4,0l0,4l92,0l0,-96Z" class="g2_12" />
<image x="864" y="871" width="88" height="89" xlink:href="12/img/5.png" />
<path d="M870,267l0,5l-4,0l0,88l4,0l0,4l92,0l0,-97Z" class="g2_12" />
<image x="864" y="272" width="88" height="89" xlink:href="12/img/6.png" />
<path d="M964,312l0,131l2,0l2,0l0,2l0,2l626,0l0,-2l0,-2l2,0l2,0l0,-126l-2,0l-2,0l0,-3l0,-2Z" class="g3_12" />
<path d="M964.5,312.5l0,131l2,0l2,0l0,2l0,2l626,0l0,-2l0,-2l2,0l2,0l0,-126l-2,0l-2,0l0,-3l0,-2l-630,0Z" class="g4_12" />
<path d="M961,267l0,45l151,0l0,-40l-4,0l0,-5Z" class="g2_12" />
<path d="M963,507l0,110l2,0l3,0l0,2l0,2l627,0l0,-2l0,-2l3,0l2,0l0,-105l-2,0l-3,0l0,-3l0,-2Z" class="g3_12" />
<path d="M963.5,507.5l0,110l2,0l3,0l0,2l0,2l627,0l0,-2l0,-2l3,0l2,0l0,-105l-2,0l-3,0l0,-3l0,-2l-632,0Z" class="g4_12" />
<path d="M963,913l0,64l2,0l3,0l0,2l0,2l627,0l0,-2l0,-2l3,0l2,0l0,-60l-2,0l-3,0l0,-2l0,-2Z" class="g3_12" />
<path d="M963.5,913.5l0,64l2,0l3,0l0,2l0,2l627,0l0,-2l0,-2l3,0l2,0l0,-60l-2,0l-3,0l0,-2l0,-2l-632,0Z" class="g4_12" />
<path d="M961,460l0,45l151,0l0,-41l-4,0l0,-4Z" class="g2_12" />
<path d="M961,867l0,44l151,0l0,-39l-4,0l0,-5Z" class="g2_12" />
<text 
x="56" 
y="75" 
dx="0,0,0,-0.3,0,-0.9,0,0,-0.9,0,0,0,-0.9,0,0,0,0,-0.9,0,0,0,-0.9,0,0,0,-0.9,0,0,0,-0.3,0,0,0,0,-0.9,0,0,0,0,0,-0.9,0,0,0,0,-0.9,0,0,0,-0.9,0,0,0,-0.9,0,0,0,0,0,0,0,0,-0.9,0,0,0,0" 
class="s1_12"
>Here is the HTML for the improved page. Note the new elements like </text>

<path d="M523.5,70.1c0,-1.8,-0.7,-2.7,-2.2,-2.7c-0.9,0,-1.8,0.5,-2.6,1.4l0,-3.9l-1.2,0l0,10.5l1.2,0l0,-5.6c0.8,-0.9,1.6,-1.4,2.3,-1.4c0.5,0,0.8,0.2,1,0.5c0.3,0.3,0.4,0.8,0.4,1.5l0,5l1.1,0l0,-5.3Z" class="g5_12" />
<path d="M532.7,74.3l-2.1,0l0,-9.5l-1,0L527.3,66l0,1.2l2.1,-1.1l0,8.2l-2.2,0l0,1.1l5.5,0l0,-1.1Z" class="g5_12" />
<text 
x="515" 
y="75" 
dx="0,0" 
class="s2_12"
>h1</text>

<text 
x="534" 
y="75" 
dx="0,0" 
class="s1_12"
>, </text>

<path d="M549.5,70.1c0,-1.8,-0.7,-2.7,-2.2,-2.7c-0.9,0,-1.8,0.5,-2.6,1.4l0,-3.9l-1.2,0l0,10.5l1.2,0l0,-5.6c0.8,-0.9,1.6,-1.4,2.3,-1.4c0.4,0,0.8,0.2,1,0.5c0.2,0.3,0.3,0.8,0.3,1.5l0,5l1.2,0l0,-5.3Z" class="g5_12" />
<path d="M558.4,74.3l-4.4,0c1.3,-1.5,2.2,-2.5,2.7,-3.1c0.4,-0.5,0.8,-1.1,1.1,-1.7c0.3,-0.7,0.5,-1.3,0.5,-1.9c0,-0.9,-0.3,-1.6,-0.9,-2.1c-0.6,-0.6,-1.3,-0.8,-2.3,-0.8c-0.8,0,-1.6,0.1,-2.3,0.4l0.1,1.1c0.9,-0.3,1.5,-0.5,2,-0.5c0.7,0,1.2,0.2,1.5,0.5c0.4,0.4,0.5,0.8,0.5,1.4c0,0.6,-0.1,1.2,-0.4,1.9c-0.2,0.6,-0.6,1.2,-1,1.7c-0.5,0.6,-1.4,1.7,-2.9,3.3l0,0.9l5.8,0l0,-1.1Z" class="g5_12" />
<text 
x="541" 
y="75" 
dx="0,0" 
class="s2_12"
>h2</text>

<text 
x="563" 
y="75" 
dx="0,0,0,0" 
class="s1_12"
>and </text>

<path d="M600.4,67.8c-0.8,-0.3,-1.4,-0.4,-2.1,-0.4c-0.9,0,-1.7,0.2,-2.3,0.6c-0.6,0.4,-0.9,0.9,-0.9,1.6c0,0.3,0.1,0.6,0.2,0.9c0.1,0.2,0.3,0.4,0.6,0.6c0.2,0.2,0.5,0.3,0.7,0.4c0.3,0.1,0.8,0.2,1.4,0.4c0.7,0.2,1.2,0.5,1.4,0.7c0.2,0.2,0.3,0.4,0.3,0.7c0,0.4,-0.2,0.7,-0.6,1c-0.4,0.2,-0.9,0.3,-1.6,0.3c-0.7,0,-1.4,-0.1,-2.1,-0.4l-0.2,1c0.6,0.2,1.4,0.4,2.4,0.4c0.9,0,1.7,-0.2,2.3,-0.7c0.7,-0.4,1,-1,1,-1.7c0,-0.4,-0.1,-0.7,-0.3,-1c-0.1,-0.3,-0.4,-0.5,-0.7,-0.7c-0.3,-0.2,-0.7,-0.4,-1.3,-0.6l-1.1,-0.3c-0.5,-0.1,-0.8,-0.3,-1,-0.4c-0.2,-0.2,-0.2,-0.4,-0.2,-0.6c0,-0.4,0.1,-0.7,0.5,-0.9c0.4,-0.2,0.9,-0.3,1.5,-0.3c0.6,0,1.2,0.1,1.9,0.3l0.2,-0.9Z" class="g5_12" />
<path d="M610,74.1c-0.6,0.3,-1.2,0.5,-1.9,0.5c-0.3,0,-0.6,-0.2,-0.8,-0.4C607.1,73.9,607,73.5,607,73.1l0,-4.5l2.6,0l0,-1l-2.6,0l0,-2.1l-1.2,0l0,2.1l-1.5,0l0,1l1.5,0l0,4.8c0,1.4,0.7,2.2,2.1,2.2c0.8,0,1.5,-0.2,2.3,-0.6L610,74.1Z" class="g5_12" />
<path d="M617.7,67.4c-1,0,-1.8,0.6,-2.4,1.8l0,-1.6l-1.2,0l0,7.8l1.2,0l0,-5c0,-0.1,0.1,-0.3,0.4,-0.7c0.3,-0.3,0.6,-0.6,0.9,-0.8c0.3,-0.2,0.7,-0.3,1,-0.3c0.4,0,0.8,0.1,1.4,0.3l0.4,-1.1c-0.5,-0.2,-1.1,-0.4,-1.7,-0.4Z" class="g5_12" />
<path d="M622.9,68.5c-0.6,0.8,-0.9,1.8,-0.9,3c0,1.2,0.3,2.2,0.9,3c0.6,0.7,1.5,1.1,2.6,1.1c1,0,1.9,-0.4,2.5,-1.1c0.6,-0.8,1,-1.8,1,-3c0,-1.2,-0.4,-2.2,-1,-3c-0.6,-0.7,-1.5,-1.1,-2.5,-1.1c-1.1,0,-2,0.4,-2.6,1.1Zm0.9,5.2c-0.4,-0.6,-0.6,-1.3,-0.6,-2.2c0,-0.9,0.2,-1.6,0.6,-2.2c0.4,-0.6,0.9,-0.9,1.7,-0.9c0.7,0,1.2,0.3,1.6,0.9c0.4,0.6,0.6,1.3,0.6,2.2c0,0.9,-0.2,1.6,-0.6,2.2c-0.4,0.6,-0.9,0.9,-1.6,0.9c-0.8,0,-1.3,-0.3,-1.7,-0.9Z" class="g5_12" />
<path d="M637.6,70.1c0,-1.8,-0.7,-2.7,-2.1,-2.7c-1,0,-1.9,0.5,-2.7,1.4l0,-1.2l-1.2,0l0,7.8l1.2,0l0,-5.6c0.8,-0.9,1.6,-1.4,2.3,-1.4c0.5,0,0.8,0.2,1,0.5c0.3,0.3,0.4,0.8,0.4,1.5l0,5l1.1,0l0,-5.3Z" class="g5_12" />
<path d="M643.4,72.5c0.8,0,1.4,-0.3,1.9,-0.8c0.5,-0.4,0.7,-1,0.7,-1.7c0,-0.6,-0.1,-1,-0.3,-1.4l1.5,0l0,-1.2l-2.3,0.4c-0.4,-0.2,-0.9,-0.4,-1.5,-0.4c-0.7,0,-1.3,0.3,-1.8,0.7c-0.5,0.5,-0.8,1.1,-0.8,1.9c0,0.4,0.1,0.8,0.4,1.2c0.2,0.4,0.5,0.8,0.9,1c-0.9,0.5,-1.3,1,-1.3,1.5c0,0.5,0.3,0.9,1,1.2c-0.8,0.5,-1.3,1,-1.3,1.6c0,0.6,0.3,1.1,0.9,1.4c0.5,0.4,1.2,0.6,2.1,0.6c1,0,1.9,-0.3,2.7,-0.8c0.8,-0.5,1.2,-1.2,1.2,-2.1c0,-0.6,-0.2,-1,-0.5,-1.3c-0.4,-0.3,-0.8,-0.5,-1.5,-0.5l-2.6,0.1c-0.3,0,-0.5,0,-0.7,-0.1c-0.1,-0.1,-0.2,-0.3,-0.2,-0.4c0,-0.3,0.3,-0.6,1.1,-0.9c0.1,0,0.3,0,0.4,0Zm-1,-1.4C642.1,70.8,642,70.4,642,70c0,-0.5,0.1,-0.9,0.4,-1.2c0.3,-0.3,0.6,-0.4,1,-0.4c0.5,0,0.8,0.1,1.1,0.4c0.3,0.3,0.4,0.7,0.4,1.2c0,0.4,-0.2,0.8,-0.4,1.1c-0.3,0.3,-0.6,0.5,-1.1,0.5c-0.4,0,-0.7,-0.2,-1,-0.5Zm-0.3,6.1c-0.3,-0.2,-0.5,-0.4,-0.5,-0.7c0,-0.2,0.1,-0.4,0.2,-0.6c0.1,-0.2,0.3,-0.4,0.5,-0.5c0.3,-0.2,0.4,-0.3,0.6,-0.3c0.2,0,0.5,0,0.9,0c0.6,-0.1,1,-0.1,1.3,-0.1c0.8,0,1.1,0.3,1.1,0.8c0,0.5,-0.2,0.9,-0.8,1.3c-0.5,0.3,-1.2,0.5,-1.9,0.5c-0.6,0,-1,-0.1,-1.4,-0.4Z" class="g5_12" />
<text 
x="593" 
y="75" 
dx="0,0,0,0,0,0" 
class="s2_12"
>strong</text>

<text 
x="648" 
y="75" 
dx="0" 
class="s1_12"
>.</text>

<text 
x="56" 
y="118" 
dx="0,0,0,0,0,0,0,0,0,0,-1.8,0,0,0,0" 
class="s2_12"
>&lt;!DOCTYPE html&gt;</text>

<text 
x="56" 
y="139" 
dx="0,0,0,0,0,0" 
class="s2_12"
>&lt;html&gt;</text>

<text 
x="56" 
y="160" 
dx="0,0,0,0,0,0" 
class="s2_12"
>&lt;head&gt;</text>

<text 
x="56" 
y="182" 
dx="0,0,0,0,0,0,0,0,0,0,0,0,0,0,0,-1.8,0,-1.8,0,0,0,0,0,0,0,0,0,0,0,0,0,0" 
class="s2_12"
>&lt;title&gt;Playing a Concert&lt;/title&gt;</text>

<text 
x="56" 
y="203" 
dx="0,0,0,0,0,0,-1.8,0,0,0,0,0,0,0,0,0,0,0,0,0,0,0,-1.8,0,0,0,0,0,0,0,0,0,0,0,0,0,0,0,0,-1.8,0,0,0,0,0,0,0,0,0,0,0,0,0,0,0,0,0,0,0,0,0,0,0,0,0,0,0,0,0,0,0,0,0,0,0" 
class="s2_12"
>&lt;link type="text/css" rel="stylesheet" href="css/my-first-stylesheet.css"/&gt;</text>

<text 
x="56" 
y="225" 
dx="0,0,0,0,0,0,0" 
class="s2_12"
>&lt;/head&gt;</text>

<text 
x="56" 
y="246" 
dx="0,0,0,0,0,0" 
class="s2_12"
>&lt;body&gt;</text>

<path d="M63.6,265.2l-4.5,-2.7l4.5,-2.7l0,-1.1L58,262l0,0.9l5.6,3.4l0,-1.1Z" class="g5_12" />
<path d="M73.1,262.6c0,-1.8,-0.8,-2.7,-2.2,-2.7c-0.9,0,-1.8,0.5,-2.7,1.4l0,-3.9l-1.1,0l0,10.5l1.1,0l0,-5.6c0.9,-0.9,1.6,-1.4,2.3,-1.4c0.5,0,0.8,0.2,1.1,0.5c0.2,0.3,0.3,0.8,0.3,1.5l0,5l1.2,0l0,-5.3Z" class="g5_12" />
<path d="M82.2,266.8l-2.1,0l0,-9.5l-1,0l-2.3,1.2l0,1.2l2.1,-1.1l0,8.2l-2.2,0l0,1.1l5.5,0l0,-1.1Z" class="g5_12" />
<path d="M91.4,262l-5.6,-3.3l0,1.1l4.5,2.7l-4.5,2.7l0,1.1l5.6,-3.4l0,-0.9Z" class="g5_12" />
<text 
x="56" 
y="267" 
dx="0,0,0,0,0,0,0,0,0,0,0,0,-1.8,0,-1.8,0,0,0,0,0,0" 
class="s2_12"
>&lt;h1&gt;Playing a Concert</text>

<path d="M252.4,265.2L248,262.5l4.4,-2.7l0,-1.1l-5.5,3.3l0,0.9l5.5,3.4l0,-1.1Z" class="g5_12" />
<path d="M260.5,257.2l-4.6,10.9l1.1,0l4.6,-10.9l-1.1,0Z" class="g5_12" />
<path d="M271.1,262.6c0,-1.8,-0.7,-2.7,-2.2,-2.7c-0.9,0,-1.8,0.5,-2.6,1.4l0,-3.9l-1.2,0l0,10.5l1.2,0l0,-5.6c0.8,-0.9,1.5,-1.4,2.3,-1.4c0.4,0,0.8,0.2,1,0.5c0.2,0.3,0.3,0.8,0.3,1.5l0,5l1.2,0l0,-5.3Z" class="g5_12" />
<path d="M280.3,266.8l-2.1,0l0,-9.5l-1.1,0l-2.2,1.2l0,1.2l2.1,-1.1l0,8.2l-2.3,0l0,1.1l5.6,0l0,-1.1Z" class="g5_12" />
<path d="M289.4,262l-5.6,-3.3l0,1.1l4.5,2.7l-4.5,2.7l0,1.1l5.6,-3.4l0,-0.9Z" class="g5_12" />
<text 
x="245" 
y="267" 
dx="0,0,0,0,0" 
class="s2_12"
>&lt;/h1&gt;</text>

<path d="M63.6,286.6l-4.5,-2.7l4.5,-2.7l0,-1.1L58,283.4l0,0.9l5.6,3.4l0,-1.1Z" class="g5_12" />
<path d="M68.2,281.5l-1.1,0l0,10.9l1.1,0l0,-4.2c0.3,0.4,0.6,0.7,1,0.9c0.5,0.3,0.9,0.4,1.4,0.4c0.9,0,1.6,-0.4,2.1,-1.2c0.6,-0.8,0.8,-1.8,0.8,-3c0,-1.2,-0.2,-2.1,-0.7,-2.9c-0.5,-0.7,-1.2,-1.1,-2.1,-1.1c-0.5,0,-1,0.1,-1.4,0.3c-0.5,0.3,-0.8,0.6,-1.1,0.9l0,-1Zm2.1,0.8c0.7,0,1.1,0.3,1.5,0.9c0.4,0.5,0.5,1.3,0.5,2.2c0,0.8,-0.2,1.6,-0.5,2.2c-0.4,0.5,-0.9,0.8,-1.5,0.8c-0.4,0,-0.8,-0.1,-1.2,-0.4c-0.4,-0.3,-0.6,-0.7,-0.9,-1.1l0,-3.2c0.6,-0.9,1.3,-1.4,2.1,-1.4Z" class="g5_12" />
<path d="M82.2,283.4l-5.6,-3.3l0,1.1l4.5,2.7l-4.5,2.7l0,1.1l5.6,-3.4l0,-0.9Z" class="g5_12" />
<text 
x="56" 
y="289" 
dx="0,0,0,0,0,0,0,0,0,0,0,1,0,1,0,0,0,0,0,0,0,1,0,0,0,1,0,0,1,0,0,0,0,0,1,0,0,0,0,1,0,0,1,0,0,1,0,0,0,1,0,0,1,0,0,0,0,0,0,0,1,0,0,0,0,0,0,1,0,0,0,0,0,0,0,0,0" 
class="s2_12"
>&lt;p&gt;Playing a concert can be great fun! Or it can be totally scary! Sometimes </text>

<text 
x="56" 
y="310" 
dx="0,0,0,0,0,-1.8,0,0,-1.8,0,0,0,-1.8,0,0,0,0,-1.8,0,0,0,0" 
class="s2_12"
>both at the same time.</text>

<path d="M257.9,308l-4.4,-2.7l4.4,-2.7l0,-1.1l-5.5,3.3l0,0.9l5.5,3.4l0,-1.1Z" class="g5_12" />
<path d="M262.6,302.9l-1.2,0l0,10.8l1.2,0l0,-4.2c0.2,0.4,0.6,0.8,1,1c0.4,0.2,0.9,0.4,1.3,0.4c1,0,1.7,-0.4,2.2,-1.2c0.5,-0.8,0.8,-1.8,0.8,-3c0,-1.2,-0.2,-2.1,-0.8,-2.9c-0.5,-0.7,-1.2,-1.1,-2.1,-1.1c-0.4,0,-0.9,0.1,-1.4,0.3c-0.4,0.3,-0.7,0.5,-1,0.9l0,-1Zm2.1,0.8c0.6,0,1.1,0.3,1.5,0.9c0.3,0.5,0.5,1.3,0.5,2.2c0,0.8,-0.2,1.6,-0.6,2.1c-0.3,0.6,-0.8,0.9,-1.5,0.9c-0.4,0,-0.7,-0.1,-1.1,-0.4c-0.4,-0.3,-0.7,-0.7,-0.9,-1.1l0,-3.2c0.6,-0.9,1.3,-1.4,2.1,-1.4Z" class="g5_12" />
<path d="M276.6,304.8L271,301.5l0,1.1l4.5,2.7L271,308l0,1.1l5.6,-3.4l0,-0.9Z" class="g5_12" />
<text 
x="250" 
y="310" 
dx="0,0,0" 
class="s2_12"
>&lt;p&gt;</text>

<path d="M63.6,329.4l-4.5,-2.7L63.6,324l0,-1.1L58,326.2l0,0.9l5.6,3.4l0,-1.1Z" class="g5_12" />
<path d="M68.2,324.3l-1.1,0l0,10.8l1.1,0l0,-4.2c0.3,0.4,0.6,0.8,1,1c0.5,0.2,0.9,0.4,1.4,0.4c0.9,0,1.6,-0.4,2.1,-1.2c0.6,-0.8,0.8,-1.8,0.8,-3c0,-1.2,-0.2,-2.2,-0.7,-2.9c-0.5,-0.7,-1.2,-1.1,-2.1,-1.1c-0.5,0,-1,0.1,-1.4,0.3c-0.5,0.2,-0.8,0.5,-1.1,0.9l0,-1Zm2.1,0.8c0.7,0,1.1,0.3,1.5,0.9c0.4,0.5,0.5,1.3,0.5,2.1c0,0.9,-0.2,1.6,-0.5,2.2c-0.4,0.6,-0.9,0.9,-1.5,0.9c-0.4,0,-0.8,-0.1,-1.2,-0.4c-0.4,-0.3,-0.6,-0.7,-0.9,-1.1l0,-3.3c0.6,-0.8,1.3,-1.3,2.1,-1.3Z" class="g5_12" />
<path d="M82.2,326.2l-5.6,-3.3l0,1.1l4.5,2.7l-4.5,2.7l0,1.1l5.6,-3.4l0,-0.9Z" class="g5_12" />
<text 
x="56" 
y="332" 
dx="0,0,0,0,0,0,-1.8,0,0,0,0,0,-1.8,0,0,0,-1.8,0,0,0,0,0,0,0,0,-1.8,0,-1.8,0,0,0,0,-1.8,0,0,-1.8,0,0,0,-1.8,0,0,0,-1.8,0,0,0,0,-1.8,0,0,0,-1.8,0,0,0,0,0,-1.8,0,0,0,0,0,0,0,0" 
class="s2_12"
>&lt;p&gt;So we've put together a list of our top tips for great concerts.</text>

<path d="M655.8,329.4l-4.4,-2.7l4.4,-2.7l0,-1.1l-5.5,3.3l0,0.9l5.5,3.4l0,-1.1Z" class="g5_12" />
<path d="M663.9,321.3l-4.6,11l1.1,0l4.6,-11l-1.1,0Z" class="g5_12" />
<path d="M669.7,324.3l-1.2,0l0,10.8l1.2,0l0,-4.2c0.2,0.4,0.5,0.8,1,1c0.4,0.2,0.8,0.4,1.3,0.4c0.9,0,1.6,-0.4,2.2,-1.2c0.5,-0.8,0.8,-1.8,0.8,-3c0,-1.2,-0.3,-2.2,-0.8,-2.9c-0.5,-0.7,-1.2,-1.1,-2.1,-1.1c-0.5,0,-0.9,0.1,-1.4,0.3c-0.4,0.2,-0.8,0.5,-1,0.9l0,-1Zm2.1,0.8c0.6,0,1.1,0.3,1.4,0.9c0.4,0.5,0.6,1.3,0.6,2.1c0,0.9,-0.2,1.6,-0.6,2.2c-0.4,0.6,-0.9,0.9,-1.5,0.9c-0.4,0,-0.8,-0.1,-1.1,-0.4c-0.4,-0.3,-0.7,-0.7,-0.9,-1.1l0,-3.3c0.5,-0.8,1.2,-1.3,2.1,-1.3Z" class="g5_12" />
<path d="M683.6,326.2l-5.5,-3.3l0,1.1l4.4,2.7l-4.4,2.7l0,1.1l5.5,-3.4l0,-0.9Z" class="g5_12" />
<text 
x="648" 
y="332" 
dx="0,0,0,0" 
class="s2_12"
>&lt;/p&gt;</text>

<path d="M63.6,350.7l-4.5,-2.6l4.5,-2.7l0,-1.1L58,347.6l0,0.9l5.6,3.3l0,-1.1Z" class="g5_12" />
<path d="M73.1,348.1c0,-1.7,-0.8,-2.6,-2.2,-2.6c-0.9,0,-1.8,0.4,-2.7,1.3l0,-3.9l-1.1,0l0,10.5l1.1,0l0,-5.6c0.9,-0.9,1.6,-1.3,2.3,-1.3c0.5,0,0.8,0.1,1.1,0.5c0.2,0.3,0.3,0.8,0.3,1.5l0,4.9l1.2,0l0,-5.3Z" class="g5_12" />
<path d="M82,352.4l-4.5,0c1.4,-1.5,2.3,-2.5,2.7,-3.1c0.5,-0.6,0.9,-1.2,1.2,-1.8c0.3,-0.6,0.4,-1.2,0.4,-1.9c0,-0.8,-0.3,-1.6,-0.9,-2.1c-0.5,-0.5,-1.3,-0.8,-2.2,-0.8c-0.8,0,-1.6,0.2,-2.4,0.5l0.2,1c0.8,-0.3,1.5,-0.4,2,-0.4c0.6,0,1.1,0.2,1.5,0.5c0.3,0.3,0.5,0.8,0.5,1.4c0,0.6,-0.1,1.2,-0.4,1.8c-0.3,0.6,-0.6,1.2,-1.1,1.8c-0.4,0.5,-1.4,1.6,-2.8,3.3l0,0.8l5.8,0l0,-1Z" class="g5_12" />
<path d="M91.4,347.6l-5.6,-3.3l0,1.1l4.5,2.7l-4.5,2.6l0,1.1l5.6,-3.3l0,-0.9Z" class="g5_12" />
<text 
x="56" 
y="353" 
dx="0,0,0,0,0,0,0,0,0,-1.8,0,0,0,-1.8,0,-1.8,0,0,0,0,0,0,0" 
class="s2_12"
>&lt;h2&gt;Copy out a set-list</text>

<path d="M268.9,350.7l-4.4,-2.6l4.4,-2.7l0,-1.1l-5.5,3.3l0,0.9l5.5,3.3l0,-1.1Z" class="g5_12" />
<path d="M277,342.7l-4.6,10.9l1.1,0l4.6,-10.9l-1.1,0Z" class="g5_12" />
<path d="M287.6,348.1c0,-1.7,-0.7,-2.6,-2.2,-2.6c-0.9,0,-1.8,0.4,-2.6,1.3l0,-3.9l-1.2,0l0,10.5l1.2,0l0,-5.6c0.8,-0.9,1.5,-1.3,2.3,-1.3c0.4,0,0.8,0.1,1,0.5c0.2,0.3,0.3,0.8,0.3,1.5l0,4.9l1.2,0l0,-5.3Z" class="g5_12" />
<path d="M296.5,352.4l-4.4,0c1.3,-1.5,2.2,-2.5,2.7,-3.1c0.4,-0.6,0.8,-1.2,1.1,-1.8c0.3,-0.6,0.4,-1.2,0.4,-1.9c0,-0.8,-0.2,-1.6,-0.8,-2.1c-0.6,-0.5,-1.4,-0.8,-2.3,-0.8c-0.8,0,-1.6,0.2,-2.4,0.5l0.2,1c0.9,-0.3,1.5,-0.4,2,-0.4c0.6,0,1.1,0.2,1.5,0.5c0.4,0.3,0.5,0.8,0.5,1.4c0,0.6,-0.1,1.2,-0.4,1.8c-0.3,0.6,-0.6,1.2,-1,1.8c-0.5,0.5,-1.4,1.6,-2.9,3.3l0,0.8l5.8,0l0,-1Z" class="g5_12" />
<path d="M305.9,347.6l-5.6,-3.3l0,1.1l4.5,2.7l-4.5,2.6l0,1.1l5.6,-3.3l0,-0.9Z" class="g5_12" />
<text 
x="261" 
y="353" 
dx="0,0,0,0,0" 
class="s2_12"
>&lt;/h2&gt;</text>

<path d="M63.6,372.1l-4.5,-2.6l4.5,-2.8l0,-1L58,369l0,0.9l5.6,3.3l0,-1.1Z" class="g5_12" />
<path d="M68.2,367.1l-1.1,0l0,10.8l1.1,0l0,-4.2c0.3,0.4,0.6,0.7,1,1c0.5,0.2,0.9,0.3,1.4,0.3c0.9,0,1.6,-0.4,2.1,-1.2c0.6,-0.7,0.8,-1.7,0.8,-2.9c0,-1.2,-0.2,-2.2,-0.7,-2.9c-0.5,-0.8,-1.2,-1.1,-2.1,-1.1c-0.5,0,-1,0.1,-1.4,0.3c-0.5,0.2,-0.8,0.5,-1.1,0.9l0,-1Zm2.1,0.8c0.7,0,1.1,0.3,1.5,0.8c0.4,0.6,0.5,1.3,0.5,2.2c0,0.9,-0.2,1.6,-0.5,2.2c-0.4,0.6,-0.9,0.9,-1.5,0.9c-0.4,0,-0.8,-0.2,-1.2,-0.4c-0.4,-0.3,-0.6,-0.7,-0.9,-1.1l0,-3.3c0.6,-0.9,1.3,-1.3,2.1,-1.3Z" class="g5_12" />
<path d="M82.2,369l-5.6,-3.3l0,1l4.5,2.8l-4.5,2.6l0,1.1l5.6,-3.3l0,-0.9Z" class="g5_12" />
<text 
x="56" 
y="374" 
dx="0,0,0,0,0" 
class="s2_12"
>&lt;p&gt;A </text>

<path d="M109.4,372.1l-4.5,-2.6l4.5,-2.8l0,-1l-5.6,3.3l0,0.9l5.6,3.3l0,-1.1Z" class="g5_12" />
<path d="M118.4,367.2c-0.8,-0.2,-1.5,-0.3,-2.1,-0.3c-1,0,-1.8,0.2,-2.4,0.6c-0.6,0.4,-0.9,0.9,-0.9,1.6c0,0.3,0.1,0.5,0.2,0.8c0.2,0.2,0.4,0.5,0.6,0.6c0.2,0.2,0.5,0.4,0.8,0.4c0.3,0.1,0.7,0.3,1.3,0.5c0.8,0.2,1.2,0.4,1.4,0.6c0.2,0.2,0.3,0.5,0.3,0.7c0,0.4,-0.2,0.8,-0.6,1c-0.4,0.2,-0.9,0.4,-1.5,0.4c-0.8,0,-1.5,-0.2,-2.1,-0.5l-0.3,1c0.7,0.3,1.4,0.4,2.4,0.4c1,0,1.7,-0.2,2.4,-0.6c0.6,-0.4,0.9,-1,0.9,-1.8c0,-0.3,-0.1,-0.7,-0.2,-1c-0.2,-0.2,-0.4,-0.5,-0.8,-0.7c-0.3,-0.2,-0.7,-0.4,-1.2,-0.5l-1.1,-0.3c-0.5,-0.2,-0.9,-0.3,-1,-0.5c-0.2,-0.2,-0.3,-0.4,-0.3,-0.6c0,-0.3,0.2,-0.6,0.6,-0.8c0.3,-0.2,0.8,-0.3,1.5,-0.3c0.5,0,1.1,0.1,1.8,0.3l0.3,-1Z" class="g5_12" />
<path d="M127.9,373.6c-0.6,0.3,-1.2,0.4,-1.8,0.4c-0.4,0,-0.7,-0.1,-0.9,-0.4c-0.2,-0.2,-0.3,-0.6,-0.3,-1.1l0,-4.4l2.6,0l0,-1l-2.6,0l0,-2.2l-1.1,0l0,2.2l-1.5,0l0,1l1.5,0l0,4.7c0,1.5,0.7,2.2,2,2.2c0.8,0,1.6,-0.2,2.3,-0.5l-0.2,-0.9Z" class="g5_12" />
<path d="M135.7,366.9c-1,0,-1.8,0.6,-2.5,1.7l0,-1.5l-1.1,0l0,7.7l1.1,0l0,-5c0,0,0.2,-0.2,0.5,-0.6c0.2,-0.4,0.5,-0.7,0.9,-0.9c0.3,-0.1,0.6,-0.2,1,-0.2c0.3,0,0.8,0.1,1.3,0.3l0.5,-1.1c-0.6,-0.3,-1.2,-0.4,-1.7,-0.4Z" class="g5_12" />
<path d="M140.8,368c-0.6,0.7,-0.9,1.7,-0.9,2.9c0,1.3,0.3,2.3,0.9,3c0.7,0.8,1.5,1.1,2.6,1.1c1.1,0,1.9,-0.3,2.5,-1.1c0.7,-0.7,1,-1.7,1,-3c0,-1.2,-0.3,-2.2,-1,-2.9c-0.6,-0.8,-1.4,-1.1,-2.5,-1.1c-1.1,0,-1.9,0.3,-2.6,1.1Zm0.9,5.1c-0.4,-0.6,-0.6,-1.3,-0.6,-2.1c0,-1,0.2,-1.7,0.6,-2.3c0.4,-0.5,1,-0.8,1.7,-0.8c0.7,0,1.3,0.3,1.7,0.8c0.4,0.6,0.6,1.4,0.6,2.3c0,0.8,-0.2,1.5,-0.6,2.1c-0.4,0.6,-1,0.9,-1.7,0.9c-0.7,0,-1.3,-0.3,-1.7,-0.9Z" class="g5_12" />
<path d="M155.6,369.5c0,-1.7,-0.8,-2.6,-2.2,-2.6c-0.9,0,-1.8,0.4,-2.6,1.3l0,-1.1l-1.2,0l0,7.7l1.2,0l0,-5.6c0.8,-0.9,1.5,-1.3,2.2,-1.3c0.5,0,0.9,0.1,1.1,0.4c0.2,0.4,0.3,0.9,0.3,1.6l0,4.9l1.2,0l0,-5.3Z" class="g5_12" />
<path d="M161.4,371.9c0.7,0,1.3,-0.2,1.8,-0.7c0.5,-0.5,0.8,-1.1,0.8,-1.8c0,-0.5,-0.1,-1,-0.4,-1.4l1.5,0l0,-1.1l-2.3,0.3c-0.4,-0.2,-0.9,-0.3,-1.4,-0.3c-0.8,0,-1.4,0.2,-1.9,0.7c-0.5,0.5,-0.7,1.1,-0.7,1.8c0,0.4,0.1,0.9,0.3,1.3c0.2,0.4,0.5,0.7,1,1c-1,0.4,-1.4,0.9,-1.4,1.5c0,0.5,0.3,0.9,1,1.2c-0.8,0.4,-1.2,0.9,-1.2,1.6c0,0.5,0.3,1,0.8,1.4c0.5,0.3,1.3,0.5,2.1,0.5c1.1,0,2,-0.3,2.8,-0.8c0.8,-0.5,1.1,-1.2,1.1,-2.1c0,-0.5,-0.1,-1,-0.5,-1.3c-0.3,-0.3,-0.8,-0.4,-1.4,-0.4l-2.6,0c-0.3,0,-0.6,0,-0.7,-0.1c-0.2,-0.1,-0.3,-0.2,-0.3,-0.4c0,-0.2,0.4,-0.5,1.1,-0.9c0.2,0,0.3,0,0.5,0Zm-1.1,-1.3c-0.3,-0.3,-0.4,-0.7,-0.4,-1.2c0,-0.5,0.1,-0.9,0.4,-1.1c0.3,-0.3,0.7,-0.5,1.1,-0.5c0.4,0,0.8,0.1,1,0.4c0.3,0.3,0.4,0.7,0.4,1.2c0,0.5,-0.1,0.9,-0.4,1.2c-0.3,0.3,-0.6,0.4,-1,0.4c-0.4,0,-0.8,-0.1,-1.1,-0.4Zm-0.2,6.1c-0.4,-0.2,-0.5,-0.5,-0.5,-0.8c0,-0.2,0,-0.4,0.2,-0.6c0.1,-0.1,0.3,-0.3,0.5,-0.5c0.2,-0.2,0.4,-0.3,0.5,-0.3c0.2,0,0.5,0,0.9,0c0.6,0,1.1,0,1.3,0c0.8,0,1.2,0.2,1.2,0.7c0,0.5,-0.3,1,-0.8,1.3c-0.6,0.3,-1.2,0.5,-2,0.5c-0.5,0,-1,-0.1,-1.3,-0.3Z" class="g5_12" />
<path d="M173.9,369l-5.6,-3.3l0,1l4.5,2.8l-4.5,2.6l0,1.1l5.6,-3.3l0,-0.9Z" class="g5_12" />
<text 
x="102" 
y="374" 
dx="0,0,0,0,0,0,0,0,0,0,0,0,0,0,0,0" 
class="s2_12"
>&lt;strong&gt;set-list</text>

<path d="M256.1,372.1l-4.5,-2.6l4.5,-2.8l0,-1l-5.6,3.3l0,0.9l5.6,3.3l0,-1.1Z" class="g5_12" />
<path d="M264.2,364.1L259.6,375l1.1,0l4.6,-10.9l-1.1,0Z" class="g5_12" />
<path d="M274.2,367.2c-0.8,-0.2,-1.4,-0.3,-2.1,-0.3c-0.9,0,-1.7,0.2,-2.3,0.6c-0.6,0.4,-0.9,0.9,-0.9,1.6c0,0.3,0.1,0.5,0.2,0.8c0.1,0.2,0.3,0.5,0.6,0.6c0.2,0.2,0.5,0.4,0.7,0.4c0.3,0.1,0.8,0.3,1.4,0.5c0.7,0.2,1.2,0.4,1.4,0.6c0.2,0.2,0.3,0.5,0.3,0.7c0,0.4,-0.2,0.8,-0.6,1c-0.4,0.2,-0.9,0.4,-1.6,0.4c-0.7,0,-1.4,-0.2,-2.1,-0.5l-0.2,1c0.6,0.3,1.4,0.4,2.4,0.4c0.9,0,1.7,-0.2,2.3,-0.6c0.7,-0.4,1,-1,1,-1.8c0,-0.3,-0.1,-0.7,-0.3,-1c-0.1,-0.2,-0.4,-0.5,-0.7,-0.7c-0.3,-0.2,-0.8,-0.4,-1.3,-0.5l-1.1,-0.3c-0.5,-0.2,-0.8,-0.3,-1,-0.5c-0.2,-0.2,-0.2,-0.4,-0.2,-0.6c0,-0.3,0.1,-0.6,0.5,-0.8c0.4,-0.2,0.9,-0.3,1.5,-0.3c0.6,0,1.2,0.1,1.9,0.3l0.2,-1Z" class="g5_12" />
<path d="M283.8,373.6c-0.6,0.3,-1.2,0.4,-1.9,0.4c-0.3,0,-0.6,-0.1,-0.8,-0.4c-0.2,-0.2,-0.3,-0.6,-0.3,-1.1l0,-4.4l2.6,0l0,-1l-2.6,0l0,-2.2l-1.2,0l0,2.2l-1.5,0l0,1l1.5,0l0,4.7c0,1.5,0.7,2.2,2.1,2.2c0.8,0,1.5,-0.2,2.3,-0.5l-0.2,-0.9Z" class="g5_12" />
<path d="M291.5,366.9c-1,0,-1.8,0.6,-2.4,1.7l0,-1.5l-1.2,0l0,7.7l1.2,0l0,-5c0,0,0.1,-0.2,0.4,-0.6c0.3,-0.4,0.6,-0.7,0.9,-0.9c0.3,-0.1,0.7,-0.2,1,-0.2c0.4,0,0.8,0.1,1.4,0.3l0.4,-1.1c-0.5,-0.3,-1.1,-0.4,-1.7,-0.4Z" class="g5_12" />
<path d="M296.7,368c-0.6,0.7,-0.9,1.7,-0.9,2.9c0,1.3,0.3,2.3,0.9,3c0.6,0.8,1.5,1.1,2.6,1.1c1,0,1.9,-0.3,2.5,-1.1c0.6,-0.7,1,-1.7,1,-3c0,-1.2,-0.4,-2.2,-1,-2.9c-0.6,-0.8,-1.5,-1.1,-2.5,-1.1c-1.1,0,-2,0.3,-2.6,1.1Zm0.9,5.1C297.2,372.5,297,371.8,297,371c0,-1,0.2,-1.7,0.6,-2.3c0.4,-0.5,0.9,-0.8,1.7,-0.8c0.7,0,1.2,0.3,1.6,0.8c0.4,0.6,0.6,1.4,0.6,2.3c0,0.8,-0.2,1.5,-0.6,2.1c-0.4,0.6,-0.9,0.9,-1.6,0.9c-0.8,0,-1.3,-0.3,-1.7,-0.9Z" class="g5_12" />
<path d="M311.4,369.5c0,-1.7,-0.7,-2.6,-2.1,-2.6c-1,0,-1.9,0.4,-2.7,1.3l0,-1.1l-1.2,0l0,7.7l1.2,0l0,-5.6c0.8,-0.9,1.6,-1.3,2.3,-1.3c0.5,0,0.8,0.1,1,0.4c0.3,0.4,0.4,0.9,0.4,1.6l0,4.9l1.1,0l0,-5.3Z" class="g5_12" />
<path d="M317.2,371.9c0.8,0,1.4,-0.2,1.9,-0.7c0.5,-0.5,0.7,-1.1,0.7,-1.8c0,-0.5,-0.1,-1,-0.3,-1.4l1.5,0l0,-1.1l-2.3,0.3c-0.5,-0.2,-0.9,-0.3,-1.5,-0.3c-0.7,0,-1.3,0.2,-1.8,0.7c-0.5,0.5,-0.8,1.1,-0.8,1.8c0,0.4,0.1,0.9,0.4,1.3c0.2,0.4,0.5,0.7,0.9,1c-0.9,0.4,-1.3,0.9,-1.3,1.5c0,0.5,0.3,0.9,1,1.2c-0.8,0.4,-1.3,0.9,-1.3,1.6c0,0.5,0.3,1,0.9,1.4c0.5,0.3,1.2,0.5,2.1,0.5c1,0,1.9,-0.3,2.7,-0.8c0.8,-0.5,1.2,-1.2,1.2,-2.1c0,-0.5,-0.2,-1,-0.5,-1.3c-0.4,-0.3,-0.8,-0.4,-1.5,-0.4l-2.6,0c-0.3,0,-0.5,0,-0.7,-0.1c-0.1,-0.1,-0.2,-0.2,-0.2,-0.4c0,-0.2,0.3,-0.5,1.1,-0.9c0.1,0,0.3,0,0.4,0Zm-1,-1.3c-0.3,-0.3,-0.4,-0.7,-0.4,-1.2c0,-0.5,0.1,-0.9,0.4,-1.1c0.3,-0.3,0.6,-0.5,1,-0.5c0.5,0,0.8,0.1,1.1,0.4c0.2,0.3,0.4,0.7,0.4,1.2c0,0.5,-0.2,0.9,-0.4,1.2c-0.3,0.3,-0.6,0.4,-1.1,0.4c-0.4,0,-0.7,-0.1,-1,-0.4Zm-0.3,6.1c-0.3,-0.2,-0.5,-0.5,-0.5,-0.8c0,-0.2,0.1,-0.4,0.2,-0.6c0.1,-0.1,0.3,-0.3,0.5,-0.5c0.3,-0.2,0.4,-0.3,0.6,-0.3c0.2,0,0.5,0,0.9,0c0.6,0,1,0,1.3,0c0.8,0,1.1,0.2,1.1,0.7c0,0.5,-0.2,1,-0.8,1.3c-0.5,0.3,-1.2,0.5,-1.9,0.5c-0.6,0,-1,-0.1,-1.4,-0.3Z" class="g5_12" />
<path d="M329.7,369l-5.5,-3.3l0,1l4.4,2.8l-4.4,2.6l0,1.1l5.5,-3.3l0,-0.9Z" class="g5_12" />
<text 
x="248" 
y="374" 
dx="0,0,0,0,0,0,0,0,0" 
class="s2_12"
>&lt;/strong&gt;</text>

<text 
x="335" 
y="374" 
dx="0,0,0,0,0,0,0,0,0,0,0,0,0,0,0,0,0,0,0,0,0,0,0,0,0,0,0,0,0,0,0,0,0,0,0,0,0,0,0,0,0,0,0,0,0,0,0,0" 
class="s2_12"
>is a list of all your songs in the order you'll </text>

<text 
x="56" 
y="396" 
dx="0,0,0,0,0,-1.8,0,0,0,0" 
class="s2_12"
>play them.</text>

<path d="M153.4,393.5l-4.5,-2.6l4.5,-2.8l0,-1l-5.6,3.3l0,0.9l5.6,3.3l0,-1.1Z" class="g5_12" />
<path d="M161.5,385.5l-4.6,10.9l1.1,0l4.6,-10.9l-1.1,0Z" class="g5_12" />
<path d="M167.3,388.5l-1.2,0l0,10.8l1.2,0l0,-4.2c0.2,0.4,0.5,0.7,0.9,1c0.5,0.2,0.9,0.3,1.4,0.3c0.9,0,1.6,-0.4,2.2,-1.2c0.5,-0.8,0.8,-1.8,0.8,-2.9c0,-1.2,-0.3,-2.2,-0.8,-2.9c-0.5,-0.8,-1.2,-1.1,-2.1,-1.1c-0.5,0,-1,0.1,-1.4,0.3c-0.4,0.2,-0.8,0.5,-1,0.9l0,-1Zm2,0.8c0.7,0,1.2,0.3,1.5,0.8c0.4,0.6,0.5,1.3,0.5,2.2c0,0.9,-0.1,1.6,-0.5,2.2c-0.4,0.6,-0.9,0.9,-1.5,0.9c-0.4,0,-0.8,-0.2,-1.2,-0.5c-0.3,-0.3,-0.6,-0.6,-0.8,-1.1l0,-3.2c0.5,-0.9,1.2,-1.3,2,-1.3Z" class="g5_12" />
<path d="M181.2,390.4l-5.6,-3.3l0,1l4.5,2.8l-4.5,2.6l0,1.1l5.6,-3.3l0,-0.9Z" class="g5_12" />
<text 
x="146" 
y="396" 
dx="0,0,0,0" 
class="s2_12"
>&lt;/p&gt;</text>

<path d="M63.6,414.9l-4.5,-2.7l4.5,-2.7l0,-1.1L58,411.8l0,0.9l5.6,3.3l0,-1.1Z" class="g5_12" />
<path d="M68.2,409.8l-1.1,0l0,10.9l1.1,0l0,-4.2c0.3,0.4,0.6,0.7,1,1c0.5,0.2,0.9,0.3,1.4,0.3c0.9,0,1.6,-0.4,2.1,-1.2c0.6,-0.8,0.8,-1.8,0.8,-3c0,-1.1,-0.2,-2.1,-0.7,-2.8c-0.5,-0.8,-1.2,-1.1,-2.1,-1.1c-0.5,0,-1,0.1,-1.4,0.3c-0.5,0.2,-0.8,0.5,-1.1,0.8l0,-1Zm2.1,0.9c0.7,0,1.1,0.2,1.5,0.8c0.4,0.6,0.5,1.3,0.5,2.2c0,0.9,-0.2,1.6,-0.5,2.2c-0.4,0.6,-0.9,0.9,-1.5,0.9c-0.4,0,-0.8,-0.2,-1.2,-0.5c-0.4,-0.3,-0.6,-0.6,-0.9,-1.1l0,-3.2c0.6,-0.9,1.3,-1.3,2.1,-1.3Z" class="g5_12" />
<path d="M82.2,411.8l-5.6,-3.4l0,1.1l4.5,2.7l-4.5,2.7l0,1.1l5.6,-3.3l0,-0.9Z" class="g5_12" />
<text 
x="56" 
y="417" 
dx="0,0,0,0,0,0,0,0,-1.8,0,0,0,0,0,0,-1.8,0,0,0,-1.8,0,0,0,0,0,0,0,0" 
class="s2_12"
>&lt;p&gt;Make copies for everyone.</text>

<path d="M314.8,414.9l-4.5,-2.7l4.5,-2.7l0,-1.1l-5.6,3.4l0,0.9l5.6,3.3l0,-1.1Z" class="g5_12" />
<path d="M322.8,406.9l-4.5,10.9l1.1,0l4.5,-10.9l-1.1,0Z" class="g5_12" />
<path d="M328.6,409.8l-1.2,0l0,10.9l1.2,0l0,-4.2c0.3,0.4,0.6,0.7,1,1c0.4,0.2,0.9,0.3,1.4,0.3c0.9,0,1.6,-0.4,2.1,-1.2c0.6,-0.8,0.8,-1.8,0.8,-3c0,-1.1,-0.2,-2.1,-0.7,-2.8c-0.6,-0.8,-1.3,-1.1,-2.1,-1.1c-0.5,0,-1,0.1,-1.4,0.3c-0.5,0.2,-0.8,0.5,-1.1,0.8l0,-1Zm2.1,0.9c0.6,0,1.1,0.2,1.5,0.8c0.3,0.6,0.5,1.3,0.5,2.2c0,0.9,-0.2,1.6,-0.5,2.2c-0.4,0.6,-0.9,0.9,-1.5,0.9c-0.4,0,-0.8,-0.2,-1.2,-0.5c-0.4,-0.3,-0.7,-0.6,-0.9,-1.1l0,-3.2c0.6,-0.9,1.3,-1.3,2.1,-1.3Z" class="g5_12" />
<path d="M342.6,411.8L337,408.4l0,1.1l4.5,2.7l-4.5,2.7l0,1.1l5.6,-3.3l0,-0.9Z" class="g5_12" />
<text 
x="307" 
y="417" 
dx="0,0,0,0" 
class="s2_12"
>&lt;/p&gt;</text>

<path d="M63.6,436.3l-4.5,-2.7l4.5,-2.7l0,-1.1L58,433.2l0,0.8l5.6,3.4l0,-1.1Z" class="g5_12" />
<path d="M68.2,431.2l-1.1,0l0,10.9l1.1,0l0,-4.2c0.3,0.4,0.6,0.7,1,0.9c0.5,0.3,0.9,0.4,1.4,0.4c0.9,0,1.6,-0.4,2.1,-1.2c0.6,-0.8,0.8,-1.8,0.8,-3c0,-1.2,-0.2,-2.1,-0.7,-2.9C72.3,431.4,71.6,431,70.7,431c-0.5,0,-1,0.2,-1.4,0.4c-0.5,0.2,-0.8,0.5,-1.1,0.8l0,-1Zm2.1,0.8c0.7,0,1.1,0.3,1.5,0.9c0.4,0.6,0.5,1.3,0.5,2.2c0,0.9,-0.2,1.6,-0.5,2.2c-0.4,0.6,-0.9,0.9,-1.5,0.9c-0.4,0,-0.8,-0.2,-1.2,-0.5c-0.4,-0.3,-0.6,-0.6,-0.9,-1.1l0,-3.2c0.6,-0.9,1.3,-1.4,2.1,-1.4Z" class="g5_12" />
<path d="M82.2,433.2l-5.6,-3.4l0,1.1l4.5,2.7l-4.5,2.7l0,1.1L82.2,434l0,-0.8Z" class="g5_12" />
<text 
x="56" 
y="439" 
dx="0,0,0,0,0,0,0,0,0,-1.1,0,0" 
class="s2_12"
>&lt;p&gt;Print it </text>

<path d="M171.4,436.3L167,433.6l4.4,-2.7l0,-1.1l-5.6,3.4l0,0.8l5.6,3.4l0,-1.1Z" class="g5_12" />
<path d="M180.4,431.4c-0.8,-0.3,-1.5,-0.4,-2.1,-0.4c-1,0,-1.8,0.2,-2.4,0.6c-0.5,0.4,-0.8,1,-0.8,1.6c0,0.3,0,0.6,0.2,0.9c0.1,0.2,0.3,0.4,0.5,0.6c0.3,0.2,0.5,0.3,0.8,0.4c0.3,0.1,0.7,0.2,1.3,0.4c0.8,0.3,1.2,0.5,1.4,0.7c0.2,0.2,0.3,0.4,0.3,0.7c0,0.4,-0.2,0.7,-0.6,1c-0.4,0.2,-0.9,0.3,-1.5,0.3c-0.8,0,-1.5,-0.1,-2.1,-0.4l-0.3,1c0.7,0.3,1.5,0.4,2.4,0.4c1,0,1.8,-0.2,2.4,-0.6c0.6,-0.5,0.9,-1.1,0.9,-1.8c0,-0.4,-0.1,-0.7,-0.2,-1c-0.2,-0.3,-0.4,-0.5,-0.8,-0.7c-0.3,-0.2,-0.7,-0.4,-1.2,-0.5l-1.1,-0.4c-0.5,-0.1,-0.9,-0.3,-1,-0.4c-0.2,-0.2,-0.3,-0.4,-0.3,-0.6c0,-0.4,0.2,-0.7,0.6,-0.9c0.3,-0.2,0.8,-0.3,1.5,-0.3c0.5,0,1.2,0.1,1.8,0.3l0.3,-0.9Z" class="g5_12" />
<path d="M190,437.7c-0.7,0.3,-1.3,0.5,-1.9,0.5c-0.4,0,-0.7,-0.2,-0.9,-0.4c-0.2,-0.3,-0.3,-0.6,-0.3,-1.1l0,-4.5l2.6,0l0,-1l-2.6,0l0,-2.1l-1.1,0l0,2.1l-1.5,0l0,1l1.5,0l0,4.8c0,1.5,0.7,2.2,2.1,2.2c0.7,0,1.5,-0.2,2.3,-0.5l-0.2,-1Z" class="g5_12" />
<path d="M197.7,431c-1,0,-1.8,0.6,-2.5,1.8l0,-1.6l-1.1,0l0,7.8l1.1,0l0,-5c0,-0.1,0.2,-0.3,0.5,-0.6c0.2,-0.4,0.5,-0.7,0.9,-0.9c0.3,-0.2,0.6,-0.3,1,-0.3c0.3,0,0.8,0.1,1.3,0.4l0.5,-1.2c-0.6,-0.2,-1.1,-0.4,-1.7,-0.4Z" class="g5_12" />
<path d="M202.9,432.2c-0.7,0.7,-1,1.7,-1,2.9c0,1.2,0.3,2.2,1,3c0.6,0.7,1.4,1.1,2.5,1.1c1.1,0,1.9,-0.4,2.6,-1.1c0.6,-0.8,0.9,-1.8,0.9,-3c0,-1.2,-0.3,-2.2,-0.9,-2.9c-0.7,-0.8,-1.5,-1.2,-2.6,-1.2c-1.1,0,-1.9,0.4,-2.5,1.2Zm0.8,5.1c-0.4,-0.6,-0.6,-1.3,-0.6,-2.2c0,-0.9,0.2,-1.6,0.6,-2.2c0.4,-0.6,1,-0.9,1.7,-0.9c0.7,0,1.3,0.3,1.7,0.9c0.4,0.6,0.6,1.3,0.6,2.2c0,0.9,-0.2,1.6,-0.6,2.2c-0.4,0.6,-1,0.9,-1.7,0.9c-0.7,0,-1.3,-0.3,-1.7,-0.9Z" class="g5_12" />
<path d="M217.6,433.7c0,-1.8,-0.7,-2.7,-2.2,-2.7c-0.9,0,-1.8,0.5,-2.6,1.4l0,-1.2l-1.2,0l0,7.8l1.2,0l0,-5.6c0.8,-0.9,1.5,-1.4,2.3,-1.4c0.4,0,0.8,0.2,1,0.5c0.2,0.3,0.3,0.8,0.3,1.5l0,5l1.2,0l0,-5.3Z" class="g5_12" />
<path d="M223.4,436.1c0.7,0,1.4,-0.3,1.9,-0.7c0.4,-0.5,0.7,-1.1,0.7,-1.8c0,-0.6,-0.1,-1,-0.3,-1.4l1.4,0l0,-1.2l-2.3,0.4c-0.4,-0.2,-0.9,-0.3,-1.4,-0.3c-0.8,0,-1.4,0.2,-1.9,0.7c-0.5,0.4,-0.7,1,-0.7,1.8c0,0.4,0.1,0.8,0.3,1.2c0.2,0.4,0.5,0.8,1,1c-0.9,0.5,-1.4,1,-1.4,1.6c0,0.4,0.4,0.8,1.1,1.2c-0.9,0.4,-1.3,0.9,-1.3,1.5c0,0.6,0.3,1.1,0.8,1.4c0.6,0.4,1.3,0.6,2.1,0.6c1.1,0,2,-0.3,2.8,-0.8c0.8,-0.5,1.2,-1.2,1.2,-2.1c0,-0.6,-0.2,-1,-0.6,-1.3c-0.3,-0.3,-0.8,-0.5,-1.4,-0.5l-2.6,0.1c-0.3,0,-0.5,0,-0.7,-0.1c-0.2,-0.1,-0.3,-0.3,-0.3,-0.4c0,-0.3,0.4,-0.6,1.1,-0.9c0.2,0,0.3,0,0.5,0Zm-1.1,-1.4c-0.2,-0.3,-0.4,-0.7,-0.4,-1.1c0,-0.5,0.2,-0.9,0.4,-1.2c0.3,-0.3,0.7,-0.4,1.1,-0.4c0.4,0,0.8,0.1,1,0.4c0.3,0.3,0.4,0.7,0.4,1.2c0,0.5,-0.1,0.8,-0.4,1.1c-0.2,0.3,-0.6,0.5,-1,0.5c-0.4,0,-0.8,-0.2,-1.1,-0.5Zm-0.2,6.1c-0.3,-0.2,-0.5,-0.4,-0.5,-0.7c0,-0.2,0,-0.4,0.2,-0.6c0.1,-0.2,0.3,-0.4,0.5,-0.5c0.2,-0.2,0.4,-0.3,0.5,-0.3c0.2,0,0.5,0,0.9,0c0.7,-0.1,1.1,-0.1,1.3,-0.1c0.8,0,1.2,0.3,1.2,0.8c0,0.5,-0.3,0.9,-0.8,1.3c-0.6,0.3,-1.2,0.5,-2,0.5c-0.5,0,-1,-0.1,-1.3,-0.4Z" class="g5_12" />
<path d="M235.9,433.2l-5.6,-3.4l0,1.1l4.5,2.7l-4.5,2.7l0,1.1l5.6,-3.4l0,-0.8Z" class="g5_12" />
<text 
x="164" 
y="439" 
dx="0,0,0,0,0,0,0,0,0,0,0,0" 
class="s2_12"
>&lt;strong&gt;BIG!</text>

<path d="M281.4,436.3L277,433.6l4.4,-2.7l0,-1.1l-5.5,3.4l0,0.8l5.5,3.4l0,-1.1Z" class="g5_12" />
<path d="M289.5,428.3l-4.6,10.9l1.1,0l4.6,-10.9l-1.1,0Z" class="g5_12" />
<path d="M299.6,431.4c-0.8,-0.3,-1.5,-0.4,-2.1,-0.4c-1,0,-1.8,0.2,-2.4,0.6c-0.6,0.4,-0.9,1,-0.9,1.6c0,0.3,0.1,0.6,0.2,0.9c0.2,0.2,0.4,0.4,0.6,0.6c0.2,0.2,0.5,0.3,0.8,0.4c0.3,0.1,0.7,0.2,1.3,0.4c0.8,0.3,1.2,0.5,1.4,0.7c0.2,0.2,0.3,0.4,0.3,0.7c0,0.4,-0.2,0.7,-0.6,1c-0.4,0.2,-0.9,0.3,-1.5,0.3c-0.8,0,-1.5,-0.1,-2.1,-0.4l-0.3,1c0.7,0.3,1.4,0.4,2.4,0.4c1,0,1.7,-0.2,2.4,-0.6c0.6,-0.5,0.9,-1.1,0.9,-1.8c0,-0.4,-0.1,-0.7,-0.2,-1c-0.2,-0.3,-0.4,-0.5,-0.8,-0.7c-0.3,-0.2,-0.7,-0.4,-1.2,-0.5l-1.1,-0.4c-0.5,-0.1,-0.9,-0.3,-1,-0.4c-0.2,-0.2,-0.3,-0.4,-0.3,-0.6c0,-0.4,0.2,-0.7,0.5,-0.9c0.4,-0.2,0.9,-0.3,1.5,-0.3c0.6,0,1.2,0.1,1.9,0.3l0.3,-0.9Z" class="g5_12" />
<path d="M309.1,437.7c-0.6,0.3,-1.2,0.5,-1.8,0.5c-0.4,0,-0.7,-0.2,-0.9,-0.4c-0.2,-0.3,-0.3,-0.6,-0.3,-1.1l0,-4.5l2.6,0l0,-1l-2.6,0l0,-2.1l-1.1,0l0,2.1l-1.5,0l0,1l1.5,0l0,4.8c0,1.5,0.7,2.2,2,2.2c0.8,0,1.6,-0.2,2.3,-0.5l-0.2,-1Z" class="g5_12" />
<path d="M316.9,431c-1,0,-1.8,0.6,-2.5,1.8l0,-1.6l-1.1,0l0,7.8l1.1,0l0,-5c0,-0.1,0.2,-0.3,0.4,-0.6c0.3,-0.4,0.6,-0.7,1,-0.9c0.3,-0.2,0.6,-0.3,1,-0.3c0.3,0,0.8,0.1,1.3,0.4l0.5,-1.2C318,431.2,317.4,431,316.9,431Z" class="g5_12" />
<path d="M322,432.2c-0.6,0.7,-0.9,1.7,-0.9,2.9c0,1.2,0.3,2.2,0.9,3c0.7,0.7,1.5,1.1,2.6,1.1c1.1,0,1.9,-0.4,2.5,-1.1c0.7,-0.8,1,-1.8,1,-3c0,-1.2,-0.3,-2.2,-1,-2.9c-0.6,-0.8,-1.4,-1.2,-2.5,-1.2c-1.1,0,-1.9,0.4,-2.6,1.2Zm0.9,5.1c-0.4,-0.6,-0.6,-1.3,-0.6,-2.2c0,-0.9,0.2,-1.6,0.6,-2.2c0.4,-0.6,1,-0.9,1.7,-0.9c0.7,0,1.3,0.3,1.7,0.9c0.4,0.6,0.6,1.3,0.6,2.2c0,0.9,-0.2,1.6,-0.6,2.2c-0.4,0.6,-1,0.9,-1.7,0.9c-0.7,0,-1.3,-0.3,-1.7,-0.9Z" class="g5_12" />
<path d="M336.8,433.7c0,-1.8,-0.8,-2.7,-2.2,-2.7c-0.9,0,-1.8,0.5,-2.6,1.4l0,-1.2l-1.2,0l0,7.8l1.2,0l0,-5.6c0.8,-0.9,1.5,-1.4,2.2,-1.4c0.5,0,0.9,0.2,1.1,0.5c0.2,0.3,0.3,0.8,0.3,1.5l0,5l1.2,0l0,-5.3Z" class="g5_12" />
<path d="M342.6,436.1c0.7,0,1.3,-0.3,1.8,-0.7c0.5,-0.5,0.8,-1.1,0.8,-1.8c0,-0.6,-0.1,-1,-0.4,-1.4l1.5,0l0,-1.2l-2.3,0.4c-0.4,-0.2,-0.9,-0.3,-1.4,-0.3c-0.8,0,-1.4,0.2,-1.9,0.7c-0.5,0.4,-0.7,1,-0.7,1.8c0,0.4,0.1,0.8,0.3,1.2c0.2,0.4,0.5,0.8,1,1c-1,0.5,-1.4,1,-1.4,1.6c0,0.4,0.3,0.8,1,1.2c-0.8,0.4,-1.2,0.9,-1.2,1.5c0,0.6,0.3,1.1,0.8,1.4c0.5,0.4,1.2,0.6,2.1,0.6c1.1,0,2,-0.3,2.8,-0.8c0.7,-0.5,1.1,-1.2,1.1,-2.1c0,-0.6,-0.1,-1,-0.5,-1.3c-0.3,-0.3,-0.8,-0.5,-1.4,-0.5l-2.6,0.1c-0.3,0,-0.6,0,-0.7,-0.1C341.1,437.3,341,437.1,341,437c0,-0.3,0.4,-0.6,1.1,-0.9c0.2,0,0.3,0,0.5,0Zm-1.1,-1.4c-0.3,-0.3,-0.4,-0.7,-0.4,-1.1c0,-0.5,0.1,-0.9,0.4,-1.2c0.3,-0.3,0.7,-0.4,1.1,-0.4c0.4,0,0.8,0.1,1,0.4c0.3,0.3,0.4,0.7,0.4,1.2c0,0.5,-0.1,0.8,-0.4,1.1c-0.3,0.3,-0.6,0.5,-1,0.5c-0.4,0,-0.8,-0.2,-1.1,-0.5Zm-0.2,6.1c-0.4,-0.2,-0.5,-0.4,-0.5,-0.7c0,-0.2,0,-0.4,0.2,-0.6c0.1,-0.2,0.2,-0.4,0.5,-0.5c0.2,-0.2,0.4,-0.3,0.5,-0.3c0.2,0,0.5,0,0.9,0c0.6,-0.1,1.1,-0.1,1.3,-0.1c0.8,0,1.2,0.3,1.2,0.8c0,0.5,-0.3,0.9,-0.8,1.3c-0.6,0.3,-1.2,0.5,-2,0.5c-0.5,0,-1,-0.1,-1.3,-0.4Z" class="g5_12" />
<path d="M355.1,433.2l-5.6,-3.4l0,1.1l4.5,2.7l-4.5,2.7l0,1.1l5.6,-3.4l0,-0.8Z" class="g5_12" />
<text 
x="274" 
y="439" 
dx="0,0,0,0,0,0,0,0,0,0,-1.1,0,0,-1.1,0,0,0,0,-1.1,0,0,0,-1.1,0,0,0,-1.1,0,0,0,0,0,-1.1,0,0,0,0,-1.1,0,0,-1.1,0,0,-1.1,0,0,0,0,-1.1,0,0,0,0,-1.1,0,0" 
class="s2_12"
>&lt;/strong&gt; so that you can still read it if it's down by </text>

<text 
x="56" 
y="460" 
dx="0,0,0,0,0,-1.8,0,0,0,0,-1.8,0,0,-1.8,0,0,0,-1.8,0,0,0,0,0,-1.8,0,0,-1.8,0,0,-1.8,0,0,0,-1.8,0,0,0,0,0,0,0,0,-1.8,0,0,0,0,0,-1.8,0,0,0,0,-1.8,0,0,0,0" 
class="s2_12"
>your feet on the floor or if the lighting isn't very good.</text>

<path d="M575.2,457.7L570.7,455l4.5,-2.7l0,-1.1l-5.6,3.3l0,0.9l5.6,3.4l0,-1.1Z" class="g5_12" />
<path d="M583.2,449.7l-4.5,10.9l1.1,0l4.5,-10.9l-1.1,0Z" class="g5_12" />
<path d="M589,452.6l-1.2,0l0,10.9l1.2,0l0,-4.2c0.2,0.4,0.6,0.7,1,0.9c0.4,0.3,0.9,0.4,1.3,0.4c0.9,0,1.7,-0.4,2.2,-1.2c0.5,-0.8,0.8,-1.8,0.8,-3c0,-1.2,-0.3,-2.1,-0.8,-2.9c-0.5,-0.7,-1.2,-1.1,-2.1,-1.1c-0.5,0,-0.9,0.1,-1.4,0.4c-0.4,0.2,-0.8,0.5,-1,0.8l0,-1Zm2.1,0.8c0.6,0,1.1,0.3,1.5,0.9c0.3,0.6,0.5,1.3,0.5,2.2c0,0.9,-0.2,1.6,-0.6,2.2c-0.3,0.6,-0.8,0.8,-1.5,0.8c-0.4,0,-0.8,-0.1,-1.1,-0.4c-0.4,-0.3,-0.7,-0.7,-0.9,-1.1l0,-3.2c0.6,-0.9,1.3,-1.4,2.1,-1.4Z" class="g5_12" />
<path d="M603,454.5l-5.6,-3.3l0,1.1l4.4,2.7l-4.4,2.7l0,1.1l5.6,-3.4l0,-0.9Z" class="g5_12" />
<text 
x="567" 
y="460" 
dx="0,0,0,0" 
class="s2_12"
>&lt;/p&gt;</text>

<path d="M63.6,479.1l-4.5,-2.7l4.5,-2.7l0,-1.1L58,475.9l0,0.9l5.6,3.4l0,-1.1Z" class="g5_12" />
<path d="M73.1,476.5c0,-1.8,-0.8,-2.7,-2.2,-2.7c-0.9,0,-1.8,0.5,-2.7,1.3l0,-3.8l-1.1,0l0,10.5l1.1,0l0,-5.6c0.9,-0.9,1.6,-1.4,2.3,-1.4c0.5,0,0.8,0.2,1.1,0.5c0.2,0.3,0.3,0.8,0.3,1.5l0,5l1.2,0l0,-5.3Z" class="g5_12" />
<path d="M82,480.7l-4.5,0c1.4,-1.5,2.3,-2.5,2.7,-3.1c0.5,-0.5,0.9,-1.1,1.2,-1.8c0.3,-0.6,0.4,-1.2,0.4,-1.8c0,-0.9,-0.3,-1.6,-0.9,-2.2c-0.5,-0.5,-1.3,-0.7,-2.2,-0.7c-0.8,0,-1.6,0.1,-2.4,0.4l0.2,1.1c0.8,-0.3,1.5,-0.5,2,-0.5c0.6,0,1.1,0.2,1.5,0.5c0.3,0.4,0.5,0.8,0.5,1.4c0,0.6,-0.1,1.2,-0.4,1.8c-0.3,0.7,-0.6,1.2,-1.1,1.8c-0.4,0.6,-1.4,1.7,-2.8,3.3l0,0.9l5.8,0l0,-1.1Z" class="g5_12" />
<path d="M91.4,475.9l-5.6,-3.3l0,1.1l4.5,2.7l-4.5,2.7l0,1.1l5.6,-3.4l0,-0.9Z" class="g5_12" />
<text 
x="56" 
y="481" 
dx="0,0,0,0,0,0,0,0,0,0,0,0,0,-1.8,0,0,0,0,-1.8,0,0,0,0,0" 
class="s2_12"
>&lt;h2&gt;Remember your spares</text>

<path d="M279.9,479.1l-4.4,-2.7l4.4,-2.7l0,-1.1l-5.5,3.3l0,0.9l5.5,3.4l0,-1.1Z" class="g5_12" />
<path d="M288,471.1L283.4,482l1.1,0l4.6,-10.9l-1.1,0Z" class="g5_12" />
<path d="M298.6,476.5c0,-1.8,-0.7,-2.7,-2.2,-2.7c-0.9,0,-1.8,0.5,-2.6,1.3l0,-3.8l-1.2,0l0,10.5l1.2,0l0,-5.6c0.8,-0.9,1.6,-1.4,2.3,-1.4c0.4,0,0.8,0.2,1,0.5c0.2,0.3,0.3,0.8,0.3,1.5l0,5l1.2,0l0,-5.3Z" class="g5_12" />
<path d="M307.5,480.7l-4.4,0c1.3,-1.5,2.2,-2.5,2.7,-3.1c0.4,-0.5,0.8,-1.1,1.1,-1.8c0.3,-0.6,0.4,-1.2,0.4,-1.8c0,-0.9,-0.2,-1.6,-0.8,-2.2c-0.6,-0.5,-1.4,-0.7,-2.3,-0.7c-0.8,0,-1.6,0.1,-2.3,0.4l0.1,1.1c0.9,-0.3,1.5,-0.5,2,-0.5c0.6,0,1.1,0.2,1.5,0.5c0.4,0.4,0.5,0.8,0.5,1.4c0,0.6,-0.1,1.2,-0.4,1.8c-0.2,0.7,-0.6,1.2,-1,1.8c-0.5,0.6,-1.4,1.7,-2.9,3.3l0,0.9l5.8,0l0,-1.1Z" class="g5_12" />
<path d="M316.9,475.9l-5.6,-3.3l0,1.1l4.5,2.7l-4.5,2.7l0,1.1l5.6,-3.4l0,-0.9Z" class="g5_12" />
<text 
x="272" 
y="481" 
dx="0,0,0,0,0" 
class="s2_12"
>&lt;/h2&gt;</text>

<path d="M63.6,500.5l-4.5,-2.7l4.5,-2.7l0,-1.1L58,497.3l0,0.9l5.6,3.4l0,-1.1Z" class="g5_12" />
<path d="M68.2,495.4l-1.1,0l0,10.8l1.1,0l0,-4.2c0.3,0.4,0.6,0.8,1,1c0.5,0.2,0.9,0.4,1.4,0.4c0.9,0,1.6,-0.4,2.1,-1.2c0.6,-0.8,0.8,-1.8,0.8,-3c0,-1.2,-0.2,-2.1,-0.7,-2.9c-0.5,-0.7,-1.2,-1.1,-2.1,-1.1c-0.5,0,-1,0.1,-1.4,0.3c-0.5,0.3,-0.8,0.5,-1.1,0.9l0,-1Zm2.1,0.8c0.7,0,1.1,0.3,1.5,0.9c0.4,0.5,0.5,1.3,0.5,2.2c0,0.8,-0.2,1.6,-0.5,2.1c-0.4,0.6,-0.9,0.9,-1.5,0.9c-0.4,0,-0.8,-0.1,-1.2,-0.4c-0.4,-0.3,-0.6,-0.7,-0.9,-1.1l0,-3.2c0.6,-0.9,1.3,-1.4,2.1,-1.4Z" class="g5_12" />
<path d="M82.2,497.3L76.6,494l0,1.1l4.5,2.7l-4.5,2.7l0,1.1l5.6,-3.4l0,-0.9Z" class="g5_12" />
<text 
x="56" 
y="503" 
dx="0,0,0,0,0,0,0,0,1.7,0,0,0,0,0,0,0,0,0,0,0,1.8,0,0,0,0,1.7,0,0,0,0,0,1.7,0,0,0,0,1.7,0,0,0,0,1.7,0,0,1.7,0,0,1.7,0,0,0,0,0,0,0,0,1.8,0,0,1.7,0,0,0,0,1.7,0,0,0,0,1.7,0,0,0,1.7,0,0" 
class="s2_12"
>&lt;p&gt;Some instruments have parts that need to be replaced if they wear out or </text>

<text 
x="56" 
y="524" 
dx="0,0,0,0,0,0,0,-1.8,0,0,0,-1.8,0,0,0,0,0,0,0" 
class="s2_12"
>break. For example:</text>

<path d="M234.1,521.9l-4.5,-2.7l4.5,-2.7l0,-1.1l-5.6,3.3l0,0.9l5.6,3.4l0,-1.1Z" class="g5_12" />
<path d="M242.1,513.8l-4.5,11l1.1,0l4.6,-11l-1.2,0Z" class="g5_12" />
<path d="M247.9,516.8l-1.1,0l0,10.8l1.1,0l0,-4.2c0.3,0.4,0.6,0.8,1,1c0.4,0.2,0.9,0.4,1.4,0.4c0.9,0,1.6,-0.4,2.1,-1.2c0.6,-0.8,0.8,-1.8,0.8,-3c0,-1.2,-0.2,-2.2,-0.7,-2.9c-0.5,-0.7,-1.2,-1.1,-2.1,-1.1c-0.5,0,-1,0.1,-1.4,0.3c-0.5,0.2,-0.8,0.5,-1.1,0.9l0,-1Zm2.1,0.8c0.7,0,1.1,0.3,1.5,0.9c0.3,0.5,0.5,1.3,0.5,2.1c0,0.9,-0.2,1.6,-0.5,2.2c-0.4,0.6,-0.9,0.9,-1.5,0.9c-0.4,0,-0.8,-0.1,-1.2,-0.4c-0.4,-0.3,-0.7,-0.7,-0.9,-1.1l0,-3.3c0.6,-0.8,1.3,-1.3,2.1,-1.3Z" class="g5_12" />
<path d="M261.9,518.7l-5.6,-3.3l0,1.1l4.5,2.7l-4.5,2.7l0,1.1l5.6,-3.4l0,-0.9Z" class="g5_12" />
<text 
x="226" 
y="524" 
dx="0,0,0,0" 
class="s2_12"
>&lt;/p&gt;</text>

<path d="M63.6,543.2l-4.5,-2.6l4.5,-2.7l0,-1.1L58,540.1l0,0.9l5.6,3.3l0,-1.1Z" class="g5_12" />
<path d="M73,538.2l-1.1,0l0,5.6c-0.8,0.9,-1.6,1.3,-2.3,1.3c-0.5,0,-0.9,-0.1,-1.1,-0.5c-0.2,-0.3,-0.3,-0.8,-0.3,-1.5l0,-4.9l-1.1,0l0,5.3c0,1.7,0.7,2.6,2.1,2.6c1,0,1.8,-0.4,2.7,-1.3l0,1.1l1.1,0l0,-7.7Z" class="g5_12" />
<path d="M81.5,544.5l-2,0l0,-9l-3,0l0,1l2,0l0,9l3,0l0,-1Z" class="g5_12" />
<path d="M91.4,540.1l-5.6,-3.3l0,1.1l4.5,2.7l-4.5,2.6l0,1.1L91.4,541l0,-0.9Z" class="g5_12" />
<text 
x="56" 
y="545" 
dx="0,0,0,0" 
class="s2_12"
>&lt;ul&gt;</text>

<path d="M63.6,564.6L59.1,562l4.5,-2.8l0,-1L58,561.5l0,0.9l5.6,3.3l0,-1.1Z" class="g5_12" />
<path d="M72.5,566.5l-2,0l0,-10l-3,0l0,1l2,0l0,10l3,0l0,-1Z" class="g5_12" />
<path d="M79.2,556.9c-0.2,0.1,-0.3,0.3,-0.3,0.5c0,0.2,0.1,0.4,0.3,0.6c0.1,0.1,0.3,0.2,0.5,0.2c0.2,0,0.4,-0.1,0.6,-0.2c0.1,-0.2,0.2,-0.4,0.2,-0.6c0,-0.2,-0.1,-0.4,-0.2,-0.5c-0.2,-0.2,-0.4,-0.3,-0.6,-0.3c-0.2,0,-0.4,0.1,-0.5,0.3Zm1.1,2.7l-3.5,0l0,1l2.3,0l0,6.7l1.2,0l0,-7.7Z" class="g5_12" />
<path d="M91.4,561.5l-5.6,-3.3l0,1l4.5,2.8l-4.5,2.6l0,1.1l5.6,-3.3l0,-0.9Z" class="g5_12" />
<text 
x="56" 
y="567" 
dx="0,0,0,0,0,0,0,0,0,0,0,-1.8,0,0,0,0,0,0" 
class="s2_12"
>&lt;li&gt;guitar strings</text>

<path d="M226.8,564.6L222.3,562l4.5,-2.8l0,-1l-5.6,3.3l0,0.9l5.6,3.3l0,-1.1Z" class="g5_12" />
<path d="M234.8,556.6l-4.5,10.9l1.1,0l4.5,-10.9l-1.1,0Z" class="g5_12" />
<path d="M244.5,566.5l-2,0l0,-10l-3,0l0,1l2,0l0,10l3,0l0,-1Z" class="g5_12" />
<path d="M251.5,556.9c-0.1,0.1,-0.2,0.3,-0.2,0.5c0,0.2,0.1,0.4,0.2,0.6c0.2,0.1,0.4,0.2,0.6,0.2c0.2,0,0.4,-0.1,0.5,-0.2c0.2,-0.2,0.3,-0.4,0.3,-0.6c0,-0.2,-0.1,-0.4,-0.3,-0.5c-0.1,-0.2,-0.3,-0.3,-0.5,-0.3c-0.2,0,-0.4,0.1,-0.6,0.3Zm1.2,2.7l-3.5,0l0,1l2.3,0l0,6.7l1.2,0l0,-7.7Z" class="g5_12" />
<path d="M263.7,561.5l-5.6,-3.3l0,1l4.5,2.8l-4.5,2.6l0,1.1l5.6,-3.3l0,-0.9Z" class="g5_12" />
<text 
x="219" 
y="567" 
dx="0,0,0,0,0" 
class="s2_12"
>&lt;/li&gt;</text>

<path d="M63.6,586l-4.5,-2.6l4.5,-2.8l0,-1L58,582.9l0,0.9l5.6,3.3l0,-1.1Z" class="g5_12" />
<path d="M72.5,587.5l-2,0l0,-9l-3,0l0,1l2,0l0,9l3,0l0,-1Z" class="g5_12" />
<path d="M79.2,578.2c-0.2,0.2,-0.3,0.4,-0.3,0.6c0,0.2,0.1,0.4,0.3,0.6c0.1,0.1,0.3,0.2,0.5,0.2c0.2,0,0.4,-0.1,0.6,-0.2c0.1,-0.2,0.2,-0.4,0.2,-0.6c0,-0.2,-0.1,-0.4,-0.2,-0.6C80.1,578.1,79.9,578,79.7,578c-0.2,0,-0.4,0.1,-0.5,0.2Zm1.1,2.8l-3.5,0l0,1l2.3,0l0,6.7l1.2,0l0,-7.7Z" class="g5_12" />
<path d="M91.4,582.9l-5.6,-3.3l0,1l4.5,2.8L85.8,586l0,1.1l5.6,-3.3l0,-0.9Z" class="g5_12" />
<text 
x="56" 
y="588" 
dx="0,0,0,0,0,0,0,0,0,0,0,0,0,0,-1.8,0,0,-1.8,0,0,0,0,0,0,0,0,-1.8,0,0,0,0" 
class="s2_12"
>&lt;li&gt;saxophone or clarinet reeds</text>

<path d="M342.3,586l-4.5,-2.6l4.5,-2.8l0,-1l-5.6,3.3l0,0.9l5.6,3.3l0,-1.1Z" class="g5_12" />
<path d="M350.3,578l-4.5,10.9l1.1,0L351.5,578l-1.2,0Z" class="g5_12" />
<path d="M360.5,587.5l-2,0l0,-9l-3,0l0,1l2,0l0,9l3,0l0,-1Z" class="g5_12" />
<path d="M367.1,578.2c-0.2,0.2,-0.3,0.4,-0.3,0.6c0,0.2,0.1,0.4,0.3,0.6c0.1,0.1,0.3,0.2,0.5,0.2c0.2,0,0.4,-0.1,0.6,-0.2c0.1,-0.2,0.2,-0.4,0.2,-0.6c0,-0.2,-0.1,-0.4,-0.2,-0.6C368,578.1,367.8,578,367.6,578c-0.2,0,-0.4,0.1,-0.5,0.2Zm1.1,2.8l-3.5,0l0,1l2.3,0l0,6.7l1.2,0l0,-7.7Z" class="g5_12" />
<path d="M379.2,582.9l-5.5,-3.3l0,1l4.4,2.8l-4.4,2.6l0,1.1l5.5,-3.3l0,-0.9Z" class="g5_12" />
<text 
x="335" 
y="588" 
dx="0,0,0,0,0" 
class="s2_12"
>&lt;/li&gt;</text>

<path d="M63.6,607.4l-4.5,-2.7L63.6,602l0,-1.1L58,604.3l0,0.9l5.6,3.3l0,-1.1Z" class="g5_12" />
<path d="M72.5,609.5l-2,0l0,-10l-3,0l0,1l2,0l0,10l3,0l0,-1Z" class="g5_12" />
<path d="M79.2,599.6c-0.2,0.2,-0.3,0.4,-0.3,0.6c0,0.2,0.1,0.4,0.3,0.6c0.1,0.1,0.3,0.2,0.5,0.2c0.2,0,0.4,-0.1,0.6,-0.2c0.1,-0.2,0.2,-0.4,0.2,-0.6c0,-0.2,-0.1,-0.4,-0.2,-0.6c-0.2,-0.1,-0.4,-0.2,-0.6,-0.2c-0.2,0,-0.4,0.1,-0.5,0.2Zm1.1,2.7l-3.5,0l0,1l2.3,0l0,6.8l1.2,0l0,-7.8Z" class="g5_12" />
<path d="M91.4,604.3l-5.6,-3.4l0,1.1l4.5,2.7l-4.5,2.7l0,1.1l5.6,-3.3l0,-0.9Z" class="g5_12" />
<text 
x="56" 
y="610" 
dx="0,0,0,0,0,0,0,0,0,0,0,0,0,0" 
class="s2_12"
>&lt;li&gt;drumsticks</text>

<path d="M191.9,607.4l-4.4,-2.7l4.4,-2.7l0,-1.1l-5.6,3.4l0,0.9l5.6,3.3l0,-1.1Z" class="g5_12" />
<path d="M200,599.4l-4.6,10.9l1.1,0l4.6,-10.9l-1.1,0Z" class="g5_12" />
<path d="M210.5,609.5l-2,0l0,-10l-4,0l0,1l2,0l0,10l4,0l0,-1Z" class="g5_12" />
<path d="M216.7,599.6c-0.2,0.2,-0.2,0.4,-0.2,0.6c0,0.2,0,0.4,0.2,0.6c0.2,0.1,0.3,0.2,0.5,0.2c0.3,0,0.5,-0.1,0.6,-0.2c0.2,-0.2,0.2,-0.4,0.2,-0.6c0,-0.2,0,-0.4,-0.2,-0.6c-0.1,-0.1,-0.3,-0.2,-0.6,-0.2c-0.2,0,-0.3,0.1,-0.5,0.2Zm1.1,2.7l-3.4,0l0,1l2.2,0l0,6.8l1.2,0l0,-7.8Z" class="g5_12" />
<path d="M228.9,604.3l-5.6,-3.4l0,1.1l4.5,2.7l-4.5,2.7l0,1.1l5.6,-3.3l0,-0.9Z" class="g5_12" />
<text 
x="184" 
y="610" 
dx="0,0,0,0,0" 
class="s2_12"
>&lt;/li&gt;</text>

<path d="M63.6,628.8l-4.5,-2.7l4.5,-2.7l0,-1.1L58,625.7l0,0.8l5.6,3.4l0,-1.1Z" class="g5_12" />
<path d="M71.6,620.8l-4.5,10.9l1.1,0l4.5,-10.9l-1.1,0Z" class="g5_12" />
<path d="M82.2,623.7l-1.1,0l0,5.6c-0.9,0.9,-1.6,1.4,-2.3,1.4c-0.5,0,-0.9,-0.2,-1.1,-0.5c-0.2,-0.3,-0.3,-0.8,-0.3,-1.5l0,-5l-1.2,0l0,5.3c0,1.8,0.8,2.7,2.2,2.7c0.9,0,1.8,-0.5,2.7,-1.3l0,1.1l1.1,0l0,-7.8Z" class="g5_12" />
<path d="M90.5,630.5l-2,0l0,-10l-3,0l0,1l2,0l0,10l3,0l0,-1Z" class="g5_12" />
<path d="M100.5,625.7L95,622.3l0,1.1l4.4,2.7L95,628.8l0,1.1l5.5,-3.4l0,-0.8Z" class="g5_12" />
<text 
x="56" 
y="631" 
dx="0,0,0,0,0" 
class="s2_12"
>&lt;/ul&gt;</text>

<path d="M63.6,650.2l-4.5,-2.7l4.5,-2.7l0,-1.1L58,647l0,0.9l5.6,3.4l0,-1.1Z" class="g5_12" />
<path d="M68.2,645.1l-1.1,0l0,10.9l1.1,0l0,-4.2c0.3,0.4,0.6,0.7,1,0.9c0.5,0.3,0.9,0.4,1.4,0.4c0.9,0,1.6,-0.4,2.1,-1.2c0.6,-0.8,0.8,-1.8,0.8,-3c0,-1.2,-0.2,-2.1,-0.7,-2.9c-0.5,-0.7,-1.2,-1.1,-2.1,-1.1c-0.5,0,-1,0.1,-1.4,0.4c-0.5,0.2,-0.8,0.5,-1.1,0.8l0,-1Zm2.1,0.8c0.7,0,1.1,0.3,1.5,0.9c0.4,0.6,0.5,1.3,0.5,2.2c0,0.9,-0.2,1.6,-0.5,2.2c-0.4,0.6,-0.9,0.8,-1.5,0.8c-0.4,0,-0.8,-0.1,-1.2,-0.4c-0.4,-0.3,-0.6,-0.7,-0.9,-1.1l0,-3.2c0.6,-0.9,1.3,-1.4,2.1,-1.4Z" class="g5_12" />
<path d="M82.2,647l-5.6,-3.3l0,1.1l4.5,2.7l-4.5,2.7l0,1.1l5.6,-3.4l0,-0.9Z" class="g5_12" />
<text 
x="56" 
y="652" 
dx="0,0,0,0,0,0,0,0,0.3,0,0.3,0,0,0,0,0.3,0,0,0.3,0,0,0,0.3,0,0,0,0,0,0,0.3,0,0,0,0.3,0,0,0,0,0,0.3,0,0,0,0,0.3,0,0,0,0.3,0,0,0,0,0.3,0,0,0,0,0.3,0,0,0,0.3,0,0,0,0,0.3,0,0,0,0,0,0.3,0,0,0,0" 
class="s2_12"
>&lt;p&gt;Make a list of the spares you might need and make sure you know where they </text>

<text 
x="56" 
y="674" 
dx="0,0,0,0,-1.8,0,0,-1.8,0,0,-1.8,0,0,0,0,0,0,0,0,0" 
class="s2_12"
>are in an emergency.</text>

<path d="M241.4,671.6L237,668.9l4.4,-2.7l0,-1.1l-5.5,3.3l0,0.9l5.5,3.4l0,-1.1Z" class="g5_12" />
<path d="M249.5,663.6l-4.6,10.9l1.1,0l4.6,-10.9l-1.1,0Z" class="g5_12" />
<path d="M255.3,666.5l-1.2,0l0,10.9l1.2,0l0,-4.2c0.2,0.4,0.5,0.7,1,0.9c0.4,0.3,0.8,0.4,1.3,0.4c0.9,0,1.6,-0.4,2.2,-1.2c0.5,-0.8,0.8,-1.8,0.8,-3c0,-1.2,-0.3,-2.1,-0.8,-2.9c-0.5,-0.7,-1.2,-1.1,-2.1,-1.1c-0.5,0,-0.9,0.1,-1.4,0.3c-0.4,0.3,-0.8,0.6,-1,0.9l0,-1Zm2.1,0.8c0.6,0,1.1,0.3,1.4,0.9c0.4,0.5,0.6,1.3,0.6,2.2c0,0.8,-0.2,1.6,-0.6,2.2c-0.4,0.5,-0.9,0.8,-1.5,0.8c-0.4,0,-0.8,-0.1,-1.1,-0.4c-0.4,-0.3,-0.7,-0.7,-0.9,-1.1l0,-3.2c0.5,-0.9,1.2,-1.4,2.1,-1.4Z" class="g5_12" />
<path d="M269.2,668.4l-5.5,-3.3l0,1.1l4.4,2.7l-4.4,2.7l0,1.1l5.5,-3.4l0,-0.9Z" class="g5_12" />
<text 
x="234" 
y="674" 
dx="0,0,0,0" 
class="s2_12"
>&lt;/p&gt;</text>

<path d="M63.6,693l-4.5,-2.7l4.5,-2.7l0,-1.1L58,689.8l0,0.9l5.6,3.4l0,-1.1Z" class="g5_12" />
<path d="M73.1,690.3c0,-1.7,-0.8,-2.6,-2.2,-2.6c-0.9,0,-1.8,0.5,-2.7,1.3l0,-3.9l-1.1,0l0,10.6l1.1,0l0,-5.7c0.9,-0.8,1.6,-1.3,2.3,-1.3c0.5,0,0.8,0.2,1.1,0.5c0.2,0.3,0.3,0.8,0.3,1.5l0,5l1.2,0l0,-5.4Z" class="g5_12" />
<path d="M82,694.6l-4.5,0c1.4,-1.5,2.3,-2.5,2.7,-3.1c0.5,-0.5,0.9,-1.1,1.2,-1.8c0.3,-0.6,0.4,-1.2,0.4,-1.8c0,-0.9,-0.3,-1.6,-0.9,-2.2c-0.5,-0.5,-1.3,-0.8,-2.2,-0.8c-0.8,0,-1.6,0.2,-2.4,0.5l0.2,1.1c0.8,-0.3,1.5,-0.5,2,-0.5c0.6,0,1.1,0.2,1.5,0.5c0.3,0.4,0.5,0.8,0.5,1.4c0,0.6,-0.1,1.2,-0.4,1.8c-0.3,0.6,-0.6,1.2,-1.1,1.8c-0.4,0.5,-1.4,1.6,-2.8,3.3l0,0.9l5.8,0l0,-1.1Z" class="g5_12" />
<path d="M91.4,689.8l-5.6,-3.3l0,1.1l4.5,2.7L85.8,693l0,1.1l5.6,-3.4l0,-0.9Z" class="g5_12" />
<text 
x="56" 
y="695" 
dx="0,0,0,0,0,0,0,0,0,-1.8,0,0,0,0,0,-1.8,0,0,0,0,0,0,-1.8,0,0,-1.8,0,0,-1.8,0,0,0,-1.8,0,0,0,0" 
class="s2_12"
>&lt;h2&gt;Plan where you'll be on the stage</text>

<path d="M391.8,693l-4.5,-2.7l4.5,-2.7l0,-1.1l-5.6,3.3l0,0.9l5.6,3.4l0,-1.1Z" class="g5_12" />
<path d="M399.8,684.9l-4.5,11l1.1,0l4.6,-11l-1.2,0Z" class="g5_12" />
<path d="M410.4,690.3c0,-1.7,-0.7,-2.6,-2.1,-2.6c-1,0,-1.8,0.5,-2.7,1.3l0,-3.9l-1.1,0l0,10.6l1.1,0l0,-5.7c0.8,-0.8,1.6,-1.3,2.3,-1.3c0.5,0,0.8,0.2,1.1,0.5c0.2,0.3,0.3,0.8,0.3,1.5l0,5l1.1,0l0,-5.4Z" class="g5_12" />
<path d="M419.3,694.6l-4.4,0c1.3,-1.5,2.2,-2.5,2.7,-3.1c0.5,-0.5,0.9,-1.1,1.1,-1.8c0.3,-0.6,0.5,-1.2,0.5,-1.8c0,-0.9,-0.3,-1.6,-0.9,-2.2c-0.5,-0.5,-1.3,-0.8,-2.2,-0.8c-0.9,0,-1.6,0.2,-2.4,0.5l0.2,1.1c0.8,-0.3,1.5,-0.5,2,-0.5c0.6,0,1.1,0.2,1.5,0.5c0.3,0.4,0.5,0.8,0.5,1.4c0,0.6,-0.2,1.2,-0.4,1.8c-0.3,0.6,-0.7,1.2,-1.1,1.8c-0.4,0.5,-1.4,1.6,-2.8,3.3l0,0.9l5.7,0l0,-1.1Z" class="g5_12" />
<path d="M428.8,689.8l-5.6,-3.3l0,1.1l4.5,2.7l-4.5,2.7l0,1.1l5.6,-3.4l0,-0.9Z" class="g5_12" />
<text 
x="384" 
y="695" 
dx="0,0,0,0,0" 
class="s2_12"
>&lt;/h2&gt;</text>

<path d="M63.6,714.4l-4.5,-2.7L63.6,709l0,-1.1L58,711.2l0,0.9l5.6,3.4l0,-1.1Z" class="g5_12" />
<path d="M68.2,709.3l-1.1,0l0,10.8l1.1,0l0,-4.2c0.3,0.4,0.6,0.8,1,1c0.5,0.2,0.9,0.4,1.4,0.4c0.9,0,1.6,-0.4,2.1,-1.2c0.6,-0.8,0.8,-1.8,0.8,-3c0,-1.2,-0.2,-2.2,-0.7,-2.9c-0.5,-0.7,-1.2,-1.1,-2.1,-1.1c-0.5,0,-1,0.1,-1.4,0.3c-0.5,0.2,-0.8,0.5,-1.1,0.9l0,-1Zm2.1,0.8c0.7,0,1.1,0.3,1.5,0.9c0.4,0.5,0.5,1.3,0.5,2.1c0,0.9,-0.2,1.6,-0.5,2.2c-0.4,0.6,-0.9,0.9,-1.5,0.9c-0.4,0,-0.8,-0.1,-1.2,-0.4c-0.4,-0.3,-0.6,-0.7,-0.9,-1.1l0,-3.3c0.6,-0.8,1.3,-1.3,2.1,-1.3Z" class="g5_12" />
<path d="M82.2,711.2l-5.6,-3.3l0,1.1l4.5,2.7l-4.5,2.7l0,1.1l5.6,-3.4l0,-0.9Z" class="g5_12" />
<text 
x="56" 
y="717" 
dx="0,0,0,0,0,0,0,0,0,0,1,0,0,0,1,0,0,0,0,0,1,0,0,1,0,0,0,1,0,0,1,0,0,0,0,1,0,0,0,0,0,0,0,0,0,0,0,0,1,0,0,0,0,1,0,1,0,0,0,1,0,0,0,0,0,0,0,1,0,0,1,0,0,0,0,0,0" 
class="s2_12"
>&lt;p&gt;Before you start to set up your instruments, take a few minutes to decide </text>

<text 
x="56" 
y="738" 
dx="0,0,0,0,0,0,-1.8,0,0,0,0,0,0,-1.8,0,0,0,-1.8,0,0,0,0,0,-1.8,0,0,-1.8,0,0" 
class="s2_12"
>where you're all going to be.</text>

<path d="M320.3,735.7l-4.5,-2.6l4.5,-2.7l0,-1.1l-5.6,3.3l0,0.9l5.6,3.3l0,-1.1Z" class="g5_12" />
<path d="M328.3,727.7l-4.5,10.9l1.1,0l4.5,-10.9l-1.1,0Z" class="g5_12" />
<path d="M334.1,730.7l-1.2,0l0,10.8l1.2,0l0,-4.2c0.3,0.4,0.6,0.7,1,1c0.4,0.2,0.9,0.3,1.4,0.3c0.9,0,1.6,-0.3,2.1,-1.1c0.6,-0.8,0.8,-1.8,0.8,-3c0,-1.2,-0.2,-2.2,-0.7,-2.9c-0.6,-0.7,-1.3,-1.1,-2.1,-1.1c-0.5,0,-1,0.1,-1.4,0.3c-0.5,0.2,-0.8,0.5,-1.1,0.9l0,-1Zm2.1,0.8c0.6,0,1.1,0.3,1.5,0.8c0.3,0.6,0.5,1.3,0.5,2.2c0,0.9,-0.2,1.6,-0.5,2.2c-0.4,0.6,-0.9,0.9,-1.5,0.9c-0.4,0,-0.8,-0.1,-1.2,-0.4c-0.4,-0.3,-0.7,-0.7,-0.9,-1.1l0,-3.3c0.6,-0.9,1.3,-1.3,2.1,-1.3Z" class="g5_12" />
<path d="M348.1,732.6l-5.6,-3.3l0,1.1l4.5,2.7l-4.5,2.6l0,1.1l5.6,-3.3l0,-0.9Z" class="g5_12" />
<text 
x="313" 
y="738" 
dx="0,0,0,0" 
class="s2_12"
>&lt;/p&gt;</text>

<path d="M63.6,757.1l-4.5,-2.6l4.5,-2.8l0,-1L58,754l0,0.9l5.6,3.3l0,-1.1Z" class="g5_12" />
<path d="M73,752.1l-1.1,0l0,5.6c-0.8,0.9,-1.6,1.3,-2.3,1.3c-0.5,0,-0.9,-0.2,-1.1,-0.5c-0.2,-0.3,-0.3,-0.8,-0.3,-1.5l0,-4.9l-1.1,0l0,5.3c0,1.7,0.7,2.6,2.1,2.6c1,0,1.8,-0.4,2.7,-1.3l0,1.1l1.1,0l0,-7.7Z" class="g5_12" />
<path d="M81.5,758.5l-2,0l0,-9l-3,0l0,1l2,0l0,9l3,0l0,-1Z" class="g5_12" />
<path d="M91.4,754l-5.6,-3.3l0,1l4.5,2.8l-4.5,2.6l0,1.1l5.6,-3.3l0,-0.9Z" class="g5_12" />
<text 
x="56" 
y="759" 
dx="0,0,0,0" 
class="s2_12"
>&lt;ul&gt;</text>

<path d="M63.6,778.5l-4.5,-2.6l4.5,-2.8l0,-1L58,775.4l0,0.9l5.6,3.3l0,-1.1Z" class="g5_12" />
<path d="M72.5,780.5l-2,0l0,-10l-3,0l0,1l2,0l0,10l3,0l0,-1Z" class="g5_12" />
<path d="M79.2,770.7c-0.2,0.2,-0.3,0.4,-0.3,0.6c0,0.2,0.1,0.4,0.3,0.6c0.1,0.1,0.3,0.2,0.5,0.2c0.2,0,0.4,-0.1,0.6,-0.2c0.1,-0.2,0.2,-0.4,0.2,-0.6c0,-0.2,-0.1,-0.4,-0.2,-0.6c-0.2,-0.1,-0.4,-0.2,-0.6,-0.2c-0.2,0,-0.4,0.1,-0.5,0.2Zm1.1,2.8l-3.5,0l0,1l2.3,0l0,6.7l1.2,0l0,-7.7Z" class="g5_12" />
<path d="M91.4,775.4l-5.6,-3.3l0,1l4.5,2.8l-4.5,2.6l0,1.1l5.6,-3.3l0,-0.9Z" class="g5_12" />
<text 
x="56" 
y="781" 
dx="0,0,0,0,0,0,0,0,0,-1.8,0,0,0,-1.8,0,0,0,0,0,-1.8,0,0,-1.8,0,0,0,0,0,0,-1.8,0,0,0,0,0,0,-1.8,0,0,-1.8,0,0,0,-1.8,0,0,-1.8,0,0,0,-1.8,0,0,0,0" 
class="s2_12"
>&lt;li&gt;Will the drums be centre stage? Or off to one side?</text>

<path d="M549.5,778.5L545,775.9l4.5,-2.8l0,-1l-5.6,3.3l0,0.9l5.6,3.3l0,-1.1Z" class="g5_12" />
<path d="M557.5,770.5L553,781.4l1.1,0l4.6,-10.9l-1.2,0Z" class="g5_12" />
<path d="M567.5,780.5l-2,0l0,-10l-3,0l0,1l2,0l0,10l3,0l0,-1Z" class="g5_12" />
<path d="M574.3,770.7c-0.2,0.2,-0.3,0.4,-0.3,0.6c0,0.2,0.1,0.4,0.3,0.6c0.1,0.1,0.3,0.2,0.5,0.2c0.2,0,0.4,-0.1,0.6,-0.2c0.1,-0.2,0.2,-0.4,0.2,-0.6c0,-0.2,-0.1,-0.4,-0.2,-0.6c-0.2,-0.1,-0.4,-0.2,-0.6,-0.2c-0.2,0,-0.4,0.1,-0.5,0.2Zm1.1,2.8l-3.5,0l0,1l2.3,0l0,6.7l1.2,0l0,-7.7Z" class="g5_12" />
<path d="M586.4,775.4l-5.5,-3.3l0,1l4.4,2.8l-4.4,2.6l0,1.1l5.5,-3.3l0,-0.9Z" class="g5_12" />
<text 
x="542" 
y="781" 
dx="0,0,0,0,0" 
class="s2_12"
>&lt;/li&gt;</text>

<path d="M63.6,799.9l-4.5,-2.7l4.5,-2.7l0,-1.1L58,796.8l0,0.9l5.6,3.3l0,-1.1Z" class="g5_12" />
<path d="M72.5,801.5l-2,0l0,-9l-3,0l0,1l2,0l0,9l3,0l0,-1Z" class="g5_12" />
<path d="M79.2,792.1c-0.2,0.2,-0.3,0.4,-0.3,0.6c0,0.2,0.1,0.4,0.3,0.6c0.1,0.1,0.3,0.2,0.5,0.2c0.2,0,0.4,-0.1,0.6,-0.2c0.1,-0.2,0.2,-0.4,0.2,-0.6c0,-0.2,-0.1,-0.4,-0.2,-0.6c-0.2,-0.1,-0.4,-0.2,-0.6,-0.2c-0.2,0,-0.4,0.1,-0.5,0.2Zm1.1,2.7l-3.5,0l0,1l2.3,0l0,6.8l1.2,0l0,-7.8Z" class="g5_12" />
<path d="M91.4,796.8l-5.6,-3.4l0,1.1l4.5,2.7l-4.5,2.7l0,1.1l5.6,-3.3l0,-0.9Z" class="g5_12" />
<text 
x="56" 
y="802" 
dx="0,0,0,0,0,0,0,0.4,0,0,0,0,0,0.4,0,0.4,0,0,0,0,0,0,0,0,0,0,0,0,0.4,0,0,0,0.4,0,0,0,0.4,0,0,0,0,0,0,0,0,0,0.4,0,0,0.4,0,0,0,0,0.4,0,0,0,0,0,0,0.4,0,0,0,0,0,0,0.4,0,0,0,0,0,0,0.4,0,0" 
class="s2_12"
>&lt;li&gt;Is there a power-socket for the amplifier if your guitar player stands on </text>

<text 
x="56" 
y="824" 
dx="0,0,0,0,-1.8,0,0,0,0,0" 
class="s2_12"
>the right?</text>

<path d="M153.4,821.3l-4.5,-2.7l4.5,-2.7l0,-1.1l-5.6,3.4l0,0.8l5.6,3.4l0,-1.1Z" class="g5_12" />
<path d="M161.5,813.3l-4.6,10.9l1.1,0l4.6,-10.9l-1.1,0Z" class="g5_12" />
<path d="M171.5,822.5l-2,0l0,-9l-3,0l0,1l2,0l0,10l3,0l0,-2Z" class="g5_12" />
<path d="M178.2,813.5c-0.2,0.2,-0.2,0.4,-0.2,0.6c0,0.2,0,0.4,0.2,0.6c0.2,0.1,0.3,0.2,0.5,0.2c0.3,0,0.5,-0.1,0.6,-0.2c0.2,-0.2,0.2,-0.4,0.2,-0.6c0,-0.2,0,-0.4,-0.2,-0.6c-0.2,-0.1,-0.3,-0.2,-0.6,-0.2c-0.2,0,-0.3,0.1,-0.5,0.2Zm1.1,2.7l-3.4,0l0,1l2.2,0l0,6.8l1.2,0l0,-7.8Z" class="g5_12" />
<path d="M190.4,818.2l-5.6,-3.4l0,1.1l4.5,2.7l-4.5,2.7l0,1.1l5.6,-3.4l0,-0.8Z" class="g5_12" />
<text 
x="146" 
y="824" 
dx="0,0,0,0,0" 
class="s2_12"
>&lt;/li&gt;</text>

<path d="M63.6,842.7L59.1,840l4.5,-2.7l0,-1.1L58,839.5l0,0.9l5.6,3.4l0,-1.1Z" class="g5_12" />
<path d="M71.6,834.7l-4.5,10.9l1.1,0l4.5,-10.9l-1.1,0Z" class="g5_12" />
<path d="M82.2,837.6l-1.1,0l0,5.6c-0.9,0.9,-1.6,1.4,-2.3,1.4c-0.5,0,-0.9,-0.2,-1.1,-0.5c-0.2,-0.4,-0.3,-0.8,-0.3,-1.5l0,-5l-1.2,0l0,5.3c0,1.8,0.8,2.7,2.2,2.7c0.9,0,1.8,-0.5,2.7,-1.4l0,1.2l1.1,0l0,-7.8Z" class="g5_12" />
<path d="M90.5,844.5l-2,0l0,-10l-3,0l0,1l2,0l0,10l3,0l0,-1Z" class="g5_12" />
<path d="M100.5,839.5L95,836.2l0,1.1l4.4,2.7L95,842.7l0,1.1l5.5,-3.4l0,-0.9Z" class="g5_12" />
<text 
x="56" 
y="845" 
dx="0,0,0,0,0" 
class="s2_12"
>&lt;/ul&gt;</text>

<path d="M63.6,864.1l-4.5,-2.7l4.5,-2.7l0,-1.1L58,860.9l0,0.9l5.6,3.4l0,-1.1Z" class="g5_12" />
<path d="M68.2,859l-1.1,0l0,10.9l1.1,0l0,-4.2c0.3,0.4,0.6,0.7,1,0.9c0.5,0.3,0.9,0.4,1.4,0.4c0.9,0,1.6,-0.4,2.1,-1.2c0.6,-0.8,0.8,-1.8,0.8,-3c0,-1.2,-0.2,-2.1,-0.7,-2.9c-0.5,-0.7,-1.2,-1.1,-2.1,-1.1c-0.5,0,-1,0.1,-1.4,0.3c-0.5,0.3,-0.8,0.6,-1.1,0.9l0,-1Zm2.1,0.8c0.7,0,1.1,0.3,1.5,0.9c0.4,0.5,0.5,1.3,0.5,2.2c0,0.8,-0.2,1.6,-0.5,2.2c-0.4,0.5,-0.9,0.8,-1.5,0.8c-0.4,0,-0.8,-0.1,-1.2,-0.4c-0.4,-0.3,-0.6,-0.7,-0.9,-1.1l0,-3.2c0.6,-0.9,1.3,-1.4,2.1,-1.4Z" class="g5_12" />
<path d="M82.2,860.9l-5.6,-3.3l0,1.1l4.5,2.7l-4.5,2.7l0,1.1l5.6,-3.4l0,-0.9Z" class="g5_12" />
<text 
x="56" 
y="866" 
dx="0,0,0,0,0,0,0,0,6.6,0,0,0,0,6.6,0,0,0,0,0,0,6.6,0,0,6.6,0,0,0,0,0,6.6,0,0,0,0,0,6.6,0,0,0,6.6,0,0,0,0" 
class="s2_12"
>&lt;p&gt;It's much better to think about all this </text>

<path d="M519.7,864.1l-4.5,-2.7l4.5,-2.7l0,-1.1l-5.6,3.3l0,0.9l5.6,3.4l0,-1.1Z" class="g5_12" />
<path d="M528.6,859.1c-0.7,-0.2,-1.4,-0.3,-2.1,-0.3c-0.9,0,-1.7,0.2,-2.3,0.6c-0.6,0.4,-0.9,0.9,-0.9,1.6c0,0.3,0.1,0.6,0.2,0.8c0.1,0.3,0.3,0.5,0.6,0.7c0.2,0.2,0.5,0.3,0.7,0.4c0.3,0.1,0.8,0.2,1.4,0.4c0.7,0.2,1.2,0.5,1.4,0.7c0.2,0.2,0.3,0.4,0.3,0.7c0,0.4,-0.2,0.7,-0.6,0.9c-0.4,0.3,-0.9,0.4,-1.6,0.4c-0.7,0,-1.4,-0.2,-2.1,-0.5l-0.2,1c0.6,0.3,1.4,0.5,2.4,0.5c0.9,0,1.7,-0.2,2.3,-0.7c0.7,-0.4,1,-1,1,-1.7c0,-0.4,-0.1,-0.7,-0.3,-1c-0.1,-0.3,-0.4,-0.5,-0.7,-0.7c-0.3,-0.3,-0.7,-0.4,-1.3,-0.6L525.7,862c-0.5,-0.1,-0.8,-0.3,-1,-0.5c-0.2,-0.1,-0.2,-0.3,-0.2,-0.5c0,-0.4,0.1,-0.7,0.5,-0.9c0.4,-0.2,0.9,-0.3,1.5,-0.3c0.6,0,1.2,0.1,1.9,0.3l0.2,-1Z" class="g5_12" />
<path d="M538.2,865.5c-0.6,0.3,-1.2,0.5,-1.9,0.5c-0.3,0,-0.6,-0.2,-0.8,-0.4c-0.2,-0.3,-0.3,-0.7,-0.3,-1.1l0,-4.5l2.6,0l0,-1l-2.6,0l0,-2.1l-1.2,0l0,2.1l-1.5,0l0,1l1.5,0l0,4.8c0,1.4,0.7,2.2,2.1,2.2c0.8,0,1.5,-0.2,2.3,-0.6l-0.2,-0.9Z" class="g5_12" />
<path d="M545.9,858.8c-1,0,-1.8,0.6,-2.4,1.8l0,-1.6l-1.2,0l0,7.8l1.2,0l0,-5c0,-0.1,0.1,-0.3,0.4,-0.7c0.3,-0.3,0.6,-0.6,0.9,-0.8c0.3,-0.2,0.7,-0.3,1,-0.3c0.4,0,0.8,0.1,1.4,0.3l0.4,-1.1c-0.5,-0.2,-1.1,-0.4,-1.7,-0.4Z" class="g5_12" />
<path d="M551.1,859.9c-0.6,0.8,-0.9,1.8,-0.9,3c0,1.2,0.3,2.2,0.9,3c0.6,0.7,1.5,1.1,2.6,1.1c1,0,1.9,-0.4,2.5,-1.1c0.6,-0.8,1,-1.8,1,-3c0,-1.2,-0.4,-2.2,-1,-3c-0.6,-0.7,-1.5,-1.1,-2.5,-1.1c-1.1,0,-2,0.4,-2.6,1.1Zm0.9,5.2c-0.4,-0.6,-0.6,-1.3,-0.6,-2.2c0,-0.9,0.2,-1.7,0.6,-2.2c0.4,-0.6,0.9,-0.9,1.7,-0.9c0.7,0,1.2,0.3,1.6,0.9c0.4,0.6,0.6,1.3,0.6,2.2c0,0.9,-0.2,1.6,-0.6,2.2c-0.4,0.6,-0.9,0.9,-1.6,0.9c-0.8,0,-1.3,-0.3,-1.7,-0.9Z" class="g5_12" />
<path d="M565.8,861.5c0,-1.8,-0.7,-2.7,-2.1,-2.7c-1,0,-1.8,0.5,-2.7,1.3l0,-1.1l-1.1,0l0,7.8l1.1,0l0,-5.6c0.8,-0.9,1.6,-1.4,2.3,-1.4c0.5,0,0.8,0.2,1,0.5c0.3,0.3,0.4,0.8,0.4,1.5l0,5l1.1,0l0,-5.3Z" class="g5_12" />
<path d="M571.6,863.9c0.8,0,1.4,-0.3,1.9,-0.8c0.5,-0.5,0.7,-1.1,0.7,-1.8c0,-0.5,-0.1,-1,-0.3,-1.3l1.5,0l0,-1.2l-2.3,0.4c-0.4,-0.3,-0.9,-0.4,-1.5,-0.4c-0.7,0,-1.3,0.3,-1.8,0.7c-0.5,0.5,-0.8,1.1,-0.8,1.8c0,0.5,0.1,0.9,0.4,1.3c0.2,0.4,0.5,0.7,0.9,1c-0.9,0.5,-1.3,1,-1.3,1.5c0,0.5,0.3,0.9,1,1.2c-0.8,0.5,-1.3,1,-1.3,1.6c0,0.6,0.3,1.1,0.9,1.4c0.5,0.4,1.2,0.6,2.1,0.6c1,0,1.9,-0.3,2.7,-0.8c0.8,-0.6,1.2,-1.3,1.2,-2.1c0,-0.6,-0.2,-1,-0.5,-1.3c-0.4,-0.3,-0.8,-0.5,-1.5,-0.5l-2.6,0.1c-0.3,0,-0.5,-0.1,-0.7,-0.2c-0.1,-0.1,-0.2,-0.2,-0.2,-0.3c0,-0.3,0.3,-0.6,1.1,-1c0.1,0.1,0.3,0.1,0.4,0.1Zm-1,-1.4c-0.3,-0.3,-0.4,-0.7,-0.4,-1.1c0,-0.5,0.1,-0.9,0.4,-1.2c0.3,-0.3,0.6,-0.4,1,-0.4c0.5,0,0.8,0.1,1.1,0.4c0.3,0.3,0.4,0.7,0.4,1.2c0,0.4,-0.2,0.8,-0.4,1.1c-0.3,0.3,-0.6,0.5,-1.1,0.5c-0.4,0,-0.7,-0.2,-1,-0.5Zm-0.3,6.1c-0.3,-0.2,-0.5,-0.5,-0.5,-0.8c0,-0.1,0.1,-0.3,0.2,-0.5c0.1,-0.2,0.3,-0.4,0.5,-0.6c0.3,-0.1,0.4,-0.2,0.6,-0.2c0.2,0,0.5,0,0.9,-0.1c0.6,0,1,0,1.3,0c0.8,0,1.1,0.3,1.1,0.8c0,0.5,-0.2,0.9,-0.8,1.2c-0.5,0.4,-1.2,0.5,-1.9,0.5c-0.6,0,-1,-0.1,-1.4,-0.3Z" class="g5_12" />
<path d="M584.1,860.9l-5.5,-3.3l0,1.1l4.4,2.7l-4.4,2.7l0,1.1l5.5,-3.4l0,-0.9Z" class="g5_12" />
<text 
x="512" 
y="866" 
dx="0,0,0,0,0,0,0,0,0,0,0,0,0,0" 
class="s2_12"
>&lt;strong&gt;before</text>

<path d="M648,864.1l-4.4,-2.7l4.4,-2.7l0,-1.1l-5.5,3.3l0,0.9l5.5,3.4l0,-1.1Z" class="g5_12" />
<path d="M656.1,856.1L651.5,867l1.1,0l4.6,-10.9l-1.1,0Z" class="g5_12" />
<path d="M666.1,859.1c-0.7,-0.2,-1.4,-0.3,-2,-0.3c-1,0,-1.8,0.2,-2.4,0.6c-0.6,0.4,-0.9,0.9,-0.9,1.6c0,0.3,0.1,0.6,0.2,0.8c0.2,0.3,0.3,0.5,0.6,0.7c0.2,0.2,0.5,0.3,0.8,0.4c0.3,0.1,0.7,0.2,1.3,0.4c0.7,0.2,1.2,0.5,1.4,0.7c0.2,0.2,0.3,0.4,0.3,0.7c0,0.4,-0.2,0.7,-0.6,0.9c-0.4,0.3,-0.9,0.4,-1.6,0.4c-0.7,0,-1.4,-0.2,-2.1,-0.5l-0.2,1c0.6,0.3,1.4,0.5,2.4,0.5c0.9,0,1.7,-0.2,2.4,-0.7c0.6,-0.4,0.9,-1,0.9,-1.7c0,-0.4,-0.1,-0.7,-0.3,-1c-0.1,-0.3,-0.4,-0.5,-0.7,-0.7c-0.3,-0.3,-0.7,-0.4,-1.2,-0.6L663.3,862c-0.6,-0.1,-0.9,-0.3,-1.1,-0.5C662.1,861.4,662,861.2,662,861c0,-0.4,0.2,-0.7,0.5,-0.9c0.4,-0.2,0.9,-0.3,1.5,-0.3c0.6,0,1.2,0.1,1.9,0.3l0.2,-1Z" class="g5_12" />
<path d="M675.7,865.5c-0.6,0.3,-1.2,0.5,-1.9,0.5c-0.3,0,-0.6,-0.2,-0.8,-0.4c-0.2,-0.3,-0.3,-0.7,-0.3,-1.1l0,-4.5l2.6,0l0,-1l-2.6,0l0,-2.1l-1.2,0l0,2.1l-1.4,0l0,1l1.4,0l0,4.8c0,1.4,0.7,2.2,2.1,2.2c0.8,0,1.6,-0.2,2.3,-0.6l-0.2,-0.9Z" class="g5_12" />
<path d="M683.4,858.8c-1,0,-1.8,0.6,-2.4,1.8l0,-1.6l-1.1,0l0,7.8l1.1,0l0,-5c0,-0.1,0.2,-0.3,0.4,-0.7c0.3,-0.3,0.6,-0.6,0.9,-0.8c0.4,-0.2,0.7,-0.3,1,-0.3c0.4,0,0.9,0.1,1.4,0.3l0.4,-1.1c-0.5,-0.2,-1.1,-0.4,-1.7,-0.4Z" class="g5_12" />
<path d="M688.6,859.9c-0.6,0.8,-0.9,1.8,-0.9,3c0,1.2,0.3,2.2,0.9,3c0.7,0.7,1.5,1.1,2.6,1.1c1.1,0,1.9,-0.4,2.5,-1.1c0.7,-0.8,1,-1.8,1,-3c0,-1.2,-0.3,-2.2,-1,-3c-0.6,-0.7,-1.4,-1.1,-2.5,-1.1c-1.1,0,-1.9,0.4,-2.6,1.1Zm0.9,5.2c-0.4,-0.6,-0.6,-1.3,-0.6,-2.2c0,-0.9,0.2,-1.7,0.6,-2.2c0.4,-0.6,1,-0.9,1.7,-0.9c0.7,0,1.3,0.3,1.7,0.9c0.4,0.6,0.6,1.3,0.6,2.2c0,0.9,-0.2,1.6,-0.6,2.2c-0.5,0.6,-1,0.9,-1.7,0.9c-0.7,0,-1.3,-0.3,-1.7,-0.9Z" class="g5_12" />
<path d="M703.4,861.5c0,-1.8,-0.8,-2.7,-2.2,-2.7c-0.9,0,-1.8,0.5,-2.7,1.3l0,-1.1l-1.1,0l0,7.8l1.1,0l0,-5.6c0.9,-0.9,1.6,-1.4,2.3,-1.4c0.5,0,0.8,0.2,1.1,0.5c0.2,0.3,0.3,0.8,0.3,1.5l0,5l1.2,0l0,-5.3Z" class="g5_12" />
<path d="M709.2,863.9c0.7,0,1.3,-0.3,1.8,-0.8c0.5,-0.5,0.8,-1.1,0.8,-1.8c0,-0.5,-0.1,-1,-0.4,-1.3l1.5,0l0,-1.2l-2.3,0.4c-0.4,-0.3,-0.9,-0.4,-1.4,-0.4c-0.8,0,-1.4,0.3,-1.9,0.7c-0.5,0.5,-0.8,1.1,-0.8,1.8c0,0.5,0.2,0.9,0.4,1.3c0.2,0.4,0.5,0.7,0.9,1c-0.9,0.5,-1.3,1,-1.3,1.5c0,0.5,0.3,0.9,1,1.2c-0.8,0.5,-1.2,1,-1.2,1.6c0,0.6,0.2,1.1,0.8,1.4c0.5,0.4,1.2,0.6,2.1,0.6c1,0,2,-0.3,2.8,-0.8c0.7,-0.6,1.1,-1.3,1.1,-2.1c0,-0.6,-0.1,-1,-0.5,-1.3c-0.3,-0.3,-0.8,-0.5,-1.4,-0.5l-2.7,0.1c-0.2,0,-0.5,-0.1,-0.6,-0.2c-0.2,-0.1,-0.3,-0.2,-0.3,-0.3c0,-0.3,0.4,-0.6,1.1,-1c0.1,0.1,0.3,0.1,0.5,0.1Zm-1.1,-1.4c-0.3,-0.3,-0.4,-0.7,-0.4,-1.1c0,-0.5,0.1,-0.9,0.4,-1.2c0.3,-0.3,0.6,-0.4,1.1,-0.4c0.4,0,0.7,0.1,1,0.4c0.3,0.3,0.4,0.7,0.4,1.2c0,0.4,-0.1,0.8,-0.4,1.1c-0.3,0.3,-0.6,0.5,-1,0.5c-0.5,0,-0.8,-0.2,-1.1,-0.5Zm-0.2,6.1c-0.4,-0.2,-0.5,-0.5,-0.5,-0.8c0,-0.1,0,-0.3,0.1,-0.5c0.2,-0.2,0.3,-0.4,0.6,-0.6c0.2,-0.1,0.4,-0.2,0.5,-0.2c0.2,0,0.5,0,0.9,-0.1c0.6,0,1.1,0,1.3,0c0.8,0,1.2,0.3,1.2,0.8c0,0.5,-0.3,0.9,-0.8,1.2c-0.6,0.4,-1.2,0.5,-2,0.5c-0.6,0,-1,-0.1,-1.3,-0.3Z" class="g5_12" />
<path d="M721.7,860.9l-5.6,-3.3l0,1.1l4.5,2.7l-4.5,2.7l0,1.1l5.6,-3.4l0,-0.9Z" class="g5_12" />
<text 
x="640" 
y="866" 
dx="0,0,0,0,0,0,0,0,0,0,6.6,0,0,0" 
class="s2_12"
>&lt;/strong&gt; you </text>

<text 
x="56" 
y="888" 
dx="0,0,0,0,0,0,5.4,0,0,0,0,0,0,0,5.4,0,0,5.4,0,0,0,0,5.4,0,0,0,0,0,0,0,0,0,0,0,0,5.4,0,0,0,0,5.4,0,0,0,0,0,0,5.4,0,0,0,0,0,0,0,0,0,5.4,0,0,5.4,0,0,0,5.4,0,0,0,0,5.4,0,0" 
class="s2_12"
>start setting up your instruments. It's really annnoying if you have to </text>

<text 
x="56" 
y="909" 
dx="0,0,0,0,0,0,8.7,0,0,0,0,0,0,0,0,0,0,8.7,0,0,0,0,0,0,8.7,0,0,0,8.7,0,0,0,0,0,0,0,0,8.7,0,0,0,0,0,0,8.7,0,0,0,0,8.7,0,0,0,0,0,0,8.7,0,0,0,0,0,8.7,0,0,8.7,0,0,0" 
class="s2_12"
>start unplugging things and swapping places once you've begun to set </text>

<text 
x="56" 
y="930" 
dx="0,0,0,0,0,0,0,-1.8,0,0" 
class="s2_12"
>things up!</text>

<path d="M153.4,928.2l-4.5,-2.6l4.5,-2.7l0,-1.1l-5.6,3.3l0,0.9l5.6,3.3l0,-1.1Z" class="g5_12" />
<path d="M161.5,920.2l-4.6,10.9l1.1,0l4.6,-10.9l-1.1,0Z" class="g5_12" />
<path d="M167.3,923.2l-1.2,0l0,10.8l1.2,0l0,-4.2c0.2,0.4,0.5,0.7,0.9,1c0.5,0.2,0.9,0.3,1.4,0.3c0.9,0,1.6,-0.3,2.2,-1.1c0.5,-0.8,0.8,-1.8,0.8,-3c0,-1.2,-0.3,-2.2,-0.8,-2.9c-0.5,-0.7,-1.2,-1.1,-2.1,-1.1c-0.5,0,-1,0.1,-1.4,0.3c-0.4,0.2,-0.8,0.5,-1,0.9l0,-1Zm2,0.8c0.7,0,1.2,0.3,1.5,0.8c0.4,0.6,0.5,1.3,0.5,2.2c0,0.9,-0.1,1.6,-0.5,2.2c-0.4,0.6,-0.9,0.9,-1.5,0.9c-0.4,0,-0.8,-0.1,-1.2,-0.4c-0.3,-0.3,-0.6,-0.7,-0.8,-1.1l0,-3.3c0.5,-0.9,1.2,-1.3,2,-1.3Z" class="g5_12" />
<path d="M181.2,925.1l-5.6,-3.3l0,1.1l4.5,2.7l-4.5,2.6l0,1.1l5.6,-3.3l0,-0.9Z" class="g5_12" />
<text 
x="146" 
y="930" 
dx="0,0,0,0" 
class="s2_12"
>&lt;/p&gt;</text>

<path d="M63.6,949.6L59.1,947l4.5,-2.8l0,-1L58,946.5l0,0.9l5.6,3.3l0,-1.1Z" class="g5_12" />
<path d="M73.1,947c0,-1.7,-0.8,-2.6,-2.2,-2.6c-0.9,0,-1.8,0.4,-2.7,1.3l0,-3.9l-1.1,0l0,10.5l1.1,0l0,-5.6c0.9,-0.9,1.6,-1.3,2.3,-1.3c0.5,0,0.8,0.1,1.1,0.4c0.2,0.4,0.3,0.9,0.3,1.6l0,4.9l1.2,0l0,-5.3Z" class="g5_12" />
<path d="M82,951.3l-4.5,0c1.4,-1.5,2.3,-2.5,2.7,-3.1c0.5,-0.6,0.9,-1.2,1.2,-1.8c0.3,-0.6,0.4,-1.2,0.4,-1.9c0,-0.9,-0.3,-1.6,-0.9,-2.1c-0.5,-0.5,-1.3,-0.8,-2.2,-0.8c-0.8,0,-1.6,0.2,-2.4,0.5l0.2,1c0.8,-0.3,1.5,-0.4,2,-0.4c0.6,0,1.1,0.2,1.5,0.5c0.3,0.3,0.5,0.8,0.5,1.4c0,0.6,-0.1,1.2,-0.4,1.8c-0.3,0.6,-0.6,1.2,-1.1,1.8c-0.4,0.5,-1.4,1.6,-2.8,3.2l0,0.9l5.8,0l0,-1Z" class="g5_12" />
<path d="M91.4,946.5l-5.6,-3.3l0,1l4.5,2.8l-4.5,2.6l0,1.1l5.6,-3.3l0,-0.9Z" class="g5_12" />
<text 
x="56" 
y="952" 
dx="0,0,0,0,0,0,0,0,0,-1.8,0,0,0,0,0,-1.8,0,0,0,0,0,0,-1.8,0,0,0,0,0,0,-1.8,0,0,0,0,-1.8,0,0,0,0,-1.8,0,0,0,0,0,0,-1.8,0" 
class="s2_12"
>&lt;h2&gt;Know where you're going, know when you're on</text>

<path d="M490.8,949.6L486.3,947l4.5,-2.8l0,-1l-5.6,3.3l0,0.9l5.6,3.3l0,-1.1Z" class="g5_12" />
<path d="M498.9,941.6l-4.6,10.9l1.1,0L500,941.6l-1.1,0Z" class="g5_12" />
<path d="M509.5,947c0,-1.7,-0.8,-2.6,-2.2,-2.6c-0.9,0,-1.8,0.4,-2.7,1.3l0,-3.9l-1.1,0l0,10.5l1.1,0l0,-5.6c0.9,-0.9,1.6,-1.3,2.3,-1.3c0.5,0,0.8,0.1,1.1,0.4c0.2,0.4,0.3,0.9,0.3,1.6l0,4.9l1.2,0l0,-5.3Z" class="g5_12" />
<path d="M518.4,951.3l-4.5,0c1.4,-1.5,2.3,-2.5,2.7,-3.1c0.5,-0.6,0.9,-1.2,1.2,-1.8c0.3,-0.6,0.4,-1.2,0.4,-1.9c0,-0.9,-0.3,-1.6,-0.9,-2.1c-0.5,-0.5,-1.3,-0.8,-2.2,-0.8c-0.8,0,-1.6,0.2,-2.4,0.5l0.2,1c0.8,-0.3,1.5,-0.4,2,-0.4c0.6,0,1.1,0.2,1.5,0.5c0.3,0.3,0.5,0.8,0.5,1.4c0,0.6,-0.1,1.2,-0.4,1.8c-0.3,0.6,-0.6,1.2,-1.1,1.8c-0.4,0.5,-1.4,1.6,-2.8,3.2l0,0.9l5.8,0l0,-1Z" class="g5_12" />
<path d="M527.8,946.5l-5.6,-3.3l0,1l4.5,2.8l-4.5,2.6l0,1.1l5.6,-3.3l0,-0.9Z" class="g5_12" />
<text 
x="483" 
y="952" 
dx="0,0,0,0,0" 
class="s2_12"
>&lt;/h2&gt;</text>

<path d="M63.6,971l-4.5,-2.6l4.5,-2.8l0,-1L58,967.9l0,0.9l5.6,3.3l0,-1.1Z" class="g5_12" />
<path d="M68.2,966l-1.1,0l0,10.8l1.1,0l0,-4.2c0.3,0.4,0.6,0.7,1,1c0.5,0.2,0.9,0.3,1.4,0.3c0.9,0,1.6,-0.4,2.1,-1.2c0.6,-0.8,0.8,-1.8,0.8,-2.9c0,-1.2,-0.2,-2.2,-0.7,-2.9c-0.5,-0.8,-1.2,-1.1,-2.1,-1.1c-0.5,0,-1,0.1,-1.4,0.3c-0.5,0.2,-0.8,0.5,-1.1,0.9l0,-1Zm2.1,0.8c0.7,0,1.1,0.3,1.5,0.8c0.4,0.6,0.5,1.3,0.5,2.2c0,0.9,-0.2,1.6,-0.5,2.2c-0.4,0.6,-0.9,0.9,-1.5,0.9c-0.4,0,-0.8,-0.2,-1.2,-0.5c-0.4,-0.3,-0.6,-0.6,-0.9,-1.1l0,-3.2c0.6,-0.9,1.3,-1.3,2.1,-1.3Z" class="g5_12" />
<path d="M82.2,967.9l-5.6,-3.3l0,1l4.5,2.8L76.6,971l0,1.1l5.6,-3.3l0,-0.9Z" class="g5_12" />
<text 
x="56" 
y="973" 
dx="0,0,0,0,0,0,-1.2,0,0,0,0,0,0,-1.2,0,0,0,0,0,0,0,-1.2,0,-1.2,0,0,0,0,0,0,0,-1.2,0,0,0,0,0,0,0,0,0,-1.2,0,0,0,0,0,0,-1.2,0,0,0,0,0,-1.2,0,0,0,0,-1.2,0,0,0,0,0,0,-1.2,0,0,0,0,-1.2,0,0,0,0,-1.2,0,0,0" 
class="s2_12"
>&lt;p&gt;If you're playing a concert somewhere you've never been before make sure you </text>

<text 
x="879" 
y="75" 
dx="0,0,0,0,0,-1.4,0,0,0,0,0,-1.4,0,0,-1.4,0,0,0,-1.4,0,0,0,0,0,-1.4,0,0,0,-1.4,0,-1.4,0,0,0,-1.4,0,0,-1.4,0,0,0,-1.4,0,0,0,-1.4,0,0,0,-1.4,0,0,0,-1.4,0,0,0,0,0,0,-1.4,0,0,0,-1.4,0,0,0,-1.4,0,0,0,0,-1.4,0,0,0,0,0,0,0" 
class="s2_12"
>know where it is. Print out a map or set the sat nav before you set out. There's </text>

<text 
x="879" 
y="96" 
dx="0,0,0,0,0,0,0,0,-1.3,0,0,0,0,0,-1.3,0,0,0,0,-1.3,0,0,0,0,0,-1.3,0,0,0,0,-1.3,0,0,-1.3,0,0,-1.3,0,0,0,0,0,0,0,0,0,0,-1.3,0,0,0,0,0,-1.3,0,0,0,0,0,0,0,0,0,0,0,0,-1.3,0,0,0,0,0,0,-1.3,0,0,0,0,0,0" 
class="s2_12"
>nothing worse than being lost in an unfamiliar place half-an-hour before you're </text>

<text 
x="879" 
y="118" 
dx="0,0,0,0,-1.8,0,0,-1.8,0,0,-1.8,0,0,0,0,0,0,0,0" 
class="s2_12"
>due to go on-stage.</text>

<path d="M1055.2,115.5l-4.5,-2.7l4.5,-2.7l0,-1.1l-5.6,3.3l0,0.9l5.6,3.4l0,-1.1Z" class="g5_12" />
<path d="M1063.3,107.4l-4.6,11l1.1,0l4.6,-11l-1.1,0Z" class="g5_12" />
<path d="M1069.1,110.4l-1.2,0l0,10.8l1.2,0l0,-4.2c0.2,0.4,0.5,0.8,1,1c0.4,0.2,0.8,0.4,1.3,0.4c0.9,0,1.6,-0.4,2.2,-1.2c0.5,-0.8,0.8,-1.8,0.8,-3c0,-1.2,-0.3,-2.1,-0.8,-2.9c-0.5,-0.7,-1.2,-1.1,-2.1,-1.1c-0.5,0,-1,0.1,-1.4,0.3c-0.4,0.3,-0.8,0.5,-1,0.9l0,-1Zm2,0.8c0.7,0,1.2,0.3,1.5,0.9c0.4,0.5,0.6,1.3,0.6,2.2c0,0.8,-0.2,1.6,-0.6,2.1c-0.4,0.6,-0.9,0.9,-1.5,0.9c-0.4,0,-0.8,-0.1,-1.2,-0.4c-0.3,-0.3,-0.6,-0.7,-0.8,-1.1l0,-3.2c0.5,-0.9,1.2,-1.4,2,-1.4Z" class="g5_12" />
<path d="M1083,112.3l-5.6,-3.3l0,1.1l4.5,2.7l-4.5,2.7l0,1.1l5.6,-3.4l0,-0.9Z" class="g5_12" />
<text 
x="1047" 
y="118" 
dx="0,0,0,0" 
class="s2_12"
>&lt;/p&gt;</text>

<path d="M886.5,136.9l-4.4,-2.7l4.4,-2.7l0,-1.1l-5.5,3.3l0,0.9l5.5,3.4l0,-1.1Z" class="g5_12" />
<path d="M891.2,131.8l-1.2,0l0,10.8l1.2,0l0,-4.2c0.2,0.4,0.6,0.8,1,1c0.4,0.2,0.9,0.4,1.3,0.4c0.9,0,1.7,-0.4,2.2,-1.2c0.5,-0.8,0.8,-1.8,0.8,-3c0,-1.2,-0.2,-2.2,-0.8,-2.9c-0.5,-0.7,-1.2,-1.1,-2.1,-1.1c-0.5,0,-0.9,0.1,-1.4,0.3c-0.4,0.2,-0.7,0.5,-1,0.9l0,-1Zm2.1,0.8c0.6,0,1.1,0.3,1.5,0.9c0.3,0.5,0.5,1.3,0.5,2.1c0,0.9,-0.2,1.6,-0.6,2.2c-0.3,0.6,-0.8,0.9,-1.5,0.9c-0.4,0,-0.7,-0.1,-1.1,-0.4c-0.4,-0.3,-0.7,-0.7,-0.9,-1.1l0,-3.3c0.6,-0.8,1.3,-1.3,2.1,-1.3Z" class="g5_12" />
<path d="M905.2,133.7l-5.6,-3.3l0,1.1l4.5,2.7l-4.5,2.7l0,1.1l5.6,-3.4l0,-0.9Z" class="g5_12" />
<text 
x="879" 
y="139" 
dx="0,0,0,0,0,0,0,1,0,0,0,0,1,0,0,0,1,0,0,1,0,0,0,0,0,0,0,1,0,0,0,1,0,0,0,0,0,1,0,0,0,0,0,1,0,0,0,1,0,0,0,0,0,0,1,0,0,1,0,0" 
class="s2_12"
>&lt;p&gt;And when you do arrive, the first thing you should do is </text>

<path d="M1448.9,136.9l-4.4,-2.7l4.4,-2.7l0,-1.1l-5.6,3.3l0,0.9l5.6,3.4l0,-1.1Z" class="g5_12" />
<path d="M1457.9,131.9c-0.8,-0.2,-1.5,-0.3,-2.1,-0.3c-1,0,-1.8,0.2,-2.4,0.6c-0.5,0.4,-0.8,0.9,-0.8,1.6c0,0.3,0,0.6,0.2,0.8c0.1,0.3,0.3,0.5,0.5,0.7c0.2,0.1,0.5,0.3,0.8,0.4c0.3,0.1,0.7,0.2,1.3,0.4c0.8,0.2,1.2,0.4,1.4,0.6c0.2,0.3,0.3,0.5,0.3,0.8c0,0.4,-0.2,0.7,-0.6,0.9c-0.4,0.3,-0.9,0.4,-1.5,0.4c-0.8,0,-1.5,-0.2,-2.1,-0.5l-0.3,1c0.7,0.3,1.5,0.5,2.4,0.5c1,0,1.8,-0.3,2.4,-0.7c0.6,-0.4,0.9,-1,0.9,-1.7c0,-0.4,-0.1,-0.8,-0.2,-1c-0.2,-0.3,-0.4,-0.6,-0.8,-0.8c-0.3,-0.2,-0.7,-0.3,-1.2,-0.5l-1.1,-0.3c-0.5,-0.2,-0.9,-0.3,-1,-0.5c-0.2,-0.1,-0.3,-0.3,-0.3,-0.6c0,-0.3,0.2,-0.6,0.6,-0.8c0.3,-0.2,0.8,-0.3,1.5,-0.3c0.5,0,1.2,0.1,1.8,0.3l0.3,-1Z" class="g5_12" />
<path d="M1467.5,138.3c-0.7,0.3,-1.3,0.4,-1.9,0.4c-0.4,0,-0.7,-0.1,-0.9,-0.4c-0.2,-0.2,-0.3,-0.6,-0.3,-1.1l0,-4.4l2.6,0l0,-1l-2.6,0l0,-2.1l-1.1,0l0,2.1l-1.5,0l0,1l1.5,0l0,4.7c0,1.5,0.7,2.2,2.1,2.2c0.7,0,1.5,-0.1,2.3,-0.5l-0.2,-0.9Z" class="g5_12" />
<path d="M1475.2,131.6c-1,0,-1.8,0.6,-2.5,1.8l0,-1.6l-1.1,0l0,7.8l1.1,0l0,-5.1c0,0,0.2,-0.2,0.5,-0.6c0.2,-0.4,0.5,-0.6,0.9,-0.8c0.3,-0.2,0.6,-0.3,1,-0.3c0.3,0,0.8,0.1,1.3,0.3l0.5,-1.1c-0.6,-0.3,-1.1,-0.4,-1.7,-0.4Z" class="g5_12" />
<path d="M1480.4,132.7c-0.7,0.8,-1,1.7,-1,3c0,1.2,0.3,2.2,1,2.9c0.6,0.8,1.4,1.2,2.5,1.2c1.1,0,1.9,-0.4,2.6,-1.2c0.6,-0.7,0.9,-1.7,0.9,-2.9c0,-1.3,-0.3,-2.2,-0.9,-3c-0.7,-0.7,-1.5,-1.1,-2.6,-1.1c-1.1,0,-1.9,0.4,-2.5,1.1Zm0.8,5.2c-0.4,-0.6,-0.6,-1.4,-0.6,-2.2c0,-0.9,0.2,-1.7,0.6,-2.2c0.4,-0.6,1,-0.9,1.7,-0.9c0.7,0,1.3,0.3,1.7,0.9c0.4,0.5,0.6,1.3,0.6,2.2c0,0.8,-0.2,1.6,-0.6,2.1c-0.4,0.6,-1,0.9,-1.7,0.9c-0.7,0,-1.3,-0.3,-1.7,-0.8Z" class="g5_12" />
<path d="M1495.1,134.2c0,-1.7,-0.7,-2.6,-2.2,-2.6c-0.9,0,-1.8,0.4,-2.6,1.3l0,-1.1l-1.2,0l0,7.8l1.2,0l0,-5.7c0.8,-0.9,1.5,-1.3,2.3,-1.3c0.4,0,0.8,0.2,1,0.5c0.2,0.3,0.3,0.8,0.3,1.5l0,5l1.2,0l0,-5.4Z" class="g5_12" />
<path d="M1500.9,136.6c0.7,0,1.4,-0.2,1.9,-0.7c0.4,-0.5,0.7,-1.1,0.7,-1.8c0,-0.5,-0.1,-1,-0.3,-1.4l1.4,0l0,-1.1l-2.3,0.3c-0.4,-0.2,-0.9,-0.3,-1.4,-0.3c-0.8,0,-1.4,0.2,-1.9,0.7c-0.5,0.5,-0.7,1.1,-0.7,1.8c0,0.5,0.1,0.9,0.3,1.3c0.2,0.4,0.5,0.7,1,1c-0.9,0.5,-1.4,1,-1.4,1.5c0,0.5,0.4,0.9,1.1,1.2c-0.9,0.4,-1.3,1,-1.3,1.6c0,0.6,0.3,1,0.8,1.4c0.6,0.4,1.3,0.5,2.1,0.5c1.1,0,2,-0.2,2.8,-0.8c0.8,-0.5,1.2,-1.2,1.2,-2.1c0,-0.5,-0.2,-0.9,-0.6,-1.2c-0.3,-0.4,-0.8,-0.5,-1.4,-0.5l-2.6,0.1c-0.3,0,-0.5,-0.1,-0.7,-0.2c-0.2,-0.1,-0.3,-0.2,-0.3,-0.3c0,-0.3,0.4,-0.6,1.1,-1c0.2,0,0.3,0,0.5,0Zm-1.1,-1.3c-0.2,-0.3,-0.4,-0.7,-0.4,-1.2c0,-0.4,0.2,-0.8,0.4,-1.1c0.3,-0.3,0.7,-0.5,1.1,-0.5c0.4,0,0.8,0.2,1,0.5c0.3,0.2,0.4,0.6,0.4,1.1c0,0.5,-0.1,0.9,-0.4,1.2c-0.2,0.3,-0.6,0.4,-1,0.4c-0.4,0,-0.8,-0.1,-1.1,-0.4Zm-0.2,6.1c-0.4,-0.2,-0.5,-0.5,-0.5,-0.8c0,-0.2,0,-0.4,0.2,-0.5c0.1,-0.2,0.3,-0.4,0.5,-0.6c0.2,-0.2,0.4,-0.2,0.5,-0.2c0.2,0,0.5,-0.1,0.9,-0.1c0.6,0,1.1,0,1.3,0c0.8,0,1.2,0.2,1.2,0.8c0,0.5,-0.3,0.9,-0.8,1.2c-0.6,0.4,-1.2,0.5,-2,0.5c-0.5,0,-1,-0.1,-1.3,-0.3Z" class="g5_12" />
<path d="M1513.4,133.7l-5.6,-3.3l0,1.1l4.5,2.7l-4.5,2.7l0,1.1l5.6,-3.4l0,-0.9Z" class="g5_12" />
<text 
x="1441" 
y="139" 
dx="0,0,0,0,0,0,0,0,0,0,0,0,0,1,0,0,0" 
class="s2_12"
>&lt;strong&gt;find out </text>

<text 
x="879" 
y="160" 
dx="0,0,0,0,0,0.4,0,0,0,0,0.4,0,0,0,0,0,0,0.4,0" 
class="s2_12"
>what time you're on</text>

<path d="M1061.8,158.2l-4.5,-2.6l4.5,-2.7l0,-1.1l-5.6,3.3l0,0.9l5.6,3.3l0,-1.1Z" class="g5_12" />
<path d="M1069.8,150.2l-4.5,10.9l1.1,0l4.5,-10.9l-1.1,0Z" class="g5_12" />
<path d="M1079.9,153.3c-0.8,-0.2,-1.5,-0.3,-2.1,-0.3c-1,0,-1.8,0.2,-2.4,0.6c-0.5,0.4,-0.8,0.9,-0.8,1.6c0,0.3,0,0.6,0.2,0.8c0.1,0.3,0.3,0.5,0.5,0.6c0.3,0.2,0.5,0.4,0.8,0.5c0.3,0,0.7,0.2,1.3,0.4c0.8,0.2,1.3,0.4,1.5,0.6c0.2,0.2,0.3,0.5,0.3,0.7c0,0.4,-0.2,0.8,-0.7,1c-0.4,0.2,-0.9,0.4,-1.5,0.4c-0.8,0,-1.5,-0.2,-2.1,-0.5l-0.2,1c0.6,0.3,1.4,0.4,2.3,0.4c1,0,1.8,-0.2,2.4,-0.6c0.6,-0.4,0.9,-1,0.9,-1.8c0,-0.3,-0.1,-0.7,-0.2,-1c-0.2,-0.2,-0.4,-0.5,-0.8,-0.7c-0.3,-0.2,-0.7,-0.4,-1.2,-0.5l-1.1,-0.3c-0.5,-0.2,-0.9,-0.3,-1,-0.5c-0.2,-0.2,-0.3,-0.3,-0.3,-0.6c0,-0.3,0.2,-0.6,0.6,-0.8c0.3,-0.2,0.8,-0.3,1.5,-0.3c0.5,0,1.2,0.1,1.8,0.3l0.3,-1Z" class="g5_12" />
<path d="M1089.5,159.7c-0.7,0.3,-1.3,0.4,-1.9,0.4c-0.4,0,-0.7,-0.1,-0.9,-0.4c-0.2,-0.2,-0.3,-0.6,-0.3,-1.1l0,-4.4l2.7,0l0,-1l-2.7,0l0,-2.2l-1.1,0l0,2.2l-1.5,0l0,1l1.5,0l0,4.7c0,1.5,0.7,2.2,2.1,2.2c0.7,0,1.5,-0.1,2.3,-0.5l-0.2,-0.9Z" class="g5_12" />
<path d="M1097.2,153c-1,0,-1.8,0.6,-2.4,1.7l0,-1.5l-1.2,0l0,7.7l1.2,0l0,-5c0,0,0.1,-0.2,0.4,-0.6c0.2,-0.4,0.5,-0.6,0.9,-0.8c0.3,-0.2,0.6,-0.3,1,-0.3c0.4,0,0.8,0.1,1.3,0.3l0.5,-1.1c-0.6,-0.3,-1.1,-0.4,-1.7,-0.4Z" class="g5_12" />
<path d="M1102.4,154.1c-0.7,0.7,-1,1.7,-1,3c0,1.2,0.3,2.2,1,2.9c0.6,0.8,1.4,1.1,2.5,1.1c1.1,0,1.9,-0.3,2.6,-1.1c0.6,-0.7,0.9,-1.7,0.9,-2.9c0,-1.3,-0.3,-2.2,-0.9,-3c-0.7,-0.7,-1.5,-1.1,-2.6,-1.1c-1.1,0,-1.9,0.4,-2.5,1.1Zm0.8,5.1c-0.4,-0.5,-0.6,-1.3,-0.6,-2.1c0,-0.9,0.2,-1.7,0.6,-2.3c0.4,-0.5,1,-0.8,1.7,-0.8c0.7,0,1.3,0.3,1.7,0.9c0.4,0.5,0.6,1.3,0.6,2.2c0,0.8,-0.2,1.5,-0.6,2.1c-0.4,0.6,-1,0.9,-1.7,0.9c-0.7,0,-1.3,-0.3,-1.7,-0.9Z" class="g5_12" />
<path d="M1117.1,155.6c0,-1.7,-0.7,-2.6,-2.2,-2.6c-0.9,0,-1.8,0.4,-2.6,1.3l0,-1.1l-1.2,0l0,7.7l1.2,0l0,-5.6c0.8,-0.9,1.5,-1.3,2.3,-1.3c0.4,0,0.8,0.1,1,0.5c0.2,0.3,0.3,0.8,0.3,1.5l0,4.9l1.2,0l0,-5.3Z" class="g5_12" />
<path d="M1122.9,158c0.7,0,1.4,-0.2,1.9,-0.7c0.5,-0.5,0.7,-1.1,0.7,-1.8c0,-0.5,-0.1,-1,-0.3,-1.4l1.4,0l0,-1.1l-2.3,0.3c-0.4,-0.2,-0.9,-0.3,-1.4,-0.3c-0.8,0,-1.4,0.2,-1.9,0.7c-0.5,0.5,-0.7,1.1,-0.7,1.8c0,0.5,0.1,0.9,0.3,1.3c0.2,0.4,0.6,0.7,1,1c-0.9,0.4,-1.4,0.9,-1.4,1.5c0,0.5,0.4,0.9,1.1,1.2c-0.9,0.4,-1.3,1,-1.3,1.6c0,0.6,0.3,1,0.8,1.4c0.6,0.3,1.3,0.5,2.1,0.5c1.1,0,2,-0.2,2.8,-0.8c0.8,-0.5,1.2,-1.2,1.2,-2.1c0,-0.5,-0.2,-1,-0.6,-1.3c-0.3,-0.3,-0.8,-0.4,-1.4,-0.4l-2.6,0.1c-0.3,0,-0.5,-0.1,-0.7,-0.2c-0.2,-0.1,-0.3,-0.2,-0.3,-0.4c0,-0.2,0.4,-0.5,1.1,-0.9c0.2,0,0.3,0,0.5,0Zm-1.1,-1.3c-0.2,-0.3,-0.4,-0.7,-0.4,-1.2c0,-0.5,0.2,-0.8,0.4,-1.1c0.3,-0.3,0.7,-0.5,1.1,-0.5c0.4,0,0.8,0.2,1,0.4c0.3,0.3,0.4,0.7,0.4,1.2c0,0.5,-0.1,0.9,-0.4,1.2c-0.2,0.3,-0.6,0.4,-1,0.4c-0.4,0,-0.8,-0.1,-1.1,-0.4Zm-0.2,6.1c-0.3,-0.2,-0.5,-0.5,-0.5,-0.8c0,-0.2,0,-0.4,0.2,-0.6c0.1,-0.1,0.3,-0.3,0.5,-0.5c0.2,-0.2,0.4,-0.3,0.5,-0.3c0.2,0,0.5,0,0.9,0c0.7,0,1.1,0,1.3,0c0.8,0,1.2,0.2,1.2,0.7c0,0.5,-0.3,1,-0.8,1.3c-0.6,0.3,-1.2,0.5,-2,0.5c-0.5,0,-1,-0.1,-1.3,-0.3Z" class="g5_12" />
<path d="M1135.4,155.1l-5.6,-3.3l0,1.1l4.5,2.7l-4.5,2.6l0,1.1l5.6,-3.3l0,-0.9Z" class="g5_12" />
<text 
x="1054" 
y="160" 
dx="0,0,0,0,0,0,0,0,0,0,0,0.4,0,0,0.4,0,0,0,0.4,0,0,0,0,0,0.4,0,0,0,0,0,0.4,0,0,0,0,0,0.4,0,0,0,0,0,0,0,0.4,0,0,0,0.4,0,0,0,0,0,0,0,0.4,0,0" 
class="s2_12"
>&lt;/strong&gt;. On the night times often change. Ask whoever is </text>

<text 
x="879" 
y="182" 
dx="0,0,0,0,0,0,0,0,-1.8,0,0,0,-1.8,0,0,0,0,0,-1.8,0,0,0,0,-1.8,0,0,0,0,0,0,-1.8,0,0,-1.8,0,0,0,-1.8,0,0,0,0,0,-1.8,0,0,0,-1.8,0,0,0,0,0,0,-1.8,0,0,0" 
class="s2_12"
>running the event when you'll be on. Don't get caught out!</text>

<path d="M1399.9,179.6l-4.4,-2.6l4.4,-2.8l0,-1l-5.5,3.3l0,0.9l5.5,3.3l0,-1.1Z" class="g5_12" />
<path d="M1408,171.6l-4.6,10.9l1.1,0l4.6,-10.9l-1.1,0Z" class="g5_12" />
<path d="M1413.8,174.6l-1.2,0l0,10.8l1.2,0l0,-4.2c0.2,0.4,0.6,0.7,1,1c0.4,0.2,0.8,0.3,1.3,0.3c0.9,0,1.7,-0.4,2.2,-1.2c0.5,-0.7,0.8,-1.7,0.8,-2.9c0,-1.2,-0.3,-2.2,-0.8,-2.9c-0.5,-0.8,-1.2,-1.1,-2.1,-1.1c-0.5,0,-0.9,0.1,-1.4,0.3c-0.4,0.2,-0.8,0.5,-1,0.9l0,-1Zm2.1,0.8c0.6,0,1.1,0.3,1.4,0.8c0.4,0.6,0.6,1.3,0.6,2.2c0,0.9,-0.2,1.6,-0.6,2.2c-0.4,0.6,-0.9,0.9,-1.5,0.9c-0.4,0,-0.8,-0.2,-1.1,-0.4c-0.4,-0.3,-0.7,-0.7,-0.9,-1.1l0,-3.3c0.5,-0.9,1.2,-1.3,2.1,-1.3Z" class="g5_12" />
<path d="M1427.7,176.5l-5.5,-3.3l0,1l4.4,2.8l-4.4,2.6l0,1.1l5.5,-3.3l0,-0.9Z" class="g5_12" />
<text 
x="1392" 
y="182" 
dx="0,0,0,0" 
class="s2_12"
>&lt;/p&gt;</text>

<text 
x="879" 
y="203" 
dx="0,0,0,0,0,0,0" 
class="s2_12"
>&lt;/body&gt;</text>

<text 
x="879" 
y="225" 
dx="0,0,0,0,0,0,0" 
class="s2_12"
>&lt;/html&gt;</text>

<text 
x="974" 
y="342" 
dx="0,0,0,0.4,0,0,0,0.4,0,0,0,0,0.4,0,0,0.4,0,0,0,0.4,0,0,0,0,0,0,0,0,-1.1,0,0.4,0,0,0,0,0.4,0,0,0,0.4,0,0,0,0.4,0,0,0,0.4,0,0,0,0,0.4,0,0,0,0,0,0,0,0.4,0,0,0,0,0.4,0,0,0" 
class="s1_12"
>If you look at the Nanonauts page you can see that theyve used the </text>

<path d="M1458.7,337.4c0,-1.7,-0.8,-2.6,-2.2,-2.6c-0.9,0,-1.8,0.4,-2.7,1.3l0,-3.9l-1.1,0l0,10.6l1.1,0l0,-5.7c0.9,-0.9,1.6,-1.3,2.3,-1.3c0.5,0,0.8,0.2,1.1,0.5c0.2,0.3,0.3,0.8,0.3,1.5l0,5l1.2,0l0,-5.4Z" class="g5_12" />
<path d="M1467.6,341.7l-4.5,0c1.4,-1.5,2.3,-2.5,2.7,-3.1c0.5,-0.6,0.9,-1.2,1.2,-1.8c0.3,-0.6,0.4,-1.2,0.4,-1.9c0,-0.8,-0.3,-1.6,-0.9,-2.1c-0.5,-0.5,-1.3,-0.8,-2.2,-0.8c-0.8,0,-1.6,0.2,-2.4,0.5l0.2,1.1c0.8,-0.4,1.5,-0.5,2,-0.5c0.6,0,1.1,0.2,1.5,0.5c0.3,0.3,0.5,0.8,0.5,1.4c0,0.6,-0.1,1.2,-0.4,1.8c-0.3,0.6,-0.6,1.2,-1.1,1.8c-0.4,0.5,-1.4,1.6,-2.8,3.3l0,0.9l5.8,0l0,-1.1Z" class="g5_12" />
<text 
x="1451" 
y="342" 
dx="0,0" 
class="s2_12"
>h2</text>

<text 
x="1474" 
y="342" 
dx="0,0,0,0,0,0,0" 
class="s3_12"
>heading</text>

<text 
x="1533" 
y="342" 
dx="0,0,0,0,0,0,0" 
class="s1_12"
>element</text>

<text 
x="974" 
y="364" 
dx="0,0,0,1,0,0,0,0,1,0,0,1,0,0,0,1,0,0,0,0,1,0,0,1,0,0,0,0,1,0,0,0,0,1,0,0,0,1,-0.3,0,0,0,0,-1.4,0,1,0,0,0,1,0,0,0,0,0,0,1,0,0,0,0,1,0,0,0,0,1,0,0,0,0,-0.3,0,1,0,0,0,0,0,0,0,1,0,0,-1.4,0,1,0,0,0,0" 
class="s1_12"
>to chop up the text so that you, the reader, can easily find what youre looking for. When </text>

<text 
x="974" 
y="385" 
dx="0,0,0,0,0,-0.3,0,-0.2,0,0,0,0,0,0,0,-0.2,0,0,-0.2,0,-0.2,0,0,0,0,-0.2,0,0,0,-0.2,0,0,0,0,0,0,-0.2,0,0,0,-0.2,0,0,0" 
class="s1_12"
>youre marking up a page you should use the </text>

<path d="M1293.9,380.2c0,-1.7,-0.8,-2.6,-2.2,-2.6c-1,0,-1.8,0.4,-2.7,1.3l0,-3.9l-1.1,0l0,10.5l1.1,0l0,-5.6c0.8,-0.9,1.6,-1.3,2.3,-1.3c0.5,0,0.8,0.1,1.1,0.4c0.2,0.4,0.3,0.9,0.3,1.5l0,5l1.2,0l0,-5.3Z" class="g5_12" />
<path d="M1303,384.5l-2.1,0l0,-9.6l-1,0l-2.3,1.2l0,1.2l2.1,-1l0,8.2l-2.2,0l0,1l5.5,0l0,-1Z" class="g5_12" />
<text 
x="1286" 
y="385" 
dx="0,0" 
class="s2_12"
>h1</text>

<text 
x="1308" 
y="385" 
dx="0,0,0,0,0,0,0" 
class="s3_12"
>heading</text>

<text 
x="1367" 
y="385" 
dx="0,0,0,0,-0.2,0,0,0,-0.2,0,0,0,0,-0.2,0,0,0,0,0,-0.2,0,0,-0.2,0,0,0,-0.2,0,0,0,0,-0.2,0,0,0" 
class="s1_12"
>for the main title of the page and </text>

<text 
x="974" 
y="406" 
dx="0,0,0,0" 
class="s1_12"
>use </text>

<path d="M1011,401.6c0,-1.8,-0.8,-2.6,-2.2,-2.6c-0.9,0,-1.8,0.4,-2.6,1.3l0,-3.9l-1.2,0l0,10.5l1.2,0l0,-5.6c0.8,-0.9,1.5,-1.3,2.2,-1.3c0.5,0,0.9,0.1,1.1,0.4c0.2,0.3,0.3,0.8,0.3,1.5l0,5l1.2,0l0,-5.3Z" class="g5_12" />
<path d="M1019.9,405.9l-4.5,0c1.4,-1.5,2.3,-2.5,2.7,-3.1c0.5,-0.6,0.9,-1.2,1.2,-1.8c0.3,-0.6,0.4,-1.3,0.4,-1.9c0,-0.9,-0.3,-1.6,-0.8,-2.1c-0.6,-0.5,-1.4,-0.8,-2.3,-0.8c-0.8,0,-1.6,0.1,-2.4,0.5l0.2,1c0.8,-0.3,1.5,-0.4,2,-0.4c0.6,0,1.1,0.1,1.5,0.5c0.3,0.3,0.5,0.8,0.5,1.4c0,0.6,-0.1,1.2,-0.4,1.8c-0.3,0.6,-0.6,1.2,-1.1,1.7c-0.4,0.6,-1.4,1.7,-2.8,3.3l0,0.9l5.8,0l0,-1Z" class="g5_12" />
<text 
x="1003" 
y="406" 
dx="0,0" 
class="s2_12"
>h2</text>

<text 
x="1025" 
y="406" 
dx="0,0,0,0,0,0,0,0,0,-0.3,0,0,-0.3,0,-0.3,0,0,0,0,0,-0.3,0,-0.3,0,0,0,0,0,0,0,-0.3,0,0,0,-0.3,0,0,0,0,-0.3,0,0,0.3,0,-0.3,0,0,-0.3,0,0,0,-0.3,0,0,0,0,0,-0.3,-1.4,0,0,-0.3,0,0,0,-0.3,0,0,0,0,-0.3,0,0,-0.3,0,0,0,0" 
class="s1_12"
>elements to provide a heading for each part of the page. You can have as many </text>

<path d="M1576.7,401.6c0,-1.8,-0.7,-2.6,-2.1,-2.6c-1,0,-1.9,0.4,-2.7,1.3l0,-3.9l-1.2,0l0,10.5l1.2,0l0,-5.6c0.8,-0.9,1.6,-1.3,2.3,-1.3c0.5,0,0.8,0.1,1,0.4c0.3,0.3,0.4,0.8,0.4,1.5l0,5l1.1,0l0,-5.3Z" class="g5_12" />
<path d="M1585.6,405.9l-4.4,0c1.3,-1.5,2.2,-2.5,2.7,-3.1c0.5,-0.6,0.8,-1.2,1.1,-1.8c0.3,-0.6,0.5,-1.3,0.5,-1.9c0,-0.9,-0.3,-1.6,-0.9,-2.1c-0.6,-0.5,-1.3,-0.8,-2.3,-0.8c-0.8,0,-1.6,0.1,-2.3,0.5l0.2,1c0.8,-0.3,1.5,-0.4,1.9,-0.4c0.7,0,1.2,0.1,1.5,0.5c0.4,0.3,0.6,0.8,0.6,1.4c0,0.6,-0.2,1.2,-0.4,1.8c-0.3,0.6,-0.7,1.2,-1.1,1.7c-0.4,0.6,-1.4,1.7,-2.9,3.3l0,0.9l5.8,0l0,-1Z" class="g5_12" />
<text 
x="1569" 
y="406" 
dx="0,0" 
class="s2_12"
>h2</text>

<text 
x="974" 
y="428" 
dx="0,0,0,0,0,0,0,0,0,-0.9,0,0,-0.9,0,0,0,-0.9,0,0,0,0" 
class="s1_12"
>elements as you need.</text>

<text 
x="970" 
y="299" 
dx="0,-2.1,-2.1,-2.9,-1.8,0,0,-2.6,-2.1" 
class="s4_12"
>NINJA TIP</text>

<text 
x="974" 
y="535" 
dx="0,0,0,0,0,0,0,0,-0.9,0,0,0,0,0,-0.9,0,0,0,-0.9,0,0,0,0,0,0,0,0,0,-0.9,0,0,0,0,-0.9,0,0,0,0,-0.9,0,0,-0.9,0,0,0,0,0,0,0,-0.9,0,0,0,0,-0.9,0,0,-0.9,0,0,0,-0.9,0,0,0,0,0,0,0,0,-0.9,0,0,-0.9,0,0,0,0,-0.9,0,0,0,0,0,0,0,0,0,0,0" 
class="s1_12"
>Another thing the Nanonauts have done is divided each of the sections up into paragraphs. </text>

<text 
x="974" 
y="556" 
dx="0,0,0,0,0,0,0,0,0,0,0,0,0,0,0,0,0,0,0,0,0,0,0,0,0,0,0,0,0,0,-0.3,0,0,0,0,0,0,0,0,0,0,0,0,0,0,0,0,0,0,0,0,0,0,0,0,0,0,0,0,0,0,0,0,0,0,0,0,0,0" 
class="s1_12"
>A paragraph is just one or more sentences of text contained inside a </text>

<path d="M1448.8,548.9l-1.2,0l0,10.8l1.2,0l0,-4.2c0.2,0.4,0.5,0.7,0.9,1c0.5,0.2,0.9,0.3,1.4,0.3c0.9,0,1.6,-0.4,2.2,-1.1c0.5,-0.8,0.8,-1.8,0.8,-3c0,-1.2,-0.3,-2.2,-0.8,-2.9c-0.5,-0.7,-1.2,-1.1,-2.1,-1.1c-0.5,0,-1,0.1,-1.4,0.3c-0.4,0.2,-0.8,0.5,-1,0.9l0,-1Zm2,0.8c0.7,0,1.2,0.3,1.5,0.8c0.4,0.6,0.5,1.3,0.5,2.2c0,0.9,-0.1,1.6,-0.5,2.2c-0.4,0.6,-0.9,0.9,-1.5,0.9c-0.4,0,-0.8,-0.1,-1.2,-0.4c-0.3,-0.3,-0.6,-0.7,-0.8,-1.1l0,-3.3c0.5,-0.9,1.2,-1.3,2,-1.3Z" class="g5_12" />
<text 
x="1445" 
y="556" 
dx="0" 
class="s2_12"
>p</text>

<text 
x="1459" 
y="556" 
dx="0,0,0,0,0,0,0,0,0,0,0,0,0,0,0,0,0,0,0,0" 
class="s1_12"
>element. Think of a </text>

<text 
x="974" 
y="578" 
dx="0,0,0,0,0,0,0,0,0,0,-0.6,0,0,-0.6,0,0,0,0,0,-0.6,0,-0.6,0,0,0,0,0,-0.6,0,0,-0.6,0,0,0,0,-0.6,0,0,0,0,0,-0.6,0,-0.6,0,0,0,0,0,0,-0.6,0,0,0,0,0,0,0,-0.6,0,0,-0.6,0,0,0,0,0,-0.6,0,0,-0.6,0,0,0,0,0,0,0,0,0,-0.6,0,0,-0.6,0,0,0,0,-0.6,0,0,0,0" 
class="s1_12"
>paragraph as being a block of text about a single thought or idea. By splitting up your page </text>

<text 
x="974" 
y="599" 
dx="0,0,0,0,0,-0.9,0,0,0,0,0,0,0,0,0,0,-0.9,0,0,0,-0.9,0,0,0,0,-0.9,0,0,-0.9,0,0,0,0,0,0,-0.9,0,0,0,-0.9,-0.3,0,0,0,0,0,0,-0.9,0,0,-0.9,0,0,0,0,0,0,-0.9,0,0,0,0,-0.9,0,0,0,0,-0.3,0,-0.9,0,0,0,0,0,0" 
class="s1_12"
>into paragraphs you make it easier for readers to follow what youre saying.</text>

<text 
x="974" 
y="941" 
dx="0,0,0,0,2.2,0,0,0,0,0,0,0,0,0,2.2,0,0,0,0,2.2,0,0,0,0,0,2.2,0,0,0,0,0,2.2,0,0,0,0,0,0,0,0,0,2.2,0,0,2.2,0,0,0,0,0,0,2.2,0,0,2.2,-0.3,0,0,0,0,0,0,0,0,2.2,0,0,2.2,0,2.2,0,0,0,0,2.2,0,0,0,0,2.2,0,0,0,0,0,0" 
class="s1_12"
>The Nanonauts have shown their examples of things to remember as a list with bullet </text>

<text 
x="974" 
y="963" 
dx="0,0,0,0,0,0,0,0,-0.9,0,0,0,0,-0.9,0,0,0,0,0,-0.9,0,0,-0.9,0,-0.3,0,0,0,-0.9,0,0,-0.9,0,0,0,-0.9,0,0,0,0,0,-0.9,0,0,0,0,0,0,-0.9,0,0,0,-0.9,0,0,0,0,-0.9,0,0,0,0,0,0,-0.9,0,0,-0.9,-0.3,0,0,0" 
class="s1_12"
>points. This helps to break up the text, making the page easier to read.</text>

<text 
x="965" 
y="492" 
dx="0,-2.1,-2.1,-2.9,-1.8,0,0,-2.6,-2.1" 
class="s4_12"
>NINJA TIP</text>

<text 
x="965" 
y="898" 
dx="0,-2.1,-2.1,-2.9,-1.8,0,0,-2.6,-2.1" 
class="s4_12"
>NINJA TIP</text>

<text 
x="1590" 
y="1019" 
dx="0,-1.5" 
class="s5_12"
>23</text>

<text 
x="36" 
y="1019" 
dx="0,-1.5" 
class="s5_12"
>22</text>



<!-- Any embedded fonts defined here -->
<style type="text/css" ><![CDATA[

@font-face {
	font-family: AndaleMono_1cn;
	src: url("fonts/AndaleMono_1cn.woff") format("woff");
}

@font-face {
	font-family: Helvetica-Light_1by;
	src: url("fonts/Helvetica-Light_1by.woff") format("woff");
}

@font-face {
	font-family: PixelSplitter-Bold_1bs;
	src: url("fonts/PixelSplitter-Bold_1bs.woff") format("woff");
}

@font-face {
	font-family: Helvetica_1e3;
	src: url("fonts/Helvetica_1e3.woff") format("woff");
}

]]></style>

</svg>
