<?xml version="1.0" encoding="UTF-8" standalone="no"?>
<!DOCTYPE svg PUBLIC "-//W3C//DTD SVG 1.1//EN"
"http://www.w3.org/Graphics/SVG/1.1/DTD/svg11.dtd">


<!-- Page 13 -->
<svg x="0" y="0" width="1645" height="1061" viewBox="0 0 1645 1061" version="1.1" xmlns="http://www.w3.org/2000/svg" xmlns:xlink="http://www.w3.org/1999/xlink"
style="display: block;margin-left: auto;margin-right: auto;">
<defs>

<style type="text/css"><![CDATA[

.g9_13{
fill: none;
stroke: #FFFFFF;
stroke-width: 1;
stroke-linecap: round;
stroke-linejoin: round;
}
.g7_13{
fill: #989797;
}
.g8_13{
fill: none;
stroke: #FFFFFF;
stroke-width: 3;
stroke-linecap: round;
stroke-linejoin: round;
stroke-miterlimit: 4;
}
.g5_13{
fill: none;
stroke: #B897C1;
stroke-width: 5;
stroke-linecap: butt;
stroke-linejoin: miter;
stroke-miterlimit: 4;
}
.g6_13{
fill: none;
stroke: #989898;
stroke-width: 5;
stroke-linecap: butt;
stroke-linejoin: miter;
stroke-miterlimit: 4;
}
.g13_13{
fill: #F05654;
}
.g17_13{
fill: none;
stroke: #11151D;
stroke-width: 1;
stroke-linecap: butt;
stroke-linejoin: miter;
stroke-miterlimit: 4;
}
.g12_13{
fill: #89BA6E;
}
.g1_13{
fill: #B3CBC8;
}
.g15_13{
fill: #11151D;
}
.g16_13{
fill: none;
stroke: #11151D;
stroke-width: 1;
stroke-linecap: butt;
stroke-linejoin: miter;
stroke-miterlimit: 3;
}
.g14_13{
fill: #FAAD60;
}
.g2_13{
fill: #9EC3E0;
}
.g3_13{
fill: #FFD400;
}
.g11_13{
fill: none;
stroke: #FFD400;
stroke-width: 5;
stroke-linecap: butt;
stroke-linejoin: miter;
stroke-miterlimit: 4;
}
.g10_13{
fill: none;
stroke: #FFFFFF;
stroke-width: 2;
stroke-linecap: round;
stroke-linejoin: round;
stroke-miterlimit: 4;
}
.g4_13{
fill: #FFFFFF;
}

.s10_13{
font-size: 5.57px;
font-family: Helvetica-Light_1by;
fill: #11151D;
}
.s13_13{
font-size: 12.56px;
font-family: HVDPosterClean_1e7;
fill: #11151D;
}
.s17_13{
font-size: 12.22px;
font-family: PixelSplitter-Bold_1bs;
fill: #11151D;
}
.s7_13{
font-size: 12.07px;
font-family: Times-Bold_1cj;
fill: #11151D;
}
.s11_13{
font-size: 21.39px;
font-family: PixelSplitter-Bold_1bs;
fill: #11151D;
}
.s16_13{
font-size: 5.69px;
font-family: Helvetica-Light_1by;
fill: #11151D;
}
.s6_13{
font-size: 15.28px;
font-family: AndaleMono_1cn;
fill: #11151D;
}
.s1_13{
font-size: 15.28px;
font-family: Helvetica-Light_1by;
fill: #11151D;
}
.s2_13{
font-size: 15.28px;
font-family: Wingdings-Regular_1c4;
fill: #11151D;
}
.s4_13{
font-size: 15.28px;
font-family: Helvetica-Bold_1bu;
fill: #11151D;
}
.s5_13{
font-size: 27.50px;
font-family: PixelSplitter-Bold_1bs;
fill: #11151D;
}
.s14_13{
font-size: 5.69px;
font-family: HVDPosterClean_1e7;
fill: #11151D;
}
.s8_13{
font-size: 5.57px;
font-family: Times-Roman_1cf;
fill: #11151D;
}
.s9_13{
font-size: 7.43px;
font-family: Times-Bold_1cj;
fill: #11151D;
}
.s12_13{
font-size: 55.00px;
font-family: PixelSplitter-Bold_1bs;
fill: #11151D;
}
.s3_13{
font-size: 54.92px;
font-family: PixelSplitter-Bold_bp;
fill: #FFFFFF;
}
.s15_13{
font-size: 7.59px;
font-family: HVDPosterClean_1e7;
fill: #11151D;
}

]]></style>

</defs>
<path d="M0,0
L0,1061
L1645,1061
L1645,0 Z " 
fill="#FFFFFF" stroke="none" />
<image x="-33" y="-32" width="1713" height="1115" xlink:href="13/img/1.png" />
<image x="-13" y="-11" width="1674" height="1073" opacity="0.5" xlink:href="13/img/2.png" />
<path d="M870,770l0,5l-4,0l0,135l4,0l0,5l728,0l0,-5l4,0l0,-135l-4,0l0,-5Z" class="g1_13" />
<image x="1159" y="346" width="152" height="352" style="mix-blend-mode: multiply;" xlink:href="13/img/3.png" />
<image x="1172" y="356" width="127" height="342" xlink:href="13/img/4.png" />
<path d="M47,811l0,5l-4,0l0,184l4,0l0,4l728,0l0,-4l4,0l0,-184l-4,0l0,-5Z" class="g2_13" />
<path d="M47,43l0,4l-4,0l0,88l4,0l0,4l92,0l0,-96Z" class="g3_13" />
<image x="41" y="47" width="88" height="89" xlink:href="13/img/5.png" />
<path d="M779,796l0,-64l-4,0l0,-4L47,728l0,4l-4,0l0,64l4,0l0,5l590,0l0,4l4,0l0,5l5,0l0,5l5,0l0,4l4,0l0,5l6,0l0,5l4,0l0,-5l0,-5l0,-4l0,-5l0,-5l0,-4l110,0l0,-5Z" class="g4_13" />
<path d="M779.5,796.5l0,-64l-4,0l0,-4l-728,0l0,4l-4,0l0,64l4,0l0,5l590,0l0,4l4,0l0,5l5,0l0,5l5,0l0,4l4,0l0,5l6,0l0,5l4,0l0,-5l0,-5l0,-4l0,-5l0,-5l0,-4l110,0l0,-5l4,0Z" class="g5_13" />
<path d="M873,291l0,2l0,2l-2,0l-2,0l0,372l2,0l2,0l0,2l0,2l283,0l0,-2l0,-2l2,0l2,0l0,-372l-2,0l-2,0l0,-2l0,-2Z" class="g4_13" />
<path d="M873.5,291.5l0,2l0,2l-2,0l-2,0l0,372l2,0l2,0l0,2l0,2l283,0l0,-2l0,-2l2,0l2,0l0,-372l-2,0l-2,0l0,-2l0,-2l-283,0Z" class="g6_13" />
<path d="M871,289l0,4l-4,0l0,33l296,0l0,-33l-5,0l0,-4Z" class="g7_13" />
<path d="M885.4,305.6c1.8,0,3.2,-1.4,3.2,-3.2c0,-1.8,-1.4,-3.2,-3.2,-3.2c-1.8,0,-3.2,1.4,-3.2,3.2c0,1.8,1.4,3.2,3.2,3.2Z" class="g4_13" />
<path d="M897.9,305.6c1.8,0,3.2,-1.4,3.2,-3.2c0,-1.8,-1.4,-3.2,-3.2,-3.2c-1.8,0,-3.2,1.4,-3.2,3.2c0,1.8,1.4,3.2,3.2,3.2Z" class="g4_13" />
<path d="M910.4,305.6c1.8,0,3.2,-1.4,3.2,-3.2c0,-1.8,-1.4,-3.2,-3.2,-3.2c-1.8,0,-3.2,1.4,-3.2,3.2c0,1.8,1.4,3.2,3.2,3.2Z" class="g4_13" />
<path d="M882.4,311.8c0,0,-2.2,0,-2.2,2.2l0,4.8c0,0,0,2.2,2.2,2.2l253.8,0c0,0,2.2,0,2.2,-2.2l0,-4.8c0,0,0,-2.2,-2.2,-2.2Z" class="g4_13" />
<path d="M886.1,313l-3,3.4l3,3.5" class="g8_13" />
<path d="M1156.5,312.3l0,4.2c0,-0.1,-0.1,-0.1,-0.1,-0.1c-0.5,-0.1,-1,-0.2,-1.6,-0.3c-0.7,-0.1,-1.4,-0.2,-2.1,-0.4c-0.1,0,-0.2,0,-0.4,0c0.5,-0.4,1,-0.8,1.4,-1.2c-0.7,-0.4,-1.4,-0.6,-2.2,-0.4c-0.7,0.2,-1.2,0.6,-1.6,1.2c-0.4,0.6,-0.6,1.3,-0.5,2c0.1,0.7,0.5,1.3,1,1.8c0.7,0.5,1.5,0.7,2.4,0.5c0.9,-0.2,1.5,-0.7,1.9,-1.5c0,0,0,-0.1,0.1,-0.1c0.5,0.1,1,0.3,1.5,0.4c-0.3,0.9,-0.8,1.5,-1.6,2.1c-0.7,0.5,-1.5,0.7,-2.3,0.8c-0.1,0,-0.1,0,-0.1,0l-0.2,0c-0.1,0,-0.1,0,-0.1,0c-0.3,-0.1,-0.6,-0.1,-0.9,-0.2c-0.9,-0.2,-1.7,-0.7,-2.3,-1.4c-0.6,-0.7,-0.9,-1.5,-1,-2.4c0,-0.1,0,-0.2,0,-0.3l0,-0.3l0,-0.1c0,-0.1,0,-0.3,0,-0.5c0.2,-0.8,0.6,-1.6,1.2,-2.2c0.6,-0.7,1.4,-1.2,2.4,-1.4c0.5,-0.1,1.1,-0.1,1.6,0c0.7,0.2,1.4,0.5,2,1l0.1,0c0.3,-0.3,0.5,-0.5,0.8,-0.7c0.2,-0.2,0.4,-0.3,0.6,-0.5Z" class="g4_13" />
<path d="M1156.5,312.3l0,4.2c0,-0.1,-0.1,-0.1,-0.1,-0.1c-0.5,-0.1,-1,-0.2,-1.6,-0.3c-0.7,-0.1,-1.4,-0.2,-2.1,-0.4c-0.1,0,-0.2,0,-0.4,0c0.5,-0.4,1,-0.8,1.4,-1.2c-0.7,-0.4,-1.4,-0.6,-2.2,-0.4c-0.7,0.2,-1.2,0.6,-1.6,1.2c-0.4,0.6,-0.6,1.3,-0.5,2c0.1,0.7,0.5,1.3,1,1.8c0.7,0.5,1.5,0.7,2.4,0.5c0.9,-0.2,1.5,-0.7,1.9,-1.5c0,0,0,-0.1,0.1,-0.1c0.5,0.1,1,0.3,1.5,0.4c-0.3,0.9,-0.8,1.5,-1.6,2.1c-0.7,0.5,-1.5,0.7,-2.3,0.8c-0.1,0,-0.1,0,-0.1,0l-0.2,0c-0.1,0,-0.1,0,-0.1,0c-0.3,-0.1,-0.6,-0.1,-0.9,-0.2c-0.9,-0.2,-1.7,-0.7,-2.3,-1.4c-0.6,-0.7,-0.9,-1.5,-1,-2.4c0,-0.1,0,-0.2,0,-0.3l0,-0.3l0,-0.1c0,-0.1,0,-0.3,0,-0.5c0.2,-0.8,0.6,-1.6,1.2,-2.2c0.6,-0.7,1.4,-1.2,2.4,-1.4c0.5,-0.1,1.1,-0.1,1.6,0c0.7,0.2,1.4,0.5,2,1l0.1,0c0.3,-0.3,0.5,-0.5,0.8,-0.7c0.2,-0.2,0.4,-0.3,0.6,-0.5Z" class="g9_13" />
<path d="M1147,299l9,0" class="g10_13" />
<path d="M1147,302l9,0" class="g10_13" />
<path d="M1147,304l9,0" class="g10_13" />
<path d="M876.2,313l-3,3.4l3,3.5" class="g8_13" />
<image x="1307" y="290" width="295" height="384" xlink:href="13/shade/1.png" />
<path d="M1312.5,291.5l0,2l0,2l-2,0l-2,0l0,372l2,0l2,0l0,2l0,2l283,0l0,-2l0,-2l3,0l2,0l0,-372l-2,0l-3,0l0,-2l0,-2l-283,0Z" class="g6_13" />
<path d="M1321.6,333.1c0,0,-4.3,0,-4.3,4.3l0,332.3l274.1,0l0,-332.3c0,0,0,-4.3,-4.3,-4.3Z" class="g3_13" />
<path d="M1310,289l0,4l-4,0l0,33l296,0l0,-33l-4,0l0,-4Z" class="g7_13" />
<path d="M1324.7,305.6c1.7,0,3.2,-1.4,3.2,-3.2c0,-1.8,-1.5,-3.2,-3.2,-3.2c-1.8,0,-3.3,1.4,-3.3,3.2c0,1.8,1.5,3.2,3.3,3.2Z" class="g4_13" />
<path d="M1337.2,305.6c1.7,0,3.2,-1.4,3.2,-3.2c0,-1.8,-1.5,-3.2,-3.2,-3.2c-1.8,0,-3.3,1.4,-3.3,3.2c0,1.8,1.5,3.2,3.3,3.2Z" class="g4_13" />
<path d="M1349.7,305.6c1.7,0,3.2,-1.4,3.2,-3.2c0,-1.8,-1.5,-3.2,-3.2,-3.2c-1.8,0,-3.3,1.4,-3.3,3.2c0,1.8,1.5,3.2,3.3,3.2Z" class="g4_13" />
<path d="M1321.6,311.8c0,0,-2.1,0,-2.1,2.2l0,4.8c0,0,0,2.2,2.1,2.2l253.9,0c0,0,2.2,0,2.2,-2.2l0,-4.8c0,0,0,-2.2,-2.2,-2.2Z" class="g4_13" />
<path d="M1325.3,313l-3,3.4l3,3.5" class="g8_13" />
<path d="M1595.7,312.3l0,4.2c0,-0.1,0,-0.1,0,-0.1c-0.5,-0.1,-1.1,-0.2,-1.6,-0.3c-0.7,-0.1,-1.4,-0.2,-2.1,-0.4c-0.2,0,-0.3,0,-0.4,0c0.5,-0.4,0.9,-0.8,1.4,-1.2c-0.7,-0.4,-1.4,-0.6,-2.2,-0.4c-0.7,0.2,-1.3,0.6,-1.7,1.2c-0.4,0.6,-0.5,1.3,-0.4,2c0.1,0.7,0.4,1.3,1,1.8c0.7,0.5,1.5,0.7,2.3,0.5c0.9,-0.2,1.6,-0.7,2,-1.5c0,0,0,-0.1,0,-0.1c0.5,0.1,1.1,0.3,1.6,0.4c-0.3,0.9,-0.9,1.5,-1.6,2.1c-0.7,0.5,-1.5,0.7,-2.4,0.8l-0.1,0l-0.2,0l-0.1,0c-0.3,-0.1,-0.6,-0.1,-0.9,-0.2c-0.8,-0.2,-1.6,-0.7,-2.2,-1.4c-0.6,-0.7,-0.9,-1.5,-1,-2.4c0,-0.1,-0.1,-0.2,-0.1,-0.3l0,-0.3l0,-0.1c0.1,-0.1,0.1,-0.3,0.1,-0.5c0.2,-0.8,0.5,-1.6,1.1,-2.2c0.7,-0.7,1.5,-1.2,2.5,-1.4c0.5,-0.1,1,-0.1,1.5,0c0.8,0.2,1.4,0.5,2,1c0.1,0,0.1,0,0.1,0c0.3,-0.3,0.6,-0.5,0.9,-0.7c0.2,-0.2,0.4,-0.3,0.5,-0.5Z" class="g4_13" />
<path d="M1595.7,312.3l0,4.2c0,-0.1,0,-0.1,0,-0.1c-0.5,-0.1,-1.1,-0.2,-1.6,-0.3c-0.7,-0.1,-1.4,-0.2,-2.1,-0.4c-0.2,0,-0.3,0,-0.4,0c0.5,-0.4,0.9,-0.8,1.4,-1.2c-0.7,-0.4,-1.4,-0.6,-2.2,-0.4c-0.7,0.2,-1.3,0.6,-1.7,1.2c-0.4,0.6,-0.5,1.3,-0.4,2c0.1,0.7,0.4,1.3,1,1.8c0.7,0.5,1.5,0.7,2.3,0.5c0.9,-0.2,1.6,-0.7,2,-1.5c0,0,0,-0.1,0,-0.1c0.5,0.1,1.1,0.3,1.6,0.4c-0.3,0.9,-0.9,1.5,-1.6,2.1c-0.7,0.5,-1.5,0.7,-2.4,0.8l-0.1,0l-0.2,0l-0.1,0c-0.3,-0.1,-0.6,-0.1,-0.9,-0.2c-0.8,-0.2,-1.6,-0.7,-2.2,-1.4c-0.6,-0.7,-0.9,-1.5,-1,-2.4c0,-0.1,-0.1,-0.2,-0.1,-0.3l0,-0.3l0,-0.1c0.1,-0.1,0.1,-0.3,0.1,-0.5c0.2,-0.8,0.5,-1.6,1.1,-2.2c0.7,-0.7,1.5,-1.2,2.5,-1.4c0.5,-0.1,1,-0.1,1.5,0c0.8,0.2,1.4,0.5,2,1c0.1,0,0.1,0,0.1,0c0.3,-0.3,0.6,-0.5,0.9,-0.7c0.2,-0.2,0.4,-0.3,0.5,-0.5Z" class="g9_13" />
<path d="M1586,299l9,0" class="g10_13" />
<path d="M1586,302l9,0" class="g10_13" />
<path d="M1586,304l9,0" class="g10_13" />
<path d="M1315.4,313l-2.9,3.4l2.9,3.5" class="g8_13" />
<path d="M139,89l0,234l5,0l0,5l630,0l0,-5l5,0L779,93l-5,0l0,-4Z" class="g3_13" />
<path d="M142,90l0,86l634,0l0,-82l-2,0l-2,0l0,-2l0,-2Z" class="g4_13" />
<path d="M142.5,90.5l0,86l634,0l0,-82l-2,0l-2,0l0,-2l0,-2l-630,0Z" class="g11_13" />
<path d="M139,43l0,46l140,0l0,-42l-4,0l0,-4Z" class="g3_13" />
<path d="M142,180l0,138l2,0l2,0l0,2l0,2l336,0l0,-2l0,-2l2,0l2,0l0,-133l-2,0l-2,0l0,-3l0,-2Z" class="g4_13" />
<path d="M142.5,180.5l0,138l2,0l2,0l0,2l0,2l336,0l0,-2l0,-2l2,0l2,0l0,-133l-2,0l-2,0l0,-3l0,-2l-340,0Z" class="g11_13" />
<path d="M524,180l0,2l0,2l-2,0l-2,0l0,134l2,0l2,0l0,2l0,2l248,0l0,-2l0,-2l2,0l2,0l0,-138Z" class="g4_13" />
<path d="M524.5,180.5l0,2l0,2l-2,0l-2,0l0,134l2,0l2,0l0,2l0,2l248,0l0,-2l0,-2l2,0l2,0l0,-138l-252,0Z" class="g11_13" />
<path d="M529,431l0,3l-3,0l0,109l3,0l0,3l247,0l0,-3l3,0l0,-109l-3,0l0,-3Z" class="g12_13" />
<path d="M528,560l0,3l-3,0l0,109l3,0l0,3l247,0l0,-3l3,0l0,-109l-3,0l0,-3Z" class="g13_13" />
<path d="M870,42l0,4l-4,0l0,61l4,0l0,4l728,0l0,-4l4,0l0,-61l-4,0l0,-4Z" class="g14_13" />
<text 
x="58" 
y="834" 
dx="0,0,0,-0.8,0,0,0,-0.8,0,0,0,-0.8,0,0,0,-0.8,0,0,0,0,0,-0.8,0,0,0,0,-0.8,0,-0.8,0,0,0,-0.8,0,0,0,-0.8,0,0,0,0,0,-0.3,0,-0.8,0,-0.8,0,0,0,-0.8,0,0,0,0,0,0,-0.8,0,-0.3,0,0,-0.3,0,-0.8,0,0,0,0,0,-0.8,0,0,0,0,-0.8,0,0,0,0,-0.8,0,0,-0.3,0" 
class="s1_13"
>So far our web pages look … OK. But they’re a bit boring aren’t they? They look more </text>

<text 
x="58" 
y="856" 
dx="0,0,0,0,0,-0.9,0,0,0,0,0,-0.9,0,0,-0.9,0,-0.9,0,0,0,0,0,0,0,-0.9,0,0,0,0,-0.9,0,0,0,0,-0.9,0,0,0,0,0,0,0,0,0,-0.9,0,0,0,-0.9,0,0,0,0,0,-0.9,0,0,-0.9,0,0,0,0,0,-0.9,0,0,0,0,0,0,-0.9,0,0,0,0,-0.9,0,0" 
class="s1_13"
>like pages in a printed book than webpages. BUT maybe we could change this by:</text>

<text 
x="58" 
y="898" 
dx="0" 
class="s2_13"
>[</text>

<text 
x="85" 
y="898" 
dx="0,0,0,0,0,0,0,0,0,-0.9,0,0,0,-0.9,0,0,0,0,0,-0.3,0,0,0,0,-0.9,0,0,0,0,0,0,-0.9,0,0,-0.9,0,0,0,-0.9,0,0,0" 
class="s1_13"
>changing the background colour of the page</text>

<text 
x="58" 
y="920" 
dx="0" 
class="s2_13"
>[</text>

<text 
x="85" 
y="920" 
dx="0,0,0,0,0,0,0,-0.9,0,-0.9,0,0,0,0,0,-0.3,0,0,0,0,-0.9,0,0,0,0,0,-0.3" 
class="s1_13"
>adding a background picture</text>

<text 
x="58" 
y="941" 
dx="0" 
class="s2_13"
>[</text>

<text 
x="85" 
y="941" 
dx="0,0,0,0,0,0,0,-0.9,0,0,0,-0.9,0,0,0,0,-0.9,0,0,0,0,-0.9,0,0,0,0,0,0" 
class="s1_13"
>making the text look fancier</text>

<text 
x="58" 
y="984" 
dx="0,-0.3,0,-0.9,0,0,0,-0.9,0,0,-0.9,0,0,0,-0.9,0,0,-0.9,0,0,0,0,0,-0.9,0,0,0,0,0,0,-0.9,0,-0.9,0,0,0,-0.9,0,0,-0.3,0,-0.9,0,-0.9,0,0,-0.9,0,0,0,0,0,0,0,0,-0.9,0,0,0,-0.9,0,0,0,0,0,0,0,0,0,0,-0.9,0,0,0,-0.9,0,0,0,-0.9,0,0,0,0" 
class="s1_13"
>We can do all of these things – and more – by changing the stylesheet for the site.</text>

<path d="M870,42l0,4l-4,0l0,61l4,0l0,4l728,0l0,-4l4,0l0,-61l-4,0l0,-4Z" class="g15_13" />
<text 
x="880" 
y="97" 
dx="0,0,-7.5,-5.3,-6.1,-5.3,-4.6,0,0,-4.4,0,0,-5.7,-4.4,0,0,-6.3,-6.5,-4.9,-7.4,0,0" 
class="s3_13"
>&lt;Laying on the style!&gt;</text>

<text 
x="879" 
y="139" 
dx="0,0,0,2.3,0,0,0,2.3,0,0,0,0,2.3,0,0,2.3,0,0,0,0,0,0,2.3,0,0,0,2.3,0,0,0,0,0,0,0,0,0,0,2.3,0,0,2.3,0,0,0,0,2.3,0,0,0,2.3,0,0,0,0,0,2.3,0,0,0,2.3,0,0,0,-0.3,0,2.3,0,0,0,0,0,0,2.3,0,0,0,2.3,0,0,0,0,2.3,0,0,2.3,0,0,0,2.3,0,0,0,0,0" 
class="s1_13"
>If you want to change the appearance of your web pages you don’t change the code of the pages </text>

<text 
x="879" 
y="160" 
dx="0,0,0,0,0,0,0,0,0,0,0,0,1.3,0,0,0,0,0,0,0,1.3,0,0,0,1.3,0,0,0,0,0,0,1.3,0,0,0,1.3,0,0,0,0,1.2,0,0,1.3,0,0,0" 
class="s1_13"
>themselves. Instead you change the code of the </text>

<text 
x="1222" 
y="160" 
dx="0,0,0,0,0,0,0,0,0,0" 
class="s4_13"
>stylesheet</text>

<text 
x="1296" 
y="160" 
dx="0,0,1.3,-0.3,0,1.3,0,0,0,0,1.3,0,0,-0.3,0,0,0,1.3,0,0,0,1.3,0,0,0,0,0,0,0,0,0,0,1.2,0,0,0,0,0,0,0,1.3,0,0" 
class="s1_13"
>. We came across the stylesheet earlier in </text>

<text 
x="879" 
y="182" 
dx="0,0,0,0,0.7,0,0,0,0,0,0.7,0,0,0,0.7,0,0,0,0.7,0,0,0,-0.3,0,0.7,0,0,0,0,0,0.7,0,0,0.7,0,0,0,0,0.7,0,0,0.7,0,0,0.7,0,0,0.7,0,0.7,0,0,0,0.7,0,0,-0.3,0,0.7,0,0,0,0,0,0,0,0.7,0,0,0,0,0,0,0,0,0,0,0,0.7,0,-0.3,0,0.7,0,0,0,-0.3,0,0.7,0,0.7,0,0,0,0.7,0,0,0.7,0,0,0,0.7,0,0,0,0,0" 
class="s1_13"
>the book. But now we’re going to look at it in a lot more detail. Stylesheets are where a lot of the magic </text>

<text 
x="879" 
y="203" 
dx="0,0,0,0,0,0,0,0,-0.9,0,0,0,0,-0.9,0,0,0,0,-0.3,0,-0.9,0,0,0,0,0,0,0,0,0,-0.9,0,-0.9,0,-0.3,0,0,0,0,0,0,0,0,0,0,0,-0.9,0,0,0,0,0,0,0,0" 
class="s1_13"
>happens when you’re designing a great-looking website! </text>

<text 
x="879" 
y="246" 
dx="0,0,0,0.4,0,0,0,0.4,0,0,0,0,0,-0.3,0,0.4,0,0,0,0,0,0.4,0,0,0,0.4,0,0,0,0.4,0,0,0,0.4,0,0,0,0.4,0,0,0,0,0,0.4,0,0,0,0,0.4,0,0,0,0,0.4,0,0,0,0.4,0,0,0,0,0.4,0,0.4,0,0,0,0.4,0,0,0,0,0.4,0,0,0,0,0,0.4,0,0,0,0,-1.1,0,0.4,0,0,0,0,0,0,0,0.4,0,0,0.4,0,0,0" 
class="s1_13"
>In the picture below you can see the exact same HTML web page – the only thing that’s changed is the </text>

<text 
x="879" 
y="267" 
dx="0,0,0,0,0,0,0,0,0,0,0" 
class="s1_13"
>stylesheet.</text>

<text 
x="879" 
y="727" 
dx="0,-2.2,-2.3,-2.9,0,-1.2,-3.1,-3.3,-2.5,-3.7,-4,-2.4,-2.2,-3.4,-4.1,0,-1.2,-3.2,0,-1.2,-2.6,0,-1.2,-3.2,-2.4,-2.7,0,-1.2,-2.8,-2.9,-2.7,-2.3,0,0" 
class="s5_13"
>What stylesheet is my page using? </text>

<text 
transform="matrix(0.98, 0, 0, 1, 879, 749)"
dx="0,0,0,-0.9,0,0,0,-0.9,0,0,0,0,-0.9,0,0,-0.9,0,0,0,-0.9,0,0,0,-0.9,0,0,0.3,0,-0.9,0,0,-0.9,0,0,0,-0.9,0,0,0,0,-0.9,0,0,0,-0.9,0,0,0,0,-0.9,0,0,0,-0.9,0,0,0,0,0,-0.9,0,0,0,0,0,0,-0.9,0,0,0,-0.9,0" 
class="s1_13"
>If you look at the top part of the code for your web pages you’ll see a </text>

<path d="M1336.5,748.5l-2,0l0,-10l-3,0l0,1l2,0l0,10l3,0l0,-1Z" class="g16_13" />
<path d="M1343.3,738.7c-0.1,0.1,-0.2,0.3,-0.2,0.5c0,0.2,0.1,0.4,0.2,0.6c0.2,0.2,0.4,0.2,0.6,0.2c0.2,0,0.4,0,0.5,-0.2c0.2,-0.2,0.2,-0.3,0.2,-0.6c0,-0.2,0,-0.4,-0.2,-0.5c-0.1,-0.2,-0.3,-0.3,-0.5,-0.3c-0.2,0,-0.4,0.1,-0.6,0.3Zm1.1,2.7l-3.4,0l0,1l2.3,0l0,6.7l1.1,0l0,-7.7Z" class="g16_13" />
<path d="M1355.3,743.8c0,-1.7,-0.7,-2.6,-2.1,-2.6c-0.9,0,-1.8,0.4,-2.6,1.3l0,-1.1l-1.2,0l0,7.7l1.2,0l0,-5.6c0.8,-0.9,1.5,-1.3,2.2,-1.3c0.5,0,0.8,0.1,1.1,0.5c0.2,0.3,0.3,0.8,0.3,1.5l0,4.9l1.1,0l0,-5.3Z" class="g16_13" />
<path d="M1361.1,744.5l3.5,-3.1l-1.4,0l-3.6,3.2l0,-6l-1.2,0l0,10.5l1.2,0l0,-3.2l0.7,-0.6l3.3,3.8l1.5,0l-4,-4.6Z" class="g16_13" />
<text 
transform="matrix(0.98, 0, 0, 1, 1329, 749)"
dx="0,0,0,0" 
class="s6_13"
>link</text>

<text 
transform="matrix(0.98, 0, 0, 1, 1369, 749)"
dx="0,0,0,0,0,0,0,0,-0.9,0,0,0,0,0,-0.9,0,0,0,-0.9,0,0,0,0,-0.9,0,0,0,0,0" 
class="s1_13"
>element below the page title:</text>

<text 
transform="matrix(0.98, 0, 0, 1, 879, 952)"
dx="0,0,0,-0.2,0,0,0,0,0,0,0,-0.2,0,0,-0.2,0,0,0,0,-0.2,0,0,0,0,-0.2,0,0,0,-0.2,0,0,0,-0.2,0,0,0,0,-0.2,0,0,0,-0.2,0,0,0,0,-0.2,0,0,-0.2,0,0,0,-0.2,0,0,0,-0.2,0,0,0,0,-0.2,0,0,0,0,0,-0.2,0,0,-0.2,0,0,0,0,0,-0.2,0,0,0,0,-0.2,0,0,-0.2,0,0,0,0,0,-0.2,0,0,0,-0.2,0,0,0,0,0,-0.2,0,0,0" 
class="s1_13"
>By looking at this link you can find the name of the css file which is being used to style the page. The </text>

<path d="M1560.5,951.5l-2,0l0,-10l-3,0l0,1l2,0l0,10l3,0l0,-1Z" class="g16_13" />
<path d="M1566.8,941.9c-0.1,0.1,-0.2,0.3,-0.2,0.5c0,0.2,0.1,0.4,0.2,0.6c0.2,0.1,0.3,0.2,0.5,0.2c0.3,0,0.5,-0.1,0.6,-0.2c0.2,-0.2,0.2,-0.4,0.2,-0.6c0,-0.2,0,-0.4,-0.2,-0.5c-0.2,-0.2,-0.3,-0.3,-0.6,-0.3c-0.2,0,-0.3,0.1,-0.5,0.3Zm1.1,2.7l-3.4,0l0,1l2.3,0l0,6.7l1.1,0l0,-7.7Z" class="g16_13" />
<path d="M1578.8,947c0,-1.7,-0.7,-2.6,-2.1,-2.6c-0.9,0,-1.8,0.4,-2.6,1.3l0,-1.1l-1.2,0l0,7.7l1.2,0l0,-5.6c0.8,-0.9,1.5,-1.3,2.2,-1.3c0.5,0,0.8,0.1,1,0.4c0.3,0.4,0.4,0.9,0.4,1.6l0,4.9l1.1,0l0,-5.3Z" class="g16_13" />
<path d="M1584.6,947.7l3.5,-3.1l-1.4,0l-3.6,3.2l0,-6l-1.2,0l0,10.5l1.2,0l0,-3.2l0.7,-0.6l3.3,3.8l1.5,0l-4,-4.6Z" class="g16_13" />
<text 
transform="matrix(0.98, 0, 0, 1, 1553, 952)"
dx="0,0,0,0" 
class="s6_13"
>link</text>

<text 
transform="matrix(0.98, 0, 0, 1, 879, 973)"
dx="0,0,0,0,0,0,0,0,-0.9,0,0,0,0,0,-0.9,0,0,0,-0.9,0,0,0,-0.9,0,-0.3,0,0,0,0,0,-0.9,0,0,-0.9,0,0,0,0,-0.9,0,0,0,0,0,0,-0.9,0,0" 
class="s1_13"
>element tells the web browser to look inside the</text>

<text 
transform="matrix(0.98, 0, 0, 1, 1193, 973)"
dx="0,0,0" 
class="s4_13"
>css</text>

<text 
transform="matrix(0.98, 0, 0, 1, 1221, 973)"
dx="0,0,0,0,0,0,0,-0.9,0,0,0,-0.9,0,0,0" 
class="s1_13"
>folder for the </text>

<text 
transform="matrix(0.98, 0, 0, 1, 1308, 973)"
dx="0,-0.5,0,0,0,0,-0.2,0,0,0,0,0,0,0,0,0,0,0,0,0,0,0,0" 
class="s4_13"
>my-first-stylesheet.css</text>

<text 
transform="matrix(0.98, 0, 0, 1, 1473, 973)"
dx="0,0,0,0,0" 
class="s1_13"
>file.</text>

<text 
x="879" 
y="791" 
dx="0,0,0,0,0,0,0,0,0,0,-1.8,0,0,0,0" 
class="s6_13"
>&lt;!DOCTYPE html&gt;</text>

<text 
x="879" 
y="813" 
dx="0,0,0,0,0,0" 
class="s6_13"
>&lt;html&gt;</text>

<text 
x="879" 
y="834" 
dx="0,0,0,0,0,0" 
class="s6_13"
>&lt;head&gt;</text>

<text 
x="879" 
y="856" 
dx="0,0,0,0,0,0,0,0,0,0,0,0,0,0,0,-1.8,0,-1.8,0,0,0,0,0,0,0,0,0,0,0,0,0,0" 
class="s6_13"
>&lt;title&gt;Playing a Concert&lt;/title&gt;</text>

<text 
x="879" 
y="877" 
dx="0,0,0,0,0,0,-1.8,0,0,0,0,0,0,0,0,0,0,0,0,0,0,0,-1.8,0,0,0,0,0,0,0,0,0,0,0,0,0,0,0,0,-1.8,0,0,0,0,0,0,0,0,0,0,0,0,0,0,0,0,0,0,0,0,0,0,0,0,0,0,0,0,0,0,0,0,0,0,0" 
class="s6_13"
>&lt;link type="text/css" rel="stylesheet" href="css/my-first-stylesheet.css"/&gt;</text>

<text 
x="879" 
y="898" 
dx="0,0,0,0,0,0,0" 
class="s6_13"
>&lt;/head&gt;</text>

<text 
x="883" 
y="347" 
dx="0,0,0,0,0,0,0,0,-0.6,0,-0.6,0,0,0,0,0,0" 
class="s7_13"
>Playing a Concert</text>

<text 
x="883" 
y="360" 
dx="0,0,0,0,0,0,0,0,-0.3,0,-0.3,0,0,0,0,0,0,0,-0.3,0,0,0,-0.3,0,0,-0.3,0,0,0,0,0,-0.3,0,0,0,0,-0.3,0,0,-0.3,0,0,-0.3,0,0,0,-0.3,0,0,-0.3,0,0,0,0,0,0,0,-0.3,0,0,0,0,0,0,-0.3,0,0,0,0,0,0,0,0,0,-0.3,0,0,0,0,-0.3,0,0,-0.3,0,0,0,-0.3,0,0,0,0,-0.3,0,0,0,0" 
class="s8_13"
>Playing a concert can be great fun! Or it can be totally scary! Sometimes both at the same time.</text>

<text 
x="883" 
y="375" 
dx="0,0,0,-0.3,0,0,0,0,0,-0.3,0,0,0,-0.3,0,0,0,0,0,0,0,0,-0.3,0,-0.3,0,0,0,0,-0.3,0,0,-0.3,0,0,0,-0.3,0,0,0,-0.3,0,0,0,0,-0.3,0,0,0,-0.3,0,0,0,0,0,-0.3,0,0,0,0,0,0,0,0" 
class="s8_13"
>So we’ve put together a list of our top tips for great concerts.</text>

<text 
x="883" 
y="390" 
dx="0,0,0,0,0,-0.4,0,0,0,-0.4,0,-0.4,0,0,0,0,0,0,0" 
class="s9_13"
>Copy out a set-list</text>

<text 
x="883" 
y="405" 
dx="0,-0.3,-0.3,0,0,0,0,0,0,0,0,-0.3,0,0,-0.3,0,-0.3,0,0,0,0,-0.3,0,0,-0.3,0,0,0,-0.3,0,0,0,0,-0.3,0,0,0,0,0,-0.3,0,0,-0.3,0,0,0,-0.3,0,0,0,0,0,-0.3,0,0,0,0,0,0,-0.3,0,0,0,0,-0.3,0,0,0,0" 
class="s8_13"
>A set-list is a list of all your songs in the order you’ll play them.</text>

<text 
x="883" 
y="420" 
dx="0,0,0,0,0,-0.3,0,0,0,0,0,0,-0.3,0,0,0,-0.3,0,0,0,0,0,0,0,0" 
class="s8_13"
>Make copies for everyone.</text>

<text 
x="883" 
y="434" 
dx="0,0,0,0,0,0,-0.3,0,0,-0.3,0,0,0,0,-0.3,0,0,-0.3,0,0,0,0,-0.3,0,0,0,-0.3,0,0,0,-0.3,0,0,0,0,0,-0.3,0,0,0,0,-0.3,0,0,-0.3,0,0,-0.3,0,0,-0.3,0,-0.3,0,0,0,0,-0.3,0,0,-0.3,0,0,0,0,-0.3,0,0,0,0,-0.3,0,0,-0.3,0,0,0,-0.3,0,0,0,0,-0.2,0,-0.3,0,0,-0.3,0,0,-0.3,0,0,0,-0.3,0,0,0,0,0,0,0,0,-0.3,0,0,0,-0.1,0,-0.3,0,0,0,0,-0.3,0,0,0,0" 
class="s8_13"
>Print it BIG! so that you can still read it if it’s down by your feet on the floor, or if the lighting isn’t very good.</text>

<text 
x="883" 
y="449" 
dx="0,0,0,0,0,0,0,0,-0.1,-0.4,0,0,0,-0.1,-0.4,0,0,0,-0.1,0" 
class="s9_13"
>Remember your spares</text>

<text 
x="883" 
y="464" 
dx="0,0,0,0,0,-0.3,0,0,0,0,0,0,0,0,0,0,0,-0.3,0,0,0,0,-0.3,0,0,0,0,0,-0.3,0,0,0,0,-0.3,0,0,0,0,-0.3,0,0,-0.3,0,0,-0.3,0,0,0,0,0,0,0,0,-0.3,0,0,-0.3,0,0,0,0,-0.3,0,0,0,0,-0.3,0,0,0,-0.3,0,0,-0.3,0,0,0,0,0,0,-0.3,0,0,0,-0.3,0,0,0,0,0,0,0" 
class="s8_13"
>Some instruments have parts that need to be replaced if they wear out or break. For example:</text>

<text 
x="892" 
y="479" 
dx="0" 
class="s10_13"
>•</text>

<text 
x="900" 
y="479" 
dx="0,0,0,0,0,0,0,-0.3,0,0,0,0,0,0" 
class="s8_13"
>guitar strings</text>

<text 
x="892" 
y="486" 
dx="0" 
class="s10_13"
>•</text>

<text 
x="900" 
y="486" 
dx="0,0,0,0,0,0,0,0,0,0,-0.3,0,0,-0.3,0,0,0,0,0,0,0,0,-0.3,0,0,0,0" 
class="s8_13"
>saxophone or clarinet reeds</text>

<text 
x="892" 
y="494" 
dx="0" 
class="s10_13"
>•</text>

<text 
x="900" 
y="494" 
dx="0,0,0,0,0,0,0,0,0,0" 
class="s8_13"
>drumsticks</text>

<text 
x="883" 
y="509" 
dx="0,0,0,0,0,-0.3,0,-0.3,0,0,0,0,-0.3,0,0,-0.3,0,0,0,-0.3,0,0,0,0,0,0,-0.3,0,0,0,-0.3,0,0,0,0,0,-0.3,0,0,0,0,-0.3,0,0,0,-0.3,0,0,0,0,-0.3,0,0,0,0,-0.3,0,0,0,-0.3,0,0,0,0,-0.3,0,0,0,0,0,-0.3,0,0,0,0,-0.3,0,0,0,-0.3,0,0,-0.3,0,0,-0.3,0,0,0,-0.1,0,0,0,0,-0.4" 
class="s8_13"
>Make a list of the spares you might need and make sure you know where they are in an emergency.</text>

<text 
x="883" 
y="524" 
dx="0,0,0,0,0,-0.4,0,0,0,-0.1,0,-0.4,0,0,0,0,0,0,-0.4,0,0,-0.4,0,0,-0.4,0,0,0,-0.4,0,0,0,0" 
class="s9_13"
>Plan where you’ll be on the stage</text>

<text 
x="883" 
y="538" 
dx="0,0,0,0,0,0,0,-0.3,0,0,0,-0.3,0,0,0,0,0,-0.3,0,0,-0.3,0,0,0,-0.3,0,0,-0.3,0,0,0,0,-0.3,0,0,0,0,0,0,0,0,0,0,0,0,-0.3,0,0,0,0,-0.3,0,-0.3,0,0,0,-0.3,0,0,0,0,0,0,0,-0.3,0,0,-0.3,0,0,0,0,0,0,-0.3,0,0,0,0,0,-0.3,0,0,0,0,0,0,-0.3,0,0,0,-0.3,0,0,0,0,0,-0.3,0,0,-0.3,0,0" 
class="s8_13"
>Before you start to set up your instruments, take a few minutes to decide where you’re all going to be.</text>

<text 
x="892" 
y="553" 
dx="0" 
class="s10_13"
>•</text>

<text 
x="900" 
y="553" 
dx="0,-0.2,0,0,0,-0.3,0,0,0,-0.3,0,0,0,0,0,-0.3,0,0,-0.3,0,0,0,0,0,0,-0.3,0,0,0,0,0,0,-0.3,0,0,-0.3,0,-0.1,0,-0.3,0,0,-0.3,0,0,0,-0.3,0,0,0,0" 
class="s8_13"
>Will the drums be centre stage? Or off to one side?</text>

<text 
x="892" 
y="561" 
dx="0" 
class="s10_13"
>•</text>

<text 
x="900" 
y="561" 
dx="0,0,0,-0.3,0,0,0,0,0,-0.3,0,-0.3,0,0,0,0,-0.1,0,0,0,0,0,0,0,-0.3,0,0,0,-0.3,0,0,0,-0.3,0,0,0,0,0,0,0,0,0,-0.3,0,0,-0.3,0,0,0,0,-0.3,0,0,0,0,0,0,-0.3,0,0,0,0,0,0,-0.3,0,0,0,0,0,0,-0.3,0,0,-0.3,0,0,0,-0.3,0,0,0,0,0" 
class="s8_13"
>Is there a power-socket for the amplifier if your guitar player stands on the right?</text>

<text 
x="883" 
y="576" 
dx="0,0,0,-0.3,0,0,0,0,0,0,0,0,0,0,0,0,0,0,0,0,0,0,0,0,0,0,0,0,0,0,0,0,0,0,0,0,0,0,0,0,0,0,0,0,0,0,0,0,0,0,0,0,0,0,0,0,0,0,0,0,0,0,0,0,0,0,0,0,0,0,0,0,0,0,0,0,0,0,0,0,0,0,0,0,0,0,0,0,0,0,-0.3,0,0,0,0,0,0,0,0,0,0,0,0,0,0,0,0,0,0,0,0,0,0,0,0,0,0,0,0,0,0,0,0,0" 
class="s8_13"
>It’s much better to think about all this before you start setting up your instruments. It’s really annnoying if you have to </text>

<text 
x="883" 
y="583" 
dx="0,0,0,0,0,0,-0.3,0,0,0,0,0,0,0,0,0,0,-0.3,0,0,0,0,0,0,-0.3,0,0,0,-0.3,0,0,0,0,0,0,0,0,-0.3,0,0,0,0,0,0,-0.3,0,0,0,0,-0.3,0,0,0,0,0,0,-0.3,0,0,0,0,0,-0.3,0,0,-0.3,0,0,0,-0.3,0,0,0,0,0,0,-0.3,0,0" 
class="s8_13"
>start unplugging things and swapping places once you’ve begun to set things up!</text>

<text 
x="883" 
y="598" 
dx="0,0,0,0,0,-0.4,0,0,0,-0.1,0,-0.4,0,0,0,0,-0.1,0,-0.4,0,0,0,0,0,0,-0.4,0,0,0,0,-0.4,0,0,0,0,-0.4,0,0,0,0,-0.1,0,-0.4,0" 
class="s9_13"
>Know where you’re going, know when you’re on</text>

<text 
x="883" 
y="613" 
dx="0,0,0,0.2,0,0,0,0,0,0,0.2,0,0,0,0,0,0,0,0.2,0,0.2,0,0,0,0,0,0,0,0.2,0,0,0,0,0,0,0,0,0,0.2,0,0,0,0,0,0,0.2,0,0,0,0,0,0.2,0,0,0,0,0.2,0,0,0,0,0,0,0.2,0,0,0,0,0.2,0,0,0,0,0.2,0,0,0,0.2,0,0,0,0,0.2,0,0,0,0,0,0.2,0,0,0.2,0,0,0,0.2,0,0,0,0,0,0.2,0,0,0,0.2,0,0.2,0,0,0,0.2,0,0" 
class="s8_13"
>If you’re playing a concert somewhere you’ve never been before make sure you know where it is. Print out a map or </text>

<text 
x="883" 
y="620" 
dx="0,0,0,0,0.5,0,0,0,0.5,0,0,0,0.5,0,0,0,0.5,0,0,0,0,0,0,0.5,0,0,0,0.5,0,0,0,0.5,0,0,0,0,0.4,0,0,0,0,0,-0.3,0,0.5,0,0,0,0,0,0,0,0.5,0,0,0,0,0,0.5,0,0,0,0,0.5,0,0,0,0,0,0.5,0,0,0,0,0.5,0,0,0.5,0,0,0.5,0,0,0,0,0,0,0,0,0,0,0.5,0,0,0,0,0,0.5,0,0,0,0,0,0,0,0,0,0,0,0,0.5,0,0,0,0,0,0" 
class="s8_13"
>set the sat nav before you set out. There’s nothing worse than being lost in an unfamiliar place half-an-hour before </text>

<text 
x="883" 
y="628" 
dx="0,0,0,0,0,0,0,-0.3,0,0,0,-0.3,0,0,-0.3,0,0,-0.3,0,0,0,0,0,0,0,0" 
class="s8_13"
>you’re due to go on-stage.</text>

<text 
x="883" 
y="642" 
dx="0,0,0,0,-0.1,0,0,0,0,-0.1,0,0,0,-0.1,0,0,-0.1,0,0,0,0,0,0,0,-0.1,0,0,0,-0.1,0,0,0,0,0,-0.1,0,0,0,0,0,-0.1,0,0,0,-0.1,0,0,0,0,0,0,-0.1,0,0,-0.1,0,0,-0.1,0,0,0,0,-0.1,0,0,0,-0.1,0,0,0,0,-0.1,0,0,0,0,-0.1,0,0,0,0,0,0,-0.1,0,0,0,-0.1,0,0,-0.1,0,0,0,-0.1,0,0,0,0,0,-0.1,0,0,0,0,0,-0.1,0,0,0,0,0,-0.1,0,0,0,0,0,0,0" 
class="s8_13"
>And when you do arrive, the first thing you should do is find out what time you’re on. On the night times often change. </text>

<text 
x="883" 
y="650" 
dx="0,0,0,0,-0.3,0,0,0,0,0,0,0,-0.3,0,0,-0.3,0,0,0,0,0,0,0,-0.3,0,0,0,-0.3,0,0,0,0,0,-0.3,0,0,0,0,-0.3,0,0,0,0,0,0,-0.3,0,0,-0.3,0,0,0,-0.3,0,0,0,-0.1,0,-0.3,0,0,0,-0.3,0,0,0,0,0,0,-0.3,0,0,0" 
class="s8_13"
>Ask whoever is running the event when you’ll be on. Don’t get caught out!</text>

<text 
x="152" 
y="118" 
dx="0,0,0,0,-0.4,0,0,0,0,-0.4,0,0,0,0,0,0,-0.4,0,0,0,0,-0.4,0,0,0,-0.4,0,0,0,0,-0.4,0,0,-0.4,0,0,0,0,-0.4,0,-0.4,0,0,0,0,-0.4,0,0,-0.4,0,0,0,0,0,0,0,-0.4,0,0,0,-0.3,0,-0.4,0,-0.3,0,-0.4,0,0,0,-0.4,0,0,0,0,0,-0.4,0,0,-0.4,0,0,0,0,0,0,-0.4,0,0,0,-0.4,0,0,0" 
class="s1_13"
>Use list markup when you need to make a list of things. There are two kinds of lists: use the </text>

<path d="M160.5,131.8l-1.2,0l0,5.6c-0.8,0.9,-1.5,1.3,-2.3,1.3c-0.5,0,-0.8,-0.1,-1,-0.5c-0.2,-0.3,-0.3,-0.8,-0.3,-1.4l0,-5l-1.2,0l0,5.3c0,1.8,0.7,2.6,2.2,2.6c0.9,0,1.8,-0.4,2.6,-1.3l0,1.2l1.2,0l0,-7.8Z" class="g17_13" />
<path d="M169.5,138.5l-2,0l0,-9l-4,0l0,1l2,0l0,9l4,0l0,-1Z" class="g17_13" />
<text 
x="152" 
y="139" 
dx="0,0" 
class="s6_13"
>ul</text>

<text 
x="176" 
y="139" 
dx="0,0,0,0,0,0,0,0,1.1,0,0,0" 
class="s1_13"
>element for </text>

<text 
x="259" 
y="139" 
dx="0,-0.3,0,0,0,0,0,0" 
class="s4_13"
>bulleted</text>

<text 
x="323" 
y="139" 
dx="0,0,0,0,0,0,-0.3,0,0,-0.3,0,0,0,0,1.1,0,0,0,0,0,0,1.1,0,0,0,1.1,0,0,0" 
class="s1_13"
>('unordered') lists; use the </text>

<path d="M511,132.7c-0.6,0.8,-0.9,1.7,-0.9,3c0,1.2,0.3,2.2,0.9,2.9c0.7,0.8,1.5,1.2,2.6,1.2c1.1,0,1.9,-0.4,2.6,-1.2c0.6,-0.7,0.9,-1.7,0.9,-2.9c0,-1.3,-0.3,-2.2,-0.9,-3c-0.7,-0.7,-1.5,-1.1,-2.6,-1.1c-1.1,0,-1.9,0.4,-2.6,1.1Zm0.9,5.2c-0.4,-0.6,-0.6,-1.4,-0.6,-2.2c0,-0.9,0.2,-1.7,0.6,-2.2c0.4,-0.6,1,-0.9,1.7,-0.9c0.7,0,1.3,0.3,1.7,0.9c0.4,0.5,0.6,1.3,0.6,2.2c0,0.8,-0.2,1.6,-0.6,2.1c-0.4,0.6,-1,0.9,-1.7,0.9c-0.7,0,-1.3,-0.3,-1.7,-0.8Z" class="g17_13" />
<path d="M525.5,138.5l-2,0l0,-9l-3,0l0,1l2,0l0,9l3,0l0,-1Z" class="g17_13" />
<text 
x="509" 
y="139" 
dx="0,0" 
class="s6_13"
>ol</text>

<text 
x="532" 
y="139" 
dx="0,0,0,0,0,0,0,0,1.1,0,0,0" 
class="s1_13"
>element for </text>

<text 
x="615" 
y="139" 
dx="0,-0.1,0,0,0,0,0,0" 
class="s4_13"
>numbered</text>

<text 
x="694" 
y="139" 
dx="0,0,0,0,-0.3,0,0,-0.3,0,0,0,0" 
class="s1_13"
>('ordered') </text>

<text 
x="152" 
y="160" 
dx="0,0,0,0,0,0,0,-0.9,0,0,0,0,-0.9,0,0,0,0,-0.9,0,0,0,0,-0.9,0,0,0,0,0,0,-0.9,0,0,-0.9,0,0,0,0,0,0,-0.9,0,0,0,-0.9,0,0,0" 
class="s1_13"
>lists. Each list item should be inside its own </text>

<path d="M451.5,159.5l-2,0l0,-9l-4,0l0,1l2,0l0,9l4,0l0,-1Z" class="g17_13" />
<path d="M457.8,150.5c-0.1,0.1,-0.2,0.3,-0.2,0.5c0,0.2,0.1,0.4,0.2,0.6c0.2,0.2,0.4,0.2,0.6,0.2c0.2,0,0.4,0,0.5,-0.2c0.2,-0.1,0.3,-0.3,0.3,-0.6c0,-0.2,-0.1,-0.4,-0.3,-0.5c-0.1,-0.2,-0.3,-0.3,-0.5,-0.3c-0.2,0,-0.4,0.1,-0.6,0.3Zm1.1,2.7l-3.4,0l0,1l2.3,0l0,6.7l1.1,0l0,-7.7Z" class="g17_13" />
<text 
x="444" 
y="160" 
dx="0,0" 
class="s6_13"
>li</text>

<text 
x="465" 
y="160" 
dx="0,0,0,0,0,0,0,0" 
class="s1_13"
>element.</text>

<text 
x="148" 
y="75" 
dx="0,-2.1,-2.1,-2.9,-1.8,0,0,-2.6,-2.1" 
class="s11_13"
>NINJA TIP</text>

<text 
x="149" 
y="203" 
dx="0,0,0,0,0,0,0,0,0,-0.9,0,0,0,0" 
class="s4_13"
>Bulleted List </text>

<text 
x="149" 
y="225" 
dx="0,0,0,0" 
class="s6_13"
>&lt;ul&gt;</text>

<text 
x="149" 
y="246" 
dx="0,0,0,0,0,0,0,0,0,0,0,0,0" 
class="s6_13"
>&lt;li&gt;rock&lt;/li&gt;</text>

<text 
x="149" 
y="267" 
dx="0,0,0,0,0,0,0,0,0,0,0,0,0,0" 
class="s6_13"
>&lt;li&gt;paper&lt;/li&gt;</text>

<text 
x="149" 
y="289" 
dx="0,0,0,0,0,0,0,0,0,0,0,0,0,0,0,0,0" 
class="s6_13"
>&lt;li&gt;scissors&lt;/li&gt;</text>

<text 
x="149" 
y="310" 
dx="0,0,0,0,0" 
class="s6_13"
>&lt;/ul&gt;</text>

<text 
x="318" 
y="203" 
dx="0,0,0,0,0,0,0,0,0,-0.9,0,0,0,0" 
class="s4_13"
>Numbered List </text>

<text 
x="318" 
y="225" 
dx="0,0,0,0" 
class="s6_13"
>&lt;ol&gt;</text>

<text 
x="318" 
y="246" 
dx="0,0,0,0,0,0,0,0,0,0,0,0,0" 
class="s6_13"
>&lt;li&gt;rock&lt;/li&gt;</text>

<text 
x="318" 
y="267" 
dx="0,0,0,0,0,0,0,0,0,0,0,0,0,0" 
class="s6_13"
>&lt;li&gt;paper&lt;/li&gt;</text>

<text 
x="318" 
y="289" 
dx="0,0,0,0,0,0,0,0,0,0,0,0,0,0,0,0,0" 
class="s6_13"
>&lt;li&gt;scissors&lt;/li&gt;</text>

<text 
x="318" 
y="310" 
dx="0,0,0,0,0" 
class="s6_13"
>&lt;/ol&gt;</text>

<text 
x="526" 
y="203" 
dx="0,0,0,0,0,0,0,0,0,-0.9,0,0,0" 
class="s4_13"
>Bulleted List</text>

<text 
x="526" 
y="246" 
dx="0,0" 
class="s1_13"
>• </text>

<text 
x="554" 
y="246" 
dx="0,-0.3,0,0" 
class="s1_13"
>rock</text>

<text 
x="526" 
y="267" 
dx="0,0" 
class="s1_13"
>• </text>

<text 
x="554" 
y="267" 
dx="0,0,0,0,0" 
class="s1_13"
>paper</text>

<text 
x="526" 
y="289" 
dx="0,0" 
class="s1_13"
>• </text>

<text 
x="554" 
y="289" 
dx="0,0,0,0,0,0,0,0" 
class="s1_13"
>scissors</text>

<text 
x="652" 
y="203" 
dx="0,0,0,0,0,0,0,0,0,-0.9,0,0,0" 
class="s4_13"
>Numbered List</text>

<text 
x="652" 
y="246" 
dx="0,0,0,10.5,-0.3,0,0" 
class="s1_13"
>1. rock</text>

<text 
x="652" 
y="267" 
dx="0,0,0,10.5,0,0,0,0" 
class="s1_13"
>2. paper</text>

<text 
x="652" 
y="289" 
dx="0,0,0,10.5,0,0,0,0,0,0,0" 
class="s1_13"
>3. scissors</text>

<text 
x="56" 
y="364" 
dx="0,-1.4,0,0,2.3,0,0,0,2.3,0,0,0,2.3,0,0,0,0,2.3,0,0,0,2.3,0,0,-0.3,0,2.3,0,0,0,0,0,0,0,0,0,0,2.3,0,0,0,2.3,0,0,0,2.3,0,0,0,0,0,0,2.3,0,0,0,0,0,2.3,0,0,0,2.3,0,0,0,0,2.3,0,0,0,0,2.3,0,0,0,0,-0.3,0,2.3,0,0,0,2.3,0,-0.3,0,2.3,0,0,0,0,0,0" 
class="s1_13"
>You can see that the word ‘set-list’ and the phrase ‘find out what time you’re on’ are inside </text>

<path d="M718.1,356.5c-0.7,-0.2,-1.4,-0.3,-2,-0.3c-1,0,-1.8,0.2,-2.4,0.6c-0.6,0.4,-0.9,0.9,-0.9,1.6c0,0.3,0.1,0.6,0.2,0.8c0.2,0.2,0.3,0.5,0.6,0.6c0.2,0.2,0.5,0.4,0.8,0.5c0.3,0,0.7,0.2,1.3,0.4c0.7,0.2,1.2,0.4,1.4,0.6c0.2,0.2,0.3,0.5,0.3,0.7c0,0.4,-0.2,0.8,-0.6,1c-0.4,0.2,-0.9,0.4,-1.6,0.4c-0.7,0,-1.4,-0.2,-2.1,-0.5l-0.2,1c0.6,0.3,1.4,0.4,2.4,0.4c0.9,0,1.7,-0.2,2.4,-0.6c0.6,-0.4,0.9,-1,0.9,-1.8c0,-0.3,-0.1,-0.7,-0.3,-1c-0.1,-0.2,-0.4,-0.5,-0.7,-0.7c-0.3,-0.2,-0.7,-0.4,-1.2,-0.5l-1.1,-0.3c-0.6,-0.2,-0.9,-0.3,-1.1,-0.5c-0.1,-0.2,-0.2,-0.4,-0.2,-0.6c0,-0.3,0.2,-0.6,0.5,-0.8c0.4,-0.2,0.9,-0.3,1.5,-0.3c0.6,0,1.2,0.1,1.9,0.3l0.2,-1Z" class="g17_13" />
<path d="M727.7,362.9c-0.6,0.3,-1.2,0.4,-1.9,0.4c-0.3,0,-0.6,-0.1,-0.8,-0.4c-0.2,-0.2,-0.3,-0.6,-0.3,-1.1l0,-4.4l2.6,0l0,-1l-2.6,0l0,-2.2l-1.2,0l0,2.2l-1.4,0l0,1l1.4,0l0,4.7c0,1.5,0.7,2.2,2.1,2.2c0.8,0,1.6,-0.2,2.3,-0.5l-0.2,-0.9Z" class="g17_13" />
<path d="M735.4,356.2c-1,0,-1.8,0.6,-2.4,1.7l0,-1.5l-1.1,0l0,7.7l1.1,0l0,-5c0,0,0.2,-0.2,0.4,-0.6c0.3,-0.4,0.6,-0.6,0.9,-0.8c0.4,-0.2,0.7,-0.3,1,-0.3c0.4,0,0.9,0.1,1.4,0.3l0.4,-1.1c-0.5,-0.3,-1.1,-0.4,-1.7,-0.4Z" class="g17_13" />
<path d="M740.6,357.3c-0.6,0.7,-0.9,1.7,-0.9,2.9c0,1.3,0.3,2.3,0.9,3c0.7,0.8,1.5,1.1,2.6,1.1c1.1,0,1.9,-0.3,2.5,-1.1c0.7,-0.7,1,-1.7,1,-3c0,-1.2,-0.3,-2.2,-1,-2.9c-0.6,-0.7,-1.4,-1.1,-2.5,-1.1c-1.1,0,-1.9,0.4,-2.6,1.1Zm0.9,5.1c-0.4,-0.5,-0.6,-1.3,-0.6,-2.1c0,-0.9,0.2,-1.7,0.6,-2.3c0.4,-0.5,1,-0.8,1.7,-0.8c0.7,0,1.3,0.3,1.7,0.9c0.4,0.5,0.6,1.3,0.6,2.2c0,0.8,-0.2,1.5,-0.6,2.1c-0.5,0.6,-1,0.9,-1.7,0.9c-0.7,0,-1.3,-0.3,-1.7,-0.9Z" class="g17_13" />
<path d="M755.4,358.8c0,-1.7,-0.8,-2.6,-2.2,-2.6c-0.9,0,-1.8,0.4,-2.7,1.3l0,-1.1l-1.1,0l0,7.7l1.1,0l0,-5.6c0.9,-0.9,1.6,-1.3,2.3,-1.3c0.5,0,0.8,0.1,1.1,0.5c0.2,0.3,0.3,0.8,0.3,1.5l0,4.9l1.2,0l0,-5.3Z" class="g17_13" />
<path d="M761.2,361.2c0.7,0,1.3,-0.2,1.8,-0.7c0.5,-0.5,0.8,-1.1,0.8,-1.8c0,-0.5,-0.1,-1,-0.4,-1.4l1.5,0l0,-1.1l-2.3,0.3c-0.4,-0.2,-0.9,-0.3,-1.4,-0.3c-0.8,0,-1.4,0.2,-1.9,0.7c-0.5,0.5,-0.8,1.1,-0.8,1.8c0,0.5,0.2,0.9,0.4,1.3c0.2,0.4,0.5,0.7,0.9,1c-0.9,0.4,-1.3,0.9,-1.3,1.5c0,0.5,0.3,0.9,1,1.2c-0.8,0.4,-1.2,1,-1.2,1.6c0,0.5,0.2,1,0.8,1.4c0.5,0.3,1.2,0.5,2.1,0.5c1,0,2,-0.2,2.8,-0.8c0.7,-0.5,1.1,-1.2,1.1,-2.1c0,-0.5,-0.1,-1,-0.5,-1.3c-0.3,-0.3,-0.8,-0.4,-1.4,-0.4l-2.7,0.1c-0.2,0,-0.5,-0.1,-0.6,-0.2c-0.2,-0.1,-0.3,-0.2,-0.3,-0.4c0,-0.2,0.4,-0.5,1.1,-0.9c0.1,0,0.3,0,0.5,0Zm-1.1,-1.3c-0.3,-0.3,-0.4,-0.7,-0.4,-1.2c0,-0.5,0.1,-0.8,0.4,-1.1c0.3,-0.3,0.6,-0.5,1.1,-0.5c0.4,0,0.8,0.2,1,0.4c0.3,0.3,0.4,0.7,0.4,1.2c0,0.5,-0.1,0.9,-0.4,1.2c-0.3,0.3,-0.6,0.4,-1,0.4c-0.5,0,-0.8,-0.1,-1.1,-0.4Zm-0.2,6.1c-0.4,-0.2,-0.5,-0.5,-0.5,-0.8c0,-0.2,0,-0.4,0.1,-0.6c0.2,-0.1,0.3,-0.3,0.6,-0.5c0.2,-0.2,0.4,-0.3,0.5,-0.3c0.2,0,0.5,0,0.9,0c0.6,0,1.1,0,1.3,0c0.8,0,1.2,0.2,1.2,0.7c0,0.5,-0.3,1,-0.8,1.3c-0.6,0.3,-1.2,0.5,-2,0.5c-0.6,0,-1,-0.1,-1.3,-0.3Z" class="g17_13" />
<text 
x="711" 
y="364" 
dx="0,0,0,0,0,0" 
class="s6_13"
>strong</text>

<text 
x="56" 
y="385" 
dx="0,0,0,0,0,0,0,0" 
class="s4_13"
>elements</text>

<text 
x="122" 
y="385" 
dx="0,0,0.2,0,0,0" 
class="s1_13"
>. The </text>

<path d="M168.7,377.9c-0.8,-0.2,-1.5,-0.3,-2.1,-0.3c-1,0,-1.8,0.2,-2.4,0.6c-0.6,0.4,-0.8,0.9,-0.8,1.6c0,0.3,0,0.5,0.1,0.8c0.2,0.2,0.4,0.5,0.6,0.6c0.2,0.2,0.5,0.3,0.8,0.4c0.3,0.1,0.7,0.3,1.3,0.5c0.8,0.2,1.2,0.4,1.4,0.6c0.2,0.2,0.3,0.5,0.3,0.7c0,0.4,-0.2,0.8,-0.6,1c-0.4,0.2,-0.9,0.4,-1.5,0.4c-0.8,0,-1.5,-0.2,-2.1,-0.5l-0.3,1c0.7,0.3,1.4,0.4,2.4,0.4c1,0,1.8,-0.2,2.4,-0.6c0.6,-0.4,0.9,-1,0.9,-1.8c0,-0.3,-0.1,-0.7,-0.2,-1c-0.2,-0.3,-0.4,-0.5,-0.8,-0.7c-0.3,-0.2,-0.7,-0.4,-1.2,-0.5l-1.1,-0.3c-0.5,-0.2,-0.9,-0.3,-1,-0.5c-0.2,-0.2,-0.3,-0.4,-0.3,-0.6c0,-0.3,0.2,-0.6,0.6,-0.8c0.3,-0.2,0.8,-0.4,1.5,-0.4c0.5,0,1.1,0.2,1.8,0.4l0.3,-1Z" class="g17_13" />
<path d="M178.3,384.3c-0.7,0.3,-1.3,0.4,-1.9,0.4c-0.4,0,-0.7,-0.1,-0.9,-0.4c-0.2,-0.3,-0.3,-0.6,-0.3,-1.1l0,-4.4l2.6,0l0,-1l-2.6,0l0,-2.2l-1.1,0l0,2.2l-1.5,0l0,1l1.5,0l0,4.7c0,1.5,0.7,2.2,2,2.2c0.8,0,1.6,-0.2,2.4,-0.5l-0.2,-0.9Z" class="g17_13" />
<path d="M186,377.6c-1,0,-1.8,0.6,-2.5,1.7l0,-1.5l-1.1,0l0,7.7l1.1,0l0,-5c0,0,0.2,-0.2,0.5,-0.6c0.2,-0.4,0.5,-0.7,0.9,-0.9c0.3,-0.2,0.6,-0.3,1,-0.3c0.3,0,0.8,0.2,1.3,0.4l0.5,-1.1c-0.6,-0.3,-1.2,-0.4,-1.7,-0.4Z" class="g17_13" />
<path d="M191.1,378.7c-0.6,0.7,-0.9,1.7,-0.9,2.9c0,1.3,0.3,2.3,0.9,3c0.7,0.8,1.5,1.1,2.6,1.1c1.1,0,1.9,-0.3,2.6,-1.1c0.6,-0.7,0.9,-1.7,0.9,-3c0,-1.2,-0.3,-2.2,-0.9,-2.9c-0.7,-0.8,-1.5,-1.1,-2.6,-1.1c-1.1,0,-1.9,0.3,-2.6,1.1Zm0.9,5.1c-0.4,-0.6,-0.6,-1.3,-0.6,-2.1c0,-1,0.2,-1.7,0.6,-2.3c0.4,-0.5,1,-0.8,1.7,-0.8c0.7,0,1.3,0.3,1.7,0.8c0.4,0.6,0.6,1.4,0.6,2.3c0,0.8,-0.2,1.5,-0.6,2.1c-0.4,0.6,-1,0.9,-1.7,0.9c-0.7,0,-1.3,-0.3,-1.7,-0.9Z" class="g17_13" />
<path d="M205.9,380.2c0,-1.7,-0.7,-2.6,-2.2,-2.6c-0.9,0,-1.8,0.4,-2.6,1.3l0,-1.1l-1.2,0l0,7.7l1.2,0l0,-5.6c0.8,-0.9,1.5,-1.3,2.2,-1.3c0.5,0,0.9,0.1,1.1,0.4c0.2,0.4,0.3,0.9,0.3,1.5l0,5l1.2,0l0,-5.3Z" class="g17_13" />
<path d="M211.7,382.6c0.7,0,1.4,-0.2,1.8,-0.7c0.5,-0.5,0.8,-1.1,0.8,-1.8c0,-0.5,-0.1,-1,-0.4,-1.4l1.5,0l0,-1.1l-2.3,0.3c-0.4,-0.2,-0.9,-0.3,-1.4,-0.3c-0.8,0,-1.4,0.2,-1.9,0.7c-0.5,0.5,-0.7,1.1,-0.7,1.8c0,0.4,0.1,0.9,0.3,1.3c0.2,0.4,0.5,0.7,1,1c-0.9,0.4,-1.4,0.9,-1.4,1.5c0,0.5,0.4,0.9,1.1,1.2c-0.9,0.4,-1.3,0.9,-1.3,1.6c0,0.5,0.3,1,0.8,1.4c0.6,0.3,1.3,0.5,2.1,0.5c1.1,0,2,-0.3,2.8,-0.8c0.8,-0.5,1.1,-1.2,1.1,-2.1c0,-0.5,-0.1,-1,-0.5,-1.3c-0.3,-0.3,-0.8,-0.4,-1.4,-0.4l-2.6,0c-0.3,0,-0.6,0,-0.7,-0.1c-0.2,-0.1,-0.3,-0.2,-0.3,-0.4c0,-0.2,0.4,-0.6,1.1,-0.9c0.2,0,0.3,0,0.5,0Zm-1.1,-1.3c-0.3,-0.3,-0.4,-0.7,-0.4,-1.2c0,-0.5,0.1,-0.9,0.4,-1.2c0.3,-0.3,0.7,-0.4,1.1,-0.4c0.4,0,0.8,0.1,1,0.4c0.3,0.3,0.4,0.7,0.4,1.2c0,0.5,-0.1,0.9,-0.4,1.2c-0.3,0.3,-0.6,0.4,-1,0.4c-0.4,0,-0.8,-0.1,-1.1,-0.4Zm-0.2,6.1c-0.4,-0.2,-0.5,-0.5,-0.5,-0.8c0,-0.2,0,-0.4,0.2,-0.6c0.1,-0.1,0.3,-0.3,0.5,-0.5c0.2,-0.2,0.4,-0.3,0.5,-0.3c0.2,0,0.5,0,0.9,0c0.6,0,1.1,-0.1,1.3,-0.1c0.8,0,1.2,0.3,1.2,0.8c0,0.5,-0.3,0.9,-0.8,1.3c-0.6,0.3,-1.2,0.5,-2,0.5c-0.5,0,-1,-0.1,-1.3,-0.3Z" class="g17_13" />
<text 
x="161" 
y="385" 
dx="0,0,0,0,0,0" 
class="s6_13"
>strong</text>

<text 
x="221" 
y="385" 
dx="0,0,0,0,0,0,0,0,0,0.2,0,0,0,0.2,0,0,0.2,0,0,0,0,0.2,0,0,0,0,0,0,0.2,0,0,0,0,0,0.2,0,0,0,0,0,0,0,0,0.2,0,0,0,0,0.2,0,0" 
class="s1_13"
>elements can be used inside other elements such as </text>

<path d="M590.1,377.8l-1.2,0l0,10.8l1.2,0l0,-4.2c0.2,0.4,0.6,0.7,1,1c0.4,0.2,0.9,0.3,1.3,0.3c0.9,0,1.7,-0.4,2.2,-1.2c0.5,-0.8,0.8,-1.7,0.8,-2.9c0,-1.2,-0.2,-2.2,-0.8,-2.9c-0.5,-0.8,-1.2,-1.1,-2.1,-1.1c-0.5,0,-0.9,0.1,-1.4,0.3c-0.4,0.2,-0.7,0.5,-1,0.9l0,-1Zm2.1,0.8c0.6,0,1.1,0.3,1.5,0.8c0.3,0.6,0.5,1.3,0.5,2.2c0,0.9,-0.2,1.6,-0.6,2.2c-0.3,0.6,-0.8,0.9,-1.5,0.9c-0.4,0,-0.7,-0.2,-1.1,-0.5c-0.4,-0.2,-0.7,-0.6,-0.9,-1.1l0,-3.2c0.6,-0.9,1.3,-1.3,2.1,-1.3Z" class="g17_13" />
<text 
x="587" 
y="385" 
dx="0" 
class="s6_13"
>p</text>

<text 
x="600" 
y="385" 
dx="0,0,0,0" 
class="s1_13"
>and </text>

<path d="M638.5,384.5l-2,0l0,-9l-3,0l0,1l2,0l0,9l3,0l0,-1Z" class="g17_13" />
<path d="M645.5,375.1c-0.2,0.1,-0.3,0.3,-0.3,0.5c0,0.2,0.1,0.4,0.3,0.6c0.1,0.1,0.3,0.2,0.5,0.2c0.2,0,0.4,-0.1,0.6,-0.2c0.1,-0.2,0.2,-0.4,0.2,-0.6c0,-0.2,-0.1,-0.4,-0.2,-0.5c-0.2,-0.2,-0.4,-0.3,-0.6,-0.3c-0.2,0,-0.4,0.1,-0.5,0.3Zm1.1,2.7l-3.5,0l0,1l2.3,0l0,6.7l1.2,0l0,-7.7Z" class="g17_13" />
<text 
x="631" 
y="385" 
dx="0,0" 
class="s6_13"
>li</text>

<text 
x="650" 
y="385" 
dx="0,0,0.2,-1.4,0,0,0.2,0,0,0,0.2,0,0,0.2,0,0,0.2,0,0,0" 
class="s1_13"
>. You use it if you </text>

<text 
x="56" 
y="406" 
dx="0,0,0,0,0,-0.9,0,0,-0.9,0,0,0,0,-0.9,0,0,0.3,0,0,0,0,0,0,0,-0.9,0,0,-0.3,0,0,-0.9,0,0,0,0,0,-0.9,0,0,0,0" 
class="s1_13"
>want to make particular words stand out. </text>

<text 
x="56" 
y="449" 
dx="0,-1.7,-3.1,-2.4,0,0,-2,-1.8,-1.7,0,0,-2.5,-2.9,-2.6,-1.7,-2.6,-2.2,-2.7,0" 
class="s11_13"
>Nest your elements!</text>

<text 
x="56" 
y="471" 
dx="0,0,0,0,0,0,0,0,0,1.2,0,0,0,0,0,0,1.2,0,0,0,0,0,0,1.2,0,0,1.2,0,0,0,0,0,0,0,1.2,0,0,0,0,1.2,0,0,0,0,0,1.2,0,0,0,0,1.2,0,0,0,0,1.2,0,0,0,0,0,0" 
class="s1_13"
>Elements should always be nested. This means that they always </text>

<text 
x="56" 
y="492" 
dx="0,0,0,0,0,-0.9,0,0,0,0,0,0,-0.9,0,0,0,-0.9,0,0,0,0,0,0,-1.4,0,-0.9,0,0,0,0,-0.9,0,0,0,0,0,0,0,-0.9,0,0,0,0,0" 
class="s1_13"
>slot inside one another, like Russian dolls!</text>

<text 
x="56" 
y="535" 
dx="0,0,0,0,0,-0.9,0,0,0,0,-1.8,0,0,0,0,0,0,0,-1.2,-0.9,0,0,0,0" 
class="s4_13"
>What does ‘nested’ mean?</text>

<text 
x="56" 
y="556" 
dx="0,0,0,0,0,0.8,0,0,0.8,0,0,0,0,0.8,0,0,0,0,0,0.8,0,0,0.8,0,0,0,0,0,0,0,0.8,0,0,0,0,0,0.8,0,0,0,0,0,0,0.8,0,0,0.8,0,0,0,0,0,0,0,0.8,0,0,0,0,0,0,0" 
class="s1_13"
>When we talk about an element being nested in another element </text>

<text 
x="56" 
y="578" 
dx="0,0,0,3.5,0,0,0,0,3.5,0,0,0,0,3.5,0,0,0,3.5,0,0,0,0,0,0,0,3.5,0,0,0,3.5,0,0,0,0,0,0,0,3.5,0,0,0,0,3.5,0,0,0,0,0,3.5,0,0,0,0,0,0,0,-0.3,0" 
class="s1_13"
>we mean that its opening and closing tags occur somewhere </text>

<text 
x="56" 
y="599" 
dx="0,0,0,0,0,0,0,0,5.9,0,0,0,5.9,0,0,0,0,0,5.9,0,0,0,0,0,0,0,-1.1,0,5.9,0,0,0,0,0,0,0,5.9,0,0,0,5.9,0,0,0,0,0,0,0,5.9,0,0,0,0,0,5.9,0,0,0" 
class="s1_13"
>between the other element’s opening and closing tags. For </text>

<text 
x="56" 
y="620" 
dx="0,0,0,0,0,0,0,0,0,2.2,0,0,2.2,0,0,2.2,0,0,0,2.2,0,0,0,0,2.2,0" 
class="s1_13"
>example, if we say that a </text>

<path d="M249.9,613.2c-0.7,-0.2,-1.4,-0.4,-2,-0.4c-1,0,-1.8,0.2,-2.4,0.6c-0.6,0.4,-0.9,1,-0.9,1.6c0,0.3,0.1,0.6,0.2,0.9c0.2,0.2,0.3,0.4,0.6,0.6c0.2,0.2,0.5,0.3,0.8,0.4c0.3,0.1,0.7,0.2,1.3,0.4c0.8,0.3,1.2,0.5,1.4,0.7c0.2,0.2,0.3,0.4,0.3,0.7c0,0.4,-0.2,0.7,-0.6,1c-0.4,0.2,-0.9,0.3,-1.6,0.3c-0.7,0,-1.4,-0.1,-2,-0.4l-0.3,1c0.6,0.3,1.4,0.4,2.4,0.4c1,0,1.7,-0.2,2.4,-0.6c0.6,-0.5,0.9,-1.1,0.9,-1.8c0,-0.4,-0.1,-0.7,-0.2,-1c-0.2,-0.3,-0.5,-0.5,-0.8,-0.7c-0.3,-0.2,-0.7,-0.4,-1.2,-0.5L247.1,616c-0.5,-0.1,-0.9,-0.3,-1.1,-0.4c-0.1,-0.2,-0.2,-0.4,-0.2,-0.6c0,-0.4,0.2,-0.6,0.5,-0.9c0.4,-0.2,0.9,-0.3,1.5,-0.3c0.6,0,1.2,0.1,1.9,0.3l0.2,-0.9Z" class="g17_13" />
<path d="M259.5,619.6c-0.6,0.2,-1.2,0.4,-1.8,0.4c-0.4,0,-0.7,-0.2,-0.9,-0.4c-0.2,-0.3,-0.3,-0.6,-0.3,-1.1l0,-4.5l2.6,0l0,-1l-2.6,0l0,-2.1l-1.1,0l0,2.1l-1.5,0l0,1l1.5,0l0,4.8c0,1.5,0.7,2.2,2,2.2c0.8,0,1.6,-0.2,2.3,-0.5l-0.2,-0.9Z" class="g17_13" />
<path d="M267.2,612.8c-0.9,0,-1.7,0.6,-2.4,1.8l0,-1.6l-1.1,0l0,7.8l1.1,0l0,-5c0,-0.1,0.2,-0.3,0.4,-0.6c0.3,-0.4,0.6,-0.7,1,-0.9c0.3,-0.2,0.6,-0.3,1,-0.3c0.3,0,0.8,0.1,1.3,0.4l0.5,-1.2c-0.6,-0.2,-1.2,-0.4,-1.8,-0.4Z" class="g17_13" />
<path d="M272.4,614c-0.6,0.7,-0.9,1.7,-0.9,2.9c0,1.2,0.3,2.2,0.9,3c0.7,0.7,1.5,1.1,2.6,1.1c1.1,0,1.9,-0.4,2.5,-1.1c0.7,-0.8,1,-1.8,1,-3c0,-1.2,-0.3,-2.2,-1,-2.9c-0.6,-0.8,-1.4,-1.2,-2.5,-1.2c-1.1,0,-1.9,0.4,-2.6,1.2Zm0.9,5.1c-0.4,-0.6,-0.6,-1.3,-0.6,-2.2c0,-0.9,0.2,-1.6,0.6,-2.2c0.4,-0.6,1,-0.8,1.7,-0.8c0.7,0,1.3,0.2,1.7,0.8c0.4,0.6,0.6,1.3,0.6,2.2c0,0.9,-0.2,1.6,-0.6,2.2c-0.4,0.6,-1,0.9,-1.7,0.9c-0.7,0,-1.3,-0.3,-1.7,-0.9Z" class="g17_13" />
<path d="M287.2,615.5c0,-1.8,-0.8,-2.7,-2.2,-2.7c-0.9,0,-1.8,0.5,-2.7,1.4l0,-1.2l-1.1,0l0,7.8l1.1,0l0,-5.6c0.9,-0.9,1.6,-1.3,2.3,-1.3c0.5,0,0.9,0.1,1.1,0.4c0.2,0.3,0.3,0.8,0.3,1.5l0,5l1.2,0l0,-5.3Z" class="g17_13" />
<path d="M293,617.9c0.7,0,1.3,-0.3,1.8,-0.7c0.5,-0.5,0.8,-1.1,0.8,-1.8c0,-0.6,-0.1,-1,-0.4,-1.4l1.5,0l0,-1.2l-2.3,0.4C294,613,293.5,612.9,293,612.9c-0.8,0,-1.4,0.2,-1.9,0.7c-0.5,0.4,-0.7,1,-0.7,1.8c0,0.4,0.1,0.8,0.3,1.2c0.2,0.4,0.5,0.8,0.9,1c-0.9,0.5,-1.3,1,-1.3,1.6c0,0.4,0.3,0.8,1,1.2c-0.8,0.4,-1.2,0.9,-1.2,1.5c0,0.6,0.2,1.1,0.8,1.4c0.5,0.4,1.2,0.6,2.1,0.6c1.1,0,2,-0.3,2.8,-0.8c0.7,-0.5,1.1,-1.2,1.1,-2.1c0,-0.6,-0.1,-1,-0.5,-1.3c-0.3,-0.3,-0.8,-0.5,-1.4,-0.5l-2.6,0.1c-0.3,0,-0.6,0,-0.7,-0.1c-0.2,-0.1,-0.3,-0.2,-0.3,-0.4c0,-0.3,0.4,-0.6,1.1,-0.9c0.2,0,0.3,0,0.5,0Zm-1.1,-1.4c-0.3,-0.3,-0.4,-0.6,-0.4,-1.1c0,-0.5,0.1,-0.9,0.4,-1.2c0.3,-0.3,0.6,-0.4,1.1,-0.4c0.4,0,0.8,0.1,1,0.4c0.3,0.3,0.4,0.7,0.4,1.2c0,0.5,-0.1,0.8,-0.4,1.1c-0.3,0.3,-0.6,0.5,-1,0.5c-0.5,0,-0.8,-0.2,-1.1,-0.5Zm-0.2,6.2c-0.4,-0.3,-0.5,-0.5,-0.5,-0.8c0,-0.2,0,-0.4,0.1,-0.6c0.2,-0.2,0.3,-0.4,0.6,-0.5c0.2,-0.2,0.4,-0.3,0.5,-0.3c0.2,0,0.5,0,0.9,0c0.6,-0.1,1.1,-0.1,1.3,-0.1c0.8,0,1.2,0.3,1.2,0.8c0,0.5,-0.3,0.9,-0.8,1.3c-0.6,0.3,-1.2,0.5,-2,0.5c-0.5,0,-1,-0.1,-1.3,-0.3Z" class="g17_13" />
<text 
x="242" 
y="620" 
dx="0,0,0,0,0,0" 
class="s6_13"
>strong</text>

<text 
x="304" 
y="620" 
dx="0,0,0,0,0,0,0,0,2.2,0,0,0,0,0,0,0,0,0,0,2.2,0,0,0,2.2,0,0,-0.3,0" 
class="s1_13"
>element containing the word </text>

<text 
x="56" 
y="642" 
dx="0,0,0,0,0,0,1.3,0,0,1.3,0,0,0,0,0,0,0,0,1.3,0" 
class="s1_13"
>‘Tip’ is ‘inside’ a </text>

<path d="M176.7,634.4l-1.1,0l0,10.9l1.1,0l0,-4.2c0.3,0.4,0.6,0.7,1,0.9c0.4,0.3,0.9,0.4,1.4,0.4c0.9,0,1.6,-0.4,2.1,-1.2c0.6,-0.8,0.8,-1.8,0.8,-3c0,-1.2,-0.2,-2.1,-0.7,-2.9c-0.5,-0.7,-1.2,-1.1,-2.1,-1.1c-0.5,0,-1,0.1,-1.4,0.4c-0.5,0.2,-0.8,0.5,-1.1,0.8l0,-1Zm2.1,0.8c0.6,0,1.1,0.3,1.5,0.9c0.3,0.6,0.5,1.3,0.5,2.2c0,0.9,-0.2,1.6,-0.5,2.2c-0.4,0.6,-0.9,0.9,-1.5,0.9c-0.4,0,-0.8,-0.2,-1.2,-0.5c-0.4,-0.3,-0.7,-0.6,-0.9,-1.1l0,-3.2c0.6,-0.9,1.3,-1.4,2.1,-1.4Z" class="g17_13" />
<text 
x="173" 
y="642" 
dx="0" 
class="s6_13"
>p</text>

<text 
x="188" 
y="642" 
dx="0,0,0,0,0,0,0,0,1.3,0,0,1.3,0,0,0,0,1.3,0,0,0,0,1.3,0,0,0,1.3,0,0,0,0,0,0,0" 
class="s1_13"
>element we mean that its opening </text>

<path d="M438.1,639.5l-4.5,-2.7l4.5,-2.7l0,-1.1l-5.6,3.3l0,0.9l5.6,3.4l0,-1.1Z" class="g17_13" />
<path d="M447,634.6c-0.8,-0.3,-1.5,-0.4,-2.1,-0.4c-1,0,-1.7,0.2,-2.3,0.6c-0.6,0.4,-0.9,1,-0.9,1.6c0,0.3,0.1,0.6,0.2,0.9c0.1,0.2,0.3,0.4,0.5,0.6c0.3,0.2,0.5,0.3,0.8,0.4c0.3,0.1,0.8,0.2,1.4,0.4c0.7,0.2,1.2,0.5,1.4,0.7c0.2,0.2,0.3,0.4,0.3,0.7c0,0.4,-0.2,0.7,-0.6,1c-0.4,0.2,-1,0.3,-1.6,0.3c-0.8,0,-1.5,-0.1,-2.1,-0.4l-0.2,1c0.6,0.3,1.4,0.4,2.3,0.4c1,0,1.8,-0.2,2.4,-0.6c0.6,-0.5,0.9,-1.1,0.9,-1.8c0,-0.4,0,-0.7,-0.2,-1c-0.2,-0.3,-0.4,-0.5,-0.7,-0.7c-0.4,-0.2,-0.8,-0.4,-1.3,-0.6l-1.1,-0.3c-0.5,-0.1,-0.8,-0.3,-1,-0.4c-0.2,-0.2,-0.3,-0.4,-0.3,-0.6c0,-0.4,0.2,-0.7,0.6,-0.9c0.4,-0.2,0.9,-0.3,1.5,-0.3c0.6,0,1.2,0.1,1.8,0.3l0.3,-0.9Z" class="g17_13" />
<path d="M456.6,640.9c-0.6,0.3,-1.3,0.5,-1.9,0.5c-0.4,0,-0.6,-0.2,-0.9,-0.4c-0.2,-0.3,-0.3,-0.7,-0.3,-1.1l0,-4.5l2.7,0l0,-1l-2.7,0l0,-2.1l-1.1,0l0,2.1l-1.5,0l0,1l1.5,0l0,4.8c0,1.4,0.7,2.2,2.1,2.2c0.7,0,1.5,-0.2,2.3,-0.6l-0.2,-0.9Z" class="g17_13" />
<path d="M464.3,634.2c-1,0,-1.8,0.6,-2.4,1.8l0,-1.6l-1.2,0l0,7.8l1.2,0l0,-5c0,-0.1,0.1,-0.3,0.4,-0.6c0.3,-0.4,0.6,-0.7,0.9,-0.9c0.3,-0.2,0.7,-0.3,1,-0.3c0.4,0,0.8,0.1,1.3,0.3l0.5,-1.1c-0.6,-0.2,-1.1,-0.4,-1.7,-0.4Z" class="g17_13" />
<path d="M469.5,635.4c-0.6,0.7,-1,1.7,-1,2.9c0,1.2,0.4,2.2,1,3c0.6,0.7,1.5,1.1,2.5,1.1c1.1,0,2,-0.4,2.6,-1.1c0.6,-0.8,0.9,-1.8,0.9,-3c0,-1.2,-0.3,-2.2,-0.9,-2.9c-0.6,-0.8,-1.5,-1.2,-2.6,-1.2c-1,0,-1.9,0.4,-2.5,1.2Zm0.9,5.1c-0.4,-0.6,-0.6,-1.3,-0.6,-2.2c0,-0.9,0.2,-1.6,0.6,-2.2c0.4,-0.6,0.9,-0.9,1.6,-0.9c0.8,0,1.3,0.3,1.7,0.9c0.4,0.6,0.6,1.3,0.6,2.2c0,0.9,-0.2,1.6,-0.6,2.2c-0.4,0.6,-1,0.9,-1.7,0.9c-0.7,0,-1.2,-0.3,-1.6,-0.9Z" class="g17_13" />
<path d="M484.2,636.9c0,-1.8,-0.7,-2.7,-2.2,-2.7c-0.9,0,-1.8,0.5,-2.6,1.4l0,-1.2l-1.2,0l0,7.8l1.2,0l0,-5.6c0.8,-0.9,1.6,-1.4,2.3,-1.4c0.5,0,0.8,0.2,1,0.5c0.2,0.3,0.4,0.8,0.4,1.5l0,5l1.1,0l0,-5.3Z" class="g17_13" />
<path d="M490,639.3c0.8,0,1.4,-0.3,1.9,-0.8c0.5,-0.4,0.7,-1,0.7,-1.7c0,-0.6,-0.1,-1,-0.3,-1.4l1.5,0l0,-1.2l-2.3,0.4c-0.5,-0.2,-1,-0.3,-1.5,-0.3c-0.7,0,-1.4,0.2,-1.9,0.7c-0.5,0.4,-0.7,1,-0.7,1.8c0,0.4,0.1,0.8,0.3,1.2c0.3,0.4,0.6,0.8,1,1c-0.9,0.5,-1.4,1,-1.4,1.5c0,0.5,0.4,0.9,1.1,1.3c-0.9,0.4,-1.3,0.9,-1.3,1.5c0,0.6,0.3,1.1,0.8,1.4c0.6,0.4,1.3,0.6,2.2,0.6c1,0,1.9,-0.3,2.7,-0.8c0.8,-0.5,1.2,-1.2,1.2,-2.1c0,-0.6,-0.2,-1,-0.5,-1.3c-0.4,-0.3,-0.9,-0.5,-1.5,-0.5l-2.6,0.1c-0.3,0,-0.5,0,-0.7,-0.1c-0.2,-0.1,-0.2,-0.3,-0.2,-0.4c0,-0.3,0.3,-0.6,1.1,-0.9c0.1,0,0.2,0,0.4,0Zm-1,-1.4c-0.3,-0.3,-0.5,-0.7,-0.5,-1.1c0,-0.5,0.2,-0.9,0.5,-1.2c0.2,-0.3,0.6,-0.4,1,-0.4c0.4,0,0.8,0.1,1.1,0.4c0.2,0.3,0.4,0.7,0.4,1.2c0,0.4,-0.2,0.8,-0.4,1.1c-0.3,0.3,-0.7,0.5,-1.1,0.5c-0.4,0,-0.8,-0.2,-1,-0.5Zm-0.3,6.1c-0.3,-0.2,-0.5,-0.4,-0.5,-0.7c0,-0.2,0.1,-0.4,0.2,-0.6c0.1,-0.2,0.3,-0.4,0.5,-0.5c0.3,-0.2,0.4,-0.3,0.5,-0.3c0.3,0,0.6,0,1,0c0.6,-0.1,1,-0.1,1.3,-0.1c0.7,0,1.1,0.3,1.1,0.8c0,0.5,-0.3,0.9,-0.8,1.3c-0.5,0.3,-1.2,0.5,-1.9,0.5c-0.6,0,-1,-0.1,-1.4,-0.4Z" class="g17_13" />
<path d="M502.5,636.3L496.9,633l0,1.1l4.5,2.7l-4.5,2.7l0,1.1l5.6,-3.4l0,-0.9Z" class="g17_13" />
<text 
x="430" 
y="642" 
dx="0,0,0,0,0,0,0,0" 
class="s6_13"
>&lt;strong&gt;</text>

<text 
x="56" 
y="663" 
dx="0,0,0,0,4.6,0,0,0,0,0,0,0" 
class="s1_13"
>and closing </text>

<path d="M157.3,660.9l-4.5,-2.7l4.5,-2.7l0,-1.1l-5.6,3.3l0,0.9l5.6,3.4l0,-1.1Z" class="g17_13" />
<path d="M165.3,652.9l-4.5,10.9l1.1,0l4.6,-10.9l-1.2,0Z" class="g17_13" />
<path d="M175.4,655.9c-0.8,-0.2,-1.5,-0.3,-2.1,-0.3c-1,0,-1.7,0.2,-2.3,0.6c-0.6,0.4,-0.9,0.9,-0.9,1.6c0,0.3,0.1,0.6,0.2,0.8c0.1,0.3,0.3,0.5,0.5,0.7c0.3,0.2,0.5,0.3,0.8,0.4c0.3,0.1,0.8,0.2,1.4,0.4c0.7,0.2,1.2,0.5,1.4,0.7c0.2,0.2,0.3,0.4,0.3,0.7c0,0.4,-0.2,0.7,-0.6,0.9c-0.4,0.3,-1,0.4,-1.6,0.4c-0.8,0,-1.5,-0.1,-2.1,-0.5l-0.2,1.1c0.6,0.2,1.4,0.4,2.3,0.4c1,0,1.8,-0.2,2.4,-0.7c0.6,-0.4,0.9,-1,0.9,-1.7c0,-0.4,0,-0.7,-0.2,-1c-0.2,-0.3,-0.4,-0.5,-0.7,-0.7c-0.4,-0.2,-0.8,-0.4,-1.3,-0.6l-1.1,-0.3c-0.5,-0.1,-0.8,-0.3,-1,-0.4c-0.2,-0.2,-0.3,-0.4,-0.3,-0.6c0,-0.4,0.2,-0.7,0.6,-0.9c0.4,-0.2,0.9,-0.3,1.5,-0.3c0.6,0,1.2,0.1,1.8,0.3l0.3,-1Z" class="g17_13" />
<path d="M185,662.3c-0.6,0.3,-1.3,0.5,-1.9,0.5c-0.4,0,-0.6,-0.2,-0.9,-0.4c-0.2,-0.3,-0.3,-0.7,-0.3,-1.1l0,-4.5l2.7,0l0,-1l-2.7,0l0,-2.1l-1.1,0l0,2.1l-1.5,0l0,1l1.5,0l0,4.8c0,1.4,0.7,2.2,2.1,2.2c0.7,0,1.5,-0.2,2.3,-0.6L185,662.3Z" class="g17_13" />
<path d="M192.7,655.6c-1,0,-1.8,0.6,-2.4,1.8l0,-1.6l-1.2,0l0,7.8l1.2,0l0,-5c0,-0.1,0.1,-0.3,0.4,-0.7c0.3,-0.3,0.6,-0.6,0.9,-0.8c0.3,-0.2,0.7,-0.3,1,-0.3c0.4,0,0.8,0.1,1.3,0.3l0.5,-1.1c-0.6,-0.2,-1.1,-0.4,-1.7,-0.4Z" class="g17_13" />
<path d="M197.9,656.7c-0.6,0.8,-1,1.8,-1,3c0,1.2,0.4,2.2,1,3c0.6,0.7,1.5,1.1,2.5,1.1c1.1,0,2,-0.4,2.6,-1.1c0.6,-0.8,0.9,-1.8,0.9,-3c0,-1.2,-0.3,-2.2,-0.9,-3c-0.6,-0.7,-1.5,-1.1,-2.6,-1.1c-1,0,-1.9,0.4,-2.5,1.1Zm0.9,5.2c-0.4,-0.6,-0.6,-1.3,-0.6,-2.2c0,-0.9,0.2,-1.6,0.6,-2.2c0.4,-0.6,0.9,-0.9,1.6,-0.9c0.8,0,1.3,0.3,1.7,0.9c0.4,0.6,0.6,1.3,0.6,2.2c0,0.9,-0.2,1.6,-0.6,2.2c-0.4,0.6,-1,0.9,-1.7,0.9c-0.7,0,-1.2,-0.3,-1.6,-0.9Z" class="g17_13" />
<path d="M212.6,658.3c0,-1.8,-0.7,-2.7,-2.2,-2.7c-0.9,0,-1.8,0.5,-2.6,1.4l0,-1.2l-1.2,0l0,7.8l1.2,0l0,-5.6c0.8,-0.9,1.6,-1.4,2.3,-1.4c0.5,0,0.8,0.2,1,0.5c0.2,0.3,0.4,0.8,0.4,1.5l0,5l1.1,0l0,-5.3Z" class="g17_13" />
<path d="M218.4,660.7c0.8,0,1.4,-0.3,1.9,-0.8c0.5,-0.5,0.7,-1,0.7,-1.8c0,-0.5,-0.1,-0.9,-0.3,-1.3l1.5,0l0,-1.2l-2.3,0.4c-0.5,-0.2,-1,-0.4,-1.5,-0.4c-0.7,0,-1.4,0.3,-1.9,0.7c-0.5,0.5,-0.7,1.1,-0.7,1.8c0,0.5,0.1,0.9,0.3,1.3c0.3,0.4,0.6,0.8,1,1c-0.9,0.5,-1.4,1,-1.4,1.5c0,0.5,0.4,0.9,1.1,1.2c-0.9,0.5,-1.3,1,-1.3,1.6c0,0.6,0.3,1.1,0.8,1.4c0.6,0.4,1.3,0.6,2.2,0.6c1,0,1.9,-0.3,2.7,-0.8c0.8,-0.5,1.2,-1.2,1.2,-2.1c0,-0.6,-0.2,-1,-0.5,-1.3C221.5,662.2,221,662,220.4,662l-2.6,0.1c-0.3,0,-0.5,0,-0.7,-0.1c-0.2,-0.1,-0.2,-0.3,-0.2,-0.4c0,-0.3,0.3,-0.6,1.1,-0.9c0.1,0,0.2,0,0.4,0Zm-1,-1.4c-0.3,-0.3,-0.5,-0.7,-0.5,-1.1c0,-0.5,0.2,-0.9,0.5,-1.2c0.2,-0.3,0.6,-0.4,1,-0.4c0.4,0,0.8,0.1,1.1,0.4c0.2,0.3,0.4,0.7,0.4,1.2c0,0.4,-0.2,0.8,-0.4,1.1c-0.3,0.3,-0.7,0.5,-1.1,0.5c-0.4,0,-0.8,-0.2,-1,-0.5Zm-0.3,6.1c-0.3,-0.2,-0.5,-0.4,-0.5,-0.7c0,-0.2,0.1,-0.4,0.2,-0.6c0.1,-0.2,0.3,-0.4,0.5,-0.6c0.3,-0.1,0.4,-0.2,0.5,-0.2c0.3,0,0.6,0,1,-0.1c0.6,0,1,0,1.3,0c0.7,0,1.1,0.3,1.1,0.8c0,0.5,-0.3,0.9,-0.8,1.2c-0.5,0.4,-1.2,0.6,-1.9,0.6c-0.6,0,-1,-0.2,-1.4,-0.4Z" class="g17_13" />
<path d="M230.9,657.7l-5.6,-3.3l0,1.1l4.5,2.7l-4.5,2.7l0,1.1l5.6,-3.4l0,-0.9Z" class="g17_13" />
<text 
x="150" 
y="663" 
dx="0,0,0,0,0,0,0,0,0" 
class="s6_13"
>&lt;/strong&gt;</text>

<text 
x="241" 
y="663" 
dx="0,0,0,0,0,4.6,0,0,0,0,0,4.6,0,0,0,0,0,0,0,-0.3,0,4.6,0,0,0,0,0,0,0,4.6,0,0,0" 
class="s1_13"
>tags occur somewhere between the </text>

<text 
x="56" 
y="684" 
dx="0,0,0,0,0,0,0,0" 
class="s1_13"
>opening </text>

<path d="M123.4,682.3L119,679.6l4.4,-2.7l0,-1.1l-5.5,3.3l0,0.9l5.5,3.4l0,-1.1Z" class="g17_13" />
<path d="M128.1,677.2l-1.2,0l0,10.8l1.2,0l0,-4.1c0.2,0.4,0.6,0.7,1,0.9c0.4,0.3,0.9,0.4,1.3,0.4c1,0,1.7,-0.4,2.2,-1.2c0.5,-0.8,0.8,-1.8,0.8,-3c0,-1.2,-0.2,-2.1,-0.8,-2.9c-0.5,-0.7,-1.2,-1.1,-2.1,-1.1c-0.4,0,-0.9,0.1,-1.4,0.3c-0.4,0.3,-0.7,0.5,-1,0.9l0,-1Zm2.1,0.8c0.6,0,1.1,0.3,1.5,0.9c0.3,0.5,0.5,1.3,0.5,2.2c0,0.8,-0.2,1.6,-0.6,2.2c-0.3,0.5,-0.8,0.8,-1.5,0.8c-0.4,0,-0.7,-0.1,-1.1,-0.4c-0.4,-0.3,-0.7,-0.7,-0.9,-1.1l0,-3.2c0.6,-0.9,1.3,-1.4,2.1,-1.4Z" class="g17_13" />
<path d="M142.1,679.1l-5.6,-3.3l0,1.1l4.5,2.7l-4.5,2.7l0,1.1l5.6,-3.4l0,-0.9Z" class="g17_13" />
<text 
x="116" 
y="684" 
dx="0,0,0" 
class="s6_13"
>&lt;p&gt;</text>

<text 
x="147" 
y="684" 
dx="0,0,0,0,-0.9,0,0,0,0,0,0,0" 
class="s1_13"
>and closing </text>

<path d="M236.7,682.3l-4.5,-2.7l4.5,-2.7l0,-1.1l-5.6,3.3l0,0.9l5.6,3.4l0,-1.1Z" class="g17_13" />
<path d="M244.7,674.2l-4.5,11l1.1,0l4.6,-11l-1.2,0Z" class="g17_13" />
<path d="M250.5,677.2l-1.1,0l0,10.8l1.1,0l0,-4.1c0.3,0.4,0.6,0.7,1,0.9c0.4,0.3,0.9,0.4,1.4,0.4c0.9,0,1.6,-0.4,2.1,-1.2c0.6,-0.8,0.8,-1.8,0.8,-3c0,-1.2,-0.2,-2.1,-0.7,-2.9C254.6,677.4,253.9,677,253,677c-0.5,0,-1,0.1,-1.4,0.3c-0.5,0.3,-0.8,0.5,-1.1,0.9l0,-1Zm2.1,0.8c0.6,0,1.1,0.3,1.5,0.9c0.3,0.5,0.5,1.3,0.5,2.2c0,0.8,-0.2,1.6,-0.5,2.2c-0.4,0.5,-0.9,0.8,-1.5,0.8c-0.4,0,-0.8,-0.1,-1.2,-0.4c-0.4,-0.3,-0.7,-0.7,-0.9,-1.1l0,-3.2c0.6,-0.9,1.3,-1.4,2.1,-1.4Z" class="g17_13" />
<path d="M264.5,679.1l-5.6,-3.3l0,1.1l4.5,2.7l-4.5,2.7l0,1.1l5.6,-3.4l0,-0.9Z" class="g17_13" />
<text 
x="229" 
y="684" 
dx="0,0,0,0" 
class="s6_13"
>&lt;/p&gt;</text>

<text 
x="269" 
y="684" 
dx="0,0,0,0,0,-0.9,0,0,-0.9,0,0,0" 
class="s1_13"
>tags of the </text>

<path d="M346.1,677.2l-1.1,0l0,10.8l1.1,0l0,-4.1c0.3,0.4,0.6,0.7,1,0.9c0.5,0.3,0.9,0.4,1.4,0.4c0.9,0,1.6,-0.4,2.2,-1.2c0.5,-0.8,0.8,-1.8,0.8,-3c0,-1.2,-0.3,-2.1,-0.8,-2.9c-0.5,-0.7,-1.2,-1.1,-2.1,-1.1c-0.5,0,-1,0.1,-1.4,0.3c-0.4,0.3,-0.8,0.5,-1.1,0.9l0,-1Zm2.1,0.8c0.7,0,1.2,0.3,1.5,0.9c0.4,0.5,0.5,1.3,0.5,2.2c0,0.8,-0.1,1.6,-0.5,2.2c-0.4,0.5,-0.9,0.8,-1.5,0.8c-0.4,0,-0.8,-0.1,-1.2,-0.4c-0.3,-0.3,-0.6,-0.7,-0.9,-1.1l0,-3.2c0.6,-0.9,1.3,-1.4,2.1,-1.4Z" class="g17_13" />
<text 
x="343" 
y="684" 
dx="0" 
class="s6_13"
>p</text>

<text 
x="355" 
y="684" 
dx="0,0,0,0,0,0,0,0" 
class="s1_13"
>element.</text>

<text 
x="538" 
y="481" 
dx="0,0.3,0.3,0.3,0.3,0.3,0.3,0.3,0.3,0.3,0.3,0.3,0.3,0.3,0.3,0.3,0.3,0.3,0.3,0.3,0.3,0.3,0.3,0.3,0" 
class="s6_13"
>&lt;p&gt;&lt;strong&gt;Tip:&lt;/strong&gt; </text>

<text 
x="538" 
y="503" 
dx="0,0,0,8.8,0,0,0,8.8,0,0,0,0,8.8,0,8.8,0,0,0,0,0,0,0" 
class="s6_13"
>If you make a mistake </text>

<text 
x="538" 
y="524" 
dx="0,0,0,0,0,0,-1.8,0,0,0,0,-1.8,0,0,0,0,0,0,0,0,0,0,0" 
class="s6_13"
>don’t stop playing!&lt;/p&gt;</text>

<text 
x="538" 
y="460" 
dx="0,-2.5,-1.7,-1.9,-1.9,-2.7,-3.1" 
class="s11_13"
>Correct</text>

<text 
x="538" 
y="588" 
dx="0,-2.1,-1.8,-2.5,-1.7,-1.9,-1.9,-2.7,-3.1" 
class="s11_13"
>Incorrect</text>

<text 
x="538" 
y="610" 
dx="0,0.3,0.3,0.3,0.3,0.3,0.3,0.3,0.3,0.3,0.3,0.3,0.3,0.3,0.3,0.3,0.3,0.3,0.3,0.3,0.3,0.3,0.3,0.3,0" 
class="s6_13"
>&lt;strong&gt;&lt;p&gt;Tip:&lt;/strong&gt; </text>

<text 
x="538" 
y="631" 
dx="0,0,0,8.7,0,0,0,8.7,0,0,0,0,8.7,0,8.7,0,0,0,0,0,0,0" 
class="s6_13"
>If you make a mistake </text>

<text 
x="538" 
y="652" 
dx="0,0,0,0,0,0,-1.8,0,0,0,0,-1.8,0,0,0,0,0,0,0,0,0,0,0" 
class="s6_13"
>don’t stop playing!&lt;/p&gt;</text>

<text 
x="56" 
y="786" 
dx="0,-4.5,-4.5,-7,-5.3,-4.6,0,0,-6.7,0,0,-7.4,-4.4,-4.4,0,0,-4.6,-8.1,-7.1,-5.7,-6.8" 
class="s12_13"
>Making it look better</text>

<text 
x="1322" 
y="347" 
dx="0,0,0,-0.5,0,0,0,0,-1,0,-1,0,0,0,0,0,0" 
class="s13_13"
>Playing a Concert</text>

<text 
x="1323" 
y="361" 
dx="0,0,0,-0.2,0,0,0,0,-0.5,0,-0.5,0,0,0,0,0,0,0,-0.5,0,0,0,-0.5,0,0,-0.5,0,0,0,-0.5,0,-0.5,0,0,0,0,-0.5,0,0,-0.5,0,0,-0.5,0,0,0,-0.5,0,0,-0.5,0,0,-0.4,0,0,0,0,-0.5,0,0,0,-0.1,0,0,-0.5,0,0,0,0,0,0,0,0,0,-0.5,0,0,0,0,-0.5,-0.5,0,-0.5,0,0,0,-0.5,0,0,0,0,-0.5,0,0,0,0" 
class="s14_13"
>Playing a concert can be great fun! Or it can be totally scary! Sometimes both at the same time.</text>

<text 
x="1323" 
y="376" 
dx="0,0,0,-0.5,0,0,0,0,0,-0.5,0,0,0,-0.5,0,0,0,0,0,0,0,0,-0.5,0,-0.5,0,0,0,0,-0.5,0,0,-0.5,0,0,0,-0.5,0,0,0,-0.5,0,0,0,0,-0.5,0,0,0,-0.5,0,0,0,-0.5,0,-0.5,0,0,0,0,0,0,-0.2,0" 
class="s14_13"
>So we’ve put together a list of our top tips for great concerts.</text>

<text 
x="1323" 
y="391" 
dx="0,0,0,0,0,-0.6,0,0,0,-0.6,0,-0.6,0,0,-0.5,0,0,0,0" 
class="s15_13"
>Copy out a set-list</text>

<text 
x="1323" 
y="406" 
dx="0,0,-0.5,0,0,-0.4,0,0,0,0,0,-0.5,0,0,-0.5,0,-0.5,0,0,0,0,-0.5,0,0,-0.5,0,0,0,-0.5,-0.2,0,0,0,-0.5,0,0,0,0,0,-0.5,0,0,-0.5,0,0,0,-0.5,0,0,0,0,0,-0.5,-0.2,0,0,0,0,0,-0.5,0,0,-0.2,0,-0.5,0,0,0,0" 
class="s14_13"
>A set-list is a list of all your songs in the order you’ll play them.</text>

<text 
x="1323" 
y="421" 
dx="0,0,0,0,0,-0.5,0,0,0,0,0,0,-0.5,0,0,0,-0.5,0,0,0,-0.1,-0.2,0,0,0" 
class="s14_13"
>Make copies for everyone.</text>

<text 
x="1323" 
y="436" 
dx="0,0,0,0,0,0,0.6,0,0,0.6,0,0,0,0,0.6,0,0,0.6,0,0,-0.5,0,0.6,-0.2,0,0,0.6,0,0,0,0.6,0,0,0,0,0,0.6,0,0,0,0,0.6,0,0,0.6,0,0,0.6,0,0,0,0,0.6,0,0,0,0,0.6,-0.3,0,0.6,-0.2,0,0,0,0.6,0,0,0,0,0.6,0,0,0.6,0,0,0,0.6,0,0,0,0,0,0,0.6,0,0,0.6,0,0,0.6,0,0,0" 
class="s14_13"
>Print it BIG! so that you can still read it if it’s down by your feet on the floor, or if the </text>

<text 
x="1323" 
y="444" 
dx="0,0,0,0,0,0,0,0,0,-0.5,0,0,0,0,0,-0.5,0,0,-0.1,0,-0.5,0,0,0,0" 
class="s14_13"
>lighting isn’t very good.</text>

<text 
x="1323" 
y="459" 
dx="0,0,0,0,0,0,0,0,0,-0.6,-0.2,0,0,0,-0.6,0,0,0,0,0" 
class="s15_13"
>Remember your spares</text>

<text 
x="1323" 
y="474" 
dx="0,0,0,0,0,-0.5,0,0,0,0,0,0,0,0,0,-0.2,0,-0.5,0,-0.3,0,0,-0.5,0,0,0,-0.2,0,-0.5,0,0,-0.5,0,-0.5,0,0,0,0,-0.5,0,0,-0.5,0,0,-0.5,0,0,0,0,0,0,0,0,-0.5,0,0,-0.5,0,0,0,0,-0.5,0,0,0,0,-0.5,0,0,0,-0.5,0,0,-0.5,0,0,0,0,0,0,-0.5,0,0,0,-0.5,0,0,0,0,0,0,0" 
class="s14_13"
>Some instruments have parts that need to be replaced if they wear out or break. For example:</text>

<text 
x="1332" 
y="490" 
dx="0" 
class="s16_13"
>•</text>

<text 
x="1340" 
y="490" 
dx="0,0,0,0,-0.4,0,0,-0.5,0,0,0,0,0,0" 
class="s14_13"
>guitar strings</text>

<text 
x="1332" 
y="497" 
dx="0" 
class="s16_13"
>•</text>

<text 
x="1340" 
y="497" 
dx="0,0,0,0,0,0,0,0,0,0,-0.5,0,0,-0.5,0,0,0,0,0,0,0,0,-0.5,0,0,0,0" 
class="s14_13"
>saxophone or clarinet reeds</text>

<text 
x="1332" 
y="505" 
dx="0" 
class="s16_13"
>•</text>

<text 
x="1340" 
y="505" 
dx="0,0,0,0,0,0,0,0,0,0" 
class="s14_13"
>drumsticks</text>

<text 
x="1323" 
y="520" 
dx="0,0,0,0,0,-0.5,0,-0.5,0,0,0,0,-0.5,0,0,-0.5,0,0,0,-0.5,0,0,0,0,0,0,-0.5,-0.2,0,0,-0.5,0,0,0,0,0,-0.5,0,0,0,0,-0.5,0,0,0,-0.5,0,0,0,0,-0.5,0,0,0,0,-0.5,-0.2,0,0,-0.5,0,0,0,0,-0.5,0,0,0,0,0,-0.5,0,0,0,0,-0.5,0,0,0,-0.5,0,0,-0.5,0,0,-0.5,0,0,0,-0.2,0,0,0,0,-0.7" 
class="s14_13"
>Make a list of the spares you might need and make sure you know where they are in an emergency.</text>

<text 
x="1323" 
y="535" 
dx="0,0,0,0,0,-0.6,0,0,0,0,0,-0.6,-0.2,0,0,0,0,0,-0.6,0,0,-0.6,0,0,-0.6,0,0,0,-0.6,0,-0.6,0,0" 
class="s15_13"
>Plan where you’ll be on the stage</text>

<text 
x="1323" 
y="550" 
dx="0,0,0,0,0,0,0,0.7,-0.2,0,0,0.7,0,-0.4,0,0,0,0.7,0,0,0.7,0,0,0,0.7,0,0,0.7,-0.2,0,0,0,0.7,0,0,0,0,0,0,0,0,0,-0.2,0,0,0.7,-0.4,0,0,0,0.7,0,0.7,0,0,0,0.7,0,0,0,0,0,0,0,0.7,0,0,0.7,0,0,0,0,0,0,0.7,0,0,0,0,0,0.7,-0.2,0,0,0,0,0,0.7,0,0,0" 
class="s14_13"
>Before you start to set up your instruments, take a few minutes to decide where you’re all </text>

<text 
x="1323" 
y="558" 
dx="0,0,0,0,0,0,-0.5,0,0,-0.5,0,0" 
class="s14_13"
>going to be.</text>

<text 
x="1332" 
y="573" 
dx="0" 
class="s16_13"
>•</text>

<text 
x="1340" 
y="573" 
dx="0,0,0,0,0,-0.5,0,0,0,-0.5,0,0,0,0,0,-0.5,0,0,-0.5,0,0,0,0,0,0,-0.5,0,-0.4,0,0,0,0,-0.5,0,0,-0.5,0,0,0,-0.5,0,0,-0.5,0,0,0,-0.5,0,0,0,0" 
class="s14_13"
>Will the drums be centre stage? Or off to one side?</text>

<text 
x="1332" 
y="581" 
dx="0" 
class="s16_13"
>•</text>

<text 
x="1340" 
y="581" 
dx="0,0,0,-0.5,0,0,0,0,0,-0.5,0,-0.5,0,0,0,0,0,0,0,0,0,0,0,0,-0.5,0,0,0,-0.5,0,0,0,-0.5,0,0,0,0,0,0,0,0,0,-0.5,0,0,-0.5,-0.2,0,0,0,-0.5,0,0,0,-0.4,0,0,-0.5,0,0,-0.2,0,0,0,-0.5,0,-0.4,0,0,0,0,-0.5,0,0,-0.5,0,0,0,-0.5,0,0,0,0,0" 
class="s14_13"
>Is there a power-socket for the amplifier if your guitar player stands on the right?</text>

<text 
x="1323" 
y="596" 
dx="0,0,0,0,0,0.8,0,0,0,0,0.8,0,0,0,0,0,0,0.8,0,0,0.8,0,0,0,0,0,0.8,0,0,0,0,0,0.8,0,0,0,0.8,0,0,0,0,0.8,0,0,0,0,0,0,0.8,-0.2,0,0,0.8,0,-0.4,0,0,0,0.8,0,0,0,0,0,0,0,0.8,0,0,0.8,-0.2,0,0,0,0.8,0,0,0,0,0,0,0,0,0,-0.2,0,0,0.8,0,0,0,0" 
class="s14_13"
>It’s much better to think about all this before you start setting up your instruments. It’s </text>

<text 
x="1323" 
y="603" 
dx="0,0,0,0,0,0,0,0.1,0,0,0,0,0,0,0,0,0,0.1,0,0,0.1,-0.2,0,0,0.1,0,-0.3,0,0,0.1,0,0,0.1,0,-0.4,0,0,0,0.1,0,0,0,0,0,0,0,0,0,0,0.1,0,0,0,0,0,0,0.1,0,0,0,0.1,0,0,0,0,0,0,0,0,0.1,0,0,0,0,0,0,0.1,0,0,0,0,0.1,-0.2,0,0,0,0,0,0.1,0,0,0,0,0" 
class="s14_13"
>really annnoying if you have to start unplugging things and swapping places once you’ve begun </text>

<text 
x="1323" 
y="611" 
dx="0,0,0,-0.5,0,0,0,-0.5,0,0,0,0,0,0,-0.5,0,0" 
class="s14_13"
>to set things up!</text>

<text 
x="1323" 
y="626" 
dx="0,0,0,0,0,-0.6,0,0,0,0,0,-0.6,-0.2,0,0,0,0,0,-0.6,0,0,0,0,0,0,-0.6,0,0,0,0,-0.6,0,0,0,0,-0.6,-0.2,0,0,0,0,0,-0.6,0" 
class="s15_13"
>Know where you’re going, know when you’re on</text>

<text 
x="1323" 
y="641" 
dx="0,0,0,0,-0.2,0,0,0,0,0,0,0,0,-0.2,0,0,0,0,0,0,0,0,0,0,0,0,0,0,0,0,0,0,0,0,0,0,0,0,0,-0.2,0,0,0,0,0,0,0,0,0,0,0,0,0,0,0,0,0,0,0,0,0,0,0,0,0,0,0,0,0,0,0,0,0,0,-0.2,0,0,0,0,0,0,0,0,0,0,0,0,0,0,0,0,0,0,0,0" 
class="s14_13"
>If you’re playing a concert somewhere you’ve never been before make sure you know where it is. </text>

<text 
x="1323" 
y="649" 
dx="0,0,0,0,0,0,-0.1,0,0,0,-0.1,0,-0.1,0,0,0,-0.1,0,0,-0.1,0,0,0,-0.1,0,0,0,-0.1,0,-0.5,0,-0.1,0,-0.3,0,-0.1,0,0,0,0,0,0,-0.1,-0.2,0,0,-0.1,0,0,0,-0.1,0,0,-0.6,0,-0.1,0,0,0,0,0,0,0,-0.1,0,0,0,0,0,0,0,-0.1,0,0,0,0,0,-0.1,0,0,0,0,-0.1,0,0,0,0,0,-0.1,0,0,0,0,-0.1,0,0" 
class="s14_13"
>Print out a map or set the sat nav before you set out. There’s nothing worse than being lost in </text>

<text 
x="1323" 
y="657" 
dx="0,0,0,-0.5,0,0,-0.2,0,0,0,0,0,0,0,-0.5,0,0,0,0,0,-0.5,0,0,0,0,0,0,0,0,0,0,0,0,-0.5,0,0,0,0,0,0,-0.5,-0.2,0,0,0,0,0,-0.5,0,0,0,-0.5,0,0,-0.5,0,0,-0.5,0,0,0,0,-0.4,0,0,0" 
class="s14_13"
>an unfamiliar place half-an-hour before you’re due to go on-stage.</text>

<path d="M1241,306l0,-4l-4,0l0,-4l-4,0l0,-4l-4,0l0,-5l-4,0l0,5l0,4l0,4l0,4l0,4l0,4l0,4l0,4l0,4l4,0l0,-4l4,0l0,-4l4,0l0,-4l4,0l0,-4l4,0l0,-4Z" class="g15_13" />
<path d="M510,248l0,-4l-4,0l0,-4l-4,0l0,-4l-4,0l0,-4l-4,0l0,4l0,4l0,4l0,4l0,4l0,4l0,4l0,4l0,4l4,0l0,-4l4,0l0,-4l4,0l0,-4l4,0l0,-4l4,0l0,-4Z" class="g15_13" />
<image x="608" y="815" width="200" height="215" xlink:href="13/img/6.png" />
<image x="595" y="789" width="224" height="242" style="mix-blend-mode: multiply;" xlink:href="13/img/7.png" />
<text 
x="1590" 
y="1019" 
dx="0,-1.4" 
class="s17_13"
>25</text>

<text 
x="36" 
y="1019" 
dx="0,-2.5" 
class="s17_13"
>24</text>



<!-- Any embedded fonts defined here -->
<style type="text/css" ><![CDATA[

@font-face {
	font-family: PixelSplitter-Bold_bp;
	src: url("fonts/PixelSplitter-Bold_bp.woff") format("woff");
}

@font-face {
	font-family: AndaleMono_1cn;
	src: url("fonts/AndaleMono_1cn.woff") format("woff");
}

@font-face {
	font-family: HVDPosterClean_1e7;
	src: url("fonts/HVDPosterClean_1e7.woff") format("woff");
}

@font-face {
	font-family: Times-Bold_1cj;
	src: url("fonts/Times-Bold_1cj.woff") format("woff");
}

@font-face {
	font-family: Helvetica-Light_1by;
	src: url("fonts/Helvetica-Light_1by.woff") format("woff");
}

@font-face {
	font-family: PixelSplitter-Bold_1bs;
	src: url("fonts/PixelSplitter-Bold_1bs.woff") format("woff");
}

@font-face {
	font-family: Times-Roman_1cf;
	src: url("fonts/Times-Roman_1cf.woff") format("woff");
}

@font-face {
	font-family: Helvetica-Bold_1bu;
	src: url("fonts/Helvetica-Bold_1bu.woff") format("woff");
}

@font-face {
	font-family: Wingdings-Regular_1c4;
	src: url("fonts/Wingdings-Regular_1c4.woff") format("woff");
}

]]></style>

</svg>
