<?xml version="1.0" encoding="UTF-8" standalone="no"?>
<!DOCTYPE svg PUBLIC "-//W3C//DTD SVG 1.1//EN"
"http://www.w3.org/Graphics/SVG/1.1/DTD/svg11.dtd">


<!-- Page 14 -->
<svg x="0" y="0" width="1645" height="1061" viewBox="0 0 1645 1061" version="1.1" xmlns="http://www.w3.org/2000/svg" xmlns:xlink="http://www.w3.org/1999/xlink"
style="display: block;margin-left: auto;margin-right: auto;">
<defs>

<style type="text/css"><![CDATA[

.g5_14{
fill: #989797;
}
.g6_14{
fill: #FFFFFF;
}
.g4_14{
fill: none;
stroke: #989898;
stroke-width: 5;
stroke-linecap: butt;
stroke-linejoin: miter;
stroke-miterlimit: 4;
}
.g8_14{
fill: none;
stroke: #FFFFFF;
stroke-width: 1;
stroke-linecap: round;
stroke-linejoin: round;
}
.g7_14{
fill: none;
stroke: #FFFFFF;
stroke-width: 3;
stroke-linecap: round;
stroke-linejoin: round;
stroke-miterlimit: 4;
}
.g11_14{
fill: #11151D;
}
.g1_14{
fill: #89BA6E;
}
.g13_14{
fill: none;
stroke: #11151D;
stroke-width: 1;
stroke-linecap: butt;
stroke-linejoin: miter;
stroke-miterlimit: 4;
}
.g2_14{
fill: #FAAD60;
}
.g12_14{
fill: none;
stroke: #11151D;
stroke-width: 1;
stroke-linecap: butt;
stroke-linejoin: miter;
stroke-miterlimit: 3;
}
.g3_14{
fill: #E7DEEC;
}
.g9_14{
fill: none;
stroke: #FFFFFF;
stroke-width: 2;
stroke-linecap: round;
stroke-linejoin: round;
stroke-miterlimit: 4;
}
.g10_14{
fill: none;
stroke: #89BA6E;
stroke-width: 5;
stroke-linecap: butt;
stroke-linejoin: miter;
stroke-miterlimit: 4;
}

.s7_14{
font-size: 21.39px;
font-family: PixelSplitter-Bold_1bs;
fill: #11151D;
}
.s12_14{
font-size: 9.56px;
font-family: Helvetica-Bold_1bu;
fill: #11151D;
}
.s19_14{
font-size: 12.22px;
font-family: PixelSplitter-Bold_1bs;
fill: #11151D;
}
.s18_14{
font-size: 7.46px;
font-family: Helvetica-Light_1by;
fill: #11151D;
}
.s9_14{
font-size: 16.17px;
font-family: Times-Bold_1cj;
fill: #11151D;
}
.s3_14{
font-size: 78.67px;
font-family: PixelSplitter-Bold_1bs;
fill: #11151D;
}
.s17_14{
font-size: 7.46px;
font-family: Times-Bold_1cj;
fill: #11151D;
}
.s1_14{
font-size: 30.56px;
font-family: PixelSplitter-Bold_1bs;
fill: #11151D;
}
.s10_14{
font-size: 7.17px;
font-family: Helvetica_1dx;
fill: #11151D;
}
.s15_14{
font-size: 7.46px;
font-family: Times-Roman_1cf;
fill: #11151D;
}
.s8_14{
font-size: 15.54px;
font-family: Helvetica-Bold_1bu;
fill: #11151D;
}
.s14_14{
font-size: 7.17px;
font-family: Helvetica-Light_1by;
fill: #11151D;
}
.s11_14{
font-size: 7.17px;
font-family: Helvetica_1e3;
fill: #11151D;
}
.s13_14{
font-size: 7.17px;
font-family: Helvetica-Bold_1bu;
fill: #11151D;
}
.s6_14{
font-size: 15.28px;
font-family: Helvetica-Bold_1bu;
fill: #11151D;
}
.s4_14{
font-size: 15.28px;
font-family: Helvetica-Light_1by;
fill: #11151D;
}
.s5_14{
font-size: 15.28px;
font-family: AndaleMono_1cn;
fill: #11151D;
}
.s16_14{
font-size: 9.95px;
font-family: Times-Bold_1cj;
fill: #11151D;
}
.s2_14{
font-size: 134.44px;
font-family: PixelSplitter-Bold_cq;
fill: #FFFFFF;
}

]]></style>

</defs>
<path d="M0,0
L0,1061
L1645,1061
L1645,0 Z " 
fill="#FFFFFF" stroke="none" />
<image x="-33" y="-32" width="1713" height="1115" xlink:href="14/img/1.png" />
<image x="-13" y="-11" width="1674" height="1073" opacity="0.5" xlink:href="14/img/2.png" />
<path d="M47,899l0,5l-5,0l0,88l5,0l0,4l92,0l0,-97Z" class="g1_14" />
<image x="48" y="904" width="88" height="89" xlink:href="14/img/3.png" />
<path d="M541,179l0,4l-4,0l0,80l4,0l0,4l233,0l0,-4l4,0l0,-80l-4,0l0,-4Z" class="g2_14" />
<path d="M541,278l0,5l-4,0l0,79l4,0l0,4l233,0l0,-4l5,0l0,-79l-5,0l0,-5Z" class="g2_14" />
<path d="M871,232l0,4l-4,0l0,294l4,0l0,5l282,0l0,-5l4,0l0,-294l-4,0l0,-4Z" class="g2_14" />
<path d="M1177,55l0,2l0,2l-2,0l-2,0l0,469l2,0l2,0l0,2l0,2l418,0l0,-2l0,-2l3,0l2,0l0,-469l-2,0l-3,0l0,-2l0,-2Z" class="g3_14" />
<path d="M1177.5,55.5l0,2l0,2l-2,0l-2,0l0,469l2,0l2,0l0,2l0,2l418,0l0,-2l0,-2l3,0l2,0l0,-469l-2,0l-3,0l0,-2l0,-2l-418,0Z" class="g4_14" />
<path d="M1175,53l0,4l-4,0l0,33l431,0l0,-33l-4,0l0,-4Z" class="g5_14" />
<path d="M1191.5,69.5c1.7,0,3.2,-1.5,3.2,-3.2c0,-1.8,-1.5,-3.3,-3.2,-3.3c-1.8,0,-3.2,1.5,-3.2,3.3c0,1.7,1.4,3.2,3.2,3.2Z" class="g6_14" />
<path d="M1204,69.5c1.7,0,3.2,-1.5,3.2,-3.2c0,-1.8,-1.5,-3.3,-3.2,-3.3c-1.8,0,-3.3,1.5,-3.3,3.3c0,1.7,1.5,3.2,3.3,3.2Z" class="g6_14" />
<path d="M1216.5,69.5c1.7,0,3.2,-1.5,3.2,-3.2c0,-1.8,-1.5,-3.3,-3.2,-3.3c-1.8,0,-3.3,1.5,-3.3,3.3c0,1.7,1.5,3.2,3.3,3.2Z" class="g6_14" />
<path d="M1188.5,75.7c0,0,-2.2,0,-2.2,2.1l0,4.9c0,0,0,2.2,2.2,2.2l383.1,0c0,0,2.2,0,2.2,-2.2l0,-4.9c0,0,0,-2.1,-2.2,-2.1Z" class="g6_14" />
<path d="M1271.8,76.8l-2.9,3.5l2.9,3.4" class="g7_14" />
<path d="M1594.4,76.2l0,4.1c-0.5,-0.1,-1.1,-0.2,-1.6,-0.3c-0.7,-0.2,-1.4,-0.3,-2.1,-0.4c-0.2,0,-0.3,-0.1,-0.4,-0.1c0.5,-0.4,0.9,-0.8,1.4,-1.1c0,-0.1,0,-0.1,0,-0.1c-0.7,-0.4,-1.4,-0.5,-2.2,-0.4c-0.7,0.2,-1.3,0.6,-1.7,1.2c-0.4,0.7,-0.5,1.3,-0.4,2.1c0.1,0.7,0.4,1.2,1,1.7c0.7,0.6,1.5,0.7,2.3,0.6c0.9,-0.2,1.6,-0.8,2,-1.6l0,-0.1c0.5,0.2,1.1,0.3,1.6,0.4c-0.3,0.9,-0.9,1.6,-1.6,2.1c-0.7,0.5,-1.5,0.8,-2.4,0.8l-0.1,0l-0.2,0l-0.1,0c-0.3,0,-0.6,-0.1,-0.9,-0.1c-0.8,-0.3,-1.6,-0.7,-2.2,-1.4c-0.6,-0.7,-0.9,-1.5,-1,-2.4c0,-0.1,-0.1,-0.2,-0.1,-0.4l0,-0.2c0,-0.1,0,-0.1,0,-0.1c0.1,-0.2,0.1,-0.4,0.1,-0.5c0.2,-0.9,0.5,-1.7,1.1,-2.3c0.7,-0.7,1.5,-1.2,2.5,-1.3c0.5,-0.1,1,-0.1,1.5,0c0.8,0.1,1.4,0.4,2,0.9c0.1,0,0.1,0,0.1,0c0.3,-0.2,0.6,-0.5,0.9,-0.7c0.2,-0.1,0.4,-0.3,0.5,-0.4Z" class="g6_14" />
<path d="M1594.4,76.2l0,4.1c-0.5,-0.1,-1.1,-0.2,-1.6,-0.3c-0.7,-0.2,-1.4,-0.3,-2.1,-0.4c-0.2,0,-0.3,-0.1,-0.4,-0.1c0.5,-0.4,0.9,-0.8,1.4,-1.1c0,-0.1,0,-0.1,0,-0.1c-0.7,-0.4,-1.4,-0.5,-2.2,-0.4c-0.7,0.2,-1.3,0.6,-1.7,1.2c-0.4,0.7,-0.5,1.3,-0.4,2.1c0.1,0.7,0.4,1.2,1,1.7c0.7,0.6,1.5,0.7,2.3,0.6c0.9,-0.2,1.6,-0.8,2,-1.6l0,-0.1c0.5,0.2,1.1,0.3,1.6,0.4c-0.3,0.9,-0.9,1.6,-1.6,2.1c-0.7,0.5,-1.5,0.8,-2.4,0.8l-0.1,0l-0.2,0l-0.1,0c-0.3,0,-0.6,-0.1,-0.9,-0.1c-0.8,-0.3,-1.6,-0.7,-2.2,-1.4c-0.6,-0.7,-0.9,-1.5,-1,-2.4c0,-0.1,-0.1,-0.2,-0.1,-0.4l0,-0.2c0,-0.1,0,-0.1,0,-0.1c0.1,-0.2,0.1,-0.4,0.1,-0.5c0.2,-0.9,0.5,-1.7,1.1,-2.3c0.7,-0.7,1.5,-1.2,2.5,-1.3c0.5,-0.1,1,-0.1,1.5,0c0.8,0.1,1.4,0.4,2,0.9c0.1,0,0.1,0,0.1,0c0.3,-0.2,0.6,-0.5,0.9,-0.7c0.2,-0.1,0.4,-0.3,0.5,-0.4Z" class="g8_14" />
<path d="M1585,63l9,0" class="g9_14" />
<path d="M1585,65l9,0" class="g9_14" />
<path d="M1585,68l9,0" class="g9_14" />
<path d="M1182.2,76.8l-2.9,3.5l2.9,3.4" class="g7_14" />
<path d="M141,945l0,49l631,0l0,-2l0,-3l2,0l2,0l0,-40l-2,0l-2,0l0,-2l0,-2Z" class="g6_14" />
<path d="M141.5,945.5l0,49l631,0l0,-2l0,-3l2,0l2,0l0,-40l-2,0l-2,0l0,-2l0,-2l-631,0Z" class="g10_14" />
<path d="M139,899l0,44l171,0l0,-39l-4,0l0,-5Z" class="g1_14" />
<image x="863" y="650" width="742" height="161" xlink:href="14/shade/1.png" />
<path d="M49,382l0,2l0,2l-2,0l-2,0l0,489l2,0l2,0l0,3l0,2l336,0l0,-2l0,-3l3,0l2,0l0,-489l-2,0l-3,0l0,-2l0,-2Z" class="g6_14" />
<path d="M49.5,382.5l0,2l0,2l-2,0l-2,0l0,489l2,0l2,0l0,3l0,2l336,0l0,-2l0,-3l3,0l2,0l0,-489l-2,0l-3,0l0,-2l0,-2l-336,0Z" class="g4_14" />
<path d="M47,379l0,5l-5,0l0,33l350,0l0,-33l-4,0l0,-5Z" class="g5_14" />
<path d="M61.2,396.1c1.7,0,3.2,-1.5,3.2,-3.2c0,-1.8,-1.5,-3.2,-3.2,-3.2c-1.8,0,-3.2,1.4,-3.2,3.2c0,1.7,1.4,3.2,3.2,3.2Z" class="g6_14" />
<path d="M73.7,396.1c1.7,0,3.2,-1.5,3.2,-3.2c0,-1.8,-1.5,-3.2,-3.2,-3.2c-1.8,0,-3.2,1.4,-3.2,3.2c0,1.7,1.4,3.2,3.2,3.2Z" class="g6_14" />
<path d="M86.2,396.1c1.7,0,3.2,-1.5,3.2,-3.2c0,-1.8,-1.5,-3.2,-3.2,-3.2c-1.8,0,-3.2,1.4,-3.2,3.2c0,1.7,1.4,3.2,3.2,3.2Z" class="g6_14" />
<path d="M58.2,402.3c0,0,-2.2,0,-2.2,2.2l0,4.8c0,0,0,2.2,2.2,2.2l304.3,0c0,0,2.1,0,2.1,-2.2l0,-4.8c0,0,0,-2.2,-2.1,-2.2Z" class="g6_14" />
<path d="M61.8,403.4l-2.9,3.5l2.9,3.4" class="g7_14" />
<path d="M384.4,402.8l0,4.1c-0.5,-0.1,-1.1,-0.2,-1.6,-0.3c-0.7,-0.1,-1.4,-0.3,-2.1,-0.4c-0.2,0,-0.3,-0.1,-0.4,-0.1c0.5,-0.4,0.9,-0.8,1.4,-1.1c0,-0.1,0,-0.1,0,-0.1c-0.7,-0.4,-1.4,-0.5,-2.2,-0.3c-0.7,0.1,-1.3,0.5,-1.7,1.1c-0.4,0.7,-0.5,1.3,-0.4,2.1c0.1,0.7,0.4,1.3,1,1.7c0.7,0.6,1.5,0.8,2.3,0.6c0.9,-0.2,1.6,-0.7,2,-1.6l0,-0.1c0.5,0.2,1.1,0.3,1.6,0.4l0,0.1c-0.3,0.8,-0.9,1.5,-1.6,2c-0.7,0.5,-1.5,0.8,-2.4,0.8l-0.1,0l-0.2,0l-0.1,0c-0.3,0,-0.6,-0.1,-0.9,-0.1c-0.8,-0.3,-1.6,-0.7,-2.2,-1.4c-0.6,-0.7,-0.9,-1.5,-1,-2.4c0,-0.1,-0.1,-0.2,-0.1,-0.3l0,-0.3c0,0,0,-0.1,0,-0.1c0.1,-0.2,0.1,-0.4,0.1,-0.5c0.2,-0.9,0.5,-1.7,1.1,-2.3c0.7,-0.7,1.5,-1.1,2.5,-1.3c0.5,-0.1,1,-0.1,1.5,0c0.8,0.1,1.4,0.4,2,0.9c0.1,0,0.1,0,0.1,0c0.3,-0.2,0.6,-0.4,0.9,-0.7c0.2,-0.1,0.4,-0.3,0.5,-0.4Z" class="g6_14" />
<path d="M384.4,402.8l0,4.1c-0.5,-0.1,-1.1,-0.2,-1.6,-0.3c-0.7,-0.1,-1.4,-0.3,-2.1,-0.4c-0.2,0,-0.3,-0.1,-0.4,-0.1c0.5,-0.4,0.9,-0.8,1.4,-1.1c0,-0.1,0,-0.1,0,-0.1c-0.7,-0.4,-1.4,-0.5,-2.2,-0.3c-0.7,0.1,-1.3,0.5,-1.7,1.1c-0.4,0.7,-0.5,1.3,-0.4,2.1c0.1,0.7,0.4,1.3,1,1.7c0.7,0.6,1.5,0.8,2.3,0.6c0.9,-0.2,1.6,-0.7,2,-1.6l0,-0.1c0.5,0.2,1.1,0.3,1.6,0.4l0,0.1c-0.3,0.8,-0.9,1.5,-1.6,2c-0.7,0.5,-1.5,0.8,-2.4,0.8l-0.1,0l-0.2,0l-0.1,0c-0.3,0,-0.6,-0.1,-0.9,-0.1c-0.8,-0.3,-1.6,-0.7,-2.2,-1.4c-0.6,-0.7,-0.9,-1.5,-1,-2.4c0,-0.1,-0.1,-0.2,-0.1,-0.3l0,-0.3c0,0,0,-0.1,0,-0.1c0.1,-0.2,0.1,-0.4,0.1,-0.5c0.2,-0.9,0.5,-1.7,1.1,-2.3c0.7,-0.7,1.5,-1.1,2.5,-1.3c0.5,-0.1,1,-0.1,1.5,0c0.8,0.1,1.4,0.4,2,0.9c0.1,0,0.1,0,0.1,0c0.3,-0.2,0.6,-0.4,0.9,-0.7c0.2,-0.1,0.4,-0.3,0.5,-0.4Z" class="g8_14" />
<path d="M375,390l9,0" class="g9_14" />
<path d="M375,392l9,0" class="g9_14" />
<path d="M375,394l9,0" class="g9_14" />
<path d="M52,403.4l-3,3.5l3,3.4" class="g7_14" />
<path d="M436,382l0,2l0,2l-2,0l-2,0l0,489l2,0l2,0l0,3l0,2l336,0l0,-2l0,-3l2,0l3,0l0,-489l-3,0l-2,0l0,-2l0,-2Z" class="g6_14" />
<path d="M436.5,382.5l0,2l0,2l-2,0l-2,0l0,489l2,0l2,0l0,3l0,2l336,0l0,-2l0,-3l2,0l3,0l0,-489l-3,0l-2,0l0,-2l0,-2l-336,0Z" class="g4_14" />
<path d="M434,379l0,5l-5,0l0,33l350,0l0,-33l-5,0l0,-5Z" class="g5_14" />
<path d="M448.1,396.1c1.8,0,3.2,-1.5,3.2,-3.2c0,-1.8,-1.4,-3.2,-3.2,-3.2c-1.8,0,-3.2,1.4,-3.2,3.2c0,1.7,1.4,3.2,3.2,3.2Z" class="g6_14" />
<path d="M460.6,396.1c1.8,0,3.2,-1.5,3.2,-3.2c0,-1.8,-1.4,-3.2,-3.2,-3.2c-1.8,0,-3.2,1.4,-3.2,3.2c0,1.7,1.4,3.2,3.2,3.2Z" class="g6_14" />
<path d="M473.1,396.1c1.8,0,3.2,-1.5,3.2,-3.2c0,-1.8,-1.4,-3.2,-3.2,-3.2c-1.8,0,-3.2,1.4,-3.2,3.2c0,1.7,1.4,3.2,3.2,3.2Z" class="g6_14" />
<path d="M445.1,402.3c0,0,-2.2,0,-2.2,2.2l0,4.8c0,0,0,2.2,2.2,2.2l304.3,0c0,0,2.2,0,2.2,-2.2l0,-4.8c0,0,0,-2.2,-2.2,-2.2Z" class="g6_14" />
<path d="M448.8,403.4l-3,3.5l3,3.4" class="g7_14" />
<path d="M771.4,402.8l0,4.1l-0.1,0c-0.5,-0.1,-1,-0.2,-1.5,-0.3c-0.8,-0.1,-1.5,-0.3,-2.2,-0.4c-0.1,0,-0.2,-0.1,-0.4,-0.1c0.5,-0.4,1,-0.8,1.4,-1.1c0,-0.1,0,-0.1,0,-0.1c-0.6,-0.4,-1.4,-0.5,-2.1,-0.3c-0.8,0.1,-1.3,0.5,-1.7,1.1c-0.4,0.7,-0.6,1.3,-0.5,2.1c0.1,0.7,0.5,1.3,1,1.7c0.7,0.6,1.5,0.8,2.4,0.6c0.9,-0.2,1.5,-0.7,1.9,-1.6c0,0,0.1,0,0.1,-0.1c0.5,0.2,1,0.3,1.5,0.4l0,0.1c-0.3,0.8,-0.8,1.5,-1.6,2c-0.7,0.5,-1.5,0.8,-2.3,0.8c-0.1,0,-0.1,0,-0.1,0l-0.2,0c-0.1,0,-0.1,0,-0.1,0c-0.3,0,-0.6,-0.1,-0.9,-0.1c-0.9,-0.3,-1.6,-0.7,-2.2,-1.4c-0.6,-0.7,-1,-1.5,-1.1,-2.4c0,-0.1,0,-0.2,0,-0.3l0,-0.3c0,0,0,-0.1,0,-0.1c0,-0.2,0,-0.4,0.1,-0.5c0.1,-0.9,0.5,-1.7,1.1,-2.3c0.6,-0.7,1.5,-1.1,2.4,-1.3c0.5,-0.1,1.1,-0.1,1.6,0c0.7,0.1,1.4,0.4,2,0.9l0.1,0c0.3,-0.2,0.5,-0.4,0.8,-0.7c0.2,-0.1,0.4,-0.3,0.6,-0.4Z" class="g6_14" />
<path d="M771.4,402.8l0,4.1l-0.1,0c-0.5,-0.1,-1,-0.2,-1.5,-0.3c-0.8,-0.1,-1.5,-0.3,-2.2,-0.4c-0.1,0,-0.2,-0.1,-0.4,-0.1c0.5,-0.4,1,-0.8,1.4,-1.1c0,-0.1,0,-0.1,0,-0.1c-0.6,-0.4,-1.4,-0.5,-2.1,-0.3c-0.8,0.1,-1.3,0.5,-1.7,1.1c-0.4,0.7,-0.6,1.3,-0.5,2.1c0.1,0.7,0.5,1.3,1,1.7c0.7,0.6,1.5,0.8,2.4,0.6c0.9,-0.2,1.5,-0.7,1.9,-1.6c0,0,0.1,0,0.1,-0.1c0.5,0.2,1,0.3,1.5,0.4l0,0.1c-0.3,0.8,-0.8,1.5,-1.6,2c-0.7,0.5,-1.5,0.8,-2.3,0.8c-0.1,0,-0.1,0,-0.1,0l-0.2,0c-0.1,0,-0.1,0,-0.1,0c-0.3,0,-0.6,-0.1,-0.9,-0.1c-0.9,-0.3,-1.6,-0.7,-2.2,-1.4c-0.6,-0.7,-1,-1.5,-1.1,-2.4c0,-0.1,0,-0.2,0,-0.3l0,-0.3c0,0,0,-0.1,0,-0.1c0,-0.2,0,-0.4,0.1,-0.5c0.1,-0.9,0.5,-1.7,1.1,-2.3c0.6,-0.7,1.5,-1.1,2.4,-1.3c0.5,-0.1,1.1,-0.1,1.6,0c0.7,0.1,1.4,0.4,2,0.9l0.1,0c0.3,-0.2,0.5,-0.4,0.8,-0.7c0.2,-0.1,0.4,-0.3,0.6,-0.4Z" class="g8_14" />
<path d="M762,390l9,0" class="g9_14" />
<path d="M762,392l9,0" class="g9_14" />
<path d="M762,394l9,0" class="g9_14" />
<path d="M438.9,403.4l-3,3.5l3,3.4" class="g7_14" />
<image x="852" y="813" width="743" height="237" xlink:href="14/img/4.png" />
<text 
x="58" 
y="86" 
dx="0,-2.4,-2.5,-3.3,0,0,0,0,-3,0,0,-3.2,-2.4,0,0,-3.5,-3.6,-2.8,-4.1,-4.4,-2.7,-2.4,-3.8,-4.5,0" 
class="s1_14"
>What’s in the stylesheet?</text>

<path d="M870,652l0,4l-4,0l0,147l4,0l0,4l728,0l0,-4l4,0l0,-147l-4,0l0,-4Z" class="g11_14" />
<text 
x="880" 
y="783" 
dx="0,-7.9,-8.3,-9.5,-9.5,-12.2,-6.5,4" 
class="s2_14"
>radical!</text>

<text 
x="1182" 
y="620" 
dx="0,-10.5,-11.6,0,0,0,0,-7.7,-11.6" 
class="s3_14"
>let’s get</text>

<text 
transform="matrix(0.98, 0, 0, 1, 56, 118)"
dx="0,0,0,0,-1.1,0,3.3,0,0,0,0,3.3,0,3.3,0,0,0,0,3.3,0,0,3.3,0,0,0,3.3,0,0,0,0,0,0,0,0,0,0,3.3,0,0,0,3.3,0,0,0,3.3,0,0,0,3.3,0,0,3.3,0,0,0,3.3,0,0,0,0,0,0,3.3,0,0,0,3.3,0,0,0,0,3.3,0,0,0,3.3,0,0,3.3,0,0,0,0,3.3,0,0,0,3.3,0,0,0,0,0,3.3,0,0" 
class="s4_14"
>Let’s take a look at the stylesheet and see how we can modify it. Open one of your web pages in </text>

<text 
transform="matrix(0.98, 0, 0, 1, 56, 139)"
dx="0,0,0,0,0,4.6,0,-0.3,0,0,0,0,0,4.6,0,0,0,4.6,0,0,0,0" 
class="s4_14"
>your browser and open </text>

<path d="M242.2,134.1c0,-1.7,-0.4,-2.5,-1.4,-2.5c-0.2,0,-0.5,0.1,-0.8,0.4c-0.3,0.2,-0.6,0.5,-0.8,1c-0.1,-0.5,-0.3,-0.8,-0.5,-1c-0.3,-0.3,-0.5,-0.4,-0.8,-0.4c-0.3,0,-0.6,0.1,-0.9,0.4c-0.3,0.2,-0.6,0.5,-0.8,1l0,-1.2l-1.1,0l0,7.8l1.2,0l0,-5.7c0,0,0.1,-0.2,0.4,-0.7c0.2,-0.4,0.5,-0.6,0.7,-0.6c0.5,0,0.7,0.6,0.7,1.9l0,5.1l1.1,0l0,-5.7c0,0,0.2,-0.2,0.5,-0.7c0.2,-0.4,0.5,-0.6,0.7,-0.6c0.5,0,0.7,0.6,0.7,1.9l0,5.1l1.1,0l0,-5.5Z" class="g12_14" />
<path d="M249.7,131.8l-2.1,6.2l-2.2,-6.2l-1.2,0l2.8,7.7c-0.2,0.8,-0.5,1.3,-0.8,1.6c-0.2,0.4,-0.6,0.5,-1,0.5c-0.3,0,-0.6,0,-1,-0.2l-0.2,1c0.5,0.1,1,0.2,1.4,0.2c0.6,0,1,-0.2,1.4,-0.6c0.4,-0.5,0.9,-1.3,1.3,-2.4l2.9,-7.8l-1.3,0Z" class="g12_14" />
<path d="M258.5,134.5l-4,0l0,1l4,0l0,-1Z" class="g12_14" />
<path d="M267,128.8c-0.9,0,-1.4,0.2,-1.8,0.6c-0.3,0.4,-0.5,1.1,-0.5,2.1l0,0.3l-1.9,0l0,1l1.9,0l0,6.8l1.2,0l0,-6.8l2.6,0l0,-1l-2.6,0l0,-0.2c0,-0.7,0.1,-1.1,0.2,-1.4c0.2,-0.2,0.5,-0.3,0.9,-0.3c0.4,0,0.9,0,1.4,0.2l0.3,-0.9c-0.6,-0.3,-1.2,-0.4,-1.7,-0.4Z" class="g12_14" />
<path d="M274.7,129.1c-0.2,0.1,-0.3,0.3,-0.3,0.5c0,0.3,0.1,0.4,0.3,0.6c0.1,0.2,0.3,0.2,0.5,0.2c0.2,0,0.4,0,0.5,-0.2c0.2,-0.1,0.3,-0.3,0.3,-0.6c0,-0.2,-0.1,-0.4,-0.3,-0.5c-0.1,-0.2,-0.3,-0.3,-0.5,-0.3c-0.2,0,-0.4,0.1,-0.5,0.3Zm1,2.7l-3.3,0l0,1l2.2,0l0,6.8l1.1,0l0,-7.8Z" class="g12_14" />
<path d="M285.1,131.6c-1,0,-1.8,0.6,-2.4,1.8l0,-1.6l-1.1,0l0,7.8l1.1,0l0,-5.1c0,0,0.2,-0.2,0.4,-0.6c0.3,-0.4,0.6,-0.6,0.9,-0.8c0.3,-0.2,0.7,-0.3,1,-0.3c0.4,0,0.8,0.1,1.3,0.3l0.5,-1.1c-0.6,-0.3,-1.1,-0.4,-1.7,-0.4Z" class="g12_14" />
<path d="M295.1,131.9c-0.7,-0.2,-1.4,-0.3,-2,-0.3c-1,0,-1.7,0.2,-2.3,0.6c-0.6,0.4,-0.9,0.9,-0.9,1.6c0,0.3,0.1,0.6,0.2,0.8c0.1,0.3,0.3,0.5,0.5,0.7c0.3,0.1,0.5,0.3,0.8,0.4c0.3,0.1,0.7,0.2,1.3,0.4c0.8,0.2,1.2,0.4,1.4,0.6c0.2,0.3,0.3,0.5,0.3,0.8c0,0.4,-0.2,0.7,-0.6,0.9c-0.4,0.3,-0.9,0.4,-1.5,0.4c-0.8,0,-1.4,-0.2,-2.1,-0.5l-0.2,1c0.6,0.3,1.4,0.5,2.3,0.5c1,0,1.7,-0.3,2.3,-0.7c0.7,-0.4,1,-1,1,-1.7c0,-0.4,-0.1,-0.8,-0.3,-1c-0.1,-0.3,-0.4,-0.6,-0.7,-0.8c-0.3,-0.2,-0.7,-0.3,-1.2,-0.5l-1.1,-0.3c-0.5,-0.2,-0.8,-0.3,-1,-0.5C291.1,134.2,291,134,291,133.7c0,-0.3,0.2,-0.6,0.6,-0.8c0.3,-0.2,0.8,-0.3,1.5,-0.3c0.5,0,1.1,0.1,1.8,0.3l0.2,-1Z" class="g12_14" />
<path d="M304.5,138.3c-0.6,0.3,-1.2,0.4,-1.8,0.4c-0.4,0,-0.6,-0.1,-0.8,-0.4c-0.2,-0.2,-0.3,-0.6,-0.3,-1.1l0,-4.4l2.5,0l0,-1l-2.5,0l0,-2.1l-1.2,0l0,2.1l-1.4,0l0,1l1.4,0l0,4.7c0,1.5,0.7,2.2,2.1,2.2c0.7,0,1.5,-0.1,2.2,-0.5l-0.2,-0.9Z" class="g12_14" />
<path d="M312.5,134.5l-4,0l0,1l4,0l0,-1Z" class="g12_14" />
<path d="M322.1,131.9c-0.7,-0.2,-1.4,-0.3,-2,-0.3c-1,0,-1.7,0.2,-2.3,0.6c-0.6,0.4,-0.9,0.9,-0.9,1.6c0,0.3,0.1,0.6,0.2,0.8c0.1,0.3,0.3,0.5,0.6,0.7c0.2,0.1,0.5,0.3,0.7,0.4c0.3,0.1,0.8,0.2,1.3,0.4c0.8,0.2,1.2,0.4,1.4,0.6c0.2,0.3,0.3,0.5,0.3,0.8c0,0.4,-0.2,0.7,-0.6,0.9c-0.4,0.3,-0.9,0.4,-1.5,0.4c-0.7,0,-1.4,-0.2,-2.1,-0.5l-0.2,1c0.6,0.3,1.4,0.5,2.3,0.5c1,0,1.8,-0.3,2.4,-0.7c0.6,-0.4,0.9,-1,0.9,-1.7c0,-0.4,-0.1,-0.8,-0.3,-1c-0.1,-0.3,-0.4,-0.6,-0.7,-0.8c-0.3,-0.2,-0.7,-0.3,-1.2,-0.5l-1.1,-0.3c-0.5,-0.2,-0.8,-0.3,-1,-0.5c-0.2,-0.1,-0.2,-0.3,-0.2,-0.6c0,-0.3,0.1,-0.6,0.5,-0.8c0.4,-0.2,0.9,-0.3,1.5,-0.3c0.5,0,1.1,0.1,1.8,0.3l0.2,-1Z" class="g12_14" />
<path d="M331.6,138.3c-0.6,0.3,-1.3,0.4,-1.9,0.4c-0.3,0,-0.6,-0.1,-0.8,-0.4c-0.2,-0.2,-0.3,-0.6,-0.3,-1.1l0,-4.4l2.6,0l0,-1l-2.6,0l0,-2.1l-1.1,0l0,2.1l-1.5,0l0,1l1.5,0l0,4.7c0,1.5,0.6,2.2,2,2.2c0.7,0,1.5,-0.1,2.3,-0.5l-0.2,-0.9Z" class="g12_14" />
<path d="M339.8,131.8l-2.2,6.2l-2.1,-6.2l-1.3,0l2.9,7.7c-0.3,0.8,-0.5,1.3,-0.8,1.6c-0.3,0.4,-0.6,0.5,-1,0.5c-0.3,0,-0.6,0,-1,-0.2l-0.2,1c0.5,0.1,0.9,0.2,1.4,0.2c0.5,0,1,-0.2,1.4,-0.6c0.4,-0.5,0.8,-1.3,1.2,-2.4l2.9,-7.8l-1.2,0Z" class="g12_14" />
<path d="M349.5,138.5l-2,0l0,-9l-3,0l0,1l2,0l0,9l3,0l0,-1Z" class="g12_14" />
<path d="M358.9,135.3c0,-1.1,-0.3,-2,-0.8,-2.7c-0.6,-0.7,-1.4,-1,-2.3,-1c-0.9,0,-1.7,0.4,-2.4,1.1c-0.6,0.7,-0.9,1.7,-0.9,2.9c0,1.3,0.3,2.3,1,3c0.7,0.8,1.6,1.2,2.8,1.2c0.9,0,1.7,-0.2,2.3,-0.5l-0.2,-0.9c-0.7,0.2,-1.4,0.3,-2.1,0.3c-0.7,0,-1.3,-0.2,-1.8,-0.8c-0.6,-0.6,-0.8,-1.3,-0.8,-2.2l5.2,0l0,-0.4Zm-5.1,-0.5c0,-0.7,0.2,-1.2,0.6,-1.6c0.4,-0.4,0.9,-0.6,1.5,-0.6c0.4,0,0.9,0.2,1.2,0.6c0.4,0.4,0.6,1,0.6,1.6l-3.9,0Z" class="g12_14" />
<path d="M367.2,131.9c-0.8,-0.2,-1.5,-0.3,-2.1,-0.3c-0.9,0,-1.7,0.2,-2.3,0.6c-0.5,0.4,-0.8,0.9,-0.8,1.6c0,0.3,0,0.6,0.2,0.8c0.1,0.3,0.3,0.5,0.5,0.7c0.2,0.1,0.5,0.3,0.8,0.4c0.3,0.1,0.7,0.2,1.3,0.4c0.7,0.2,1.2,0.4,1.4,0.6c0.2,0.3,0.3,0.5,0.3,0.8c0,0.4,-0.2,0.7,-0.6,0.9c-0.4,0.3,-0.9,0.4,-1.6,0.4c-0.7,0,-1.4,-0.2,-2,-0.5l-0.3,1c0.7,0.3,1.4,0.5,2.4,0.5c0.9,0,1.7,-0.3,2.3,-0.7c0.6,-0.4,0.9,-1,0.9,-1.7c0,-0.4,-0.1,-0.8,-0.2,-1c-0.2,-0.3,-0.4,-0.6,-0.7,-0.8c-0.4,-0.2,-0.8,-0.3,-1.3,-0.5l-1.1,-0.3c-0.5,-0.2,-0.8,-0.3,-1,-0.5c-0.1,-0.1,-0.2,-0.3,-0.2,-0.6c0,-0.3,0.2,-0.6,0.5,-0.8c0.4,-0.2,0.9,-0.3,1.5,-0.3c0.6,0,1.2,0.1,1.8,0.3l0.3,-1Z" class="g12_14" />
<path d="M376.7,134.2c0,-1.7,-0.7,-2.6,-2.1,-2.6c-0.9,0,-1.8,0.4,-2.6,1.3l0,-3.9l-1.2,0l0,10.6l1.2,0l0,-5.7c0.8,-0.9,1.5,-1.3,2.2,-1.3c0.5,0,0.8,0.2,1.1,0.5c0.2,0.3,0.3,0.8,0.3,1.5l0,5l1.1,0l0,-5.4Z" class="g12_14" />
<path d="M386,135.3c0,-1.1,-0.3,-2,-0.9,-2.7c-0.6,-0.7,-1.4,-1,-2.2,-1c-1,0,-1.8,0.4,-2.4,1.1c-0.7,0.7,-1,1.7,-1,2.9c0,1.3,0.4,2.3,1.1,3c0.7,0.8,1.6,1.2,2.7,1.2c0.9,0,1.7,-0.2,2.4,-0.5l-0.2,-0.9c-0.8,0.2,-1.5,0.3,-2.2,0.3c-0.7,0,-1.3,-0.2,-1.8,-0.8c-0.5,-0.6,-0.8,-1.3,-0.8,-2.2l5.3,0l0,-0.4Zm-5.2,-0.5c0,-0.7,0.3,-1.2,0.6,-1.6c0.4,-0.4,0.9,-0.6,1.5,-0.6c0.5,0,0.9,0.2,1.3,0.6c0.3,0.4,0.5,1,0.5,1.6l-3.9,0Z" class="g12_14" />
<path d="M395,135.3c0,-1.1,-0.3,-2,-0.9,-2.7c-0.6,-0.7,-1.3,-1,-2.2,-1c-1,0,-1.8,0.4,-2.4,1.1c-0.7,0.7,-1,1.7,-1,2.9c0,1.3,0.4,2.3,1.1,3c0.7,0.8,1.6,1.2,2.7,1.2c0.9,0,1.7,-0.2,2.4,-0.5l-0.2,-0.9c-0.8,0.2,-1.5,0.3,-2.2,0.3c-0.7,0,-1.3,-0.2,-1.8,-0.8c-0.5,-0.6,-0.8,-1.3,-0.8,-2.2l5.3,0l0,-0.4Zm-5.2,-0.5c0,-0.7,0.3,-1.2,0.6,-1.6c0.4,-0.4,0.9,-0.6,1.5,-0.6c0.5,0,0.9,0.2,1.3,0.6c0.3,0.4,0.5,1,0.5,1.6l-3.9,0Z" class="g12_14" />
<path d="M403.6,138.3c-0.6,0.3,-1.2,0.4,-1.8,0.4c-0.4,0,-0.7,-0.1,-0.9,-0.4c-0.2,-0.2,-0.3,-0.6,-0.3,-1.1l0,-4.4l2.6,0l0,-1l-2.6,0l0,-2.1l-1.1,0l0,2.1l-1.5,0l0,1l1.5,0l0,4.7c0,1.5,0.7,2.2,2.1,2.2c0.7,0,1.4,-0.1,2.2,-0.5l-0.2,-0.9Z" class="g12_14" />
<path d="M409.1,138.1c-0.2,0.2,-0.3,0.4,-0.3,0.7c0,0.2,0.1,0.5,0.3,0.7c0.2,0.2,0.4,0.3,0.6,0.3c0.3,0,0.5,-0.1,0.7,-0.3c0.2,-0.2,0.3,-0.5,0.3,-0.7c0,-0.3,-0.1,-0.5,-0.3,-0.7c-0.2,-0.2,-0.4,-0.3,-0.7,-0.3c-0.2,0,-0.4,0.1,-0.6,0.3Z" class="g12_14" />
<path d="M421.5,138.4c-0.7,0.2,-1.3,0.3,-2,0.3c-0.8,0,-1.4,-0.3,-2,-0.8c-0.5,-0.6,-0.7,-1.4,-0.7,-2.2c0,-1,0.2,-1.7,0.7,-2.3c0.5,-0.5,1.2,-0.8,2,-0.8c0.6,0,1.2,0.1,1.9,0.4l0.3,-1c-0.7,-0.3,-1.4,-0.4,-2.2,-0.4c-1.2,0,-2.1,0.4,-2.8,1.1c-0.8,0.8,-1.1,1.7,-1.1,3c0,1.2,0.3,2.2,1.1,2.9c0.7,0.8,1.6,1.2,2.8,1.2c0.8,0,1.6,-0.2,2.2,-0.5l-0.2,-0.9Z" class="g12_14" />
<path d="M430.2,131.9c-0.7,-0.2,-1.4,-0.3,-2,-0.3c-1,0,-1.7,0.2,-2.3,0.6c-0.6,0.4,-0.9,0.9,-0.9,1.6c0,0.3,0.1,0.6,0.2,0.8c0.1,0.3,0.3,0.5,0.5,0.7c0.3,0.1,0.5,0.3,0.8,0.4c0.3,0.1,0.7,0.2,1.3,0.4c0.8,0.2,1.2,0.4,1.4,0.6c0.2,0.3,0.3,0.5,0.3,0.8c0,0.4,-0.2,0.7,-0.6,0.9c-0.4,0.3,-0.9,0.4,-1.5,0.4c-0.8,0,-1.4,-0.2,-2.1,-0.5l-0.2,1c0.6,0.3,1.4,0.5,2.3,0.5c1,0,1.7,-0.3,2.3,-0.7c0.7,-0.4,1,-1,1,-1.7c0,-0.4,-0.1,-0.8,-0.3,-1c-0.1,-0.3,-0.4,-0.6,-0.7,-0.8c-0.3,-0.2,-0.7,-0.3,-1.2,-0.5l-1.1,-0.3c-0.5,-0.2,-0.8,-0.3,-1,-0.5c-0.2,-0.1,-0.3,-0.3,-0.3,-0.6c0,-0.3,0.2,-0.6,0.6,-0.8c0.3,-0.2,0.8,-0.3,1.5,-0.3c0.5,0,1.1,0.1,1.8,0.3l0.2,-1Z" class="g12_14" />
<path d="M439.2,131.9c-0.7,-0.2,-1.4,-0.3,-2,-0.3c-1,0,-1.7,0.2,-2.3,0.6c-0.6,0.4,-0.9,0.9,-0.9,1.6c0,0.3,0.1,0.6,0.2,0.8c0.1,0.3,0.3,0.5,0.5,0.7c0.3,0.1,0.5,0.3,0.8,0.4c0.3,0.1,0.7,0.2,1.3,0.4c0.8,0.2,1.2,0.4,1.4,0.6c0.2,0.3,0.3,0.5,0.3,0.8c0,0.4,-0.2,0.7,-0.6,0.9c-0.4,0.3,-0.9,0.4,-1.5,0.4c-0.8,0,-1.4,-0.2,-2.1,-0.5l-0.2,1c0.6,0.3,1.4,0.5,2.3,0.5c1,0,1.7,-0.3,2.4,-0.7c0.6,-0.4,0.9,-1,0.9,-1.7c0,-0.4,-0.1,-0.8,-0.3,-1c-0.1,-0.3,-0.4,-0.6,-0.7,-0.8c-0.3,-0.2,-0.7,-0.3,-1.2,-0.5l-1.1,-0.3c-0.5,-0.2,-0.8,-0.3,-1,-0.5c-0.2,-0.1,-0.3,-0.3,-0.3,-0.6c0,-0.3,0.2,-0.6,0.6,-0.8c0.3,-0.2,0.8,-0.3,1.5,-0.3c0.5,0,1.1,0.1,1.8,0.3l0.2,-1Z" class="g12_14" />
<text 
transform="matrix(0.98, 0, 0, 1, 234, 139)"
dx="0,0,0,0,0,0,0,0,0,0,0,0,0,0,0,0,0,0,0,0,0,0,0" 
class="s5_14"
>my-first-stylesheet.css</text>

<text 
transform="matrix(0.98, 0, 0, 1, 449, 139)"
dx="0,0,0,0,0,0,0,0,0,0,4.6,0,0,4.6,0,0,4.6,0,0,0,4.6,0,0,0,0,4.6,0,0,0,0,0,-1.4,0,4.6,0,0,4.6,0,0,0,0,4.6,0,0,0" 
class="s4_14"
>alongside it in the code editor, so that you </text>

<text 
transform="matrix(0.98, 0, 0, 1, 56, 160)"
dx="0,0,0,0,6.2,0,0,0,6.2,0,0,0,0,6.2,0,0,0,0,6.2,0,0,0,0,0,0,0,0,0,0,0,0,0" 
class="s4_14"
>can see them both side-by-side. </text>

<text 
x="307" 
y="160" 
dx="0,0,0,0" 
class="s4_14"
>The </text>

<path d="M352,155.5c0,-1.7,-0.5,-2.5,-1.4,-2.5c-0.3,0,-0.6,0.1,-0.9,0.4c-0.3,0.2,-0.6,0.5,-0.8,0.9c-0.1,-0.4,-0.3,-0.7,-0.5,-0.9c-0.3,-0.3,-0.6,-0.4,-0.9,-0.4c-0.3,0,-0.6,0.1,-0.9,0.4c-0.3,0.2,-0.5,0.5,-0.7,0.9l0,-1.1l-1.2,0l0,7.7l1.2,0l0,-5.6c0,0,0.1,-0.2,0.4,-0.7c0.3,-0.4,0.6,-0.6,0.8,-0.6c0.4,0,0.7,0.6,0.7,1.8l0,5.1l1.1,0l0,-5.6c0,0,0.2,-0.2,0.5,-0.7c0.2,-0.4,0.5,-0.6,0.7,-0.6c0.5,0,0.7,0.6,0.7,1.8l0,5.1l1.2,0l0,-5.4Z" class="g13_14" />
<path d="M359.6,153.2l-2.2,6.2l-2.2,-6.2l-1.3,0l3,7.7c-0.3,0.8,-0.6,1.3,-0.8,1.6c-0.3,0.3,-0.7,0.5,-1.1,0.5c-0.3,0,-0.6,-0.1,-1,-0.2l-0.2,1c0.5,0.1,1,0.2,1.4,0.2c0.6,0,1,-0.2,1.5,-0.7c0.4,-0.4,0.8,-1.2,1.2,-2.4l3,-7.7l-1.3,0Z" class="g13_14" />
<path d="M368.5,156.5l-4,0l0,1l4,0l0,-1Z" class="g13_14" />
<path d="M377.2,150.2c-0.9,0,-1.5,0.2,-1.8,0.6c-0.3,0.4,-0.5,1.1,-0.5,2.1l0,0.3l-2,0l0,1l2,0l0,6.7l1.2,0l0,-6.7l2.6,0l0,-1l-2.6,0l0,-0.2c0,-0.7,0,-1.2,0.2,-1.4c0.2,-0.2,0.4,-0.4,0.9,-0.4c0.4,0,0.9,0.1,1.4,0.3l0.3,-1c-0.6,-0.2,-1.2,-0.3,-1.7,-0.3Z" class="g13_14" />
<path d="M385,150.5c-0.2,0.1,-0.2,0.3,-0.2,0.5c0,0.2,0,0.4,0.2,0.6c0.2,0.2,0.3,0.2,0.5,0.2c0.3,0,0.4,0,0.6,-0.2c0.1,-0.1,0.2,-0.3,0.2,-0.6c0,-0.2,-0.1,-0.4,-0.2,-0.5c-0.2,-0.2,-0.3,-0.3,-0.6,-0.3c-0.2,0,-0.3,0.1,-0.5,0.3Zm1.1,2.7l-3.5,0l0,1l2.3,0l0,6.7l1.2,0l0,-7.7Z" class="g13_14" />
<path d="M395.6,153c-1,0,-1.8,0.6,-2.4,1.7l0,-1.5l-1.2,0l0,7.7l1.2,0l0,-5c0,0,0.1,-0.2,0.4,-0.6c0.3,-0.4,0.6,-0.6,0.9,-0.8c0.4,-0.2,0.7,-0.3,1,-0.3c0.4,0,0.8,0.1,1.4,0.3l0.4,-1.1c-0.5,-0.3,-1.1,-0.4,-1.7,-0.4Z" class="g13_14" />
<path d="M405.8,153.3c-0.7,-0.2,-1.4,-0.3,-2.1,-0.3c-0.9,0,-1.7,0.2,-2.3,0.6c-0.6,0.4,-0.9,0.9,-0.9,1.6c0,0.3,0.1,0.6,0.2,0.8c0.1,0.3,0.3,0.5,0.6,0.6c0.2,0.2,0.5,0.4,0.8,0.5c0.2,0,0.7,0.2,1.3,0.4c0.7,0.2,1.2,0.4,1.4,0.6c0.2,0.2,0.3,0.5,0.3,0.7c0,0.4,-0.2,0.8,-0.6,1c-0.4,0.2,-0.9,0.4,-1.6,0.4c-0.7,0,-1.4,-0.2,-2.1,-0.5l-0.2,1c0.6,0.3,1.4,0.4,2.4,0.4c0.9,0,1.7,-0.2,2.3,-0.6c0.7,-0.4,1,-1,1,-1.8c0,-0.3,-0.1,-0.7,-0.3,-1c-0.1,-0.2,-0.4,-0.5,-0.7,-0.7c-0.3,-0.2,-0.7,-0.4,-1.3,-0.5l-1.1,-0.3c-0.5,-0.2,-0.8,-0.3,-1,-0.5c-0.1,-0.2,-0.2,-0.3,-0.2,-0.6c0,-0.3,0.2,-0.6,0.5,-0.8c0.4,-0.2,0.9,-0.3,1.5,-0.3c0.6,0,1.2,0.1,1.9,0.3l0.2,-1Z" class="g13_14" />
<path d="M415.4,159.7c-0.6,0.3,-1.2,0.4,-1.9,0.4c-0.3,0,-0.6,-0.1,-0.8,-0.4c-0.2,-0.2,-0.3,-0.6,-0.3,-1.1l0,-4.4l2.6,0l0,-1l-2.6,0l0,-2.2l-1.2,0l0,2.2l-1.5,0l0,1l1.5,0l0,4.7c0,1.5,0.7,2.2,2.1,2.2c0.8,0,1.5,-0.1,2.3,-0.5l-0.2,-0.9Z" class="g13_14" />
<path d="M423.5,156.5l-4,0l0,1l4,0l0,-1Z" class="g13_14" />
<path d="M433.3,153.3c-0.7,-0.2,-1.4,-0.3,-2.1,-0.3c-0.9,0,-1.7,0.2,-2.3,0.6c-0.6,0.4,-0.9,0.9,-0.9,1.6c0,0.3,0.1,0.6,0.2,0.8c0.1,0.3,0.3,0.5,0.6,0.6c0.2,0.2,0.5,0.4,0.8,0.5c0.2,0,0.7,0.2,1.3,0.4c0.7,0.2,1.2,0.4,1.4,0.6c0.2,0.2,0.3,0.5,0.3,0.7c0,0.4,-0.2,0.8,-0.6,1c-0.4,0.2,-0.9,0.4,-1.6,0.4c-0.7,0,-1.4,-0.2,-2.1,-0.5l-0.2,1c0.6,0.3,1.4,0.4,2.4,0.4c0.9,0,1.7,-0.2,2.3,-0.6c0.7,-0.4,1,-1,1,-1.8c0,-0.3,-0.1,-0.7,-0.3,-1c-0.1,-0.2,-0.4,-0.5,-0.7,-0.7c-0.3,-0.2,-0.7,-0.4,-1.2,-0.5l-1.2,-0.3c-0.5,-0.2,-0.8,-0.3,-1,-0.5c-0.1,-0.2,-0.2,-0.3,-0.2,-0.6c0,-0.3,0.2,-0.6,0.5,-0.8c0.4,-0.2,0.9,-0.3,1.5,-0.3c0.6,0,1.2,0.1,1.9,0.3l0.2,-1Z" class="g13_14" />
<path d="M442.9,159.7c-0.6,0.3,-1.2,0.4,-1.9,0.4c-0.3,0,-0.6,-0.1,-0.8,-0.4c-0.2,-0.2,-0.3,-0.6,-0.3,-1.1l0,-4.4l2.6,0l0,-1l-2.6,0l0,-2.2l-1.2,0l0,2.2l-1.5,0l0,1l1.5,0l0,4.7c0,1.5,0.7,2.2,2.1,2.2c0.8,0,1.5,-0.1,2.3,-0.5l-0.2,-0.9Z" class="g13_14" />
<path d="M451.3,153.2l-2.2,6.2l-2.2,-6.2l-1.3,0l2.9,7.7c-0.2,0.8,-0.5,1.3,-0.8,1.6c-0.2,0.3,-0.6,0.5,-1,0.5c-0.3,0,-0.6,-0.1,-1,-0.2l-0.2,1c0.5,0.1,0.9,0.2,1.4,0.2c0.5,0,1,-0.2,1.4,-0.7c0.5,-0.4,0.9,-1.2,1.3,-2.4l3,-7.7l-1.3,0Z" class="g13_14" />
<path d="M460.5,159.5l-2,0l0,-9l-3,0l0,1l2,0l0,9l3,0l0,-1Z" class="g13_14" />
<path d="M470.8,156.7c0,-1.1,-0.3,-2,-0.9,-2.7c-0.6,-0.7,-1.4,-1,-2.3,-1c-1,0,-1.8,0.4,-2.4,1.1c-0.7,0.7,-1,1.7,-1,2.9c0,1.3,0.4,2.3,1.1,3c0.7,0.8,1.6,1.1,2.8,1.1c0.9,0,1.7,-0.1,2.4,-0.4l-0.2,-0.9c-0.8,0.2,-1.5,0.3,-2.2,0.3c-0.7,0,-1.4,-0.3,-1.9,-0.8c-0.5,-0.6,-0.7,-1.3,-0.7,-2.2l5.3,0l0,-0.4Zm-5.3,-0.6c0.1,-0.6,0.3,-1.1,0.7,-1.5c0.4,-0.4,0.9,-0.6,1.5,-0.6c0.4,0,0.9,0.2,1.2,0.6c0.4,0.4,0.6,0.9,0.6,1.5l-4,0Z" class="g13_14" />
<path d="M479.2,153.3c-0.8,-0.2,-1.5,-0.3,-2.1,-0.3c-1,0,-1.8,0.2,-2.4,0.6c-0.5,0.4,-0.8,0.9,-0.8,1.6c0,0.3,0,0.6,0.2,0.8c0.1,0.3,0.3,0.5,0.5,0.6c0.3,0.2,0.5,0.4,0.8,0.5c0.3,0,0.7,0.2,1.3,0.4c0.8,0.2,1.3,0.4,1.5,0.6c0.2,0.2,0.3,0.5,0.3,0.7c0,0.4,-0.2,0.8,-0.7,1c-0.4,0.2,-0.9,0.4,-1.5,0.4c-0.8,0,-1.5,-0.2,-2.1,-0.5l-0.3,1c0.7,0.3,1.5,0.4,2.4,0.4c1,0,1.8,-0.2,2.4,-0.6c0.6,-0.4,0.9,-1,0.9,-1.8c0,-0.3,-0.1,-0.7,-0.2,-1c-0.2,-0.2,-0.4,-0.5,-0.8,-0.7c-0.3,-0.2,-0.7,-0.4,-1.2,-0.5l-1.1,-0.3c-0.5,-0.2,-0.9,-0.3,-1,-0.5c-0.2,-0.2,-0.3,-0.3,-0.3,-0.6c0,-0.3,0.2,-0.6,0.6,-0.8c0.3,-0.2,0.8,-0.3,1.5,-0.3c0.5,0,1.2,0.1,1.8,0.3l0.3,-1Z" class="g13_14" />
<path d="M488.9,155.6c0,-1.7,-0.7,-2.6,-2.2,-2.6c-0.9,0,-1.8,0.4,-2.6,1.3l0,-3.9l-1.2,0l0,10.5l1.2,0l0,-5.6c0.8,-0.9,1.5,-1.3,2.3,-1.3c0.4,0,0.8,0.1,1,0.5c0.2,0.3,0.3,0.8,0.3,1.5l0,4.9l1.2,0l0,-5.3Z" class="g13_14" />
<path d="M498.3,156.7c0,-1.1,-0.3,-2,-0.9,-2.7c-0.6,-0.7,-1.4,-1,-2.3,-1c-1,0,-1.8,0.4,-2.4,1.1c-0.7,0.7,-1,1.7,-1,2.9c0,1.3,0.4,2.3,1.1,3c0.7,0.8,1.6,1.1,2.8,1.1c0.9,0,1.7,-0.1,2.4,-0.4l-0.2,-0.9c-0.8,0.2,-1.5,0.3,-2.2,0.3c-0.7,0,-1.4,-0.3,-1.9,-0.8C493.2,158.7,493,158,493,157.1l5.3,0l0,-0.4ZM493,156.1c0.1,-0.6,0.3,-1.1,0.7,-1.5c0.4,-0.4,0.9,-0.6,1.5,-0.6c0.5,0,0.9,0.2,1.3,0.6c0.3,0.4,0.5,0.9,0.5,1.5l-4,0Z" class="g13_14" />
<path d="M507.5,156.7c0,-1.1,-0.3,-2,-0.9,-2.7c-0.6,-0.7,-1.4,-1,-2.3,-1c-1,0,-1.8,0.4,-2.4,1.1c-0.7,0.7,-1,1.7,-1,2.9c0,1.3,0.4,2.3,1.1,3c0.7,0.8,1.6,1.1,2.8,1.1c0.9,0,1.7,-0.1,2.4,-0.4L507,159.8c-0.8,0.2,-1.5,0.3,-2.2,0.3c-0.8,0,-1.4,-0.3,-1.9,-0.8c-0.5,-0.6,-0.8,-1.3,-0.8,-2.2l5.4,0l0,-0.4Zm-5.3,-0.6c0,-0.6,0.3,-1.1,0.7,-1.5c0.4,-0.4,0.9,-0.6,1.5,-0.6c0.4,0,0.8,0.2,1.2,0.6c0.4,0.4,0.6,0.9,0.6,1.5l-4,0Z" class="g13_14" />
<path d="M516.3,159.7c-0.7,0.3,-1.3,0.4,-1.9,0.4c-0.4,0,-0.7,-0.1,-0.9,-0.4c-0.2,-0.2,-0.3,-0.6,-0.3,-1.1l0,-4.4l2.7,0l0,-1l-2.7,0l0,-2.2l-1.1,0l0,2.2l-1.5,0l0,1l1.5,0l0,4.7c0,1.5,0.7,2.2,2.1,2.2c0.7,0,1.5,-0.1,2.3,-0.5l-0.2,-0.9Z" class="g13_14" />
<path d="M521.9,159.5c-0.2,0.2,-0.3,0.4,-0.3,0.7c0,0.2,0.1,0.5,0.3,0.7c0.1,0.2,0.3,0.2,0.6,0.2c0.3,0,0.5,0,0.7,-0.2c0.1,-0.2,0.2,-0.5,0.2,-0.7c0,-0.3,-0.1,-0.5,-0.2,-0.7c-0.2,-0.2,-0.4,-0.3,-0.7,-0.3c-0.3,0,-0.5,0.1,-0.6,0.3Z" class="g13_14" />
<path d="M534.5,159.8c-0.7,0.2,-1.4,0.3,-2,0.3c-0.9,0,-1.5,-0.3,-2.1,-0.9c-0.5,-0.5,-0.7,-1.3,-0.7,-2.1c0,-1,0.2,-1.7,0.7,-2.3c0.5,-0.5,1.2,-0.8,2.1,-0.8c0.5,0,1.2,0.1,1.9,0.4l0.3,-1C534,153.1,533.2,153,532.4,153c-1.2,0,-2.1,0.4,-2.9,1.1c-0.7,0.7,-1.1,1.7,-1.1,3c0,1.2,0.4,2.2,1.1,2.9c0.8,0.8,1.7,1.1,3,1.1c0.8,0,1.5,-0.1,2.2,-0.4l-0.2,-0.9Z" class="g13_14" />
<path d="M543.3,153.3c-0.7,-0.2,-1.4,-0.3,-2,-0.3c-1,0,-1.8,0.2,-2.4,0.6c-0.6,0.4,-0.9,0.9,-0.9,1.6c0,0.3,0.1,0.6,0.2,0.8c0.2,0.3,0.3,0.5,0.6,0.6c0.2,0.2,0.5,0.4,0.8,0.5c0.3,0,0.7,0.2,1.3,0.4c0.8,0.2,1.2,0.4,1.4,0.6c0.2,0.2,0.3,0.5,0.3,0.7c0,0.4,-0.2,0.8,-0.6,1c-0.4,0.2,-0.9,0.4,-1.6,0.4c-0.7,0,-1.4,-0.2,-2.1,-0.5l-0.2,1c0.6,0.3,1.4,0.4,2.4,0.4c0.9,0,1.7,-0.2,2.4,-0.6c0.6,-0.4,0.9,-1,0.9,-1.8c0,-0.3,-0.1,-0.7,-0.2,-1c-0.2,-0.2,-0.5,-0.5,-0.8,-0.7c-0.3,-0.2,-0.7,-0.4,-1.2,-0.5l-1.1,-0.3c-0.5,-0.2,-0.9,-0.3,-1.1,-0.5c-0.1,-0.2,-0.2,-0.3,-0.2,-0.6c0,-0.3,0.2,-0.6,0.5,-0.8c0.4,-0.2,0.9,-0.3,1.5,-0.3c0.6,0,1.2,0.1,1.9,0.3l0.2,-1Z" class="g13_14" />
<path d="M552.5,153.3c-0.8,-0.2,-1.4,-0.3,-2.1,-0.3c-0.9,0,-1.7,0.2,-2.3,0.6c-0.6,0.4,-0.9,0.9,-0.9,1.6c0,0.3,0.1,0.6,0.2,0.8c0.1,0.3,0.3,0.5,0.6,0.6c0.2,0.2,0.5,0.4,0.7,0.5c0.3,0,0.8,0.2,1.4,0.4c0.7,0.2,1.2,0.4,1.4,0.6c0.2,0.2,0.3,0.5,0.3,0.7c0,0.4,-0.2,0.8,-0.6,1c-0.4,0.2,-0.9,0.4,-1.6,0.4c-0.7,0,-1.4,-0.2,-2.1,-0.5l-0.2,1c0.6,0.3,1.4,0.4,2.4,0.4c0.9,0,1.7,-0.2,2.3,-0.6c0.7,-0.4,1,-1,1,-1.8c0,-0.3,-0.1,-0.7,-0.3,-1c-0.1,-0.2,-0.4,-0.5,-0.7,-0.7c-0.3,-0.2,-0.7,-0.4,-1.3,-0.5l-1.1,-0.3c-0.5,-0.2,-0.8,-0.3,-1,-0.5c-0.2,-0.2,-0.2,-0.3,-0.2,-0.6c0,-0.3,0.1,-0.6,0.5,-0.8c0.4,-0.2,0.9,-0.3,1.5,-0.3c0.6,0,1.2,0.1,1.9,0.3l0.2,-1Z" class="g13_14" />
<text 
x="343" 
y="160" 
dx="0,0,0,0,0,0,0,0,0,0,0,0,0,0,0,0,0,0,0,0,0,0,0" 
class="s5_14"
>my-first-stylesheet.css</text>

<text 
x="565" 
y="160" 
dx="0,0,0,0,0,6.2,0,0,0,0,0,0,0,0,6.2,0,0,0,0,6.2,0,0,0" 
class="s4_14"
>file contains just one </text>

<text 
x="733" 
y="160" 
dx="0,0,0,0" 
class="s6_14"
>rule</text>

<text 
x="761" 
y="160" 
dx="0,0" 
class="s4_14"
>. </text>

<text 
x="56" 
y="203" 
dx="0,-0.2,-0.2,-0.2,-0.2,4.1,-0.2,-0.2,-0.2,-0.2,4.1,-0.2,-0.2,-0.2,-0.2,-0.2,4.1,-0.2,-0.2,-0.2,4.1,-0.2,-0.4,-0.2,-0.2,-0.2,-0.2,-0.2,4.1,-0.2,-0.2,-0.2,4.1,-0.2,-0.2,4.1,-0.2,-0.2,0.1,-0.2,-0.2,-0.2,4.1,-0.2,-0.2,-0.2,0.1,-0.2,-0.2,-0.2,-0.2,-0.2,-0.2,4.1,-0.2,-0.2,-0.2,-0.2,-0.2,-0.2,4.1,-0.2,-0.2,0" 
class="s4_14"
>This rule tells the browser how to format everything inside the </text>

<path d="M59.1,214.6l-1.2,0l0,10.5l1.2,0l0,-1.1c0.2,0.4,0.5,0.7,1,1c0.4,0.2,0.8,0.3,1.3,0.3c0.9,0,1.6,-0.4,2.2,-1.2c0.5,-0.8,0.8,-1.8,0.8,-3c0,-1.2,-0.3,-2.1,-0.8,-2.9c-0.5,-0.7,-1.2,-1,-2.1,-1c-0.5,0,-0.9,0.1,-1.4,0.3c-0.4,0.2,-0.8,0.5,-1,0.8l0,-3.7Zm2.1,3.6c0.6,0,1.1,0.2,1.4,0.8c0.4,0.6,0.6,1.3,0.6,2.2c0,0.8,-0.2,1.6,-0.6,2.2c-0.4,0.6,-0.9,0.9,-1.5,0.9c-0.4,0,-0.8,-0.2,-1.1,-0.5c-0.4,-0.3,-0.7,-0.6,-0.9,-1.1l0,-3.2c0.5,-0.9,1.2,-1.3,2.1,-1.3Z" class="g13_14" />
<path d="M67.3,218.3c-0.6,0.7,-0.9,1.7,-0.9,2.9c0,1.3,0.3,2.2,0.9,3c0.7,0.7,1.5,1.1,2.6,1.1c1.1,0,1.9,-0.4,2.5,-1.1c0.7,-0.8,1,-1.8,1,-3c0,-1.2,-0.3,-2.2,-1,-2.9c-0.6,-0.8,-1.4,-1.1,-2.5,-1.1c-1.1,0,-1.9,0.3,-2.6,1.1Zm0.9,5.1c-0.4,-0.6,-0.6,-1.3,-0.6,-2.2c0,-0.9,0.2,-1.6,0.6,-2.2c0.4,-0.6,1,-0.8,1.7,-0.8c0.7,0,1.3,0.2,1.7,0.8c0.4,0.6,0.6,1.3,0.6,2.2c0,0.9,-0.2,1.6,-0.6,2.2c-0.4,0.6,-1,0.9,-1.7,0.9c-0.7,0,-1.3,-0.3,-1.7,-0.9Z" class="g13_14" />
<path d="M81.9,214.6l-1.2,0l0,3.7c-0.6,-0.7,-1.4,-1.1,-2.3,-1.1c-0.9,0,-1.6,0.3,-2.2,1.1c-0.5,0.7,-0.8,1.7,-0.8,2.8c0,1.2,0.3,2.2,0.8,3c0.5,0.8,1.2,1.2,2.1,1.2c0.5,0,1,-0.1,1.4,-0.4c0.4,-0.2,0.8,-0.5,1,-0.9l0,1.1l1.2,0l0,-10.5Zm-1.6,8.7c-0.2,0.3,-0.5,0.6,-0.8,0.7c-0.3,0.2,-0.6,0.3,-0.9,0.3c-0.6,0,-1.1,-0.3,-1.4,-0.9c-0.4,-0.6,-0.6,-1.3,-0.6,-2.2c0,-0.9,0.2,-1.6,0.6,-2.2c0.4,-0.6,0.9,-0.8,1.5,-0.8c0.8,0,1.5,0.4,2,1.3l0,3.2c0,0.1,-0.1,0.3,-0.4,0.6Z" class="g13_14" />
<path d="M90,217.3l-2.2,6.2l-2.2,-6.2l-1.2,0l2.9,7.8c-0.3,0.7,-0.6,1.3,-0.8,1.6c-0.3,0.3,-0.7,0.5,-1.1,0.5c-0.3,0,-0.6,-0.1,-1,-0.2l-0.2,0.9c0.5,0.2,1,0.3,1.4,0.3c0.6,0,1.1,-0.2,1.5,-0.7c0.4,-0.4,0.8,-1.2,1.2,-2.4l3,-7.8l-1.3,0Z" class="g13_14" />
<text 
x="56" 
y="225" 
dx="0,-0.2,-0.2,-0.2" 
class="s5_14"
>body</text>

<text 
x="97" 
y="225" 
dx="0,-0.2,-0.2,-0.2,-0.2,-0.2,-0.2,-0.2,1.2,-0.2,-0.2,1.2,-0.2,-0.2,-0.2,1.2,-0.2,-0.2,-0.2,-0.2,1.2,-0.2,-0.2,-0.2,-0.2,-0.2,1.2,-0.2,-0.2,-0.2,-0.2,1.2,-0.2,-0.2,-0.2,-0.2,1.2,-0.2,-0.2,-0.2,-0.2,1.2,-0.2,-0.2,1.2,-0.2,-0.2,-0.2,-0.2,-0.2,-0.2,1.2,-0.2,-0.2,1.2,-0.2,-0.2,-0.2,-0.2,-0.2,-0.2,-0.2,0" 
class="s4_14"
>element of the HTML file. What this rule is saying is ‘display </text>

<text 
x="56" 
y="246" 
dx="0,-0.2,-0.2,-0.2,0.1,-0.2,-0.2,-0.2,-0.2,-0.2,-0.2,-1,-0.2,-0.2,-1,-0.2,-0.2,-0.2,-1,-0.2,-0.2,-0.2,-0.2,-1,-0.2,-0.2,-0.2,-0.2,-0.2,-0.2,-0.2,-1,-0.2,-0.2,-1,-0.2,-1,-0.2,-0.2,-0.2,-0.2,-0.2,-0.2,-0.2,-0.2,-0.2,-0.2,-1,-0.2,-0.2,-0.2,-0.2,-0.2" 
class="s4_14"
>everything in the body element in a sans-serif font’.</text>

<text 
x="56" 
y="310" 
dx="0,0,0,-0.3,0,0,-0.3,0,0,-0.3,0,0,0,0,0,0,-0.3,0,0,0,-0.3,0,0,0,0,-0.3,0,0,-0.3,0,0,0,0,-0.3,0,0,0" 
class="s4_14"
>So if we change the rule so that the </text>

<path d="M303.7,300c-0.8,0,-1.4,0.2,-1.7,0.6c-0.4,0.4,-0.5,1,-0.5,2l0,0.3l-2,0l0,1l2,0l0,6.8l1.1,0l0,-6.8l2.6,0l0,-1l-2.6,0l0,-0.1c0,-0.8,0.1,-1.2,0.3,-1.5c0.1,-0.2,0.4,-0.3,0.8,-0.3c0.5,0,1,0,1.5,0.2l0.3,-0.9c-0.6,-0.2,-1.2,-0.3,-1.8,-0.3Z" class="g13_14" />
<path d="M309,303.8c-0.6,0.8,-0.9,1.7,-0.9,3c0,1.2,0.3,2.2,0.9,2.9c0.7,0.8,1.5,1.2,2.6,1.2c1.1,0,1.9,-0.4,2.5,-1.2c0.7,-0.7,1,-1.7,1,-2.9c0,-1.2,-0.3,-2.2,-1,-3c-0.6,-0.7,-1.4,-1.1,-2.5,-1.1c-1.1,0,-1.9,0.4,-2.6,1.1Zm0.9,5.2c-0.4,-0.6,-0.6,-1.3,-0.6,-2.2c0,-0.9,0.2,-1.7,0.6,-2.2c0.4,-0.6,1,-0.9,1.7,-0.9c0.7,0,1.3,0.3,1.7,0.9c0.4,0.6,0.6,1.3,0.6,2.2c0,0.8,-0.2,1.6,-0.6,2.2c-0.4,0.6,-1,0.9,-1.7,0.9c-0.7,0,-1.3,-0.3,-1.7,-0.9Z" class="g13_14" />
<path d="M323.8,305.3c0,-1.7,-0.8,-2.6,-2.2,-2.6c-0.9,0,-1.8,0.5,-2.7,1.3l0,-1.1l-1.1,0l0,7.8l1.1,0l0,-5.7c0.9,-0.8,1.6,-1.3,2.3,-1.3c0.5,0,0.9,0.2,1.1,0.5c0.2,0.3,0.3,0.8,0.3,1.5l0,5l1.2,0l0,-5.4Z" class="g13_14" />
<path d="M332.8,309.4c-0.6,0.3,-1.2,0.4,-1.9,0.4c-0.3,0,-0.6,-0.1,-0.8,-0.4c-0.2,-0.2,-0.3,-0.6,-0.3,-1.1l0,-4.4l2.6,0l0,-1l-2.6,0l0,-2.1l-1.2,0l0,2.1l-1.5,0l0,1l1.5,0l0,4.8c0,1.4,0.7,2.2,2.1,2.2c0.8,0,1.5,-0.2,2.3,-0.6l-0.2,-0.9Z" class="g13_14" />
<path d="M341.5,305.5l-5,0l0,2l5,0l0,-2Z" class="g13_14" />
<path d="M349.6,300c-0.9,0,-1.5,0.2,-1.8,0.6c-0.3,0.4,-0.5,1,-0.5,2l0,0.3l-2,0l0,1l2,0l0,6.8l1.2,0l0,-6.8l2.6,0l0,-1l-2.6,0l0,-0.1c0,-0.8,0,-1.2,0.2,-1.5c0.2,-0.2,0.4,-0.3,0.9,-0.3c0.4,0,0.9,0,1.4,0.2l0.4,-0.9c-0.7,-0.2,-1.3,-0.3,-1.8,-0.3Z" class="g13_14" />
<path d="M360.4,308.9l0,-3.4c0,-1.9,-0.8,-2.8,-2.6,-2.8c-0.9,0,-1.9,0.3,-3,0.8l0.3,0.9c0.4,-0.2,0.8,-0.4,1.2,-0.5c0.5,-0.1,0.8,-0.2,1.1,-0.2c1.3,0,1.9,0.7,1.9,2l0,0.4l-1.3,0.1c-0.6,0,-1.1,0.1,-1.5,0.2c-0.5,0.2,-0.8,0.3,-1.1,0.5c-0.3,0.2,-0.6,0.5,-0.7,0.8c-0.2,0.2,-0.2,0.6,-0.2,1c0,0.6,0.2,1.1,0.6,1.6c0.5,0.4,1,0.6,1.5,0.6c1.2,0,2.1,-0.5,2.7,-1.5c0,0.5,0.1,1,0.2,1.3l1.1,0c-0.1,-0.6,-0.2,-1.2,-0.2,-1.8Zm-2.2,0.5c-0.4,0.2,-0.8,0.4,-1.2,0.4c-0.4,0,-0.7,-0.2,-1,-0.4c-0.2,-0.2,-0.3,-0.5,-0.3,-0.8c0,-0.4,0.1,-0.7,0.4,-0.9c0.3,-0.2,0.6,-0.4,1,-0.5c0.4,-0.1,1.1,-0.2,2.2,-0.2l0,1.4c-0.3,0.4,-0.7,0.7,-1.1,1Z" class="g13_14" />
<path d="M370.2,305.2c0,-1.7,-0.4,-2.5,-1.4,-2.5c-0.3,0,-0.6,0.1,-0.9,0.4c-0.3,0.2,-0.5,0.6,-0.8,1c-0.1,-0.4,-0.2,-0.8,-0.5,-1c-0.2,-0.3,-0.5,-0.4,-0.8,-0.4c-0.3,0,-0.6,0.1,-0.9,0.4c-0.3,0.2,-0.6,0.6,-0.8,1l0,-1.2l-1.1,0l0,7.8l1.1,0l0,-5.6c0,-0.1,0.2,-0.3,0.5,-0.7c0.2,-0.5,0.5,-0.7,0.7,-0.7c0.5,0,0.7,0.6,0.7,1.9l0,5.1l1.2,0l0,-5.6c0,-0.1,0.1,-0.3,0.4,-0.7c0.3,-0.5,0.5,-0.7,0.8,-0.7c0.4,0,0.7,0.6,0.7,1.9l0,5.1l1.1,0l0,-5.5Z" class="g13_14" />
<path d="M375.7,300.2c-0.1,0.2,-0.2,0.3,-0.2,0.6c0,0.2,0.1,0.4,0.2,0.5c0.2,0.2,0.4,0.3,0.6,0.3c0.2,0,0.4,-0.1,0.5,-0.3c0.2,-0.1,0.3,-0.3,0.3,-0.5c0,-0.3,-0.1,-0.5,-0.3,-0.6C376.7,300,376.5,300,376.3,300c-0.2,0,-0.4,0,-0.6,0.2Zm1.1,2.7l-3.4,0l0,1l2.3,0l0,6.8l1.1,0l0,-7.8Z" class="g13_14" />
<path d="M387.5,309.5l-2,0l0,-9l-3,0l0,1l2,0l0,9l3,0l0,-1Z" class="g13_14" />
<path d="M396.2,302.9l-2.2,6.2l-2.2,-6.2l-1.3,0l2.9,7.8c-0.2,0.7,-0.5,1.2,-0.8,1.5c-0.2,0.4,-0.6,0.5,-1,0.5c-0.3,0,-0.6,0,-1,-0.2l-0.2,1c0.5,0.2,0.9,0.2,1.4,0.2c0.6,0,1,-0.2,1.5,-0.6c0.4,-0.5,0.8,-1.3,1.2,-2.4l3,-7.8l-1.3,0Z" class="g13_14" />
<text 
x="297" 
y="310" 
dx="0,0,0,0,0,0,0,0,0,0,0" 
class="s5_14"
>font-family</text>

<text 
x="402" 
y="310" 
dx="0,0,0,-0.3,0,0,0" 
class="s4_14"
>is now </text>

<path d="M456.5,303c-0.8,-0.2,-1.4,-0.3,-2.1,-0.3c-0.9,0,-1.7,0.2,-2.3,0.6c-0.6,0.4,-0.9,0.9,-0.9,1.6c0,0.3,0.1,0.6,0.2,0.8c0.1,0.3,0.3,0.5,0.6,0.7c0.2,0.2,0.5,0.3,0.7,0.4c0.3,0.1,0.8,0.2,1.4,0.4c0.7,0.2,1.2,0.4,1.4,0.7c0.2,0.2,0.3,0.4,0.3,0.7c0,0.4,-0.2,0.7,-0.6,0.9c-0.4,0.3,-0.9,0.4,-1.6,0.4c-0.7,0,-1.4,-0.2,-2.1,-0.5l-0.2,1c0.6,0.3,1.4,0.5,2.4,0.5c0.9,0,1.7,-0.2,2.3,-0.7c0.7,-0.4,1,-1,1,-1.7c0,-0.4,-0.1,-0.7,-0.3,-1c-0.1,-0.3,-0.4,-0.6,-0.7,-0.8c-0.3,-0.2,-0.7,-0.3,-1.3,-0.5l-1.1,-0.3c-0.5,-0.1,-0.8,-0.3,-1,-0.5c-0.2,-0.1,-0.2,-0.3,-0.2,-0.6c0,-0.3,0.1,-0.6,0.5,-0.8c0.4,-0.2,0.9,-0.3,1.5,-0.3c0.6,0,1.2,0.1,1.9,0.3l0.2,-1Z" class="g13_14" />
<path d="M466.5,306.5c0,-1.2,-0.3,-2.1,-0.9,-2.8c-0.6,-0.7,-1.4,-1,-2.3,-1c-1,0,-1.8,0.4,-2.4,1.1c-0.7,0.7,-1,1.7,-1,3c0,1.2,0.4,2.2,1.1,3c0.7,0.7,1.6,1.1,2.8,1.1c0.9,0,1.7,-0.2,2.4,-0.5L466,309.5c-0.8,0.2,-1.5,0.4,-2.2,0.4c-0.8,0,-1.4,-0.3,-1.9,-0.9c-0.5,-0.6,-0.8,-1.3,-0.8,-2.2l5.4,0l0,-0.3Zm-5.3,-0.6c0.1,-0.7,0.3,-1.2,0.7,-1.6c0.4,-0.4,0.9,-0.6,1.5,-0.6c0.4,0,0.9,0.2,1.2,0.6c0.4,0.5,0.6,1,0.6,1.6l-4,0Z" class="g13_14" />
<path d="M473.8,302.7c-1,0,-1.8,0.6,-2.4,1.8l0,-1.6l-1.2,0l0,7.8l1.2,0l0,-5.1c0,0,0.1,-0.2,0.4,-0.6c0.3,-0.3,0.6,-0.6,0.9,-0.8c0.3,-0.2,0.7,-0.3,1,-0.3c0.4,0,0.8,0.1,1.4,0.3l0.4,-1.1c-0.5,-0.3,-1.1,-0.4,-1.7,-0.4Z" class="g13_14" />
<path d="M481.5,300.2c-0.1,0.2,-0.2,0.3,-0.2,0.6c0,0.2,0.1,0.4,0.2,0.5c0.2,0.2,0.4,0.3,0.6,0.3c0.2,0,0.4,-0.1,0.5,-0.3c0.2,-0.1,0.3,-0.3,0.3,-0.5c0,-0.3,-0.1,-0.5,-0.3,-0.6C482.5,300,482.3,300,482.1,300c-0.2,0,-0.4,0,-0.6,0.2Zm1.1,2.7l-3.4,0l0,1l2.3,0l0,6.8l1.1,0l0,-7.8Z" class="g13_14" />
<path d="M492,300c-0.8,0,-1.4,0.2,-1.7,0.6c-0.4,0.4,-0.5,1,-0.5,2l0,0.3l-2,0l0,1l2,0l0,6.8l1.1,0l0,-6.8l2.6,0l0,-1l-2.6,0l0,-0.1c0,-0.8,0.1,-1.2,0.3,-1.5c0.1,-0.2,0.4,-0.3,0.8,-0.3c0.5,0,1,0,1.5,0.2l0.3,-0.9C493.2,300.1,492.6,300,492,300Z" class="g13_14" />
<text 
x="449" 
y="310" 
dx="0,0,0,0,0" 
class="s5_14"
>serif</text>

<text 
x="499" 
y="310" 
dx="0,0" 
class="s4_14"
>– </text>

<text 
x="56" 
y="332" 
dx="0,0,0,0,-0.9,-0.3,0,0,0,0,0,-0.9,0,0,0,-0.9,0,0,0,-0.9,0,0,0,0,0,-0.9,0,0,-0.9,0,0,0,-0.9,0,0,0,0,-0.9,0,0,-0.9,0,0,0,0,0,0,0,0,-0.9,0,0,0,0,0,-0.9,0,0,-0.3,0,0,-0.3,0,0,0" 
class="s4_14"
>and reload the web page, we see that it suddenly looks different.</text>

<text 
x="877" 
y="75" 
dx="0,0,0,0,-1.1,0" 
class="s4_14"
>Let’s </text>

<text 
x="930" 
y="75" 
dx="0,0,0,0,0,0,0" 
class="s4_14"
>change </text>

<text 
x="1003" 
y="75" 
dx="0,0,0,0" 
class="s4_14"
>the </text>

<text 
x="1046" 
y="75" 
dx="0,0,0,0,0,0,0,0,0,0,0" 
class="s4_14"
>stylesheet </text>

<text 
x="1136" 
y="75" 
dx="0,0" 
class="s4_14"
>a </text>

<text 
x="877" 
y="96" 
dx="0,0,0,0,0,0,0,8,0,0,-0.3,0,0,8,-0.3,0,0,0,0,8,0,0,0,0,0,0,8,0,0,0,8,0,0,0,0" 
class="s4_14"
>little more. We’ll change the body </text>

<text 
x="877" 
y="118" 
dx="0,0,0,0,0,10.3,0,0,0,0,10.3,0,0,10.3,0,0,0,0,0,0,0,0,0,0,10.3,0,0,0,10.3,0,0,0,0,0" 
class="s4_14"
>font back to sans-serif and we’ll </text>

<text 
x="877" 
y="139" 
dx="0,0,0,0,0" 
class="s4_14"
>also </text>

<text 
x="927" 
y="139" 
dx="0,0,0,0,0" 
class="s4_14"
>make </text>

<text 
x="987" 
y="139" 
dx="0,0,0,0" 
class="s4_14"
>the </text>

<text 
x="1031" 
y="139" 
dx="0,0,0,0,0,0,-0.3,0,0,0,0" 
class="s4_14"
>background </text>

<text 
x="1136" 
y="139" 
dx="0,0" 
class="s4_14"
>a </text>

<text 
x="877" 
y="160" 
dx="0,0,0,0,0,0,0" 
class="s4_14"
>purple </text>

<text 
x="941" 
y="160" 
dx="0,0,0,0,0,0,-1.4,0" 
class="s4_14"
>colour. </text>

<text 
x="1005" 
y="160" 
dx="0,0,0" 
class="s4_14"
>So </text>

<text 
x="1043" 
y="160" 
dx="0,0,0,0" 
class="s4_14"
>the </text>

<text 
x="1083" 
y="160" 
dx="0,0,0,0,0,0,0,0" 
class="s4_14"
>changed </text>

<path d="M885.9,176.9c0,-1.7,-0.5,-2.5,-1.4,-2.5c-0.3,0,-0.6,0.1,-0.9,0.3c-0.3,0.3,-0.6,0.6,-0.8,1c-0.1,-0.4,-0.3,-0.7,-0.5,-1c-0.3,-0.2,-0.6,-0.3,-0.9,-0.3c-0.3,0,-0.6,0.1,-0.9,0.3c-0.3,0.3,-0.5,0.6,-0.8,1l0,-1.1l-1.1,0l0,7.7l1.2,0l0,-5.6c0,0,0.1,-0.3,0.4,-0.7c0.3,-0.4,0.5,-0.6,0.8,-0.6c0.4,0,0.7,0.6,0.7,1.8l0,5.1l1.1,0l0,-5.6c0,0,0.2,-0.3,0.4,-0.7c0.3,-0.4,0.6,-0.6,0.8,-0.6c0.5,0,0.7,0.6,0.7,1.8l0,5.1l1.2,0l0,-5.4Z" class="g13_14" />
<path d="M893.5,174.6l-2.2,6.2l-2.2,-6.2l-1.3,0l2.9,7.7c-0.2,0.8,-0.5,1.3,-0.8,1.6c-0.2,0.3,-0.6,0.5,-1,0.5c-0.3,0,-0.6,-0.1,-1,-0.2l-0.2,0.9c0.5,0.2,0.9,0.3,1.4,0.3c0.6,0,1,-0.2,1.5,-0.7c0.4,-0.4,0.8,-1.2,1.2,-2.4l3,-7.7l-1.3,0Z" class="g13_14" />
<path d="M902.5,177.5l-4,0l0,1l4,0l0,-1Z" class="g13_14" />
<path d="M911,171.6c-0.8,0,-1.4,0.2,-1.7,0.6c-0.4,0.4,-0.5,1.1,-0.5,2.1l0,0.3l-2,0l0,1l2,0l0,6.7l1.1,0l0,-6.7l2.7,0l0,-1l-2.7,0l0,-0.2c0,-0.7,0.1,-1.2,0.3,-1.4c0.1,-0.2,0.4,-0.4,0.8,-0.4c0.5,0,1,0.1,1.5,0.3l0.3,-1c-0.6,-0.2,-1.2,-0.3,-1.8,-0.3Z" class="g13_14" />
<path d="M918.9,171.9c-0.2,0.1,-0.3,0.3,-0.3,0.5c0,0.2,0.1,0.4,0.3,0.6c0.1,0.1,0.3,0.2,0.5,0.2c0.2,0,0.4,-0.1,0.6,-0.2c0.1,-0.2,0.2,-0.4,0.2,-0.6c0,-0.2,-0.1,-0.4,-0.2,-0.5c-0.2,-0.2,-0.4,-0.3,-0.6,-0.3c-0.2,0,-0.4,0.1,-0.5,0.3Zm1.1,2.7l-3.5,0l0,1l2.3,0l0,6.7l1.2,0l0,-7.7Z" class="g13_14" />
<path d="M929.5,174.4c-1,0,-1.8,0.6,-2.4,1.7l0,-1.5l-1.2,0l0,7.7l1.2,0l0,-5c0,0,0.1,-0.2,0.4,-0.6c0.3,-0.4,0.6,-0.7,0.9,-0.9c0.3,-0.1,0.7,-0.2,1,-0.2c0.4,0,0.8,0.1,1.3,0.3l0.5,-1.1c-0.5,-0.3,-1.1,-0.4,-1.7,-0.4Z" class="g13_14" />
<path d="M939.7,174.7c-0.8,-0.2,-1.5,-0.3,-2.1,-0.3c-0.9,0,-1.7,0.2,-2.3,0.6c-0.6,0.4,-0.9,0.9,-0.9,1.6c0,0.3,0.1,0.5,0.2,0.8c0.1,0.2,0.3,0.5,0.6,0.6c0.2,0.2,0.5,0.4,0.7,0.4c0.3,0.1,0.8,0.3,1.4,0.5c0.7,0.2,1.2,0.4,1.4,0.6c0.2,0.2,0.3,0.5,0.3,0.7c0,0.4,-0.2,0.8,-0.6,1c-0.4,0.2,-0.9,0.4,-1.6,0.4c-0.7,0,-1.4,-0.2,-2.1,-0.5l-0.2,1c0.6,0.3,1.4,0.4,2.4,0.4c0.9,0,1.7,-0.2,2.3,-0.6c0.6,-0.4,1,-1,1,-1.8c0,-0.3,-0.1,-0.7,-0.3,-1c-0.1,-0.2,-0.4,-0.5,-0.7,-0.7c-0.3,-0.2,-0.8,-0.4,-1.3,-0.5l-1.1,-0.3c-0.5,-0.2,-0.8,-0.3,-1,-0.5c-0.2,-0.2,-0.2,-0.4,-0.2,-0.6c0,-0.3,0.1,-0.6,0.5,-0.8c0.4,-0.2,0.9,-0.3,1.5,-0.3c0.6,0,1.2,0.1,1.8,0.3l0.3,-1Z" class="g13_14" />
<path d="M949.3,181.1c-0.6,0.3,-1.2,0.4,-1.9,0.4c-0.3,0,-0.6,-0.1,-0.8,-0.4c-0.2,-0.2,-0.3,-0.6,-0.3,-1.1l0,-4.4l2.6,0l0,-1l-2.6,0l0,-2.2l-1.2,0l0,2.2l-1.5,0l0,1l1.5,0l0,4.7c0,1.5,0.7,2.2,2.1,2.2c0.8,0,1.5,-0.2,2.3,-0.5l-0.2,-0.9Z" class="g13_14" />
<path d="M957.5,177.5l-4,0l0,1l4,0l0,-1Z" class="g13_14" />
<path d="M967.2,174.7c-0.8,-0.2,-1.4,-0.3,-2.1,-0.3c-0.9,0,-1.7,0.2,-2.3,0.6c-0.6,0.4,-0.9,0.9,-0.9,1.6c0,0.3,0.1,0.5,0.2,0.8c0.1,0.2,0.3,0.5,0.6,0.6c0.2,0.2,0.5,0.4,0.7,0.4c0.3,0.1,0.8,0.3,1.4,0.5c0.7,0.2,1.2,0.4,1.4,0.6c0.2,0.2,0.3,0.5,0.3,0.7c0,0.4,-0.2,0.8,-0.6,1c-0.4,0.2,-0.9,0.4,-1.6,0.4c-0.7,0,-1.4,-0.2,-2.1,-0.5l-0.2,1c0.6,0.3,1.4,0.4,2.4,0.4c0.9,0,1.7,-0.2,2.3,-0.6c0.6,-0.4,1,-1,1,-1.8c0,-0.3,-0.1,-0.7,-0.3,-1c-0.1,-0.2,-0.4,-0.5,-0.7,-0.7c-0.3,-0.2,-0.7,-0.4,-1.3,-0.5l-1.1,-0.3c-0.5,-0.2,-0.8,-0.3,-1,-0.5c-0.2,-0.2,-0.2,-0.4,-0.2,-0.6c0,-0.3,0.1,-0.6,0.5,-0.8c0.4,-0.2,0.9,-0.3,1.5,-0.3c0.6,0,1.2,0.1,1.9,0.3l0.2,-1Z" class="g13_14" />
<path d="M976.8,181.1c-0.6,0.3,-1.2,0.4,-1.9,0.4c-0.3,0,-0.6,-0.1,-0.8,-0.4c-0.2,-0.2,-0.3,-0.6,-0.3,-1.1l0,-4.4l2.6,0l0,-1l-2.6,0l0,-2.2l-1.2,0l0,2.2l-1.5,0l0,1l1.5,0l0,4.7c0,1.5,0.7,2.2,2.1,2.2c0.8,0,1.5,-0.2,2.3,-0.5l-0.2,-0.9Z" class="g13_14" />
<path d="M985.2,174.6l-2.2,6.2l-2.2,-6.2l-1.3,0l2.9,7.7c-0.2,0.8,-0.5,1.3,-0.8,1.6c-0.3,0.3,-0.6,0.5,-1,0.5c-0.3,0,-0.6,-0.1,-1,-0.2l-0.2,0.9c0.4,0.2,0.9,0.3,1.4,0.3c0.5,0,1,-0.2,1.4,-0.7c0.5,-0.4,0.9,-1.2,1.3,-2.4l3,-7.7l-1.3,0Z" class="g13_14" />
<path d="M994.5,181.5l-2,0l0,-10l-3,0l0,1l2,0l0,10l3,0l0,-1Z" class="g13_14" />
<path d="M1004.7,178.1c0,-1.1,-0.3,-2,-0.9,-2.7c-0.6,-0.7,-1.4,-1,-2.3,-1c-1,0,-1.8,0.3,-2.4,1.1c-0.7,0.7,-1,1.7,-1,2.9c0,1.3,0.4,2.3,1.1,3c0.7,0.8,1.6,1.1,2.8,1.1c0.9,0,1.7,-0.1,2.4,-0.4l-0.2,-1c-0.8,0.3,-1.5,0.4,-2.2,0.4c-0.8,0,-1.4,-0.3,-1.9,-0.8c-0.5,-0.6,-0.8,-1.3,-0.8,-2.2l5.4,0l0,-0.4Zm-5.3,-0.6c0.1,-0.6,0.3,-1.1,0.7,-1.5c0.4,-0.4,0.9,-0.6,1.5,-0.6c0.4,0,0.9,0.2,1.2,0.6c0.4,0.4,0.6,0.9,0.6,1.5l-4,0Z" class="g13_14" />
<path d="M1013.1,174.7c-0.8,-0.2,-1.5,-0.3,-2.1,-0.3c-1,0,-1.8,0.2,-2.4,0.6c-0.6,0.4,-0.9,0.9,-0.9,1.6c0,0.3,0.1,0.5,0.2,0.8c0.2,0.2,0.4,0.5,0.6,0.6c0.2,0.2,0.5,0.4,0.8,0.4c0.3,0.1,0.7,0.3,1.3,0.5c0.8,0.2,1.2,0.4,1.4,0.6c0.2,0.2,0.3,0.5,0.3,0.7c0,0.4,-0.2,0.8,-0.6,1c-0.4,0.2,-0.9,0.4,-1.5,0.4c-0.8,0,-1.5,-0.2,-2.1,-0.5l-0.3,1c0.7,0.3,1.4,0.4,2.4,0.4c1,0,1.7,-0.2,2.4,-0.6c0.6,-0.4,0.9,-1,0.9,-1.8c0,-0.3,-0.1,-0.7,-0.2,-1c-0.2,-0.2,-0.4,-0.5,-0.8,-0.7c-0.3,-0.2,-0.7,-0.4,-1.2,-0.5l-1.1,-0.3c-0.5,-0.2,-0.9,-0.3,-1,-0.5c-0.2,-0.2,-0.3,-0.4,-0.3,-0.6c0,-0.3,0.2,-0.6,0.6,-0.8c0.3,-0.2,0.8,-0.3,1.5,-0.3c0.5,0,1.1,0.1,1.8,0.3l0.3,-1Z" class="g13_14" />
<path d="M1022.8,177c0,-1.7,-0.8,-2.6,-2.2,-2.6c-0.9,0,-1.8,0.4,-2.7,1.3l0,-3.9l-1.1,0l0,10.5l1.1,0l0,-5.6c0.9,-0.9,1.6,-1.3,2.3,-1.3c0.5,0,0.9,0.1,1.1,0.4c0.2,0.4,0.3,0.9,0.3,1.6l0,4.9l1.2,0l0,-5.3Z" class="g13_14" />
<path d="M1032.2,178.1c0,-1.1,-0.3,-2,-0.9,-2.7c-0.6,-0.7,-1.4,-1,-2.3,-1c-1,0,-1.8,0.3,-2.4,1.1c-0.7,0.7,-1,1.7,-1,2.9c0,1.3,0.4,2.3,1.1,3c0.7,0.8,1.6,1.1,2.8,1.1c0.9,0,1.7,-0.1,2.4,-0.4l-0.2,-1c-0.8,0.3,-1.5,0.4,-2.2,0.4c-0.8,0,-1.4,-0.3,-1.9,-0.8c-0.5,-0.6,-0.8,-1.3,-0.8,-2.2l5.4,0l0,-0.4Zm-5.3,-0.6c0.1,-0.6,0.3,-1.1,0.7,-1.5c0.4,-0.4,0.9,-0.6,1.5,-0.6c0.4,0,0.9,0.2,1.2,0.6c0.4,0.4,0.6,0.9,0.6,1.5l-4,0Z" class="g13_14" />
<path d="M1041.3,178.1c0,-1.1,-0.3,-2,-0.9,-2.7c-0.6,-0.7,-1.3,-1,-2.2,-1c-1,0,-1.8,0.3,-2.5,1.1c-0.6,0.7,-0.9,1.7,-0.9,2.9c0,1.3,0.3,2.3,1,3c0.8,0.8,1.7,1.1,2.8,1.1c0.9,0,1.8,-0.1,2.4,-0.4l-0.2,-1c-0.7,0.3,-1.4,0.4,-2.2,0.4c-0.7,0,-1.3,-0.3,-1.8,-0.8c-0.5,-0.6,-0.8,-1.3,-0.8,-2.2l5.3,0l0,-0.4Zm-5.2,-0.6c0,-0.6,0.2,-1.1,0.6,-1.5c0.4,-0.4,0.9,-0.6,1.5,-0.6c0.5,0,0.9,0.2,1.3,0.6c0.4,0.4,0.6,0.9,0.6,1.5l-4,0Z" class="g13_14" />
<path d="M1050.2,181.1c-0.7,0.3,-1.3,0.4,-1.9,0.4c-0.4,0,-0.7,-0.1,-0.9,-0.4c-0.2,-0.2,-0.3,-0.6,-0.3,-1.1l0,-4.4l2.6,0l0,-1l-2.6,0l0,-2.2l-1.1,0l0,2.2l-1.5,0l0,1l1.5,0l0,4.7c0,1.5,0.7,2.2,2,2.2c0.8,0,1.6,-0.2,2.4,-0.5l-0.2,-0.9Z" class="g13_14" />
<path d="M1055.7,180.9c-0.1,0.2,-0.2,0.4,-0.2,0.7c0,0.2,0.1,0.5,0.2,0.6c0.2,0.2,0.4,0.3,0.7,0.3c0.2,0,0.5,-0.1,0.6,-0.3c0.2,-0.1,0.3,-0.4,0.3,-0.6c0,-0.3,-0.1,-0.5,-0.2,-0.7c-0.2,-0.2,-0.4,-0.3,-0.7,-0.3c-0.3,0,-0.5,0.1,-0.7,0.3Z" class="g13_14" />
<path d="M1068.4,181.1c-0.7,0.3,-1.4,0.4,-2,0.4c-0.9,0,-1.5,-0.3,-2.1,-0.9c-0.5,-0.6,-0.7,-1.3,-0.7,-2.1c0,-1,0.2,-1.7,0.7,-2.3c0.5,-0.5,1.2,-0.8,2,-0.8c0.6,0,1.2,0.1,1.9,0.3l0.4,-0.9c-0.8,-0.3,-1.5,-0.4,-2.3,-0.4c-1.2,0,-2.1,0.3,-2.9,1.1c-0.7,0.7,-1.1,1.7,-1.1,3c0,1.2,0.4,2.2,1.1,2.9c0.8,0.8,1.7,1.1,3,1.1c0.8,0,1.5,-0.1,2.2,-0.4l-0.2,-1Z" class="g13_14" />
<path d="M1077.2,174.7c-0.7,-0.2,-1.4,-0.3,-2.1,-0.3c-0.9,0,-1.7,0.2,-2.3,0.6c-0.6,0.4,-0.9,0.9,-0.9,1.6c0,0.3,0.1,0.5,0.2,0.8c0.1,0.2,0.3,0.5,0.6,0.6c0.2,0.2,0.5,0.4,0.8,0.4c0.2,0.1,0.7,0.3,1.3,0.5c0.7,0.2,1.2,0.4,1.4,0.6c0.2,0.2,0.3,0.5,0.3,0.7c0,0.4,-0.2,0.8,-0.6,1c-0.4,0.2,-0.9,0.4,-1.6,0.4c-0.7,0,-1.4,-0.2,-2.1,-0.5l-0.2,1c0.6,0.3,1.4,0.4,2.4,0.4c0.9,0,1.7,-0.2,2.3,-0.6c0.7,-0.4,1,-1,1,-1.8c0,-0.3,-0.1,-0.7,-0.3,-1c-0.1,-0.2,-0.4,-0.5,-0.7,-0.7c-0.3,-0.2,-0.7,-0.4,-1.2,-0.5l-1.2,-0.3c-0.5,-0.2,-0.8,-0.3,-1,-0.5c-0.1,-0.2,-0.2,-0.4,-0.2,-0.6c0,-0.3,0.2,-0.6,0.5,-0.8c0.4,-0.2,0.9,-0.3,1.5,-0.3c0.6,0,1.2,0.1,1.9,0.3l0.2,-1Z" class="g13_14" />
<path d="M1086.4,174.7c-0.8,-0.2,-1.5,-0.3,-2.1,-0.3c-1,0,-1.7,0.2,-2.3,0.6c-0.6,0.4,-0.9,0.9,-0.9,1.6c0,0.3,0.1,0.5,0.2,0.8c0.1,0.2,0.3,0.5,0.5,0.6c0.3,0.2,0.5,0.4,0.8,0.4c0.3,0.1,0.8,0.3,1.4,0.5c0.7,0.2,1.2,0.4,1.4,0.6c0.2,0.2,0.3,0.5,0.3,0.7c0,0.4,-0.2,0.8,-0.6,1c-0.4,0.2,-1,0.4,-1.6,0.4c-0.7,0,-1.4,-0.2,-2.1,-0.5l-0.2,1c0.6,0.3,1.4,0.4,2.3,0.4c1,0,1.8,-0.2,2.4,-0.6c0.6,-0.4,0.9,-1,0.9,-1.8c0,-0.3,0,-0.7,-0.2,-1c-0.2,-0.2,-0.4,-0.5,-0.7,-0.7c-0.3,-0.2,-0.8,-0.4,-1.3,-0.5l-1.1,-0.3c-0.5,-0.2,-0.8,-0.3,-1,-0.5c-0.2,-0.2,-0.3,-0.4,-0.3,-0.6c0,-0.3,0.2,-0.6,0.6,-0.8c0.4,-0.2,0.9,-0.3,1.5,-0.3c0.6,0,1.2,0.1,1.8,0.3l0.3,-1Z" class="g13_14" />
<text 
x="877" 
y="182" 
dx="0,0,0,0,0,0,0,0,0,0,0,0,0,0,0,0,0,0,0,0,0,0,0" 
class="s5_14"
>my-first-stylesheet.css</text>

<text 
x="1096" 
y="182" 
dx="0,0,0,0,0,3.5,0,0,0,0" 
class="s4_14"
>file will </text>

<text 
x="877" 
y="203" 
dx="0,0,0,0,0,-0.9,0,0,0,0,-0.9,0,0,0,0" 
class="s4_14"
>look like this </text>

<text 
x="877" 
y="567" 
dx="0,0,0,0,0,2.1,0,0,0,0,0,0,2.1,0,0,0,0,0,2.1,0,0,0,0,0,2.1,0,0,0,0,0,0,0,2.1,0,0,0" 
class="s4_14"
>Just making these small changes has </text>

<text 
x="877" 
y="588" 
dx="0,0,0,-0.3,0,0,0,0,0.4,0,0,0,0,0.4,0,0,0,0.4,0,0,0,0,0.4,0,0,0,0,0.4,0,0.4,0,0,0,0.4,0,0,-0.3,0" 
class="s4_14"
>already made our page look a lot more </text>

<text 
x="877" 
y="610" 
dx="0,0,0,0,0,-0.3,0,0,0,0,0,0,1.2,0,1.2,0,0,0,1.2,0,0,1.2,0,0,0,1.2,0,0,1.2,0,1.2,0,0,0,1.2,0,0,-0.3,0" 
class="s4_14"
>interesting – But we can do a lot more </text>

<text 
x="877" 
y="631" 
dx="0,0,0,0,0,-0.9,0,0,0,0" 
class="s4_14"
>than this.</text>

<text 
x="152" 
y="973" 
dx="0,0,0,-0.9,0,0,0,-0.9,0,0,0,0,-0.9,0,0,0,0,0,0,0,-0.9,0,0,0,-0.9,0,0,0,0,0,0,0,0,0,0,-0.9,0,0,-0.3,0,0,0,0,0,0,0,-0.9,0,0,0,-0.9,0,0,0,-0.9,0,0,0,0,0,0,0,0,-0.9,0,0,-0.9,0,0,0,0,0,0,0,0,0,0,0,0,0,0,0,0,0,0,0,0,0,0,0,0,0,0" 
class="s4_14"
>If you find opening the stylesheet difficult, see the tutorial at http://nano.tips/stylesheet</text>

<text 
x="143" 
y="930" 
dx="0,-1.7,-1.7,-1.9,0,-0.3,-1.7,-1.6,-3.2,-2.1,-1.7" 
class="s7_14"
>more online</text>

<text 
x="550" 
y="203" 
dx="0,0,0,0,0,-1.8" 
class="s5_14"
>body {</text>

<text 
x="550" 
y="225" 
dx="0,0,0,0,0,0,0,0,0,0,0,0,0,-2.4,0,0,0,0,0,0,0,0,0,0" 
class="s5_14"
>font-family: sans-serif;</text>

<text 
x="550" 
y="246" 
dx="0" 
class="s5_14"
>}</text>

<text 
x="550" 
y="299" 
dx="0,0,0,0,0,-1.8" 
class="s5_14"
>body {</text>

<text 
x="550" 
y="321" 
dx="0,0,0,0,0,0,0,0,0,0,0,0,0,-1.8,0,0,0,0,0" 
class="s5_14"
>font-family: serif;</text>

<text 
x="550" 
y="342" 
dx="0" 
class="s5_14"
>}</text>

<text 
x="879" 
y="257" 
dx="0,0,0,0,0,-1.8" 
class="s5_14"
>body {</text>

<text 
x="879" 
y="278" 
dx="0,0,0,0,0,0,0,0,0,0,0,0,0,0,0,0,0,0,-1.8,0,0,0,0,0,0,0" 
class="s5_14"
>background-color: Thistle;</text>

<text 
x="879" 
y="299" 
dx="0,0,0,0,0,0,0,0,0,0,0,0,0,-1.8,0,0,0,0,0,0,0,0,0,0" 
class="s5_14"
>font-family: sans-serif;</text>

<text 
x="879" 
y="321" 
dx="0,0,0,0,0,0,0,0,0,0,0,0,0,-1.8,0,0,0,0" 
class="s5_14"
>margin-left: auto;</text>

<text 
x="879" 
y="342" 
dx="0,0,0,0,0,0,0,0,0,0,0,0,0,0,-1.8,0,0,0,0" 
class="s5_14"
>margin-right: auto;</text>

<text 
x="879" 
y="364" 
dx="0,0,0,0,0,0,0,0,0,0,0,-1.8,0,0,0,0,0,0" 
class="s5_14"
>max-width: 1024px;</text>

<text 
x="879" 
y="385" 
dx="0,0,0,0,0,0,0,0,0,0,0,-1.8,0,0,0,0,0" 
class="s5_14"
>min-width: 256px;</text>

<text 
x="879" 
y="406" 
dx="0,0,0,0,0,0,0,0,0,0,0,0,0,-1.8,0,0,0" 
class="s5_14"
>padding-top: 8px;</text>

<text 
x="879" 
y="428" 
dx="0,0,0,0,0,0,0,0,0,0,0,0,0,0,0,0,-1.8,0,0,0,0" 
class="s5_14"
>padding-bottom: 24px;</text>

<text 
x="879" 
y="449" 
dx="0,0,0,0,0,0,0,0,0,0,0,0,0,0,-1.8,0,0,0,0" 
class="s5_14"
>padding-left: 24px;</text>

<text 
x="879" 
y="471" 
dx="0,0,0,0,0,0,0,0,0,0,0,0,0,0,0,-1.8,0,0,0,0" 
class="s5_14"
>padding-right: 24px;</text>

<text 
x="879" 
y="492" 
dx="0" 
class="s5_14"
>}</text>

<text 
x="62" 
y="442" 
dx="0,0,0,-0.3,0,0,0,0,-0.9,0,-0.9,0,0,0,0,0,0.3" 
class="s8_14"
>Playing a Concert</text>

<text 
x="1193" 
y="116" 
dx="0,0,0,-0.3,0,0,0,0,-0.9,0,-0.9,0,0,0,0,0,0.3" 
class="s8_14"
>Playing a Concert</text>

<text 
x="449" 
y="443" 
dx="0,0,0,0,0,0,0,0,-0.8,0,-0.8,0,0,0,0,0,0" 
class="s9_14"
>Playing a Concert</text>

<text 
x="62" 
y="460" 
dx="0,0,0,0,0,0,0,0,-0.4,0,-0.4,0,0,0,0,0,0,0,-0.4,0,0,0,-0.4,0,0,-0.4,0,0,0,0,0,-0.4,0,0,0,0,-0.4,0,0,-0.4,0,0,-0.4,0,0,0,-0.4,0,0,-0.4,0,0,0,0,0,0,0,-0.4,0,0,0,0,0,0,-0.4,0,0,0,0,0,0,0,0,0,-0.4,0,0,0,0,-0.4,0,0,-0.4,0,0,0,-0.4,0,0,0,0,-0.4,0,0,0,0" 
class="s10_14"
>Playing a concert can be great fun! Or it can be totally scary! Sometimes both at the same time.</text>

<text 
x="62" 
y="479" 
dx="0,0,0,-0.4,0,0,0,0,0,-0.4,0,0,0,-0.4,0,0,0,0,0,0,0,0,-0.4,0,-0.4,0,0,0,0,-0.4,0,0,-0.4,0,0,0,-0.4,0,0,0,-0.4,0,0,0,0,-0.4,0,0,0,-0.4,0,0,0,0,0,-0.4,0,0,0,0,0,0,0,0" 
class="s11_14"
>So we’ve put together a list of our top tips for great concerts.</text>

<text 
x="62" 
y="498" 
dx="0,0,0,-0.1,0,-0.5,0,0,0,-0.5,0,-0.5,0,0,0,0,0,0,0" 
class="s12_14"
>Copy out a set-list</text>

<text 
x="62" 
y="517" 
dx="0,-0.4" 
class="s11_14"
>A </text>

<text 
x="68" 
y="517" 
dx="0,0,0,0,0,0,0,0" 
class="s13_14"
>set-list</text>

<text 
x="92" 
y="517" 
dx="0,0,0,-0.4,0,-0.4,0,0,0,0,-0.4,0,0,-0.4,0,0,0,-0.4,0,0,0,0,-0.4,0,0,0,0,0,-0.4,0,0,-0.4,0,0,0,-0.4,0,0,0,0,0,-0.4,0,0,0,0,0,0,-0.4,0,0,0,0,-0.4,0,0,0,0" 
class="s11_14"
>is a list of all your songs in the order you’ll play them.</text>

<text 
x="62" 
y="537" 
dx="0,0,0,0,0,-0.4,0,0,0,0,0,0,-0.4,0,0,0,-0.4,0,0,0,0,0,0,0,0" 
class="s11_14"
>Make copies for everyone.</text>

<text 
x="62" 
y="556" 
dx="0,0,0,0,0,0,0.3,0,0" 
class="s10_14"
>Print it </text>

<text 
x="85" 
y="556" 
dx="0,0,0,0,0" 
class="s13_14"
>BIG! </text>

<text 
x="102" 
y="556" 
dx="0,0,0,0.3,0,0,0,0,0.3,0,0,0,0.3,0,0,0,0.3,0,0,0,0,0,0.3,0,0,0,0,0.3,0,0,0.3,0,0,0.3,0,0,-0.1,0,0.3,0,0,0,0,0.3,0,0,0.3,0,0,0,0,0.3,0,0,0,0,0.3,0,0,0.3,0,0,0,0.3,0,0,0,0,-0.4,0,0.3,0,0,0.3,0,0,0.3,0,0,0,0.3,0,0,0,0,0,0,0,0,0.3,0,0,0,0,0" 
class="s11_14"
>so that you can still read it if it’s down by your feet on the floor, or if the lighting isn’t </text>

<text 
x="62" 
y="565" 
dx="0,0,0,0,0,-0.4,0,0,0,0" 
class="s11_14"
>very good.</text>

<text 
x="62" 
y="584" 
dx="0,0,0,0,0,0,0,0,0,-0.5,-0.2,0,0,0,-0.5,0,0,0,0,0" 
class="s12_14"
>Remember your spares</text>

<text 
x="62" 
y="603" 
dx="0,0,0,0,0,-0.4,0,0,0,0,0,0,0,0,0,0,0,-0.4,0,0,0,0,-0.4,0,0,0,0,0,-0.4,0,0,0,0,-0.4,0,0,0,0,-0.4,0,0,-0.4,0,0,-0.4,0,0,0,0,0,0,0,0,-0.4,0,0,-0.4,0,0,0,0,-0.4,0,0,0,0,-0.4,0,0,0,-0.4,0,0,-0.4,0,0,0,0,0,0,-0.4,0,0,0,-0.4,0,0,0,0,0,0,0" 
class="s11_14"
>Some instruments have parts that need to be replaced if they wear out or break. For example:</text>

<text 
x="73" 
y="623" 
dx="0" 
class="s14_14"
>•</text>

<text 
x="83" 
y="623" 
dx="0,0,0,0,0,0,0,-0.4,0,0,0,0,0,0" 
class="s10_14"
>guitar strings</text>

<text 
x="73" 
y="632" 
dx="0" 
class="s14_14"
>•</text>

<text 
x="83" 
y="632" 
dx="0,0,0,0,0,0,0,0,0,0,-0.4,0,0,-0.4,0,0,0,0,0,0,0,0,-0.4,0,0,0,0" 
class="s11_14"
>saxophone or clarinet reeds</text>

<text 
x="73" 
y="642" 
dx="0" 
class="s14_14"
>•</text>

<text 
x="83" 
y="642" 
dx="0,0,0,0,0,0,0,0,0,0" 
class="s11_14"
>drumsticks</text>

<text 
x="62" 
y="661" 
dx="0,0,0,0,0,-0.4,0,-0.4,0,0,0,0,-0.4,0,0,-0.4,0,0,0,-0.4,0,0,0,0,0,0,-0.4,0,0,0,-0.4,0,0,0,0,0,-0.4,0,0,0,0,-0.4,0,0,0,-0.4,0,0,0,0,-0.4,0,0,0,0,-0.4,0,0,0,-0.4,0,0,0,0,-0.4,0,0,0,0,0,-0.4,0,0,0,0,-0.4,0,0,0,-0.4,0,0,-0.4,0,0,-0.4,0,0,0,0,0,0,0,0,-0.5" 
class="s11_14"
>Make a list of the spares you might need and make sure you know where they are in an emergency.</text>

<text 
x="62" 
y="680" 
dx="0,0,0,0,0,-0.5,0,0,0,0,0,-0.5,-0.2,0,0,-0.2,0,0,-0.5,0,0,-0.5,0,0,-0.5,0,0,0,-0.5,0,0,-0.1,0.1" 
class="s12_14"
>Plan where you’ll be on the stage</text>

<text 
x="62" 
y="699" 
dx="0,0,0,0,0,0,0,0.5,0,0,0,0.5,0,0,0,0,0,0.5,0,0,0.5,0,0,0,0.5,0,0,0.5,0,0,0,0,0.5,0,0,0,0,0,0,0,0,0,0,0,0,0.5,0,0,0,0,0.5,0,0.5,0,0,0,0.5,0,0,0,0,0,0,0,0.5,0,0,0.5,0,0,0,0,0,0,0.5,0,0,0,0,0,0.5,0,0,0,0,0,0,0.5,0,0,0,0.5,0,0,0,0,0" 
class="s11_14"
>Before you start to set up your instruments, take a few minutes to decide where you’re all going </text>

<text 
x="62" 
y="709" 
dx="0,0,0,-0.4,0,0" 
class="s10_14"
>to be.</text>

<text 
x="73" 
y="728" 
dx="0" 
class="s14_14"
>•</text>

<text 
x="83" 
y="728" 
dx="0,0,0,0,0,-0.4,0,0,0,-0.4,0,0,0,0,0,-0.4,0,0,-0.4,0,0,0,0,0,0,-0.4,0,0,0,0,0,0,-0.4,0,0,-0.4,0,-0.1,0,-0.4,0,0,-0.4,0,0,0,-0.4,0,0,0,0" 
class="s11_14"
>Will the drums be centre stage? Or off to one side?</text>

<text 
x="73" 
y="737" 
dx="0" 
class="s14_14"
>•</text>

<text 
x="83" 
y="737" 
dx="0,0,0,-0.4,0,0,0,0,0,-0.4,0,-0.4,0,0,0,0,0,0,0,0,0,0,0,0,-0.4,0,0,0,-0.4,0,0,0,-0.4,0,0,0,0,0,0,0,0,0,-0.4,0,0,-0.4,0,0,0,0,-0.4,0,0,0,0,0,0,-0.4,0,0,0,0,0,0,-0.4,0,0,0,0,0,0,-0.4,0,0,-0.4,0,0,0,-0.4,0,0,0,0,0" 
class="s11_14"
>Is there a power-socket for the amplifier if your guitar player stands on the right?</text>

<text 
x="62" 
y="756" 
dx="0,0,0,-0.1,0,1.2,0,0,0,0,1.2,0,0,0,0,0,0,1.2,0,0,1.2,0,0,0,0,0,1.2,0,0,0,0,0,1.2,0,0,0,1.2,0,0,0,0" 
class="s11_14"
>It’s much better to think about all this </text>

<text 
x="190" 
y="756" 
dx="0,0,0,-0.1,0,0" 
class="s13_14"
>before</text>

<text 
x="215" 
y="756" 
dx="0,0,0,0,1.2,0,0,0,0,0,1.2,0,0,0,0,0,0,0,1.2,0,0,1.2,0,0,0,0,1.2,0,0,0,0,0,0,0,0,0,0,0,0,1.2,0,0,-0.1,0,1.2,0,0,0,0,0,0" 
class="s11_14"
>you start setting up your instruments. It’s really </text>

<text 
x="62" 
y="766" 
dx="0,0,0,0,0,0,0,0,0,0,0.5,0,0,0.5,0,0,0,0.5,0,0,0,0,0.5,0,0,0.5,0,0,0,0,0,0.5,0,0,0,0,0,0,0,0,0,0,0.5,0,0,0,0,0,0,0.5,0,0,0,0.5,0,0,0,0,0,0,0,0,0.5,0,0,0,0,0,0,0.5,0,0,0,0,0.5,0,0,0,0,0,0,0.5,0,0,0,0,0,0.5,0,0,0.5,0,0,0" 
class="s11_14"
>annnoying if you have to start unplugging things and swapping places once you’ve begun to set </text>

<text 
x="62" 
y="776" 
dx="0,0,0,0,0,0,0,-0.4,0,0" 
class="s11_14"
>things up!</text>

<text 
x="62" 
y="795" 
dx="0,0,0,-0.1,0,-0.5,0,0,0,0,0,-0.5,-0.2,0,0,-0.4,0,0,-0.5,0,0,0,0,0,-0.4,-0.5,0,0,-0.1,0,-0.5,0,0,0,0,-0.5,-0.2,0,0,-0.4,0,0,-0.5,0" 
class="s12_14"
>Know where you’re going, know when you’re on</text>

<text 
x="62" 
y="814" 
dx="0,0,0,0.1,0,0,0,0,0,0,0.1,0,0,0,0,0,0,0,0.1,0,0.1,0,0,0,0,0,0,0,0.1,0,0,0,0,0,0,0,0,0,0.1,0,0,0,0,0,0,0.1,0,0,0,0,0,0.1,0,0,0,0,0.1,0,0,0,0,0,0,0.1,0,0,0,0,0.1,0,0,0,0,0.1,0,0,0,0.1,0,0,0,0,0.1,0,0,0,0,0,0.1,0,0,0.1,0,0,0" 
class="s11_14"
>If you’re playing a concert somewhere you’ve never been before make sure you know where it is. </text>

<text 
x="62" 
y="823" 
dx="0,0,0,0,0,0,0.2,0,0,0,0.2,0,0.2,0,0,0,0.2,0,0,0.2,0,0,0,0.2,0,0,0,0.2,0,0,0,0.2,0,0,0,0.2,0,0,0,0,0,0,0.2,0,0,0,0.2,0,0,0,0.2,0,0,0,0,0.1,0,0,0,0,0,-0.1,0,0.2,0,0,0,0,0,0,0,0.2,0,0,0,0,0,0.2,0,0,0,0,0.2,0,0,0,0,0,0.2,0,0,0,0,0.2,0,0,0.2,0,0" 
class="s11_14"
>Print out a map or set the sat nav before you set out. There’s nothing worse than being lost in an </text>

<text 
x="62" 
y="833" 
dx="0,0,0,0,0,0,0,0,0,0,0,-0.4,0,0,0,0,0,-0.4,0,0,0,0,0,0,0,0,0,0,0,0,-0.4,0,0,0,0,0,0,-0.4,0,0,0,0,0,0,-0.4,0,0,0,-0.4,0,0,-0.4,0,0,-0.4,0,0,0,0,0,0,0,0" 
class="s11_14"
>unfamiliar place half-an-hour before you’re due to go on-stage.</text>

<text 
x="62" 
y="852" 
dx="0,0,0,0,-0.2,0,0,0,0,-0.2,0,0,0,-0.2,0,0,-0.2,0,0,0,0,0,0,0,-0.2,0,0,0,-0.2,0,0,0,0,0,-0.2,0,0,0,0,0,-0.2,0,0,0,-0.2,0,0,0,0,0,0,-0.2,0,0,-0.2,0,0" 
class="s11_14"
>And when you do arrive, the first thing you should do is </text>

<text 
x="235" 
y="852" 
dx="0,0,0,0,0,-0.2,0,0,0,-0.2,0,0,0,0,-0.2,0,0,0,0,-0.2,-0.2,0,0,-0.3,0,0,-0.2,0" 
class="s13_14"
>find out what time you’re on</text>

<text 
x="329" 
y="852" 
dx="0,0,-0.2,0,0,-0.2,0,0,0,-0.2,0,0,0,0,0" 
class="s10_14"
>. On the night </text>

<text 
x="62" 
y="862" 
dx="0,0,0,0,0,0,-0.4,0,0,0,0,0,-0.4,0,0,0,0,0,0,0,-0.8,0,0,0,-0.4,0,0,0,0,0,0,0,-0.4,0,0,-0.4,0,0,0,0,0,0,0,-0.4,0,0,0,-0.4,0,0,0,0,0,-0.4,0,0,0,0,-0.4,0,0,0,0,0,0,-0.4,0,0,-0.4,0,0,0,-0.4,0,0,0,0,0,-0.4,0,0,0,-0.4,0,0,0,0,0,0,-0.4,0,0,0" 
class="s11_14"
>times often change. Ask whoever is running the event when you’ll be on. Don’t get caught out!</text>

<text 
x="1191" 
y="133" 
dx="0,0,0,0,0,0,0,0,-0.4,0,-0.4,0,0,0,0,0,0,0,-0.4,0,0,0,-0.4,0,0,-0.4,0,0,0,0,0,-0.4,0,0,0,0,-0.4,0,0,-0.4,0,0,-0.4,0,0,0,-0.4,0,0,-0.4,0,0,0,0,0,0,0,-0.4,0,0,0,0,0,0,-0.4,0,0,0,0,0,0,0,0,0,-0.4,0,0,0,0,-0.4,0,0,-0.4,0,0,0,-0.4,0,0,0,0,-0.4,0,0,0,0" 
class="s10_14"
>Playing a concert can be great fun! Or it can be totally scary! Sometimes both at the same time.</text>

<text 
x="1191" 
y="153" 
dx="0,0,0,-0.4,0,0,0,0,0,-0.4,0,0,0,-0.4,0,0,0,0,0,0,0,0,-0.4,0,-0.4,0,0,0,0,-0.4,0,0,-0.4,0,0,0,-0.4,0,0,0,-0.4,0,0,0,0,-0.4,0,0,0,-0.4,0,0,0,0,0,-0.4,0,0,0,0,0,0,0,0" 
class="s11_14"
>So we’ve put together a list of our top tips for great concerts.</text>

<text 
x="1191" 
y="172" 
dx="0,0,0,-0.1,0,-0.5,0,0,0,-0.5,0,-0.5,0,0,0,0,0,0,0" 
class="s12_14"
>Copy out a set-list</text>

<text 
x="1191" 
y="191" 
dx="0,-0.4" 
class="s11_14"
>A </text>

<text 
x="1197" 
y="191" 
dx="0,0,0,0,0,0,0,0" 
class="s13_14"
>set-list</text>

<text 
x="1222" 
y="191" 
dx="0,0,0,-0.4,0,-0.4,0,0,0,0,-0.4,0,0,-0.4,0,0,0,-0.4,0,0,0,0,-0.4,0,0,0,0,0,-0.4,0,0,-0.4,0,0,0,-0.4,0,0,0,0,0,-0.4,0,0,0,0,0,0,-0.4,0,0,0,0,-0.4,0,0,0,0" 
class="s11_14"
>is a list of all your songs in the order you’ll play them.</text>

<text 
x="1191" 
y="210" 
dx="0,0,0,0,0,-0.4,0,0,0,0,0,0,-0.4,0,0,0,-0.4,0,0,0,0,0,0,0,0" 
class="s11_14"
>Make copies for everyone.</text>

<text 
x="1191" 
y="229" 
dx="0,0,0,0,0,0,-0.4,0,0" 
class="s10_14"
>Print it </text>

<text 
x="1213" 
y="229" 
dx="0,0,0,0" 
class="s13_14"
>BIG!</text>

<text 
x="1229" 
y="229" 
dx="0,0,0,-0.4,0,0,0,0,-0.4,0,0,0,-0.4,0,0,0,-0.4,0,0,0,0,0,-0.4,0,0,0,0,-0.4,0,0,-0.4,0,0,-0.4,0,0,-0.1,0,-0.4,0,0,0,0,-0.4,0,0,-0.4,0,0,0,0,-0.4,0,0,0,0,-0.4,0,0,-0.4,0,0,0,-0.4,0,0,0,0,-0.4,0,-0.4,0,0,-0.4,0,0,-0.4,0,0,0,-0.4,0,0,0,0,0,0,0,0,-0.4,0,0,0,0,0,-0.4,0,0,0,0,-0.4,0,0,0,0" 
class="s11_14"
>so that you can still read it if it’s down by your feet on the floor, or if the lighting isn’t very good.</text>

<text 
x="1191" 
y="248" 
dx="0,0,0,0,0,0,0,0,0,-0.5,-0.2,0,0,0,-0.5,0,0,0,0,0" 
class="s12_14"
>Remember your spares</text>

<text 
x="1191" 
y="267" 
dx="0,0,0,0,0,-0.4,0,0,0,0,0,0,0,0,0,0,0,-0.4,0,0,0,0,-0.4,0,0,0,0,0,-0.4,0,0,0,0,-0.4,0,0,0,0,-0.4,0,0,-0.4,0,0,-0.4,0,0,0,0,0,0,0,0,-0.4,0,0,-0.4,0,0,0,0,-0.4,0,0,0,0,-0.4,0,0,0,-0.4,0,0,-0.4,0,0,0,0,0,0,-0.4,0,0,0,-0.4,0,0,0,0,0,0,0" 
class="s11_14"
>Some instruments have parts that need to be replaced if they wear out or break. For example:</text>

<text 
x="1203" 
y="286" 
dx="0" 
class="s14_14"
>•</text>

<text 
x="1213" 
y="286" 
dx="0,0,0,0,0,0,0,-0.4,0,0,0,0,0,0" 
class="s10_14"
>guitar strings</text>

<text 
x="1203" 
y="296" 
dx="0" 
class="s14_14"
>•</text>

<text 
x="1213" 
y="296" 
dx="0,0,0,0,0,0,0,0,0,0,-0.4,0,0,-0.4,0,0,0,0,0,0,0,0,-0.4,0,0,0,0" 
class="s11_14"
>saxophone or clarinet reeds</text>

<text 
x="1203" 
y="306" 
dx="0" 
class="s14_14"
>•</text>

<text 
x="1213" 
y="306" 
dx="0,0,0,0,0,0,0,0,0,0" 
class="s11_14"
>drumsticks</text>

<text 
x="1191" 
y="325" 
dx="0,0,0,0,0,-0.4,0,-0.4,0,0,0,0,-0.4,0,0,-0.4,0,0,0,-0.4,0,0,0,0,0,0,-0.4,0,0,0,-0.4,0,0,0,0,0,-0.4,0,0,0,0,-0.4,0,0,0,-0.4,0,0,0,0,-0.4,0,0,0,0,-0.4,0,0,0,-0.4,0,0,0,0,-0.4,0,0,0,0,0,-0.4,0,0,0,0,-0.4,0,0,0,-0.4,0,0,-0.4,0,0,-0.4,0,0,0,0,0,0,0,0,-0.5" 
class="s11_14"
>Make a list of the spares you might need and make sure you know where they are in an emergency.</text>

<text 
x="1191" 
y="344" 
dx="0,0,0,0,0,-0.5,0,0,0,0,0,-0.5,-0.2,0,0,-0.2,0,0,-0.5,0,0,-0.5,0,0,-0.5,0,0,0,-0.5,0,0,-0.1,0.1" 
class="s12_14"
>Plan where you’ll be on the stage</text>

<text 
x="1191" 
y="363" 
dx="0,0,0,0,0,0,0,-0.4,0,0,0,-0.4,0,0,0,0,0,-0.4,0,0,-0.4,0,0,0,-0.4,0,0,-0.4,0,0,0,0,-0.4,0,0,0,0,0,0,0,0,0,0,0,0,-0.4,0,0,0,0,-0.4,0,-0.4,0,0,0,-0.4,0,0,0,0,0,0,0,-0.4,0,0,-0.4,0,0,0,0,0,0,-0.4,0,0,0,0,0,-0.4,0,0,0,0,0,0,-0.4,0,0,0,-0.4,0,0,0,0,0,-0.4,0,0,-0.4,0,0" 
class="s11_14"
>Before you start to set up your instruments, take a few minutes to decide where you’re all going to be.</text>

<text 
x="1203" 
y="382" 
dx="0" 
class="s14_14"
>•</text>

<text 
x="1213" 
y="382" 
dx="0,0,0,0,0,-0.4,0,0,0,-0.4,0,0,0,0,0,-0.4,0,0,-0.4,0,0,0,0,0,0,-0.4,0,0,0,0,0,0,-0.4,0,0,-0.4,0,-0.1,0,-0.4,0,0,-0.4,0,0,0,-0.4,0,0,0,0" 
class="s11_14"
>Will the drums be centre stage? Or off to one side?</text>

<text 
x="1203" 
y="392" 
dx="0" 
class="s14_14"
>•</text>

<text 
x="1213" 
y="392" 
dx="0,0,0,-0.4,0,0,0,0,0,-0.4,0,-0.4,0,0,0,0,0,0,0,0,0,0,0,0,-0.4,0,0,0,-0.4,0,0,0,-0.4,0,0,0,0,0,0,0,0,0,-0.4,0,0,-0.4,0,0,0,0,-0.4,0,0,0,0,0,0,-0.4,0,0,0,0,0,0,-0.4,0,0,0,0,0,0,-0.4,0,0,-0.4,0,0,0,-0.4,0,0,0,0,0" 
class="s11_14"
>Is there a power-socket for the amplifier if your guitar player stands on the right?</text>

<text 
x="1191" 
y="411" 
dx="0,0,0,-0.1,0,0.4,0,0,0,0,0.4,0,0,0,0,0,0,0.4,0,0,0.4,0,0,0,0,0,0.4,0,0,0,0,0,0.4,0,0,0,0.4,0,0,0,0" 
class="s11_14"
>It’s much better to think about all this </text>

<text 
x="1313" 
y="411" 
dx="0,0,0,-0.1,0,0" 
class="s13_14"
>before</text>

<text 
x="1337" 
y="411" 
dx="0,0,0,0,0.4,0,0,0,0,0,0.4,0,0,0,0,0,0,0,0.4,0,0,0.4,0,0,0,0,0.4,0,0,0,0,0,0,0,0,0,0,0,0,0.4,0,0,-0.1,0,0.4,0,0,0,0,0,0,0.4,0,0,0,0,0,0,0,0,0,0.4,0,0,0.4,0,0,0,0.4,0,0,0,0,0.4,0,0,0.4,0,0,0,0,0" 
class="s11_14"
>you start setting up your instruments. It’s really annnoying if you have to start </text>

<text 
x="1191" 
y="420" 
dx="0,0,0,0,0,0,0,0,0,0,0,-0.4,0,0,0,0,0,0,-0.4,0,0,0,-0.4,0,0,0,0,0,0,0,0,-0.4,0,0,0,0,0,0,-0.4,0,0,0,0,-0.4,0,0,0,0,0,0,-0.4,0,0,0,0,0,-0.4,0,0,-0.4,0,0,0,-0.4,0,0,0,0,0,0,-0.4,0,0" 
class="s11_14"
>unplugging things and swapping places once you’ve begun to set things up!</text>

<text 
x="1191" 
y="439" 
dx="0,0,0,-0.1,0,-0.5,0,0,0,0,0,-0.5,-0.2,0,0,-0.4,0,0,-0.5,0,0,0,0,0,-0.4,-0.5,0,0,-0.1,0,-0.5,0,0,0,0,-0.5,-0.2,0,0,-0.4,0,0,-0.5,0" 
class="s12_14"
>Know where you’re going, know when you’re on</text>

<text 
x="1191" 
y="459" 
dx="0,0,0,0.2,0,0,0,0,0,0,0.2,0,0,0,0,0,0,0,0.2,0,0.2,0,0,0,0,0,0,0,0.2,0,0,0,0,0,0,0,0,0,0.2,0,0,0,0,0,0,0.2,0,0,0,0,0,0.2,0,0,0,0,0.2,0,0,0,0,0,0,0.2,0,0,0,0,0.2,0,0,0,0,0.2,0,0,0,0.2,0,0,0,0,0.2,0,0,0,0,0,0.2,0,0,0.2,0,0,0,0.2,0,0,0,0,0,0.2,0,0,0,0.2,0,0.2,0,0,0,0.2,0,0,0.2,0,0,0,0.2,0,0,0" 
class="s11_14"
>If you’re playing a concert somewhere you’ve never been before make sure you know where it is. Print out a map or set the </text>

<text 
x="1191" 
y="468" 
dx="0,0,0,0,0.1,0,0,0,0.1,0,0,0,0,0,0,0.1,0,0,0,0.1,0,0,0,0.1,0,0,0,0,0,0,0,0,0,0,-0.1,0,0.1,0,0,0,0,0,0,0,0.1,0,0,0,0,0,0.1,0,0,0,0,0.1,0,0,0,0,0,0.1,0,0,0,0,0.1,0,0,0.1,0,0,0.1,0,0,0,0,0,0,0,0,0,0,0.1,0,0,0,0,0,0.1,0,0,0,0,0,0,0,0,0,0,0,0,0.1,0,0,0,0,0,0,0.1,0,0,0,0,0,0,0.1,0,0,0,0.1,0,0,0.1,0,0" 
class="s11_14"
>sat nav before you set out. There’s nothing worse than being lost in an unfamiliar place half-an-hour before you’re due to go </text>

<text 
x="1191" 
y="478" 
dx="0,0,0,0,0,0,0,0,0" 
class="s11_14"
>on-stage.</text>

<text 
x="1191" 
y="497" 
dx="0,0,0,0,0.1,0,0,0,0,0.1,0,0,0,0.1,0,0,0.1,0,0,0,0,0,0,0,0.1,0,0,0,0.1,0,0,0,0,0,0.1,0,0,0,0,0,0.1,0,0,0,0.1,0,0,0,0,0,0,0.1,0,0,0.1,0,0" 
class="s11_14"
>And when you do arrive, the first thing you should do is </text>

<text 
x="1368" 
y="497" 
dx="0,0,0,0,0,0.1,0,0,0,0.1,0,0,0,0,0.1,0,0,0,0,0.1,-0.2,0,0,-0.3,0,0,0.1,0" 
class="s13_14"
>find out what time you’re on</text>

<text 
x="1464" 
y="497" 
dx="0,0,0.1,0,0,0.1,0,0,0,0.1,0,0,0,0,0,0.1,0,0,0,0,0,0.1,0,0,0,0,0,0.1,0,0,0,0,0,0,0,-0.3,0,0,0" 
class="s11_14"
>. On the night times often change. Ask </text>

<text 
x="1191" 
y="506" 
dx="0,0,0,0,0,0,0,0,-0.4,0,0,-0.4,0,0,0,0,0,0,0,-0.4,0,0,0,-0.4,0,0,0,0,0,-0.4,0,0,0,0,-0.4,0,0,0,0,0,0,-0.4,0,0,-0.4,0,0,0,-0.4,0,0,0,0,0,-0.4,0,0,0,-0.4,0,0,0,0,0,0,-0.4,0,0,0" 
class="s11_14"
>whoever is running the event when you’ll be on. Don’t get caught out!</text>

<text 
x="449" 
y="462" 
dx="0,0,0,0,0,0,0,0,-0.4,0,-0.4,0,0,0,0,0,0,0,-0.4,0,0,0,-0.4,0,0,-0.4,0,0,0,0,0,-0.4,0,0,0,0,-0.4,0,0,-0.4,0,0,-0.4,0,0,0,-0.4,0,0,-0.4,0,0,0,0,0,0,0,-0.4,0,0,0,0,0,0,-0.4,0,0,0,0,0,0,0,0,0,-0.4,0,0,0,0,-0.4,0,0,-0.4,0,0,0,-0.4,0,0,0,0,-0.4,0,0,0,0" 
class="s15_14"
>Playing a concert can be great fun! Or it can be totally scary! Sometimes both at the same time.</text>

<text 
x="449" 
y="482" 
dx="0,0,0,-0.4,0,0,0,0,0,-0.4,0,0,0,-0.4,0,0,0,0,0,0,0,0,-0.4,0,-0.4,0,0,0,0,-0.4,0,0,-0.4,0,0,0,-0.4,0,0,0,-0.4,0,0,0,0,-0.4,0,0,0,-0.4,0,0,0,0,0,-0.4,0,0,0,0,0,0,0,0" 
class="s15_14"
>So we’ve put together a list of our top tips for great concerts.</text>

<text 
x="449" 
y="502" 
dx="0,0,0,0,0,-0.5,0,0,0,-0.5,0,-0.5,0,0,0,0,0,0,0" 
class="s16_14"
>Copy out a set-list</text>

<text 
x="449" 
y="522" 
dx="0,-0.4" 
class="s15_14"
>A </text>

<text 
x="456" 
y="522" 
dx="0,0,0,0,0,0,0,0,0" 
class="s17_14"
>set-list </text>

<text 
x="478" 
y="522" 
dx="0,0,0,-0.4,0,-0.4,0,0,0,0,-0.4,0,0,-0.4,0,0,0,-0.4,0,0,0,0,-0.4,0,0,0,0,0,-0.4,0,0,-0.4,0,0,0,-0.4,0,0,0,0,0,-0.4,0,0,0,0,0,0,-0.4,0,0,0,0,-0.4,0,0,0,0" 
class="s15_14"
>is a list of all your songs in the order you’ll play them.</text>

<text 
x="449" 
y="541" 
dx="0,0,0,0,0,-0.4,0,0,0,0,0,0,-0.4,0,0,0,-0.4,0,0,0,0,0,0,0,0" 
class="s15_14"
>Make copies for everyone.</text>

<text 
x="449" 
y="561" 
dx="0,0,0,0,0,0,-0.1,0,0" 
class="s15_14"
>Print it </text>

<text 
x="471" 
y="561" 
dx="0,0,0,0" 
class="s17_14"
>BIG!</text>

<text 
x="489" 
y="561" 
dx="0,0,0,-0.1,0,0,0,0,-0.1,0,0,0,-0.1,0,0,0,-0.1,0,0,0,0,0,-0.1,0,0,0,0,-0.1,0,0,-0.1,0,0,-0.1,0,0,-0.4,0,-0.1,0,0,0,0,-0.1,0,0,-0.1,0,0,0,0,-0.1,0,0,0,0,-0.1,0,0,-0.1,0,0,0,-0.1,0,0,0,0,-0.3,0,-0.1,0,0,-0.1,0,0,-0.1,0,0,0,-0.1,0,0,0,0,0,0,0,0,-0.1,0,0,0,-0.1,0,-0.1,0,0,0,0" 
class="s15_14"
>so that you can still read it if it’s down by your feet on the floor, or if the lighting isn’t very </text>

<text 
x="449" 
y="571" 
dx="0,0,0,0,0" 
class="s15_14"
>good.</text>

<text 
x="449" 
y="591" 
dx="0,0,0,0,0,0,0,0,-0.2,-0.5,0,0,0,-0.2,-0.5,0,0,0,-0.2,0" 
class="s16_14"
>Remember your spares</text>

<text 
x="449" 
y="611" 
dx="0,0,0,0,0,-0.4,0,0,0,0,0,0,0,0,0,0,0,-0.4,0,0,0,0,-0.4,0,0,0,0,0,-0.4,0,0,0,0,-0.4,0,0,0,0,-0.4,0,0,-0.4,0,0,-0.4,0,0,0,0,0,0,0,0,-0.4,0,0,-0.4,0,0,0,0,-0.4,0,0,0,0,-0.4,0,0,0,-0.4,0,0,-0.4,0,0,0,0,0,0,-0.4,0,0,0,-0.4,0,0,0,0,0,0,0" 
class="s15_14"
>Some instruments have parts that need to be replaced if they wear out or break. For example:</text>

<text 
x="461" 
y="631" 
dx="0" 
class="s18_14"
>•</text>

<text 
x="471" 
y="631" 
dx="0,0,0,0,0,0,0,-0.4,0,0,0,0,0,0" 
class="s15_14"
>guitar strings</text>

<text 
x="461" 
y="641" 
dx="0" 
class="s18_14"
>•</text>

<text 
x="471" 
y="641" 
dx="0,0,0,0,0,0,0,0,0,0,-0.4,0,0,-0.4,0,0,0,0,0,0,0,0,-0.4,0,0,0,0" 
class="s15_14"
>saxophone or clarinet reeds</text>

<text 
x="461" 
y="651" 
dx="0" 
class="s18_14"
>•</text>

<text 
x="471" 
y="651" 
dx="0,0,0,0,0,0,0,0,0,0" 
class="s15_14"
>drumsticks</text>

<text 
x="449" 
y="671" 
dx="0,0,0,0,0,-0.4,0,-0.4,0,0,0,0,-0.4,0,0,-0.4,0,0,0,-0.4,0,0,0,0,0,0,-0.4,0,0,0,-0.4,0,0,0,0,0,-0.4,0,0,0,0,-0.4,0,0,0,-0.4,0,0,0,0,-0.4,0,0,0,0,-0.4,0,0,0,-0.4,0,0,0,0,-0.4,0,0,0,0,0,-0.4,0,0,0,0,-0.4,0,0,0,-0.4,0,0,-0.4,0,0,-0.4,0,0,0,-0.1,0,0,0,0,-0.5" 
class="s15_14"
>Make a list of the spares you might need and make sure you know where they are in an emergency.</text>

<text 
x="449" 
y="691" 
dx="0,0,0,0,0,-0.5,0,0,0,-0.2,0,-0.5,0,0,0,0,0,0,-0.5,0,0,-0.5,0,0,-0.5,0,0,0,-0.5,0,0,0,0" 
class="s16_14"
>Plan where you’ll be on the stage</text>

<text 
x="449" 
y="711" 
dx="0,0,0,0,0,0,0,-0.4,0,0,0,-0.4,0,0,0,0,0,-0.4,0,0,-0.4,0,0,0,-0.4,0,0,-0.4,0,0,0,0,-0.4,0,0,0,0,0,0,0,0,0,0,0,0,-0.4,0,0,0,0,-0.4,0,-0.4,0,0,0,-0.4,0,0,0,0,0,0,0,-0.4,0,0,-0.4,0,0,0,0,0,0,-0.4,0,0,0,0,0,-0.4,0,0,0,0,0,0,-0.4,0,0,0,-0.4,0,0,0,0,0,-0.4,0,0,-0.4,0,0" 
class="s15_14"
>Before you start to set up your instruments, take a few minutes to decide where you’re all going to be.</text>

<text 
x="461" 
y="731" 
dx="0" 
class="s18_14"
>•</text>

<text 
x="471" 
y="731" 
dx="0,-0.3,0,0,0,-0.4,0,0,0,-0.4,0,0,0,0,0,-0.4,0,0,-0.4,0,0,0,0,0,0,-0.4,0,0,0,0,0,0,-0.4,0,0,-0.4,0,-0.1,0,-0.4,0,0,-0.4,0,0,0,-0.4,0,0,0,0" 
class="s15_14"
>Will the drums be centre stage? Or off to one side?</text>

<text 
x="461" 
y="740" 
dx="0" 
class="s18_14"
>•</text>

<text 
x="471" 
y="740" 
dx="0,0,0,-0.4,0,0,0,0,0,-0.4,0,-0.4,0,0,0,0,-0.1,0,0,0,0,0,0,0,-0.4,0,0,0,-0.4,0,0,0,-0.4,0,0,0,0,0,0,0,0,0,-0.4,0,0,-0.4,0,0,0,0,-0.4,0,0,0,0,0,0,-0.4,0,0,0,0,0,0,-0.4,0,0,0,0,0,0,-0.4,0,0,-0.4,0,0,0,-0.4,0,0,0,0,0" 
class="s15_14"
>Is there a power-socket for the amplifier if your guitar player stands on the right?</text>

<text 
x="449" 
y="760" 
dx="0,0,0,-0.4,0,-0.1,0,0,0,0,-0.1,0,0,0,0,0,0,-0.1,0,0,-0.1,0,0,0,0,0,-0.1,0,0,0,0,0,-0.1,0,0,0,-0.1,0,0,0,0" 
class="s15_14"
>It’s much better to think about all this </text>

<text 
x="562" 
y="760" 
dx="0,0,0,0,0,-0.1,0" 
class="s17_14"
>before </text>

<text 
x="584" 
y="760" 
dx="0,0,0,0,-0.1,0,0,0,0,0,-0.1,0,0,0,0,0,0,0,-0.1,0,0,-0.1,0,0,0,0,-0.1,0,0,0,0,0,0,0,0,0,0,0,0,-0.1,0,0,-0.4,0,-0.1,0,0,0,0,0,0,-0.1,0,0,0,0,0,0,0,0,0" 
class="s15_14"
>you start setting up your instruments. It’s really annnoying </text>

<text 
x="449" 
y="770" 
dx="0,0,0,-0.4,0,0,0,-0.4,0,0,0,0,-0.4,0,0,-0.4,0,0,0,0,0,-0.4,0,0,0,0,0,0,0,0,0,0,-0.4,0,0,0,0,0,0,-0.4,0,0,0,-0.4,0,0,0,0,0,0,0,0,-0.4,0,0,0,0,0,0,-0.4,0,0,0,0,-0.4,0,0,0,0,0,0,-0.4,0,0,0,0,0,-0.4,0,0,-0.4,0,0,0,-0.4,0,0,0,0,0,0,-0.4,0,0" 
class="s15_14"
>if you have to start unplugging things and swapping places once you’ve begun to set things up!</text>

<text 
x="449" 
y="790" 
dx="0,0,0,0,0,-0.5,0,0,0,-0.2,0,-0.5,0,0,0,0,-0.2,0,-0.5,0,0,0,0,0,0,-0.5,0,0,0,0,-0.5,0,0,0,0,-0.5,0,0,0,0,-0.2,0,-0.5,0" 
class="s16_14"
>Know where you’re going, know when you’re on</text>

<text 
x="449" 
y="810" 
dx="0,0,0,0,0,0,0,0,0,0,0,0,0,0,0,0,0,0,0,0,0,0,0,0,0,0,0,0,0,0,0,0,0,0,0,0,0,0,0,0,0,0,0,0,0,0,0,0,0,0,0,0,0,0,0,0,0,0,0,0,0,0,0,0,0,0,0,0,0,0,0,0,0,0,0,0,0,0,0,0,0,0,0,0,0,0,0,0,0,0,0,0,0,0,0,0,0,0,0,0,0" 
class="s15_14"
>If you’re playing a concert somewhere you’ve never been before make sure you know where it is. Print </text>

<text 
x="449" 
y="820" 
dx="0,0,0,0,0.3,0,0.3,0,0,0,0.3,0,0,0.3,0,0,0,0.3,0,0,0,0.3,0,0,0,0.3,0,0,0,0.3,0,0,0,0,0,0,0.3,0,0,0,0.3,0,0,0,0.3,0,0,0,0,0.2,0,0,0,0,0,-0.4,0,0.3,0,0,0,0,0,0,0,0.3,0,0,0,0,0,0.3,0,0,0,0,0.3,0,0,0,0,0,0.3,0,0,0,0,0.3,0,0,0.3,0,0,0.3,0,0,0,0,0,0,0,0,0,0" 
class="s15_14"
>out a map or set the sat nav before you set out. There’s nothing worse than being lost in an unfamiliar </text>

<text 
x="449" 
y="830" 
dx="0,0,0,0,0,0,-0.4,0,0,0,0,0,0,0,0,0,0,0,0,-0.4,0,0,0,0,0,0,-0.4,0,0,0,0,0,0,-0.4,0,0,0,-0.4,0,0,-0.4,0,0,-0.4,0,0,0,0,0,0,0,0" 
class="s15_14"
>place half-an-hour before you’re due to go on-stage.</text>

<text 
x="449" 
y="850" 
dx="0,0,0,0,0.4,0,0,0,0,0.4,0,0,0,0.4,0,0,0.4,0,0,0,0,0,0,0,0.4,0,0,0,0.4,0,0,0,0,0,0.4,0,0,0,0,0,0.4,0,0,0,0.4,0,0,0,0,0,0,0.4,0,0,0.4,0,0" 
class="s15_14"
>And when you do arrive, the first thing you should do is </text>

<text 
x="623" 
y="850" 
dx="0,0,0,0,0,0.4,0,0,0,0.4,0,0,0,0,0.4,0,0,0,0,0.4,0,0,0,0,-0.1,0,0.4,0" 
class="s17_14"
>find out what time you’re on</text>

<text 
x="715" 
y="850" 
dx="0,0,0.4,0,0,0.4,0,0,0,0.4,0,0,0,0,0" 
class="s15_14"
>. On the night </text>

<text 
x="449" 
y="860" 
dx="0,0,0,0,0,0,-0.4,0,0,0,0,0,-0.4,0,0,0,0,0,0,0,-0.8,0,0,0,-0.4,0,0,0,0,0,0,0,-0.4,0,0,-0.4,0,0,0,0,0,0,0,-0.4,0,0,0,-0.4,0,0,0,0,0,-0.4,0,0,0,0,-0.4,0,0,0,0,0,0,-0.4,0,0,-0.4,0,0,0,-0.4,0,0,0,-0.1,0,-0.4,0,0,0,-0.4,0,0,0,0,0,0,-0.4,0,0,0" 
class="s15_14"
>times often change. Ask whoever is running the event when you’ll be on. Don’t get caught out!</text>

<path d="M537,219l0,-4l-4,0l0,-4l-4,0l0,-4l-4,0l0,-4l-4,0l0,4l0,4l0,4l0,4l0,4l0,4l0,4l0,4l0,5l4,0l0,-5l4,0l0,-4l4,0l0,-4l4,0l0,-4l4,0l0,-4Z" class="g11_14" />
<path d="M418,638l0,-4l-4,0l0,-4l-4,0l0,-5l-4,0l0,-4l-4,0l0,4l0,5l0,4l0,4l0,4l0,4l0,4l0,4l0,4l4,0l0,-4l4,0l0,-4l4,0l0,-4l4,0l0,-4l4,0l0,-4Z" class="g11_14" />
<path d="M1014,236l4,0l0,-4l4,0l0,-4l4,0l0,-4l4,0l0,-4l-4,0l-4,0l-4,0l-4,0l-4,0l-4,0l-4,0l-4,0l-5,0l0,4l5,0l0,4l4,0l0,4l4,0l0,4l4,0l0,4l4,0Z" class="g11_14" />
<path d="M1165,390l0,-4l-4,0l0,-4l-4,0l0,-4l-4,0l0,-4l-4,0l0,4l0,4l0,4l0,4l0,4l0,4l0,4l0,4l0,4l4,0l0,-4l4,0l0,-4l4,0l0,-4l4,0l0,-4l4,0l0,-4Z" class="g11_14" />
<path d="M537,319l0,-4l-4,0l0,-4l-4,0l0,-4l-4,0l0,-4l-4,0l0,4l0,4l0,4l0,4l0,4l0,4l0,4l0,4l0,4l4,0l0,-4l4,0l0,-4l4,0l0,-4l4,0l0,-4l4,0l0,-4Z" class="g11_14" />
<text 
x="1590" 
y="1019" 
dx="0,-1.6" 
class="s19_14"
>27</text>

<text 
x="35" 
y="1019" 
dx="0,-1.2" 
class="s19_14"
>26</text>



<!-- Any embedded fonts defined here -->
<style type="text/css" ><![CDATA[

@font-face {
	font-family: PixelSplitter-Bold_cq;
	src: url("fonts/PixelSplitter-Bold_cq.woff") format("woff");
}

@font-face {
	font-family: AndaleMono_1cn;
	src: url("fonts/AndaleMono_1cn.woff") format("woff");
}

@font-face {
	font-family: Times-Bold_1cj;
	src: url("fonts/Times-Bold_1cj.woff") format("woff");
}

@font-face {
	font-family: Helvetica-Light_1by;
	src: url("fonts/Helvetica-Light_1by.woff") format("woff");
}

@font-face {
	font-family: Helvetica_1dx;
	src: url("fonts/Helvetica_1dx.woff") format("woff");
}

@font-face {
	font-family: PixelSplitter-Bold_1bs;
	src: url("fonts/PixelSplitter-Bold_1bs.woff") format("woff");
}

@font-face {
	font-family: Times-Roman_1cf;
	src: url("fonts/Times-Roman_1cf.woff") format("woff");
}

@font-face {
	font-family: Helvetica-Bold_1bu;
	src: url("fonts/Helvetica-Bold_1bu.woff") format("woff");
}

@font-face {
	font-family: Helvetica_1e3;
	src: url("fonts/Helvetica_1e3.woff") format("woff");
}

]]></style>

</svg>
