<?xml version="1.0" encoding="UTF-8" standalone="no"?>
<!DOCTYPE svg PUBLIC "-//W3C//DTD SVG 1.1//EN"
"http://www.w3.org/Graphics/SVG/1.1/DTD/svg11.dtd">


<!-- Page 17 -->
<svg x="0" y="0" width="1645" height="1061" viewBox="0 0 1645 1061" version="1.1" xmlns="http://www.w3.org/2000/svg" xmlns:xlink="http://www.w3.org/1999/xlink"
style="display: block;margin-left: auto;margin-right: auto;">
<defs>

<style type="text/css"><![CDATA[

.g7_17{
fill: #11151D;
}
.g2_17{
fill: #B3CBC8;
}
.g5_17{
fill: none;
stroke: #11151D;
stroke-width: 1;
stroke-linecap: butt;
stroke-linejoin: miter;
stroke-miterlimit: 3;
}
.g6_17{
fill: none;
stroke: #11151D;
stroke-width: 1;
stroke-linecap: butt;
stroke-linejoin: miter;
stroke-miterlimit: 4;
}
.g3_17{
fill: #D6E2E0;
}
.g4_17{
fill: #FFFFFF;
}
.g1_17{
fill: #FAAD60;
}

.s6_17{
font-size: 15.28px;
font-family: DevanagariMT-Bold_1f2;
fill: #11151D;
}
.s7_17{
font-size: 15.28px;
font-family: Helvetica-Bold_fl;
fill: #FFFFFF;
}
.s5_17{
font-size: 15.28px;
font-family: Helvetica-Bold_1bu;
fill: #11151D;
}
.s11_17{
font-size: 41.25px;
font-family: PixelSplitter-Bold_g1;
fill: #FFFFFF;
}
.s12_17{
font-size: 41.25px;
font-family: PixelSplitter-Bold_g7;
fill: #FFFFFF;
}
.s8_17{
font-size: 15.28px;
font-family: Helvetica-Bold_fr;
fill: #FFFFFF;
}
.s9_17{
font-size: 15.28px;
font-family: Helvetica-Bold_fx;
fill: #FFFFFF;
}
.s15_17{
font-size: 12.22px;
font-family: PixelSplitter-Bold_1bs;
fill: #11151D;
}
.s4_17{
font-size: 18.33px;
font-family: PixelSplitter-Bold_1bs;
fill: #11151D;
}
.s1_17{
font-size: 21.39px;
font-family: PixelSplitter-Bold_1bs;
fill: #11151D;
}
.s10_17{
font-size: 18.33px;
font-family: Wingdings-Regular_1c4;
fill: #11151D;
}
.s13_17{
font-size: 15.28px;
font-family: Helvetica-Bold_gd;
fill: #FFFFFF;
}
.s14_17{
font-size: 15.28px;
font-family: Helvetica-Bold_gj;
fill: #FFFFFF;
}
.s2_17{
font-size: 15.28px;
font-family: Helvetica-Light_1by;
fill: #11151D;
}
.s3_17{
font-size: 15.28px;
font-family: AndaleMono_1cn;
fill: #11151D;
}

]]></style>

</defs>
<path d="M0,0
L0,1061
L1645,1061
L1645,0 Z " 
fill="#FFFFFF" stroke="none" />
<image x="-33" y="-32" width="1713" height="1115" xlink:href="17/img/1.png" />
<image x="-13" y="-11" width="1674" height="1073" opacity="0.5" xlink:href="17/img/2.png" />
<path d="M870,42l0,4l-4,0l0,47l4,0l0,5l728,0l0,-5l4,0l0,-47l-4,0l0,-4Z" class="g1_17" />
<path d="M47,42l0,4l-4,0l0,47l4,0l0,5l645,0l0,-5l5,0l0,-47l-5,0l0,-4Z" class="g1_17" />
<path d="M872,288l0,5l-4,0l0,278l4,0l0,4l444,0l0,-4l5,0l0,-278l-5,0l0,-5Z" class="g2_17" />
<path d="M870,619l0,4l-5,0l0,143l5,0l0,4l547,0l0,-4l4,0l0,-143l-4,0l0,-4Z" class="g2_17" />
<path d="M870,812l0,4l-5,0l0,192l5,0l0,4l482,0l0,-4l4,0l0,-192l-4,0l0,-4Z" class="g2_17" />
<path d="M873,540l442,0l0,-160l-442,0l0,160Z" class="g3_17" />
<path d="M872,645l48,0l0,-22l-48,0l0,22Z" class="g3_17" />
<path d="M872,764l57,0l0,-20l-57,0l0,20Z" class="g3_17" />
<path d="M872,744l57,0l0,-21l-57,0l0,21Z" class="g3_17" />
<path d="M872,723l542,0l0,-22l-542,0l0,22Z" class="g3_17" />
<path d="M905,839l13,0l0,-21l-13,0l0,21Z" class="g3_17" />
<path d="M872,666l420,0l0,-21l-420,0l0,21Z" class="g3_17" />
<path d="M872,861l420,0l0,-22l-420,0l0,22Z" class="g3_17" />
<path d="M872,688l438,0l0,-22l-438,0l0,22Z" class="g3_17" />
<path d="M872,883l438,0l0,-22l-438,0l0,22Z" class="g3_17" />
<path d="M872,710l542,0l0,-22l-542,0l0,22Z" class="g3_17" />
<path d="M872,904l477,0l0,-21l-477,0l0,21Z" class="g3_17" />
<path d="M872,923l75,0l0,-22l-75,0l0,22Z" class="g3_17" />
<path d="M872,964l110,0l0,-22l-110,0l0,22Z" class="g3_17" />
<path d="M872,983l57,0l0,-21l-57,0l0,21Z" class="g3_17" />
<path d="M872,1003l25,0l0,-22l-25,0l0,22Z" class="g3_17" />
<path d="M872,943l442,0l0,-22l-442,0l0,22Z" class="g3_17" />
<image x="1300" y="573" width="341" height="243" style="mix-blend-mode: multiply;" xlink:href="17/img/3.png" />
<image x="1314" y="584" width="315" height="229" xlink:href="17/img/4.png" />
<image x="48" y="743" width="730" height="293" xlink:href="17/img/5.png" />
<path d="M524,204l0,5l-4,0l0,175l4,0l0,4l251,0l0,-4l5,0l0,-175l-5,0l0,-5Z" class="g4_17" />
<path d="M158,204l0,5l-5,0l0,175l5,0l0,4l349,0l0,-4l4,0l0,-175l-4,0l0,-5Z" class="g4_17" />
<path d="M158,397l0,4l-5,0l0,154l5,0l0,4l349,0l0,-4l4,0l0,-154l-4,0l0,-4Z" class="g4_17" />
<path d="M158,567l0,5l-5,0l0,175l5,0l0,4l349,0l0,-4l4,0l0,-175l-4,0l0,-5Z" class="g4_17" />
<path d="M524,397l0,5l-4,0l0,153l4,0l0,4l251,0l0,-4l5,0l0,-153l-5,0l0,-5Z" class="g4_17" />
<path d="M524,567l0,5l-4,0l0,175l4,0l0,4l251,0l0,-4l5,0l0,-175l-5,0l0,-5Z" class="g4_17" />
<text 
x="879" 
y="278" 
dx="0,-2.2,0,0,-2.5,-1.7,-2.8,0,0,-2.2,-1.7,0,0,-3.2,-2.1,-1.7,-2.8" 
class="s1_17"
>To copy the links</text>

<text 
x="868" 
y="610" 
dx="0,-2.5,-1.7,-1.9,-1.9,-2.7,-3.1" 
class="s1_17"
>CORRECT</text>

<text 
x="865" 
y="802" 
dx="0,-2.1,-1.8,-2.5,-1.7,-1.9,-1.9,-2.7,-3.1" 
class="s1_17"
>inCORRECT</text>

<text 
transform="matrix(0.98, 0, 0, 1, 879, 128)"
dx="0,0,0,0,0,0,0,0,0,0.8,0,0,0,0.8,0,0,0,0,0,0,0,0,0,0.8,0,0,0,0,0.8,0,0,0,0.8,0,0,0,0.8,0,0,0,0,0.8,0,0,0,0,0,0.8,0,0,0,-0.3,0,0.8,0,0,0,-0.3,0,0.8,0,0,0.8,0,0,0,0,0.8,0,0,0,0.8,0,0,0.8,0,0,0.8,0,-0.3,0,0,0.8,0,0,0,0.8,0,0,0,0,0.8,0,0,0.8,0,0,0,0,0,0,0" 
class="s2_17"
>Although the Nanonauts site now has four pages there isn’t an easy way to go from one page to another </text>

<text 
transform="matrix(0.98, 0, 0, 1, 879, 150)"
dx="0,0,0,0,0,0,0,1.2,0,0,0,1.2,0,0,0,0.3,0,1.2,0,-0.3,0,0,1.2,0,0,0,1.2,0,0,0,0,1.2,0,0,0,0,1.2" 
class="s2_17"
>unless you start from the home page (</text>

<path d="M1146.1,139.8c-0.2,0.1,-0.3,0.3,-0.3,0.5c0,0.3,0.1,0.4,0.3,0.6c0.1,0.2,0.3,0.2,0.5,0.2c0.2,0,0.4,0,0.6,-0.2c0.1,-0.1,0.2,-0.3,0.2,-0.6c0,-0.2,-0.1,-0.4,-0.2,-0.5c-0.2,-0.2,-0.4,-0.3,-0.6,-0.3c-0.2,0,-0.4,0.1,-0.5,0.3Zm1.1,2.7l-3.4,0l0,1l2.2,0l0,6.8l1.2,0l0,-7.8Z" class="g5_17" />
<path d="M1158.1,144.9c0,-1.7,-0.7,-2.6,-2.2,-2.6c-0.9,0,-1.7,0.4,-2.6,1.3l0,-1.1l-1.1,0l0,7.8l1.1,0l0,-5.7c0.8,-0.9,1.6,-1.3,2.3,-1.3c0.4,0,0.8,0.2,1,0.5c0.2,0.3,0.3,0.8,0.3,1.5l0,5l1.2,0l0,-5.4Z" class="g5_17" />
<path d="M1167,139.7l-1.1,0l0,3.8c-0.6,-0.8,-1.4,-1.2,-2.3,-1.2c-0.9,0,-1.6,0.4,-2.1,1.1c-0.6,0.8,-0.8,1.7,-0.8,2.8c0,1.3,0.2,2.3,0.7,3.1c0.6,0.8,1.2,1.2,2.1,1.2c0.5,0,1,-0.2,1.4,-0.4c0.4,-0.3,0.8,-0.6,1,-1l0,1.2l1.1,0l0,-10.6Zm-1.5,8.8c-0.2,0.3,-0.5,0.5,-0.8,0.7c-0.3,0.1,-0.6,0.2,-0.9,0.2c-0.6,0,-1.1,-0.3,-1.4,-0.9c-0.3,-0.6,-0.5,-1.3,-0.5,-2.2c0,-0.9,0.2,-1.6,0.5,-2.1c0.4,-0.6,0.9,-0.9,1.5,-0.9c0.8,0,1.5,0.4,2,1.3l0,3.3c0,0,-0.1,0.2,-0.4,0.6Z" class="g5_17" />
<path d="M1176.3,146c0,-1.1,-0.3,-2,-0.9,-2.7c-0.6,-0.7,-1.3,-1,-2.2,-1c-1,0,-1.8,0.4,-2.4,1.1c-0.6,0.7,-0.9,1.7,-0.9,2.9c0,1.3,0.3,2.3,1,3c0.7,0.8,1.6,1.2,2.8,1.2c0.8,0,1.6,-0.2,2.3,-0.5l-0.2,-0.9c-0.7,0.2,-1.4,0.3,-2.1,0.3c-0.8,0,-1.4,-0.2,-1.9,-0.8c-0.5,-0.6,-0.7,-1.3,-0.7,-2.2l5.2,0l0,-0.4Zm-5.2,-0.5c0.1,-0.7,0.3,-1.2,0.7,-1.6c0.4,-0.4,0.9,-0.6,1.5,-0.6c0.4,0,0.8,0.2,1.2,0.6c0.4,0.4,0.6,0.9,0.6,1.6l-4,0Z" class="g5_17" />
<path d="M1182.7,146.3l2.7,-3.8l-1.3,0l-2,3l-2.1,-3l-1.3,0l2.7,3.9l-2.7,3.9l1.2,0l2.1,-3.1l2.1,3.1l1.3,0l-2.7,-4Z" class="g5_17" />
<path d="M1190.5,148.8c-0.2,0.2,-0.3,0.4,-0.3,0.7c0,0.2,0.1,0.5,0.3,0.7c0.1,0.2,0.3,0.3,0.6,0.3c0.2,0,0.5,-0.1,0.6,-0.3c0.2,-0.2,0.3,-0.5,0.3,-0.7c0,-0.3,-0.1,-0.5,-0.3,-0.7c-0.1,-0.2,-0.3,-0.3,-0.6,-0.3c-0.3,0,-0.5,0.1,-0.6,0.3Z" class="g5_17" />
<path d="M1203.1,144.9c0,-1.7,-0.7,-2.6,-2.1,-2.6c-1,0,-1.8,0.4,-2.6,1.3l0,-3.9l-1.2,0l0,10.6l1.2,0l0,-5.7c0.8,-0.9,1.5,-1.3,2.2,-1.3c0.5,0,0.8,0.2,1,0.5c0.3,0.3,0.4,0.8,0.4,1.5l0,5l1.1,0l0,-5.4Z" class="g5_17" />
<path d="M1212,149c-0.6,0.3,-1.2,0.4,-1.9,0.4c-0.3,0,-0.6,-0.1,-0.8,-0.4c-0.2,-0.2,-0.3,-0.6,-0.3,-1.1l0,-4.4l2.6,0l0,-1l-2.6,0l0,-2.1l-1.1,0l0,2.1l-1.5,0l0,1l1.5,0l0,4.7c0,1.5,0.7,2.2,2,2.2c0.8,0,1.5,-0.1,2.3,-0.5L1212,149Z" class="g5_17" />
<path d="M1221.7,144.8c0,-1.7,-0.4,-2.5,-1.4,-2.5c-0.3,0,-0.5,0.1,-0.8,0.4c-0.3,0.2,-0.6,0.5,-0.8,0.9c-0.1,-0.4,-0.3,-0.7,-0.5,-0.9c-0.3,-0.3,-0.5,-0.4,-0.9,-0.4c-0.2,0,-0.5,0.1,-0.8,0.4c-0.3,0.2,-0.6,0.5,-0.8,0.9l0,-1.1l-1.1,0l0,7.8l1.1,0l0,-5.7c0,0,0.2,-0.2,0.5,-0.7c0.2,-0.4,0.5,-0.6,0.7,-0.6c0.5,0,0.7,0.6,0.7,1.8l0,5.2l1.1,0l0,-5.7c0,0,0.2,-0.2,0.4,-0.7c0.3,-0.4,0.6,-0.6,0.8,-0.6c0.4,0,0.7,0.6,0.7,1.8l0,5.2l1.1,0l0,-5.5Z" class="g5_17" />
<path d="M1229.5,149.5l-2,0l0,-10l-3,0l0,1l2,0l0,10l3,0l0,-1Z" class="g5_17" />
<text 
transform="matrix(0.98, 0, 0, 1, 1141, 150)"
dx="0,0,0,0,0,0,0,0,0,0" 
class="s3_17"
>index.html</text>

<text 
transform="matrix(0.98, 0, 0, 1, 1231, 150)"
dx="0,0,0,1.2,0,0,1.2,0,0,0,-0.3,0,1.2,0,0,0,0,0,1.2,0,0,1.2,0,0,0,1.2,0,0,0,0,0,1.2,0,0,1.2,0,0,0,1.2,0,0,0,1.2,0,0,0,0,0,1.2,0,0,0,0,0" 
class="s2_17"
>). So we’re going to add links to all the pages we’ve </text>

<text 
transform="matrix(0.98, 0, 0, 1, 879, 171)"
dx="0,0,-0.3,0,0,0,0,0,0,-0.3,0,0,0,0,-0.3,0,0,0,0,-0.3,0,0,0,0,0,-0.3,0,0,-0.3,0,0,-0.3,0,0,-0.3,0,-0.3,0,0,-0.3,0,0,0,-0.3,0,0,0,0,-0.3,0,0,-0.3,0,0,0,0,0,0,0,-0.3,0,0,-0.3,0,0,0,0,0,0,-0.3,0,0,0,-0.3,0,-0.3,0,0,-0.3,0,-0.3,0,-0.3,0,0,-0.3,0,0,0,-0.3,0,0,0,0,0,-0.3,0,0,0,0,0,-0.3,0,0,-0.8,0,-0.3,0,0,0" 
class="s2_17"
>created. This will allow us to go from one page to another no matter where we are in the site. Right now, the </text>

<text 
transform="matrix(0.98, 0, 0, 1, 879, 193)"
dx="0,0,0,0,0,-0.5,0,0,0,0,0,-0.5,0,0,-0.5,0,0,0,0,-0.5,0,-0.3,0,-0.5,0,0,-0.5,0,0,0" 
class="s2_17"
>only links we have are on the </text>

<path d="M1077.9,182.6c-0.1,0.1,-0.2,0.3,-0.2,0.5c0,0.2,0.1,0.4,0.2,0.6c0.2,0.1,0.3,0.2,0.5,0.2c0.3,0,0.4,-0.1,0.6,-0.2c0.1,-0.2,0.2,-0.4,0.2,-0.6c0,-0.2,-0.1,-0.4,-0.2,-0.5c-0.2,-0.2,-0.3,-0.3,-0.6,-0.3c-0.2,0,-0.3,0.1,-0.5,0.3Zm1.1,2.7l-3.4,0l0,1l2.3,0l0,6.7l1.1,0l0,-7.7Z" class="g5_17" />
<path d="M1089.9,187.7c0,-1.7,-0.7,-2.6,-2.1,-2.6c-0.9,0,-1.8,0.4,-2.6,1.3l0,-1.1l-1.2,0l0,7.7l1.2,0l0,-5.6c0.8,-0.9,1.5,-1.3,2.2,-1.3c0.5,0,0.8,0.1,1,0.4c0.3,0.4,0.4,0.9,0.4,1.5l0,5l1.1,0l0,-5.3Z" class="g5_17" />
<path d="M1098.9,182.5l-1.2,0l0,3.8c-0.5,-0.8,-1.3,-1.2,-2.3,-1.2c-0.9,0,-1.6,0.3,-2.1,1.1c-0.5,0.7,-0.8,1.7,-0.8,2.8c0,1.2,0.3,2.2,0.8,3c0.5,0.8,1.2,1.2,2.1,1.2c0.4,0,0.9,-0.1,1.3,-0.3c0.5,-0.3,0.8,-0.6,1,-1l0,1.1l1.2,0l0,-10.5Zm-1.5,8.7c-0.3,0.3,-0.6,0.6,-0.9,0.7c-0.3,0.2,-0.6,0.3,-0.8,0.3c-0.6,0,-1.1,-0.3,-1.5,-0.9c-0.3,-0.6,-0.5,-1.3,-0.5,-2.2c0,-0.9,0.2,-1.6,0.6,-2.2c0.3,-0.5,0.8,-0.8,1.5,-0.8c0.7,0,1.4,0.4,1.9,1.3l0,3.2c0,0.1,-0.1,0.3,-0.3,0.6Z" class="g5_17" />
<path d="M1108.1,188.8c0,-1.1,-0.2,-2,-0.8,-2.7c-0.6,-0.7,-1.4,-1,-2.2,-1c-1,0,-1.8,0.3,-2.5,1.1c-0.6,0.7,-0.9,1.7,-0.9,2.9c0,1.3,0.4,2.3,1,3c0.7,0.8,1.7,1.1,2.8,1.1c0.9,0,1.7,-0.1,2.3,-0.4l-0.2,-1c-0.7,0.3,-1.4,0.4,-2.1,0.4c-0.7,0,-1.3,-0.3,-1.8,-0.8c-0.5,-0.6,-0.8,-1.3,-0.8,-2.2l5.2,0l0,-0.4Zm-5.1,-0.6c0,-0.6,0.2,-1.1,0.6,-1.5c0.4,-0.4,0.9,-0.6,1.5,-0.6c0.5,0,0.9,0.2,1.2,0.6c0.4,0.4,0.6,0.9,0.6,1.5l-3.9,0Z" class="g5_17" />
<path d="M1114.5,189.1l2.7,-3.8l-1.2,0l-2.1,3l-2.1,-3l-1.3,0l2.7,3.8l-2.7,3.9l1.2,0l2.2,-3l2,3l1.3,0l-2.7,-3.9Z" class="g5_17" />
<path d="M1122.3,191.6c-0.2,0.2,-0.3,0.4,-0.3,0.7c0,0.2,0.1,0.5,0.3,0.6c0.2,0.2,0.4,0.3,0.6,0.3c0.3,0,0.5,-0.1,0.7,-0.3c0.2,-0.1,0.2,-0.4,0.2,-0.6c0,-0.3,0,-0.5,-0.2,-0.7c-0.2,-0.2,-0.4,-0.3,-0.7,-0.3c-0.2,0,-0.4,0.1,-0.6,0.3Z" class="g5_17" />
<path d="M1134.9,187.7c0,-1.7,-0.7,-2.6,-2.1,-2.6c-0.9,0,-1.8,0.4,-2.6,1.3l0,-3.9l-1.1,0l0,10.5l1.1,0l0,-5.6c0.8,-0.9,1.5,-1.3,2.2,-1.3c0.5,0,0.9,0.1,1.1,0.4c0.2,0.4,0.3,0.9,0.3,1.5l0,5l1.1,0l0,-5.3Z" class="g5_17" />
<path d="M1143.8,191.8c-0.6,0.3,-1.2,0.4,-1.8,0.4c-0.4,0,-0.7,-0.1,-0.9,-0.4c-0.2,-0.3,-0.3,-0.6,-0.3,-1.1l0,-4.4l2.6,0l0,-1l-2.6,0l0,-2.2l-1.1,0l0,2.2l-1.5,0l0,1l1.5,0l0,4.7c0,1.5,0.7,2.2,2.1,2.2c0.7,0,1.5,-0.2,2.2,-0.5l-0.2,-0.9Z" class="g5_17" />
<path d="M1153.6,187.6c0,-1.7,-0.5,-2.5,-1.4,-2.5c-0.3,0,-0.6,0.1,-0.9,0.3c-0.3,0.3,-0.6,0.6,-0.8,1c-0.1,-0.4,-0.2,-0.7,-0.5,-1c-0.2,-0.2,-0.5,-0.3,-0.8,-0.3c-0.3,0,-0.6,0.1,-0.9,0.3c-0.3,0.3,-0.5,0.6,-0.8,1l0,-1.1l-1.1,0l0,7.7l1.2,0l0,-5.6c0,0,0.1,-0.3,0.4,-0.7c0.3,-0.4,0.5,-0.6,0.7,-0.6c0.5,0,0.7,0.6,0.7,1.8l0,5.1l1.2,0l0,-5.6c0,0,0.1,-0.3,0.4,-0.7c0.3,-0.4,0.5,-0.6,0.7,-0.6c0.5,0,0.7,0.6,0.7,1.8l0,5.1l1.2,0l0,-5.4Z" class="g5_17" />
<path d="M1161.5,192.5l-2,0l0,-10l-3,0l0,1l2,0l0,10l3,0l0,-1Z" class="g5_17" />
<text 
transform="matrix(0.98, 0, 0, 1, 1073, 193)"
dx="0,0,0,0,0,0,0,0,0,0" 
class="s3_17"
>index.html</text>

<text 
transform="matrix(0.98, 0, 0, 1, 1167, 193)"
dx="0,0,0,0,0,-0.5,0,0,0,0,0,-0.5,-1.7,0,-0.5,0,0,-0.5,0,0,0,0,-0.5,0,0,0,0,0,-0.5,0,0,0,0,-0.5,0,0,-0.5,0,0,0" 
class="s2_17"
>home page. To do this we’ll open up the </text>

<path d="M1439.6,182.6c-0.1,0.1,-0.2,0.3,-0.2,0.5c0,0.2,0.1,0.4,0.2,0.6c0.2,0.1,0.3,0.2,0.5,0.2c0.3,0,0.4,-0.1,0.6,-0.2c0.1,-0.2,0.2,-0.4,0.2,-0.6c0,-0.2,-0.1,-0.4,-0.2,-0.5c-0.2,-0.2,-0.3,-0.3,-0.6,-0.3c-0.2,0,-0.3,0.1,-0.5,0.3Zm1.1,2.7l-3.4,0l0,1l2.3,0l0,6.7l1.1,0l0,-7.7Z" class="g5_17" />
<path d="M1451.6,187.7c0,-1.7,-0.7,-2.6,-2.1,-2.6c-0.9,0,-1.8,0.4,-2.6,1.3l0,-1.1l-1.2,0l0,7.7l1.2,0l0,-5.6c0.8,-0.9,1.5,-1.3,2.2,-1.3c0.5,0,0.8,0.1,1,0.4c0.3,0.4,0.4,0.9,0.4,1.5l0,5l1.1,0l0,-5.3Z" class="g5_17" />
<path d="M1460.6,182.5l-1.2,0l0,3.8c-0.5,-0.8,-1.3,-1.2,-2.3,-1.2c-0.9,0,-1.6,0.3,-2.1,1.1c-0.5,0.7,-0.8,1.7,-0.8,2.8c0,1.2,0.3,2.2,0.8,3c0.5,0.8,1.2,1.2,2.1,1.2c0.4,0,0.9,-0.1,1.3,-0.3c0.5,-0.3,0.8,-0.6,1,-1l0,1.1l1.2,0l0,-10.5Zm-1.5,8.7c-0.3,0.3,-0.6,0.6,-0.9,0.7c-0.3,0.2,-0.6,0.3,-0.8,0.3c-0.6,0,-1.1,-0.3,-1.5,-0.9c-0.3,-0.6,-0.5,-1.3,-0.5,-2.2c0,-0.9,0.2,-1.6,0.6,-2.2c0.3,-0.5,0.8,-0.8,1.5,-0.8c0.7,0,1.4,0.4,1.9,1.3l0,3.2c0,0.1,-0.1,0.3,-0.3,0.6Z" class="g5_17" />
<path d="M1469.8,188.8c0,-1.1,-0.2,-2,-0.8,-2.7c-0.6,-0.7,-1.4,-1,-2.2,-1c-1,0,-1.8,0.3,-2.5,1.1c-0.6,0.7,-0.9,1.7,-0.9,2.9c0,1.3,0.4,2.3,1,3c0.7,0.8,1.7,1.1,2.8,1.1c0.9,0,1.7,-0.1,2.3,-0.4l-0.2,-1c-0.7,0.3,-1.4,0.4,-2.1,0.4c-0.7,0,-1.3,-0.3,-1.8,-0.8c-0.5,-0.6,-0.8,-1.3,-0.8,-2.2l5.2,0l0,-0.4Zm-5.1,-0.6c0,-0.6,0.2,-1.1,0.6,-1.5c0.4,-0.4,0.9,-0.6,1.5,-0.6c0.5,0,0.9,0.2,1.2,0.6c0.4,0.4,0.6,0.9,0.6,1.5l-3.9,0Z" class="g5_17" />
<path d="M1476.2,189.1l2.7,-3.8l-1.2,0l-2.1,3l-2.1,-3l-1.3,0l2.7,3.8l-2.7,3.9l1.2,0l2.2,-3l2,3l1.3,0l-2.7,-3.9Z" class="g5_17" />
<path d="M1484,191.6c-0.2,0.2,-0.3,0.4,-0.3,0.7c0,0.2,0.1,0.5,0.3,0.6c0.2,0.2,0.4,0.3,0.6,0.3c0.3,0,0.5,-0.1,0.7,-0.3c0.2,-0.1,0.2,-0.4,0.2,-0.6c0,-0.3,0,-0.5,-0.2,-0.7c-0.2,-0.2,-0.4,-0.3,-0.7,-0.3c-0.2,0,-0.4,0.1,-0.6,0.3Z" class="g5_17" />
<path d="M1496.6,187.7c0,-1.7,-0.7,-2.6,-2.1,-2.6c-0.9,0,-1.8,0.4,-2.6,1.3l0,-3.9l-1.1,0l0,10.5l1.1,0l0,-5.6c0.8,-0.9,1.5,-1.3,2.2,-1.3c0.5,0,0.9,0.1,1.1,0.4c0.2,0.4,0.3,0.9,0.3,1.5l0,5l1.1,0l0,-5.3Z" class="g5_17" />
<path d="M1505.5,191.8c-0.6,0.3,-1.2,0.4,-1.8,0.4c-0.4,0,-0.7,-0.1,-0.9,-0.4c-0.2,-0.3,-0.3,-0.6,-0.3,-1.1l0,-4.4l2.6,0l0,-1l-2.6,0l0,-2.2l-1.1,0l0,2.2l-1.5,0l0,1l1.5,0l0,4.7c0,1.5,0.7,2.2,2.1,2.2c0.7,0,1.5,-0.2,2.2,-0.5l-0.2,-0.9Z" class="g5_17" />
<path d="M1515.3,187.6c0,-1.7,-0.5,-2.5,-1.4,-2.5c-0.3,0,-0.6,0.1,-0.9,0.3c-0.3,0.3,-0.6,0.6,-0.8,1c-0.1,-0.4,-0.2,-0.7,-0.5,-1c-0.2,-0.2,-0.5,-0.3,-0.8,-0.3c-0.3,0,-0.6,0.1,-0.9,0.3c-0.3,0.3,-0.5,0.6,-0.8,1l0,-1.1l-1.1,0l0,7.7l1.2,0l0,-5.6c0,0,0.1,-0.3,0.4,-0.7c0.3,-0.4,0.5,-0.6,0.7,-0.6c0.5,0,0.7,0.6,0.7,1.8l0,5.1l1.2,0l0,-5.6c0,0,0.1,-0.3,0.4,-0.7c0.3,-0.4,0.5,-0.6,0.7,-0.6c0.5,0,0.7,0.6,0.7,1.8l0,5.1l1.2,0l0,-5.4Z" class="g5_17" />
<path d="M1523.5,192.5l-2,0l0,-10l-4,0l0,1l2,0l0,10l4,0l0,-1Z" class="g5_17" />
<text 
transform="matrix(0.98, 0, 0, 1, 1435, 193)"
dx="0,0,0,0,0,0,0,0,0,0" 
class="s3_17"
>index.html</text>

<text 
transform="matrix(0.98, 0, 0, 1, 1528, 193)"
dx="0,0,0,0,0,0,-0.5,0,0,0,0" 
class="s2_17"
>file, copy </text>

<text 
transform="matrix(0.98, 0, 0, 1, 879, 214)"
dx="0,0,0,0,-0.5,0,0,0,0,-0.5,0,0,0,0,-0.5,0,0,0,-0.5,0,0,0,-0.5,0,0,0,0,0,-0.5,0,0,0,-0.5,0,0,0,0,-0.5,0,0,0,0,0,-0.5,0,0,-0.5,0,0,0,0,-0.5,0,0,0,-0.5,0,0,0,0,0,-0.5,0,0,0,0,0,-0.5" 
class="s2_17"
>the HTML code for the links and then paste it into the other files (</text>

<path d="M1312.2,212.6l0,-3.3c0,-1.9,-0.9,-2.8,-2.6,-2.8c-0.9,0,-1.9,0.2,-2.9,0.8l0.3,0.8c0.3,-0.2,0.7,-0.3,1.1,-0.4c0.4,-0.2,0.8,-0.2,1.1,-0.2c1.2,0,1.8,0.6,1.8,2l0,0.3l-1.3,0.1c-0.5,0.1,-1,0.2,-1.5,0.3c-0.4,0.1,-0.7,0.3,-1,0.5c-0.3,0.2,-0.5,0.4,-0.7,0.7c-0.1,0.3,-0.2,0.6,-0.2,1c0,0.7,0.2,1.2,0.6,1.6c0.5,0.4,1,0.6,1.5,0.6c1.1,0,2,-0.5,2.7,-1.4c0,0.5,0,0.9,0.1,1.2l1.2,0c-0.2,-0.5,-0.2,-1.1,-0.2,-1.8Zm-2.2,0.5c-0.4,0.3,-0.8,0.4,-1.2,0.4c-0.4,0,-0.7,-0.1,-1,-0.3c-0.2,-0.2,-0.3,-0.5,-0.3,-0.9c0,-0.3,0.1,-0.6,0.4,-0.9c0.3,-0.2,0.6,-0.4,1,-0.4c0.4,-0.1,1.1,-0.2,2.1,-0.3l0,1.4c-0.3,0.4,-0.6,0.8,-1,1Z" class="g5_17" />
<path d="M1316.4,203.9l-1.1,0l0,10.5l1.1,0l0,-1.1c0.3,0.4,0.6,0.7,1,1c0.4,0.2,0.9,0.3,1.3,0.3c0.9,0,1.6,-0.4,2.2,-1.2c0.5,-0.8,0.7,-1.8,0.7,-3c0,-1.2,-0.2,-2.1,-0.7,-2.9c-0.5,-0.7,-1.2,-1,-2.1,-1c-0.5,0,-0.9,0.1,-1.3,0.3c-0.5,0.2,-0.8,0.5,-1.1,0.9l0,-3.8Zm2.1,3.6c0.6,0,1.1,0.2,1.4,0.8c0.4,0.6,0.6,1.3,0.6,2.2c0,0.8,-0.2,1.6,-0.6,2.2c-0.4,0.6,-0.8,0.9,-1.5,0.9c-0.4,0,-0.7,-0.2,-1.1,-0.5c-0.4,-0.3,-0.7,-0.6,-0.9,-1.1l0,-3.2c0.6,-0.9,1.3,-1.3,2.1,-1.3Z" class="g5_17" />
<path d="M1324.7,207.6c-0.6,0.7,-0.9,1.7,-0.9,2.9c0,1.3,0.3,2.2,0.9,3c0.6,0.7,1.5,1.1,2.5,1.1c1.1,0,1.9,-0.4,2.5,-1.1c0.6,-0.8,1,-1.7,1,-3c0,-1.2,-0.4,-2.2,-1,-2.9c-0.6,-0.8,-1.4,-1.1,-2.5,-1.1c-1,0,-1.9,0.3,-2.5,1.1Zm0.9,5.1c-0.4,-0.6,-0.6,-1.3,-0.6,-2.2c0,-0.9,0.2,-1.6,0.6,-2.2c0.4,-0.5,0.9,-0.8,1.6,-0.8c0.7,0,1.3,0.3,1.7,0.8c0.4,0.6,0.6,1.3,0.6,2.2c0,0.9,-0.2,1.6,-0.6,2.2c-0.4,0.6,-1,0.9,-1.7,0.9c-0.7,0,-1.2,-0.3,-1.6,-0.9Z" class="g5_17" />
<path d="M1339.2,206.6l-1.2,0l0,5.7c-0.8,0.8,-1.5,1.3,-2.2,1.3c-0.5,0,-0.9,-0.2,-1.1,-0.5c-0.2,-0.3,-0.3,-0.8,-0.3,-1.5l0,-5l-1.1,0l0,5.4c0,1.7,0.7,2.6,2.1,2.6c0.9,0,1.8,-0.4,2.6,-1.3l0,1.1l1.2,0l0,-7.8Z" class="g5_17" />
<path d="M1348.1,213.2c-0.6,0.2,-1.3,0.4,-1.9,0.4c-0.3,0,-0.6,-0.1,-0.8,-0.4c-0.2,-0.3,-0.3,-0.6,-0.3,-1.1l0,-4.4l2.6,0l0,-1.1l-2.6,0l0,-2.1l-1.1,0l0,2.1l-1.5,0l0,1.1l1.5,0l0,4.7c0,1.5,0.6,2.2,2,2.2c0.7,0,1.5,-0.2,2.3,-0.5l-0.2,-0.9Z" class="g5_17" />
<path d="M1356.5,209.5l-5,0l0,1l5,0l0,-1Z" class="g5_17" />
<path d="M1366.2,206.6l-1.2,0l0,5.7c-0.8,0.8,-1.5,1.3,-2.2,1.3c-0.5,0,-0.8,-0.2,-1,-0.5c-0.3,-0.3,-0.4,-0.8,-0.4,-1.5l0,-5l-1.1,0l0,5.4c0,1.7,0.7,2.6,2.1,2.6c1,0,1.8,-0.4,2.6,-1.3l0,1.1l1.2,0l0,-7.8Z" class="g5_17" />
<path d="M1374.7,206.8c-0.8,-0.2,-1.5,-0.3,-2.1,-0.3c-0.9,0,-1.7,0.2,-2.3,0.5c-0.6,0.4,-0.8,1,-0.8,1.6c0,0.4,0,0.6,0.1,0.9c0.2,0.2,0.3,0.4,0.6,0.6c0.2,0.2,0.5,0.3,0.8,0.4c0.2,0.1,0.7,0.3,1.3,0.4c0.7,0.3,1.2,0.5,1.4,0.7c0.2,0.2,0.3,0.5,0.3,0.7c0,0.4,-0.2,0.7,-0.6,1c-0.4,0.2,-0.9,0.3,-1.6,0.3c-0.7,0,-1.4,-0.1,-2,-0.4l-0.3,1c0.6,0.3,1.4,0.4,2.4,0.4c0.9,0,1.7,-0.2,2.3,-0.6c0.6,-0.5,0.9,-1,0.9,-1.8c0,-0.4,-0.1,-0.7,-0.2,-1c-0.2,-0.3,-0.4,-0.5,-0.7,-0.7c-0.4,-0.2,-0.8,-0.4,-1.3,-0.5l-1.1,-0.3c-0.5,-0.2,-0.8,-0.3,-1,-0.5c-0.1,-0.2,-0.2,-0.4,-0.2,-0.6c0,-0.4,0.2,-0.6,0.5,-0.8c0.4,-0.3,0.9,-0.4,1.5,-0.4c0.6,0,1.2,0.1,1.8,0.4l0.3,-1Z" class="g5_17" />
<path d="M1380.6,213c-0.2,0.2,-0.3,0.4,-0.3,0.6c0,0.3,0.1,0.5,0.3,0.7c0.1,0.2,0.4,0.3,0.6,0.3c0.3,0,0.5,-0.1,0.7,-0.3c0.1,-0.2,0.2,-0.4,0.2,-0.7c0,-0.2,-0.1,-0.4,-0.2,-0.6c-0.2,-0.2,-0.4,-0.3,-0.7,-0.3c-0.2,0,-0.5,0.1,-0.6,0.3Z" class="g5_17" />
<path d="M1393.2,209.1c0,-1.8,-0.7,-2.6,-2.1,-2.6c-0.9,0,-1.8,0.4,-2.6,1.3l0,-3.9l-1.2,0l0,10.5l1.2,0l0,-5.6c0.8,-0.9,1.5,-1.3,2.2,-1.3c0.5,0,0.8,0.1,1.1,0.4c0.2,0.3,0.3,0.8,0.3,1.5l0,5l1.1,0l0,-5.3Z" class="g5_17" />
<path d="M1402.1,213.2c-0.6,0.2,-1.2,0.4,-1.9,0.4c-0.3,0,-0.6,-0.1,-0.8,-0.4c-0.2,-0.3,-0.3,-0.6,-0.3,-1.1l0,-4.4l2.6,0l0,-1.1l-2.6,0l0,-2.1l-1.1,0l0,2.1l-1.5,0l0,1.1l1.5,0l0,4.7c0,1.5,0.7,2.2,2,2.2c0.8,0,1.5,-0.2,2.3,-0.5l-0.2,-0.9Z" class="g5_17" />
<path d="M1411.8,209c0,-1.7,-0.4,-2.5,-1.4,-2.5c-0.2,0,-0.5,0.1,-0.8,0.3c-0.3,0.3,-0.6,0.6,-0.8,1c-0.1,-0.4,-0.3,-0.7,-0.5,-1c-0.3,-0.2,-0.5,-0.3,-0.8,-0.3c-0.3,0,-0.6,0.1,-0.9,0.3c-0.3,0.3,-0.6,0.6,-0.8,1l0,-1.2l-1.1,0l0,7.8l1.2,0l0,-5.6c0,0,0.1,-0.3,0.4,-0.7c0.3,-0.4,0.5,-0.6,0.7,-0.6c0.5,0,0.7,0.6,0.7,1.8l0,5.1l1.1,0l0,-5.6c0,0,0.2,-0.3,0.5,-0.7c0.2,-0.4,0.5,-0.6,0.7,-0.6c0.5,0,0.7,0.6,0.7,1.8l0,5.1l1.1,0l0,-5.4Z" class="g5_17" />
<path d="M1419.5,213.5l-2,0l0,-10l-3,0l0,1l2,0l0,10l3,0l0,-1Z" class="g5_17" />
<text 
transform="matrix(0.98, 0, 0, 1, 1304, 214)"
dx="0,0,0,0,0,0,0,0,0,0,0,0,0" 
class="s3_17"
>about-us.html</text>

<text 
transform="matrix(0.98, 0, 0, 1, 1421, 214)"
dx="0,0" 
class="s2_17"
>, </text>

<path d="M1431.6,207.6c-0.6,0.7,-0.9,1.7,-0.9,2.9c0,1.3,0.3,2.2,0.9,3c0.6,0.7,1.4,1.1,2.5,1.1c1.1,0,1.9,-0.4,2.5,-1.1c0.6,-0.8,0.9,-1.7,0.9,-3c0,-1.2,-0.3,-2.2,-0.9,-2.9c-0.6,-0.8,-1.4,-1.1,-2.5,-1.1c-1,0,-1.9,0.3,-2.5,1.1Zm0.9,5.1c-0.4,-0.6,-0.6,-1.3,-0.6,-2.2c0,-0.9,0.2,-1.6,0.6,-2.2c0.3,-0.5,0.9,-0.8,1.6,-0.8c0.7,0,1.3,0.3,1.7,0.8c0.3,0.6,0.5,1.3,0.5,2.2c0,0.9,-0.2,1.6,-0.6,2.2c-0.4,0.6,-0.9,0.9,-1.6,0.9c-0.7,0,-1.2,-0.3,-1.6,-0.9Z" class="g5_17" />
<path d="M1446.1,206.6l-1.2,0l0,5.7c-0.8,0.8,-1.5,1.3,-2.2,1.3c-0.5,0,-0.9,-0.2,-1.1,-0.5c-0.2,-0.3,-0.3,-0.8,-0.3,-1.5l0,-5l-1.1,0l0,5.4c0,1.7,0.7,2.6,2.1,2.6c0.9,0,1.8,-0.4,2.6,-1.3l0,1.1l1.2,0l0,-7.8Z" class="g5_17" />
<path d="M1453.5,206.5c-1,0,-1.7,0.5,-2.4,1.7l0,-1.6l-1.1,0l0,7.8l1.1,0l0,-5c0,-0.1,0.2,-0.3,0.4,-0.6c0.3,-0.4,0.6,-0.7,0.9,-0.9c0.4,-0.2,0.7,-0.3,1,-0.3c0.4,0,0.8,0.1,1.3,0.4l0.5,-1.1c-0.5,-0.3,-1.1,-0.4,-1.7,-0.4Z" class="g5_17" />
<path d="M1463.5,209.5l-5,0l0,1l5,0l0,-1Z" class="g5_17" />
<path d="M1472.5,206.8c-0.7,-0.2,-1.4,-0.3,-2,-0.3c-1,0,-1.7,0.2,-2.3,0.5c-0.6,0.4,-0.9,1,-0.9,1.6c0,0.4,0.1,0.6,0.2,0.9c0.1,0.2,0.3,0.4,0.6,0.6c0.2,0.2,0.5,0.3,0.7,0.4c0.3,0.1,0.8,0.3,1.4,0.4c0.7,0.3,1.1,0.5,1.3,0.7c0.2,0.2,0.3,0.5,0.3,0.7c0,0.4,-0.2,0.7,-0.6,1c-0.4,0.2,-0.9,0.3,-1.5,0.3c-0.7,0,-1.4,-0.1,-2.1,-0.4l-0.2,1c0.6,0.3,1.4,0.4,2.3,0.4c1,0,1.8,-0.2,2.4,-0.6c0.6,-0.5,0.9,-1,0.9,-1.8c0,-0.4,-0.1,-0.7,-0.3,-1c-0.1,-0.3,-0.3,-0.5,-0.7,-0.7c-0.3,-0.2,-0.7,-0.4,-1.2,-0.5l-1.1,-0.3c-0.5,-0.2,-0.8,-0.3,-1,-0.5c-0.2,-0.2,-0.2,-0.4,-0.2,-0.6c0,-0.4,0.1,-0.6,0.5,-0.8c0.4,-0.3,0.9,-0.4,1.5,-0.4c0.5,0,1.2,0.1,1.8,0.4l0.2,-1Z" class="g5_17" />
<path d="M1476.6,207.6c-0.6,0.7,-0.9,1.7,-0.9,2.9c0,1.3,0.3,2.2,0.9,3c0.6,0.7,1.5,1.1,2.5,1.1c1.1,0,1.9,-0.4,2.5,-1.1c0.7,-0.8,1,-1.7,1,-3c0,-1.2,-0.3,-2.2,-1,-2.9c-0.6,-0.8,-1.4,-1.1,-2.5,-1.1c-1,0,-1.9,0.3,-2.5,1.1Zm0.9,5.1c-0.4,-0.6,-0.6,-1.3,-0.6,-2.2c0,-0.9,0.2,-1.6,0.6,-2.2c0.4,-0.5,0.9,-0.8,1.6,-0.8c0.7,0,1.3,0.3,1.7,0.8c0.4,0.6,0.6,1.3,0.6,2.2c0,0.9,-0.2,1.6,-0.6,2.2c-0.4,0.6,-1,0.9,-1.7,0.9c-0.7,0,-1.2,-0.3,-1.6,-0.9Z" class="g5_17" />
<path d="M1491.1,209.1c0,-1.8,-0.7,-2.6,-2.1,-2.6c-1,0,-1.8,0.4,-2.6,1.3l0,-1.2l-1.2,0l0,7.8l1.2,0l0,-5.6c0.8,-0.9,1.5,-1.3,2.2,-1.3c0.5,0,0.8,0.1,1,0.4c0.3,0.3,0.4,0.8,0.4,1.5l0,5l1.1,0l0,-5.3Z" class="g5_17" />
<path d="M1496.8,211.5c0.7,0,1.3,-0.2,1.8,-0.7c0.5,-0.5,0.8,-1.1,0.8,-1.8c0,-0.6,-0.2,-1,-0.4,-1.4l1.5,0l0,-1.1l-2.3,0.3c-0.4,-0.2,-0.9,-0.3,-1.4,-0.3c-0.7,0,-1.4,0.2,-1.8,0.7c-0.5,0.4,-0.8,1,-0.8,1.8c0,0.4,0.1,0.9,0.4,1.3c0.2,0.4,0.5,0.7,0.9,0.9c-0.9,0.5,-1.3,1,-1.3,1.6c0,0.4,0.3,0.8,1,1.2c-0.8,0.4,-1.2,0.9,-1.2,1.6c0,0.5,0.2,1,0.8,1.4c0.5,0.3,1.2,0.5,2,0.5c1.1,0,2,-0.3,2.7,-0.8c0.8,-0.5,1.2,-1.2,1.2,-2.1c0,-0.6,-0.2,-1,-0.5,-1.3c-0.4,-0.3,-0.8,-0.4,-1.4,-0.4l-2.6,0c-0.3,0,-0.5,0,-0.7,-0.1c-0.1,-0.1,-0.2,-0.2,-0.2,-0.4c0,-0.2,0.3,-0.6,1,-0.9c0.2,0,0.3,0,0.5,0Zm-1,-1.4c-0.3,-0.3,-0.4,-0.6,-0.4,-1.1c0,-0.5,0.1,-0.9,0.4,-1.2c0.2,-0.3,0.6,-0.4,1,-0.4c0.4,0,0.8,0.1,1,0.4c0.3,0.3,0.4,0.7,0.4,1.2c0,0.5,-0.1,0.9,-0.4,1.2c-0.2,0.2,-0.6,0.4,-1,0.4c-0.4,0,-0.8,-0.2,-1,-0.5Zm-0.3,6.2c-0.3,-0.3,-0.5,-0.5,-0.5,-0.8c0,-0.2,0.1,-0.4,0.2,-0.6c0.1,-0.2,0.3,-0.3,0.5,-0.5c0.3,-0.2,0.4,-0.3,0.5,-0.3c0.2,0,0.5,0,0.9,0c0.6,0,1.1,-0.1,1.3,-0.1c0.8,0,1.2,0.3,1.2,0.8c0,0.5,-0.3,0.9,-0.8,1.3c-0.6,0.3,-1.2,0.5,-2,0.5c-0.5,0,-0.9,-0.1,-1.3,-0.3Z" class="g5_17" />
<path d="M1508.6,206.8c-0.8,-0.2,-1.5,-0.3,-2.1,-0.3c-0.9,0,-1.7,0.2,-2.3,0.5c-0.5,0.4,-0.8,1,-0.8,1.6c0,0.4,0,0.6,0.1,0.9c0.2,0.2,0.4,0.4,0.6,0.6c0.2,0.2,0.5,0.3,0.8,0.4c0.3,0.1,0.7,0.3,1.3,0.4c0.7,0.3,1.2,0.5,1.4,0.7c0.2,0.2,0.3,0.5,0.3,0.7c0,0.4,-0.2,0.7,-0.6,1c-0.4,0.2,-0.9,0.3,-1.6,0.3c-0.7,0,-1.4,-0.1,-2,-0.4l-0.3,1c0.7,0.3,1.4,0.4,2.4,0.4c0.9,0,1.7,-0.2,2.3,-0.6c0.6,-0.5,0.9,-1,0.9,-1.8c0,-0.4,-0.1,-0.7,-0.2,-1c-0.2,-0.3,-0.4,-0.5,-0.7,-0.7c-0.4,-0.2,-0.8,-0.4,-1.3,-0.5l-1.1,-0.3c-0.5,-0.2,-0.8,-0.3,-1,-0.5c-0.1,-0.2,-0.2,-0.4,-0.2,-0.6c0,-0.4,0.2,-0.6,0.5,-0.8c0.4,-0.3,0.9,-0.4,1.5,-0.4c0.6,0,1.2,0.1,1.8,0.4l0.3,-1Z" class="g5_17" />
<path d="M1514.5,213c-0.2,0.2,-0.3,0.4,-0.3,0.6c0,0.3,0.1,0.5,0.3,0.7c0.2,0.2,0.4,0.3,0.6,0.3c0.3,0,0.5,-0.1,0.7,-0.3c0.1,-0.2,0.2,-0.4,0.2,-0.7c0,-0.2,-0.1,-0.4,-0.2,-0.6c-0.2,-0.2,-0.4,-0.3,-0.7,-0.3c-0.2,0,-0.5,0.1,-0.6,0.3Z" class="g5_17" />
<path d="M1527.1,209.1c0,-1.8,-0.7,-2.6,-2.1,-2.6c-0.9,0,-1.8,0.4,-2.6,1.3l0,-3.9l-1.2,0l0,10.5l1.2,0l0,-5.6c0.8,-0.9,1.5,-1.3,2.2,-1.3c0.5,0,0.8,0.1,1.1,0.4c0.2,0.3,0.3,0.8,0.3,1.5l0,5l1.1,0l0,-5.3Z" class="g5_17" />
<path d="M1536,213.2c-0.6,0.2,-1.2,0.4,-1.8,0.4c-0.4,0,-0.7,-0.1,-0.9,-0.4c-0.2,-0.3,-0.3,-0.6,-0.3,-1.1l0,-4.4l2.6,0l0,-1.1l-2.6,0l0,-2.1l-1.1,0l0,2.1l-1.5,0l0,1.1l1.5,0l0,4.7c0,1.5,0.7,2.2,2,2.2c0.8,0,1.5,-0.2,2.3,-0.5l-0.2,-0.9Z" class="g5_17" />
<path d="M1545.7,209c0,-1.7,-0.4,-2.5,-1.3,-2.5c-0.3,0,-0.6,0.1,-0.9,0.3c-0.3,0.3,-0.6,0.6,-0.8,1c-0.1,-0.4,-0.3,-0.7,-0.5,-1c-0.2,-0.2,-0.5,-0.3,-0.8,-0.3c-0.3,0,-0.6,0.1,-0.9,0.3c-0.3,0.3,-0.6,0.6,-0.8,1l0,-1.2l-1.1,0l0,7.8l1.2,0l0,-5.6c0,0,0.1,-0.3,0.4,-0.7c0.3,-0.4,0.5,-0.6,0.7,-0.6c0.5,0,0.7,0.6,0.7,1.8l0,5.1l1.2,0l0,-5.6c0,0,0.1,-0.3,0.4,-0.7c0.2,-0.4,0.5,-0.6,0.7,-0.6c0.5,0,0.7,0.6,0.7,1.8l0,5.1l1.1,0l0,-5.4Z" class="g5_17" />
<path d="M1553.5,213.5l-2,0l0,-10l-3,0l0,1l2,0l0,10l3,0l0,-1Z" class="g5_17" />
<text 
transform="matrix(0.98, 0, 0, 1, 1429, 214)"
dx="0,0,0,0,0,0,0,0,0,0,0,0,0,0" 
class="s3_17"
>our-songs.html</text>

<text 
transform="matrix(0.98, 0, 0, 1, 1555, 214)"
dx="0,0,-0.5,0,0,0" 
class="s2_17"
>, and </text>

<text 
transform="matrix(0.98, 0, 0, 1, 879, 235)"
dx="0,0,0,-0.9,0,0,0,0,-0.9,-0.3,0,0,0,-0.3,-1.2,0,0,0,0,-0.9,0,0,0,-0.9,0,-0.9,0,0,0,0,-0.9,0,0,0,0,-0.9,0,0,-0.9,0,0,0,-0.9,0,0,0,0,-0.9,0,0,0,0" 
class="s2_17"
>so on.) We’ll also add a link back to the home page.</text>

<text 
x="1369" 
y="834" 
dx="0,0" 
class="s4_17"
>2.</text>

<text 
x="1396" 
y="834" 
dx="0,0,0,0,0,1.2,0,0,0,1.2,0,0,0,0,0,1.2,0,0,0,0,1.2,0,0,0,0,0.3,-1.4,0" 
class="s2_17"
>Copy the links into memory. </text>

<text 
x="1369" 
y="856" 
dx="0,-1.4,0,0" 
class="s2_17"
>You </text>

<text 
x="1412" 
y="856" 
dx="0,0,0,0" 
class="s2_17"
>can </text>

<text 
x="1455" 
y="856" 
dx="0,0,0,0" 
class="s2_17"
>use </text>

<text 
x="1498" 
y="856" 
dx="0,0" 
class="s2_17"
>a </text>

<text 
x="1525" 
y="856" 
dx="0,0,0,0,0,0,0,-0.3,0" 
class="s2_17"
>keyboard </text>

<text 
x="1369" 
y="877" 
dx="0,0,0,0,0.3,0,0,0,0,4.6,0,0,4.6,0,0,4.6,0,0,0,0,4.6,0,4.6,0,0,0,0,4.6,0,0" 
class="s2_17"
>shortcut to do this – such as </text>

<text 
x="1369" 
y="898" 
dx="0,0,0,0,0,0" 
class="s5_17"
>Ctrl-C</text>

<text 
x="1420" 
y="898" 
dx="0,0,0,0,4.5,0,0,0,0,0,0,0,4.5,0,0,0,4.5,0,0,0,0,0" 
class="s2_17"
>for Windows and Linux </text>

<text 
x="1369" 
y="920" 
dx="0,0,0,0,0,0,0,0,10.7,0,0" 
class="s2_17"
>systems or </text>

<text 
x="1468" 
y="920" 
dx="0,0" 
class="s6_17"
>⌘-</text>

<text 
x="1489" 
y="920" 
dx="0" 
class="s5_17"
>C</text>

<text 
x="1515" 
y="920" 
dx="0,0,0,0,10.7,0,0,0,0,0" 
class="s2_17"
>for Macs. </text>

<text 
x="1369" 
y="941" 
dx="0,0,0,0,0,0,0,0,0,0,0,0,0,0,0,0,0,0,0,0,0,0,0,0,0,0,0,0,0,0" 
class="s2_17"
>Open one of the web pages you </text>

<text 
x="1369" 
y="963" 
dx="0,0,0,0,0,0.3,0,0,0,0,0,0,0,0.3,0,0,0.3,0,0,0,0.3,0,0,0,0,0,0,0.3,0,0,0,0.3,0,0,0" 
class="s2_17"
>made earlier in the Editor (in the </text>

<text 
x="1369" 
y="984" 
dx="0,0,0,0,0,0,0,0,2.6,0,0,0,0,0,0,0,0,0,2.6,0,0,0,0,0,2.6,0,0,0,2.6,0,0,0" 
class="s2_17"
>example overleaf, we’ll use the </text>

<text 
x="1369" 
y="1005" 
dx="0,0,0,0,0,0,0,0,-0.9,0,-0.9,0,0,0,0,0,0.3,0,-0.9,0,0,0,0,0,0" 
class="s2_17"
>Playing a Concert page). </text>

<text 
x="56" 
y="128" 
dx="0,-1.4,0,0,-0.4,0,0,0,-0.4,0,0,0,0,-0.4,0,0,0,0,0,0,0,-0.4,0,0,0,0,-0.4,0,0,-0.4,0,0,0,-0.4,0,0,-0.3,0,0,-0.4,0,0,-0.3,0,0,-0.3,0,0,0,-0.5,0,0,0,0,0,-0.4,0,0,-0.4,0,0,0,0,0,-0.3,0,0,0,0,0,0,-0.4,0,0,-0.4,0,0,0,-0.4,0,0,0,0,0,0,0,0,0,0,0" 
class="s2_17"
>You may have spotted that we use three different types of measurements in our stylesheets:</text>

<path d="M676.1,121.1l-1.2,0l0,10.8l1.2,0l0,-4.2c0.2,0.4,0.6,0.8,1,1c0.4,0.2,0.9,0.4,1.3,0.4c0.9,0,1.7,-0.4,2.2,-1.2c0.5,-0.8,0.8,-1.8,0.8,-3c0,-1.2,-0.3,-2.2,-0.8,-2.9c-0.5,-0.7,-1.2,-1.1,-2.1,-1.1c-0.5,0,-0.9,0.1,-1.4,0.3c-0.4,0.2,-0.8,0.5,-1,0.9l0,-1Zm2.1,0.8c0.6,0,1.1,0.3,1.5,0.9c0.3,0.5,0.5,1.3,0.5,2.2c0,0.8,-0.2,1.6,-0.6,2.1c-0.3,0.6,-0.8,0.9,-1.5,0.9c-0.4,0,-0.7,-0.1,-1.1,-0.4c-0.4,-0.3,-0.7,-0.7,-0.9,-1.1l0,-3.2c0.6,-0.9,1.3,-1.4,2.1,-1.4Z" class="g6_17" />
<path d="M687.6,124.9l2.8,-3.8l-1.3,0l-2.1,3l-2.1,-3l-1.3,0l2.7,3.9l-2.7,3.9l1.2,0l2.2,-3.1l2,3.1l1.4,0l-2.8,-4Z" class="g6_17" />
<text 
x="673" 
y="128" 
dx="0,0" 
class="s3_17"
>px</text>

<text 
x="691" 
y="128" 
dx="0,0" 
class="s2_17"
>, </text>

<path d="M707.5,124.6c0,-1.1,-0.3,-2,-0.9,-2.7c-0.6,-0.7,-1.3,-1,-2.2,-1c-1,0,-1.8,0.4,-2.5,1.1c-0.6,0.7,-0.9,1.7,-0.9,3c0,1.2,0.3,2.2,1,3c0.7,0.7,1.7,1.1,2.8,1.1c0.9,0,1.7,-0.2,2.4,-0.5L707,127.7c-0.7,0.2,-1.5,0.3,-2.2,0.3c-0.7,0,-1.3,-0.2,-1.8,-0.8c-0.5,-0.6,-0.8,-1.3,-0.8,-2.2l5.3,0l0,-0.4Zm-5.2,-0.5c0,-0.7,0.2,-1.2,0.6,-1.6c0.4,-0.4,0.9,-0.6,1.5,-0.6c0.5,0,0.9,0.2,1.3,0.6c0.4,0.4,0.6,1,0.6,1.6l-4,0Z" class="g6_17" />
<path d="M717.1,123.4c0,-1.7,-0.5,-2.5,-1.4,-2.5c-0.3,0,-0.6,0.1,-0.9,0.4c-0.3,0.2,-0.6,0.5,-0.8,1c-0.1,-0.5,-0.3,-0.8,-0.5,-1c-0.3,-0.3,-0.6,-0.4,-0.9,-0.4c-0.3,0,-0.6,0.1,-0.9,0.4c-0.3,0.2,-0.5,0.5,-0.7,1l0,-1.2l-1.2,0l0,7.8l1.2,0l0,-5.6c0,-0.1,0.1,-0.3,0.4,-0.8c0.3,-0.4,0.6,-0.6,0.8,-0.6c0.4,0,0.7,0.6,0.7,1.9l0,5.1l1.1,0l0,-5.6c0,-0.1,0.2,-0.3,0.5,-0.8c0.2,-0.4,0.5,-0.6,0.7,-0.6c0.5,0,0.7,0.6,0.7,1.9l0,5.1l1.2,0l0,-5.5Z" class="g6_17" />
<text 
x="699" 
y="128" 
dx="0,0" 
class="s3_17"
>em</text>

<text 
x="721" 
y="128" 
dx="0,0,0,0" 
class="s2_17"
>and </text>

<path d="M752.9,118.8c-0.4,0.5,-0.6,1.1,-0.6,1.8c0,0.8,0.2,1.4,0.6,1.8c0.4,0.5,0.9,0.7,1.5,0.7c0.7,0,1.2,-0.2,1.6,-0.7c0.3,-0.4,0.5,-1,0.5,-1.8c0,-0.7,-0.2,-1.3,-0.5,-1.8c-0.4,-0.4,-0.9,-0.7,-1.6,-0.7c-0.6,0,-1.1,0.3,-1.5,0.7Zm0.5,1.8c0,-1,0.3,-1.6,1,-1.6c0.7,0,1.1,0.6,1.1,1.6c0,1.1,-0.4,1.6,-1.1,1.6c-0.7,0,-1,-0.5,-1,-1.6Zm5.4,-2.3l-5.6,10.6l1.1,0l5.5,-10.6l-1,0Zm-1.7,6.5c-0.4,0.5,-0.6,1.1,-0.6,1.8c0,0.7,0.2,1.3,0.6,1.8c0.4,0.4,0.9,0.7,1.6,0.7c0.6,0,1.1,-0.3,1.5,-0.7c0.4,-0.5,0.6,-1.1,0.6,-1.8c0,-0.8,-0.2,-1.4,-0.6,-1.8c-0.4,-0.5,-0.9,-0.7,-1.5,-0.7c-0.7,0,-1.2,0.2,-1.6,0.7Zm0.5,1.8c0,-1.1,0.4,-1.6,1.1,-1.6c0.6,0,1,0.5,1,1.6c0,1,-0.4,1.6,-1,1.6c-0.7,0,-1.1,-0.6,-1.1,-1.6Z" class="g6_17" />
<path d="M765,127.4c-0.2,0.2,-0.3,0.4,-0.3,0.7c0,0.3,0.1,0.5,0.3,0.7c0.2,0.2,0.4,0.3,0.7,0.3c0.2,0,0.4,-0.1,0.6,-0.3c0.2,-0.2,0.3,-0.4,0.3,-0.7c0,-0.3,-0.1,-0.5,-0.3,-0.7c-0.1,-0.2,-0.4,-0.2,-0.6,-0.2c-0.3,0,-0.5,0,-0.7,0.2Z" class="g6_17" />
<text 
x="751" 
y="128" 
dx="0,0" 
class="s3_17"
>%.</text>

<text 
x="56" 
y="150" 
dx="0,0,0,0,0,-1.1,0,-0.9,0,0,0,-0.9,0,0,-0.3,0,0,-0.3,0,0,0,0,-0.9,0,0,0,-0.9,0,0,0,-0.3,0,-0.9,0,0,-0.9,0,0,-0.9,0,0,0,-0.9,0,0,0,0" 
class="s2_17"
>What’s the difference and where do we use them?</text>

<path d="M49,204l0,5l-4,0l0,27l4,0l0,4l90,0l0,-4l5,0l0,-27l-5,0l0,-5Z" class="g7_17" />
<text 
x="85" 
y="225" 
dx="0,0" 
class="s7_17"
>px</text>

<text 
x="166" 
y="225" 
dx="0,-1.4,0,0,0,-0.1,0,0,-0.3,0,0,0,-0.1,0,0,0,0,0,-0.1,0,0,-0.1,0,0,0,0,-0.1,0,0,-0.1,0,0,-0.1,0,0,0,0,-0.1,0,0,0,0,-0.1,0,0,0,0,0,0" 
class="s2_17"
>Your screen image is made up of tiny dots called </text>

<text 
x="166" 
y="246" 
dx="0,0,0,-0.1,0,0" 
class="s5_17"
>pixels</text>

<text 
x="210" 
y="246" 
dx="0,0,2.9,0,0,0,2.9,0,0,0,-0.3,0,0,0,0,0,0,0,0,2.9,0,0,0,2.9,0,2.9,0,0,0,0,0,2.9,0,0" 
class="s2_17"
>. The abbreviation for a pixel is </text>

<text 
x="443" 
y="246" 
dx="0,0" 
class="s5_17"
>px</text>

<text 
x="461" 
y="246" 
dx="0,0,2.9,0,0,0" 
class="s2_17"
>. The </text>

<text 
x="166" 
y="267" 
dx="0,0,0,0,0,0,0,0,0,1,0,0,0,0,1,0,0,0,1,0,0,0,0,0,1,0,0,0,1,0,0,1,0,0,0,1,0,0,-0.3,0,0,0,1,0,0,0,0,0" 
class="s2_17"
>thinnest line you could see on the screen would </text>

<text 
x="166" 
y="289" 
dx="0,0,0,1.9,0,0,0,1.9,0,0,1.9,0,0,0,0,0,0,1.9,0,0,0,1.9,0,0,0,0,0,0,0,0,1.9,0,0,0,0,0,1.9,0,0,0,1.9,0,0,0,0,0" 
class="s2_17"
>be 1px in width. The smallest shape you could </text>

<text 
x="166" 
y="310" 
dx="0,0,0,0,-0.9,0,0,0,0,0,-0.9,0,0,-0.9,0,-0.9,0,0,0,-0.9,0,0,-0.9,0,0,0,-0.9,0,0,0" 
class="s2_17"
>see would be a 1px by 1px dot.</text>

<text 
x="533" 
y="225" 
dx="0,0,0,0,0.9,0,0,0,0,0,0,0.9,0,0,0,0,0.9,0,0,0,0.9,0,0,0,0,0.9,0,0,0.9,0,0,0,0" 
class="s2_17"
>Use pixels when you want to give </text>

<text 
x="533" 
y="246" 
dx="0,0,0,2,0,0,0,0,0,2,0,0,0,0,0,2,0,0,2,0,0,0,0,0,0,0,0,0,0,2,0,0,0" 
class="s2_17"
>an exact width to something. But </text>

<text 
x="533" 
y="267" 
dx="0,0,0,0,0,6.1,0,0,6.1,0,0,0,0,6.1,0,0,0,0,0,6.1,0,0,0,0,0,0,6.1,0,0,0,0,0" 
class="s2_17"
>only if that width should never </text>

<text 
x="533" 
y="289" 
dx="0,0,0,0,0,0,0,0,3.6,0,0,0,0,3.6,0,0,3.6,0,0,0,3.6,0,0,-0.3,0,0,0,3.6,0,0,0,0" 
class="s2_17"
>change, even if the screen gets </text>

<text 
x="533" 
y="310" 
dx="0,0,0,0,0,0,-0.7,0,0,-0.7,0,0,0,-0.3,0,0,0,-1.4,0,-0.7,0,0,0,-0.7,0,0,0,0,0,0,0,-0.7,0,0,0" 
class="s2_17"
>wider or narrower. For example the </text>

<text 
x="533" 
y="332" 
dx="0,0,0,0,0,0,0.2,0,0,0.2,0,0.2,0,0,-0.3,0,0,0,0.2,0,0,0.2,0,0,0,0.2,0,0,0,0,0,0,0.2,0,0" 
class="s2_17"
>width of a border or the amount of </text>

<text 
x="533" 
y="353" 
dx="0,0,0,0,0,0,0,0,2.8,0,0,0,0,0,0,0,2.8,0,0,0,2.8,0,0,-0.3,0,0,2.8,0,0,0" 
class="s2_17"
>padding between the words and </text>

<text 
x="533" 
y="374" 
dx="0,0,0,0,-0.9,0,0,0,0,-0.9,0,0,-0.9,0,0,-0.9,0,0,0,0,0,0,0" 
class="s2_17"
>the edge of an element.</text>

<text 
x="166" 
y="417" 
dx="0,0,0" 
class="s2_17"
>An </text>

<text 
x="191" 
y="417" 
dx="0,0" 
class="s5_17"
>em</text>

<text 
x="219" 
y="417" 
dx="0,0,0,1.4,0,0,0,0,0,1.4,0,0,0,1.4,0,0,0,0,0,1.4,0,0,1.4,0,0,0,1.4,0,0,0,0,0,0,0,1.4,0,0,0,1.4,0,0,0" 
class="s2_17"
>is about the width of two letters (we say </text>

<text 
x="166" 
y="439" 
dx="0,0,0,0,0,0,0,0,4.1,0,0,0,0,0,0,0,4.1,0,0,0,0,0,0,0,4.1,0,0,0,0,4.1,0,0,-0.3,0,0,-0.3,0,0,0,4.1,0,0,0,0,0,0,0,0" 
class="s2_17"
>‘about’ because letters have different widths!) </text>

<text 
x="166" 
y="460" 
dx="0,-0.3,0,6,0,0,0,6,0,0,0,6,0,0,6,0,0,0,0,0,-0.3,0,0,0,0,0,6,0,0,0,0,0,0,0,6,0,0,6,0,0" 
class="s2_17"
>We use the em measurement because it is </text>

<text 
x="166" 
y="481" 
dx="0,0,0,0,0,0,0,0,0,0,0,1.6,0,0,1.6,-0.3,0,0,0,0,0,0,0,1.6,0,0,1.6,0,0,0,1.6,0,0,0,0,1.6,0,0,0,0,0,1.6,0,0,1.6,0,0,1.6,0,0,0,0" 
class="s2_17"
>calculated in relation to the font size. So if your </text>

<text 
x="166" 
y="503" 
dx="0,0,0,0,0,-0.3,0,0,0,0,-0.3,0,0,0,0,-0.3,0,0,0,0,0,-1.4,0,-0.3,0,0,0,-0.3,0,0,0,0,0,-0.3,0,0,0,0,0,0,0,-0.3,0,0,0,-0.3,0,0,-0.3,0,0" 
class="s2_17"
>font size gets bigger, the width allowed for 50 em </text>

<text 
x="166" 
y="524" 
dx="0,0,0,0,0,2,0,0,0,-0.3,0,0,0,0,0,2,0,0,0,2,0,0,0,0,2,-0.3,0,0,0,0,0,2,0,0,2,0,0,2,0,0,2,0,0,0,0,0,0,2,0" 
class="s2_17"
>will increase. For this reason an em is called a </text>

<text 
x="166" 
y="545" 
dx="0,0,0,0,0,0,0,0" 
class="s5_17"
>relative</text>

<text 
x="223" 
y="545" 
dx="0,0,0,0,0,0,-0.3,0,0,0,0,0" 
class="s2_17"
>measurement.</text>

<text 
x="166" 
y="588" 
dx="0,0,0,0,0,-0.9,0,0,-0.9,0,0,0,0,0,0,0,-0.9,0,0,0,-0.9,0,-0.9,0,0,-0.3,0,0,0,0,0,0,0,-0.9,0,0,0,0,0,0,-0.9,0,0" 
class="s2_17"
>When an element has a percentage width, the</text>

<text 
x="166" 
y="610" 
dx="0,0,0,-0.3,0,0,0,0,0,0,0,0.3,0,0,0.3,0,0,0,0,0,-0.3,0,0,0.3,0,0,0,0,0,0,0,0.3,0,0,0,0.3,0,0,0,0,0,0.3,0,0,0.3,0,0,0" 
class="s2_17"
>percentage is measured against the width of the </text>

<text 
x="166" 
y="631" 
dx="0,0,0,0,0,0,0,0,-0.3,0,0,0,0,-0.3,0,0,0,0,0,0,0,0,-0.3,0,0,-0.3,0,-0.3,0,0,0,0,0,0,0,-0.3,0,0,0,0,-0.3,0,0,0,0,0,0,0,0" 
class="s2_17"
>element that contains it (remember that elements </text>

<text 
x="166" 
y="652" 
dx="0,0,-0.3,0,1.5,0,0,0,0,0,0,1.5,0,0,0,0,0,0,1.5,0,0,0,0,1.5,0,0,0,0,0,0,0,1.5,0,0,1.5,0,0,1.5,0,0,0,1.5,0,0,0,1.5,0,0,0" 
class="s2_17"
>are nested inside each other!) So if you set the </text>

<text 
x="166" 
y="674" 
dx="0,0,0,0,0,0,3.2,0,0,3.2,0" 
class="s2_17"
>width of a </text>

<path d="M251.4,663.8c-0.1,0.2,-0.2,0.4,-0.2,0.6c0,0.2,0.1,0.4,0.2,0.5c0.2,0.2,0.4,0.3,0.6,0.3c0.2,0,0.4,-0.1,0.5,-0.3c0.2,-0.1,0.3,-0.3,0.3,-0.5c0,-0.3,-0.1,-0.4,-0.3,-0.6c-0.1,-0.2,-0.3,-0.2,-0.5,-0.2c-0.2,0,-0.4,0,-0.6,0.2Zm1.1,2.7l-3.4,0l0,1l2.3,0l0,6.8l1.1,0l0,-7.8Z" class="g6_17" />
<path d="M264.3,668.8c0,-1.6,-0.5,-2.5,-1.4,-2.5c-0.3,0,-0.6,0.1,-0.9,0.4c-0.3,0.2,-0.6,0.6,-0.8,1c-0.1,-0.4,-0.3,-0.8,-0.5,-1c-0.3,-0.3,-0.6,-0.4,-0.9,-0.4c-0.3,0,-0.6,0.1,-0.9,0.4c-0.3,0.2,-0.5,0.6,-0.8,1l0,-1.2l-1.1,0l0,7.8l1.2,0l0,-5.6c0,-0.1,0.1,-0.3,0.4,-0.7c0.3,-0.5,0.5,-0.7,0.8,-0.7c0.4,0,0.7,0.6,0.7,1.9l0,5.1l1.1,0l0,-5.6c0,-0.1,0.2,-0.3,0.4,-0.7c0.3,-0.5,0.6,-0.7,0.8,-0.7c0.5,0,0.7,0.6,0.7,1.9l0,5.1l1.2,0l0,-5.5Z" class="g6_17" />
<path d="M269.4,671.4c0.8,0,1.4,-0.3,1.9,-0.8c0.5,-0.5,0.8,-1.1,0.8,-1.8c0,-0.5,-0.2,-1,-0.4,-1.3l1.5,0l0,-1.2l-2.3,0.4c-0.4,-0.3,-0.9,-0.4,-1.5,-0.4c-0.7,0,-1.3,0.3,-1.8,0.7c-0.5,0.5,-0.8,1.1,-0.8,1.8c0,0.5,0.1,0.9,0.4,1.3c0.2,0.4,0.5,0.7,0.9,1c-0.9,0.5,-1.3,1,-1.3,1.5c0,0.5,0.3,0.9,1,1.2c-0.8,0.5,-1.2,1,-1.2,1.6c0,0.6,0.2,1.1,0.8,1.4c0.5,0.4,1.2,0.6,2.1,0.6c1,0,2,-0.3,2.7,-0.8c0.8,-0.6,1.2,-1.3,1.2,-2.1c0,-0.6,-0.2,-1,-0.5,-1.3c-0.3,-0.3,-0.8,-0.5,-1.5,-0.5l-2.6,0.1c-0.3,0,-0.5,-0.1,-0.7,-0.2c-0.1,-0.1,-0.2,-0.2,-0.2,-0.3c0,-0.3,0.4,-0.6,1.1,-1c0.1,0.1,0.3,0.1,0.4,0.1Zm-1,-1.4c-0.3,-0.3,-0.4,-0.7,-0.4,-1.1c0,-0.5,0.1,-0.9,0.4,-1.2c0.3,-0.3,0.6,-0.4,1,-0.4c0.5,0,0.8,0.1,1.1,0.4c0.3,0.3,0.4,0.7,0.4,1.2c0,0.4,-0.1,0.8,-0.4,1.1c-0.3,0.3,-0.6,0.5,-1.1,0.5c-0.4,0,-0.7,-0.2,-1,-0.5Zm-0.3,6.1c-0.3,-0.2,-0.5,-0.5,-0.5,-0.8c0,-0.1,0.1,-0.3,0.2,-0.5c0.1,-0.2,0.3,-0.4,0.6,-0.6c0.2,-0.1,0.4,-0.2,0.5,-0.2c0.2,0,0.5,0,0.9,-0.1c0.6,0,1.1,0,1.3,0c0.8,0,1.2,0.3,1.2,0.8c0,0.5,-0.3,0.9,-0.9,1.2c-0.5,0.4,-1.1,0.5,-1.9,0.5c-0.6,0,-1,-0.1,-1.4,-0.3Z" class="g6_17" />
<text 
x="246" 
y="674" 
dx="0,0,0" 
class="s3_17"
>img</text>

<text 
x="281" 
y="674" 
dx="0,0,0,0,0,0,0,0,3.2,0,0,0,0,0,3.2,0,0,0,3.2,0,0,0,0,0,0,3.2,0" 
class="s2_17"
>element which was inside a </text>

<path d="M492.3,666.5l-1.2,0l0,10.9l1.2,0l0,-4.2c0.2,0.4,0.6,0.7,1,0.9c0.4,0.3,0.9,0.4,1.3,0.4c0.9,0,1.7,-0.4,2.2,-1.2c0.5,-0.8,0.8,-1.8,0.8,-3c0,-1.2,-0.3,-2.1,-0.8,-2.9c-0.5,-0.7,-1.2,-1.1,-2.1,-1.1c-0.5,0,-0.9,0.1,-1.4,0.3c-0.4,0.3,-0.7,0.6,-1,0.9l0,-1Zm2.1,0.8c0.6,0,1.1,0.3,1.5,0.9c0.3,0.5,0.5,1.3,0.5,2.2c0,0.8,-0.2,1.6,-0.6,2.2c-0.3,0.5,-0.8,0.8,-1.5,0.8c-0.4,0,-0.7,-0.1,-1.1,-0.4c-0.4,-0.3,-0.7,-0.7,-0.9,-1.1l0,-3.2c0.6,-0.9,1.3,-1.4,2.1,-1.4Z" class="g6_17" />
<text 
x="489" 
y="674" 
dx="0" 
class="s3_17"
>p</text>

<text 
x="166" 
y="695" 
dx="0,0,0,0,0,0,0,0,-0.7,0,0,-0.7,0,0,0,-0.7,0,0,-0.7,0,0,0,0,0,-0.7,0,0,-0.7,0,0,0,0,-0.7,0,0,-0.7,0,0,0,-0.7,0,0,0,0,0,-0.7,0,0,-0.7,0,0,0" 
class="s2_17"
>element to 50% it would be half of the width of the </text>

<path d="M169.7,709.3l-1.2,0l0,10.8l1.2,0l0,-4.2c0.2,0.4,0.6,0.8,1,1c0.4,0.2,0.8,0.4,1.3,0.4c0.9,0,1.7,-0.4,2.2,-1.2c0.5,-0.8,0.8,-1.8,0.8,-3c0,-1.2,-0.3,-2.2,-0.8,-2.9c-0.5,-0.7,-1.2,-1.1,-2.1,-1.1c-0.5,0,-0.9,0.1,-1.4,0.3c-0.4,0.2,-0.8,0.5,-1,0.9l0,-1Zm2.1,0.8c0.6,0,1.1,0.3,1.4,0.9c0.4,0.5,0.6,1.3,0.6,2.1c0,0.9,-0.2,1.6,-0.6,2.2c-0.3,0.6,-0.8,0.9,-1.5,0.9c-0.4,0,-0.8,-0.1,-1.1,-0.4c-0.4,-0.3,-0.7,-0.7,-0.9,-1.1l0,-3.3c0.6,-0.8,1.3,-1.3,2.1,-1.3Z" class="g6_17" />
<text 
x="166" 
y="717" 
dx="0" 
class="s3_17"
>p</text>

<text 
x="182" 
y="717" 
dx="0,0,0,0,0,0,0,0,0,2.2,0,0,-0.3,0,0,0,0,0,0,0,2.2,0,0,0,0,0,0,2.2,0,-0.3,0,2.2,0,0,0,0,0,0,0,0,0,2.2,0,0" 
class="s2_17"
>element. Percentage widths are indicated by </text>

<text 
x="166" 
y="738" 
dx="0,0,0,0" 
class="s2_17"
>the </text>

<path d="M192.5,728.4c-0.4,0.5,-0.6,1.1,-0.6,1.8c0,0.7,0.2,1.3,0.6,1.8c0.3,0.5,0.9,0.7,1.5,0.7c0.7,0,1.2,-0.2,1.6,-0.7c0.3,-0.5,0.5,-1.1,0.5,-1.8c0,-0.7,-0.2,-1.3,-0.5,-1.8c-0.4,-0.4,-0.9,-0.7,-1.6,-0.7c-0.6,0,-1.1,0.3,-1.5,0.7Zm0.5,1.8c0,-1,0.3,-1.6,1,-1.6c0.7,0,1,0.6,1,1.6c0,1.1,-0.3,1.6,-1,1.6c-0.7,0,-1,-0.5,-1,-1.6Zm5.4,-2.3l-5.6,10.5l1,0l5.6,-10.5l-1,0Zm-1.7,6.5c-0.4,0.4,-0.6,1,-0.6,1.8c0,0.7,0.2,1.3,0.6,1.7c0.4,0.5,0.9,0.7,1.5,0.7c0.7,0,1.2,-0.2,1.6,-0.7c0.4,-0.4,0.6,-1,0.6,-1.7c0,-0.8,-0.2,-1.4,-0.6,-1.8c-0.4,-0.5,-0.9,-0.7,-1.6,-0.7c-0.6,0,-1.1,0.2,-1.5,0.7Zm0.5,1.8c0,-1.1,0.3,-1.6,1,-1.6c0.7,0,1.1,0.5,1.1,1.6c0,1,-0.4,1.5,-1.1,1.5c-0.7,0,-1,-0.5,-1,-1.5Z" class="g6_17" />
<text 
x="191" 
y="738" 
dx="0" 
class="s3_17"
>%</text>

<text 
x="204" 
y="738" 
dx="0,0,0,0,0,0,0" 
class="s2_17"
>symbol.</text>

<text 
x="533" 
y="417" 
dx="0,0,0,0,2,0,0,0,2,0,0,0,0,2,0,0,0,2,0,0,0,0,2,0,0,2,0,0,0,2,0" 
class="s2_17"
>Use ems when you need to set a </text>

<text 
x="533" 
y="439" 
dx="0,0,0,0,0,0,0,0,-0.8,0,0,-0.8,0,0,0,0,0,0,0,-0.8,0,0,0,0,-0.8,0,0,0,0,0,-0.8,0,0,0" 
class="s2_17"
>maximum or minimum line width for </text>

<text 
x="533" 
y="460" 
dx="0,0,0,0,0,0,0,0,0,0,0,0,0,0,0,0,0,0,0,0,0,0,0,0,0,0,0,0,0,0,0,0,0,0,0" 
class="s2_17"
>a block of text. Between 40 and 60 </text>

<text 
x="533" 
y="481" 
dx="0,0,0,2.9,0,0,2.9,0,0,0,0,0,2.9,0,0,0,2.9,0,0,0,0,0,0,0,2.9,0,0,0,0,0,0" 
class="s2_17"
>em is about the maximum length </text>

<text 
x="533" 
y="503" 
dx="0,0,2.7,0,0,0,0,2.7,0,0,0,2.7,0,0,0,2.7,0,0,0,0,-0.3,0,2.7,0,0,2.7,0,0,0,0,0,0,0" 
class="s2_17"
>a line can get before it becomes </text>

<text 
x="533" 
y="524" 
dx="0,0,0,-0.3,0,0,0,0,0,0,4.4,0,0,4.4,0,0,0,0,0,0,4.4,0,0,0,4.4,0,0,-0.3,0,0,4.4,0,-0.3,0,0" 
class="s2_17"
>difficult to follow the words from </text>

<text 
x="533" 
y="545" 
dx="0,0,0,0,-0.9,0,0,0,0,-0.9,0,0,-0.9,0,0,0,0,0,0,-1.4" 
class="s2_17"
>one line to another.</text>

<text 
x="533" 
y="588" 
dx="0,0,0,0,0,0,4.6,0,0,-0.3,0,0,0,0,0,0,0,4.6,0,0,0,0,0,-0.3,0,0,0,0,0,0" 
class="s2_17"
>Using percentage measurements </text>

<text 
x="533" 
y="610" 
dx="0,0,0,4.6,0,4.6,0,0,0,0,4.6,0,0,0,0,0,0,4.6,0,0,0,0,4.6,0,0,0,4.6,0,-0.3,0" 
class="s2_17"
>is a good choice when you are </text>

<text 
x="533" 
y="631" 
dx="0,0,-0.3,0,0,0,0,0,0,3.8,0,0,0,3.8,0,0,0,0,0,0,0,3.8,0,0,0,0,0,0,3.8,0,0,3.8,0,0,0" 
class="s2_17"
>creating the overall layout of the </text>

<text 
x="533" 
y="652" 
dx="0,0,0,0,4,0,0,0,0,0,4,-0.3,0,0,0,0,4,0,0,0,4,0,0,-0.3,0,0,0,0,0,0,0" 
class="s2_17"
>web page. We’ll use percentage </text>

<text 
x="533" 
y="674" 
dx="0,0,0,0,0,0,-0.3,0,0,0,0,0,0,5,0,0,0,0,0,5,0,0,5,0,0,0,0,5,0,0,0,0" 
class="s2_17"
>measurements later in this book </text>

<text 
x="533" 
y="695" 
dx="0,0,0,0,0,-0.9,0,0,-0.9,0,-0.3,0,0,0,0,-0.9,0,0,-0.3,0,-0.9,0,0,0,0,0,0,0,0,0,0" 
class="s2_17"
>when we create more complicated</text>

<text 
x="533" 
y="717" 
dx="0,0,0,0,0,-0.9,0,0,0,0,0,0,0" 
class="s2_17"
>page layouts.</text>

<path d="M49,397l0,4l-4,0l0,27l4,0l0,4l90,0l0,-4l5,0l0,-27l-5,0l0,-4Z" class="g7_17" />
<text 
x="83" 
y="417" 
dx="0,0" 
class="s8_17"
>em</text>

<path d="M49,567l0,5l-4,0l0,27l4,0l0,4l90,0l0,-4l5,0l0,-27l-5,0l0,-5Z" class="g7_17" />
<text 
x="86" 
y="588" 
dx="0" 
class="s9_17"
>%</text>

<text 
x="1342" 
y="267" 
dx="0,0" 
class="s4_17"
>1.</text>

<text 
x="1367" 
y="267" 
dx="0,0,0,0" 
class="s2_17"
>Open</text>

<path d="M1415.8,257.4c-0.2,0.2,-0.3,0.4,-0.3,0.6c0,0.2,0.1,0.4,0.3,0.5c0.1,0.2,0.3,0.3,0.5,0.3c0.2,0,0.4,-0.1,0.6,-0.2c0.1,-0.2,0.2,-0.4,0.2,-0.6c0,-0.2,-0.1,-0.4,-0.2,-0.6c-0.2,-0.1,-0.4,-0.2,-0.6,-0.2c-0.2,0,-0.4,0.1,-0.5,0.2Zm1.1,2.7l-3.5,0l0,1l2.3,0l0,6.8l1.2,0l0,-7.8Z" class="g6_17" />
<path d="M1428,262.6c0,-1.8,-0.7,-2.7,-2.2,-2.7c-0.9,0,-1.8,0.5,-2.6,1.4l0,-1.2l-1.2,0l0,7.8l1.2,0l0,-5.6c0.8,-0.9,1.5,-1.4,2.2,-1.4c0.5,0,0.9,0.2,1.1,0.5c0.2,0.3,0.3,0.8,0.3,1.5l0,5l1.2,0l0,-5.3Z" class="g6_17" />
<path d="M1437.1,257.4l-1.1,0l0,3.7c-0.6,-0.8,-1.4,-1.2,-2.4,-1.2c-0.9,0,-1.6,0.4,-2.2,1.2c-0.5,0.7,-0.8,1.6,-0.8,2.8c0,1.2,0.3,2.2,0.8,3c0.5,0.8,1.2,1.2,2.1,1.2c0.5,0,1,-0.1,1.4,-0.4c0.5,-0.2,0.8,-0.5,1.1,-0.9l0,1.1l1.1,0l0,-10.5Zm-1.5,8.7c-0.3,0.3,-0.6,0.6,-0.9,0.7c-0.3,0.2,-0.6,0.2,-0.9,0.2c-0.6,0,-1.1,-0.2,-1.4,-0.8c-0.4,-0.6,-0.5,-1.4,-0.5,-2.2c0,-0.9,0.1,-1.6,0.5,-2.2c0.4,-0.6,0.9,-0.9,1.5,-0.9c0.8,0,1.5,0.5,2.1,1.4l0,3.2c0,0.1,-0.2,0.3,-0.4,0.6Z" class="g6_17" />
<path d="M1446.6,263.7c0,-1.2,-0.4,-2.1,-1,-2.7c-0.6,-0.7,-1.3,-1.1,-2.2,-1.1c-1,0,-1.8,0.4,-2.5,1.1c-0.6,0.8,-0.9,1.7,-0.9,3c0,1.2,0.3,2.2,1.1,3c0.7,0.7,1.6,1.1,2.7,1.1c1,0,1.8,-0.2,2.4,-0.5l-0.2,-0.9c-0.7,0.3,-1.4,0.4,-2.1,0.4c-0.8,0,-1.4,-0.3,-1.9,-0.9c-0.5,-0.6,-0.8,-1.3,-0.8,-2.2l5.4,0l0,-0.3Zm-5.3,-0.6c0,-0.6,0.3,-1.2,0.7,-1.6c0.3,-0.4,0.8,-0.6,1.4,-0.6c0.5,0,0.9,0.2,1.3,0.7c0.4,0.4,0.6,0.9,0.6,1.5l-4,0Z" class="g6_17" />
<path d="M1453,264l2.8,-3.9l-1.3,0l-2.1,3l-2.1,-3l-1.3,0l2.7,3.9l-2.7,3.9l1.2,0l2.2,-3.1l2,3.1l1.4,0L1453,264Z" class="g6_17" />
<path d="M1460.9,266.4c-0.1,0.2,-0.2,0.4,-0.2,0.7c0,0.3,0.1,0.5,0.2,0.7c0.2,0.2,0.4,0.3,0.7,0.3c0.3,0,0.5,-0.1,0.7,-0.3c0.1,-0.2,0.2,-0.4,0.2,-0.7c0,-0.2,-0.1,-0.5,-0.2,-0.7c-0.2,-0.1,-0.4,-0.2,-0.7,-0.2c-0.3,0,-0.5,0.1,-0.7,0.2Z" class="g6_17" />
<path d="M1473.8,262.6c0,-1.8,-0.7,-2.7,-2.2,-2.7c-0.9,0,-1.8,0.5,-2.6,1.4l0,-3.9l-1.2,0l0,10.5l1.2,0l0,-5.6c0.8,-0.9,1.6,-1.4,2.3,-1.4c0.5,0,0.8,0.2,1,0.5c0.2,0.3,0.4,0.8,0.4,1.5l0,5l1.1,0l0,-5.3Z" class="g6_17" />
<path d="M1482.9,266.6c-0.7,0.3,-1.3,0.5,-1.9,0.5c-0.4,0,-0.7,-0.2,-0.9,-0.4c-0.2,-0.3,-0.3,-0.7,-0.3,-1.1l0,-4.5l2.7,0l0,-1l-2.7,0l0,-2.1l-1.1,0l0,2.1l-1.5,0l0,1l1.5,0l0,4.8c0,1.4,0.7,2.2,2.1,2.2c0.7,0,1.5,-0.2,2.3,-0.6l-0.2,-0.9Z" class="g6_17" />
<path d="M1492.8,262.5c0,-1.7,-0.5,-2.6,-1.4,-2.6c-0.3,0,-0.6,0.2,-0.9,0.4c-0.3,0.2,-0.6,0.6,-0.8,1c-0.1,-0.4,-0.3,-0.8,-0.5,-1c-0.3,-0.2,-0.6,-0.4,-0.9,-0.4c-0.3,0,-0.6,0.2,-0.9,0.4c-0.3,0.2,-0.5,0.6,-0.8,1l0,-1.2l-1.1,0l0,7.8l1.2,0l0,-5.6c0,-0.1,0.1,-0.3,0.4,-0.7c0.3,-0.4,0.5,-0.7,0.8,-0.7c0.4,0,0.7,0.7,0.7,1.9l0,5.1l1.1,0l0,-5.6c0,-0.1,0.2,-0.3,0.5,-0.7c0.2,-0.4,0.5,-0.7,0.7,-0.7c0.5,0,0.7,0.7,0.7,1.9l0,5.1l1.2,0l0,-5.4Z" class="g6_17" />
<path d="M1500.5,266.5l-2,0l0,-9l-3,0l0,1l2,0l0,9l3,0l0,-1Z" class="g6_17" />
<text 
x="1411" 
y="267" 
dx="0,0,0,0,0,0,0,0,0,0" 
class="s3_17"
>index.html</text>

<text 
x="1508" 
y="267" 
dx="0,0,0,0.9,0,0,0,0.9,0,0,0,0" 
class="s2_17"
>in the code </text>

<text 
x="1342" 
y="289" 
dx="0,0,0,0,0,0,0,-0.5,0,0,0,-0.5,0,0,0,0,0,0,-0.5,0,0,0,-0.5,0,0,0,0,-0.5,0,0,0,0,-0.5,0,0,0" 
class="s2_17"
>editor and select the HTML code for </text>

<text 
x="1342" 
y="310" 
dx="0,0,0,0,2.3,0,0,0,0,0,0,2.3,0,0,0,0,2.3,0,0,0,0,2.3,0,0,2.3,0,0,0,0,0,0,0,0,0,0,0,0" 
class="s2_17"
>the links. This code is highlighted. </text>

<text 
x="1342" 
y="332" 
dx="0,-1.7,0,-0.9,0,0,0,0,0,0,-0.9,0,0,0,-0.9,0,0,0,0,-0.9,0,0,0,-0.9,0,0,0,-0.9,0,0,0,0,0" 
class="s2_17"
>To select the code for the links:</text>

<text 
x="1342" 
y="374" 
dx="0" 
class="s10_17"
>[</text>

<text 
x="1362" 
y="374" 
dx="0,0,0,0,0,0,2.8,0,0,0,0,2.8,0,0,0,0,-0.3,0,2.8,0,0,0,2.8,0,0,2.8,0,0,0,0,0,0,0" 
class="s2_17"
>click just before the ul opening </text>

<text 
x="1342" 
y="396" 
dx="0,0,0,0,4,0,0,0,0,4,0,0,0,4,0,0,0,0,0,4,0,0,4,0,0,0,0,0,0,0,0" 
class="s2_17"
>tag keep the mouse or touchpad </text>

<text 
x="1342" 
y="417" 
dx="0,0,0,0,0,0,0,8.5,0,-0.3,0,0,0,0,0,8.5,0,0,0,0,8.5,0,0,0,8.5,0,0,0,0" 
class="s2_17"
>button pressed down and then </text>

<text 
x="1342" 
y="439" 
dx="0,0,0,0,0,1.3,0,0,0,0,0,1.3,0,0,0,0,0,0,0,0,0,0,0,0,1.3,0,0,0,1.3,0,0,0,0,1.3,0,0" 
class="s2_17"
>drag down, highlighting the text as </text>

<text 
x="1342" 
y="460" 
dx="0,0,0,0,-0.9,0,0" 
class="s2_17"
>you go.</text>

<text 
x="1342" 
y="481" 
dx="0" 
class="s10_17"
>[</text>

<text 
x="1362" 
y="481" 
dx="0,0,0,0,0,4.7,0,0,0,0,4.7,0,0,0,0,0,0,4.7,0,-0.3,0,4.7,0,0,0,4.7,0,0,0,0,0,0" 
class="s2_17"
>take your finger off the button </text>

<text 
x="1342" 
y="503" 
dx="0,0,0,0,0,-0.9,0,0,0,-0.9,0,0,0,-0.9,0,0,-0.9,0,0,0" 
class="s2_17"
>when you get to the </text>

<path d="M1484.6,495.4l-1.1,0l0,5.6c-0.9,0.9,-1.6,1.3,-2.3,1.3c-0.5,0,-0.9,-0.1,-1.1,-0.4c-0.2,-0.4,-0.3,-0.9,-0.3,-1.5l0,-5l-1.2,0l0,5.3c0,1.8,0.8,2.7,2.2,2.7c0.9,0,1.8,-0.5,2.7,-1.4l0,1.2l1.1,0l0,-7.8Z" class="g6_17" />
<path d="M1493.5,502.5l-2,0l0,-10l-3,0l0,1l2,0l0,10l3,0l0,-1Z" class="g6_17" />
<text 
x="1477" 
y="503" 
dx="0,0" 
class="s3_17"
>ul</text>

<text 
x="1498" 
y="503" 
dx="0,0,0,0,0,0,0,0,-0.9,0,0,0" 
class="s2_17"
>closing tag.</text>

<text 
x="1342" 
y="524" 
dx="0" 
class="s10_17"
>[</text>

<text 
x="1362" 
y="524" 
dx="0,0,0,0,0,8.4,0,0,0,8.4,0,0,0,0,0,8.4,0,-0.3,0,8.4,0,0,0,0,0,0,0,0,0" 
class="s2_17"
>when the links are selected, </text>

<text 
x="1342" 
y="545" 
dx="0,0,0,0,0,0,7.2,0,0,0,0,7.2,0,0,0,0,0,0,7.2,0,0,0,0,0,0,0,0,7.2,0,0,0" 
class="s2_17"
>check that you’ve included ALL </text>

<text 
x="1342" 
y="567" 
dx="0,0,0,1.5,0,0,0,1.5,0,0,0,0.3,0,1.5,0,0,0,1.5,0,0,0,1.5,0,0,0,0,1.5,0,0,0,1.5,0,0,0,1.5,0,0" 
class="s2_17"
>of the start and end tags for the ul </text>

<text 
x="1342" 
y="588" 
dx="0,0,0,0,0,0,0,0" 
class="s2_17"
>element:</text>

<text 
x="881" 
y="316" 
dx="0,0,0,0,0,0" 
class="s3_17"
>&lt;body&gt;</text>

<text 
x="881" 
y="336" 
dx="0,0,0,0,0,0,0,-1.8,0,0,0,-1.8,0,0,0,-1.8,0,0,0,0,0,0,0,0,0,0,0,0,0,0" 
class="s3_17"
>&lt;h1&gt;We are the Nanonauts!&lt;/h1&gt;</text>

<text 
x="881" 
y="356" 
dx="0,0,0,0,0,0,0,0,-1.8,0,0,-1.8,0,0,0,-1.8,0,0,0,0,0,0,0,0,-1.8,0,0,0,0,0,-1.8,0,0,-1.8,0,-1.8,0,0,0,0,-1.8,0,0,-1.8,0,0,0,0,0" 
class="s3_17"
>&lt;p&gt;This is our website. Click on a link to visit </text>

<text 
x="881" 
y="376" 
dx="0,0,-1.8,0,0,0,0,0,0,0,0,0" 
class="s3_17"
>a page:&lt;/p&gt; </text>

<text 
x="881" 
y="396" 
dx="0,0,0,0" 
class="s3_17"
>&lt;ul&gt;</text>

<text 
x="881" 
y="416" 
dx="0,0,0,0,0,0,0,-1.8,0,0,0,0,0,0,0,0,0,0,0,0,0,0,0,0,0,0,0,0,0,0,0,0,0,0,-1.8,0,0,0,0,0,0,0,0,0,0" 
class="s3_17"
>&lt;li&gt;&lt;a href="about-us.html"&gt;About Us&lt;/a&gt;&lt;/li&gt;</text>

<text 
x="881" 
y="436" 
dx="0,0,0,0,0,0,0,-2,0,0,0,0,0,0,0,0,0,0,0,0,0,0,0,0,0,0,0,0,0,0,0,0,0,-2,0,0,0,0,0,0,0,0,0,0,0,0,0" 
class="s3_17"
>&lt;li&gt;&lt;a href="our-songs.html"&gt;Our Songs&lt;/a&gt;&lt;/li&gt;</text>

<text 
x="881" 
y="455" 
dx="0,0,0,0,0,0,0,-1.8,0,0,0,0,0,0,0,0,0,0,0,0,0,0,0,0,0,0,0,0,0,0,0,0,0,0,0,0,0,0,0" 
class="s3_17"
>&lt;li&gt;&lt;a href="our-instruments.html"&gt;Our </text>

<text 
x="881" 
y="475" 
dx="0,0,0,0,0,0,0,0,0,0,0,0,0,0,0,0,0,0,0,0" 
class="s3_17"
>Instruments&lt;/a&gt;&lt;/li&gt;</text>

<text 
x="881" 
y="495" 
dx="0,0,0,0,0,0,0,-1.8,0,0,0,0,0,0,0,0,0,0,0,0,0,0,0,0,0,0,0,0,0,0,0,0,0,0,0,0,0,0,0,0,0,0,0,0,0,-1.8,0" 
class="s3_17"
>&lt;li&gt;&lt;a href="playing-a-concert.html"&gt;Playing a </text>

<text 
x="881" 
y="515" 
dx="0,0,0,0,0,0,0,0,0,0,0,0,0,0,0,0" 
class="s3_17"
>Concert&lt;/a&gt;&lt;/li&gt;</text>

<text 
x="881" 
y="535" 
dx="0,0,0,0,0,0" 
class="s3_17"
>&lt;/ul&gt; </text>

<text 
x="881" 
y="555" 
dx="0,0,0,0,0,0,0" 
class="s3_17"
>&lt;/body&gt;</text>

<text 
x="878" 
y="641" 
dx="0,0,0,0" 
class="s3_17"
>&lt;ul&gt;</text>

<text 
x="878" 
y="661" 
dx="0,0,0,0,0,0,0,-1.8,0,0,0,0,0,0,0,0,0,0,0,0,0,0,0,0,0,0,0,0,0,0,0,0,0,0,-1.8,0,0,0,0,0,0,0,0,0,0" 
class="s3_17"
>&lt;li&gt;&lt;a href="about-us.html"&gt;About Us&lt;/a&gt;&lt;/li&gt;</text>

<text 
x="878" 
y="681" 
dx="0,0,0,0,0,0,0,-1.8,0,0,0,0,0,0,0,0,0,0,0,0,0,0,0,0,0,0,0,0,0,0,0,0,0,-1.8,0,0,0,0,0,0,0,0,0,0,0,0,0" 
class="s3_17"
>&lt;li&gt;&lt;a href="our-songs.html"&gt;Our Songs&lt;/a&gt;&lt;/li&gt;</text>

<text 
x="878" 
y="701" 
dx="0,0,0,0,0,0,0,-2.1,0,0,0,0,0,0,0,0,0,0,0,0,0,0,0,0,0,0,0,0,0,0,0,0,0,0,0,0,0,0" 
class="s3_17"
>&lt;li&gt;&lt;a href="our-instruments.html"&gt;Our</text>

<text 
x="1230" 
y="701" 
dx="0,0,0,0,0,0,0,0,0,0,0,0,0,0,0,0,0,0,0,0" 
class="s3_17"
>Instruments&lt;/a&gt;&lt;/li&gt;</text>

<text 
x="878" 
y="721" 
dx="0,0,0,0,0,0,0,-1.8,0,0,0,0,0,0,0,0,0,0,0,0,0,0,0,0,0,0,0,0,0,0,0,0,0,0,0,0,0,0,0,0,0,0,0,0,0,-1.8,0,-1.8,0,0,0,0,0,0,0,0,0,0,0" 
class="s3_17"
>&lt;li&gt;&lt;a href="playing-a-concert.html"&gt;Playing a Concert&lt;/a&gt; </text>

<text 
x="878" 
y="741" 
dx="0,0,0,0,0" 
class="s3_17"
>&lt;/li&gt;</text>

<text 
x="878" 
y="760" 
dx="0,0,0,0,0" 
class="s3_17"
>&lt;/ul&gt;</text>

<text 
x="878" 
y="838" 
dx="0,0,0,0" 
class="s3_17"
>&lt;ul&gt;</text>

<text 
x="878" 
y="858" 
dx="0,0,0,0,0,0,0,-1.8,0,0,0,0,0,0,0,0,0,0,0,0,0,0,0,0,0,0,0,0,0,0,0,0,0,0,-1.8,0,0,0,0,0,0,0,0,0,0" 
class="s3_17"
>&lt;li&gt;&lt;a href="about-us.html"&gt;About Us&lt;/a&gt;&lt;/li&gt;</text>

<text 
x="878" 
y="878" 
dx="0,0,0,0,0,0,0,-1.8,0,0,0,0,0,0,0,0,0,0,0,0,0,0,0,0,0,0,0,0,0,0,0,0,0,-1.8,0,0,0,0,0,0,0,0,0,0,0,0,0" 
class="s3_17"
>&lt;li&gt;&lt;a href="our-songs.html"&gt;Our Songs&lt;/a&gt;&lt;/li&gt;</text>

<text 
x="878" 
y="897" 
dx="0,0,0,0,0,0,0,-1.8,0,0,0,0,0,0,0,0,0,0,0,0,0,0,0,0,0,0,0,0,0,0,0,0,0,0,0,0,0,0,0,0,0,0,0,0,0,0,0,0,0" 
class="s3_17"
>&lt;li&gt;&lt;a href="our-instruments.html"&gt;OurInstruments</text>

<text 
x="878" 
y="917" 
dx="0,0,0,0,0,0,0,0,0" 
class="s3_17"
>&lt;/a&gt;&lt;/li&gt;</text>

<text 
x="878" 
y="937" 
dx="0,0,0,0,0,0,0,-1.8,0,0,0,0,0,0,0,0,0,0,0,0,0,0,0,0,0,0,0,0,0,0,0,0,0,0,0,0,0,0,0,0,0,0,0,0,0,-1.8,0" 
class="s3_17"
>&lt;li&gt;&lt;a href="playing-a-concert.html"&gt;Playing a </text>

<text 
x="878" 
y="957" 
dx="0,0,0,0,0,0,0,0,0,0,0,0" 
class="s3_17"
>Concert&lt;/a&gt; </text>

<text 
x="878" 
y="977" 
dx="0,0,0,0,0" 
class="s3_17"
>&lt;/li&gt;</text>

<text 
x="878" 
y="997" 
dx="0,0,0,0,0" 
class="s3_17"
>&lt;/ul&gt;</text>

<path d="M870,42l0,4l-4,0l0,47l4,0l0,5l728,0l0,-5l4,0l0,-47l-4,0l0,-4Z" class="g7_17" />
<text 
x="885" 
y="86" 
dx="0,0,-6.2,-4,-3.3,0,0,-4.3,-3.3,0,0,-4.8,-3.5,-4,-5.9,0,0,-4,-5,-4.3,0,0,0,0,-3.3,-5.1,-3.4,0" 
class="s11_17"
>&lt;Link the pages with a menu&gt;</text>

<path d="M47,42l0,4l-4,0l0,47l4,0l0,5l645,0l0,-5l5,0l0,-47l-5,0l0,-4Z" class="g7_17" />
<text 
x="56" 
y="86" 
dx="0,-3.3,-3.3,-3.6,0,0,-3.8,-3.5,-3.4,-4.4,0,0,-3.3,-5.2,-4.2,-3.8,-3.3,-3.6,-5.1,-3.3,-5.1,-4.3,-5.2" 
class="s12_17"
>More about measurements</text>

<path d="M524,177l0,4l-4,0l0,13l4,0l0,5l251,0l0,-5l5,0l0,-13l-5,0l0,-4Z" class="g7_17" />
<text 
x="534" 
y="193" 
dx="0,0,0" 
class="s13_17"
>USE</text>

<path d="M157,177l0,4l-4,0l0,13l4,0l0,5l350,0l0,-5l4,0l0,-13l-4,0l0,-4Z" class="g7_17" />
<text 
x="167" 
y="193" 
dx="0,0,0,0,0,0,0" 
class="s14_17"
>MEANING</text>

<text 
x="1590" 
y="1019" 
dx="0,-1.4" 
class="s15_17"
>33</text>

<text 
x="36" 
y="1019" 
dx="0,-1.3" 
class="s15_17"
>32</text>



<!-- Any embedded fonts defined here -->
<style type="text/css" ><![CDATA[

@font-face {
	font-family: DevanagariMT-Bold_1f2;
	src: url("fonts/DevanagariMT-Bold_1f2.woff") format("woff");
}

@font-face {
	font-family: PixelSplitter-Bold_g7;
	src: url("fonts/PixelSplitter-Bold_g7.woff") format("woff");
}

@font-face {
	font-family: Helvetica-Light_1by;
	src: url("fonts/Helvetica-Light_1by.woff") format("woff");
}

@font-face {
	font-family: Helvetica-Bold_fr;
	src: url("fonts/Helvetica-Bold_fr.woff") format("woff");
}

@font-face {
	font-family: Helvetica-Bold_fl;
	src: url("fonts/Helvetica-Bold_fl.woff") format("woff");
}

@font-face {
	font-family: PixelSplitter-Bold_1bs;
	src: url("fonts/PixelSplitter-Bold_1bs.woff") format("woff");
}

@font-face {
	font-family: PixelSplitter-Bold_g1;
	src: url("fonts/PixelSplitter-Bold_g1.woff") format("woff");
}

@font-face {
	font-family: Helvetica-Bold_gj;
	src: url("fonts/Helvetica-Bold_gj.woff") format("woff");
}

@font-face {
	font-family: Wingdings-Regular_1c4;
	src: url("fonts/Wingdings-Regular_1c4.woff") format("woff");
}

@font-face {
	font-family: AndaleMono_1cn;
	src: url("fonts/AndaleMono_1cn.woff") format("woff");
}

@font-face {
	font-family: Helvetica-Bold_gd;
	src: url("fonts/Helvetica-Bold_gd.woff") format("woff");
}

@font-face {
	font-family: Helvetica-Bold_fx;
	src: url("fonts/Helvetica-Bold_fx.woff") format("woff");
}

@font-face {
	font-family: Helvetica-Bold_1bu;
	src: url("fonts/Helvetica-Bold_1bu.woff") format("woff");
}

]]></style>

</svg>
