<?xml version="1.0" encoding="UTF-8" standalone="no"?>
<!DOCTYPE svg PUBLIC "-//W3C//DTD SVG 1.1//EN"
"http://www.w3.org/Graphics/SVG/1.1/DTD/svg11.dtd">


<!-- Page 2 -->
<svg x="0" y="0" width="1645" height="1061" viewBox="0 0 1645 1061" version="1.1" xmlns="http://www.w3.org/2000/svg" xmlns:xlink="http://www.w3.org/1999/xlink"
style="display: block;margin-left: auto;margin-right: auto;">
<defs>
<clipPath id="c0_2"><path d="M350.5,129.5l0,-32l122,0l0,32Z" /></clipPath>
<clipPath id="c1_2"><path d="M350.5,131.5l0,-34l122,0l0,34Z" /></clipPath>
<clipPath id="c2_2"><path d="M1158.5,134.5l0,-43l150,0l0,43Z" /></clipPath>

<style type="text/css"><![CDATA[

.g2_2{
fill: #11151D;
}
.g3_2{
fill: none;
stroke: #11151D;
stroke-width: 2;
stroke-linecap: butt;
stroke-linejoin: miter;
stroke-miterlimit: 4;
}
.g1_2{
fill: #FFFFFF;
}

.s6_2{
font-size: 23.57px;
font-family: PixelSplitter-Bold__;
fill: #FFFFFF;
}
.s4_2{
font-size: 39.72px;
font-family: PixelSplitter-Bold_v;
fill: #FFFFFF;
}
.s3_2{
font-size: 141.57px;
font-family: PixelSplitter-Bold_p;
fill: #FFFFFF;
}
.s5_2{
font-size: 75.63px;
font-family: PixelSplitter-Bold_v;
fill: #FFFFFF;
}
.s1_2{
font-size: 12.22px;
font-family: Frutiger-Light_1bl;
fill: #11151D;
}
.s2_2{
font-size: 78.67px;
font-family: PixelSplitter-Bold_l;
fill: #FFFFFF;
}

]]></style>

</defs>
<path d="M0,0
L0,1061
L1645,1061
L1645,0 Z "
fill="#FFFFFF" stroke="none" />
<image x="-33" y="-32" width="1713" height="1115" xlink:href="2/img/1.png" />
<image x="-13" y="-11" width="1674" height="1073" opacity="0.5" xlink:href="2/img/2.png" />
<image x="-32" y="133" width="1713" height="951" xlink:href="2/img/3.png" />
<path d="M1154,86l0,4l-5,0l0,88l5,0l0,4l160,0l0,-4l4,0l0,-88l-4,0l0,-4Z" class="g1_2" />
<path d="M952,229l0,6l-5,0l0,220l5,0l0,6l563,0l0,-6l6,0l0,-220l-6,0l0,-6Z" class="g1_2" />
<path d="M1044,506l0,6l-5,0l0,132l5,0l0,5l380,0l0,-5l5,0l0,-132l-5,0l0,-6Z" class="g1_2" />
<path d="M464.6,120.1c0.1,0,0.1,0,0.1,0c0,0.2,-0.8,0.8,-1.5,0.9c-0.4,0.1,-0.7,0.1,-0.8,0c-0.1,-0.1,-0.1,-0.2,-0.1,-0.3c0,-0.1,0.1,-0.3,0.2,-0.3c0.1,-0.2,0.5,-0.2,0.8,-0.2c0.4,0,0.8,0.1,1.3,-0.1Z" class="g2_2" />
<path d="M377.7,126.1c0,0,0,-0.1,0,-0.3c0.1,-0.3,0.4,-0.7,0.6,-1c0.1,-0.3,0.5,-1.1,0.6,-1.3c0.2,-0.6,1,-1.7,1.5,-1.7c0.2,0,0.3,0.2,0.3,0.5c-0.6,0.5,-1,0.9,-1.1,1.6c0,0,-0.1,0.2,-0.1,0.2l0.2,-0.1c0.7,-0.5,1.3,-0.9,1.6,-1.2c0.7,-0.6,0.9,-0.8,1.6,-0.4c0,0.1,-0.1,0.2,-0.1,0.2c-0.1,0.2,-0.3,0.4,-0.5,0.5c0,-0.1,-0.1,-0.2,-0.2,-0.2c-0.4,-0.1,-1.1,0.5,-1.6,1l-0.3,0.3c-0.4,0.3,-0.6,0.6,-0.9,0.9c-0.2,0.3,-0.5,0.6,-0.9,1c-0.1,0.1,-0.2,0.1,-0.2,0c-0.1,0,-0.2,0,-0.3,0.1c-0.1,0,-0.1,0,-0.2,-0.1Z" class="g2_2" />
<path d="M408.5,121.4c0.3,0.1,1,0.3,1.2,0.6c0,0,0,0.1,0,0.1c0,0.1,-0.5,0.4,-0.6,0.5c-0.2,0,-0.2,0,-0.2,-0.1c-0.1,-0.4,-0.9,-0.6,-1.6,-0.6c-1.6,0.1,-2.1,0.5,-2.3,0.8c-0.1,0.2,-0.1,0.4,0,0.5c0.1,0.2,0.5,0.3,1.7,0.6l0,0.1c0.9,0.2,1,0.4,0.8,0.8c-0.2,0.4,-0.7,0.9,-1.4,1.3c-0.7,0.4,-1.8,0.5,-3.2,0.3c0,0,0,-0.1,0,-0.1l0,-0.1c0.1,-0.1,0.2,-0.4,0.6,-0.3c0.1,0,0.3,0,0.5,0.1c0.6,0,1.5,0,2,-0.5c0.1,-0.1,0.1,-0.2,0.1,-0.3c0.1,0,0.1,-0.1,0.1,-0.1c-0.1,-0.4,-0.5,-0.6,-1.5,-0.9c-0.7,-0.3,-0.8,-0.6,-0.7,-0.8l0,-0.1c0.1,-0.1,0.1,-0.3,0.3,-0.5c0.6,-0.6,1.9,-1.6,4.2,-1.3Z" class="g2_2" />
<path d="M434.2,126.6c-0.6,-0.1,-1.3,-0.2,-1.6,-0.5c0,-0.1,0.1,-0.3,0.2,-0.4c0.1,0,0.1,0,0.2,0.1c0.3,0.2,0.7,0.4,1,0.4c0.8,0.1,1.2,0,1.4,-0.3c0.5,-0.7,-0.6,-1.1,-1.5,-1.5c-0.7,-0.4,-0.1,-1.4,0.6,-1.7c0.6,-0.4,1.6,-0.5,2.9,-0.3c0,0,0,0.1,0,0.1l0,0.1c-0.1,0.1,-0.3,0.3,-0.6,0.2c-0.1,0,-0.3,-0.1,-0.5,-0.1c-0.6,0,-1.5,0.1,-1.8,0.6c-0.2,0.6,0.8,0.7,1.5,1.3c0.5,0.6,0.2,1.2,-0.1,1.5c-0.4,0.5,-0.9,0.5,-1.7,0.5Z" class="g2_2" />
<path d="M428.4,120.5c0,-0.2,0,-0.3,0.1,-0.4c0.3,-0.1,0.6,0,1,0.2c0.3,0.1,0.6,0.2,0.8,0.2c0,0.1,-0.1,0.2,-0.1,0.2c-0.2,0.2,-0.7,0.2,-1.1,0.2c-0.2,0,-0.5,0,-0.7,0.1c0,-0.1,0,-0.4,0,-0.4l0,-0.1Z" class="g2_2" />
<path d="M415.2,119.4c0.1,0.2,0.1,0.2,0,0.4c0,0.2,-0.4,0.4,-0.6,0.4c-0.2,0.1,-0.6,0.4,-1,0.9c-0.4,0.5,-0.8,1,-1,1.3l0.1,0.1c0.4,0,0.9,0,1.5,-0.1c1.1,-0.1,2,-0.2,2.3,0.3c0.1,0.1,0.1,0.3,0,0.5c-0.1,0.2,-0.4,0.5,-0.6,0.8c-0.4,0.5,-0.5,1.4,0,1.7c1.1,0.5,2.1,-0.9,2.6,-1.7l0.4,-0.5c0.2,-0.4,0.1,-0.8,-0.5,-0.9c-0.2,0,-0.4,0.1,-0.7,0.1c-0.3,0,-0.4,0.1,-0.5,-0.1c-0.1,-0.1,0,-0.3,0.2,-0.5c0.3,-0.2,1.2,-0.4,1.9,0c0.4,0.3,0.7,1.1,0.1,1.9c0,0,-0.3,0.3,-0.3,0.3c-0.6,0.8,-2.1,2.5,-3.8,1.8l-0.1,0c-0.6,-0.3,-1.1,-1.2,-0.3,-2.2c0.3,-0.5,0.6,-0.8,0.5,-1c-0.1,-0.1,-0.2,-0.2,-0.4,-0.1c0,0,-2.8,0.1,-2.8,0.1c-0.4,0.3,-1,1.2,-1.2,1.9l0,0.1c-0.2,0.4,-0.4,1,-0.7,1.2c-0.1,0.1,-0.2,0.1,-0.4,0c-0.1,-0.1,-0.2,-0.2,-0.2,-0.3c0,-0.5,0.7,-1.7,1.2,-2.4c0.5,-0.5,0.5,-0.5,0.4,-0.5c0,-0.2,-0.3,-0.2,-0.5,-0.2c-0.3,-0.1,-0.5,-0.1,-0.6,-0.2c0,0,0,-0.1,0,-0.1c0,-0.1,0.1,-0.2,0.2,-0.2c0.1,-0.1,0.6,0,0.9,0.1c0.2,0.1,0.3,0.1,0.4,0.2l0.1,0l0,-0.1c0.7,-0.9,1,-1.2,1.5,-1.8c0.5,-0.6,1.2,-1.3,1.5,-1.3c0.3,-0.1,0.3,0,0.4,0.1Z" class="g2_2" />
<path d="M375.6,119.4c0.7,-0.5,1.2,-0.5,1.3,-0.4c0.1,0.2,-0.1,0.5,-0.5,0.7c0,0,-1.2,0.6,-1.6,1.2c-0.5,0.5,-0.9,1,-1.1,1.4c-0.2,0.4,-0.5,1.3,-0.5,1.3l0.2,-0.2c0.3,-0.2,0.6,-0.4,0.9,-0.6c0.9,-0.6,1.5,-1,2.5,-1c0.6,0,1.1,0.3,1,0.9c-0.3,1.1,-1.1,2.2,-2.2,2.9c-1.1,0.7,-2.7,1,-3.8,0.7c-0.3,0,-0.3,-0.2,-0.3,-0.4c0,-0.2,0.2,-0.4,0.5,-0.3c1.2,0.3,2.7,0.8,4,-1.4c0.4,-0.7,1,-1.6,0.9,-1.9c-0.1,-0.4,-1,0.2,-1.8,0.8c-1.1,0.7,-2.4,1.6,-2.8,0.9c0.3,-1,1.1,-3,3.3,-4.6Z" class="g2_2" />
<path d="M384.7,121.2c-0.1,-0.1,0,-0.2,0.4,-0.5c0.6,-0.5,1,-0.3,1.4,0c0.2,0.1,0.5,0.2,0.9,0.3c-0.7,0.2,-1.1,0.2,-1.7,0.3l-0.6,0c-0.2,0,-0.4,0,-0.4,-0.1Z" class="g2_2" />
<path d="M422.8,122.6c0.1,0.1,0.1,0.4,-0.1,0.6l-0.1,0.3c0.4,-0.4,1.2,-0.7,1.4,-0.7c0.2,-0.1,0.4,-0.1,0.6,-0.1c0.2,0,0.4,0.1,0.5,0.1c0.1,0.1,0,0.4,-0.1,0.5c-0.2,0.2,-0.3,0.3,-0.6,0.2c-0.7,-0.3,-1.5,-0.1,-2,0.6c-0.2,0.1,-0.3,0.4,-0.6,0.6c-0.3,0.5,-0.7,1.1,-1.2,1.3c-0.1,0,-0.2,0,-0.3,0c0,0,-0.1,-0.1,-0.2,-0.1c0,-0.1,0,-0.1,0,-0.2c0.2,-0.7,0.8,-1.4,1.5,-2.2c0.3,-0.4,0.5,-1,0.8,-1.1c0.2,-0.1,0.4,0.1,0.4,0.2Z" class="g2_2" />
<path d="M389,124.8c0.4,-0.2,0.8,-0.6,1.4,-0.9c1.3,-0.8,2.6,-1.6,3.7,-1.5c0,0,0.1,0.1,0.2,0.1c0,0.1,0,0.1,0,0.2c-0.1,0.3,-0.7,1.1,-1.3,1.8c-0.4,0.4,-0.7,0.8,-0.9,1.1l-0.1,0.1l0.5,-0.1c0.3,-0.2,0.8,-0.3,0.9,-0.2c-0.4,0.4,-1.3,0.9,-2,1.1c-0.1,-0.1,-0.3,-0.2,-0.3,-0.3c0,-0.1,0,-0.1,0,-0.2c0.1,-0.4,0.5,-1,0.9,-1.5l0.4,-0.6c0,0,0.1,-0.1,0.1,-0.1c0.2,-0.3,0.4,-0.6,0.5,-0.7c0,0,0.1,-0.1,0,-0.2c0,0,-0.3,0.1,-0.3,0.1c-1.2,0.4,-4.1,2.3,-4.9,3.1c-0.2,0.2,-0.5,0.2,-0.6,0c0.1,-0.5,0.5,-1.1,0.9,-1.7c0.3,-0.5,0.7,-1.2,0.7,-1.3c0.1,-0.1,0,-0.1,-0.1,-0.1c-1.3,0.6,-2.2,1.1,-3.5,2l-0.1,0c0,0,-1.2,0.9,-1.2,0.9c-0.1,0.1,-0.3,0.2,-0.4,0.2c-0.1,0,-0.2,0,-0.2,0c0,-0.1,0,-0.2,0,-0.3c0.1,-0.4,0.3,-0.7,0.5,-1.1c0.3,-0.4,0.5,-0.8,0.6,-1.1c0,-0.1,0,-0.2,0,-0.2l0,-0.1c-0.4,0,-0.7,0.2,-0.9,0.4c-0.2,0.1,-0.4,0.2,-0.5,0.2c-0.1,0,-0.1,0,-0.1,-0.1c0.5,-0.6,2.4,-1.3,2.7,-1.3l0.1,0c0.1,0.3,-0.3,1.4,-0.7,2.1l-0.1,0.1l0.2,0c0.3,-0.3,0.8,-0.6,1.3,-0.9c0.5,-0.3,1.1,-0.6,1.7,-0.9c0,0,0.5,-0.2,0.5,-0.2c0.5,-0.2,0.9,-0.3,1.3,-0.2c0.1,0.1,-0.3,1,-0.6,1.5l-0.5,0.9Z" class="g2_2" />
<path d="M364.4,122.5l0,0c-1.1,0.3,-1.9,1.5,-1.9,1.6l-0.1,0l0.1,0c0.9,0.2,2.4,-0.3,3,-1.1c0.1,-0.2,0.1,-0.3,0,-0.4c-0.1,-0.2,-0.5,-0.2,-1.1,-0.1m1,-0.6c0.7,0,1.1,0.1,1.2,0.4c0.1,0.3,0,0.6,-0.4,0.9c-1,1.1,-2.7,1.5,-3.9,1.3l-0.1,0l0,0.1c-0.2,0.3,-0.2,0.6,-0.1,0.8c0.1,0.2,0.5,0.4,1.1,0.4c1.5,0.1,2.7,-0.2,4.4,-0.9c0.1,0,0.1,0,0.1,0c0,0,-0.2,0.3,-0.6,0.6c-2.7,1.2,-5,1.3,-5.9,0.5c-0.9,-0.9,1,-4.2,4.2,-4.1Z" class="g2_2" />
<g clip-path="url(#c0_2)">
<path d="M395.2,125.2c0,0.2,0.8,0.3,2.5,-0.6c0.9,-0.6,1.4,-1.7,0.4,-1.9c-0.9,-0.1,-2.8,1.9,-2.9,2.5m2.7,-3c0.9,-0.1,1.4,0,1.6,0.3c0.2,0.4,-0.2,1.5,-0.6,2.3c-0.6,1.1,-1.4,2.3,-2.1,3.1c-0.8,1.1,-1.8,1.3,-3,1.2c-0.5,-0.1,-0.5,-0.8,0.2,-0.9c0.4,0,1.4,0.7,2.2,-0.3c0.9,-1.1,1.7,-3,1.7,-3l-0.3,0.2c-0.2,0,-0.3,0.1,-0.5,0.2c-0.8,0.4,-2.8,1.2,-3.1,0.6c-0.5,-1.5,3.5,-3.6,3.9,-3.7Z" class="g2_2" />
</g>
<path d="M447.2,119.5l0,-0.1c0.2,-0.1,0.3,-0.1,0.5,0c0.1,0,0.1,0.2,0.1,0.4c0,0,0,0.1,-0.1,0.1l0,0.1c0,0.1,-0.1,0.2,-0.3,0.3c0,0,-0.4,0.1,-0.4,0.1c-0.4,0.3,-0.8,0.7,-1.2,1.2l-0.4,0.6l-0.5,0.5c0,0,2.4,0.2,2.5,0.2c0.6,0.1,1.3,0.2,1.4,0.8c0,0.1,0,0.2,-0.1,0.4c-0.1,0.2,-0.3,0.4,-0.4,0.7c-0.2,0.2,-0.3,0.4,-0.4,0.6c-0.3,0.4,-0.2,0.7,0.6,0.6c0.6,-0.1,1.3,-0.8,1.8,-1.5c0.5,-0.8,0.7,-0.9,0.5,-1.2c-0.2,-0.3,-0.5,-0.5,-1,-0.2c-0.2,0,-0.3,-0.1,-0.3,-0.2c0,-0.1,0.1,-0.3,0.3,-0.4c0.8,-0.2,1.2,0,1.5,0.4c0.4,0.3,0.3,0.9,-0.3,1.6c-0.8,1,-2.1,2.2,-3.3,2c-0.8,-0.1,-1.4,-0.3,-0.6,-1.5c0.9,-1.2,1.5,-1.7,-0.4,-1.6c-0.2,0,-2.2,-0.1,-2.2,-0.1l-0.1,0.1c-0.7,0.7,-1,1.2,-1.2,1.7c-0.6,1.2,-0.8,1.3,-1.1,1.3c-0.3,0,-0.4,-0.1,-0.3,-0.3c0,-0.1,0,-0.2,0.1,-0.3c0.2,-0.4,0.4,-0.7,0.7,-1.1c0.2,-0.3,0.4,-0.6,0.6,-1l0.1,-0.2c0,0,0.1,0,0.1,0c0.1,-0.1,0.1,-0.2,0.1,-0.2l0,-0.1c-0.1,-0.1,-0.4,-0.1,-0.7,-0.1l-0.2,0l-0.2,0c-0.3,0,-0.7,0,-0.7,-0.2c0,0,0,-0.1,0,-0.1l0,-0.1c0.1,0,0.1,-0.1,0.2,-0.2l0,-0.1c0.1,0.1,0.1,0.1,0.1,0.1l1,0c0.6,0,1.2,0.1,1.2,0.1c0,0,2.3,-2.5,2.9,-3.1c0,0,0.1,0,0.1,0Z" class="g2_2" />
<g clip-path="url(#c0_2)">
<path d="M356.1,118.8c-1.7,0.6,-2.4,1,-3.4,2.3c-1.3,2.1,-1.6,4.5,-0.6,4.7c0.4,0.1,2.5,-2.7,4.2,-4c0.3,-0.1,0.5,-0.1,0.7,0c1.1,0.9,-1.4,3.8,-0.2,4.2c2,-1.3,3.2,-3.9,4.8,-5.4c0.6,-0.1,0.4,0.5,0.4,0.8c-0.2,0.5,-0.3,1.3,-1,1l-0.1,-0.2c-1.4,1.2,-2.5,4,-4.5,4.5c-0.8,0,-1,-0.5,-1,-1.2c0,-0.7,0.4,-1.8,0.5,-2.5l-0.2,0.2c-0.6,0.6,-0.8,0.7,-1.2,1.2c-0.8,0.9,-1.5,2.4,-2.6,2.2c-1.5,-0.2,-1.4,-2.7,-0.2,-5c1.1,-2.1,2.3,-3.1,3.9,-3.7c0.6,-0.2,1.4,0.5,0.5,0.9Z" class="g2_2" />
<path d="M471.1,123.1c-0.5,0.7,-1.8,0.9,-2.3,1l-0.2,0c0,0,0.2,-0.7,0.6,-1.2c0.3,-0.4,0.7,-0.6,1.2,-0.6c0.6,-0.1,0.7,0.2,0.8,0.4c0,0.1,-0.1,0.3,-0.1,0.4m0.9,-0.5c0,-0.7,-0.9,-0.9,-1.8,-0.7c-1.1,0.2,-2.1,0.7,-2.6,2.1l0,0.1L467.1,124c-0.5,0,-1.1,-0.1,-1.8,-0.2c0.4,-0.8,1.2,-1.8,1.8,-2.4c1.6,-1.7,2.1,-1.5,2.2,-1.5c0.1,0.1,0.2,0.3,0.4,0.3c0.4,0.2,0.7,-0.1,0.7,-0.4c0,-0.1,0,-0.3,-0.2,-0.4c-0.3,-0.1,-0.4,-0.1,-0.7,0c-0.9,0,-1.9,0.7,-3,1.8c-1.1,1,-1.9,2.4,-1.9,2.4c0,0,-0.5,-0.1,-0.8,-0.1c-0.2,0,-0.7,-0.1,-0.8,0.1c-0.3,0.5,0.6,0.5,1.1,0.6c0,0,-0.4,0.5,-1,2.1c-0.4,0.9,-0.6,1.8,-0.6,2.1c0,0.4,0.6,0.3,0.9,0c0.3,-0.2,-0.1,-0.4,0.3,-1.7c0.7,-1.7,1.2,-2.3,1.2,-2.3c0,0,1.8,0.2,2.2,0.2c0.3,0,0.4,0,0.4,0l0,0.1c-0.1,1,0.4,1.7,1.6,2c0.5,0.1,1,0,1.3,0c0.1,-0.1,0.4,-0.2,0.4,-0.3c0,-0.1,0,-0.2,-0.2,-0.2l-0.1,0c-0.3,0,-0.4,0,-0.6,0c-1,-0.1,-1.3,-0.7,-1.3,-1c-0.1,-0.3,-0.1,-0.7,-0.1,-0.7l0.4,0c1.2,-0.2,2.3,-0.7,2.8,-1.3c0.2,-0.2,0.3,-0.4,0.3,-0.6Z" class="g2_2" />
</g>
<path d="M462,124.7c-0.4,0.2,-1.5,0.9,-1.6,0.8c-0.1,-0.1,-0.4,-0.7,1.2,-2.4c0,0,0.3,-0.3,0.3,-0.3c0.2,-0.2,0.2,-0.4,0,-0.5c-0.1,0,-0.5,0,-0.8,0.3c-0.3,0.2,-0.5,0.5,-0.8,0.9c-0.1,0,-0.2,0.1,-0.3,0.2c-0.4,0.4,-2.7,1.9,-3.3,1.7c-0.4,-0.2,0,-1.8,0.7,-2.8c0.7,-1,1,-1.4,1.7,-2.1c0.4,-0.4,0.8,-0.4,1.2,-0.6c0.3,-0.1,0.5,-0.3,0.5,-0.4c0.1,-0.2,-0.1,-0.3,-0.3,-0.3c-0.5,0,-1.4,0.5,-2.1,1.3c-0.5,0.5,-1.4,1.4,-2.2,2.9c-0.7,1.2,-0.6,2.3,-0.2,2.6c0.6,0.4,2.6,-0.8,3.7,-1.6c-0.6,1.1,-0.6,1.8,0.1,1.8c0.6,0,2.2,-1,2.4,-1.3c0.3,-0.4,0.2,-0.4,-0.2,-0.2Z" class="g2_2" />
<path d="M427.8,124.8c-0.2,0,-0.3,0.2,-0.5,0.3c-1,0.5,-1.1,0.5,-1.3,0.4c-0.1,0,-0.3,-0.6,0.7,-1.8c0.4,-0.5,0.7,-0.6,0.9,-1c0.1,-0.1,0,-0.2,0,-0.2c-0.2,-0.2,-0.4,-0.3,-0.7,-0.2c0,0,-0.2,0.2,-0.2,0.2c-1.9,2,-2,3.1,-1.5,3.5c0.5,0.5,2.5,-0.6,2.6,-0.7c0.1,-0.2,0.1,-0.5,0,-0.5Z" class="g2_2" />
<path d="M429.9,123.9c0.6,-0.9,1.4,-1.7,2.1,-1.6c0.1,0.1,0.1,0.1,0.1,0.1c0.3,0.6,-0.6,1.5,-2.4,1.7Zm2.3,1.2c-0.6,0.5,-1.6,0.8,-2.3,0.7c-0.4,-0.1,-0.5,-0.8,-0.2,-1.3c1.9,0,4.2,-1.9,2.6,-2.4c-1.3,-0.3,-2.9,1,-3.5,2.6c-0.9,2.3,2.6,1.7,3.8,0.5c0.4,-0.3,0,-0.4,-0.4,-0.1Z" class="g2_2" />
<path d="M417,104.2c0,3,1.3,5.5,4.9,5.5c3.7,0,5,-2.5,5,-5.5c0,-3,-1.3,-5.5,-5,-5.5c-3.6,0,-4.9,2.5,-4.9,5.5m-2.6,0c0,-4.3,4.1,-6.3,7.5,-6.3c3.5,0,7.6,2,7.6,6.3c0,4.2,-4.1,6.3,-7.6,6.3c-3.4,0,-7.5,-2.1,-7.5,-6.3Z" class="g2_2" />
<path d="M401.6,110.2l-4.9,-9.7l-1.5,8.8l1.9,0.4l0,0.5l-5.2,0l0,-0.5l2.1,-0.4l2,-11.1l2,0l4.6,9.1l5.1,-9.1l1.7,0l2,11.1l2.2,0.4l0,0.5l-6.7,0l0,-0.5l2.1,-0.4l-1.5,-8.8l-5.2,9.7Z" class="g2_2" />
<path d="M432.5,98l1.4,0l9.8,9.2l0,-8.2l-2.3,-0.4l0,-0.4l5.1,0l0,0.4L444.7,99l0,11.3l-1,0l-10.2,-9.5l0,8.5l2.3,0.4l0,0.5l-5.3,0l0,-0.5l2,-0.4Z" class="g2_2" />
<path d="M367.1,109.4l0,-5.1l7.6,0l0,-0.8l-7.6,0l0,-4.6l0.4,0c2.2,0,7.2,0.6,7.2,0.6l0,-1.3l-12.1,0l0,0.4l2.2,0.4l0,10.3l-2.2,0.4l0,0.5l12.3,0l0,-1.5c0,0,-5.7,0.7,-7.3,0.7Z" class="g2_2" />
<g clip-path="url(#c1_2)">
<path d="M385.3,104.6l0,0.5l2.3,0.5l0,3.8c-0.7,0.1,-1.6,0.3,-3,0.3c-3.4,0,-5.2,-2.2,-5.2,-5.4c0,-4.3,2.4,-5.6,5.3,-5.6c1.9,0,3.9,0.7,4.9,1.3l0.5,-1.4c-1.5,-0.4,-3.6,-0.7,-5.6,-0.7c-3.2,0,-7.7,1.6,-7.7,6.5c0,3.9,3.7,6.1,7.8,6.1c1.7,0,2.9,-0.2,5.3,-0.7l0,-4.2l1.9,-0.5l0,-0.5Z" class="g2_2" />
</g>
<path d="M459.8,98.2l0,1.4c0,0,-3.2,-0.7,-4.7,-0.7l-0.4,0l0,10.4l2.2,0.4l0,0.5l-6.8,0l0,-0.5l2.2,-0.4l0,-10.4l-0.4,0c-1.5,0,-4.7,0.7,-4.7,0.7l0,-1.4Z" class="g2_2" />
<path d="M417,104.2c0,3,1.3,5.5,4.9,5.5c3.7,0,5,-2.5,5,-5.5c0,-3,-1.3,-5.5,-5,-5.5c-3.6,0,-4.9,2.5,-4.9,5.5m-2.6,0c0,-4.3,4.1,-6.3,7.5,-6.3c3.5,0,7.6,2,7.6,6.3c0,4.2,-4.1,6.3,-7.6,6.3c-3.4,0,-7.5,-2.1,-7.5,-6.3Z" class="g2_2" />
<path d="M401.6,110.2l-4.9,-9.7l-1.5,8.8l1.9,0.4l0,0.5l-5.2,0l0,-0.5l2.1,-0.4l2,-11.1l2,0l4.6,9.1l5.1,-9.1l1.7,0l2,11.1l2.2,0.4l0,0.5l-6.7,0l0,-0.5l2.1,-0.4l-1.5,-8.8l-5.2,9.7Z" class="g2_2" />
<path d="M432.5,98l1.4,0l9.8,9.2l0,-8.2l-2.3,-0.4l0,-0.4l5.1,0l0,0.4L444.7,99l0,11.3l-1,0l-10.2,-9.5l0,8.5l2.3,0.4l0,0.5l-5.3,0l0,-0.5l2,-0.4Z" class="g2_2" />
<path d="M367.1,109.4l0,-5.1l7.6,0l0,-0.8l-7.6,0l0,-4.6l0.4,0c2.2,0,7.2,0.6,7.2,0.6l0,-1.3l-12.1,0l0,0.4l2.2,0.4l0,10.3l-2.2,0.4l0,0.5l12.3,0l0,-1.5c0,0,-5.7,0.7,-7.3,0.7Z" class="g2_2" />
<g clip-path="url(#c1_2)">
<path d="M385.3,104.6l0,0.5l2.3,0.5l0,3.8c-0.7,0.1,-1.6,0.3,-3,0.3c-3.4,0,-5.2,-2.2,-5.2,-5.4c0,-4.3,2.4,-5.6,5.3,-5.6c1.9,0,3.9,0.7,4.9,1.3l0.5,-1.4c-1.5,-0.4,-3.6,-0.7,-5.6,-0.7c-3.2,0,-7.7,1.6,-7.7,6.5c0,3.9,3.7,6.1,7.8,6.1c1.7,0,2.9,-0.2,5.3,-0.7l0,-4.2l1.9,-0.5l0,-0.5Z" class="g2_2" />
</g>
<path d="M459.8,98.2l0,1.4c0,0,-3.2,-0.7,-4.7,-0.7l-0.4,0l0,10.4l2.2,0.4l0,0.5l-6.8,0l0,-0.5l2.2,-0.4l0,-10.4l-0.4,0c-1.5,0,-4.7,0.7,-4.7,0.7l0,-1.4Z" class="g2_2" />
<text
x="317"
y="202"
dx="0,0,0,0,0,0,0,0,0,0,0,0,0,0,0,0,0,0,0,0,0,-0.2,0,0,0,0,0,0,0,0,0,0,0,0,0,0,0,0"
class="s1_2"
>First published in Great Britain 2016 </text>

<text
x="296"
y="219"
dx="0,0,0,0,0,0,0,0,0,0,0,0,0,0,0,0,0,0,0,0,0,0,0,0,0,0,0,-1.1,0,0,0,0,0,0,0,0,0,0,0,0,0,0"
class="s1_2"
>by Egmont UK Limited, The Yellow Building,</text>

<text
x="317"
y="236"
dx="0,0,0,0,0,0,0,0,0,0,0,0,0,0,0,0,0,0,0,0,0,0,0,0,0,0,0,0,0,0,0,0"
class="s1_2"
>1 Nicholas Road, London W11 4AN.</text>

<text
x="330"
y="269"
dx="0,0,0,0,0,0,0,0,0,0,0,0,0,0,0,0,0,0,0,0,0,0,0,0,0,0,0"
class="s1_2"
>© 2016 CoderDojo Foundation</text>

<text
x="349"
y="301"
dx="0,-0.2,0,0,0,0,0,0,0,0,0,0,0,0,0,0,0,0,0,0,0,0,0,0"
class="s1_2"
>Written by Clyde Hatter </text>

<text
x="353"
y="317"
dx="0,0,0,0,0,0,0,0,0,0,0,0,0,0,0,0,0,0,0,0,0,0,0"
class="s1_2"
>Edited by Emil Fortune </text>

<text
x="340"
y="332"
dx="0,0,0,0,0,0,0,0,0,0,0,0,0,0,0,0,0,0,0,0,0,0,0,0,0,0,0,0,0"
class="s1_2"
>Illustrations by Gary Lucken </text>

<text
x="336"
y="347"
dx="0,0,0,0,0,0,0,0,0,0,0,0,0,0,0,0,0,0,0,0,0,0,0,0,0,0"
class="s1_2"
>Designed by Maddox Philpot</text>

<text
x="128"
y="378"
dx="0,0,0,0,0,0,0,0,0,0,0,0,0,0,0,0,0,0,0,0,0,0,0,0,0,0,0,0,0,0,0,0,0,0,0,0,0,0,0,0,0,0,0,0,0,0,0,0,0,0,0,0,0,0,0,0,0,0,0,-1.1,0,0,0,0,0,0,0,0,0,0,0,0,0,0,0,0,0,0,0,0,0,0,0,0,0,0,0,0,0,-1.4,0,0,0,0,0,0,0,0,0,0,0,0,0,0,-1.1,-0.2,0,0,0,0"
class="s1_2"
>Special thanks to: all the brilliant team at CoderDojo Bray, especially Keelin Donohoe, Tom Morley and Trevor </text>

<text
x="125"
y="393"
dx="0,0,0,0,0,0,0,0,0,0,0,0,0,0,0,0,0,0,0,0,0,-0.2,0,0,0,0,0,0,0,0,0,0,0,0,0,0,0,0,0,0,0,0,0,0,0,0,0,0,0,0,0,0,0,0,0,0,0,0,0,0,0,0,0,0,0,0,0,0,0,0,0,0,0,0,0,0,0,0,0,0,0,0,0,0,0,0,0,0,0,0,0,0,0,0,0,0,0,0,0,0,0,0,0,0,0,0,0,0,0,0,0,0"
class="s1_2"
>Craig in the HTML stream; Marta Sikora for technical advice; Laura Ivers for Sushi excellence; Giustina Mizzoni </text>

<text
x="194"
y="408"
dx="0,0,0,0,0,0,0,0,0,0,0,0,0,0,0,0,0,0,0,0,0,0,0,0,0,0,0,0,0,-0.2,0,0,0,0,0,0,0,0,0,0,0,0,0,0,0,0,0,0,0,0,0,0,0,0,0,0,0,0,0,0,0,0,0,0,0,0,0,-0.2,0,0,0,0,0,0,0,0,0,0,0,0,0,0,-1.1"
class="s1_2"
>for keeping the show on the road; Maeve, Helen and Daniel for all-round solidarity.</text>

<text
x="320"
y="439"
dx="0,0,0,0,0,0,0,0,0,0,0,0,0,0,0,0,0,0,0,0,0,0,0,0,0,0,0,0,0,0,0,-0.2,0,0,0"
class="s1_2"
>Dedicated to Bray ninjas: you rock!</text>

<text
x="346"
y="473"
dx="0,0,0,0,0,0,0,0,0,0,0,0,0,0,0,0,0,0,0,0,0,0"
class="s1_2"
>ISBN 978 1 4052 7873 7</text>

<text
x="389"
y="489"
dx="0,0,0,0,0,0,0,0"
class="s1_2"
>60757/1 </text>

<text
x="374"
y="506"
dx="0,0,0,0,0,0,0,0,0,0,0,0,0,0,0,0,0"
class="s1_2"
>Printed in Italy </text>

<text
x="130"
y="540"
dx="0,0,0,0,0,0,0,0,0,0,0,0,-0.2,0,0,0,0,0,0,0,0,0,0,0,0,0,0,0,0,0,0,0,0,0,0,0,0,0,0,0,0,0,0,0,0,0,0,0,0,0,0,0,0,0,0,0,0,-0.2,0,0,-0.2,0,0,0,0,0,0,0,0,0,0,0,-0.2,0,0,0,0,0,0,0,0,-0.2,0,0,0,0,0,0,0,0,0,0,0,0,0,0,0,0,0,0,0,0,0,0,0,0,0,0,0,0,0,0,0"
class="s1_2"
>All rights reserved. No part of this publication may be reproduced, stored in a retrieval system, or transmitted </text>

<text
x="132"
y="557"
dx="0,0,0,0,0,0,0,0,0,0,0,0,0,0,0,0,0,0,0,0,0,0,0,0,0,0,0,0,0,0,0,0,0,0,0,-0.2,0,0,0,0,0,0,0,0,0,0,0,0,0,0,0,0,0,0,0,0,0,0,0,0,0,0,0,0,0,0,0,0,0,0,0,0,0,0,0,0,0,0,0,0,0,0,0,0,0,0,0,0,0,0,0,0,0,0,0,0,0,0,0,0,0,0,0,0,0,0"
class="s1_2"
>in any form or by any means, electronic, mechanical, photocopying or otherwise, without the prior consent </text>

<text
x="350"
y="573"
dx="0,0,0,0,0,0,0,0,0,0,0,0,0,0,0,0,0,0,0,0,0,0,-1.1"
class="s1_2"
>of the copyright owner.</text>

<text
x="303"
y="607"
dx="0,0,0,0,0,0,0,0,0,0,0,0,0,0,0,0,0,0,0,0,0,0,0,0,0,0,0,0,0,0,0,0,0"
class="s1_2"
>ONLINE SAFETY FOR YOUNGER READERS</text>

<text
x="322"
y="624"
dx="0,0,0,0,0,0,0,0,0,0,0,0,0,0,0,0,0,0,0,0,0,0,0,0,0,0,-0.2,0,0,0,0,0,0,0,0"
class="s1_2"
>Spending time online is great fun! </text>

<text
x="128"
y="641"
dx="0,0,0,-0.2,0,0,0,-0.2,0,0,0,0,0,0,0,0,0,0,0,0,0,0,0,0,0,0,0,0,0,0,0,0,0,0,0,0,0,0,0,0,0,0,0,0,0,0,0,0,0,0,0,0,0,0,0,0,0,0,0,0,0,0,0,0,0,0,0,0,0,0,0,0,0,0,0,0,0,0.2,0,0,0,0,0,0,0,-0.2,0,0,0,0,0,0,0,0,0,0,0,0,0,0,0,0,0,0,0,0,0,0,0"
class="s1_2"
>Here are a few simple rules to help younger fans stay safe and keep the internet a great place to spend time:</text>

<text
x="252"
y="674"
dx="0,0,-0.8,0,0,0,0,0,0,0,0,0,0,0,0,0,0,0,0,0,0,0,0,-0.2,0,0,0,0,0,0,0,0,0,0,0,0,0,0,0,0,0,0,0,0,0,0,0,0,0,0,0,0,0,0,0,0,0,0,0,0.2,0,0,0,0"
class="s1_2"
>• Never give out your real name – don't use it as your username.</text>

<text
x="303"
y="691"
dx="0,0,-0.8,0,0,0,0,0,0,0,0,0,0,0,0,0,0,0,0,0,0,0,0,0,0,0,0,0,0,0,0,0,0,0,0,0,0,0,0,0,0,0,0,0,0,0"
class="s1_2"
>• Never give out any of your personal details.</text>

<text
x="252"
y="708"
dx="0,0,-0.8,0,0,0,0,0,0,0,0,0,0,0,0,0,0,0,0,0,0,0,0,0,0,0,0,0,0,0,0,0,0,0,0,0,0,0,0,0,0,0,0,0,0,0,0,0,0,0,0,0,0,0,0,0,0,0,0,0,0,-0.2,0"
class="s1_2"
>• Never tell anybody which school you go to or how old you are.</text>

<text
x="248"
y="725"
dx="0,0,-0.8,0,0,0,0,0,0,0,0,0,0,0,0,0,0,0,0,0,0,0,0,0,0,0,0,0,0,0,0,0,0,-0.2,0,0,0,0,0,0,0,0,0,0,0,0,0,-0.2,0,0,0,0,0,0,0,0,0,0,0,0,-0.2,0,0,0,0"
class="s1_2"
>• Never tell anybody your password except a parent or a guardian.</text>

<text
x="223"
y="741"
dx="0,0,-0.8,0,0,0,0,0,0,-0.2,0,0,0,0,0,0,0,0,0,0,0,0,0,0,0,0,0,0,0,0,0,0,0,0,0,0,0,0,0,0,0,0,0,0,-0.2,0,0,0,0,0,0,0,0,0,0,0,0,0,0,0,0,0,0,0,0,0,0,0,0,0,0,0,0,0,0"
class="s1_2"
>• Be aware that you must be 13 or over to create an account on many sites. </text>

<text
x="179"
y="758"
dx="0,0,-0.8,0,0,0,0,0,0,0,0,0,0,0,0,0,0,0,0,0,0,0,0,0,0,0,0,0,0,0,0,0,0,0,0,0,0,0,0,0,0,0,0,0,-0.2,0,0,0,0,0,0,0,0,0,0,-0.2,0,0,0,0,0,0,0,0,0,0,0,0,0,0,0,0,0,0,0,0,0,0,0,0,-0.2,0,0,-0.2,0,0,0,0,0,0,0,0,0,0"
class="s1_2"
>• Always check the site policy and ask a parent or guardian for permission before registering.</text>

<text
x="256"
y="775"
dx="0,0,-0.8,0,0,0,0,0,0,0,0,0,0,0,0,0,0,0,0,-0.2,0,0,0,0,0,0,0,0,0,0,-0.2,0,0,0,0,0,0,0,0,0,0,0,0,0,0,0,0,0,0,0,0,0,0,0,0,0,0,0,0,0,0,0,0,0"
class="s1_2"
>• Always tell a parent or guardian if something is worrying you.</text>

<text
x="214"
y="826"
dx="0,0,0,0,0,0,0,0,0,0,0,0,0,0,0,0,0,0,0,0,0,0,0,0,0,0,0,0,0,0,0,0,0,0,-0.2,0,0,0,0,0,0,0,0,0,0,0,0,0,0,0,0,0,0,0,0,0,0,0,0,0,0,0,-0.2,0,0,0,0,0,-0.2,0,0,0,0,0,0,0,0,0,0"
class="s1_2"
>Stay safe online. Any website addresses listed in this book are correct at the </text>

<text
x="166"
y="842"
dx="0,0,0,0,0,0,0,0,0,0,0,0,0,0,0,0,0,0,0,0,0,0,0,0,0,0,0,0,0,0,0,-1.1,0,0,0,0,0,0,0,0,0,0,0,0,0,0,0,0,-0.2,0,0,0,0,0,0,0,0,0,0,0,0,0,0,0,0,0,0,0,0,0,0,0,0,0,0,0,0,0,0,0,0,0,0,0,0,-0.2,0,0,0,0,0,0,0,0,0,0"
class="s1_2"
>time of going to print. However, Egmont is not responsible for content hosted by third parties. </text>

<text
x="144"
y="859"
dx="0,0,0,0,0,0,0,0,0,0,0,0,0,0,-0.2,0,0,0,0,0,0,0,0,0,0,0,0,0,0,0,0,0,0,0,0,0,0,0,0,0,0,0,0,0,0,0,0,0,0,0,0,0,0,0,0,0,0,0,0,0,0,0,0,0,0,0,0,0,0,0,0,0,0,0,0,0,0,0,0,0,0,0,0,0,0,0,0,0,0,0,0,0,0,0,0,0,0,0,0,0,0,0"
class="s1_2"
>Please be aware that online content can be subject to change and websites can contain content that is </text>

<text
x="176"
y="876"
dx="0,0,0,0,0,0,0,0,0,0,0,0,0,0,0,0,0,0,0,0,0,-0.2,0,0,0,0,-0.2,0,0,0,0,0,0,0,0,0,0,0,0,0,0,0,0,0,0,0,0,0,0,0,-0.2,0,0,0,0,-0.2,0,0,0,0,0,0,0,0,0,0,0,0,0,0,0,0,0,0,0,0,0,0,0,0,0,0,0,0,0,0,0,0,0.2,0,0,0,0"
class="s1_2"
>unsuitable for children. We advise that all children are supervised when using the internet. </text>

<path d="M952,229l0,6l-5,0l0,220l5,0l0,6l563,0l0,-6l6,0l0,-220l-6,0l0,-6Z" class="g2_2" />
<text
x="958"
y="310"
dx="0,-9.4,-6.8,-9.8,-8.4,-8.2,0,0,-7.6,-9.6,-8.2"
class="s2_2"
>create with</text>

<text
x="950"
y="437"
dx="0"
class="s3_2"
>&lt;</text>

<text
x="1030"
y="441"
dx="0,-16.8,-12.7,-11.9"
class="s3_2"
>code</text>

<text
x="1430"
y="437"
dx="0"
class="s3_2"
>&gt;</text>

<path d="M1044,506l0,6l-5,0l0,132l5,0l0,5l379,0l0,-5l6,0l0,-132l-6,0l0,-6Z" class="g2_2" />
<text
x="1058"
y="556"
dx="0,-3.4,-3.9,-3.7,-5.7,0,0,-3.7,-3.3,-3.2,0,0,-3.2,-3.2,0"
class="s4_2"
>build your own </text>

<text
x="1056"
y="628"
dx="0,-6,-10.1,-7.9,-8.1,-9.2,-7.9"
class="s5_2"
>website</text>

<path d="M108,789l606,0l0,-202l-606,0l0,202Z" class="g3_2" />
<path d="M1149,139l0,39l5,0l0,4l160,0l0,-4l4,0l0,-39Z" class="g2_2" />
<text
x="1185"
y="168"
dx="0,0,-1.9,-1.9,-1.9,0"
class="s6_2"
>&lt;NANO&gt;</text>

<g clip-path="url(#c2_2)">
<path fill-rule="evenodd" d="M1180.1,127.9l-0.3,0c-0.5,0,-1,0,-1.5,0c-0.1,0,-0.2,0,-0.3,0c-0.3,0.1,-0.5,0.4,-0.5,0.7c0.1,0.4,0.4,0.6,0.7,0.6c1.7,0,3.4,0,5.1,0l0.1,0c0.3,0,0.4,-0.2,0.5,-0.4c0.1,-0.1,0.1,-0.2,0.1,-0.3c0,-1.1,0,-2.1,0,-3.2c0,-0.1,0,-0.1,0,-0.1c-0.1,-0.4,-0.5,-0.7,-0.8,-0.6c-0.3,0.1,-0.5,0.3,-0.5,0.7c0,0.8,0,1.5,0,2.3l0,0.3c-0.4,0,-0.9,0,-1.3,0l0,-1c0,-0.3,0,-0.7,0,-1l0,-0.9l0,-1c0,-0.3,0,-0.7,0,-1c0,-0.3,0,-0.7,0,-1l0,-0.9c0,-0.4,0,-0.7,0,-1c0,-0.3,0,-0.7,0,-1l-0.8,0c-0.8,0,-1.6,0,-2.4,0c-0.3,0,-0.6,0.3,-0.6,0.6c0,0.4,0.2,0.7,0.6,0.7c0.5,0,1.1,0,1.6,0l0.3,0Zm-5.6,4.7c0,0,0,-0.1,0,-0.1c0,0,-0.1,0,-0.1,-0.1c-0.6,-0.4,-1.2,-0.8,-1.7,-1.4c-2.5,-2.6,-3.5,-5.6,-3,-9.2c0.3,-2.5,1.6,-4.7,3.5,-6.4c2.1,-1.8,4.5,-2.7,7.3,-2.7c0.5,-0.1,1.1,-0.1,1.6,-0.2c2.4,-0.3,4.4,-1.4,6,-3.2c2.1,-2.4,3,-5.2,2.4,-8.4c-0.5,-2.6,-1.8,-4.6,-3.8,-6.2c-1.6,-1.1,-3.4,-1.8,-5.3,-2c-0.7,0,-1.4,0,-2.1,0c-1.3,0.1,-2.6,0.3,-3.9,0.6c-5.9,1.5,-10.8,5.4,-13.5,10.9c-1.2,2.4,-1.9,4.9,-2,7.6c-0.1,0.9,-0.1,1.9,0,2.9c0.1,1.2,0.3,2.3,0.6,3.5c0.9,3.6,2.8,6.7,5.4,9.3c2.4,2.4,5.2,4,8.4,5c0.1,0,0.1,0.1,0.2,0.1m6.9,-40.8c0.3,0.1,0.6,0.1,0.9,0.1c2.6,0.3,5.1,0.9,7.4,2.1c5.2,2.5,8.8,6.6,10.8,12c0.6,1.6,0.9,3.2,1.1,4.8c1.1,10.2,-5.2,19.4,-14.4,22.4c-1.6,0.5,-3.3,0.9,-4.9,1c-0.3,0,-0.6,0,-1,0.1c-0.1,0,-0.1,0,-0.2,0l-1.2,0c-0.2,0,-0.3,0,-0.4,0c-1.3,-0.1,-2.5,-0.2,-3.7,-0.5c-4.9,-1.1,-9,-3.7,-12.2,-7.7c-2.7,-3.4,-4.2,-7.2,-4.6,-11.6c0,-0.2,0,-0.4,0,-0.6l0,-1.6c0,-0.2,0,-0.5,0,-0.7c0.1,-1.5,0.4,-3.1,0.9,-4.6c1.9,-5.9,5.6,-10.3,11.2,-13c2.4,-1.2,5,-1.9,7.7,-2.1c0.3,0,0.6,0,1,-0.1Z" class="g2_2" />
<path fill-rule="evenodd" d="M1304.9,116.5c0,-1.6,0,-3.2,0,-4.8c0,-0.5,0,-1.1,0,-1.7c0,-0.2,0,-0.4,-0.1,-0.6c0,-0.2,-0.2,-0.3,-0.4,-0.4c-0.4,-0.1,-0.8,-0.1,-1.2,0c-0.2,0.1,-0.4,0.2,-0.4,0.5c-0.1,0.2,-0.1,0.4,-0.1,0.6c0,4.3,0,8.6,0,12.9c0,0.2,0,0.4,0.1,0.6c0,0.2,0.2,0.3,0.4,0.4c0.4,0.1,0.8,0.1,1.2,0c0.3,0,0.4,-0.2,0.5,-0.5c0,-0.2,0,-0.5,0,-0.7c0,-2.1,0,-4.2,0,-6.3m3.6,7.2c0,0,0,0.1,0,0.1c-0.2,1.6,-1.1,3.2,-3.2,3.6c-1.1,0.2,-2.1,0.2,-3.2,0c-1.6,-0.5,-2.6,-1.5,-2.9,-3.2c-0.1,-0.4,-0.1,-0.8,-0.1,-1.2c0,-4.3,0,-8.7,0,-13c0,-0.6,0.1,-1.1,0.2,-1.6c0.4,-1.4,1.3,-2.4,2.7,-2.8c1.2,-0.3,2.3,-0.3,3.5,0c1.6,0.4,2.6,1.5,2.9,3.1c0.1,0.2,0.1,0.4,0.1,0.6Z" class="g2_2" />
</g>
<path fill-rule="evenodd" d="M1272.4,123.7c0.6,0,1.2,0,1.7,0c0.5,-0.1,0.8,-0.4,0.9,-0.9c0.1,-0.2,0.1,-0.5,0.1,-0.7c0,-5.9,0,-11.7,0,-17.6c0,-0.1,0,-0.3,0,-0.4c-0.1,-0.8,-0.5,-1.2,-1.4,-1.2c-0.3,-0.1,-0.7,-0.1,-1.1,-0.1c0,0.1,-0.1,0.1,-0.2,0.1Zm-3.9,-24.6l0.3,0c1.6,0,3.2,0,4.8,0c0.7,0,1.3,0.1,2,0.3c1.8,0.5,2.8,1.6,3.2,3.4c0.2,0.5,0.2,1,0.2,1.5c0,6,0,12,0,18c0,0.6,-0.1,1.2,-0.2,1.8c-0.5,1.6,-1.5,2.6,-3.1,3c-0.6,0.2,-1.2,0.3,-1.8,0.3c-1.7,0,-3.5,0,-5.2,0c0,0,-0.1,0,-0.2,0c0,-0.1,0,-0.1,0,-0.1c0,-0.1,0,-0.1,0,-0.2c0,-9.3,0,-18.6,0,-27.9l0,-0.1Z" class="g2_2" />
<path fill-rule="evenodd" d="M1219,116.3l3.6,0c0.1,0,0.1,0.1,0.1,0.1c0,2.3,0,4.5,0,6.7c-0.1,0.6,-0.2,1.2,-0.3,1.7c-0.5,1.4,-1.4,2.3,-2.8,2.6c-1.3,0.4,-2.7,0.4,-4.1,-0.1c-1.6,-0.4,-2.6,-1.6,-2.9,-3.2c-0.1,-0.5,-0.2,-1,-0.2,-1.4c0,-6.3,0,-12.5,0,-18.8c0,-0.6,0.1,-1.2,0.3,-1.8c0.4,-1.5,1.3,-2.5,2.8,-2.9c1.3,-0.4,2.6,-0.5,3.9,-0.2c1.6,0.4,2.6,1.5,3.1,3.1c0.1,0.6,0.2,1.3,0.2,1.9c0,1.7,0,3.4,0,5.1l0,0.3l-3.7,0l0,-0.3c0,-1.7,0,-3.4,0,-5c0,-0.3,0,-0.6,-0.1,-0.8c-0.1,-0.5,-0.3,-0.6,-0.7,-0.7c-0.3,-0.1,-0.6,-0.1,-0.9,0c-0.4,0.1,-0.7,0.3,-0.8,0.8c-0.1,0.2,-0.1,0.5,-0.1,0.8c0,4.7,0,9.4,0,14.2c0,1.3,0,2.7,0,4c0,0.3,0,0.5,0.1,0.8c0,0.4,0.3,0.7,0.8,0.8c0.3,0,0.6,0,0.9,0c0.4,-0.1,0.6,-0.3,0.7,-0.7c0,-0.2,0.1,-0.5,0.1,-0.8c0,-2,0,-3.9,0,-5.9Z" class="g2_2" />
<path fill-rule="evenodd" d="M1240.4,116.5c0,2.1,0,4.2,0,6.2c0,0.3,0,0.6,0.1,0.9c0,0.2,0.1,0.3,0.3,0.4c0.7,0.1,1.3,0,1.8,-0.6c0.1,-0.2,0.2,-0.3,0.1,-0.5c0,-1.7,0,-3.3,0,-5c0,-2.6,0,-5.2,0,-7.8c0.1,-0.2,0,-0.3,-0.1,-0.5c-0.4,-0.5,-0.9,-0.7,-1.5,-0.6c-0.4,0.1,-0.6,0.2,-0.7,0.6c0,0.3,0,0.5,0,0.7c0,2.1,0,4.1,0,6.2m2.3,-10.4l0,-6.9c1.3,-0.1,2.5,-0.1,3.7,-0.1l0,28.2c-0.2,0.1,-2.8,0.1,-3.2,0c-0.1,-0.1,-0.1,-0.3,-0.1,-0.4c0,0,-0.1,0,-0.1,0c-0.6,0.4,-1.2,0.6,-1.9,0.7c-0.6,0,-1.2,0,-1.8,-0.1c-1.2,-0.4,-2,-1.2,-2.3,-2.4c-0.2,-0.6,-0.3,-1.2,-0.3,-1.8c0,-4.5,0,-9,0,-13.5c0,-0.6,0.1,-1.2,0.2,-1.8c0.4,-1.4,1.3,-2.2,2.7,-2.4c0.8,-0.1,1.6,-0.1,2.3,0.1c0.3,0.1,0.5,0.2,0.8,0.4Z" class="g2_2" />
<path fill-rule="evenodd" d="M1228.6,116.6c0,2.2,0,4.3,0,6.4c0,0.2,0,0.5,0,0.7c0.1,0.2,0.2,0.4,0.5,0.4c0.4,0.1,0.8,0.1,1.2,0c0.2,0,0.4,-0.2,0.4,-0.5c0.1,-0.2,0.1,-0.4,0.1,-0.6c0,-4.3,0,-8.5,0,-12.7c0,-0.3,0,-0.5,-0.1,-0.7c0,-0.3,-0.2,-0.4,-0.5,-0.5c-0.3,-0.1,-0.7,-0.1,-1.1,0c-0.2,0.1,-0.4,0.2,-0.5,0.5c0,0.2,0,0.4,0,0.6c0,2.2,0,4.3,0,6.4m5.8,0c0,2.2,0,4.5,0,6.7c0,0.5,-0.1,1,-0.2,1.5c-0.4,1.3,-1.3,2.2,-2.7,2.6c-1.2,0.4,-2.4,0.4,-3.6,0c-1.5,-0.4,-2.4,-1.4,-2.8,-2.9c-0.1,-0.5,-0.1,-0.9,-0.1,-1.4c0,-4.3,0,-8.7,0,-13c0,-0.5,0,-1,0.1,-1.5c0.4,-1.5,1.3,-2.4,2.8,-2.8c1.1,-0.4,2.3,-0.4,3.4,-0.1c1.7,0.4,2.7,1.6,3,3.3c0.1,0.4,0.1,0.8,0.1,1.2c0,2.2,0,4.3,0,6.4Z" class="g2_2" />
<path fill-rule="evenodd" d="M1287.2,116.6l0,-4.3c0,-0.7,0,-1.4,0,-2.1c0,-0.2,-0.1,-0.4,-0.1,-0.6c-0.1,-0.3,-0.2,-0.4,-0.5,-0.5c-0.4,-0.1,-0.7,-0.1,-1.1,0c-0.3,0.1,-0.4,0.2,-0.5,0.5c0,0.2,-0.1,0.4,-0.1,0.6c0,4.3,0,8.6,0,12.9c0,0.2,0.1,0.4,0.1,0.5c0,0.3,0.2,0.5,0.5,0.5c0.3,0.1,0.7,0.1,1.1,0c0.3,0,0.5,-0.2,0.5,-0.5c0,-0.2,0.1,-0.4,0.1,-0.7c0,-2.1,0,-4.2,0,-6.3m-5.9,0c0,-2.2,0,-4.3,0,-6.5c0,-0.5,0.1,-1.1,0.2,-1.6c0.4,-1.4,1.3,-2.4,2.8,-2.8c1.1,-0.3,2.3,-0.3,3.5,0c1.5,0.4,2.5,1.5,2.8,3.1c0.1,0.4,0.2,0.9,0.2,1.4c0,4.3,0,8.5,0,12.8c0,0.6,-0.1,1.2,-0.2,1.8c-0.4,1.3,-1.3,2.2,-2.7,2.6c-1.2,0.4,-2.4,0.4,-3.6,0.1c-1.6,-0.5,-2.6,-1.6,-2.9,-3.2c0,-0.4,-0.1,-0.8,-0.1,-1.2c0,-2.2,0,-4.4,0,-6.5Z" class="g2_2" />
<path fill-rule="evenodd" d="M1254.1,114.6c0.1,-0.1,0.1,-0.1,0.1,-0.2c0,-1.4,0,-2.8,0,-4.3c0,-0.2,-0.1,-0.4,-0.2,-0.5c0,-0.3,-0.2,-0.4,-0.4,-0.5c-0.3,-0.1,-0.6,-0.1,-0.8,0c-0.3,0,-0.5,0.2,-0.6,0.5c0,0.2,-0.1,0.4,-0.1,0.6c0,1.4,0,2.8,0,4.2c0,0.1,0,0.1,0,0.2Zm3.6,2.8l-5.6,0c0,0.1,0,0.2,0,0.3c0,1.7,0,3.5,0,5.3c0,0.2,0.1,0.4,0.1,0.7c0.1,0.3,0.3,0.4,0.6,0.5c0.2,0,0.5,0,0.7,-0.1c0.3,0,0.5,-0.2,0.6,-0.5c0,-0.2,0.1,-0.4,0.1,-0.6c0,-1.1,0,-2.2,0,-3.2l0,-0.3c0.2,0,3.2,-0.1,3.5,0c0,0.1,0,0.1,0,0.2c0,1.2,0,2.3,0,3.5c0,0.6,-0.1,1.1,-0.3,1.7c-0.4,1.3,-1.2,2.2,-2.6,2.5c-1,0.3,-2.1,0.3,-3.2,0.1c-1.4,-0.4,-2.3,-1.3,-2.8,-2.7c-0.1,-0.6,-0.2,-1.2,-0.2,-1.7c0,-4.3,0,-8.6,0,-12.9c0,-0.6,0.1,-1.2,0.3,-1.8c0.4,-1.5,1.4,-2.4,2.9,-2.7c1,-0.3,2,-0.2,3.1,0.1c1.5,0.4,2.3,1.4,2.6,2.9c0.2,0.5,0.2,1,0.2,1.5c0,2.3,0,4.6,0,6.9Z" class="g2_2" />
<path fill-rule="evenodd" d="M1290.1,131.7l0,-3.4c0.1,0,0.3,0.1,0.4,0.1c0.5,0.1,1,0.2,1.5,0.2c0.1,0,0.2,0,0.3,-0.1c0.4,0,0.6,-0.2,0.7,-0.6c0.1,-0.3,0.1,-0.6,0.2,-0.8c0,-0.1,0,-0.2,0,-0.3l0,-20.7l0,-0.3c0.2,-0.1,3.3,-0.1,3.6,0l0,0.3l0,17.6c0,1.1,0,2.3,0,3.4c0,0.7,0,1.3,-0.2,1.9c-0.4,1.4,-1.3,2.4,-2.8,2.8c-1.2,0.3,-2.4,0.3,-3.6,0c-0.1,0,-0.1,-0.1,-0.1,-0.1Z" class="g2_2" />
<path fill-rule="evenodd" d="M1266.7,106l0,4c-0.2,-0.2,-0.4,-0.3,-0.6,-0.4c-0.5,-0.4,-1,-0.4,-1.6,-0.3c-0.3,0.1,-0.5,0.2,-0.7,0.3c-0.2,0.2,-0.3,0.4,-0.3,0.7c0,5.6,0,11.2,0,16.7l0,0.3l-3.6,0c-0.1,-0.1,-0.1,-21,-0.1,-21.4c0.2,-0.1,2.7,-0.1,3.2,0c0,0.1,0.1,0.3,0.1,0.4c1.2,-0.7,2.3,-0.9,3.6,-0.3Z" class="g2_2" />
<path fill-rule="evenodd" d="M1293.2,104.3l0,-5.2c0.1,-0.1,3.2,-0.1,3.6,0c0,0.1,0.1,4.9,0,5.2Z" class="g2_2" />
<path fill-rule="evenodd" d="M1178,104.8l3.9,0c0,-0.3,0,-7.3,0,-7.5l-3.9,0Zm5.1,-3.8c0,1.3,0,2.5,0.1,3.8c0,0.6,-0.6,1.3,-1.4,1.3c-1.2,0,-2.5,0,-3.8,0c-0.6,0,-1.1,-0.4,-1.2,-1c-0.1,-0.1,-0.1,-0.2,-0.1,-0.3c0,-2.5,0,-5,0,-7.6c0,-0.2,0.1,-0.4,0.2,-0.6c0.2,-0.4,0.6,-0.6,1.1,-0.6c1.3,0,2.6,0,3.9,0c0.6,0,1.3,0.5,1.3,1.2c-0.1,1.3,-0.1,2.5,-0.1,3.8Z" class="g2_2" />


<!-- Any embedded fonts defined here -->
<style type="text/css" ><![CDATA[

@font-face {
	font-family: Frutiger-Light_1bl;
	src: url("fonts/Frutiger-Light_1bl.woff") format("woff");
}

@font-face {
	font-family: PixelSplitter-Bold_v;
	src: url("fonts/PixelSplitter-Bold_v.woff") format("woff");
}

@font-face {
	font-family: PixelSplitter-Bold_l;
	src: url("fonts/PixelSplitter-Bold_l.woff") format("woff");
}

@font-face {
	font-family: PixelSplitter-Bold__;
	src: url("fonts/PixelSplitter-Bold__.woff") format("woff");
}

@font-face {
	font-family: PixelSplitter-Bold_p;
	src: url("fonts/PixelSplitter-Bold_p.woff") format("woff");
}

]]></style>

</svg>
