<?xml version="1.0" encoding="UTF-8" standalone="no"?>
<!DOCTYPE svg PUBLIC "-//W3C//DTD SVG 1.1//EN"
"http://www.w3.org/Graphics/SVG/1.1/DTD/svg11.dtd">


<!-- Page 20 -->
<svg x="0" y="0" width="1645" height="1061" viewBox="0 0 1645 1061" version="1.1" xmlns="http://www.w3.org/2000/svg" xmlns:xlink="http://www.w3.org/1999/xlink"
style="display: block;margin-left: auto;margin-right: auto;">
<defs>

<style type="text/css"><![CDATA[

.g5_20{
fill: #989797;
}
.g9_20{
fill: #B897C1;
}
.g4_20{
fill: none;
stroke: #989898;
stroke-width: 5;
stroke-linecap: butt;
stroke-linejoin: miter;
stroke-miterlimit: 4;
}
.g7_20{
fill: none;
stroke: #FFFFFF;
stroke-width: 1;
stroke-linecap: round;
stroke-linejoin: round;
}
.g12_20{
fill: none;
stroke: #11151D;
stroke-width: 1;
stroke-linecap: butt;
stroke-linejoin: miter;
}
.g6_20{
fill: none;
stroke: #FFFFFF;
stroke-width: 3;
stroke-linecap: round;
stroke-linejoin: round;
stroke-miterlimit: 4;
}
.g14_20{
fill: #11151D;
}
.g1_20{
fill: #FAAD60;
}
.g11_20{
fill: none;
stroke: #11151D;
stroke-width: 1;
stroke-linecap: butt;
stroke-linejoin: miter;
stroke-miterlimit: 4;
}
.g2_20{
fill: #FFFFFF;
}
.g3_20{
fill: #E7DEEC;
}
.g13_20{
fill: none;
stroke: #11151D;
stroke-width: 2;
stroke-linecap: butt;
stroke-linejoin: miter;
stroke-miterlimit: 4;
}
.g8_20{
fill: none;
stroke: #FFFFFF;
stroke-width: 2;
stroke-linecap: round;
stroke-linejoin: round;
stroke-miterlimit: 4;
}
.g10_20{
fill: none;
stroke: #000000;
stroke-width: 2;
stroke-linecap: butt;
stroke-linejoin: miter;
stroke-miterlimit: 4;
}

.s11_20{
font-size: 8.93px;
font-family: Helvetica-Bold_1bu;
fill: #11151D;
}
.s12_20{
font-size: 8.93px;
font-family: Helvetica-Light_1by;
fill: #11151D;
}
.s8_20{
font-size: 8.93px;
font-family: Helvetica_1dx;
fill: #11151D;
}
.s9_20{
font-size: 8.93px;
font-family: Helvetica_1e3;
fill: #11151D;
}
.s6_20{
font-size: 10.27px;
font-family: Helvetica-Bold_1bu;
fill: #11151D;
}
.s4_20{
font-size: 13.21px;
font-family: Helvetica-Bold_1bu;
fill: #11151D;
}
.s1_20{
font-size: 18.33px;
font-family: PixelSplitter-Bold_1bs;
fill: #11151D;
}
.s7_20{
font-size: 19.35px;
font-family: Helvetica-Bold_1bu;
fill: #11151D;
}
.s13_20{
font-size: 12.22px;
font-family: PixelSplitter-Bold_1bs;
fill: #11151D;
}
.s10_20{
font-size: 11.91px;
font-family: Helvetica-Bold_1bu;
fill: #11151D;
}
.s5_20{
font-size: 12.31px;
font-family: Helvetica-Bold_1bu;
fill: #11151D;
}
.s2_20{
font-size: 15.28px;
font-family: AndaleMono_1cn;
fill: #11151D;
}
.s3_20{
font-size: 15.28px;
font-family: Helvetica-Light_1by;
fill: #11151D;
}

]]></style>

</defs>
<path d="M0,0
L0,1061
L1645,1061
L1645,0 Z " 
fill="#FFFFFF" stroke="none" />
<image x="-33" y="-32" width="1713" height="1115" xlink:href="20/img/1.png" />
<image x="-13" y="-11" width="1674" height="1073" opacity="0.5" xlink:href="20/img/2.png" />
<path d="M71,51l0,4l-4,0l0,395l4,0l0,4l254,0l0,-4l4,0L329,55l-4,0l0,-4Z" class="g1_20" />
<path d="M894,41l0,4l-4,0l0,461l4,0l0,4l254,0l0,-4l4,0l0,-461l-4,0l0,-4Z" class="g1_20" />
<path d="M71,478l0,4l-4,0l0,463l4,0l0,5l254,0l0,-5l4,0l0,-463l-4,0l0,-4Z" class="g1_20" />
<path d="M894,523l0,4l-4,0l0,474l4,0l0,4l254,0l0,-4l4,0l0,-474l-4,0l0,-4Z" class="g1_20" />
<path d="M346,52l0,4l-4,0l0,50l4,0l0,4l429,0l0,-4l4,0l0,-50l-4,0l0,-4Z" class="g2_20" />
<path d="M1172,41l0,4l-5,0l0,114l5,0l0,5l426,0l0,-5l4,0l0,-114l-4,0l0,-4Z" class="g2_20" />
<path d="M1172,523l0,4l-5,0l0,48l5,0l0,5l426,0l0,-5l4,0l0,-48l-4,0l0,-4Z" class="g2_20" />
<path d="M346,478l0,4l-4,0l0,163l4,0l0,4l429,0l0,-4l4,0l0,-163l-4,0l0,-4Z" class="g2_20" />
<path d="M348,120l0,2l0,2l-2,0l-2,0l0,324l2,0l2,0l0,2l0,2l425,0l0,-2l0,-2l2,0l2,0l0,-324l-2,0l-2,0l0,-2l0,-2Z" class="g3_20" />
<path d="M348.5,120.5l0,2l0,2l-2,0l-2,0l0,324l2,0l2,0l0,2l0,2l425,0l0,-2l0,-2l2,0l2,0l0,-324l-2,0l-2,0l0,-2l0,-2l-425,0Z" class="g4_20" />
<path d="M346,118l0,4l-4,0l0,33l437,0l0,-33l-4,0l0,-4Z" class="g5_20" />
<path d="M362.1,134.5c1.8,0,3.2,-1.4,3.2,-3.2c0,-1.8,-1.4,-3.2,-3.2,-3.2c-1.8,0,-3.2,1.4,-3.2,3.2c0,1.8,1.4,3.2,3.2,3.2Z" class="g2_20" />
<path d="M374.6,134.5c1.8,0,3.2,-1.4,3.2,-3.2c0,-1.8,-1.4,-3.2,-3.2,-3.2c-1.8,0,-3.2,1.4,-3.2,3.2c0,1.8,1.4,3.2,3.2,3.2Z" class="g2_20" />
<path d="M387.1,134.5c1.8,0,3.2,-1.4,3.2,-3.2c0,-1.8,-1.4,-3.2,-3.2,-3.2c-1.8,0,-3.2,1.4,-3.2,3.2c0,1.8,1.4,3.2,3.2,3.2Z" class="g2_20" />
<path d="M359.1,140.7c0,0,-2.2,0,-2.2,2.2l0,4.8c0,0,0,2.2,2.2,2.2l388.8,0c0,0,2.1,0,2.1,-2.2l0,-4.8c0,0,0,-2.2,-2.1,-2.2Z" class="g2_20" />
<path d="M442.5,141.9l-3,3.4l3,3.5" class="g6_20" />
<path d="M771.5,141.2l0,4.1c-0.5,-0.1,-1.1,-0.2,-1.6,-0.3c-0.7,-0.1,-1.4,-0.2,-2.1,-0.4c-0.2,0,-0.3,0,-0.4,0c0.5,-0.4,0.9,-0.8,1.4,-1.2c-0.7,-0.5,-1.4,-0.6,-2.2,-0.4c-0.7,0.2,-1.3,0.6,-1.7,1.2c-0.4,0.6,-0.5,1.3,-0.4,2c0.1,0.7,0.4,1.3,1,1.7c0.7,0.6,1.5,0.8,2.3,0.6c0.9,-0.2,1.6,-0.7,2,-1.5c0,-0.1,0,-0.1,0,-0.1c0.6,0.1,1.1,0.2,1.6,0.4c-0.3,0.8,-0.9,1.5,-1.6,2.1c-0.7,0.4,-1.5,0.7,-2.4,0.7c0,0,0,0.1,-0.1,0.1l-0.2,0c0,0,0,-0.1,-0.1,-0.1c-0.3,0,-0.6,0,-0.8,-0.1c-0.9,-0.2,-1.7,-0.7,-2.3,-1.4c-0.6,-0.7,-0.9,-1.5,-1,-2.4c0,-0.1,-0.1,-0.2,-0.1,-0.3l0,-0.3l0.1,-0.1c0,-0.1,0,-0.3,0,-0.5c0.2,-0.9,0.5,-1.6,1.1,-2.2c0.7,-0.8,1.5,-1.2,2.5,-1.4c0.5,-0.1,1,-0.1,1.5,0c0.8,0.2,1.4,0.5,2,0.9c0.1,0.1,0.1,0.1,0.1,0c0.3,-0.2,0.6,-0.4,0.9,-0.6c0.2,-0.2,0.4,-0.3,0.5,-0.5Z" class="g2_20" />
<path d="M771.5,141.2l0,4.1c-0.5,-0.1,-1.1,-0.2,-1.6,-0.3c-0.7,-0.1,-1.4,-0.2,-2.1,-0.4c-0.2,0,-0.3,0,-0.4,0c0.5,-0.4,0.9,-0.8,1.4,-1.2c-0.7,-0.5,-1.4,-0.6,-2.2,-0.4c-0.7,0.2,-1.3,0.6,-1.7,1.2c-0.4,0.6,-0.5,1.3,-0.4,2c0.1,0.7,0.4,1.3,1,1.7c0.7,0.6,1.5,0.8,2.3,0.6c0.9,-0.2,1.6,-0.7,2,-1.5c0,-0.1,0,-0.1,0,-0.1c0.6,0.1,1.1,0.2,1.6,0.4c-0.3,0.8,-0.9,1.5,-1.6,2.1c-0.7,0.4,-1.5,0.7,-2.4,0.7c0,0,0,0.1,-0.1,0.1l-0.2,0c0,0,0,-0.1,-0.1,-0.1c-0.3,0,-0.6,0,-0.8,-0.1c-0.9,-0.2,-1.7,-0.7,-2.3,-1.4c-0.6,-0.7,-0.9,-1.5,-1,-2.4c0,-0.1,-0.1,-0.2,-0.1,-0.3l0,-0.3l0.1,-0.1c0,-0.1,0,-0.3,0,-0.5c0.2,-0.9,0.5,-1.6,1.1,-2.2c0.7,-0.8,1.5,-1.2,2.5,-1.4c0.5,-0.1,1,-0.1,1.5,0c0.8,0.2,1.4,0.5,2,0.9c0.1,0.1,0.1,0.1,0.1,0c0.3,-0.2,0.6,-0.4,0.9,-0.6c0.2,-0.2,0.4,-0.3,0.5,-0.5Z" class="g7_20" />
<path d="M762,128l9,0" class="g8_20" />
<path d="M762,130l9,0" class="g8_20" />
<path d="M762,133l9,0" class="g8_20" />
<path d="M352.9,141.9l-3,3.4l3,3.5" class="g6_20" />
<path d="M348,662l0,2l0,2l-2,0l-2,0l0,277l2,0l2,0l0,2l0,2l425,0l0,-2l0,-2l2,0l2,0l0,-277l-2,0l-2,0l0,-2l0,-2Z" class="g3_20" />
<path d="M348.5,662.5l0,2l0,2l-2,0l-2,0l0,277l2,0l2,0l0,2l0,2l425,0l0,-2l0,-2l2,0l2,0l0,-277l-2,0l-2,0l0,-2l0,-2l-425,0Z" class="g4_20" />
<path d="M346,659l0,5l-4,0l0,33l437,0l0,-33l-4,0l0,-5Z" class="g5_20" />
<path d="M362.1,676.3c1.8,0,3.2,-1.4,3.2,-3.2c0,-1.8,-1.4,-3.2,-3.2,-3.2c-1.8,0,-3.2,1.4,-3.2,3.2c0,1.8,1.4,3.2,3.2,3.2Z" class="g2_20" />
<path d="M374.6,676.3c1.8,0,3.2,-1.4,3.2,-3.2c0,-1.8,-1.4,-3.2,-3.2,-3.2c-1.8,0,-3.2,1.4,-3.2,3.2c0,1.8,1.4,3.2,3.2,3.2Z" class="g2_20" />
<path d="M387.1,676.3c1.8,0,3.2,-1.4,3.2,-3.2c0,-1.8,-1.4,-3.2,-3.2,-3.2c-1.8,0,-3.2,1.4,-3.2,3.2c0,1.8,1.4,3.2,3.2,3.2Z" class="g2_20" />
<path d="M359.1,682.5c0,0,-2.2,0,-2.2,2.2l0,4.8c0,0,0,2.2,2.2,2.2l388.8,0c0,0,2.1,0,2.1,-2.2l0,-4.8c0,0,0,-2.2,-2.1,-2.2Z" class="g2_20" />
<path d="M442.5,683.7l-3,3.4l3,3.4" class="g6_20" />
<path d="M771.5,683l0,4.1c-0.5,-0.1,-1.1,-0.2,-1.6,-0.3c-0.7,-0.1,-1.4,-0.2,-2.1,-0.4c-0.2,0,-0.3,0,-0.4,-0.1c0.5,-0.3,0.9,-0.7,1.4,-1.1c-0.7,-0.5,-1.4,-0.6,-2.2,-0.4c-0.7,0.2,-1.3,0.6,-1.7,1.2c-0.4,0.6,-0.5,1.3,-0.4,2c0.1,0.7,0.4,1.3,1,1.7c0.7,0.6,1.5,0.8,2.3,0.6c0.9,-0.2,1.6,-0.7,2,-1.5c0,-0.1,0,-0.1,0,-0.1c0.6,0.1,1.1,0.2,1.6,0.4c-0.3,0.8,-0.9,1.5,-1.6,2c-0.7,0.5,-1.5,0.8,-2.4,0.8l-0.1,0l-0.2,0l-0.1,0c-0.3,0,-0.6,0,-0.8,-0.1c-0.9,-0.2,-1.7,-0.7,-2.3,-1.4c-0.6,-0.7,-0.9,-1.5,-1,-2.4c0,-0.1,-0.1,-0.2,-0.1,-0.3l0,-0.3c0,0,0,-0.1,0.1,-0.1c0,-0.2,0,-0.3,0,-0.5c0.2,-0.9,0.5,-1.6,1.1,-2.3c0.7,-0.7,1.5,-1.1,2.5,-1.3c0.5,-0.1,1,-0.1,1.5,0c0.8,0.1,1.4,0.5,2,0.9c0.1,0.1,0.1,0.1,0.1,0c0.3,-0.2,0.6,-0.4,0.9,-0.6c0.2,-0.2,0.4,-0.3,0.5,-0.5Z" class="g2_20" />
<path d="M771.5,683l0,4.1c-0.5,-0.1,-1.1,-0.2,-1.6,-0.3c-0.7,-0.1,-1.4,-0.2,-2.1,-0.4c-0.2,0,-0.3,0,-0.4,-0.1c0.5,-0.3,0.9,-0.7,1.4,-1.1c-0.7,-0.5,-1.4,-0.6,-2.2,-0.4c-0.7,0.2,-1.3,0.6,-1.7,1.2c-0.4,0.6,-0.5,1.3,-0.4,2c0.1,0.7,0.4,1.3,1,1.7c0.7,0.6,1.5,0.8,2.3,0.6c0.9,-0.2,1.6,-0.7,2,-1.5c0,-0.1,0,-0.1,0,-0.1c0.6,0.1,1.1,0.2,1.6,0.4c-0.3,0.8,-0.9,1.5,-1.6,2c-0.7,0.5,-1.5,0.8,-2.4,0.8l-0.1,0l-0.2,0l-0.1,0c-0.3,0,-0.6,0,-0.8,-0.1c-0.9,-0.2,-1.7,-0.7,-2.3,-1.4c-0.6,-0.7,-0.9,-1.5,-1,-2.4c0,-0.1,-0.1,-0.2,-0.1,-0.3l0,-0.3c0,0,0,-0.1,0.1,-0.1c0,-0.2,0,-0.3,0,-0.5c0.2,-0.9,0.5,-1.6,1.1,-2.3c0.7,-0.7,1.5,-1.1,2.5,-1.3c0.5,-0.1,1,-0.1,1.5,0c0.8,0.1,1.4,0.5,2,0.9c0.1,0.1,0.1,0.1,0.1,0c0.3,-0.2,0.6,-0.4,0.9,-0.6c0.2,-0.2,0.4,-0.3,0.5,-0.5Z" class="g7_20" />
<path d="M762,670l9,0" class="g8_20" />
<path d="M762,672l9,0" class="g8_20" />
<path d="M762,675l9,0" class="g8_20" />
<path d="M352.9,683.7l-3,3.4l3,3.4" class="g6_20" />
<path d="M1175,173l0,2l0,3l-3,0l-2,0l0,326l2,0l3,0l0,2l0,2l420,0l0,-2l0,-2l3,0l2,0l0,-326l-2,0l-3,0l0,-3l0,-2Z" class="g3_20" />
<path d="M1175.5,173.5l0,2l0,3l-3,0l-2,0l0,326l2,0l3,0l0,2l0,2l420,0l0,-2l0,-2l3,0l2,0l0,-326l-2,0l-3,0l0,-3l0,-2l-420,0Z" class="g4_20" />
<path d="M1172,171l0,4l-4,0l0,34l434,0l0,-34l-4,0l0,-4Z" class="g5_20" />
<path d="M1188.6,188c1.8,0,3.2,-1.4,3.2,-3.2c0,-1.8,-1.4,-3.2,-3.2,-3.2c-1.8,0,-3.2,1.4,-3.2,3.2c0,1.8,1.4,3.2,3.2,3.2Z" class="g2_20" />
<path d="M1201.1,188c1.8,0,3.2,-1.4,3.2,-3.2c0,-1.8,-1.4,-3.2,-3.2,-3.2c-1.8,0,-3.2,1.4,-3.2,3.2c0,1.8,1.4,3.2,3.2,3.2Z" class="g2_20" />
<path d="M1213.6,188c1.7,0,3.2,-1.4,3.2,-3.2c0,-1.8,-1.5,-3.2,-3.2,-3.2c-1.8,0,-3.2,1.4,-3.2,3.2c0,1.8,1.4,3.2,3.2,3.2Z" class="g2_20" />
<path d="M1185.6,194.2c0,0,-2.2,0,-2.2,2.2l0,4.8c0,0,0,2.2,2.2,2.2l388.7,0c0,0,2.2,0,2.2,-2.2l0,-4.8c0,0,0,-2.2,-2.2,-2.2Z" class="g2_20" />
<path d="M1269,195.3l-3,3.5l3,3.4" class="g6_20" />
<path d="M1593.7,194.7l0,4.1l-0.1,0c-0.5,-0.1,-1,-0.2,-1.5,-0.3c-0.8,-0.1,-1.5,-0.3,-2.2,-0.4c-0.1,0,-0.2,0,-0.4,-0.1c0.5,-0.4,1,-0.7,1.4,-1.1c-0.6,-0.5,-1.4,-0.6,-2.1,-0.4c-0.8,0.1,-1.3,0.5,-1.7,1.2c-0.4,0.6,-0.6,1.3,-0.5,2c0.1,0.7,0.5,1.3,1,1.7c0.7,0.6,1.5,0.8,2.4,0.6c0.9,-0.2,1.5,-0.7,1.9,-1.6c0,0,0.1,0,0.1,0c0.5,0.1,1,0.2,1.5,0.3c0,0.1,0,0.1,0,0.1c-0.3,0.8,-0.8,1.5,-1.6,2c-0.7,0.5,-1.5,0.8,-2.3,0.8c-0.1,0,-0.1,0,-0.1,0l-0.2,0c-0.1,0,-0.1,0,-0.1,0c-0.3,0,-0.6,0,-0.9,-0.1c-0.9,-0.2,-1.6,-0.7,-2.2,-1.4c-0.6,-0.7,-1,-1.5,-1.1,-2.4c0,-0.1,0,-0.2,0,-0.3l0,-0.3c0,0,0,-0.1,0,-0.1c0,-0.2,0,-0.3,0.1,-0.5c0.1,-0.9,0.5,-1.6,1.1,-2.3c0.6,-0.7,1.5,-1.1,2.4,-1.3c0.5,-0.1,1.1,-0.1,1.6,0c0.7,0.1,1.4,0.4,2,0.9c0,0.1,0,0.1,0.1,0c0.3,-0.2,0.5,-0.4,0.8,-0.7c0.2,-0.1,0.4,-0.2,0.6,-0.4Z" class="g2_20" />
<path d="M1593.7,194.7l0,4.1l-0.1,0c-0.5,-0.1,-1,-0.2,-1.5,-0.3c-0.8,-0.1,-1.5,-0.3,-2.2,-0.4c-0.1,0,-0.2,0,-0.4,-0.1c0.5,-0.4,1,-0.7,1.4,-1.1c-0.6,-0.5,-1.4,-0.6,-2.1,-0.4c-0.8,0.1,-1.3,0.5,-1.7,1.2c-0.4,0.6,-0.6,1.3,-0.5,2c0.1,0.7,0.5,1.3,1,1.7c0.7,0.6,1.5,0.8,2.4,0.6c0.9,-0.2,1.5,-0.7,1.9,-1.6c0,0,0.1,0,0.1,0c0.5,0.1,1,0.2,1.5,0.3c0,0.1,0,0.1,0,0.1c-0.3,0.8,-0.8,1.5,-1.6,2c-0.7,0.5,-1.5,0.8,-2.3,0.8c-0.1,0,-0.1,0,-0.1,0l-0.2,0c-0.1,0,-0.1,0,-0.1,0c-0.3,0,-0.6,0,-0.9,-0.1c-0.9,-0.2,-1.6,-0.7,-2.2,-1.4c-0.6,-0.7,-1,-1.5,-1.1,-2.4c0,-0.1,0,-0.2,0,-0.3l0,-0.3c0,0,0,-0.1,0,-0.1c0,-0.2,0,-0.3,0.1,-0.5c0.1,-0.9,0.5,-1.6,1.1,-2.3c0.6,-0.7,1.5,-1.1,2.4,-1.3c0.5,-0.1,1.1,-0.1,1.6,0c0.7,0.1,1.4,0.4,2,0.9c0,0.1,0,0.1,0.1,0c0.3,-0.2,0.5,-0.4,0.8,-0.7c0.2,-0.1,0.4,-0.2,0.6,-0.4Z" class="g7_20" />
<path d="M1584,182l9,0" class="g8_20" />
<path d="M1584,184l9,0" class="g8_20" />
<path d="M1584,186l9,0" class="g8_20" />
<path d="M1179.4,195.3l-3,3.5l3,3.4" class="g6_20" />
<path d="M1175,591l0,2l0,2l-3,0l-2,0l0,404l2,0l3,0l0,2l0,2l420,0l0,-2l0,-2l3,0l2,0l0,-404l-2,0l-3,0l0,-2l0,-2Z" class="g3_20" />
<path d="M1175.5,591.5l0,2l0,2l-3,0l-2,0l0,404l2,0l3,0l0,2l0,2l420,0l0,-2l0,-2l3,0l2,0l0,-404l-2,0l-3,0l0,-2l0,-2l-420,0Z" class="g4_20" />
<path d="M1172,588l0,5l-4,0l0,33l434,0l0,-33l-4,0l0,-5Z" class="g5_20" />
<path d="M1188.6,605.1c1.8,0,3.2,-1.5,3.2,-3.2c0,-1.8,-1.4,-3.2,-3.2,-3.2c-1.8,0,-3.2,1.4,-3.2,3.2c0,1.7,1.4,3.2,3.2,3.2Z" class="g2_20" />
<path d="M1201.1,605.1c1.8,0,3.2,-1.5,3.2,-3.2c0,-1.8,-1.4,-3.2,-3.2,-3.2c-1.8,0,-3.2,1.4,-3.2,3.2c0,1.7,1.4,3.2,3.2,3.2Z" class="g2_20" />
<path d="M1213.6,605.1c1.7,0,3.2,-1.5,3.2,-3.2c0,-1.8,-1.5,-3.2,-3.2,-3.2c-1.8,0,-3.2,1.4,-3.2,3.2c0,1.7,1.4,3.2,3.2,3.2Z" class="g2_20" />
<path d="M1185.6,611.3c0,0,-2.2,0,-2.2,2.2l0,4.8c0,0,0,2.2,2.2,2.2l388.7,0c0,0,2.2,0,2.2,-2.2l0,-4.8c0,0,0,-2.2,-2.2,-2.2Z" class="g2_20" />
<path d="M1269,612.4l-3,3.5l3,3.4" class="g6_20" />
<path d="M1593.7,611.8l0,4.1l-0.1,0c-0.5,-0.1,-1,-0.2,-1.5,-0.3c-0.8,-0.1,-1.5,-0.3,-2.2,-0.4c-0.1,0,-0.2,-0.1,-0.4,-0.1c0.5,-0.4,1,-0.8,1.4,-1.1l0,-0.1c-0.6,-0.4,-1.4,-0.5,-2.1,-0.3c-0.8,0.1,-1.3,0.5,-1.7,1.1c-0.4,0.7,-0.6,1.3,-0.5,2.1c0.1,0.7,0.5,1.3,1,1.7c0.7,0.6,1.5,0.8,2.4,0.6c0.9,-0.2,1.5,-0.7,1.9,-1.6c0,0,0.1,0,0.1,-0.1c0.5,0.2,1,0.3,1.5,0.4l0,0.1c-0.3,0.8,-0.8,1.5,-1.6,2c-0.7,0.5,-1.5,0.8,-2.3,0.8c-0.1,0,-0.1,0,-0.1,0l-0.2,0c-0.1,0,-0.1,0,-0.1,0c-0.3,0,-0.6,-0.1,-0.9,-0.1c-0.9,-0.3,-1.6,-0.7,-2.2,-1.4c-0.6,-0.7,-1,-1.5,-1.1,-2.4c0,-0.1,0,-0.2,0,-0.3l0,-0.3c0,0,0,-0.1,0,-0.1c0,-0.2,0,-0.4,0.1,-0.5c0.1,-0.9,0.5,-1.7,1.1,-2.3c0.6,-0.7,1.5,-1.1,2.4,-1.3c0.5,-0.1,1.1,-0.1,1.6,0c0.7,0.1,1.4,0.4,2,0.9l0.1,0c0.3,-0.2,0.5,-0.4,0.8,-0.7c0.2,-0.1,0.4,-0.3,0.6,-0.4Z" class="g2_20" />
<path d="M1593.7,611.8l0,4.1l-0.1,0c-0.5,-0.1,-1,-0.2,-1.5,-0.3c-0.8,-0.1,-1.5,-0.3,-2.2,-0.4c-0.1,0,-0.2,-0.1,-0.4,-0.1c0.5,-0.4,1,-0.8,1.4,-1.1l0,-0.1c-0.6,-0.4,-1.4,-0.5,-2.1,-0.3c-0.8,0.1,-1.3,0.5,-1.7,1.1c-0.4,0.7,-0.6,1.3,-0.5,2.1c0.1,0.7,0.5,1.3,1,1.7c0.7,0.6,1.5,0.8,2.4,0.6c0.9,-0.2,1.5,-0.7,1.9,-1.6c0,0,0.1,0,0.1,-0.1c0.5,0.2,1,0.3,1.5,0.4l0,0.1c-0.3,0.8,-0.8,1.5,-1.6,2c-0.7,0.5,-1.5,0.8,-2.3,0.8c-0.1,0,-0.1,0,-0.1,0l-0.2,0c-0.1,0,-0.1,0,-0.1,0c-0.3,0,-0.6,-0.1,-0.9,-0.1c-0.9,-0.3,-1.6,-0.7,-2.2,-1.4c-0.6,-0.7,-1,-1.5,-1.1,-2.4c0,-0.1,0,-0.2,0,-0.3l0,-0.3c0,0,0,-0.1,0,-0.1c0,-0.2,0,-0.4,0.1,-0.5c0.1,-0.9,0.5,-1.7,1.1,-2.3c0.6,-0.7,1.5,-1.1,2.4,-1.3c0.5,-0.1,1.1,-0.1,1.6,0c0.7,0.1,1.4,0.4,2,0.9l0.1,0c0.3,-0.2,0.5,-0.4,0.8,-0.7c0.2,-0.1,0.4,-0.3,0.6,-0.4Z" class="g7_20" />
<path d="M1584,599l9,0" class="g8_20" />
<path d="M1584,601l9,0" class="g8_20" />
<path d="M1584,603l9,0" class="g8_20" />
<path d="M1179.4,612.4l-3,3.5l3,3.4" class="g6_20" />
<path d="M371.6,169.7c0,0,-17.4,0,-17.4,17.3l0,50.4c0,0,0,17.3,17.4,17.3l376.8,0c0,0,17.4,0,17.4,-17.3l0,-50.4c0,0,0,-17.3,-17.4,-17.3Z" class="g9_20" />
<path d="M371.6,169.7c0,0,-17.4,0,-17.4,17.3l0,50.4c0,0,0,17.3,17.4,17.3l376.8,0c0,0,17.4,0,17.4,-17.3l0,-50.4c0,0,0,-17.3,-17.4,-17.3l-376.8,0Z" class="g10_20" />
<path d="M371.6,715.5c0,0,-17.4,0,-17.4,17.3l0,11.5c0,0,0,17.3,17.4,17.3l376.8,0c0,0,17.4,0,17.4,-17.3l0,-11.5c0,0,0,-17.3,-17.4,-17.3Z" class="g9_20" />
<path d="M371.6,715.5c0,0,-17.4,0,-17.4,17.3l0,11.5c0,0,0,17.3,17.4,17.3l376.8,0c0,0,17.4,0,17.4,-17.3l0,-11.5c0,0,0,-17.3,-17.4,-17.3l-376.8,0Z" class="g10_20" />
<path d="M1199.5,231.7c0,0,-17.3,0,-17.3,17.3l0,10.3c0,0,0,17.3,17.3,17.3l366.2,0c0,0,17.3,0,17.3,-17.3l0,-10.3c0,0,0,-17.3,-17.3,-17.3Z" class="g9_20" />
<path d="M1199.5,231.7c0,0,-17.3,0,-17.3,17.3l0,10.3c0,0,0,17.3,17.3,17.3l366.2,0c0,0,17.3,0,17.3,-17.3l0,-10.3c0,0,0,-17.3,-17.3,-17.3l-366.2,0Z" class="g10_20" />
<path d="M1199.5,650.5c0,0,-17.3,0,-17.3,17.3l0,10.3c0,0,0,17.3,17.3,17.3l366.2,0c0,0,17.3,0,17.3,-17.3l0,-10.3c0,0,0,-17.3,-17.3,-17.3Z" class="g9_20" />
<path d="M1199.5,650.5c0,0,-17.3,0,-17.3,17.3l0,10.3c0,0,0,17.3,17.3,17.3l366.2,0c0,0,17.3,0,17.3,-17.3l0,-10.3c0,0,0,-17.3,-17.3,-17.3l-366.2,0Z" class="g10_20" />
<text 
x="39" 
y="75" 
dx="0,0" 
class="s1_20"
>7.</text>

<text 
x="862" 
y="64" 
dx="0,0" 
class="s1_20"
>9.</text>

<text 
x="39" 
y="503" 
dx="0,0" 
class="s1_20"
>8.</text>

<text 
x="851" 
y="545" 
dx="0,-2,0" 
class="s1_20"
>10.</text>

<text 
x="80" 
y="75" 
dx="0,0,0,0,-1.8,0,0,-1.8" 
class="s2_20"
>nav ul {</text>

<text 
x="80" 
y="96" 
dx="0,0,0,0,0,0,0,0,0,0,0,0,0,0,0,0,0,-1.8,0,0,0,0" 
class="s2_20"
>list-style-type: none;</text>

<text 
x="80" 
y="118" 
dx="0,0,0,0,0,0,0,0,0,0,0,0,0,0,0,0,0,0,-2,0,0,0,0,0,0,0" 
class="s2_20"
>background-color: #B577B5;</text>

<text 
x="80" 
y="139" 
dx="0,0,0,0,0,0,0,0,-1.8,0,0,0,-1.8,0,0,0,0,0,-1.8,0,0,0,0,0,0,0" 
class="s2_20"
>border: 4px solid #111111;</text>

<text 
x="80" 
y="160" 
dx="0,0,0,0,0,0,0,0,0,0,0,0,0,0,0,-1.8,0,0,0,0" 
class="s2_20"
>border-radius: 10px;</text>

<text 
x="80" 
y="182" 
dx="0,0,0,0,0,0,0,0,0,0,0,0,0,-1.8,0,0,0,0,0,0,0,0,0,0" 
class="s2_20"
>font-family: sans-serif;</text>

<text 
x="80" 
y="203" 
dx="0,0,0,0,0,0,0,0,0,0,0,0,0,-1.8,0,0,0,0" 
class="s2_20"
>font-weight: bold;</text>

<path d="M82.9,217.3l-1.2,0l0,10.9l1.2,0l0,-4.2c0.2,0.4,0.6,0.7,1,1c0.4,0.2,0.9,0.3,1.3,0.3c0.9,0,1.7,-0.4,2.2,-1.2c0.5,-0.8,0.8,-1.8,0.8,-3c0,-1.1,-0.3,-2.1,-0.8,-2.8c-0.5,-0.8,-1.2,-1.1,-2.1,-1.1c-0.5,0,-0.9,0.1,-1.4,0.3c-0.4,0.2,-0.8,0.5,-1,0.8l0,-1Zm2.1,0.9c0.6,0,1.1,0.2,1.5,0.8c0.3,0.6,0.5,1.3,0.5,2.2c0,0.9,-0.2,1.6,-0.6,2.2c-0.3,0.6,-0.8,0.9,-1.5,0.9c-0.4,0,-0.7,-0.2,-1.1,-0.5c-0.4,-0.3,-0.7,-0.6,-0.9,-1.1l0,-3.2c0.6,-0.9,1.3,-1.3,2.1,-1.3Z" class="g11_20" />
<path d="M96.9,223.3l0,-3.3c0,-1.9,-0.9,-2.8,-2.7,-2.8c-0.9,0,-1.9,0.2,-2.9,0.8l0.3,0.8c0.3,-0.2,0.7,-0.3,1.1,-0.5c0.5,-0.1,0.9,-0.1,1.2,-0.1c1.2,0,1.8,0.6,1.8,2l0,0.3l-1.3,0.1c-0.6,0.1,-1.1,0.2,-1.5,0.3c-0.4,0.1,-0.8,0.3,-1.1,0.5c-0.3,0.2,-0.5,0.4,-0.7,0.7c-0.1,0.3,-0.2,0.6,-0.2,1c0,0.7,0.2,1.2,0.7,1.6c0.4,0.4,0.9,0.6,1.5,0.6c1.1,0,2,-0.5,2.7,-1.4c0,0.5,0,0.9,0.1,1.2l1.2,0C97,224.6,96.9,224,96.9,223.3Zm-2.3,0.5c-0.4,0.3,-0.8,0.4,-1.2,0.4c-0.4,0,-0.7,-0.1,-0.9,-0.3c-0.3,-0.2,-0.4,-0.5,-0.4,-0.9c0,-0.4,0.2,-0.7,0.4,-0.9c0.3,-0.2,0.7,-0.4,1.1,-0.4c0.4,-0.1,1.1,-0.2,2.1,-0.3l0,1.4c-0.3,0.4,-0.6,0.8,-1.1,1Z" class="g11_20" />
<path d="M106,214.6l-1.1,0l0,3.7c-0.6,-0.7,-1.4,-1.1,-2.4,-1.1c-0.9,0,-1.6,0.3,-2.1,1.1c-0.6,0.7,-0.9,1.7,-0.9,2.8c0,1.2,0.3,2.2,0.8,3c0.5,0.8,1.2,1.2,2.1,1.2c0.5,0,1,-0.1,1.4,-0.4c0.5,-0.2,0.8,-0.5,1.1,-0.9l0,1.1l1.1,0l0,-10.5Zm-1.5,8.7c-0.3,0.3,-0.6,0.6,-0.9,0.7c-0.3,0.2,-0.6,0.3,-0.9,0.3c-0.6,0,-1.1,-0.3,-1.4,-0.9c-0.4,-0.6,-0.5,-1.3,-0.5,-2.2c0,-0.9,0.2,-1.6,0.5,-2.2c0.4,-0.6,0.9,-0.8,1.5,-0.8c0.8,0,1.5,0.4,2.1,1.3l0,3.2c0,0.1,-0.2,0.3,-0.4,0.6Z" class="g11_20" />
<path d="M115.2,214.6l-1.2,0l0,3.7c-0.6,-0.7,-1.4,-1.1,-2.3,-1.1c-0.9,0,-1.6,0.3,-2.2,1.1c-0.5,0.7,-0.8,1.7,-0.8,2.8c0,1.2,0.3,2.2,0.8,3c0.5,0.8,1.2,1.2,2.1,1.2c0.5,0,1,-0.1,1.4,-0.4c0.4,-0.2,0.8,-0.5,1,-0.9l0,1.1l1.2,0l0,-10.5Zm-1.6,8.7c-0.2,0.3,-0.5,0.6,-0.8,0.7c-0.3,0.2,-0.6,0.3,-0.9,0.3c-0.6,0,-1.1,-0.3,-1.4,-0.9c-0.4,-0.6,-0.6,-1.3,-0.6,-2.2c0,-0.9,0.2,-1.6,0.6,-2.2c0.4,-0.6,0.9,-0.8,1.5,-0.8c0.8,0,1.5,0.4,2,1.3l0,3.2c0,0.1,-0.1,0.3,-0.4,0.6Z" class="g11_20" />
<path d="M121.3,214.6c-0.1,0.2,-0.2,0.4,-0.2,0.6c0,0.2,0.1,0.4,0.2,0.6c0.2,0.1,0.4,0.2,0.6,0.2c0.2,0,0.4,-0.1,0.5,-0.2c0.2,-0.2,0.3,-0.4,0.3,-0.6c0,-0.2,-0.1,-0.4,-0.3,-0.6c-0.1,-0.1,-0.3,-0.2,-0.5,-0.2c-0.2,0,-0.4,0.1,-0.6,0.2Zm1.2,2.7l-3.5,0l0,1l2.3,0l0,6.8l1.2,0l0,-7.8Z" class="g11_20" />
<path d="M133.6,219.8c0,-1.8,-0.8,-2.6,-2.2,-2.6c-1,0,-1.8,0.4,-2.7,1.3l0,-1.2l-1.1,0l0,7.8l1.1,0l0,-5.6c0.8,-0.9,1.6,-1.3,2.3,-1.3c0.5,0,0.8,0.1,1.1,0.4c0.2,0.3,0.3,0.8,0.3,1.5l0,5l1.2,0l0,-5.3Z" class="g11_20" />
<path d="M139.3,222.2c0.8,0,1.4,-0.2,1.9,-0.7c0.5,-0.5,0.8,-1.1,0.8,-1.8c0,-0.6,-0.2,-1,-0.4,-1.4l1.5,0l0,-1.1l-2.3,0.3c-0.4,-0.2,-0.9,-0.3,-1.5,-0.3c-0.7,0,-1.3,0.2,-1.8,0.7c-0.5,0.4,-0.8,1,-0.8,1.8c0,0.4,0.1,0.8,0.4,1.3c0.2,0.4,0.5,0.7,0.9,0.9c-0.9,0.5,-1.3,1,-1.3,1.6c0,0.4,0.3,0.8,1,1.2c-0.8,0.4,-1.2,0.9,-1.2,1.5c0,0.6,0.2,1.1,0.8,1.4c0.5,0.4,1.2,0.6,2.1,0.6c1,0,2,-0.3,2.7,-0.8c0.8,-0.5,1.2,-1.2,1.2,-2.1c0,-0.6,-0.1,-1,-0.5,-1.3c-0.3,-0.3,-0.8,-0.4,-1.4,-0.4l-2.7,0c-0.3,0,-0.5,0,-0.6,-0.1c-0.2,-0.1,-0.3,-0.2,-0.3,-0.4c0,-0.3,0.4,-0.6,1.1,-0.9c0.1,0,0.3,0,0.4,0Zm-1,-1.4c-0.3,-0.3,-0.4,-0.6,-0.4,-1.1c0,-0.5,0.1,-0.9,0.4,-1.2c0.3,-0.3,0.6,-0.4,1,-0.4c0.5,0,0.8,0.1,1.1,0.4c0.3,0.3,0.4,0.7,0.4,1.2c0,0.5,-0.1,0.9,-0.4,1.1c-0.3,0.3,-0.6,0.5,-1.1,0.5c-0.4,0,-0.7,-0.2,-1,-0.5Zm-0.2,6.2c-0.4,-0.3,-0.6,-0.5,-0.6,-0.8c0,-0.2,0.1,-0.4,0.2,-0.6c0.2,-0.2,0.3,-0.3,0.6,-0.5c0.2,-0.2,0.4,-0.3,0.5,-0.3c0.2,0,0.5,0,0.9,0c0.6,-0.1,1.1,-0.1,1.3,-0.1c0.8,0,1.2,0.3,1.2,0.8c0,0.5,-0.3,0.9,-0.8,1.3c-0.6,0.3,-1.2,0.5,-2,0.5c-0.6,0,-1,-0.1,-1.3,-0.3Z" class="g11_20" />
<path d="M148.2,217.5c-0.2,0.2,-0.3,0.4,-0.3,0.6c0,0.3,0.1,0.5,0.3,0.6c0.2,0.2,0.4,0.3,0.6,0.3c0.3,0,0.5,-0.1,0.7,-0.3c0.1,-0.1,0.2,-0.3,0.2,-0.6c0,-0.2,-0.1,-0.4,-0.2,-0.6c-0.2,-0.2,-0.4,-0.3,-0.7,-0.3c-0.2,0,-0.4,0.1,-0.6,0.3Zm0,6.2c-0.2,0.2,-0.3,0.4,-0.3,0.7c0,0.2,0.1,0.4,0.3,0.6c0.2,0.1,0.4,0.2,0.6,0.2c0.3,0,0.5,-0.1,0.7,-0.2c0.1,-0.2,0.2,-0.4,0.2,-0.6c0,-0.3,-0.1,-0.5,-0.2,-0.7c-0.2,-0.2,-0.4,-0.2,-0.7,-0.2c-0.2,0,-0.4,0,-0.6,0.2Z" class="g11_20" />
<path d="M168.4,224l-2.1,0l0,-9.5l-1,0l-2.3,1.2l0,1.2l2.1,-1l0,8.1l-2.2,0l0,1.1l5.5,0l0,-1.1Z" class="g11_20" />
<path d="M173.4,216.6c0.4,-0.8,1,-1.1,1.8,-1.1c0.6,0,1.2,0.1,1.9,0.3l0.2,-1.1c-0.6,-0.2,-1.3,-0.3,-2.1,-0.3c-1.2,0,-2.1,0.5,-2.8,1.6c-0.7,1.1,-1,2.4,-1,4c0,1.5,0.3,2.7,1,3.8c0.6,1,1.5,1.5,2.6,1.5c0.9,0,1.6,-0.3,2.1,-1c0.6,-0.6,0.8,-1.4,0.8,-2.4c0,-0.9,-0.3,-1.6,-0.9,-2.2c-0.6,-0.6,-1.3,-0.9,-2.2,-0.9c-0.8,0,-1.5,0.3,-2.1,0.8c0,-1.2,0.2,-2.2,0.7,-3Zm1.4,3.3c0.6,0,1,0.2,1.3,0.6c0.4,0.3,0.5,0.8,0.5,1.5c0,0.7,-0.1,1.2,-0.4,1.6c-0.3,0.4,-0.7,0.6,-1.3,0.6c-0.6,0,-1.1,-0.3,-1.6,-1.1c-0.4,-0.7,-0.6,-1.5,-0.6,-2.4c0.6,-0.5,1.3,-0.8,2.1,-0.8Z" class="g11_20" />
<path d="M181.9,217.3l-1.2,0l0,10.9l1.2,0l0,-4.2c0.3,0.4,0.6,0.7,1,1c0.4,0.2,0.9,0.3,1.4,0.3c0.9,0,1.6,-0.4,2.1,-1.2c0.6,-0.8,0.8,-1.8,0.8,-3c0,-1.1,-0.2,-2.1,-0.7,-2.8c-0.6,-0.8,-1.3,-1.1,-2.2,-1.1c-0.4,0,-0.9,0.1,-1.3,0.3c-0.5,0.2,-0.8,0.5,-1.1,0.8l0,-1Zm2.1,0.9c0.6,0,1.1,0.2,1.5,0.8c0.3,0.6,0.5,1.3,0.5,2.2c0,0.9,-0.2,1.6,-0.6,2.2c-0.3,0.6,-0.8,0.9,-1.4,0.9c-0.4,0,-0.8,-0.2,-1.2,-0.5c-0.4,-0.3,-0.7,-0.6,-0.9,-1.1l0,-3.2c0.6,-0.9,1.3,-1.3,2.1,-1.3Z" class="g11_20" />
<path d="M193.4,221.2l2.8,-3.9l-1.3,0l-2.1,3.1l-2.1,-3.1l-1.3,0l2.8,3.9l-2.8,3.9l1.2,0l2.2,-3l2.1,3l1.3,0l-2.8,-3.9Z" class="g11_20" />
<path d="M201.4,217.5c-0.1,0.2,-0.2,0.4,-0.2,0.6c0,0.3,0.1,0.5,0.2,0.6c0.2,0.2,0.4,0.3,0.7,0.3c0.2,0,0.4,-0.1,0.6,-0.3c0.2,-0.1,0.3,-0.3,0.3,-0.6c0,-0.2,-0.1,-0.4,-0.3,-0.6c-0.2,-0.2,-0.4,-0.3,-0.6,-0.3c-0.3,0,-0.5,0.1,-0.7,0.3Zm-0.2,8.9l0.2,0.5c1.1,-0.5,1.7,-1.3,1.7,-2.3c0,-0.3,-0.1,-0.6,-0.3,-0.8c-0.2,-0.2,-0.5,-0.3,-0.8,-0.3c-0.2,0,-0.4,0.1,-0.6,0.2c-0.1,0.2,-0.2,0.4,-0.2,0.7c0,0.2,0.1,0.4,0.2,0.6c0.2,0.2,0.4,0.3,0.7,0.3c0,0.4,-0.3,0.8,-0.9,1.1Z" class="g11_20" />
<text 
x="80" 
y="225" 
dx="0,0,0,0,0,0,0,0,0,-1.8,0,0,0,0" 
class="s2_20"
>padding: 16px;</text>

<text 
x="80" 
y="246" 
dx="0" 
class="s2_20"
>}</text>

<text 
x="80" 
y="267" 
dx="0,0,0,0,-1.8,0,0,-1.8,0,0,-1.8" 
class="s2_20"
>nav ul li {</text>

<text 
x="80" 
y="289" 
dx="0" 
class="s2_20"
>}</text>

<text 
x="80" 
y="310" 
dx="0,0,0,0,-1.8,0,0,-1.8,0,0,0,0,0,0,0,0,0,0,0,0,0,-1.8" 
class="s2_20"
>nav ul li:last-child {</text>

<text 
x="80" 
y="332" 
dx="0" 
class="s2_20"
>}</text>

<text 
x="80" 
y="353" 
dx="0,0,0,0,-1.8,0,0,-1.8,0,0,-1.8,0,-1.8" 
class="s2_20"
>nav ul li a {</text>

<text 
x="80" 
y="374" 
dx="0" 
class="s2_20"
>}</text>

<text 
x="903" 
y="64" 
dx="0,0,0,0,-1.8,0,0,-1.8" 
class="s2_20"
>nav ul {</text>

<text 
x="903" 
y="86" 
dx="0,0,0,0,0,0,0,0,0,0,0,0,0,0,0,0,0,-1.8,0,0,0,0" 
class="s2_20"
>list-style-type: none;</text>

<text 
x="903" 
y="107" 
dx="0,0,0,0,0,0,0,0,0,0,0,0,0,0,0,0,0,0,-2.4,0,0,0,0,0,0,0" 
class="s2_20"
>background-color: #B577B5;</text>

<text 
x="903" 
y="128" 
dx="0,0,0,0,0,0,0,0,-1.8,0,0,0,-1.8,0,0,0,0,0,-1.8,0,0,0,0,0,0,0" 
class="s2_20"
>border: 4px solid #111111;</text>

<text 
x="903" 
y="150" 
dx="0,0,0,0,0,0,0,0,0,0,0,0,0,0,0,-1.8,0,0,0,0" 
class="s2_20"
>border-radius: 10px;</text>

<text 
x="903" 
y="171" 
dx="0,0,0,0,0,0,0,0,0,0,0,0,0,-1.8,0,0,0,0,0,0,0,0,0,0" 
class="s2_20"
>font-family: sans-serif;</text>

<text 
x="903" 
y="193" 
dx="0,0,0,0,0,0,0,0,0,0,0,0,0,-1.8,0,0,0,0" 
class="s2_20"
>font-weight: bold;</text>

<text 
x="903" 
y="214" 
dx="0,0,0,0,0,0,0,0,0,-1.8,0,0,0,0" 
class="s2_20"
>padding: 16px;</text>

<text 
x="903" 
y="235" 
dx="0" 
class="s2_20"
>}</text>

<text 
x="903" 
y="257" 
dx="0,0,0,0,-1.8,0,0,-1.8,0,0,-1.8" 
class="s2_20"
>nav ul li {</text>

<text 
x="903" 
y="278" 
dx="0,0,0,0,0,0,0,0,0,-1.8,0,0,0,0,0,0" 
class="s2_20"
>display: inline;</text>

<path d="M906.4,289.4l-1.2,0l0,10.6l1.2,0l0,-1.1c0.2,0.4,0.6,0.7,1,0.9c0.4,0.3,0.8,0.4,1.3,0.4c0.9,0,1.7,-0.4,2.2,-1.2c0.5,-0.8,0.8,-1.8,0.8,-3c0,-1.2,-0.3,-2.2,-0.8,-2.9c-0.5,-0.7,-1.2,-1.1,-2.1,-1.1c-0.5,0,-0.9,0.1,-1.4,0.3c-0.4,0.3,-0.8,0.5,-1,0.9l0,-3.8Zm2.1,3.6c0.6,0,1.1,0.3,1.4,0.9c0.4,0.5,0.6,1.2,0.6,2.1c0,0.9,-0.2,1.6,-0.6,2.2c-0.3,0.6,-0.8,0.9,-1.5,0.9c-0.4,0,-0.8,-0.1,-1.1,-0.4c-0.4,-0.3,-0.7,-0.7,-0.9,-1.1l0,-3.2c0.6,-0.9,1.3,-1.4,2.1,-1.4Z" class="g11_20" />
<path d="M914.8,293.1c-0.6,0.8,-0.9,1.8,-0.9,3c0,1.2,0.3,2.2,0.9,3c0.6,0.7,1.5,1.1,2.6,1.1c1,0,1.9,-0.4,2.5,-1.2c0.6,-0.7,1,-1.7,1,-2.9c0,-1.2,-0.4,-2.2,-1,-3c-0.6,-0.7,-1.5,-1.1,-2.5,-1.1c-1.1,0,-2,0.4,-2.6,1.1Zm0.9,5.2c-0.4,-0.6,-0.6,-1.3,-0.6,-2.2c0,-0.9,0.2,-1.7,0.6,-2.2c0.4,-0.6,0.9,-0.9,1.7,-0.9c0.7,0,1.2,0.3,1.6,0.9c0.4,0.6,0.6,1.3,0.6,2.2c0,0.8,-0.2,1.6,-0.6,2.2c-0.4,0.6,-0.9,0.9,-1.6,0.9c-0.7,0,-1.3,-0.3,-1.7,-0.9Z" class="g11_20" />
<path d="M928,292c-1,0,-1.8,0.6,-2.5,1.8l0,-1.6l-1.1,0l0,7.8l1.1,0l0,-5.1c0,0,0.2,-0.2,0.5,-0.6c0.2,-0.3,0.5,-0.6,0.9,-0.8c0.3,-0.2,0.6,-0.3,1,-0.3c0.3,0,0.8,0.1,1.3,0.3l0.5,-1.1C929.1,292.1,928.5,292,928,292Z" class="g11_20" />
<path d="M938.7,289.4l-1.2,0l0,3.8c-0.6,-0.8,-1.4,-1.2,-2.3,-1.2c-0.9,0,-1.7,0.4,-2.2,1.1c-0.5,0.8,-0.8,1.7,-0.8,2.9c0,1.2,0.3,2.2,0.8,3c0.5,0.8,1.2,1.2,2.1,1.2c0.5,0,0.9,-0.1,1.4,-0.4c0.4,-0.2,0.8,-0.6,1,-0.9l0,1.1l1.2,0l0,-10.6Zm-1.6,8.8c-0.2,0.3,-0.5,0.5,-0.8,0.7c-0.3,0.2,-0.6,0.2,-0.9,0.2c-0.6,0,-1.1,-0.3,-1.4,-0.8c-0.4,-0.6,-0.6,-1.4,-0.6,-2.3c0,-0.8,0.2,-1.6,0.6,-2.1c0.4,-0.6,0.9,-0.9,1.5,-0.9c0.8,0,1.5,0.5,2,1.4l0,3.2c0,0.1,-0.1,0.3,-0.4,0.6Z" class="g11_20" />
<path d="M948.1,295.8c0,-1.2,-0.3,-2.1,-0.9,-2.8c-0.6,-0.6,-1.3,-1,-2.2,-1c-1,0,-1.9,0.4,-2.5,1.1c-0.6,0.7,-0.9,1.7,-0.9,3c0,1.2,0.3,2.2,1,3c0.7,0.7,1.7,1.1,2.8,1.1c0.9,0,1.7,-0.2,2.4,-0.5l-0.2,-0.9c-0.7,0.2,-1.5,0.4,-2.2,0.4c-0.7,0,-1.3,-0.3,-1.9,-0.9c-0.5,-0.6,-0.7,-1.3,-0.7,-2.2l5.3,0l0,-0.3Zm-5.2,-0.6c0,-0.7,0.2,-1.2,0.6,-1.6c0.4,-0.4,0.9,-0.6,1.5,-0.6c0.5,0,0.9,0.2,1.3,0.6c0.4,0.5,0.5,1,0.5,1.6l-3.9,0Z" class="g11_20" />
<path d="M955.5,292c-1,0,-1.8,0.6,-2.5,1.8l0,-1.6l-1.1,0l0,7.8l1.1,0l0,-5.1c0,0,0.2,-0.2,0.5,-0.6c0.2,-0.3,0.5,-0.6,0.9,-0.8c0.3,-0.2,0.6,-0.3,1,-0.3c0.3,0,0.8,0.1,1.3,0.3l0.5,-1.1C956.6,292.1,956,292,955.5,292Z" class="g11_20" />
<path d="M965.5,295.5l-5,0l0,1l5,0l0,-1Z" class="g11_20" />
<path d="M973.8,292c-1,0,-1.8,0.6,-2.4,1.8l0,-1.6l-1.2,0l0,7.8l1.2,0l0,-5.1c0,0,0.1,-0.2,0.4,-0.6c0.3,-0.3,0.6,-0.6,0.9,-0.8c0.3,-0.2,0.7,-0.3,1,-0.3c0.4,0,0.8,0.1,1.3,0.3l0.5,-1.1C975,292.1,974.4,292,973.8,292Z" class="g11_20" />
<path d="M981.5,289.5c-0.2,0.2,-0.2,0.3,-0.2,0.6c0,0.2,0,0.4,0.2,0.5c0.2,0.2,0.3,0.3,0.5,0.3c0.3,0,0.5,-0.1,0.6,-0.3c0.2,-0.1,0.2,-0.3,0.2,-0.5c0,-0.3,0,-0.4,-0.2,-0.6c-0.1,-0.2,-0.3,-0.2,-0.6,-0.2c-0.2,0,-0.3,0,-0.5,0.2Zm1.1,2.7l-3.4,0l0,1l2.3,0l0,6.8l1.1,0l0,-7.8Z" class="g11_20" />
<path d="M990.3,297.1c0.8,0,1.4,-0.3,1.9,-0.8c0.5,-0.5,0.8,-1.1,0.8,-1.8c0,-0.5,-0.2,-1,-0.4,-1.4l1.5,0l0,-1.1l-2.3,0.4c-0.4,-0.3,-0.9,-0.4,-1.5,-0.4c-0.7,0,-1.3,0.3,-1.8,0.7c-0.5,0.5,-0.8,1.1,-0.8,1.8c0,0.5,0.1,0.9,0.4,1.3c0.2,0.4,0.5,0.7,0.9,1c-0.9,0.5,-1.3,1,-1.3,1.5c0,0.5,0.3,0.9,1,1.2c-0.8,0.5,-1.2,1,-1.2,1.6c0,0.6,0.2,1,0.8,1.4c0.5,0.4,1.2,0.5,2.1,0.5c1,0,2,-0.2,2.7,-0.7c0.8,-0.6,1.2,-1.3,1.2,-2.1c0,-0.6,-0.2,-1,-0.5,-1.3c-0.3,-0.3,-0.8,-0.5,-1.5,-0.5l-2.6,0.1c-0.3,0,-0.5,-0.1,-0.7,-0.2c-0.1,-0.1,-0.2,-0.2,-0.2,-0.3c0,-0.3,0.4,-0.6,1.1,-1c0.1,0.1,0.3,0.1,0.4,0.1Zm-1,-1.4c-0.3,-0.3,-0.4,-0.7,-0.4,-1.2c0,-0.4,0.1,-0.8,0.4,-1.1c0.3,-0.3,0.6,-0.5,1,-0.5c0.5,0,0.8,0.2,1.1,0.5c0.3,0.3,0.4,0.6,0.4,1.1c0,0.5,-0.1,0.9,-0.4,1.2c-0.3,0.3,-0.6,0.5,-1.1,0.5c-0.4,0,-0.7,-0.2,-1,-0.5Zm-0.2,6.1c-0.4,-0.2,-0.6,-0.5,-0.6,-0.8c0,-0.2,0.1,-0.3,0.2,-0.5c0.2,-0.2,0.3,-0.4,0.6,-0.6c0.2,-0.1,0.4,-0.2,0.5,-0.2c0.2,0,0.5,0,0.9,-0.1c0.6,0,1.1,0,1.3,0c0.8,0,1.2,0.3,1.2,0.8c0,0.5,-0.3,0.9,-0.9,1.2c-0.5,0.4,-1.1,0.5,-1.9,0.5c-0.6,0,-1,-0.1,-1.3,-0.3Z" class="g11_20" />
<path d="M1002.9,294.7c0,-1.8,-0.7,-2.7,-2.2,-2.7c-0.9,0,-1.8,0.5,-2.6,1.3l0,-3.9l-1.2,0l0,10.6l1.2,0l0,-5.7c0.8,-0.8,1.5,-1.3,2.3,-1.3c0.4,0,0.8,0.2,1,0.5c0.2,0.3,0.3,0.8,0.3,1.5l0,5l1.2,0l0,-5.3Z" class="g11_20" />
<path d="M1011.9,298.7c-0.6,0.3,-1.2,0.4,-1.9,0.4c-0.3,0,-0.6,-0.1,-0.8,-0.3c-0.2,-0.3,-0.3,-0.7,-0.3,-1.1l0,-4.5l2.6,0l0,-1l-2.6,0l0,-2.1l-1.2,0l0,2.1l-1.4,0l0,1l1.4,0l0,4.8c0,1.4,0.7,2.2,2.1,2.2c0.8,0,1.6,-0.2,2.3,-0.6l-0.2,-0.9Z" class="g11_20" />
<path d="M1017.5,292.3c-0.1,0.2,-0.2,0.4,-0.2,0.7c0,0.2,0.1,0.4,0.2,0.6c0.2,0.2,0.4,0.3,0.7,0.3c0.2,0,0.4,-0.1,0.6,-0.3c0.2,-0.2,0.3,-0.4,0.3,-0.6c0,-0.3,-0.1,-0.5,-0.3,-0.7c-0.2,-0.1,-0.4,-0.2,-0.6,-0.2c-0.3,0,-0.5,0.1,-0.7,0.2Zm0,6.3c-0.1,0.1,-0.2,0.4,-0.2,0.6c0,0.3,0.1,0.5,0.2,0.6c0.2,0.2,0.4,0.3,0.7,0.3c0.2,0,0.4,-0.1,0.6,-0.3c0.2,-0.1,0.3,-0.3,0.3,-0.6c0,-0.2,-0.1,-0.5,-0.3,-0.6c-0.2,-0.2,-0.4,-0.3,-0.6,-0.3c-0.3,0,-0.5,0.1,-0.7,0.3Z" class="g11_20" />
<path d="M1037.5,298.9l-4.5,0c1.4,-1.5,2.3,-2.5,2.7,-3.1c0.5,-0.5,0.9,-1.1,1.2,-1.8c0.3,-0.6,0.4,-1.2,0.4,-1.8c0,-0.9,-0.3,-1.6,-0.9,-2.2c-0.5,-0.5,-1.3,-0.8,-2.2,-0.8c-0.9,0,-1.6,0.2,-2.4,0.5l0.2,1.1c0.8,-0.3,1.5,-0.5,2,-0.5c0.6,0,1.1,0.2,1.5,0.5c0.3,0.4,0.5,0.8,0.5,1.4c0,0.6,-0.1,1.2,-0.4,1.8c-0.3,0.7,-0.6,1.2,-1.1,1.8c-0.4,0.6,-1.4,1.6,-2.8,3.3l0,0.9l5.8,0l0,-1.1Z" class="g11_20" />
<path d="M1042.1,292.2l-1.2,0l0,10.8l1.2,0l0,-4.1c0.2,0.4,0.5,0.7,1,0.9c0.4,0.3,0.8,0.4,1.3,0.4c0.9,0,1.6,-0.4,2.2,-1.2c0.5,-0.8,0.8,-1.8,0.8,-3c0,-1.2,-0.3,-2.1,-0.8,-2.9c-0.5,-0.7,-1.2,-1.1,-2.1,-1.1c-0.5,0,-0.9,0.1,-1.4,0.3c-0.4,0.3,-0.8,0.5,-1,0.9l0,-1Zm2.1,0.8c0.6,0,1.1,0.3,1.4,0.9c0.4,0.5,0.6,1.3,0.6,2.2c0,0.8,-0.2,1.6,-0.6,2.2c-0.4,0.5,-0.9,0.8,-1.5,0.8c-0.4,0,-0.8,-0.1,-1.1,-0.4c-0.4,-0.3,-0.7,-0.7,-0.9,-1.1l0,-3.2c0.5,-0.9,1.2,-1.4,2.1,-1.4Z" class="g11_20" />
<path d="M1053.6,296l2.7,-3.8l-1.2,0l-2.1,3l-2.1,-3l-1.3,0l2.7,3.9l-2.7,3.9l1.2,0l2.1,-3.1l2.1,3.1l1.3,0l-2.7,-4Z" class="g11_20" />
<path d="M1072,292.3c-0.7,-0.2,-1.4,-0.3,-2.1,-0.3c-0.9,0,-1.7,0.2,-2.3,0.6c-0.6,0.4,-0.9,0.9,-0.9,1.6c0,0.3,0.1,0.6,0.2,0.8c0.1,0.3,0.3,0.5,0.6,0.7c0.2,0.2,0.5,0.3,0.7,0.4c0.3,0.1,0.8,0.2,1.4,0.4c0.7,0.2,1.2,0.4,1.4,0.7c0.2,0.2,0.3,0.4,0.3,0.7c0,0.4,-0.2,0.7,-0.6,0.9c-0.4,0.3,-0.9,0.4,-1.6,0.4c-0.7,0,-1.4,-0.2,-2.1,-0.5l-0.2,1c0.6,0.3,1.4,0.5,2.4,0.5c0.9,0,1.7,-0.2,2.3,-0.7c0.7,-0.4,1,-1,1,-1.7c0,-0.4,-0.1,-0.7,-0.3,-1c-0.1,-0.3,-0.4,-0.6,-0.7,-0.8c-0.3,-0.2,-0.7,-0.3,-1.3,-0.5l-1.1,-0.3c-0.5,-0.1,-0.8,-0.3,-1,-0.5c-0.2,-0.1,-0.2,-0.3,-0.2,-0.5c0,-0.4,0.1,-0.7,0.5,-0.9c0.4,-0.2,0.9,-0.3,1.5,-0.3c0.6,0,1.2,0.1,1.9,0.3l0.2,-1Z" class="g11_20" />
<path d="M1076.2,293.1c-0.7,0.8,-1,1.8,-1,3c0,1.2,0.3,2.2,1,3c0.6,0.7,1.4,1.1,2.5,1.1c1.1,0,1.9,-0.4,2.6,-1.2c0.6,-0.7,0.9,-1.7,0.9,-2.9c0,-1.2,-0.3,-2.2,-0.9,-3c-0.7,-0.7,-1.5,-1.1,-2.6,-1.1c-1,0,-1.9,0.4,-2.5,1.1Zm0.9,5.2c-0.5,-0.6,-0.7,-1.3,-0.7,-2.2c0,-0.9,0.2,-1.7,0.6,-2.2c0.4,-0.6,1,-0.9,1.7,-0.9c0.7,0,1.3,0.3,1.7,0.9c0.4,0.6,0.6,1.3,0.6,2.2c0,0.8,-0.2,1.6,-0.6,2.2c-0.4,0.6,-1,0.9,-1.7,0.9c-0.7,0,-1.2,-0.3,-1.6,-0.9Z" class="g11_20" />
<path d="M1090.5,298.5l-2,0l0,-9l-3,0l0,1l2,0l0,9l3,0l0,-1Z" class="g11_20" />
<path d="M1097,289.5c-0.1,0.2,-0.2,0.3,-0.2,0.6c0,0.2,0.1,0.4,0.2,0.5c0.2,0.2,0.4,0.3,0.6,0.3c0.2,0,0.4,-0.1,0.5,-0.3c0.2,-0.1,0.3,-0.3,0.3,-0.5c0,-0.3,-0.1,-0.4,-0.3,-0.6c-0.1,-0.2,-0.3,-0.2,-0.5,-0.2c-0.2,0,-0.4,0,-0.6,0.2Zm1.1,2.7l-3.4,0l0,1l2.3,0l0,6.8l1.1,0l0,-7.8Z" class="g11_20" />
<path d="M1109.2,289.4l-1.2,0l0,3.8c-0.5,-0.8,-1.3,-1.2,-2.3,-1.2c-0.9,0,-1.6,0.4,-2.2,1.1c-0.5,0.8,-0.8,1.7,-0.8,2.9c0,1.2,0.3,2.2,0.8,3c0.5,0.8,1.2,1.2,2.1,1.2c0.5,0,1,-0.1,1.4,-0.4c0.5,-0.2,0.8,-0.6,1,-0.9l0,1.1l1.2,0l0,-10.6Zm-1.5,8.8c-0.3,0.3,-0.6,0.5,-0.9,0.7c-0.3,0.2,-0.6,0.2,-0.9,0.2c-0.6,0,-1.1,-0.3,-1.4,-0.8c-0.4,-0.6,-0.5,-1.4,-0.5,-2.3c0,-0.8,0.1,-1.6,0.5,-2.1c0.4,-0.6,0.9,-0.9,1.5,-0.9c0.8,0,1.5,0.5,2,1.4l0,3.2c0,0.1,-0.1,0.3,-0.3,0.6Z" class="g11_20" />
<text 
x="903" 
y="299" 
dx="0,0,0,0,0,0,0,0,0,0,0,0,0,0,-1.8,0,0,0,-1.8,0,0,0,0,0" 
class="s2_20"
>border-right: 2px solid </text>

<path d="M912.2,317.4l-2.2,0l0.6,-2.7l1.6,0l0,-0.9l-1.4,0l0.6,-3l-1,0l-0.7,3l-2,0l0.7,-3l-1.1,0l-0.6,3l-2.4,0l0,0.9l2.2,0l-0.6,2.7l-1.6,0l0,1l1.4,0l-0.6,3l1,0l0.6,-3l2,0l-0.6,3l1.1,0l0.6,-3l2.4,0l0,-1Zm-3.2,0l-2,0l0.5,-2.7l2,0l-0.5,2.7Z" class="g11_20" />
<path d="M920.4,320.3l-2.1,0l0,-9.5l-1.1,0l-2.2,1.1l0,1.3l2.1,-1.1l0,8.2l-2.3,0l0,1.1l5.6,0l0,-1.1Z" class="g11_20" />
<path d="M929.5,320.3l-2,0l0,-9.5l-1.1,0l-2.3,1.1l0,1.3l2.1,-1.1l0,8.2l-2.2,0l0,1.1l5.5,0l0,-1.1Z" class="g11_20" />
<path d="M938.7,320.3l-2.1,0l0,-9.5l-1,0l-2.3,1.1l0,1.3l2.1,-1.1l0,8.2l-2.2,0l0,1.1l5.5,0l0,-1.1Z" class="g11_20" />
<path d="M947.9,320.3l-2.1,0l0,-9.5l-1.1,0l-2.2,1.1l0,1.3l2.1,-1.1l0,8.2l-2.3,0l0,1.1l5.6,0l0,-1.1Z" class="g11_20" />
<path d="M957,320.3l-2,0l0,-9.5l-1.1,0l-2.3,1.1l0,1.3l2.1,-1.1l0,8.2l-2.2,0l0,1.1l5.5,0l0,-1.1Z" class="g11_20" />
<path d="M966.2,320.3l-2.1,0l0,-9.5l-1,0l-2.3,1.1l0,1.3l2.1,-1.1l0,8.2l-2.2,0l0,1.1l5.5,0l0,-1.1Z" class="g11_20" />
<path d="M971.7,313.7c-0.1,0.2,-0.2,0.4,-0.2,0.7c0,0.2,0.1,0.4,0.2,0.6c0.2,0.2,0.4,0.3,0.7,0.3c0.2,0,0.4,-0.1,0.6,-0.3c0.2,-0.2,0.3,-0.4,0.3,-0.6c0,-0.3,-0.1,-0.5,-0.3,-0.7c-0.2,-0.1,-0.4,-0.2,-0.6,-0.2c-0.3,0,-0.5,0.1,-0.7,0.2Zm-0.2,8.9l0.3,0.6c1,-0.6,1.6,-1.4,1.6,-2.3c0,-0.3,-0.1,-0.6,-0.3,-0.8c-0.2,-0.3,-0.5,-0.4,-0.7,-0.4c-0.3,0,-0.5,0.1,-0.7,0.3c-0.1,0.1,-0.2,0.4,-0.2,0.6c0,0.2,0.1,0.5,0.2,0.6c0.2,0.2,0.4,0.3,0.7,0.4c0,0.4,-0.3,0.7,-0.9,1Z" class="g11_20" />
<text 
x="903" 
y="321" 
dx="0,0,0,0,0,0,0,0" 
class="s2_20"
>#111111;</text>

<text 
x="903" 
y="342" 
dx="0" 
class="s2_20"
>}</text>

<text 
x="903" 
y="364" 
dx="0,0,0,0,-1.8,0,0,-1.8,0,0,0,0,0,0,0,0,0,0,0,0,0,-1.8" 
class="s2_20"
>nav ul li:last-child {</text>

<text 
x="903" 
y="385" 
dx="0" 
class="s2_20"
>}</text>

<text 
x="903" 
y="406" 
dx="0,0,0,0,-1.8,0,0,-1.8,0,0,-1.8,0,-1.8" 
class="s2_20"
>nav ul li a {</text>

<text 
x="903" 
y="428" 
dx="0" 
class="s2_20"
>}</text>

<text 
x="80" 
y="503" 
dx="0,0,0,0,-1.8,0,0,-1.8" 
class="s2_20"
>nav ul {</text>

<text 
x="80" 
y="524" 
dx="0,0,0,0,0,0,0,0,0,0,0,0,0,0,0,0,0,-1.8,0,0,0,0" 
class="s2_20"
>list-style-type: none;</text>

<text 
x="80" 
y="545" 
dx="0,0,0,0,0,0,0,0,0,0,0,0,0,0,0,0,0,0,-2,0,0,0,0,0,0,0" 
class="s2_20"
>background-color: #B577B5;</text>

<text 
x="80" 
y="567" 
dx="0,0,0,0,0,0,0,0,-1.8,0,0,0,-1.8,0,0,0,0,0,-1.8,0,0,0,0,0,0,0" 
class="s2_20"
>border: 4px solid #111111;</text>

<text 
x="80" 
y="588" 
dx="0,0,0,0,0,0,0,0,0,0,0,0,0,0,0,-1.8,0,0,0,0" 
class="s2_20"
>border-radius: 10px;</text>

<text 
x="80" 
y="610" 
dx="0,0,0,0,0,0,0,0,0,0,0,0,0,-1.8,0,0,0,0,0,0,0,0,0,0" 
class="s2_20"
>font-family: sans-serif;</text>

<text 
x="80" 
y="631" 
dx="0,0,0,0,0,0,0,0,0,0,0,0,0,-1.8,0,0,0,0" 
class="s2_20"
>font-weight: bold;</text>

<text 
x="80" 
y="652" 
dx="0,0,0,0,0,0,0,0,0,-1.8,0,0,0,0" 
class="s2_20"
>padding: 16px;</text>

<text 
x="80" 
y="674" 
dx="0" 
class="s2_20"
>}</text>

<text 
x="80" 
y="695" 
dx="0,0,0,0,-1.8,0,0,-1.8,0,0,-1.8" 
class="s2_20"
>nav ul li {</text>

<path d="M87.7,706.5l-1.2,0l0,3.8c-0.6,-0.8,-1.4,-1.2,-2.3,-1.2c-0.9,0,-1.6,0.4,-2.2,1.1c-0.5,0.8,-0.8,1.7,-0.8,2.9c0,1.2,0.3,2.2,0.8,3c0.5,0.8,1.2,1.2,2.1,1.2c0.5,0,1,-0.2,1.4,-0.4c0.4,-0.3,0.8,-0.6,1,-1l0,1.2l1.2,0l0,-10.6Zm-1.6,8.8c-0.2,0.3,-0.5,0.5,-0.8,0.7c-0.3,0.1,-0.6,0.2,-0.9,0.2c-0.6,0,-1.1,-0.3,-1.4,-0.9c-0.4,-0.5,-0.6,-1.3,-0.6,-2.2c0,-0.9,0.2,-1.6,0.6,-2.1c0.4,-0.6,0.9,-0.9,1.5,-0.9c0.8,0,1.5,0.5,2,1.3l0,3.3c0,0,-0.1,0.2,-0.4,0.6Z" class="g11_20" />
<path d="M93.8,706.6c-0.1,0.1,-0.2,0.3,-0.2,0.5c0,0.3,0.1,0.4,0.2,0.6c0.2,0.2,0.4,0.2,0.6,0.2c0.2,0,0.4,0,0.5,-0.2c0.2,-0.1,0.3,-0.3,0.3,-0.6c0,-0.2,-0.1,-0.4,-0.3,-0.5c-0.1,-0.2,-0.3,-0.3,-0.5,-0.3c-0.2,0,-0.4,0.1,-0.6,0.3Zm1.1,2.7l-3.4,0l0,1l2.3,0l0,6.8l1.1,0l0,-7.8Z" class="g11_20" />
<path d="M105.5,709.4c-0.8,-0.2,-1.5,-0.3,-2.1,-0.3c-1,0,-1.7,0.2,-2.3,0.6c-0.6,0.4,-0.9,0.9,-0.9,1.6c0,0.3,0.1,0.6,0.2,0.8c0.1,0.3,0.3,0.5,0.5,0.7c0.3,0.1,0.6,0.3,0.8,0.4c0.3,0.1,0.8,0.2,1.4,0.4c0.7,0.2,1.2,0.4,1.4,0.6c0.2,0.3,0.3,0.5,0.3,0.8c0,0.4,-0.2,0.7,-0.6,0.9c-0.4,0.3,-1,0.4,-1.6,0.4c-0.7,0,-1.4,-0.2,-2.1,-0.5l-0.2,1c0.6,0.3,1.4,0.5,2.3,0.5c1,0,1.8,-0.3,2.4,-0.7c0.6,-0.4,0.9,-1,0.9,-1.7c0,-0.4,0,-0.8,-0.2,-1c-0.2,-0.3,-0.4,-0.6,-0.7,-0.8c-0.3,-0.2,-0.8,-0.3,-1.3,-0.5l-1.1,-0.3c-0.5,-0.2,-0.8,-0.3,-1,-0.5c-0.2,-0.1,-0.3,-0.3,-0.3,-0.6c0,-0.3,0.2,-0.6,0.6,-0.8c0.4,-0.2,0.9,-0.3,1.5,-0.3c0.6,0,1.2,0.1,1.8,0.3l0.3,-1Z" class="g11_20" />
<path d="M110.4,709.3l-1.2,0l0,10.8l1.2,0l0,-4.2c0.2,0.4,0.6,0.8,1,1c0.4,0.2,0.9,0.4,1.3,0.4c1,0,1.7,-0.4,2.2,-1.2c0.5,-0.8,0.8,-1.8,0.8,-3c0,-1.2,-0.2,-2.2,-0.8,-2.9c-0.5,-0.7,-1.2,-1.1,-2.1,-1.1c-0.5,0,-0.9,0.1,-1.4,0.3c-0.4,0.2,-0.7,0.5,-1,0.9l0,-1Zm2.1,0.8c0.6,0,1.1,0.3,1.5,0.9c0.3,0.5,0.5,1.3,0.5,2.1c0,0.9,-0.2,1.6,-0.6,2.2c-0.3,0.6,-0.8,0.9,-1.5,0.9c-0.4,0,-0.7,-0.1,-1.1,-0.4c-0.4,-0.3,-0.7,-0.7,-0.9,-1.1l0,-3.3c0.6,-0.8,1.3,-1.3,2.1,-1.3Z" class="g11_20" />
<path d="M123.5,716.5l-2,0l0,-10l-3,0l0,1l2,0l0,10l3,0l0,-1Z" class="g11_20" />
<path d="M133.6,715.3l0,-3.4c0,-1.9,-0.9,-2.8,-2.7,-2.8c-0.9,0,-1.9,0.3,-3,0.8l0.4,0.8c0.3,-0.1,0.7,-0.3,1.1,-0.4c0.5,-0.1,0.8,-0.2,1.1,-0.2c1.3,0,1.9,0.7,1.9,2l0,0.4l-1.3,0.1c-0.6,0,-1.1,0.1,-1.5,0.2c-0.5,0.1,-0.8,0.3,-1.1,0.5c-0.3,0.2,-0.5,0.4,-0.7,0.7c-0.2,0.3,-0.2,0.7,-0.2,1.1c0,0.6,0.2,1.1,0.6,1.5c0.5,0.5,1,0.7,1.6,0.7c1.1,0,2,-0.5,2.7,-1.5c0,0.5,0,0.9,0.1,1.3l1.2,0c-0.2,-0.6,-0.2,-1.2,-0.2,-1.8Zm-2.3,0.5c-0.4,0.2,-0.8,0.3,-1.2,0.3c-0.4,0,-0.7,-0.1,-0.9,-0.3c-0.3,-0.2,-0.4,-0.5,-0.4,-0.8c0,-0.4,0.1,-0.7,0.4,-0.9c0.3,-0.3,0.6,-0.4,1,-0.5c0.4,-0.1,1.1,-0.2,2.2,-0.3l0,1.5c-0.3,0.4,-0.7,0.7,-1.1,1Z" class="g11_20" />
<path d="M141.8,709.3l-2.2,6.2l-2.2,-6.2l-1.3,0l3,7.7c-0.3,0.8,-0.6,1.3,-0.9,1.6c-0.2,0.4,-0.6,0.5,-1,0.5c-0.3,0,-0.6,0,-1,-0.2l-0.2,1c0.5,0.1,0.9,0.2,1.4,0.2c0.6,0,1,-0.2,1.5,-0.6c0.4,-0.5,0.8,-1.3,1.2,-2.4l3,-7.8l-1.3,0Z" class="g11_20" />
<path d="M148.2,709.4c-0.2,0.2,-0.3,0.4,-0.3,0.7c0,0.2,0.1,0.4,0.3,0.6c0.2,0.2,0.4,0.2,0.6,0.2c0.3,0,0.5,0,0.7,-0.2c0.1,-0.2,0.2,-0.4,0.2,-0.6c0,-0.3,-0.1,-0.5,-0.2,-0.7c-0.2,-0.1,-0.4,-0.2,-0.7,-0.2c-0.2,0,-0.4,0.1,-0.6,0.2Zm0,6.3c-0.2,0.1,-0.3,0.3,-0.3,0.6c0,0.2,0.1,0.5,0.3,0.6c0.2,0.2,0.4,0.3,0.6,0.3c0.3,0,0.5,-0.1,0.7,-0.3c0.1,-0.1,0.2,-0.4,0.2,-0.6c0,-0.3,-0.1,-0.5,-0.2,-0.6c-0.2,-0.2,-0.4,-0.3,-0.7,-0.3c-0.2,0,-0.4,0.1,-0.6,0.3Z" class="g11_20" />
<path d="M165.4,706.6c-0.2,0.1,-0.3,0.3,-0.3,0.5c0,0.3,0.1,0.4,0.3,0.6c0.1,0.2,0.3,0.2,0.5,0.2c0.2,0,0.4,0,0.6,-0.2c0.1,-0.1,0.2,-0.3,0.2,-0.6c0,-0.2,-0.1,-0.4,-0.2,-0.5c-0.2,-0.2,-0.4,-0.3,-0.6,-0.3c-0.2,0,-0.4,0.1,-0.5,0.3Zm1.1,2.7l-3.5,0l0,1l2.3,0l0,6.8l1.2,0l0,-7.8Z" class="g11_20" />
<path d="M177.6,711.7c0,-1.7,-0.8,-2.6,-2.2,-2.6c-0.9,0,-1.8,0.4,-2.7,1.3l0,-1.1l-1.1,0l0,7.8l1.1,0l0,-5.7c0.9,-0.9,1.6,-1.3,2.3,-1.3c0.5,0,0.8,0.2,1.1,0.5c0.2,0.3,0.3,0.8,0.3,1.5l0,5l1.2,0l0,-5.4Z" class="g11_20" />
<path d="M186.5,716.5l-2,0l0,-10l-4,0l0,1l2,0l0,10l4,0l0,-1Z" class="g11_20" />
<path d="M192.9,706.6c-0.2,0.1,-0.3,0.3,-0.3,0.5c0,0.3,0.1,0.4,0.3,0.6c0.1,0.2,0.3,0.2,0.5,0.2c0.2,0,0.4,0,0.6,-0.2c0.1,-0.1,0.2,-0.3,0.2,-0.6c0,-0.2,-0.1,-0.4,-0.2,-0.5c-0.2,-0.2,-0.4,-0.3,-0.6,-0.3c-0.2,0,-0.4,0.1,-0.5,0.3Zm1.1,2.7l-3.5,0l0,1l2.3,0l0,6.8l1.2,0l0,-7.8Z" class="g11_20" />
<path d="M205.1,711.7c0,-1.7,-0.8,-2.6,-2.2,-2.6c-0.9,0,-1.8,0.4,-2.7,1.3l0,-1.1l-1.1,0l0,7.8l1.1,0l0,-5.7c0.9,-0.9,1.6,-1.3,2.3,-1.3c0.5,0,0.9,0.2,1.1,0.5c0.2,0.3,0.3,0.8,0.3,1.5l0,5l1.2,0l0,-5.4Z" class="g11_20" />
<path d="M214.5,712.8c0,-1.1,-0.3,-2,-0.9,-2.7c-0.6,-0.7,-1.4,-1,-2.3,-1c-1,0,-1.8,0.4,-2.4,1.1c-0.7,0.7,-1,1.7,-1,2.9c0,1.3,0.4,2.3,1.1,3c0.7,0.8,1.6,1.2,2.8,1.2c0.9,0,1.7,-0.2,2.4,-0.5L214,715.9c-0.8,0.2,-1.5,0.3,-2.2,0.3c-0.8,0,-1.4,-0.2,-1.9,-0.8c-0.5,-0.6,-0.8,-1.3,-0.8,-2.2l5.4,0l0,-0.4Zm-5.3,-0.5c0.1,-0.7,0.3,-1.2,0.7,-1.6c0.4,-0.4,0.9,-0.6,1.5,-0.6c0.4,0,0.9,0.2,1.2,0.6c0.4,0.4,0.6,1,0.6,1.6l-4,0Z" class="g11_20" />
<path d="M219.8,709.4c-0.2,0.2,-0.3,0.4,-0.3,0.7c0,0.2,0.1,0.4,0.3,0.6c0.1,0.2,0.3,0.2,0.6,0.2c0.2,0,0.5,0,0.6,-0.2c0.2,-0.2,0.3,-0.4,0.3,-0.6c0,-0.3,-0.1,-0.5,-0.3,-0.7c-0.1,-0.1,-0.4,-0.2,-0.6,-0.2c-0.3,0,-0.5,0.1,-0.6,0.2Zm-0.3,8.9l0.3,0.5c1.1,-0.5,1.6,-1.3,1.6,-2.2c0,-0.4,-0.1,-0.6,-0.3,-0.9c-0.2,-0.2,-0.4,-0.3,-0.7,-0.3c-0.3,0,-0.5,0.1,-0.6,0.3c-0.2,0.1,-0.3,0.4,-0.3,0.6c0,0.2,0.1,0.5,0.3,0.6c0.1,0.2,0.3,0.3,0.6,0.4c0,0.4,-0.3,0.7,-0.9,1Z" class="g11_20" />
<text 
x="80" 
y="717" 
dx="0,0,0,0,0,0,0,0,0,-1.8,0,0,0,0,0,0" 
class="s2_20"
>display: inline;</text>

<text 
x="80" 
y="738" 
dx="0" 
class="s2_20"
>}</text>

<text 
x="80" 
y="759" 
dx="0,0,0,0,-1.8,0,0,-1.8,0,0,0,0,0,0,0,0,0,0,0,0,0,-1.8" 
class="s2_20"
>nav ul li:last-child {</text>

<text 
x="80" 
y="781" 
dx="0" 
class="s2_20"
>}</text>

<text 
x="80" 
y="802" 
dx="0,0,0,0,-1.8,0,0,-1.8,0,0,-1.8,0,-1.8" 
class="s2_20"
>nav ul li a {</text>

<text 
x="80" 
y="824" 
dx="0" 
class="s2_20"
>}</text>

<text 
x="903" 
y="545" 
dx="0,0,0,0,-1.8,0,0,-1.8" 
class="s2_20"
>nav ul {</text>

<text 
x="903" 
y="567" 
dx="0,0,0,0,0,0,0,0,0,0,0,0,0,0,0,0,0,-1.8,0,0,0,0" 
class="s2_20"
>list-style-type: none;</text>

<text 
x="903" 
y="588" 
dx="0,0,0,0,0,0,0,0,0,0,0,0,0,0,0,0,0,0,-2.4,0,0,0,0,0,0,0" 
class="s2_20"
>background-color: #B577B5;</text>

<text 
x="903" 
y="610" 
dx="0,0,0,0,0,0,0,0,-1.8,0,0,0,-1.8,0,0,0,0,0,-1.8,0,0,0,0,0,0,0" 
class="s2_20"
>border: 4px solid #111111;</text>

<text 
x="903" 
y="631" 
dx="0,0,0,0,0,0,0,0,0,0,0,0,0,0,0,-1.8,0,0,0,0" 
class="s2_20"
>border-radius: 10px;</text>

<text 
x="903" 
y="652" 
dx="0,0,0,0,0,0,0,0,0,0,0,0,0,-1.8,0,0,0,0,0,0,0,0,0,0" 
class="s2_20"
>font-family: sans-serif;</text>

<text 
x="903" 
y="674" 
dx="0,0,0,0,0,0,0,0,0,0,0,0,0,-1.8,0,0,0,0" 
class="s2_20"
>font-weight: bold;</text>

<text 
x="903" 
y="695" 
dx="0,0,0,0,0,0,0,0,0,-1.8,0,0,0,0" 
class="s2_20"
>padding: 16px;</text>

<text 
x="903" 
y="717" 
dx="0" 
class="s2_20"
>}</text>

<text 
x="903" 
y="738" 
dx="0,0,0,0,-1.8,0,0,-1.8,0,0,-1.8" 
class="s2_20"
>nav ul li {</text>

<text 
x="903" 
y="759" 
dx="0,0,0,0,0,0,0,0,0,-1.8,0,0,0,0,0,0" 
class="s2_20"
>display: inline;</text>

<text 
x="903" 
y="781" 
dx="0,0,0,0,0,0,0,0,0,0,0,0,0,0,-1.8,0,0,0,-1.8,0,0,0,0,0" 
class="s2_20"
>border-right: 2px solid </text>

<text 
x="903" 
y="802" 
dx="0,0,0,0,0,0,0,0" 
class="s2_20"
>#111111;</text>

<path d="M906.4,816.2l-1.2,0l0,10.9l1.2,0l0,-4.2c0.2,0.4,0.6,0.7,1,0.9c0.4,0.3,0.8,0.4,1.3,0.4c0.9,0,1.7,-0.4,2.2,-1.2c0.5,-0.8,0.8,-1.8,0.8,-3c0,-1.2,-0.3,-2.1,-0.8,-2.9c-0.5,-0.7,-1.2,-1.1,-2.1,-1.1c-0.5,0,-0.9,0.2,-1.4,0.4c-0.4,0.2,-0.8,0.5,-1,0.8l0,-1Zm2.1,0.8c0.6,0,1.1,0.3,1.4,0.9c0.4,0.6,0.6,1.3,0.6,2.2c0,0.9,-0.2,1.6,-0.6,2.2c-0.3,0.6,-0.8,0.9,-1.5,0.9c-0.4,0,-0.8,-0.2,-1.1,-0.5c-0.4,-0.3,-0.7,-0.6,-0.9,-1.1l0,-3.2c0.6,-0.9,1.3,-1.4,2.1,-1.4Z" class="g11_20" />
<path d="M920.4,822.2l0,-3.3c0,-1.9,-0.9,-2.9,-2.7,-2.9c-0.9,0,-1.9,0.3,-2.9,0.9l0.3,0.8c0.3,-0.2,0.7,-0.3,1.1,-0.5c0.5,-0.1,0.9,-0.2,1.1,-0.2c1.3,0,1.9,0.7,1.9,2l0,0.4l-1.3,0.1c-0.6,0.1,-1.1,0.2,-1.5,0.3c-0.4,0.1,-0.8,0.2,-1.1,0.4c-0.3,0.2,-0.5,0.5,-0.7,0.8c-0.1,0.3,-0.2,0.6,-0.2,1c0,0.6,0.2,1.2,0.6,1.6c0.5,0.4,1,0.6,1.6,0.6c1.1,0,2,-0.5,2.7,-1.5c0,0.6,0,1,0.1,1.3l1.2,0c-0.2,-0.5,-0.2,-1.1,-0.2,-1.8Zm-2.3,0.5c-0.4,0.3,-0.8,0.4,-1.2,0.4c-0.4,0,-0.7,-0.1,-0.9,-0.3c-0.3,-0.3,-0.4,-0.5,-0.4,-0.9c0,-0.4,0.2,-0.7,0.4,-0.9c0.3,-0.2,0.7,-0.4,1.1,-0.4c0.3,-0.1,1.1,-0.2,2.1,-0.3l0,1.4c-0.3,0.4,-0.7,0.8,-1.1,1Z" class="g11_20" />
<path d="M929.5,813.5l-1.1,0l0,3.7C927.8,816.4,927,816,926,816c-0.9,0,-1.6,0.4,-2.2,1.2c-0.5,0.7,-0.8,1.7,-0.8,2.8c0,1.2,0.3,2.2,0.8,3c0.5,0.8,1.2,1.2,2.1,1.2c0.5,0,1,-0.1,1.4,-0.4c0.5,-0.2,0.8,-0.5,1.1,-0.9l0,1.1l1.1,0l0,-10.5Zm-1.5,8.7c-0.3,0.3,-0.6,0.6,-0.9,0.7c-0.3,0.2,-0.6,0.3,-0.9,0.3c-0.6,0,-1.1,-0.3,-1.4,-0.9c-0.4,-0.6,-0.5,-1.3,-0.5,-2.2c0,-0.9,0.1,-1.6,0.5,-2.2c0.4,-0.6,0.9,-0.9,1.5,-0.9c0.8,0,1.5,0.5,2.1,1.4l0,3.2c0,0.1,-0.2,0.3,-0.4,0.6Z" class="g11_20" />
<path d="M938.7,813.5l-1.2,0l0,3.7c-0.6,-0.8,-1.4,-1.2,-2.3,-1.2c-0.9,0,-1.7,0.4,-2.2,1.2c-0.5,0.7,-0.8,1.7,-0.8,2.8c0,1.2,0.3,2.2,0.8,3c0.5,0.8,1.2,1.2,2.1,1.2c0.5,0,0.9,-0.1,1.4,-0.4c0.4,-0.2,0.8,-0.5,1,-0.9l0,1.1l1.2,0l0,-10.5Zm-1.6,8.7c-0.2,0.3,-0.5,0.6,-0.8,0.7c-0.3,0.2,-0.6,0.3,-0.9,0.3c-0.6,0,-1.1,-0.3,-1.4,-0.9c-0.4,-0.6,-0.6,-1.3,-0.6,-2.2c0,-0.9,0.2,-1.6,0.6,-2.2c0.4,-0.6,0.9,-0.9,1.5,-0.9c0.8,0,1.5,0.5,2,1.4l0,3.2c0,0.1,-0.1,0.3,-0.4,0.6Z" class="g11_20" />
<path d="M944.8,813.5c-0.1,0.2,-0.2,0.4,-0.2,0.6c0,0.2,0.1,0.4,0.2,0.6c0.2,0.1,0.4,0.2,0.6,0.2c0.2,0,0.4,-0.1,0.5,-0.2c0.2,-0.2,0.3,-0.4,0.3,-0.6c0,-0.2,-0.1,-0.4,-0.3,-0.6c-0.1,-0.1,-0.3,-0.2,-0.5,-0.2c-0.2,0,-0.4,0.1,-0.6,0.2Zm1.1,2.7l-3.4,0l0,1l2.3,0l0,6.8l1.1,0l0,-7.8Z" class="g11_20" />
<path d="M957,818.7c0,-1.8,-0.7,-2.7,-2.1,-2.7c-1,0,-1.8,0.5,-2.7,1.4l0,-1.2l-1.1,0l0,7.8l1.1,0l0,-5.6c0.8,-0.9,1.6,-1.4,2.3,-1.4c0.5,0,0.8,0.2,1.1,0.5c0.2,0.3,0.3,0.8,0.3,1.5l0,5l1.1,0l0,-5.3Z" class="g11_20" />
<path d="M962.8,821.1c0.8,0,1.4,-0.3,1.9,-0.7c0.5,-0.5,0.7,-1.1,0.7,-1.8c0,-0.6,-0.1,-1,-0.3,-1.4l1.5,0l0,-1.2l-2.3,0.4c-0.4,-0.2,-0.9,-0.3,-1.5,-0.3c-0.7,0,-1.3,0.2,-1.8,0.7c-0.5,0.4,-0.8,1,-0.8,1.8c0,0.4,0.1,0.8,0.4,1.2c0.2,0.4,0.5,0.8,0.9,1c-0.9,0.5,-1.3,1,-1.3,1.6c0,0.4,0.3,0.8,1,1.2c-0.8,0.4,-1.2,0.9,-1.2,1.5c0,0.6,0.2,1.1,0.8,1.4c0.5,0.4,1.2,0.6,2.1,0.6c1,0,2,-0.3,2.7,-0.8c0.8,-0.5,1.2,-1.2,1.2,-2.1c0,-0.6,-0.2,-1,-0.5,-1.3c-0.3,-0.3,-0.8,-0.5,-1.5,-0.5l-2.6,0.1c-0.3,0,-0.5,0,-0.7,-0.1c-0.1,-0.1,-0.2,-0.3,-0.2,-0.4c0,-0.3,0.4,-0.6,1.1,-0.9c0.1,0,0.3,0,0.4,0Zm-1,-1.4c-0.3,-0.3,-0.4,-0.7,-0.4,-1.1c0,-0.5,0.1,-0.9,0.4,-1.2c0.3,-0.3,0.6,-0.4,1,-0.4c0.5,0,0.8,0.1,1.1,0.4c0.3,0.3,0.4,0.7,0.4,1.2c0,0.5,-0.1,0.8,-0.4,1.1c-0.3,0.3,-0.6,0.5,-1.1,0.5c-0.4,0,-0.7,-0.2,-1,-0.5Zm-0.3,6.1c-0.3,-0.2,-0.5,-0.4,-0.5,-0.7c0,-0.2,0.1,-0.4,0.2,-0.6c0.1,-0.2,0.3,-0.4,0.6,-0.5c0.2,-0.2,0.4,-0.3,0.5,-0.3c0.2,0,0.5,0,0.9,0c0.6,-0.1,1,-0.1,1.3,-0.1c0.8,0,1.2,0.3,1.2,0.8c0,0.5,-0.3,0.9,-0.9,1.3c-0.5,0.3,-1.2,0.5,-1.9,0.5c-0.6,0,-1,-0.1,-1.4,-0.4Z" class="g11_20" />
<path d="M974.5,819.5l-4,0l0,1l4,0l0,-1Z" class="g11_20" />
<path d="M983,816c-1,0,-1.8,0.6,-2.5,1.8l0,-1.6l-1.1,0l0,7.8l1.1,0l0,-5c0,-0.1,0.2,-0.3,0.5,-0.6c0.2,-0.4,0.5,-0.7,0.9,-0.9c0.3,-0.2,0.6,-0.3,1,-0.3c0.3,0,0.8,0.1,1.3,0.4l0.5,-1.2C984.1,816.2,983.6,816,983,816Z" class="g11_20" />
<path d="M990.7,813.5c-0.2,0.2,-0.3,0.4,-0.3,0.6c0,0.2,0.1,0.4,0.3,0.6c0.1,0.1,0.3,0.2,0.5,0.2c0.2,0,0.4,-0.1,0.6,-0.2c0.1,-0.2,0.2,-0.4,0.2,-0.6c0,-0.2,-0.1,-0.4,-0.2,-0.6c-0.2,-0.1,-0.4,-0.2,-0.6,-0.2c-0.2,0,-0.4,0.1,-0.5,0.2Zm1.1,2.7l-3.5,0l0,1l2.3,0l0,6.8l1.2,0l0,-7.8Z" class="g11_20" />
<path d="M999.5,821.1c0.8,0,1.4,-0.3,1.9,-0.7c0.5,-0.5,0.7,-1.1,0.7,-1.8c0,-0.6,-0.1,-1,-0.3,-1.4l1.5,0l0,-1.2l-2.3,0.4c-0.5,-0.2,-1,-0.3,-1.5,-0.3c-0.7,0,-1.4,0.2,-1.9,0.7c-0.5,0.4,-0.7,1,-0.7,1.8c0,0.4,0.1,0.8,0.3,1.2c0.3,0.4,0.6,0.8,1,1c-0.9,0.5,-1.4,1,-1.4,1.6c0,0.4,0.4,0.8,1.1,1.2c-0.9,0.4,-1.3,0.9,-1.3,1.5c0,0.6,0.3,1.1,0.8,1.4c0.6,0.4,1.3,0.6,2.2,0.6c1,0,1.9,-0.3,2.7,-0.8c0.8,-0.5,1.2,-1.2,1.2,-2.1c0,-0.6,-0.2,-1,-0.5,-1.3c-0.4,-0.3,-0.9,-0.5,-1.5,-0.5l-2.6,0.1c-0.3,0,-0.5,0,-0.7,-0.1C998.1,822.3,998,822.1,998,822c0,-0.3,0.3,-0.6,1.1,-0.9c0.1,0,0.3,0,0.4,0Zm-1,-1.4C998.2,819.4,998,819,998,818.6c0,-0.5,0.2,-0.9,0.5,-1.2c0.3,-0.3,0.6,-0.4,1,-0.4c0.5,0,0.8,0.1,1.1,0.4c0.2,0.3,0.4,0.7,0.4,1.2c0,0.5,-0.2,0.8,-0.4,1.1c-0.3,0.3,-0.7,0.5,-1.1,0.5c-0.4,0,-0.7,-0.2,-1,-0.5Zm-0.3,6.1c-0.3,-0.2,-0.5,-0.4,-0.5,-0.7c0,-0.2,0.1,-0.4,0.2,-0.6c0.1,-0.2,0.3,-0.4,0.5,-0.5c0.3,-0.2,0.4,-0.3,0.5,-0.3c0.3,0,0.6,0,1,0c0.6,-0.1,1,-0.1,1.3,-0.1c0.7,0,1.1,0.3,1.1,0.8c0,0.5,-0.2,0.9,-0.8,1.3c-0.5,0.3,-1.2,0.5,-1.9,0.5c-0.6,0,-1,-0.1,-1.4,-0.4Z" class="g11_20" />
<path d="M1012.1,818.7c0,-1.8,-0.8,-2.7,-2.2,-2.7c-1,0,-1.8,0.5,-2.7,1.4l0,-3.9l-1.1,0l0,10.5l1.1,0l0,-5.6c0.8,-0.9,1.6,-1.4,2.3,-1.4c0.5,0,0.8,0.2,1.1,0.5c0.2,0.3,0.3,0.8,0.3,1.5l0,5l1.2,0l0,-5.3Z" class="g11_20" />
<path d="M1021.1,822.7c-0.6,0.3,-1.3,0.5,-1.9,0.5c-0.3,0,-0.6,-0.2,-0.8,-0.4c-0.2,-0.3,-0.4,-0.6,-0.4,-1.1l0,-4.5l2.7,0l0,-1l-2.7,0l0,-2.1l-1.1,0l0,2.1l-1.5,0l0,1l1.5,0l0,4.8c0,1.5,0.7,2.2,2.1,2.2c0.8,0,1.5,-0.2,2.3,-0.5l-0.2,-1Z" class="g11_20" />
<path d="M1026.7,816.4c-0.2,0.1,-0.3,0.4,-0.3,0.6c0,0.3,0.1,0.5,0.3,0.6c0.2,0.2,0.4,0.3,0.6,0.3c0.3,0,0.5,-0.1,0.7,-0.3c0.1,-0.1,0.2,-0.3,0.2,-0.6c0,-0.2,-0.1,-0.5,-0.2,-0.6c-0.2,-0.2,-0.4,-0.3,-0.7,-0.3c-0.2,0,-0.4,0.1,-0.6,0.3Zm0,6.2c-0.2,0.2,-0.3,0.4,-0.3,0.6c0,0.3,0.1,0.5,0.3,0.7c0.2,0.1,0.4,0.2,0.6,0.2c0.3,0,0.5,-0.1,0.7,-0.2c0.1,-0.2,0.2,-0.4,0.2,-0.7c0,-0.2,-0.1,-0.4,-0.2,-0.6c-0.2,-0.2,-0.4,-0.2,-0.7,-0.2c-0.2,0,-0.4,0,-0.6,0.2Z" class="g11_20" />
<path d="M1046.3,817.4c0.4,-0.5,0.6,-1,0.6,-1.5c0,-0.6,-0.3,-1.3,-0.9,-1.8c-0.6,-0.6,-1.3,-0.8,-2.1,-0.8c-0.9,0,-1.6,0.2,-2.2,0.8c-0.5,0.5,-0.8,1.2,-0.8,1.8c0,0.6,0.2,1,0.5,1.5c0.4,0.4,0.9,0.7,1.4,0.8c-0.7,0.2,-1.3,0.6,-1.7,1.1c-0.4,0.5,-0.6,1.1,-0.6,1.8c0,0.9,0.3,1.7,1,2.2c0.6,0.6,1.4,0.9,2.4,0.9c0.9,0,1.7,-0.3,2.3,-0.8c0.7,-0.6,1,-1.4,1,-2.3c0,-0.7,-0.2,-1.3,-0.6,-1.8c-0.4,-0.5,-0.9,-0.9,-1.7,-1.1c0.6,-0.1,1.1,-0.4,1.4,-0.8Zm-2.9,0.2c-0.2,-0.1,-0.5,-0.2,-0.6,-0.3c-0.2,-0.1,-0.4,-0.3,-0.5,-0.5c-0.1,-0.3,-0.2,-0.5,-0.2,-0.8c0,-0.5,0.2,-0.9,0.5,-1.2c0.4,-0.3,0.8,-0.5,1.3,-0.5c0.4,0,0.9,0.2,1.2,0.5c0.3,0.3,0.5,0.7,0.5,1.2c0,0.2,0,0.4,-0.1,0.6c-0.1,0.2,-0.2,0.3,-0.3,0.5c-0.1,0.1,-0.3,0.2,-0.4,0.3c-0.2,0.1,-0.4,0.2,-0.6,0.2c-0.2,0.1,-0.3,0.1,-0.3,0.1c-0.1,0,-0.3,0,-0.5,-0.1Zm2.1,2.1c0.3,0.4,0.4,0.8,0.4,1.3c0,0.7,-0.2,1.2,-0.6,1.6c-0.4,0.3,-0.8,0.5,-1.4,0.5c-0.6,0,-1.1,-0.2,-1.5,-0.6c-0.4,-0.3,-0.6,-0.8,-0.6,-1.5c0,-1.1,0.7,-1.8,2.1,-2.2c0.8,0.2,1.4,0.5,1.6,0.9Z" class="g11_20" />
<path d="M1051.2,816.2l-1.1,0l0,10.9l1.1,0l0,-4.2c0.3,0.4,0.6,0.7,1,0.9c0.5,0.3,0.9,0.4,1.4,0.4c0.9,0,1.6,-0.4,2.1,-1.2c0.6,-0.8,0.9,-1.8,0.9,-3c0,-1.2,-0.3,-2.1,-0.8,-2.9c-0.5,-0.7,-1.2,-1.1,-2.1,-1.1c-0.5,0,-1,0.2,-1.4,0.4c-0.5,0.2,-0.8,0.5,-1.1,0.8l0,-1Zm2.1,0.8c0.7,0,1.2,0.3,1.5,0.9c0.4,0.6,0.5,1.3,0.5,2.2c0,0.9,-0.2,1.6,-0.5,2.2c-0.4,0.6,-0.9,0.9,-1.5,0.9c-0.4,0,-0.8,-0.2,-1.2,-0.5c-0.3,-0.3,-0.6,-0.6,-0.9,-1.1l0,-3.2c0.6,-0.9,1.3,-1.4,2.1,-1.4Z" class="g11_20" />
<path d="M1062.8,820.1l2.7,-3.9l-1.2,0l-2.2,3l-2,-3l-1.4,0l2.8,3.9l-2.8,3.9l1.3,0l2.1,-3l2.1,3l1.3,0l-2.7,-3.9Z" class="g11_20" />
<path d="M1070.8,816.4c-0.2,0.1,-0.3,0.4,-0.3,0.6c0,0.3,0.1,0.5,0.3,0.6c0.1,0.2,0.3,0.3,0.6,0.3c0.2,0,0.5,-0.1,0.6,-0.3c0.2,-0.1,0.3,-0.3,0.3,-0.6c0,-0.2,-0.1,-0.5,-0.3,-0.6c-0.1,-0.2,-0.4,-0.3,-0.6,-0.3c-0.3,0,-0.5,0.1,-0.6,0.3Zm-0.3,8.9l0.3,0.5c1.1,-0.6,1.6,-1.3,1.6,-2.3c0,-0.3,-0.1,-0.6,-0.3,-0.8c-0.2,-0.2,-0.4,-0.3,-0.7,-0.3c-0.3,0,-0.5,0,-0.6,0.2c-0.2,0.2,-0.3,0.4,-0.3,0.7c0,0.2,0.1,0.4,0.3,0.6c0.1,0.2,0.3,0.3,0.6,0.3c0,0.4,-0.3,0.8,-0.9,1.1Z" class="g11_20" />
<text 
x="903" 
y="824" 
dx="0,0,0,0,0,0,0,0,0,0,0,0,0,0,0,-1.8,0,0,0" 
class="s2_20"
>padding-right: 8px;</text>

<path d="M906.4,837.6l-1.2,0l0,10.9l1.2,0l0,-4.2c0.2,0.4,0.6,0.7,1,0.9c0.4,0.3,0.8,0.4,1.3,0.4c0.9,0,1.7,-0.4,2.2,-1.2c0.5,-0.8,0.8,-1.8,0.8,-3c0,-1.2,-0.3,-2.1,-0.8,-2.9c-0.5,-0.7,-1.2,-1.1,-2.1,-1.1c-0.5,0,-0.9,0.1,-1.4,0.4c-0.4,0.2,-0.8,0.5,-1,0.8l0,-1Zm2.1,0.8c0.6,0,1.1,0.3,1.4,0.9c0.4,0.6,0.6,1.3,0.6,2.2c0,0.9,-0.2,1.6,-0.6,2.2c-0.3,0.6,-0.8,0.8,-1.5,0.8c-0.4,0,-0.8,-0.1,-1.1,-0.4c-0.4,-0.3,-0.7,-0.7,-0.9,-1.1l0,-3.2c0.6,-0.9,1.3,-1.4,2.1,-1.4Z" class="g11_20" />
<path d="M920.4,843.6l0,-3.4c0,-1.8,-0.9,-2.8,-2.7,-2.8c-0.9,0,-1.9,0.3,-2.9,0.8l0.3,0.9c0.3,-0.2,0.7,-0.3,1.1,-0.5c0.5,-0.1,0.9,-0.2,1.1,-0.2c1.3,0,1.9,0.7,1.9,2l0,0.4l-1.3,0.1c-0.6,0.1,-1.1,0.1,-1.5,0.3c-0.4,0.1,-0.8,0.2,-1.1,0.4c-0.3,0.2,-0.5,0.5,-0.7,0.8c-0.1,0.3,-0.2,0.6,-0.2,1c0,0.6,0.2,1.2,0.6,1.6c0.5,0.4,1,0.6,1.6,0.6c1.1,0,2,-0.5,2.7,-1.5c0,0.6,0,1,0.1,1.3l1.2,0c-0.2,-0.5,-0.2,-1.1,-0.2,-1.8Zm-2.3,0.5c-0.4,0.2,-0.8,0.4,-1.2,0.4c-0.4,0,-0.7,-0.1,-0.9,-0.3c-0.3,-0.3,-0.4,-0.5,-0.4,-0.9c0,-0.4,0.2,-0.7,0.4,-0.9c0.3,-0.2,0.7,-0.4,1.1,-0.5c0.3,0,1.1,-0.1,2.1,-0.2l0,1.4c-0.3,0.4,-0.7,0.8,-1.1,1Z" class="g11_20" />
<path d="M929.5,834.9l-1.1,0l0,3.7c-0.6,-0.8,-1.4,-1.2,-2.4,-1.2c-0.9,0,-1.6,0.4,-2.2,1.2c-0.5,0.7,-0.8,1.6,-0.8,2.8c0,1.2,0.3,2.2,0.8,3c0.5,0.8,1.2,1.2,2.1,1.2c0.5,0,1,-0.1,1.4,-0.4c0.5,-0.2,0.8,-0.5,1.1,-0.9l0,1.1l1.1,0l0,-10.5Zm-1.5,8.7c-0.3,0.3,-0.6,0.5,-0.9,0.7c-0.3,0.2,-0.6,0.2,-0.9,0.2c-0.6,0,-1.1,-0.2,-1.4,-0.8c-0.4,-0.6,-0.5,-1.4,-0.5,-2.2c0,-0.9,0.1,-1.6,0.5,-2.2c0.4,-0.6,0.9,-0.9,1.5,-0.9c0.8,0,1.5,0.5,2.1,1.4l0,3.2c0,0.1,-0.2,0.3,-0.4,0.6Z" class="g11_20" />
<path d="M938.7,834.9l-1.2,0l0,3.7c-0.6,-0.8,-1.4,-1.2,-2.3,-1.2c-0.9,0,-1.7,0.4,-2.2,1.2c-0.5,0.7,-0.8,1.6,-0.8,2.8c0,1.2,0.3,2.2,0.8,3c0.5,0.8,1.2,1.2,2.1,1.2c0.5,0,0.9,-0.1,1.4,-0.4c0.4,-0.2,0.8,-0.5,1,-0.9l0,1.1l1.2,0l0,-10.5Zm-1.6,8.7c-0.2,0.3,-0.5,0.5,-0.8,0.7c-0.3,0.2,-0.6,0.2,-0.9,0.2c-0.6,0,-1.1,-0.2,-1.4,-0.8c-0.4,-0.6,-0.6,-1.4,-0.6,-2.2c0,-0.9,0.2,-1.6,0.6,-2.2c0.4,-0.6,0.9,-0.9,1.5,-0.9c0.8,0,1.5,0.5,2,1.4l0,3.2c0,0.1,-0.1,0.3,-0.4,0.6Z" class="g11_20" />
<path d="M944.8,834.9c-0.1,0.2,-0.2,0.4,-0.2,0.6c0,0.2,0.1,0.4,0.2,0.5c0.2,0.2,0.4,0.3,0.6,0.3c0.2,0,0.4,-0.1,0.5,-0.2c0.2,-0.2,0.3,-0.4,0.3,-0.6c0,-0.2,-0.1,-0.4,-0.3,-0.6c-0.1,-0.1,-0.3,-0.2,-0.5,-0.2c-0.2,0,-0.4,0.1,-0.6,0.2Zm1.1,2.7l-3.4,0l0,1l2.3,0l0,6.8l1.1,0l0,-7.8Z" class="g11_20" />
<path d="M957,840.1c0,-1.8,-0.7,-2.7,-2.1,-2.7c-1,0,-1.8,0.5,-2.7,1.4l0,-1.2l-1.1,0l0,7.8l1.1,0l0,-5.6c0.8,-0.9,1.6,-1.4,2.3,-1.4c0.5,0,0.8,0.2,1.1,0.5c0.2,0.3,0.3,0.8,0.3,1.5l0,5l1.1,0l0,-5.3Z" class="g11_20" />
<path d="M962.8,842.5c0.8,0,1.4,-0.3,1.9,-0.8c0.5,-0.4,0.7,-1,0.7,-1.7c0,-0.6,-0.1,-1,-0.3,-1.4l1.5,0l0,-1.2l-2.3,0.4c-0.4,-0.2,-0.9,-0.4,-1.5,-0.4c-0.7,0,-1.3,0.3,-1.8,0.7c-0.5,0.5,-0.8,1.1,-0.8,1.9c0,0.4,0.1,0.8,0.4,1.2c0.2,0.4,0.5,0.8,0.9,1c-0.9,0.5,-1.3,1,-1.3,1.5c0,0.5,0.3,0.9,1,1.2c-0.8,0.5,-1.2,1,-1.2,1.6c0,0.6,0.2,1.1,0.8,1.4c0.5,0.4,1.2,0.6,2.1,0.6c1,0,2,-0.3,2.7,-0.8c0.8,-0.5,1.2,-1.2,1.2,-2.1c0,-0.6,-0.2,-1,-0.5,-1.3c-0.3,-0.3,-0.8,-0.5,-1.5,-0.5l-2.6,0.1c-0.3,0,-0.5,0,-0.7,-0.1c-0.1,-0.1,-0.2,-0.3,-0.2,-0.4c0,-0.3,0.4,-0.6,1.1,-0.9c0.1,0,0.3,0,0.4,0Zm-1,-1.4c-0.3,-0.3,-0.4,-0.7,-0.4,-1.1c0,-0.5,0.1,-0.9,0.4,-1.2c0.3,-0.3,0.6,-0.4,1,-0.4c0.5,0,0.8,0.1,1.1,0.4c0.3,0.3,0.4,0.7,0.4,1.2c0,0.4,-0.1,0.8,-0.4,1.1c-0.3,0.3,-0.6,0.5,-1.1,0.5c-0.4,0,-0.7,-0.2,-1,-0.5Zm-0.3,6.1C961.2,847,961,846.8,961,846.5c0,-0.2,0.1,-0.4,0.2,-0.6c0.1,-0.2,0.3,-0.4,0.6,-0.5c0.2,-0.2,0.4,-0.3,0.5,-0.3c0.2,0,0.5,0,0.9,0c0.6,-0.1,1,-0.1,1.3,-0.1c0.8,0,1.2,0.3,1.2,0.8c0,0.5,-0.3,0.9,-0.9,1.3c-0.5,0.3,-1.2,0.5,-1.9,0.5c-0.6,0,-1,-0.1,-1.4,-0.4Z" class="g11_20" />
<path d="M974.5,840.5l-4,0l0,1l4,0l0,-1Z" class="g11_20" />
<path d="M983.5,844.5l-2,0l0,-10l-3,0l0,1l2,0l0,10l3,0l0,-1Z" class="g11_20" />
<path d="M994,841.2c0,-1.2,-0.3,-2.1,-0.9,-2.7c-0.7,-0.7,-1.4,-1.1,-2.3,-1.1c-1,0,-1.8,0.4,-2.5,1.1c-0.6,0.8,-0.9,1.7,-0.9,3c0,1.2,0.3,2.2,1.1,3c0.7,0.7,1.6,1.1,2.7,1.1c1,0,1.8,-0.2,2.4,-0.5l-0.2,-0.9c-0.7,0.3,-1.4,0.4,-2.1,0.4c-0.8,0,-1.4,-0.3,-1.9,-0.9c-0.5,-0.6,-0.8,-1.3,-0.8,-2.2l5.4,0l0,-0.3Zm-5.3,-0.6c0,-0.6,0.3,-1.2,0.7,-1.6c0.4,-0.4,0.8,-0.6,1.5,-0.6c0.4,0,0.8,0.2,1.2,0.7c0.4,0.4,0.6,0.9,0.6,1.5l-4,0Z" class="g11_20" />
<path d="M1001.2,834.7c-0.9,0,-1.4,0.2,-1.8,0.6c-0.3,0.4,-0.5,1.1,-0.5,2.1l0,0.2l-1.9,0l0,1l1.9,0l0,6.8l1.2,0l0,-6.8l2.6,0l0,-1l-2.6,0l0,-0.1c0,-0.7,0.1,-1.2,0.2,-1.5c0.2,-0.2,0.5,-0.3,0.9,-0.3c0.4,0,0.9,0.1,1.5,0.2L1003,835c-0.7,-0.2,-1.3,-0.3,-1.8,-0.3Z" class="g11_20" />
<path d="M1011.9,844.1c-0.6,0.3,-1.2,0.5,-1.9,0.5c-0.3,0,-0.6,-0.2,-0.8,-0.4c-0.2,-0.3,-0.3,-0.7,-0.3,-1.1l0,-4.5l2.6,0l0,-1l-2.6,0l0,-2.1l-1.2,0l0,2.1l-1.4,0l0,1l1.4,0l0,4.8c0,1.4,0.7,2.2,2.1,2.2c0.8,0,1.6,-0.2,2.3,-0.6l-0.2,-0.9Z" class="g11_20" />
<path d="M1017.5,837.8c-0.1,0.1,-0.2,0.3,-0.2,0.6c0,0.2,0.1,0.5,0.2,0.6c0.2,0.2,0.4,0.3,0.7,0.3c0.2,0,0.4,-0.1,0.6,-0.3c0.2,-0.1,0.3,-0.4,0.3,-0.6c0,-0.3,-0.1,-0.5,-0.3,-0.6c-0.2,-0.2,-0.4,-0.3,-0.6,-0.3c-0.3,0,-0.5,0.1,-0.7,0.3Zm0,6.2c-0.1,0.2,-0.2,0.4,-0.2,0.6c0,0.3,0.1,0.5,0.2,0.7c0.2,0.1,0.4,0.2,0.7,0.2c0.2,0,0.4,-0.1,0.6,-0.2c0.2,-0.2,0.3,-0.4,0.3,-0.7c0,-0.2,-0.1,-0.4,-0.3,-0.6c-0.2,-0.2,-0.4,-0.3,-0.6,-0.3c-0.3,0,-0.5,0.1,-0.7,0.3Z" class="g11_20" />
<path d="M1037.2,838.7c0.3,-0.4,0.5,-0.9,0.5,-1.4c0,-0.7,-0.3,-1.3,-0.9,-1.8c-0.5,-0.6,-1.2,-0.8,-2.1,-0.8c-0.9,0,-1.6,0.2,-2.1,0.8c-0.6,0.5,-0.8,1.1,-0.8,1.8c0,0.6,0.1,1,0.5,1.5c0.3,0.4,0.8,0.7,1.4,0.8c-0.8,0.2,-1.3,0.6,-1.7,1.1c-0.4,0.5,-0.6,1.1,-0.6,1.8c0,0.9,0.3,1.7,0.9,2.2c0.6,0.6,1.4,0.9,2.4,0.9c0.9,0,1.7,-0.3,2.4,-0.9c0.6,-0.5,0.9,-1.3,0.9,-2.3c0,-0.6,-0.2,-1.2,-0.6,-1.7c-0.4,-0.5,-0.9,-0.9,-1.6,-1.1c0.5,-0.1,1,-0.4,1.4,-0.9Zm-3,0.3c-0.2,-0.1,-0.4,-0.2,-0.6,-0.3c-0.2,-0.2,-0.3,-0.3,-0.5,-0.5c-0.1,-0.3,-0.1,-0.5,-0.1,-0.8c0,-0.5,0.1,-0.9,0.5,-1.2c0.3,-0.3,0.7,-0.5,1.2,-0.5c0.5,0,0.9,0.2,1.2,0.5c0.4,0.3,0.5,0.7,0.5,1.2c0,0.2,0,0.4,-0.1,0.6c-0.1,0.2,-0.2,0.3,-0.3,0.5c-0.1,0.1,-0.3,0.2,-0.4,0.3c-0.2,0.1,-0.3,0.2,-0.6,0.2c-0.2,0.1,-0.3,0.1,-0.3,0.1c-0.1,0,-0.2,0,-0.5,-0.1Zm2.2,2.1c0.2,0.4,0.4,0.8,0.4,1.3c0,0.7,-0.2,1.2,-0.6,1.5c-0.4,0.4,-0.9,0.6,-1.5,0.6c-0.5,0,-1,-0.2,-1.4,-0.6c-0.5,-0.3,-0.7,-0.9,-0.7,-1.5c0,-1.1,0.7,-1.8,2.1,-2.2c0.8,0.2,1.4,0.5,1.7,0.9Z" class="g11_20" />
<path d="M1042.1,837.6l-1.2,0l0,10.9l1.2,0l0,-4.2c0.2,0.4,0.5,0.7,1,0.9c0.4,0.3,0.8,0.4,1.3,0.4c0.9,0,1.6,-0.4,2.2,-1.2c0.5,-0.8,0.8,-1.8,0.8,-3c0,-1.2,-0.3,-2.1,-0.8,-2.9c-0.5,-0.7,-1.2,-1.1,-2.1,-1.1c-0.5,0,-0.9,0.1,-1.4,0.4c-0.4,0.2,-0.8,0.5,-1,0.8l0,-1Zm2.1,0.8c0.6,0,1.1,0.3,1.4,0.9c0.4,0.6,0.6,1.3,0.6,2.2c0,0.9,-0.2,1.6,-0.6,2.2c-0.4,0.6,-0.9,0.8,-1.5,0.8c-0.4,0,-0.8,-0.1,-1.1,-0.4c-0.4,-0.3,-0.7,-0.7,-0.9,-1.1l0,-3.2c0.5,-0.9,1.2,-1.4,2.1,-1.4Z" class="g11_20" />
<path d="M1053.6,841.5l2.7,-3.9l-1.2,0l-2.1,3l-2.1,-3l-1.3,0l2.7,3.9l-2.7,3.9l1.2,0l2.1,-3.1l2.1,3.1l1.3,0l-2.7,-3.9Z" class="g11_20" />
<path d="M1061.6,837.8c-0.2,0.1,-0.3,0.3,-0.3,0.6c0,0.2,0.1,0.5,0.3,0.6c0.2,0.2,0.4,0.3,0.6,0.3c0.3,0,0.5,-0.1,0.7,-0.3c0.1,-0.1,0.2,-0.4,0.2,-0.6c0,-0.3,-0.1,-0.5,-0.2,-0.6c-0.2,-0.2,-0.4,-0.3,-0.7,-0.3c-0.2,0,-0.4,0.1,-0.6,0.3Zm-0.3,8.8l0.3,0.6c1.1,-0.6,1.6,-1.3,1.6,-2.3c0,-0.3,-0.1,-0.6,-0.3,-0.8c-0.2,-0.2,-0.4,-0.4,-0.7,-0.4c-0.2,0,-0.4,0.1,-0.6,0.3c-0.2,0.2,-0.3,0.4,-0.3,0.6c0,0.3,0.1,0.5,0.3,0.7c0.2,0.2,0.4,0.3,0.6,0.3c0,0.4,-0.3,0.7,-0.9,1Z" class="g11_20" />
<text 
x="903" 
y="845" 
dx="0,0,0,0,0,0,0,0,0,0,0,0,0,0,-1.8,0,0,0" 
class="s2_20"
>padding-left: 8px;</text>

<text 
x="903" 
y="866" 
dx="0" 
class="s2_20"
>}</text>

<text 
x="903" 
y="888" 
dx="0,0,0,0,-1.8,0,0,-1.8,0,0,0,0,0,0,0,0,0,0,0,0,0,-1.8" 
class="s2_20"
>nav ul li:last-child {</text>

<text 
x="903" 
y="909" 
dx="0" 
class="s2_20"
>}</text>

<text 
x="903" 
y="930" 
dx="0,0,0,0,-1.8,0,0,-1.8,0,0,-1.8,0,-1.8" 
class="s2_20"
>nav ul li a {</text>

<text 
x="903" 
y="952" 
dx="0" 
class="s2_20"
>}</text>

<text 
x="355" 
y="75" 
dx="0,0,0,0,0,0,0,0,-0.9,0,0,0,-0.9,0,0,0,0,0,-0.9,0,0,0,-0.3,0,0,0,0,0,0,0,-0.9,0,0,0,-0.9,0,0,0,0,-0.9,0,0,0,0,0" 
class="s3_20"
>Changes the space surrounding the menu items.</text>

<text 
x="355" 
y="96" 
dx="0,-1.4,0.3,0,-0.9,0,0,0,0,0,0,0,0,-0.9,0,0,0,-0.9,0,0,0,0,0,0,0,-0.9,0,0,0,0,0,0" 
class="s3_20"
>Try changing the padding values.</text>

<text 
x="1181" 
y="64" 
dx="0,0,0,0,0,-0.6,0,-0.6,0,0,0,0,0,0,0,0,0,0,0,0,-0.6,0,0,0,0,0,0,0,0,0,-0.6,0,0,0,0,-0.6,0,0,-0.6,0,0,0,-0.6,0,0,0,0,0,-0.6,0,0,-0.6,0,0,0,0,-0.6,0,0,0,0" 
class="s3_20"
>Adds a 2-pixel-wide separator line on the right of each menu </text>

<text 
x="1181" 
y="86" 
dx="0,0,0,0,0.3,-1.4,0,1.2,-1.4,0,0,1.2,0,0,0,0,1.2,0,0,0,1.2,0,0,0,0,1.2,0,0,0,0,0,0,0,1.2,0,0,1.2,0,0,0,0,0,0,0,1.2,0,0,1.2,0,0,0,0,0,0,0,0,1.2,0,0,0" 
class="s3_20"
>entry. You make the line thicker or thinner by changing the </text>

<text 
x="1181" 
y="107" 
dx="0,0,0,0,0,0,0,-0.4,0,0,0,0,-0.3,0,-0.4,0,0,0" 
class="s3_20"
>number before the </text>

<path d="M1313.5,99.7l-1.2,0l0,10.8l1.2,0l0,-4.1c0.2,0.4,0.6,0.7,1,0.9c0.4,0.3,0.9,0.4,1.3,0.4c0.9,0,1.7,-0.4,2.2,-1.2c0.5,-0.8,0.8,-1.8,0.8,-3c0,-1.2,-0.3,-2.1,-0.8,-2.9c-0.5,-0.7,-1.2,-1.1,-2.1,-1.1c-0.5,0,-0.9,0.1,-1.4,0.3c-0.4,0.3,-0.7,0.5,-1,0.9l0,-1Zm2.1,0.8c0.6,0,1.1,0.3,1.5,0.9c0.3,0.5,0.5,1.3,0.5,2.2c0,0.8,-0.2,1.6,-0.6,2.2c-0.3,0.5,-0.8,0.8,-1.5,0.8c-0.4,0,-0.7,-0.1,-1.1,-0.4c-0.4,-0.3,-0.7,-0.7,-0.9,-1.1l0,-3.2c0.6,-0.9,1.3,-1.4,2.1,-1.4Z" class="g11_20" />
<path d="M1325,103.5l2.8,-3.8l-1.3,0l-2.1,3l-2.1,-3l-1.3,0l2.7,3.9l-2.7,3.9l1.2,0l2.2,-3.1l2,3.1l1.4,0l-2.8,-4Z" class="g11_20" />
<text 
x="1310" 
y="107" 
dx="0,0" 
class="s2_20"
>px</text>

<text 
x="1329" 
y="107" 
dx="0,0,-0.4,0,0,0,0,0,0,-0.4,0,0,0,-0.4,0,0,0,-0.4,0,0,0,0,0,0,0,0,0,0,0,-0.4,0,0,0,0,0,0,0,0" 
class="s3_20"
>. Notice how the declaration combines </text>

<text 
x="1181" 
y="128" 
dx="0,0,0,-0.3,0,0,0.1,0,0,0,0,0,0,0,0,0.1,0,-0.3,0,0,0,0.3,0,0,0,0,0.1,0,0,0.1,0,0,0,0.1,0,0,-0.3,0,0,0,0,0.1,0,0,0,0,0,0,0,0,0,0,0.1,0,0,0,0,0,0,0,0,0,0" 
class="s3_20"
>three separate properties of the border: thickness, line-style </text>

<text 
x="1181" 
y="150" 
dx="0,0,0,0,-0.9,0,0,0,0,0,-1.4" 
class="s3_20"
>and colour.</text>

<text 
x="354" 
y="503" 
dx="0,0,0,0,0,0,1.6,0,0,0,1.6,0,0,0,0,0,1.6,0,0,0,0,0,0,0,0,0,0,0,0,1.6,0,0,0,0,0,0,0,0,1.6,0,0,0,0,0,0,1.6,0,0,0,0,1.6,0,0,0,1.6,0,0,0,0,0" 
class="s3_20"
>Makes the links side-by-side (inline) rather than one above </text>

<text 
x="354" 
y="524" 
dx="0,0,0,0,1.3,0,0,0,0,-1.4,0,1.3,0,0,0,0,0,0,1.3,0,0,0,0,1.3,0,0,1.3,0,0,0,0,1.3,0,0,0,0.3,0,0,0,1.3,0,1.3,0,0,0,1.3,0,0,0,0,1.3,0,0,-0.3,0,0,1.3,0,0,0" 
class="s3_20"
>the other. Notice that we have started a new rule here. The </text>

<text 
x="354" 
y="545" 
dx="0,0,-0.3,0,0,0,0,0,0,2.4,0,0,0,0,2.4,0,0,0,0,0,2.4,0,0,0,0" 
class="s3_20"
>previous rule began with </text>

<path d="M544.2,540.6c0,-1.7,-0.8,-2.6,-2.2,-2.6c-0.9,0,-1.8,0.4,-2.7,1.3l0,-1.1l-1.1,0l0,7.7l1.1,0l0,-5.6c0.9,-0.9,1.6,-1.3,2.3,-1.3c0.5,0,0.9,0.1,1.1,0.5c0.2,0.3,0.3,0.8,0.3,1.5l0,4.9l1.2,0l0,-5.3Z" class="g11_20" />
<path d="M553.3,544.1l0,-3.3c0,-1.9,-0.8,-2.8,-2.6,-2.8c-0.9,0,-1.9,0.3,-3,0.8l0.3,0.8c0.4,-0.1,0.7,-0.3,1.2,-0.4c0.4,-0.1,0.8,-0.2,1.1,-0.2c1.3,0,1.9,0.7,1.9,2l0,0.4l-1.3,0.1c-0.6,0,-1.1,0.1,-1.6,0.2c-0.4,0.1,-0.7,0.3,-1,0.5c-0.3,0.2,-0.6,0.4,-0.7,0.7c-0.2,0.3,-0.3,0.7,-0.3,1c0,0.7,0.3,1.2,0.7,1.6c0.4,0.4,1,0.6,1.5,0.6c1.2,0,2.1,-0.4,2.7,-1.4c0,0.5,0.1,0.9,0.2,1.2l1.1,0c-0.1,-0.5,-0.2,-1.1,-0.2,-1.8Zm-2.2,0.6c-0.4,0.2,-0.8,0.3,-1.2,0.3c-0.4,0,-0.7,-0.1,-1,-0.3c-0.2,-0.2,-0.3,-0.5,-0.3,-0.8c0,-0.4,0.1,-0.7,0.4,-0.9c0.3,-0.3,0.6,-0.4,1,-0.5c0.4,-0.1,1.1,-0.2,2.2,-0.3l0,1.4c-0.3,0.5,-0.7,0.8,-1.1,1.1Z" class="g11_20" />
<path d="M561.6,538.2l-2.2,6.2l-2.2,-6.2l-1.3,0l2.9,7.7l1.1,0l3,-7.7l-1.3,0Z" class="g11_20" />
<path d="M586,538.2l-1.2,0l0,5.6c-0.8,0.9,-1.6,1.3,-2.3,1.3c-0.5,0,-0.9,-0.1,-1.1,-0.5c-0.2,-0.3,-0.3,-0.8,-0.3,-1.5l0,-4.9l-1.1,0l0,5.3c0,1.7,0.7,2.6,2.1,2.6c1,0,1.9,-0.4,2.7,-1.3l0,1.1l1.2,0l0,-7.7Z" class="g11_20" />
<path d="M594.5,544.5l-2,0l0,-9l-3,0l0,1l2,0l0,9l3,0l0,-1Z" class="g11_20" />
<text 
x="536" 
y="545" 
dx="0,0,0,0,5.1,0" 
class="s2_20"
>nav ul</text>

<text 
x="596" 
y="545" 
dx="0,0,2.4,0,0,0,0,2.4,0,0,0,0,0,2.4,0,0,0,0,2.4,0,0,0,2.4,0,0,0" 
class="s3_20"
>. This meant that all the </text>

<text 
x="354" 
y="567" 
dx="0,0,0,0,0,0,0,0,0,0,0,0,0,-0.3,0,0,0,0,0,0,-0.3,0,0,0,-0.3,0,0,0,0,-0.3,0,0,0,0,0,-0.3,0,0" 
class="s3_20"
>declarations within the rule apply to </text>

<path d="M606.8,559.6l-1.1,0l0,5.6c-0.9,0.9,-1.6,1.3,-2.3,1.3c-0.5,0,-0.9,-0.2,-1.1,-0.5c-0.2,-0.3,-0.3,-0.8,-0.3,-1.5l0,-4.9l-1.2,0l0,5.3c0,1.7,0.8,2.6,2.2,2.6c0.9,0,1.8,-0.4,2.7,-1.3l0,1.1l1.1,0l0,-7.7Z" class="g11_20" />
<path d="M615.5,566.5l-2,0l0,-10l-3,0l0,1l2,0l0,10l3,0l0,-1Z" class="g11_20" />
<text 
x="599" 
y="567" 
dx="0,0" 
class="s2_20"
>ul</text>

<text 
x="621" 
y="567" 
dx="0,0,0,0,0,0,0,0,0,-0.3,0,0,0,0,-0.3,0,-0.3,0,0,0,0,0" 
class="s3_20"
>elements with a class </text>

<text 
x="354" 
y="588" 
dx="0,0,0" 
class="s3_20"
>of </text>

<path d="M380.1,583.3c0,-1.7,-0.5,-2.5,-1.4,-2.5c-0.3,0,-0.6,0.1,-0.9,0.3c-0.3,0.3,-0.6,0.6,-0.8,1c-0.1,-0.4,-0.3,-0.7,-0.5,-1c-0.3,-0.2,-0.5,-0.3,-0.9,-0.3c-0.3,0,-0.6,0.1,-0.9,0.3c-0.3,0.3,-0.5,0.6,-0.7,1l0,-1.1l-1.2,0l0,7.7l1.2,0l0,-5.6c0,0,0.1,-0.3,0.4,-0.7c0.3,-0.4,0.6,-0.6,0.8,-0.6c0.5,0,0.7,0.6,0.7,1.8l0,5.1l1.1,0l0,-5.6c0,0,0.2,-0.3,0.5,-0.7c0.2,-0.4,0.5,-0.6,0.7,-0.6c0.5,0,0.7,0.6,0.7,1.8l0,5.1l1.2,0l0,-5.4Z" class="g11_20" />
<path d="M388.9,584.5c0,-1.1,-0.3,-2,-0.9,-2.7c-0.6,-0.7,-1.4,-1,-2.3,-1c-1,0,-1.8,0.3,-2.4,1.1c-0.7,0.7,-1,1.7,-1,2.9c0,1.3,0.4,2.3,1.1,3c0.7,0.8,1.6,1.1,2.8,1.1c0.9,0,1.7,-0.1,2.4,-0.4l-0.2,-1c-0.8,0.3,-1.5,0.4,-2.2,0.4c-0.8,0,-1.4,-0.3,-1.9,-0.8c-0.5,-0.6,-0.8,-1.3,-0.8,-2.2l5.4,0l0,-0.4Zm-5.3,-0.6c0.1,-0.6,0.3,-1.1,0.7,-1.5c0.4,-0.4,0.9,-0.6,1.5,-0.6c0.4,0,0.9,0.2,1.2,0.6c0.4,0.4,0.6,0.9,0.6,1.5l-4,0Z" class="g11_20" />
<path d="M397.8,583.4c0,-1.8,-0.7,-2.6,-2.2,-2.6c-0.9,0,-1.8,0.4,-2.6,1.3l0,-1.1l-1.2,0l0,7.7l1.2,0l0,-5.6c0.8,-0.9,1.6,-1.3,2.3,-1.3c0.4,0,0.8,0.1,1,0.4c0.2,0.3,0.3,0.8,0.3,1.5l0,5l1.2,0l0,-5.3Z" class="g11_20" />
<path d="M407,581l-1.2,0l0,5.6c-0.8,0.9,-1.6,1.3,-2.3,1.3c-0.5,0,-0.8,-0.2,-1,-0.5c-0.3,-0.3,-0.4,-0.8,-0.4,-1.5l0,-4.9l-1.1,0l0,5.3c0,1.7,0.7,2.6,2.2,2.6c0.9,0,1.8,-0.4,2.6,-1.3l0,1.1l1.2,0l0,-7.7Z" class="g11_20" />
<text 
x="371" 
y="588" 
dx="0,0,0,0" 
class="s2_20"
>menu</text>

<text 
x="408" 
y="588" 
dx="0,0,-0.1,0,0,0,0,-0.1,0,0,0,0,-0.1,0,0,0,0,0,0,-0.1,0,0,0,0" 
class="s3_20"
>. This rule begins with </text>

<path d="M568.4,583.4c0,-1.8,-0.7,-2.6,-2.2,-2.6c-0.9,0,-1.8,0.4,-2.6,1.3l0,-1.1l-1.2,0l0,7.7l1.2,0l0,-5.6c0.8,-0.9,1.6,-1.3,2.3,-1.3c0.5,0,0.8,0.1,1,0.4c0.3,0.3,0.4,0.8,0.4,1.5l0,5l1.1,0l0,-5.3Z" class="g11_20" />
<path d="M577.6,586.9l0,-3.3c0,-1.9,-0.9,-2.8,-2.7,-2.8c-0.9,0,-1.9,0.2,-2.9,0.8l0.3,0.8c0.3,-0.2,0.7,-0.3,1.2,-0.4c0.4,-0.2,0.8,-0.2,1.1,-0.2c1.2,0,1.8,0.6,1.8,2l0,0.3l-1.3,0.1c-0.6,0.1,-1.1,0.2,-1.5,0.3c-0.4,0.1,-0.8,0.3,-1.1,0.5c-0.3,0.2,-0.5,0.4,-0.7,0.7c-0.1,0.3,-0.2,0.6,-0.2,1c0,0.7,0.2,1.2,0.7,1.6c0.4,0.4,0.9,0.6,1.5,0.6c1.1,0,2,-0.5,2.7,-1.4c0,0.5,0,0.9,0.1,1.2l1.2,0c-0.1,-0.5,-0.2,-1.1,-0.2,-1.8Zm-2.2,0.5c-0.4,0.3,-0.9,0.4,-1.3,0.4c-0.3,0,-0.7,-0.1,-0.9,-0.3c-0.2,-0.2,-0.4,-0.5,-0.4,-0.9c0,-0.3,0.2,-0.6,0.5,-0.9c0.2,-0.2,0.6,-0.3,1,-0.4c0.4,-0.1,1.1,-0.2,2.1,-0.3l0,1.4c-0.3,0.5,-0.6,0.8,-1,1Z" class="g11_20" />
<path d="M585.8,581l-2.2,6.1L581.4,581l-1.2,0l2.9,7.7l1.1,0l2.9,-7.7l-1.3,0Z" class="g11_20" />
<path d="M604.9,581l-1.2,0l0,5.6c-0.8,0.9,-1.6,1.3,-2.3,1.3c-0.5,0,-0.8,-0.2,-1.1,-0.5c-0.2,-0.3,-0.3,-0.8,-0.3,-1.5l0,-4.9l-1.1,0l0,5.3c0,1.7,0.7,2.6,2.1,2.6c1,0,1.9,-0.4,2.7,-1.3l0,1.1l1.2,0l0,-7.7Z" class="g11_20" />
<path d="M613.5,587.5l-2,0l0,-9l-3,0l0,1l2,0l0,9l3,0l0,-1Z" class="g11_20" />
<path d="M631.5,587.5l-2,0l0,-9l-3,0l0,1l2,0l0,9l3,0l0,-1Z" class="g11_20" />
<path d="M638.3,578.2c-0.2,0.2,-0.3,0.4,-0.3,0.6c0,0.2,0.1,0.4,0.3,0.6c0.1,0.1,0.3,0.2,0.5,0.2c0.2,0,0.4,-0.1,0.6,-0.2c0.1,-0.2,0.2,-0.4,0.2,-0.6c0,-0.2,-0.1,-0.4,-0.2,-0.6C639.2,578.1,639,578,638.8,578c-0.2,0,-0.4,0.1,-0.5,0.2Zm1.1,2.8l-3.5,0l0,1l2.3,0l0,6.7l1.2,0l0,-7.7Z" class="g11_20" />
<text 
x="560" 
y="588" 
dx="0,0,0,0,-0.2,0,0,-0.2,0" 
class="s2_20"
>nav ul li</text>

<text 
x="647" 
y="588" 
dx="0,0,0,0,0,0,-0.1,0,0,0,0,0,-0.1,0,0,0,0" 
class="s3_20"
>which means that </text>

<text 
x="354" 
y="610" 
dx="0,0,0,0,1.6,0,0,0,0,0,0,0,0,0,0,0,0,1.6,0,0,0,0,0,0,1.6,0,0,0,1.6,0,0,0,0,1.6,0,0,0,0,0,1.6,0,0" 
class="s3_20"
>all declarations within the rule apply to </text>

<path d="M639.5,609.5l-2,0l0,-10l-4,0l0,1l2,0l0,10l4,0l0,-1Z" class="g11_20" />
<path d="M645.8,599.6c-0.1,0.2,-0.2,0.4,-0.2,0.6c0,0.2,0.1,0.4,0.2,0.6c0.2,0.1,0.4,0.2,0.6,0.2c0.2,0,0.4,-0.1,0.5,-0.2c0.2,-0.2,0.2,-0.4,0.2,-0.6c0,-0.2,0,-0.4,-0.2,-0.6c-0.1,-0.1,-0.3,-0.2,-0.5,-0.2c-0.2,0,-0.4,0.1,-0.6,0.2Zm1.1,2.7l-3.4,0l0,1l2.3,0l0,6.8l1.1,0l0,-7.8Z" class="g11_20" />
<text 
x="632" 
y="610" 
dx="0,0,0" 
class="s2_20"
>li </text>

<text 
x="663" 
y="610" 
dx="0,0,0,0,0,0,0,0,0,1.6,0,1.6,0,0,0" 
class="s3_20"
>elements  but </text>

<text 
x="354" 
y="631" 
dx="0,0,0,0,0,-0.9,0,0,-0.9,0,0,0,0,-0.9,0,0,0,0,0,-0.9,0,0,0,0,0,0" 
class="s3_20"
>only if they occur inside </text>

<path d="M523.9,623.7l-1.2,0l0,5.6c-0.8,0.9,-1.5,1.4,-2.2,1.4c-0.5,0,-0.9,-0.2,-1.1,-0.5c-0.2,-0.3,-0.3,-0.8,-0.3,-1.5l0,-5l-1.2,0l0,5.3c0,1.8,0.8,2.7,2.2,2.7c0.9,0,1.8,-0.5,2.6,-1.3l0,1.1l1.2,0l0,-7.8Z" class="g11_20" />
<path d="M532.5,630.5l-2,0l0,-10l-3,0l0,1l2,0l0,10l3,0l0,-1Z" class="g11_20" />
<text 
x="516" 
y="631" 
dx="0,0" 
class="s2_20"
>ul</text>

<text 
x="538" 
y="631" 
dx="0,0,0,0,0,0,0,0,0,-0.9,0,0,0,0,-0.9,0,-0.9,0,0,0,0,0,-0.9,0,0" 
class="s3_20"
>elements with a class of </text>

<path d="M708.7,626.2c0,-1.8,-0.7,-2.7,-2.2,-2.7c-0.9,0,-1.8,0.5,-2.6,1.4l0,-1.2l-1.2,0l0,7.8l1.2,0l0,-5.6c0.8,-0.9,1.5,-1.4,2.3,-1.4c0.4,0,0.8,0.2,1,0.5c0.2,0.3,0.3,0.8,0.3,1.5l0,5l1.2,0l0,-5.3Z" class="g11_20" />
<path d="M717.9,629.7l0,-3.3c0,-1.9,-0.9,-2.9,-2.7,-2.9c-0.9,0,-1.9,0.3,-3,0.9l0.4,0.8c0.3,-0.2,0.7,-0.3,1.1,-0.5c0.5,-0.1,0.8,-0.2,1.1,-0.2c1.3,0,1.9,0.7,1.9,2l0,0.4l-1.3,0.1c-0.6,0.1,-1.1,0.2,-1.5,0.3c-0.5,0.1,-0.8,0.2,-1.1,0.4c-0.3,0.2,-0.5,0.5,-0.7,0.8c-0.2,0.3,-0.2,0.6,-0.2,1c0,0.6,0.2,1.2,0.6,1.6c0.5,0.4,1,0.6,1.6,0.6c1.1,0,2,-0.5,2.7,-1.5c0,0.6,0,1,0.1,1.3l1.2,0c-0.2,-0.5,-0.2,-1.1,-0.2,-1.8Zm-2.3,0.5c-0.4,0.3,-0.8,0.4,-1.2,0.4c-0.4,0,-0.7,-0.1,-0.9,-0.3c-0.3,-0.3,-0.4,-0.5,-0.4,-0.9c0,-0.4,0.1,-0.7,0.4,-0.9c0.3,-0.2,0.6,-0.4,1,-0.4c0.4,-0.1,1.1,-0.2,2.2,-0.3l0,1.4c-0.3,0.4,-0.7,0.8,-1.1,1Z" class="g11_20" />
<path d="M726.1,623.7l-2.2,6.2l-2.2,-6.2l-1.3,0l3,7.8l1,0l3,-7.8l-1.3,0Z" class="g11_20" />
<text 
x="701" 
y="631" 
dx="0,0,0" 
class="s2_20"
>nav</text>

<text 
x="728" 
y="631" 
dx="0" 
class="s3_20"
>.</text>

<text 
x="1180" 
y="545" 
dx="0,0,0,0,0,0.8,0,0,0,0,0.8,0,0,0,0,0,0.8,0,0,0,0,0,0.8,0,0,0,0,0,0,0,0.8,0,0,0,0,0.8,0,0,0,0,0.8,0,0,0,0.3,0,0.8,0,0,0,0.8,0,0,0" 
class="s3_20"
>Adds some extra space between each menu entry and the </text>

<text 
x="1180" 
y="567" 
dx="0,0,0,0,0,0,0,0,0,0,-0.9,0,0,0,0,-0.9,0,0,-0.9,0,0,0,-0.9,0,0,0,0,0" 
class="s3_20"
>separator line to its right.</text>

<path d="M366.5,747.5l37,0" class="g12_20" />
<path d="M418.5,747.5l58,0" class="g12_20" />
<path d="M484.5,747.5l67,0" class="g12_20" />
<path d="M560.5,747.5l73,0" class="g12_20" />
<path d="M642.5,747.5l110,0" class="g12_20" />
<text 
x="366" 
y="743" 
dx="0,0,0,0,0" 
class="s4_20"
>Home </text>

<text 
x="418" 
y="743" 
dx="0,0,0,0,0,0,-0.7,0,0" 
class="s4_20"
>About Us </text>

<text 
x="484" 
y="743" 
dx="0,0,0,0,-0.7,0,0,0,0,0" 
class="s4_20"
>Our Songs </text>

<text 
x="560" 
y="743" 
dx="0,0,0,0,-0.7,0,0,-0.7,0,0,-0.3,0" 
class="s4_20"
>See Us Play </text>

<text 
x="642" 
y="743" 
dx="0,0,0,-0.3,0,0,0,0,-0.7,0,-0.7,0,0,0,0,0,0.3" 
class="s4_20"
>Playing a Concert</text>

<path d="M1196.5,261.5l34,0" class="g12_20" />
<path d="M1244.5,261.5l54,0" class="g12_20" />
<path d="M1309.5,261.5l62,0" class="g12_20" />
<path d="M1382.5,261.5l68,0" class="g12_20" />
<path d="M1461.5,261.5l102,0" class="g12_20" />
<text 
x="1196" 
y="258" 
dx="0,0,0,0,0" 
class="s5_20"
>Home </text>

<text 
x="1244" 
y="258" 
dx="0,0,0,0,0,0,-0.7,0,0" 
class="s5_20"
>About Us </text>

<text 
x="1308" 
y="258" 
dx="0,0,0,0,-0.7,0,0,0,0,0" 
class="s5_20"
>Our Songs </text>

<text 
x="1382" 
y="258" 
dx="0,0,0,0,-0.7,0,0,-0.7,0,0,-0.2,0" 
class="s5_20"
>See Us Play </text>

<text 
x="1461" 
y="258" 
dx="0,0,0,-0.2,0,0,0,0,-0.7,0,-0.7,0,0,0,0,0,0.2" 
class="s5_20"
>Playing a Concert</text>

<path d="M1232,243l0,18" class="g13_20" />
<path d="M1300,243l0,18" class="g13_20" />
<path d="M1374,243l0,18" class="g13_20" />
<path d="M1452,243l0,18" class="g13_20" />
<path d="M1567,243l0,18" class="g13_20" />
<path d="M1196.5,680.5l34,0" class="g12_20" />
<path d="M1244.5,680.5l54,0" class="g12_20" />
<path d="M1309.5,680.5l62,0" class="g12_20" />
<path d="M1382.5,680.5l68,0" class="g12_20" />
<path d="M1461.5,680.5l102,0" class="g12_20" />
<text 
x="1196" 
y="677" 
dx="0,0,0,0,0" 
class="s5_20"
>Home </text>

<text 
x="1244" 
y="677" 
dx="0,0,0,0,0,0,-0.7,0,0" 
class="s5_20"
>About Us </text>

<text 
x="1308" 
y="677" 
dx="0,0,0,0,-0.7,0,0,0,0,0" 
class="s5_20"
>Our Songs </text>

<text 
x="1382" 
y="677" 
dx="0,0,0,0,-0.7,0,0,-0.7,0,0,-0.2,0" 
class="s5_20"
>See Us Play </text>

<text 
x="1461" 
y="677" 
dx="0,0,0,-0.2,0,0,0,0,-0.7,0,-0.7,0,0,0,0,0,0.2" 
class="s5_20"
>Playing a Concert</text>

<path d="M1237,662l0,18" class="g13_20" />
<path d="M1302,662l0,18" class="g13_20" />
<path d="M1376,662l0,18" class="g13_20" />
<path d="M1455,662l0,18" class="g13_20" />
<path d="M1570,662l0,18" class="g13_20" />
<path d="M333,288l0,4l-4,0l0,4l-4,0l0,4l-4,0l0,4l-4,0l0,-4l0,-4l0,-4l0,-4l0,-4l0,-4l0,-4l0,-4l0,-4l4,0l0,4l4,0l0,4l4,0l0,4l4,0l0,4l4,0l0,4Z" class="g14_20" />
<path d="M333,813l0,4l-4,0l0,4l-4,0l0,4l-4,0l0,4l-4,0l0,-4l0,-4l0,-4l0,-4l0,-4l0,-4l0,-4l0,-4l0,-4l4,0l0,4l4,0l0,4l4,0l0,4l4,0l0,4l4,0l0,4Z" class="g14_20" />
<path d="M1156,343l0,4l-4,0l0,4l-4,0l0,4l-4,0l0,4l-4,0l0,-4l0,-4l0,-4l0,-4l0,-4l0,-4l0,-4l0,-4l0,-4l4,0l0,4l4,0l0,4l4,0l0,4l4,0l0,4l4,0l0,4Z" class="g14_20" />
<path d="M1156,799l0,4l-4,0l0,4l-4,0l0,4l-4,0l0,4l-4,0l0,-4l0,-4l0,-4l0,-4l0,-4l0,-4l0,-4l0,-4l0,-4l4,0l0,4l4,0l0,4l4,0l0,4l4,0l0,4l4,0l0,4Z" class="g14_20" />
<path d="M373.5,189.5l29,0" class="g12_20" />
<path d="M373.5,202.5l45,0" class="g12_20" />
<path d="M373.5,216.5l52,0" class="g12_20" />
<path d="M373.5,230.5l57,0" class="g12_20" />
<path d="M373.5,244.5l86,0" class="g12_20" />
<text 
x="373" 
y="186" 
dx="0,0,0,0" 
class="s6_20"
>Home</text>

<text 
x="373" 
y="200" 
dx="0,0,0,0,0,0,-0.6,0" 
class="s6_20"
>About Us</text>

<text 
x="373" 
y="213" 
dx="0,0,0,0,-0.6,0,0,0,0" 
class="s6_20"
>Our Songs</text>

<text 
x="373" 
y="227" 
dx="0,0,0,0,-0.6,0,0,-0.6,0,0,-0.2" 
class="s6_20"
>See Us Play</text>

<text 
x="373" 
y="241" 
dx="0,0,0,-0.2,0,0,0,0,-0.6,0,-0.6,0,0,0,0,0,0.2" 
class="s6_20"
>Playing a Concert</text>

<text 
x="369" 
y="283" 
dx="0,0,0,-0.4,0,0,0,0,-1.1,0,-1.1,0,0,0,0,0,0.4" 
class="s7_20"
>Playing a Concert</text>

<text 
x="367" 
y="306" 
dx="0,0,0,0,0,0,0,0,-0.5,0,-0.5,0,0,0,0,0,0,0,-0.5,0,0,0,-0.5,0,0,-0.5,0,0,0,0,0,-0.5,0,0,0,0,-0.5,0,0,-0.5,0,0,-0.5,0,0,0,-0.5,0,0,-0.5,0,0,0,0,0,0,0,-0.5,0,0,0,0,0,0,-0.5,0,0,0,0,0,0,0,0,0,-0.5,0,0,0,0,-0.5,0,0,-0.5,0,0,0,-0.5,0,0,0,0,-0.5,0,0,0,0" 
class="s8_20"
>Playing a concert can be great fun! Or it can be totally scary! Sometimes both at the same time.</text>

<text 
x="367" 
y="330" 
dx="0,0,0,-0.5,0,0,0,0,0,-0.5,0,0,0,-0.5,0,0,0,0,0,0,0,0,-0.5,0,-0.5,0,0,0,0,-0.5,0,0,-0.5,0,0,0,-0.5,0,0,0,-0.5,0,0,0,0,-0.5,0,0,0,-0.5,0,0,0,0,0,-0.5,0,0,0,0,0,0,0,0" 
class="s9_20"
>So weve put together a list of our top tips for great concerts.</text>

<text 
x="367" 
y="354" 
dx="0,0,0,-0.2,0,-0.7,0,0,0,-0.7,0,-0.7,0,0,0,0,0,0,0" 
class="s10_20"
>Copy out a set-list</text>

<text 
x="367" 
y="378" 
dx="0,-0.5" 
class="s9_20"
>A </text>

<text 
x="375" 
y="378" 
dx="0,0,0,0,0,0,0,0,0" 
class="s11_20"
>set-list </text>

<text 
x="406" 
y="378" 
dx="0,0,0,-0.5,0,-0.5,0,0,0,0,-0.5,0,0,-0.5,0,0,0,-0.5,0,0,0,0,-0.5,0,0,0,0,0,-0.5,0,0,-0.5,0,0,0,-0.5,0,0,0,0,0,-0.5,0,0,0,0,0,0,-0.5,0,0,0,0,-0.5,0,0,0,0" 
class="s9_20"
>is a list of all your songs in the order youll play them.</text>

<text 
x="367" 
y="402" 
dx="0,0,0,0,0,-0.5,0,0,0,0,0,0,-0.5,0,0,0,-0.5,0,0,0,0,0,0,0,0" 
class="s9_20"
>Make copies for everyone.</text>

<text 
x="367" 
y="425" 
dx="0,0,0,0,0,0,-0.4,0" 
class="s8_20"
>Print it</text>

<text 
x="394" 
y="425" 
dx="0,0,0" 
class="s11_20"
>BIG</text>

<text 
x="410" 
y="425" 
dx="0,0,-0.4,0,0,-0.4,0,0,0,0,-0.4,0,0,0,-0.4,0,0,0,-0.4,0,0,0,0,0,-0.4,0,0,0,0,-0.4,0,0,-0.4,0,0,-0.4,0,0,-0.2,0,-0.4,0,0,0,0,-0.4,0,0,-0.4,0,0,0,0,-0.4,0,0,0,0,-0.4,0,0,-0.4,0,0,0,-0.4,0,0,0,0,-0.5,0,-0.4,0,0,-0.4,0,0,-0.4,0,0,0,-0.4,0,0,0,0,0,0,0,0,-0.4,0,0,0,0,0,-0.4,0,0,0,0" 
class="s9_20"
>! so that you can still read it if its down by your feet on the floor, or if the lighting isnt very </text>

<text 
x="367" 
y="437" 
dx="0,0,0,0,0" 
class="s9_20"
>good.</text>

<text 
x="1200" 
y="304" 
dx="0,0,0,-0.4,0,0,0,0,-1.1,0,-1.1,0,0,0,0,0,0.4" 
class="s7_20"
>Playing a Concert</text>

<text 
x="1198" 
y="331" 
dx="0,0,0,0,0,0,0,0,-0.5,0,-0.5,0,0,0,0,0,0,0,-0.5,0,0,0,-0.5,0,0,-0.5,0,0,0,0,0,-0.5,0,0,0,0,-0.5,0,0,-0.5,0,0,-0.5,0,0,0,-0.5,0,0,-0.5,0,0,0,0,0,0,0,-0.5,0,0,0,0,0,0,-0.5,0,0,0,0,0,0,0,0,0,-0.5,0,0,0,0,-0.5,0,0,-0.5,0,0,0,-0.5,0,0,0,0,-0.5,0,0,0,0" 
class="s8_20"
>Playing a concert can be great fun! Or it can be totally scary! Sometimes both at the same time.</text>

<text 
x="1198" 
y="354" 
dx="0,0,0,-0.5,0,0,0,0,0,-0.5,0,0,0,-0.5,0,0,0,0,0,0,0,0,-0.5,0,-0.5,0,0,0,0,-0.5,0,0,-0.5,0,0,0,-0.5,0,0,0,-0.5,0,0,0,0,-0.5,0,0,0,-0.5,0,0,0,0,0,-0.5,0,0,0,0,0,0,0,0" 
class="s9_20"
>So weve put together a list of our top tips for great concerts.</text>

<text 
x="1198" 
y="378" 
dx="0,0,0,-0.2,0,-0.7,0,0,0,-0.7,0,-0.7,0,0,0,0,0,0,0" 
class="s10_20"
>Copy out a set-list</text>

<text 
x="1198" 
y="402" 
dx="0,-0.5" 
class="s9_20"
>A </text>

<text 
x="1205" 
y="402" 
dx="0,0,0,0,0,0,0,0" 
class="s11_20"
>set-list</text>

<text 
x="1236" 
y="402" 
dx="0,0,0,-0.5,0,-0.5,0,0,0,0,-0.5,0,0,-0.5,0,0,0,-0.5,0,0,0,0,-0.5,0,0,0,0,0,-0.5,0,0,-0.5,0,0,0,-0.5,0,0,0,0,0,-0.5,0,0,0,0,0,0,-0.5,0,0,0,0,-0.5,0,0,0,0" 
class="s9_20"
>is a list of all your songs in the order youll play them.</text>

<text 
x="1198" 
y="426" 
dx="0,0,0,0,0,-0.5,0,0,0,0,0,0,-0.5,0,0,0,-0.5,0,0,0,0,0,0,0,0" 
class="s9_20"
>Make copies for everyone.</text>

<text 
x="1198" 
y="450" 
dx="0,0,0,0,0,0,-0.1,0,0" 
class="s8_20"
>Print it </text>

<text 
x="1225" 
y="450" 
dx="0,0,0,0" 
class="s11_20"
>BIG!</text>

<text 
x="1247" 
y="450" 
dx="0,0,0,-0.1,0,0,0,0,-0.1,0,0,0,-0.1,0,0,0,-0.1,0,0,0,0,0,-0.1,0,0,0,0,-0.1,0,0,-0.1,0,0,-0.1,0,0,-0.2,0,-0.1,0,0,0,0,-0.1,0,0,-0.1,0,0,0,0,-0.1,0,0,0,0,-0.1,0,0,-0.1,0,0,0,-0.1,0,0,0,0,-0.5,0,-0.1,0,0,-0.1,0,0,-0.1,0,0,0,-0.1,0,0,0,0,0,0,0,0,-0.1,0,0,0,0,0" 
class="s9_20"
>so that you can still read it if its down by your feet on the floor, or if the lighting isnt </text>

<text 
x="1198" 
y="461" 
dx="0,0,0,0,0,-0.5,0,0,0,0" 
class="s9_20"
>very good.</text>

<text 
x="1198" 
y="485" 
dx="0,0,0,0,0,0,0,0,0,-0.7,-0.3,0,0,0,-0.7,0,0,0,0,0" 
class="s10_20"
>Remember your spares</text>

<text 
x="1200" 
y="725" 
dx="0,0,0,-0.4,0,0,0,0,-1.1,0,-1.1,0,0,0,0,0,0.4" 
class="s7_20"
>Playing a Concert</text>

<text 
x="1198" 
y="749" 
dx="0,0,0,0,0,0,0,0,-0.5,0,-0.5,0,0,0,0,0,0,0,-0.5,0,0,0,-0.5,0,0,-0.5,0,0,0,0,0,-0.5,0,0,0,0,-0.5,0,0,-0.5,0,0,-0.5,0,0,0,-0.5,0,0,-0.5,0,0,0,0,0,0,0,-0.5,0,0,0,0,0,0,-0.5,0,0,0,0,0,0,0,0,0,-0.5,0,0,0,0,-0.5,0,0,-0.5,0,0,0,-0.5,0,0,0,0,-0.5,0,0,0,0" 
class="s8_20"
>Playing a concert can be great fun! Or it can be totally scary! Sometimes both at the same time.</text>

<text 
x="1198" 
y="773" 
dx="0,0,0,-0.5,0,0,0,0,0,-0.5,0,0,0,-0.5,0,0,0,0,0,0,0,0,-0.5,0,-0.5,0,0,0,0,-0.5,0,0,-0.5,0,0,0,-0.5,0,0,0,-0.5,0,0,0,0,-0.5,0,0,0,-0.5,0,0,0,0,0,-0.5,0,0,0,0,0,0,0,0" 
class="s9_20"
>So weve put together a list of our top tips for great concerts.</text>

<text 
x="1198" 
y="797" 
dx="0,0,0,-0.2,0,-0.7,0,0,0,-0.7,0,-0.7,0,0,0,0,0,0,0" 
class="s10_20"
>Copy out a set-list</text>

<text 
x="1198" 
y="821" 
dx="0,-0.5" 
class="s9_20"
>A </text>

<text 
x="1205" 
y="821" 
dx="0,0,0,0,0,0,0,0" 
class="s11_20"
>set-list</text>

<text 
x="1236" 
y="821" 
dx="0,0,0,-0.5,0,-0.5,0,0,0,0,-0.5,0,0,-0.5,0,0,0,-0.5,0,0,0,0,-0.5,0,0,0,0,0,-0.5,0,0,-0.5,0,0,0,-0.5,0,0,0,0,0,-0.5,0,0,0,0,0,0,-0.5,0,0,0,0,-0.5,0,0,0,0" 
class="s9_20"
>is a list of all your songs in the order youll play them.</text>

<text 
x="1198" 
y="844" 
dx="0,0,0,0,0,-0.5,0,0,0,0,0,0,-0.5,0,0,0,-0.5,0,0,0,0,0,0,0,0" 
class="s9_20"
>Make copies for everyone.</text>

<text 
x="1198" 
y="868" 
dx="0,0,0,0,0,0,-0.1,0,0" 
class="s8_20"
>Print it </text>

<text 
x="1225" 
y="868" 
dx="0,0,0,0" 
class="s11_20"
>BIG!</text>

<text 
x="1247" 
y="868" 
dx="0,0,0,-0.1,0,0,0,0,-0.1,0,0,0,-0.1,0,0,0,-0.1,0,0,0,0,0,-0.1,0,0,0,0,-0.1,0,0,-0.1,0,0,-0.1,0,0,-0.2,0,-0.1,0,0,0,0,-0.1,0,0,-0.1,0,0,0,0,-0.1,0,0,0,0,-0.1,0,0,-0.1,0,0,0,-0.1,0,0,0,0,-0.5,0,-0.1,0,0,-0.1,0,0,-0.1,0,0,0,-0.1,0,0,0,0,0,0,0,0,-0.1,0,0,0,0,0" 
class="s9_20"
>so that you can still read it if its down by your feet on the floor, or if the lighting isnt </text>

<text 
x="1198" 
y="880" 
dx="0,0,0,0,0,-0.5,0,0,0,0" 
class="s9_20"
>very good.</text>

<text 
x="1198" 
y="904" 
dx="0,0,0,0,0,0,0,0,0,-0.7,-0.3,0,0,0,-0.7,0,0,0,0,0" 
class="s10_20"
>Remember your spares</text>

<text 
x="1198" 
y="928" 
dx="0,0,0,0,0,-0.5,0,0,0,0,0,0,0,0,0,0,0,-0.5,0,0,0,0,-0.5,0,0,0,0,0,-0.5,0,0,0,0,-0.5,0,0,0,0,-0.5,0,0,-0.5,0,0,-0.5,0,0,0,0,0,0,0,0,-0.5,0,0,-0.5,0,0,0,0,-0.5,0,0,0,0,-0.5,0,0,0,-0.5,0,0,-0.5,0,0,0,0,0,0,-0.5,0,0,0,-0.5,0,0,0,0,0,0,0" 
class="s9_20"
>Some instruments have parts that need to be replaced if they wear out or break. For example:</text>

<text 
x="1212" 
y="952" 
dx="0" 
class="s12_20"
></text>

<text 
x="1225" 
y="952" 
dx="0,0,0,0,0,0,0,-0.5,0,0,0,0,0,0" 
class="s8_20"
>guitar strings</text>

<text 
x="1212" 
y="963" 
dx="0" 
class="s12_20"
></text>

<text 
x="1225" 
y="963" 
dx="0,0,0,0,0,0,0,0,0,0,-0.5,0,0,-0.5,0,0,0,0,0,0,0,0,-0.5,0,0,0,0" 
class="s9_20"
>saxophone or clarinet reeds</text>

<text 
x="1212" 
y="975" 
dx="0" 
class="s12_20"
></text>

<text 
x="1225" 
y="975" 
dx="0,0,0,0,0,0,0,0,0,0" 
class="s9_20"
>drumsticks</text>

<text 
x="369" 
y="789" 
dx="0,0,0,-0.4,0,0,0,0,-1.1,0,-1.1,0,0,0,0,0,0.4" 
class="s7_20"
>Playing a Concert</text>

<text 
x="367" 
y="814" 
dx="0,0,0,0,0,0,0,0,-0.5,0,-0.5,0,0,0,0,0,0,0,-0.5,0,0,0,-0.5,0,0,-0.5,0,0,0,0,0,-0.5,0,0,0,0,-0.5,0,0,-0.5,0,0,-0.5,0,0,0,-0.5,0,0,-0.5,0,0,0,0,0,0,0,-0.5,0,0,0,0,0,0,-0.5,0,0,0,0,0,0,0,0,0,-0.5,0,0,0,0,-0.5,0,0,-0.5,0,0,0,-0.5,0,0,0,0,-0.5,0,0,0,0" 
class="s8_20"
>Playing a concert can be great fun! Or it can be totally scary! Sometimes both at the same time.</text>

<text 
x="367" 
y="838" 
dx="0,0,0,-0.5,0,0,0,0,0,-0.5,0,0,0,-0.5,0,0,0,0,0,0,0,0,-0.5,0,-0.5,0,0,0,0,-0.5,0,0,-0.5,0,0,0,-0.5,0,0,0,-0.5,0,0,0,0,-0.5,0,0,0,-0.5,0,0,0,0,0,-0.5,0,0,0,0,0,0,0,0" 
class="s9_20"
>So weve put together a list of our top tips for great concerts.</text>

<text 
x="367" 
y="862" 
dx="0,0,0,-0.2,0,-0.7,0,0,0,-0.7,0,-0.7,0,0,0,0,0,0,0" 
class="s10_20"
>Copy out a set-list</text>

<text 
x="367" 
y="886" 
dx="0,-0.5" 
class="s9_20"
>A </text>

<text 
x="375" 
y="886" 
dx="0,0,0,0,0,0,0,0,0" 
class="s11_20"
>set-list </text>

<text 
x="406" 
y="886" 
dx="0,0,0,-0.5,0,-0.5,0,0,0,0,-0.5,0,0,-0.5,0,0,0,-0.5,0,0,0,0,-0.5,0,0,0,0,0,-0.5,0,0,-0.5,0,0,0,-0.5,0,0,0,0,0,-0.5,0,0,0,0,0,0,-0.5,0,0,0,0,-0.5,0,0,0,0" 
class="s9_20"
>is a list of all your songs in the order youll play them.</text>

<text 
x="367" 
y="910" 
dx="0,0,0,0,0,-0.5,0,0,0,0,0,0,-0.5,0,0,0,-0.5,0,0,0,0,0,0,0,0" 
class="s9_20"
>Make copies for everyone.</text>

<text 
x="1590" 
y="1019" 
dx="0,-1.3" 
class="s13_20"
>39</text>

<text 
x="35" 
y="1019" 
dx="0,-1.1" 
class="s13_20"
>38</text>



<!-- Any embedded fonts defined here -->
<style type="text/css" ><![CDATA[

@font-face {
	font-family: AndaleMono_1cn;
	src: url("fonts/AndaleMono_1cn.woff") format("woff");
}

@font-face {
	font-family: Helvetica-Light_1by;
	src: url("fonts/Helvetica-Light_1by.woff") format("woff");
}

@font-face {
	font-family: Helvetica_1dx;
	src: url("fonts/Helvetica_1dx.woff") format("woff");
}

@font-face {
	font-family: PixelSplitter-Bold_1bs;
	src: url("fonts/PixelSplitter-Bold_1bs.woff") format("woff");
}

@font-face {
	font-family: Helvetica-Bold_1bu;
	src: url("fonts/Helvetica-Bold_1bu.woff") format("woff");
}

@font-face {
	font-family: Helvetica_1e3;
	src: url("fonts/Helvetica_1e3.woff") format("woff");
}

]]></style>

</svg>
