<?xml version="1.0" encoding="UTF-8" standalone="no"?>
<!DOCTYPE svg PUBLIC "-//W3C//DTD SVG 1.1//EN"
"http://www.w3.org/Graphics/SVG/1.1/DTD/svg11.dtd">


<!-- Page 21 -->
<svg x="0" y="0" width="1645" height="1061" viewBox="0 0 1645 1061" version="1.1" xmlns="http://www.w3.org/2000/svg" xmlns:xlink="http://www.w3.org/1999/xlink"
style="display: block;margin-left: auto;margin-right: auto;">
<defs>

<style type="text/css"><![CDATA[

.g14_21{
fill: none;
stroke: #11151D;
stroke-width: 1;
stroke-linecap: butt;
stroke-linejoin: miter;
}
.g6_21{
fill: #989797;
}
.g5_21{
fill: none;
stroke: #989898;
stroke-width: 5;
stroke-linecap: butt;
stroke-linejoin: miter;
stroke-miterlimit: 4;
}
.g18_21{
fill: none;
stroke: #FFFFFF;
stroke-width: 3;
stroke-linecap: butt;
stroke-linejoin: miter;
stroke-opacity: 0;
}
.g13_21{
fill: #11151D;
}
.g12_21{
fill: none;
stroke: #11151D;
stroke-width: 1;
stroke-linecap: butt;
stroke-linejoin: miter;
stroke-miterlimit: 4;
}
.g10_21{
fill: #B897C1;
}
.g1_21{
fill: #8ED8F8;
}
.g2_21{
fill: #FFFFFF;
}
.g3_21{
fill: #FAAD60;
}
.g9_21{
fill: none;
stroke: #FFFFFF;
stroke-width: 2;
stroke-linecap: round;
stroke-linejoin: round;
stroke-miterlimit: 4;
}
.g11_21{
fill: none;
stroke: #000000;
stroke-width: 2;
stroke-linecap: butt;
stroke-linejoin: miter;
stroke-miterlimit: 4;
}
.g17_21{
fill: none;
stroke: #11151D;
stroke-width: 5;
stroke-linecap: butt;
stroke-linejoin: miter;
stroke-miterlimit: 4;
}
.g15_21{
fill: none;
stroke: #11151D;
stroke-width: 2;
stroke-linecap: butt;
stroke-linejoin: miter;
stroke-miterlimit: 4;
}
.g4_21{
fill: #E7DEEC;
}
.g7_21{
fill: none;
stroke: #FFFFFF;
stroke-width: 3;
stroke-linecap: round;
stroke-linejoin: round;
stroke-miterlimit: 4;
}
.g16_21{
fill: none;
stroke: #35353B;
stroke-width: 2;
stroke-linecap: butt;
stroke-linejoin: miter;
stroke-miterlimit: 4;
}
.g8_21{
fill: none;
stroke: #FFFFFF;
stroke-width: 1;
stroke-linecap: round;
stroke-linejoin: round;
}

.s4_21{
font-size: 15.28px;
font-family: Helvetica-LightOblique_1di;
fill: #11151D;
}
.s6_21{
font-size: 8.93px;
font-family: Helvetica_1dx;
fill: #11151D;
}
.s13_21{
font-size: 51.94px;
font-family: PixelSplitter-Bold_i0;
fill: #FFFFFF;
}
.s7_21{
font-size: 8.93px;
font-family: Helvetica_1e3;
fill: #11151D;
}
.s16_21{
font-size: 12.22px;
font-family: PixelSplitter-Bold_1bs;
fill: #11151D;
}
.s8_21{
font-size: 11.91px;
font-family: Helvetica-Bold_1bu;
fill: #11151D;
}
.s1_21{
font-size: 18.33px;
font-family: PixelSplitter-Bold_1bs;
fill: #11151D;
}
.s5_21{
font-size: 19.35px;
font-family: Helvetica-Bold_1bu;
fill: #11151D;
}
.s11_21{
font-size: 11.47px;
font-family: Helvetica-Bold_1bu;
fill: #11151D;
}
.s12_21{
font-size: 11.47px;
font-family: Helvetica-Bold_1bu;
fill: #35353B;
}
.s15_21{
font-size: 19.14px;
font-family: PixelSplitter-Bold_1bs;
fill: #11151D;
}
.s14_21{
font-size: 29.03px;
font-family: PixelSplitter-Bold_i0;
fill: #FFFFFF;
}
.s9_21{
font-size: 8.93px;
font-family: Helvetica-Bold_1bu;
fill: #11151D;
}
.s10_21{
font-size: 8.93px;
font-family: Helvetica-Light_1by;
fill: #11151D;
}
.s2_21{
font-size: 15.28px;
font-family: AndaleMono_1cn;
fill: #11151D;
}
.s3_21{
font-size: 15.28px;
font-family: Helvetica-Light_1by;
fill: #11151D;
}

]]></style>

</defs>
<path d="M0,0
L0,1061
L1645,1061
L1645,0 Z " 
fill="#FFFFFF" stroke="none" />
<image x="-33" y="-32" width="1713" height="1115" xlink:href="21/img/1.png" />
<image x="-13" y="-11" width="1674" height="1073" opacity="0.5" xlink:href="21/img/2.png" />
<image x="809" y="-28" width="874" height="1120" xlink:href="21/img/3.png" />
<path d="M1309,725l4,0l0,4l282,0l0,-4l5,0l0,-104l-5,0l0,-5l-286,0Z" class="g1_21" />
<image x="1325" y="630" width="84" height="85" xlink:href="21/img/4.png" />
<path d="M1309,616l205,0l0,-31l-4,0l0,-4l-197,0l0,4l-4,0Z" class="g2_21" />
<path d="M72,43l0,4l-4,0l0,472l4,0l0,5l300,0l0,-5l4,0L376,47l-4,0l0,-4Z" class="g3_21" />
<path d="M894,41l0,4l-4,0l0,520l4,0l0,5l295,0l0,-5l4,0l0,-520l-4,0l0,-4Z" class="g3_21" />
<path d="M73,535l0,4l-5,0l0,477l5,0l0,5l299,0l0,-5l4,0l0,-477l-4,0l0,-4Z" class="g3_21" />
<path d="M399,43l0,4l-5,0l0,133l5,0l0,4l376,0l0,-4l4,0L779,47l-4,0l0,-4Z" class="g2_21" />
<path d="M399,535l0,4l-5,0l0,154l5,0l0,4l376,0l0,-4l4,0l0,-154l-4,0l0,-4Z" class="g2_21" />
<path d="M1212,41l0,4l-4,0l0,71l4,0l0,4l386,0l0,-4l4,0l0,-71l-4,0l0,-4Z" class="g2_21" />
<path d="M401,195l0,2l0,2l-2,0l-2,0l0,318l2,0l2,0l0,2l0,2l371,0l0,-2l0,-2l3,0l2,0l0,-318l-2,0l-3,0l0,-2l0,-2Z" class="g4_21" />
<path d="M401.5,195.5l0,2l0,2l-2,0l-2,0l0,318l2,0l2,0l0,2l0,2l371,0l0,-2l0,-2l3,0l2,0l0,-318l-2,0l-3,0l0,-2l0,-2l-371,0Z" class="g5_21" />
<path d="M399,193l0,4l-5,0l0,33l385,0l0,-33l-4,0l0,-4Z" class="g6_21" />
<path d="M414.9,209.4c1.8,0,3.2,-1.4,3.2,-3.2c0,-1.8,-1.4,-3.2,-3.2,-3.2c-1.8,0,-3.2,1.4,-3.2,3.2c0,1.8,1.4,3.2,3.2,3.2Z" class="g2_21" />
<path d="M427.4,209.4c1.8,0,3.2,-1.4,3.2,-3.2c0,-1.8,-1.4,-3.2,-3.2,-3.2c-1.8,0,-3.2,1.4,-3.2,3.2c0,1.8,1.4,3.2,3.2,3.2Z" class="g2_21" />
<path d="M439.9,209.4c1.8,0,3.2,-1.4,3.2,-3.2c0,-1.8,-1.4,-3.2,-3.2,-3.2c-1.8,0,-3.2,1.4,-3.2,3.2c0,1.8,1.4,3.2,3.2,3.2Z" class="g2_21" />
<path d="M410.2,215.6c0,0,-2.2,0,-2.2,2.2l0,4.8c0,0,0,2.2,2.2,2.2l344.2,0c0,0,2.2,0,2.2,-2.2l0,-4.8c0,0,0,-2.2,-2.2,-2.2Z" class="g2_21" />
<path d="M495.3,216.8l-3,3.4l3,3.5" class="g7_21" />
<path d="M772.7,216.1l0,4.1l-0.1,0c-0.5,-0.1,-1,-0.2,-1.5,-0.3c-0.8,-0.1,-1.5,-0.2,-2.2,-0.4c-0.1,0,-0.2,0,-0.4,0c0.5,-0.4,1,-0.8,1.4,-1.2c-0.6,-0.4,-1.4,-0.6,-2.1,-0.4c-0.8,0.2,-1.3,0.6,-1.7,1.2c-0.4,0.6,-0.6,1.3,-0.5,2c0.1,0.7,0.5,1.3,1,1.7c0.7,0.6,1.5,0.8,2.4,0.6c0.9,-0.2,1.5,-0.7,1.9,-1.5c0,-0.1,0.1,-0.1,0.1,-0.1c0.5,0.1,1,0.2,1.5,0.4c-0.3,0.9,-0.8,1.5,-1.6,2.1c-0.7,0.5,-1.5,0.7,-2.3,0.7c-0.1,0,-0.1,0.1,-0.1,0.1l-0.2,0c-0.1,0,-0.1,-0.1,-0.1,-0.1c-0.3,0,-0.6,0,-0.9,-0.1c-0.9,-0.2,-1.6,-0.7,-2.2,-1.4c-0.6,-0.7,-1,-1.5,-1.1,-2.4c0,-0.1,0,-0.2,0,-0.3l0,-0.3l0,-0.1c0,-0.1,0,-0.3,0.1,-0.5c0.1,-0.9,0.5,-1.6,1.1,-2.2c0.6,-0.7,1.5,-1.2,2.4,-1.4c0.5,-0.1,1.1,-0.1,1.6,0c0.7,0.2,1.4,0.5,2,0.9c0,0.1,0,0.1,0.1,0c0.3,-0.2,0.5,-0.4,0.8,-0.6c0.2,-0.2,0.4,-0.3,0.6,-0.5Z" class="g2_21" />
<path d="M772.7,216.1l0,4.1l-0.1,0c-0.5,-0.1,-1,-0.2,-1.5,-0.3c-0.8,-0.1,-1.5,-0.2,-2.2,-0.4c-0.1,0,-0.2,0,-0.4,0c0.5,-0.4,1,-0.8,1.4,-1.2c-0.6,-0.4,-1.4,-0.6,-2.1,-0.4c-0.8,0.2,-1.3,0.6,-1.7,1.2c-0.4,0.6,-0.6,1.3,-0.5,2c0.1,0.7,0.5,1.3,1,1.7c0.7,0.6,1.5,0.8,2.4,0.6c0.9,-0.2,1.5,-0.7,1.9,-1.5c0,-0.1,0.1,-0.1,0.1,-0.1c0.5,0.1,1,0.2,1.5,0.4c-0.3,0.9,-0.8,1.5,-1.6,2.1c-0.7,0.5,-1.5,0.7,-2.3,0.7c-0.1,0,-0.1,0.1,-0.1,0.1l-0.2,0c-0.1,0,-0.1,-0.1,-0.1,-0.1c-0.3,0,-0.6,0,-0.9,-0.1c-0.9,-0.2,-1.6,-0.7,-2.2,-1.4c-0.6,-0.7,-1,-1.5,-1.1,-2.4c0,-0.1,0,-0.2,0,-0.3l0,-0.3l0,-0.1c0,-0.1,0,-0.3,0.1,-0.5c0.1,-0.9,0.5,-1.6,1.1,-2.2c0.6,-0.7,1.5,-1.2,2.4,-1.4c0.5,-0.1,1.1,-0.1,1.6,0c0.7,0.2,1.4,0.5,2,0.9c0,0.1,0,0.1,0.1,0c0.3,-0.2,0.5,-0.4,0.8,-0.6c0.2,-0.2,0.4,-0.3,0.6,-0.5Z" class="g8_21" />
<path d="M763,203l9,0" class="g9_21" />
<path d="M763,205l9,0" class="g9_21" />
<path d="M763,208l9,0" class="g9_21" />
<path d="M405.7,216.8l-3,3.4l3,3.5" class="g7_21" />
<path d="M401,708l0,2l0,2l-2,0l-2,0l0,302l2,0l2,0l0,2l0,2l371,0l0,-2l0,-2l3,0l2,0l0,-302l-2,0l-3,0l0,-2l0,-2Z" class="g4_21" />
<path d="M401.5,708.5l0,2l0,2l-2,0l-2,0l0,302l2,0l2,0l0,2l0,2l371,0l0,-2l0,-2l3,0l2,0l0,-302l-2,0l-3,0l0,-2l0,-2l-371,0Z" class="g5_21" />
<path d="M399,706l0,4l-5,0l0,34l385,0l0,-34l-4,0l0,-4Z" class="g6_21" />
<path d="M414.9,722.7c1.8,0,3.2,-1.4,3.2,-3.2c0,-1.8,-1.4,-3.2,-3.2,-3.2c-1.8,0,-3.2,1.4,-3.2,3.2c0,1.8,1.4,3.2,3.2,3.2Z" class="g2_21" />
<path d="M427.4,722.7c1.8,0,3.2,-1.4,3.2,-3.2c0,-1.8,-1.4,-3.2,-3.2,-3.2c-1.8,0,-3.2,1.4,-3.2,3.2c0,1.8,1.4,3.2,3.2,3.2Z" class="g2_21" />
<path d="M439.9,722.7c1.8,0,3.2,-1.4,3.2,-3.2c0,-1.8,-1.4,-3.2,-3.2,-3.2c-1.8,0,-3.2,1.4,-3.2,3.2c0,1.8,1.4,3.2,3.2,3.2Z" class="g2_21" />
<path d="M410.2,728.9c0,0,-2.2,0,-2.2,2.2l0,4.8c0,0,0,2.2,2.2,2.2l344.2,0c0,0,2.2,0,2.2,-2.2l0,-4.8c0,0,0,-2.2,-2.2,-2.2Z" class="g2_21" />
<path d="M495.3,730.1l-3,3.4l3,3.4" class="g7_21" />
<path d="M772.7,729.4l0,4.1l-0.1,0c-0.5,-0.1,-1,-0.2,-1.5,-0.3c-0.8,-0.1,-1.5,-0.2,-2.2,-0.4c-0.1,0,-0.2,0,-0.4,0c0.5,-0.4,1,-0.8,1.4,-1.2c-0.6,-0.5,-1.4,-0.6,-2.1,-0.4c-0.8,0.2,-1.3,0.6,-1.7,1.2c-0.4,0.6,-0.6,1.3,-0.5,2c0.1,0.7,0.5,1.3,1,1.7c0.7,0.6,1.5,0.8,2.4,0.6c0.9,-0.2,1.5,-0.7,1.9,-1.5c0,-0.1,0.1,-0.1,0.1,-0.1c0.5,0.1,1,0.2,1.5,0.4c-0.3,0.8,-0.8,1.5,-1.6,2.1c-0.7,0.4,-1.5,0.7,-2.3,0.7c-0.1,0,-0.1,0,-0.1,0.1l-0.2,0c-0.1,-0.1,-0.1,-0.1,-0.1,-0.1c-0.3,0,-0.6,0,-0.9,-0.1c-0.9,-0.2,-1.6,-0.7,-2.2,-1.4c-0.6,-0.7,-1,-1.5,-1.1,-2.4c0,-0.1,0,-0.2,0,-0.3l0,-0.3l0,-0.1c0,-0.2,0,-0.3,0.1,-0.5c0.1,-0.9,0.5,-1.6,1.1,-2.2c0.6,-0.8,1.5,-1.2,2.4,-1.4c0.5,-0.1,1.1,-0.1,1.6,0c0.7,0.2,1.4,0.5,2,0.9c0,0.1,0,0.1,0.1,0c0.3,-0.2,0.5,-0.4,0.8,-0.6c0.2,-0.2,0.4,-0.3,0.6,-0.5Z" class="g2_21" />
<path d="M772.7,729.4l0,4.1l-0.1,0c-0.5,-0.1,-1,-0.2,-1.5,-0.3c-0.8,-0.1,-1.5,-0.2,-2.2,-0.4c-0.1,0,-0.2,0,-0.4,0c0.5,-0.4,1,-0.8,1.4,-1.2c-0.6,-0.5,-1.4,-0.6,-2.1,-0.4c-0.8,0.2,-1.3,0.6,-1.7,1.2c-0.4,0.6,-0.6,1.3,-0.5,2c0.1,0.7,0.5,1.3,1,1.7c0.7,0.6,1.5,0.8,2.4,0.6c0.9,-0.2,1.5,-0.7,1.9,-1.5c0,-0.1,0.1,-0.1,0.1,-0.1c0.5,0.1,1,0.2,1.5,0.4c-0.3,0.8,-0.8,1.5,-1.6,2.1c-0.7,0.4,-1.5,0.7,-2.3,0.7c-0.1,0,-0.1,0,-0.1,0.1l-0.2,0c-0.1,-0.1,-0.1,-0.1,-0.1,-0.1c-0.3,0,-0.6,0,-0.9,-0.1c-0.9,-0.2,-1.6,-0.7,-2.2,-1.4c-0.6,-0.7,-1,-1.5,-1.1,-2.4c0,-0.1,0,-0.2,0,-0.3l0,-0.3l0,-0.1c0,-0.2,0,-0.3,0.1,-0.5c0.1,-0.9,0.5,-1.6,1.1,-2.2c0.6,-0.8,1.5,-1.2,2.4,-1.4c0.5,-0.1,1.1,-0.1,1.6,0c0.7,0.2,1.4,0.5,2,0.9c0,0.1,0,0.1,0.1,0c0.3,-0.2,0.5,-0.4,0.8,-0.6c0.2,-0.2,0.4,-0.3,0.6,-0.5Z" class="g8_21" />
<path d="M763,716l9,0" class="g9_21" />
<path d="M763,719l9,0" class="g9_21" />
<path d="M763,721l9,0" class="g9_21" />
<path d="M405.7,730.1l-3,3.4l3,3.4" class="g7_21" />
<path d="M1214,131l0,2l0,2l-2,0l-2,0l0,428l2,0l2,0l0,2l0,2l381,0l0,-2l0,-2l3,0l2,0l0,-428l-2,0l-3,0l0,-2l0,-2Z" class="g4_21" />
<path d="M1214.5,131.5l0,2l0,2l-2,0l-2,0l0,428l2,0l2,0l0,2l0,2l381,0l0,-2l0,-2l3,0l2,0l0,-428l-2,0l-3,0l0,-2l0,-2l-381,0Z" class="g5_21" />
<path d="M1212,128l0,5l-4,0l0,33l394,0l0,-33l-4,0l0,-5Z" class="g6_21" />
<path d="M1228.3,145.2c1.8,0,3.2,-1.4,3.2,-3.2c0,-1.8,-1.4,-3.2,-3.2,-3.2c-1.8,0,-3.2,1.4,-3.2,3.2c0,1.8,1.4,3.2,3.2,3.2Z" class="g2_21" />
<path d="M1240.8,145.2c1.8,0,3.2,-1.4,3.2,-3.2c0,-1.8,-1.4,-3.2,-3.2,-3.2c-1.8,0,-3.2,1.4,-3.2,3.2c0,1.8,1.4,3.2,3.2,3.2Z" class="g2_21" />
<path d="M1253.3,145.2c1.8,0,3.2,-1.4,3.2,-3.2c0,-1.8,-1.4,-3.2,-3.2,-3.2c-1.8,0,-3.2,1.4,-3.2,3.2c0,1.8,1.4,3.2,3.2,3.2Z" class="g2_21" />
<path d="M1223.9,151.4c0,0,-2.1,0,-2.1,2.2l0,4.8c0,0,0,2.2,2.1,2.2l352.8,0c0,0,2.2,0,2.2,-2.2l0,-4.8c0,0,0,-2.2,-2.2,-2.2Z" class="g2_21" />
<path d="M1308.7,152.6l-3,3.4l3,3.4" class="g7_21" />
<path d="M1594.8,151.9l0,4.1c-0.1,0,-0.1,0,-0.1,0c-0.5,-0.1,-1,-0.2,-1.6,-0.3c-0.7,-0.1,-1.4,-0.2,-2.1,-0.4c-0.1,0,-0.3,0,-0.4,0c0.5,-0.4,1,-0.8,1.4,-1.2c-0.7,-0.5,-1.4,-0.6,-2.2,-0.4c-0.7,0.2,-1.2,0.6,-1.7,1.2c-0.4,0.6,-0.5,1.3,-0.4,2c0.1,0.7,0.4,1.3,1,1.7c0.7,0.6,1.5,0.8,2.4,0.6c0.9,-0.2,1.5,-0.7,1.9,-1.5c0,-0.1,0,-0.1,0.1,-0.1c0.5,0.1,1,0.2,1.5,0.4c-0.3,0.8,-0.9,1.5,-1.6,2.1c-0.7,0.4,-1.5,0.7,-2.4,0.7l0,0.1l-0.2,0c-0.1,-0.1,-0.1,-0.1,-0.1,-0.1c-0.3,0,-0.6,0,-0.9,-0.1c-0.9,-0.2,-1.7,-0.7,-2.3,-1.4c-0.6,-0.7,-0.9,-1.5,-1,-2.4c0,-0.1,0,-0.2,0,-0.3l0,-0.3l0,-0.1c0,-0.2,0,-0.3,0,-0.5c0.2,-0.9,0.6,-1.6,1.2,-2.2c0.6,-0.8,1.4,-1.2,2.4,-1.4c0.5,-0.1,1,-0.1,1.6,0c0.7,0.2,1.4,0.5,1.9,0.9c0.1,0.1,0.1,0.1,0.2,0c0.2,-0.2,0.5,-0.4,0.8,-0.6c0.2,-0.2,0.4,-0.3,0.6,-0.5Z" class="g2_21" />
<path d="M1594.8,151.9l0,4.1c-0.1,0,-0.1,0,-0.1,0c-0.5,-0.1,-1,-0.2,-1.6,-0.3c-0.7,-0.1,-1.4,-0.2,-2.1,-0.4c-0.1,0,-0.3,0,-0.4,0c0.5,-0.4,1,-0.8,1.4,-1.2c-0.7,-0.5,-1.4,-0.6,-2.2,-0.4c-0.7,0.2,-1.2,0.6,-1.7,1.2c-0.4,0.6,-0.5,1.3,-0.4,2c0.1,0.7,0.4,1.3,1,1.7c0.7,0.6,1.5,0.8,2.4,0.6c0.9,-0.2,1.5,-0.7,1.9,-1.5c0,-0.1,0,-0.1,0.1,-0.1c0.5,0.1,1,0.2,1.5,0.4c-0.3,0.8,-0.9,1.5,-1.6,2.1c-0.7,0.4,-1.5,0.7,-2.4,0.7l0,0.1l-0.2,0c-0.1,-0.1,-0.1,-0.1,-0.1,-0.1c-0.3,0,-0.6,0,-0.9,-0.1c-0.9,-0.2,-1.7,-0.7,-2.3,-1.4c-0.6,-0.7,-0.9,-1.5,-1,-2.4c0,-0.1,0,-0.2,0,-0.3l0,-0.3l0,-0.1c0,-0.2,0,-0.3,0,-0.5c0.2,-0.9,0.6,-1.6,1.2,-2.2c0.6,-0.8,1.4,-1.2,2.4,-1.4c0.5,-0.1,1,-0.1,1.6,0c0.7,0.2,1.4,0.5,1.9,0.9c0.1,0.1,0.1,0.1,0.2,0c0.2,-0.2,0.5,-0.4,0.8,-0.6c0.2,-0.2,0.4,-0.3,0.6,-0.5Z" class="g8_21" />
<path d="M1585,139l9,0" class="g9_21" />
<path d="M1585,141l9,0" class="g9_21" />
<path d="M1585,143l9,0" class="g9_21" />
<path d="M1219.1,152.6l-3,3.4l3,3.4" class="g7_21" />
<path d="M424,245.6c0,0,-15.5,0,-15.5,15.5l0,9.2c0,0,0,15.5,15.5,15.5l327.2,0c0,0,15.5,0,15.5,-15.5l0,-9.2c0,0,0,-15.5,-15.5,-15.5Z" class="g10_21" />
<path d="M424,245.6c0,0,-15.5,0,-15.5,15.5l0,9.2c0,0,0,15.5,15.5,15.5l327.2,0c0,0,15.5,0,15.5,-15.5l0,-9.2c0,0,0,-15.5,-15.5,-15.5l-327.2,0Z" class="g11_21" />
<path d="M424,761.8c0,0,-15.5,0,-15.5,15.5l0,9.2c0,0,0,15.4,15.5,15.4l327.2,0c0,0,15.5,0,15.5,-15.4l0,-9.2c0,0,0,-15.5,-15.5,-15.5Z" class="g10_21" />
<path d="M424,761.8c0,0,-15.5,0,-15.5,15.5l0,9.2c0,0,0,15.4,15.5,15.4l327.2,0c0,0,15.5,0,15.5,-15.4l0,-9.2c0,0,0,-15.5,-15.5,-15.5l-327.2,0Z" class="g11_21" />
<path d="M1237.7,186.2c0,0,-15.8,0,-15.8,15.8l0,9.4c0,0,0,15.8,15.8,15.8l333.8,0c0,0,15.8,0,15.8,-15.8l0,-9.4c0,0,0,-15.8,-15.8,-15.8Z" class="g10_21" />
<path d="M1237.7,186.2c0,0,-15.8,0,-15.8,15.8l0,9.4c0,0,0,15.8,15.8,15.8l333.8,0c0,0,15.8,0,15.8,-15.8l0,-9.4c0,0,0,-15.8,-15.8,-15.8l-333.8,0Z" class="g11_21" />
<image x="1325" y="630" width="84" height="85" xlink:href="21/img/5.png" />
<text 
x="32" 
y="64" 
dx="0,-2.2,0" 
class="s1_21"
>11.</text>

<text 
x="853" 
y="64" 
dx="0,-2.4,0" 
class="s1_21"
>13.</text>

<text 
x="31" 
y="556" 
dx="0,-2.4,0" 
class="s1_21"
>12.</text>

<text 
x="81" 
y="62" 
dx="0,0,0,0,-1.8,0,0,-1.8" 
class="s2_21"
>nav ul {</text>

<text 
x="81" 
y="82" 
dx="0,0,0,0,0,0,0,0,0,0,0,0,0,0,0,0,0,-1.8,0,0,0,0" 
class="s2_21"
>list-style-type: none;</text>

<text 
x="81" 
y="103" 
dx="0,0,0,0,0,0,0,0,0,0,0,0,0,0,0,0,0,0,-1.8,0,0,0,0,0,0,0" 
class="s2_21"
>background-color: #B577B5;</text>

<text 
x="81" 
y="123" 
dx="0,0,0,0,0,0,0,0,-1.8,0,0,0,-1.8,0,0,0,0,0,-1.8,0,0,0,0,0,0,0" 
class="s2_21"
>border: 4px solid #111111;</text>

<text 
x="81" 
y="144" 
dx="0,0,0,0,0,0,0,0,0,0,0,0,0,0,0,-1.8,0,0,0,0" 
class="s2_21"
>border-radius: 10px;</text>

<text 
x="81" 
y="165" 
dx="0,0,0,0,0,0,0,0,0,0,0,0,0,-1.8,0,0,0,0,0,0,0,0,0,0" 
class="s2_21"
>font-family: sans-serif;</text>

<text 
x="81" 
y="185" 
dx="0,0,0,0,0,0,0,0,0,0,0,0,0,-1.8,0,0,0,0" 
class="s2_21"
>font-weight: bold;</text>

<text 
x="81" 
y="206" 
dx="0,0,0,0,0,0,0,0,0,-1.8,0,0,0,0" 
class="s2_21"
>padding: 16px;</text>

<text 
x="81" 
y="227" 
dx="0" 
class="s2_21"
>}</text>

<text 
x="81" 
y="247" 
dx="0,0,0,0,-1.8,0,0,-1.8,0,0,-1.8" 
class="s2_21"
>nav ul li {</text>

<text 
x="81" 
y="268" 
dx="0,0,0,0,0,0,0,0,0,-1.8,0,0,0,0,0,0" 
class="s2_21"
>display: inline;</text>

<text 
x="81" 
y="288" 
dx="0,0,0,0,0,0,0,0,0,0,0,0,0,0,-1.8,0,0,0,-1.8,0,0,0,0,0" 
class="s2_21"
>border-right: 2px solid </text>

<text 
x="81" 
y="309" 
dx="0,0,0,0,0,0,0,0" 
class="s2_21"
>#111111;</text>

<text 
x="81" 
y="330" 
dx="0,0,0,0,0,0,0,0,0,0,0,0,0,0,0,-1.8,0,0,0" 
class="s2_21"
>padding-right: 8px;</text>

<text 
x="81" 
y="350" 
dx="0,0,0,0,0,0,0,0,0,0,0,0,0,0,-1.8,0,0,0" 
class="s2_21"
>padding-left: 8px;</text>

<text 
x="81" 
y="371" 
dx="0" 
class="s2_21"
>}</text>

<text 
x="81" 
y="392" 
dx="0,0,0,0,-1.8,0,0,-1.8,0,0,0,0,0,0,0,0,0,0,0,0,0,-1.8" 
class="s2_21"
>nav ul li:last-child {</text>

<path d="M84.4,402.1l-1.2,0l0,10.6l1.2,0l0,-1.2c0.2,0.4,0.6,0.8,1,1c0.4,0.2,0.9,0.4,1.3,0.4c0.9,0,1.7,-0.4,2.2,-1.2c0.5,-0.8,0.8,-1.8,0.8,-3c0,-1.2,-0.2,-2.2,-0.7,-2.9c-0.6,-0.7,-1.3,-1.1,-2.2,-1.1c-0.4,0,-0.9,0.1,-1.4,0.3c-0.4,0.3,-0.7,0.5,-1,0.9l0,-3.8Zm2.1,3.6c0.6,0,1.1,0.3,1.5,0.8c0.3,0.6,0.5,1.3,0.5,2.2c0,0.9,-0.2,1.6,-0.6,2.2c-0.3,0.6,-0.8,0.9,-1.5,0.9c-0.4,0,-0.7,-0.1,-1.1,-0.4c-0.4,-0.3,-0.7,-0.7,-0.9,-1.1l0,-3.2c0.6,-0.9,1.3,-1.4,2.1,-1.4Z" class="g12_21" />
<path d="M92.8,405.8c-0.6,0.8,-0.9,1.7,-0.9,3c0,1.2,0.3,2.2,0.9,2.9c0.7,0.8,1.5,1.2,2.6,1.2c1,0,1.9,-0.4,2.5,-1.2c0.7,-0.7,1,-1.7,1,-2.9c0,-1.2,-0.3,-2.2,-1,-3c-0.6,-0.7,-1.5,-1.1,-2.5,-1.1c-1.1,0,-1.9,0.4,-2.6,1.1Zm0.9,5.2c-0.4,-0.6,-0.6,-1.3,-0.6,-2.2c0,-0.9,0.2,-1.7,0.6,-2.2c0.4,-0.6,1,-0.9,1.7,-0.9c0.7,0,1.3,0.3,1.7,0.9c0.4,0.6,0.6,1.3,0.6,2.2c0,0.8,-0.2,1.6,-0.6,2.2c-0.5,0.6,-1,0.9,-1.7,0.9c-0.7,0,-1.3,-0.3,-1.7,-0.9Z" class="g12_21" />
<path d="M106,404.7c-1,0,-1.8,0.6,-2.4,1.8l0,-1.6l-1.2,0l0,7.8l1.2,0l0,-5.1c0,0,0.1,-0.2,0.4,-0.6c0.2,-0.3,0.5,-0.6,0.9,-0.8c0.3,-0.2,0.6,-0.3,1,-0.3c0.4,0,0.8,0.1,1.3,0.3l0.5,-1.1c-0.6,-0.3,-1.1,-0.4,-1.7,-0.4Z" class="g12_21" />
<path d="M116.7,402.1l-1.2,0l0,3.8c-0.6,-0.8,-1.3,-1.2,-2.3,-1.2c-0.9,0,-1.6,0.4,-2.2,1.1c-0.5,0.8,-0.8,1.7,-0.8,2.9c0,1.2,0.3,2.2,0.8,3c0.5,0.8,1.2,1.2,2.1,1.2c0.5,0,1,-0.2,1.4,-0.4c0.5,-0.3,0.8,-0.6,1,-1l0,1.2l1.2,0l0,-10.6Zm-1.6,8.8c-0.2,0.3,-0.5,0.5,-0.8,0.7c-0.3,0.1,-0.6,0.2,-0.9,0.2c-0.6,0,-1.1,-0.3,-1.4,-0.9c-0.4,-0.5,-0.6,-1.3,-0.6,-2.2c0,-0.8,0.2,-1.6,0.6,-2.1c0.4,-0.6,0.9,-0.9,1.5,-0.9c0.8,0,1.5,0.5,2,1.4l0,3.2c0,0.1,-0.1,0.2,-0.4,0.6Z" class="g12_21" />
<path d="M126.1,408.4c0,-1.1,-0.3,-2,-0.9,-2.7c-0.6,-0.7,-1.3,-1,-2.2,-1c-1,0,-1.8,0.4,-2.5,1.1c-0.6,0.7,-0.9,1.7,-0.9,3c0,1.2,0.3,2.2,1,3c0.7,0.7,1.7,1.1,2.8,1.1c0.9,0,1.7,-0.2,2.4,-0.5l-0.2,-0.9c-0.7,0.2,-1.5,0.4,-2.2,0.4c-0.7,0,-1.3,-0.3,-1.8,-0.9c-0.5,-0.6,-0.8,-1.3,-0.8,-2.2l5.3,0l0,-0.4Zm-5.2,-0.5c0,-0.7,0.2,-1.2,0.6,-1.6c0.4,-0.4,0.9,-0.6,1.5,-0.6c0.5,0,0.9,0.2,1.3,0.6c0.4,0.5,0.6,1,0.6,1.6l-4,0Z" class="g12_21" />
<path d="M133.5,404.7c-1,0,-1.8,0.6,-2.4,1.8l0,-1.6l-1.2,0l0,7.8l1.2,0l0,-5.1c0,0,0.1,-0.2,0.4,-0.6c0.3,-0.3,0.6,-0.6,0.9,-0.8c0.3,-0.2,0.6,-0.3,1,-0.3c0.4,0,0.8,0.1,1.3,0.3l0.5,-1.1c-0.6,-0.3,-1.1,-0.4,-1.7,-0.4Z" class="g12_21" />
<path d="M143.5,407.5l-5,0l0,2l5,0l0,-2Z" class="g12_21" />
<path d="M151.8,404.7c-1,0,-1.8,0.6,-2.4,1.8l0,-1.6l-1.2,0l0,7.8l1.2,0l0,-5.1c0,0,0.1,-0.2,0.4,-0.6c0.3,-0.3,0.6,-0.6,0.9,-0.8c0.3,-0.2,0.7,-0.3,1,-0.3c0.4,0,0.8,0.1,1.4,0.3l0.4,-1.1c-0.5,-0.3,-1.1,-0.4,-1.7,-0.4Z" class="g12_21" />
<path d="M159.5,402.2c-0.1,0.1,-0.2,0.3,-0.2,0.6c0,0.2,0.1,0.4,0.2,0.5c0.2,0.2,0.4,0.3,0.6,0.3c0.2,0,0.4,-0.1,0.5,-0.3c0.2,-0.1,0.3,-0.3,0.3,-0.5c0,-0.3,-0.1,-0.5,-0.3,-0.6C160.5,402,160.3,402,160.1,402c-0.2,0,-0.4,0,-0.6,0.2Zm1.1,2.7l-3.4,0l0,1l2.3,0l0,6.8l1.1,0l0,-7.8Z" class="g12_21" />
<path d="M168.4,409.7c0.7,0,1.3,-0.2,1.8,-0.7c0.5,-0.5,0.8,-1.1,0.8,-1.8c0,-0.5,-0.1,-1,-0.4,-1.4l1.5,0l0,-1.1l-2.3,0.4c-0.4,-0.3,-0.9,-0.4,-1.4,-0.4c-0.8,0,-1.4,0.3,-1.9,0.7c-0.5,0.5,-0.8,1.1,-0.8,1.8c0,0.5,0.2,0.9,0.4,1.3c0.2,0.4,0.5,0.7,0.9,1c-0.9,0.5,-1.3,1,-1.3,1.5c0,0.5,0.3,0.9,1,1.2c-0.8,0.5,-1.2,1,-1.2,1.6c0,0.6,0.2,1,0.8,1.4c0.5,0.4,1.2,0.5,2.1,0.5c1.1,0,2,-0.2,2.8,-0.7c0.7,-0.6,1.1,-1.3,1.1,-2.1c0,-0.6,-0.1,-1,-0.5,-1.3c-0.3,-0.3,-0.8,-0.5,-1.4,-0.5l-2.7,0.1c-0.2,0,-0.5,-0.1,-0.6,-0.2c-0.2,-0.1,-0.3,-0.2,-0.3,-0.3c0,-0.3,0.4,-0.6,1.1,-1c0.1,0,0.3,0,0.5,0Zm-1.1,-1.3c-0.3,-0.3,-0.4,-0.7,-0.4,-1.2c0,-0.4,0.1,-0.8,0.4,-1.1c0.3,-0.3,0.6,-0.5,1.1,-0.5c0.4,0,0.8,0.2,1,0.5c0.3,0.2,0.4,0.6,0.4,1.1c0,0.5,-0.1,0.9,-0.4,1.2c-0.3,0.3,-0.6,0.4,-1,0.4c-0.5,0,-0.8,-0.1,-1.1,-0.4Zm-0.2,6.1c-0.4,-0.2,-0.5,-0.5,-0.5,-0.8c0,-0.2,0,-0.3,0.1,-0.5c0.2,-0.2,0.3,-0.4,0.6,-0.6c0.2,-0.2,0.4,-0.2,0.5,-0.2c0.2,0,0.5,-0.1,0.9,-0.1c0.6,0,1.1,0,1.3,0c0.8,0,1.2,0.2,1.2,0.8c0,0.5,-0.3,0.9,-0.8,1.2c-0.6,0.4,-1.2,0.5,-2,0.5c-0.5,0,-1,-0.1,-1.3,-0.3Z" class="g12_21" />
<path d="M180.9,407.3c0,-1.7,-0.7,-2.6,-2.2,-2.6c-0.9,0,-1.8,0.4,-2.6,1.3l0,-3.9l-1.2,0l0,10.6l1.2,0l0,-5.7c0.8,-0.8,1.6,-1.3,2.3,-1.3c0.4,0,0.8,0.2,1,0.5c0.2,0.3,0.3,0.8,0.3,1.5l0,5l1.2,0l0,-5.4Z" class="g12_21" />
<path d="M189.9,411.4c-0.6,0.3,-1.2,0.4,-1.8,0.4c-0.4,0,-0.7,-0.1,-0.9,-0.4c-0.2,-0.2,-0.3,-0.6,-0.3,-1.1l0,-4.4l2.6,0l0,-1l-2.6,0l0,-2.1l-1.1,0l0,2.1l-1.5,0l0,1l1.5,0l0,4.8c0,1.4,0.7,2.2,2,2.2c0.8,0,1.6,-0.2,2.4,-0.6l-0.3,-0.9Z" class="g12_21" />
<path d="M195.5,405c-0.1,0.2,-0.2,0.4,-0.2,0.7c0,0.2,0.1,0.4,0.2,0.6c0.2,0.2,0.4,0.3,0.7,0.3c0.2,0,0.4,-0.1,0.6,-0.3c0.2,-0.2,0.3,-0.4,0.3,-0.6c0,-0.3,-0.1,-0.5,-0.3,-0.7c-0.2,-0.1,-0.4,-0.2,-0.6,-0.2c-0.3,0,-0.5,0.1,-0.7,0.2Zm0,6.3c-0.1,0.1,-0.2,0.4,-0.2,0.6c0,0.3,0.1,0.5,0.2,0.6c0.2,0.2,0.4,0.3,0.7,0.3c0.2,0,0.4,-0.1,0.6,-0.3c0.2,-0.1,0.3,-0.3,0.3,-0.6c0,-0.2,-0.1,-0.5,-0.3,-0.6c-0.2,-0.2,-0.4,-0.3,-0.6,-0.3c-0.3,0,-0.5,0.1,-0.7,0.3Z" class="g12_21" />
<path d="M215.7,407.3c0,-1.7,-0.7,-2.6,-2.1,-2.6c-1,0,-1.8,0.4,-2.7,1.3l0,-1.1l-1.1,0l0,7.8l1.1,0l0,-5.7c0.8,-0.8,1.6,-1.3,2.3,-1.3c0.5,0,0.8,0.2,1.1,0.5c0.2,0.3,0.3,0.8,0.3,1.5l0,5l1.1,0l0,-5.4Z" class="g12_21" />
<path d="M219.3,405.8c-0.6,0.8,-0.9,1.7,-0.9,3c0,1.2,0.3,2.2,0.9,2.9c0.7,0.8,1.5,1.2,2.6,1.2c1.1,0,1.9,-0.4,2.6,-1.2c0.6,-0.7,0.9,-1.7,0.9,-2.9c0,-1.2,-0.3,-2.2,-0.9,-3c-0.7,-0.7,-1.5,-1.1,-2.6,-1.1c-1.1,0,-1.9,0.4,-2.6,1.1Zm0.9,5.2c-0.4,-0.6,-0.6,-1.3,-0.6,-2.2c0,-0.9,0.2,-1.7,0.6,-2.2c0.4,-0.6,1,-0.9,1.7,-0.9c0.7,0,1.3,0.3,1.7,0.9c0.4,0.6,0.6,1.3,0.6,2.2c0,0.8,-0.2,1.6,-0.6,2.2c-0.4,0.6,-1,0.9,-1.7,0.9c-0.7,0,-1.3,-0.3,-1.7,-0.9Z" class="g12_21" />
<path d="M234.1,407.3c0,-1.7,-0.7,-2.6,-2.2,-2.6c-0.9,0,-1.8,0.4,-2.6,1.3l0,-1.1l-1.2,0l0,7.8l1.2,0l0,-5.7c0.8,-0.8,1.5,-1.3,2.2,-1.3c0.5,0,0.9,0.2,1.1,0.5c0.2,0.3,0.3,0.8,0.3,1.5l0,5l1.2,0l0,-5.4Z" class="g12_21" />
<path d="M243.5,408.4c0,-1.1,-0.3,-2,-0.9,-2.7c-0.6,-0.7,-1.4,-1,-2.3,-1c-1,0,-1.8,0.4,-2.4,1.1c-0.7,0.7,-1,1.7,-1,3c0,1.2,0.4,2.2,1.1,3c0.7,0.7,1.6,1.1,2.8,1.1c0.9,0,1.7,-0.2,2.4,-0.5L243,411.5c-0.8,0.2,-1.5,0.4,-2.2,0.4c-0.8,0,-1.4,-0.3,-1.9,-0.9c-0.5,-0.6,-0.8,-1.3,-0.8,-2.2l5.4,0l0,-0.4Zm-5.3,-0.5c0.1,-0.7,0.3,-1.2,0.7,-1.6c0.4,-0.4,0.9,-0.6,1.5,-0.6c0.4,0,0.9,0.2,1.2,0.6c0.4,0.5,0.6,1,0.6,1.6l-4,0Z" class="g12_21" />
<path d="M248.8,405c-0.2,0.2,-0.3,0.4,-0.3,0.7c0,0.2,0.1,0.4,0.3,0.6c0.1,0.2,0.4,0.3,0.6,0.3c0.3,0,0.5,-0.1,0.6,-0.3c0.2,-0.2,0.3,-0.4,0.3,-0.6c0,-0.3,-0.1,-0.5,-0.3,-0.7c-0.1,-0.1,-0.3,-0.2,-0.6,-0.2c-0.2,0,-0.5,0.1,-0.6,0.2Zm-0.3,8.9l0.3,0.6c1.1,-0.6,1.6,-1.4,1.6,-2.3c0,-0.3,-0.1,-0.6,-0.3,-0.8c-0.2,-0.3,-0.4,-0.4,-0.7,-0.4c-0.3,0,-0.5,0.1,-0.6,0.3c-0.2,0.2,-0.3,0.4,-0.3,0.6c0,0.3,0.1,0.5,0.3,0.6c0.1,0.2,0.4,0.3,0.6,0.4c0,0.4,-0.3,0.7,-0.9,1Z" class="g12_21" />
<text 
x="81" 
y="412" 
dx="0,0,0,0,0,0,0,0,0,0,0,0,0,0,-1.8,0,0,0,0" 
class="s2_21"
>border-right: none;</text>

<text 
x="81" 
y="433" 
dx="0" 
class="s2_21"
>}</text>

<text 
x="81" 
y="453" 
dx="0,0,0,0,-1.8,0,0,-1.8,0,0,-1.8,0,-1.8" 
class="s2_21"
>nav ul li a {</text>

<text 
x="81" 
y="474" 
dx="0" 
class="s2_21"
>}</text>

<text 
x="903" 
y="62" 
dx="0,0,0,0,-1.8,0,0,-1.8" 
class="s2_21"
>nav ul {</text>

<text 
x="903" 
y="82" 
dx="0,0,0,0,0,0,0,0,0,0,0,0,0,0,0,0,0,-1.8,0,0,0,0" 
class="s2_21"
>list-style-type: none;</text>

<text 
x="903" 
y="103" 
dx="0,0,0,0,0,0,0,0,0,0,0,0,0,0,0,0,0,0,-1.8,0,0,0,0,0,0,0" 
class="s2_21"
>background-color: #B577B5;</text>

<text 
x="903" 
y="123" 
dx="0,0,0,0,0,0,0,0,-1.8,0,0,0,-1.8,0,0,0,0,0,-1.8,0,0,0,0,0,0,0" 
class="s2_21"
>border: 4px solid #111111;</text>

<text 
x="903" 
y="144" 
dx="0,0,0,0,0,0,0,0,0,0,0,0,0,0,0,-1.8,0,0,0,0" 
class="s2_21"
>border-radius: 10px;</text>

<text 
x="903" 
y="165" 
dx="0,0,0,0,0,0,0,0,0,0,0,0,0,-1.8,0,0,0,0,0,0,0,0,0,0" 
class="s2_21"
>font-family: sans-serif;</text>

<text 
x="903" 
y="185" 
dx="0,0,0,0,0,0,0,0,0,0,0,0,0,-1.8,0,0,0,0" 
class="s2_21"
>font-weight: bold;</text>

<text 
x="903" 
y="206" 
dx="0,0,0,0,0,0,0,0,0,-1.8,0,0,0,0" 
class="s2_21"
>padding: 16px;</text>

<text 
x="903" 
y="227" 
dx="0" 
class="s2_21"
>}</text>

<text 
x="903" 
y="247" 
dx="0,0,0,0,-1.8,0,0,-1.8,0,0,-1.8" 
class="s2_21"
>nav ul li {</text>

<text 
x="903" 
y="268" 
dx="0,0,0,0,0,0,0,0,0,-1.8,0,0,0,0,0,0" 
class="s2_21"
>display: inline;</text>

<text 
x="903" 
y="288" 
dx="0,0,0,0,0,0,0,0,0,0,0,0,0,0,-1.8,0,0,0,-1.8,0,0,0,0,0" 
class="s2_21"
>border-right: 2px solid </text>

<text 
x="903" 
y="309" 
dx="0,0,0,0,0,0,0,0" 
class="s2_21"
>#111111;</text>

<text 
x="903" 
y="330" 
dx="0,0,0,0,0,0,0,0,0,0,0,0,0,0,0,-1.8,0,0,0" 
class="s2_21"
>padding-right: 8px;</text>

<text 
x="903" 
y="350" 
dx="0,0,0,0,0,0,0,0,0,0,0,0,0,0,-1.8,0,0,0" 
class="s2_21"
>padding-left: 8px;</text>

<text 
x="903" 
y="371" 
dx="0" 
class="s2_21"
>}</text>

<text 
x="903" 
y="392" 
dx="0,0,0,0,-1.8,0,0,-1.8,0,0,0,0,0,0,0,0,0,0,0,0,0,-1.8" 
class="s2_21"
>nav ul li:last-child {</text>

<text 
x="903" 
y="412" 
dx="0,0,0,0,0,0,0,0,0,0,0,0,0,0,-1.8,0,0,0,0" 
class="s2_21"
>border-right: none;</text>

<text 
x="903" 
y="433" 
dx="0" 
class="s2_21"
>}</text>

<text 
x="903" 
y="453" 
dx="0,0,0,0,-1.8,0,0,-1.8,0,0,-1.8,0,-1.8" 
class="s2_21"
>nav ul li a {</text>

<text 
x="903" 
y="474" 
dx="0,0,0,0,0,0,0,0,0,0,0,0,0,0,0,0,0,0,0,0,0" 
class="s2_21"
>text-decoration:none;</text>

<path d="M911,494c-0.7,0.2,-1.4,0.4,-2.1,0.4c-0.8,0,-1.5,-0.3,-2,-0.9c-0.5,-0.6,-0.7,-1.3,-0.7,-2.2c0,-1,0.2,-1.7,0.7,-2.3c0.5,-0.5,1.2,-0.8,2,-0.8c0.6,0,1.2,0.1,1.9,0.4l0.3,-1c-0.7,-0.3,-1.4,-0.4,-2.2,-0.4c-1.2,0,-2.1,0.4,-2.9,1.1c-0.7,0.8,-1.1,1.8,-1.1,3c0,1.2,0.4,2.2,1.1,3c0.7,0.7,1.7,1.1,2.9,1.1c0.9,0,1.6,-0.2,2.3,-0.5L911,494Z" class="g12_21" />
<path d="M914.8,488.3c-0.6,0.8,-0.9,1.7,-0.9,3c0,1.2,0.3,2.2,0.9,2.9c0.6,0.8,1.5,1.2,2.6,1.2c1,0,1.9,-0.4,2.5,-1.2c0.6,-0.7,1,-1.7,1,-2.9c0,-1.2,-0.4,-2.2,-1,-3c-0.6,-0.7,-1.5,-1.1,-2.5,-1.1c-1.1,0,-2,0.4,-2.6,1.1Zm0.9,5.2c-0.4,-0.6,-0.6,-1.3,-0.6,-2.2c0,-0.9,0.2,-1.7,0.6,-2.2c0.4,-0.6,0.9,-0.9,1.7,-0.9c0.7,0,1.2,0.3,1.6,0.9c0.4,0.6,0.6,1.3,0.6,2.2c0,0.8,-0.2,1.6,-0.6,2.2c-0.4,0.6,-0.9,0.9,-1.6,0.9c-0.7,0,-1.3,-0.3,-1.7,-0.9Z" class="g12_21" />
<path d="M928.5,494.5l-2,0l0,-10l-3,0l0,1l2,0l0,10l3,0l0,-1Z" class="g12_21" />
<path d="M933.1,488.3c-0.6,0.8,-0.9,1.7,-0.9,3c0,1.2,0.3,2.2,0.9,2.9c0.7,0.8,1.5,1.2,2.6,1.2c1.1,0,1.9,-0.4,2.6,-1.2c0.6,-0.7,0.9,-1.7,0.9,-2.9c0,-1.2,-0.3,-2.2,-0.9,-3c-0.7,-0.7,-1.5,-1.1,-2.6,-1.1c-1.1,0,-1.9,0.4,-2.6,1.1Zm0.9,5.2c-0.4,-0.6,-0.6,-1.3,-0.6,-2.2c0,-0.9,0.2,-1.7,0.6,-2.2c0.4,-0.6,1,-0.9,1.7,-0.9c0.7,0,1.3,0.3,1.7,0.9c0.4,0.6,0.6,1.3,0.6,2.2c0,0.8,-0.2,1.6,-0.6,2.2c-0.4,0.6,-1,0.9,-1.7,0.9c-0.7,0,-1.3,-0.3,-1.7,-0.9Z" class="g12_21" />
<path d="M946.3,487.2c-1,0,-1.8,0.6,-2.4,1.8l0,-1.6l-1.2,0l0,7.8l1.2,0l0,-5.1c0,0,0.1,-0.2,0.4,-0.6c0.3,-0.3,0.6,-0.6,0.9,-0.8c0.3,-0.2,0.7,-0.3,1,-0.3c0.4,0,0.8,0.1,1.3,0.3l0.5,-1.1c-0.6,-0.3,-1.1,-0.4,-1.7,-0.4Z" class="g12_21" />
<path d="M953.3,487.5c-0.1,0.2,-0.2,0.4,-0.2,0.7c0,0.2,0.1,0.4,0.2,0.6c0.2,0.2,0.4,0.3,0.7,0.3c0.2,0,0.4,-0.1,0.6,-0.3c0.2,-0.2,0.3,-0.4,0.3,-0.6c0,-0.3,-0.1,-0.5,-0.3,-0.7c-0.2,-0.1,-0.4,-0.2,-0.6,-0.2c-0.3,0,-0.5,0.1,-0.7,0.2Zm0,6.3c-0.1,0.1,-0.2,0.4,-0.2,0.6c0,0.3,0.1,0.5,0.2,0.6c0.2,0.2,0.4,0.3,0.7,0.3c0.2,0,0.4,-0.1,0.6,-0.3c0.2,-0.1,0.3,-0.3,0.3,-0.6c0,-0.2,-0.1,-0.5,-0.3,-0.6c-0.2,-0.2,-0.4,-0.3,-0.6,-0.3c-0.3,0,-0.5,0.1,-0.7,0.3Z" class="g12_21" />
<path d="M967.2,491.2l-2.2,0l0.6,-2.7l1.6,0l0,-0.9l-1.4,0l0.6,-3l-1,0l-0.7,3l-2,0l0.7,-3l-1.1,0l-0.6,3l-2.4,0l0,0.9l2.2,0l-0.6,2.7l-1.6,0l0,1l1.4,0l-0.6,3l1,0l0.7,-3l2,0l-0.7,3l1.1,0l0.6,-3l2.4,0l0,-1Zm-3.2,0l-2,0l0.5,-2.7l2,0l-0.5,2.7Z" class="g12_21" />
<path d="M975.4,494.1l-2.1,0l0,-9.5l-1,0l-2.3,1.2l0,1.2l2.1,-1.1l0,8.2l-2.2,0l0,1.1l5.5,0l0,-1.1Z" class="g12_21" />
<path d="M984.6,494.1l-2.1,0l0,-9.5l-1.1,0l-2.3,1.2l0,1.2l2.1,-1.1l0,8.2l-2.2,0l0,1.1l5.6,0l0,-1.1Z" class="g12_21" />
<path d="M993.7,494.1l-2.1,0l0,-9.5l-1,0l-2.3,1.2l0,1.2l2.1,-1.1l0,8.2l-2.2,0l0,1.1l5.5,0l0,-1.1Z" class="g12_21" />
<path d="M1002.9,494.1l-2.1,0l0,-9.5l-1,0l-2.3,1.2l0,1.2l2.1,-1.1l0,8.2l-2.2,0l0,1.1l5.5,0l0,-1.1Z" class="g12_21" />
<path d="M1012.1,494.1l-2.1,0l0,-9.5l-1.1,0l-2.2,1.2l0,1.2l2.1,-1.1l0,8.2l-2.3,0l0,1.1l5.6,0l0,-1.1Z" class="g12_21" />
<path d="M1021.2,494.1l-2.1,0l0,-9.5l-1,0l-2.3,1.2l0,1.2l2.1,-1.1l0,8.2l-2.2,0l0,1.1l5.5,0l0,-1.1Z" class="g12_21" />
<path d="M1026.8,487.5c-0.2,0.2,-0.3,0.4,-0.3,0.7c0,0.2,0.1,0.4,0.3,0.6c0.1,0.2,0.3,0.3,0.6,0.3c0.2,0,0.4,-0.1,0.6,-0.3c0.2,-0.2,0.3,-0.4,0.3,-0.6c0,-0.3,-0.1,-0.5,-0.3,-0.7c-0.2,-0.1,-0.4,-0.2,-0.6,-0.2c-0.3,0,-0.5,0.1,-0.6,0.2Zm-0.3,8.9l0.3,0.6c1.1,-0.6,1.6,-1.4,1.6,-2.3c0,-0.3,-0.1,-0.6,-0.3,-0.8c-0.2,-0.3,-0.5,-0.4,-0.7,-0.4c-0.3,0,-0.5,0.1,-0.7,0.3c-0.1,0.2,-0.2,0.4,-0.2,0.6c0,0.3,0.1,0.5,0.3,0.6c0.1,0.2,0.3,0.3,0.6,0.4c0,0.4,-0.3,0.7,-0.9,1Z" class="g12_21" />
<text 
x="903" 
y="495" 
dx="0,0,0,0,0,0,0,0,0,0,0,0,0,0" 
class="s2_21"
>color:#111111;</text>

<text 
x="903" 
y="515" 
dx="0" 
class="s2_21"
>}</text>

<text 
x="81" 
y="558" 
dx="0,0,0,0,-1.8,0,0,-1.8" 
class="s2_21"
>nav ul {</text>

<text 
x="81" 
y="579" 
dx="0,0,0,0,0,0,0,0,0,0,0,0,0,0,0,0,0,-1.8,0,0,0,0" 
class="s2_21"
>list-style-type: none;</text>

<text 
x="81" 
y="600" 
dx="0,0,0,0,0,0,0,0,0,0,0,0,0,0,0,0,0,0,-1.8,0,0,0,0,0,0,0" 
class="s2_21"
>background-color: #B577B5;</text>

<text 
x="81" 
y="620" 
dx="0,0,0,0,0,0,0,0,-1.8,0,0,0,-1.8,0,0,0,0,0,-1.8,0,0,0,0,0,0,0" 
class="s2_21"
>border: 4px solid #111111;</text>

<text 
x="81" 
y="641" 
dx="0,0,0,0,0,0,0,0,0,0,0,0,0,0,0,-1.8,0,0,0,0" 
class="s2_21"
>border-radius: 10px;</text>

<text 
x="81" 
y="662" 
dx="0,0,0,0,0,0,0,0,0,0,0,0,0,-1.8,0,0,0,0,0,0,0,0,0,0" 
class="s2_21"
>font-family: sans-serif;</text>

<text 
x="81" 
y="682" 
dx="0,0,0,0,0,0,0,0,0,0,0,0,0,-1.8,0,0,0,0" 
class="s2_21"
>font-weight: bold;</text>

<text 
x="81" 
y="703" 
dx="0,0,0,0,0,0,0,0,0,-1.8,0,0,0,0" 
class="s2_21"
>padding: 16px;</text>

<text 
x="81" 
y="723" 
dx="0" 
class="s2_21"
>}</text>

<text 
x="81" 
y="744" 
dx="0,0,0,0,-1.8,0,0,-1.8,0,0,-1.8" 
class="s2_21"
>nav ul li {</text>

<text 
x="81" 
y="765" 
dx="0,0,0,0,0,0,0,0,0,-1.8,0,0,0,0,0,0" 
class="s2_21"
>display: inline;</text>

<text 
x="81" 
y="785" 
dx="0,0,0,0,0,0,0,0,0,0,0,0,0,0,-1.9,0,0,0,-1.9,0,0,0,0,0,-1.9,0,0,0,0,0,0,0" 
class="s2_21"
>border-right: 2px solid #111111;</text>

<text 
x="81" 
y="806" 
dx="0,0,0,0,0,0,0,0,0,0,0,0,0,0,0,-1.8,0,0,0" 
class="s2_21"
>padding-right: 8px;</text>

<text 
x="81" 
y="827" 
dx="0,0,0,0,0,0,0,0,0,0,0,0,0,0,-1.8,0,0,0" 
class="s2_21"
>padding-left: 8px;</text>

<text 
x="81" 
y="847" 
dx="0" 
class="s2_21"
>}</text>

<text 
x="81" 
y="868" 
dx="0,0,0,0,-1.8,0,0,-1.8,0,0,0,0,0,0,0,0,0,0,0,0,0,-1.8" 
class="s2_21"
>nav ul li:last-child {</text>

<text 
x="81" 
y="888" 
dx="0,0,0,0,0,0,0,0,0,0,0,0,0,0,-1.8,0,0,0,0" 
class="s2_21"
>border-right: none;</text>

<text 
x="81" 
y="909" 
dx="0" 
class="s2_21"
>}</text>

<text 
x="81" 
y="930" 
dx="0,0,0,0,-1.8,0,0,-1.8,0,0,-1.8,0,-1.8" 
class="s2_21"
>nav ul li a {</text>

<path d="M89.4,949.6c-0.6,0.2,-1.3,0.4,-1.9,0.4c-0.4,0,-0.6,-0.1,-0.8,-0.4c-0.3,-0.3,-0.4,-0.6,-0.4,-1.1l0,-4.5l2.7,0l0,-1l-2.7,0l0,-2.1l-1.1,0l0,2.1l-1.5,0l0,1l1.5,0l0,4.8c0,1.5,0.7,2.2,2.1,2.2c0.7,0,1.5,-0.2,2.3,-0.5l-0.2,-0.9Z" class="g12_21" />
<path d="M98.9,946.6c0,-1.1,-0.3,-2,-0.9,-2.7c-0.6,-0.7,-1.3,-1.1,-2.2,-1.1c-1,0,-1.9,0.4,-2.5,1.1c-0.6,0.8,-0.9,1.8,-0.9,3c0,1.3,0.3,2.3,1,3c0.7,0.7,1.7,1.1,2.8,1.1c0.9,0,1.7,-0.1,2.4,-0.5l-0.2,-0.9c-0.7,0.3,-1.5,0.4,-2.2,0.4c-0.7,0,-1.3,-0.3,-1.9,-0.9c-0.5,-0.5,-0.7,-1.3,-0.7,-2.1l5.3,0l0,-0.4ZM93.7,946c0,-0.6,0.2,-1.1,0.6,-1.5c0.4,-0.4,0.9,-0.6,1.5,-0.6c0.5,0,0.9,0.2,1.3,0.6c0.4,0.4,0.5,0.9,0.5,1.5l-3.9,0Z" class="g12_21" />
<path d="M105.4,946.9l2.7,-3.9l-1.2,0l-2.1,3.1L102.7,943l-1.4,0l2.8,3.9l-2.8,3.9l1.3,0l2.1,-3l2.1,3l1.3,0l-2.7,-3.9Z" class="g12_21" />
<path d="M116.9,949.6c-0.6,0.2,-1.3,0.4,-1.9,0.4c-0.4,0,-0.6,-0.1,-0.8,-0.4c-0.3,-0.3,-0.4,-0.6,-0.4,-1.1l0,-4.5l2.7,0l0,-1l-2.7,0l0,-2.1l-1.1,0l0,2.1l-1.5,0l0,1l1.5,0l0,4.8c0,1.5,0.7,2.2,2.1,2.2c0.7,0,1.5,-0.2,2.3,-0.5l-0.2,-0.9Z" class="g12_21" />
<path d="M125.5,946.5l-5,0l0,1l5,0l0,-1Z" class="g12_21" />
<path d="M135.3,940.3l-1.1,0l0,3.7c-0.6,-0.8,-1.4,-1.2,-2.4,-1.2c-0.9,0,-1.6,0.4,-2.1,1.2c-0.6,0.7,-0.9,1.7,-0.9,2.8c0,1.2,0.3,2.2,0.8,3c0.5,0.8,1.2,1.2,2.1,1.2c0.5,0,1,-0.1,1.4,-0.4c0.5,-0.2,0.8,-0.5,1.1,-0.9l0,1.1l1.1,0l0,-10.5Zm-1.5,8.7c-0.3,0.3,-0.6,0.6,-0.9,0.7c-0.3,0.2,-0.6,0.3,-0.9,0.3c-0.6,0,-1.1,-0.3,-1.4,-0.9c-0.4,-0.6,-0.5,-1.3,-0.5,-2.2c0,-0.9,0.2,-1.6,0.5,-2.2c0.4,-0.6,0.9,-0.8,1.5,-0.8c0.8,0,1.5,0.4,2.1,1.3l0,3.2c0,0.1,-0.2,0.3,-0.4,0.6Z" class="g12_21" />
<path d="M144.8,946.6c0,-1.1,-0.3,-2,-0.9,-2.7c-0.6,-0.7,-1.4,-1.1,-2.3,-1.1c-1,0,-1.8,0.4,-2.4,1.1c-0.7,0.8,-1,1.8,-1,3c0,1.3,0.4,2.3,1.1,3c0.7,0.7,1.6,1.1,2.7,1.1c1,0,1.8,-0.1,2.5,-0.5l-0.3,-0.9c-0.7,0.3,-1.4,0.4,-2.1,0.4c-0.8,0,-1.4,-0.3,-1.9,-0.9c-0.5,-0.5,-0.8,-1.3,-0.8,-2.1l5.4,0l0,-0.4ZM139.5,946c0,-0.6,0.3,-1.1,0.7,-1.5c0.4,-0.4,0.9,-0.6,1.5,-0.6c0.4,0,0.8,0.2,1.2,0.6c0.4,0.4,0.6,0.9,0.6,1.5l-4,0Z" class="g12_21" />
<path d="M153.5,949.6c-0.7,0.3,-1.4,0.4,-2.1,0.4c-0.8,0,-1.5,-0.3,-2,-0.9c-0.5,-0.6,-0.8,-1.3,-0.8,-2.2c0,-0.9,0.3,-1.7,0.8,-2.2c0.5,-0.6,1.2,-0.8,2,-0.8c0.6,0,1.2,0.1,1.9,0.3l0.3,-0.9c-0.7,-0.3,-1.4,-0.5,-2.2,-0.5c-1.2,0,-2.2,0.4,-2.9,1.2c-0.7,0.7,-1.1,1.7,-1.1,2.9c0,1.3,0.4,2.3,1.1,3c0.7,0.7,1.7,1.1,2.9,1.1c0.8,0,1.6,-0.1,2.3,-0.5l-0.2,-0.9Z" class="g12_21" />
<path d="M157.3,944c-0.6,0.7,-1,1.7,-1,2.9c0,1.2,0.4,2.2,1,3c0.6,0.7,1.5,1.1,2.5,1.1c1.1,0,2,-0.4,2.6,-1.1c0.6,-0.8,0.9,-1.8,0.9,-3c0,-1.2,-0.3,-2.2,-0.9,-2.9c-0.6,-0.8,-1.5,-1.2,-2.6,-1.2c-1,0,-1.9,0.4,-2.5,1.2Zm0.9,5.1c-0.4,-0.6,-0.6,-1.3,-0.6,-2.2c0,-0.9,0.2,-1.6,0.6,-2.2c0.4,-0.6,0.9,-0.8,1.6,-0.8c0.8,0,1.3,0.2,1.7,0.8c0.4,0.6,0.6,1.3,0.6,2.2c0,0.9,-0.2,1.6,-0.6,2.2c-0.4,0.6,-0.9,0.9,-1.7,0.9c-0.7,0,-1.2,-0.3,-1.6,-0.9Z" class="g12_21" />
<path d="M170.4,942.8c-0.9,0,-1.8,0.6,-2.4,1.8l0,-1.6l-1.1,0l0,7.8l1.1,0l0,-5c0,-0.1,0.2,-0.3,0.4,-0.6c0.3,-0.4,0.6,-0.7,0.9,-0.9c0.4,-0.2,0.7,-0.3,1.1,-0.3c0.3,0,0.8,0.1,1.3,0.4l0.4,-1.2c-0.5,-0.2,-1.1,-0.4,-1.7,-0.4Z" class="g12_21" />
<path d="M181.2,949l0,-3.3c0,-1.9,-0.9,-2.8,-2.7,-2.8c-0.9,0,-1.9,0.2,-2.9,0.8l0.3,0.8c0.3,-0.2,0.7,-0.3,1.2,-0.5c0.4,-0.1,0.8,-0.1,1.1,-0.1c1.2,0,1.8,0.6,1.8,2l0,0.3l-1.3,0.1c-0.6,0.1,-1.1,0.2,-1.5,0.3c-0.4,0.1,-0.8,0.3,-1.1,0.5c-0.3,0.2,-0.5,0.4,-0.7,0.7c-0.1,0.3,-0.2,0.6,-0.2,1c0,0.7,0.2,1.2,0.7,1.6c0.4,0.4,0.9,0.6,1.5,0.6c1.1,0,2,-0.5,2.7,-1.4c0,0.5,0,0.9,0.1,1.2l1.2,0c-0.1,-0.5,-0.2,-1.1,-0.2,-1.8Zm-2.2,0.5c-0.4,0.3,-0.9,0.4,-1.3,0.4c-0.3,0,-0.7,-0.1,-0.9,-0.3c-0.2,-0.2,-0.4,-0.5,-0.4,-0.9c0,-0.4,0.2,-0.7,0.5,-0.9c0.2,-0.2,0.6,-0.4,1,-0.4c0.4,-0.1,1.1,-0.2,2.1,-0.3l0,1.4c-0.3,0.4,-0.6,0.8,-1,1Z" class="g12_21" />
<path d="M190.2,949.6c-0.6,0.2,-1.2,0.4,-1.8,0.4c-0.4,0,-0.7,-0.1,-0.9,-0.4c-0.2,-0.3,-0.3,-0.6,-0.3,-1.1l0,-4.5l2.6,0l0,-1l-2.6,0l0,-2.1l-1.1,0l0,2.1l-1.5,0l0,1l1.5,0l0,4.8c0,1.5,0.6,2.2,2,2.2c0.8,0,1.6,-0.2,2.3,-0.5l-0.2,-0.9Z" class="g12_21" />
<path d="M196.5,940.3c-0.2,0.2,-0.2,0.4,-0.2,0.6c0,0.2,0,0.4,0.2,0.6c0.1,0.1,0.3,0.2,0.5,0.2c0.3,0,0.4,-0.1,0.6,-0.2c0.1,-0.2,0.2,-0.4,0.2,-0.6c0,-0.2,-0.1,-0.4,-0.2,-0.6c-0.2,-0.1,-0.4,-0.2,-0.6,-0.2c-0.2,0,-0.4,0.1,-0.5,0.2Zm1.1,2.7l-3.5,0l0,1l2.3,0l0,6.8l1.2,0l0,-7.8Z" class="g12_21" />
<path d="M203.1,944c-0.6,0.7,-0.9,1.7,-0.9,2.9c0,1.2,0.3,2.2,0.9,3c0.7,0.7,1.5,1.1,2.6,1.1c1.1,0,1.9,-0.4,2.5,-1.1c0.7,-0.8,1,-1.8,1,-3c0,-1.2,-0.3,-2.2,-1,-2.9c-0.6,-0.8,-1.4,-1.2,-2.5,-1.2c-1.1,0,-1.9,0.4,-2.6,1.2Zm0.9,5.1c-0.4,-0.6,-0.6,-1.3,-0.6,-2.2c0,-0.9,0.2,-1.6,0.6,-2.2c0.4,-0.6,1,-0.8,1.7,-0.8c0.7,0,1.3,0.2,1.7,0.8c0.4,0.6,0.6,1.3,0.6,2.2c0,0.9,-0.2,1.6,-0.6,2.2c-0.4,0.6,-1,0.9,-1.7,0.9c-0.7,0,-1.3,-0.3,-1.7,-0.9Z" class="g12_21" />
<path d="M217.9,945.5c0,-1.8,-0.8,-2.7,-2.2,-2.7c-0.9,0,-1.8,0.5,-2.7,1.4l0,-1.2l-1.1,0l0,7.8l1.1,0l0,-5.6c0.9,-0.9,1.6,-1.3,2.3,-1.3c0.5,0,0.9,0.1,1.1,0.4c0.2,0.3,0.3,0.8,0.3,1.5l0,5l1.2,0l0,-5.3Z" class="g12_21" />
<path d="M223.3,943.2c-0.1,0.2,-0.2,0.4,-0.2,0.6c0,0.3,0.1,0.5,0.2,0.6c0.2,0.2,0.4,0.3,0.7,0.3c0.2,0,0.4,-0.1,0.6,-0.3c0.2,-0.1,0.3,-0.3,0.3,-0.6c0,-0.2,-0.1,-0.4,-0.3,-0.6c-0.2,-0.2,-0.4,-0.3,-0.6,-0.3c-0.3,0,-0.5,0.1,-0.7,0.3Zm0,6.2c-0.1,0.2,-0.2,0.4,-0.2,0.6c0,0.3,0.1,0.5,0.2,0.7c0.2,0.1,0.4,0.2,0.7,0.2c0.2,0,0.4,-0.1,0.6,-0.2c0.2,-0.2,0.3,-0.4,0.3,-0.7c0,-0.2,-0.1,-0.4,-0.3,-0.6c-0.2,-0.2,-0.4,-0.2,-0.6,-0.2c-0.3,0,-0.5,0,-0.7,0.2Z" class="g12_21" />
<path d="M236.2,945.5c0,-1.8,-0.7,-2.7,-2.2,-2.7c-0.9,0,-1.8,0.5,-2.6,1.4l0,-1.2l-1.2,0l0,7.8l1.2,0l0,-5.6c0.8,-0.9,1.6,-1.3,2.3,-1.3c0.4,0,0.8,0.1,1,0.4c0.2,0.3,0.3,0.8,0.3,1.5l0,5l1.2,0l0,-5.3Z" class="g12_21" />
<path d="M239.8,944c-0.6,0.7,-0.9,1.7,-0.9,2.9c0,1.2,0.3,2.2,0.9,3c0.6,0.7,1.5,1.1,2.6,1.1c1,0,1.9,-0.4,2.5,-1.1c0.6,-0.8,1,-1.8,1,-3c0,-1.2,-0.4,-2.2,-1,-2.9c-0.6,-0.8,-1.5,-1.2,-2.5,-1.2c-1.1,0,-2,0.4,-2.6,1.2Zm0.9,5.1c-0.4,-0.6,-0.6,-1.3,-0.6,-2.2c0,-0.9,0.2,-1.6,0.6,-2.2c0.4,-0.6,0.9,-0.8,1.7,-0.8c0.7,0,1.2,0.2,1.6,0.8c0.4,0.6,0.6,1.3,0.6,2.2c0,0.9,-0.2,1.6,-0.6,2.2c-0.4,0.6,-0.9,0.9,-1.6,0.9c-0.8,0,-1.3,-0.3,-1.7,-0.9Z" class="g12_21" />
<path d="M254.5,945.5c0,-1.8,-0.7,-2.7,-2.1,-2.7c-1,0,-1.8,0.5,-2.7,1.4l0,-1.2l-1.1,0l0,7.8l1.1,0l0,-5.6c0.8,-0.9,1.6,-1.3,2.3,-1.3c0.5,0,0.8,0.1,1,0.4c0.3,0.3,0.4,0.8,0.4,1.5l0,5l1.1,0l0,-5.3Z" class="g12_21" />
<path d="M263.9,946.6c0,-1.1,-0.3,-2,-0.9,-2.7c-0.6,-0.7,-1.3,-1.1,-2.2,-1.1c-1,0,-1.8,0.4,-2.5,1.1c-0.6,0.8,-0.9,1.8,-0.9,3c0,1.3,0.3,2.3,1,3c0.8,0.7,1.7,1.1,2.8,1.1c0.9,0,1.8,-0.1,2.4,-0.5l-0.2,-0.9c-0.7,0.3,-1.4,0.4,-2.2,0.4c-0.7,0,-1.3,-0.3,-1.8,-0.9c-0.5,-0.5,-0.8,-1.3,-0.8,-2.1l5.3,0l0,-0.4ZM258.7,946c0,-0.6,0.2,-1.1,0.6,-1.5c0.4,-0.4,0.9,-0.6,1.5,-0.6c0.5,0,0.9,0.2,1.3,0.6c0.4,0.4,0.6,0.9,0.6,1.5l-4,0Z" class="g12_21" />
<path d="M269.2,943.2c-0.1,0.2,-0.2,0.4,-0.2,0.6c0,0.3,0.1,0.5,0.2,0.6c0.2,0.2,0.4,0.3,0.7,0.3c0.2,0,0.4,-0.1,0.6,-0.3c0.2,-0.1,0.3,-0.3,0.3,-0.6c0,-0.2,-0.1,-0.4,-0.3,-0.6c-0.2,-0.2,-0.4,-0.3,-0.6,-0.3c-0.3,0,-0.5,0.1,-0.7,0.3Zm-0.2,8.9l0.3,0.5c1,-0.5,1.6,-1.3,1.6,-2.3c0,-0.3,-0.1,-0.6,-0.3,-0.8c-0.2,-0.2,-0.5,-0.3,-0.7,-0.3c-0.3,0,-0.5,0,-0.7,0.2c-0.1,0.2,-0.2,0.4,-0.2,0.7c0,0.2,0.1,0.4,0.2,0.6c0.2,0.2,0.4,0.3,0.7,0.3c0,0.4,-0.3,0.8,-0.9,1.1Z" class="g12_21" />
<text 
x="81" 
y="950" 
dx="0,0,0,0,0,0,0,0,0,0,0,0,0,0,0,0,0,0,0,0,0" 
class="s2_21"
>text-decoration:none;</text>

<text 
x="81" 
y="971" 
dx="0" 
class="s2_21"
>}</text>

<text 
x="407" 
y="64" 
dx="0,0,0,0,0,0,0,0,6.6,0,0,0,6.6,0,0,0,0,0,6.6,0,0,0,0,0,0,0,0,0,6.6,0,0,0,0,0,6.6,-0.3,0,0,0,0,6.6,0,0,0,0,0" 
class="s3_21"
>Removes the final separator line. We’ve moved </text>

<text 
x="407" 
y="86" 
dx="0,0,0,6.6,0,0,6.6,0,6.6,0,0,0,6.6,0,0,0,0,6.6,0,0,0,0,0,0,6.6,0,0,0,0,6.6,0,0,0,0,6.6,0,0,0,0,0,0,6.6,0,0,0,0" 
class="s3_21"
>on to a new rule again. This rule begins with </text>

<path d="M415.4,102.2c0,-1.8,-0.7,-2.7,-2.2,-2.7c-0.9,0,-1.8,0.5,-2.6,1.3l0,-1.1l-1.2,0l0,7.8l1.2,0l0,-5.7c0.8,-0.8,1.6,-1.3,2.3,-1.3c0.4,0,0.8,0.2,1,0.5c0.2,0.3,0.3,0.8,0.3,1.5l0,5l1.2,0l0,-5.3Z" class="g12_21" />
<path d="M424.6,105.7l0,-3.4c0,-1.8,-0.9,-2.8,-2.7,-2.8c-0.9,0,-1.9,0.3,-2.9,0.8l0.3,0.9c0.3,-0.2,0.7,-0.4,1.1,-0.5c0.5,-0.1,0.9,-0.2,1.2,-0.2c1.2,0,1.8,0.7,1.8,2l0,0.4l-1.3,0.1c-0.6,0,-1.1,0.1,-1.5,0.2c-0.4,0.2,-0.8,0.3,-1.1,0.5c-0.3,0.2,-0.5,0.5,-0.7,0.8c-0.1,0.3,-0.2,0.6,-0.2,1c0,0.6,0.2,1.1,0.7,1.6c0.4,0.4,0.9,0.6,1.5,0.6c1.1,0,2,-0.5,2.7,-1.5c0,0.5,0,1,0.1,1.3l1.2,0c-0.2,-0.6,-0.2,-1.2,-0.2,-1.8Zm-2.3,0.5c-0.4,0.2,-0.8,0.4,-1.2,0.4c-0.4,0,-0.7,-0.2,-0.9,-0.4c-0.3,-0.2,-0.4,-0.5,-0.4,-0.8c0,-0.4,0.2,-0.7,0.4,-0.9c0.3,-0.2,0.7,-0.4,1.1,-0.5c0.3,-0.1,1.1,-0.1,2.1,-0.2l0,1.4c-0.3,0.4,-0.6,0.7,-1.1,1Z" class="g12_21" />
<path d="M432.8,99.7l-2.2,6.2l-2.2,-6.2l-1.2,0l2.9,7.8l1.1,0l2.9,-7.8l-1.3,0Z" class="g12_21" />
<path d="M462.6,99.7l-1.2,0l0,5.6c-0.8,0.9,-1.5,1.3,-2.3,1.3c-0.5,0,-0.8,-0.1,-1,-0.4c-0.2,-0.4,-0.3,-0.9,-0.3,-1.5l0,-5l-1.2,0l0,5.3c0,1.8,0.7,2.7,2.2,2.7c0.9,0,1.8,-0.5,2.6,-1.4l0,1.2l1.2,0l0,-7.8Z" class="g12_21" />
<path d="M471.5,106.5l-2,0l0,-10l-3,0l0,1l2,0l0,10l3,0l0,-1Z" class="g12_21" />
<path d="M500.5,106.5l-2,0l0,-10l-4,0l0,1l2,0l0,10l4,0l0,-1Z" class="g12_21" />
<path d="M506.8,97c-0.2,0.2,-0.3,0.3,-0.3,0.6c0,0.2,0.1,0.4,0.3,0.5c0.1,0.2,0.3,0.3,0.5,0.3c0.2,0,0.4,-0.1,0.6,-0.3c0.1,-0.1,0.2,-0.3,0.2,-0.5c0,-0.3,-0.1,-0.4,-0.2,-0.6c-0.2,-0.2,-0.4,-0.2,-0.6,-0.2c-0.2,0,-0.4,0,-0.5,0.2Zm1.1,2.7l-3.5,0l0,1l2.3,0l0,6.8l1.2,0l0,-7.8Z" class="g12_21" />
<path d="M515.3,99.8c-0.2,0.2,-0.3,0.4,-0.3,0.7c0,0.2,0.1,0.4,0.3,0.6c0.1,0.2,0.4,0.3,0.6,0.3c0.3,0,0.5,-0.1,0.6,-0.3c0.2,-0.2,0.3,-0.4,0.3,-0.6c0,-0.3,-0.1,-0.5,-0.3,-0.7c-0.1,-0.1,-0.3,-0.2,-0.6,-0.2c-0.2,0,-0.5,0.1,-0.6,0.2Zm0,6.3c-0.2,0.1,-0.3,0.4,-0.3,0.6c0,0.3,0.1,0.5,0.3,0.6c0.1,0.2,0.4,0.3,0.6,0.3c0.3,0,0.5,-0.1,0.6,-0.3c0.2,-0.1,0.3,-0.3,0.3,-0.6c0,-0.2,-0.1,-0.5,-0.3,-0.6c-0.1,-0.2,-0.3,-0.3,-0.6,-0.3c-0.2,0,-0.5,0.1,-0.6,0.3Z" class="g12_21" />
<path d="M527.5,106.5l-2,0l0,-10l-3,0l0,1l2,0l0,10l3,0l0,-1Z" class="g12_21" />
<path d="M537.3,105.7l0,-3.4c0,-1.8,-0.9,-2.8,-2.6,-2.8c-0.9,0,-1.9,0.3,-3,0.8l0.3,0.9c0.3,-0.2,0.7,-0.4,1.2,-0.5c0.4,-0.1,0.8,-0.2,1.1,-0.2c1.2,0,1.9,0.7,1.9,2l0,0.4l-1.4,0.1c-0.5,0,-1,0.1,-1.5,0.2c-0.4,0.2,-0.8,0.3,-1.1,0.5c-0.3,0.2,-0.5,0.5,-0.6,0.8c-0.2,0.3,-0.3,0.6,-0.3,1c0,0.6,0.2,1.1,0.7,1.6c0.4,0.4,0.9,0.6,1.5,0.6c1.1,0,2,-0.5,2.7,-1.5c0,0.5,0.1,1,0.2,1.3l1.1,0c-0.1,-0.6,-0.2,-1.2,-0.2,-1.8Zm-2.2,0.5c-0.4,0.2,-0.8,0.4,-1.3,0.4c-0.3,0,-0.6,-0.2,-0.9,-0.4c-0.2,-0.2,-0.4,-0.5,-0.4,-0.8c0,-0.4,0.2,-0.7,0.5,-0.9c0.3,-0.2,0.6,-0.4,1,-0.5c0.4,-0.1,1.1,-0.1,2.2,-0.2l0,1.4c-0.4,0.4,-0.7,0.7,-1.1,1Z" class="g12_21" />
<path d="M545.9,99.8c-0.7,-0.2,-1.4,-0.3,-2.1,-0.3c-0.9,0,-1.7,0.2,-2.3,0.6c-0.6,0.4,-0.9,0.9,-0.9,1.6c0,0.3,0.1,0.6,0.2,0.8c0.1,0.3,0.3,0.5,0.6,0.7c0.2,0.2,0.5,0.3,0.8,0.4c0.2,0.1,0.7,0.2,1.3,0.4c0.7,0.2,1.2,0.4,1.4,0.7c0.2,0.2,0.3,0.4,0.3,0.7c0,0.4,-0.2,0.7,-0.6,0.9c-0.4,0.3,-0.9,0.4,-1.6,0.4c-0.7,0,-1.4,-0.2,-2.1,-0.5l-0.2,1c0.6,0.3,1.4,0.5,2.4,0.5c0.9,0,1.7,-0.2,2.3,-0.7c0.7,-0.4,1,-1,1,-1.7c0,-0.4,-0.1,-0.7,-0.3,-1c-0.1,-0.3,-0.4,-0.6,-0.7,-0.8c-0.3,-0.2,-0.7,-0.3,-1.2,-0.5L543,102.7c-0.5,-0.1,-0.8,-0.3,-1,-0.5c-0.1,-0.1,-0.2,-0.3,-0.2,-0.5c0,-0.4,0.2,-0.7,0.5,-0.9c0.4,-0.2,0.9,-0.3,1.5,-0.3c0.6,0,1.2,0.1,1.9,0.3l0.2,-1Z" class="g12_21" />
<path d="M555.5,106.2c-0.6,0.3,-1.2,0.4,-1.9,0.4c-0.3,0,-0.6,-0.1,-0.8,-0.3c-0.2,-0.3,-0.3,-0.7,-0.3,-1.1l0,-4.5l2.6,0l0,-1l-2.6,0l0,-2.1l-1.2,0l0,2.1l-1.5,0l0,1l1.5,0l0,4.8c0,1.4,0.7,2.2,2.1,2.2c0.8,0,1.5,-0.2,2.3,-0.6l-0.2,-0.9Z" class="g12_21" />
<path d="M563.5,102.5l-4,0l0,1l4,0l0,-1Z" class="g12_21" />
<path d="M573.8,106.3c-0.7,0.2,-1.4,0.4,-2.1,0.4c-0.8,0,-1.5,-0.3,-2,-0.9c-0.5,-0.6,-0.8,-1.3,-0.8,-2.2c0,-1,0.3,-1.7,0.8,-2.3c0.5,-0.5,1.2,-0.8,2,-0.8c0.6,0,1.2,0.1,1.9,0.4l0.3,-1c-0.7,-0.2,-1.4,-0.4,-2.2,-0.4c-1.2,0,-2.2,0.4,-2.9,1.1c-0.7,0.8,-1.1,1.8,-1.1,3c0,1.2,0.4,2.2,1.1,3c0.7,0.7,1.7,1.1,2.9,1.1c0.8,0,1.6,-0.2,2.3,-0.5l-0.2,-0.9Z" class="g12_21" />
<path d="M583.2,102.2c0,-1.8,-0.8,-2.7,-2.2,-2.7c-1,0,-1.8,0.5,-2.7,1.3l0,-3.9l-1.1,0l0,10.6l1.1,0l0,-5.7c0.8,-0.8,1.6,-1.3,2.3,-1.3c0.5,0,0.8,0.2,1.1,0.5c0.2,0.3,0.3,0.8,0.3,1.5l0,5l1.2,0l0,-5.3Z" class="g12_21" />
<path d="M589.3,97c-0.2,0.2,-0.3,0.3,-0.3,0.6c0,0.2,0.1,0.4,0.3,0.5c0.1,0.2,0.3,0.3,0.5,0.3c0.2,0,0.4,-0.1,0.6,-0.3c0.1,-0.1,0.2,-0.3,0.2,-0.5c0,-0.3,-0.1,-0.4,-0.2,-0.6c-0.2,-0.2,-0.4,-0.2,-0.6,-0.2c-0.2,0,-0.4,0,-0.5,0.2Zm1.1,2.7l-3.5,0l0,1l2.3,0l0,6.8l1.2,0l0,-7.8Z" class="g12_21" />
<path d="M600.5,106.5l-2,0l0,-10l-3,0l0,1l2,0l0,10l3,0l0,-1Z" class="g12_21" />
<path d="M610.6,96.9l-1.1,0l0,3.8c-0.6,-0.8,-1.4,-1.2,-2.4,-1.2c-0.9,0,-1.6,0.4,-2.1,1.1c-0.6,0.8,-0.9,1.7,-0.9,2.9c0,1.2,0.3,2.2,0.8,3c0.5,0.8,1.2,1.2,2.1,1.2c0.5,0,1,-0.1,1.4,-0.4c0.5,-0.2,0.8,-0.6,1.1,-0.9l0,1.1l1.1,0l0,-10.6Zm-1.5,8.8c-0.3,0.3,-0.6,0.5,-0.9,0.7c-0.3,0.2,-0.6,0.2,-0.9,0.2c-0.6,0,-1.1,-0.3,-1.4,-0.8c-0.4,-0.6,-0.5,-1.4,-0.5,-2.3c0,-0.8,0.2,-1.6,0.5,-2.1c0.4,-0.6,0.9,-0.9,1.6,-0.9c0.7,0,1.4,0.5,2,1.4l0,3.2c0,0.1,-0.2,0.3,-0.4,0.6Z" class="g12_21" />
<path d="M616.1,106c-0.2,0.2,-0.2,0.4,-0.2,0.7c0,0.3,0,0.5,0.2,0.7c0.2,0.2,0.4,0.3,0.7,0.3c0.2,0,0.5,-0.1,0.6,-0.3c0.2,-0.2,0.3,-0.4,0.3,-0.7c0,-0.3,-0.1,-0.5,-0.3,-0.7c-0.1,-0.1,-0.4,-0.2,-0.6,-0.2c-0.3,0,-0.5,0.1,-0.7,0.2Z" class="g12_21" />
<text 
x="407" 
y="107" 
dx="0,0,0,0,10.5,0,0,10.5,0,0,0,0,0,0,0,0,0,0,0,0,0,0" 
class="s2_21"
>nav ul li:last-child. </text>

<text 
x="641" 
y="107" 
dx="0,0,0,0" 
class="s3_21"
>The </text>

<path d="M682.5,106.5l-2,0l0,-10l-3,0l0,1l2,0l0,10l3,0l0,-1Z" class="g12_21" />
<path d="M692.5,105.7l0,-3.4c0,-1.8,-0.9,-2.8,-2.7,-2.8c-0.9,0,-1.9,0.3,-2.9,0.8l0.3,0.9c0.3,-0.2,0.7,-0.4,1.1,-0.5c0.5,-0.1,0.8,-0.2,1.1,-0.2c1.3,0,1.9,0.7,1.9,2l0,0.4L690,103c-0.6,0,-1.1,0.1,-1.5,0.2c-0.5,0.2,-0.8,0.3,-1.1,0.5c-0.3,0.2,-0.5,0.5,-0.7,0.8c-0.1,0.3,-0.2,0.6,-0.2,1c0,0.6,0.2,1.1,0.6,1.6c0.5,0.4,1,0.6,1.6,0.6c1.1,0,2,-0.5,2.7,-1.5c0,0.5,0,1,0.1,1.3l1.2,0c-0.2,-0.6,-0.2,-1.2,-0.2,-1.8Zm-2.3,0.5c-0.4,0.2,-0.8,0.4,-1.2,0.4c-0.4,0,-0.7,-0.2,-0.9,-0.4c-0.3,-0.2,-0.4,-0.5,-0.4,-0.8c0,-0.4,0.1,-0.7,0.4,-0.9c0.3,-0.2,0.7,-0.4,1,-0.5c0.4,-0.1,1.2,-0.1,2.2,-0.2l0,1.4c-0.3,0.4,-0.7,0.7,-1.1,1Z" class="g12_21" />
<path d="M701.1,99.8c-0.8,-0.2,-1.5,-0.3,-2.1,-0.3c-1,0,-1.8,0.2,-2.3,0.6c-0.6,0.4,-0.9,0.9,-0.9,1.6c0,0.3,0,0.6,0.2,0.8c0.1,0.3,0.3,0.5,0.5,0.7c0.3,0.2,0.5,0.3,0.8,0.4c0.3,0.1,0.7,0.2,1.3,0.4c0.8,0.2,1.3,0.4,1.5,0.7c0.2,0.2,0.3,0.4,0.3,0.7c0,0.4,-0.2,0.7,-0.6,0.9c-0.4,0.3,-1,0.4,-1.6,0.4c-0.8,0,-1.5,-0.2,-2.1,-0.5l-0.2,1c0.6,0.3,1.4,0.5,2.3,0.5c1,0,1.8,-0.2,2.4,-0.7c0.6,-0.4,0.9,-1,0.9,-1.7c0,-0.4,0,-0.7,-0.2,-1c-0.2,-0.3,-0.4,-0.6,-0.7,-0.8c-0.4,-0.2,-0.8,-0.3,-1.3,-0.5l-1.1,-0.3c-0.5,-0.1,-0.8,-0.3,-1,-0.5c-0.2,-0.1,-0.3,-0.3,-0.3,-0.5c0,-0.4,0.2,-0.7,0.6,-0.9c0.3,-0.2,0.8,-0.3,1.5,-0.3c0.6,0,1.2,0.1,1.8,0.3l0.3,-1Z" class="g12_21" />
<path d="M710.7,106.2c-0.6,0.3,-1.3,0.4,-1.9,0.4c-0.4,0,-0.7,-0.1,-0.9,-0.3c-0.2,-0.3,-0.3,-0.7,-0.3,-1.1l0,-4.5l2.7,0l0,-1l-2.7,0l0,-2.1l-1.1,0l0,2.1l-1.5,0l0,1l1.5,0l0,4.8c0,1.4,0.7,2.2,2.1,2.2c0.7,0,1.5,-0.2,2.3,-0.6l-0.2,-0.9Z" class="g12_21" />
<path d="M719.5,102.5l-5,0l0,1l5,0l0,-1Z" class="g12_21" />
<path d="M728.9,106.3c-0.7,0.2,-1.4,0.4,-2,0.4c-0.9,0,-1.5,-0.3,-2,-0.9c-0.6,-0.6,-0.8,-1.3,-0.8,-2.2c0,-1,0.2,-1.7,0.7,-2.3c0.5,-0.5,1.2,-0.8,2.1,-0.8c0.5,0,1.2,0.1,1.9,0.4l0.3,-1c-0.7,-0.2,-1.5,-0.4,-2.3,-0.4c-1.1,0,-2.1,0.4,-2.8,1.1c-0.8,0.8,-1.1,1.8,-1.1,3c0,1.2,0.3,2.2,1.1,3c0.7,0.7,1.7,1.1,2.9,1.1c0.8,0,1.5,-0.2,2.2,-0.5l-0.2,-0.9Z" class="g12_21" />
<path d="M738.3,102.2c0,-1.8,-0.7,-2.7,-2.2,-2.7c-0.9,0,-1.8,0.5,-2.6,1.3l0,-3.9l-1.2,0l0,10.6l1.2,0l0,-5.7c0.8,-0.8,1.6,-1.3,2.3,-1.3c0.4,0,0.8,0.2,1,0.5c0.2,0.3,0.3,0.8,0.3,1.5l0,5l1.2,0l0,-5.3Z" class="g12_21" />
<path d="M744.4,97c-0.1,0.2,-0.2,0.3,-0.2,0.6c0,0.2,0.1,0.4,0.2,0.5c0.2,0.2,0.4,0.3,0.6,0.3c0.2,0,0.4,-0.1,0.5,-0.3c0.2,-0.1,0.3,-0.3,0.3,-0.5c0,-0.3,-0.1,-0.4,-0.3,-0.6c-0.1,-0.2,-0.3,-0.2,-0.5,-0.2c-0.2,0,-0.4,0,-0.6,0.2Zm1.1,2.7l-3.4,0l0,1l2.3,0l0,6.8l1.1,0l0,-7.8Z" class="g12_21" />
<path d="M756.5,106.5l-2,0l0,-10l-4,0l0,1l2,0l0,10l4,0l0,-1Z" class="g12_21" />
<path d="M765.8,96.9l-1.2,0l0,3.8c-0.6,-0.8,-1.4,-1.2,-2.3,-1.2c-0.9,0,-1.6,0.4,-2.2,1.1c-0.5,0.8,-0.8,1.7,-0.8,2.9c0,1.2,0.3,2.2,0.8,3c0.5,0.8,1.2,1.2,2.1,1.2c0.5,0,0.9,-0.1,1.4,-0.4c0.4,-0.2,0.8,-0.6,1,-0.9l0,1.1l1.2,0l0,-10.6Zm-1.6,8.8c-0.2,0.3,-0.5,0.5,-0.8,0.7c-0.3,0.2,-0.6,0.2,-0.9,0.2c-0.6,0,-1.1,-0.3,-1.4,-0.8c-0.4,-0.6,-0.6,-1.4,-0.6,-2.3c0,-0.8,0.2,-1.6,0.6,-2.1c0.4,-0.6,0.9,-0.9,1.5,-0.9c0.8,0,1.5,0.5,2,1.4l0,3.2c0,0.1,-0.1,0.3,-0.4,0.6Z" class="g12_21" />
<text 
x="675" 
y="107" 
dx="0,0,0,0,0,0,0,0,0,0" 
class="s2_21"
>last-child</text>

<text 
x="407" 
y="128" 
dx="0,0,0,0,0,0,0,0,0,0,1.4,0,0,0,0,0,0,0,0,1.4,0,0,1.4,0,0,0,1.4,0,0,0,0,1.4,0,0,0,0,0,1.4,0,0,0,0,1.4,0,0,1.4,0,0,0,0,1.4,0,0,0,0" 
class="s3_21"
>condition included in the rule means that it will only </text>

<text 
x="407" 
y="150" 
dx="0,0,0,0,0,0,-0.8,0,0,-0.8,0,0,0" 
class="s3_21"
>apply to the </text>

<text 
x="490" 
y="150" 
dx="0,0,0,0" 
class="s4_21"
>last</text>

<path d="M524.5,149.5l-2,0l0,-10l-3,0l0,1l2,0l0,10l3,0l0,-1Z" class="g12_21" />
<path d="M531.2,139.8c-0.2,0.1,-0.3,0.3,-0.3,0.5c0,0.3,0.1,0.4,0.3,0.6c0.1,0.2,0.3,0.2,0.5,0.2c0.2,0,0.4,0,0.6,-0.2c0.1,-0.1,0.2,-0.3,0.2,-0.6c0,-0.2,-0.1,-0.4,-0.2,-0.5c-0.2,-0.2,-0.4,-0.3,-0.6,-0.3c-0.2,0,-0.4,0.1,-0.5,0.3Zm1.1,2.7l-3.5,0l0,1l2.3,0l0,6.8l1.2,0l0,-7.8Z" class="g12_21" />
<text 
x="517" 
y="150" 
dx="0,0" 
class="s2_21"
>li</text>

<text 
x="539" 
y="150" 
dx="0,0,0,0,0,0,0,0,-0.8,0,0,0,0,0,0" 
class="s3_21"
>element inside </text>

<path d="M648.7,142.5l-1.1,0l0,5.6c-0.9,0.9,-1.6,1.3,-2.3,1.3c-0.5,0,-0.9,-0.1,-1.1,-0.5c-0.2,-0.3,-0.3,-0.8,-0.3,-1.4l0,-5l-1.2,0l0,5.3c0,1.8,0.8,2.6,2.2,2.6c0.9,0,1.8,-0.4,2.7,-1.3l0,1.2l1.1,0l0,-7.8Z" class="g12_21" />
<path d="M657.5,149.5l-2,0l0,-10l-3,0l0,1l2,0l0,10l3,0l0,-1Z" class="g12_21" />
<text 
x="641" 
y="150" 
dx="0,0" 
class="s2_21"
>ul</text>

<text 
x="662" 
y="150" 
dx="0,0,0,0,0,0,0,0,0,-0.8,0,0,0,0,-0.8,0" 
class="s3_21"
>elements with a </text>

<text 
x="407" 
y="171" 
dx="0,0,0,0,0,0,-0.9,0,0" 
class="s3_21"
>class of </text>

<path d="M470.6,166.3c0,-1.7,-0.7,-2.6,-2.2,-2.6c-0.9,0,-1.8,0.4,-2.6,1.3l0,-1.1l-1.2,0l0,7.7l1.2,0l0,-5.6c0.8,-0.9,1.6,-1.3,2.3,-1.3c0.4,0,0.8,0.1,1,0.5c0.2,0.3,0.3,0.8,0.3,1.5l0,4.9l1.2,0l0,-5.3Z" class="g12_21" />
<path d="M479.8,169.8l0,-3.3c0,-1.9,-0.9,-2.8,-2.7,-2.8c-0.9,0,-1.9,0.3,-2.9,0.8l0.3,0.8c0.3,-0.1,0.7,-0.3,1.1,-0.4c0.5,-0.1,0.9,-0.2,1.1,-0.2c1.3,0,1.9,0.7,1.9,2l0,0.4l-1.3,0.1c-0.6,0,-1.1,0.1,-1.5,0.2c-0.4,0.1,-0.8,0.3,-1.1,0.5c-0.3,0.2,-0.5,0.4,-0.7,0.7c-0.1,0.3,-0.2,0.7,-0.2,1c0,0.7,0.2,1.2,0.6,1.6c0.5,0.4,1,0.6,1.6,0.6c1.1,0,2,-0.4,2.7,-1.4c0,0.5,0,0.9,0.1,1.2l1.2,0c-0.2,-0.5,-0.2,-1.1,-0.2,-1.8Zm-2.3,0.6c-0.4,0.2,-0.8,0.3,-1.2,0.3c-0.4,0,-0.7,-0.1,-0.9,-0.3c-0.3,-0.2,-0.4,-0.5,-0.4,-0.8c0,-0.4,0.2,-0.7,0.4,-1c0.3,-0.2,0.7,-0.3,1.1,-0.4c0.3,-0.1,1.1,-0.2,2.1,-0.3l0,1.4c-0.3,0.5,-0.7,0.8,-1.1,1.1Z" class="g12_21" />
<path d="M488,163.9l-2.2,6.2l-2.2,-6.2l-1.2,0l2.9,7.7l1,0l3,-7.7l-1.3,0Z" class="g12_21" />
<text 
x="463" 
y="171" 
dx="0,0,0" 
class="s2_21"
>nav</text>

<text 
x="490" 
y="171" 
dx="0" 
class="s3_21"
>.</text>

<text 
x="1220" 
y="64" 
dx="0,0,0,0,0,-0.3,0,0,4.9,0,0,0,4.9,0,0,0,0,4.9,0,0,0,0,0,0,4.9,0,0,4.9,0,0,0,0,0,0,4.9,-1.7,0,4.9,0,0,0,0,0,0,0,0,4.9,0,0,0" 
class="s3_21"
>Ensures the link colour is black. To complete our </text>

<text 
x="1220" 
y="86" 
dx="0,0,0,0,0,0,-0.6,0,0,-0.6,0,0,0,0,0,0,-0.6,0,0,0,-0.6,0,0,0,0,0,-0.6,0,0,-0.6,0,0,0,0,0,-0.6,0,0,-0.6,0,0,0,0,0,-0.6,0,0,-0.6,0,0,0,0,-0.6,0,0,0" 
class="s3_21"
>menu, we change the links to black to blend in with the </text>

<text 
x="1220" 
y="107" 
dx="0,-0.3,0,0,0,-0.9,0,0,-0.9,0,0,0,-0.9,0,0,0,0,-0.9,0,0,0,0,0,-0.9,0,0,0,0,0,0,-0.9,0,0,0,0,0,0" 
class="s3_21"
>rest of the menu bar's colour scheme.</text>

<text 
x="407" 
y="556" 
dx="0,0,0,0,0,0,0,0,-0.5,0,0,0,-0.5,0,0,0,0,0,0,0,0,0,0,0,-0.5,0,0,-0.5,0,0,0,-0.5,0,0,0,0,-0.5,0,0,0,0,0,0,-0.5,0,0,0,0,0,0,0" 
class="s3_21"
>Removes the underlining of the menu items. Showing </text>

<text 
x="407" 
y="578" 
dx="0,0,0,0,0,0,5.8,0,0,5.8,0,0,0,0,0,0,0,0,0,0,5.8,0,0,5.8,0,0,0,0,0,0,5.8,0,0,5.8,0,5.8,0,0,0,0,0,0,0,5.8,0,0,0" 
class="s3_21"
>links as underlined is useful in a webpage but </text>

<text 
x="407" 
y="599" 
dx="0,0,0,0,0,0,-0.3,0,1.6,0,0,0,0,1.6,0,0,0,0,1.6,0,0,1.6,0,0,0,1.6,0,0,0,1.6,0,0,0,0,0,1.6,-0.3,0,1.6,0,0,0,1.6,0,0,0,1.6,0,0,0" 
class="s3_21"
>doesn’t look good in the top menu. We can set the </text>

<path d="M415.3,619.6c-0.6,0.2,-1.3,0.4,-1.9,0.4c-0.4,0,-0.6,-0.2,-0.9,-0.4c-0.2,-0.3,-0.3,-0.6,-0.3,-1.1l0,-4.5l2.7,0l0,-1l-2.7,0l0,-2.1l-1.1,0l0,2.1l-1.5,0l0,1l1.5,0l0,4.8c0,1.5,0.7,2.2,2.1,2.2c0.7,0,1.5,-0.2,2.3,-0.5l-0.2,-0.9Z" class="g12_21" />
<path d="M424.8,616.6c0,-1.1,-0.3,-2,-0.9,-2.7c-0.6,-0.7,-1.3,-1.1,-2.2,-1.1c-1,0,-1.9,0.4,-2.5,1.1c-0.6,0.8,-0.9,1.8,-0.9,3c0,1.3,0.3,2.3,1,3c0.7,0.7,1.6,1.1,2.8,1.1c0.9,0,1.7,-0.1,2.4,-0.5l-0.2,-0.9c-0.7,0.3,-1.5,0.4,-2.2,0.4c-0.7,0,-1.3,-0.3,-1.9,-0.9c-0.5,-0.5,-0.7,-1.3,-0.7,-2.1l5.3,0l0,-0.4ZM419.6,616c0,-0.6,0.2,-1.2,0.6,-1.5c0.4,-0.4,0.9,-0.6,1.5,-0.6c0.5,0,0.9,0.2,1.3,0.6c0.4,0.4,0.5,0.9,0.5,1.5l-3.9,0Z" class="g12_21" />
<path d="M431.3,616.9L434,613l-1.2,0l-2.1,3.1L428.6,613l-1.4,0l2.8,3.9l-2.8,3.9l1.3,0l2.1,-3l2.1,3l1.3,0l-2.7,-3.9Z" class="g12_21" />
<path d="M442.8,619.6c-0.6,0.2,-1.3,0.4,-1.9,0.4c-0.4,0,-0.6,-0.2,-0.8,-0.4c-0.3,-0.3,-0.4,-0.6,-0.4,-1.1l0,-4.5l2.7,0l0,-1l-2.7,0l0,-2.1l-1.1,0l0,2.1l-1.5,0l0,1l1.5,0l0,4.8c0,1.5,0.7,2.2,2.1,2.2c0.7,0,1.5,-0.2,2.3,-0.5l-0.2,-0.9Z" class="g12_21" />
<path d="M451.5,616.5l-5,0l0,1l5,0l0,-1Z" class="g12_21" />
<path d="M461.2,610.3l-1.1,0l0,3.7c-0.6,-0.8,-1.4,-1.2,-2.4,-1.2c-0.9,0,-1.6,0.4,-2.1,1.2c-0.6,0.7,-0.9,1.7,-0.9,2.8c0,1.2,0.3,2.2,0.8,3c0.5,0.8,1.2,1.2,2.1,1.2c0.5,0,1,-0.1,1.4,-0.4c0.5,-0.2,0.8,-0.5,1.1,-0.9l0,1.1l1.1,0l0,-10.5Zm-1.5,8.7c-0.3,0.3,-0.6,0.6,-0.9,0.7c-0.3,0.2,-0.6,0.3,-0.9,0.3c-0.6,0,-1.1,-0.3,-1.4,-0.9c-0.4,-0.6,-0.5,-1.3,-0.5,-2.2c0,-0.9,0.2,-1.6,0.5,-2.2c0.4,-0.6,0.9,-0.8,1.5,-0.8c0.8,0,1.5,0.4,2.1,1.3l0,3.2c0,0.1,-0.2,0.3,-0.4,0.6Z" class="g12_21" />
<path d="M470.7,616.6c0,-1.1,-0.3,-2,-1,-2.7c-0.6,-0.7,-1.3,-1.1,-2.2,-1.1c-1,0,-1.8,0.4,-2.5,1.1c-0.6,0.8,-0.9,1.8,-0.9,3c0,1.3,0.3,2.3,1.1,3c0.7,0.7,1.6,1.1,2.7,1.1c1,0,1.8,-0.1,2.4,-0.5l-0.2,-0.9c-0.7,0.3,-1.4,0.4,-2.1,0.4c-0.8,0,-1.4,-0.3,-1.9,-0.9c-0.5,-0.5,-0.8,-1.3,-0.8,-2.1l5.4,0l0,-0.4ZM465.4,616c0,-0.6,0.3,-1.2,0.7,-1.5c0.3,-0.4,0.8,-0.6,1.4,-0.6c0.5,0,0.9,0.2,1.3,0.6c0.4,0.4,0.6,0.9,0.6,1.5l-4,0Z" class="g12_21" />
<path d="M479.4,619.6c-0.7,0.3,-1.4,0.4,-2.1,0.4c-0.8,0,-1.5,-0.3,-2,-0.9c-0.5,-0.6,-0.8,-1.3,-0.8,-2.2c0,-0.9,0.3,-1.7,0.8,-2.2c0.5,-0.6,1.2,-0.8,2,-0.8c0.6,0,1.2,0.1,1.9,0.3l0.3,-0.9c-0.7,-0.3,-1.4,-0.5,-2.2,-0.5c-1.2,0,-2.2,0.4,-2.9,1.2c-0.7,0.7,-1.1,1.7,-1.1,2.9c0,1.3,0.4,2.3,1.1,3c0.7,0.7,1.7,1.1,2.9,1.1c0.8,0,1.6,-0.1,2.3,-0.5l-0.2,-0.9Z" class="g12_21" />
<path d="M483.2,614c-0.6,0.7,-1,1.7,-1,2.9c0,1.2,0.4,2.2,1,3c0.6,0.7,1.5,1.1,2.5,1.1c1.1,0,2,-0.4,2.6,-1.1c0.6,-0.8,0.9,-1.8,0.9,-3c0,-1.2,-0.3,-2.2,-0.9,-2.9c-0.6,-0.8,-1.5,-1.2,-2.6,-1.2c-1,0,-1.9,0.4,-2.5,1.2Zm0.9,5.1c-0.4,-0.6,-0.6,-1.3,-0.6,-2.2c0,-0.9,0.2,-1.6,0.6,-2.2c0.4,-0.6,0.9,-0.8,1.6,-0.8c0.8,0,1.3,0.2,1.7,0.8c0.4,0.6,0.6,1.3,0.6,2.2c0,0.9,-0.2,1.6,-0.6,2.2c-0.4,0.6,-1,0.9,-1.7,0.9c-0.7,0,-1.2,-0.3,-1.6,-0.9Z" class="g12_21" />
<path d="M496.3,612.8c-1,0,-1.8,0.6,-2.4,1.8l0,-1.6l-1.1,0l0,7.8l1.1,0l0,-5c0,-0.1,0.2,-0.3,0.4,-0.6c0.3,-0.4,0.6,-0.7,0.9,-0.9c0.4,-0.2,0.7,-0.3,1,-0.3c0.4,0,0.9,0.1,1.4,0.4l0.4,-1.2c-0.5,-0.2,-1.1,-0.4,-1.7,-0.4Z" class="g12_21" />
<path d="M507.1,619l0,-3.3c0,-1.9,-0.9,-2.9,-2.7,-2.9c-0.9,0,-1.9,0.3,-2.9,0.9l0.3,0.8c0.3,-0.2,0.7,-0.3,1.2,-0.5c0.4,-0.1,0.8,-0.1,1.1,-0.1c1.2,0,1.8,0.6,1.8,2l0,0.3l-1.3,0.1c-0.6,0.1,-1.1,0.2,-1.5,0.3c-0.4,0.1,-0.8,0.2,-1.1,0.5c-0.3,0.2,-0.5,0.4,-0.7,0.7c-0.1,0.3,-0.2,0.6,-0.2,1c0,0.7,0.2,1.2,0.7,1.6c0.4,0.4,0.9,0.6,1.5,0.6c1.1,0,2,-0.5,2.7,-1.4c0,0.5,0,0.9,0.1,1.2l1.2,0c-0.1,-0.5,-0.2,-1.1,-0.2,-1.8Zm-2.2,0.5c-0.5,0.3,-0.9,0.4,-1.3,0.4c-0.4,0,-0.7,-0.1,-0.9,-0.3c-0.3,-0.2,-0.4,-0.5,-0.4,-0.9c0,-0.4,0.2,-0.7,0.5,-0.9c0.2,-0.2,0.6,-0.4,1,-0.4c0.4,-0.1,1.1,-0.2,2.1,-0.3l0,1.4c-0.3,0.4,-0.6,0.8,-1,1Z" class="g12_21" />
<path d="M516.1,619.6c-0.6,0.2,-1.2,0.4,-1.9,0.4c-0.3,0,-0.6,-0.2,-0.8,-0.4c-0.2,-0.3,-0.3,-0.6,-0.3,-1.1l0,-4.5l2.6,0l0,-1l-2.6,0l0,-2.1l-1.1,0l0,2.1l-1.5,0l0,1l1.5,0l0,4.8c0,1.5,0.6,2.2,2,2.2c0.8,0,1.6,-0.2,2.3,-0.5l-0.2,-0.9Z" class="g12_21" />
<path d="M522.4,610.3c-0.2,0.2,-0.3,0.4,-0.3,0.6c0,0.2,0.1,0.4,0.3,0.6c0.1,0.1,0.3,0.2,0.5,0.2c0.2,0,0.4,-0.1,0.6,-0.2c0.1,-0.2,0.2,-0.4,0.2,-0.6c0,-0.2,-0.1,-0.4,-0.2,-0.6c-0.2,-0.1,-0.4,-0.2,-0.6,-0.2c-0.2,0,-0.4,0.1,-0.5,0.2Zm1.1,2.7l-3.5,0l0,1l2.3,0l0,6.8l1.2,0l0,-7.8Z" class="g12_21" />
<path d="M529,614c-0.6,0.7,-0.9,1.7,-0.9,2.9c0,1.2,0.3,2.2,0.9,3c0.7,0.7,1.5,1.1,2.6,1.1c1.1,0,1.9,-0.4,2.5,-1.1c0.7,-0.8,1,-1.8,1,-3c0,-1.2,-0.3,-2.2,-1,-2.9c-0.6,-0.8,-1.4,-1.2,-2.5,-1.2c-1.1,0,-1.9,0.4,-2.6,1.2Zm0.9,5.1c-0.4,-0.6,-0.6,-1.3,-0.6,-2.2c0,-0.9,0.2,-1.6,0.6,-2.2c0.4,-0.6,1,-0.8,1.7,-0.8c0.7,0,1.3,0.2,1.7,0.8c0.4,0.6,0.6,1.3,0.6,2.2c0,0.9,-0.2,1.6,-0.6,2.2c-0.5,0.6,-1,0.9,-1.7,0.9c-0.7,0,-1.3,-0.3,-1.7,-0.9Z" class="g12_21" />
<path d="M543.8,615.5c0,-1.8,-0.8,-2.7,-2.2,-2.7c-0.9,0,-1.8,0.5,-2.7,1.4l0,-1.2l-1.1,0l0,7.8l1.1,0l0,-5.6c0.9,-0.9,1.6,-1.3,2.3,-1.3c0.5,0,0.8,0.1,1.1,0.4c0.2,0.3,0.3,0.8,0.3,1.5l0,5l1.2,0l0,-5.3Z" class="g12_21" />
<text 
x="407" 
y="620" 
dx="0,0,0,0,0,0,0,0,0,0,0,0,0,0,0,0" 
class="s2_21"
>text-decoration </text>

<text 
x="560" 
y="620" 
dx="0,0,0,0,0,0,2.8,0,0" 
class="s3_21"
>value to </text>

<path d="M631.6,615.5c0,-1.8,-0.7,-2.7,-2.2,-2.7c-0.9,0,-1.8,0.5,-2.6,1.4l0,-1.2l-1.2,0l0,7.8l1.2,0l0,-5.6c0.8,-0.9,1.6,-1.3,2.3,-1.3c0.4,0,0.8,0.1,1,0.4c0.2,0.3,0.3,0.8,0.3,1.5l0,5l1.2,0l0,-5.3Z" class="g12_21" />
<path d="M635.2,614c-0.6,0.7,-0.9,1.7,-0.9,2.9c0,1.2,0.3,2.2,0.9,3c0.6,0.7,1.5,1.1,2.6,1.1c1,0,1.9,-0.4,2.5,-1.1c0.6,-0.8,1,-1.8,1,-3c0,-1.2,-0.4,-2.2,-1,-2.9c-0.6,-0.8,-1.5,-1.2,-2.5,-1.2c-1.1,0,-2,0.4,-2.6,1.2Zm0.9,5.1c-0.4,-0.6,-0.6,-1.3,-0.6,-2.2c0,-0.9,0.2,-1.6,0.6,-2.2c0.4,-0.6,0.9,-0.8,1.7,-0.8c0.7,0,1.2,0.2,1.6,0.8c0.4,0.6,0.6,1.3,0.6,2.2c0,0.9,-0.2,1.6,-0.6,2.2c-0.4,0.6,-0.9,0.9,-1.6,0.9c-0.8,0,-1.3,-0.3,-1.7,-0.9Z" class="g12_21" />
<path d="M649.9,615.5c0,-1.8,-0.7,-2.7,-2.2,-2.7c-0.9,0,-1.8,0.5,-2.6,1.4l0,-1.2l-1.2,0l0,7.8l1.2,0l0,-5.6c0.8,-0.9,1.6,-1.3,2.3,-1.3c0.5,0,0.8,0.1,1,0.4c0.3,0.3,0.4,0.8,0.4,1.5l0,5l1.1,0l0,-5.3Z" class="g12_21" />
<path d="M659.3,616.6c0,-1.1,-0.3,-2,-0.9,-2.7c-0.6,-0.7,-1.3,-1.1,-2.2,-1.1c-1,0,-1.8,0.4,-2.5,1.1c-0.6,0.8,-0.9,1.8,-0.9,3c0,1.3,0.3,2.3,1,3c0.7,0.7,1.7,1.1,2.8,1.1c0.9,0,1.7,-0.1,2.4,-0.5l-0.2,-0.9c-0.7,0.3,-1.5,0.4,-2.2,0.4c-0.7,0,-1.3,-0.3,-1.8,-0.9C654.3,618.6,654,617.8,654,617l5.3,0l0,-0.4ZM654.1,616c0,-0.6,0.2,-1.2,0.6,-1.5c0.4,-0.4,0.9,-0.6,1.5,-0.6c0.5,0,0.9,0.2,1.3,0.6c0.4,0.4,0.6,0.9,0.6,1.5l-4,0Z" class="g12_21" />
<text 
x="624" 
y="620" 
dx="0,0,0,0" 
class="s2_21"
>none</text>

<text 
x="667" 
y="620" 
dx="0,0,0,2.8,-0.3,0,0,0,0,0,2.8,0,0,0" 
class="s3_21"
>to remove the </text>

<text 
x="407" 
y="642" 
dx="0,0,0,0,0,0,0,0,0,0,0,0,0,-0.8,0,0,0" 
class="s3_21"
>underlining. The </text>

<path d="M528.4,636.9c0,-1.8,-0.7,-2.7,-2.1,-2.7c-1,0,-1.8,0.5,-2.7,1.4l0,-1.2l-1.1,0l0,7.8l1.1,0l0,-5.6c0.8,-0.9,1.6,-1.4,2.3,-1.4c0.5,0,0.8,0.2,1.1,0.5c0.2,0.3,0.3,0.8,0.3,1.5l0,5l1.1,0l0,-5.3Z" class="g12_21" />
<path d="M537.6,640.4l0,-3.4c0,-1.8,-0.9,-2.8,-2.6,-2.8c-0.9,0,-1.9,0.3,-3,0.8l0.3,0.9c0.3,-0.2,0.7,-0.3,1.2,-0.5c0.4,-0.1,0.8,-0.2,1.1,-0.2c1.2,0,1.9,0.7,1.9,2l0,0.4l-1.4,0.1c-0.5,0.1,-1,0.1,-1.5,0.3c-0.4,0.1,-0.8,0.2,-1.1,0.4c-0.3,0.2,-0.5,0.5,-0.6,0.8c-0.2,0.3,-0.3,0.6,-0.3,1c0,0.6,0.2,1.2,0.7,1.6c0.4,0.4,0.9,0.6,1.5,0.6c1.2,0,2.1,-0.5,2.7,-1.5c0,0.6,0.1,1,0.2,1.3l1.1,0c-0.1,-0.5,-0.2,-1.1,-0.2,-1.8Zm-2.2,0.5c-0.4,0.3,-0.8,0.4,-1.3,0.4c-0.3,0,-0.6,-0.1,-0.9,-0.3c-0.2,-0.3,-0.3,-0.5,-0.3,-0.9c0,-0.4,0.1,-0.7,0.4,-0.9c0.3,-0.2,0.6,-0.4,1,-0.5c0.4,0,1.1,-0.1,2.2,-0.2l0,1.4c-0.4,0.4,-0.7,0.8,-1.1,1Z" class="g12_21" />
<path d="M545.9,634.4l-2.2,6.2l-2.2,-6.2l-1.3,0l2.9,7.8l1.1,0l2.9,-7.8l-1.2,0Z" class="g12_21" />
<path d="M563.4,634.4l-1.2,0l0,5.6c-0.8,0.9,-1.6,1.4,-2.3,1.4c-0.5,0,-0.8,-0.2,-1,-0.5c-0.2,-0.3,-0.3,-0.8,-0.3,-1.5l0,-5l-1.2,0l0,5.3c0,1.8,0.7,2.7,2.2,2.7c0.9,0,1.8,-0.5,2.6,-1.4l0,1.2l1.2,0l0,-7.8Z" class="g12_21" />
<path d="M572.5,641.5l-3,0l0,-10l-3,0l0,1l2,0l0,10l4,0l0,-1Z" class="g12_21" />
<path d="M588.5,641.5l-2,0l0,-10l-3,0l0,1l2,0l0,10l3,0l0,-1Z" class="g12_21" />
<path d="M595.3,631.7c-0.1,0.2,-0.2,0.4,-0.2,0.6c0,0.2,0.1,0.4,0.2,0.5c0.2,0.2,0.3,0.3,0.6,0.3c0.2,0,0.4,-0.1,0.5,-0.2c0.2,-0.2,0.2,-0.4,0.2,-0.6c0,-0.2,0,-0.4,-0.2,-0.6c-0.1,-0.1,-0.3,-0.2,-0.5,-0.2c-0.3,0,-0.4,0.1,-0.6,0.2Zm1.1,2.7l-3.4,0l0,1l2.3,0l0,6.8l1.1,0l0,-7.8Z" class="g12_21" />
<path d="M615,640.4l0,-3.4c0,-1.8,-0.9,-2.8,-2.7,-2.8c-0.9,0,-1.9,0.3,-2.9,0.8l0.3,0.9c0.3,-0.2,0.7,-0.3,1.1,-0.5c0.5,-0.1,0.9,-0.2,1.1,-0.2c1.3,0,1.9,0.7,1.9,2l0,0.4l-1.3,0.1c-0.6,0.1,-1.1,0.1,-1.5,0.3c-0.4,0.1,-0.8,0.2,-1.1,0.4c-0.3,0.2,-0.5,0.5,-0.7,0.8c-0.1,0.3,-0.2,0.6,-0.2,1c0,0.6,0.2,1.2,0.6,1.6c0.5,0.4,1,0.6,1.6,0.6c1.1,0,2,-0.5,2.7,-1.5c0,0.6,0,1,0.1,1.3l1.2,0C615,641.7,615,641.1,615,640.4Zm-2.3,0.5c-0.4,0.3,-0.8,0.4,-1.2,0.4c-0.4,0,-0.7,-0.1,-0.9,-0.3c-0.3,-0.3,-0.4,-0.5,-0.4,-0.9c0,-0.4,0.2,-0.7,0.4,-0.9c0.3,-0.2,0.7,-0.4,1.1,-0.5c0.3,0,1.1,-0.1,2.1,-0.2l0,1.4c-0.3,0.4,-0.7,0.8,-1.1,1Z" class="g12_21" />
<text 
x="520" 
y="642" 
dx="0,0,0,0,-1.7,0,0,-1.7,0,0,-1.7" 
class="s2_21"
>nav ul li a</text>

<text 
x="620" 
y="642" 
dx="0,0,0,0.3,0,-0.8,0,0,-0.8,0,0,0,-0.8,0,0,0,0,-0.8,0,0,0,0,0" 
class="s3_21"
>part of the rule means </text>

<text 
x="407" 
y="663" 
dx="0,0,0,0.9,0,0,0,0,0.9,0,0,0,0,0,0.9,0,0" 
class="s3_21"
>it will apply to </text>

<path d="M515.6,661.8l0,-3.4c0,-1.8,-0.9,-2.8,-2.6,-2.8c-0.9,0,-1.9,0.3,-3,0.8l0.3,0.9c0.3,-0.2,0.7,-0.4,1.2,-0.5c0.4,-0.1,0.8,-0.2,1.1,-0.2c1.2,0,1.9,0.7,1.9,2l0,0.4l-1.3,0.1c-0.6,0.1,-1.1,0.1,-1.6,0.3c-0.4,0.1,-0.8,0.2,-1.1,0.4c-0.3,0.2,-0.5,0.5,-0.6,0.8c-0.2,0.3,-0.3,0.6,-0.3,1c0,0.6,0.3,1.2,0.7,1.6c0.4,0.4,0.9,0.6,1.5,0.6c1.2,0,2.1,-0.5,2.7,-1.5c0,0.6,0.1,1,0.2,1.3l1.1,0c-0.1,-0.5,-0.2,-1.1,-0.2,-1.8Zm-2.2,0.5c-0.4,0.2,-0.8,0.4,-1.2,0.4c-0.4,0,-0.7,-0.1,-1,-0.4c-0.2,-0.2,-0.3,-0.4,-0.3,-0.8c0,-0.4,0.1,-0.7,0.4,-0.9c0.3,-0.2,0.6,-0.4,1,-0.5c0.4,0,1.1,-0.1,2.2,-0.2l0,1.4c-0.3,0.4,-0.7,0.8,-1.1,1Z" class="g12_21" />
<text 
x="508" 
y="663" 
dx="0" 
class="s2_21"
>a</text>

<text 
x="522" 
y="663" 
dx="0,0,0,0,0,0,0,0,0,0.9,0,0,0,0,0,0" 
class="s3_21"
>elements inside </text>

<path d="M642.5,662.5l-2,0l0,-9l-3,0l0,1l2,0l0,9l3,0l0,-1Z" class="g12_21" />
<path d="M649,653.1c-0.2,0.2,-0.3,0.4,-0.3,0.6c0,0.2,0.1,0.4,0.3,0.5c0.1,0.2,0.3,0.3,0.5,0.3c0.2,0,0.4,-0.1,0.6,-0.3c0.1,-0.1,0.2,-0.3,0.2,-0.5c0,-0.2,-0.1,-0.4,-0.2,-0.6c-0.2,-0.1,-0.4,-0.2,-0.6,-0.2c-0.2,0,-0.4,0.1,-0.5,0.2Zm1.1,2.7l-3.5,0l0,1l2.3,0l0,6.8l1.2,0l0,-7.8Z" class="g12_21" />
<text 
x="635" 
y="663" 
dx="0,0" 
class="s2_21"
>li</text>

<text 
x="658" 
y="663" 
dx="0,0,0,0,0,0,0,0,0,0.9,0,0,0,0,0,0" 
class="s3_21"
>elements inside </text>

<path d="M415.4,677.2l-1.2,0l0,5.6c-0.8,0.9,-1.5,1.3,-2.3,1.3c-0.5,0,-0.8,-0.1,-1,-0.4c-0.2,-0.4,-0.3,-0.9,-0.3,-1.5l0,-5l-1.2,0l0,5.3c0,1.8,0.7,2.7,2.2,2.7c0.9,0,1.8,-0.5,2.6,-1.4l0,1.2l1.2,0l0,-7.8Z" class="g12_21" />
<path d="M424.5,683.5l-2,0l0,-9l-4,0l0,1l2,0l0,9l4,0l0,-1Z" class="g12_21" />
<text 
x="407" 
y="684" 
dx="0,0" 
class="s2_21"
>ul</text>

<text 
x="429" 
y="684" 
dx="0,0,0,0,0,0,0,0,0,-0.9,0,0,0,0,-0.9,0,-0.9,0,0,0,0,0,-0.9,0,0" 
class="s3_21"
>elements with a class of </text>

<path d="M600.2,679.7c0,-1.8,-0.8,-2.7,-2.2,-2.7c-0.9,0,-1.8,0.5,-2.7,1.3l0,-1.1l-1.1,0l0,7.8l1.1,0l0,-5.7c0.9,-0.8,1.6,-1.3,2.3,-1.3c0.5,0,0.9,0.2,1.1,0.5c0.2,0.3,0.3,0.8,0.3,1.5l0,5l1.2,0l0,-5.3Z" class="g12_21" />
<path d="M609.3,683.2l0,-3.4c0,-1.8,-0.8,-2.8,-2.6,-2.8c-0.9,0,-1.9,0.3,-3,0.8l0.3,0.9c0.4,-0.2,0.7,-0.4,1.2,-0.5c0.4,-0.1,0.8,-0.2,1.1,-0.2c1.3,0,1.9,0.7,1.9,2l0,0.4l-1.3,0.1c-0.6,0,-1.1,0.1,-1.5,0.2c-0.5,0.2,-0.8,0.3,-1.1,0.5c-0.3,0.2,-0.6,0.5,-0.7,0.8c-0.2,0.3,-0.2,0.6,-0.2,1c0,0.6,0.2,1.1,0.6,1.6c0.5,0.4,1,0.6,1.5,0.6c1.2,0,2.1,-0.5,2.7,-1.5c0,0.5,0.1,1,0.2,1.3l1.1,0c-0.1,-0.6,-0.2,-1.2,-0.2,-1.8Zm-2.2,0.5c-0.4,0.2,-0.8,0.4,-1.2,0.4c-0.4,0,-0.7,-0.2,-1,-0.4c-0.2,-0.2,-0.3,-0.5,-0.3,-0.8c0,-0.4,0.1,-0.7,0.4,-0.9c0.3,-0.2,0.6,-0.4,1,-0.5c0.4,-0.1,1.1,-0.1,2.2,-0.2l0,1.4c-0.3,0.4,-0.7,0.7,-1.1,1Z" class="g12_21" />
<path d="M617.6,677.2l-2.2,6.2l-2.2,-6.2l-1.3,0l3,7.8l1,0l3,-7.8l-1.3,0Z" class="g12_21" />
<text 
x="592" 
y="684" 
dx="0,0,0" 
class="s2_21"
>nav</text>

<text 
x="620" 
y="684" 
dx="0" 
class="s3_21"
>.</text>

<path d="M380,360l0,4l-4,0l0,4l-4,0l0,4l-4,0l0,4l-4,0l0,-4l0,-4l0,-4l0,-4l0,-4l0,-4l0,-4l0,-4l0,-4l4,0l0,4l4,0l0,4l4,0l0,4l4,0l0,4l4,0l0,4Z" class="g13_21" />
<path d="M380,882l0,4l-4,0l0,4l-4,0l0,4l-4,0l0,4l-4,0l0,-4l0,-4l0,-4l0,-4l0,-4l0,-4l0,-4l0,-4l0,-4l4,0l0,4l4,0l0,4l4,0l0,4l4,0l0,4l4,0l0,4Z" class="g13_21" />
<path d="M1197,351l0,4l-4,0l0,4l-4,0l0,4l-4,0l0,4l-4,0l0,-4l0,-4l0,-4l0,-4l0,-4l0,-4l0,-4l0,-4l0,-4l4,0l0,4l4,0l0,4l4,0l0,4l4,0l0,4l5,0l0,4Z" class="g13_21" />
<text 
x="426" 
y="315" 
dx="0,0,0,-0.4,0,0,0,0,-1.1,0,-1.1,0,0,0,0,0,0.4" 
class="s5_21"
>Playing a Concert</text>

<text 
x="424" 
y="338" 
dx="0,0,0,0,0,0,0,0,-0.3,0,-0.3,0,0,0,0,0,0,0,-0.3,0,0,0,-0.3,0,0,-0.3,0,0,0,0,0,-0.3,0,0,0,0,-0.3,0,0,-0.3,0,0,-0.3,0,0,0,-0.3,0,0,-0.3,0,0,0,0,0,0,0,-0.3,0,0,0,0,0,0,-0.3,0,0,0,0,0,0,0,0,0,-0.3,0,0,0,0,-0.3,0,0,-0.3,0,0,0" 
class="s6_21"
>Playing a concert can be great fun! Or it can be totally scary! Sometimes both at the </text>

<text 
x="424" 
y="350" 
dx="0,0,0,0,0,-0.5,0,0,0,0" 
class="s6_21"
>same time.</text>

<text 
x="424" 
y="373" 
dx="0,0,0,-0.5,0,0,0,0,0,-0.5,0,0,0,-0.5,0,0,0,0,0,0,0,0,-0.5,0,-0.5,0,0,0,0,-0.5,0,0,-0.5,0,0,0,-0.5,0,0,0,-0.5,0,0,0,0,-0.5,0,0,0,-0.5,0,0,0,0,0,-0.5,0,0,0,0,0,0,0,0" 
class="s7_21"
>So we’ve put together a list of our top tips for great concerts.</text>

<text 
x="424" 
y="397" 
dx="0,0,0,-0.2,0,-0.7,0,0,0,-0.7,0,-0.7,0,0,0,0,0,0,0" 
class="s8_21"
>Copy out a set-list</text>

<text 
x="424" 
y="421" 
dx="0,-0.5" 
class="s7_21"
>A </text>

<text 
x="432" 
y="421" 
dx="0,0,0,0,0,0,0,0" 
class="s9_21"
>set-list</text>

<text 
x="462" 
y="421" 
dx="0,0,0,-0.5,0,-0.5,0,0,0,0,-0.5,0,0,-0.5,0,0,0,-0.5,0,0,0,0,-0.5,0,0,0,0,0,-0.5,0,0,-0.5,0,0,0,-0.5,0,0,0,0,0,-0.5,0,0,0,0,0,0,-0.5,0,0,0,0,-0.5,0,0,0,0" 
class="s7_21"
>is a list of all your songs in the order you’ll play them.</text>

<text 
x="424" 
y="445" 
dx="0,0,0,0,0,-0.5,0,0,0,0,0,0,-0.5,0,0,0,-0.5,0,0,0,0,0,0,0,0" 
class="s7_21"
>Make copies for everyone.</text>

<text 
x="424" 
y="469" 
dx="0,0,0,0,0,0,-0.1,0,0" 
class="s6_21"
>Print it </text>

<text 
x="452" 
y="469" 
dx="0,0,0,0,0" 
class="s9_21"
>BIG! </text>

<text 
x="473" 
y="469" 
dx="0,0,0,-0.1,0,0,0,0,-0.1,0,0,0,-0.1,0,0,0,-0.1,0,0,0,0,0,-0.1,0,0,0,0,-0.1,0,0,-0.1,0,0,-0.1,0,0,-0.2,0,-0.1,0,0,0,0,-0.1,0,0,-0.1,0,0,0,0,-0.1,0,0,0,0,-0.1,0,0,-0.1,0,0,0,-0.1,0,0,0,0,-0.5,0,-0.1,0,0,-0.1,0,0,-0.1,0,0,0" 
class="s7_21"
>so that you can still read it if it’s down by your feet on the floor, or if the </text>

<text 
x="424" 
y="481" 
dx="0,0,0,0,0,0,0,0,0,-0.5,0,0,0,0,0,-0.5,0,0,0,0,-0.5,0,0,0,0" 
class="s7_21"
>lighting isn’t very good.</text>

<text 
x="424" 
y="504" 
dx="0,0,0,0,0,0,0,0,0,-0.7,-0.3,0,0,0,-0.7,0,0,0,0,0" 
class="s8_21"
>Remember your spares</text>

<text 
x="426" 
y="832" 
dx="0,0,0,-0.4,0,0,0,0,-1.1,0,-1.1,0,0,0,0,0,0.4" 
class="s5_21"
>Playing a Concert</text>

<text 
x="424" 
y="854" 
dx="0,0,0,0,0,0,0,0,-0.3,0,-0.3,0,0,0,0,0,0,0,-0.3,0,0,0,-0.3,0,0,-0.3,0,0,0,0,0,-0.3,0,0,0,0,-0.3,0,0,-0.3,0,0,-0.3,0,0,0,-0.3,0,0,-0.3,0,0,0,0,0,0,0,-0.3,0,0,0,0,0,0,-0.3,0,0,0,0,0,0,0,0,0,-0.3,0,0,0,0,-0.3,0,0,-0.3,0,0,0" 
class="s6_21"
>Playing a concert can be great fun! Or it can be totally scary! Sometimes both at the </text>

<text 
x="424" 
y="866" 
dx="0,0,0,0,0,-0.5,0,0,0,0" 
class="s6_21"
>same time.</text>

<text 
x="424" 
y="890" 
dx="0,0,0,-0.5,0,0,0,0,0,-0.5,0,0,0,-0.5,0,0,0,0,0,0,0,0,-0.5,0,-0.5,0,0,0,0,-0.5,0,0,-0.5,0,0,0,-0.5,0,0,0,-0.5,0,0,0,0,-0.5,0,0,0,-0.5,0,0,0,0,0,-0.5,0,0,0,0,0,0,0,0" 
class="s7_21"
>So we’ve put together a list of our top tips for great concerts.</text>

<text 
x="424" 
y="914" 
dx="0,0,0,-0.2,0,-0.7,0,0,0,-0.7,0,-0.7,0,0,0,0,0,0,0" 
class="s8_21"
>Copy out a set-list</text>

<text 
x="424" 
y="938" 
dx="0,-0.5" 
class="s7_21"
>A </text>

<text 
x="432" 
y="938" 
dx="0,0,0,0,0,0,0,0,0" 
class="s9_21"
>set-list </text>

<text 
x="462" 
y="938" 
dx="0,0,0,-0.5,0,-0.5,0,0,0,0,-0.5,0,0,-0.5,0,0,0,-0.5,0,0,0,0,-0.5,0,0,0,0,0,-0.5,0,0,-0.5,0,0,0,-0.5,0,0,0,0,0,-0.5,0,0,0,0,0,0,-0.5,0,0,0,0,-0.5,0,0,0,0" 
class="s7_21"
>is a list of all your songs in the order you’ll play them.</text>

<text 
x="424" 
y="961" 
dx="0,0,0,0,0,-0.5,0,0,0,0,0,0,-0.5,0,0,0,-0.5,0,0,0,0,0,0,0,0" 
class="s7_21"
>Make copies for everyone.</text>

<text 
x="424" 
y="985" 
dx="0,0,0,0,0,0,-0.1,0,0" 
class="s6_21"
>Print it </text>

<text 
x="452" 
y="985" 
dx="0,0,0,0" 
class="s9_21"
>BIG!</text>

<text 
x="473" 
y="985" 
dx="0,0,0,-0.1,0,0,0,0,-0.1,0,0,0,-0.1,0,0,0,-0.1,0,0,0,0,0,-0.1,0,0,0,0,-0.1,0,0,-0.1,0,0,-0.1,0,0,-0.2,0,-0.1,0,0,0,0,-0.1,0,0,-0.1,0,0,0,0,-0.1,0,0,0,0,-0.1,0,0,-0.1,0,0,0,-0.1,0,0,0,0,-0.5,0,-0.1,0,0,-0.1,0,0,-0.1,0,0,0" 
class="s7_21"
>so that you can still read it if it’s down by your feet on the floor, or if the </text>

<text 
x="424" 
y="997" 
dx="0,0,0,0,0,0,0,0,0,-0.5,0,0,0,0,0,-0.5,0,0,0,0,-0.5,0,0,0,0" 
class="s7_21"
>lighting isn’t very good.</text>

<text 
x="1244" 
y="255" 
dx="0,0,0,-0.4,0,0,0,0,-1.1,0,-1.1,0,0,0,0,0,0.4" 
class="s5_21"
>Playing a Concert</text>

<text 
x="1242" 
y="281" 
dx="0,0,0,0,0,0,0,0,-0.3,0,-0.3,0,0,0,0,0,0,0,-0.3,0,0,0,-0.3,0,0,-0.3,0,0,0,0,0,-0.3,0,0,0,0,-0.3,0,0,-0.3,0,0,-0.3,0,0,0,-0.3,0,0,-0.3,0,0,0,0,0,0,0,-0.3,0,0,0,0,0,0,-0.3,0,0,0,0,0,0,0,0,0,-0.3,0,0,0,0,-0.3,0,0,-0.3,0,0,0" 
class="s6_21"
>Playing a concert can be great fun! Or it can be totally scary! Sometimes both at the </text>

<text 
x="1242" 
y="293" 
dx="0,0,0,0,0,-0.5,0,0,0,0" 
class="s6_21"
>same time.</text>

<text 
x="1242" 
y="317" 
dx="0,0,0,-0.5,0,0,0,0,0,-0.5,0,0,0,-0.5,0,0,0,0,0,0,0,0,-0.5,0,-0.5,0,0,0,0,-0.5,0,0,-0.5,0,0,0,-0.5,0,0,0,-0.5,0,0,0,0,-0.5,0,0,0,-0.5,0,0,0,0,0,-0.5,0,0,0,0,0,0,0,0" 
class="s7_21"
>So we’ve put together a list of our top tips for great concerts.</text>

<text 
x="1242" 
y="340" 
dx="0,0,0,-0.2,0,-0.7,0,0,0,-0.7,0,-0.7,0,0,0,0,0,0,0" 
class="s8_21"
>Copy out a set-list</text>

<text 
x="1242" 
y="364" 
dx="0,-0.5" 
class="s7_21"
>A </text>

<text 
x="1250" 
y="364" 
dx="0,0,0,0,0,0,0,0,0" 
class="s9_21"
>set-list </text>

<text 
x="1281" 
y="364" 
dx="0,0,0,-0.5,0,-0.5,0,0,0,0,-0.5,0,0,-0.5,0,0,0,-0.5,0,0,0,0,-0.5,0,0,0,0,0,-0.5,0,0,-0.5,0,0,0,-0.5,0,0,0,0,0,-0.5,0,0,0,0,0,0,-0.5,0,0,0,0,-0.5,0,0,0,0" 
class="s7_21"
>is a list of all your songs in the order you’ll play them.</text>

<text 
x="1242" 
y="388" 
dx="0,0,0,0,0,-0.5,0,0,0,0,0,0,-0.5,0,0,0,-0.5,0,0,0,0,0,0,0,0" 
class="s7_21"
>Make copies for everyone.</text>

<text 
x="1242" 
y="412" 
dx="0,0,0,0,0,0,-0.1,0,0" 
class="s6_21"
>Print it </text>

<text 
x="1270" 
y="412" 
dx="0,0,0,0" 
class="s9_21"
>BIG!</text>

<text 
x="1291" 
y="412" 
dx="0,0,0,-0.1,0,0,0,0,-0.1,0,0,0,-0.1,0,0,0,-0.1,0,0,0,0,0,-0.1,0,0,0,0,-0.1,0,0,-0.1,0,0,-0.1,0,0,-0.2,0,-0.1,0,0,0,0,-0.1,0,0,-0.1,0,0,0,0,-0.1,0,0,0,0,-0.1,0,0,-0.1,0,0,0,-0.1,0,0,0,0,-0.5,0,-0.1,0,0,-0.1,0,0,-0.1,0,0,0" 
class="s7_21"
>so that you can still read it if it’s down by your feet on the floor, or if the </text>

<text 
x="1242" 
y="424" 
dx="0,0,0,0,0,0,0,0,0,-0.5,0,0,0,0,0,-0.5,0,0,0,0,-0.5,0,0,0,0" 
class="s7_21"
>lighting isn’t very good.</text>

<text 
x="1242" 
y="448" 
dx="0,0,0,0,0,0,0,0,0,-0.7,-0.3,0,0,0,-0.7,0,0,0,0,0" 
class="s8_21"
>Remember your spares</text>

<text 
x="1242" 
y="471" 
dx="0,0,0,0,0,0.7,0,0,0,0,0,0,0,0,0,0,0,0.7,0,0,0,0,0.7,0,0,0,0,0,0.7,0,0,0,0,0.7,0,0,0,0,0.7,0,0,0.7,0,0,0.7,0,0,0,0,0,0,0,0,0.7,0,0,0.7,0,0,0,0,0.7,0,0,0,0,0.7,0,0,0,0.7,0,0,0.7,0,0,0,0,0,0" 
class="s7_21"
>Some instruments have parts that need to be replaced if they wear out or break. </text>

<text 
x="1242" 
y="483" 
dx="0,0,0,0,-0.5,0,0,0,0,0,0,0" 
class="s7_21"
>For example:</text>

<text 
x="1256" 
y="507" 
dx="0" 
class="s10_21"
>•</text>

<text 
x="1269" 
y="507" 
dx="0,0,0,0,0,0,0,-0.5,0,0,0,0,0,0" 
class="s6_21"
>guitar strings</text>

<text 
x="1256" 
y="519" 
dx="0" 
class="s10_21"
>•</text>

<text 
x="1269" 
y="519" 
dx="0,0,0,0,0,0,0,0,0,0,-0.5,0,0,-0.5,0,0,0,0,0,0,0,0,-0.5,0,0,0,0" 
class="s7_21"
>saxophone or clarinet reeds</text>

<text 
x="1256" 
y="531" 
dx="0" 
class="s10_21"
>•</text>

<text 
x="1269" 
y="531" 
dx="0,0,0,0,0,0,0,0,0,0" 
class="s7_21"
>drumsticks</text>

<path d="M416.5,273.5l32,0" class="g14_21" />
<path d="M460.5,273.5l51,0" class="g14_21" />
<path d="M521.5,273.5l58,0" class="g14_21" />
<path d="M589.5,273.5l64,0" class="g14_21" />
<path d="M663.5,273.5l96,0" class="g14_21" />
<text 
x="416" 
y="269" 
dx="0,0,0,0,0" 
class="s11_21"
>Home </text>

<text 
x="460" 
y="269" 
dx="0,0,0,0,0,0,-0.6,0,0" 
class="s11_21"
>About Us </text>

<text 
x="521" 
y="269" 
dx="0,0,0,0,-0.6,0,0,0,0,0" 
class="s11_21"
>Our Songs </text>

<text 
x="589" 
y="269" 
dx="0,0,0,0,-0.6,0,0,-0.6,0,0,-0.2,0" 
class="s11_21"
>See Us Play </text>

<text 
x="663" 
y="269" 
dx="0,0,0,-0.2,0,0,0,0,-0.6,0,-0.6,0,0,0,0,0,0.2" 
class="s11_21"
>Playing a Concert</text>

<text 
x="416" 
y="785" 
dx="0,0,0,0,0" 
class="s11_21"
>Home </text>

<text 
x="460" 
y="785" 
dx="0,0,0,0,0,0,-0.6,0,0" 
class="s11_21"
>About Us </text>

<text 
x="521" 
y="785" 
dx="0,0,0,0,-0.6,0,0,0,0,0" 
class="s11_21"
>Our Songs </text>

<text 
x="589" 
y="785" 
dx="0,0,0,0,-0.6,0,0,-0.6,0,0,-0.2,0" 
class="s11_21"
>See Us Play </text>

<text 
x="663" 
y="785" 
dx="0,0,0,-0.2,0,0,0,0,-0.6,0,-0.6,0,0,0,0,0,0.2" 
class="s11_21"
>Playing a Concert</text>

<text 
x="1233" 
y="211" 
dx="0,0,0,0,0" 
class="s12_21"
>Home </text>

<text 
x="1277" 
y="211" 
dx="0,0,0,0,0,0,-0.6,0,0" 
class="s12_21"
>About Us </text>

<text 
x="1338" 
y="211" 
dx="0,0,0,0,-0.6,0,0,0,0,0" 
class="s12_21"
>Our Songs </text>

<text 
x="1406" 
y="211" 
dx="0,0,0,0,-0.6,0,0,-0.6,0,0,-0.2,0" 
class="s12_21"
>See Us Play </text>

<text 
x="1480" 
y="211" 
dx="0,0,0,-0.2,0,0,0,0,-0.6,0,-0.6,0,0,0,0,0,0.2" 
class="s12_21"
>Playing a Concert</text>

<path d="M454,255l0,18" class="g15_21" />
<path d="M515,255l0,18" class="g15_21" />
<path d="M584,255l0,18" class="g15_21" />
<path d="M658,255l0,18" class="g15_21" />
<path d="M454,771l0,17" class="g15_21" />
<path d="M515,771l0,17" class="g15_21" />
<path d="M584,771l0,17" class="g15_21" />
<path d="M658,771l0,17" class="g15_21" />
<path d="M1271,197l0,17" class="g16_21" />
<path d="M1332,197l0,17" class="g16_21" />
<path d="M1401,197l0,17" class="g16_21" />
<path d="M1475,197l0,17" class="g16_21" />
<path d="M1600,725l-5,0l0,4l-175,0l0,-113l175,0l0,5l5,0Z" class="g13_21" />
<path d="M1600.5,725.5l-5,0l0,4l-175,0l0,-113l175,0l0,5l5,0l0,104Z" class="g17_21" />
<path d="M1441.5,713.5l146,0" class="g18_21" />
<path d="M1441.5,717.5l146,0" class="g18_21" />
<text 
x="1439" 
y="671" 
dx="0,-4.2,-6.4,-4.3" 
class="s13_21"
>Menu</text>

<text 
x="1441" 
y="706" 
dx="0,-2.4,-3,-3.3,-3,-3.6,-3,0" 
class="s14_21"
>Mastery!</text>

<text 
x="1322" 
y="607" 
dx="0,-1.6,-1.8,-1.7,-1.9,0,0,-1.6,-1.5,-2.6,-1.6,-2.3,-2.1,-2.5" 
class="s15_21"
>Badge unlocked</text>

<path d="M1311.5,725.5l4,0l0,4l280,0l0,-4l5,0l0,-104l-5,0l0,-5l-284,0l0,109Z" class="g17_21" />
<path d="M1311.5,616.5l201,0l0,-29l-2,0l-3,0l0,-2l0,-2l-192,0l0,2l0,2l-2,0l-2,0l0,29Z" class="g17_21" />
<text 
x="1591" 
y="1019" 
dx="0,-1.2" 
class="s16_21"
>41</text>

<text 
x="35" 
y="1019" 
dx="0,-1" 
class="s16_21"
>40</text>



<!-- Any embedded fonts defined here -->
<style type="text/css" ><![CDATA[

@font-face {
	font-family: AndaleMono_1cn;
	src: url("fonts/AndaleMono_1cn.woff") format("woff");
}

@font-face {
	font-family: Helvetica-LightOblique_1di;
	src: url("fonts/Helvetica-LightOblique_1di.woff") format("woff");
}

@font-face {
	font-family: Helvetica-Light_1by;
	src: url("fonts/Helvetica-Light_1by.woff") format("woff");
}

@font-face {
	font-family: PixelSplitter-Bold_i0;
	src: url("fonts/PixelSplitter-Bold_i0.woff") format("woff");
}

@font-face {
	font-family: Helvetica_1dx;
	src: url("fonts/Helvetica_1dx.woff") format("woff");
}

@font-face {
	font-family: PixelSplitter-Bold_1bs;
	src: url("fonts/PixelSplitter-Bold_1bs.woff") format("woff");
}

@font-face {
	font-family: Helvetica-Bold_1bu;
	src: url("fonts/Helvetica-Bold_1bu.woff") format("woff");
}

@font-face {
	font-family: Helvetica_1e3;
	src: url("fonts/Helvetica_1e3.woff") format("woff");
}

]]></style>

</svg>
