<?xml version="1.0" encoding="UTF-8" standalone="no"?>
<!DOCTYPE svg PUBLIC "-//W3C//DTD SVG 1.1//EN"
"http://www.w3.org/Graphics/SVG/1.1/DTD/svg11.dtd">


<!-- Page 22 -->
<svg x="0" y="0" width="1645" height="1061" viewBox="0 0 1645 1061" version="1.1" xmlns="http://www.w3.org/2000/svg" xmlns:xlink="http://www.w3.org/1999/xlink"
style="display: block;margin-left: auto;margin-right: auto;">
<defs>

<style type="text/css"><![CDATA[

.g8_22{
fill: #FAAD60;
}
.g9_22{
fill: #F37A6D;
}
.g14_22{
fill: none;
stroke: #89BA6E;
stroke-width: 5;
stroke-linecap: butt;
stroke-linejoin: miter;
stroke-miterlimit: 4;
}
.g6_22{
fill: none;
stroke: #FFFFFF;
stroke-width: 2;
stroke-linecap: round;
stroke-linejoin: round;
stroke-miterlimit: 4;
}
.g13_22{
fill: none;
stroke: #F37A6D;
stroke-width: 5;
stroke-linecap: butt;
stroke-linejoin: miter;
stroke-miterlimit: 4;
}
.g15_22{
fill: none;
stroke: #11151D;
stroke-width: 1;
stroke-linecap: butt;
stroke-linejoin: miter;
stroke-miterlimit: 3;
}
.g2_22{
fill: none;
stroke: #989898;
stroke-width: 5;
stroke-linecap: butt;
stroke-linejoin: miter;
stroke-miterlimit: 4;
}
.g12_22{
fill: #89BA6E;
}
.g10_22{
fill: #C7EAFB;
}
.g1_22{
fill: #FFFFFF;
}
.g5_22{
fill: none;
stroke: #FFFFFF;
stroke-width: 1;
stroke-linecap: round;
stroke-linejoin: round;
}
.g4_22{
fill: none;
stroke: #FFFFFF;
stroke-width: 3;
stroke-linecap: round;
stroke-linejoin: round;
stroke-miterlimit: 4;
}
.g11_22{
fill: none;
stroke: #00AEEF;
stroke-width: 3;
stroke-linecap: butt;
stroke-linejoin: miter;
stroke-miterlimit: 4;
}
.g16_22{
fill: #11151D;
}
.g3_22{
fill: #989797;
}
.g17_22{
fill: none;
stroke: #11151D;
stroke-width: 1;
stroke-linecap: butt;
stroke-linejoin: miter;
stroke-miterlimit: 4;
}
.g7_22{
fill: #B3CBC8;
}

.s3_22{
font-size: 15.28px;
font-family: Helvetica-Bold_1bu;
fill: #11151D;
}
.s9_22{
font-size: 14.45px;
font-family: Helvetica-Bold_1bu;
fill: #11151D;
}
.s5_22{
font-size: 21.39px;
font-family: PixelSplitter-Bold_1bs;
fill: #11151D;
}
.s11_22{
font-size: 12.22px;
font-family: PixelSplitter-Bold_1bs;
fill: #11151D;
}
.s8_22{
font-size: 18.33px;
font-family: Wingdings-Regular_1c4;
fill: #11151D;
}
.s7_22{
font-size: 34.44px;
font-family: AndaleMono_ih;
fill: #FFFFFF;
}
.s10_22{
font-size: 12.85px;
font-family: Helvetica-Light_1by;
fill: #11151D;
}
.s6_22{
font-size: 29.95px;
font-family: PixelSplitter-Bold_if;
fill: #FFFFFF;
}
.s4_22{
font-size: 27.05px;
font-family: PixelSplitter-Bold_i9;
fill: #FFFFFF;
}
.s1_22{
font-size: 15.28px;
font-family: Helvetica-Light_1by;
fill: #11151D;
}
.s2_22{
font-size: 15.28px;
font-family: AndaleMono_1cn;
fill: #11151D;
}

]]></style>

</defs>
<path d="M0,0
L0,1061
L1645,1061
L1645,0 Z " 
fill="#FFFFFF" stroke="none" />
<image x="-33" y="-32" width="1713" height="1115" xlink:href="22/img/1.png" />
<image x="-13" y="-11" width="1674" height="1073" opacity="0.5" xlink:href="22/img/2.png" />
<image x="1260" y="110" width="344" height="214" xlink:href="22/img/3.png" />
<path d="M874,323l0,2l0,2l-3,0l-2,0l0,87l2,0l3,0l0,2l0,2l721,0l0,-2l0,-2l3,0l2,0l0,-87l-2,0l-3,0l0,-2l0,-2Z" class="g1_22" />
<path d="M874.5,323.5l0,2l0,2l-3,0l-2,0l0,87l2,0l3,0l0,2l0,2l721,0l0,-2l0,-2l3,0l2,0l0,-87l-2,0l-3,0l0,-2l0,-2l-721,0Z" class="g2_22" />
<path d="M871,321l0,4l-4,0l0,33l735,0l0,-33l-4,0l0,-4Z" class="g3_22" />
<path d="M887.7,337.6c1.7,0,3.2,-1.4,3.2,-3.2c0,-1.8,-1.5,-3.2,-3.2,-3.2c-1.8,0,-3.3,1.4,-3.3,3.2c0,1.8,1.5,3.2,3.3,3.2Z" class="g1_22" />
<path d="M900.2,337.6c1.7,0,3.2,-1.4,3.2,-3.2c0,-1.8,-1.5,-3.2,-3.2,-3.2c-1.8,0,-3.3,1.4,-3.3,3.2c0,1.8,1.5,3.2,3.3,3.2Z" class="g1_22" />
<path d="M912.7,337.6c1.7,0,3.2,-1.4,3.2,-3.2c0,-1.8,-1.5,-3.2,-3.2,-3.2c-1.8,0,-3.3,1.4,-3.3,3.2c0,1.8,1.5,3.2,3.3,3.2Z" class="g1_22" />
<path d="M884.6,343.8c0,0,-2.1,0,-2.1,2.2l0,4.8c0,0,0,2.2,2.1,2.2l688.3,0c0,0,2.2,0,2.2,-2.2l0,-4.8c0,0,0,-2.2,-2.2,-2.2Z" class="g1_22" />
<path d="M968,345l-2.9,3.4l2.9,3.4" class="g4_22" />
<path d="M1593.7,344.3l0,4.1c-0.6,-0.1,-1.1,-0.2,-1.6,-0.3c-0.7,-0.1,-1.4,-0.2,-2.1,-0.4c-0.2,0,-0.3,0,-0.4,-0.1c0.4,-0.3,0.9,-0.7,1.4,-1.1c-0.7,-0.5,-1.4,-0.6,-2.2,-0.4c-0.7,0.2,-1.3,0.6,-1.7,1.2c-0.4,0.6,-0.5,1.3,-0.4,2c0.1,0.7,0.4,1.3,1,1.7c0.6,0.6,1.5,0.8,2.3,0.6c0.9,-0.2,1.6,-0.7,2,-1.5c0,-0.1,0,-0.1,0,-0.1c0.5,0.1,1,0.2,1.6,0.4c-0.4,0.8,-0.9,1.5,-1.6,2c-0.7,0.5,-1.5,0.8,-2.4,0.8c0,0,-0.1,0,-0.1,0l-0.2,0c0,0,-0.1,0,-0.1,0c-0.3,0,-0.6,0,-0.9,-0.1c-0.9,-0.2,-1.6,-0.7,-2.2,-1.4c-0.6,-0.7,-1,-1.5,-1.1,-2.4c0,-0.1,0,-0.2,0,-0.3l0,-0.3c0,0,0,-0.1,0,-0.1c0.1,-0.2,0.1,-0.3,0.1,-0.5c0.1,-0.9,0.5,-1.6,1.1,-2.3c0.7,-0.7,1.5,-1.1,2.4,-1.3c0.6,-0.1,1.1,-0.1,1.6,0c0.8,0.1,1.4,0.5,2,0.9c0,0.1,0.1,0.1,0.1,0c0.3,-0.2,0.6,-0.4,0.9,-0.6c0.1,-0.2,0.3,-0.3,0.5,-0.5Z" class="g1_22" />
<path d="M1593.7,344.3l0,4.1c-0.6,-0.1,-1.1,-0.2,-1.6,-0.3c-0.7,-0.1,-1.4,-0.2,-2.1,-0.4c-0.2,0,-0.3,0,-0.4,-0.1c0.4,-0.3,0.9,-0.7,1.4,-1.1c-0.7,-0.5,-1.4,-0.6,-2.2,-0.4c-0.7,0.2,-1.3,0.6,-1.7,1.2c-0.4,0.6,-0.5,1.3,-0.4,2c0.1,0.7,0.4,1.3,1,1.7c0.6,0.6,1.5,0.8,2.3,0.6c0.9,-0.2,1.6,-0.7,2,-1.5c0,-0.1,0,-0.1,0,-0.1c0.5,0.1,1,0.2,1.6,0.4c-0.4,0.8,-0.9,1.5,-1.6,2c-0.7,0.5,-1.5,0.8,-2.4,0.8c0,0,-0.1,0,-0.1,0l-0.2,0c0,0,-0.1,0,-0.1,0c-0.3,0,-0.6,0,-0.9,-0.1c-0.9,-0.2,-1.6,-0.7,-2.2,-1.4c-0.6,-0.7,-1,-1.5,-1.1,-2.4c0,-0.1,0,-0.2,0,-0.3l0,-0.3c0,0,0,-0.1,0,-0.1c0.1,-0.2,0.1,-0.3,0.1,-0.5c0.1,-0.9,0.5,-1.6,1.1,-2.3c0.7,-0.7,1.5,-1.1,2.4,-1.3c0.6,-0.1,1.1,-0.1,1.6,0c0.8,0.1,1.4,0.5,2,0.9c0,0.1,0.1,0.1,0.1,0c0.3,-0.2,0.6,-0.4,0.9,-0.6c0.1,-0.2,0.3,-0.3,0.5,-0.5Z" class="g5_22" />
<path d="M1584,331l9,0" class="g6_22" />
<path d="M1584,334l9,0" class="g6_22" />
<path d="M1584,336l9,0" class="g6_22" />
<path d="M878.4,345l-2.9,3.4l2.9,3.4" class="g4_22" />
<path d="M779.5,213.1l0,-57.6l-4.3,0l0,-4.3l-142.9,0l0,4.3l-4.3,0l0,57.6l10.8,-9.5l10.8,9.5l10.8,-9.5l10.9,9.5l10.8,-9.5l10.8,9.5l10.8,-9.5l10.9,9.5l10.8,-9.5l10.8,9.5L747,203.6l10.9,9.5l10.8,-9.5Z" class="g7_22" />
<path d="M779.5,287.4l0,-57.6l-10.8,9.5l-10.8,-9.5L747,239.3l-10.8,-9.5l-10.8,9.5l-10.8,-9.5l-10.9,9.5l-10.8,-9.5l-10.8,9.5l-10.8,-9.5l-10.9,9.5l-10.8,-9.5l-10.8,9.5L628,229.8l0,57.6l4.3,0l0,4.4l142.9,0l0,-4.4Z" class="g7_22" />
<path d="M778.4,575.9l0,-4.4l0,-222.7l-4.3,0l0,-4.3l-725.3,0l0,4.3l-4.3,0l0,222.7l0,4.4l11.1,-9.8l11.2,9.8l11.1,-9.8L89,575.9l11.1,-9.8l11.1,9.8l11.2,-9.8l11.1,9.8l11.1,-9.8l11.1,9.8l11.1,-9.8l11.2,9.8l11.1,-9.8l11.1,9.8l11.1,-9.8l11.1,9.8l11.2,-9.8l11.1,9.8l11.1,-9.8l11.1,9.8L278,566.1l11.2,9.8l11.1,-9.8l11.1,9.8l11.1,-9.8l11.1,9.8l11.2,-9.8l11.1,9.8L367,566.1l11.1,9.8l11.1,-9.8l11.2,9.8l11.1,-9.8l11.1,9.8l11.1,-9.8l11.1,9.8L456,566.1l11.1,9.8l11.1,-9.8l11.1,9.8l11.1,-9.8l11.2,9.8l11.1,-9.8l11.1,9.8l11.1,-9.8l11.1,9.8l11.2,-9.8l11.1,9.8l11.1,-9.8l11.1,9.8l11.1,-9.8l11.2,9.8l11.1,-9.8l11.1,9.8l11.1,-9.8l11.1,9.8l11.2,-9.8l11.1,9.8l11.1,-9.8l11.1,9.8l11.1,-9.8l11.2,9.8l11.1,-9.8l11.1,9.8l11.1,-9.8Z" class="g7_22" />
<path d="M531.8,847.7l0,-210.6l-4.3,0l0,-4.3l-479.9,0l0,4.3l-4.3,0l0,209.9l10.3,-9.1l11.2,9.8l11.1,-9.8L87,847.7l11.1,-9.8l11.1,9.8l11.2,-9.8l11.1,9.8l11.1,-9.8l11.1,9.8l11.1,-9.8l11.2,9.8l11.1,-9.8l11.1,9.8l11.1,-9.8l11.1,9.8l11.2,-9.8l11.1,9.8l11.1,-9.8l11.1,9.8L276,837.9l11.2,9.8l11.1,-9.8l11.1,9.8l11.1,-9.8l11.1,9.8l11.2,-9.8l11.1,9.8L365,837.9l11.1,9.8l11.1,-9.8l11.2,9.8l11.1,-9.8l11.1,9.8l11.1,-9.8l11.1,9.8L454,837.9l11.1,9.8l11.1,-9.8l11.1,9.8l11.1,-9.8l11.2,9.8l11.1,-9.8Z" class="g7_22" />
<path d="M549,663l0,4l-5,0l0,91l5,0l0,4l226,0l0,-4l4,0l0,-91l-4,0l0,-4Z" class="g8_22" />
<path d="M550,875l0,5l-4,0l0,134l4,0l0,4l225,0l0,-4l4,0l0,-134l-4,0l0,-5Z" class="g8_22" />
<path d="M360,214l0,4l-4,0l0,69l4,0l0,5l245,0l0,-5l4,0l0,-69l-4,0l0,-4Z" class="g8_22" />
<path d="M871,491l0,4l-4,0l0,66l4,0l0,5l460,0l0,-5l5,0l0,-66l-5,0l0,-4Z" class="g7_22" />
<path d="M1364,552l0,4l-4,0l0,287l4,0l0,4l224,0l0,-4l4,0l0,-287l-4,0l0,-4Z" class="g8_22" />
<path d="M872,585l0,5l-5,0l0,88l5,0l0,4l92,0l0,-97Z" class="g9_22" />
<image x="877" y="590" width="87" height="89" xlink:href="22/img/4.png" />
<path d="M904.2,368.6c0,0,-13,0,-13,13l0,11.3c0,0,0,12.9,13,12.9l664.8,0c0,0,12.9,0,12.9,-12.9l0,-11.3c0,0,0,-13,-12.9,-13Z" class="g10_22" />
<path d="M904.2,368.6c0,0,-13,0,-13,13l0,11.3c0,0,0,12.9,13,12.9l664.8,0c0,0,12.9,0,12.9,-12.9l0,-11.3c0,0,0,-13,-12.9,-13l-664.8,0Z" class="g11_22" />
<path d="M870,857l0,4l-4,0l0,88l4,0l0,4l92,0l0,-96Z" class="g12_22" />
<image x="874" y="861" width="87" height="89" xlink:href="22/img/5.png" />
<path d="M966,630l0,211l2,0l3,0l0,2l0,2l364,0l0,-2l0,-2l3,0l2,0l0,-206l-2,0l-3,0l0,-3l0,-2Z" class="g1_22" />
<path d="M966.5,630.5l0,211l2,0l3,0l0,2l0,2l364,0l0,-2l0,-2l3,0l2,0l0,-206l-2,0l-3,0l0,-3l0,-2l-369,0Z" class="g13_22" />
<path d="M964,585l0,44l259,0l0,-39l-4,0l0,-5Z" class="g9_22" />
<path d="M965,901l0,105l2,0l2,0l0,2l0,2l608,0l0,-2l0,-2l2,0l2,0l0,-101l-2,0l-2,0l0,-2l0,-2Z" class="g1_22" />
<path d="M965.5,901.5l0,105l2,0l2,0l0,2l0,2l608,0l0,-2l0,-2l2,0l2,0l0,-101l-2,0l-2,0l0,-2l0,-2l-612,0Z" class="g14_22" />
<path d="M962,857l0,43l176,0l0,-39l-5,0l0,-4Z" class="g12_22" />
<path d="M47,53l0,4l-4,0l0,34l4,0l0,4l728,0l0,-4l4,0l0,-34l-4,0l0,-4Z" class="g8_22" />
<path d="M870,53l0,5l-4,0l0,45l4,0l0,4l728,0l0,-4l4,0l0,-45l-4,0l0,-5Z" class="g8_22" />
<text 
transform="matrix(0.98, 0, 0, 1, 56, 128)"
dx="0,-1.4,0,0,-0.9,0,0,0,-0.9,-0.3,0,0,0,0,0,0,0,-0.9,0,0,0,0,-0.9,0,0,0,0,-0.9,0,0,-0.9,0,0,0,0,0,-0.9,0,0,0,-0.9,0,0,0,0,-0.9,0,0,-0.9,0,0,0,-0.3,0,0,0,0,0,0,-0.9,0,0,-0.9,0,0,0,0,-0.9,0" 
class="s1_22"
>You may remember that when we added the menu we surrounded it with a </text>

<path d="M553.9,123.5c0,-1.7,-0.7,-2.6,-2.1,-2.6c-0.9,0,-1.8,0.4,-2.6,1.3l0,-1.1l-1.1,0l0,7.8l1.1,0l0,-5.7c0.8,-0.8,1.5,-1.3,2.2,-1.3c0.5,0,0.9,0.2,1.1,0.5c0.2,0.3,0.3,0.8,0.3,1.5l0,5l1.1,0l0,-5.4Z" class="g15_22" />
<path d="M562.9,127.1l0,-3.4c0,-1.9,-0.8,-2.8,-2.6,-2.8c-0.9,0,-1.8,0.3,-2.9,0.8l0.3,0.9c0.4,-0.2,0.7,-0.4,1.2,-0.5c0.4,-0.1,0.8,-0.2,1.1,-0.2c1.2,0,1.8,0.7,1.8,2l0,0.4l-1.3,0.1c-0.6,0,-1.1,0.1,-1.5,0.2c-0.4,0.1,-0.8,0.3,-1,0.5c-0.3,0.2,-0.6,0.5,-0.7,0.7c-0.2,0.3,-0.2,0.7,-0.2,1.1c0,0.6,0.2,1.1,0.6,1.5c0.4,0.5,0.9,0.7,1.5,0.7c1.1,0,2,-0.5,2.7,-1.5c0,0.5,0,0.9,0.1,1.3l1.1,0c-0.1,-0.6,-0.2,-1.2,-0.2,-1.8Zm-2.2,0.5c-0.4,0.2,-0.8,0.3,-1.2,0.3c-0.3,0,-0.6,-0.1,-0.9,-0.3c-0.2,-0.2,-0.3,-0.5,-0.3,-0.8c0,-0.4,0.1,-0.7,0.4,-0.9c0.3,-0.3,0.6,-0.4,1,-0.5c0.4,-0.1,1.1,-0.2,2.1,-0.3l0,1.5c-0.3,0.4,-0.7,0.7,-1.1,1Z" class="g15_22" />
<path d="M571.1,121.1l-2.2,6.2l-2.2,-6.2l-1.2,0l2.9,7.8l1,0l2.9,-7.8l-1.2,0Z" class="g15_22" />
<text 
transform="matrix(0.98, 0, 0, 1, 546, 128)"
dx="0,0,0" 
class="s2_22"
>nav</text>

<text 
transform="matrix(0.98, 0, 0, 1, 576, 128)"
dx="0,0,0,0,0,0,0,0,0,-0.9,0,0,0,0,-0.9,0,0,0,0" 
class="s1_22"
>element. Like this:</text>

<text 
transform="matrix(0.98, 0, 0, 1, 56, 171)"
dx="0,0,0,1,0,0,0,0,0,1,0,0,0,0,1,0,0,1,0,0,0,0,1,0,0,0,1,0,0,0,0,1,0,0,0,0,0,0,1,0,0,1,-0.3,0,0,0,1,0,0,0,1,0,0,0,0,1,0,0,0,0,1,0,0,1,0,0,0,0,0,0,0,0,1,0,0,1,0,0,0" 
class="s1_22"
>By doing this we make the code easier to read and also make it possible to add </text>

<text 
transform="matrix(0.98, 0, 0, 1, 56, 193)"
dx="0,0,0,0,0,0,-0.9,0,0,-0.9,0,0,0,-0.9,0,0,0,0,0,0,0,0,0,0,-0.9,0,0,0,0,-0.9,0,0,0,0,0,0,0,-0.9,0,0,0,0,-0.9,0,0,-0.9,0,0,0,-0.9,0,0,0,0" 
class="s1_22"
>rules in the stylesheet that applied only to the menu.</text>

<text 
transform="matrix(0.98, 0, 0, 1, 56, 235)"
dx="0,0,0,0,0.9,0,0,0,0,0.9,0,0,0.9,0,0,0,0.9,0,0,0,0,0,0.9,0,0,0,0,0.9,0,0,0,0,0,0,0.9,0,0,0,0,0.9,0,0,0" 
class="s1_22"
>The rule to the right will change only the </text>

<text 
transform="matrix(0.98, 0, 0, 1, 56, 257)"
dx="0,0,0,0,0,0,-0.3,0,0,0,0,9,0,0,0,0,0,0,0,9,0,0" 
class="s1_22"
>background colours of </text>

<path d="M246,249.4l-1.1,0l0,5.6c-0.8,0.9,-1.5,1.4,-2.2,1.4c-0.5,0,-0.9,-0.2,-1.1,-0.5c-0.2,-0.3,-0.3,-0.8,-0.3,-1.5l0,-5l-1.1,0l0,5.3c0,1.8,0.7,2.7,2.1,2.7c0.9,0,1.8,-0.5,2.6,-1.4l0,1.2l1.1,0l0,-7.8Z" class="g15_22" />
<path d="M254.5,256.5l-2,0l0,-10l-3,0l0,1l2,0l0,10l3,0l0,-1Z" class="g15_22" />
<text 
transform="matrix(0.98, 0, 0, 1, 238, 257)"
dx="0,0" 
class="s2_22"
>ul</text>

<text 
transform="matrix(0.98, 0, 0, 1, 269, 257)"
dx="0,0,0,0,0,0,0,0,0" 
class="s1_22"
>elements </text>

<text 
transform="matrix(0.98, 0, 0, 1, 56, 278)"
dx="0,0,0,0,0,0,0,-0.9,0" 
class="s1_22"
>inside a </text>

<path d="M118.8,273.3c0,-1.8,-0.7,-2.7,-2.1,-2.7c-0.9,0,-1.8,0.5,-2.6,1.4l0,-1.2l-1.2,0l0,7.8l1.2,0l0,-5.6c0.8,-0.9,1.5,-1.4,2.2,-1.4c0.5,0,0.8,0.2,1,0.5c0.3,0.3,0.4,0.8,0.4,1.5l0,5l1.1,0l0,-5.3Z" class="g15_22" />
<path d="M127.8,276.8l0,-3.4c0,-1.8,-0.9,-2.8,-2.6,-2.8c-0.9,0,-1.9,0.3,-2.9,0.8l0.3,0.9c0.3,-0.2,0.7,-0.4,1.1,-0.5c0.5,-0.1,0.8,-0.2,1.1,-0.2c1.3,0,1.9,0.7,1.9,2l0,0.4l-1.3,0.1c-0.6,0.1,-1.1,0.1,-1.5,0.3c-0.4,0.1,-0.8,0.2,-1.1,0.4c-0.3,0.2,-0.5,0.5,-0.6,0.8c-0.2,0.3,-0.3,0.6,-0.3,1c0,0.6,0.2,1.2,0.7,1.6c0.4,0.4,0.9,0.6,1.5,0.6c1.1,0,2,-0.5,2.6,-1.5c0,0.6,0.1,1,0.2,1.3l1.1,0c-0.1,-0.5,-0.2,-1.1,-0.2,-1.8Zm-2.2,0.5c-0.4,0.2,-0.8,0.4,-1.2,0.4c-0.4,0,-0.7,-0.1,-0.9,-0.4c-0.3,-0.2,-0.4,-0.4,-0.4,-0.8c0,-0.4,0.2,-0.7,0.5,-0.9c0.2,-0.2,0.6,-0.4,0.9,-0.5c0.4,0,1.1,-0.1,2.2,-0.2l0,1.4c-0.3,0.4,-0.7,0.8,-1.1,1Z" class="g15_22" />
<path d="M135.9,270.8l-2.1,6.2l-2.2,-6.2l-1.3,0l2.9,7.8l1.1,0l2.9,-7.8l-1.3,0Z" class="g15_22" />
<text 
transform="matrix(0.98, 0, 0, 1, 111, 278)"
dx="0,0,0" 
class="s2_22"
>nav</text>

<text 
transform="matrix(0.98, 0, 0, 1, 141, 278)"
dx="0,0,0,0,0,0,0,0,0" 
class="s1_22"
>element. </text>

<text 
transform="matrix(0.98, 0, 0, 1, 56, 321)"
dx="0,0,0,0,0,-0.9,0,0,0,0,-0.9,0,0,0,0,0,-0.9,0,0,0,0,-0.9,0,-0.9,0,0,0,0,0,-0.9,0,0,0,0,0,0,-0.9,0,0,0,0,0,-0.3,0,0,0,0,-0.9,0,0,0,0,0,0" 
class="s1_22"
>This list would have a light purple background colour:</text>

<text 
transform="matrix(0.98, 0, 0, 1, 56, 599)"
dx="0,0,0,0,-0.9,0,0,0,0,-0.9,0,0,0,0,-0.9,0,0,0,0,-0.9,0,0,0,-0.9,0,0,0,0,-0.9,0,-0.9,0,0,0,0,0,-0.9,0,0,0,0,0,0,-0.9,0,0,0,0,0,-0.3,0,0,0,0,-0.9,0,0,0,0,0,0" 
class="s1_22"
>But this list will NOT have a light purple background colour:</text>

<text 
transform="matrix(0.98, 0, 0, 1, 551, 599)"
dx="0,0,0,-0.7,0,0,0,-0.7,0,0,0,0,0,-0.7,0,0,0,-0.7,0,0,0,0,-0.7,0,0,0,0,-0.8,0,-0.7,0,0,0,0" 
class="s1_22"
>If you added the rule below. This </text>

<text 
transform="matrix(0.98, 0, 0, 1, 551, 620)"
dx="0,0,0,0,0,0,3,0,0,0,0,0,0,3,0,0,0,3,0,0,0,0,0,-0.3,0,0,0,0" 
class="s1_22"
>would change the background </text>

<text 
transform="matrix(0.98, 0, 0, 1, 551, 642)"
dx="0,0,0,0,0,0,0,0,-0.9,0,0,-0.9,0,0,0,0,-0.9,0,0,0,0,0,0" 
class="s1_22"
>colours of both lists. </text>

<text 
transform="matrix(0.98, 0, 0, 1, 551, 791)"
dx="0,0,0,0,0,2.6,0,0,0,0,0,0,2.6,0,0,0,0,2.6,0,0,0,2.6,0,0,0,2.6,0,0,0,0" 
class="s1_22"
>Also notice that you can make </text>

<text 
transform="matrix(0.98, 0, 0, 1, 551, 813)"
dx="0,0,0,0,0,0,6.2,0,0,0,6.2,0,0,0,0,0,0,0,0,6.2,0,0,0,0,6.2,0,0,0,0,0" 
class="s1_22"
>rules for elements that apply </text>

<text 
transform="matrix(0.98, 0, 0, 1, 551, 834)"
dx="0,0,0,0,0,4.5,0,0,0,0,4.5,0,0,0,0,4.5,0,0,0,0,0,0,4.5,0,0,0,0,0,0" 
class="s1_22"
>only when they appear inside </text>

<text 
transform="matrix(0.98, 0, 0, 1, 551, 856)"
dx="0,0,0,0,0,0,-0.9,0,0,0,0,0,0,0,0" 
class="s1_22"
>other elements.</text>

<text 
transform="matrix(0.98, 0, 0, 1, 49, 898)"
dx="0,0,0,1.1,0,0,0,1.1,0,0,0,0,1.1,0,0,1.1,0,0,0,1.1,0,0,0,0,0,1.1,0,0,0,0,0,0,0,1.1,0,0" 
class="s1_22"
>So the rule to the right applies to </text>

<path d="M287.5,897.5l-2,0l0,-9l-3,0l0,1l2,0l0,9l3,0l0,-1Z" class="g15_22" />
<path d="M293.9,888.4c-0.1,0.1,-0.2,0.3,-0.2,0.5c0,0.3,0.1,0.4,0.2,0.6c0.2,0.2,0.4,0.3,0.6,0.3c0.2,0,0.4,-0.1,0.5,-0.3c0.2,-0.1,0.2,-0.3,0.2,-0.6c0,-0.2,0,-0.4,-0.2,-0.5c-0.1,-0.2,-0.3,-0.2,-0.5,-0.2c-0.2,0,-0.4,0,-0.6,0.2Zm1.1,2.7l-3.4,0l0,1l2.3,0l0,6.8l1.1,0l0,-7.8Z" class="g15_22" />
<text 
transform="matrix(0.98, 0, 0, 1, 280, 898)"
dx="0,0" 
class="s2_22"
>li</text>

<text 
transform="matrix(0.98, 0, 0, 1, 303, 898)"
dx="0,0,0,0,0,0,0,0,0" 
class="s1_22"
>elements </text>

<text 
transform="matrix(0.98, 0, 0, 1, 369, 898)"
dx="0,0,0,-0.2" 
class="s3_22"
>only</text>

<text 
transform="matrix(0.98, 0, 0, 1, 405, 898)"
dx="0,0,0,1.1,0,0,0,0,1.1,0,-0.3,0,1.1,0,0,0,0,0,0" 
class="s1_22"
>if they are inside </text>

<text 
transform="matrix(0.98, 0, 0, 1, 49, 920)"
dx="0,0" 
class="s1_22"
>a </text>

<path d="M70.8,912.5l-1.1,0l0,5.6c-0.8,0.9,-1.6,1.3,-2.3,1.3c-0.5,0,-0.8,-0.1,-1,-0.5c-0.2,-0.3,-0.3,-0.8,-0.3,-1.4l0,-5l-1.2,0l0,5.3c0,1.8,0.8,2.6,2.2,2.6c0.9,0,1.8,-0.4,2.6,-1.3l0,1.2l1.1,0l0,-7.8Z" class="g15_22" />
<path d="M79.5,919.5l-2,0l0,-10l-3,0l0,1l2,0l0,10l3,0l0,-1Z" class="g15_22" />
<text 
transform="matrix(0.98, 0, 0, 1, 63, 920)"
dx="0,0" 
class="s2_22"
>ul</text>

<text 
transform="matrix(0.98, 0, 0, 1, 86, 920)"
dx="0,0,0,0,0,0,0,0,0.9,0,0,0,0,0,0.9,0,0,0,0.9,0,0,0.9,0,0,0.3,0,0,0.9,0,0,0,0,0,0,0.9,0" 
class="s1_22"
>element which is, in turn, inside a </text>

<path d="M327.3,914.9c0,-1.7,-0.7,-2.6,-2.2,-2.6c-0.9,0,-1.7,0.4,-2.5,1.3l0,-1.1l-1.2,0l0,7.8l1.2,0l0,-5.7c0.8,-0.9,1.5,-1.3,2.2,-1.3c0.5,0,0.8,0.2,1,0.5c0.2,0.3,0.4,0.8,0.4,1.5l0,5l1.1,0l0,-5.4Z" class="g15_22" />
<path d="M336.3,918.4l0,-3.3c0,-1.9,-0.9,-2.8,-2.6,-2.8c-0.9,0,-1.9,0.3,-2.9,0.8l0.3,0.8c0.3,-0.1,0.7,-0.3,1.1,-0.4c0.5,-0.1,0.8,-0.2,1.1,-0.2c1.2,0,1.9,0.7,1.9,2l0,0.4l-1.3,0.1c-0.6,0,-1.1,0.1,-1.5,0.2c-0.4,0.1,-0.8,0.3,-1.1,0.5c-0.3,0.2,-0.5,0.4,-0.7,0.7c-0.1,0.3,-0.2,0.7,-0.2,1.1c0,0.6,0.2,1.1,0.7,1.5c0.4,0.4,0.9,0.7,1.5,0.7c1.1,0,2,-0.5,2.6,-1.5c0,0.5,0.1,0.9,0.2,1.3l1.1,0c-0.1,-0.6,-0.2,-1.2,-0.2,-1.9Zm-2.2,0.6c-0.4,0.2,-0.8,0.3,-1.2,0.3c-0.4,0,-0.7,-0.1,-0.9,-0.3c-0.3,-0.2,-0.4,-0.5,-0.4,-0.8c0,-0.4,0.2,-0.7,0.4,-0.9c0.3,-0.3,0.7,-0.4,1,-0.5c0.4,-0.1,1.1,-0.2,2.2,-0.3l0,1.4c-0.3,0.5,-0.7,0.8,-1.1,1.1Z" class="g15_22" />
<path d="M344.4,912.5l-2.2,6.2l-2.1,-6.2l-1.3,0l2.9,7.8l1.1,0l2.9,-7.8l-1.3,0Z" class="g15_22" />
<text 
transform="matrix(0.98, 0, 0, 1, 319, 920)"
dx="0,0,0" 
class="s2_22"
>nav</text>

<text 
transform="matrix(0.98, 0, 0, 1, 351, 920)"
dx="0,0,0,0,0,0,0,0,0" 
class="s1_22"
>element. </text>

<text 
x="414" 
y="920" 
dx="0,-0.3,0,0,0,0,0.9,0,0,0,0,0.9,0,0,0" 
class="s1_22"
>We’ll make use </text>

<text 
x="49" 
y="941" 
dx="0,0,0,1.3,0,0,0,0,1.3,0,0,0,0,0,0,0,0,0,1.3,0,0,0,0,1.3,0,-0.3,0,0,0,0,1.3,0,0,0,0,1.3,0,0" 
class="s1_22"
>of this technique (its proper name is </text>

<text 
x="308" 
y="941" 
dx="0,0,0,0,0,-0.2,0,0,0,0,0,1.3,0,0,0,0,0,0,0,0" 
class="s3_22"
>contextual selection</text>

<text 
x="456" 
y="941" 
dx="0,0,1.3,0,0,0,0,0,1.3,0,0" 
class="s1_22"
>) later on </text>

<text 
x="49" 
y="963" 
dx="0,0,0,0,0,-0.9,0,0,0,0,0,-0.9,0,0,-0.9,0,0,0,0,0,0,0,0,0,-0.9,0,0,0,0,-0.9,0,0,0,0,-0.9,0,0,-0.3,0,-0.9,0,0,0,0,0,0,0,0,0,0,0,-0.9,0,0,0,0,0" 
class="s1_22"
>when we’ll be designing some much more complicated pages.</text>

<path d="M47,53l0,4l-4,0l0,34l4,0l0,4l728,0l0,-4l4,0l0,-34l-4,0l0,-4Z" class="g16_22" />
<text 
x="56" 
y="85" 
dx="0,0,-3.8,-2.2,-2.4,-2.2,-2.9,-3.5,-3.3,-2.6,-2.3,0,0,0,0,-3.1,-2.2,-3,-3.3,-2.7,-3.3,-2.1,-3.7,-2.2,0,0,-3.1,-2.2,-3,0,0,-2.2,0,0,-2.8,-2.2,0,0,-3.1,-2.3,-2.7,0,0" 
class="s4_22"
>&lt;Formatting a particular part of the page &gt;</text>

<text 
x="641" 
y="171" 
dx="0,0,0,0,0" 
class="s2_22"
>&lt;nav&gt;</text>

<text 
x="641" 
y="193" 
dx="0,0,0,0" 
class="s2_22"
>&lt;ul&gt;</text>

<text 
x="641" 
y="257" 
dx="0,0,0,0,0" 
class="s2_22"
>&lt;/ul&gt;</text>

<text 
x="641" 
y="278" 
dx="0,0,0,0,0,0" 
class="s2_22"
>&lt;/nav&gt;</text>

<text 
x="57" 
y="364" 
dx="0,0,0,0,0,0" 
class="s2_22"
>&lt;body&gt;</text>

<text 
x="57" 
y="385" 
dx="0,0,0,0,0" 
class="s2_22"
>&lt;nav&gt;</text>

<text 
x="57" 
y="406" 
dx="0,0,0,0" 
class="s2_22"
>&lt;ul&gt;</text>

<text 
x="57" 
y="428" 
dx="0,0,0,0,0,0,0,-1.8,0,0,0,0,0,0,0,0,0,0,0,0,0,0,0,0,0,0,0,0,0,0,0,0,0,0,0,0,0,0" 
class="s2_22"
>&lt;li&gt;&lt;a href="index.html"&gt;Home&lt;/a&gt;&lt;/li&gt;</text>

<text 
x="57" 
y="449" 
dx="0,0,0,0,0,0,0,-1.8,0,0,0,0,0,0,0,0,0,0,0,0,0,0,0,0,0,0,0,0,0,0,0,0,0,0,-1.8,0,0,0,0,0,0,0,0,0,0" 
class="s2_22"
>&lt;li&gt;&lt;a href="about-us.html"&gt;About Us&lt;/a&gt;&lt;/li&gt;</text>

<text 
x="57" 
y="471" 
dx="0,0,0,0,0,0,0,-1.8,0,0,0,0,0,0,0,0,0,0,0,0,0,0,0,0,0,0,0,0,0,0,0,0,0,-1.8,0,0,0,0,0,0,0,0,0,0,0,0,0" 
class="s2_22"
>&lt;li&gt;&lt;a href="our-songs.html"&gt;Our Songs&lt;/a&gt;&lt;/li&gt;</text>

<text 
x="57" 
y="492" 
dx="0,0,0,0,0,0,0,-1.8,0,0,0,0,0,0,0,0,0,0,0,0,0,0,0,0,0,0,0,0,0,0,0,0,0,0,0,-1.8,0,0,-1.8,0,0,0,0,0,0,0,0,0,0,0,0" 
class="s2_22"
>&lt;li&gt;&lt;a href="see-us-play.html"&gt;See Us Play&lt;/a&gt;&lt;/li&gt;</text>

<text 
x="57" 
y="513" 
dx="0,0,0,0,0,0,0,-1.8,0,0,0,0,0,0,0,0,0,0,0,0,0,0,0,0,0,0,0,0,0,0,0,0,0,0,0,0,0,0,0,0,0,0,0,0,0,-1.8,0,-1.8,0,0,0,0,0,0,0,0,0,0,0,0,0,0,0" 
class="s2_22"
>&lt;li&gt;&lt;a href="playing-a-concert.html"&gt;Playing a Concert&lt;/a&gt;&lt;/li&gt;</text>

<text 
x="57" 
y="535" 
dx="0,0,0,0,0" 
class="s2_22"
>&lt;/ul&gt;</text>

<text 
x="57" 
y="556" 
dx="0,0,0,0,0,0" 
class="s2_22"
>&lt;/nav&gt;</text>

<text 
x="56" 
y="652" 
dx="0,0,0,0,0,0" 
class="s2_22"
>&lt;body&gt;</text>

<text 
x="56" 
y="674" 
dx="0,0,0,0" 
class="s2_22"
>&lt;ul&gt;</text>

<text 
x="56" 
y="695" 
dx="0,0,0,0,0,0,0,-1.8,0,0,0,0,0,0,0,0,0,0,0,0,0,0,0,0,0,0,0,0,0,0,0,0,0,0,0,0,0,0" 
class="s2_22"
>&lt;li&gt;&lt;a href="index.html"&gt;Home&lt;/a&gt;&lt;/li&gt;</text>

<text 
x="56" 
y="717" 
dx="0,0,0,0,0,0,0,-1.8,0,0,0,0,0,0,0,0,0,0,0,0,0,0,0,0,0,0,0,0,0,0,0,0,0,0,-1.8,0,0,0,0,0,0,0,0,0,0" 
class="s2_22"
>&lt;li&gt;&lt;a href="about-us.html"&gt;About Us&lt;/a&gt;&lt;/li&gt;</text>

<text 
x="56" 
y="738" 
dx="0,0,0,0,0,0,0,-1.8,0,0,0,0,0,0,0,0,0,0,0,0,0,0,0,0,0,0,0,0,0,0,0,0,0,-1.8,0,0,0,0,0,0,0,0,0,0,0,0,0" 
class="s2_22"
>&lt;li&gt;&lt;a href="our-songs.html"&gt;Our Songs&lt;/a&gt;&lt;/li&gt;</text>

<text 
x="56" 
y="759" 
dx="0,0,0,0,0,0,0,-1.8,0,0,0,0,0,0,0,0,0,0,0,0,0,0,0,0,0,0,0,0,0,0,0,0,0,0,0,-1.8,0,0,-1.8,0,0,0,0,0,0,0,0,0,0,0,0" 
class="s2_22"
>&lt;li&gt;&lt;a href="see-us-play.html"&gt;See Us Play&lt;/a&gt;&lt;/li&gt;</text>

<text 
x="56" 
y="781" 
dx="0,0,0,0,0,0,0,-1.8,0,0,0,0,0,0,0,0,0,0,0,0,0,0,0,0,0,0,0,0,0,0,0,0,0,0,0,0,0,0,0,0,0,0,0,0,0,-1.8,0" 
class="s2_22"
>&lt;li&gt;&lt;a href="playing-a-concert.html"&gt;Playing a </text>

<text 
x="56" 
y="802" 
dx="0,0,0,0,0,0,0,0,0,0,0,0,0,0,0,0" 
class="s2_22"
>Concert&lt;/a&gt;&lt;/li&gt;</text>

<text 
x="56" 
y="824" 
dx="0,0,0,0,0" 
class="s2_22"
>&lt;/ul&gt;</text>

<text 
x="557" 
y="684" 
dx="0,0,0,-1.8" 
class="s2_22"
>ul {</text>

<text 
x="557" 
y="706" 
dx="0,2.8,2.8,2.8,2.8,2.8,2.8,2.8,2.8,2.8,2.8" 
class="s2_22"
>background-</text>

<text 
x="557" 
y="727" 
dx="0,0,0,0,0,0,0,0,0,0,0,0,0,0" 
class="s2_22"
>color:#B577B5;</text>

<text 
x="557" 
y="749" 
dx="0" 
class="s2_22"
>}</text>

<text 
x="559" 
y="898" 
dx="0,0,0,0,-1.8,0,0,-1.8,0,0,-1.8" 
class="s2_22"
>nav ul li {</text>

<text 
x="559" 
y="920" 
dx="0,0,0,0,0,0,0,0,0,-1.8,0,0,0,0,0,0" 
class="s2_22"
>display: inline;</text>

<text 
x="559" 
y="941" 
dx="0,0,0,0,0,0,0,0,0,0,0,0,0,0,16.7,0,0,0" 
class="s2_22"
>border-right: 2px </text>

<text 
x="559" 
y="963" 
dx="0,0,0,0,0,0,-1.8,0,0,0,0,0,0,0" 
class="s2_22"
>solid #111111;</text>

<text 
x="559" 
y="984" 
dx="0,0,0,0,0,0,0,0,0,0,0,0,0,0,0,-1.8,0,0,0" 
class="s2_22"
>padding-right: 8px;</text>

<text 
x="559" 
y="1005" 
dx="0" 
class="s2_22"
>}</text>

<text 
x="369" 
y="235" 
dx="0,0,0,0,-1.8,0,0,-1.8" 
class="s2_22"
>nav ul {</text>

<text 
x="369" 
y="257" 
dx="0,0,0,0,0,0,0,0,0,0,0,0,0,0,0,0,0,0,0,0,0,0,0,0,0" 
class="s2_22"
>background-color:#B577B5;</text>

<text 
x="369" 
y="278" 
dx="0" 
class="s2_22"
>}</text>

<text 
x="879" 
y="139" 
dx="0,0,0,0,0,0,0,0,2.4,0,0,0,2.4,0,0,2.4,0,0,0,0,0,0,0,0,2.4,0,0,0,0,0,0,0,0,2.4,0,0,0,0,0,2.4,0,0,0,0,2.4,0,2.4,0,0,0,0,0,0,0" 
class="s1_22"
>Another way to identify elements which have a special </text>

<text 
x="879" 
y="160" 
dx="0,0,0,0,0,0,0,0,-0.7,0,0,0,-0.7,0,0,0,0,0,-0.7,0,0,0,0,0,0,-0.7,0,0,-0.7,0,0,0,0,0,0,-0.7,0,0,-0.7,0,-0.7,0,0,0.3,0,0,0,0,0,0,0,-0.7,0,0,0,-0.7,0,0" 
class="s1_22"
>meaning and which should be styled in a particular way is </text>

<text 
x="879" 
y="182" 
dx="0,0,0,-0.9,0,0,0,-0.9,0" 
class="s1_22"
>to use a </text>

<path d="M942.6,181.1c-0.7,0.3,-1.4,0.4,-2.1,0.4c-0.8,0,-1.5,-0.3,-2,-0.9c-0.5,-0.6,-0.8,-1.3,-0.8,-2.1c0,-1,0.3,-1.7,0.8,-2.3c0.5,-0.5,1.2,-0.8,2,-0.8c0.6,0,1.2,0.1,1.9,0.3l0.3,-0.9c-0.7,-0.3,-1.4,-0.4,-2.2,-0.4c-1.2,0,-2.2,0.3,-2.9,1.1c-0.7,0.7,-1.1,1.7,-1.1,3c0,1.2,0.4,2.2,1.1,2.9c0.7,0.8,1.7,1.1,2.9,1.1c0.8,0,1.6,-0.1,2.3,-0.4l-0.2,-1Z" class="g17_22" />
<path d="M951.5,181.5l-2,0l0,-10l-3,0l0,1l2,0l0,10l3,0l0,-1Z" class="g17_22" />
<path d="M961.1,180.5l0,-3.3c0,-1.9,-0.9,-2.8,-2.6,-2.8c-0.9,0,-1.9,0.2,-3,0.8l0.3,0.8c0.3,-0.2,0.7,-0.3,1.2,-0.4c0.4,-0.2,0.8,-0.2,1.1,-0.2c1.2,0,1.9,0.6,1.9,2l0,0.4l-1.3,0.1c-0.6,0,-1.1,0.1,-1.6,0.2c-0.4,0.1,-0.8,0.3,-1.1,0.5c-0.3,0.2,-0.5,0.4,-0.6,0.7c-0.2,0.3,-0.3,0.7,-0.3,1c0,0.7,0.3,1.2,0.7,1.6c0.4,0.4,0.9,0.6,1.5,0.6c1.2,0,2.1,-0.4,2.7,-1.4c0,0.5,0.1,0.9,0.2,1.2l1.1,0c-0.1,-0.5,-0.2,-1.1,-0.2,-1.8Zm-2.2,0.5c-0.4,0.3,-0.8,0.4,-1.2,0.4c-0.4,0,-0.7,-0.1,-1,-0.3c-0.2,-0.2,-0.3,-0.5,-0.3,-0.8c0,-0.4,0.1,-0.7,0.4,-1c0.3,-0.2,0.6,-0.3,1,-0.4c0.4,-0.1,1.1,-0.2,2.2,-0.3l0,1.4c-0.4,0.5,-0.7,0.8,-1.1,1Z" class="g17_22" />
<path d="M969.7,174.7c-0.7,-0.2,-1.4,-0.3,-2.1,-0.3c-0.9,0,-1.7,0.2,-2.3,0.6c-0.6,0.4,-0.9,0.9,-0.9,1.6c0,0.3,0.1,0.5,0.2,0.8c0.2,0.2,0.3,0.5,0.6,0.6c0.2,0.2,0.5,0.4,0.8,0.4c0.3,0.1,0.7,0.3,1.3,0.5c0.7,0.2,1.2,0.4,1.4,0.6c0.2,0.2,0.3,0.5,0.3,0.7c0,0.4,-0.2,0.8,-0.6,1c-0.4,0.2,-0.9,0.4,-1.6,0.4c-0.7,0,-1.4,-0.2,-2.1,-0.5l-0.2,1c0.6,0.3,1.4,0.4,2.4,0.4c0.9,0,1.7,-0.2,2.4,-0.6c0.6,-0.4,0.9,-1,0.9,-1.8c0,-0.3,-0.1,-0.7,-0.3,-1c-0.1,-0.2,-0.4,-0.5,-0.7,-0.7c-0.3,-0.2,-0.7,-0.4,-1.2,-0.5l-1.1,-0.3c-0.6,-0.2,-0.9,-0.3,-1.1,-0.5c-0.1,-0.2,-0.2,-0.4,-0.2,-0.6c0,-0.3,0.2,-0.6,0.5,-0.8c0.4,-0.2,0.9,-0.3,1.5,-0.3c0.6,0,1.2,0.1,1.9,0.3l0.2,-1Z" class="g17_22" />
<path d="M978.9,174.7c-0.8,-0.2,-1.5,-0.3,-2.1,-0.3c-1,0,-1.7,0.2,-2.3,0.6c-0.6,0.4,-0.9,0.9,-0.9,1.6c0,0.3,0.1,0.5,0.2,0.8c0.1,0.2,0.3,0.5,0.5,0.6c0.3,0.2,0.6,0.4,0.8,0.4c0.3,0.1,0.8,0.3,1.4,0.5c0.7,0.2,1.2,0.4,1.4,0.6c0.2,0.2,0.3,0.5,0.3,0.7c0,0.4,-0.2,0.8,-0.6,1c-0.4,0.2,-0.9,0.4,-1.6,0.4c-0.7,0,-1.4,-0.2,-2.1,-0.5l-0.2,1c0.6,0.3,1.4,0.4,2.3,0.4c1,0,1.8,-0.2,2.4,-0.6c0.6,-0.4,1,-1,1,-1.8c0,-0.3,-0.1,-0.7,-0.3,-1c-0.2,-0.2,-0.4,-0.5,-0.7,-0.7c-0.3,-0.2,-0.8,-0.4,-1.3,-0.5L976,177.6c-0.5,-0.2,-0.8,-0.3,-1,-0.5c-0.2,-0.2,-0.2,-0.4,-0.2,-0.6c0,-0.3,0.1,-0.6,0.5,-0.8c0.4,-0.2,0.9,-0.3,1.5,-0.3c0.6,0,1.2,0.1,1.8,0.3l0.3,-1Z" class="g17_22" />
<text 
x="935" 
y="182" 
dx="0,0,0,0,0" 
class="s2_22"
>class</text>

<text 
x="984" 
y="182" 
dx="0,0,0,0,0,0,0,0,0,0" 
class="s1_22"
>attribute.</text>

<text 
x="879" 
y="225" 
dx="0,-2.9,-3.2,0,0,0,0,-1.9,-2.6,0,0,-1.7,-1.7,0,0,-2.2,-2.1,-2.5,0,0,-1.7,-1.7,-1.9,-2.8,0,0,0,0" 
class="s5_22"
>Let’s see how this works ...</text>

<text 
x="879" 
y="246" 
dx="0,0,0,0,2,0,0,0,0,0,0,0,0,0,2,0,0,0,0,2,0,0,0,0,0,0,0,2,0,0,0,0,2,0,0,0,0,2,0,0,0,0,2,0,0,2,0,0,0,0,0,0,0" 
class="s1_22"
>The Nanonauts have decided that they want to include </text>

<text 
x="879" 
y="267" 
dx="0,0,0,0,0,0.5,0,0,0,0,0,0.5,0,0,0,0.5,0,0,0,0,0,0,0,0,0,0.5,0,0,0.5,0,0,0,0,0.5,0,0,0.5,0,0,0,0.5,0,0,0,0,0,0,0.5,0,0,0,0,0.5,0,0,0,0" 
class="s1_22"
>‘top tips’ for musicians on some of the pages. They want </text>

<text 
x="879" 
y="289" 
dx="0,0,0,0,0,0,-0.9,0,0,0,0,-0.9,0,0,-0.9,0,0,0,0,0,-0.9,0,0,0,-0.9,0,-0.3,0,0,-0.9,0,0,0,-0.9,-0.3,0,0,0,-0.9,0,0,-0.9,0,0,0,-0.9,0,0,0,0,-0.9,0,-0.9,0,0,0,0,-0.9,0,0,0,0" 
class="s1_22"
>these tips to stand out from the rest of the page – like this:</text>

<text 
x="879" 
y="449" 
dx="0,0,0,0,-0.7,0,0,0,0,0,-0.7,0,0,0,0,0,-0.7,0,0,0,0,-0.7,0,0,-0.7,0,0,0,-0.7,0,0,-0.7,0,0,0,-0.7,0,0,0,0,-0.7,0,0,0,0,0,-0.7,0,0,0,-0.7,0" 
class="s1_22"
>The first thing they do is, in the HTML page, add a </text>

<path d="M1223.9,448.5c-0.7,0.3,-1.3,0.4,-2,0.4c-0.8,0,-1.5,-0.3,-2,-0.9c-0.5,-0.6,-0.8,-1.3,-0.8,-2.2c0,-0.9,0.3,-1.7,0.8,-2.2c0.5,-0.6,1.1,-0.9,2,-0.9c0.6,0,1.2,0.2,1.9,0.4l0.3,-1c-0.7,-0.2,-1.4,-0.4,-2.2,-0.4c-1.2,0,-2.2,0.4,-2.9,1.2c-0.7,0.7,-1.1,1.7,-1.1,2.9c0,1.3,0.3,2.2,1.1,3c0.7,0.7,1.7,1.1,2.9,1.1c0.8,0,1.6,-0.2,2.2,-0.5l-0.2,-0.9Z" class="g17_22" />
<path d="M1232.5,448.5l-2,0l0,-9l-3,0l0,1l2,0l0,9l3,0l0,-1Z" class="g17_22" />
<path d="M1242.5,447.9l0,-3.4c0,-1.8,-0.9,-2.8,-2.7,-2.8c-0.9,0,-1.8,0.3,-2.9,0.8l0.3,0.9c0.3,-0.2,0.7,-0.3,1.2,-0.5c0.4,-0.1,0.8,-0.2,1.1,-0.2c1.2,0,1.8,0.7,1.8,2l0,0.4l-1.3,0.1c-0.6,0.1,-1.1,0.1,-1.5,0.3c-0.4,0.1,-0.8,0.2,-1.1,0.4c-0.3,0.2,-0.5,0.5,-0.7,0.8c-0.1,0.3,-0.2,0.6,-0.2,1c0,0.6,0.2,1.2,0.7,1.6c0.4,0.4,0.9,0.6,1.5,0.6c1.1,0,2,-0.5,2.7,-1.5c0,0.6,0,1,0.1,1.3l1.2,0c-0.1,-0.5,-0.2,-1.1,-0.2,-1.8Zm-2.2,0.5c-0.4,0.3,-0.9,0.4,-1.3,0.4c-0.3,0,-0.7,-0.1,-0.9,-0.3c-0.2,-0.3,-0.4,-0.5,-0.4,-0.9c0,-0.4,0.2,-0.7,0.5,-0.9c0.3,-0.2,0.6,-0.4,1,-0.5c0.4,0,1.1,-0.1,2.1,-0.2l0,1.4c-0.3,0.4,-0.6,0.8,-1,1Z" class="g17_22" />
<path d="M1251.1,442.1c-0.7,-0.3,-1.4,-0.4,-2.1,-0.4c-0.9,0,-1.7,0.2,-2.3,0.6c-0.6,0.4,-0.9,1,-0.9,1.6c0,0.3,0.1,0.6,0.2,0.9c0.1,0.2,0.3,0.4,0.6,0.6c0.2,0.2,0.5,0.3,0.8,0.4c0.2,0.1,0.7,0.2,1.3,0.4c0.7,0.2,1.2,0.5,1.4,0.7c0.2,0.2,0.3,0.4,0.3,0.7c0,0.4,-0.2,0.7,-0.6,1c-0.4,0.2,-0.9,0.3,-1.6,0.3c-0.7,0,-1.4,-0.1,-2.1,-0.4l-0.2,1c0.6,0.3,1.4,0.4,2.4,0.4c0.9,0,1.7,-0.2,2.3,-0.6c0.7,-0.5,1,-1.1,1,-1.8c0,-0.4,-0.1,-0.7,-0.3,-1c-0.1,-0.3,-0.4,-0.5,-0.7,-0.7c-0.3,-0.2,-0.7,-0.4,-1.3,-0.6l-1.1,-0.3c-0.5,-0.1,-0.8,-0.3,-1,-0.4c-0.2,-0.2,-0.2,-0.4,-0.2,-0.6c0,-0.4,0.1,-0.7,0.5,-0.9c0.4,-0.2,0.9,-0.3,1.5,-0.3c0.6,0,1.2,0.1,1.9,0.3l0.2,-0.9Z" class="g17_22" />
<path d="M1260.3,442.1c-0.8,-0.3,-1.5,-0.4,-2.1,-0.4c-1,0,-1.7,0.2,-2.3,0.6c-0.6,0.4,-0.9,1,-0.9,1.6c0,0.3,0,0.6,0.2,0.9c0.1,0.2,0.3,0.4,0.5,0.6c0.3,0.2,0.5,0.3,0.8,0.4c0.3,0.1,0.7,0.2,1.3,0.4c0.8,0.2,1.3,0.5,1.5,0.7c0.2,0.2,0.3,0.4,0.3,0.7c0,0.4,-0.2,0.7,-0.6,1c-0.4,0.2,-1,0.3,-1.6,0.3c-0.8,0,-1.5,-0.1,-2.1,-0.4l-0.2,1c0.6,0.3,1.4,0.4,2.3,0.4c1,0,1.8,-0.2,2.4,-0.6c0.6,-0.5,0.9,-1.1,0.9,-1.8c0,-0.4,0,-0.7,-0.2,-1c-0.2,-0.3,-0.4,-0.5,-0.7,-0.7c-0.4,-0.2,-0.8,-0.4,-1.3,-0.6l-1.1,-0.3c-0.5,-0.1,-0.8,-0.3,-1,-0.4c-0.2,-0.2,-0.3,-0.4,-0.3,-0.6c0,-0.4,0.2,-0.7,0.6,-0.9c0.4,-0.2,0.9,-0.3,1.5,-0.3c0.6,0,1.2,0.1,1.8,0.3l0.3,-0.9Z" class="g17_22" />
<text 
x="1216" 
y="449" 
dx="0,0,0,0,0" 
class="s2_22"
>class</text>

<text 
x="1265" 
y="449" 
dx="0,0,0,0,0,0,0,0,0,0" 
class="s1_22"
>attribute </text>

<text 
x="879" 
y="471" 
dx="0,0,0,-0.9,0" 
class="s1_22"
>to a </text>

<path d="M909.9,463.3l-1.1,0l0,10.9l1.1,0l0,-4.2c0.3,0.4,0.6,0.7,1,0.9c0.4,0.3,0.9,0.4,1.4,0.4c0.9,0,1.6,-0.4,2.1,-1.2c0.6,-0.8,0.8,-1.8,0.8,-3c0,-1.2,-0.2,-2.1,-0.7,-2.9c-0.5,-0.7,-1.2,-1.1,-2.1,-1.1c-0.5,0,-1,0.1,-1.4,0.4c-0.5,0.2,-0.8,0.5,-1.1,0.8l0,-1Zm2.1,0.8c0.7,0,1.1,0.3,1.5,0.9c0.4,0.5,0.5,1.3,0.5,2.2c0,0.8,-0.2,1.6,-0.5,2.2c-0.4,0.5,-0.9,0.8,-1.5,0.8c-0.4,0,-0.8,-0.1,-1.2,-0.4c-0.4,-0.3,-0.6,-0.7,-0.9,-1.1l0,-3.2c0.6,-0.9,1.3,-1.4,2.1,-1.4Z" class="g17_22" />
<text 
x="907" 
y="471" 
dx="0" 
class="s2_22"
>p</text>

<text 
x="919" 
y="471" 
dx="0,0,0,0,0,0,0,0,-0.9,0,0,0,0,0,-0.9,0,0,0,0,0,0,0,0,-0.9,0,0,0,-0.9,0,0,0,0,-0.9,0,0,0,0,-0.9,0,0,0,0" 
class="s1_22"
>element which contains the tip. Like this:</text>

<text 
x="1368" 
y="449" 
dx="0,0,0,0,7.2,0,0,0,0,0,0,0,0,0,7.2,0,0,0,0,7.2,0,0,0,7.2,0,0,0" 
class="s1_22"
>The Nanonauts then use the </text>

<text 
x="1368" 
y="471" 
dx="0,0,0,0,0,0,0,0,0,0,0,0.7,0,0,0.7,0,0,0.3,0,0,0,0.7,0,0,0,0.7,0,0,0,0,0.7,0,0,0.7,0" 
class="s1_22"
>stylesheet to format the tips in a </text>

<text 
x="1368" 
y="492" 
dx="0,0,0,0,0,0,0,0,2.9,0,0,0,2.9,0,0,2.9,0,0,0,0,2.9,0,0,0,0,2.9,0,0,0,0,0" 
class="s1_22"
>special way so that they stand </text>

<text 
x="1368" 
y="513" 
dx="0,0,0,0,0,1.2,0,0,-0.3,0,1.2,0,-0.3,0,1.2,0,0,0,1.2,0,0,0,0,0,1.2,0,0,0,0,1.2,0,0,0" 
class="s1_22"
>out. Here are the rules they use </text>

<text 
x="1368" 
y="535" 
dx="0,0,0,-0.9,0,0,0.3,0,0,0,-0.9,0,0,0,-0.9,0,0,0,-0.9,0,0,0" 
class="s1_22"
>to format the top tip:</text>

<text 
x="879" 
y="513" 
dx="0,0,0,-1.8,0,0,0,0,0,0,0,0,0,0,0,0,0,0,0,0,0,0,-1.8,0,0,0,-1.8,0,0,0,-1.8,0,-1.8,0,0,0,0,0,-1.8,0,0,0,0,-1.8,0,0,-1.8,0,0,0,0" 
class="s2_22"
>&lt;p class="top-tip"&gt;If you hit a wrong note or make </text>

<text 
x="879" 
y="535" 
dx="0,0,-1.8,0,0,0,0,0,0,0,0,-1.8,0,0,0,0,0,-1.8,0,0,0,0,-1.8,0,0,0,0,0,0,0,-1.8,0,-1.8,0,0,0,0,-1.8,0,0,0,0,0,-1.8,0,0,-1.8,0,0,0" 
class="s2_22"
>a mistake, don’t stop playing – just carry on and </text>

<text 
x="879" 
y="556" 
dx="0,0,0,0,0,-1.8,0,0,-1.8,0,0,0,0,0,0,-1.8,0,0,0,-1.8,0,0,0,0,0,-1.8,0,0,0,0,0,0" 
class="s2_22"
>look as though you meant it!&lt;/p&gt;</text>

<text 
x="1373" 
y="578" 
dx="0,0,0,0,0,0,0,0,0,0,-1.8" 
class="s2_22"
>p.top-tip {</text>

<text 
x="1373" 
y="599" 
dx="0,0,0,0,0,0,0,0,0,0,0,-1.8,0,0,0,0" 
class="s2_22"
>border:4px solid</text>

<text 
x="1373" 
y="620" 
dx="0,0,0,0,0,0,0,0" 
class="s2_22"
>#00AFEB;</text>

<text 
x="1373" 
y="642" 
dx="0,0,0,0,0,0,0,0,0,0,0,0,0,0,0,0,0,0,0" 
class="s2_22"
>border-radius:10px;</text>

<text 
x="1373" 
y="663" 
dx="0,0,0,0,0,0,0,0,0,0,0,0,0" 
class="s2_22"
>padding:16px;</text>

<text 
x="1373" 
y="684" 
dx="0,0,0,0,0,0,0,0,0,0,0,0,0,0,0,0,0,0" 
class="s2_22"
>background-color: </text>

<text 
x="1373" 
y="706" 
dx="0,0,0,0,0,0,0,0" 
class="s2_22"
>#C5EBFB;</text>

<text 
x="1373" 
y="727" 
dx="0" 
class="s2_22"
>}</text>

<text 
x="1373" 
y="749" 
dx="0,0,0,0,0,0,0,0,0,0,0,0,0,0,0,0,0,0,-1.8" 
class="s2_22"
>p.top-tip::before {</text>

<text 
x="1373" 
y="770" 
dx="0,0,0,0,0,0,0,0,0,0,0,0" 
class="s2_22"
>color:Black;</text>

<text 
x="1373" 
y="791" 
dx="0,0,0,0,0,0,0,0,0,0,0,0,0,-1.8,0,0,0,0,-1.8,0" 
class="s2_22"
>content:"TOP TIP: ";</text>

<text 
x="1373" 
y="813" 
dx="0,0,0,0,0,0,0,0,0,0,0,0,0,0,0,0,0" 
class="s2_22"
>font-weight:bold;</text>

<text 
x="1373" 
y="834" 
dx="0" 
class="s2_22"
>}</text>

<path d="M870,53l0,5l-4,0l0,45l4,0l0,4l728,0l0,-4l4,0l0,-45l-4,0l0,-5Z" class="g16_22" />
<text 
x="878" 
y="90" 
dx="0" 
class="s6_22"
>&lt;</text>

<text 
x="895" 
y="92" 
dx="0,0,0,0,-0.3,-2.7,-3.4,-3.8,-4.1,-3,-2.3,0,0,-0.3,-3.1,-3.2,-2.9,-2.5,0,-0.3,-3.1,-2.4,0" 
class="s6_22"
>I’m special! Using the </text>

<text 
x="1291" 
y="92" 
dx="0,0,0,0,0" 
class="s7_22"
>class</text>

<text 
x="1400" 
y="92" 
dx="0,-3.2,-3.9,-3.1,-3.1,-3.2,-2.6,-3.2,-3.1" 
class="s6_22"
>attribute</text>

<text 
x="1577" 
y="90" 
dx="0" 
class="s6_22"
>&gt;</text>

<text 
x="977" 
y="663" 
dx="0,0,0,0,-0.9,0,0,-0.9,0,0,0,-0.9,0,0,0,-0.9,0,0,0,-0.9,0,0,0,0,-0.9,0,0,0,-0.9,0,0,0,0,-0.9,0,0,-0.9,0,0,0,0,-0.9,0,0,0,0,0" 
class="s1_22"
>See if you can add some top tips to your pages.</text>

<text 
x="977" 
y="684" 
dx="0" 
class="s8_22"
>[</text>

<text 
x="1004" 
y="684" 
dx="0,0,0,0,-0.9,0,0,0,-0.9,0,0,0,0,-0.3,0,-0.9,0,0,0,-0.9,0,0,0,0,-0.9,0,0,0" 
class="s1_22"
>Can you figure out what the </text>

<path d="M1007.6,698.6l-1.1,0l0,10.8l1.1,0l0,-4.2c0.3,0.4,0.6,0.8,1,1c0.5,0.2,0.9,0.4,1.4,0.4c0.9,0,1.6,-0.4,2.1,-1.2c0.6,-0.8,0.9,-1.8,0.9,-3c0,-1.2,-0.3,-2.2,-0.8,-2.9c-0.5,-0.7,-1.2,-1.1,-2.1,-1.1c-0.5,0,-1,0.1,-1.4,0.3c-0.5,0.2,-0.8,0.5,-1.1,0.9l0,-1Zm2.1,0.8c0.7,0,1.2,0.3,1.5,0.9c0.4,0.5,0.5,1.3,0.5,2.2c0,0.8,-0.2,1.6,-0.5,2.1c-0.4,0.6,-0.9,0.9,-1.5,0.9c-0.4,0,-0.8,-0.1,-1.2,-0.4c-0.3,-0.3,-0.6,-0.7,-0.9,-1.1l0,-3.2c0.6,-0.9,1.3,-1.4,2.1,-1.4Z" class="g17_22" />
<path d="M1017.9,704.9c-0.2,0.2,-0.2,0.4,-0.2,0.7c0,0.3,0,0.5,0.2,0.7c0.2,0.2,0.4,0.3,0.7,0.3c0.2,0,0.5,-0.1,0.6,-0.3c0.2,-0.2,0.3,-0.4,0.3,-0.7c0,-0.3,-0.1,-0.5,-0.3,-0.7c-0.1,-0.2,-0.4,-0.2,-0.6,-0.2c-0.3,0,-0.5,0,-0.7,0.2Z" class="g17_22" />
<path d="M1030.7,705.1c-0.6,0.3,-1.3,0.4,-1.9,0.4c-0.4,0,-0.7,-0.1,-0.9,-0.4c-0.2,-0.2,-0.3,-0.6,-0.3,-1.1l0,-4.4l2.7,0l0,-1l-2.7,0l0,-2.1l-1.1,0l0,2.1l-1.5,0l0,1l1.5,0l0,4.7c0,1.5,0.7,2.2,2.1,2.2c0.7,0,1.5,-0.1,2.3,-0.5l-0.2,-0.9Z" class="g17_22" />
<path d="M1034.4,699.5c-0.6,0.8,-0.9,1.7,-0.9,3c0,1.2,0.3,2.2,0.9,2.9c0.6,0.8,1.5,1.2,2.6,1.2c1,0,1.9,-0.4,2.5,-1.2c0.6,-0.7,1,-1.7,1,-2.9c0,-1.2,-0.4,-2.2,-1,-3c-0.6,-0.7,-1.5,-1.1,-2.5,-1.1c-1.1,0,-2,0.4,-2.6,1.1Zm0.9,5.2c-0.4,-0.6,-0.6,-1.4,-0.6,-2.2c0,-0.9,0.2,-1.7,0.6,-2.2c0.4,-0.6,0.9,-0.9,1.7,-0.9c0.7,0,1.2,0.3,1.6,0.9c0.4,0.6,0.6,1.3,0.6,2.2c0,0.8,-0.2,1.6,-0.6,2.2c-0.4,0.6,-0.9,0.8,-1.6,0.8c-0.8,0,-1.3,-0.2,-1.7,-0.8Z" class="g17_22" />
<path d="M1044.3,698.6l-1.2,0l0,10.8l1.2,0l0,-4.2c0.3,0.4,0.6,0.8,1,1c0.4,0.2,0.9,0.4,1.4,0.4c0.9,0,1.6,-0.4,2.1,-1.2c0.6,-0.8,0.8,-1.8,0.8,-3c0,-1.2,-0.2,-2.2,-0.7,-2.9c-0.6,-0.7,-1.3,-1.1,-2.1,-1.1c-0.5,0,-1,0.1,-1.4,0.3c-0.5,0.2,-0.8,0.5,-1.1,0.9l0,-1Zm2.1,0.8c0.6,0,1.1,0.3,1.5,0.9c0.3,0.5,0.5,1.3,0.5,2.2c0,0.8,-0.2,1.6,-0.5,2.1c-0.4,0.6,-0.9,0.9,-1.5,0.9c-0.4,0,-0.8,-0.1,-1.2,-0.4c-0.4,-0.3,-0.7,-0.7,-0.9,-1.1l0,-3.2c0.6,-0.9,1.3,-1.4,2.1,-1.4Z" class="g17_22" />
<path d="M1057.5,701.5l-4,0l0,1l4,0l0,-1Z" class="g17_22" />
<path d="M1067.3,705.1c-0.6,0.3,-1.2,0.4,-1.8,0.4c-0.4,0,-0.7,-0.1,-0.9,-0.4c-0.2,-0.2,-0.3,-0.6,-0.3,-1.1l0,-4.4l2.6,0l0,-1l-2.6,0l0,-2.1l-1.1,0l0,2.1l-1.5,0l0,1l1.5,0l0,4.7c0,1.5,0.7,2.2,2,2.2c0.8,0,1.6,-0.1,2.3,-0.5l-0.2,-0.9Z" class="g17_22" />
<path d="M1073.6,695.9c-0.2,0.1,-0.2,0.3,-0.2,0.5c0,0.3,0,0.4,0.2,0.6c0.2,0.2,0.3,0.3,0.5,0.3c0.3,0,0.4,-0.1,0.6,-0.3c0.2,-0.1,0.2,-0.3,0.2,-0.6c0,-0.2,-0.1,-0.4,-0.2,-0.5c-0.2,-0.2,-0.3,-0.2,-0.6,-0.2c-0.2,0,-0.3,0,-0.5,0.2Zm1.1,2.7l-3.5,0l0,1l2.3,0l0,6.8l1.2,0l0,-7.8Z" class="g17_22" />
<path d="M1081,698.6l-1.2,0l0,10.8l1.2,0l0,-4.2c0.2,0.4,0.6,0.8,1,1c0.4,0.2,0.9,0.4,1.3,0.4c0.9,0,1.7,-0.4,2.2,-1.2c0.5,-0.8,0.8,-1.8,0.8,-3c0,-1.2,-0.3,-2.2,-0.8,-2.9c-0.5,-0.7,-1.2,-1.1,-2.1,-1.1c-0.5,0,-0.9,0.1,-1.4,0.3c-0.4,0.2,-0.8,0.5,-1,0.9l0,-1Zm2.1,0.8c0.6,0,1.1,0.3,1.4,0.9c0.4,0.5,0.6,1.3,0.6,2.2c0,0.8,-0.2,1.6,-0.6,2.1c-0.3,0.6,-0.8,0.9,-1.5,0.9c-0.4,0,-0.8,-0.1,-1.1,-0.4c-0.4,-0.3,-0.7,-0.7,-0.9,-1.1l0,-3.2c0.6,-0.9,1.3,-1.4,2.1,-1.4Z" class="g17_22" />
<path d="M1091.3,698.7c-0.2,0.2,-0.3,0.4,-0.3,0.7c0,0.2,0.1,0.4,0.3,0.6c0.1,0.2,0.4,0.3,0.6,0.3c0.3,0,0.5,-0.1,0.6,-0.3c0.2,-0.2,0.3,-0.4,0.3,-0.6c0,-0.3,-0.1,-0.5,-0.3,-0.7c-0.1,-0.1,-0.3,-0.2,-0.6,-0.2c-0.2,0,-0.5,0.1,-0.6,0.2Zm0,6.3c-0.2,0.1,-0.3,0.3,-0.3,0.6c0,0.2,0.1,0.5,0.3,0.6c0.1,0.2,0.4,0.3,0.6,0.3c0.3,0,0.5,-0.1,0.6,-0.3c0.2,-0.1,0.3,-0.4,0.3,-0.6c0,-0.3,-0.1,-0.5,-0.3,-0.6c-0.1,-0.2,-0.3,-0.3,-0.6,-0.3c-0.2,0,-0.5,0.1,-0.6,0.3Z" class="g17_22" />
<path d="M1099.3,695.8l-1.1,0l0,10.6l1.1,0l0,-1.2c0.3,0.4,0.6,0.8,1,1c0.4,0.2,0.9,0.4,1.4,0.4c0.9,0,1.6,-0.4,2.1,-1.2c0.6,-0.8,0.8,-1.8,0.8,-3c0,-1.2,-0.2,-2.2,-0.7,-2.9c-0.5,-0.7,-1.2,-1.1,-2.1,-1.1c-0.5,0,-1,0.1,-1.4,0.3c-0.5,0.3,-0.8,0.5,-1.1,0.9l0,-3.8Zm2.1,3.6c0.6,0,1.1,0.3,1.5,0.8c0.3,0.6,0.5,1.3,0.5,2.2c0,0.9,-0.2,1.6,-0.5,2.2c-0.4,0.6,-0.9,0.9,-1.5,0.9c-0.4,0,-0.8,-0.1,-1.2,-0.4c-0.4,-0.3,-0.7,-0.7,-0.9,-1.1l0,-3.2c0.6,-0.9,1.3,-1.4,2.1,-1.4Z" class="g17_22" />
<path d="M1113.5,702.1c0,-1.1,-0.3,-2,-0.9,-2.7c-0.6,-0.7,-1.3,-1,-2.2,-1c-1,0,-1.8,0.4,-2.5,1.1c-0.6,0.7,-0.9,1.7,-0.9,3c0,1.2,0.3,2.2,1,3c0.8,0.7,1.7,1.1,2.8,1.1c1,0,1.8,-0.2,2.4,-0.5l-0.2,-0.9c-0.7,0.2,-1.4,0.3,-2.1,0.3c-0.8,0,-1.4,-0.2,-1.9,-0.8c-0.5,-0.6,-0.8,-1.3,-0.8,-2.2l5.3,0l0,-0.4Zm-5.2,-0.5c0,-0.7,0.3,-1.2,0.6,-1.6c0.4,-0.4,0.9,-0.6,1.5,-0.6c0.5,0,0.9,0.2,1.3,0.6c0.4,0.4,0.6,1,0.6,1.6l-4,0Z" class="g17_22" />
<path d="M1120.8,695.7c-0.9,0,-1.4,0.1,-1.8,0.5c-0.3,0.4,-0.5,1.1,-0.5,2.1l0,0.3l-1.9,0l0,1l1.9,0l0,6.8l1.2,0l0,-6.8l2.6,0l0,-1l-2.6,0l0,-0.2c0,-0.7,0,-1.1,0.2,-1.4c0.2,-0.2,0.5,-0.3,0.9,-0.3c0.4,0,0.9,0,1.5,0.2l0.3,-0.9c-0.7,-0.2,-1.3,-0.3,-1.8,-0.3Z" class="g17_22" />
<path d="M1126.1,699.5c-0.6,0.8,-1,1.7,-1,3c0,1.2,0.4,2.2,1,2.9c0.6,0.8,1.5,1.2,2.5,1.2c1.1,0,2,-0.4,2.6,-1.2c0.6,-0.7,0.9,-1.7,0.9,-2.9c0,-1.2,-0.3,-2.2,-0.9,-3c-0.6,-0.7,-1.5,-1.1,-2.6,-1.1c-1,0,-1.9,0.4,-2.5,1.1Zm0.9,5.2c-0.4,-0.6,-0.6,-1.4,-0.6,-2.2c0,-0.9,0.2,-1.7,0.6,-2.2c0.4,-0.6,0.9,-0.9,1.6,-0.9c0.8,0,1.3,0.3,1.7,0.9c0.4,0.6,0.6,1.3,0.6,2.2c0,0.8,-0.2,1.6,-0.6,2.2c-0.4,0.6,-1,0.8,-1.7,0.8c-0.7,0,-1.2,-0.2,-1.6,-0.8Z" class="g17_22" />
<path d="M1139.2,698.4c-1,0,-1.8,0.6,-2.4,1.8l0,-1.6l-1.1,0l0,7.8l1.1,0l0,-5.1c0,0,0.2,-0.2,0.4,-0.6c0.3,-0.3,0.6,-0.6,0.9,-0.8c0.4,-0.2,0.7,-0.3,1,-0.3c0.4,0,0.9,0.1,1.4,0.3l0.4,-1.1c-0.5,-0.3,-1.1,-0.4,-1.7,-0.4Z" class="g17_22" />
<path d="M1150.2,702.1c0,-1.1,-0.3,-2,-0.9,-2.7c-0.6,-0.7,-1.3,-1,-2.2,-1c-1,0,-1.9,0.4,-2.5,1.1c-0.6,0.7,-0.9,1.7,-0.9,3c0,1.2,0.3,2.2,1,3c0.7,0.7,1.7,1.1,2.8,1.1c0.9,0,1.7,-0.2,2.4,-0.5l-0.2,-0.9c-0.7,0.2,-1.5,0.3,-2.2,0.3c-0.7,0,-1.3,-0.2,-1.9,-0.8c-0.5,-0.6,-0.7,-1.3,-0.7,-2.2l5.3,0l0,-0.4Zm-5.2,-0.5c0,-0.7,0.2,-1.2,0.6,-1.6c0.4,-0.4,0.9,-0.6,1.5,-0.6c0.5,0,0.9,0.2,1.3,0.6c0.4,0.4,0.6,1,0.6,1.6l-4,0Z" class="g17_22" />
<text 
x="1004" 
y="706" 
dx="0,0,0,0,0,0,0,0,0,0,0,0,0,0,0,0" 
class="s2_22"
>p.top-tip:before</text>

<text 
x="1154" 
y="706" 
dx="0,0,0,0,0,-0.9,0,0,0,0,0" 
class="s1_22"
>rule does? </text>

<text 
x="1004" 
y="727" 
dx="0,0,0,0,0,0,-0.9,0,0.3,0,-0.9,0,0,0,0,0,0,0,0" 
class="s1_22"
>Hint: try changing </text>

<path d="M1135.6,726.6c-0.7,0.2,-1.4,0.3,-2,0.3c-0.8,0,-1.5,-0.3,-2,-0.8c-0.6,-0.6,-0.8,-1.4,-0.8,-2.2c0,-1,0.2,-1.7,0.7,-2.3c0.5,-0.5,1.2,-0.8,2.1,-0.8c0.5,0,1.2,0.1,1.9,0.4l0.3,-1c-0.7,-0.3,-1.5,-0.4,-2.2,-0.4c-1.2,0,-2.2,0.4,-2.9,1.1c-0.8,0.8,-1.1,1.7,-1.1,3c0,1.2,0.3,2.2,1.1,2.9c0.7,0.8,1.7,1.2,2.9,1.2c0.8,0,1.5,-0.2,2.2,-0.5l-0.2,-0.9Z" class="g17_22" />
<path d="M1139.5,720.9c-0.7,0.8,-1,1.7,-1,3c0,1.2,0.3,2.2,0.9,2.9c0.7,0.8,1.5,1.2,2.6,1.2c1.1,0,1.9,-0.4,2.6,-1.2c0.6,-0.7,0.9,-1.7,0.9,-2.9c0,-1.3,-0.3,-2.2,-0.9,-3c-0.7,-0.7,-1.5,-1.1,-2.6,-1.1c-1.1,0,-1.9,0.4,-2.5,1.1Zm0.8,5.2c-0.4,-0.6,-0.6,-1.4,-0.6,-2.2c0,-0.9,0.2,-1.7,0.6,-2.2c0.4,-0.6,1,-0.9,1.7,-0.9c0.7,0,1.3,0.3,1.7,0.9c0.4,0.5,0.6,1.3,0.6,2.2c0,0.8,-0.2,1.5,-0.6,2.1c-0.4,0.6,-1,0.9,-1.7,0.9c-0.7,0,-1.3,-0.3,-1.7,-0.8Z" class="g17_22" />
<path d="M1154.2,722.4c0,-1.7,-0.7,-2.6,-2.2,-2.6c-0.9,0,-1.8,0.4,-2.6,1.3l0,-1.1l-1.2,0l0,7.8l1.2,0l0,-5.7c0.8,-0.9,1.5,-1.3,2.2,-1.3c0.5,0,0.9,0.2,1.1,0.5c0.2,0.3,0.3,0.8,0.3,1.5l0,5l1.2,0l0,-5.4Z" class="g17_22" />
<path d="M1163.2,726.5c-0.6,0.3,-1.2,0.4,-1.9,0.4c-0.3,0,-0.6,-0.1,-0.8,-0.4c-0.2,-0.2,-0.3,-0.6,-0.3,-1.1l0,-4.4l2.6,0l0,-1l-2.6,0l0,-2.1l-1.2,0l0,2.1l-1.5,0l0,1l1.5,0l0,4.7c0,1.5,0.7,2.2,2.1,2.2c0.8,0,1.5,-0.1,2.3,-0.5l-0.2,-0.9Z" class="g17_22" />
<path d="M1172.8,723.5c0,-1.1,-0.3,-2,-1,-2.7c-0.6,-0.7,-1.3,-1,-2.2,-1c-1,0,-1.8,0.4,-2.5,1.1c-0.6,0.7,-0.9,1.7,-0.9,2.9c0,1.3,0.3,2.3,1.1,3c0.7,0.8,1.6,1.2,2.7,1.2c1,0,1.8,-0.2,2.4,-0.5l-0.2,-0.9c-0.7,0.2,-1.4,0.3,-2.1,0.3c-0.8,0,-1.4,-0.2,-1.9,-0.8c-0.5,-0.6,-0.8,-1.3,-0.8,-2.2l5.4,0l0,-0.4Zm-5.3,-0.5c0,-0.7,0.3,-1.2,0.7,-1.6c0.3,-0.4,0.8,-0.6,1.4,-0.6c0.5,0,0.9,0.2,1.3,0.6c0.4,0.4,0.6,0.9,0.6,1.6l-4,0Z" class="g17_22" />
<path d="M1181.7,722.4c0,-1.7,-0.7,-2.6,-2.2,-2.6c-0.9,0,-1.8,0.4,-2.6,1.3l0,-1.1l-1.2,0l0,7.8l1.2,0l0,-5.7c0.8,-0.9,1.5,-1.3,2.3,-1.3c0.4,0,0.8,0.2,1,0.5c0.2,0.3,0.3,0.8,0.3,1.5l0,5l1.2,0l0,-5.4Z" class="g17_22" />
<path d="M1190.7,726.5c-0.6,0.3,-1.2,0.4,-1.9,0.4c-0.3,0,-0.6,-0.1,-0.8,-0.4c-0.2,-0.2,-0.3,-0.6,-0.3,-1.1l0,-4.4l2.6,0l0,-1l-2.6,0l0,-2.1l-1.2,0l0,2.1l-1.4,0l0,1l1.4,0l0,4.7c0,1.5,0.7,2.2,2.1,2.2c0.8,0,1.6,-0.1,2.3,-0.5l-0.2,-0.9Z" class="g17_22" />
<path d="M1196.3,720.1c-0.2,0.2,-0.2,0.4,-0.2,0.7c0,0.2,0,0.4,0.2,0.6c0.2,0.2,0.4,0.2,0.7,0.2c0.2,0,0.4,0,0.6,-0.2c0.2,-0.2,0.3,-0.4,0.3,-0.6c0,-0.3,-0.1,-0.5,-0.3,-0.7c-0.2,-0.1,-0.4,-0.2,-0.6,-0.2c-0.3,0,-0.5,0.1,-0.7,0.2Zm0,6.3c-0.2,0.1,-0.2,0.3,-0.2,0.6c0,0.2,0,0.4,0.2,0.6c0.2,0.2,0.4,0.3,0.7,0.3c0.2,0,0.4,-0.1,0.6,-0.3c0.2,-0.2,0.3,-0.4,0.3,-0.6c0,-0.3,-0.1,-0.5,-0.3,-0.6c-0.2,-0.2,-0.4,-0.3,-0.6,-0.3c-0.3,0,-0.5,0.1,-0.7,0.3Z" class="g17_22" />
<path d="M1215.4,717.2l-1.1,0l0,1.8l0.3,2.1l0.6,0l0.2,-2.1l0,-1.8Zm-2.7,0l-1.1,0l0,1.8l0.3,2.1l0.6,0l0.2,-2.1l0,-1.8Z" class="g17_22" />
<path d="M1226.5,717.5l-8,0l0,1l4,0l0,9l1,0l0,-9l3,0l0,-1Z" class="g17_22" />
<path d="M1229.3,720.9c-0.6,0.8,-0.9,1.7,-0.9,3c0,1.2,0.3,2.2,0.9,2.9c0.6,0.8,1.5,1.2,2.6,1.2c1,0,1.9,-0.4,2.5,-1.2c0.6,-0.7,0.9,-1.7,0.9,-2.9c0,-1.3,-0.3,-2.2,-0.9,-3c-0.6,-0.7,-1.5,-1.1,-2.5,-1.1c-1.1,0,-2,0.4,-2.6,1.1Zm0.9,5.2c-0.4,-0.6,-0.6,-1.4,-0.6,-2.2c0,-0.9,0.2,-1.7,0.6,-2.2c0.4,-0.6,0.9,-0.9,1.7,-0.9c0.7,0,1.2,0.3,1.6,0.9c0.4,0.5,0.6,1.3,0.6,2.2c0,0.8,-0.2,1.5,-0.6,2.1c-0.4,0.6,-0.9,0.9,-1.6,0.9c-0.8,0,-1.3,-0.3,-1.7,-0.8Z" class="g17_22" />
<path d="M1239.2,720l-1.2,0l0,10.8l1.2,0l0,-4.2c0.2,0.4,0.6,0.7,1,1c0.4,0.2,0.9,0.4,1.4,0.4c0.9,0,1.6,-0.4,2.1,-1.2c0.6,-0.8,0.8,-1.8,0.8,-3c0,-1.2,-0.2,-2.2,-0.7,-2.9c-0.6,-0.7,-1.3,-1.1,-2.2,-1.1c-0.4,0,-0.9,0.1,-1.3,0.3c-0.5,0.2,-0.8,0.5,-1.1,0.9l0,-1Zm2.1,0.8c0.6,0,1.1,0.3,1.5,0.8c0.3,0.6,0.5,1.3,0.5,2.2c0,0.9,-0.2,1.6,-0.6,2.2c-0.3,0.6,-0.8,0.9,-1.5,0.9c-0.3,0,-0.7,-0.1,-1.1,-0.4c-0.4,-0.3,-0.7,-0.7,-0.9,-1.1l0,-3.3c0.6,-0.9,1.3,-1.3,2.1,-1.3Z" class="g17_22" />
<path d="M1261.5,717.5l-8,0l0,1l3,0l0,9l2,0l0,-9l3,0l0,-1Z" class="g17_22" />
<path d="M1266.7,717.3c-0.2,0.1,-0.3,0.3,-0.3,0.5c0,0.3,0.1,0.4,0.3,0.6c0.1,0.2,0.3,0.2,0.5,0.2c0.2,0,0.4,0,0.6,-0.2c0.1,-0.1,0.2,-0.3,0.2,-0.6c0,-0.2,-0.1,-0.4,-0.2,-0.5c-0.2,-0.2,-0.4,-0.3,-0.6,-0.3c-0.2,0,-0.4,0.1,-0.5,0.3Zm1.1,2.7l-3.5,0l0,1l2.3,0l0,6.8l1.2,0l0,-7.8Z" class="g17_22" />
<path d="M1274,720l-1.1,0l0,10.8l1.1,0l0,-4.2c0.3,0.4,0.6,0.7,1,1c0.5,0.2,0.9,0.4,1.4,0.4c0.9,0,1.6,-0.4,2.2,-1.2c0.5,-0.8,0.8,-1.8,0.8,-3c0,-1.2,-0.3,-2.2,-0.8,-2.9c-0.5,-0.7,-1.2,-1.1,-2.1,-1.1c-0.5,0,-1,0.1,-1.4,0.3c-0.4,0.2,-0.8,0.5,-1.1,0.9l0,-1Zm2.1,0.8c0.7,0,1.2,0.3,1.5,0.8c0.4,0.6,0.5,1.3,0.5,2.2c0,0.9,-0.1,1.6,-0.5,2.2c-0.4,0.6,-0.9,0.9,-1.5,0.9c-0.4,0,-0.8,-0.1,-1.2,-0.4c-0.3,-0.3,-0.6,-0.7,-0.9,-1.1l0,-3.3c0.6,-0.9,1.3,-1.3,2.1,-1.3Z" class="g17_22" />
<path d="M1284.3,720.1c-0.1,0.2,-0.2,0.4,-0.2,0.7c0,0.2,0.1,0.4,0.2,0.6c0.2,0.2,0.4,0.2,0.7,0.2c0.2,0,0.4,0,0.6,-0.2c0.2,-0.2,0.3,-0.4,0.3,-0.6c0,-0.3,-0.1,-0.5,-0.3,-0.7c-0.2,-0.1,-0.4,-0.2,-0.6,-0.2c-0.3,0,-0.5,0.1,-0.7,0.2Zm0,6.3c-0.1,0.1,-0.2,0.3,-0.2,0.6c0,0.2,0.1,0.4,0.2,0.6c0.2,0.2,0.4,0.3,0.7,0.3c0.2,0,0.4,-0.1,0.6,-0.3c0.2,-0.2,0.3,-0.4,0.3,-0.6c0,-0.3,-0.1,-0.5,-0.3,-0.6c-0.2,-0.2,-0.4,-0.3,-0.6,-0.3c-0.3,0,-0.5,0.1,-0.7,0.3Z" class="g17_22" />
<path d="M1303.5,717.2l-1.2,0l0,1.8l0.3,2.1l0.6,0l0.3,-2.1l0,-1.8Zm-2.7,0l-1.2,0l0,1.8l0.3,2.1l0.6,0l0.3,-2.1l0,-1.8Z" class="g17_22" />
<path d="M1310.1,720.1c-0.2,0.2,-0.3,0.4,-0.3,0.7c0,0.2,0.1,0.4,0.3,0.6c0.1,0.2,0.3,0.2,0.6,0.2c0.2,0,0.5,0,0.6,-0.2c0.2,-0.2,0.3,-0.4,0.3,-0.6c0,-0.3,-0.1,-0.5,-0.3,-0.7c-0.1,-0.1,-0.4,-0.2,-0.6,-0.2c-0.3,0,-0.5,0.1,-0.6,0.2Zm-0.3,8.9l0.3,0.5c1.1,-0.5,1.6,-1.3,1.6,-2.2c0,-0.4,-0.1,-0.6,-0.3,-0.9c-0.2,-0.2,-0.4,-0.3,-0.7,-0.3c-0.3,0,-0.5,0.1,-0.6,0.3c-0.2,0.1,-0.3,0.4,-0.3,0.6c0,0.2,0.1,0.4,0.3,0.6c0.1,0.2,0.4,0.3,0.6,0.4c0,0.4,-0.3,0.7,-0.9,1Z" class="g17_22" />
<text 
x="1128" 
y="727" 
dx="0,0,0,0,0,0,0,0,0,-1.8,0,0,0,0,-1.8,0,0,0,0,-1.8,0" 
class="s2_22"
>content: "Top Tip: ";</text>

<text 
x="1004" 
y="749" 
dx="0,0,0" 
class="s1_22"
>to </text>

<path d="M1028.4,747.9c-0.7,0.3,-1.4,0.4,-2.1,0.4c-0.8,0,-1.5,-0.3,-2,-0.9c-0.5,-0.5,-0.8,-1.3,-0.8,-2.1c0,-1,0.3,-1.7,0.8,-2.3c0.5,-0.5,1.2,-0.8,2,-0.8c0.6,0,1.2,0.1,1.9,0.4l0.3,-1c-0.7,-0.3,-1.4,-0.4,-2.2,-0.4c-1.2,0,-2.1,0.4,-2.9,1.1c-0.7,0.7,-1.1,1.7,-1.1,3c0,1.2,0.4,2.2,1.1,2.9c0.7,0.8,1.7,1.1,2.9,1.1c0.9,0,1.6,-0.1,2.3,-0.4l-0.2,-1Z" class="g17_22" />
<path d="M1032.2,742.3c-0.6,0.7,-0.9,1.7,-0.9,2.9c0,1.3,0.3,2.3,0.9,3c0.6,0.8,1.5,1.1,2.6,1.1c1,0,1.9,-0.3,2.5,-1.1c0.6,-0.7,1,-1.7,1,-3c0,-1.2,-0.4,-2.2,-1,-2.9c-0.6,-0.7,-1.5,-1.1,-2.5,-1.1c-1.1,0,-2,0.4,-2.6,1.1Zm0.9,5.1c-0.4,-0.5,-0.6,-1.3,-0.6,-2.1c0,-0.9,0.2,-1.7,0.6,-2.3c0.4,-0.5,0.9,-0.8,1.7,-0.8c0.7,0,1.2,0.3,1.6,0.9c0.4,0.5,0.6,1.3,0.6,2.2c0,0.8,-0.2,1.5,-0.6,2.1c-0.4,0.6,-0.9,0.9,-1.6,0.9c-0.8,0,-1.3,-0.3,-1.7,-0.9Z" class="g17_22" />
<path d="M1046.9,743.8c0,-1.7,-0.7,-2.6,-2.1,-2.6c-1,0,-1.8,0.4,-2.7,1.3l0,-1.1l-1.1,0l0,7.7l1.1,0l0,-5.6c0.8,-0.9,1.6,-1.3,2.3,-1.3c0.5,0,0.8,0.1,1,0.5c0.3,0.3,0.4,0.8,0.4,1.5l0,4.9l1.1,0l0,-5.3Z" class="g17_22" />
<path d="M1056,747.9c-0.6,0.3,-1.3,0.4,-1.9,0.4c-0.4,0,-0.6,-0.1,-0.9,-0.4c-0.2,-0.2,-0.3,-0.6,-0.3,-1.1l0,-4.4l2.7,0l0,-1l-2.7,0l0,-2.2l-1.1,0l0,2.2l-1.5,0l0,1l1.5,0l0,4.7c0,1.5,0.7,2.2,2.1,2.2c0.7,0,1.5,-0.2,2.3,-0.5l-0.2,-0.9Z" class="g17_22" />
<path d="M1065.5,744.9c0,-1.1,-0.3,-2,-0.9,-2.7c-0.6,-0.7,-1.3,-1,-2.2,-1c-1,0,-1.9,0.3,-2.5,1.1c-0.6,0.7,-0.9,1.7,-0.9,2.9c0,1.3,0.3,2.3,1,3c0.7,0.8,1.6,1.1,2.8,1.1c0.9,0,1.7,-0.1,2.4,-0.4l-0.2,-1c-0.8,0.3,-1.5,0.4,-2.2,0.4c-0.7,0,-1.4,-0.3,-1.9,-0.8c-0.5,-0.6,-0.7,-1.3,-0.7,-2.2l5.3,0l0,-0.4Zm-5.3,-0.6c0.1,-0.6,0.3,-1.1,0.7,-1.5c0.4,-0.4,0.9,-0.6,1.5,-0.6c0.5,0,0.9,0.2,1.3,0.6c0.4,0.4,0.5,0.9,0.5,1.5l-4,0Z" class="g17_22" />
<path d="M1074.4,743.8c0,-1.7,-0.7,-2.6,-2.1,-2.6c-1,0,-1.8,0.4,-2.7,1.3l0,-1.1l-1.1,0l0,7.7l1.1,0l0,-5.6c0.8,-0.9,1.6,-1.3,2.3,-1.3c0.5,0,0.8,0.1,1,0.5c0.3,0.3,0.4,0.8,0.4,1.5l0,4.9l1.1,0l0,-5.3Z" class="g17_22" />
<path d="M1083.5,747.9c-0.6,0.3,-1.3,0.4,-1.9,0.4c-0.4,0,-0.6,-0.1,-0.9,-0.4c-0.2,-0.2,-0.3,-0.6,-0.3,-1.1l0,-4.4l2.7,0l0,-1l-2.7,0l0,-2.2l-1.1,0l0,2.2l-1.5,0l0,1l1.5,0l0,4.7c0,1.5,0.7,2.2,2.1,2.2c0.7,0,1.5,-0.2,2.3,-0.5l-0.2,-0.9Z" class="g17_22" />
<path d="M1089.1,741.5c-0.2,0.2,-0.3,0.4,-0.3,0.6c0,0.3,0.1,0.5,0.3,0.7c0.1,0.1,0.4,0.2,0.6,0.2c0.3,0,0.5,-0.1,0.7,-0.2c0.1,-0.2,0.2,-0.4,0.2,-0.7c0,-0.2,-0.1,-0.4,-0.2,-0.6c-0.2,-0.2,-0.4,-0.2,-0.7,-0.2c-0.2,0,-0.5,0,-0.6,0.2Zm0,6.2c-0.2,0.2,-0.3,0.4,-0.3,0.7c0,0.2,0.1,0.4,0.3,0.6c0.1,0.2,0.4,0.3,0.6,0.3c0.3,0,0.5,-0.1,0.7,-0.3c0.1,-0.2,0.2,-0.4,0.2,-0.6c0,-0.3,-0.1,-0.5,-0.2,-0.7c-0.2,-0.1,-0.4,-0.2,-0.7,-0.2c-0.2,0,-0.5,0.1,-0.6,0.2Z" class="g17_22" />
<path d="M1108.2,738.6l-1.1,0l0,1.8l0.2,2.1l0.6,0l0.3,-2.1l0,-1.8Zm-2.7,0l-1.2,0l0,1.8l0.3,2.1l0.6,0l0.3,-2.1l0,-1.8Z" class="g17_22" />
<path d="M1118.8,738.6l-1.6,0l-1.7,4.8l-1.8,-4.8l-1.6,0l0,10.5l1.2,0l0,-9l1.6,4.3l1.2,0l1.6,-4.3l0,9l1.1,0l0,-10.5Z" class="g17_22" />
<path d="M1127.9,744.9c0,-1.1,-0.3,-2,-1,-2.7c-0.6,-0.7,-1.3,-1,-2.2,-1c-1,0,-1.8,0.3,-2.5,1.1c-0.6,0.7,-0.9,1.7,-0.9,2.9c0,1.3,0.3,2.3,1.1,3c0.7,0.8,1.6,1.1,2.7,1.1c1,0,1.8,-0.1,2.4,-0.4l-0.2,-1c-0.7,0.3,-1.4,0.4,-2.1,0.4c-0.8,0,-1.4,-0.3,-1.9,-0.8c-0.5,-0.6,-0.8,-1.3,-0.8,-2.2l5.4,0l0,-0.4Zm-5.3,-0.6c0,-0.6,0.3,-1.1,0.7,-1.5c0.3,-0.4,0.8,-0.6,1.4,-0.6c0.5,0,0.9,0.2,1.3,0.6c0.4,0.4,0.6,0.9,0.6,1.5l-4,0Z" class="g17_22" />
<path d="M1133.4,746.2c0.8,0,1.4,-0.2,1.9,-0.7c0.5,-0.5,0.7,-1.1,0.7,-1.8c0,-0.5,-0.1,-1,-0.3,-1.4l1.5,0l0,-1.1l-2.3,0.3c-0.5,-0.2,-1,-0.3,-1.5,-0.3c-0.7,0,-1.4,0.2,-1.9,0.7c-0.5,0.5,-0.7,1.1,-0.7,1.8c0,0.5,0.1,0.9,0.3,1.3c0.3,0.4,0.6,0.7,1,1c-0.9,0.4,-1.4,0.9,-1.4,1.5c0,0.5,0.4,0.9,1.1,1.2c-0.9,0.4,-1.3,1,-1.3,1.6c0,0.5,0.3,1,0.8,1.4c0.6,0.3,1.3,0.5,2.2,0.5c1,0,1.9,-0.2,2.7,-0.8c0.8,-0.5,1.2,-1.2,1.2,-2.1c0,-0.5,-0.2,-1,-0.5,-1.3c-0.4,-0.3,-0.9,-0.4,-1.5,-0.4l-2.6,0.1c-0.3,0,-0.5,-0.1,-0.7,-0.2c-0.2,-0.1,-0.2,-0.2,-0.2,-0.4c0,-0.2,0.3,-0.5,1.1,-0.9c0.1,0,0.3,0,0.4,0Zm-1,-1.3c-0.3,-0.3,-0.5,-0.7,-0.5,-1.2c0,-0.5,0.2,-0.8,0.5,-1.1c0.3,-0.3,0.6,-0.5,1,-0.5c0.5,0,0.8,0.2,1.1,0.4c0.2,0.3,0.4,0.7,0.4,1.2c0,0.5,-0.2,0.9,-0.4,1.2c-0.3,0.3,-0.7,0.4,-1.1,0.4c-0.4,0,-0.7,-0.1,-1,-0.4Zm-0.3,6.1c-0.3,-0.2,-0.5,-0.5,-0.5,-0.8c0,-0.2,0.1,-0.4,0.2,-0.6c0.1,-0.1,0.3,-0.3,0.5,-0.5c0.3,-0.2,0.4,-0.3,0.5,-0.3c0.3,0,0.6,0,1,0c0.6,0,1,0,1.3,0c0.7,0,1.1,0.2,1.1,0.7c0,0.5,-0.2,1,-0.8,1.3c-0.5,0.3,-1.2,0.5,-1.9,0.5c-0.6,0,-1,-0.1,-1.4,-0.3Z" class="g17_22" />
<path d="M1146,747.3l0,-3.3c0,-1.9,-0.9,-2.8,-2.7,-2.8c-0.9,0,-1.9,0.3,-3,0.8l0.4,0.8c0.3,-0.1,0.7,-0.3,1.1,-0.4c0.5,-0.1,0.8,-0.2,1.1,-0.2c1.3,0,1.9,0.7,1.9,2l0,0.4l-1.3,0.1c-0.6,0,-1.1,0.1,-1.5,0.2c-0.5,0.1,-0.8,0.3,-1.1,0.5c-0.3,0.2,-0.5,0.4,-0.7,0.7c-0.2,0.3,-0.2,0.7,-0.2,1c0,0.7,0.2,1.2,0.6,1.6c0.5,0.4,1,0.6,1.6,0.6c1.1,0,2,-0.4,2.7,-1.4c0,0.5,0,0.9,0.1,1.2l1.2,0c-0.2,-0.5,-0.2,-1.1,-0.2,-1.8Zm-2.3,0.6c-0.4,0.2,-0.8,0.3,-1.2,0.3c-0.4,0,-0.7,-0.1,-0.9,-0.3c-0.3,-0.2,-0.4,-0.5,-0.4,-0.8c0,-0.4,0.1,-0.7,0.4,-1c0.3,-0.2,0.6,-0.3,1,-0.4c0.4,-0.1,1.1,-0.2,2.2,-0.3l0,1.4c-0.3,0.5,-0.7,0.8,-1.1,1.1Z" class="g17_22" />
<path d="M1163.5,738.5l-8,0l0,1l3,0l0,10l2,0l0,-10l3,0l0,-1Z" class="g17_22" />
<path d="M1168.6,738.7c-0.2,0.1,-0.3,0.3,-0.3,0.5c0,0.2,0.1,0.4,0.3,0.6c0.1,0.2,0.3,0.2,0.5,0.2c0.2,0,0.4,0,0.6,-0.2c0.1,-0.2,0.2,-0.3,0.2,-0.6c0,-0.2,-0.1,-0.4,-0.2,-0.5c-0.2,-0.2,-0.4,-0.3,-0.6,-0.3c-0.2,0,-0.4,0.1,-0.5,0.3Zm1.1,2.7l-3.5,0l0,1l2.3,0l0,6.7l1.2,0l0,-7.7Z" class="g17_22" />
<path d="M1176,741.4l-1.2,0l0,10.8l1.2,0l0,-4.2c0.2,0.4,0.5,0.7,1,1c0.4,0.2,0.8,0.3,1.3,0.3c0.9,0,1.6,-0.4,2.2,-1.1c0.5,-0.8,0.8,-1.8,0.8,-3c0,-1.2,-0.3,-2.2,-0.8,-2.9c-0.5,-0.7,-1.2,-1.1,-2.1,-1.1c-0.5,0,-0.9,0.1,-1.4,0.3c-0.4,0.2,-0.8,0.5,-1,0.9l0,-1Zm2.1,0.8c0.6,0,1.1,0.3,1.4,0.8c0.4,0.6,0.6,1.3,0.6,2.2c0,0.9,-0.2,1.6,-0.6,2.2c-0.4,0.6,-0.9,0.9,-1.5,0.9c-0.4,0,-0.8,-0.1,-1.1,-0.4c-0.4,-0.3,-0.7,-0.7,-0.9,-1.1l0,-3.3c0.5,-0.9,1.2,-1.3,2.1,-1.3Z" class="g17_22" />
<path d="M1187.5,738.6l-1.3,0l0,3.4l0.3,4l0.7,0l0.3,-4l0,-3.4Zm-1.3,9.1c-0.2,0.2,-0.3,0.4,-0.3,0.7c0,0.2,0.1,0.5,0.3,0.7c0.2,0.1,0.4,0.2,0.7,0.2c0.2,0,0.4,-0.1,0.6,-0.2c0.2,-0.2,0.3,-0.5,0.3,-0.7c0,-0.3,-0.1,-0.5,-0.3,-0.7c-0.2,-0.2,-0.4,-0.3,-0.6,-0.3c-0.3,0,-0.5,0.1,-0.7,0.3Z" class="g17_22" />
<path d="M1205.4,738.6l-1.2,0l0,1.8l0.3,2.1l0.6,0l0.3,-2.1l0,-1.8Zm-2.7,0l-1.2,0l0,1.8l0.3,2.1l0.6,0l0.3,-2.1l0,-1.8Z" class="g17_22" />
<path d="M1212,741.5c-0.2,0.2,-0.3,0.4,-0.3,0.6c0,0.3,0.1,0.5,0.3,0.7c0.2,0.1,0.4,0.2,0.6,0.2c0.3,0,0.5,-0.1,0.7,-0.2c0.1,-0.2,0.2,-0.4,0.2,-0.7c0,-0.2,-0.1,-0.4,-0.2,-0.6c-0.2,-0.2,-0.4,-0.2,-0.7,-0.2c-0.2,0,-0.4,0,-0.6,0.2Zm-0.3,8.9l0.3,0.5c1.1,-0.5,1.6,-1.3,1.6,-2.3c0,-0.3,-0.1,-0.5,-0.3,-0.8c-0.2,-0.2,-0.4,-0.3,-0.7,-0.3c-0.2,0,-0.4,0.1,-0.6,0.3c-0.2,0.1,-0.3,0.3,-0.3,0.6c0,0.2,0.1,0.4,0.3,0.6c0.2,0.2,0.4,0.3,0.6,0.3c0,0.4,-0.3,0.8,-0.9,1.1Z" class="g17_22" />
<text 
x="1021" 
y="749" 
dx="0,0,0,0,0,0,0,0,0,-1.8,0,0,0,0,0,-1.8,0,0,0,0,-1.8,0" 
class="s2_22"
>content: "Mega Tip! ";</text>

<text 
x="977" 
y="770" 
dx="0" 
class="s8_22"
>[</text>

<text 
x="1004" 
y="770" 
dx="0,0,0,0,-0.9,0,0,0,-0.9,0,0,0,0,-0.9,0,0,0,0,-0.9,0,0,0,-0.9,0,0,-0.3,0,0,-0.9,-1.7,0,0,-0.9,0,0,0,0,-0.9,0,0,0,0,0,0,-0.9,0,0" 
class="s1_22"
>Can you make just the words Top Tip: appear in </text>

<text 
x="1004" 
y="791" 
dx="0,0,0,0,0,0,0" 
class="s1_22"
>orange?</text>

<text 
x="977" 
y="813" 
dx="0" 
class="s8_22"
>[</text>

<text 
x="1004" 
y="813" 
dx="0,0,0,0,0,-0.9,0,0,0,0,0,0,0,-0.9,0,0,-0.9,0,0,0,-0.9,0,0,0,0,0,0,-0.9,0,0,0,-0.9,0,0,-0.3,0,0,0,-0.9,0,-0.3,0,0" 
class="s1_22"
>What happens if you change the border from </text>

<path d="M1011.9,827.1c-0.8,-0.3,-1.4,-0.4,-2.1,-0.4c-0.9,0,-1.7,0.2,-2.3,0.6c-0.6,0.4,-0.9,1,-0.9,1.6c0,0.3,0.1,0.6,0.2,0.9c0.1,0.2,0.3,0.4,0.6,0.6c0.2,0.2,0.5,0.3,0.7,0.4c0.3,0.1,0.8,0.2,1.4,0.4c0.7,0.2,1.2,0.5,1.4,0.7c0.2,0.2,0.3,0.4,0.3,0.7c0,0.4,-0.2,0.7,-0.6,1c-0.4,0.2,-0.9,0.3,-1.6,0.3c-0.7,0,-1.4,-0.1,-2.1,-0.4l-0.2,1c0.6,0.3,1.4,0.4,2.4,0.4c0.9,0,1.7,-0.2,2.3,-0.6c0.6,-0.5,1,-1.1,1,-1.8c0,-0.4,-0.1,-0.7,-0.3,-1c-0.1,-0.3,-0.4,-0.5,-0.7,-0.7c-0.3,-0.2,-0.8,-0.4,-1.3,-0.6l-1.1,-0.3c-0.5,-0.1,-0.8,-0.3,-1,-0.4c-0.2,-0.2,-0.2,-0.4,-0.2,-0.6c0,-0.4,0.1,-0.7,0.5,-0.9c0.4,-0.2,0.9,-0.3,1.5,-0.3c0.6,0,1.2,0.1,1.9,0.3l0.2,-0.9Z" class="g17_22" />
<path d="M1016.1,827.9c-0.7,0.7,-1,1.7,-1,2.9c0,1.2,0.3,2.2,1,3c0.6,0.7,1.4,1.1,2.5,1.1c1.1,0,1.9,-0.4,2.6,-1.1c0.6,-0.8,0.9,-1.8,0.9,-3c0,-1.2,-0.3,-2.2,-0.9,-2.9c-0.7,-0.8,-1.5,-1.2,-2.6,-1.2c-1,0,-1.9,0.4,-2.5,1.2Zm0.8,5.1c-0.4,-0.6,-0.6,-1.3,-0.6,-2.2c0,-0.9,0.2,-1.6,0.6,-2.2c0.4,-0.6,1,-0.9,1.7,-0.9c0.7,0,1.3,0.3,1.7,0.9c0.4,0.6,0.6,1.3,0.6,2.2c0,0.9,-0.2,1.6,-0.6,2.2c-0.4,0.6,-1,0.9,-1.7,0.9c-0.7,0,-1.2,-0.3,-1.7,-0.9Z" class="g17_22" />
<path d="M1029.5,833.5l-2,0l0,-9l-3,0l0,1l2,0l0,9l3,0l0,-1Z" class="g17_22" />
<path d="M1034.5,824.2c-0.2,0.2,-0.3,0.4,-0.3,0.6c0,0.2,0.1,0.4,0.3,0.5c0.1,0.2,0.3,0.3,0.5,0.3c0.2,0,0.4,-0.1,0.6,-0.2c0.1,-0.2,0.2,-0.4,0.2,-0.6c0,-0.2,-0.1,-0.4,-0.2,-0.6c-0.2,-0.1,-0.4,-0.2,-0.6,-0.2c-0.2,0,-0.4,0.1,-0.5,0.2Zm1.1,2.7l-3.5,0l0,1l2.3,0l0,6.8l1.2,0l0,-7.8Z" class="g17_22" />
<path d="M1046.1,824.2l-1.2,0l0,3.7c-0.6,-0.8,-1.4,-1.2,-2.4,-1.2c-0.9,0,-1.6,0.4,-2.1,1.2c-0.6,0.7,-0.8,1.7,-0.8,2.8c0,1.2,0.2,2.2,0.7,3c0.6,0.8,1.3,1.2,2.2,1.2c0.4,0,0.9,-0.1,1.4,-0.4c0.4,-0.2,0.7,-0.5,1,-0.9l0,1.1l1.2,0l0,-10.5Zm-1.6,8.7c-0.3,0.3,-0.6,0.6,-0.8,0.7c-0.3,0.2,-0.6,0.3,-0.9,0.3c-0.6,0,-1.1,-0.3,-1.5,-0.9c-0.3,-0.6,-0.5,-1.3,-0.5,-2.2c0,-0.9,0.2,-1.6,0.6,-2.2c0.3,-0.6,0.8,-0.9,1.5,-0.9c0.8,0,1.4,0.5,2,1.4l0,3.2c0,0.1,-0.1,0.3,-0.4,0.6Z" class="g17_22" />
<text 
x="1004" 
y="834" 
dx="0,0,-0.8,-1.7,-0.6" 
class="s2_22"
>solid</text>

<text 
x="1051" 
y="834" 
dx="0,0,0" 
class="s1_22"
>to </text>

<path d="M1074.8,824.2l-1.2,0l0,3.7c-0.6,-0.8,-1.4,-1.2,-2.4,-1.2c-0.9,0,-1.6,0.4,-2.1,1.2c-0.6,0.7,-0.8,1.7,-0.8,2.8c0,1.2,0.2,2.2,0.8,3c0.5,0.8,1.2,1.2,2.1,1.2c0.5,0,0.9,-0.1,1.4,-0.4c0.4,-0.2,0.8,-0.5,1,-0.9l0,1.1l1.2,0l0,-10.5Zm-1.6,8.7c-0.3,0.3,-0.5,0.6,-0.8,0.7c-0.3,0.2,-0.6,0.3,-0.9,0.3c-0.6,0,-1.1,-0.3,-1.5,-0.9c-0.3,-0.6,-0.5,-1.3,-0.5,-2.2c0,-0.9,0.2,-1.6,0.6,-2.2c0.3,-0.6,0.8,-0.9,1.5,-0.9c0.8,0,1.4,0.5,2,1.4l0,3.2c0,0.1,-0.1,0.3,-0.4,0.6Z" class="g17_22" />
<path d="M1084,832.9l0,-3.4c0,-1.8,-0.9,-2.8,-2.7,-2.8c-0.9,0,-1.9,0.3,-3,0.8l0.4,0.9c0.3,-0.2,0.7,-0.3,1.1,-0.5c0.5,-0.1,0.8,-0.2,1.1,-0.2c1.3,0,1.9,0.7,1.9,2l0,0.4l-1.3,0.1c-0.6,0.1,-1.1,0.1,-1.5,0.3c-0.5,0.1,-0.8,0.2,-1.1,0.4c-0.3,0.2,-0.5,0.5,-0.7,0.8c-0.2,0.3,-0.2,0.6,-0.2,1c0,0.6,0.2,1.2,0.6,1.6c0.5,0.4,1,0.6,1.6,0.6c1.1,0,2,-0.5,2.7,-1.5c0,0.6,0,1,0.1,1.3l1.1,0c-0.1,-0.5,-0.1,-1.1,-0.1,-1.8Zm-2.3,0.5c-0.4,0.3,-0.8,0.4,-1.2,0.4c-0.4,0,-0.7,-0.1,-0.9,-0.3c-0.3,-0.3,-0.4,-0.5,-0.4,-0.9c0,-0.4,0.1,-0.7,0.4,-0.9c0.3,-0.2,0.6,-0.4,1,-0.5c0.4,0,1.1,-0.1,2.2,-0.2l0,1.4c-0.3,0.4,-0.7,0.8,-1.1,1Z" class="g17_22" />
<path d="M1092.6,827.1c-0.8,-0.3,-1.5,-0.4,-2.1,-0.4c-1,0,-1.8,0.2,-2.4,0.6c-0.5,0.4,-0.8,1,-0.8,1.6c0,0.3,0,0.6,0.2,0.9c0.1,0.2,0.3,0.4,0.5,0.6c0.3,0.2,0.5,0.3,0.8,0.4c0.3,0.1,0.7,0.2,1.3,0.4c0.8,0.2,1.3,0.5,1.5,0.7c0.2,0.2,0.3,0.4,0.3,0.7c0,0.4,-0.2,0.7,-0.7,1c-0.4,0.2,-0.9,0.3,-1.5,0.3c-0.8,0,-1.5,-0.1,-2.1,-0.4l-0.3,1c0.7,0.3,1.5,0.4,2.4,0.4c1,0,1.8,-0.2,2.4,-0.6c0.6,-0.5,0.9,-1.1,0.9,-1.8c0,-0.4,-0.1,-0.7,-0.2,-1c-0.2,-0.3,-0.4,-0.5,-0.8,-0.7c-0.3,-0.2,-0.7,-0.4,-1.2,-0.6l-1.1,-0.3c-0.5,-0.1,-0.9,-0.3,-1,-0.4c-0.2,-0.2,-0.3,-0.4,-0.3,-0.6c0,-0.4,0.2,-0.7,0.6,-0.9c0.3,-0.2,0.8,-0.3,1.5,-0.3c0.5,0,1.2,0.1,1.8,0.3l0.3,-0.9Z" class="g17_22" />
<path d="M1102.3,829.4c0,-1.8,-0.7,-2.7,-2.2,-2.7c-0.9,0,-1.8,0.5,-2.6,1.4l0,-3.9l-1.2,0l0,10.5l1.2,0l0,-5.6c0.8,-0.9,1.5,-1.4,2.3,-1.4c0.4,0,0.8,0.2,1,0.5c0.2,0.3,0.3,0.8,0.3,1.5l0,5l1.2,0l0,-5.3Z" class="g17_22" />
<path d="M1111.7,830.5c0,-1.2,-0.3,-2.1,-0.9,-2.7c-0.6,-0.7,-1.4,-1.1,-2.3,-1.1c-1,0,-1.8,0.4,-2.4,1.1c-0.6,0.8,-1,1.8,-1,3c0,1.2,0.4,2.2,1.1,3c0.7,0.7,1.6,1.1,2.8,1.1c0.9,0,1.7,-0.2,2.4,-0.5l-0.2,-0.9c-0.8,0.3,-1.5,0.4,-2.2,0.4c-0.7,0,-1.4,-0.3,-1.9,-0.9c-0.5,-0.5,-0.7,-1.3,-0.7,-2.2l5.3,0l0,-0.3Zm-5.3,-0.6c0.1,-0.6,0.3,-1.2,0.7,-1.6c0.4,-0.4,0.9,-0.6,1.5,-0.6c0.5,0,0.9,0.3,1.3,0.7c0.3,0.4,0.5,0.9,0.5,1.5l-4,0Z" class="g17_22" />
<path d="M1120.6,824.2l-1.2,0l0,3.7c-0.6,-0.8,-1.3,-1.2,-2.3,-1.2c-0.9,0,-1.6,0.4,-2.2,1.2c-0.5,0.7,-0.8,1.7,-0.8,2.8c0,1.2,0.3,2.2,0.8,3c0.5,0.8,1.2,1.2,2.1,1.2c0.5,0,1,-0.1,1.4,-0.4c0.5,-0.2,0.8,-0.5,1,-0.9l0,1.1l1.2,0l0,-10.5Zm-1.6,8.7c-0.2,0.3,-0.5,0.6,-0.8,0.7c-0.3,0.2,-0.6,0.3,-0.9,0.3c-0.6,0,-1.1,-0.3,-1.4,-0.9c-0.4,-0.6,-0.6,-1.3,-0.6,-2.2c0,-0.9,0.2,-1.6,0.6,-2.2c0.4,-0.6,0.9,-0.9,1.5,-0.9c0.8,0,1.5,0.5,2,1.4l0,3.2c0,0.1,-0.1,0.3,-0.4,0.6Z" class="g17_22" />
<text 
x="1067" 
y="834" 
dx="0,0,0,0,0,0" 
class="s2_22"
>dashed</text>

<text 
x="1122" 
y="834" 
dx="0" 
class="s1_22"
>?</text>

<text 
x="972" 
y="620" 
dx="0,-2.2,-2.1,-2.1,-1.8,-2.5,0,0,-2.2,0,0,-1.8,0,0,-1.7,-2.8,-2.4" 
class="s5_22"
>Things to do next</text>

<text 
x="903" 
y="392" 
dx="0,-0.6,0,0,-2.2,0,0,0" 
class="s9_22"
>TOP TIP:</text>

<text 
x="965" 
y="392" 
dx="0,0,0,-0.7,0,0,0,-0.7,0,0,0,-0.7,0,-0.7,0,-0.2,0,0,0,-0.7,0,0,0,0,-0.7,0,0,-0.7,0,0,0,0,-0.7,0,-0.7,0,0,0,0,0,0,0,0,-0.7,0,0,0,-0.2,0,-0.7,0,0,0,0,-0.7,0,0,0,0,0,0,0,-0.7,0,-0.7,0,0,0,0,-0.7,0,0,0,0.2,0,-0.7,0,0,-0.7,0,0,0,-0.7,0,0,0,0,-0.7,0,0,-0.7,0,0,0,0,0,0,-0.7,0,0,0,-0.7,0,0,0,0,0,-0.7,0,0" 
class="s10_22"
>If you hit a wrong note or make a mistake, don’t stop playing – just carry on and look as though you meant it!</text>

<path d="M701,155l-4,0l0,-4l-4,0l0,-4l-4,0l0,-4l-4,0l0,-4l4,0l4,0l4,0l4,0l4,0l4,0l4,0l5,0l4,0l0,4l-4,0l0,4l-5,0l0,4l-4,0l0,4l-4,0l0,4l-4,0Z" class="g16_22" />
<path d="M1072,325l-4,0l0,-4l-4,0l0,-4l-4,0l0,-4l-4,0l0,-4l4,0l4,0l4,0l4,0l4,0l4,0l4,0l4,0l4,0l0,4l-4,0l0,4l-4,0l0,4l-4,0l0,4l-4,0l0,4l-4,0Z" class="g16_22" />
<path d="M1072,494l-4,0l0,-4l-4,0l0,-4l-4,0l0,-4l-4,0l0,-4l4,0l4,0l4,0l4,0l4,0l4,0l4,0l4,0l4,0l0,4l-4,0l0,4l-4,0l0,4l-4,0l0,4l-4,0l0,4l-4,0Z" class="g16_22" />
<path d="M1475,556l-4,0l0,-4l-4,0l0,-4l-4,0l0,-4l-5,0l0,-4l5,0l4,0l4,0l4,0l4,0l4,0l4,0l4,0l4,0l0,4l-4,0l0,4l-4,0l0,4l-4,0l0,4l-4,0l0,4l-4,0Z" class="g16_22" />
<path d="M360,256l0,4l-4,0l0,4l-4,0l0,4l-4,0l0,4l-4,0l0,-4l0,-4l0,-4l0,-4l0,-4l0,-4l0,-4l0,-4l0,-4l4,0l0,4l4,0l0,4l4,0l0,4l4,0l0,4l4,0l0,4Z" class="g16_22" />
<path d="M409,348l-4,0l0,-4l-4,0l0,-4l-4,0l0,-4l-4,0l0,-4l4,0l4,0l4,0l4,0l4,0l4,0l4,0l4,0l4,0l0,4l-4,0l0,4l-4,0l0,4l-4,0l0,4l-4,0l0,4l-4,0Z" class="g16_22" />
<path d="M285,636l-4,0l0,-4l-4,0l0,-4l-4,0l0,-4l-4,0l0,-4l4,0l4,0l4,0l4,0l4,0l4,0l4,0l4,0l4,0l0,4l-4,0l0,4l-4,0l0,4l-4,0l0,4l-4,0l0,4l-4,0Z" class="g16_22" />
<path d="M660,667l-4,0l0,-4l-4,0l0,-4l-4,0l0,-4l-4,0l0,-4l4,0l4,0l4,0l4,0l4,0l4,0l4,0l4,0l4,0l0,4l-4,0l0,4l-4,0l0,4l-4,0l0,4l-4,0l0,4l-4,0Z" class="g16_22" />
<path d="M550,948l0,4l-4,0l0,4l-4,0l0,4l-4,0l0,4l-5,0l0,-4l0,-4l0,-4l0,-4l0,-4l0,-4l0,-4l0,-4l0,-4l5,0l0,4l4,0l0,4l4,0l0,4l4,0l0,4l4,0l0,4Z" class="g16_22" />
<text 
x="983" 
y="930" 
dx="0,0,0,-0.4,0,0,0,-0.4,0,0,0,0,-0.4,0,0,-0.4,0,0,0,0,-0.4,0,-0.4,0,0,0,-0.4,0,0,0,0,-0.4,0,0,0,0,-0.4,-0.3,0,0,0,0,0,-0.4,0,0,0,0,0,-0.4,0,0,-1.1,0,-0.4,0,0,0,0,0.3,0,0,0,0,-0.4,0,0,0,0,-0.4,0,0,0,-0.4,0,0,0,-0.4,0,0,0,0,-0.4,0,0,0" 
class="s1_22"
>If you want to make a web page look really good, it’s important that you can pick out </text>

<text 
x="983" 
y="952" 
dx="0,0,0,0,-0.2,0,0,0,0,0,0,0,-0.2,0,0,0.3,0,0,-0.2,0,0,-0.2,0,0,0,-0.2,0,0,0,0,0,-0.2,0,0,0" 
class="s1_22"
>the various parts of the page. The </text>

<path d="M1224.1,951.1c-0.7,0.3,-1.4,0.4,-2.1,0.4c-0.8,0,-1.5,-0.3,-2,-0.9c-0.5,-0.6,-0.8,-1.3,-0.8,-2.1c0,-1,0.3,-1.7,0.8,-2.3c0.5,-0.5,1.2,-0.8,2,-0.8c0.6,0,1.2,0.1,1.9,0.3l0.3,-0.9c-0.7,-0.3,-1.4,-0.4,-2.2,-0.4c-1.2,0,-2.2,0.3,-2.9,1.1c-0.7,0.7,-1.1,1.7,-1.1,3c0,1.2,0.4,2.2,1.1,2.9c0.7,0.8,1.7,1.1,2.9,1.1c0.8,0,1.6,-0.1,2.3,-0.4l-0.2,-1Z" class="g17_22" />
<path d="M1232.5,951.5l-2,0l0,-10l-3,0l0,1l2,0l0,10l3,0l0,-1Z" class="g17_22" />
<path d="M1242.6,950.5l0,-3.3c0,-1.9,-0.9,-2.8,-2.6,-2.8c-0.9,0,-1.9,0.2,-3,0.8l0.3,0.8c0.3,-0.2,0.7,-0.3,1.2,-0.4c0.4,-0.2,0.8,-0.2,1.1,-0.2c1.2,0,1.9,0.6,1.9,2l0,0.4l-1.3,0.1c-0.6,0,-1.1,0.1,-1.6,0.2c-0.4,0.1,-0.8,0.3,-1.1,0.5c-0.3,0.2,-0.5,0.4,-0.6,0.7c-0.2,0.3,-0.3,0.7,-0.3,1c0,0.7,0.3,1.2,0.7,1.6c0.4,0.4,0.9,0.6,1.5,0.6c1.2,0,2.1,-0.4,2.7,-1.4c0,0.5,0.1,0.9,0.2,1.2l1.1,0c-0.1,-0.5,-0.2,-1.1,-0.2,-1.8Zm-2.2,0.5c-0.4,0.3,-0.8,0.4,-1.2,0.4c-0.4,0,-0.7,-0.1,-1,-0.3c-0.2,-0.2,-0.3,-0.5,-0.3,-0.8c0,-0.4,0.1,-0.7,0.4,-1c0.3,-0.2,0.6,-0.3,1,-0.4c0.4,-0.1,1.1,-0.2,2.2,-0.3l0,1.4c-0.3,0.5,-0.7,0.8,-1.1,1Z" class="g17_22" />
<path d="M1251.2,944.7c-0.7,-0.2,-1.4,-0.3,-2,-0.3c-1,0,-1.8,0.2,-2.4,0.6c-0.6,0.4,-0.9,0.9,-0.9,1.6c0,0.3,0.1,0.5,0.2,0.8c0.2,0.2,0.3,0.5,0.6,0.6c0.2,0.2,0.5,0.4,0.8,0.4c0.3,0.1,0.7,0.3,1.3,0.5c0.7,0.2,1.2,0.4,1.4,0.6c0.2,0.2,0.3,0.5,0.3,0.7c0,0.4,-0.2,0.8,-0.6,1c-0.4,0.2,-0.9,0.4,-1.6,0.4c-0.7,0,-1.4,-0.2,-2.1,-0.5l-0.2,1c0.6,0.3,1.4,0.4,2.4,0.4c0.9,0,1.7,-0.2,2.4,-0.6c0.6,-0.4,0.9,-1,0.9,-1.8c0,-0.3,-0.1,-0.7,-0.3,-1c-0.1,-0.2,-0.4,-0.5,-0.7,-0.7c-0.3,-0.2,-0.7,-0.4,-1.2,-0.5l-1.1,-0.3c-0.6,-0.2,-0.9,-0.3,-1.1,-0.5c-0.1,-0.2,-0.2,-0.4,-0.2,-0.6c0,-0.3,0.2,-0.6,0.5,-0.8c0.4,-0.2,0.9,-0.3,1.5,-0.3c0.6,0,1.2,0.1,1.9,0.3l0.2,-1Z" class="g17_22" />
<path d="M1260.4,944.7c-0.8,-0.2,-1.5,-0.3,-2.1,-0.3c-0.9,0,-1.7,0.2,-2.3,0.6c-0.6,0.4,-0.9,0.9,-0.9,1.6c0,0.3,0.1,0.5,0.2,0.8c0.1,0.2,0.3,0.5,0.6,0.6c0.2,0.2,0.5,0.4,0.7,0.4c0.3,0.1,0.8,0.3,1.4,0.5c0.7,0.2,1.2,0.4,1.4,0.6c0.2,0.2,0.3,0.5,0.3,0.7c0,0.4,-0.2,0.8,-0.6,1c-0.4,0.2,-0.9,0.4,-1.6,0.4c-0.7,0,-1.4,-0.2,-2.1,-0.5l-0.2,1c0.6,0.3,1.4,0.4,2.4,0.4c0.9,0,1.7,-0.2,2.3,-0.6c0.6,-0.4,1,-1,1,-1.8c0,-0.3,-0.1,-0.7,-0.3,-1c-0.1,-0.2,-0.4,-0.5,-0.7,-0.7c-0.3,-0.2,-0.8,-0.4,-1.3,-0.5l-1.1,-0.3c-0.5,-0.2,-0.8,-0.3,-1,-0.5c-0.2,-0.2,-0.2,-0.4,-0.2,-0.6c0,-0.3,0.1,-0.6,0.5,-0.8c0.4,-0.2,0.9,-0.3,1.5,-0.3c0.6,0,1.2,0.1,1.8,0.3l0.3,-1Z" class="g17_22" />
<text 
x="1216" 
y="952" 
dx="0,0,0,0,0" 
class="s2_22"
>class</text>

<text 
x="1266" 
y="952" 
dx="0,0,0,0,0,0,0,0,0,0,-0.2,0,0,0,-0.2,0,-0.2,0,0,0,0,0,0,-0.2,0,0,0,-0.3,0,0,-0.2,0,0,0,0,0,-0.2,0,0,0,0,0,0" 
class="s1_22"
>attribute has a hidden secret which allows </text>

<text 
x="983" 
y="973" 
dx="0,0,0,0,0,0,0,0,0,0,0,0,0,0,0,0,-0.3,0,0,0,0,0,0,0,0,0,0,0,0,0,0.3,0,0,0,0,0,0,0,0,0,0,0,0,0,0,0,0,0,0,0,0,0,0,0,0,0,0,0,0,0,0,0,0,0,0,0,0,0,0,0,0,0,0,0,0,0,0" 
class="s1_22"
>you to apply more than one formatting rule to an element. Find out about the </text>

<path d="M1513.5,972.5c-0.7,0.3,-1.4,0.4,-2.1,0.4c-0.8,0,-1.5,-0.3,-2,-0.9c-0.5,-0.6,-0.8,-1.3,-0.8,-2.2c0,-0.9,0.3,-1.6,0.8,-2.2c0.5,-0.6,1.2,-0.8,2,-0.8c0.6,0,1.2,0.1,1.9,0.3l0.3,-0.9c-0.7,-0.3,-1.4,-0.4,-2.2,-0.4c-1.2,0,-2.2,0.3,-2.9,1.1c-0.7,0.7,-1.1,1.7,-1.1,2.9c0,1.3,0.4,2.3,1.1,3c0.7,0.8,1.7,1.1,2.9,1.1c0.8,0,1.6,-0.1,2.3,-0.4l-0.2,-1Z" class="g17_22" />
<path d="M1522.5,972.5l-2,0l0,-9l-3,0l0,1l2,0l0,9l3,0l0,-1Z" class="g17_22" />
<path d="M1532,971.9l0,-3.3c0,-1.9,-0.9,-2.8,-2.6,-2.8c-0.9,0,-1.9,0.2,-3,0.8l0.3,0.8c0.3,-0.2,0.7,-0.3,1.2,-0.4c0.4,-0.2,0.8,-0.2,1.1,-0.2c1.2,0,1.9,0.6,1.9,2l0,0.3l-1.3,0.1c-0.6,0.1,-1.1,0.2,-1.6,0.3c-0.4,0.1,-0.8,0.3,-1,0.5c-0.3,0.2,-0.6,0.4,-0.7,0.7c-0.2,0.3,-0.3,0.6,-0.3,1c0,0.7,0.3,1.2,0.7,1.6c0.4,0.4,0.9,0.6,1.5,0.6c1.2,0,2.1,-0.5,2.7,-1.4c0,0.5,0.1,0.9,0.2,1.2l1.1,0c-0.1,-0.5,-0.2,-1.1,-0.2,-1.8Zm-2.2,0.5c-0.4,0.3,-0.8,0.4,-1.2,0.4c-0.4,0,-0.7,-0.1,-1,-0.3c-0.2,-0.2,-0.3,-0.5,-0.3,-0.9c0,-0.3,0.1,-0.6,0.4,-0.9c0.3,-0.2,0.6,-0.3,1,-0.4c0.4,-0.1,1.1,-0.2,2.2,-0.3l0,1.4c-0.3,0.5,-0.7,0.8,-1.1,1Z" class="g17_22" />
<path d="M1540.6,966.1c-0.7,-0.2,-1.4,-0.3,-2,-0.3c-1,0,-1.8,0.2,-2.4,0.6c-0.6,0.3,-0.9,0.9,-0.9,1.6c0,0.3,0.1,0.5,0.2,0.8c0.2,0.2,0.3,0.4,0.6,0.6c0.2,0.2,0.5,0.3,0.8,0.4c0.3,0.1,0.7,0.3,1.3,0.4c0.8,0.3,1.2,0.5,1.4,0.7c0.2,0.2,0.3,0.5,0.3,0.7c0,0.4,-0.2,0.7,-0.6,1c-0.4,0.2,-0.9,0.3,-1.6,0.3c-0.7,0,-1.4,-0.1,-2.1,-0.4l-0.2,1c0.6,0.3,1.4,0.4,2.4,0.4c0.9,0,1.7,-0.2,2.4,-0.6c0.6,-0.5,0.9,-1,0.9,-1.8c0,-0.4,-0.1,-0.7,-0.2,-1c-0.2,-0.3,-0.5,-0.5,-0.8,-0.7c-0.3,-0.2,-0.7,-0.4,-1.2,-0.5l-1.1,-0.3c-0.5,-0.2,-0.9,-0.3,-1.1,-0.5c-0.1,-0.2,-0.2,-0.4,-0.2,-0.6c0,-0.3,0.2,-0.6,0.5,-0.8c0.4,-0.3,0.9,-0.4,1.5,-0.4c0.6,0,1.2,0.1,1.9,0.4l0.2,-1Z" class="g17_22" />
<path d="M1549.8,966.1c-0.8,-0.2,-1.4,-0.3,-2.1,-0.3c-0.9,0,-1.7,0.2,-2.3,0.6c-0.6,0.3,-0.9,0.9,-0.9,1.6c0,0.3,0.1,0.5,0.2,0.8c0.1,0.2,0.3,0.4,0.6,0.6c0.2,0.2,0.5,0.3,0.7,0.4c0.3,0.1,0.8,0.3,1.4,0.4c0.7,0.3,1.2,0.5,1.4,0.7c0.2,0.2,0.3,0.5,0.3,0.7c0,0.4,-0.2,0.7,-0.6,1c-0.4,0.2,-0.9,0.3,-1.6,0.3c-0.7,0,-1.4,-0.1,-2.1,-0.4l-0.2,1c0.6,0.3,1.4,0.4,2.4,0.4c0.9,0,1.7,-0.2,2.3,-0.6c0.7,-0.5,1,-1,1,-1.8c0,-0.4,-0.1,-0.7,-0.3,-1c-0.1,-0.3,-0.4,-0.5,-0.7,-0.7c-0.3,-0.2,-0.7,-0.4,-1.3,-0.5l-1.1,-0.3c-0.5,-0.2,-0.8,-0.3,-1,-0.5c-0.2,-0.2,-0.2,-0.4,-0.2,-0.6c0,-0.3,0.1,-0.6,0.5,-0.8c0.4,-0.3,0.9,-0.4,1.5,-0.4c0.6,0,1.2,0.1,1.9,0.4l0.2,-1Z" class="g17_22" />
<text 
x="1506" 
y="973" 
dx="0,0,0,0,0" 
class="s2_22"
>class</text>

<text 
x="983" 
y="995" 
dx="0,0,0,0,0,0,0,0,0,0,-0.9,0,0,-0.3,0,0,-0.9,0,0,0,0,0,0,0,0,0,0,0,0,0,0,0,0,0,0,0,0,0" 
class="s1_22"
>attribute here: http://nano.tips/class</text>

<text 
x="971" 
y="888" 
dx="0,-1.7,-1.7,-1.9,0,0,-1.7,-1.6,-3.2,-2.1,-1.7" 
class="s5_22"
>more online</text>

<text 
x="1590" 
y="1019" 
dx="0,-1.3" 
class="s11_22"
>43</text>

<text 
x="36" 
y="1019" 
dx="0,-1.3" 
class="s11_22"
>42</text>



<!-- Any embedded fonts defined here -->
<style type="text/css" ><![CDATA[

@font-face {
	font-family: AndaleMono_1cn;
	src: url("fonts/AndaleMono_1cn.woff") format("woff");
}

@font-face {
	font-family: PixelSplitter-Bold_i9;
	src: url("fonts/PixelSplitter-Bold_i9.woff") format("woff");
}

@font-face {
	font-family: Helvetica-Light_1by;
	src: url("fonts/Helvetica-Light_1by.woff") format("woff");
}

@font-face {
	font-family: PixelSplitter-Bold_1bs;
	src: url("fonts/PixelSplitter-Bold_1bs.woff") format("woff");
}

@font-face {
	font-family: AndaleMono_ih;
	src: url("fonts/AndaleMono_ih.woff") format("woff");
}

@font-face {
	font-family: Helvetica-Bold_1bu;
	src: url("fonts/Helvetica-Bold_1bu.woff") format("woff");
}

@font-face {
	font-family: PixelSplitter-Bold_if;
	src: url("fonts/PixelSplitter-Bold_if.woff") format("woff");
}

@font-face {
	font-family: Wingdings-Regular_1c4;
	src: url("fonts/Wingdings-Regular_1c4.woff") format("woff");
}

]]></style>

</svg>
