<?xml version="1.0" encoding="UTF-8" standalone="no"?>
<!DOCTYPE svg PUBLIC "-//W3C//DTD SVG 1.1//EN"
"http://www.w3.org/Graphics/SVG/1.1/DTD/svg11.dtd">


<!-- Page 23 -->
<svg x="0" y="0" width="1645" height="1061" viewBox="0 0 1645 1061" version="1.1" xmlns="http://www.w3.org/2000/svg" xmlns:xlink="http://www.w3.org/1999/xlink"
style="display: block;margin-left: auto;margin-right: auto;">
<defs>

<style type="text/css"><![CDATA[

.g5_23{
fill: #B3CBC8;
}
.g8_23{
fill: none;
stroke: #11151D;
stroke-width: 1;
stroke-linecap: butt;
stroke-linejoin: miter;
stroke-miterlimit: 4;
}
.g2_23{
fill: #A2C937;
}
.g10_23{
fill: none;
stroke: #11151D;
stroke-width: 5;
stroke-linecap: butt;
stroke-linejoin: miter;
stroke-miterlimit: 4;
}
.g3_23{
fill: #FFFFFF;
}
.g6_23{
fill: none;
stroke: #6C6A6F;
stroke-width: 2;
stroke-linecap: butt;
stroke-linejoin: miter;
stroke-miterlimit: 4;
}
.g11_23{
fill: none;
stroke: #FFFFFF;
stroke-width: 3;
stroke-linecap: butt;
stroke-linejoin: miter;
stroke-opacity: 0;
}
.g4_23{
fill: #92BDDD;
}
.g7_23{
fill: #FFFFFF;
stroke: #6C6A6F;
stroke-width: 2;
stroke-linecap: butt;
stroke-linejoin: miter;
stroke-miterlimit: 4;
}
.g9_23{
fill: #11151D;
}
.g1_23{
fill: #FAAD60;
}

.s3_23{
font-size: 15.28px;
font-family: AndaleMono_1cn;
fill: #11151D;
}
.s4_23{
font-size: 21.39px;
font-family: PixelSplitter-Bold_1bs;
fill: #11151D;
}
.s8_23{
font-size: 27.24px;
font-family: Helvetica_1dx;
fill: #11151D;
}
.s11_23{
font-size: 19.14px;
font-family: PixelSplitter-Bold_1bs;
fill: #11151D;
}
.s10_23{
font-size: 50.42px;
font-family: PixelSplitter-Bold_j7;
fill: #FFFFFF;
}
.s12_23{
font-size: 12.22px;
font-family: PixelSplitter-Bold_1bs;
fill: #11151D;
}
.s7_23{
font-size: 36.67px;
font-family: PixelSplitter-Bold_j1;
fill: #FFFFFF;
}
.s9_23{
font-size: 10.69px;
font-family: Helvetica-Bold_1bu;
fill: #46454A;
}
.s5_23{
font-size: 18.33px;
font-family: PixelSplitter-Bold_1bs;
fill: #11151D;
}
.s6_23{
font-size: 44.83px;
font-family: Helvetica-Bold_1bu;
fill: #46454A;
}
.s1_23{
font-size: 15.28px;
font-family: Helvetica-Bold_1bu;
fill: #11151D;
}
.s2_23{
font-size: 15.28px;
font-family: Helvetica-Light_1by;
fill: #11151D;
}

]]></style>

</defs>
<path d="M0,0
L0,1061
L1645,1061
L1645,0 Z " 
fill="#FFFFFF" stroke="none" />
<image x="-33" y="-32" width="1713" height="1115" xlink:href="23/img/1.png" />
<image x="-13" y="-11" width="1674" height="1073" opacity="0.5" xlink:href="23/img/2.png" />
<image x="-35" y="34" width="873" height="1049" xlink:href="23/img/3.png" />
<path d="M870,54l0,4l-4,0l0,51l4,0l0,4l728,0l0,-4l4,0l0,-51l-4,0l0,-4Z" class="g1_23" />
<path d="M386,502l-4,0l0,5L47,507l0,-5l-4,0l0,-71l339,0l0,4l4,0Z" class="g2_23" />
<image x="309" y="438" width="64" height="62" xlink:href="23/img/4.png" />
<path d="M43,431l205,0l0,-31l-4,0l0,-4L47,396l0,4l-4,0Z" class="g3_23" />
<path d="M1267,294l0,4l-5,0l0,85l5,0l0,4l146,0l0,-4l5,0l0,-85l-5,0l0,-4Z" class="g3_23" />
<path d="M43,90l0,285l4,0l0,5l728,0l0,-5l4,0L779,94l-4,0l0,-4Z" class="g4_23" />
<image x="41" y="139" width="198" height="192" xlink:href="23/img/5.png" />
<path d="M242,284l524,0l0,-102l-524,0l0,102Z" class="g5_23" />
<path d="M870,396l0,5l-4,0l0,86l4,0l0,5l727,0l0,-5l5,0l0,-86l-5,0l0,-5Z" class="g3_23" />
<path d="M875,478l717,0l0,-72l-717,0l0,72Z" class="g3_23" />
<path d="M875,478l717,0l0,-72l-717,0l0,72Z" class="g6_23" />
<path d="M872,531l0,4l-5,0l0,33l5,0l0,4l725,0l0,-4l5,0l0,-33l-5,0l0,-4Z" class="g5_23" />
<path d="M870,782l0,4l-4,0l0,45l4,0l0,4l719,0l0,-4l4,0l0,-45l-4,0l0,-4Z" class="g3_23" />
<path d="M875,827l709,0l0,-35l-709,0l0,35Z" class="g7_23" />
<image x="1434" y="188" width="196" height="218" xlink:href="23/img/6.png" />
<image x="854" y="900" width="764" height="111" xlink:href="23/img/7.png" />
<path d="M242,101l0,83l524,0l0,-78l-4,0l0,-5Z" class="g3_23" />
<path d="M242,285l0,77l4,0l0,4l516,0l0,-4l4,0l0,-77Z" class="g3_23" />
<path d="M47,56l0,4l-4,0l0,36l288,0l0,-36l-4,0l0,-4Z" class="g4_23" />
<image x="309" y="438" width="64" height="62" xlink:href="23/img/8.png" />
<text 
x="255" 
y="128" 
dx="0,0,0,0,0,0,0,0,0,0,0,0,-0.3,0,0,0" 
class="s1_23"
>Class attribute </text>

<text 
x="365" 
y="128" 
dx="0,0,0,0,0,0,0,0,0,0,0,-0.3,0,0,0,0,0,0,0,0,0,0,0,0,0,0,0,0,0,0,0,0,0,0,0,0,0,0,0,0,0,0,0,0,0,0,0,0,0,0,0,0,0,0,0,0,0,0,0" 
class="s2_23"
>– we’ve already seen what an attribute is. Most attributes </text>

<text 
x="255" 
y="150" 
dx="0,0,0,0,2.7,0,0,0,0,2.7,0,0,2.7,0,0,0,0,2.7,0,0,0,0,2.7,0,0,0.3,0,0,0,0,0,0,0,2.7,0,0,0,0,0,0,0,0,0,2.7,0,0,0,2.7,0,0,0" 
class="s2_23"
>can only be used with particular elements, but the </text>

<path d="M632.5,149.1c-0.7,0.2,-1.3,0.3,-2,0.3c-0.8,0,-1.5,-0.3,-2,-0.8c-0.5,-0.6,-0.8,-1.4,-0.8,-2.2c0,-1,0.2,-1.7,0.7,-2.3c0.5,-0.5,1.2,-0.8,2.1,-0.8c0.5,0,1.2,0.1,1.9,0.4l0.3,-1c-0.7,-0.3,-1.5,-0.4,-2.2,-0.4c-1.2,0,-2.2,0.4,-2.9,1.1c-0.8,0.8,-1.1,1.7,-1.1,3c0,1.2,0.3,2.2,1.1,2.9c0.7,0.8,1.7,1.2,2.9,1.2c0.8,0,1.5,-0.2,2.2,-0.5l-0.2,-0.9Z" class="g8_23" />
<path d="M641.5,149.5l-2,0l0,-10l-3,0l0,1l2,0l0,10l3,0l0,-1Z" class="g8_23" />
<path d="M651.1,148.4l0,-3.3c0,-1.9,-0.9,-2.8,-2.7,-2.8c-0.9,0,-1.9,0.3,-2.9,0.8l0.3,0.8c0.3,-0.1,0.7,-0.3,1.1,-0.4c0.5,-0.1,0.9,-0.2,1.2,-0.2c1.2,0,1.8,0.7,1.8,2l0,0.4l-1.3,0.1c-0.6,0,-1.1,0.1,-1.5,0.2c-0.4,0.1,-0.8,0.3,-1.1,0.5c-0.3,0.2,-0.5,0.4,-0.7,0.7c-0.1,0.3,-0.2,0.7,-0.2,1.1c0,0.6,0.2,1.1,0.7,1.5c0.4,0.4,0.9,0.7,1.5,0.7c1.1,0,2,-0.5,2.7,-1.5c0,0.5,0,0.9,0.1,1.3l1.2,0c-0.1,-0.6,-0.2,-1.2,-0.2,-1.9Zm-2.2,0.6c-0.5,0.2,-0.9,0.3,-1.3,0.3c-0.4,0,-0.7,-0.1,-0.9,-0.3c-0.3,-0.2,-0.4,-0.5,-0.4,-0.8c0,-0.4,0.2,-0.7,0.5,-0.9c0.2,-0.3,0.6,-0.4,1,-0.5c0.4,-0.1,1.1,-0.2,2.1,-0.3l0,1.4c-0.3,0.5,-0.6,0.8,-1,1.1Z" class="g8_23" />
<path d="M659.7,142.6c-0.8,-0.2,-1.5,-0.3,-2.1,-0.3c-1,0,-1.7,0.2,-2.3,0.6c-0.6,0.4,-0.9,0.9,-0.9,1.6c0,0.3,0.1,0.6,0.2,0.8c0.1,0.3,0.3,0.5,0.6,0.7c0.2,0.1,0.5,0.3,0.7,0.4c0.3,0.1,0.8,0.2,1.4,0.4c0.7,0.2,1.2,0.4,1.4,0.6c0.2,0.2,0.3,0.5,0.3,0.8c0,0.4,-0.2,0.7,-0.6,0.9c-0.4,0.3,-0.9,0.4,-1.6,0.4c-0.7,0,-1.4,-0.2,-2.1,-0.5l-0.2,1c0.6,0.3,1.4,0.5,2.4,0.5c0.9,0,1.7,-0.3,2.3,-0.7c0.6,-0.4,1,-1,1,-1.7c0,-0.4,-0.1,-0.8,-0.3,-1c-0.1,-0.3,-0.4,-0.6,-0.7,-0.8c-0.3,-0.2,-0.8,-0.4,-1.3,-0.5l-1.1,-0.3c-0.5,-0.2,-0.8,-0.3,-1,-0.5c-0.2,-0.1,-0.2,-0.3,-0.2,-0.6c0,-0.3,0.1,-0.6,0.5,-0.8c0.4,-0.2,0.9,-0.3,1.5,-0.3c0.6,0,1.2,0.1,1.8,0.3l0.3,-1Z" class="g8_23" />
<path d="M668.9,142.6c-0.8,-0.2,-1.5,-0.3,-2.1,-0.3c-1,0,-1.8,0.2,-2.3,0.6c-0.6,0.4,-0.9,0.9,-0.9,1.6c0,0.3,0,0.6,0.2,0.8c0.1,0.3,0.3,0.5,0.5,0.7c0.3,0.1,0.5,0.3,0.8,0.4c0.3,0.1,0.7,0.2,1.3,0.4c0.8,0.2,1.3,0.4,1.5,0.6c0.2,0.2,0.3,0.5,0.3,0.8c0,0.4,-0.2,0.7,-0.6,0.9c-0.5,0.3,-1,0.4,-1.6,0.4c-0.8,0,-1.5,-0.2,-2.1,-0.5l-0.2,1c0.6,0.3,1.4,0.5,2.3,0.5c1,0,1.8,-0.3,2.4,-0.7c0.6,-0.4,0.9,-1,0.9,-1.7c0,-0.4,-0.1,-0.8,-0.2,-1c-0.2,-0.3,-0.4,-0.6,-0.7,-0.8c-0.4,-0.2,-0.8,-0.4,-1.3,-0.5L666,145.5c-0.5,-0.2,-0.9,-0.3,-1,-0.5c-0.2,-0.1,-0.3,-0.3,-0.3,-0.6c0,-0.3,0.2,-0.6,0.6,-0.8c0.3,-0.2,0.8,-0.3,1.5,-0.3c0.5,0,1.2,0.1,1.8,0.3l0.3,-1Z" class="g8_23" />
<text 
x="625" 
y="150" 
dx="0,0,0,0,0" 
class="s3_23"
>class</text>

<text 
x="677" 
y="150" 
dx="0,0,0,0,0,0,0,0,0,0,2.7,0,0" 
class="s2_23"
>attribute is </text>

<text 
x="255" 
y="171" 
dx="0,0,0,0,0,0,0,0,-0.9,0,0,0,0,0,0,0,-0.9,0,0,-0.9,0,0,0,-0.9,0,0,-0.9,0,0,0,0,0,0,0,-0.9,0,0,-0.9,0,0,0,-0.9,0,0,0,0,-0.9,0,0,0,0,0,0,0,0,-0.9,0,0,0,-0.9,0,0,0,0,0,0,0" 
class="s2_23"
>special because it can be applied to any HTML element. For example:</text>

<text 
x="255" 
y="310" 
dx="0,-1.4,0,0,-0.8,0,0,0,-0.8,0,0,0" 
class="s2_23"
>You use the </text>

<path d="M343.9,309.5c-0.7,0.2,-1.4,0.4,-2.1,0.4c-0.8,0,-1.5,-0.3,-2,-0.9c-0.5,-0.6,-0.8,-1.3,-0.8,-2.2c0,-1,0.3,-1.7,0.8,-2.3c0.5,-0.5,1.2,-0.8,2,-0.8c0.6,0,1.2,0.1,1.9,0.4l0.3,-1c-0.7,-0.3,-1.4,-0.4,-2.2,-0.4c-1.2,0,-2.1,0.4,-2.9,1.1c-0.7,0.8,-1.1,1.8,-1.1,3c0,1.2,0.4,2.2,1.1,3c0.7,0.7,1.7,1.1,2.9,1.1c0.9,0,1.6,-0.2,2.3,-0.5l-0.2,-0.9Z" class="g8_23" />
<path d="M352.5,309.5l-2,0l0,-9l-3,0l0,1l2,0l0,9l3,0l0,-1Z" class="g8_23" />
<path d="M362.4,308.9l0,-3.4c0,-1.9,-0.8,-2.8,-2.6,-2.8c-0.9,0,-1.9,0.3,-3,0.8l0.3,0.9c0.4,-0.2,0.7,-0.4,1.2,-0.5c0.4,-0.1,0.8,-0.2,1.1,-0.2c1.3,0,1.9,0.7,1.9,2l0,0.4l-1.3,0.1c-0.6,0,-1.1,0.1,-1.6,0.2c-0.4,0.2,-0.7,0.3,-1,0.5c-0.3,0.2,-0.6,0.5,-0.7,0.8c-0.2,0.2,-0.3,0.6,-0.3,1c0,0.6,0.3,1.1,0.7,1.6c0.4,0.4,1,0.6,1.5,0.6c1.2,0,2.1,-0.5,2.7,-1.5c0,0.5,0.1,1,0.2,1.3l1.1,0c-0.1,-0.6,-0.2,-1.2,-0.2,-1.8Zm-2.2,0.5c-0.4,0.2,-0.8,0.4,-1.2,0.4c-0.4,0,-0.7,-0.2,-1,-0.4c-0.2,-0.2,-0.3,-0.5,-0.3,-0.8c0,-0.4,0.1,-0.7,0.4,-0.9c0.3,-0.2,0.6,-0.4,1,-0.5c0.4,-0.1,1.1,-0.2,2.2,-0.2l0,1.4c-0.3,0.4,-0.7,0.7,-1.1,1Z" class="g8_23" />
<path d="M371.1,303c-0.8,-0.2,-1.5,-0.3,-2.1,-0.3c-1,0,-1.8,0.2,-2.4,0.6c-0.6,0.4,-0.8,0.9,-0.8,1.6c0,0.3,0,0.6,0.1,0.8c0.2,0.3,0.4,0.5,0.6,0.7c0.2,0.2,0.5,0.3,0.8,0.4c0.3,0.1,0.7,0.2,1.3,0.4c0.8,0.2,1.2,0.4,1.4,0.7c0.2,0.2,0.3,0.4,0.3,0.7c0,0.4,-0.2,0.7,-0.6,0.9c-0.4,0.3,-0.9,0.4,-1.5,0.4c-0.8,0,-1.5,-0.2,-2.1,-0.5l-0.3,1c0.7,0.3,1.4,0.5,2.4,0.5c1,0,1.7,-0.2,2.4,-0.7c0.6,-0.4,0.9,-1,0.9,-1.7c0,-0.4,-0.1,-0.7,-0.2,-1c-0.2,-0.3,-0.4,-0.6,-0.8,-0.8c-0.3,-0.2,-0.7,-0.3,-1.2,-0.5l-1.1,-0.3c-0.5,-0.1,-0.9,-0.3,-1,-0.5c-0.2,-0.1,-0.3,-0.3,-0.3,-0.6c0,-0.3,0.2,-0.6,0.6,-0.8c0.3,-0.2,0.8,-0.3,1.5,-0.3c0.5,0,1.1,0.1,1.8,0.3l0.3,-1Z" class="g8_23" />
<path d="M380.2,303c-0.7,-0.2,-1.4,-0.3,-2.1,-0.3c-0.9,0,-1.7,0.2,-2.3,0.6c-0.6,0.4,-0.9,0.9,-0.9,1.6c0,0.3,0.1,0.6,0.2,0.8c0.1,0.3,0.3,0.5,0.6,0.7c0.2,0.2,0.5,0.3,0.8,0.4c0.2,0.1,0.7,0.2,1.3,0.4c0.7,0.2,1.2,0.4,1.4,0.7c0.2,0.2,0.3,0.4,0.3,0.7c0,0.4,-0.2,0.7,-0.6,0.9c-0.4,0.3,-0.9,0.4,-1.6,0.4c-0.7,0,-1.4,-0.2,-2.1,-0.5l-0.2,1c0.6,0.3,1.4,0.5,2.4,0.5c0.9,0,1.7,-0.2,2.3,-0.7c0.7,-0.4,1,-1,1,-1.7c0,-0.4,-0.1,-0.7,-0.3,-1c-0.1,-0.3,-0.4,-0.6,-0.7,-0.8c-0.3,-0.2,-0.7,-0.3,-1.3,-0.5l-1.1,-0.3c-0.5,-0.1,-0.8,-0.3,-1,-0.5c-0.1,-0.1,-0.2,-0.3,-0.2,-0.6c0,-0.3,0.2,-0.6,0.5,-0.8c0.4,-0.2,0.9,-0.3,1.5,-0.3c0.6,0,1.2,0.1,1.9,0.3l0.2,-1Z" class="g8_23" />
<text 
x="336" 
y="310" 
dx="0,0,0,0,0" 
class="s3_23"
>class</text>

<text 
x="385" 
y="310" 
dx="0,0,0,0,0,0,0,0,0,0,-0.8,0,0,-0.8,0,0,0,0,0,0,0,0,-0.8,0,0,0,-0.8,0,0,0,0,0,0,0,-0.8,0,0,-0.8,0,-0.8,0,0,0.3,0,0,0,0,0,0,0,-0.8,0,0,0,0,0,0,0" 
class="s2_23"
>attribute to identify the meaning of a particular element </text>

<text 
x="255" 
y="332" 
dx="0,0,0,0,3,0,0,0,3,0,0,0,3,0,0,0,0,3,0,0,0,0,0,3,0,3,0,0,0,0,0,0,0,3,0,0,0,0,0,3,0,0,0,0,3,0,0,3,0,0,0,3,0,0,0,0,0,0,0,3,0,0,0,0,3,0,0,0,0" 
class="s2_23"
>and you can then apply a special style only to the element with that </text>

<text 
x="255" 
y="353" 
dx="0,0,0,0.3,0,0,0,0,0,0,0,-0.9,0,0,0,0,0" 
class="s2_23"
>particular class.</text>

<text 
x="53" 
y="86" 
dx="0,-1.7,-1.7,-2.1,-2.2,0,0,-2.2,0,0,-1.9,-2.6,-1.7,-2.6,-1.9,-1.8,-2.6" 
class="s4_23"
>WORDS TO REMEMBER</text>

<text 
x="255" 
y="203" 
dx="0,0,0,-1.8,0,0,0,0,0,0,0,0,0,0,0,0,0,0,0" 
class="s3_23"
>&lt;p class="top-tip"&gt;</text>

<text 
x="255" 
y="225" 
dx="0,0,0,0,-1.8,0,0,0,0,0,0,0,0,0,0,0,0,0,0" 
class="s3_23"
>&lt;h3 class="author"&gt;</text>

<text 
x="255" 
y="246" 
dx="0,0,0,0,0,0,0,-1.8,0,0,0,0,0,0,0,0,0,0,0,0,0,0,0,0,0,0,0,0,0,0,0,0,0,0,0,0,0" 
class="s3_23"
>&lt;table class="football-league-table"&gt;</text>

<text 
x="255" 
y="267" 
dx="0,0,0,0,-1.8,0,0,0,0,0,0,0,0,0,0,0,0,0,0,0,0,0,0,0,0,0,0,0,0,0,0" 
class="s3_23"
>&lt;li class="selected-menu-item"&gt;</text>

<text 
transform="matrix(0.98, 0, 0, 1, 879, 139)"
dx="0,0,0,1.7,0,0,0,1.7,0,0,-0.3,0,1.7,0,0,0,0,0,0,0,0,1.7,0,0,1.7,0,0,0,0,0,0,0,1.7,0,0,0,1.7,0,0,0,0,0,0,0,0,0,1.7,0,0,1.7,0,0,0,0,1.7,0,0,1.7,0,0,0,0,1.7,0,0,0.3,0,0,1.7,0,0,0,0,0,1.7,0,0,0,0,1.7,0,0,1.7,0,0,0,1.7,0,0,0,0,1.7,0,0,0,0,0,0,1.7,0,0,0,0,0,0" 
class="s2_23"
>If you were thinking of booking the Nanonauts to play at your party you’d want to see them first, right? </text>

<text 
transform="matrix(0.98, 0, 0, 1, 879, 160)"
dx="0,-0.3,0,0,0,0,0.5,0,0,0,0,0,0,0.5,0,0,0.5,0,0,0,0,0,0,0,0,0,0,0,0,0,0.5,0,0,0,0,0,0.5,0,0,0,0,0.5,0,0,0.5,-1.4,0,0,-1.4,0,0,0,0.5,0,0,0,0.5,-0.3,0,0,0,0,0,0.5,0,0,-1.1,0,0.5,0,0,0,0,0,0,0,0,0.5,0,0,0.5,0,0,0.5,0,0,0,0,0.5,0,0,0,0,0,0.5,0,0,0,0.5,0,0,0,0,0,0,0" 
class="s2_23"
>Well, thanks to video-sharing sites such as YouTube and Vimeo, it’s possible to do just that. And because </text>

<text 
transform="matrix(0.98, 0, 0, 1, 879, 182)"
dx="0,0,0,0,0.8,0,0,0,0,0,0,0,0,0,0.8,0,0,0,0,0.8,0,0,-0.3,0,0,0,0,0.8,0,0,0,-0.3,0,0,0.8,0,0.8,0,0,0,0.8,0,0,0.8,0,0,0,0,0,0.8,0,0,0.3,0,0,0.3,0,0,0,0,0,0,0.8,0,0,0.8,-1.4,0,0,-1.4,0,0,0,0.8,0,0,0.8,0,0,0,0,0,0,0.8,0,0,0,0,0.8,0,0,0.8,0,0.8,0,0,0,0,0,0,0.8,0,0" 
class="s2_23"
>the Nanonauts have already shared a few of their performances on YouTube it should just be a matter of </text>

<text 
transform="matrix(0.98, 0, 0, 1, 879, 203)"
dx="0,0,0,0,0,0,0,0,-0.9,0,0,-0.9,0,0,0,0,0,-0.9,0,0,0,0,0,0,0,-0.9,0,0,-0.9,0,0,0,0,-1.1,0,-0.9,0,0,0,-0.9,0,0,0,0,-0.9,0,0,0,-0.9,0,0,-0.9,0,0,0,0,0,-0.9,0,0,0,0" 
class="s2_23"
>linking to these videos. So what’s the best way of doing this?</text>

<text 
x="879" 
y="246" 
dx="0,-3.2,-2.1,-1.7,-2.7,-2.1,-1.8,0,0,-2.2,0,0,-2,-1.8,-2.3,-2.3,-1.9,-1.8" 
class="s4_23"
>Linking to YouTube</text>

<text 
x="879" 
y="267" 
dx="0,0,0,0,0.3,0,0,0,0,0,0,0.3,0,0,0,0,0,0.3,0,0,0.3,0,0,0.3,0,-0.3,0,0,0,0,0,0.3,0,0.3,0,0,0,0,0.3,0,0,0.3,0,0,0,0.3,0,0,0,0,0,0.3,0,0,0.3,-1.4,0,0,-1.4,0,0,0,0,0.3,0,0,0.3,0,0,0.3,0,0,0,0.3,0,0,0,0,0,0,0" 
class="s2_23"
>One method would be to provide a link to the video on YouTube. So if you clicked </text>

<text 
x="879" 
y="289" 
dx="0,0,0,0,-0.9,0,0,0,0,-0.9,0,0,0,0,0,-0.9,0,0,-0.9,0,0,0,0,0,-0.9,0,0,-0.9,0,0,0,-0.9,-1.4,0,0,-1.4,0,0,0,-0.9,0,0,0,0,0,-0.9,-1.7,0,-0.9,0,0,-0.9,0,0,0" 
class="s2_23"
>the link you’d be taken to the YouTube page. To do this</text>

<text 
x="883" 
y="310" 
dx="0,0,0" 
class="s5_23"
>1. </text>

<text 
x="909" 
y="310" 
dx="0,0,0,-0.9,0,0,-0.9,0,0,0,-0.9,-1.4,0,0,-1.4,0,0,0,-0.9,0,0,0,0,-0.9,0,0,0,0,0,-0.9,0,0,0,0,0,-0.9,0,0,0,-0.9,0,0,0,0,0" 
class="s2_23"
>Go to the YouTube page which shows the video.</text>

<text 
x="883" 
y="332" 
dx="0,0,0" 
class="s5_23"
>2. </text>

<text 
x="909" 
y="332" 
dx="0,0,0,0,0,0,-0.9,0,0,0,-0.9,0,0,0,-0.3,0,-0.9,0,0,0,0" 
class="s2_23"
>Click the Share icon.</text>

<text 
x="883" 
y="353" 
dx="0,0,0" 
class="s5_23"
>3. </text>

<text 
x="909" 
y="353" 
dx="0,0,0,0,0,0,-0.9,0,0,0,-0.9,0,0,0,-0.3,0,-0.9,0,0,0,0,0,0" 
class="s2_23"
>Click the Share option.</text>

<text 
x="883" 
y="374" 
dx="0,0,0" 
class="s5_23"
>4. </text>

<text 
x="909" 
y="374" 
dx="0,0,0,0,0,-0.9,0,0,0" 
class="s2_23"
>Copy the </text>

<text 
x="973" 
y="374" 
dx="0,0,0" 
class="s1_23"
>URL</text>

<text 
x="1008" 
y="374" 
dx="0,0,0,0,0,-0.9,0,0,0,0,0,0,0,-0.9,0,0,-0.9,0,0,0,-0.9,0,0,0,-0.3,0,-0.9,0,0,0" 
class="s2_23"
>that appears in the Share box.</text>

<text 
transform="matrix(0.98, 0, 0, 1, 892, 460)"
dx="0,-0.1,-0.1,-0.1,-0.1,-0.1,-0.1,-0.1,-0.1,-1.2,-0.1,-0.1,-0.1,-0.1,-0.1,-0.1,-0.1,-0.1,-0.1,-0.1,-0.1,-0.1,-0.1,-0.1,-0.1,-0.1,-0.1,-0.1" 
class="s6_23"
>https://youtu.be/dQw4w9WgXcQ</text>

<path d="M870,54l0,4l-4,0l0,51l4,0l0,4l728,0l0,-4l4,0l0,-51l-4,0l0,-4Z" class="g9_23" />
<text 
x="886" 
y="96" 
dx="0,0,-5.5,-3.6,-2.9,-4.7,-3.6,-3.1,0,0,-3,-3.3,0,0,-4.5,-3.3,-3.1,-4.9,-3.4,-3.7,-3.6,-3.1,0,0,-3.9,-3.9,-3.1,-4.5,-3.7,0" 
class="s7_23"
>&lt;Linking and embedding videos&gt;</text>

<text 
x="1331" 
y="348" 
dx="0,0,0,0,0" 
class="s8_23"
>Share</text>

<text 
x="874" 
y="524" 
dx="0,0,-0.3,0,0,0,0,-0.9,0,-0.9,0,0,0,0,-0.9,0,0,-0.9,0,0,0,-0.9,0,0,0,-0.9,0,0,0,0,-0.9,0,0,0,0" 
class="s2_23"
>Create a link to the URL like this:</text>

<text 
x="874" 
y="599" 
dx="0,0,0,0,0,-0.1,0,0,-0.1,0,-0.1,0,0,0,-0.1,0,0,0,0,0,0,-0.1,0,0,0,0,0,0,-0.1,0,-0.1,0,0,0,-0.1,0,0,-0.1,0,0,0,0,0,-0.1,0,0,0,-0.1,0,0,0,0,-0.1,0,-0.3,0,0,-0.1,0,0,0,-0.1,0,0,0,0,0,0,0,0,0,0,-0.1,0,0,0,0,-0.1,0,0,0,-0.1,0,0,0,0,0,-0.1,0,0,0,-0.1,0,-0.3,0,-0.1,0,0,-0.1,-1.4,0,0,-1.4,0,0,0,0" 
class="s2_23"
>This is a bit boring though – and it takes you away from the Nanonauts’ site and sends you off to YouTube. </text>

<text 
x="874" 
y="620" 
dx="0,-0.3,0,0,0,0,0,-0.3,0,-0.7,0,0,-0.7,0,0,-0.7,0,0,0,0,0,0,-0.7,0,0,-0.7,0,0,0,0,-0.7,0,0,0,-0.7,0,0,0,0,0,0,-0.7,0,0,-0.7,0,-0.7,0,0,0,0,-0.7,0,0,-0.7,0,0,0,-0.7,0,0,0,0,0,-0.7,0,0,-0.7,0,0,0,0,-0.7,0,0,0,-0.7,0,0,0,0,0,-0.7,0,0,0,0,-0.7,0,0,0,0,-0.7,0,0,0,0,0,0,0,-0.7,0,0,0,0,0,0,-0.7,0,0" 
class="s2_23"
>Wouldn’t it be better to show the videos on a page on the site, so that you could play them without having to </text>

<text 
x="874" 
y="642" 
dx="0,0,0,0,0,0,0,-0.9,0,0,0,0,0,0,0,-0.9,0,0,0,-0.3,0,-1.1,0,-0.9,0,-0.9,-0.3,0,0,0,0,0,-0.9,0,0,0,0,-0.9,0,0,0,-0.9,0,0,-0.9,0,0,-0.9,0,0,0,0,-0.9,0,-0.9,0,0,-1.1,0,-0.9,0,0,0,0,0,0" 
class="s2_23"
>leave? Luckily there’s a really easy way to do this – it’s called </text>

<text 
x="1280" 
y="642" 
dx="0,0,0,0,0,-0.1,0,0,0" 
class="s1_23"
>embedding</text>

<text 
x="1365" 
y="642" 
dx="0,0,-0.9,0,0,0,0,0" 
class="s2_23"
>a video.</text>

<text 
x="874" 
y="684" 
dx="0,-2.6,-1.9,-1.8,-2.8,-2,-2.2,-2.1,-1.8,0,-0.9,0,-0.9,-2,-1.8,-2.3,-2.3,-1.9,-1.8,0,-0.9,-2.2,-2.3,-1.8,-2.6,0" 
class="s4_23"
>Embedding a YouTube video </text>

<text 
x="874" 
y="706" 
dx="0,-1.7,0,0.7,0,0,0,0,0,0.7,0,0.7,0,0,0,0,0,0,0.7,0,0,0,0,0.7,0,0,0,0,0,0.7,0,0,0.7,0,0,0.7,0,0,0,0.7,-1.4,0,0,-1.4,0,0,0,0.7,0,0,0,0,0.7,0,0,0,0,0,0.7,0,0,0,0,0,0.7,0,0,0,0.7,0,0,0,0,0,0.7,0,0,0,0.7,0,0,0,0,0,0.7,0,0,0,0.7,0,0,0,-0.3,0,0.7,0,0,0,0,0" 
class="s2_23"
>To embed a video, once again go to the YouTube page which shows the video and click the Share icon. </text>

<text 
x="874" 
y="727" 
dx="0,0,0,0,0,0,0,-1.4,0,-0.9,0,0,0,0,-0.9,0,0,0,0" 
class="s2_23"
>However, this time:</text>

<text 
x="883" 
y="749" 
dx="0,0,-0.6" 
class="s1_23"
>1. </text>

<text 
x="905" 
y="749" 
dx="0,0,0,0,0,0,-0.9,0,0,0" 
class="s2_23"
>Click the </text>

<text 
x="967" 
y="749" 
dx="0,0,0,0,0" 
class="s1_23"
>Embed</text>

<text 
x="1021" 
y="749" 
dx="0,0,0,0,0,0,0" 
class="s2_23"
>option.</text>

<text 
x="883" 
y="770" 
dx="0,0,-0.6" 
class="s1_23"
>2. </text>

<text 
x="905" 
y="770" 
dx="0,0,0,0,0,-0.9,0,0,0,-0.9,0,0,0,0,-0.9,0,0,0,0,-0.9,0,0,0,0,0,0,0,-0.9,0,0,-0.9,0,0,0,-0.9,0,0,0,0,0,-0.9,0,0,0" 
class="s2_23"
>Copy the code that appears in the Embed box.</text>

<text 
x="883" 
y="856" 
dx="0,0,-0.6" 
class="s1_23"
>3. </text>

<text 
x="905" 
y="856" 
dx="0,0,0,0,0,0,0.4,0,0,0,0,0.4,0,0,0,0,0.4,0,0,0,0,0.4,0,0,0,0.4,0,0,0,0,0.4,0,0,0,0.4,0,0,0,0.4,0,0,0,0,0.4,0,0,0.4,0,0,0,0,0,0.4,0,0,0,0.4,0,0,0,0,0.4,0,0,0,0.4,0,0,0,0,0,0.4,0,0,0.4,0,0,0,0,0,-1.4,0,0.4,0,0,0,0.4,0,0,0,0,0,0,0,0,0.4,0,0" 
class="s2_23"
>Paste this code into the HTML for the page on which you want the video to appear. For example, we </text>

<text 
x="905" 
y="877" 
dx="0,0,0,0,0,0,-0.9,0,0,0,-0.9,0,0,0,-0.9,0,0,0,0,0,-0.9,0,0,-0.9,0,0,0,0,-0.9,0,0,-0.9,0,0,0,0,0,-0.3,0,0,-0.9,0,0,0,0,0,-0.9,0,0,0,-0.9,0,0,0,0,-0.9,0,0,-0.9,0,0,0,0,0,-0.9,0,0,-0.9,0,0,0,-0.9,0,0,0,-0.9,0,0,0,0,0,-0.9,0,0,0,0" 
class="s2_23"
>could add the video so that it appeared after the list of songs on the Our Songs page.</text>

<text 
x="885" 
y="556" 
dx="0,0,0,-1.8,0,0,0,0,0,0,0,0,0,0,0,0,0,0,0,0,0,0,0,0,0,0,0,0,0,0,0,0,0,0,0,0,0,0,0,0,0,0,0,0,0,-1.8,0,0,0,-1.8,0,0,0,0,0,0,0,0,0,-1.8,0,0,-1.8,0,0,0,0,0,0,0,0,0,0,0" 
class="s3_23"
>&lt;a href="https://youtu.be/dQw4w9WgXcQ"&gt;Visit the Nanonauts on YouTube!&lt;/a&gt;</text>

<text 
transform="matrix(0.98, 0, 0, 1, 883, 813)"
dx="0,0,0,0,0,0,0,0,-0.6,0,0,0,0,0,0,0,0,0,0,-0.9,-0.6,0,0,0,0,0,0,0,0,0,0,0,-0.9,-0.6,0,-0.2,0,0,0,0,0,0,0,0,0,0,0,0,0,-0.4,0,-0.3,0,0,0,0,0,0.2,0,0,0,0,0,0,0,0,0,0,0,0,0,0,0,0,0,0,0,0,0,0,0,-0.6,0,0,0,0,0,0,0,-0.2,0,0,0,0,0,0,-0.9,-0.6,0,0,0,-0.2,0,0,0,0,0,0,0,0,0,0,0,0,0,0,0,0,0,0,0,0" 
class="s9_23"
>&lt;iframe width=”560” height=”315” src="https://www.youtube.com/embed/dQw4w9WgXcQ" frameborder=”0” allowfullscreen&gt;&lt;/iframe&gt;</text>

<path d="M1320.7,338.3l-15.8,-17.9l0,11.4c-0.9,0.1,-21.8,0.6,-25.1,22.9c13.1,-14,24.4,-11.7,25.1,-11.5l0,13Z" class="g9_23" />
<path d="M296,502l-4,0l0,5L49,507l0,-5l-4,0l0,-67l4,0l0,-4l243,0l0,4l4,0Z" class="g9_23" />
<path d="M296.5,502.5l-4,0l0,5l-243,0l0,-5l-4,0l0,-67l4,0l0,-4l243,0l0,4l4,0l0,67Z" class="g10_23" />
<path d="M59.5,490.5l216,0" class="g11_23" />
<path d="M59.5,494.5l216,0" class="g11_23" />
<text 
x="59" 
y="483" 
dx="0,-5.8,-6.9,-5.2,-5.5,-5.2,0" 
class="s10_23"
>Classy!</text>

<text 
x="56" 
y="422" 
dx="0,-1.6,-1.8,-1.7,-1.9,0,0,-1.6,-1.5,-2.6,-1.6,-2.3,-2.1,-2.5" 
class="s11_23"
>Badge unlocked</text>

<path d="M386.5,502.5l-4,0l0,5l-333,0l0,-5l-4,0l0,-71l337,0l0,4l4,0l0,67Z" class="g10_23" />
<path d="M45.5,431.5l201,0l0,-29l-2,0l-3,0l0,-2l0,-2l-192,0l0,2l0,2l-2,0l-2,0l0,29Z" class="g10_23" />
<text 
x="1590" 
y="1019" 
dx="0,-1.2" 
class="s12_23"
>45</text>

<text 
x="36" 
y="1019" 
dx="0,-1.5" 
class="s12_23"
>44</text>



<!-- Any embedded fonts defined here -->
<style type="text/css" ><![CDATA[

@font-face {
	font-family: AndaleMono_1cn;
	src: url("fonts/AndaleMono_1cn.woff") format("woff");
}

@font-face {
	font-family: Helvetica-Light_1by;
	src: url("fonts/Helvetica-Light_1by.woff") format("woff");
}

@font-face {
	font-family: PixelSplitter-Bold_j1;
	src: url("fonts/PixelSplitter-Bold_j1.woff") format("woff");
}

@font-face {
	font-family: Helvetica_1dx;
	src: url("fonts/Helvetica_1dx.woff") format("woff");
}

@font-face {
	font-family: PixelSplitter-Bold_1bs;
	src: url("fonts/PixelSplitter-Bold_1bs.woff") format("woff");
}

@font-face {
	font-family: Helvetica-Bold_1bu;
	src: url("fonts/Helvetica-Bold_1bu.woff") format("woff");
}

@font-face {
	font-family: PixelSplitter-Bold_j7;
	src: url("fonts/PixelSplitter-Bold_j7.woff") format("woff");
}

]]></style>

</svg>
