<?xml version="1.0" encoding="UTF-8" standalone="no"?>
<!DOCTYPE svg PUBLIC "-//W3C//DTD SVG 1.1//EN"
"http://www.w3.org/Graphics/SVG/1.1/DTD/svg11.dtd">


<!-- Page 25 -->
<svg x="0" y="0" width="1645" height="1061" viewBox="0 0 1645 1061" version="1.1" xmlns="http://www.w3.org/2000/svg" xmlns:xlink="http://www.w3.org/1999/xlink"
style="display: block;margin-left: auto;margin-right: auto;">
<defs>

<style type="text/css"><![CDATA[

.g6_25{
fill: #7199D0;
}
.g10_25{
fill: #E8E4DB;
}
.g4_25{
fill: none;
stroke: #000000;
stroke-width: 4;
stroke-linecap: butt;
stroke-linejoin: miter;
}
.g17_25{
fill: #FFFFFF;
fill-opacity: 0.5;
}
.g5_25{
fill: none;
stroke: #46454A;
stroke-width: 2;
stroke-linecap: round;
stroke-linejoin: round;
}
.g12_25{
fill: #B3CBC8;
}
.g18_25{
fill: #11151D;
}
.g11_25{
fill: #FAFAFB;
}
.g1_25{
fill: #FAAD60;
}
.g14_25{
fill: #E8E5DB;
}
.g7_25{
fill: none;
stroke: #7199D0;
stroke-width: 5;
stroke-linecap: round;
stroke-linejoin: round;
}
.g9_25{
fill: none;
stroke: #000000;
stroke-width: 4;
stroke-linecap: butt;
stroke-linejoin: miter;
stroke-miterlimit: 4;
}
.g13_25{
fill: #E7DEEC;
}
.g15_25{
fill: #B897C1;
}
.g2_25{
fill: #FAFBFB;
}
.g3_25{
fill: #FFFFFF;
}
.g16_25{
fill: none;
stroke: #11151D;
stroke-width: 2;
stroke-linecap: butt;
stroke-linejoin: miter;
stroke-miterlimit: 4;
}
.g8_25{
fill: none;
stroke: #FFFFFF;
stroke-width: 4;
stroke-linecap: butt;
stroke-linejoin: miter;
}

.s11_25{
font-size: 18.33px;
font-family: Helvetica-Bold_1bu;
fill: #11151D;
}
.s6_25{
font-size: 21.39px;
font-family: Helvetica_1e3;
fill: #46454A;
}
.s8_25{
font-size: 19.86px;
font-family: PixelSplitter-Bold_1bs;
fill: #11151D;
}
.s7_25{
font-size: 4.74px;
font-family: Helvetica_1e3;
fill: #11151D;
}
.s14_25{
font-size: 12.55px;
font-family: Helvetica-Bold_1bu;
fill: #11151D;
}
.s3_25{
font-size: 32.94px;
font-family: PixelSplitter-Bold_l7;
fill: #FFFFFF;
}
.s9_25{
font-size: 15.28px;
font-family: AndaleMono_1cn;
fill: #11151D;
}
.s5_25{
font-size: 15.28px;
font-family: DevanagariMT-Bold_1f2;
fill: #11151D;
}
.s1_25{
font-size: 15.28px;
font-family: Helvetica-Light_1by;
fill: #11151D;
}
.s12_25{
font-size: 12.22px;
font-family: Helvetica_1e3;
fill: #11151D;
}
.s4_25{
font-size: 15.28px;
font-family: Helvetica-Bold_1bu;
fill: #11151D;
}
.s10_25{
font-size: 22.92px;
font-family: Helvetica-Bold_1bu;
fill: #11151D;
}
.s15_25{
font-size: 12.22px;
font-family: PixelSplitter-Bold_1bs;
fill: #11151D;
}
.s13_25{
font-size: 12.22px;
font-family: Helvetica-Bold_1bu;
fill: #11151D;
}
.s2_25{
font-size: 21.39px;
font-family: PixelSplitter-Bold_1bs;
fill: #11151D;
}

]]></style>

</defs>
<path d="M0,0
L0,1061
L1645,1061
L1645,0 Z " 
fill="#FFFFFF" stroke="none" />
<image x="-33" y="-32" width="1713" height="1115" xlink:href="25/img/1.png" />
<image x="-13" y="-11" width="1674" height="1073" opacity="0.5" xlink:href="25/img/2.png" />
<path d="M47,47l0,4l-4,0l0,45l4,0l0,4l381,0l0,-4l5,0l0,-45l-5,0l0,-4Z" class="g1_25" />
<path d="M47.6,449.7c0,0,0,4.3,-4.3,4.3l0,221.2c0,0,4.3,0,4.3,4.4l727.6,0c0,0,0,-4.4,4.3,-4.4l0,-221.2c0,0,-4.3,0,-4.3,-4.3Z" class="g2_25" />
<path d="M47.6,339.2c0,0,0,4.4,-4.3,4.4l0,47.6c0,0,4.3,0,4.3,4.3l727.6,0c0,0,0,-4.3,4.3,-4.3l0,-47.6c0,0,-4.3,0,-4.3,-4.4Z" class="g3_25" />
<path d="M673.1,366c0,2.1,-0.8,4.1,-2.1,5.7c-1.7,1.9,-4.1,3.1,-6.8,3.1c-4.9,0,-8.9,-3.9,-8.9,-8.8c0,-5,4,-8.9,8.9,-8.9c4.9,0,8.9,3.9,8.9,8.9Zm6.2,15.4L670,371.7" class="g4_25" />
<path d="M707,347l0,42" class="g5_25" />
<path d="M734.8,368.8l15.4,-15.4l15.4,15.4l-15.4,15.4Z" class="g6_25" />
<path d="M734.8,368.8l15.4,-15.4l15.4,15.4l-15.4,15.4L734.8,368.8Z" class="g7_25" />
<path d="M745,372l0,-6l8,0" class="g8_25" />
<path d="M753.3,362l0,9.7l4.9,-4.9Z" class="g3_25" />
<path d="M72,353l39,0" class="g9_25" />
<path d="M72,365l39,0" class="g9_25" />
<path d="M72,376l39,0" class="g9_25" />
<path d="M769,670L53,670L53,460l716,0l0,210Z" class="g10_25" />
<image x="53" y="458" width="717" height="215" xlink:href="25/img/3.png" />
<path d="M777,1012l-335,0l0,-324l335,0l0,324Z" class="g11_25" />
<image x="442" y="688" width="337" height="325" xlink:href="25/img/4.png" />
<path d="M870,146l0,5l-4,0l0,219l4,0l0,4l728,0l0,-4l4,0l0,-219l-4,0l0,-5Z" class="g12_25" />
<path d="M869,429l0,4l-4,0l0,570l4,0l0,4l459,0l0,-4l5,0l0,-570l-5,0l0,-4Z" class="g3_25" />
<path d="M891.4,440.2c0,0,-17.3,0,-17.3,17.3l0,521.8c0,0,0,17.3,17.3,17.3l414.9,0c0,0,17.3,0,17.3,-17.3l0,-521.8c0,0,0,-17.3,-17.3,-17.3Z" class="g13_25" />
<path d="M1310,967l-424,0l0,-319l424,0l0,319Z" class="g14_25" />
<image x="884" y="647" width="429" height="323" xlink:href="25/img/5.png" />
<path d="M899.3,453.8c0,0,-13,0,-13,13l0,9c0,0,0,13,13,13l378.9,0c0,0,13,0,13,-13l0,-9c0,0,0,-13,-13,-13Z" class="g15_25" />
<path d="M899.3,453.8c0,0,-13,0,-13,13l0,9c0,0,0,13,13,13l378.9,0c0,0,13,0,13,-13l0,-9c0,0,0,-13,-13,-13l-378.9,0Z" class="g16_25" />
<image x="459" y="555" width="7" height="11" xlink:href="25/img/6.png" />
<image x="1333" y="394" width="262" height="669" style="mix-blend-mode: multiply;" xlink:href="25/img/7.png" />
<image x="1346" y="405" width="238" height="560" xlink:href="25/img/8.png" />
<path d="M672,670l97,0l0,-9l-97,0l0,9Z" class="g17_25" />
<image x="418" y="43" width="394" height="291" style="mix-blend-mode: multiply;" xlink:href="25/img/9.png" />
<image x="431" y="53" width="370" height="281" xlink:href="25/img/10.png" />
<text 
x="56" 
y="128" 
dx="0,0,0,4,0,0,0,4,0,0,0,4,0,0,0,0,0,4,0,4,-1.4,0,0,-1.4,0,0,0,4,0,0,0,0,0,4,0,0,0,4,0,0,0,4,0,0,0,0" 
class="s1_25"
>If you can embed a YouTube video you can also </text>

<text 
x="56" 
y="150" 
dx="0,0,0,0,0,0,3.6,0,3.6,0,0,0,0,0,0,3.6,0,0,0,0,3.6,0,0,0,3.6,0,0,0,3.6,0,0,0,3.6,0,0,3.6,0,0,3.6,0,0,3.6,0,0,0.3,0" 
class="s1_25"
>embed a Google Map. The way you do it is very </text>

<text 
x="56" 
y="171" 
dx="0,0,0,0,0,0,0,-1.4,0,8.3,0,0,0,8.3,0,0,0,0,0,0,0,0,0,0,8.3,0,0,0,0,8.3,0,0,0,0,0,0.3,0,8.3,0,0,8.3,0,0,8.3,0,0,0" 
class="s1_25"
>similar. The Nanonauts’ next concert is at the </text>

<text 
x="56" 
y="193" 
dx="0,0,0,0,0,0,0,0,0,0,3.8,0,0,3.8,0,0,0,0,-0.3,0,0,0,3.8,0,0,0,0,3.8,0,0,3.8,0,0,0,0,0,3.8,0,0,0,0,3.8,0,0,0,0,3.8,0,0" 
class="s1_25"
>bandstand in Seafront Park at their home town of </text>

<text 
x="56" 
y="214" 
dx="0,0,0,0,-1.4,0,-0.5,0,-0.3,0,0,0,0,0,0,-0.5,0,0,0,-1.1,0,-0.5,0,0,0,-0.5,0,0,0,-0.5,0,0,0,0,-0.5,0,0,0,-0.5,0,-0.5,0,0,0,-0.5,0,0,-0.5,0,-0.5,0,0,0,0" 
class="s1_25"
>Bray, Ireland. Let’s see how they add a map to a page </text>

<text 
x="56" 
y="235" 
dx="0,0,0,0,0,0,0,0,-0.9,0,0,0,-0.9,0,0,0,0,0,0,0,0,-0.9,0,0,-0.9,0,0,0,0,-0.3,0,0,0,-0.9,0,0,0,0" 
class="s1_25"
>showing the location of Seafront Park.</text>

<text 
x="56" 
y="278" 
dx="0,0,0,0,-2.8,-2.1,-1.7,-2.4,-2.1,-2.1,-2.2,0,0,-2.2,-1.7,0,0,-2.9,-1.8,-2.6,-2.3,-2.6,-2.1,-1.7" 
class="s2_25"
>1. pinpoint the location</text>

<text 
transform="matrix(0.98, 0, 0, 1, 56, 299)"
dx="0,0,0,-0.9,0,0,0,-0.9,0,0,0,-0.3,0,0,0,-0.9,0,0,0,-0.9,0,0,-0.9,0,0,0,0,0,0,-0.9,0,0,0,0,0,-0.9,0,0,0,0,0,-0.9,0,0" 
class="s1_25"
>In the address box on Google Maps, enter the</text>

<text 
transform="matrix(0.98, 0, 0, 1, 56, 321)"
dx="0,0,0,0,-0.3,0,0,0,-0.9,0,0,0,-0.9,0,0,0,0,-0.3,0,0,0,-0.9,0,0,0" 
class="s1_25"
>address for Seafront Park</text>

<path d="M47,47l0,4l-4,0l0,45l4,0l0,4l381,0l0,-4l5,0l0,-45l-5,0l0,-4Z" class="g18_25" />
<text 
x="57" 
y="86" 
dx="0,0,-4.1,-3,-2.8,-4.4,-3.1,-3.3,-3.2,-2.8,0,0,0,0,-2.7,-2.7,0" 
class="s3_25"
>&lt;Embedding a map&gt;</text>

<text 
x="54" 
y="428" 
dx="0,0,0,0,0,0,0,-0.9,0,0,0,0,-0.9,0,0,0,0,-0.9,0,0,0,0,-0.9,0,0,0,-0.9,0,0,0,0,0,0,0,0,-0.9,0,0,0,0,-0.9,0,-0.9,-0.3,0,0,-0.9,0,0,0,0,0,-0.9,0,0,-0.9,0,0,0,-0.9,0,0" 
class="s1_25"
>Google Maps will mark the location with a red ‘pin’ on the map</text>

<text 
x="56" 
y="717" 
dx="0,0,0,0,-2.1,-3.2,0,0,-2.2,-1.7,0,0,-2.6,-1.9,-1.8,-2.8,0,0,-2.5,-1.9,-1.8" 
class="s2_25"
>2. get the embed code</text>

<text 
x="56" 
y="738" 
dx="0,-0.2,-0.2,-0.2,-0.2,-0.2,3.2,-0.2,-0.2,-0.2,3.2,-0.2,-0.2,-0.2,-0.4,-0.2,3.2,-0.2,-0.2,-0.2,-0.2,-0.2,-0.2,-0.2,3.2,-0.2,3.2,-0.2,-0.2,-0.2,-0.2,-0.2,-0.2,3.2,-0.2,-0.2,-0.2,3.2,-0.2,-0.2,-0.2,-0.2,3.2,-0.2,-0.2,3.2,0" 
class="s1_25"
>Click the Share button. A dialog box pops up – </text>

<text 
x="56" 
y="759" 
dx="0,-0.2,-0.2,-0.2,-0.2,-0.2,-0.2,-1,-0.2,-0.2,-0.2,-1,-0.2,-0.2,-0.2,-0.2,-0.2,-1,-0.2,-0.2,-0.2,-1,-0.2,-0.2,-0.2,-0.2,-0.2,-0.2,0" 
class="s1_25"
>choose the Embed Map option. </text>

<text 
x="56" 
y="802" 
dx="0,-0.2,-0.2,-0.2,-0.5,-0.2,-0.2,-0.2,-0.2,-0.2,-0.5,-0.2,-0.2,-0.2,-0.5,-0.2,-0.2,-0.2,-0.2,-0.2,-0.2,-0.5,-0.2,-0.2,-0.2,-0.5,-0.2,-0.2,-0.2,-0.2,-0.2,-0.2,-0.5,-0.2,-0.2,-0.2,-0.5,-0.2,-0.2,-0.5,-0.2,-0.2,-0.2,-0.2,-0.5,-0.2,-0.2,0" 
class="s1_25"
>The Embed Map option now allows you to drag and </text>

<text 
x="56" 
y="824" 
dx="0,-0.4,-0.2,-0.2,-0.2,-0.2,-0.2,-1,-0.2,-0.2,-0.2,-1,-0.2,-0.2,-0.2,-1,-0.2,-0.2,-0.2,-0.2,-0.2,-1,-0.2,-0.2,-0.2,-1,-0.2,-0.2,-0.2,-0.2,-1,-0.2,-0.2,-0.2,-0.2,-1,-0.2,-0.2,-0.2,-1,-0.2,-0.2,-0.2,-0.2,-1,-0.2,-0.2,-0.2,-1,-0.2,-0.2,-0.2,-0.2" 
class="s1_25"
>resize the map until you have just the view you want.</text>

<text 
x="56" 
y="866" 
dx="0,-0.2,-0.2,-0.2,-0.2,-0.4,-0.2,-0.2,-0.2,-0.4,-0.2,-0.4,-0.2,-0.4,-0.2,-0.2,-0.2,-0.2,-0.2,-0.4,-0.2,-0.2,-0.2,-0.4,-0.2,-0.2,-0.2,-0.2,-0.4,-0.2,-0.2,-0.2,-0.4,-0.2,-0.2,-0.2,-0.2,-0.2,-0.4,-0.2,-0.2,-0.2,-1,-0.2,-0.4,-0.2,-0.2,-0.2,-0.2,-0.2,0" 
class="s1_25"
>When you are happy you have the right view, select </text>

<text 
x="56" 
y="888" 
dx="0,-0.2,-0.2,-0.2,-0.9,-0.2,-0.2,-0.2,-0.2,-0.9,-0.2,-0.4,-0.2,-0.2,-0.9,-0.2,-0.2,-0.2,-0.9,-0.2,-0.2,-0.2,-0.2,-0.2,-0.9,-0.2,-0.2,-0.2,-0.9,-0.2,-0.2,-0.2,-0.9,-0.2,-0.2,-0.2,-0.2,-0.9,-0.2,-0.2,-0.2,-0.2,-0.9,-0.2,-0.2,-0.9,-0.2,-0.2,-0.9,-0.2,-0.2,0" 
class="s1_25"
>the code from the Embed bar and then copy it to the </text>

<text 
x="56" 
y="909" 
dx="0,-0.2,-0.2,-0.2,-0.2,-0.2,-0.2,-0.2,-0.2,-1.3,-0.2,0.5,-0.2,-0.2,-0.2,-0.2,0.1,-0.2,0.5,-0.2,-0.4,-0.2,-0.2,-0.2,-0.2,-0.2,-0.2,-0.2,0.5,-0.2,-0.2,-0.2,0.5,-0.2,-0.2,-0.2,-0.2,0.5,-0.2,-0.2,-0.2,0.1,-0.2,-0.2,-0.2,-0.2,0" 
class="s1_25"
>computer’s memory (remember the copy shortcuts </text>

<text 
x="56" 
y="930" 
dx="0,-0.2" 
class="s1_25"
>– </text>

<text 
x="70" 
y="930" 
dx="0,-0.2,-0.2,-0.2,-0.2,-0.2" 
class="s4_25"
>Ctrl-C</text>

<text 
x="118" 
y="930" 
dx="0,-0.2,-0.2,-0.2,2.5,-0.2,-0.2,-0.2,-0.2,-0.2,-0.2,-0.2,2.5,-0.2,-0.2,-0.2,2.5,-0.2,-0.2,-0.2,-0.2,-0.2,2.5,-0.2,-0.2,-0.2,-0.2,-0.2,-0.2,-0.2,2.5,-0.2,-0.2" 
class="s1_25"
>for Windows and Linux systems or </text>

<text 
x="367" 
y="930" 
dx="0,0" 
class="s5_25"
>⌘-</text>

<text 
x="387" 
y="930" 
dx="0,0" 
class="s4_25"
>C </text>

<text 
x="56" 
y="952" 
dx="0,-0.2,-0.2,-0.2,-1,-0.2,-0.2,-0.2,-0.2,-0.2" 
class="s1_25"
>for Macs).</text>

<text 
x="157" 
y="374" 
dx="0,0,0,0,0,0,0,-1.2,0,0,0,0,0,0,-1.2,0,0,0" 
class="s6_25"
>Search Google Maps</text>

<text 
x="676" 
y="667" 
dx="0,0,-0.3,0,0,0,0,-0.3,0,0,0,0,0,0,-0.3,0,-0.3,0,0,0,-0.3,0,0,0,0,-0.3,0,-0.3,0,0,0,0,-0.3,0,0,0,0,0" 
class="s7_25"
>© 2015 Google – Map data © 2015 Google</text>

<text 
x="877" 
y="406" 
dx="0,0,0,0,-0.9,0,0,0,0,0,0,-0.9,0,0,0,-0.9,0,0,0,0,-0.9,0,0,0,-0.9,0,0,0,0,0,0,-0.9,0,0,0,0,0,0,0,0,-0.9,0,0,-0.9,0,0,0,-0.9,0,0,0,0,0,0,0" 
class="s1_25"
>The Google Map will now appear embedded in the webpage.</text>

<text 
x="879" 
y="75" 
dx="0,0,0,0,-2.3,-2,-2.3,-2.1,0,0,-2.1,-1.6,0,0,-2.4,-1.8,-1.7,-2.6,0,0,-2.4,-1.8,-1.7,0,0,-1.9,-2.1,-2.1,0,0,-2.1,-1.6,0,0,-1.6,-2.6,-1.7,-2.3,-1.7,-1.9" 
class="s8_25"
>3. paste the embed code into the webpage</text>

<text 
x="879" 
y="96" 
dx="0,0,0,0,2.7,0,0,0,0,0,0,0,0,0,2.7,0,0,0,2.7,0,0,0,2.7,0,0,0,2.7,0,0,2.7,0,0,0,2.7,0,0,0,2.7,0,0,2.7,0,0,0,-1.4,0,2.7,0,0,-0.3,0,2.7,0,0,2.7,0,0,0,2.7,0,0,0,0,2.7,0,0,0,2.7,0,0,0,2.7,0,0,0,0,2.7,0,0,0.3,0,2.7,0,0,2.7,0,0,0,0,0,2.7,0,0,0,0,0" 
class="s1_25"
>The Nanonauts add the map to the See Us Play. Here is the code for the main part of their page. </text>

<text 
x="879" 
y="118" 
dx="0,0,0,0,-0.9,0,0,0,0,0,0,0,0,-0.9,0,0,0,0,-0.9,0,0,0,-0.9,0,0,0,-0.9,0,0,0,-0.9,0,0,-0.9,0,0,0,0,0,0,-0.9,0,0,0,0,0,-0.9,0,0,0,-0.9,0,0,0,0,0,0,0,-0.9,0,0,-0.9,0,0,0,-0.9,0,0,0,0,0,0.3,0" 
class="s1_25"
>The embedded code for the map is pasted after the details of the concert.</text>

<text 
x="879" 
y="171" 
dx="0,0,0,0,0,0,0,0,-1.8,0,0,-1.8,0,0,0,0,0,0,0,0,0" 
class="s9_25"
>&lt;h1&gt;See Us Play!&lt;/h1&gt;</text>

<text 
x="879" 
y="193" 
dx="0,0,0,0,0,0,0,0,-1.8,0,0,0,0,-1.8,0,0,0,0,0,0,0,0,0,0,0" 
class="s9_25"
>&lt;h2&gt;Our Next Concert&lt;/h2&gt;</text>

<text 
x="879" 
y="214" 
dx="0,0,0,0,0,0,-1.8,0,0,-1.8,0,0,0,-1.8,0,0,0,0,0,0,0,0,0,0,-1.8,0,0,0,0,-1.8,0,0,0,0,0,0,0,0,-1.8,0,0,0,0,-1.8,0,0,-1.8,0,0,0,0,0,0,0,0,0,-1.8,0,0,0,0,-1.8,0,0,0,0,-1.8,0,0,-1.8,0,0,0,0,0,0,0,0,0" 
class="s9_25"
>&lt;p&gt;Is at the bandstand, Bray Seafront Park on Saturday, 18th June at 4:00pm&lt;/p&gt;</text>

<text 
x="879" 
y="235" 
dx="0,0,0,0,0,0,0,0,0,0,0,0,0,-1.8,0,0,-1.8,0,0,0,0,0,0,0,0,0,0,0,0,0,0,0,0,0,0,0,0,0,0,0,0,0" 
class="s9_25"
>&lt;p&gt;Admission is &lt;strong&gt;free!&lt;/strong&gt;&lt;/p&gt;</text>

<text 
x="879" 
y="257" 
dx="0,0,0,0,0,0,0,0,-1.8,0,0,0,0,0,0,0,0,0,0,0,0,0,0,0,0,0,0,0,0,0,0,0,0,0,0,0,0,0,0,0,0,0,0,0,0,0,0,0,0,0,0,0,0,0,0,0,0,0,0,0,0,0,0,0,0,0,0,0,0,0,0,0,0,0,0,0,0,0.1" 
class="s9_25"
>&lt;iframe src="https://www.google.com/maps/embed?pb=!1m18!1m12!1m3!1d2389.76841 </text>

<text 
x="879" 
y="278" 
dx="0,0,0,0,0,0,0,0,0,0,0,0,0,0,0,0,0,0,0,0,0,0,0,0,0,0,0,0,0,0,0,0,0,0,0,0,0,0,0,0,0,0,0,0,0,0,0,0,0,0,0,0,0,0,0,0,0,0,0,0,0,0,0,0,0,0,0,0,0,0,0,0,0,0,0,0,0,0.1" 
class="s9_25"
>5129388!2d-6.1004805846458385!3d53.20406939306039!2m3!1f0!2f0!3f0!3m2!1i1024! </text>

<text 
x="879" 
y="299" 
dx="0,0,0,0,0,0,0,0,0,0,0,0,0,0,0,0,0,0,0,0,0,0,0,0,0,0,0,0,0,0,0,0,0,0,0,0,0,0,0,0,0,0,0,0,0,0,0,0,0,0,0,0,0,0,0,0,0,0,0,0,0,0,0,0,0,0,0,0,0,0,0,0,0,0,0,0,0" 
class="s9_25"
>2i768!4f13.1!3m3!1m2!1s0x4867a8680bea21b5%3A0x6c1f35aeb7249ff7!2sBray+Promena</text>

<text 
x="879" 
y="321" 
dx="0,0,0,0,0,0,0,0,0,0,0,0,0,0,0,0,0,0,0,0,0,0,0,0,0,0,0,0,0,0,0,0,0,0,0,0,0,0,0,0,0,0,0,0,0,0,0,0,0,0,0,0,0,0,0,0,0,0,0,0,0,0,0,0,0,0,0,0,0,0,0,0,-1.7,0,0,0,0,0" 
class="s9_25"
>de%2C+Bray%2C+Co.+Wicklow%2C+Ireland!5e0!3m2!1sen!2suk!4v1450275739107" width </text>

<text 
x="879" 
y="342" 
dx="0,0,0,0,0,0,0,-1.8,0,0,0,0,0,0,0,0,0,0,0,0,-1.8,0,0,0,0,0,0,0,0,0,0,0,0,0,0,0,-1.8,0,0,0,0,0,0,0,0,0,0,0,0,0,0,0,0,-1.8,0,0,0,0,0,0,0,0,0,0,0,0,0,0,0" 
class="s9_25"
>="600" height="450" frameborder="0" style="border:0" allowfullscreen&gt;</text>

<text 
x="879" 
y="364" 
dx="0,0,0,0,0,0,0,0,0" 
class="s9_25"
>&lt;/iframe&gt;</text>

<text 
x="894" 
y="528" 
dx="0,0,0,0,-1.5,0,0,-1.5,0,0,-0.5,0" 
class="s10_25"
>See Us Play!</text>

<text 
x="893" 
y="564" 
dx="0,0,0,0,-1,0,-0.3,0,0,-1,0,0,0,0,0,0.4" 
class="s11_25"
>Our Next Concert</text>

<text 
x="893" 
y="594" 
dx="0,0,0,-0.7,0,0,-0.7,0,0,0,-0.7,0,0,0,0,0,0,0,0,0,0,-0.7,0,0,0,0,-0.7,0,0,0,0,0,0,0,0,-0.7,0,0,0,0,-0.7,0,0,-0.7,0,0,0,0,0,0,0,-0.9,0,-0.7,0,0,0,0,-0.7,0,0,0,0,-0.7,0,0,-0.7,0,0,0,0,0" 
class="s12_25"
>Is at the bandstand, Bray Seafront Park on Saturday, 18th June at 4:00pm</text>

<text 
x="893" 
y="624" 
dx="0,0,0,0,0,0,0,0,0,0,-0.7,0,0" 
class="s12_25"
>Admission is </text>

<text 
x="964" 
y="624" 
dx="0,0,0,0,0" 
class="s13_25"
>free!</text>

<path d="M442,852l0,4l-4,0l0,4l-4,0l0,4l-4,0l0,4l-4,0l0,-4l0,-4l0,-4l0,-4l0,-4l0,-4l0,-4l0,-4l0,-4l4,0l0,4l4,0l0,4l4,0l0,4l4,0l0,4l4,0l0,4Z" class="g18_25" />
<text 
x="901" 
y="476" 
dx="0,0,0,0,0" 
class="s14_25"
>Home </text>

<text 
x="950" 
y="476" 
dx="0,0,0,0,0,0,-0.7,0,0" 
class="s14_25"
>About Us </text>

<text 
x="1016" 
y="476" 
dx="0,0,0,0,-0.7,0,0,0,0,0" 
class="s14_25"
>Our Songs </text>

<text 
x="1091" 
y="476" 
dx="0,0,0,0,-0.7,0,0,-0.7,0,0,-0.2,0" 
class="s14_25"
>See Us Play </text>

<text 
x="1171" 
y="476" 
dx="0,0,0,-0.2,0,0,0,0,-0.7,0,-0.7,0,0,0,0,0,0.2" 
class="s14_25"
>Playing a Concert</text>

<path d="M943,461l0,18" class="g16_25" />
<path d="M1010,461l0,18" class="g16_25" />
<path d="M1085,461l0,18" class="g16_25" />
<path d="M1166,461l0,18" class="g16_25" />
<text 
x="1590" 
y="1019" 
dx="0,-1.2" 
class="s15_25"
>49</text>

<text 
x="35" 
y="1019" 
dx="0,-1" 
class="s15_25"
>48</text>



<!-- Any embedded fonts defined here -->
<style type="text/css" ><![CDATA[

@font-face {
	font-family: DevanagariMT-Bold_1f2;
	src: url("fonts/DevanagariMT-Bold_1f2.woff") format("woff");
}

@font-face {
	font-family: AndaleMono_1cn;
	src: url("fonts/AndaleMono_1cn.woff") format("woff");
}

@font-face {
	font-family: Helvetica-Light_1by;
	src: url("fonts/Helvetica-Light_1by.woff") format("woff");
}

@font-face {
	font-family: PixelSplitter-Bold_1bs;
	src: url("fonts/PixelSplitter-Bold_1bs.woff") format("woff");
}

@font-face {
	font-family: PixelSplitter-Bold_l7;
	src: url("fonts/PixelSplitter-Bold_l7.woff") format("woff");
}

@font-face {
	font-family: Helvetica-Bold_1bu;
	src: url("fonts/Helvetica-Bold_1bu.woff") format("woff");
}

@font-face {
	font-family: Helvetica_1e3;
	src: url("fonts/Helvetica_1e3.woff") format("woff");
}

]]></style>

</svg>
