<?xml version="1.0" encoding="UTF-8" standalone="no"?>
<!DOCTYPE svg PUBLIC "-//W3C//DTD SVG 1.1//EN"
"http://www.w3.org/Graphics/SVG/1.1/DTD/svg11.dtd">


<!-- Page 26 -->
<svg x="0" y="0" width="1645" height="1061" viewBox="0 0 1645 1061" version="1.1" xmlns="http://www.w3.org/2000/svg" xmlns:xlink="http://www.w3.org/1999/xlink"
style="display: block;margin-left: auto;margin-right: auto;">
<defs>

<style type="text/css"><![CDATA[

.g5_26{
fill: #FFD400;
}
.g11_26{
fill: none;
stroke: #11151D;
stroke-width: 1;
stroke-linecap: butt;
stroke-linejoin: miter;
stroke-miterlimit: 4;
}
.g2_26{
fill: #FFFFFF;
}
.g3_26{
fill: #9EC3E0;
}
.g6_26{
fill: none;
stroke: #575554;
stroke-width: 5;
stroke-linecap: butt;
stroke-linejoin: miter;
stroke-miterlimit: 4;
}
.g7_26{
fill: none;
stroke: #FFD400;
stroke-width: 5;
stroke-linecap: butt;
stroke-linejoin: miter;
stroke-miterlimit: 4;
}
.g10_26{
fill: none;
stroke: #11151D;
stroke-width: 4;
stroke-linecap: round;
stroke-linejoin: round;
stroke-miterlimit: 4;
}
.g4_26{
fill: #B3CBC8;
}
.g8_26{
fill: #11151D;
}
.g1_26{
fill: #FAAD60;
}
.g9_26{
fill: none;
stroke: #11151D;
stroke-width: 2;
stroke-linecap: butt;
stroke-linejoin: miter;
}

.s6_26{
font-size: 15.28px;
font-family: Helvetica_1dx;
fill: #11151D;
}
.s5_26{
font-size: 15.28px;
font-family: Helvetica-Bold_1bu;
fill: #11151D;
}
.s8_26{
font-size: 15.28px;
font-family: AndaleMono_1cn;
fill: #11151D;
}
.s4_26{
font-size: 21.39px;
font-family: PixelSplitter-Bold_1bs;
fill: #11151D;
}
.s3_26{
font-size: 18.33px;
font-family: Wingdings-Regular_1c4;
fill: #11151D;
}
.s9_26{
font-size: 12.22px;
font-family: PixelSplitter-Bold_1bs;
fill: #11151D;
}
.s7_26{
font-size: 18.33px;
font-family: PixelSplitter-Bold_1bs;
fill: #11151D;
}
.s1_26{
font-size: 37.65px;
font-family: PixelSplitter-Bold_mq;
fill: #FFFFFF;
}
.s2_26{
font-size: 15.28px;
font-family: Helvetica-Light_1by;
fill: #11151D;
}

]]></style>

</defs>
<path d="M0,0
L0,1061
L1645,1061
L1645,0 Z " 
fill="#FFFFFF" stroke="none" />
<image x="-33" y="-32" width="1713" height="1115" xlink:href="26/img/1.png" />
<image x="-13" y="-11" width="1674" height="1073" opacity="0.5" xlink:href="26/img/2.png" />
<path d="M48,53l0,5l-5,0l0,45l5,0l0,5l359,0l0,-5l4,0l0,-45l-4,0l0,-5Z" class="g1_26" />
<path d="M56,682l469,0l0,-294L56,388l0,294Z" class="g2_26" />
<path d="M167,1006l608,0l0,-198l-608,0l0,198Z" class="g2_26" />
<path d="M1368,328l0,5l-4,0l0,459l4,0l0,5l230,0l0,-5l4,0l0,-459l-4,0l0,-5Z" class="g3_26" />
<path d="M1331,53l0,4l-4,0l0,68l4,0l0,4l141,0l0,-4l4,0l0,-68l-4,0l0,-4Z" class="g2_26" />
<path d="M870,328l0,5l-4,0l0,459l4,0l0,5l476,0l0,-5l4,0l0,-459l-4,0l0,-5Z" class="g4_26" />
<path d="M870,811l0,5l-5,0l0,88l5,0l0,4l92,0l0,-97Z" class="g5_26" />
<image x="864" y="816" width="87" height="89" xlink:href="26/img/3.png" />
<path d="M1096,286l502,0l0,-128l-502,0l0,128Z" class="g2_26" />
<path d="M1592,451l0,-97l-4,0l0,-4l-211,0l0,4l-4,0l0,97l4,0l0,4l110,0l0,5l5,0l0,4l5,0l0,5l4,0l0,4l5,0l0,5l5,0l0,5l4,0l0,-5l0,-5l0,-4l0,-5l0,-4l0,-5l73,0l0,-4Z" class="g2_26" />
<path d="M1592.5,451.5l0,-97l-4,0l0,-4l-211,0l0,4l-4,0l0,97l4,0l0,4l110,0l0,5l5,0l0,4l5,0l0,5l4,0l0,4l5,0l0,5l5,0l0,5l4,0l0,-5l0,-5l0,-4l0,-5l0,-4l0,-5l73,0l0,-4l4,0Z" class="g6_26" />
<path d="M964,858l0,149l2,0l3,0l0,2l0,2l601,0l0,-2l0,-2l2,0l3,0l0,-145l-3,0l-2,0l0,-2l0,-2Z" class="g2_26" />
<path d="M964.5,858.5l0,149l2,0l3,0l0,2l0,2l601,0l0,-2l0,-2l2,0l3,0l0,-145l-3,0l-2,0l0,-2l0,-2l-606,0Z" class="g7_26" />
<path d="M962,811l0,45l151,0l0,-40l-4,0l0,-5Z" class="g5_26" />
<image x="490" y="39" width="296" height="691" xlink:href="26/img/4.png" />
<image x="478" y="29" width="320" height="701" style="mix-blend-mode: multiply;" xlink:href="26/img/5.png" />
<image x="1358" y="443" width="242" height="362" xlink:href="26/img/6.png" />
<image x="1345" y="434" width="266" height="371" style="mix-blend-mode: multiply;" xlink:href="26/img/7.png" />
<path d="M48,53l0,5l-5,0l0,45l5,0l0,5l359,0l0,-5l4,0l0,-45l-4,0l0,-5Z" class="g8_26" />
<text 
x="62" 
y="95" 
dx="0,-3.5,-3.5,-3.8,-3.7,-3.2,0,0,0,0,-4,-3.5,-3,-5" 
class="s1_26"
>Adding a table</text>

<text 
transform="matrix(0.98, 0, 0, 1, 56, 139)"
dx="0,0,0,0,-0.8,0,0,0,-0.8,0,0,-0.8,0,0,0,0,-0.8,0,0,0,0,-0.8,0,0,0,0,-0.8,0,0,0,0,0,-0.8,0,0,0,0,0.3,0,0,0,0,0,0,-0.8,0,0,0,0,0,-0.8,0,0,0,-0.8,0,0,0,0,-0.8,0,0,0,0,0,0,0,0,0" 
class="s2_26"
>The See Us Play page only shows information about the next Nanonauts </text>

<text 
transform="matrix(0.98, 0, 0, 1, 56, 160)"
dx="0,0,0,0,0,0,0.3,0,0,-0.1,0,0,0,-0.1,0,0,0,0,-0.1,0,0,0,0,-0.1,0,0,0,0,0,-0.1,0,-0.1,0,0,0,-0.1,0,0,0,0,0,0.3,0,0,-0.1,0,0,0,0,0,0,-0.1,0,0,-0.1,0,0,0,-0.1,0,0,-0.1,0,0,0,0,0,-0.1,0,0" 
class="s2_26"
>concert. But they have quite a few concerts coming up and it would be </text>

<text 
transform="matrix(0.98, 0, 0, 1, 56, 182)"
dx="0,0,0,0,0,-0.9,0,0,-0.9,0,0,0,-0.3,0,-0.9,0,0,0,-0.9,0,-0.9,0,0,0,0,-0.9,0,0,-0.9,0,0,0,0,0,-0.9,0,0,0,0,0,0.3,0,0,0,-0.9,0,0,0,-0.9,0,0,0,0,-0.9,0,0,0,0,0,-0.9,0,0,0,0" 
class="s2_26"
>good if there was a list of these concerts. The list could show:</text>

<text 
transform="matrix(0.98, 0, 0, 1, 56, 203)"
dx="0" 
class="s3_26"
>[</text>

<text 
transform="matrix(0.98, 0, 0, 1, 83, 203)"
dx="0,0,0,0,-0.9,0,0,0,0,-0.9,0,0,-0.9,0,0,0,-0.9,0,0,0,0,0,0.3" 
class="s2_26"
>the date of the concert</text>

<text 
transform="matrix(0.98, 0, 0, 1, 56, 225)"
dx="0" 
class="s3_26"
>[</text>

<text 
transform="matrix(0.98, 0, 0, 1, 83, 225)"
dx="0,0,0,0,-0.3,0,-0.9,0,0,0,-0.9,0,0,0,0,0,0.3,0,-0.9,0,0,-0.9,0,0,0,0,0,0,-0.9,0,0,0,0" 
class="s2_26"
>where the concert is taking place</text>

<text 
transform="matrix(0.98, 0, 0, 1, 56, 246)"
dx="0" 
class="s3_26"
>[</text>

<text 
transform="matrix(0.98, 0, 0, 1, 83, 246)"
dx="0,0,0,0,0,-0.9,0,0,0,0,-0.9,0,0,0,-0.9,0,0,0,0,0,0,0,0,0,-0.9,0,-0.3,0,-0.9,0,0,0,0,0,0" 
class="s2_26"
>what time the Nanonauts are playing</text>

<text 
transform="matrix(0.98, 0, 0, 1, 56, 267)"
dx="0" 
class="s3_26"
>[</text>

<text 
transform="matrix(0.98, 0, 0, 1, 83, 267)"
dx="0,0,0,0,-0.9,0,0,0,0,-0.9,0,0,-0.9,0,0,0,0,-0.9,0,0,0,0,-0.9,0,0,-0.9,0,0,0,-0.9,0" 
class="s2_26"
>how much it will cost to get in</text>

<text 
transform="matrix(0.98, 0, 0, 1, 56, 289)"
dx="0,0,2.4,0,0,0,0,2.4,0,0,0,2.4,0,0,2.4,0,0,2.4,0,0,0,0,2.4,0,0,0,0,0,2.4,0,0,2.4,0,0,2.4,0,0,0,0,2.4,0,0,0,2.4,0,0,0,0,0.3,0,0,0,0,0,0,2.4,0,0,2.4,0,2.4,0,0,0,0,0,0" 
class="s2_26"
>A good way to do this would be to show the information in a table. </text>

<text 
transform="matrix(0.98, 0, 0, 1, 56, 310)"
dx="0,0,0,0,0,0,0,0,0,0,-0.9,0,0,0,0,-0.9,0,0,0,0" 
class="s2_26"
>Something like this:</text>

<text 
x="58" 
y="738" 
dx="0,-2.2,-1.7,0,-0.9,-2.3,-2,-1.7,-2.9,0,-0.9,-2.1,0,-0.9,-2.2,-2.2,-1.6,0" 
class="s4_26"
>The table in HTML </text>

<text 
transform="matrix(0.98, 0, 0, 1, 58, 759)"
dx="0,-1.7,0,-0.3,0,0,0,0,0,0,0,0,0,0,-0.3,0,0,0,-0.3,0,0,-0.3,0,0,0,-0.3,0,0,0,-0.3,0,0,0,0,0,-0.3,0,0,-0.3,0,0,0,-0.3,0,0,0,-0.3,0,0,-0.3,0,0,0,0,-0.3,0,0,0,-0.3,0,0,0,0,-0.3,0,0,-0.3,0,0,0,0,-0.3,0,0,-0.3,0,0,0,0,0,0,0,0,0,0,-0.3,0,0,0,0,-0.3,0,0,0,-0.3,0,0,-0.3,0,0,-0.3,0,0,0" 
class="s2_26"
>To understand how to add the table to the See Us Play web page we need to understand what the different </text>

<text 
transform="matrix(0.98, 0, 0, 1, 58, 781)"
dx="0,0,0,0.3,0,0,-0.9,0,0,-0.9,0,0,0,-0.9,0,0,0,0,0,-0.9,0,-0.3,0,-0.9,0,0,0,0,0,0,0,-0.9,0,0,0,0,-0.9,0,0,-0.9,0,0,0,0,0,-0.9,0,0,-0.9,0,0,0,-0.9,0,0,0,0,0,0,0,-0.9,0,0,0,0,0" 
class="s2_26"
>parts of the table are called. This is shown in the diagram below:</text>

<text 
transform="matrix(0.98, 0, 0, 1, 58, 834)"
dx="0,0,0,0,0,0,-0.9,-0.3,0,0" 
class="s2_26"
>table row </text>

<text 
transform="matrix(0.98, 0, 0, 1, 58, 866)"
dx="0,0,0,0,0,0,-0.9,-0.3,0,0" 
class="s2_26"
>table row </text>

<text 
transform="matrix(0.98, 0, 0, 1, 58, 898)"
dx="0,0,0,0,0,0,-0.9,-0.3,0,0" 
class="s2_26"
>table row </text>

<text 
transform="matrix(0.98, 0, 0, 1, 58, 930)"
dx="0,0,0,0,0,0,-0.9,-0.3,0,0" 
class="s2_26"
>table row </text>

<text 
transform="matrix(0.98, 0, 0, 1, 58, 963)"
dx="0,0,0,0,0,0,-0.9,-0.3,0,0" 
class="s2_26"
>table row </text>

<text 
transform="matrix(0.98, 0, 0, 1, 58, 995)"
dx="0,0,0,0,0,0,-0.9,-0.3,0,0" 
class="s2_26"
>table row </text>

<text 
x="51" 
y="364" 
dx="0,-1.7,-2.5,-2.5,-1.7,-2.1,-2.1,-1.8,0,0,-2.5,-1.7,-1.8,-2.5,-2.6,-2.4,-2.7" 
class="s4_26"
>Upcoming concerts</text>

<path d="M56,386l130,0" class="g9_26" />
<path d="M57,414l0,-27" class="g9_26" />
<path d="M186,386l130,0" class="g9_26" />
<path d="M186,414l0,-27" class="g9_26" />
<path d="M316,386l104,0" class="g9_26" />
<path d="M316,414l0,-27" class="g9_26" />
<path d="M420,386l105,0" class="g9_26" />
<path d="M420,414l0,-27" class="g9_26" />
<path d="M524,414l0,-27" class="g9_26" />
<path d="M56,414l130,0" class="g9_26" />
<path d="M57,468l0,-53" class="g9_26" />
<path d="M186,414l130,0" class="g9_26" />
<path d="M186,468l0,-53" class="g9_26" />
<path d="M316,414l104,0" class="g9_26" />
<path d="M316,468l0,-53" class="g9_26" />
<path d="M420,414l105,0" class="g9_26" />
<path d="M420,468l0,-53" class="g9_26" />
<path d="M524,468l0,-53" class="g9_26" />
<path d="M56,469l130,0" class="g9_26" />
<path d="M57,521l0,-52" class="g9_26" />
<path d="M186,469l130,0" class="g9_26" />
<path d="M186,521l0,-52" class="g9_26" />
<path d="M316,469l104,0" class="g9_26" />
<path d="M316,521l0,-52" class="g9_26" />
<path d="M420,469l105,0" class="g9_26" />
<path d="M420,521l0,-52" class="g9_26" />
<path d="M524,521l0,-52" class="g9_26" />
<path d="M56,522l130,0" class="g9_26" />
<path d="M57,575l0,-52" class="g9_26" />
<path d="M186,522l130,0" class="g9_26" />
<path d="M186,575l0,-52" class="g9_26" />
<path d="M316,522l104,0" class="g9_26" />
<path d="M316,575l0,-52" class="g9_26" />
<path d="M420,522l105,0" class="g9_26" />
<path d="M420,575l0,-52" class="g9_26" />
<path d="M524,575l0,-52" class="g9_26" />
<path d="M56,575l130,0" class="g9_26" />
<path d="M57,628l0,-52" class="g9_26" />
<path d="M186,575l130,0" class="g9_26" />
<path d="M186,628l0,-52" class="g9_26" />
<path d="M316,575l104,0" class="g9_26" />
<path d="M316,628l0,-52" class="g9_26" />
<path d="M420,575l105,0" class="g9_26" />
<path d="M420,628l0,-52" class="g9_26" />
<path d="M524,628l0,-52" class="g9_26" />
<path d="M56,629l130,0" class="g9_26" />
<path d="M57,682l0,-52" class="g9_26" />
<path d="M186,629l130,0" class="g9_26" />
<path d="M186,682l0,-52" class="g9_26" />
<path d="M316,629l104,0" class="g9_26" />
<path d="M316,682l0,-52" class="g9_26" />
<path d="M420,629l105,0" class="g9_26" />
<path d="M420,682l0,-52" class="g9_26" />
<path d="M524,682l0,-52" class="g9_26" />
<path d="M56,682l130,0" class="g9_26" />
<path d="M186,682l130,0" class="g9_26" />
<path d="M316,682l104,0" class="g9_26" />
<path d="M420,682l105,0" class="g9_26" />
<text 
transform="matrix(0.98, 0, 0, 1, 63, 406)"
dx="0,0,0,0,0" 
class="s5_26"
>Date </text>

<text 
transform="matrix(0.98, 0, 0, 1, 193, 406)"
dx="0,0,0,0,0" 
class="s5_26"
>Place</text>

<text 
transform="matrix(0.98, 0, 0, 1, 323, 406)"
dx="0,0,0,0,0" 
class="s5_26"
>Time </text>

<text 
x="426" 
y="406" 
dx="0,0,0,0,0" 
class="s5_26"
>Price</text>

<text 
x="65" 
y="439" 
dx="0,0,0,0,0,0,-1.4" 
class="s2_26"
>Sunday,</text>

<text 
x="65" 
y="460" 
dx="0,0,0,0,0,-0.9,0,0,0" 
class="s2_26"
>12th June</text>

<text 
x="195" 
y="439" 
dx="0,0,-0.3,0,0,0,0,0,0,0" 
class="s2_26"
>Greystones</text>

<text 
x="195" 
y="460" 
dx="0,0,0,0,0,0,-0.3" 
class="s2_26"
>Theatre</text>

<text 
x="325" 
y="439" 
dx="0,0,0,0,0,-0.9,0" 
class="s2_26"
>7:30 pm</text>

<text 
x="429" 
y="439" 
dx="0" 
class="s6_26"
>€</text>

<text 
x="440" 
y="439" 
dx="0,0,0,0" 
class="s2_26"
>5.00</text>

<text 
x="65" 
y="492" 
dx="0,-0.3,0,0,0,0,0,0,0,-1.4" 
class="s2_26"
>Wednesday,</text>

<text 
x="65" 
y="513" 
dx="0,0,0,0,0,-0.9,0,0,0" 
class="s2_26"
>15th June</text>

<text 
x="195" 
y="492" 
dx="0,0,-0.3,0,0,0,0,0,0,0,0,0" 
class="s2_26"
>Presentation</text>

<text 
x="195" 
y="513" 
dx="0,0,0,0,0,0,0,0,0,-0.9,0,0,0" 
class="s2_26"
>College, Bray</text>

<text 
x="325" 
y="492" 
dx="0,0,0,0,0,-0.9,0" 
class="s2_26"
>8:00 pm</text>

<text 
x="429" 
y="492" 
dx="0,0,-0.3,0,0" 
class="s2_26"
>Free!</text>

<text 
x="65" 
y="545" 
dx="0,0,0,0,0,-0.3,0,0,-1.4" 
class="s2_26"
>Saturday,</text>

<text 
x="65" 
y="567" 
dx="0,0,0,0,0,-0.9,0,0,0" 
class="s2_26"
>10th July</text>

<text 
x="195" 
y="545" 
dx="0,0,0,0" 
class="s2_26"
>Bray</text>

<text 
x="195" 
y="567" 
dx="0,0,0,0,0,0,0,0,0" 
class="s2_26"
>Bandstand</text>

<text 
x="325" 
y="545" 
dx="0,0,0,0,0,0,-0.9,0" 
class="s2_26"
>11:00 am</text>

<text 
x="429" 
y="545" 
dx="0,0,-0.3,0,0" 
class="s2_26"
>Free!</text>

<text 
x="65" 
y="599" 
dx="0,0,0,0,0,0,-1.4" 
class="s2_26"
>Sunday,</text>

<text 
x="65" 
y="620" 
dx="0,0,0,0,0,-0.9,0,0,0" 
class="s2_26"
>11th July</text>

<text 
x="195" 
y="599" 
dx="0,0,0,0" 
class="s2_26"
>Bray</text>

<text 
x="195" 
y="620" 
dx="0,0,0,0,0,0,0,0,0" 
class="s2_26"
>Bandstand</text>

<text 
x="325" 
y="599" 
dx="0,0,0,0,0,-0.9,0" 
class="s2_26"
>2:00 pm</text>

<text 
x="429" 
y="599" 
dx="0,0,-0.3,0,0" 
class="s2_26"
>Free!</text>

<text 
x="65" 
y="652" 
dx="0,0,0,0,0,0,-1.4" 
class="s2_26"
>Sunday,</text>

<text 
x="65" 
y="674" 
dx="0,0,0,0,0,-0.9,0,0,0,0,0" 
class="s2_26"
>28th August</text>

<text 
x="195" 
y="652" 
dx="0,0,-0.3,0,0,0,0,0,0,0" 
class="s2_26"
>Greystones</text>

<text 
x="195" 
y="674" 
dx="0,0,0,0,0,0,-0.3" 
class="s2_26"
>Theatre</text>

<text 
x="325" 
y="652" 
dx="0,0,0,0,0,-0.9,0" 
class="s2_26"
>7:30 pm</text>

<text 
x="429" 
y="652" 
dx="0" 
class="s6_26"
>€</text>

<text 
x="440" 
y="652" 
dx="0,0,0,0" 
class="s2_26"
>5.00</text>

<path d="M167,808l152,0" class="g9_26" />
<path d="M168,842l0,-33" class="g9_26" />
<path d="M319,808l152,0" class="g9_26" />
<path d="M319,842l0,-33" class="g9_26" />
<path d="M471,808l151,0" class="g9_26" />
<path d="M471,842l0,-33" class="g9_26" />
<path d="M622,808l153,0" class="g9_26" />
<path d="M622,842l0,-33" class="g9_26" />
<path d="M774,842l0,-33" class="g9_26" />
<path d="M167,843l152,0" class="g9_26" />
<path d="M168,875l0,-32" class="g9_26" />
<path d="M319,843l152,0" class="g9_26" />
<path d="M319,875l0,-32" class="g9_26" />
<path d="M471,843l151,0" class="g9_26" />
<path d="M471,875l0,-32" class="g9_26" />
<path d="M622,843l153,0" class="g9_26" />
<path d="M622,875l0,-32" class="g9_26" />
<path d="M774,875l0,-32" class="g9_26" />
<path d="M167,876l152,0" class="g9_26" />
<path d="M168,907l0,-30" class="g9_26" />
<path d="M319,876l152,0" class="g9_26" />
<path d="M319,907l0,-30" class="g9_26" />
<path d="M471,876l151,0" class="g9_26" />
<path d="M471,907l0,-30" class="g9_26" />
<path d="M622,876l153,0" class="g9_26" />
<path d="M622,907l0,-30" class="g9_26" />
<path d="M774,907l0,-30" class="g9_26" />
<path d="M167,908l152,0" class="g9_26" />
<path d="M168,939l0,-30" class="g9_26" />
<path d="M319,908l152,0" class="g9_26" />
<path d="M319,939l0,-30" class="g9_26" />
<path d="M471,908l151,0" class="g9_26" />
<path d="M471,939l0,-30" class="g9_26" />
<path d="M622,908l153,0" class="g9_26" />
<path d="M622,939l0,-30" class="g9_26" />
<path d="M774,939l0,-30" class="g9_26" />
<path d="M167,940l152,0" class="g9_26" />
<path d="M168,972l0,-31" class="g9_26" />
<path d="M319,940l152,0" class="g9_26" />
<path d="M319,972l0,-31" class="g9_26" />
<path d="M471,940l151,0" class="g9_26" />
<path d="M471,972l0,-31" class="g9_26" />
<path d="M622,940l153,0" class="g9_26" />
<path d="M622,972l0,-31" class="g9_26" />
<path d="M774,972l0,-31" class="g9_26" />
<path d="M167,972l152,0" class="g9_26" />
<path d="M168,1004l0,-31" class="g9_26" />
<path d="M319,972l152,0" class="g9_26" />
<path d="M319,1004l0,-31" class="g9_26" />
<path d="M471,972l151,0" class="g9_26" />
<path d="M471,1004l0,-31" class="g9_26" />
<path d="M622,972l153,0" class="g9_26" />
<path d="M622,1004l0,-31" class="g9_26" />
<path d="M774,1004l0,-31" class="g9_26" />
<path d="M167,1005l152,0" class="g9_26" />
<path d="M319,1005l152,0" class="g9_26" />
<path d="M471,1005l151,0" class="g9_26" />
<path d="M622,1005l153,0" class="g9_26" />
<text 
transform="matrix(0.98, 0, 0, 1, 174, 834)"
dx="0,0,0,-0.1,0,0,-0.9,0,0,0,0,0" 
class="s5_26"
>table header</text>

<text 
transform="matrix(0.98, 0, 0, 1, 325, 834)"
dx="0,0,0,-0.1,0,0,-0.9,0,0,0,0,0" 
class="s5_26"
>table header</text>

<text 
transform="matrix(0.98, 0, 0, 1, 477, 834)"
dx="0,0,0,-0.1,0,0,-0.9,0,0,0,0,0" 
class="s5_26"
>table header</text>

<text 
transform="matrix(0.98, 0, 0, 1, 628, 834)"
dx="0,0,0,-0.1,0,0,-0.9,0,0,0,0,0" 
class="s5_26"
>table header</text>

<text 
x="176" 
y="866" 
dx="0,0,0,0,0,0,-0.9,0,0,0" 
class="s2_26"
>table data</text>

<text 
x="328" 
y="866" 
dx="0,0,0,0,0,0,-0.9,0,0,0" 
class="s2_26"
>table data</text>

<text 
x="479" 
y="866" 
dx="0,0,0,0,0,0,-0.9,0,0,0" 
class="s2_26"
>table data</text>

<text 
x="631" 
y="866" 
dx="0,0,0,0,0,0,-0.9,0,0,0" 
class="s2_26"
>table data</text>

<text 
x="176" 
y="898" 
dx="0,0,0,0,0,0,-0.9,0,0,0" 
class="s2_26"
>table data</text>

<text 
x="328" 
y="898" 
dx="0,0,0,0,0,0,-0.9,0,0,0" 
class="s2_26"
>table data</text>

<text 
x="479" 
y="898" 
dx="0,0,0,0,0,0,-0.9,0,0,0" 
class="s2_26"
>table data</text>

<text 
x="631" 
y="898" 
dx="0,0,0,0,0,0,-0.9,0,0,0" 
class="s2_26"
>table data</text>

<text 
x="176" 
y="930" 
dx="0,0,0,0,0,0,-0.9,0,0,0" 
class="s2_26"
>table data</text>

<text 
x="328" 
y="930" 
dx="0,0,0,0,0,0,-0.9,0,0,0" 
class="s2_26"
>table data</text>

<text 
x="479" 
y="930" 
dx="0,0,0,0,0,0,-0.9,0,0,0" 
class="s2_26"
>table data</text>

<text 
x="631" 
y="930" 
dx="0,0,0,0,0,0,-0.9,0,0,0" 
class="s2_26"
>table data</text>

<text 
x="176" 
y="963" 
dx="0,0,0,0,0,0,-0.9,0,0,0" 
class="s2_26"
>table data</text>

<text 
x="328" 
y="963" 
dx="0,0,0,0,0,0,-0.9,0,0,0" 
class="s2_26"
>table data</text>

<text 
x="479" 
y="963" 
dx="0,0,0,0,0,0,-0.9,0,0,0" 
class="s2_26"
>table data</text>

<text 
x="631" 
y="963" 
dx="0,0,0,0,0,0,-0.9,0,0,0" 
class="s2_26"
>table data</text>

<text 
x="176" 
y="995" 
dx="0,0,0,0,0,0,-0.9,0,0,0" 
class="s2_26"
>table data</text>

<text 
x="328" 
y="995" 
dx="0,0,0,0,0,0,-0.9,0,0,0" 
class="s2_26"
>table data</text>

<text 
x="479" 
y="995" 
dx="0,0,0,0,0,0,-0.9,0,0,0" 
class="s2_26"
>table data</text>

<text 
x="631" 
y="995" 
dx="0,0,0,0,0,0,-0.9,0,0,0" 
class="s2_26"
>table data</text>

<path d="M157,829l-30,0" class="g10_26" />
<path d="M158.3,827.5l0,-1.4c0,-0.2,0,-0.3,-0.1,-0.4c-0.2,-0.2,-0.3,-0.2,-0.5,-0.2l-1.4,0l0,-1.4c0,-0.2,0,-0.3,-0.1,-0.5c-0.2,-0.1,-0.3,-0.2,-0.5,-0.2l-1.4,0l0,-1.2c0,-0.2,0,-0.3,-0.1,-0.4c-0.2,-0.2,-0.3,-0.2,-0.5,-0.2l-1.9,0c-0.2,0,-0.3,0,-0.5,0.2c-0.1,0.1,-0.1,0.2,-0.1,0.4l0,1.9c0,0.2,0,0.3,0.1,0.5c0.2,0.1,0.3,0.2,0.5,0.2l1.2,0l0,1.3c0,0.2,0.1,0.3,0.2,0.5c0.2,0.1,0.3,0.2,0.5,0.2l1.3,0l0,1.3c0,0.2,0.1,0.4,0.2,0.5c0.2,0.1,0.3,0.2,0.5,0.2l1.3,0l0,0.8l-1.2,0c-0.2,0,-0.3,0.1,-0.5,0.2c-0.1,0.1,-0.1,0.3,-0.1,0.5l0,1.3l-1.4,0c-0.2,0,-0.3,0.1,-0.4,0.2c-0.2,0.1,-0.2,0.3,-0.2,0.5l0,1.3l-1.4,0c-0.2,0,-0.3,0.1,-0.5,0.2c-0.1,0.1,-0.1,0.3,-0.1,0.5l0,1.7c0,0.2,0,0.4,0.1,0.5c0.2,0.1,0.3,0.2,0.5,0.2l1.7,0c0.2,0,0.4,-0.1,0.5,-0.2c0.1,-0.1,0.2,-0.3,0.2,-0.5l0,-1.3l1.4,0c0.1,0,0.3,-0.1,0.4,-0.2c0.2,-0.1,0.2,-0.3,0.2,-0.5l0,-1.3l1.4,0c0.2,0,0.3,-0.1,0.4,-0.2c0.2,-0.1,0.2,-0.3,0.2,-0.5l0,-1.3l1.4,0c0.2,0,0.3,-0.1,0.5,-0.2c0.1,-0.2,0.1,-0.3,0.1,-0.5l0,-1.9c0,-0.2,0,-0.3,-0.1,-0.4c-0.2,-0.2,-0.3,-0.2,-0.5,-0.2Z" class="g8_26" />
<path d="M157,861l-30,0" class="g10_26" />
<path d="M158.3,859.5l0,-1.3c0,-0.2,0,-0.4,-0.1,-0.5c-0.2,-0.1,-0.3,-0.2,-0.5,-0.2l-1.4,0l0,-1.3c0,-0.2,0,-0.4,-0.1,-0.5c-0.2,-0.1,-0.3,-0.2,-0.5,-0.2l-1.4,0l0,-1.2c0,-0.2,0,-0.4,-0.1,-0.5c-0.2,-0.1,-0.3,-0.2,-0.5,-0.2l-1.9,0c-0.2,0,-0.3,0.1,-0.5,0.2c-0.1,0.1,-0.1,0.3,-0.1,0.5l0,1.9c0,0.1,0,0.3,0.1,0.4c0.2,0.2,0.3,0.2,0.5,0.2l1.2,0l0,1.4c0,0.1,0.1,0.3,0.2,0.4c0.2,0.2,0.3,0.2,0.5,0.2l1.3,0l0,1.4c0,0.2,0.1,0.3,0.2,0.4c0.2,0.2,0.3,0.2,0.5,0.2l1.3,0l0,0.9l-1.2,0c-0.2,0,-0.3,0,-0.5,0.2c-0.1,0.1,-0.1,0.2,-0.1,0.4l0,1.4l-1.4,0c-0.2,0,-0.3,0,-0.4,0.2c-0.2,0.1,-0.2,0.2,-0.2,0.4l0,1.4l-1.4,0c-0.2,0,-0.3,0,-0.5,0.2c-0.1,0.1,-0.1,0.2,-0.1,0.4l0,1.8c0,0.2,0,0.3,0.1,0.5c0.2,0.1,0.3,0.1,0.5,0.1l1.7,0c0.2,0,0.4,0,0.5,-0.1c0.1,-0.2,0.2,-0.3,0.2,-0.5l0,-1.4l1.4,0c0.1,0,0.3,0,0.4,-0.1c0.2,-0.2,0.2,-0.3,0.2,-0.5l0,-1.4l1.4,0c0.2,0,0.3,-0.1,0.4,-0.2c0.2,-0.1,0.2,-0.3,0.2,-0.4l0,-1.4l1.4,0c0.2,0,0.3,-0.1,0.5,-0.2c0.1,-0.1,0.1,-0.3,0.1,-0.4l0,-1.9c0,-0.2,0,-0.4,-0.1,-0.5c-0.2,-0.1,-0.3,-0.2,-0.5,-0.2Z" class="g8_26" />
<path d="M157,893l-30,0" class="g10_26" />
<path d="M158.3,891.6l0,-1.3c0,-0.2,0,-0.4,-0.1,-0.5c-0.2,-0.1,-0.3,-0.2,-0.5,-0.2l-1.4,0l0,-1.3c0,-0.2,0,-0.4,-0.1,-0.5c-0.2,-0.1,-0.3,-0.2,-0.5,-0.2l-1.4,0l0,-1.2c0,-0.2,0,-0.4,-0.1,-0.5c-0.2,-0.1,-0.3,-0.2,-0.5,-0.2l-1.9,0c-0.2,0,-0.3,0.1,-0.5,0.2c-0.1,0.1,-0.1,0.3,-0.1,0.5l0,1.9c0,0.1,0,0.3,0.1,0.4c0.2,0.2,0.3,0.2,0.5,0.2l1.2,0l0,1.4c0,0.1,0.1,0.3,0.2,0.4c0.2,0.2,0.3,0.2,0.5,0.2l1.3,0l0,1.4c0,0.2,0.1,0.3,0.2,0.4c0.2,0.2,0.3,0.2,0.5,0.2l1.3,0l0,0.9l-1.2,0c-0.2,0,-0.3,0,-0.5,0.2c-0.1,0.1,-0.1,0.2,-0.1,0.4l0,1.4l-1.4,0c-0.2,0,-0.3,0,-0.4,0.2c-0.2,0.1,-0.2,0.2,-0.2,0.4l0,1.4l-1.4,0c-0.2,0,-0.3,0,-0.5,0.2c-0.1,0.1,-0.1,0.3,-0.1,0.4l0,1.8c0,0.2,0,0.3,0.1,0.5c0.2,0.1,0.3,0.1,0.5,0.1l1.7,0c0.2,0,0.4,0,0.5,-0.1c0.1,-0.2,0.2,-0.3,0.2,-0.5l0,-1.3l1.4,0c0.1,0,0.3,-0.1,0.4,-0.2c0.2,-0.2,0.2,-0.3,0.2,-0.5l0,-1.4l1.4,0c0.2,0,0.3,-0.1,0.4,-0.2c0.2,-0.1,0.2,-0.3,0.2,-0.4l0,-1.4l1.4,0c0.2,0,0.3,-0.1,0.5,-0.2c0.1,-0.1,0.1,-0.3,0.1,-0.4l0,-1.9c0,-0.2,0,-0.4,-0.1,-0.5c-0.2,-0.1,-0.3,-0.2,-0.5,-0.2Z" class="g8_26" />
<path d="M157,925l-30,0" class="g10_26" />
<path d="M158.3,923.7l0,-1.3c0,-0.2,0,-0.4,-0.1,-0.5c-0.2,-0.1,-0.3,-0.2,-0.5,-0.2l-1.4,0l0,-1.3c0,-0.2,0,-0.4,-0.1,-0.5c-0.2,-0.1,-0.3,-0.2,-0.5,-0.2l-1.4,0l0,-1.2c0,-0.2,0,-0.4,-0.1,-0.5c-0.2,-0.1,-0.3,-0.2,-0.5,-0.2l-1.9,0c-0.2,0,-0.3,0.1,-0.5,0.2c-0.1,0.1,-0.1,0.3,-0.1,0.5l0,1.9c0,0.1,0,0.3,0.1,0.4c0.2,0.2,0.3,0.2,0.5,0.2l1.2,0l0,1.4c0,0.1,0.1,0.3,0.2,0.4c0.2,0.2,0.3,0.2,0.5,0.2l1.3,0l0,1.4c0,0.2,0.1,0.3,0.2,0.4c0.2,0.2,0.3,0.2,0.5,0.2l1.3,0l0,0.9l-1.2,0c-0.2,0,-0.3,0,-0.5,0.2c-0.1,0.1,-0.1,0.2,-0.1,0.4l0,1.4l-1.4,0c-0.2,0,-0.3,0,-0.4,0.2c-0.2,0.1,-0.2,0.2,-0.2,0.4l0,1.4l-1.4,0c-0.2,0,-0.3,0,-0.5,0.2c-0.1,0.1,-0.1,0.3,-0.1,0.4l0,1.8c0,0.2,0,0.3,0.1,0.5c0.2,0.1,0.3,0.2,0.5,0.2l1.7,0c0.2,0,0.4,-0.1,0.5,-0.2c0.1,-0.2,0.2,-0.3,0.2,-0.5l0,-1.3l1.4,0c0.1,0,0.3,-0.1,0.4,-0.2c0.2,-0.2,0.2,-0.3,0.2,-0.5l0,-1.4l1.4,0c0.2,0,0.3,-0.1,0.4,-0.2c0.2,-0.1,0.2,-0.3,0.2,-0.4l0,-1.4l1.4,0c0.2,0,0.3,-0.1,0.5,-0.2c0.1,-0.1,0.1,-0.3,0.1,-0.4l0,-1.9c0,-0.2,0,-0.4,-0.1,-0.5c-0.2,-0.1,-0.3,-0.2,-0.5,-0.2Z" class="g8_26" />
<path d="M157,957l-30,0" class="g10_26" />
<path d="M158.3,955.8l0,-1.3c0,-0.2,0,-0.4,-0.1,-0.5c-0.2,-0.1,-0.3,-0.2,-0.5,-0.2l-1.4,0l0,-1.3c0,-0.2,0,-0.4,-0.1,-0.5c-0.2,-0.1,-0.3,-0.2,-0.5,-0.2l-1.4,0l0,-1.2c0,-0.2,0,-0.4,-0.1,-0.5c-0.2,-0.1,-0.3,-0.2,-0.5,-0.2l-1.9,0c-0.2,0,-0.3,0.1,-0.5,0.2c-0.1,0.1,-0.1,0.3,-0.1,0.5l0,1.9c0,0.2,0,0.3,0.1,0.4c0.2,0.2,0.3,0.2,0.5,0.2l1.2,0l0,1.4c0,0.1,0.1,0.3,0.2,0.4c0.2,0.2,0.3,0.2,0.5,0.2l1.3,0l0,1.4c0,0.2,0.1,0.3,0.2,0.4c0.2,0.2,0.3,0.2,0.5,0.2l1.3,0l0,0.9l-1.2,0c-0.2,0,-0.3,0,-0.5,0.2c-0.1,0.1,-0.1,0.2,-0.1,0.4l0,1.4l-1.4,0c-0.2,0,-0.3,0,-0.4,0.2c-0.2,0.1,-0.2,0.2,-0.2,0.4l0,1.4l-1.4,0c-0.2,0,-0.3,0,-0.5,0.2c-0.1,0.1,-0.1,0.3,-0.1,0.4l0,1.8c0,0.2,0,0.3,0.1,0.5c0.2,0.1,0.3,0.2,0.5,0.2l1.7,0c0.2,0,0.4,-0.1,0.5,-0.2c0.1,-0.2,0.2,-0.3,0.2,-0.5l0,-1.3l1.4,0c0.1,0,0.3,-0.1,0.4,-0.2c0.2,-0.2,0.2,-0.3,0.2,-0.5l0,-1.4l1.4,0c0.2,0,0.3,0,0.4,-0.2c0.2,-0.1,0.2,-0.2,0.2,-0.4l0,-1.4l1.4,0c0.2,0,0.3,0,0.5,-0.2c0.1,-0.1,0.1,-0.3,0.1,-0.4l0,-1.9c0,-0.2,0,-0.4,-0.1,-0.5c-0.2,-0.1,-0.3,-0.2,-0.5,-0.2Z" class="g8_26" />
<path d="M157,989l-30,0" class="g10_26" />
<path d="M158.3,987.9l0,-1.3c0,-0.2,0,-0.4,-0.1,-0.5c-0.2,-0.1,-0.3,-0.2,-0.5,-0.2l-1.4,0l0,-1.3c0,-0.2,0,-0.4,-0.1,-0.5c-0.2,-0.1,-0.3,-0.2,-0.5,-0.2l-1.4,0l0,-1.2c0,-0.2,0,-0.4,-0.1,-0.5C154,982.1,153.9,982,153.7,982l-1.9,0c-0.2,0,-0.3,0.1,-0.5,0.2c-0.1,0.1,-0.1,0.3,-0.1,0.5l0,1.9c0,0.2,0,0.3,0.1,0.4c0.2,0.2,0.3,0.2,0.5,0.2l1.2,0l0,1.4c0,0.2,0.1,0.3,0.2,0.4c0.2,0.2,0.3,0.2,0.5,0.2l1.3,0l0,1.4c0,0.2,0.1,0.3,0.2,0.4c0.2,0.2,0.3,0.2,0.5,0.2l1.3,0l0,0.9l-1.2,0c-0.2,0,-0.3,0,-0.5,0.2c-0.1,0.1,-0.1,0.2,-0.1,0.4l0,1.4l-1.4,0c-0.2,0,-0.3,0,-0.4,0.2c-0.2,0.1,-0.2,0.3,-0.2,0.4l0,1.4l-1.4,0c-0.2,0,-0.3,0,-0.5,0.2c-0.1,0.1,-0.1,0.3,-0.1,0.4l0,1.8c0,0.2,0,0.3,0.1,0.5c0.2,0.1,0.3,0.2,0.5,0.2l1.7,0c0.2,0,0.4,-0.1,0.5,-0.2c0.1,-0.2,0.2,-0.3,0.2,-0.5l0,-1.3l1.4,0c0.1,0,0.3,-0.1,0.4,-0.2c0.2,-0.2,0.2,-0.3,0.2,-0.5l0,-1.4l1.4,0c0.2,0,0.3,0,0.4,-0.2c0.2,-0.1,0.2,-0.2,0.2,-0.4l0,-1.4l1.4,0c0.2,0,0.3,0,0.5,-0.2c0.1,-0.1,0.1,-0.3,0.1,-0.4l0,-1.9c0,-0.2,0,-0.4,-0.1,-0.5c-0.2,-0.1,-0.3,-0.2,-0.5,-0.2Z" class="g8_26" />
<text 
transform="matrix(0.98, 0, 0, 1, 1340, 75)"
dx="0,0,0,0,0,0,-0.9,-0.3,0,0" 
class="s2_26"
>table row </text>

<text 
transform="matrix(0.98, 0, 0, 1, 1450, 75)"
dx="0,0" 
class="s2_26"
>tr</text>

<text 
transform="matrix(0.98, 0, 0, 1, 1340, 96)"
dx="0,0,0,0,0,0,-0.9,0,0,0,0,0,0" 
class="s2_26"
>table header </text>

<text 
transform="matrix(0.98, 0, 0, 1, 1450, 96)"
dx="0,0" 
class="s2_26"
>th</text>

<text 
transform="matrix(0.98, 0, 0, 1, 1340, 118)"
dx="0,0,0,0,0,0,-0.9,0,0,0,0" 
class="s2_26"
>table data </text>

<text 
transform="matrix(0.98, 0, 0, 1, 1450, 118)"
dx="0,0" 
class="s2_26"
>td</text>

<text 
transform="matrix(0.98, 0, 0, 1, 879, 64)"
dx="0,0,-0.3,0,0,-0.9,0,0,0,0,-0.9,0,0,-0.9,0,0,0,-0.9,0,0,0,-0.9,0,0,0,0,0,-0.9,0,0,-0.9,0,0,0,0,0,-0.9,0,0,0,-0.9,-0.3,0,0,0,0,0,-0.9,0,0,0,-0.9,0,-0.9,0,0,0,0,0,-0.9,0,0" 
class="s2_26"
>From this we can see that, in HTML, the recipe for a table is:</text>

<text 
transform="matrix(0.98, 0, 0, 1, 879, 86)"
dx="0,0,0" 
class="s7_26"
>1. </text>

<text 
transform="matrix(0.98, 0, 0, 1, 904, 86)"
dx="0,0,0,0,-0.9,0,0,0,-0.9,0,0,-0.9,0,0,-0.3,0,-0.9,0,0,0,0,0,-0.9,-0.3,0,0,-0.9,0,0,0,0,0,0,0" 
class="s2_26"
>Add one or more table row elements</text>

<text 
transform="matrix(0.98, 0, 0, 1, 879, 107)"
dx="0,0,0" 
class="s7_26"
>2. </text>

<text 
transform="matrix(0.98, 0, 0, 1, 906, 107)"
dx="0,0,0,0,0,1.6,0,0,0,0,1.6,-0.3,0,0,1.6,0,0,0,0,1.6,0,0,0,0,0,1.6,0,0,0,0,0,0,1.6,0,0,1.6,0,0,0,0,0,1.6,0,0,0,0,1.6,0,0,0,0,0,0,0,0,0" 
class="s2_26"
>Fill each row with table header or table data elements. </text>

<text 
transform="matrix(0.98, 0, 0, 1, 879, 128)"
dx="0,0,0,0,-0.9,0,0,0,0,-0.9,0,0,0,0,0,0,-0.9,0,0,0,0,0,0,0,0,-0.9,0,-0.3,0,-0.9,0,0,0,0,0,-0.9,0,0,-0.9,0,0,0,0,0,-0.9,0,0,-0.9,0,0,0,-0.9,0,0,0,0,0" 
class="s2_26"
>The HTML markup elements are named as shown to the right.</text>

<text 
transform="matrix(0.98, 0, 0, 1, 877, 310)"
dx="0,0,-0.3,0,0,-0.9,0,0,0,0,-0.9,0,0,-0.9,0,0,0,-0.9,0,0,0,-0.9,0,0,0,0,-0.9,0,0,0,-0.9,0,0,0,0,0,0,-0.9,0,0,0,0,-0.9,0,0,0,0,0,0,-0.9,0,0,0,0,0,0,-0.9,0,0,0,0,-0.9,0,0,0,0,-0.9,0,0,-0.9,0,0,0,-0.9,0,0,0,0,0,-0.9,0,0,0,-0.9,0,0,0,0,0" 
class="s2_26"
>From this we can see what the actual HTML markup should look like if the table was empty:</text>

<text 
transform="matrix(0.98, 0, 0, 1, 879, 193)"
dx="0,0,0,-0.8,0,0,-0.8,0,0,0,-0.8,0,0,0,-0.8,0,0,0,0,0,0,0" 
class="s2_26"
>If we use the element </text>

<text 
transform="matrix(0.98, 0, 0, 1, 879, 214)"
dx="0,0,0,0,0,0,0,2.2,0,0,0,2.2,0,0,0,0,0,0,0" 
class="s2_26"
>names, our diagram </text>

<text 
transform="matrix(0.98, 0, 0, 1, 879, 235)"
dx="0,0,0,0,0,0,-0.9,0,0,0,0,-0.9,0,0,0,0" 
class="s2_26"
>looks like this:</text>

<text 
transform="matrix(0.98, 0, 0, 1, 1385, 374)"
dx="0,-0.7,-0.5,-0.7,-0.5,-0.5,-0.5,-0.5,-0.7,-0.5,-0.5,-0.5,-0.5,-0.7,-0.5,-0.5,-0.5" 
class="s2_26"
>We call this the </text>

<text 
transform="matrix(0.98, 0, 0, 1, 1482, 374)"
dx="0,-0.5,-0.5,-0.6,-0.5,-0.5,-0.7,-0.5,-0.5,-0.5,-0.5,-0.5,-0.5,-0.5" 
class="s5_26"
>table skeleton</text>

<text 
transform="matrix(0.98, 0, 0, 1, 1575, 374)"
dx="0,0" 
class="s2_26"
>, </text>

<text 
transform="matrix(0.98, 0, 0, 1, 1385, 396)"
dx="0,-0.5,-0.5,-0.5,-0.5,-0.5,-0.5,-0.5,2.1,-0.5,-0.5,-1.6,-0.5,2.1,-0.5,-0.5,-0.5,-0.5,2.1,-0.5,-0.5,-0.5,2.1,-0.5,-0.5,-0.5,-0.5,-0.5,2.1,-0.5,0" 
class="s2_26"
>because it’s just the bones of </text>

<text 
transform="matrix(0.98, 0, 0, 1, 1385, 417)"
dx="0,-0.5,-0.5,-0.5,4,-0.5,-0.5,-0.5,-0.5,-0.5,-0.5,4,-0.7,-0.5,4,-0.5,-0.5,-0.5,-0.5,-0.5,-0.7,-0.5,4,-0.5,-0.5,-0.5,-0.5,0" 
class="s2_26"
>the table. We haven’t added </text>

<text 
transform="matrix(0.98, 0, 0, 1, 1385, 439)"
dx="0,-0.5,-0.5,-0.5,-1.3,-0.5,-0.5,-0.5,-0.5,-0.5,-0.5,-1.3,-0.5,-0.5,-0.5,-0.5,-0.5,-0.5,-0.5,-1.3,-0.5,-0.5,-0.5" 
class="s2_26"
>the actual content yet.</text>

<text 
transform="matrix(0.98, 0, 0, 1, 1036, 171)"
dx="0,0" 
class="s2_26"
>tr</text>

<text 
transform="matrix(0.98, 0, 0, 1, 1036, 193)"
dx="0,0" 
class="s2_26"
>tr</text>

<text 
transform="matrix(0.98, 0, 0, 1, 1036, 214)"
dx="0,0" 
class="s2_26"
>tr</text>

<text 
transform="matrix(0.98, 0, 0, 1, 1036, 235)"
dx="0,0" 
class="s2_26"
>tr</text>

<text 
transform="matrix(0.98, 0, 0, 1, 1036, 257)"
dx="0,0" 
class="s2_26"
>tr</text>

<text 
transform="matrix(0.98, 0, 0, 1, 1036, 278)"
dx="0,0" 
class="s2_26"
>tr</text>

<path d="M1094,158l126,0" class="g9_26" />
<path d="M1094,176l0,-17" class="g9_26" />
<path d="M1220,158l126,0" class="g9_26" />
<path d="M1220,176l0,-17" class="g9_26" />
<path d="M1346,158l125,0" class="g9_26" />
<path d="M1346,176l0,-17" class="g9_26" />
<path d="M1471,158l127,0" class="g9_26" />
<path d="M1471,176l0,-17" class="g9_26" />
<path d="M1597,176l0,-17" class="g9_26" />
<path d="M1094,177l126,0" class="g9_26" />
<path d="M1094,198l0,-20" class="g9_26" />
<path d="M1220,177l126,0" class="g9_26" />
<path d="M1220,198l0,-20" class="g9_26" />
<path d="M1346,177l125,0" class="g9_26" />
<path d="M1346,198l0,-20" class="g9_26" />
<path d="M1471,177l127,0" class="g9_26" />
<path d="M1471,198l0,-20" class="g9_26" />
<path d="M1597,198l0,-20" class="g9_26" />
<path d="M1094,199l126,0" class="g9_26" />
<path d="M1094,220l0,-20" class="g9_26" />
<path d="M1220,199l126,0" class="g9_26" />
<path d="M1220,220l0,-20" class="g9_26" />
<path d="M1346,199l125,0" class="g9_26" />
<path d="M1346,220l0,-20" class="g9_26" />
<path d="M1471,199l127,0" class="g9_26" />
<path d="M1471,220l0,-20" class="g9_26" />
<path d="M1597,220l0,-20" class="g9_26" />
<path d="M1094,221l126,0" class="g9_26" />
<path d="M1094,242l0,-21" class="g9_26" />
<path d="M1220,221l126,0" class="g9_26" />
<path d="M1220,242l0,-21" class="g9_26" />
<path d="M1346,221l125,0" class="g9_26" />
<path d="M1346,242l0,-21" class="g9_26" />
<path d="M1471,221l127,0" class="g9_26" />
<path d="M1471,242l0,-21" class="g9_26" />
<path d="M1597,242l0,-21" class="g9_26" />
<path d="M1094,243l126,0" class="g9_26" />
<path d="M1094,263l0,-19" class="g9_26" />
<path d="M1220,243l126,0" class="g9_26" />
<path d="M1220,263l0,-19" class="g9_26" />
<path d="M1346,243l125,0" class="g9_26" />
<path d="M1346,263l0,-19" class="g9_26" />
<path d="M1471,243l127,0" class="g9_26" />
<path d="M1471,263l0,-19" class="g9_26" />
<path d="M1597,263l0,-19" class="g9_26" />
<path d="M1094,264l126,0" class="g9_26" />
<path d="M1094,285l0,-20" class="g9_26" />
<path d="M1220,264l126,0" class="g9_26" />
<path d="M1220,285l0,-20" class="g9_26" />
<path d="M1346,264l125,0" class="g9_26" />
<path d="M1346,285l0,-20" class="g9_26" />
<path d="M1471,264l127,0" class="g9_26" />
<path d="M1471,285l0,-20" class="g9_26" />
<path d="M1597,285l0,-20" class="g9_26" />
<path d="M1094,285l126,0" class="g9_26" />
<path d="M1220,285l126,0" class="g9_26" />
<path d="M1346,285l125,0" class="g9_26" />
<path d="M1471,285l127,0" class="g9_26" />
<text 
transform="matrix(0.98, 0, 0, 1, 1103, 171)"
dx="0,0" 
class="s5_26"
>th</text>

<text 
transform="matrix(0.98, 0, 0, 1, 1229, 171)"
dx="0,0" 
class="s5_26"
>th</text>

<text 
transform="matrix(0.98, 0, 0, 1, 1354, 171)"
dx="0,0" 
class="s5_26"
>th</text>

<text 
transform="matrix(0.98, 0, 0, 1, 1480, 171)"
dx="0,0" 
class="s5_26"
>th</text>

<text 
x="1103" 
y="193" 
dx="0,0" 
class="s2_26"
>td</text>

<text 
x="1229" 
y="193" 
dx="0,0" 
class="s2_26"
>td</text>

<text 
x="1354" 
y="193" 
dx="0,0" 
class="s2_26"
>td</text>

<text 
x="1480" 
y="193" 
dx="0,0" 
class="s2_26"
>td</text>

<text 
x="1103" 
y="214" 
dx="0,0" 
class="s2_26"
>td</text>

<text 
x="1229" 
y="214" 
dx="0,0" 
class="s2_26"
>td</text>

<text 
x="1354" 
y="214" 
dx="0,0" 
class="s2_26"
>td</text>

<text 
x="1480" 
y="214" 
dx="0,0" 
class="s2_26"
>td</text>

<text 
x="1103" 
y="235" 
dx="0,0" 
class="s2_26"
>td</text>

<text 
x="1229" 
y="235" 
dx="0,0" 
class="s2_26"
>td</text>

<text 
x="1354" 
y="235" 
dx="0,0" 
class="s2_26"
>td</text>

<text 
x="1480" 
y="235" 
dx="0,0" 
class="s2_26"
>td</text>

<text 
x="1103" 
y="257" 
dx="0,0" 
class="s2_26"
>td</text>

<text 
x="1229" 
y="257" 
dx="0,0" 
class="s2_26"
>td</text>

<text 
x="1354" 
y="257" 
dx="0,0" 
class="s2_26"
>td</text>

<text 
x="1480" 
y="257" 
dx="0,0" 
class="s2_26"
>td</text>

<text 
x="1103" 
y="278" 
dx="0,0" 
class="s2_26"
>td</text>

<text 
x="1229" 
y="278" 
dx="0,0" 
class="s2_26"
>td</text>

<text 
x="1354" 
y="278" 
dx="0,0" 
class="s2_26"
>td</text>

<text 
x="1480" 
y="278" 
dx="0,0" 
class="s2_26"
>td</text>

<path d="M1084,167l-31,0" class="g10_26" />
<path d="M1085.1,166l0,-1.4c0,-0.2,0,-0.3,-0.2,-0.5c-0.1,-0.1,-0.2,-0.1,-0.4,-0.1l-1.4,0l0,-1.4c0,-0.2,0,-0.3,-0.2,-0.5c-0.1,-0.1,-0.3,-0.2,-0.4,-0.2l-1.4,0l0,-1.2c0,-0.2,0,-0.3,-0.2,-0.4c-0.1,-0.2,-0.3,-0.2,-0.4,-0.2l-1.9,0c-0.2,0,-0.4,0,-0.5,0.2c-0.1,0.1,-0.2,0.2,-0.2,0.4l0,1.9c0,0.2,0.1,0.3,0.2,0.5c0.1,0.1,0.3,0.2,0.5,0.2l1.2,0l0,1.3c0,0.2,0.1,0.3,0.2,0.5c0.1,0.1,0.3,0.2,0.5,0.2l1.3,0l0,1.3c0,0.2,0.1,0.3,0.2,0.5c0.1,0.1,0.3,0.2,0.5,0.2l1.3,0l0,0.8l-1.2,0c-0.2,0,-0.3,0.1,-0.5,0.2c-0.1,0.1,-0.2,0.3,-0.2,0.5l0,1.3l-1.3,0c-0.2,0,-0.3,0.1,-0.5,0.2c-0.1,0.1,-0.2,0.3,-0.2,0.5l0,1.3l-1.3,0c-0.2,0,-0.4,0.1,-0.5,0.2c-0.1,0.1,-0.2,0.3,-0.2,0.5l0,1.7c0,0.2,0.1,0.4,0.2,0.5c0.1,0.1,0.3,0.2,0.5,0.2l1.7,0c0.2,0,0.4,-0.1,0.5,-0.2c0.1,-0.1,0.2,-0.3,0.2,-0.5l0,-1.3l1.3,0c0.2,0,0.4,-0.1,0.5,-0.2c0.1,-0.1,0.2,-0.3,0.2,-0.5l0,-1.4l1.4,0c0.1,0,0.3,0,0.4,-0.1c0.1,-0.2,0.2,-0.3,0.2,-0.5l0,-1.4l1.4,0c0.1,0,0.3,0,0.4,-0.1c0.1,-0.2,0.2,-0.3,0.2,-0.5l0,-1.9c0,-0.2,-0.1,-0.3,-0.2,-0.5c-0.1,-0.1,-0.3,-0.1,-0.4,-0.1Z" class="g8_26" />
<path d="M1084,209l-31,0" class="g10_26" />
<path d="M1085.1,208.3l0,-1.3c0,-0.2,0,-0.4,-0.2,-0.5c-0.1,-0.1,-0.2,-0.2,-0.4,-0.2l-1.4,0l0,-1.3c0,-0.2,0,-0.4,-0.2,-0.5c-0.1,-0.1,-0.3,-0.2,-0.4,-0.2l-1.4,0l0,-1.2c0,-0.2,0,-0.4,-0.2,-0.5c-0.1,-0.1,-0.3,-0.2,-0.4,-0.2l-1.9,0c-0.2,0,-0.4,0.1,-0.5,0.2c-0.1,0.1,-0.2,0.3,-0.2,0.5l0,1.9c0,0.1,0.1,0.3,0.2,0.4c0.1,0.2,0.3,0.2,0.5,0.2l1.2,0l0,1.4c0,0.1,0.1,0.3,0.2,0.4c0.1,0.2,0.3,0.2,0.5,0.2l1.3,0l0,1.4c0,0.2,0.1,0.3,0.2,0.4c0.1,0.2,0.3,0.2,0.5,0.2l1.3,0l0,0.9l-1.2,0c-0.2,0,-0.3,0,-0.5,0.1c-0.1,0.2,-0.2,0.3,-0.2,0.5l0,1.4l-1.3,0c-0.2,0,-0.3,0,-0.5,0.2c-0.1,0.1,-0.2,0.2,-0.2,0.4l0,1.4l-1.3,0c-0.2,0,-0.4,0,-0.5,0.2c-0.1,0.1,-0.2,0.2,-0.2,0.4l0,1.8c0,0.2,0.1,0.3,0.2,0.5c0.1,0.1,0.3,0.1,0.5,0.1l1.7,0c0.2,0,0.4,0,0.5,-0.1c0.1,-0.2,0.2,-0.3,0.2,-0.5l0,-1.4l1.3,0c0.2,0,0.4,0,0.5,-0.1c0.1,-0.2,0.2,-0.3,0.2,-0.5l0,-1.4l1.4,0c0.1,0,0.3,-0.1,0.4,-0.2c0.1,-0.1,0.2,-0.3,0.2,-0.4l0,-1.4l1.4,0c0.1,0,0.3,-0.1,0.4,-0.2c0.1,-0.1,0.2,-0.3,0.2,-0.4l0,-1.9c0,-0.2,-0.1,-0.4,-0.2,-0.5c-0.1,-0.1,-0.3,-0.2,-0.4,-0.2Z" class="g8_26" />
<path d="M1084,188l-31,0" class="g10_26" />
<path d="M1085.1,187.1l0,-1.3c0,-0.2,0,-0.4,-0.2,-0.5c-0.1,-0.1,-0.2,-0.2,-0.4,-0.2l-1.4,0l0,-1.3c0,-0.2,0,-0.4,-0.2,-0.5c-0.1,-0.1,-0.3,-0.2,-0.4,-0.2l-1.4,0l0,-1.2c0,-0.2,0,-0.3,-0.2,-0.5c-0.1,-0.1,-0.3,-0.2,-0.4,-0.2l-1.9,0c-0.2,0,-0.4,0.1,-0.5,0.2c-0.1,0.2,-0.2,0.3,-0.2,0.5l0,1.9c0,0.2,0.1,0.3,0.2,0.4c0.1,0.2,0.3,0.2,0.5,0.2l1.2,0l0,1.4c0,0.2,0.1,0.3,0.2,0.4c0.1,0.2,0.3,0.2,0.5,0.2l1.3,0l0,1.4c0,0.2,0.1,0.3,0.2,0.5c0.1,0.1,0.3,0.1,0.5,0.1l1.3,0l0,0.9l-1.2,0c-0.2,0,-0.3,0,-0.5,0.2c-0.1,0.1,-0.2,0.2,-0.2,0.4l0,1.4l-1.3,0c-0.2,0,-0.3,0,-0.5,0.2c-0.1,0.1,-0.2,0.3,-0.2,0.4l0,1.4l-1.3,0c-0.2,0,-0.4,0,-0.5,0.2c-0.1,0.1,-0.2,0.3,-0.2,0.5l0,1.7c0,0.2,0.1,0.3,0.2,0.5c0.1,0.1,0.3,0.2,0.5,0.2l1.7,0c0.2,0,0.4,-0.1,0.5,-0.2c0.1,-0.2,0.2,-0.3,0.2,-0.5l0,-1.3l1.3,0c0.2,0,0.4,-0.1,0.5,-0.2c0.1,-0.2,0.2,-0.3,0.2,-0.5l0,-1.4l1.4,0c0.1,0,0.3,0,0.4,-0.2c0.1,-0.1,0.2,-0.2,0.2,-0.4l0,-1.4l1.4,0c0.1,0,0.3,0,0.4,-0.2c0.1,-0.1,0.2,-0.3,0.2,-0.4l0,-1.9c0,-0.2,-0.1,-0.3,-0.2,-0.5c-0.1,-0.1,-0.3,-0.2,-0.4,-0.2Z" class="g8_26" />
<path d="M1084,231l-31,0" class="g10_26" />
<path d="M1085.1,229.5l0,-1.4c0,-0.1,0,-0.3,-0.2,-0.4c-0.1,-0.1,-0.2,-0.2,-0.4,-0.2l-1.4,0l0,-1.4c0,-0.1,0,-0.3,-0.2,-0.4c-0.1,-0.2,-0.3,-0.2,-0.4,-0.2l-1.4,0l0,-1.2c0,-0.2,0,-0.4,-0.2,-0.5c-0.1,-0.1,-0.3,-0.2,-0.4,-0.2l-1.9,0c-0.2,0,-0.4,0.1,-0.5,0.2c-0.1,0.1,-0.2,0.3,-0.2,0.5l0,1.8c0,0.2,0.1,0.4,0.2,0.5c0.1,0.1,0.3,0.2,0.5,0.2l1.2,0l0,1.3c0,0.2,0.1,0.4,0.2,0.5c0.1,0.1,0.3,0.2,0.5,0.2l1.3,0l0,1.3c0,0.2,0.1,0.4,0.2,0.5c0.1,0.1,0.3,0.2,0.5,0.2l1.3,0l0,0.8l-1.2,0c-0.2,0,-0.3,0.1,-0.5,0.2c-0.1,0.2,-0.2,0.3,-0.2,0.5l0,1.3l-1.3,0c-0.2,0,-0.3,0.1,-0.5,0.2c-0.1,0.2,-0.2,0.3,-0.2,0.5l0,1.3l-1.3,0c-0.2,0,-0.4,0.1,-0.5,0.2c-0.1,0.2,-0.2,0.3,-0.2,0.5l0,1.8c0,0.1,0.1,0.3,0.2,0.4c0.1,0.2,0.3,0.2,0.5,0.2l1.7,0c0.2,0,0.4,0,0.5,-0.2c0.1,-0.1,0.2,-0.3,0.2,-0.4l0,-1.4l1.3,0c0.2,0,0.4,0,0.5,-0.2c0.1,-0.1,0.2,-0.3,0.2,-0.4l0,-1.4l1.4,0c0.1,0,0.3,-0.1,0.4,-0.2c0.1,-0.1,0.2,-0.3,0.2,-0.5l0,-1.3l1.4,0c0.1,0,0.3,-0.1,0.4,-0.2c0.1,-0.1,0.2,-0.3,0.2,-0.5l0,-1.9c0,-0.1,-0.1,-0.3,-0.2,-0.4c-0.1,-0.1,-0.3,-0.2,-0.4,-0.2Z" class="g8_26" />
<path d="M1084,252l-31,0" class="g10_26" />
<path d="M1085.1,250.7l0,-1.4c0,-0.2,0,-0.3,-0.2,-0.4c-0.1,-0.2,-0.2,-0.2,-0.4,-0.2l-1.4,0l0,-1.4c0,-0.2,0,-0.3,-0.2,-0.5c-0.1,-0.1,-0.3,-0.1,-0.4,-0.1l-1.4,0l0,-1.3c0,-0.2,0,-0.3,-0.2,-0.4c-0.1,-0.2,-0.3,-0.2,-0.4,-0.2l-1.9,0c-0.2,0,-0.4,0,-0.5,0.2c-0.1,0.1,-0.2,0.2,-0.2,0.4l0,1.9c0,0.2,0.1,0.4,0.2,0.5c0.1,0.1,0.3,0.2,0.5,0.2l1.2,0l0,1.3c0,0.2,0.1,0.4,0.2,0.5c0.1,0.1,0.3,0.2,0.5,0.2l1.3,0l0,1.3c0,0.2,0.1,0.4,0.2,0.5c0.1,0.1,0.3,0.2,0.5,0.2l1.3,0l0,0.8l-1.2,0c-0.2,0,-0.3,0.1,-0.5,0.2c-0.1,0.1,-0.2,0.3,-0.2,0.5l0,1.3l-1.3,0c-0.2,0,-0.3,0.1,-0.5,0.2c-0.1,0.1,-0.2,0.3,-0.2,0.5l0,1.3l-1.3,0c-0.2,0,-0.4,0.1,-0.5,0.2c-0.1,0.1,-0.2,0.3,-0.2,0.5l0,1.8c0,0.1,0.1,0.3,0.2,0.4c0.1,0.1,0.3,0.2,0.5,0.2l1.7,0c0.2,0,0.4,-0.1,0.5,-0.2c0.1,-0.1,0.2,-0.3,0.2,-0.4l0,-1.4l1.3,0c0.2,0,0.4,-0.1,0.5,-0.2c0.1,-0.1,0.2,-0.3,0.2,-0.4l0,-1.4l1.4,0c0.1,0,0.3,-0.1,0.4,-0.2c0.1,-0.1,0.2,-0.3,0.2,-0.5l0,-1.3l1.4,0c0.1,0,0.3,-0.1,0.4,-0.2c0.1,-0.2,0.2,-0.3,0.2,-0.5l0,-1.9c0,-0.1,-0.1,-0.3,-0.2,-0.4c-0.1,-0.2,-0.3,-0.2,-0.4,-0.2Z" class="g8_26" />
<path d="M1084,273l-31,0" class="g10_26" />
<path d="M1085.1,271.9l0,-1.4c0,-0.2,0,-0.3,-0.2,-0.5c-0.1,-0.1,-0.2,-0.1,-0.4,-0.1l-1.4,0l0,-1.4c0,-0.2,0,-0.3,-0.2,-0.5c-0.1,-0.1,-0.3,-0.2,-0.4,-0.2l-1.4,0l0,-1.2c0,-0.2,0,-0.3,-0.2,-0.4c-0.1,-0.2,-0.3,-0.2,-0.4,-0.2l-1.9,0c-0.2,0,-0.4,0,-0.5,0.2c-0.1,0.1,-0.2,0.2,-0.2,0.4l0,1.9c0,0.2,0.1,0.3,0.2,0.5c0.1,0.1,0.3,0.2,0.5,0.2l1.2,0l0,1.3c0,0.2,0.1,0.3,0.2,0.5c0.1,0.1,0.3,0.2,0.5,0.2l1.3,0l0,1.3c0,0.2,0.1,0.3,0.2,0.5c0.1,0.1,0.3,0.2,0.5,0.2l1.3,0l0,0.8l-1.2,0c-0.2,0,-0.3,0.1,-0.5,0.2c-0.1,0.1,-0.2,0.3,-0.2,0.5l0,1.3l-1.3,0c-0.2,0,-0.3,0.1,-0.5,0.2c-0.1,0.1,-0.2,0.3,-0.2,0.5l0,1.3l-1.3,0c-0.2,0,-0.4,0.1,-0.5,0.2c-0.1,0.1,-0.2,0.3,-0.2,0.5l0,1.7c0,0.2,0.1,0.4,0.2,0.5c0.1,0.1,0.3,0.2,0.5,0.2l1.7,0c0.2,0,0.4,-0.1,0.5,-0.2c0.1,-0.1,0.2,-0.3,0.2,-0.5l0,-1.3l1.3,0c0.2,0,0.4,-0.1,0.5,-0.2c0.1,-0.1,0.2,-0.3,0.2,-0.5l0,-1.4l1.4,0c0.1,0,0.3,0,0.4,-0.1c0.1,-0.2,0.2,-0.3,0.2,-0.5l0,-1.4l1.4,0c0.1,0,0.3,0,0.4,-0.1c0.1,-0.2,0.2,-0.3,0.2,-0.5l0,-1.9c0,-0.2,-0.1,-0.3,-0.2,-0.5c-0.1,-0.1,-0.3,-0.1,-0.4,-0.1Z" class="g8_26" />
<text 
x="879" 
y="353" 
dx="0,0,0,0,0,0,0,0,0,0,0,0,0,-1.8,0,0,0,0,0,0,0,0,0,0,0,0" 
class="s8_26"
>&lt;h2&gt;Upcoming Concerts&lt;/h2&gt;</text>

<text 
x="879" 
y="374" 
dx="0,0,0,0,0,0,0" 
class="s8_26"
>&lt;table&gt;</text>

<text 
x="879" 
y="396" 
dx="0,0,0,0" 
class="s8_26"
>&lt;tr&gt;</text>

<text 
x="879" 
y="417" 
dx="0,0,0,0,0,0,0,0,0,0,0,0,0,0,0,0,0,0,0,0,0,0,0,0,0,0,0,0,0,0,0,0,0,0,0,0" 
class="s8_26"
>&lt;th&gt;&lt;/th&gt;&lt;th&gt;&lt;/th&gt;&lt;th&gt;&lt;/th&gt;&lt;th&gt;&lt;/th&gt;</text>

<text 
x="879" 
y="439" 
dx="0,0,0,0,0" 
class="s8_26"
>&lt;/tr&gt;</text>

<text 
x="879" 
y="460" 
dx="0,0,0,0" 
class="s8_26"
>&lt;tr&gt;</text>

<text 
x="879" 
y="481" 
dx="0,0,0,0,0,0,0,0,0,0,0,0,0,0,0,0,0,0,0,0,0,0,0,0,0,0,0,0,0,0,0,0,0,0,0,0" 
class="s8_26"
>&lt;td&gt;&lt;/td&gt;&lt;td&gt;&lt;/td&gt;&lt;td&gt;&lt;/td&gt;&lt;td&gt;&lt;/td&gt;</text>

<text 
x="879" 
y="503" 
dx="0,0,0,0,0" 
class="s8_26"
>&lt;/tr&gt;</text>

<text 
x="879" 
y="524" 
dx="0,0,0,0" 
class="s8_26"
>&lt;tr&gt;</text>

<text 
x="879" 
y="545" 
dx="0,0,0,0,0,0,0,0,0,0,0,0,0,0,0,0,0,0,0,0,0,0,0,0,0,0,0,0,0,0,0,0,0,0,0,0" 
class="s8_26"
>&lt;td&gt;&lt;/td&gt;&lt;td&gt;&lt;/td&gt;&lt;td&gt;&lt;/td&gt;&lt;td&gt;&lt;/td&gt;</text>

<text 
x="879" 
y="567" 
dx="0,0,0,0,0" 
class="s8_26"
>&lt;/tr&gt;</text>

<text 
x="879" 
y="588" 
dx="0,0,0,0" 
class="s8_26"
>&lt;tr&gt;</text>

<text 
x="879" 
y="610" 
dx="0,0,0,0,0,0,0,0,0,0,0,0,0,0,0,0,0,0,0,0,0,0,0,0,0,0,0,0,0,0,0,0,0,0,0,0" 
class="s8_26"
>&lt;td&gt;&lt;/td&gt;&lt;td&gt;&lt;/td&gt;&lt;td&gt;&lt;/td&gt;&lt;td&gt;&lt;/td&gt;</text>

<text 
x="879" 
y="631" 
dx="0,0,0,0,0" 
class="s8_26"
>&lt;/tr&gt;</text>

<text 
x="879" 
y="652" 
dx="0,0,0,0" 
class="s8_26"
>&lt;tr&gt;</text>

<text 
x="879" 
y="674" 
dx="0,0,0,0,0,0,0,0,0,0,0,0,0,0,0,0,0,0,0,0,0,0,0,0,0,0,0,0,0,0,0,0,0,0,0,0" 
class="s8_26"
>&lt;td&gt;&lt;/td&gt;&lt;td&gt;&lt;/td&gt;&lt;td&gt;&lt;/td&gt;&lt;td&gt;&lt;/td&gt;</text>

<text 
x="879" 
y="695" 
dx="0,0,0,0,0" 
class="s8_26"
>&lt;/tr&gt;</text>

<text 
x="879" 
y="717" 
dx="0,0,0,0" 
class="s8_26"
>&lt;tr&gt;</text>

<text 
x="879" 
y="738" 
dx="0,0,0,0,0,0,0,0,0,0,0,0,0,0,0,0,0,0,0,0,0,0,0,0,0,0,0,0,0,0,0,0,0,0,0,0" 
class="s8_26"
>&lt;td&gt;&lt;/td&gt;&lt;td&gt;&lt;/td&gt;&lt;td&gt;&lt;/td&gt;&lt;td&gt;&lt;/td&gt;</text>

<text 
x="879" 
y="759" 
dx="0,0,0,0,0" 
class="s8_26"
>&lt;/tr&gt;</text>

<text 
x="879" 
y="781" 
dx="0,0,0,0,0,0,0,0" 
class="s8_26"
>&lt;/table&gt;</text>

<text 
x="975" 
y="888" 
dx="0,0,0,-0.3,0,0,0,0,-0.3,0,-0.3,0,-0.3,0,0,0,0,0,0,-0.3,0,-0.3,0,0,0,0,0,0,-0.3,0,0,-1.1,0,-0.3,0,0,0,0,-0.3,0,0,-0.3,0,0,0,0,0,-0.3,0,0,-0.3,0,0,0,0,0,0,0,-0.3,0,0,0,-0.3,0,0,0,-0.3,0,0,0,0,-0.3,-0.3,0,0,0,-0.3,0,0,0,-0.3,0,0,0,0,0,0,0" 
class="s2_26"
>If you’re creating a table, it’s best to begin by working out how many rows and columns </text>

<text 
x="975" 
y="909" 
dx="0,0,0,0,0,2.1,0,0,0,0,0,2.1,0,0,0,0,2.1,0,0,0,0,2.1,0,0,0,2.1,0,0,0,0,2.1,0,-0.3,0,0,0,0,0,0,2.1,0,0,0,2.1,0,0,0,0,0,0,0,0,0,2.1,0,0,0,0,0,0,0,0,0,2.1,0,0,0,0,0,0,2.1,0,0,0,2.1,0,0,0,2.1,0,-0.3,0,0,0,0" 
class="s2_26"
>your table will have and then creating the skeleton, otherwise tables can get pretty </text>

<text 
x="975" 
y="930" 
dx="0,0,0,0,0,0,0,0,0,0,0,1.5,0,0,0,0,1.5,0,0,-0.3,0,1.5,0,0,0,0,1.5,0,0,0,1.5,0,-0.3,0,0,0,0,1.5,0,0,0,1.5,0,0,0,0,0,0,0,0,1.5,0,0,0,0,1.5,0,0,0,1.5,0,0,0,1.5,0,0,0,0,0,0,0,1.5,0,0,0,1.5,0,0,0,0,0,0,0" 
class="s2_26"
>confusing. Make sure when you create the skeleton that all the opening and closing </text>

<text 
x="975" 
y="952" 
dx="0,0,0,0,0,-0.2,0,-0.3,0,-0.2,0,0,-0.2,0,0,0,-0.2,0,0,0,-0.3,0,0,0,-0.2,0,0,0,0,0,0,-0.2,0,0,0,0,0,0,-0.2,0,0,0,-0.2,0,0,0,-0.3,0,-0.2,0,-0.3,0,-0.2,0,0,0,0" 
class="s2_26"
>tags are in the correct place. Notice how there are four </text>

<path d="M1358.1,951.1c-0.7,0.3,-1.3,0.4,-1.9,0.4c-0.4,0,-0.7,-0.1,-0.9,-0.4c-0.2,-0.2,-0.3,-0.6,-0.3,-1.1l0,-4.4l2.6,0l0,-1l-2.6,0l0,-2.2l-1.1,0l0,2.2l-1.5,0l0,1l1.5,0l0,4.7c0,1.5,0.7,2.2,2.1,2.2c0.7,0,1.5,-0.2,2.3,-0.5l-0.2,-0.9Z" class="g11_26" />
<path d="M1367.4,947c0,-1.7,-0.8,-2.6,-2.2,-2.6c-1,0,-1.8,0.4,-2.7,1.3l0,-3.9l-1.1,0l0,10.5l1.1,0l0,-5.6c0.8,-0.9,1.6,-1.3,2.3,-1.3c0.5,0,0.8,0.1,1.1,0.4c0.2,0.4,0.3,0.9,0.3,1.6l0,4.9l1.2,0l0,-5.3Z" class="g11_26" />
<text 
x="1350" 
y="952" 
dx="0,0" 
class="s8_26"
>th</text>

<text 
x="1373" 
y="952" 
dx="0,0,0,0,0,0,0,0,0,-0.2,0,0,-0.2,0,0,0,-0.2,0,0,0,0,0,-0.2,-0.3,0,0,-0.2,0,0,0" 
class="s2_26"
>elements in the first row and </text>

<text 
x="975" 
y="973" 
dx="0,0,0,0,0,0,0,0,0,0" 
class="s2_26"
>then four </text>

<path d="M1047.6,972.5c-0.7,0.3,-1.3,0.4,-1.9,0.4c-0.4,0,-0.7,-0.1,-0.9,-0.4c-0.2,-0.3,-0.3,-0.6,-0.3,-1.1l0,-4.4l2.7,0l0,-1.1l-2.7,0l0,-2.1l-1.1,0l0,2.1l-1.5,0l0,1.1l1.5,0l0,4.7c0,1.5,0.7,2.2,2.1,2.2c0.7,0,1.5,-0.2,2.3,-0.5l-0.2,-0.9Z" class="g11_26" />
<path d="M1056.8,963.2l-1.1,0l0,3.8c-0.6,-0.8,-1.4,-1.2,-2.4,-1.2c-0.9,0,-1.6,0.3,-2.1,1.1c-0.6,0.7,-0.9,1.7,-0.9,2.8c0,1.2,0.3,2.2,0.8,3c0.5,0.8,1.2,1.2,2.1,1.2c0.5,0,1,-0.1,1.4,-0.3c0.5,-0.3,0.8,-0.6,1.1,-1l0,1.1l1.1,0l0,-10.5Zm-1.5,8.7c-0.3,0.3,-0.6,0.6,-0.9,0.7c-0.3,0.2,-0.6,0.3,-0.9,0.3c-0.6,0,-1.1,-0.3,-1.4,-0.9c-0.4,-0.6,-0.5,-1.3,-0.5,-2.2c0,-0.9,0.2,-1.6,0.5,-2.2c0.4,-0.5,0.9,-0.8,1.6,-0.8c0.7,0,1.4,0.4,2,1.3l0,3.2c0,0.1,-0.2,0.3,-0.4,0.6Z" class="g11_26" />
<text 
x="1040" 
y="973" 
dx="0,0" 
class="s8_26"
>td</text>

<text 
x="1062" 
y="973" 
dx="0,0,0,0,0,0,0,0,0,0,0,0,0,0,0,0,0,0,0,0,0,0,0,0,0,0,0,-0.3,0,0,0,0,0,0,0,0,0,0,0,0,0,0,0,0,0,-0.3,0,0,0,0,0,-0.3,0,0,0,0,0,0,0,0,0" 
class="s2_26"
>elements in the following rows. These tags are surrounded by </text>

<path d="M1492.7,972.5c-0.6,0.3,-1.3,0.4,-1.9,0.4c-0.4,0,-0.6,-0.1,-0.9,-0.4c-0.2,-0.3,-0.3,-0.6,-0.3,-1.1l0,-4.4l2.7,0l0,-1.1l-2.7,0l0,-2.1l-1.1,0l0,2.1l-1.5,0l0,1.1l1.5,0l0,4.7c0,1.5,0.7,2.2,2.1,2.2c0.7,0,1.5,-0.2,2.3,-0.5l-0.2,-0.9Z" class="g11_26" />
<path d="M1500.4,965.8c-1,0,-1.8,0.6,-2.4,1.7l0,-1.5l-1.2,0l0,7.7l1.2,0l0,-5c0,0,0.1,-0.3,0.4,-0.6c0.3,-0.4,0.6,-0.7,0.9,-0.9c0.3,-0.2,0.7,-0.3,1,-0.3c0.4,0,0.8,0.2,1.3,0.4l0.5,-1.1c-0.6,-0.3,-1.1,-0.4,-1.7,-0.4Z" class="g11_26" />
<text 
x="1485" 
y="973" 
dx="0,0" 
class="s8_26"
>tr</text>

<text 
x="1507" 
y="973" 
dx="0,0,0,0,0,0,0,0" 
class="s2_26"
>opening </text>

<text 
x="975" 
y="995" 
dx="0,0,0,0,-0.9,0,0,0,0,0,0,0,-0.9,0,0,0,0" 
class="s2_26"
>and closing tags.</text>

<text 
x="966" 
y="845" 
dx="0,-2.1,-2.1,-2.9,-1.8,0,0,-2.6,-2.1" 
class="s4_26"
>NINJA TIP</text>

<path d="M1008,251l0,4l-5,0l0,4l-4,0l0,4l-4,0l0,4l-4,0l0,-4l0,-4l0,-4l0,-4l0,-4l0,-4l0,-4l0,-4l0,-4l4,0l0,4l4,0l0,4l4,0l0,4l5,0l0,4l4,0l0,4Z" class="g8_26" />
<path d="M1327,93l0,4l-4,0l0,4l-4,0l0,4l-4,0l0,4l-4,0l0,-4l0,-4l0,-4l0,-4l0,-4l0,-4l0,-4l0,-4l0,-4l4,0l0,4l4,0l0,4l4,0l0,4l4,0l0,4l4,0l0,4Z" class="g8_26" />
<text 
x="1591" 
y="1019" 
dx="0,-1.4" 
class="s9_26"
>51</text>

<text 
x="35" 
y="1019" 
dx="0,-1.3" 
class="s9_26"
>50</text>



<!-- Any embedded fonts defined here -->
<style type="text/css" ><![CDATA[

@font-face {
	font-family: AndaleMono_1cn;
	src: url("fonts/AndaleMono_1cn.woff") format("woff");
}

@font-face {
	font-family: Helvetica-Light_1by;
	src: url("fonts/Helvetica-Light_1by.woff") format("woff");
}

@font-face {
	font-family: PixelSplitter-Bold_mq;
	src: url("fonts/PixelSplitter-Bold_mq.woff") format("woff");
}

@font-face {
	font-family: Helvetica_1dx;
	src: url("fonts/Helvetica_1dx.woff") format("woff");
}

@font-face {
	font-family: PixelSplitter-Bold_1bs;
	src: url("fonts/PixelSplitter-Bold_1bs.woff") format("woff");
}

@font-face {
	font-family: Helvetica-Bold_1bu;
	src: url("fonts/Helvetica-Bold_1bu.woff") format("woff");
}

@font-face {
	font-family: Wingdings-Regular_1c4;
	src: url("fonts/Wingdings-Regular_1c4.woff") format("woff");
}

]]></style>

</svg>
