<?xml version="1.0" encoding="UTF-8" standalone="no"?>
<!DOCTYPE svg PUBLIC "-//W3C//DTD SVG 1.1//EN"
"http://www.w3.org/Graphics/SVG/1.1/DTD/svg11.dtd">


<!-- Page 30 -->
<svg x="0" y="0" width="1645" height="1061" viewBox="0 0 1645 1061" version="1.1" xmlns="http://www.w3.org/2000/svg" xmlns:xlink="http://www.w3.org/1999/xlink"
style="display: block;margin-left: auto;margin-right: auto;">
<defs>

<style type="text/css"><![CDATA[

.g6_30{
fill: #A6C7E9;
}
.g12_30{
fill: none;
stroke: #11151D;
stroke-width: 1;
stroke-linecap: butt;
stroke-linejoin: miter;
stroke-miterlimit: 4;
}
.g5_30{
fill: none;
stroke: #F37A6D;
stroke-width: 5;
stroke-linecap: butt;
stroke-linejoin: miter;
stroke-miterlimit: 4;
}
.g9_30{
fill: none;
stroke: #FFD400;
stroke-width: 5;
stroke-linecap: butt;
stroke-linejoin: miter;
stroke-miterlimit: 4;
}
.g8_30{
fill: #FED4A9;
}
.g11_30{
fill: none;
stroke: #11151D;
stroke-width: 1;
stroke-linecap: butt;
stroke-linejoin: miter;
stroke-miterlimit: 3;
}
.g7_30{
fill: #F9AD60;
}
.g1_30{
fill: #B897C1;
}
.g13_30{
fill: #11151D;
}
.g10_30{
fill: #F37A6D;
}
.g2_30{
fill: #FAAD60;
}
.g3_30{
fill: #FFFFFF;
}
.g4_30{
fill: #FFD400;
}

.s6_30{
font-size: 15.28px;
font-family: Helvetica-Light_q9;
fill: #FFFFFF;
}
.s4_30{
font-size: 15.28px;
font-family: Helvetica-Bold_1bu;
fill: #11151D;
}
.s5_30{
font-size: 15.28px;
font-family: Helvetica-Light_q5;
fill: #FFFFFF;
}
.s11_30{
font-size: 72.75px;
font-family: PixelSplitter-Bold_qn;
fill: #FFFFFF;
}
.s7_30{
font-size: 15.28px;
font-family: Helvetica-Light_qd;
fill: #FFFFFF;
}
.s8_30{
font-size: 15.28px;
font-family: Helvetica-Light_qh;
fill: #FFFFFF;
}
.s13_30{
font-size: 12.22px;
font-family: PixelSplitter-Bold_1bs;
fill: #11151D;
}
.s9_30{
font-size: 21.39px;
font-family: PixelSplitter-Bold_1bs;
fill: #11151D;
}
.s10_30{
font-size: 18.33px;
font-family: Wingdings-Regular_1c4;
fill: #11151D;
}
.s1_30{
font-size: 18.33px;
font-family: PixelSplitter-Bold_1bs;
fill: #11151D;
}
.s12_30{
font-size: 15.28px;
font-family: Helvetica-Light_qt;
fill: #FFFFFF;
}
.s2_30{
font-size: 15.28px;
font-family: Helvetica-Light_1by;
fill: #11151D;
}
.s3_30{
font-size: 15.28px;
font-family: AndaleMono_1cn;
fill: #11151D;
}

]]></style>

</defs>
<path d="M0,0
L0,1061
L1645,1061
L1645,0 Z " 
fill="#FFFFFF" stroke="none" />
<image x="-33" y="-32" width="1713" height="1115" xlink:href="30/img/1.png" />
<image x="-13" y="-11" width="1674" height="1073" opacity="0.5" xlink:href="30/img/2.png" />
<path d="M1159,51l0,5l-4,0l0,90l4,0l0,5l440,0l0,-5l4,0l0,-90l-4,0l0,-5Z" class="g1_30" />
<path d="M42,200l0,164l4,0l0,4l343,0l0,-4l5,0l0,-164Z" class="g2_30" />
<path d="M427,200l0,164l4,0l0,4l343,0l0,-4l4,0l0,-164Z" class="g2_30" />
<path d="M581,618l0,4l-5,0l0,99l5,0l0,4l192,0l0,-4l4,0l0,-99l-4,0l0,-4Z" class="g2_30" />
<path d="M132,793l0,34l642,0l0,-4l4,0l0,-26l-4,0l0,-4Z" class="g3_30" />
<path d="M132,836l0,34l642,0l0,-4l4,0l0,-26l-4,0l0,-4Z" class="g3_30" />
<path d="M132,879l0,34l642,0l0,-4l4,0l0,-26l-4,0l0,-4Z" class="g3_30" />
<path d="M132,922l0,34l642,0l0,-4l4,0l0,-26l-4,0l0,-4Z" class="g3_30" />
<path d="M46,476l0,5l-4,0l0,88l4,0l0,4l92,0l0,-97Z" class="g4_30" />
<image x="40" y="481" width="88" height="89" xlink:href="30/img/3.png" />
<path d="M870,109l0,4l-4,0l0,309l4,0l0,4l262,0l0,-4l5,0l0,-309l-5,0l0,-4Z" class="g2_30" />
<path d="M1156,212l0,121l2,0l2,0l0,2l0,2l245,0l0,-2l0,-2l2,0l2,0l0,-117l-2,0l-2,0l0,-2l0,-2Z" class="g3_30" />
<path d="M1156.5,212.5l0,121l2,0l2,0l0,2l0,2l245,0l0,-2l0,-2l2,0l2,0l0,-117l-2,0l-2,0l0,-2l0,-2l-249,0Z" class="g5_30" />
<image x="1305" y="150" width="292" height="913" xlink:href="30/img/4.png" />
<path d="M871,674l0,4l-5,0l0,325l5,0l0,5l437,0l0,-5l4,0l0,-325l-4,0l0,-4Z" class="g6_30" />
<path d="M925,710l0,4l-5,0l0,253l5,0l0,4l329,0l0,-4l4,0l0,-253l-4,0l0,-4Z" class="g7_30" />
<path d="M980,753l0,4l-5,0l0,167l5,0l0,5l219,0l0,-5l4,0l0,-167l-4,0l0,-4Z" class="g8_30" />
<path d="M1043,802l0,4l-4,0l0,69l4,0l0,4l92,0l0,-4l4,0l0,-69l-4,0l0,-4Z" class="g3_30" />
<path d="M141,517l0,54l631,0l0,-2l0,-3l3,0l2,0l0,-44l-2,0l-3,0l0,-3l0,-2Z" class="g3_30" />
<path d="M141.5,517.5l0,54l631,0l0,-2l0,-3l3,0l2,0l0,-44l-2,0l-3,0l0,-3l0,-2l-631,0Z" class="g9_30" />
<path d="M138,476l0,44l152,0l0,-39l-4,0l0,-5Z" class="g4_30" />
<path d="M1158,169l0,4l-4,0l0,41l245,0l0,-41l-4,0l0,-4Z" class="g10_30" />
<text 
x="56" 
y="75" 
dx="0,0" 
class="s1_30"
>3.</text>

<text 
transform="matrix(0.98, 0, 0, 1, 82, 75)"
dx="0,0,0,0,0,0,0.4,0,0,0,0,0,0,0.4,0,0,0,0,0.4,0,0,0,0.4,0,0,0,0,0,0,0,0,0.4,-0.3,0,0,-0.3,0,0,0,0.4,0,0,0,0.4,0,0,0,0.4,0,0,0,0,0.4,0,0,0.4,0,0,0,0,0.4,0,-0.3,0,0,0,0,-1.4,0,0.4,0,0,0,0,0,0,0.4,0,0,0,0,0.4,0,0,0,0.4,0,0,0,0,0,0,0,0.4,0,0,0,0" 
class="s2_30"
>After you’ve made the changes, refresh the web page in your browser. Notice that the changed menu </text>

<text 
transform="matrix(0.98, 0, 0, 1, 56, 96)"
dx="0,0,0,0,0.3,0,1.5,0,0,1.5,0,0,1.5,0,0,0,0,0,0,1.5,0,0,0,0,0,0,0,0,0,0,1.5,0,0,0,0,0,0,1.5,0,0,0" 
class="s2_30"
>entry is no longer clickable. Adding the </text>

<path d="M341.1,95.6c-0.7,0.2,-1.4,0.4,-2,0.4c-0.8,0,-1.5,-0.3,-2,-0.9c-0.5,-0.6,-0.7,-1.3,-0.7,-2.2c0,-0.9,0.2,-1.7,0.7,-2.2c0.5,-0.6,1.1,-0.9,2,-0.9c0.5,0,1.2,0.1,1.9,0.4l0.3,-1c-0.7,-0.2,-1.5,-0.4,-2.2,-0.4c-1.2,0,-2.1,0.4,-2.9,1.1c-0.7,0.8,-1,1.8,-1,3c0,1.2,0.3,2.2,1,3c0.7,0.7,1.7,1.1,2.9,1.1c0.8,0,1.5,-0.2,2.2,-0.5l-0.2,-0.9Z" class="g11_30" />
<path d="M349.5,95.5l-2,0l0,-9l-3,0l0,1l2,0l0,9l3,0l0,-1Z" class="g11_30" />
<path d="M359.3,95l0,-3.4c0,-1.8,-0.8,-2.8,-2.6,-2.8c-0.9,0,-1.8,0.3,-2.9,0.8l0.3,0.9c0.3,-0.2,0.7,-0.4,1.2,-0.5c0.4,-0.1,0.8,-0.2,1.1,-0.2c1.2,0,1.8,0.7,1.8,2l0,0.4l-1.3,0.1c-0.6,0,-1.1,0.1,-1.5,0.2c-0.4,0.2,-0.8,0.3,-1.1,0.5c-0.2,0.2,-0.5,0.5,-0.6,0.8c-0.2,0.3,-0.2,0.6,-0.2,1c0,0.6,0.2,1.2,0.6,1.6c0.4,0.4,0.9,0.6,1.5,0.6c1.1,0,2,-0.5,2.7,-1.5c0,0.5,0,1,0.1,1.3l1.1,0c-0.1,-0.5,-0.2,-1.1,-0.2,-1.8Zm-2.2,0.5c-0.4,0.2,-0.8,0.4,-1.2,0.4c-0.3,0,-0.6,-0.1,-0.9,-0.4c-0.2,-0.2,-0.3,-0.5,-0.3,-0.8c0,-0.4,0.1,-0.7,0.4,-0.9c0.3,-0.2,0.6,-0.4,1,-0.5c0.4,-0.1,1.1,-0.1,2.1,-0.2l0,1.4c-0.3,0.4,-0.7,0.7,-1.1,1Z" class="g11_30" />
<path d="M367.8,89.1c-0.8,-0.2,-1.4,-0.3,-2.1,-0.3c-0.9,0,-1.7,0.2,-2.2,0.6c-0.6,0.4,-0.9,0.9,-0.9,1.6c0,0.3,0.1,0.6,0.2,0.8c0.1,0.3,0.3,0.5,0.5,0.7c0.3,0.2,0.5,0.3,0.8,0.4c0.3,0.1,0.7,0.2,1.3,0.4c0.7,0.2,1.2,0.5,1.4,0.7c0.2,0.2,0.3,0.4,0.3,0.7c0,0.4,-0.2,0.7,-0.6,0.9c-0.4,0.3,-0.9,0.4,-1.6,0.4c-0.7,0,-1.4,-0.2,-2,-0.5l-0.2,1c0.6,0.3,1.4,0.5,2.3,0.5c0.9,0,1.7,-0.2,2.3,-0.7c0.6,-0.4,0.9,-1,0.9,-1.7c0,-0.4,0,-0.7,-0.2,-1c-0.2,-0.3,-0.4,-0.5,-0.7,-0.7c-0.3,-0.3,-0.7,-0.4,-1.2,-0.6L365,92c-0.5,-0.1,-0.9,-0.3,-1,-0.5c-0.2,-0.1,-0.3,-0.3,-0.3,-0.5c0,-0.4,0.2,-0.7,0.6,-0.9c0.3,-0.2,0.8,-0.3,1.4,-0.3c0.6,0,1.2,0.1,1.8,0.3l0.3,-1Z" class="g11_30" />
<path d="M376.8,89.1c-0.7,-0.2,-1.4,-0.3,-2,-0.3c-1,0,-1.8,0.2,-2.3,0.6c-0.6,0.4,-0.9,0.9,-0.9,1.6c0,0.3,0.1,0.6,0.2,0.8c0.1,0.3,0.3,0.5,0.5,0.7c0.3,0.2,0.5,0.3,0.8,0.4c0.3,0.1,0.7,0.2,1.3,0.4c0.7,0.2,1.2,0.5,1.4,0.7c0.2,0.2,0.3,0.4,0.3,0.7c0,0.4,-0.2,0.7,-0.6,0.9C375.1,95.9,374.6,96,374,96c-0.8,0,-1.5,-0.2,-2.1,-0.5l-0.2,1c0.6,0.3,1.4,0.5,2.3,0.5c0.9,0,1.7,-0.2,2.3,-0.7c0.6,-0.4,0.9,-1,0.9,-1.7c0,-0.4,0,-0.7,-0.2,-1c-0.2,-0.3,-0.4,-0.5,-0.7,-0.7c-0.3,-0.3,-0.7,-0.4,-1.2,-0.6L374,92c-0.5,-0.1,-0.9,-0.3,-1,-0.5c-0.2,-0.1,-0.3,-0.3,-0.3,-0.5c0,-0.4,0.2,-0.7,0.6,-0.9c0.3,-0.2,0.8,-0.3,1.4,-0.3c0.6,0,1.2,0.1,1.8,0.3l0.3,-1Z" class="g11_30" />
<text 
transform="matrix(0.98, 0, 0, 1, 333, 96)"
dx="0,0,0,0,0" 
class="s3_30"
>class</text>

<text 
transform="matrix(0.98, 0, 0, 1, 384, 96)"
dx="0,0,0,0,0,0,0,0,0,0,1.5,0,0,0,0,-0.3,0,1.5,0,0,0,0,1.5,0,0,0,0,0,0,0,0,1.5,0,0,1.5,0,0,0,1.5,0,0,0,0,1.5,-1.4,0.3,0,1.5,-0.3,0,0,-0.3,0,0,0,0,0,0" 
class="s2_30"
>attribute hasn’t done anything on its own. Try refreshing </text>

<text 
transform="matrix(0.98, 0, 0, 1, 56, 118)"
dx="0,0,0,0,2.1,0,0,0,0,2.1,0,0,0,2.1,0,0,0,0,0,2.1,0,0,0,0,2.1,0,0,0,2.1,0,0,0,0,0,2.1,0,0,0,2.1,0,0,0,0,0,0,2.1,0,0,0" 
class="s2_30"
>the menu and it'll look the same. But adding the </text>

<path d="M407.8,117c-0.7,0.2,-1.3,0.4,-2,0.4c-0.8,0,-1.5,-0.3,-2,-0.9c-0.5,-0.6,-0.7,-1.3,-0.7,-2.2c0,-1,0.2,-1.7,0.7,-2.3c0.5,-0.5,1.2,-0.8,2,-0.8c0.6,0,1.2,0.1,1.9,0.4l0.3,-1c-0.7,-0.3,-1.4,-0.4,-2.2,-0.4c-1.2,0,-2.1,0.4,-2.9,1.1c-0.7,0.8,-1,1.8,-1,3c0,1.2,0.3,2.2,1,3c0.8,0.7,1.7,1.1,2.9,1.1c0.8,0,1.5,-0.2,2.2,-0.5L407.8,117Z" class="g11_30" />
<path d="M416.5,117.5l-2,0l0,-10l-3,0l0,1l2,0l0,10l3,0l0,-1Z" class="g11_30" />
<path d="M426.1,116.4l0,-3.4c0,-1.9,-0.9,-2.8,-2.7,-2.8c-0.9,0,-1.8,0.3,-2.9,0.8l0.3,0.9c0.4,-0.2,0.7,-0.4,1.2,-0.5c0.4,-0.1,0.8,-0.2,1.1,-0.2c1.2,0,1.8,0.7,1.8,2l0,0.4l-1.3,0.1c-0.6,0,-1,0.1,-1.5,0.2c-0.4,0.2,-0.7,0.3,-1,0.5c-0.3,0.2,-0.6,0.5,-0.7,0.8c-0.2,0.2,-0.2,0.6,-0.2,1c0,0.6,0.2,1.1,0.6,1.6c0.4,0.4,0.9,0.6,1.5,0.6c1.1,0,2,-0.5,2.7,-1.5c0,0.5,0,1,0.1,1.3l1.1,0c-0.1,-0.6,-0.1,-1.2,-0.1,-1.8Zm-2.2,0.5c-0.4,0.2,-0.9,0.4,-1.3,0.4c-0.3,0,-0.6,-0.2,-0.9,-0.4c-0.2,-0.2,-0.3,-0.5,-0.3,-0.8c0,-0.4,0.1,-0.7,0.4,-0.9c0.3,-0.2,0.6,-0.4,1,-0.5c0.4,-0.1,1.1,-0.2,2.1,-0.2l0,1.4c-0.3,0.4,-0.6,0.7,-1,1Z" class="g11_30" />
<path d="M434.5,110.5c-0.7,-0.2,-1.4,-0.3,-2,-0.3c-1,0,-1.8,0.2,-2.3,0.6c-0.6,0.4,-0.9,0.9,-0.9,1.6c0,0.3,0.1,0.6,0.2,0.8c0.1,0.3,0.3,0.5,0.5,0.7c0.3,0.2,0.5,0.3,0.8,0.4c0.3,0.1,0.7,0.2,1.3,0.4c0.8,0.2,1.2,0.4,1.4,0.7c0.2,0.2,0.3,0.4,0.3,0.7c0,0.4,-0.2,0.7,-0.6,0.9c-0.4,0.3,-0.9,0.4,-1.5,0.4c-0.8,0,-1.5,-0.2,-2.1,-0.5l-0.2,1c0.6,0.3,1.4,0.5,2.3,0.5c1,0,1.7,-0.2,2.3,-0.7c0.6,-0.4,1,-1,1,-1.7c0,-0.4,-0.1,-0.7,-0.3,-1c-0.1,-0.3,-0.4,-0.6,-0.7,-0.8c-0.3,-0.2,-0.7,-0.3,-1.2,-0.5l-1.1,-0.3c-0.5,-0.1,-0.9,-0.3,-1,-0.5c-0.2,-0.1,-0.3,-0.3,-0.3,-0.6c0,-0.3,0.2,-0.6,0.6,-0.8c0.3,-0.2,0.8,-0.3,1.4,-0.3c0.6,0,1.2,0.1,1.9,0.3l0.2,-1Z" class="g11_30" />
<path d="M443.5,110.5c-0.7,-0.2,-1.4,-0.3,-2,-0.3c-1,0,-1.7,0.2,-2.3,0.6c-0.6,0.4,-0.9,0.9,-0.9,1.6c0,0.3,0.1,0.6,0.2,0.8c0.1,0.3,0.3,0.5,0.5,0.7c0.3,0.2,0.5,0.3,0.8,0.4c0.3,0.1,0.7,0.2,1.3,0.4c0.8,0.2,1.2,0.4,1.4,0.7c0.2,0.2,0.3,0.4,0.3,0.7c0,0.4,-0.2,0.7,-0.6,0.9c-0.4,0.3,-0.9,0.4,-1.5,0.4c-0.8,0,-1.4,-0.2,-2.1,-0.5l-0.2,1c0.6,0.3,1.4,0.5,2.3,0.5c1,0,1.7,-0.2,2.3,-0.7c0.7,-0.4,1,-1,1,-1.7c0,-0.4,-0.1,-0.7,-0.3,-1c-0.1,-0.3,-0.4,-0.6,-0.7,-0.8c-0.3,-0.2,-0.7,-0.3,-1.2,-0.5l-1.1,-0.3c-0.5,-0.1,-0.8,-0.3,-1,-0.5c-0.2,-0.1,-0.3,-0.3,-0.3,-0.6c0,-0.3,0.2,-0.6,0.6,-0.8c0.3,-0.2,0.8,-0.3,1.5,-0.3c0.5,0,1.1,0.1,1.8,0.3l0.2,-1Z" class="g11_30" />
<text 
transform="matrix(0.98, 0, 0, 1, 400, 118)"
dx="0,0,0,0,0" 
class="s3_30"
>class</text>

<text 
transform="matrix(0.98, 0, 0, 1, 451, 118)"
dx="0,0,0,0,0,0,0,0,0,0,2.1,0,0,0,0,0,0,2.1,0,0,0,2.1,0,0,2.1,0,0,0,0,2.1,0,0,0,2.1,0,0,0,2.1,0,0,0,0,2.1,0,0,2.1,0,0,0" 
class="s2_30"
>attribute allows you to pick out the link in the </text>

<path d="M64.4,134.1c0,-1.7,-0.5,-2.5,-1.4,-2.5c-0.3,0,-0.6,0.1,-0.9,0.4c-0.3,0.2,-0.6,0.5,-0.8,1c-0.1,-0.5,-0.2,-0.8,-0.5,-1c-0.2,-0.3,-0.5,-0.4,-0.8,-0.4c-0.3,0,-0.6,0.1,-0.9,0.4c-0.3,0.2,-0.5,0.5,-0.8,1l0,-1.2l-1.1,0l0,7.8l1.2,0l0,-5.7c0,0,0.1,-0.2,0.4,-0.7c0.3,-0.4,0.5,-0.6,0.8,-0.6c0.4,0,0.6,0.6,0.6,1.9l0,5.1l1.2,0l0,-5.7c0,0,0.1,-0.2,0.4,-0.7c0.3,-0.4,0.5,-0.6,0.7,-0.6c0.5,0,0.7,0.6,0.7,1.9l0,5.1l1.2,0l0,-5.5Z" class="g11_30" />
<path d="M71.9,131.8L69.7,138l-2.2,-6.2l-1.2,0l2.9,7.7c-0.3,0.8,-0.6,1.3,-0.8,1.6c-0.3,0.4,-0.6,0.5,-1.1,0.5c-0.2,0,-0.6,0,-0.9,-0.2l-0.2,1c0.4,0.1,0.9,0.2,1.4,0.2c0.5,0,1,-0.2,1.4,-0.6c0.4,-0.5,0.8,-1.3,1.2,-2.4l2.9,-7.8l-1.2,0Z" class="g11_30" />
<path d="M80.5,134.5l-4,0l0,1l4,0l0,-1Z" class="g11_30" />
<path d="M89.1,128.8c-0.8,0,-1.4,0.2,-1.7,0.6c-0.4,0.4,-0.5,1.1,-0.5,2.1l0,0.3l-1.9,0l0,1l1.9,0l0,6.8l1.1,0l0,-6.8l2.6,0l0,-1l-2.6,0l0,-0.2c0,-0.7,0.1,-1.1,0.2,-1.4c0.2,-0.2,0.5,-0.3,0.9,-0.3c0.4,0,0.9,0,1.5,0.2l0.3,-0.9c-0.7,-0.3,-1.3,-0.4,-1.8,-0.4Z" class="g11_30" />
<path d="M96.8,129.1c-0.2,0.1,-0.2,0.3,-0.2,0.5c0,0.3,0,0.4,0.2,0.6c0.1,0.2,0.3,0.2,0.5,0.2c0.2,0,0.4,0,0.6,-0.2c0.1,-0.1,0.2,-0.3,0.2,-0.6c0,-0.2,-0.1,-0.4,-0.2,-0.5c-0.2,-0.2,-0.4,-0.3,-0.6,-0.3c-0.2,0,-0.4,0.1,-0.5,0.3Zm1.1,2.7l-3.4,0l0,1l2.2,0l0,6.8l1.2,0l0,-7.8Z" class="g11_30" />
<path d="M107.2,131.6c-0.9,0,-1.7,0.6,-2.3,1.8l0,-1.6l-1.2,0l0,7.8l1.2,0l0,-5.1c0,0,0.1,-0.2,0.4,-0.6c0.2,-0.4,0.5,-0.6,0.9,-0.8c0.3,-0.2,0.6,-0.3,0.9,-0.3c0.4,0,0.8,0.1,1.3,0.3l0.5,-1.1c-0.5,-0.3,-1.1,-0.4,-1.7,-0.4Z" class="g11_30" />
<path d="M117.3,131.9c-0.8,-0.2,-1.5,-0.3,-2.1,-0.3c-0.9,0,-1.7,0.2,-2.3,0.6c-0.6,0.4,-0.9,0.9,-0.9,1.6c0,0.3,0.1,0.6,0.2,0.8c0.2,0.3,0.3,0.5,0.6,0.7c0.2,0.1,0.5,0.3,0.8,0.4c0.2,0.1,0.7,0.2,1.3,0.4c0.7,0.2,1.2,0.4,1.4,0.6c0.2,0.3,0.3,0.5,0.3,0.8c0,0.4,-0.2,0.7,-0.6,0.9c-0.4,0.3,-1,0.4,-1.6,0.4c-0.7,0,-1.4,-0.2,-2.1,-0.5l-0.2,1c0.6,0.3,1.4,0.5,2.3,0.5c1,0,1.8,-0.3,2.4,-0.7c0.6,-0.4,0.9,-1,0.9,-1.7c0,-0.4,-0.1,-0.8,-0.2,-1c-0.2,-0.3,-0.4,-0.6,-0.8,-0.8c-0.3,-0.2,-0.7,-0.3,-1.2,-0.5l-1.1,-0.3c-0.5,-0.2,-0.8,-0.3,-1,-0.5c-0.1,-0.1,-0.2,-0.3,-0.2,-0.6c0,-0.3,0.2,-0.6,0.5,-0.8c0.4,-0.2,0.9,-0.3,1.5,-0.3c0.6,0,1.2,0.1,1.8,0.3l0.3,-1Z" class="g11_30" />
<path d="M126.7,138.3c-0.6,0.3,-1.2,0.4,-1.9,0.4c-0.3,0,-0.6,-0.1,-0.8,-0.4c-0.2,-0.2,-0.3,-0.6,-0.3,-1.1l0,-4.4l2.6,0l0,-1l-2.6,0l0,-2.1l-1.1,0l0,2.1l-1.5,0l0,1l1.5,0l0,4.7c0,1.5,0.6,2.2,2,2.2c0.8,0,1.5,-0.1,2.3,-0.5l-0.2,-0.9Z" class="g11_30" />
<path d="M134.5,134.5l-4,0l0,1l4,0l0,-1Z" class="g11_30" />
<path d="M144.3,131.9c-0.8,-0.2,-1.5,-0.3,-2.1,-0.3c-0.9,0,-1.7,0.2,-2.3,0.6c-0.5,0.4,-0.8,0.9,-0.8,1.6c0,0.3,0,0.6,0.2,0.8c0.1,0.3,0.3,0.5,0.5,0.7c0.2,0.1,0.5,0.3,0.8,0.4c0.3,0.1,0.7,0.2,1.3,0.4c0.7,0.2,1.2,0.4,1.4,0.6c0.2,0.3,0.3,0.5,0.3,0.8c0,0.4,-0.2,0.7,-0.6,0.9c-0.4,0.3,-0.9,0.4,-1.6,0.4c-0.7,0,-1.4,-0.2,-2,-0.5l-0.3,1c0.7,0.3,1.4,0.5,2.4,0.5c0.9,0,1.7,-0.3,2.3,-0.7c0.6,-0.4,0.9,-1,0.9,-1.7c0,-0.4,-0.1,-0.8,-0.2,-1c-0.2,-0.3,-0.4,-0.6,-0.7,-0.8c-0.4,-0.2,-0.8,-0.3,-1.3,-0.5l-1.1,-0.3c-0.5,-0.2,-0.8,-0.3,-1,-0.5c-0.1,-0.1,-0.2,-0.3,-0.2,-0.6c0,-0.3,0.2,-0.6,0.5,-0.8c0.4,-0.2,0.9,-0.3,1.5,-0.3c0.6,0,1.2,0.1,1.8,0.3l0.3,-1Z" class="g11_30" />
<path d="M153.7,138.3c-0.6,0.3,-1.2,0.4,-1.9,0.4c-0.3,0,-0.6,-0.1,-0.8,-0.4c-0.2,-0.2,-0.3,-0.6,-0.3,-1.1l0,-4.4l2.6,0l0,-1l-2.6,0l0,-2.1l-1.1,0l0,2.1l-1.5,0l0,1l1.5,0l0,4.7c0,1.5,0.7,2.2,2,2.2c0.8,0,1.5,-0.1,2.3,-0.5l-0.2,-0.9Z" class="g11_30" />
<path d="M161.9,131.8l-2.1,6.2l-2.2,-6.2l-1.2,0l2.8,7.7c-0.2,0.8,-0.5,1.3,-0.8,1.6c-0.2,0.4,-0.6,0.5,-1,0.5c-0.3,0,-0.6,0,-1,-0.2l-0.2,1c0.5,0.1,1,0.2,1.4,0.2c0.5,0,1,-0.2,1.4,-0.6c0.4,-0.5,0.9,-1.3,1.3,-2.4l2.9,-7.8l-1.3,0Z" class="g11_30" />
<path d="M171.5,138.5l-2,0l0,-9l-3,0l0,1l2,0l0,9l3,0l0,-1Z" class="g11_30" />
<path d="M181.1,135.3c0,-1.1,-0.3,-2,-0.9,-2.7c-0.6,-0.7,-1.3,-1,-2.2,-1c-1,0,-1.8,0.4,-2.4,1.1c-0.7,0.7,-1,1.7,-1,2.9c0,1.3,0.4,2.3,1.1,3c0.7,0.8,1.6,1.2,2.7,1.2c0.9,0,1.7,-0.2,2.4,-0.5l-0.2,-0.9c-0.8,0.2,-1.5,0.3,-2.2,0.3c-0.7,0,-1.3,-0.2,-1.8,-0.8c-0.5,-0.6,-0.8,-1.3,-0.8,-2.2l5.3,0l0,-0.4Zm-5.2,-0.5c0,-0.7,0.3,-1.2,0.7,-1.6c0.3,-0.4,0.8,-0.6,1.4,-0.6c0.5,0,0.9,0.2,1.3,0.6c0.3,0.4,0.5,1,0.5,1.6l-3.9,0Z" class="g11_30" />
<path d="M189.3,131.9c-0.7,-0.2,-1.4,-0.3,-2,-0.3c-1,0,-1.8,0.2,-2.3,0.6c-0.6,0.4,-0.9,0.9,-0.9,1.6c0,0.3,0.1,0.6,0.2,0.8c0.1,0.3,0.3,0.5,0.5,0.7c0.3,0.1,0.5,0.3,0.8,0.4c0.3,0.1,0.7,0.2,1.3,0.4c0.7,0.2,1.2,0.4,1.4,0.6c0.2,0.3,0.3,0.5,0.3,0.8c0,0.4,-0.2,0.7,-0.6,0.9c-0.4,0.3,-0.9,0.4,-1.5,0.4c-0.8,0,-1.5,-0.2,-2.1,-0.5l-0.2,1c0.6,0.3,1.4,0.5,2.3,0.5c0.9,0,1.7,-0.3,2.3,-0.7c0.6,-0.4,0.9,-1,0.9,-1.7c0,-0.4,0,-0.8,-0.2,-1c-0.2,-0.3,-0.4,-0.6,-0.7,-0.8c-0.3,-0.2,-0.7,-0.3,-1.2,-0.5l-1.1,-0.3c-0.5,-0.2,-0.9,-0.3,-1,-0.5c-0.2,-0.1,-0.3,-0.3,-0.3,-0.6c0,-0.3,0.2,-0.6,0.6,-0.8c0.3,-0.2,0.8,-0.3,1.4,-0.3c0.6,0,1.2,0.1,1.8,0.3l0.3,-1Z" class="g11_30" />
<path d="M198.9,134.2c0,-1.7,-0.8,-2.6,-2.2,-2.6c-0.9,0,-1.8,0.4,-2.6,1.3l0,-3.9l-1.1,0l0,10.6l1.1,0l0,-5.7c0.8,-0.9,1.6,-1.3,2.3,-1.3c0.4,0,0.8,0.2,1,0.5c0.2,0.3,0.3,0.8,0.3,1.5l0,5l1.2,0l0,-5.4Z" class="g11_30" />
<path d="M208.1,135.3c0,-1.1,-0.3,-2,-0.9,-2.7c-0.6,-0.7,-1.3,-1,-2.2,-1c-1,0,-1.8,0.4,-2.4,1.1c-0.6,0.7,-1,1.7,-1,2.9c0,1.3,0.4,2.3,1.1,3c0.7,0.8,1.6,1.2,2.7,1.2c0.9,0,1.7,-0.2,2.4,-0.5l-0.2,-0.9c-0.7,0.2,-1.5,0.3,-2.2,0.3c-0.7,0,-1.3,-0.2,-1.8,-0.8c-0.5,-0.6,-0.8,-1.3,-0.8,-2.2l5.3,0l0,-0.4Zm-5.2,-0.5c0.1,-0.7,0.3,-1.2,0.7,-1.6c0.4,-0.4,0.8,-0.6,1.4,-0.6c0.5,0,0.9,0.2,1.3,0.6c0.4,0.4,0.5,1,0.5,1.6l-3.9,0Z" class="g11_30" />
<path d="M217.1,135.3c0,-1.1,-0.3,-2,-0.9,-2.7c-0.6,-0.7,-1.3,-1,-2.2,-1c-1,0,-1.8,0.4,-2.4,1.1c-0.6,0.7,-0.9,1.7,-0.9,2.9c0,1.3,0.3,2.3,1,3c0.7,0.8,1.6,1.2,2.7,1.2c0.9,0,1.7,-0.2,2.4,-0.5l-0.2,-0.9c-0.7,0.2,-1.5,0.3,-2.2,0.3c-0.7,0,-1.3,-0.2,-1.8,-0.8c-0.5,-0.6,-0.7,-1.3,-0.7,-2.2l5.2,0l0,-0.4Zm-5.2,-0.5c0.1,-0.7,0.3,-1.2,0.7,-1.6c0.4,-0.4,0.9,-0.6,1.4,-0.6c0.5,0,0.9,0.2,1.3,0.6c0.4,0.4,0.5,1,0.5,1.6l-3.9,0Z" class="g11_30" />
<path d="M225.7,138.3c-0.6,0.3,-1.2,0.4,-1.8,0.4c-0.4,0,-0.6,-0.1,-0.8,-0.4c-0.2,-0.2,-0.3,-0.6,-0.3,-1.1l0,-4.4l2.5,0l0,-1l-2.5,0l0,-2.1l-1.2,0l0,2.1l-1.4,0l0,1l1.4,0l0,4.7c0,1.5,0.7,2.2,2.1,2.2c0.7,0,1.5,-0.1,2.2,-0.5l-0.2,-0.9Z" class="g11_30" />
<path d="M231.2,138.1c-0.1,0.2,-0.2,0.4,-0.2,0.7c0,0.2,0.1,0.5,0.2,0.7c0.2,0.2,0.4,0.3,0.7,0.3c0.2,0,0.4,-0.1,0.6,-0.3c0.2,-0.2,0.3,-0.5,0.3,-0.7c0,-0.3,-0.1,-0.5,-0.3,-0.7c-0.1,-0.2,-0.4,-0.3,-0.6,-0.3c-0.3,0,-0.5,0.1,-0.7,0.3Z" class="g11_30" />
<path d="M243.7,138.4c-0.7,0.2,-1.4,0.3,-2,0.3c-0.9,0,-1.5,-0.3,-2,-0.8c-0.5,-0.6,-0.8,-1.4,-0.8,-2.2c0,-1,0.3,-1.7,0.8,-2.3c0.4,-0.5,1.1,-0.8,2,-0.8c0.5,0,1.1,0.1,1.8,0.4l0.3,-1c-0.7,-0.3,-1.4,-0.4,-2.2,-0.4c-1.1,0,-2.1,0.4,-2.8,1.1c-0.7,0.8,-1.1,1.7,-1.1,3c0,1.2,0.4,2.2,1.1,2.9c0.7,0.8,1.7,1.2,2.9,1.2c0.8,0,1.5,-0.2,2.2,-0.5l-0.2,-0.9Z" class="g11_30" />
<path d="M252.4,131.9c-0.8,-0.2,-1.5,-0.3,-2.1,-0.3c-1,0,-1.7,0.2,-2.3,0.6c-0.6,0.4,-0.9,0.9,-0.9,1.6c0,0.3,0.1,0.6,0.2,0.8c0.2,0.3,0.3,0.5,0.6,0.7c0.2,0.1,0.5,0.3,0.8,0.4c0.2,0.1,0.7,0.2,1.3,0.4c0.7,0.2,1.2,0.4,1.3,0.6c0.2,0.3,0.3,0.5,0.3,0.8c0,0.4,-0.2,0.7,-0.5,0.9c-0.4,0.3,-1,0.4,-1.6,0.4c-0.7,0,-1.4,-0.2,-2.1,-0.5l-0.2,1c0.6,0.3,1.4,0.5,2.3,0.5c1,0,1.8,-0.3,2.4,-0.7c0.6,-0.4,0.9,-1,0.9,-1.7c0,-0.4,-0.1,-0.8,-0.2,-1c-0.2,-0.3,-0.4,-0.6,-0.8,-0.8c-0.3,-0.2,-0.7,-0.3,-1.2,-0.5l-1.1,-0.3c-0.5,-0.2,-0.8,-0.3,-1,-0.5c-0.1,-0.1,-0.2,-0.3,-0.2,-0.6c0,-0.3,0.1,-0.6,0.5,-0.8c0.4,-0.2,0.9,-0.3,1.5,-0.3c0.6,0,1.2,0.1,1.8,0.3l0.3,-1Z" class="g11_30" />
<path d="M261.4,131.9c-0.8,-0.2,-1.5,-0.3,-2.1,-0.3c-0.9,0,-1.7,0.2,-2.3,0.6c-0.6,0.4,-0.9,0.9,-0.9,1.6c0,0.3,0.1,0.6,0.2,0.8c0.2,0.3,0.3,0.5,0.6,0.7c0.2,0.1,0.5,0.3,0.8,0.4c0.2,0.1,0.7,0.2,1.3,0.4c0.7,0.2,1.2,0.4,1.4,0.6c0.2,0.3,0.3,0.5,0.3,0.8c0,0.4,-0.2,0.7,-0.6,0.9c-0.4,0.3,-1,0.4,-1.6,0.4c-0.7,0,-1.4,-0.2,-2.1,-0.5l-0.2,1c0.6,0.3,1.4,0.5,2.4,0.5c0.9,0,1.7,-0.3,2.3,-0.7c0.6,-0.4,0.9,-1,0.9,-1.7c0,-0.4,-0.1,-0.8,-0.2,-1c-0.2,-0.3,-0.4,-0.6,-0.8,-0.8c-0.3,-0.2,-0.7,-0.3,-1.2,-0.5l-1.1,-0.3c-0.5,-0.2,-0.8,-0.3,-1,-0.5c-0.1,-0.1,-0.2,-0.3,-0.2,-0.6c0,-0.3,0.2,-0.6,0.5,-0.8c0.4,-0.2,0.9,-0.3,1.5,-0.3c0.6,0,1.2,0.1,1.8,0.3l0.3,-1Z" class="g11_30" />
<text 
transform="matrix(0.98, 0, 0, 1, 56, 139)"
dx="0,0,0,0,0,0,0,0,0,0,0,0,0,0,0,0,0,0,0,0,0,0,0" 
class="s3_30"
>my-first-stylesheet.css</text>

<text 
transform="matrix(0.98, 0, 0, 1, 266, 139)"
dx="0,0,0,0,0,-0.9,0,0,0,-0.9,0,0,0,0,0,0,-0.9,0,0,0,-0.9,0,0,0,0,0,0,-0.9,0,0,-0.9,0,-0.3,0,0,-0.9,0,0,-0.9,0,0,0,0,0,0,0,-0.9,0,0,0,0,-0.9,0,0,-1.1,0,-0.9,0,0,0,-0.9,0,0,0,0,0,0,0,0,0,0" 
class="s2_30"
>file and change its colour to grey to suggest that it’s not clickable. </text>

<text 
transform="matrix(0.98, 0, 0, 1, 56, 160)"
dx="0,0,0,-0.3,0,-1.1,0,-0.9,0,0,0" 
class="s2_30"
>Here’s how:</text>

<text 
x="56" 
y="406" 
dx="0,0" 
class="s1_30"
>4.</text>

<text 
transform="matrix(0.98, 0, 0, 1, 82, 406)"
dx="0,0,0,0,-0.3,0,0,0,0.5,0,0,0,0.5,0,0,0,0,0,0,0.5,0,0,0,0.5,0,0,0,0.5,0,0,0,0,0,0,0,0,0.5,0,0,0,0,0.5,0,0,0,0,0,0,0.5,0,0,0.5,0,-0.3,0,-1.4,0,0.5,0,0,0,0,0.5,0,0,0,0,0,0,0.5,0,0,0,0,0.5,0,0,0.5,0,0,0,0,0,0.5,0,0.5,0,0,0,0.5,0,0,0,0,0.5,0,0,0,0,0" 
class="s2_30"
>Refresh and you’ll see the selected link change to grey. What you’ve done is added a new rule which </text>

<text 
transform="matrix(0.98, 0, 0, 1, 56, 428)"
dx="0,0,0,0,0,0,0,0,-0.6,0,0,0,0,-0.6,0,0" 
class="s2_30"
>applies only to </text>

<path d="M163.5,427.5l-2,0l0,-10l-3,0l0,1l2,0l0,10l3,0l0,-1Z" class="g11_30" />
<path d="M169.9,417.8c-0.2,0.2,-0.3,0.4,-0.3,0.6c0,0.2,0.1,0.4,0.3,0.6c0.1,0.1,0.3,0.2,0.5,0.2c0.2,0,0.4,-0.1,0.6,-0.2c0.1,-0.2,0.2,-0.4,0.2,-0.6c0,-0.2,-0.1,-0.4,-0.2,-0.6c-0.2,-0.1,-0.4,-0.2,-0.6,-0.2c-0.2,0,-0.4,0.1,-0.5,0.2Zm1.1,2.7l-3.4,0l0,1l2.2,0l0,6.8l1.2,0l0,-7.8Z" class="g11_30" />
<text 
transform="matrix(0.98, 0, 0, 1, 156, 428)"
dx="0,0" 
class="s3_30"
>li</text>

<text 
transform="matrix(0.98, 0, 0, 1, 178, 428)"
dx="0,0,0,0,0,0,0,0,0,-0.6,0,0,0,0,-0.6,0" 
class="s2_30"
>elements with a </text>

<path d="M292.1,427.1c-0.7,0.3,-1.4,0.4,-2,0.4c-0.9,0,-1.5,-0.3,-2,-0.9c-0.5,-0.6,-0.8,-1.3,-0.8,-2.2c0,-0.9,0.3,-1.7,0.8,-2.2c0.4,-0.6,1.1,-0.8,2,-0.8c0.5,0,1.1,0.1,1.8,0.3l0.3,-0.9c-0.7,-0.3,-1.4,-0.5,-2.2,-0.5c-1.1,0,-2.1,0.4,-2.8,1.2c-0.7,0.7,-1.1,1.7,-1.1,2.9c0,1.3,0.4,2.3,1.1,3c0.7,0.7,1.7,1.1,2.9,1.1c0.8,0,1.5,-0.1,2.2,-0.5l-0.2,-0.9Z" class="g11_30" />
<path d="M300.5,427.5l-2,0l0,-10l-3,0l0,1l2,0l0,10l3,0l0,-1Z" class="g11_30" />
<path d="M310.3,426.5l0,-3.3c0,-1.9,-0.9,-2.9,-2.6,-2.9c-0.9,0,-1.9,0.3,-2.9,0.9l0.3,0.8c0.3,-0.2,0.7,-0.3,1.1,-0.5c0.5,-0.1,0.8,-0.1,1.1,-0.1c1.2,0,1.9,0.6,1.9,2l0,0.3l-1.3,0.1c-0.6,0.1,-1.1,0.2,-1.5,0.3c-0.4,0.1,-0.8,0.2,-1.1,0.5c-0.3,0.2,-0.5,0.4,-0.7,0.7c-0.1,0.3,-0.2,0.6,-0.2,1c0,0.7,0.2,1.2,0.7,1.6c0.4,0.4,0.9,0.6,1.5,0.6c1.1,0,2,-0.5,2.6,-1.4c0,0.5,0.1,0.9,0.2,1.2l1.1,0c-0.1,-0.5,-0.2,-1.1,-0.2,-1.8Zm-2.2,0.5c-0.4,0.3,-0.8,0.4,-1.2,0.4c-0.4,0,-0.7,-0.1,-0.9,-0.3c-0.3,-0.2,-0.4,-0.5,-0.4,-0.9c0,-0.4,0.2,-0.7,0.4,-0.9c0.3,-0.2,0.7,-0.4,1,-0.4c0.4,-0.1,1.1,-0.2,2.2,-0.3l0,1.4c-0.3,0.4,-0.7,0.8,-1.1,1Z" class="g11_30" />
<path d="M318.8,420.7c-0.8,-0.2,-1.5,-0.4,-2.1,-0.4c-0.9,0,-1.7,0.2,-2.3,0.6c-0.6,0.4,-0.8,1,-0.8,1.6c0,0.3,0,0.6,0.1,0.9c0.2,0.2,0.3,0.4,0.6,0.6c0.2,0.2,0.5,0.3,0.8,0.4c0.2,0.1,0.7,0.2,1.3,0.4c0.7,0.3,1.2,0.5,1.4,0.7c0.2,0.2,0.3,0.4,0.3,0.7c0,0.4,-0.2,0.7,-0.6,1c-0.4,0.2,-1,0.3,-1.6,0.3c-0.7,0,-1.4,-0.1,-2,-0.4l-0.3,1c0.6,0.3,1.4,0.4,2.4,0.4c0.9,0,1.7,-0.2,2.3,-0.6c0.6,-0.5,0.9,-1.1,0.9,-1.8c0,-0.4,-0.1,-0.7,-0.2,-1c-0.2,-0.3,-0.4,-0.5,-0.8,-0.7c-0.3,-0.2,-0.7,-0.4,-1.2,-0.5l-1.1,-0.4c-0.5,-0.1,-0.8,-0.3,-1,-0.4c-0.1,-0.2,-0.2,-0.4,-0.2,-0.6c0,-0.4,0.2,-0.6,0.5,-0.9c0.4,-0.2,0.9,-0.3,1.5,-0.3c0.6,0,1.2,0.1,1.8,0.3l0.3,-0.9Z" class="g11_30" />
<path d="M327.8,420.7c-0.8,-0.2,-1.5,-0.4,-2.1,-0.4c-0.9,0,-1.7,0.2,-2.3,0.6c-0.6,0.4,-0.8,1,-0.8,1.6c0,0.3,0,0.6,0.1,0.9c0.2,0.2,0.4,0.4,0.6,0.6c0.2,0.2,0.5,0.3,0.8,0.4c0.2,0.1,0.7,0.2,1.3,0.4c0.7,0.3,1.2,0.5,1.4,0.7c0.2,0.2,0.3,0.4,0.3,0.7c0,0.4,-0.2,0.7,-0.6,1c-0.4,0.2,-0.9,0.3,-1.6,0.3c-0.7,0,-1.4,-0.1,-2,-0.4l-0.3,1c0.7,0.3,1.4,0.4,2.4,0.4c0.9,0,1.7,-0.2,2.3,-0.6c0.6,-0.5,0.9,-1.1,0.9,-1.8c0,-0.4,-0.1,-0.7,-0.2,-1c-0.2,-0.3,-0.4,-0.5,-0.7,-0.7c-0.4,-0.2,-0.8,-0.4,-1.3,-0.5l-1.1,-0.4c-0.5,-0.1,-0.8,-0.3,-1,-0.4c-0.1,-0.2,-0.2,-0.4,-0.2,-0.6c0,-0.4,0.2,-0.6,0.5,-0.9c0.4,-0.2,0.9,-0.3,1.5,-0.3c0.6,0,1.2,0.1,1.8,0.3l0.3,-0.9Z" class="g11_30" />
<text 
transform="matrix(0.98, 0, 0, 1, 284, 428)"
dx="0,0,0,0,0" 
class="s3_30"
>class</text>

<text 
transform="matrix(0.98, 0, 0, 1, 333, 428)"
dx="0,0,0,0,0,0,0,0,0,0,-0.6,0" 
class="s2_30"
>attribute of</text>

<path d="M419.4,420.7c-0.7,-0.2,-1.4,-0.4,-2,-0.4c-1,0,-1.8,0.2,-2.3,0.6c-0.6,0.4,-0.9,1,-0.9,1.6c0,0.3,0.1,0.6,0.2,0.9c0.1,0.2,0.3,0.4,0.5,0.6c0.3,0.2,0.5,0.3,0.8,0.4c0.3,0.1,0.7,0.2,1.3,0.4c0.7,0.3,1.2,0.5,1.4,0.7c0.2,0.2,0.3,0.4,0.3,0.7c0,0.4,-0.2,0.7,-0.6,1c-0.4,0.2,-0.9,0.3,-1.5,0.3c-0.8,0,-1.5,-0.1,-2.1,-0.4l-0.2,1c0.6,0.3,1.4,0.4,2.3,0.4c0.9,0,1.7,-0.2,2.3,-0.6c0.6,-0.5,0.9,-1.1,0.9,-1.8c0,-0.4,0,-0.7,-0.2,-1c-0.1,-0.3,-0.4,-0.5,-0.7,-0.7c-0.3,-0.2,-0.7,-0.4,-1.2,-0.5l-1.1,-0.4c-0.5,-0.1,-0.9,-0.3,-1,-0.4c-0.2,-0.2,-0.3,-0.4,-0.3,-0.6c0,-0.4,0.2,-0.6,0.6,-0.9c0.3,-0.2,0.8,-0.3,1.4,-0.3c0.6,0,1.2,0.1,1.9,0.3l0.2,-0.9Z" class="g11_30" />
<path d="M429.2,424.1c0,-1.1,-0.3,-2,-0.9,-2.7c-0.6,-0.7,-1.3,-1.1,-2.2,-1.1c-1,0,-1.8,0.4,-2.4,1.1c-0.6,0.8,-1,1.8,-1,3c0,1.3,0.4,2.3,1.1,3c0.7,0.7,1.6,1.1,2.7,1.1c0.9,0,1.7,-0.1,2.4,-0.5l-0.2,-0.9c-0.8,0.3,-1.5,0.4,-2.2,0.4c-0.7,0,-1.3,-0.3,-1.8,-0.9c-0.5,-0.5,-0.8,-1.3,-0.8,-2.1l5.3,0l0,-0.4ZM424,423.5c0.1,-0.6,0.3,-1.2,0.7,-1.5c0.4,-0.4,0.8,-0.6,1.4,-0.6c0.5,0,0.9,0.2,1.3,0.6c0.4,0.4,0.5,0.9,0.5,1.5l-3.9,0Z" class="g11_30" />
<path d="M437.5,427.5l-2,0l0,-10l-3,0l0,1l2,0l0,10l3,0l0,-1Z" class="g11_30" />
<path d="M447.2,424.1c0,-1.1,-0.3,-2,-0.9,-2.7c-0.6,-0.7,-1.3,-1.1,-2.2,-1.1c-1,0,-1.8,0.4,-2.4,1.1c-0.6,0.8,-0.9,1.8,-0.9,3c0,1.3,0.3,2.3,1,3c0.7,0.7,1.6,1.1,2.7,1.1c0.9,0,1.7,-0.1,2.4,-0.5l-0.2,-0.9c-0.7,0.3,-1.5,0.4,-2.1,0.4c-0.8,0,-1.4,-0.3,-1.9,-0.9c-0.5,-0.5,-0.7,-1.3,-0.7,-2.1l5.2,0l0,-0.4ZM442,423.5c0.1,-0.6,0.3,-1.2,0.7,-1.5c0.4,-0.4,0.9,-0.6,1.4,-0.6c0.5,0,0.9,0.2,1.3,0.6c0.4,0.4,0.6,0.9,0.6,1.5l-4,0Z" class="g11_30" />
<path d="M455.7,427.1c-0.6,0.3,-1.3,0.4,-1.9,0.4c-0.9,0,-1.5,-0.3,-2,-0.9C451.3,426,451,425.3,451,424.4c0,-0.9,0.3,-1.7,0.7,-2.2c0.5,-0.6,1.2,-0.8,2,-0.8c0.6,0,1.2,0.1,1.9,0.3l0.3,-0.9c-0.7,-0.3,-1.4,-0.5,-2.2,-0.5c-1.1,0,-2.1,0.4,-2.8,1.2c-0.7,0.7,-1.1,1.7,-1.1,2.9c0,1.3,0.4,2.3,1.1,3c0.7,0.7,1.7,1.1,2.9,1.1c0.8,0,1.5,-0.1,2.1,-0.5l-0.2,-0.9Z" class="g11_30" />
<path d="M464.9,427.1c-0.7,0.2,-1.3,0.4,-1.9,0.4c-0.3,0,-0.6,-0.2,-0.8,-0.4c-0.2,-0.3,-0.3,-0.6,-0.3,-1.1l0,-4.5l2.6,0l0,-1l-2.6,0l0,-2.1l-1.2,0l0,2.1l-1.4,0l0,1l1.4,0l0,4.8c0,1.5,0.7,2.2,2.1,2.2c0.7,0,1.5,-0.2,2.3,-0.5l-0.2,-0.9Z" class="g11_30" />
<path d="M474.2,424.1c0,-1.1,-0.3,-2,-0.9,-2.7c-0.6,-0.7,-1.3,-1.1,-2.2,-1.1c-1,0,-1.8,0.4,-2.4,1.1c-0.6,0.8,-0.9,1.8,-0.9,3c0,1.3,0.3,2.3,1,3c0.7,0.7,1.6,1.1,2.8,1.1c0.9,0,1.6,-0.1,2.3,-0.5l-0.2,-0.9c-0.7,0.3,-1.4,0.4,-2.1,0.4c-0.8,0,-1.4,-0.3,-1.9,-0.9c-0.5,-0.5,-0.7,-1.3,-0.7,-2.1l5.2,0l0,-0.4ZM469,423.5c0.1,-0.6,0.3,-1.2,0.7,-1.5c0.4,-0.4,0.9,-0.6,1.5,-0.6c0.4,0,0.8,0.2,1.2,0.6c0.4,0.4,0.6,0.9,0.6,1.5l-4,0Z" class="g11_30" />
<path d="M483,417.8l-1.2,0l0,3.7c-0.6,-0.8,-1.3,-1.2,-2.3,-1.2c-0.9,0,-1.6,0.4,-2.1,1.2c-0.5,0.7,-0.8,1.7,-0.8,2.8c0,1.2,0.3,2.2,0.8,3c0.5,0.8,1.2,1.2,2,1.2c0.5,0,1,-0.1,1.4,-0.4c0.5,-0.2,0.8,-0.5,1,-0.9l0,1.1l1.2,0l0,-10.5Zm-1.6,8.7c-0.2,0.3,-0.5,0.6,-0.8,0.7c-0.3,0.2,-0.6,0.3,-0.9,0.3c-0.6,0,-1,-0.3,-1.4,-0.9c-0.3,-0.6,-0.5,-1.3,-0.5,-2.2c0,-0.9,0.2,-1.6,0.5,-2.2c0.4,-0.6,0.9,-0.8,1.5,-0.8c0.8,0,1.5,0.4,2,1.3l0,3.2c0,0.1,-0.1,0.3,-0.4,0.6Z" class="g11_30" />
<text 
transform="matrix(0.98, 0, 0, 1, 412, 428)"
dx="0,0,0,0,0,0,0,0" 
class="s3_30"
>selected</text>

<text 
transform="matrix(0.98, 0, 0, 1, 484, 428)"
dx="0,0,-0.6,0,0,0,0,0,0,-0.6,0,0,0,-0.6,0,0,0,0,0,0,-0.6,0,0,-0.6,0,0,0,-0.6,0,0,0,-0.6,0,0,0,0,-0.6,0,-0.6,0,0,0,0,0,0,0" 
class="s2_30"
>. Notice the syntax in the CSS file – instead </text>

<text 
transform="matrix(0.98, 0, 0, 1, 56, 449)"
dx="0,0,0,-0.9,0,0,0,0,0,0,0,0,0,0" 
class="s2_30"
>of specifying </text>

<path d="M151.5,448.5l-2,0l0,-9l-3,0l0,1l2,0l0,9l3,0l0,-1Z" class="g11_30" />
<path d="M158.2,439.2c-0.2,0.2,-0.2,0.4,-0.2,0.6c0,0.2,0,0.4,0.2,0.5c0.1,0.2,0.3,0.3,0.5,0.3c0.2,0,0.4,-0.1,0.6,-0.2c0.1,-0.2,0.2,-0.4,0.2,-0.6c0,-0.2,-0.1,-0.4,-0.2,-0.6c-0.2,-0.1,-0.4,-0.2,-0.6,-0.2c-0.2,0,-0.4,0.1,-0.5,0.2Zm1.1,2.7l-3.4,0l0,1l2.2,0l0,6.8l1.2,0l0,-7.8Z" class="g11_30" />
<text 
transform="matrix(0.98, 0, 0, 1, 144, 449)"
dx="0,0" 
class="s3_30"
>li</text>

<text 
transform="matrix(0.98, 0, 0, 1, 166, 449)"
dx="0,0,0,-0.9,0,0,0,-0.9,0,0,0,0,0,-0.9,0,0,0,-0.9,0,0,0,0,0,0" 
class="s2_30"
>in the rule, you specify</text>

<path d="M327.5,448.5l-2,0l0,-9l-3,0l0,1l2,0l0,9l3,0l0,-1Z" class="g11_30" />
<path d="M334.4,439.2c-0.2,0.2,-0.3,0.4,-0.3,0.6c0,0.2,0.1,0.4,0.3,0.5c0.1,0.2,0.3,0.3,0.5,0.3c0.2,0,0.4,-0.1,0.6,-0.2c0.1,-0.2,0.2,-0.4,0.2,-0.6c0,-0.2,-0.1,-0.4,-0.2,-0.6c-0.2,-0.1,-0.4,-0.2,-0.6,-0.2c-0.2,0,-0.4,0.1,-0.5,0.2Zm1.1,2.7l-3.4,0l0,1l2.2,0l0,6.8l1.2,0l0,-7.8Z" class="g11_30" />
<path d="M342.7,448.3c-0.1,0.1,-0.2,0.4,-0.2,0.6c0,0.3,0.1,0.5,0.2,0.7c0.2,0.2,0.4,0.3,0.7,0.3c0.2,0,0.4,-0.1,0.6,-0.3c0.2,-0.2,0.3,-0.4,0.3,-0.7c0,-0.2,-0.1,-0.5,-0.3,-0.6c-0.1,-0.2,-0.4,-0.3,-0.6,-0.3c-0.3,0,-0.5,0.1,-0.7,0.3Z" class="g11_30" />
<path d="M354.8,442.1c-0.7,-0.3,-1.4,-0.4,-2,-0.4c-1,0,-1.7,0.2,-2.3,0.6c-0.6,0.4,-0.9,1,-0.9,1.6c0,0.3,0.1,0.6,0.2,0.9c0.1,0.2,0.3,0.4,0.6,0.6c0.2,0.2,0.5,0.3,0.7,0.4c0.3,0.1,0.8,0.2,1.3,0.4c0.8,0.2,1.2,0.5,1.4,0.7c0.2,0.2,0.3,0.4,0.3,0.7c0,0.4,-0.2,0.7,-0.6,1c-0.4,0.2,-0.9,0.3,-1.5,0.3c-0.7,0,-1.4,-0.1,-2.1,-0.4l-0.2,1c0.6,0.3,1.4,0.4,2.3,0.4c1,0,1.8,-0.2,2.4,-0.6c0.6,-0.5,0.9,-1.1,0.9,-1.8c0,-0.4,-0.1,-0.7,-0.3,-1c-0.1,-0.3,-0.4,-0.5,-0.7,-0.7c-0.3,-0.2,-0.7,-0.4,-1.2,-0.6L352,444.9c-0.5,-0.1,-0.8,-0.3,-1,-0.4c-0.2,-0.2,-0.2,-0.4,-0.2,-0.6c0,-0.4,0.1,-0.7,0.5,-0.9c0.4,-0.2,0.9,-0.3,1.5,-0.3c0.5,0,1.1,0.1,1.8,0.3l0.2,-0.9Z" class="g11_30" />
<path d="M364.6,445.5c0,-1.2,-0.3,-2.1,-0.9,-2.7c-0.6,-0.7,-1.3,-1.1,-2.2,-1.1c-1,0,-1.8,0.4,-2.4,1.1c-0.6,0.8,-0.9,1.8,-0.9,3c0,1.2,0.3,2.2,1,3c0.7,0.7,1.6,1.1,2.8,1.1c0.9,0,1.6,-0.2,2.3,-0.5l-0.2,-0.9c-0.7,0.3,-1.4,0.4,-2.1,0.4c-0.8,0,-1.4,-0.3,-1.9,-0.9c-0.5,-0.5,-0.7,-1.3,-0.7,-2.2l5.2,0l0,-0.3Zm-5.1,-0.6c0,-0.6,0.2,-1.2,0.6,-1.6c0.4,-0.4,0.9,-0.6,1.5,-0.6c0.4,0,0.8,0.3,1.2,0.7c0.4,0.4,0.6,0.9,0.6,1.5l-3.9,0Z" class="g11_30" />
<path d="M372.5,448.5l-2,0l0,-9l-3,0l0,1l2,0l0,9l3,0l0,-1Z" class="g11_30" />
<path d="M382.6,445.5c0,-1.2,-0.3,-2.1,-0.9,-2.7c-0.5,-0.7,-1.3,-1.1,-2.2,-1.1c-0.9,0,-1.8,0.4,-2.4,1.1c-0.6,0.8,-0.9,1.8,-0.9,3c0,1.2,0.3,2.2,1,3c0.7,0.7,1.6,1.1,2.8,1.1c0.9,0,1.7,-0.2,2.3,-0.5l-0.2,-0.9c-0.7,0.3,-1.4,0.4,-2.1,0.4c-0.7,0,-1.4,-0.3,-1.9,-0.9c-0.5,-0.5,-0.7,-1.3,-0.7,-2.2l5.2,0l0,-0.3Zm-5.1,-0.6c0,-0.6,0.2,-1.2,0.6,-1.6c0.4,-0.4,0.9,-0.6,1.5,-0.6c0.4,0,0.9,0.3,1.2,0.7c0.4,0.4,0.6,0.9,0.6,1.5l-3.9,0Z" class="g11_30" />
<path d="M391.2,448.5c-0.7,0.3,-1.4,0.4,-2,0.4c-0.8,0,-1.5,-0.3,-2,-0.9c-0.5,-0.6,-0.8,-1.3,-0.8,-2.2c0,-0.9,0.3,-1.7,0.8,-2.2c0.5,-0.6,1.1,-0.9,2,-0.9c0.5,0,1.2,0.2,1.9,0.4l0.3,-1c-0.7,-0.2,-1.5,-0.4,-2.2,-0.4c-1.2,0,-2.2,0.4,-2.9,1.2c-0.7,0.7,-1.1,1.7,-1.1,2.9c0,1.3,0.4,2.2,1.1,3c0.7,0.7,1.7,1.1,2.9,1.1c0.8,0,1.5,-0.2,2.2,-0.5l-0.2,-0.9Z" class="g11_30" />
<path d="M400.3,448.4c-0.6,0.3,-1.2,0.5,-1.9,0.5c-0.3,0,-0.6,-0.2,-0.8,-0.4c-0.2,-0.3,-0.3,-0.7,-0.3,-1.1l0,-4.5l2.6,0l0,-1l-2.6,0l0,-2.1l-1.1,0l0,2.1l-1.5,0l0,1l1.5,0l0,4.8c0,1.4,0.7,2.2,2,2.2c0.8,0,1.5,-0.2,2.3,-0.6l-0.2,-0.9Z" class="g11_30" />
<path d="M409.7,445.5c0,-1.2,-0.3,-2.1,-0.9,-2.7c-0.6,-0.7,-1.4,-1.1,-2.2,-1.1c-1,0,-1.8,0.4,-2.5,1.1c-0.6,0.8,-0.9,1.8,-0.9,3c0,1.2,0.4,2.2,1.1,3c0.6,0.7,1.6,1.1,2.7,1.1c0.9,0,1.7,-0.2,2.4,-0.5l-0.2,-0.9c-0.8,0.3,-1.5,0.4,-2.2,0.4c-0.7,0,-1.3,-0.3,-1.8,-0.9c-0.5,-0.5,-0.8,-1.3,-0.8,-2.2l5.3,0l0,-0.3Zm-5.2,-0.6c0,-0.6,0.2,-1.2,0.6,-1.6c0.4,-0.4,0.9,-0.6,1.5,-0.6c0.5,0,0.9,0.3,1.2,0.7c0.4,0.4,0.6,0.9,0.6,1.5l-3.9,0Z" class="g11_30" />
<path d="M418.4,439.2l-1.1,0l0,3.7c-0.6,-0.8,-1.4,-1.2,-2.4,-1.2c-0.8,0,-1.5,0.4,-2.1,1.2c-0.5,0.7,-0.8,1.7,-0.8,2.8c0,1.2,0.3,2.2,0.8,3c0.5,0.8,1.2,1.2,2.1,1.2c0.5,0,0.9,-0.1,1.4,-0.4c0.4,-0.2,0.7,-0.5,1,-0.9l0,1.1l1.1,0l0,-10.5Zm-1.5,8.7c-0.3,0.3,-0.6,0.6,-0.9,0.7c-0.3,0.2,-0.5,0.3,-0.8,0.3c-0.6,0,-1.1,-0.3,-1.4,-0.9c-0.4,-0.6,-0.6,-1.3,-0.6,-2.2c0,-0.9,0.2,-1.6,0.6,-2.2c0.4,-0.6,0.8,-0.9,1.5,-0.9c0.8,0,1.4,0.5,2,1.4l0,3.2c0,0.1,-0.2,0.3,-0.4,0.6Z" class="g11_30" />
<text 
transform="matrix(0.98, 0, 0, 1, 320, 449)"
dx="0,0,0,0,0,0,0,0,0,0,0" 
class="s3_30"
>li.selected</text>

<text 
x="55" 
y="631" 
dx="0,0" 
class="s1_30"
>5.</text>

<text 
transform="matrix(0.98, 0, 0, 1, 81, 631)"
dx="0,0,0,0,0,0,0,-1.4,0,-0.1,0,0,0,0,-0.1,0,0,0,-0.1,0,0,0,0,0,-0.1,0,0,0,0,-0.1,0,0,-0.1,0,0,0,0,0,0,0,0,0,-0.1,0,0,0,0,-0.1,0,0,0,-0.1,0,0,0,0,0,-0.1,0,0,0,0,-0.1,0,0,0,0" 
class="s2_30"
>Finally, make the links show an underline when you hover over them </text>

<text 
transform="matrix(0.98, 0, 0, 1, 55, 652)"
dx="0,0,0,2,0,0,0,0,0,0,2,0,2,0,0,0,2,0,0,0,0,2,0,0,2,0,0,0,2,0,0,0,0,2,0,0,0,0,2,0,0,0,0,2,0,0,0,0,0,0,0,2,0,0,0,0,2,0,0,0,0,2,0,0,0,0,0,0" 
class="s2_30"
>by adding a new rule to the CSS. This rule defines what will happen </text>

<text 
transform="matrix(0.98, 0, 0, 1, 55, 674)"
dx="0,0,0,0,0,-0.9,0,0,0,-0.9,0,0,0,0,0,-0.9,0,0,0,0,-0.9,0,0,0,0,0,0,-0.9,0,0,0,0,-0.9,0,0,-0.9,0,-0.9,0,0,0,0,0,0,0" 
class="s2_30"
>when you hover your cursor over an a element.</text>

<text 
x="55" 
y="717" 
dx="0,0,0,0" 
class="s2_30"
>The </text>

<path d="M89.8,709.4c-0.1,0.2,-0.2,0.4,-0.2,0.7c0,0.2,0.1,0.4,0.2,0.6c0.2,0.2,0.4,0.2,0.7,0.2c0.2,0,0.4,0,0.6,-0.2c0.2,-0.2,0.3,-0.4,0.3,-0.6c0,-0.3,-0.1,-0.5,-0.3,-0.7c-0.2,-0.1,-0.4,-0.2,-0.6,-0.2c-0.3,0,-0.5,0.1,-0.7,0.2Zm0,6.3c-0.1,0.1,-0.2,0.3,-0.2,0.6c0,0.2,0.1,0.5,0.2,0.6c0.2,0.2,0.4,0.3,0.7,0.3c0.2,0,0.4,-0.1,0.6,-0.3c0.2,-0.1,0.3,-0.4,0.3,-0.6c0,-0.3,-0.1,-0.5,-0.3,-0.6c-0.2,-0.2,-0.4,-0.3,-0.6,-0.3c-0.3,0,-0.5,0.1,-0.7,0.3Z" class="g12_30" />
<path d="M102.7,711.7c0,-1.7,-0.7,-2.6,-2.2,-2.6c-0.9,0,-1.8,0.4,-2.6,1.3l0,-3.9l-1.2,0l0,10.6l1.2,0l0,-5.7c0.8,-0.9,1.6,-1.3,2.3,-1.3c0.4,0,0.8,0.2,1,0.5c0.2,0.3,0.3,0.8,0.3,1.5l0,5l1.2,0l0,-5.4Z" class="g12_30" />
<path d="M106.3,710.2c-0.6,0.8,-0.9,1.7,-0.9,3c0,1.2,0.3,2.2,0.9,2.9c0.6,0.8,1.5,1.2,2.6,1.2c1,0,1.9,-0.4,2.5,-1.2c0.6,-0.7,1,-1.7,1,-2.9c0,-1.3,-0.4,-2.2,-1,-3c-0.6,-0.7,-1.5,-1.1,-2.5,-1.1c-1.1,0,-2,0.4,-2.6,1.1Zm0.9,5.2c-0.4,-0.6,-0.6,-1.4,-0.6,-2.2c0,-0.9,0.2,-1.7,0.6,-2.2c0.4,-0.6,0.9,-0.9,1.7,-0.9c0.7,0,1.2,0.3,1.6,0.9c0.4,0.5,0.6,1.3,0.6,2.2c0,0.8,-0.2,1.6,-0.6,2.1c-0.4,0.6,-0.9,0.9,-1.6,0.9c-0.7,0,-1.3,-0.3,-1.7,-0.8Z" class="g12_30" />
<path d="M120.1,709.3l-2.2,6.2l-2.2,-6.2l-1.2,0l2.9,7.8l1.1,0l2.9,-7.8l-1.3,0Z" class="g12_30" />
<path d="M130.4,712.8c0,-1.1,-0.3,-2,-0.9,-2.7c-0.6,-0.7,-1.3,-1,-2.2,-1c-1,0,-1.8,0.4,-2.5,1.1c-0.6,0.7,-0.9,1.7,-0.9,2.9c0,1.3,0.3,2.3,1,3c0.8,0.8,1.7,1.2,2.8,1.2c1,0,1.8,-0.2,2.4,-0.5l-0.2,-0.9c-0.7,0.2,-1.4,0.3,-2.1,0.3c-0.8,0,-1.4,-0.2,-1.9,-0.8c-0.5,-0.6,-0.8,-1.3,-0.8,-2.2l5.3,0l0,-0.4Zm-5.2,-0.5c0,-0.7,0.3,-1.2,0.6,-1.6c0.4,-0.4,0.9,-0.6,1.5,-0.6c0.5,0,0.9,0.2,1.3,0.6c0.4,0.4,0.6,1,0.6,1.6l-4,0Z" class="g12_30" />
<path d="M137.8,709.1c-1,0,-1.8,0.6,-2.4,1.8l0,-1.6l-1.2,0l0,7.8l1.2,0l0,-5.1c0,0,0.1,-0.2,0.4,-0.6c0.3,-0.4,0.6,-0.6,0.9,-0.8c0.3,-0.2,0.7,-0.3,1,-0.3c0.4,0,0.8,0.1,1.3,0.3l0.5,-1.1c-0.5,-0.3,-1.1,-0.4,-1.7,-0.4Z" class="g12_30" />
<text 
x="85" 
y="717" 
dx="0,0,0,0,0,0" 
class="s3_30"
>:hover</text>

<text 
x="146" 
y="717" 
dx="0,0,0,0.3,0,0.9,0,0,0.9,0,0,0,0.9,0,0,0,0,0,0,0,0,0.9,0,0,0.9,0,0,0,0,0,0,0.9,0" 
class="s2_30"
>part of the selector is called a </text>

<text 
x="359" 
y="717" 
dx="0,0,0,0,0,0,0,0.9,-0.3,0,0,0" 
class="s4_30"
>pseudo class</text>

<text 
x="456" 
y="717" 
dx="0,0,0.9,0,0.9,0,0,0,0,0,0" 
class="s2_30"
>. A pseudo </text>

<text 
x="55" 
y="738" 
dx="0,0,0,0,0,0,5.3,0,0,0,0,0,0,0,5.3,0,0,0,5.3,0,0,0,0,0,0,0,0,0,0,5.3,0,0,5.3,0,0,5.3,0,0,0,0,0,0,0,5.3,0,0,5.3,0,0,0.3,0,0,0,0,5.3,0,0,0,0,0,0,0" 
class="s2_30"
>class changes the appearance of an element in certain special </text>

<text 
x="55" 
y="759" 
dx="0,0,0,0,0,0,0,0,0,0,0,0,-0.9,0,0,0,-0.9,0,0,0,0,0,0,0,0,0,-0.9,0,0,0,0,0,0,-0.9,0,0,0,0,0,0,0,-0.9,0,-0.3,0,-0.9,0,0,0,0,0,0,0,0,0,-0.9,0,0,0,-0.9,0,0,0,0,0,0,0,-0.9,0,0,0,0,0" 
class="s2_30"
>situations. The following pseudo classes are available for styling links:</text>

<path d="M48,793l0,4l-5,0l0,26l5,0l0,4l84,0l0,-34Z" class="g13_30" />
<path d="M48,836l0,4l-5,0l0,26l5,0l0,4l84,0l0,-34Z" class="g13_30" />
<path d="M48,879l0,4l-5,0l0,26l5,0l0,4l84,0l0,-34Z" class="g13_30" />
<path d="M48,922l0,4l-5,0l0,26l5,0l0,4l84,0l0,-34Z" class="g13_30" />
<text 
x="56" 
y="813" 
dx="0,0,0,0,0,0,0,0,0" 
class="s5_30"
>unvisited</text>

<text 
x="65" 
y="856" 
dx="0,0,0,0,0,0,0" 
class="s6_30"
>visited</text>

<text 
x="68" 
y="898" 
dx="0,0,0,0,0" 
class="s7_30"
>hover</text>

<text 
x="57" 
y="941" 
dx="0,0,0,0,0,0,0,0" 
class="s8_30"
>selected</text>

<text 
x="145" 
y="813" 
dx="0,0,0,0,0,-0.9,0,0,0,-0.9,0,0,0,-0.9,0,0,0,0,-0.9,0,0,0,0,0,0,-0.9,0,0,0,0,0,0,-0.9,0,0,0,0,-0.3,0,-0.9,0,0,0,-0.9,0,0,0,0,-0.9,0,0,0,0,0,0,0,-0.9,0,0,0,-0.9,0,0,0,0,-0.9,0,0,0,0,0,0,0,0,0,0,0" 
class="s2_30"
>Sets how the link should appear before you have visited the link destination.</text>

<text 
x="145" 
y="856" 
dx="0,0,0,0,0,-0.9,0,0,0,-0.9,0,0,0,-0.9,0,0,0,0,-0.9,0,0,0,0,0,0,-0.9,0,0,0,0,0,0,-0.9,0,0,0,0,0,-0.9,0,0,0,-0.9,0,0,0,0,-0.9,0,0,0,0,0,0,0,-0.9,0,0,0,-0.9,0,0,0,0,-0.9,0,0,0,0,0,0,0,0,0,0,0" 
class="s2_30"
>Sets how the link should appear after you have visited the link destination.</text>

<text 
x="145" 
y="898" 
dx="0,0,0,0,0,-0.9,0,0,0,0,-0.9,0,0,0,0,0,0,-0.9,0,0,0,0,0,0,-0.9,0,0,0,0,-0.9,0,0,0,-0.9,0,0,0,0,0,-0.9,0,0,0,-0.9,0,0,0,0,0,0,-0.9,0,0,0,0,-0.9,0,0,-0.9,0,0,0,0,0,0,0" 
class="s2_30"
>Sets what should happen when you hover the cursor over an element.</text>

<text 
x="145" 
y="941" 
dx="0,0,0,0,0,-0.9,0,0,0,0,-0.9,0,0,0,0,0,0,-0.9,0,0,0,0,0,0,-0.9,0,0,0,0,-0.9,0,0,0,-0.9,0,0,0,0,0,-0.9,0,0,-0.9,0,0,0,-0.9,0,0,0,0,-0.9,0,0,0,0,-0.3,0,-0.9,-0.3,0,0,0,0,0,0,0,0,-0.9,0,0,0,-0.9,0,0,0,0,0,-0.9,0,0,0,0,0,0" 
class="s2_30"
>Sets what should happen when you click on the link before releasing the mouse button.</text>

<text 
x="55" 
y="225" 
dx="0,0,0,0,-1.8,0,0,-1.8,0,0,-1.8,0,-1.8" 
class="s3_30"
>nav ul li a {</text>

<text 
x="55" 
y="246" 
dx="0,0,0,0,0,0,0,0,0,0,0,0,0,0,0,0,0,0,0,0,0" 
class="s3_30"
>text-decoration:none;</text>

<text 
x="55" 
y="267" 
dx="0" 
class="s3_30"
>}</text>

<text 
x="440" 
y="225" 
dx="0,0,0,0,-1.8,0,0,-1.8,0,0,-1.8,0,-1.8" 
class="s3_30"
>nav ul li a {</text>

<text 
x="440" 
y="246" 
dx="0,0,0,0,0,0,0,0,0,0,0,0,0,0,0,0,0,0,0,0,0" 
class="s3_30"
>text-decoration:none;</text>

<text 
x="440" 
y="267" 
dx="0" 
class="s3_30"
>}</text>

<path d="M447.9,284c0,-1.8,-0.8,-2.7,-2.2,-2.7c-1,0,-1.8,0.5,-2.7,1.3l0,-1.1l-1.1,0l0,7.8l1.1,0l0,-5.6c0.8,-0.9,1.6,-1.4,2.3,-1.4c0.5,0,0.8,0.2,1.1,0.5c0.2,0.3,0.3,0.8,0.3,1.5l0,5l1.2,0l0,-5.3Z" class="g12_30" />
<path d="M457,287.5l0,-3.4c0,-1.8,-0.9,-2.8,-2.6,-2.8c-0.9,0,-1.9,0.3,-3,0.8l0.3,0.9c0.3,-0.2,0.7,-0.4,1.2,-0.5c0.4,-0.1,0.8,-0.2,1.1,-0.2c1.2,0,1.9,0.7,1.9,2l0,0.4l-1.3,0.1c-0.6,0,-1.1,0.1,-1.6,0.2c-0.4,0.2,-0.8,0.3,-1.1,0.5c-0.3,0.2,-0.5,0.5,-0.6,0.8c-0.2,0.3,-0.3,0.6,-0.3,1c0,0.6,0.3,1.2,0.7,1.6c0.4,0.4,0.9,0.6,1.5,0.6c1.2,0,2.1,-0.5,2.7,-1.5c0,0.5,0.1,1,0.2,1.3l1.1,0c-0.1,-0.5,-0.2,-1.1,-0.2,-1.8Zm-2.2,0.5c-0.4,0.2,-0.8,0.4,-1.2,0.4c-0.4,0,-0.7,-0.1,-1,-0.4c-0.2,-0.2,-0.3,-0.5,-0.3,-0.8c0,-0.4,0.1,-0.7,0.4,-0.9c0.3,-0.2,0.6,-0.4,1,-0.5c0.4,-0.1,1.1,-0.1,2.2,-0.2l0,1.4c-0.3,0.4,-0.7,0.7,-1.1,1Z" class="g12_30" />
<path d="M465.3,281.5l-2.2,6.2l-2.2,-6.2l-1.3,0l2.9,7.8l1.1,0l2.9,-7.8l-1.2,0Z" class="g12_30" />
<path d="M482.5,288.5l-2,0l0,-10l-4,0l0,1l2,0l0,10l4,0l0,-1Z" class="g12_30" />
<path d="M488.8,278.8c-0.1,0.2,-0.2,0.4,-0.2,0.6c0,0.2,0.1,0.4,0.2,0.5c0.2,0.2,0.4,0.3,0.6,0.3c0.2,0,0.4,-0.1,0.5,-0.3c0.2,-0.1,0.3,-0.3,0.3,-0.5c0,-0.3,-0.1,-0.4,-0.3,-0.6c-0.1,-0.2,-0.3,-0.2,-0.5,-0.2c-0.2,0,-0.4,0,-0.6,0.2Zm1.1,2.7l-3.4,0l0,1l2.3,0l0,6.8l1.1,0l0,-7.8Z" class="g12_30" />
<path d="M497.3,287.8c-0.2,0.2,-0.2,0.4,-0.2,0.7c0,0.3,0,0.5,0.2,0.7c0.2,0.2,0.4,0.3,0.7,0.3c0.2,0,0.5,-0.1,0.6,-0.3c0.2,-0.2,0.3,-0.4,0.3,-0.7c0,-0.3,-0.1,-0.5,-0.3,-0.7c-0.1,-0.1,-0.4,-0.2,-0.6,-0.2c-0.3,0,-0.5,0.1,-0.7,0.2Z" class="g12_30" />
<path d="M509.7,281.6c-0.8,-0.2,-1.5,-0.3,-2.1,-0.3c-1,0,-1.8,0.2,-2.4,0.6c-0.6,0.4,-0.9,0.9,-0.9,1.6c0,0.3,0.1,0.6,0.2,0.8c0.2,0.3,0.3,0.5,0.6,0.7c0.2,0.2,0.5,0.3,0.8,0.4c0.3,0.1,0.7,0.2,1.3,0.4c0.8,0.2,1.2,0.5,1.4,0.7c0.2,0.2,0.3,0.4,0.3,0.7c0,0.4,-0.2,0.7,-0.6,0.9c-0.4,0.3,-0.9,0.4,-1.6,0.4c-0.7,0,-1.4,-0.2,-2,-0.5l-0.3,1c0.7,0.3,1.4,0.5,2.4,0.5c1,0,1.7,-0.2,2.4,-0.7c0.6,-0.4,0.9,-1,0.9,-1.7c0,-0.4,-0.1,-0.7,-0.2,-1c-0.2,-0.3,-0.4,-0.5,-0.8,-0.7c-0.3,-0.3,-0.7,-0.4,-1.2,-0.6l-1.1,-0.3c-0.5,-0.1,-0.9,-0.3,-1.1,-0.5c-0.1,-0.1,-0.2,-0.3,-0.2,-0.5c0,-0.4,0.2,-0.7,0.5,-0.9c0.4,-0.2,0.9,-0.3,1.5,-0.3c0.6,0,1.2,0.1,1.9,0.3l0.3,-1Z" class="g12_30" />
<path d="M519.6,285.1c0,-1.2,-0.3,-2.1,-0.9,-2.8c-0.6,-0.6,-1.4,-1,-2.2,-1c-1.1,0,-1.9,0.4,-2.5,1.1c-0.6,0.8,-1,1.7,-1,3c0,1.2,0.4,2.2,1.1,3c0.7,0.7,1.6,1.1,2.8,1.1c0.9,0,1.7,-0.2,2.4,-0.5l-0.2,-0.9c-0.8,0.2,-1.5,0.4,-2.2,0.4c-0.7,0,-1.4,-0.3,-1.9,-0.9c-0.5,-0.6,-0.7,-1.3,-0.7,-2.2l5.3,0l0,-0.3Zm-5.3,-0.6c0.1,-0.7,0.3,-1.2,0.7,-1.6c0.4,-0.4,0.9,-0.6,1.5,-0.6c0.5,0,0.9,0.2,1.3,0.6c0.3,0.5,0.5,1,0.5,1.6l-4,0Z" class="g12_30" />
<path d="M527.5,288.5l-2,0l0,-10l-3,0l0,1l2,0l0,10l3,0l0,-1Z" class="g12_30" />
<path d="M537.9,285.1c0,-1.2,-0.3,-2.1,-0.9,-2.8c-0.6,-0.6,-1.3,-1,-2.2,-1c-1,0,-1.8,0.4,-2.5,1.1c-0.6,0.8,-0.9,1.7,-0.9,3c0,1.2,0.3,2.2,1,3c0.7,0.7,1.7,1.1,2.8,1.1c0.9,0,1.7,-0.2,2.4,-0.5l-0.2,-0.9c-0.7,0.2,-1.4,0.4,-2.2,0.4c-0.7,0,-1.3,-0.3,-1.8,-0.9c-0.5,-0.6,-0.8,-1.3,-0.8,-2.2l5.3,0l0,-0.3Zm-5.2,-0.6c0,-0.7,0.2,-1.2,0.6,-1.6c0.4,-0.4,0.9,-0.6,1.5,-0.6c0.5,0,0.9,0.2,1.3,0.6c0.4,0.5,0.6,1,0.6,1.6l-4,0Z" class="g12_30" />
<path d="M546.6,288.1c-0.7,0.2,-1.3,0.4,-2,0.4c-0.8,0,-1.5,-0.3,-2,-0.9c-0.5,-0.6,-0.8,-1.3,-0.8,-2.2c0,-0.9,0.3,-1.7,0.8,-2.2c0.5,-0.6,1.1,-0.9,2,-0.9c0.6,0,1.2,0.1,1.9,0.4l0.3,-1c-0.7,-0.2,-1.4,-0.4,-2.2,-0.4c-1.2,0,-2.2,0.4,-2.9,1.1c-0.7,0.8,-1.1,1.8,-1.1,3c0,1.2,0.4,2.2,1.1,3c0.7,0.7,1.7,1.1,2.9,1.1c0.8,0,1.6,-0.2,2.2,-0.5l-0.2,-0.9Z" class="g12_30" />
<path d="M555.9,288c-0.6,0.3,-1.2,0.5,-1.9,0.5c-0.3,0,-0.6,-0.2,-0.8,-0.4c-0.2,-0.3,-0.3,-0.7,-0.3,-1.1l0,-4.5l2.6,0l0,-1l-2.6,0l0,-2.1l-1.2,0l0,2.1l-1.5,0l0,1l1.5,0l0,4.8c0,1.4,0.7,2.2,2.1,2.2c0.8,0,1.5,-0.2,2.3,-0.6L555.9,288Z" class="g12_30" />
<path d="M565.4,285.1c0,-1.2,-0.3,-2.1,-0.9,-2.8c-0.6,-0.6,-1.3,-1,-2.2,-1c-1,0,-1.8,0.4,-2.5,1.1c-0.6,0.8,-0.9,1.7,-0.9,3c0,1.2,0.3,2.2,1,3c0.8,0.7,1.7,1.1,2.8,1.1c0.9,0,1.8,-0.2,2.4,-0.5l-0.2,-0.9c-0.7,0.2,-1.4,0.4,-2.2,0.4c-0.7,0,-1.3,-0.3,-1.8,-0.9c-0.5,-0.6,-0.8,-1.3,-0.8,-2.2l5.3,0l0,-0.3Zm-5.2,-0.6c0,-0.7,0.2,-1.2,0.6,-1.6c0.4,-0.4,0.9,-0.6,1.5,-0.6c0.5,0,0.9,0.2,1.3,0.6c0.4,0.5,0.6,1,0.6,1.6l-4,0Z" class="g12_30" />
<path d="M574.4,278.8l-1.2,0l0,3.7c-0.6,-0.8,-1.4,-1.2,-2.4,-1.2c-0.9,0,-1.6,0.4,-2.1,1.1c-0.6,0.8,-0.8,1.7,-0.8,2.9c0,1.2,0.2,2.2,0.7,3c0.6,0.8,1.3,1.2,2.2,1.2c0.4,0,0.9,-0.1,1.4,-0.4c0.4,-0.2,0.7,-0.6,1,-0.9l0,1.1l1.2,0l0,-10.5Zm-1.6,8.7c-0.3,0.3,-0.6,0.5,-0.9,0.7c-0.3,0.2,-0.5,0.2,-0.8,0.2c-0.7,0,-1.1,-0.3,-1.5,-0.8c-0.3,-0.6,-0.5,-1.4,-0.5,-2.3c0,-0.8,0.2,-1.5,0.6,-2.1c0.3,-0.6,0.8,-0.9,1.5,-0.9c0.8,0,1.4,0.5,2,1.4l0,3.2c0,0.1,-0.1,0.3,-0.4,0.6Z" class="g12_30" />
<text 
x="440" 
y="289" 
dx="0,0,0,0,-1.8,0,0,0,0,0,0,0,0,0,0" 
class="s3_30"
>nav li.selected</text>

<path d="M586.2,290.9l-0.2,0c-0.5,0,-0.8,-0.1,-1,-0.3c-0.2,-0.2,-0.3,-0.7,-0.3,-1.5l0,-0.4c0,-1.1,-0.1,-1.8,-0.3,-2.3c-0.3,-0.5,-0.7,-0.9,-1.3,-1.1c0.6,-0.2,1,-0.6,1.3,-1.1c0.2,-0.5,0.3,-1.2,0.3,-2.3l0,-0.4c0,-0.8,0.1,-1.3,0.3,-1.5c0.2,-0.2,0.5,-0.3,1,-0.3l0.2,0l0,-0.9l-0.6,0c-0.7,0,-1.2,0.1,-1.6,0.5c-0.3,0.4,-0.4,1.1,-0.4,2.2l0,0.7c0,0.9,-0.2,1.6,-0.4,1.9c-0.2,0.4,-0.6,0.6,-1.2,0.6l0,1.2c0.6,0,1,0.2,1.2,0.5c0.2,0.4,0.4,1.1,0.4,2l0,0.7c0,1.1,0.1,1.8,0.4,2.2c0.4,0.3,0.9,0.5,1.6,0.5l0.6,0l0,-0.9Z" class="g12_30" />
<text 
x="579" 
y="289" 
dx="0" 
class="s3_30"
>{</text>

<path d="M447.6,309.5c-0.7,0.2,-1.3,0.4,-2,0.4c-0.8,0,-1.5,-0.3,-2,-0.9c-0.5,-0.6,-0.8,-1.3,-0.8,-2.2c0,-1,0.3,-1.7,0.8,-2.3c0.5,-0.5,1.1,-0.8,2,-0.8c0.6,0,1.2,0.1,1.9,0.4l0.3,-1c-0.7,-0.3,-1.5,-0.4,-2.2,-0.4c-1.2,0,-2.2,0.4,-2.9,1.1c-0.8,0.8,-1.1,1.8,-1.1,3c0,1.2,0.3,2.2,1.1,3c0.7,0.7,1.7,1.1,2.9,1.1c0.8,0,1.6,-0.2,2.2,-0.5l-0.2,-0.9Z" class="g12_30" />
<path d="M451.5,303.8c-0.7,0.8,-1,1.7,-1,3c0,1.2,0.3,2.2,1,2.9c0.6,0.8,1.4,1.2,2.5,1.2c1.1,0,1.9,-0.4,2.6,-1.2c0.6,-0.7,0.9,-1.7,0.9,-2.9c0,-1.2,-0.3,-2.2,-0.9,-3c-0.7,-0.7,-1.5,-1.1,-2.6,-1.1c-1.1,0,-1.9,0.4,-2.5,1.1Zm0.8,5.2c-0.4,-0.6,-0.6,-1.3,-0.6,-2.2c0,-0.9,0.2,-1.7,0.6,-2.2c0.4,-0.6,1,-0.9,1.7,-0.9c0.7,0,1.3,0.3,1.7,0.9c0.4,0.6,0.6,1.3,0.6,2.2c0,0.8,-0.2,1.6,-0.6,2.2c-0.4,0.6,-1,0.9,-1.7,0.9c-0.7,0,-1.3,-0.3,-1.7,-0.9Z" class="g12_30" />
<path d="M465.5,309.5l-2,0l0,-9l-3,0l0,1l2,0l0,9l3,0l0,-1Z" class="g12_30" />
<path d="M469.8,303.8c-0.6,0.8,-0.9,1.7,-0.9,3c0,1.2,0.3,2.2,0.9,2.9c0.6,0.8,1.5,1.2,2.6,1.2c1,0,1.9,-0.4,2.5,-1.2c0.6,-0.7,0.9,-1.7,0.9,-2.9c0,-1.2,-0.3,-2.2,-0.9,-3c-0.6,-0.7,-1.5,-1.1,-2.5,-1.1c-1.1,0,-2,0.4,-2.6,1.1Zm0.9,5.2c-0.4,-0.6,-0.6,-1.3,-0.6,-2.2c0,-0.9,0.2,-1.7,0.6,-2.2c0.4,-0.6,0.9,-0.9,1.7,-0.9c0.7,0,1.2,0.3,1.6,0.9c0.4,0.6,0.6,1.3,0.6,2.2c0,0.8,-0.2,1.6,-0.6,2.2c-0.4,0.6,-0.9,0.9,-1.6,0.9c-0.8,0,-1.3,-0.3,-1.7,-0.9Z" class="g12_30" />
<path d="M482.9,302.7c-0.9,0,-1.8,0.6,-2.4,1.8l0,-1.6l-1.1,0l0,7.8l1.1,0l0,-5.1c0,0,0.2,-0.2,0.4,-0.6c0.3,-0.3,0.6,-0.6,0.9,-0.8c0.4,-0.2,0.7,-0.3,1.1,-0.3c0.3,0,0.8,0.1,1.3,0.3l0.5,-1.1c-0.6,-0.3,-1.2,-0.4,-1.8,-0.4Z" class="g12_30" />
<path d="M490,303c-0.2,0.2,-0.3,0.4,-0.3,0.7c0,0.2,0.1,0.4,0.3,0.6c0.2,0.2,0.4,0.3,0.6,0.3c0.3,0,0.5,-0.1,0.7,-0.3c0.1,-0.2,0.2,-0.4,0.2,-0.6c0,-0.3,-0.1,-0.5,-0.2,-0.7c-0.2,-0.1,-0.4,-0.2,-0.7,-0.2c-0.2,0,-0.4,0.1,-0.6,0.2Zm0,6.3c-0.2,0.1,-0.3,0.4,-0.3,0.6c0,0.3,0.1,0.5,0.3,0.6c0.2,0.2,0.4,0.3,0.6,0.3c0.3,0,0.5,-0.1,0.7,-0.3c0.1,-0.1,0.2,-0.3,0.2,-0.6c0,-0.2,-0.1,-0.5,-0.2,-0.6c-0.2,-0.2,-0.4,-0.3,-0.7,-0.3c-0.2,0,-0.4,0.1,-0.6,0.3Z" class="g12_30" />
<text 
x="440" 
y="310" 
dx="0,0,0,0,0,0" 
class="s3_30"
>color:</text>

<path d="M507.2,306.7l-2.1,0l0.5,-2.6l1.6,0l0,-1l-1.4,0l0.7,-3l-1.1,0l-0.6,3l-2,0l0.6,-3l-1,0l-0.7,3l-2.4,0l0,1l2.2,0l-0.5,2.6l-1.7,0l0,1l1.5,0l-0.7,3l1.1,0l0.6,-3l2,0l-0.6,3l1,0l0.7,-3l2.3,0l0,-1Zm-3.2,0l-2,0l0.6,-2.6l2,0l-0.6,2.6Z" class="g12_30" />
<path d="M511.2,302.2c0.5,-0.8,1.1,-1.2,1.9,-1.2c0.6,0,1.2,0.1,1.9,0.4l0.2,-1.1c-0.6,-0.2,-1.3,-0.4,-2.1,-0.4c-1.2,0,-2.1,0.6,-2.8,1.6c-0.7,1.1,-1.1,2.4,-1.1,4c0,1.5,0.4,2.8,1,3.8c0.7,1.1,1.6,1.6,2.7,1.6c0.9,0,1.6,-0.4,2.1,-1c0.5,-0.6,0.8,-1.5,0.8,-2.5c0,-0.9,-0.3,-1.6,-0.9,-2.2c-0.6,-0.5,-1.3,-0.8,-2.2,-0.8c-0.8,0,-1.5,0.3,-2.2,0.8c0,-1.2,0.3,-2.2,0.7,-3Zm1.5,3.3c0.5,0,1,0.1,1.3,0.5c0.3,0.4,0.5,0.9,0.5,1.6c0,0.7,-0.1,1.2,-0.4,1.6c-0.3,0.4,-0.7,0.6,-1.3,0.6c-0.6,0,-1.2,-0.4,-1.6,-1.1c-0.4,-0.7,-0.6,-1.6,-0.6,-2.5c0.6,-0.5,1.3,-0.7,2.1,-0.7Z" class="g12_30" />
<path d="M519,301.4c-0.6,1,-0.9,2.3,-0.9,4c0,1.7,0.3,3.1,0.9,4c0.6,1,1.5,1.5,2.6,1.5c1.1,0,2,-0.5,2.6,-1.5c0.6,-1,0.8,-2.3,0.8,-4c0,-1.7,-0.3,-3.1,-0.9,-4c-0.6,-1,-1.4,-1.5,-2.5,-1.5c-1.2,0,-2,0.5,-2.6,1.5Zm0.9,7.3c-0.3,-0.7,-0.5,-1.8,-0.5,-3.3c0,-1.5,0.2,-2.6,0.5,-3.3c0.4,-0.7,0.9,-1.1,1.7,-1.1c0.7,0,1.3,0.4,1.6,1.1c0.4,0.7,0.5,1.8,0.5,3.3c0,1.5,-0.1,2.6,-0.5,3.3c-0.3,0.7,-0.9,1.1,-1.6,1.1c-0.8,0,-1.3,-0.4,-1.7,-1.1Zm0.9,-4.1c-0.3,0.2,-0.4,0.5,-0.4,0.8c0,0.3,0.1,0.6,0.4,0.8c0.2,0.3,0.4,0.4,0.7,0.4c0.4,0,0.6,-0.1,0.8,-0.4c0.3,-0.2,0.4,-0.5,0.4,-0.8c0,-0.3,-0.1,-0.6,-0.4,-0.8c-0.2,-0.2,-0.4,-0.3,-0.8,-0.3c-0.3,0,-0.5,0.1,-0.7,0.3Z" class="g12_30" />
<path d="M529.6,302.2c0.4,-0.8,1,-1.2,1.9,-1.2c0.5,0,1.2,0.1,1.8,0.4l0.2,-1.1c-0.6,-0.2,-1.3,-0.4,-2.1,-0.4c-1.2,0,-2.1,0.6,-2.8,1.6c-0.7,1.1,-1,2.4,-1,4c0,1.5,0.3,2.8,1,3.8c0.6,1.1,1.5,1.6,2.6,1.6c0.9,0,1.6,-0.4,2.1,-1c0.6,-0.6,0.8,-1.5,0.8,-2.5c0,-0.9,-0.3,-1.6,-0.9,-2.2c-0.5,-0.5,-1.3,-0.8,-2.2,-0.8c-0.8,0,-1.5,0.3,-2.1,0.8c0,-1.2,0.2,-2.2,0.7,-3Zm1.4,3.3c0.6,0,1,0.1,1.4,0.5c0.3,0.4,0.4,0.9,0.4,1.6c0,0.7,-0.1,1.2,-0.4,1.6c-0.3,0.4,-0.7,0.6,-1.3,0.6c-0.6,0,-1.1,-0.4,-1.6,-1.1c-0.4,-0.7,-0.6,-1.6,-0.6,-2.5c0.6,-0.5,1.3,-0.7,2.1,-0.7Z" class="g12_30" />
<path d="M537.3,301.4c-0.6,1,-0.9,2.3,-0.9,4c0,1.7,0.3,3.1,0.9,4c0.6,1,1.5,1.5,2.6,1.5c1.2,0,2,-0.5,2.6,-1.5c0.6,-1,0.9,-2.3,0.9,-4c0,-1.7,-0.3,-3.1,-0.9,-4c-0.6,-1,-1.5,-1.5,-2.6,-1.5c-1.1,0,-2,0.5,-2.6,1.5Zm1,7.3c-0.4,-0.7,-0.6,-1.8,-0.6,-3.3c0,-1.5,0.2,-2.6,0.6,-3.3c0.3,-0.7,0.9,-1.1,1.6,-1.1c0.7,0,1.3,0.4,1.6,1.1c0.4,0.7,0.6,1.8,0.6,3.3c0,1.5,-0.2,2.6,-0.6,3.3c-0.3,0.7,-0.9,1.1,-1.6,1.1c-0.7,0,-1.3,-0.4,-1.6,-1.1Zm0.8,-4.1c-0.2,0.2,-0.3,0.5,-0.3,0.8c0,0.3,0.1,0.6,0.3,0.8c0.2,0.3,0.5,0.4,0.8,0.4c0.3,0,0.6,-0.1,0.8,-0.4c0.2,-0.2,0.3,-0.5,0.3,-0.8c0,-0.3,-0.1,-0.6,-0.3,-0.8c-0.2,-0.2,-0.5,-0.3,-0.8,-0.3c-0.3,0,-0.6,0.1,-0.8,0.3Z" class="g12_30" />
<path d="M547.9,302.2c0.4,-0.8,1.1,-1.2,1.9,-1.2c0.6,0,1.2,0.1,1.9,0.4l0.2,-1.1c-0.6,-0.2,-1.3,-0.4,-2.2,-0.4c-1.1,0,-2.1,0.6,-2.8,1.6c-0.6,1.1,-1,2.4,-1,4c0,1.5,0.3,2.8,1,3.8c0.7,1.1,1.5,1.6,2.7,1.6c0.9,0,1.6,-0.4,2.1,-1c0.5,-0.6,0.8,-1.5,0.8,-2.5c0,-0.9,-0.3,-1.6,-0.9,-2.2c-0.6,-0.5,-1.4,-0.8,-2.2,-0.8c-0.8,0,-1.5,0.3,-2.2,0.8c0,-1.2,0.2,-2.2,0.7,-3Zm1.4,3.3c0.6,0,1.1,0.1,1.4,0.5c0.3,0.4,0.5,0.9,0.5,1.6c0,0.7,-0.2,1.2,-0.5,1.6c-0.3,0.4,-0.7,0.6,-1.2,0.6c-0.7,0,-1.2,-0.4,-1.6,-1.1c-0.4,-0.7,-0.6,-1.6,-0.6,-2.5c0.6,-0.5,1.3,-0.7,2,-0.7Z" class="g12_30" />
<path d="M555.7,301.4c-0.6,1,-0.9,2.3,-0.9,4c0,1.7,0.3,3.1,0.9,4c0.6,1,1.4,1.5,2.5,1.5c1.2,0,2.1,-0.5,2.6,-1.5c0.6,-1,0.9,-2.3,0.9,-4c0,-1.7,-0.3,-3.1,-0.9,-4c-0.6,-1,-1.4,-1.5,-2.6,-1.5c-1.1,0,-2,0.5,-2.5,1.5Zm0.9,7.3c-0.3,-0.7,-0.5,-1.8,-0.5,-3.3c0,-1.5,0.2,-2.6,0.5,-3.3c0.4,-0.7,0.9,-1.1,1.6,-1.1c0.8,0,1.3,0.4,1.7,1.1c0.3,0.7,0.5,1.8,0.5,3.3c0,1.5,-0.2,2.6,-0.5,3.3c-0.4,0.7,-0.9,1.1,-1.7,1.1c-0.7,0,-1.2,-0.4,-1.6,-1.1Zm0.8,-4.1c-0.2,0.2,-0.3,0.5,-0.3,0.8c0,0.3,0.1,0.6,0.3,0.8c0.3,0.3,0.5,0.4,0.8,0.4c0.3,0,0.6,-0.1,0.8,-0.4c0.2,-0.2,0.3,-0.5,0.3,-0.8c0,-0.3,-0.1,-0.6,-0.3,-0.8c-0.2,-0.2,-0.5,-0.3,-0.8,-0.3c-0.3,0,-0.6,0.1,-0.8,0.3Z" class="g12_30" />
<path d="M566.8,303c-0.2,0.2,-0.3,0.4,-0.3,0.7c0,0.2,0.1,0.4,0.3,0.6c0.2,0.2,0.4,0.3,0.6,0.3c0.3,0,0.5,-0.1,0.7,-0.3c0.1,-0.2,0.2,-0.4,0.2,-0.6c0,-0.3,-0.1,-0.5,-0.2,-0.7c-0.2,-0.1,-0.4,-0.2,-0.7,-0.2c-0.2,0,-0.4,0.1,-0.6,0.2Zm-0.3,8.9l0.3,0.6c1.1,-0.6,1.6,-1.4,1.6,-2.3c0,-0.3,-0.1,-0.6,-0.3,-0.8c-0.2,-0.3,-0.4,-0.4,-0.7,-0.4c-0.2,0,-0.4,0.1,-0.6,0.3c-0.2,0.2,-0.3,0.4,-0.3,0.6c0,0.3,0.1,0.5,0.3,0.6c0.2,0.2,0.4,0.3,0.6,0.4c0,0.4,-0.3,0.7,-0.9,1Z" class="g12_30" />
<text 
x="498" 
y="310" 
dx="0,0,0,0,0,0,0,0" 
class="s3_30"
>#606060;</text>

<path d="M446.7,327.5c-0.6,0,-1,-0.2,-1.2,-0.7c-0.2,-0.4,-0.3,-1,-0.3,-1.8l0,-0.8c0,-1,-0.2,-1.7,-0.5,-2.1c-0.3,-0.4,-0.8,-0.6,-1.5,-0.6l-0.6,0l0,1l0.2,0c0.5,0,0.8,0.1,1,0.3c0.1,0.2,0.2,0.7,0.2,1.4l0,0.5c0,1,0.2,1.8,0.4,2.3c0.2,0.5,0.6,0.8,1.2,1.1c-0.6,0.2,-1,0.6,-1.2,1.1c-0.2,0.4,-0.4,1.2,-0.4,2.2l0,0.5c0,0.8,-0.1,1.2,-0.2,1.4c-0.2,0.2,-0.5,0.3,-1,0.3l-0.2,0l0,1l0.6,0c0.7,0,1.2,-0.2,1.5,-0.6c0.3,-0.4,0.5,-1.1,0.5,-2.1l0,-0.7c0,-1,0.1,-1.6,0.4,-2c0.2,-0.3,0.6,-0.5,1.1,-0.5l0,-1.2Z" class="g12_30" />
<text 
x="440" 
y="332" 
dx="0" 
class="s3_30"
>}</text>

<text 
transform="matrix(0.98, 0, 0, 1, 589, 642)"
dx="0,0,0,0,-1.8,0,0,-1.8,0,0,0,0,0,0,0,-1.8" 
class="s3_30"
>nav li a:hover {</text>

<text 
transform="matrix(0.98, 0, 0, 1, 589, 663)"
dx="0,2.1,2.1,2.1,2.1,2.1,2.1,2.1,2.1,2.1,2.1,2.1,2.1,2.1,2.1,2.1,0" 
class="s3_30"
>text-decoration: </text>

<text 
transform="matrix(0.98, 0, 0, 1, 589, 684)"
dx="0,0,0,0,0,0,0,0,0,0" 
class="s3_30"
>underline;</text>

<text 
transform="matrix(0.98, 0, 0, 1, 589, 706)"
dx="0" 
class="s3_30"
>}</text>

<text 
x="152" 
y="545" 
dx="0,0,0,0,-1.8,0,0,0,0,0,0,0,0,0,0" 
class="s3_30"
>nav li.selected</text>

<text 
x="291" 
y="545" 
dx="0,0,0,0,0,0,-0.9" 
class="s2_30"
>means “</text>

<text 
x="346" 
y="545" 
dx="0,0" 
class="s3_30"
>li</text>

<text 
x="368" 
y="545" 
dx="0,0,0,0,0,0,0,0,0,-0.9,0,0,0,0,-0.9,0,-0.9,0,0,0,0,0,-0.9,0,0" 
class="s2_30"
>elements with a class of </text>

<text 
x="531" 
y="545" 
dx="0,0,0,0,0,0,0,0" 
class="s3_30"
>selected</text>

<text 
x="607" 
y="545" 
dx="0,0,0,0,0,0,0" 
class="s2_30"
>inside </text>

<text 
x="651" 
y="545" 
dx="0,0,0" 
class="s3_30"
>nav</text>

<text 
x="682" 
y="545" 
dx="0,0,0,0,0,0,0,0,0" 
class="s2_30"
>elements"</text>

<text 
x="143" 
y="503" 
dx="0,-2.1,-2.1,-2.9,-1.8,0,0,-2.6,-2.1" 
class="s9_30"
>NINJA TIP</text>

<text 
transform="matrix(0.98, 0, 0, 1, 879, 64)"
dx="0,0,0,2.3,0,2.3,0,0,0,2.3,0,0,2.3,0,0,0,0,0,2.3,0,0,0,2.3,0,0,0,0,2.3,0,0,0.3,0,0,0,0,0,0,0" 
class="s2_30"
>So a set of rules for link formatting </text>

<text 
transform="matrix(0.98, 0, 0, 1, 879, 86)"
dx="0,0,0,0,0,0,-0.9,0,0,0,0,-0.9,0,0,0,0,-0.9,0,0,0,0" 
class="s2_30"
>might look like this:</text>

<text 
x="879" 
y="481" 
dx="0,-2.2,-1.7,0,0,-3,-2.4,0,0,-1.8,-1.9,0,0,-1.7,-1.9,-1.8,-2.5" 
class="s9_30"
>The CSS box model</text>

<text 
transform="matrix(0.98, 0, 0, 1, 879, 503)"
dx="0,0,0,0,0,-0.2,0,0,0,0,-0.3,0,-0.2,0,0,0,0,0,0,0,-0.2,0,0,0,0,-0.2,0,0,0,0,-0.2,0,0,0,0,0,-0.2,0,0,0,0,-0.2,0,0,0,-0.2,0,0,0,0,0,0,0,0,0,0,-0.2,0,0,0,-0.3,0" 
class="s2_30"
>When you’re styling your page using your CSS stylesheet there </text>

<text 
transform="matrix(0.98, 0, 0, 1, 879, 524)"
dx="0,0,0,1.8,0,1.8,0,0,0,-0.3,0,0,1.8,0,0,1.8,0,0,0,0,0,0,0,0,0,0,0,0,0,1.8,0,0,0,1.8,0,0,0,1.8,0,0,0,0,0,1.8,0,1.8,0,0,-1.1,0,1.8,0,0,0,0,0,0,1.8,0,0,0" 
class="s2_30"
>is a secret to understanding how CSS works – it’s called the </text>

<text 
transform="matrix(0.98, 0, 0, 1, 879, 545)"
dx="0,0,0,0,-0.4,0,-0.5,0,-0.4,0,0,0,0" 
class="s4_30"
>CSS box model</text>

<text 
transform="matrix(0.98, 0, 0, 1, 988, 545)"
dx="0,0,-0.4,0,0,0,-0.4,0,0,0,-0.4,0,0,0,0,0,-0.4,0,0,0,0,0,-0.4,0,0,-0.4,0,0,0,0,0,0,0,0,0,-0.4,0,0,0,0,-0.4,0,0,0,0.3,0" 
class="s2_30"
>. The box model works by imagining that every </text>

<text 
transform="matrix(0.98, 0, 0, 1, 879, 567)"
dx="0,0,0,0,0,-0.9,0,0,0,0,0,0,0,-0.9,0,0,-0.9,0,0,0,0,0,0,-0.9,0,-0.9,0,0,0,0,-0.9,0,0,0,0,-0.9,0,0,0,-0.9,0,0,0,0,0,0,0,0,-0.9,0,0,-0.3,0,0,-0.9,-0.3,0,0,0,0,0,0" 
class="s2_30"
>HTML element is inside a box. This box contains three regions:</text>

<text 
transform="matrix(0.98, 0, 0, 1, 879, 588)"
dx="0" 
class="s10_30"
>[</text>

<text 
transform="matrix(0.98, 0, 0, 1, 906, 588)"
dx="0,0,0,0,0,0,0" 
class="s2_30"
>padding</text>

<text 
transform="matrix(0.98, 0, 0, 1, 879, 610)"
dx="0" 
class="s10_30"
>[</text>

<text 
transform="matrix(0.98, 0, 0, 1, 906, 610)"
dx="0,0,0,-0.3,0,0" 
class="s2_30"
>border</text>

<text 
transform="matrix(0.98, 0, 0, 1, 879, 631)"
dx="0" 
class="s10_30"
>[</text>

<text 
transform="matrix(0.98, 0, 0, 1, 906, 631)"
dx="0,0,0,0,0,0,0,-0.9,0,-0.9,0,0,0,0,0,0,0,-0.9,0,0,0,0,0,0,0,-0.9,0,0,0,0,-0.9,0,0,0,-0.9,0,0,0,-0.9,0,0,0,-0.9,0,0,0,0,-0.9,0,0" 
class="s2_30"
>margin – spacing between this box and the next box</text>

<text 
transform="matrix(0.98, 0, 0, 1, 879, 652)"
dx="0,0,0,0,0,-0.9,0,0,-0.9,0,0,0,0,0,-0.9,0,0,0,0,-0.8" 
class="s2_30"
>This is shown below.</text>

<text 
x="1050" 
y="695" 
dx="0,0,0,0,-0.9,0,0,-0.2,0,0" 
class="s4_30"
>top margin</text>

<text 
x="1033" 
y="909" 
dx="0,0,0,0,0,0,0,-0.9,0,0,-0.1,0,0,0" 
class="s4_30"
>bottom padding</text>

<text 
transform="matrix(0, 1, -1, 0, 1282, 800)"
dx="0,0,0,0,0,0,-0.9,0,0,-0.2,0,0" 
class="s4_30"
>right margin</text>

<text 
transform="matrix(0, -1, 1, 0, 899, 885)"
dx="0,0,0,0,0,-0.9,0,0,-0.2,0,0" 
class="s4_30"
>left margin</text>

<text 
x="1051" 
y="738" 
dx="0,0,0,0,-0.9,0,0,-0.3,0,0" 
class="s4_30"
>top border</text>

<text 
x="1037" 
y="952" 
dx="0,0,0,0,0,0,0,-0.9,0,0,-0.3,0,0" 
class="s4_30"
>bottom border</text>

<text 
transform="matrix(0, 1, -1, 0, 1225, 802)"
dx="0,0,0,0,0,0,-0.9,0,0,-0.3,0,0" 
class="s4_30"
>right border</text>

<text 
transform="matrix(0, -1, 1, 0, 955, 882)"
dx="0,0,0,0,0,-0.9,0,0,-0.3,0,0" 
class="s4_30"
>left border</text>

<text 
x="1045" 
y="781" 
dx="0,0,0,0,-0.9,0,0,-0.1,0,0,0" 
class="s4_30"
>top padding</text>

<text 
x="1036" 
y="995" 
dx="0,0,0,0,0,0,0,-0.9,0,0,-0.2,0,0" 
class="s4_30"
>bottom margin</text>

<text 
transform="matrix(0, 1, -1, 0, 1172, 797)"
dx="0,0,0,0,0,0,-0.9,0,0,-0.1,0,0,0" 
class="s4_30"
>right padding</text>

<text 
transform="matrix(0, -1, 1, 0, 1005, 888)"
dx="0,0,0,0,0,-0.9,0,0,-0.1,0,0,0" 
class="s4_30"
>left padding</text>

<text 
x="1061" 
y="845" 
dx="0,0,0,0,0,0,0" 
class="s4_30"
>content</text>

<text 
x="879" 
y="139" 
dx="0,0,0,0,0,0,0,-1.8" 
class="s3_30"
>a:link {</text>

<text 
x="879" 
y="160" 
dx="0,0,0,0,0,0,0,-1.8,0,0,0,0" 
class="s3_30"
>color: blue;</text>

<text 
x="879" 
y="182" 
dx="0" 
class="s3_30"
>}</text>

<text 
x="879" 
y="203" 
dx="0,0,0,0,0,0,0,0,0,0,-1.8" 
class="s3_30"
>a:visited {</text>

<text 
x="879" 
y="225" 
dx="0,0,0,0,0,0,0,-1.8,0,0,0,0,0,0" 
class="s3_30"
>color: purple;</text>

<text 
x="879" 
y="246" 
dx="0" 
class="s3_30"
>}</text>

<text 
x="879" 
y="267" 
dx="0,0,0,0,0,0,0,0,-1.8" 
class="s3_30"
>a:hover {</text>

<text 
x="879" 
y="289" 
dx="0,0,0,0,0,0,0,0,0,0,0,0,0,0,0,0,0,-1.8,0,0,0,0,0,0,0,0,0" 
class="s3_30"
>text-decoration: underline;</text>

<text 
x="879" 
y="310" 
dx="0" 
class="s3_30"
>}</text>

<text 
x="879" 
y="332" 
dx="0,0,0,0,0,0,0,0,0,-1.8" 
class="s3_30"
>a:active {</text>

<text 
x="879" 
y="353" 
dx="0,0,0,0,0,0,0,0,0,0,0,0,0,0,0,0,0,-1.8,0,0,0,0,0,0,0,0,0" 
class="s3_30"
>text-decoration: underline;</text>

<text 
x="879" 
y="374" 
dx="0,0,0,0,0,0,0,0,0,0,0,0,0,0,0,0,0,0,-1.8,0,0,0,0,0" 
class="s3_30"
>background-color: black;</text>

<text 
x="879" 
y="396" 
dx="0,0,0,0,0,0,0,-1.8,0,0,0,0,0" 
class="s3_30"
>color: white;</text>

<text 
x="879" 
y="417" 
dx="0" 
class="s3_30"
>}</text>

<text 
x="1171" 
y="235" 
dx="0" 
class="s10_30"
>[</text>

<text 
x="1199" 
y="235" 
dx="0,0,0,0,0,1.4,0,-0.3,0,0,0,0,1.4,0,0,0,0,1.4,0,0,0,1.4,0,0,0,0,0,0,0" 
class="s2_30"
>Play around with the various </text>

<text 
x="1199" 
y="257" 
dx="0,0,0,0,0,0,0,0,-0.9,0,0,0,-0.9,0,0,0.3,0,0,0,0,0,0,0,-0.9,0,0,0,0,0" 
class="s2_30"
>options for formatting links.</text>

<text 
x="1171" 
y="278" 
dx="0" 
class="s10_30"
>[</text>

<text 
x="1199" 
y="278" 
dx="0,0,0,0,0,3.4,0,0,0,0,3.4,0,0,0,0,0,0,0,3.4,0,0,3.4,0,0,0" 
class="s2_30"
>Make some changes to the </text>

<text 
x="1199" 
y="299" 
dx="0,0,0,0,0,0,0.3,0,0,0.3,0,0,0,0.3,0,0,0,0,0,0,0,0.3,0,0,0,0.3,0,0,0" 
class="s2_30"
>rules in the example and see </text>

<text 
x="1199" 
y="321" 
dx="0,0,0,0,0,-0.9,0,-0.3,0,0,0,0,-0.9,0,0,-0.9,0,0,0,-0.9,0,0,-0.9,0,0,0,0,-0.9,0,0,0,0" 
class="s2_30"
>what effect it has on your site.</text>

<text 
x="1165" 
y="198" 
dx="0,-2.2,-2.1,-2.1,-1.8,-2.5,0,0,-2.2,0,0,-1.8,0,0,-1.7,-2.8,-2.4" 
class="s9_30"
>Things to do next</text>

<path d="M1159,51l0,5l-4,0l0,90l4,0l0,5l440,0l0,-5l4,0l0,-90l-4,0l0,-5Z" class="g13_30" />
<text 
x="1173" 
y="128" 
dx="0,-11.6,-7.1,-7.1,-8.5,-6.5,-5.8,-9.7,0" 
class="s11_30"
>FINISHED!</text>

<path d="M418,285l0,4l-4,0l0,4l-4,0l0,5l-4,0l0,4l-4,0l0,-4l0,-5l0,-4l0,-4l0,-4l0,-4l0,-4l0,-4l0,-4l4,0l0,4l4,0l0,4l4,0l0,4l4,0l0,4l4,0l0,4Z" class="g13_30" />
<path d="M577,671l0,4l-4,0l0,4l-5,0l0,4l-4,0l0,4l-4,0l0,-4l0,-4l0,-4l0,-4l0,-4l0,-4l0,-4l0,-4l0,-4l4,0l0,4l4,0l0,4l5,0l0,4l4,0l0,4l4,0l0,4Z" class="g13_30" />
<path d="M1087,678l-4,0l0,-4l-4,0l0,-5l-4,0l0,-4l-4,0l0,-4l4,0l4,0l4,0l4,0l4,0l4,0l4,0l4,0l4,0l0,4l-4,0l0,4l-4,0l0,5l-4,0l0,4l-4,0l0,4l-4,0Z" class="g13_30" />
<path d="M999,113l-4,0l0,-4l-4,0l0,-4l-4,0l0,-4l-4,0l0,-4l4,0l4,0l4,0l4,0l4,0l4,0l4,0l4,0l4,0l0,4l-4,0l0,4l-4,0l0,4l-4,0l0,4l-4,0l0,4l-4,0Z" class="g13_30" />
<path d="M46,177l0,4l-4,0l0,19l737,0l0,-19l-4,0l0,-4Z" class="g13_30" />
<text 
transform="matrix(0.98, 0, 0, 1, 55, 193)"
dx="0,0,0,0,0,0,0,0,0,0,0,0,0,0,0,0,0,0,0,0,0,0,0" 
class="s12_30"
>my-first-stylesheet.css</text>

<text 
x="1590" 
y="1019" 
dx="0,-1.5" 
class="s13_30"
>59</text>

<text 
x="35" 
y="1019" 
dx="0,-1.3" 
class="s13_30"
>58</text>



<!-- Any embedded fonts defined here -->
<style type="text/css" ><![CDATA[

@font-face {
	font-family: Helvetica-Light_qh;
	src: url("fonts/Helvetica-Light_qh.woff") format("woff");
}

@font-face {
	font-family: Helvetica-Light_q9;
	src: url("fonts/Helvetica-Light_q9.woff") format("woff");
}

@font-face {
	font-family: AndaleMono_1cn;
	src: url("fonts/AndaleMono_1cn.woff") format("woff");
}

@font-face {
	font-family: Helvetica-Light_qd;
	src: url("fonts/Helvetica-Light_qd.woff") format("woff");
}

@font-face {
	font-family: Helvetica-Light_qt;
	src: url("fonts/Helvetica-Light_qt.woff") format("woff");
}

@font-face {
	font-family: Helvetica-Light_q5;
	src: url("fonts/Helvetica-Light_q5.woff") format("woff");
}

@font-face {
	font-family: Helvetica-Light_1by;
	src: url("fonts/Helvetica-Light_1by.woff") format("woff");
}

@font-face {
	font-family: PixelSplitter-Bold_1bs;
	src: url("fonts/PixelSplitter-Bold_1bs.woff") format("woff");
}

@font-face {
	font-family: Helvetica-Bold_1bu;
	src: url("fonts/Helvetica-Bold_1bu.woff") format("woff");
}

@font-face {
	font-family: PixelSplitter-Bold_qn;
	src: url("fonts/PixelSplitter-Bold_qn.woff") format("woff");
}

@font-face {
	font-family: Wingdings-Regular_1c4;
	src: url("fonts/Wingdings-Regular_1c4.woff") format("woff");
}

]]></style>

</svg>
