<?xml version="1.0" encoding="UTF-8" standalone="no"?>
<!DOCTYPE svg PUBLIC "-//W3C//DTD SVG 1.1//EN"
"http://www.w3.org/Graphics/SVG/1.1/DTD/svg11.dtd">


<!-- Page 31 -->
<svg x="0" y="0" width="1645" height="1061" viewBox="0 0 1645 1061" version="1.1" xmlns="http://www.w3.org/2000/svg" xmlns:xlink="http://www.w3.org/1999/xlink"
style="display: block;margin-left: auto;margin-right: auto;">
<defs>
<clipPath id="c0_31"><path d="M1230.8,798.9c-6.3,-0.9,-6.3,-7.7,-6.3,-7.7l0,-260.7l368.7,0l0,260.7c0,6,-4.6,7.4,-6.7,7.7Z" /></clipPath>
<clipPath id="c1_31"><path d="M85.8,380.3c-21.6,0,-21.6,-21.6,-21.6,-21.6l0,-74.7c0,-21.6,21.6,-21.6,21.6,-21.6l652.8,0c21.7,0,21.7,21.6,21.7,21.6l0,74.7c0,21.6,-21.7,21.6,-21.7,21.6Z" /></clipPath>

<style type="text/css"><![CDATA[

.g25_31{
fill: #989797;
}
.g28_31{
fill: none;
stroke: #FFFFFF;
stroke-width: 2;
stroke-linecap: round;
stroke-linejoin: round;
stroke-miterlimit: 4;
}
.g5_31{
fill: #BCBEC0;
}
.g6_31{
fill: #FEBF3B;
}
.g32_31{
fill: none;
stroke: #000000;
stroke-width: 5;
stroke-linecap: butt;
stroke-linejoin: miter;
stroke-miterlimit: 4;
}
.g31_31{
fill: none;
stroke: #FFF200;
stroke-width: 4;
stroke-linecap: butt;
stroke-linejoin: miter;
}
.g38_31{
fill: none;
stroke: #000000;
stroke-width: 2;
stroke-linecap: butt;
stroke-linejoin: miter;
stroke-miterlimit: 4;
}
.g23_31{
fill: #E7DEEC;
}
.g33_31{
fill: #11151D;
}
.g8_31{
fill: #DEDDDC;
}
.g27_31{
fill: none;
stroke: #FFFFFF;
stroke-width: 1;
stroke-linecap: round;
stroke-linejoin: round;
}
.g29_31{
fill: #ED1D24;
}
.g7_31{
fill: #5C2212;
}
.g1_31{
fill: #FFFFFF;
}
.g10_31{
fill: #2F499B;
}
.g19_31{
fill: #66805C;
}
.g9_31{
fill: #8F9193;
}
.g11_31{
fill: #486D42;
}
.g20_31{
fill: #F89A4B;
}
.g22_31{
fill: #FAAD60;
}
.g34_31{
fill: none;
stroke: #11151D;
stroke-width: 1;
stroke-linecap: butt;
stroke-linejoin: miter;
stroke-miterlimit: 4;
}
.g24_31{
fill: none;
stroke: #989898;
stroke-width: 5;
stroke-linecap: butt;
stroke-linejoin: miter;
stroke-miterlimit: 4;
}
.g15_31{
fill: #F7F5F5;
}
.g30_31{
fill: none;
stroke: #F7941E;
stroke-width: 4;
stroke-linecap: butt;
stroke-linejoin: miter;
}
.g37_31{
fill: none;
stroke: #11151D;
stroke-width: 2;
stroke-linecap: butt;
stroke-linejoin: miter;
stroke-miterlimit: 4;
}
.g14_31{
fill: #D2BEB4;
}
.g12_31{
fill: #F15857;
}
.g18_31{
fill: #637A55;
}
.g26_31{
fill: none;
stroke: #FFFFFF;
stroke-width: 3;
stroke-linecap: round;
stroke-linejoin: round;
stroke-miterlimit: 4;
}
.g13_31{
fill: #EFEFF0;
}
.g36_31{
fill: none;
stroke: #11151D;
stroke-width: 1;
stroke-linecap: butt;
stroke-linejoin: miter;
}
.g2_31{
fill: #B3CBC8;
}
.g3_31{
fill: #7AB0D6;
}
.g17_31{
fill: #657F5C;
}
.g4_31{
fill: #DCDDDE;
}
.g21_31{
fill: none;
stroke: #7AB0D6;
stroke-width: 5;
stroke-linecap: butt;
stroke-linejoin: miter;
stroke-miterlimit: 4;
}
.g16_31{
fill: #E1E1DF;
}
.g35_31{
fill: none;
stroke: #11151D;
stroke-width: 1;
stroke-linecap: butt;
stroke-linejoin: miter;
stroke-miterlimit: 3;
}

.s9_31{
font-size: 15.28px;
font-family: Helvetica-Bold_rs;
fill: #FFFFFF;
}
.s7_31{
font-size: 15.28px;
font-family: Helvetica-Oblique_1f9;
fill: #11151D;
}
.s11_31{
font-size: 12.22px;
font-family: PixelSplitter-Bold_1bs;
fill: #11151D;
}
.s10_31{
font-size: 15.28px;
font-family: Helvetica-Bold_ry;
fill: #FFFFFF;
}
.s3_31{
font-size: 15.28px;
font-family: Helvetica-Light_1by;
fill: #11151D;
}
.s8_31{
font-size: 63.61px;
font-family: HVDPosterClean_1e7;
fill: #11151D;
}
.s6_31{
font-size: 18.33px;
font-family: Helvetica-Bold_1bu;
fill: #11151D;
}
.s5_31{
font-size: 15.28px;
font-family: Helvetica-Bold_1bu;
fill: #11151D;
}
.s4_31{
font-size: 15.28px;
font-family: AndaleMono_1cn;
fill: #11151D;
}
.s1_31{
font-size: 33.61px;
font-family: PixelSplitter-Bold_rm;
fill: #FFFFFF;
}
.s2_31{
font-size: 21.39px;
font-family: PixelSplitter-Bold_1bs;
fill: #11151D;
}

]]></style>

</defs>
<path d="M0,0
L0,1061
L1645,1061
L1645,0 Z " 
fill="#FFFFFF" stroke="none" />
<image x="-33" y="-32" width="1713" height="1115" xlink:href="31/img/1.png" />
<image x="-13" y="-11" width="1674" height="1073" opacity="0.5" xlink:href="31/img/2.png" />
<path d="M866,101l0,55l4,0l0,4l225,0l0,-4l4,0l0,-55Z" class="g1_31" />
<path d="M870,568l0,5l-5,0l0,129l5,0l0,4l327,0l0,-4l4,0l0,-129l-4,0l0,-5Z" class="g2_31" />
<path d="M869,827l0,4l-4,0l0,88l4,0l0,5l93,0l0,-97Z" class="g3_31" />
<image x="864" y="831" width="87" height="89" xlink:href="31/img/3.png" />
<path d="M1219,439l0,4l-5,0l0,362l5,0l0,5l379,0l0,-5l4,0l0,-362l-4,0l0,-4Z" class="g1_31" />
<path d="M1232.3,496.9c0,0,-7.8,0,-7.8,7.8l0,25.8l368.7,0l0,-25.8c0,0,0,-7.8,-7.8,-7.8Z" class="g4_31" />
<path d="M1224.5,530.5l0,260.7c0,0,0,7.8,7.8,7.8l353.1,0c0,0,7.8,0,7.8,-7.8l0,-260.7Z" class="g5_31" />
<g clip-path="url(#c0_31)">
<path d="M1219.5,623.2l0,-11.5l-4.2,0l0,11.5l-55.9,-0.4l0,-11.6l123.1,1.1l0,11.3Z" class="g6_31" />
<path d="M1282.5,681.5c-4.4,0,-26.9,0.6,-63,1.4l0,-7.2c39.1,-0.5,62.2,-0.8,63,-0.8l0,6.6Z" class="g6_31" />
<path d="M1219.5,625.3l63,0.4l0,10.3l-63,-0.1Z" class="g6_31" />
<path d="M1219.5,646.9l0,-8.9l63,0.1l0,8.5Z" class="g6_31" />
<path d="M1219.5,662.9c38.6,-0.2,61.6,-0.3,62.9,-0.2l0.1,0l0,9c-0.8,0,-23.9,0.3,-63,0.8Z" class="g6_31" />
<path d="M1282.5,684.6l0,12.6l-63,0.9l0,-12c36.1,-0.8,58.6,-1.4,63,-1.5Z" class="g6_31" />
<path d="M1219.5,659.7l0,-10.7l63,-0.3l0,10.8c-1.8,-0.1,-24.7,0,-63,0.2Z" class="g6_31" />
<path d="M1282.6,684.6c24.4,-0.4,67.4,5.9,91.3,9.8c-0.6,1.3,-0.9,2.7,-0.9,4.2c0,5.8,4.6,10.5,10.4,10.5c5.8,0,10.4,-4.7,10.4,-10.5c0,-4.2,-2.5,-7.8,-6.2,-9.5c15.9,2.4,30.4,4.7,41,6.5c-0.3,0.9,-0.6,1.9,-0.6,3c0,5.8,4.7,10.5,10.4,10.5c5.8,0,10.5,-4.7,10.5,-10.5c0,-5.7,-4.7,-10.4,-10.5,-10.4c-3.4,0,-6.4,1.8,-8.3,4.4c-11.6,-2,-30.9,-5,-63.2,-9.7c-40,-5.7,-81,-11.2,-84.4,-11.2l0,-9c11.3,0.8,154.3,20.8,201.4,31.7c-0.5,1.3,-0.9,2.7,-0.9,4.2c0,5.8,4.7,10.5,10.4,10.5c5.8,0,10.5,-4.7,10.5,-10.5c0,-5.7,-4.7,-10.4,-10.5,-10.4c-3,0,-5.7,1.3,-7.6,3.4c-14.1,-3.4,-40.5,-8.4,-90.2,-16.1c-52.6,-8.2,-107.7,-15.6,-113,-16l-0.1,0l0,-10.8c20,0,182.2,-0.9,209.7,-18.8c0.4,0,0.8,0.2,1.2,0.2c5.8,0,10.5,-4.7,10.5,-10.4c0,-5.8,-4.7,-10.5,-10.5,-10.5c-5.7,0,-10.4,4.7,-10.4,10.5c0,4.4,2.7,8.1,6.6,9.6c-23.3,12.4,-131.7,17.2,-207.1,17.3l0,-8.5c13.9,0.4,124.9,2.8,153.2,-8.5c0.9,0.2,1.8,0.5,2.7,0.5c5.8,0,10.5,-4.7,10.5,-10.4c0,-5.8,-4.7,-10.5,-10.5,-10.5c-5.7,0,-10.4,4.7,-10.4,10.5c0,3.8,2.1,7,5.1,8.8c-25.8,8.5,-114.1,8.4,-150.6,7.5l0,-10.3c18.7,0.7,70.6,2.5,93.5,1.3c1.9,1.9,4.5,3.1,7.4,3.1c5.8,0,10.4,-4.7,10.4,-10.4c0,-5.8,-4.6,-10.5,-10.4,-10.5c-5.8,0,-10.4,4.7,-10.4,10.5c0,2,0.7,3.8,1.7,5.4c-19.9,0.7,-63,-0.4,-92.1,-1.5l-0.1,0l0,-11.3c44.4,0.4,72.4,-23.4,72.4,-23.4c9.3,4.1,21.5,6.6,35.1,8c13.1,1.3,27.6,1.7,42.4,1.4l0.1,0c2.9,-0.1,5.9,-0.2,8.9,-0.3l0.2,0c15.3,-0.6,30.6,-1.8,44.9,-3.2c3.1,-0.4,6.1,-0.7,9,-1l0.2,0c34,-3.8,59.9,-8.6,59.9,-8.6c-26.6,70.1,-19.7,137.5,-19.7,137.5c-5.8,-3.7,-19.7,-5.4,-37.7,-6c-0.5,0,-1,0,-1.5,0c-2.1,0,-4.1,-0.1,-6.2,-0.1c-0.5,0,-1,0,-1.5,0c-13,-0.1,-27.5,0.3,-42.4,1.1l0,-0.1c-0.4,0.1,-0.8,0.1,-1.2,0.1c-2,0.1,-3.9,0.2,-5.9,0.3c-0.7,0.1,-1.4,0.1,-2.1,0.1c-15.4,0.9,-30.8,2,-44.8,3.2c-0.2,0,-0.4,0,-0.6,0c-2.9,0.3,-5.7,0.5,-8.5,0.8l-0.1,0c-28.4,2.5,-49.2,4.8,-49.2,4.8c-9.6,-19.6,-51.7,-29.7,-51.7,-29.7l0,-12.6Z" class="g7_31" />
<path d="M1375.9,691.5c-23.7,-3.9,-68.2,-10.5,-93.4,-10l0,-6.6c4.5,0,56.1,7,100,13.5c-2.6,0.2,-4.9,1.3,-6.6,3.1Z" class="g7_31" />
<path d="M1215.3,683c1.4,0,2.9,0,4.2,-0.1c36.1,-0.8,58.6,-1.4,63,-1.4c25.2,-0.5,69.7,6.1,93.4,10c-0.8,0.8,-1.5,1.8,-2,2.9c-23.9,-3.9,-66.9,-10.2,-91.3,-9.8l-0.1,0c-4.4,0.1,-26.9,0.7,-63,1.5c-1.3,0,-2.8,0.1,-4.2,0.1c-16.2,0.4,-35,0.8,-55.9,1.3l-0.3,0l0,-3.1l0.3,0c20.9,-0.5,39.7,-1,55.9,-1.4Z" class="g8_31" />
<path d="M1215.3,672.6c1.5,0,2.8,0,4.2,-0.1c39.1,-0.5,62.2,-0.8,63,-0.8c3.4,0,44.4,5.5,84.4,11.2c32.3,4.7,51.6,7.7,63.2,9.7c-0.6,0.9,-1.2,1.9,-1.5,3c-10.6,-1.8,-25.1,-4.1,-41,-6.5c-1.3,-0.6,-2.7,-0.9,-4.2,-0.9c-0.3,0,-0.6,0.1,-0.9,0.2c-43.9,-6.5,-95.5,-13.5,-100,-13.5c-0.8,0,-23.9,0.3,-63,0.8c-1.4,0,-2.7,0.1,-4.2,0.1c-16.2,0.2,-35,0.4,-55.9,0.7l-0.3,0l0,-3.2l0.3,0c20.9,-0.2,39.7,-0.5,55.9,-0.7Z" class="g8_31" />
<path d="M1215.3,659.8c1.5,0,2.8,0,4.2,-0.1c38.3,-0.2,61.2,-0.3,63,-0.2l0.1,0c5.3,0.4,60.4,7.8,113,16c49.7,7.7,76.1,12.7,90.2,16.1c-0.7,0.8,-1.4,1.8,-1.9,2.8c-47.1,-10.9,-190.1,-30.9,-201.4,-31.7l-0.1,0c-1.3,-0.1,-24.3,0,-62.9,0.2c-1.4,0,-2.8,0,-4.2,0.1c-16.2,0,-35,0.2,-55.9,0.3l-0.3,0l0,-3.2l0.3,0c20.9,-0.1,39.7,-0.2,55.9,-0.3Z" class="g8_31" />
<path d="M1215.3,646.9l4.2,0l63,-0.3c75.4,-0.1,183.8,-4.9,207.1,-17.3c0.8,0.4,1.7,0.5,2.6,0.6c-27.5,17.9,-189.7,18.8,-209.7,18.8l-63,0.3l-4.2,0l-55.9,0.2l-0.3,0l0,-2.1l0.3,0Z" class="g8_31" />
<path d="M1215.3,635.9l4.2,0l63,0.1l0.1,0c36.4,0.9,124.7,1,150.5,-7.5c0.9,0.5,1.7,0.8,2.6,1.1c-28.3,11.3,-139.3,8.9,-153.2,8.5l-63,-0.1l-4.2,0l-55.9,-0.1l-0.3,0l0,-2.1l0.3,0Z" class="g8_31" />
<path d="M1215.3,623.2l4.2,0l63,0.4l0.1,0c29.1,1.1,72.2,2.2,92.1,1.5c0.4,0.7,0.7,1.4,1.3,1.9c-22.9,1.2,-74.8,-0.6,-93.5,-1.3l-63,-0.4l-4.2,0l-55.9,-0.4l-0.3,0l0,-2.1l0.3,0Z" class="g8_31" />
<path d="M1490.5,716.6c2.1,0,4.1,0.1,6.2,0.1c0.5,0,1,0,1.5,0l0,20.5l-9.2,0l0,-20.6c0.5,0,1,0,1.5,0Z" class="g9_31" />
<path d="M1503,737.2c2.3,0,4.1,1.9,3.9,4.2l-1.7,19.5c-0.2,2.3,-2.3,4.3,-4.7,4.3l-19.4,0c-2.4,0,-4.1,-2,-3.9,-4.3l1.7,-19.5c0.2,-2.3,2.3,-4.2,4.6,-4.2l5.5,0l9.2,0Z" class="g8_31" />
<path d="M1439.5,718c2,-0.1,3.9,-0.2,5.9,-0.3c0.4,0,0.8,0,1.2,-0.1l0,0.1l0,19.5l-9.2,0l0,-19.1c0.7,0,1.4,0,2.1,-0.1Z" class="g9_31" />
<path d="M1451.2,737.2c2.3,0,4,1.9,3.8,4.2l-1.7,19.5c-0.2,2.3,-2.3,4.3,-4.6,4.3l-19.5,0c-2.3,0,-4,-2,-3.8,-4.3l1.7,-19.5c0.2,-2.3,2.3,-4.2,4.6,-4.2l5.7,0l9.2,0Z" class="g8_31" />
<path d="M1383.5,722.1c2.8,-0.3,5.6,-0.5,8.5,-0.8c0.2,0,0.4,0,0.6,0l0,15.9l-9.2,0l0,-15.1Z" class="g9_31" />
<path d="M1398,737.2c2.3,0,4.1,1.9,3.9,4.2l-1.7,19.5c-0.2,2.3,-2.3,4.3,-4.7,4.3l-19.4,0c-2.4,0,-4.1,-2,-3.9,-4.3l1.7,-19.5c0.2,-2.3,2.3,-4.2,4.6,-4.2l4.9,0l9.2,0Z" class="g8_31" />
<path d="M1390,596.9c-3.1,-0.4,-6.2,-0.7,-9.2,-1.2l0,-15.8l9.2,0l0,17Z" class="g9_31" />
<path d="M1376.1,579.9c-2.4,0,-4.1,-1.9,-3.9,-4.3l1.7,-19.4c0.2,-2.4,2.3,-4.3,4.6,-4.3l19.5,0c2.3,0,4.1,1.9,3.9,4.3l-1.7,19.4c-0.2,2.4,-2.3,4.3,-4.7,4.3l-5.5,0l-9.2,0Z" class="g8_31" />
<path d="M1441.4,598c-3,0.1,-6,0.2,-8.9,0.3l-0.1,0l0,-18.4l9.2,0l0,18.1Z" class="g9_31" />
<path d="M1427.9,579.9c-2.3,0,-4.1,-1.9,-3.9,-4.3l1.7,-19.4c0.2,-2.4,2.3,-4.3,4.7,-4.3l19.4,0c2.4,0,4.1,1.9,3.9,4.3l-1.7,19.4c-0.2,2.4,-2.3,4.3,-4.6,4.3l-5.8,0l-9.2,0Z" class="g8_31" />
<path d="M1495.5,593.8c-2.9,0.3,-5.9,0.6,-9,1l0,-14.9l9.2,0l0,13.9Z" class="g9_31" />
<path d="M1481.1,579.9c-2.4,0,-4.1,-1.9,-3.9,-4.3l1.7,-19.4c0.2,-2.4,2.3,-4.3,4.6,-4.3l19.5,0c2.3,0,4.1,1.9,3.9,4.3l-1.7,19.4c-0.2,2.4,-2.3,4.3,-4.7,4.3l-4.8,0l-9.2,0Z" class="g8_31" />
<path d="M1493.4,688.2c5.8,0,10.5,4.7,10.5,10.4c0,5.8,-4.7,10.5,-10.5,10.5c-5.7,0,-10.4,-4.7,-10.4,-10.5c0,-1.5,0.4,-2.9,0.9,-4.2c0.5,-1,1.2,-2,1.9,-2.8c1.9,-2.1,4.6,-3.4,7.6,-3.4Z" class="g9_31" />
<path d="M1438.4,688.2c5.8,0,10.5,4.7,10.5,10.4c0,5.8,-4.7,10.5,-10.5,10.5c-5.7,0,-10.4,-4.7,-10.4,-10.5c0,-1.1,0.3,-2.1,0.6,-3c0.3,-1.1,0.9,-2.1,1.5,-3c1.9,-2.6,4.9,-4.4,8.3,-4.4Z" class="g9_31" />
<path d="M1382.5,688.4c0.3,-0.1,0.6,-0.2,0.9,-0.2c1.5,0,2.9,0.3,4.2,0.9c3.7,1.7,6.2,5.3,6.2,9.5c0,5.8,-4.6,10.5,-10.4,10.5c-5.8,0,-10.4,-4.7,-10.4,-10.5c0,-1.5,0.3,-2.9,0.9,-4.2c0.5,-1.1,1.1,-2.1,2,-2.9c1.7,-1.8,4,-2.9,6.6,-3.1Z" class="g9_31" />
<path d="M1483,619.7c0,-5.8,4.7,-10.5,10.4,-10.5c5.8,0,10.5,4.7,10.5,10.5c0,5.7,-4.7,10.4,-10.5,10.4c-0.4,0,-0.8,-0.2,-1.2,-0.2c-0.9,-0.1,-1.8,-0.2,-2.6,-0.6c-3.9,-1.5,-6.6,-5.2,-6.6,-9.6Z" class="g9_31" />
<path d="M1428,619.7c0,-5.8,4.7,-10.5,10.4,-10.5c5.8,0,10.5,4.7,10.5,10.5c0,5.7,-4.7,10.4,-10.5,10.4c-0.9,0,-1.8,-0.3,-2.7,-0.5c-0.9,-0.3,-1.7,-0.6,-2.6,-1.1c-3,-1.8,-5.1,-5,-5.1,-8.8Z" class="g9_31" />
<path d="M1373,619.7c0,-5.8,4.6,-10.5,10.4,-10.5c5.8,0,10.4,4.7,10.4,10.5c0,5.7,-4.6,10.4,-10.4,10.4c-2.9,0,-5.5,-1.2,-7.4,-3.1c-0.5,-0.5,-0.9,-1.2,-1.3,-1.9c-1,-1.6,-1.7,-3.4,-1.7,-5.4Z" class="g9_31" />
</g>
<path d="M1237,519l22,0l0,-14l-22,0l0,14Z" class="g10_31" />
<path d="M1234,513l0,10l10,0l0,-2l-9,0l0,-8Z" class="g10_31" />
<path d="M1263,511l0,-9l-11,0l0,1l9,0l0,8Z" class="g10_31" />
<path d="M1235,511l0,-8l9,0l0,-1l-10,0l0,9Z" class="g10_31" />
<path d="M1261,513l0,8l-9,0l0,2l11,0l0,-10Z" class="g10_31" />
<path d="M1555.9,506.8l-0.1,-0.2c-0.1,0,-0.4,0,-1.8,0.1c-0.9,0,-2,0.1,-2.8,0.1c-0.2,0,-0.3,0,-0.5,0c-1.4,0,-2.9,0,-5.3,-1.4c-1.7,-1,-3.6,-1.1,-4.8,-1l0.2,-1c0.1,-0.4,-0.1,-0.9,-0.6,-1c-0.4,-0.1,-0.9,0.2,-1,0.6l-5.5,21.4c-0.1,0.5,0.2,0.9,0.6,1l0.2,0.1c0.4,0,0.7,-0.3,0.8,-0.7l2.4,-9.4c0.7,-0.2,1.9,-0.4,4.2,-0.1c2.6,0.3,3.4,0.8,4.3,1.4c0.7,0.5,1.5,1,3.2,1.3c1,0.2,1.9,0.3,2.7,0.3c2.1,0,3.3,-0.5,3.4,-0.6c0.3,-0.3,0.4,-10.8,0.4,-10.9Z" class="g11_31" />
<path d="M1570.8,525.5l-6.8,-6.8l0,-9.6l6.8,-6.7l9.6,0l6.7,6.7l0,9.6l-6.7,6.8Z" class="g12_31" />
<path d="M1434.1,689.2c-1.1,0.5,-2.1,1.3,-3,2.2c0.9,-0.9,1.9,-1.7,3,-2.2m-47.4,-0.5c0.3,0.2,0.6,0.3,0.9,0.4c1.6,0.7,2.9,1.7,3.9,3c-1,-1.3,-2.3,-2.3,-3.9,-3c15.9,2.4,30.4,4.7,41,6.5c-0.3,0.9,-0.6,1.9,-0.6,3c0,0.3,0,0.6,0,0.9c0,-0.3,0,-0.6,0,-0.9c0,-1.1,0.3,-2.1,0.6,-3c0.1,-0.5,0.3,-0.9,0.5,-1.4c-0.2,0.5,-0.4,0.9,-0.5,1.4c-10.6,-1.8,-25.1,-4.1,-41,-6.5c-0.3,-0.1,-0.6,-0.2,-0.9,-0.4m-3.3,-0.5c-0.2,0,-0.3,0,-0.5,0.1c0.2,-0.1,0.3,-0.1,0.5,-0.1c0.8,0,1.5,0.1,2.2,0.2c-0.7,-0.1,-1.4,-0.2,-2.2,-0.2m55,0l0,0c0.8,0,1.6,0.1,2.3,0.2c-0.7,-0.1,-1.5,-0.2,-2.3,-0.2m-62.1,-0.8l0,0c2.1,0.4,4.2,0.7,6.2,1c0.1,0,0.1,-0.1,0.2,-0.1c-0.1,0,-0.1,0.1,-0.2,0.1c-2,-0.3,-4.1,-0.6,-6.2,-1m53.6,-6.4c5,0.8,9.7,1.6,14,2.3c-4.3,-0.7,-9,-1.5,-14,-2.3m-31,-35.8c-8.4,0.5,-16.9,1,-25.3,1.4c8.4,-0.4,16.9,-0.9,25.3,-1.4Zm42.2,-3.6c-12.2,1.4,-25.6,2.5,-39.3,3.4c13.7,-0.9,27.1,-2,39.3,-3.4Zm-10.8,-10.2c-10.9,2.9,-28.1,4.6,-47,5.7c18.9,-1.1,36.1,-2.8,47,-5.7m-2.4,-1.5c-10.6,2.4,-26.9,4,-45.2,5c18.3,-1,34.6,-2.6,45.2,-5Z" class="g13_31" />
<path d="M1387.6,689.1c1.6,0.7,2.9,1.7,3.9,3c1.5,1.8,2.3,4.1,2.3,6.5c0,1,-0.1,1.9,-0.3,2.8c4.7,1.9,9.9,3,15.4,3c6.9,0,13.4,-1.7,19.1,-4.9c0,-0.3,0,-0.6,0,-0.9c0,-1.1,0.3,-2.1,0.6,-3c-10.6,-1.8,-25.1,-4.1,-41,-6.5m-17.1,-14.2c0.8,3.2,2,6.2,3.6,9.1c28,4,45.3,6.7,56,8.6c0.3,-0.4,0.6,-0.8,1,-1.2c0.9,-0.9,1.9,-1.7,3,-2.2c1.3,-0.7,2.8,-1,4.3,-1c0.8,0,1.6,0.1,2.3,0.2c0.5,-0.6,1,-1.3,1.5,-2.1c-15.1,-2.6,-31.9,-5.3,-48.8,-7.9l-1.3,5.1c-0.2,0.7,-0.8,1.1,-1.4,1.1l-0.4,0c-0.8,-0.2,-1.3,-1,-1.1,-1.8l1.3,-4.9c-6.7,-1,-13.4,-2,-20,-3m28.4,-29.7c-8.4,0.5,-16.9,1,-25.3,1.4c-2.8,5.4,-4.4,11.6,-4.4,18.2c0,2.3,0.2,4.5,0.5,6.7c7.2,1.1,14.4,2.2,21.6,3.3Zm42.2,-3.6c-12.2,1.4,-25.6,2.5,-39.3,3.4c0,0.2,0,0.4,0,0.6l-0.4,1.7c0.3,0,0.7,-0.1,1.1,-0.1c2.1,0,4.8,0.4,7.4,1.9c3.8,2.3,6.3,2.5,8.6,2.5c0.3,0,0.6,0,0.8,0c0.3,0,0.5,0,0.8,0c1.4,0,3.4,-0.1,5,-0.2c1.5,-0.1,2.3,-0.1,2.8,-0.1c0.2,0,0.4,0,0.5,0c0.1,0.1,0.1,0.2,0.1,0.3c0,0.2,-0.2,18.8,-0.7,19.2c-0.3,0.2,-2.4,1.2,-6.1,1.2c-1.4,0,-3,-0.1,-4.8,-0.5c-3,-0.6,-4.3,-1.4,-5.5,-2.3c-1.6,-1.1,-3.1,-2.1,-7.8,-2.6c-1.4,-0.1,-2.6,-0.2,-3.6,-0.2c-1.7,0,-2.9,0.2,-3.6,0.4l-2.2,8.4c0.5,0.1,0.9,0.2,1.4,0.3c13,2,24.3,3.8,34.3,5.5c5,0.8,9.7,1.6,14,2.3c3,-5.5,4.6,-11.8,4.6,-18.5c0,-8.7,-2.7,-16.7,-7.4,-23.2m-10.8,-10.2c-10.9,2.9,-28.1,4.6,-47,5.7c-1,0.1,-2,0.1,-3.1,0.2c-2,2.1,-3.8,4.5,-5.4,7c23.3,-1.1,45.7,-2.6,64.7,-4.7c-0.8,-1,-1.7,-2,-2.6,-2.9c-2,-2,-4.2,-3.8,-6.6,-5.3m-21.4,-6.3c-10.1,0,-19.2,3.7,-26.2,9.8c18.3,-1,34.6,-2.6,45.2,-5c-5.7,-3.1,-12.2,-4.8,-19,-4.8Z" class="g14_31" />
<path d="M1376.3,687.4c0.5,0.8,1.1,1.6,1.7,2.4c1.4,-0.8,2.9,-1.3,4.5,-1.4c-2,-0.3,-4.1,-0.6,-6.2,-1Z" class="g14_31" />
<path d="M1374.1,684c0.7,1.2,1.4,2.3,2.2,3.4c2.1,0.4,4.2,0.7,6.2,1c0.1,0,0.1,-0.1,0.2,-0.1c0.1,0,0.1,0,0.2,0c0.2,-0.1,0.3,-0.1,0.5,-0.1c0.8,0,1.5,0.1,2.2,0.2c0.4,0.1,0.7,0.2,1.1,0.3c0.3,0.2,0.6,0.3,0.9,0.4c15.9,2.4,30.4,4.7,41,6.5c0.1,-0.5,0.3,-0.9,0.5,-1.4c0.3,-0.5,0.6,-1.1,1,-1.6c-10.7,-1.9,-28,-4.6,-56,-8.6Z" class="g15_31" />
<path d="M1394.2,675.2l-0.8,3.2c16.9,2.6,33.7,5.3,48.8,7.9c0.6,-0.9,1.2,-1.9,1.7,-3c-4.3,-0.7,-9,-1.5,-14,-2.3c-10,-1.7,-21.3,-3.5,-34.3,-5.5c-0.5,-0.1,-0.9,-0.2,-1.4,-0.3m-24.5,-3.7c0.2,1.2,0.5,2.3,0.8,3.4c6.6,1,13.3,2,20,3l0.8,-3.1c-7.2,-1.1,-14.4,-2.2,-21.6,-3.3Z" class="g15_31" />
<path d="M1439.5,639.6c-19,2.1,-41.4,3.6,-64.7,4.7c-0.4,0.8,-0.8,1.5,-1.2,2.3c8.4,-0.4,16.9,-0.9,25.3,-1.4l0,-0.3c0.2,-0.7,0.8,-1.1,1.5,-1.1c0.1,0,0.2,0,0.3,0c0.6,0.2,1,0.7,1.1,1.2c13.7,-0.9,27.1,-2,39.3,-3.4c-0.5,-0.7,-1,-1.4,-1.6,-2Z" class="g15_31" />
<path d="M1427.9,629.9c-10.6,2.4,-26.9,4,-45.2,5c-0.6,0.6,-1.3,1.2,-1.9,1.8c-0.2,0.2,-0.4,0.4,-0.6,0.6c1.1,-0.1,2.1,-0.1,3.1,-0.2c18.9,-1.1,36.1,-2.8,47,-5.7c-0.8,-0.6,-1.6,-1,-2.4,-1.5Z" class="g15_31" />
<path d="M1438.4,688.2c-1.5,0,-3,0.3,-4.3,1c-1.1,0.5,-2.1,1.3,-3,2.2c-0.4,0.4,-0.7,0.8,-1,1.2c-0.4,0.5,-0.7,1.1,-1,1.6c-0.2,0.5,-0.4,0.9,-0.5,1.4c-0.3,0.9,-0.6,1.9,-0.6,3c0,0.3,0,0.6,0,0.9c3.3,-1.8,6.3,-4,8.9,-6.7c1.4,-1.3,2.7,-2.8,3.8,-4.4c-0.7,-0.1,-1.5,-0.2,-2.3,-0.2Z" class="g16_31" />
<path d="M1383.4,688.2c-0.2,0,-0.3,0,-0.5,0.1c-0.1,0,-0.1,0,-0.2,0c-0.1,0,-0.1,0.1,-0.2,0.1c-1.6,0.1,-3.1,0.6,-4.5,1.4c0.9,1,1.8,2.1,2.8,3c3.6,3.6,7.9,6.6,12.7,8.6c0.2,-0.9,0.3,-1.8,0.3,-2.8c0,-2.4,-0.8,-4.7,-2.3,-6.5c-1,-1.3,-2.3,-2.3,-3.9,-3c-0.3,-0.1,-0.6,-0.2,-0.9,-0.4c-0.4,-0.1,-0.7,-0.2,-1.1,-0.3c-0.7,-0.1,-1.4,-0.2,-2.2,-0.2Z" class="g16_31" />
<path d="M1408.9,705.9l0,1.5c23.5,0,42.6,-19.1,42.6,-42.6c0,-23.6,-19.1,-42.7,-42.6,-42.7c-23.6,0,-42.7,19.1,-42.7,42.7c0,23.5,19.1,42.6,42.7,42.6l0,-1.5l0,-1.5c-11,0,-20.9,-4.4,-28.1,-11.6c-7.2,-7.2,-11.6,-17.1,-11.6,-28c0,-11,4.4,-20.9,11.6,-28.1c7.2,-7.2,17.1,-11.6,28.1,-11.6c10.9,0,20.8,4.4,28,11.6c7.2,7.2,11.6,17.1,11.6,28.1c0,10.9,-4.4,20.8,-11.6,28c-7.2,7.2,-17.1,11.6,-28,11.6Z" class="g1_31" />
<path d="M1401.8,645c-1,0.1,-2,0.1,-2.9,0.2c0.9,-0.1,1.9,-0.1,2.9,-0.2Z" class="g17_31" />
<path d="M1390.5,677.9l-1.3,4.9c-0.2,0.8,0.3,1.6,1.1,1.8l0.4,0c0.6,0,1.2,-0.4,1.4,-1.1l1.3,-5.1c-1,-0.2,-2,-0.3,-2.9,-0.5M1401.8,645c-1,0.1,-2,0.1,-2.9,0.2l-7.6,29.6c1,0.1,1.9,0.3,2.9,0.4l2.2,-8.4c0.7,-0.2,1.9,-0.4,3.6,-0.4c1,0,2.2,0.1,3.6,0.2c4.7,0.5,6.2,1.5,7.8,2.6c1.2,0.9,2.5,1.7,5.5,2.3c1.8,0.4,3.4,0.5,4.8,0.5c3.7,0,5.8,-1,6.1,-1.2c0.5,-0.4,0.7,-19,0.7,-19.2c0,-0.1,0,-0.2,-0.1,-0.3c-0.1,0,-0.3,0,-0.5,0c-0.5,0,-1.3,0,-2.8,0.1c-1.6,0.1,-3.6,0.2,-5,0.2c-0.3,0,-0.5,0,-0.8,0c-0.2,0,-0.5,0,-0.8,0c-2.3,0,-4.8,-0.2,-8.6,-2.5c-2.6,-1.5,-5.3,-1.9,-7.4,-1.9c-0.4,0,-0.8,0.1,-1.1,0.1l0.4,-1.7c0,-0.2,0,-0.4,0,-0.6Z" class="g18_31" />
<path d="M1391.3,674.8l-0.8,3.1c0.9,0.2,1.9,0.3,2.9,0.5l0.8,-3.2c-1,-0.1,-1.9,-0.3,-2.9,-0.4Z" class="g19_31" />
<path d="M1400.4,643.8c-0.7,0,-1.3,0.4,-1.5,1.1l0,0.3c0.9,-0.1,1.9,-0.1,2.9,-0.2c-0.1,-0.5,-0.5,-1,-1.1,-1.2c-0.1,0,-0.2,0,-0.3,0Z" class="g19_31" />
<path d="M1233.4,452.9c0,0,-7.8,0,-7.8,7.8l0,21.7c0,0,0,7.8,7.8,7.8l197.3,0c0,0,7.8,0,7.8,-7.8l0,-21.7c0,0,0,-7.8,-7.8,-7.8Z" class="g20_31" />
<path d="M964,869l0,107l2,0l3,0l0,3l0,2l510,0l0,-2l0,-3l2,0l2,0l0,-102l-2,0l-2,0l0,-3l0,-2Z" class="g1_31" />
<path d="M964.5,869.5l0,107l2,0l3,0l0,3l0,2l510,0l0,-2l0,-3l2,0l2,0l0,-102l-2,0l-2,0l0,-3l0,-2l-515,0Z" class="g21_31" />
<path d="M962,827l0,40l303,0l0,-36l-5,0l0,-4Z" class="g3_31" />
<path d="M870,53l0,4l-4,0l0,44l578,0l0,-4l5,0l0,-40l-5,0l0,-4Z" class="g22_31" />
<path d="M53,196l0,2l0,3l-3,0l-2,0l0,209l2,0l3,0l0,3l0,2l719,0l0,-2l0,-3l3,0l2,0l0,-209l-2,0l-3,0l0,-3l0,-2Z" class="g23_31" />
<path d="M53.5,196.5l0,2l0,3l-3,0l-2,0l0,209l2,0l3,0l0,3l0,2l719,0l0,-2l0,-3l3,0l2,0l0,-209l-2,0l-3,0l0,-3l0,-2l-719,0Z" class="g24_31" />
<path d="M50,194l0,4l-4,0l0,34l733,0l0,-34l-4,0l0,-4Z" class="g25_31" />
<path d="M66.6,211c1.8,0,3.2,-1.4,3.2,-3.2c0,-1.8,-1.4,-3.2,-3.2,-3.2c-1.8,0,-3.2,1.4,-3.2,3.2c0,1.8,1.4,3.2,3.2,3.2Z" class="g1_31" />
<path d="M79.1,211c1.8,0,3.2,-1.4,3.2,-3.2c0,-1.8,-1.4,-3.2,-3.2,-3.2c-1.8,0,-3.2,1.4,-3.2,3.2c0,1.8,1.4,3.2,3.2,3.2Z" class="g1_31" />
<path d="M91.6,211c1.8,0,3.2,-1.4,3.2,-3.2c0,-1.8,-1.4,-3.2,-3.2,-3.2c-1.8,0,-3.2,1.4,-3.2,3.2c0,1.8,1.4,3.2,3.2,3.2Z" class="g1_31" />
<path d="M62.2,217.2c0,0,-2.2,0,-2.2,2.2l0,4.8c0,0,0,2.2,2.2,2.2l687,0c0,0,2.2,0,2.2,-2.2l0,-4.8c0,0,0,-2.2,-2.2,-2.2Z" class="g1_31" />
<path d="M147,218.4l-3,3.4l3,3.4" class="g26_31" />
<path d="M772.3,217.7l0,4.1c-0.5,-0.1,-1.1,-0.2,-1.6,-0.3c-0.7,-0.1,-1.4,-0.2,-2.1,-0.4c-0.2,0,-0.3,0,-0.4,0c0.4,-0.4,0.9,-0.8,1.4,-1.2c-0.7,-0.5,-1.4,-0.6,-2.2,-0.4c-0.7,0.2,-1.3,0.6,-1.7,1.2c-0.4,0.6,-0.5,1.3,-0.4,2c0.1,0.7,0.4,1.3,1,1.7c0.7,0.6,1.5,0.8,2.3,0.6c0.9,-0.2,1.6,-0.7,2,-1.5c0,-0.1,0,-0.1,0,-0.1c0.5,0.1,1.1,0.2,1.6,0.4c-0.4,0.8,-0.9,1.5,-1.6,2.1c-0.7,0.4,-1.5,0.7,-2.4,0.7l-0.1,0.1l-0.2,0c0,-0.1,0,-0.1,-0.1,-0.1c-0.3,0,-0.6,0,-0.9,-0.1c-0.8,-0.2,-1.6,-0.7,-2.2,-1.4c-0.6,-0.7,-1,-1.5,-1,-2.4c-0.1,-0.1,-0.1,-0.2,-0.1,-0.3l0,-0.3l0,-0.1c0.1,-0.1,0.1,-0.3,0.1,-0.5c0.2,-0.9,0.5,-1.6,1.1,-2.2c0.7,-0.8,1.5,-1.2,2.5,-1.4c0.5,-0.1,1,-0.1,1.5,0c0.8,0.2,1.4,0.5,2,0.9c0.1,0.1,0.1,0.1,0.1,0c0.3,-0.2,0.6,-0.4,0.9,-0.6c0.2,-0.2,0.3,-0.3,0.5,-0.5Z" class="g1_31" />
<path d="M772.3,217.7l0,4.1c-0.5,-0.1,-1.1,-0.2,-1.6,-0.3c-0.7,-0.1,-1.4,-0.2,-2.1,-0.4c-0.2,0,-0.3,0,-0.4,0c0.4,-0.4,0.9,-0.8,1.4,-1.2c-0.7,-0.5,-1.4,-0.6,-2.2,-0.4c-0.7,0.2,-1.3,0.6,-1.7,1.2c-0.4,0.6,-0.5,1.3,-0.4,2c0.1,0.7,0.4,1.3,1,1.7c0.7,0.6,1.5,0.8,2.3,0.6c0.9,-0.2,1.6,-0.7,2,-1.5c0,-0.1,0,-0.1,0,-0.1c0.5,0.1,1.1,0.2,1.6,0.4c-0.4,0.8,-0.9,1.5,-1.6,2.1c-0.7,0.4,-1.5,0.7,-2.4,0.7l-0.1,0.1l-0.2,0c0,-0.1,0,-0.1,-0.1,-0.1c-0.3,0,-0.6,0,-0.9,-0.1c-0.8,-0.2,-1.6,-0.7,-2.2,-1.4c-0.6,-0.7,-1,-1.5,-1,-2.4c-0.1,-0.1,-0.1,-0.2,-0.1,-0.3l0,-0.3l0,-0.1c0.1,-0.1,0.1,-0.3,0.1,-0.5c0.2,-0.9,0.5,-1.6,1.1,-2.2c0.7,-0.8,1.5,-1.2,2.5,-1.4c0.5,-0.1,1,-0.1,1.5,0c0.8,0.2,1.4,0.5,2,0.9c0.1,0.1,0.1,0.1,0.1,0c0.3,-0.2,0.6,-0.4,0.9,-0.6c0.2,-0.2,0.3,-0.3,0.5,-0.5Z" class="g27_31" />
<path d="M763,205l9,0" class="g28_31" />
<path d="M763,207l9,0" class="g28_31" />
<path d="M763,209l9,0" class="g28_31" />
<path d="M57.4,218.4l-3,3.4l3,3.4" class="g26_31" />
<path d="M85.8,262.4c0,0,-21.6,0,-21.6,21.6l0,74.7c0,0,0,21.6,21.6,21.6l652.8,0c0,0,21.7,0,21.7,-21.6l0,-74.7c0,0,0,-21.6,-21.7,-21.6Z" class="g29_31" />
<g clip-path="url(#c1_31)">
<path d="M821.8,467.5l-89,-292.3" class="g30_31" />
<path d="M812,467.5L723,175.2" class="g30_31" />
<path d="M802.2,467.5l-89,-292.3" class="g30_31" />
<path d="M792.4,467.5l-89,-292.3" class="g30_31" />
<path d="M782.6,467.5l-89,-292.3" class="g30_31" />
<path d="M772.8,467.5l-89,-292.3" class="g30_31" />
<path d="M763,467.5L674,175.2" class="g30_31" />
<path d="M753.2,467.5l-89,-292.3" class="g30_31" />
<path d="M743.4,467.5l-89,-292.3" class="g30_31" />
<path d="M733.6,467.5l-89,-292.3" class="g30_31" />
<path d="M723.8,467.5l-89,-292.3" class="g30_31" />
<path d="M714,467.5L625,175.2" class="g30_31" />
<path d="M704.2,467.5l-89,-292.3" class="g30_31" />
<path d="M694.4,467.5l-89,-292.3" class="g30_31" />
<path d="M684.6,467.5l-89,-292.3" class="g30_31" />
<path d="M674.8,467.5l-89,-292.3" class="g30_31" />
<path d="M665,467.5L576,175.2" class="g30_31" />
<path d="M655.3,467.5L566.2,175.2" class="g30_31" />
<path d="M645.5,467.5l-89,-292.3" class="g30_31" />
<path d="M635.7,467.5l-89,-292.3" class="g30_31" />
<path d="M625.9,467.5l-89,-292.3" class="g30_31" />
<path d="M616.1,467.5l-89,-292.3" class="g30_31" />
<path d="M606.3,467.5l-89,-292.3" class="g30_31" />
<path d="M596.5,467.5l-89,-292.3" class="g30_31" />
<path d="M586.7,467.5l-89,-292.3" class="g30_31" />
<path d="M576.9,467.5l-89,-292.3" class="g30_31" />
<path d="M567.1,467.5l-89,-292.3" class="g30_31" />
<path d="M557.3,467.5l-89,-292.3" class="g30_31" />
<path d="M547.5,467.5l-89,-292.3" class="g30_31" />
<path d="M537.7,467.5l-89,-292.3" class="g30_31" />
<path d="M527.9,467.5l-89,-292.3" class="g30_31" />
<path d="M518.1,467.5l-89,-292.3" class="g30_31" />
<path d="M508.3,467.5l-89,-292.3" class="g30_31" />
<path d="M498.5,467.5l-89,-292.3" class="g30_31" />
<path d="M488.7,467.5l-89,-292.3" class="g30_31" />
<path d="M478.9,467.5l-89,-292.3" class="g30_31" />
<path d="M469.1,467.5l-89,-292.3" class="g30_31" />
<path d="M459.3,467.5l-89,-292.3" class="g30_31" />
<path d="M449.5,467.5l-89,-292.3" class="g30_31" />
<path d="M439.7,467.5l-89,-292.3" class="g30_31" />
<path d="M429.9,467.5l-89,-292.3" class="g30_31" />
<path d="M420.1,467.5l-89,-292.3" class="g30_31" />
<path d="M410.3,467.5l-89,-292.3" class="g30_31" />
<path d="M400.5,467.5l-89,-292.3" class="g30_31" />
<path d="M390.8,467.5L301.7,175.2" class="g30_31" />
<path d="M381,467.5L292,175.2" class="g30_31" />
<path d="M371.2,467.5l-89,-292.3" class="g30_31" />
<path d="M361.4,467.5l-89,-292.3" class="g30_31" />
<path d="M351.6,467.5l-89,-292.3" class="g30_31" />
<path d="M341.8,467.5l-89,-292.3" class="g30_31" />
<path d="M332,467.5L243,175.2" class="g30_31" />
<path d="M322.2,467.5l-89,-292.3" class="g30_31" />
<path d="M312.4,467.5l-89,-292.3" class="g30_31" />
<path d="M302.6,467.5l-89,-292.3" class="g30_31" />
<path d="M292.8,467.5l-89,-292.3" class="g30_31" />
<path d="M283,467.5L194,175.2" class="g30_31" />
<path d="M273.2,467.5l-89,-292.3" class="g30_31" />
<path d="M263.4,467.5l-89,-292.3" class="g30_31" />
<path d="M253.6,467.5l-89,-292.3" class="g30_31" />
<path d="M243.8,467.5l-89,-292.3" class="g30_31" />
<path d="M234,467.5L145,175.2" class="g30_31" />
<path d="M224.2,467.5l-89,-292.3" class="g30_31" />
<path d="M214.4,467.5l-89,-292.3" class="g30_31" />
<path d="M204.6,467.5l-89,-292.3" class="g30_31" />
<path d="M194.8,467.5l-89,-292.3" class="g30_31" />
<path d="M185,467.5L96,175.2" class="g30_31" />
<path d="M175.2,467.5L86.2,175.2" class="g30_31" />
<path d="M165.4,467.5L76.4,175.2" class="g30_31" />
<path d="M155.6,467.5L66.6,175.2" class="g30_31" />
<path d="M145.8,467.5L56.8,175.2" class="g30_31" />
<path d="M136,467.5L47,175.2" class="g30_31" />
<path d="M126.3,467.5L37.2,175.2" class="g30_31" />
<path d="M116.5,467.5L27.5,175.2" class="g30_31" />
<path d="M106.7,467.5L17.7,175.2" class="g30_31" />
<path d="M96.9,467.5L7.9,175.2" class="g30_31" />
<path d="M87.1,467.5L-1.8,175.2" class="g30_31" />
<path d="M826.4,467.5l-89,-292.3" class="g31_31" />
<path d="M816.6,467.5l-89,-292.3" class="g31_31" />
<path d="M806.8,467.5l-89,-292.3" class="g31_31" />
<path d="M797,467.5L708,175.2" class="g31_31" />
<path d="M787.2,467.5l-89,-292.3" class="g31_31" />
<path d="M777.4,467.5l-89,-292.3" class="g31_31" />
<path d="M767.6,467.5l-89,-292.3" class="g31_31" />
<path d="M757.8,467.5l-89,-292.3" class="g31_31" />
<path d="M748,467.5L659,175.2" class="g31_31" />
<path d="M738.2,467.5l-89,-292.3" class="g31_31" />
<path d="M728.4,467.5l-89,-292.3" class="g31_31" />
<path d="M718.6,467.5l-89,-292.3" class="g31_31" />
<path d="M708.8,467.5l-89,-292.3" class="g31_31" />
<path d="M699,467.5L610,175.2" class="g31_31" />
<path d="M689.2,467.5l-89,-292.3" class="g31_31" />
<path d="M679.4,467.5l-89,-292.3" class="g31_31" />
<path d="M669.6,467.5l-89,-292.3" class="g31_31" />
<path d="M659.8,467.5l-89,-292.3" class="g31_31" />
<path d="M650,467.5L561,175.2" class="g31_31" />
<path d="M640.2,467.5l-89,-292.3" class="g31_31" />
<path d="M630.4,467.5l-89,-292.3" class="g31_31" />
<path d="M620.6,467.5l-89,-292.3" class="g31_31" />
<path d="M610.9,467.5L521.8,175.2" class="g31_31" />
<path d="M601.1,467.5l-89,-292.3" class="g31_31" />
<path d="M591.3,467.5l-89,-292.3" class="g31_31" />
<path d="M581.5,467.5l-89,-292.3" class="g31_31" />
<path d="M571.7,467.5l-89,-292.3" class="g31_31" />
<path d="M561.9,467.5l-89,-292.3" class="g31_31" />
<path d="M552.1,467.5l-89,-292.3" class="g31_31" />
<path d="M542.3,467.5l-89,-292.3" class="g31_31" />
<path d="M532.5,467.5l-89,-292.3" class="g31_31" />
<path d="M522.7,467.5l-89,-292.3" class="g31_31" />
<path d="M512.9,467.5l-89,-292.3" class="g31_31" />
<path d="M503.1,467.5l-89,-292.3" class="g31_31" />
<path d="M493.3,467.5l-89,-292.3" class="g31_31" />
<path d="M483.5,467.5l-89,-292.3" class="g31_31" />
<path d="M473.7,467.5l-89,-292.3" class="g31_31" />
<path d="M463.9,467.5l-89,-292.3" class="g31_31" />
<path d="M454.1,467.5l-89,-292.3" class="g31_31" />
<path d="M444.3,467.5l-89,-292.3" class="g31_31" />
<path d="M434.5,467.5l-89,-292.3" class="g31_31" />
<path d="M424.7,467.5l-89,-292.3" class="g31_31" />
<path d="M414.9,467.5l-89,-292.3" class="g31_31" />
<path d="M405.1,467.5l-89,-292.3" class="g31_31" />
<path d="M395.3,467.5l-89,-292.3" class="g31_31" />
<path d="M385.5,467.5l-89,-292.3" class="g31_31" />
<path d="M375.7,467.5l-89,-292.3" class="g31_31" />
<path d="M365.9,467.5l-89,-292.3" class="g31_31" />
<path d="M356.2,467.5L267.1,175.2" class="g31_31" />
<path d="M346.4,467.5L257.3,175.2" class="g31_31" />
<path d="M336.6,467.5l-89,-292.3" class="g31_31" />
<path d="M326.8,467.5l-89,-292.3" class="g31_31" />
<path d="M317,467.5L228,175.2" class="g31_31" />
<path d="M307.2,467.5l-89,-292.3" class="g31_31" />
<path d="M297.4,467.5l-89,-292.3" class="g31_31" />
<path d="M287.6,467.5l-89,-292.3" class="g31_31" />
<path d="M277.8,467.5l-89,-292.3" class="g31_31" />
<path d="M268,467.5L179,175.2" class="g31_31" />
<path d="M258.2,467.5l-89,-292.3" class="g31_31" />
<path d="M248.4,467.5l-89,-292.3" class="g31_31" />
<path d="M238.6,467.5l-89,-292.3" class="g31_31" />
<path d="M228.8,467.5l-89,-292.3" class="g31_31" />
<path d="M219,467.5L130,175.2" class="g31_31" />
<path d="M209.2,467.5l-89,-292.3" class="g31_31" />
<path d="M199.4,467.5l-89,-292.3" class="g31_31" />
<path d="M189.6,467.5l-89,-292.3" class="g31_31" />
<path d="M179.8,467.5L90.8,175.2" class="g31_31" />
<path d="M170,467.5L81,175.2" class="g31_31" />
<path d="M160.2,467.5L71.2,175.2" class="g31_31" />
<path d="M150.4,467.5L61.4,175.2" class="g31_31" />
<path d="M140.6,467.5L51.6,175.2" class="g31_31" />
<path d="M130.8,467.5L41.8,175.2" class="g31_31" />
<path d="M121,467.5L32,175.2" class="g31_31" />
<path d="M111.2,467.5L22.2,175.2" class="g31_31" />
<path d="M101.4,467.5L12.4,175.2" class="g31_31" />
<path d="M91.7,467.5L2.6,175.2" class="g31_31" />
</g>
<path d="M85.8,262.4c0,0,-21.6,0,-21.6,21.6l0,74.7c0,0,0,21.6,21.6,21.6l652.8,0c0,0,21.7,0,21.7,-21.6l0,-74.7c0,0,0,-21.6,-21.7,-21.6l-652.8,0Z" class="g32_31" />
<path d="M54,543l0,2l0,2l-2,0l-2,0l0,125l2,0l2,0l0,2l0,2l720,0l0,-2l0,-2l2,0l2,0l0,-125l-2,0l-2,0l0,-2l0,-2Z" class="g23_31" />
<path d="M54.5,543.5l0,2l0,2l-2,0l-2,0l0,125l2,0l2,0l0,2l0,2l720,0l0,-2l0,-2l2,0l2,0l0,-125l-2,0l-2,0l0,-2l0,-2l-720,0Z" class="g24_31" />
<path d="M52,541l0,4l-5,0l0,33l733,0l0,-33l-4,0l0,-4Z" class="g25_31" />
<path d="M68,557.5c1.8,0,3.3,-1.4,3.3,-3.2c0,-1.8,-1.5,-3.2,-3.3,-3.2c-1.7,0,-3.2,1.4,-3.2,3.2c0,1.8,1.5,3.2,3.2,3.2Z" class="g1_31" />
<path d="M80.5,557.5c1.8,0,3.3,-1.4,3.3,-3.2c0,-1.8,-1.5,-3.2,-3.3,-3.2c-1.7,0,-3.2,1.4,-3.2,3.2c0,1.8,1.5,3.2,3.2,3.2Z" class="g1_31" />
<path d="M93,557.5c1.8,0,3.3,-1.4,3.3,-3.2c0,-1.8,-1.5,-3.2,-3.3,-3.2c-1.7,0,-3.2,1.4,-3.2,3.2c0,1.8,1.5,3.2,3.2,3.2Z" class="g1_31" />
<path d="M63.7,563.7c0,0,-2.2,0,-2.2,2.2l0,4.8c0,0,0,2.2,2.2,2.2l686.9,0c0,0,2.2,0,2.2,-2.2l0,-4.8c0,0,0,-2.2,-2.2,-2.2Z" class="g1_31" />
<path d="M148.4,564.9l-3,3.4l3,3.5" class="g26_31" />
<path d="M773.8,564.2l0,4.1c0,0,-0.1,0,-0.1,0c-0.5,-0.1,-1,-0.2,-1.6,-0.3c-0.7,-0.1,-1.4,-0.2,-2.1,-0.4c-0.1,0,-0.2,0,-0.4,0c0.5,-0.4,1,-0.8,1.4,-1.2c-0.7,-0.4,-1.4,-0.6,-2.2,-0.4c-0.7,0.2,-1.2,0.6,-1.6,1.2c-0.4,0.6,-0.6,1.3,-0.5,2c0.1,0.7,0.5,1.3,1,1.7c0.7,0.6,1.5,0.8,2.4,0.6c0.9,-0.2,1.5,-0.7,1.9,-1.5c0,-0.1,0,-0.1,0.1,-0.1c0.5,0.1,1,0.2,1.5,0.4c-0.3,0.9,-0.8,1.5,-1.6,2.1c-0.7,0.5,-1.5,0.7,-2.3,0.7c-0.1,0,-0.1,0.1,-0.1,0.1l-0.2,0c-0.1,0,-0.1,-0.1,-0.1,-0.1c-0.3,0,-0.6,0,-0.9,-0.1c-0.9,-0.2,-1.7,-0.7,-2.3,-1.4c-0.6,-0.7,-0.9,-1.5,-1,-2.4c0,-0.1,0,-0.2,0,-0.3l0,-0.3l0,-0.1c0,-0.1,0,-0.3,0,-0.5c0.2,-0.9,0.6,-1.6,1.2,-2.2c0.6,-0.7,1.4,-1.2,2.4,-1.4c0.5,-0.1,1.1,-0.1,1.6,0c0.7,0.2,1.4,0.5,2,0.9c0,0.1,0,0.1,0.1,0c0.3,-0.2,0.5,-0.4,0.8,-0.6c0.2,-0.2,0.4,-0.3,0.6,-0.5Z" class="g1_31" />
<path d="M773.8,564.2l0,4.1c0,0,-0.1,0,-0.1,0c-0.5,-0.1,-1,-0.2,-1.6,-0.3c-0.7,-0.1,-1.4,-0.2,-2.1,-0.4c-0.1,0,-0.2,0,-0.4,0c0.5,-0.4,1,-0.8,1.4,-1.2c-0.7,-0.4,-1.4,-0.6,-2.2,-0.4c-0.7,0.2,-1.2,0.6,-1.6,1.2c-0.4,0.6,-0.6,1.3,-0.5,2c0.1,0.7,0.5,1.3,1,1.7c0.7,0.6,1.5,0.8,2.4,0.6c0.9,-0.2,1.5,-0.7,1.9,-1.5c0,-0.1,0,-0.1,0.1,-0.1c0.5,0.1,1,0.2,1.5,0.4c-0.3,0.9,-0.8,1.5,-1.6,2.1c-0.7,0.5,-1.5,0.7,-2.3,0.7c-0.1,0,-0.1,0.1,-0.1,0.1l-0.2,0c-0.1,0,-0.1,-0.1,-0.1,-0.1c-0.3,0,-0.6,0,-0.9,-0.1c-0.9,-0.2,-1.7,-0.7,-2.3,-1.4c-0.6,-0.7,-0.9,-1.5,-1,-2.4c0,-0.1,0,-0.2,0,-0.3l0,-0.3l0,-0.1c0,-0.1,0,-0.3,0,-0.5c0.2,-0.9,0.6,-1.6,1.2,-2.2c0.6,-0.7,1.4,-1.2,2.4,-1.4c0.5,-0.1,1.1,-0.1,1.6,0c0.7,0.2,1.4,0.5,2,0.9c0,0.1,0,0.1,0.1,0c0.3,-0.2,0.5,-0.4,0.8,-0.6c0.2,-0.2,0.4,-0.3,0.6,-0.5Z" class="g27_31" />
<path d="M764,551l9,0" class="g28_31" />
<path d="M764,553l9,0" class="g28_31" />
<path d="M764,556l9,0" class="g28_31" />
<path d="M58.8,564.9l-3,3.4l3,3.5" class="g26_31" />
<image x="1213" y="108" width="392" height="298" xlink:href="31/img/4.png" />
<image x="1200" y="98" width="417" height="308" style="mix-blend-mode: multiply;" xlink:href="31/img/5.png" />
<path d="M185,920l0,4l-4,0l0,74l4,0l0,4l263,0l0,-4l4,0l0,-74l-4,0l0,-4Z" class="g22_31" />
<path d="M870,53l0,4l-4,0l0,44l578,0l0,-4l5,0l0,-40l-5,0l0,-4Z" class="g33_31" />
<text 
x="883" 
y="90" 
dx="0,0,0,-3.4,-3.3,-4.1,-3.6,-2.8,0,0,-3.6,-2.7,-2.7,-4.1,0,0,-4.7,-2.7,0,0,-3.5,-2.7,0,0,-3.6,-4.1,-3.5" 
class="s1_31"
>A guitar tuner for the site</text>

<text 
x="879" 
y="128" 
dx="0,-2.6,-1.9,-1.8,-2.8,-2,-2.2,-2.1,-1.8,0,0,0" 
class="s2_31"
>embedding a </text>

<text 
x="879" 
y="150" 
dx="0,-2,-2.5,-1.9,-2.3,-2.3,-2.5,0,0,-2.4,-1.9,-2.9,-1.7,-2.7,-3.1" 
class="s2_31"
>Scratch project</text>

<text 
x="878" 
y="193" 
dx="0,0,0,0,0,0,4.9,-0.3,0,0,0,0,0,0,0,0,4.9,0,0,0,4.9,0,0,0,0,4.9,0,0,4.9,0,0,0,4.9,0,0,4.9,0,0,0,0,0" 
class="s3_31"
>After realising how easy it was to embed </text>

<text 
x="878" 
y="214" 
dx="0,0,0,0,0,0,0,6,0,0,0,6,0,0,0,0,0,6,0,0,0,0,0,6,0,0,0,0,0,-0.3,0,0,6,0,0,6,0,0,0" 
class="s3_31"
>videos and maps, Holly wondered if she </text>

<text 
x="878" 
y="235" 
dx="0,0,0,0,0,0,1.3,0,0,0,0,0,1.3,0,1.3,0,0,0,0,0,0,1.3,0,0,0,0,0,1.3,0,0,0,0,1.3,0,0,0,1.3,0,0,0,0,0,1.3,0,0,0" 
class="s3_31"
>could embed a guitar tuner into the site. But </text>

<text 
x="878" 
y="257" 
dx="0,0,0,0,-0.3,0,4.2,0,0,0,0,0,4.2,0,0,0,4.2,0,0,0,4.2,0,0,0,4.2,0,-0.3,0,0,0,4.2,0,0,0,0,4.2,0,0,0" 
class="s3_31"
>where would she get one from? Then she </text>

<text 
x="878" 
y="278" 
dx="0,-0.3,0,0,0,0,0,0,-0.3,0,0,-0.6,0,0,0,0,-0.6,0,0,0,-0.6,0,0,0,0,0,0,-0.6,0,0,0,-0.6,0,0,0,0,-0.6,0,0,0,0.3,0,0,0,0" 
class="s3_31"
>remembered that her sister had been learning </text>

<text 
x="878" 
y="299" 
dx="0,0,0,7.1,0,0,0,0,7.1,0,0,0,0,0,7.1,0,0,7.1,0,0,0,0,0,0,0,0,0,7.1,0,0,0,0,0,7.1,0,0,0" 
class="s3_31"
>to make games at CoderDojo using the </text>

<text 
x="878" 
y="321" 
dx="0,0,0,0,0,0,0,0,5.2,0,-0.3,0,0,0,0,0,0,0,0,0,5.2,0,0,0,0,0,0,0,0,0,5.2,0,0,0,5.2,0,0,0,0" 
class="s3_31"
>Scratch programming language. She went </text>

<text 
x="878" 
y="342" 
dx="0,0,0,2.4,0,0,0,2.4,0,0,0,0,0,0,0,2.4,0,0,0,0,2.4,0,0,0,2.4,0,0,0,-0.3,0,0,0,0,2.4,0,0,0,2.4,0,0,0,0,0,0,0" 
class="s3_31"
>to the Scratch site and searched for “guitar </text>

<text 
x="878" 
y="364" 
dx="0,0,0,0,0,0,0,0,-0.9,0,0,0,-0.3,0,-0.9,0,0,-0.3,0,-0.9,0,0,0,0,0" 
class="s3_31"
>tuner”. There were loads.</text>

<text 
x="878" 
y="406" 
dx="0,0,0,0,0.4,0,0,0,0,0,0.4,0,0,0,0.4,0,0,0,0.4,0,0,0,0,0,0.4,0,0,0,0.4,0,0,0,0,0,0,-0.3,0,0.4,0,0,0,0.4,0,0,0" 
class="s3_31"
>She found one she liked but couldn’t see any </text>

<text 
x="878" 
y="428" 
dx="0,0,0,0,0,0,0.6,0,0,0,0,0,0,0,0.6,0,0,0.3,0,0,0,0,0,0,0,0,0.6,0,0,0,0.6,0,0,0,0,0,0,0.6,0,0,0,0,0.6,0,0" 
class="s3_31"
>embed option! Fortunately her sister came to </text>

<text 
x="878" 
y="449" 
dx="0,0,0,0,0.4,-0.3,0,0,0,0,0,0.4,0,0.4,0,0,0,0,0,0.4,0,0,0,0.4,0,0,0.4,0,0,0,0.4,0,0,0.4,0,0,0.4,0,0,0,0.4,0,0,0,0,0,0,0" 
class="s3_31"
>the rescue – Holly had to log in to the Scratch </text>

<text 
x="878" 
y="471" 
dx="0,0,0,0,0,0.5,0,0,0,0,-0.3,0,0.5,0,0,0,0.5,0,0,0,0,0,0.5,0,0,0,0,0,0,0.5,0,0,0,0,0,-0.3,0,0,0.5,0,0,0.5,0,0,0" 
class="s3_31"
>site before the Embed button appeared in the </text>

<text 
x="878" 
y="492" 
dx="0,0,0,0,0,0.3,0,0,0,0,0,0,-0.3,0,0,0,-0.3,0,0,-0.3,0,0,0,-0.3,0,0,0,0,0,0,-0.3,0,0,-0.3,0,0,0,-0.3,0,0,0,0,0,-0.3,0,0,0" 
class="s3_31"
>information bar at the bottom of the game. The </text>

<text 
x="878" 
y="513" 
dx="0,0,0,0,0,0,0,2.4,0,0,0,0,0,2.4,0,0,0,2.4,0,0,0,0,0,2.4,0,0,0,0,2.4,0,0,0,2.4,0,0,0,2.4,0,0,0,0,0,0,0,0,0" 
class="s3_31"
>guitar tuner she liked best had the following </text>

<text 
x="878" 
y="535" 
dx="0,0,0,0,0,0,-0.9,0,0,0,0" 
class="s3_31"
>embed code:</text>

<text 
x="878" 
y="749" 
dx="0,0,0,0,0,2.5,0,0,0,0,2.5,0,0,0,2.5,0,0,0,0,0,2.5,0,0,0,0,2.5,0,0,0,0,2.5,0,0,0,0,2.5,0,0,2.5,0,0,2.5,0,0,0,0" 
class="s3_31"
>Note that the tuner will only show up if your </text>

<text 
x="878" 
y="770" 
dx="0,0,0,0,2.1,0,0,0,0,2.1,0,0,2.1,0,0,0,0,0,0,0,2.1,0,0,0,2.1,0,0,-0.3,0,2.1,0,0,0,0,0.3,0,0,0,0,0,0,2.1,0,0" 
class="s3_31"
>web page is online. For more information on </text>

<text 
x="878" 
y="791" 
dx="0,0,0,0,-0.9,0,0,0,-0.9,0,0,0,-0.9,0,-0.9,0,0,0,0,-0.9,0,0,0,0,0,0,0,-0.9,0,0,0,-0.9,0,0,0,0,-0.9,0,0" 
class="s3_31"
>how you get a page online, see page 90.</text>

<text 
x="878" 
y="588" 
dx="0,0,0,0,0,0,0,0,-1.8,0,0,0,0,0,0,0,0,0,0,0,0,0,0,0,0,0,0,0,0,0,0,0,0" 
class="s4_31"
>&lt;iframe allowtransparency="true" </text>

<text 
x="878" 
y="610" 
dx="0,0,0,0,0,0,0,0,0,0,0,0,-1.8,0,0,0,0,0,0,0,0,0,0,0,0,-1.8,0,0,0,0,0,0" 
class="s4_31"
>width="485" height="402" src="//</text>

<text 
x="878" 
y="631" 
dx="0,0,0,0,0,0,0,0,0,0,0,0,0,0,0,0,0,0,0,0,0,0,0,0,0" 
class="s4_31"
>scratch.mit.edu/projects/</text>

<text 
x="878" 
y="652" 
dx="0,0,0,0,0,0,0,0,0,0,0,0,0,0,0,0,0,-1.8,0,0,0,0,0,0,0,0,0,0,0,0,0,0,0,0" 
class="s4_31"
>embed/16403918/? autostart=false" </text>

<text 
x="878" 
y="674" 
dx="0,0,0,0,0,0,0,0,0,0,0,0,0,0,0,0,-1.8,0,0,0,0,0,0,0,0,0,0,0,0,0,0,0,0,0" 
class="s4_31"
>frameborder="0" allowfullscreen&gt;&lt;/</text>

<text 
x="878" 
y="695" 
dx="0,0,0,0,0,0,0" 
class="s4_31"
>iframe&gt;</text>

<text 
x="975" 
y="898" 
dx="0,0,0,0,0,0" 
class="s5_31"
>iframe</text>

<text 
x="1027" 
y="898" 
dx="0,0,2.2,0,0,0,2.2,0,0,0,2.2,0,0,0,0,2.2,0,0,0,0,0,0,0,2.2,0,0,0,0,2.2,0,0,0,0,2.2,0,0,0,2.2,-1.4,0,0,-1.4,0,0,0,2.2,0,0,0,0,0,2.2,0,0,0,2.2,0,0,0" 
class="s3_31"
>— you may have noticed that both the YouTube video and the </text>

<text 
x="975" 
y="920" 
dx="0,0,0,0,0,0,0,3.7,0,0,0,3.7,0,0,0,0,3.7,0,0,0,3.7,0,0,0" 
class="s3_31"
>Google map also use the </text>

<path d="M1174.3,909.8c-0.2,0.1,-0.3,0.3,-0.3,0.5c0,0.3,0.1,0.4,0.3,0.6c0.1,0.2,0.3,0.2,0.5,0.2c0.2,0,0.4,0,0.6,-0.2c0.1,-0.1,0.2,-0.3,0.2,-0.6c0,-0.2,-0.1,-0.4,-0.2,-0.5c-0.2,-0.2,-0.4,-0.3,-0.6,-0.3c-0.2,0,-0.4,0.1,-0.5,0.3Zm1.1,2.7l-3.5,0l0,1l2.3,0l0,6.8l1.2,0l0,-7.8Z" class="g34_31" />
<path d="M1184.8,909.5c-0.9,0,-1.5,0.2,-1.8,0.6c-0.3,0.4,-0.5,1.1,-0.5,2.1l0,0.3l-2,0l0,1l2,0l0,6.8l1.2,0l0,-6.8l2.6,0l0,-1l-2.6,0l0,-0.2c0,-0.7,0,-1.2,0.2,-1.4c0.2,-0.2,0.4,-0.3,0.9,-0.3c0.4,0,0.9,0,1.4,0.2l0.4,-1c-0.7,-0.2,-1.3,-0.3,-1.8,-0.3Z" class="g34_31" />
<path d="M1194.1,912.3c-1,0,-1.8,0.6,-2.5,1.8l0,-1.6l-1.1,0l0,7.8l1.1,0l0,-5.1c0,0,0.2,-0.2,0.5,-0.6c0.2,-0.4,0.5,-0.6,0.9,-0.8c0.3,-0.2,0.6,-0.3,1,-0.3c0.3,0,0.8,0.1,1.3,0.3l0.5,-1.1c-0.6,-0.3,-1.2,-0.4,-1.7,-0.4Z" class="g34_31" />
<path d="M1204.8,918.4l0,-3.3c0,-1.9,-0.9,-2.8,-2.6,-2.8c-1,0,-1.9,0.3,-3,0.8l0.3,0.8c0.3,-0.1,0.7,-0.3,1.2,-0.4c0.4,-0.1,0.8,-0.2,1.1,-0.2c1.2,0,1.8,0.7,1.8,2l0,0.4l-1.3,0.1c-0.5,0,-1.1,0.1,-1.5,0.2c-0.4,0.1,-0.8,0.3,-1.1,0.5c-0.3,0.2,-0.5,0.4,-0.6,0.7c-0.2,0.3,-0.3,0.7,-0.3,1.1c0,0.6,0.2,1.1,0.7,1.5c0.4,0.4,0.9,0.7,1.5,0.7c1.1,0,2,-0.5,2.7,-1.5c0,0.5,0.1,0.9,0.1,1.3l1.2,0c-0.1,-0.6,-0.2,-1.2,-0.2,-1.9Zm-2.2,0.6c-0.4,0.2,-0.8,0.3,-1.3,0.3c-0.3,0,-0.6,-0.1,-0.9,-0.3c-0.2,-0.2,-0.4,-0.5,-0.4,-0.8c0,-0.4,0.2,-0.7,0.5,-0.9c0.3,-0.3,0.6,-0.4,1,-0.5c0.4,-0.1,1.1,-0.2,2.1,-0.3l0,1.4c-0.3,0.5,-0.6,0.8,-1,1.1Z" class="g34_31" />
<path d="M1214.6,914.8c0,-1.7,-0.5,-2.5,-1.4,-2.5c-0.3,0,-0.6,0.1,-0.9,0.4c-0.3,0.2,-0.6,0.5,-0.8,0.9c-0.1,-0.4,-0.3,-0.7,-0.5,-0.9c-0.3,-0.3,-0.5,-0.4,-0.9,-0.4c-0.3,0,-0.6,0.1,-0.9,0.4c-0.3,0.2,-0.5,0.5,-0.7,0.9l0,-1.1l-1.2,0l0,7.8l1.2,0l0,-5.7c0,0,0.2,-0.2,0.4,-0.7c0.3,-0.4,0.6,-0.6,0.8,-0.6c0.5,0,0.7,0.6,0.7,1.8l0,5.2l1.1,0l0,-5.7c0,0,0.2,-0.2,0.5,-0.7c0.3,-0.4,0.5,-0.6,0.7,-0.6c0.5,0,0.7,0.6,0.7,1.8l0,5.2l1.2,0l0,-5.5Z" class="g34_31" />
<path d="M1223.4,916c0,-1.1,-0.3,-2,-0.9,-2.7c-0.6,-0.7,-1.4,-1,-2.3,-1c-1,0,-1.8,0.4,-2.4,1.1c-0.7,0.7,-1,1.7,-1,2.9c0,1.3,0.4,2.3,1.1,3c0.7,0.8,1.6,1.2,2.8,1.2c0.9,0,1.7,-0.2,2.4,-0.5l-0.2,-0.9c-0.8,0.2,-1.5,0.3,-2.2,0.3c-0.8,0,-1.4,-0.2,-1.9,-0.8c-0.5,-0.6,-0.8,-1.3,-0.8,-2.2l5.4,0l0,-0.4Zm-5.3,-0.5c0.1,-0.7,0.3,-1.2,0.7,-1.6c0.4,-0.4,0.9,-0.6,1.5,-0.6c0.4,0,0.9,0.2,1.2,0.6c0.4,0.4,0.6,0.9,0.6,1.6l-4,0Z" class="g34_31" />
<text 
x="1169" 
y="920" 
dx="0,0,0,0,0,0" 
class="s4_31"
>iframe</text>

<text 
x="1232" 
y="920" 
dx="0,0,0,0,0,0,0,0,0,3.7,0,0,3.7,0,0,0,0,0,0,3.7,0,0,0,0,0,0,3.7,0,0,0,3.7,0,0" 
class="s3_31"
>element. An iframe allows you to </text>

<text 
x="975" 
y="941" 
dx="0,0,0,0,0,0,-0.6,0,0,0,0,0,0,0,-0.6,0,-0.3,0,0,-0.6,0,0,0,0,0,0,0,-0.6,0,0,0,0,-0.6,0,0,0,0,0,0,-0.6,0,0,0,0,-0.6,0,0,0,0,0,0,0,0,-0.6,-1.4,0,0,-0.6,0,0,0,0,0,0,0,-0.6,0,0,0,-0.3,0" 
class="s3_31"
>embed content from another site inside your webpage. You specify where </text>

<text 
x="975" 
y="963" 
dx="0,0,0,-0.9,0,0,0,0,-0.9,0,0,0,-0.9,0,0,0,0,0,0,0,-0.9,0,0,-0.9,0,0,0,0,0,0,0,0,-0.9,0,-0.9,0,0,0,-0.9,0,0,0,0,0,0,-0.9,0,0,0,-0.9,0,0,0,0,0,0,-1.1,0" 
class="s3_31"
>to find the content by entering a URL inside the iframe’s </text>

<path d="M1355.8,955.4c-0.8,-0.2,-1.5,-0.3,-2.1,-0.3c-1,0,-1.7,0.2,-2.3,0.6c-0.6,0.4,-0.9,0.9,-0.9,1.6c0,0.3,0.1,0.5,0.2,0.8c0.1,0.2,0.3,0.5,0.5,0.6c0.3,0.2,0.5,0.3,0.8,0.4c0.3,0.1,0.8,0.3,1.4,0.5c0.7,0.2,1.2,0.4,1.4,0.6c0.2,0.2,0.3,0.5,0.3,0.7c0,0.4,-0.2,0.8,-0.6,1c-0.4,0.2,-1,0.4,-1.6,0.4c-0.7,0,-1.4,-0.2,-2.1,-0.5l-0.2,1c0.6,0.3,1.4,0.4,2.3,0.4c1,0,1.8,-0.2,2.4,-0.6c0.6,-0.4,0.9,-1,0.9,-1.8c0,-0.3,0,-0.7,-0.2,-1c-0.2,-0.3,-0.4,-0.5,-0.7,-0.7c-0.3,-0.2,-0.8,-0.4,-1.3,-0.5l-1.1,-0.3c-0.5,-0.2,-0.8,-0.3,-1,-0.5c-0.2,-0.2,-0.3,-0.4,-0.3,-0.6c0,-0.3,0.2,-0.6,0.6,-0.8c0.4,-0.2,0.9,-0.4,1.5,-0.4c0.6,0,1.2,0.2,1.8,0.4l0.3,-1Z" class="g34_31" />
<path d="M1363.9,955.1c-1,0,-1.8,0.6,-2.4,1.7l0,-1.5l-1.1,0l0,7.7l1.1,0l0,-5c0,0,0.2,-0.2,0.4,-0.6c0.3,-0.4,0.6,-0.7,0.9,-0.9c0.4,-0.2,0.7,-0.3,1,-0.3c0.4,0,0.9,0.2,1.4,0.4l0.4,-1.1c-0.5,-0.3,-1.1,-0.4,-1.7,-0.4Z" class="g34_31" />
<path d="M1374.5,961.8c-0.7,0.3,-1.4,0.4,-2.1,0.4c-0.8,0,-1.5,-0.3,-2,-0.9c-0.5,-0.6,-0.8,-1.3,-0.8,-2.2c0,-0.9,0.3,-1.6,0.8,-2.2c0.5,-0.5,1.2,-0.8,2,-0.8c0.6,0,1.2,0.1,1.9,0.3l0.3,-0.9c-0.7,-0.3,-1.4,-0.4,-2.2,-0.4c-1.2,0,-2.2,0.3,-2.9,1.1c-0.7,0.7,-1.1,1.7,-1.1,2.9c0,1.3,0.4,2.3,1.1,3c0.7,0.8,1.7,1.1,2.9,1.1c0.8,0,1.6,-0.1,2.3,-0.4l-0.2,-1Z" class="g34_31" />
<text 
x="1348" 
y="963" 
dx="0,0,0" 
class="s4_31"
>src</text>

<text 
x="1379" 
y="963" 
dx="0,0,0,0,0,0,0,0,0,0" 
class="s3_31"
>attribute.</text>

<text 
x="966" 
y="856" 
dx="0,-1.7,-1.7,-2.1,-2.2,0,0,-2.2,0,0,-1.9,-2.6,-1.7,-2.6,-1.9,-1.8,-2.6" 
class="s2_31"
>WORDS TO REMEMBER</text>

<text 
x="1238" 
y="475" 
dx="0,0,0,0,0,0,0,-2.9,-1.6,0,0,0" 
class="s6_31"
>Guitar Tuner</text>

<text 
x="56" 
y="64" 
dx="0,0,0,0,0,0,0,0,0,0,0,0,0,0,0,0,0,0,0,0,0,0,0,0,0,0,0,0,0,0,0,0,0,0.3,0,0,0,0,0,0,0,0,0,0,0,0.3,0,0,0,0,0,0,0,0,0,0,0,0,0,0,0,0,0,0,0,0,0,0,-1.4,0,0,0,0,0,0,0,0,0,0,0,0,0,0,0,0,0,0,0,0,0,0,0,0,0,0,0,0,0,0,0,0" 
class="s3_31"
>Using the CSS you can change every single part of the box separately. For example you can change the </text>

<text 
x="56" 
y="86" 
dx="0,0,0,0,0,0,0,0,0,0,0,1.1,0,0,1.1,0,0,0,0,1.1,0,0,0,0,0,0,0,0,1.1,0,0,0,1.1,0,0,0,0,0,0,0,0,0,0,1.1,0,0,0,0,0,1.1,0,0,0,0,0,0,0,0,0,0,0,0,1.1,0,0,0,0,0,0,1.1,0,0,1.1,0,0,0,0,0,0,0,0,0,1.1,0,0,0,1.1,0,0,0,0,0,0,0,1.1,0,0,0" 
class="s3_31"
>appearance of your headings and paragraphs quite dramatically simply by adjusting the padding and </text>

<text 
x="56" 
y="107" 
dx="0,0,0,0,0,0,0,0,-0.9,0,-0.3,0,0,0,0.3,0,0,0,0" 
class="s3_31"
>spacing properties.</text>

<text 
x="56" 
y="150" 
dx="0,0,0,1.8,0,0,0,0,1.8,0,0,1.8,0,0,0,0,0,0,0,0,1.8,0,0,0,1.8,0,0,0,0,1.8,0,0,1.8,0,0,0,1.8,0,0,0,0,0,0,0,1.8,0,0,0.3,0,0,1.8,0,0,1.8,0,0,0,1.8,0,0,0,0,1.8,0,0,0,1.8,0,0,0,1.8,0,0,0,0,1.8,0,0,0,0,0,0,1.8,0,0,0,1.8,0,0,0,0,0,0,0,1.8,0,0,1.8,0,0,0" 
class="s3_31"
>As well as changing the size of the various parts of the box, you can also change the colours of the </text>

<text 
x="56" 
y="171" 
dx="0,0,0,-0.3,0,0,-0.3,0,0,0,-0.9,0,0,0.3,0,0,-0.9,0,0,-0.9,0,0,0,-0.9,0,0,0,0,-0.9,0,0,0,0,-0.9,0,0,-0.9,0,0,0,-0.9,0,-0.3,0,0,0,-0.9,0,0,0,0,0,0,-0.9,0,-0.3,0,0,0,0,0,-0.9,0,0,0,-0.9,0,0,0,-0.9,0,0,-0.9,0,-0.9,0,0,0,-0.9,0,0,0,0,-0.9,0,-0.3,0,-0.9,0,-0.3,0,0,0,0,0,-0.9,0,0,-0.9,0,0,0,0,-0.9,0,0,-1.4" 
class="s3_31"
>different parts of the box. Many of the great visual effects you see on a web page are created in this way.</text>

<text 
x="56" 
y="439" 
dx="0,-1.4,0,0,1.5,0,0,0,1.5,0,0,0,0,1.5,0,0,0,0,0,0,1.5,0,0,0,1.5,0,0,0,0,0,0,0,1.5,0,0,0,0,1.5,0,0,1.5,0,0,0,1.5,0,0,0,1.5,0,0,1.5,0,0,0,0,0,0,0,1.5,0,0,0,1.5,0,0,0,0,0,1.5,0,0,1.5,0,0,0,0,0,0,0,1.5,0,0,0,0,0,0,0,0,1.5,0,0,0,0,1.5,0,-0.3,0,1.5,0,0,0,-0.1" 
class="s3_31"
>You can also change the overall size of the box by setting its width or height. Elements that are used </text>

<text 
x="56" 
y="460" 
dx="0,0,0,-0.3,0,0,0,0,0,0,0,-0.3,0,0,0,0,0,0,0,0,0,0,-0.3,0,0,-0.3,0,0,-0.3,0,0,-0.3,0,0,0,0.3,0,-0.3,0,0,0,0,0,0,0,0,-0.3,0,0,0,0,-0.3,0,0" 
class="s3_31"
>to contain individual words or short phrases, such as </text>

<path d="M425.7,456.2c0,-1.2,-0.3,-2.1,-0.9,-2.7c-0.6,-0.7,-1.3,-1.1,-2.2,-1.1c-1,0,-1.8,0.4,-2.5,1.1c-0.6,0.8,-0.9,1.7,-0.9,3c0,1.2,0.3,2.2,1,3c0.7,0.7,1.7,1.1,2.8,1.1c0.9,0,1.7,-0.2,2.4,-0.5l-0.2,-0.9c-0.7,0.3,-1.5,0.4,-2.2,0.4c-0.7,0,-1.3,-0.3,-1.8,-0.9c-0.5,-0.6,-0.8,-1.3,-0.8,-2.2l5.3,0l0,-0.3Zm-5.2,-0.6c0,-0.6,0.2,-1.2,0.6,-1.6c0.4,-0.4,0.9,-0.6,1.5,-0.6c0.5,0,0.9,0.2,1.3,0.7c0.4,0.4,0.6,0.9,0.6,1.5l-4,0Z" class="g34_31" />
<path d="M435.3,455c0,-1.7,-0.5,-2.6,-1.4,-2.6c-0.3,0,-0.6,0.2,-0.9,0.4c-0.3,0.2,-0.6,0.6,-0.8,1c-0.1,-0.4,-0.3,-0.8,-0.5,-1c-0.3,-0.2,-0.6,-0.4,-0.9,-0.4c-0.3,0,-0.6,0.2,-0.9,0.4c-0.3,0.2,-0.5,0.6,-0.7,1l0,-1.2l-1.2,0l0,7.8l1.2,0l0,-5.6c0,-0.1,0.1,-0.3,0.4,-0.7c0.3,-0.4,0.6,-0.7,0.8,-0.7c0.4,0,0.7,0.7,0.7,1.9l0,5.1l1.1,0l0,-5.6c0,-0.1,0.2,-0.3,0.5,-0.7c0.2,-0.4,0.5,-0.7,0.7,-0.7c0.5,0,0.7,0.7,0.7,1.9l0,5.1l1.2,0l0,-5.4Z" class="g34_31" />
<text 
x="417" 
y="460" 
dx="0,0" 
class="s4_31"
>em</text>

<text 
x="440" 
y="460" 
dx="0,0,0" 
class="s3_31"
>or </text>

<path d="M464.8,452.8c-0.8,-0.3,-1.5,-0.4,-2.1,-0.4c-1,0,-1.8,0.2,-2.4,0.6c-0.5,0.4,-0.8,0.9,-0.8,1.6c0,0.3,0,0.6,0.2,0.9c0.1,0.2,0.3,0.4,0.5,0.6c0.3,0.2,0.5,0.3,0.8,0.4c0.3,0.1,0.7,0.2,1.3,0.4c0.8,0.2,1.3,0.5,1.5,0.7c0.2,0.2,0.3,0.4,0.3,0.7c0,0.4,-0.2,0.7,-0.7,1c-0.4,0.2,-0.9,0.3,-1.5,0.3c-0.8,0,-1.5,-0.1,-2.1,-0.4l-0.2,1c0.6,0.2,1.4,0.4,2.3,0.4c1,0,1.8,-0.2,2.4,-0.7c0.6,-0.4,0.9,-1,0.9,-1.7c0,-0.4,-0.1,-0.7,-0.2,-1c-0.2,-0.3,-0.4,-0.5,-0.8,-0.7c-0.3,-0.2,-0.7,-0.4,-1.2,-0.6l-1.1,-0.3c-0.5,-0.1,-0.9,-0.3,-1,-0.4c-0.2,-0.2,-0.3,-0.4,-0.3,-0.6c0,-0.4,0.2,-0.7,0.6,-0.9c0.3,-0.2,0.8,-0.3,1.5,-0.3c0.5,0,1.2,0.1,1.8,0.3l0.3,-0.9Z" class="g34_31" />
<path d="M474.4,459.1c-0.7,0.3,-1.3,0.5,-1.9,0.5c-0.4,0,-0.7,-0.2,-0.9,-0.4c-0.2,-0.3,-0.3,-0.7,-0.3,-1.1l0,-4.5l2.7,0l0,-1l-2.7,0l0,-2.1l-1.1,0l0,2.1l-1.5,0l0,1l1.5,0l0,4.8c0,1.4,0.7,2.2,2.1,2.2c0.7,0,1.5,-0.2,2.3,-0.6l-0.2,-0.9Z" class="g34_31" />
<path d="M482.1,452.4c-1,0,-1.8,0.6,-2.4,1.8l0,-1.6l-1.2,0l0,7.8l1.2,0l0,-5c0,-0.1,0.1,-0.3,0.4,-0.7c0.2,-0.3,0.5,-0.6,0.9,-0.8c0.3,-0.2,0.6,-0.3,1,-0.3c0.4,0,0.8,0.1,1.3,0.3l0.5,-1.1c-0.6,-0.2,-1.1,-0.4,-1.7,-0.4Z" class="g34_31" />
<path d="M487.3,453.5c-0.7,0.8,-1,1.8,-1,3c0,1.2,0.3,2.2,1,3c0.6,0.7,1.4,1.1,2.5,1.1c1.1,0,1.9,-0.4,2.6,-1.1c0.6,-0.8,0.9,-1.8,0.9,-3c0,-1.2,-0.3,-2.2,-0.9,-3c-0.7,-0.7,-1.5,-1.1,-2.6,-1.1c-1.1,0,-1.9,0.4,-2.5,1.1Zm0.8,5.2c-0.4,-0.6,-0.6,-1.3,-0.6,-2.2c0,-0.9,0.2,-1.6,0.6,-2.2c0.4,-0.6,1,-0.9,1.7,-0.9c0.7,0,1.3,0.3,1.7,0.9c0.4,0.6,0.6,1.3,0.6,2.2c0,0.9,-0.2,1.6,-0.6,2.2c-0.4,0.6,-1,0.9,-1.7,0.9c-0.7,0,-1.3,-0.3,-1.7,-0.9Z" class="g34_31" />
<path d="M502,455.1c0,-1.8,-0.7,-2.7,-2.2,-2.7c-0.9,0,-1.8,0.5,-2.6,1.4l0,-1.2l-1.2,0l0,7.8l1.2,0l0,-5.6c0.8,-0.9,1.5,-1.4,2.3,-1.4c0.4,0,0.8,0.2,1,0.5c0.2,0.3,0.3,0.8,0.3,1.5l0,5l1.2,0l0,-5.3Z" class="g34_31" />
<path d="M507.8,457.5c0.7,0,1.4,-0.3,1.9,-0.8c0.5,-0.4,0.7,-1,0.7,-1.7c0,-0.6,-0.1,-1,-0.3,-1.4l1.4,0l0,-1.2l-2.3,0.4c-0.4,-0.2,-0.9,-0.4,-1.4,-0.4c-0.8,0,-1.4,0.3,-1.9,0.7c-0.5,0.5,-0.7,1.1,-0.7,1.9c0,0.4,0.1,0.8,0.3,1.2c0.2,0.4,0.6,0.8,1,1c-0.9,0.5,-1.4,1,-1.4,1.5c0,0.5,0.4,0.9,1.1,1.2c-0.9,0.5,-1.3,1,-1.3,1.6c0,0.6,0.3,1.1,0.8,1.4c0.6,0.4,1.3,0.6,2.1,0.6c1.1,0,2,-0.3,2.8,-0.8c0.8,-0.5,1.2,-1.2,1.2,-2.1c0,-0.6,-0.2,-1,-0.6,-1.3c-0.3,-0.3,-0.8,-0.5,-1.4,-0.5l-2.6,0.1c-0.3,0,-0.5,0,-0.7,-0.1c-0.2,-0.1,-0.3,-0.3,-0.3,-0.4c0,-0.3,0.4,-0.6,1.1,-0.9c0.2,0,0.3,0,0.5,0Zm-1.1,-1.4c-0.2,-0.3,-0.4,-0.7,-0.4,-1.1c0,-0.5,0.2,-0.9,0.4,-1.2c0.3,-0.3,0.7,-0.4,1.1,-0.4c0.4,0,0.8,0.1,1,0.4c0.3,0.3,0.4,0.7,0.4,1.2c0,0.4,-0.1,0.8,-0.4,1.1c-0.2,0.3,-0.6,0.5,-1,0.5c-0.4,0,-0.8,-0.2,-1.1,-0.5Zm-0.2,6.1C506.2,462,506,461.8,506,461.5c0,-0.2,0,-0.4,0.2,-0.6c0.1,-0.2,0.3,-0.4,0.5,-0.5c0.2,-0.2,0.4,-0.3,0.5,-0.3c0.2,0,0.5,0,0.9,0c0.7,-0.1,1.1,-0.1,1.3,-0.1c0.8,0,1.2,0.3,1.2,0.8c0,0.5,-0.3,0.9,-0.8,1.3c-0.6,0.3,-1.2,0.5,-2,0.5c-0.5,0,-1,-0.1,-1.3,-0.4Z" class="g34_31" />
<text 
x="457" 
y="460" 
dx="0,0,0,0,0,0" 
class="s4_31"
>strong</text>

<text 
x="516" 
y="460" 
dx="0,0,-0.3,0,-0.3,0,0,0,0,0,0" 
class="s3_31"
>are called </text>

<text 
x="588" 
y="460" 
dx="0,0,0,0,0,0,0,-0.3,0,0,0,0,0,0,0" 
class="s5_31"
>inline elements</text>

<text 
x="698" 
y="460" 
dx="0,0,-0.3,0,0,0,-0.3,0,0,0,0,0,0" 
class="s3_31"
>. For inline </text>

<text 
x="56" 
y="481" 
dx="0,0,0,0,0,0,0,0,0,0,0.7,0,0,0,0.7,0,0,0,0.7,0,0,0,0,0.7,0,-0.3,0,0,0,0,0.7,0,0,0,0.7,0,0,-0.3,0,0.7,0,0,0.7,0,0,0,0,0,0,0" 
class="s3_31"
>elements, the box fits around the word or phrase. </text>

<text 
x="406" 
y="481" 
dx="0,0,0,0,0,0,0,0,0,0.7,0,0,0,0,0.7,0,-0.3,0,0.7,0,0,0,0,0.7,0,0,0.7,0,0,0,0,0,0,0,0.7,0,0,0,0,0,0.7,0,0,0,0,0,0,0,0,0,0" 
class="s3_31"
>Elements that are used to contain whole paragraphs </text>

<text 
x="56" 
y="503" 
dx="0,0,-0.3,0,1.3,0,0,0,0,0,1.3,0,0" 
class="s3_31"
>are known as </text>

<text 
x="155" 
y="503" 
dx="0,-0.1,0,0,-0.3,0,1.3,0,0,0,0,0,0,0" 
class="s5_31"
>block elements</text>

<text 
x="266" 
y="503" 
dx="0,0,1.3,0,0,0,1.3,0,0,0,0,0,1.3,0,0,0,0,0,0,0,0,0,1.3,0,0,0,1.3,0,0,0,1.3,0,0,0.3,0,0,0,0,0,1.3,0,0,-0.3,0,0,0,0,0,0,1.3,0,0,-0.3,0,0,0,1.3,0,0,0,1.3,0,0,0,0,0,1.3,0,0,0,0,0" 
class="s3_31"
>. For block elements, the box normally stretches across the whole width </text>

<text 
x="56" 
y="524" 
dx="0,0,0,-0.9,0,0,0,-0.9,0,0,0,0" 
class="s3_31"
>of the page.</text>

<text 
transform="matrix(0.98, 0, 0, 1, 56, 717)"
dx="0,0,0,0,2.1,0,0,0,0,0,0,0,0,0,2.1,0,0,0,0,0,0,2.1,0,0,0,0,0,2.1,0,0,0,2.1,0,0,0,0,0,2.1,0,0,0,0,0,0,2.1,0,0,0,0,0,0,0,0" 
class="s3_31"
>The following tables shows you which common elements </text>

<text 
transform="matrix(0.98, 0, 0, 1, 56, 738)"
dx="0,0,-0.3,0,-0.9,0,0,0.3,0,0,0,0,0,-0.9,0,0,0,0,0,-0.9,0,0,0,0,0,0,0,0,-0.9,0,0,0,-0.9,0,0,0,0,0,-0.9,0,-0.3,0,-0.9,0,0,0.3,0,0,0,0,0,-0.9,0,0,0,0,0,0" 
class="s3_31"
>are normally block elements and which are normally inline:</text>

<text 
transform="matrix(0.98, 0, 0, 1, 56, 781)"
dx="0,-0.3,0,2.7,0,0,0,2.7,0,0,0,0.3,0,0,0,0,0,0,2.7,0,0,0,0,0,0,2.7,0,0,2.7,0,0,0,0.3,0,0,0,0,0,0,2.7,0,0,0,0,0,2.7,0,0,0,0,0,0,0,2.7,0,0,0" 
class="s3_31"
>We say ‘normally’ inline or ‘normally’ block because you </text>

<text 
transform="matrix(0.98, 0, 0, 1, 56, 802)"
dx="0,0,0,0,1.9,0,0,0,0,0,0,1.9,0,0,0,0,1.9,0,0,1.9,0,0,0,1.9,0,0,0,0,0,0,0,0,0,0,1.9,0,0,1.9,-0.3,0,0,0,0,-0.3,0,0,0,1.9,-0.3,0,1.9,0,0,0,1.9,0,0,0,0" 
class="s3_31"
>can change this in the stylesheet if required. We did this </text>

<text 
transform="matrix(0.98, 0, 0, 1, 56, 824)"
dx="0,0,0,0,0,0,0,0,4.4,0,0,4.4,0,0,0,0,4.4,0,4.4,0,0,4.4,0,0,0,4.4,0,0,0,0,4.4,0,0,0.3,0,0,0,0,0,0,0,4.4,0,0,0,0,0,0,0,4.4,0,0,0,0" 
class="s3_31"
>earlier in step 8 of our menu formatting example (see </text>

<text 
transform="matrix(0.98, 0, 0, 1, 56, 845)"
dx="0,0,0,0,0,2.7,0,0,0,2.7,0,0,0,0,2.7,0,0,2.7,0,0,0,0,0,0,0,2.7,0,0,0" 
class="s3_31"
>page 38) when we changed the </text>

<path d="M296.5,844.5l-2,0l0,-10l-3,0l0,1l2,0l0,10l3,0l0,-1Z" class="g35_31" />
<path d="M303.5,834.9c-0.1,0.2,-0.2,0.4,-0.2,0.6c0,0.2,0.1,0.4,0.2,0.5c0.2,0.2,0.4,0.3,0.6,0.3c0.2,0,0.4,-0.1,0.5,-0.2c0.2,-0.2,0.2,-0.4,0.2,-0.6c0,-0.2,0,-0.4,-0.2,-0.6c-0.1,-0.1,-0.3,-0.2,-0.5,-0.2c-0.2,0,-0.4,0.1,-0.6,0.2Zm1.1,2.7l-3.4,0l0,1l2.3,0l0,6.8l1.1,0l0,-7.8Z" class="g35_31" />
<text 
transform="matrix(0.98, 0, 0, 1, 290, 845)"
dx="0,0" 
class="s4_31"
>li</text>

<text 
transform="matrix(0.98, 0, 0, 1, 314, 845)"
dx="0,0,0,0,0,0,0,0,0,2.7,0,0,0,0,0,0,2.7,0,0,0" 
class="s3_31"
>elements inside the </text>

<text 
transform="matrix(0.98, 0, 0, 1, 56, 866)"
dx="0,0,0,0,0,5.9,0,0,5.9,0,0,0,0,5.9,0,0,0,0,5.9,0,0,0,0,0,-0.3,0,0,5.9,0,0,0,0,0,0,0,0,0,0,0,0,5.9,0,0,0,0,0,0,5.9,0,0,0,0" 
class="s3_31"
>menu so that they appeared side-by-side rather than </text>

<text 
transform="matrix(0.98, 0, 0, 1, 56, 888)"
dx="0,0,0,0,1.6,0,0,0,0,0,1.6,0,0,0,1.6,0,0,0,0,-1.4,0,1.6,-0.3,0,1.6,0,0,0,1.6,0,0,0,0,1.6,0,0,1.6,0,0,0,0,0,0,0,1.6,0,0,0" 
class="s3_31"
>one above the other. We did this by setting the </text>

<path d="M394.8,877.6l-1.2,0l0,3.8c-0.5,-0.8,-1.3,-1.2,-2.3,-1.2c-0.9,0,-1.6,0.4,-2.1,1.1c-0.5,0.8,-0.8,1.7,-0.8,2.9c0,1.2,0.3,2.2,0.8,3c0.5,0.8,1.2,1.2,2,1.2c0.5,0,1,-0.2,1.4,-0.4c0.5,-0.3,0.8,-0.6,1,-1l0,1.2l1.2,0l0,-10.6Zm-1.6,8.8c-0.2,0.3,-0.5,0.5,-0.8,0.7c-0.3,0.1,-0.6,0.2,-0.9,0.2c-0.6,0,-1,-0.3,-1.4,-0.9c-0.3,-0.5,-0.5,-1.3,-0.5,-2.2c0,-0.8,0.2,-1.6,0.6,-2.1c0.3,-0.6,0.8,-0.9,1.5,-0.9c0.7,0,1.4,0.5,1.9,1.4l0,3.2c0,0.1,-0.1,0.3,-0.4,0.6Z" class="g35_31" />
<path d="M400.8,877.7c-0.1,0.2,-0.2,0.3,-0.2,0.6c0,0.2,0.1,0.4,0.2,0.5c0.2,0.2,0.4,0.3,0.6,0.3c0.2,0,0.4,-0.1,0.5,-0.3c0.2,-0.1,0.2,-0.3,0.2,-0.5c0,-0.3,0,-0.5,-0.2,-0.6c-0.1,-0.2,-0.3,-0.2,-0.5,-0.2c-0.2,0,-0.4,0,-0.6,0.2Zm1.1,2.7l-3.4,0l0,1l2.3,0l0,6.8l1.1,0l0,-7.8Z" class="g35_31" />
<path d="M412.3,880.5c-0.8,-0.2,-1.5,-0.3,-2.1,-0.3c-0.9,0,-1.7,0.2,-2.3,0.6c-0.5,0.4,-0.8,0.9,-0.8,1.6c0,0.3,0,0.6,0.2,0.8c0.1,0.3,0.3,0.5,0.5,0.7c0.2,0.2,0.5,0.3,0.8,0.4c0.3,0.1,0.7,0.2,1.3,0.4c0.7,0.2,1.2,0.4,1.4,0.7c0.2,0.2,0.3,0.4,0.3,0.7c0,0.4,-0.2,0.7,-0.6,0.9c-0.4,0.3,-0.9,0.4,-1.6,0.4c-0.7,0,-1.4,-0.2,-2,-0.5l-0.3,1c0.7,0.3,1.4,0.5,2.4,0.5c0.9,0,1.7,-0.2,2.3,-0.7c0.6,-0.4,0.9,-1,0.9,-1.7c0,-0.4,-0.1,-0.7,-0.2,-1c-0.2,-0.3,-0.4,-0.6,-0.7,-0.8c-0.4,-0.2,-0.8,-0.3,-1.3,-0.5l-1.1,-0.3c-0.5,-0.1,-0.8,-0.3,-1,-0.5c-0.1,-0.1,-0.2,-0.3,-0.2,-0.6c0,-0.3,0.2,-0.6,0.5,-0.8c0.4,-0.2,0.9,-0.3,1.5,-0.3c0.6,0,1.2,0.1,1.8,0.3l0.3,-1Z" class="g35_31" />
<path d="M417.1,880.4l-1.2,0l0,10.8l1.2,0l0,-4.2c0.2,0.4,0.6,0.8,1,1c0.4,0.2,0.8,0.4,1.3,0.4c0.9,0,1.6,-0.4,2.1,-1.2c0.5,-0.8,0.8,-1.8,0.8,-3c0,-1.2,-0.2,-2.1,-0.7,-2.9c-0.5,-0.7,-1.2,-1.1,-2.1,-1.1c-0.5,0,-1,0.1,-1.4,0.3c-0.4,0.3,-0.8,0.5,-1,0.9l0,-1Zm2,0.8c0.7,0,1.1,0.3,1.5,0.9c0.3,0.5,0.5,1.3,0.5,2.2c0,0.8,-0.2,1.6,-0.5,2.1c-0.4,0.6,-0.9,0.9,-1.5,0.9c-0.4,0,-0.8,-0.1,-1.1,-0.4c-0.4,-0.3,-0.7,-0.7,-0.9,-1.1l0,-3.2c0.5,-0.9,1.2,-1.4,2,-1.4Z" class="g35_31" />
<path d="M430.5,887.5l-2,0l0,-10l-3,0l0,1l2,0l0,10l3,0l0,-1Z" class="g35_31" />
<path d="M439.8,886.4l0,-3.4c0,-1.9,-0.8,-2.8,-2.6,-2.8c-0.9,0,-1.8,0.3,-2.9,0.8l0.3,0.9c0.3,-0.2,0.7,-0.4,1.2,-0.5c0.4,-0.1,0.8,-0.2,1.1,-0.2c1.2,0,1.8,0.7,1.8,2l0,0.4l-1.3,0.1c-0.6,0,-1.1,0.1,-1.5,0.2c-0.4,0.2,-0.8,0.3,-1.1,0.5c-0.2,0.2,-0.5,0.5,-0.6,0.8c-0.2,0.2,-0.2,0.6,-0.2,1c0,0.6,0.2,1.1,0.6,1.6c0.4,0.4,0.9,0.6,1.5,0.6c1.1,0,2,-0.5,2.7,-1.5c0,0.5,0,1,0.1,1.3l1.1,0c-0.1,-0.6,-0.2,-1.2,-0.2,-1.8Zm-2.2,0.5c-0.4,0.2,-0.8,0.4,-1.2,0.4c-0.3,0,-0.6,-0.2,-0.9,-0.4c-0.2,-0.2,-0.3,-0.5,-0.3,-0.8c0,-0.4,0.1,-0.7,0.4,-0.9c0.3,-0.2,0.6,-0.4,1,-0.5c0.4,-0.1,1.1,-0.2,2.1,-0.2l0,1.4c-0.3,0.4,-0.7,0.7,-1.1,1Z" class="g35_31" />
<path d="M447.9,880.4l-2.1,6.2l-2.2,-6.2l-1.2,0l2.8,7.8c-0.2,0.7,-0.5,1.2,-0.8,1.5c-0.2,0.4,-0.6,0.5,-1,0.5c-0.3,0,-0.6,0,-1,-0.2l-0.2,1c0.5,0.2,1,0.2,1.4,0.2c0.6,0,1,-0.2,1.4,-0.6c0.5,-0.5,0.9,-1.3,1.3,-2.4l2.9,-7.8l-1.3,0Z" class="g35_31" />
<text 
transform="matrix(0.98, 0, 0, 1, 387, 888)"
dx="0,0,0,0,0,0,0" 
class="s4_31"
>display</text>

<text 
transform="matrix(0.98, 0, 0, 1, 56, 909)"
dx="0,0,-0.3,0,0,0,0.3,0,0,-0.9,0,0" 
class="s3_31"
>property to </text>

<path d="M136.7,899.1c-0.2,0.1,-0.3,0.3,-0.3,0.5c0,0.3,0.1,0.4,0.3,0.6c0.1,0.2,0.3,0.2,0.5,0.2c0.2,0,0.4,0,0.5,-0.2c0.2,-0.1,0.3,-0.3,0.3,-0.6c0,-0.2,-0.1,-0.4,-0.3,-0.5c-0.1,-0.2,-0.3,-0.3,-0.5,-0.3c-0.2,0,-0.4,0.1,-0.5,0.3Zm1,2.7l-3.3,0l0,1l2.2,0l0,6.8l1.1,0l0,-7.8Z" class="g35_31" />
<path d="M148.7,904.2c0,-1.7,-0.8,-2.6,-2.2,-2.6c-0.9,0,-1.8,0.4,-2.6,1.3l0,-1.1l-1.1,0l0,7.8l1.1,0l0,-5.7c0.8,-0.9,1.6,-1.3,2.3,-1.3c0.4,0,0.8,0.2,1,0.5c0.2,0.3,0.3,0.8,0.3,1.5l0,5l1.2,0l0,-5.4Z" class="g35_31" />
<path d="M157.5,908.5l-2,0l0,-9l-4,0l0,1l2,0l0,9l4,0l0,-1Z" class="g35_31" />
<path d="M163.7,899.1c-0.2,0.1,-0.3,0.3,-0.3,0.5c0,0.3,0.1,0.4,0.3,0.6c0.1,0.2,0.3,0.2,0.5,0.2c0.2,0,0.4,0,0.6,-0.2c0.1,-0.1,0.2,-0.3,0.2,-0.6c0,-0.2,-0.1,-0.4,-0.2,-0.5c-0.2,-0.2,-0.4,-0.3,-0.6,-0.3c-0.2,0,-0.4,0.1,-0.5,0.3Zm1.1,2.7l-3.4,0l0,1l2.2,0l0,6.8l1.2,0l0,-7.8Z" class="g35_31" />
<path d="M175.7,904.2c0,-1.7,-0.7,-2.6,-2.2,-2.6c-0.9,0,-1.7,0.4,-2.6,1.3l0,-1.1l-1.1,0l0,7.8l1.1,0l0,-5.7c0.8,-0.9,1.6,-1.3,2.3,-1.3c0.4,0,0.8,0.2,1,0.5c0.2,0.3,0.3,0.8,0.3,1.5l0,5l1.2,0l0,-5.4Z" class="g35_31" />
<path d="M184.9,905.3c0,-1.1,-0.3,-2,-0.9,-2.7c-0.6,-0.7,-1.3,-1,-2.2,-1c-1,0,-1.8,0.4,-2.4,1.1c-0.6,0.7,-0.9,1.7,-0.9,2.9c0,1.3,0.3,2.3,1,3c0.7,0.8,1.6,1.2,2.8,1.2c0.8,0,1.6,-0.2,2.3,-0.5l-0.2,-0.9c-0.7,0.2,-1.4,0.3,-2.1,0.3c-0.8,0,-1.4,-0.2,-1.9,-0.8c-0.5,-0.6,-0.7,-1.3,-0.7,-2.2l5.2,0l0,-0.4Zm-5.2,-0.5c0.1,-0.7,0.3,-1.2,0.7,-1.6c0.4,-0.4,0.9,-0.6,1.5,-0.6c0.4,0,0.8,0.2,1.2,0.6c0.4,0.4,0.6,1,0.6,1.6l-4,0Z" class="g35_31" />
<text 
transform="matrix(0.98, 0, 0, 1, 132, 909)"
dx="0,0,0,0,0,0" 
class="s4_31"
>inline</text>

<text 
transform="matrix(0.98, 0, 0, 1, 189, 909)"
dx="0,0,0,0,0,-0.9,0,0,0,0" 
class="s3_31"
>like this:</text>

<path d="M135.5,609.5l43,0" class="g36_31" />
<text 
transform="matrix(0.95, 0, 0, 1, 73, 607)"
dx="0,0.9,0.9,0.9,0.9,0.9" 
class="s3_31"
>These </text>

<text 
transform="matrix(0.95, 0, 0, 1, 135, 607)"
dx="0,0.9,0.9,0.9,0.9,0.9" 
class="s3_31"
>boxes </text>

<text 
transform="matrix(0.95, 0, 0, 1, 196, 607)"
dx="0,0.9,0.9,0.9,0.9" 
class="s3_31"
>have </text>

<text 
transform="matrix(0.95, 0, 0, 1, 249, 607)"
dx="0,0.9,0.9,0.9,0.9" 
class="s3_31"
>been </text>

<text 
transform="matrix(0.95, 0, 0, 1, 303, 607)"
dx="0,0.9,0.8,0.6,0.9" 
class="s7_31"
>drawn</text>

<text 
transform="matrix(0.95, 0, 0, 1, 364, 607)"
dx="0,0.9,0.6,0.9,0.9,0.9,0.9" 
class="s3_31"
>around </text>

<text 
transform="matrix(0.95, 0, 0, 1, 432, 607)"
dx="0,0.9,0.9,0.9,0.9,0.9" 
class="s5_31"
>inline</text>

<text 
transform="matrix(0.95, 0, 0, 1, 493, 607)"
dx="0,0.9,0.9,0.9,0.9,0.9,0.9,0.9,0.9" 
class="s3_31"
>elements.</text>

<path d="M61,665l703,0l0,-37L61,628l0,37Z" class="g37_31" />
<path d="M127,619l57,0l0,-33l-57,0l0,33Z" class="g37_31" />
<path d="M294,619l61,0l0,-33l-61,0l0,33Z" class="g37_31" />
<path d="M424,619l57,0l0,-33l-57,0l0,33Z" class="g38_31" />
<text 
x="109" 
y="342" 
dx="0,0,0,0,0,-5.1,0,0,0,-5.1,0,0,0,0,0,0,0,-2.6,0" 
class="s8_31"
>Meet the Nanonauts!</text>

<text 
transform="matrix(0.95, 0, 0, 1, 73, 652)"
dx="0,0.9,0.1,0.9,0.9,0.9,0.9,0.1,0.9,0.9,0.9,0.1,0.9,0.9,0.9,0.1,0.9,0.9,0.9,0.9,0.1,0.9,0.9,0.9,0.9,0.9,0.1,0.9,0.6,0.9,0.9,0.9,0.9,0.1,0.9,0.1,0.9,0.9,0.9,0.9,0.9,0.1,0.9,0.9,0.9,0.9,0.9,0.9,0.9" 
class="s3_31"
>• This box has been drawn around a block element.</text>

<text 
x="194" 
y="941" 
dx="0,0,0,0,-1.8,0,0,-1.8,0,0,-1.8" 
class="s4_31"
>nav ul li {</text>

<text 
x="194" 
y="963" 
dx="0,0,0,0,0,0,0,0,0,-1.8,0,0,0,0,0,0" 
class="s4_31"
>display: inline;</text>

<text 
x="194" 
y="984" 
dx="0" 
class="s4_31"
>}</text>

<path d="M494,727l0,4l-4,0l0,24l4,0l0,5l130,0l0,-5l4,0l0,-24l-4,0l0,-4Z" class="g1_31" />
<path d="M494,768l0,4l-4,0l0,24l4,0l0,5l130,0l0,-5l4,0l0,-24l-4,0l0,-4Z" class="g1_31" />
<path d="M641,727l0,4l-5,0l0,24l5,0l0,5l129,0l0,-5l5,0l0,-24l-5,0l0,-4Z" class="g1_31" />
<path d="M641,768l0,4l-5,0l0,24l5,0l0,5l129,0l0,-5l5,0l0,-24l-5,0l0,-4Z" class="g1_31" />
<path d="M641,812l0,5l-5,0l0,24l5,0l0,4l129,0l0,-4l5,0l0,-24l-5,0l0,-5Z" class="g1_31" />
<path d="M641,856l0,5l-5,0l0,24l5,0l0,4l129,0l0,-4l5,0l0,-24l-5,0l0,-5Z" class="g1_31" />
<path d="M510.9,747.3l0,-3.3c0,-1.9,-0.9,-2.8,-2.7,-2.8c-0.9,0,-1.9,0.3,-2.9,0.8l0.3,0.8c0.3,-0.1,0.7,-0.3,1.1,-0.4c0.5,-0.1,0.9,-0.2,1.1,-0.2c1.3,0,1.9,0.7,1.9,2l0,0.4l-1.3,0.1c-0.6,0,-1.1,0.1,-1.5,0.2c-0.4,0.1,-0.8,0.3,-1.1,0.5c-0.3,0.2,-0.5,0.4,-0.7,0.7c-0.1,0.3,-0.2,0.7,-0.2,1c0,0.7,0.2,1.2,0.6,1.6c0.5,0.4,1,0.6,1.6,0.6c1.1,0,2,-0.4,2.7,-1.4c0,0.5,0,0.9,0.1,1.2l1.2,0c-0.2,-0.5,-0.2,-1.1,-0.2,-1.8Zm-2.3,0.6c-0.4,0.2,-0.8,0.3,-1.2,0.3c-0.4,0,-0.7,-0.1,-0.9,-0.3c-0.3,-0.2,-0.4,-0.5,-0.4,-0.8c0,-0.4,0.1,-0.7,0.4,-1c0.3,-0.2,0.7,-0.3,1.1,-0.4c0.3,-0.1,1.1,-0.2,2.1,-0.3l0,1.4c-0.3,0.5,-0.7,0.8,-1.1,1.1Z" class="g34_31" />
<text 
x="503" 
y="749" 
dx="0" 
class="s4_31"
>a</text>

<path d="M511.1,787.7c0,-1.1,-0.3,-2,-0.9,-2.7c-0.6,-0.7,-1.3,-1,-2.2,-1c-1,0,-1.9,0.3,-2.5,1.1c-0.6,0.7,-1,1.7,-1,2.9c0,1.3,0.4,2.3,1.1,3c0.7,0.7,1.6,1.1,2.8,1.1c0.9,0,1.7,-0.1,2.4,-0.4l-0.2,-1c-0.8,0.3,-1.5,0.4,-2.2,0.4c-0.7,0,-1.4,-0.3,-1.9,-0.9c-0.5,-0.5,-0.7,-1.3,-0.7,-2.1l5.3,0l0,-0.4Zm-5.3,-0.6c0.1,-0.6,0.3,-1.1,0.7,-1.5c0.4,-0.4,0.9,-0.6,1.5,-0.6c0.5,0,0.9,0.2,1.3,0.6c0.3,0.4,0.5,0.9,0.5,1.5l-4,0Z" class="g34_31" />
<path d="M520.7,786.5c0,-1.7,-0.5,-2.5,-1.5,-2.5c-0.2,0,-0.5,0.1,-0.9,0.3c-0.3,0.3,-0.5,0.6,-0.7,1c-0.1,-0.4,-0.3,-0.7,-0.5,-1c-0.3,-0.2,-0.6,-0.3,-0.9,-0.3c-0.3,0,-0.6,0.1,-0.9,0.3c-0.3,0.3,-0.6,0.6,-0.8,1l0,-1.2l-1.1,0l0,7.8l1.2,0l0,-5.6c0,0,0.1,-0.3,0.4,-0.7c0.3,-0.4,0.5,-0.6,0.8,-0.6c0.4,0,0.7,0.6,0.7,1.8l0,5.1l1.1,0l0,-5.6c0,0,0.2,-0.3,0.4,-0.7c0.3,-0.4,0.6,-0.6,0.8,-0.6c0.5,0,0.7,0.6,0.7,1.8l0,5.1l1.2,0l0,-5.4Z" class="g34_31" />
<text 
x="503" 
y="791" 
dx="0,0" 
class="s4_31"
>em</text>

<path d="M657.5,743.8c0,-1.7,-0.8,-2.6,-2.2,-2.6c-1,0,-1.8,0.4,-2.7,1.3l0,-3.9l-1.1,0l0,10.5l1.1,0l0,-5.6c0.8,-0.9,1.6,-1.3,2.3,-1.3c0.5,0,0.8,0.1,1.1,0.5c0.2,0.3,0.3,0.8,0.3,1.5l0,4.9l1.2,0l0,-5.3Z" class="g34_31" />
<path d="M666.6,748.1l-2.1,0l0,-9.5l-1,0l-2.3,1.1l0,1.2l2.1,-1l0,8.2l-2.2,0l0,1l5.5,0l0,-1Z" class="g34_31" />
<text 
x="649" 
y="749" 
dx="0,0" 
class="s4_31"
>h1</text>

<text 
x="671" 
y="749" 
dx="0,0,0" 
class="s3_31"
>to </text>

<path d="M695.3,743.8c0,-1.7,-0.7,-2.6,-2.2,-2.6c-0.9,0,-1.8,0.4,-2.6,1.3l0,-3.9l-1.2,0l0,10.5l1.2,0l0,-5.6c0.8,-0.9,1.6,-1.3,2.3,-1.3c0.5,0,0.8,0.1,1,0.5c0.3,0.3,0.4,0.8,0.4,1.5l0,4.9l1.1,0l0,-5.3Z" class="g34_31" />
<path d="M700.3,740.7c0.4,-0.8,1.1,-1.2,1.9,-1.2c0.5,0,1.2,0.1,1.9,0.4l0.2,-1.1c-0.6,-0.3,-1.3,-0.4,-2.2,-0.4c-1.2,0,-2.1,0.5,-2.8,1.6c-0.7,1.1,-1,2.4,-1,4c0,1.5,0.3,2.8,1,3.8c0.6,1,1.5,1.5,2.7,1.5c0.8,0,1.5,-0.3,2.1,-0.9c0.5,-0.7,0.8,-1.5,0.8,-2.5c0,-0.9,-0.3,-1.6,-0.9,-2.2c-0.6,-0.6,-1.4,-0.8,-2.3,-0.8c-0.7,0,-1.4,0.2,-2.1,0.8c0,-1.3,0.2,-2.3,0.7,-3Zm1.4,3.2c0.6,0,1.1,0.2,1.4,0.6c0.3,0.4,0.5,0.9,0.5,1.5c0,0.7,-0.2,1.3,-0.5,1.7c-0.3,0.4,-0.7,0.6,-1.2,0.6c-0.7,0,-1.2,-0.4,-1.6,-1.1c-0.5,-0.8,-0.7,-1.6,-0.7,-2.5c0.7,-0.5,1.3,-0.8,2.1,-0.8Z" class="g34_31" />
<text 
x="687" 
y="749" 
dx="0,0" 
class="s4_31"
>h6</text>

<path d="M652.6,784.1l-1.1,0l0,10.9l1.1,0l0,-4.2c0.3,0.4,0.6,0.7,1,1c0.4,0.2,0.9,0.3,1.4,0.3c0.9,0,1.6,-0.4,2.1,-1.2c0.6,-0.8,0.8,-1.8,0.8,-3c0,-1.1,-0.2,-2.1,-0.7,-2.8C656.7,784.3,656,784,655.1,784c-0.5,0,-1,0.1,-1.4,0.3c-0.5,0.2,-0.8,0.5,-1.1,0.9l0,-1.1Zm2.1,0.9c0.6,0,1.1,0.2,1.5,0.8c0.3,0.6,0.5,1.3,0.5,2.2c0,0.9,-0.2,1.6,-0.5,2.2c-0.4,0.6,-0.9,0.9,-1.5,0.9c-0.4,0,-0.8,-0.2,-1.2,-0.5c-0.4,-0.3,-0.7,-0.6,-0.9,-1.1l0,-3.2c0.6,-0.9,1.3,-1.3,2.1,-1.3Z" class="g34_31" />
<text 
x="649" 
y="791" 
dx="0" 
class="s4_31"
>p</text>

<path d="M494,699l0,5l-5,0l0,13l5,0l0,4l130,0l0,-4l4,0l0,-13l-4,0l0,-5Z" class="g33_31" />
<text 
x="504" 
y="717" 
dx="0,0,0,0,0,0" 
class="s9_31"
>INLINE</text>

<path d="M640,699l0,5l-4,0l0,13l4,0l0,4l130,0l0,-4l5,0l0,-13l-5,0l0,-5Z" class="g33_31" />
<text 
x="649" 
y="717" 
dx="0,0,0,0,0" 
class="s10_31"
>BLOCK</text>

<path d="M494,812l0,5l-4,0l0,24l4,0l0,4l130,0l0,-4l4,0l0,-24l-4,0l0,-5Z" class="g1_31" />
<path d="M510.3,827.1c-0.7,-0.3,-1.4,-0.4,-2.1,-0.4c-0.9,0,-1.7,0.2,-2.3,0.6c-0.6,0.4,-0.9,1,-0.9,1.6c0,0.3,0.1,0.6,0.2,0.9c0.1,0.2,0.3,0.4,0.6,0.6c0.2,0.2,0.5,0.3,0.8,0.4c0.2,0.1,0.7,0.2,1.3,0.4c0.7,0.2,1.2,0.5,1.4,0.7c0.2,0.2,0.3,0.4,0.3,0.7c0,0.4,-0.2,0.7,-0.6,1c-0.4,0.2,-0.9,0.3,-1.6,0.3c-0.7,0,-1.4,-0.1,-2.1,-0.4l-0.2,1c0.6,0.3,1.4,0.4,2.4,0.4c0.9,0,1.7,-0.2,2.3,-0.6c0.7,-0.5,1,-1.1,1,-1.8c0,-0.4,-0.1,-0.7,-0.3,-1c-0.1,-0.3,-0.4,-0.5,-0.7,-0.7c-0.3,-0.2,-0.7,-0.4,-1.3,-0.6l-1.1,-0.3c-0.5,-0.1,-0.8,-0.3,-1,-0.4c-0.1,-0.2,-0.2,-0.4,-0.2,-0.6c0,-0.4,0.2,-0.7,0.5,-0.9c0.4,-0.2,0.9,-0.3,1.5,-0.3c0.6,0,1.2,0.1,1.9,0.3l0.2,-0.9Z" class="g34_31" />
<path d="M519.9,833.4c-0.6,0.3,-1.2,0.5,-1.9,0.5c-0.3,0,-0.6,-0.2,-0.8,-0.4c-0.2,-0.3,-0.3,-0.7,-0.3,-1.1l0,-4.5l2.6,0l0,-1l-2.6,0l0,-2.1l-1.2,0l0,2.1l-1.5,0l0,1l1.5,0l0,4.8c0,1.4,0.7,2.2,2.1,2.2c0.8,0,1.5,-0.2,2.3,-0.6l-0.2,-0.9Z" class="g34_31" />
<path d="M527.6,826.7c-1,0,-1.8,0.6,-2.4,1.8l0,-1.6l-1.2,0l0,7.8l1.2,0l0,-5c0,-0.1,0.1,-0.3,0.4,-0.6c0.3,-0.4,0.6,-0.7,0.9,-0.9c0.4,-0.2,0.7,-0.3,1,-0.3c0.4,0,0.8,0.1,1.4,0.4l0.4,-1.2c-0.5,-0.2,-1.1,-0.4,-1.7,-0.4Z" class="g34_31" />
<path d="M532.8,827.9c-0.6,0.7,-0.9,1.7,-0.9,2.9c0,1.2,0.3,2.2,0.9,3c0.6,0.7,1.5,1.1,2.6,1.1c1,0,1.9,-0.4,2.5,-1.1c0.6,-0.8,1,-1.8,1,-3c0,-1.2,-0.4,-2.2,-1,-2.9c-0.6,-0.8,-1.5,-1.2,-2.5,-1.2c-1.1,0,-2,0.4,-2.6,1.2Zm0.9,5.1c-0.4,-0.6,-0.6,-1.3,-0.6,-2.2c0,-0.9,0.2,-1.6,0.6,-2.2c0.4,-0.6,0.9,-0.9,1.7,-0.9c0.7,0,1.2,0.3,1.6,0.9c0.4,0.6,0.6,1.3,0.6,2.2c0,0.9,-0.2,1.6,-0.6,2.2c-0.4,0.6,-0.9,0.9,-1.6,0.9c-0.7,0,-1.3,-0.3,-1.7,-0.9Z" class="g34_31" />
<path d="M547.5,829.4c0,-1.8,-0.7,-2.7,-2.1,-2.7c-1,0,-1.8,0.5,-2.7,1.4l0,-1.2l-1.1,0l0,7.8l1.1,0l0,-5.6c0.8,-0.9,1.6,-1.4,2.3,-1.4c0.5,0,0.8,0.2,1.1,0.5c0.2,0.3,0.3,0.8,0.3,1.5l0,5l1.1,0l0,-5.3Z" class="g34_31" />
<path d="M553.3,831.8c0.8,0,1.4,-0.3,1.9,-0.8c0.5,-0.4,0.7,-1,0.7,-1.7c0,-0.6,-0.1,-1,-0.3,-1.4l1.5,0l0,-1.2l-2.3,0.4c-0.4,-0.2,-0.9,-0.3,-1.5,-0.3c-0.7,0,-1.3,0.2,-1.8,0.7c-0.5,0.4,-0.8,1,-0.8,1.8c0,0.4,0.1,0.8,0.4,1.2c0.2,0.4,0.5,0.8,0.9,1c-0.9,0.5,-1.3,1,-1.3,1.5c0,0.5,0.3,0.9,1,1.3c-0.8,0.4,-1.3,0.9,-1.3,1.5c0,0.6,0.3,1.1,0.9,1.4c0.5,0.4,1.2,0.6,2.1,0.6c1,0,1.9,-0.3,2.7,-0.8c0.8,-0.5,1.2,-1.2,1.2,-2.1c0,-0.6,-0.2,-1,-0.5,-1.3c-0.4,-0.3,-0.8,-0.5,-1.5,-0.5l-2.6,0.1c-0.3,0,-0.5,0,-0.7,-0.1c-0.1,-0.1,-0.2,-0.3,-0.2,-0.4c0,-0.3,0.4,-0.6,1.1,-0.9c0.1,0,0.3,0,0.4,0Zm-1,-1.4c-0.3,-0.3,-0.4,-0.7,-0.4,-1.1c0,-0.5,0.1,-0.9,0.4,-1.2c0.3,-0.3,0.6,-0.4,1,-0.4c0.5,0,0.8,0.1,1.1,0.4c0.3,0.3,0.4,0.7,0.4,1.2c0,0.4,-0.1,0.8,-0.4,1.1c-0.3,0.3,-0.6,0.5,-1.1,0.5c-0.4,0,-0.7,-0.2,-1,-0.5Zm-0.3,6.1c-0.3,-0.2,-0.5,-0.4,-0.5,-0.7c0,-0.2,0.1,-0.4,0.2,-0.6c0.1,-0.2,0.3,-0.4,0.6,-0.5c0.2,-0.2,0.4,-0.3,0.5,-0.3c0.2,0,0.5,0,0.9,0c0.6,-0.1,1,-0.1,1.3,-0.1c0.8,0,1.1,0.3,1.1,0.8c0,0.5,-0.2,0.9,-0.8,1.3c-0.5,0.3,-1.2,0.5,-1.9,0.5c-0.6,0,-1,-0.1,-1.4,-0.4Z" class="g34_31" />
<text 
x="503" 
y="834" 
dx="0,0,0,0,0,0" 
class="s4_31"
>strong</text>

<path d="M657.4,826.9l-1.1,0l0,5.6c-0.8,0.9,-1.6,1.4,-2.3,1.4c-0.5,0,-0.9,-0.2,-1.1,-0.5c-0.2,-0.3,-0.3,-0.8,-0.3,-1.5l0,-5l-1.2,0l0,5.3c0,1.8,0.8,2.7,2.2,2.7c1,0,1.8,-0.5,2.7,-1.4l0,1.2l1.1,0l0,-7.8Z" class="g34_31" />
<path d="M666.5,833.5l-2,0l0,-9l-4,0l0,1l2,0l0,9l4,0l0,-1Z" class="g34_31" />
<text 
x="649" 
y="834" 
dx="0,0" 
class="s4_31"
>ul</text>

<text 
x="668" 
y="834" 
dx="0,0" 
class="s3_31"
>, </text>

<path d="M677.9,827.9c-0.7,0.7,-1,1.7,-1,2.9c0,1.2,0.3,2.2,1,3c0.6,0.7,1.4,1.1,2.5,1.1c1.1,0,1.9,-0.4,2.6,-1.1c0.6,-0.8,0.9,-1.8,0.9,-3c0,-1.2,-0.3,-2.2,-0.9,-2.9c-0.7,-0.8,-1.5,-1.2,-2.6,-1.2c-1.1,0,-1.9,0.4,-2.5,1.2Zm0.8,5.1c-0.4,-0.6,-0.6,-1.3,-0.6,-2.2c0,-0.9,0.2,-1.6,0.6,-2.2c0.4,-0.6,1,-0.9,1.7,-0.9c0.7,0,1.3,0.3,1.7,0.9c0.4,0.6,0.6,1.3,0.6,2.2c0,0.9,-0.2,1.6,-0.6,2.2c-0.4,0.6,-1,0.9,-1.7,0.9c-0.7,0,-1.2,-0.3,-1.7,-0.9Z" class="g34_31" />
<path d="M692.5,833.5l-2,0l0,-9l-4,0l0,1l2,0l0,9l4,0l0,-1Z" class="g34_31" />
<text 
x="675" 
y="834" 
dx="0,0" 
class="s4_31"
>ol</text>

<path d="M656.5,876.5l-2,0l0,-10l-3,0l0,1l2,0l0,10l3,0l0,-1Z" class="g34_31" />
<path d="M663.6,867c-0.2,0.2,-0.3,0.3,-0.3,0.6c0,0.2,0.1,0.4,0.3,0.5c0.1,0.2,0.3,0.3,0.5,0.3c0.2,0,0.4,-0.1,0.6,-0.3c0.1,-0.1,0.2,-0.3,0.2,-0.5c0,-0.3,-0.1,-0.4,-0.2,-0.6c-0.2,-0.2,-0.4,-0.2,-0.6,-0.2c-0.2,0,-0.4,0,-0.5,0.2Zm1.1,2.7l-3.5,0l0,1l2.3,0l0,6.8l1.2,0l0,-7.8Z" class="g34_31" />
<text 
x="649" 
y="877" 
dx="0,0" 
class="s4_31"
>li</text>

<path d="M476,722l0,4l-4,0l0,4l-4,0l0,4l-4,0l0,4l-4,0l0,-4l0,-4l0,-4l0,-4l0,-4l0,-4l0,-4l0,-4l0,-4l4,0l0,4l4,0l0,4l4,0l0,4l4,0l0,4l4,0l0,4Z" class="g33_31" />
<path d="M1031,568l-4,0l0,-4l-4,0l0,-4l-4,0l0,-4l-4,0l0,-4l4,0l4,0l4,0l4,0l4,0l4,0l4,0l4,0l4,0l0,4l-4,0l0,4l-4,0l0,4l-4,0l0,4l-4,0l0,4l-4,0Z" class="g33_31" />
<path d="M310,920l-4,0l0,-4l-4,0l0,-4l-5,0l0,-5l-4,0l0,-4l4,0l5,0l4,0l4,0l4,0l4,0l4,0l4,0l4,0l0,4l-4,0l0,5l-4,0l0,4l-4,0l0,4l-4,0l0,4l-4,0Z" class="g33_31" />
<text 
x="1591" 
y="1019" 
dx="0,-1.4" 
class="s11_31"
>61</text>

<text 
x="35" 
y="1019" 
dx="0,-1.3" 
class="s11_31"
>60</text>



<!-- Any embedded fonts defined here -->
<style type="text/css" ><![CDATA[

@font-face {
	font-family: Helvetica-Oblique_1f9;
	src: url("fonts/Helvetica-Oblique_1f9.woff") format("woff");
}

@font-face {
	font-family: AndaleMono_1cn;
	src: url("fonts/AndaleMono_1cn.woff") format("woff");
}

@font-face {
	font-family: HVDPosterClean_1e7;
	src: url("fonts/HVDPosterClean_1e7.woff") format("woff");
}

@font-face {
	font-family: Helvetica-Bold_rs;
	src: url("fonts/Helvetica-Bold_rs.woff") format("woff");
}

@font-face {
	font-family: Helvetica-Light_1by;
	src: url("fonts/Helvetica-Light_1by.woff") format("woff");
}

@font-face {
	font-family: Helvetica-Bold_ry;
	src: url("fonts/Helvetica-Bold_ry.woff") format("woff");
}

@font-face {
	font-family: PixelSplitter-Bold_1bs;
	src: url("fonts/PixelSplitter-Bold_1bs.woff") format("woff");
}

@font-face {
	font-family: PixelSplitter-Bold_rm;
	src: url("fonts/PixelSplitter-Bold_rm.woff") format("woff");
}

@font-face {
	font-family: Helvetica-Bold_1bu;
	src: url("fonts/Helvetica-Bold_1bu.woff") format("woff");
}

]]></style>

</svg>
