<?xml version="1.0" encoding="UTF-8" standalone="no"?>
<!DOCTYPE svg PUBLIC "-//W3C//DTD SVG 1.1//EN"
"http://www.w3.org/Graphics/SVG/1.1/DTD/svg11.dtd">


<!-- Page 33 -->
<svg x="0" y="0" width="1645" height="1061" viewBox="0 0 1645 1061" version="1.1" xmlns="http://www.w3.org/2000/svg" xmlns:xlink="http://www.w3.org/1999/xlink"
style="display: block;margin-left: auto;margin-right: auto;">
<defs>

<style type="text/css"><![CDATA[

.g23_33{
fill: none;
stroke: #000000;
stroke-width: 1;
stroke-linecap: butt;
stroke-linejoin: miter;
stroke-miterlimit: 4;
}
.g5_33{
fill: #89BA6E;
}
.g6_33{
fill: #F3F9F0;
}
.g8_33{
}
.g33_33{
fill: none;
stroke: #11151D;
stroke-width: 1;
stroke-linecap: butt;
stroke-linejoin: miter;
stroke-miterlimit: 3;
}
.g7_33{
fill: #D5C5DD;
}
.g1_33{
fill: #FFFFFF;
}
.g10_33{
fill: #ED1D24;
}
.g31_33{
fill: #11151D;
}
.g9_33{
fill: #2AACE2;
}
.g27_33{
fill: #2AACE2;
fill-opacity: 0.100006;
}
.g11_33{
fill: #FAAD60;
}
.g28_33{
fill: none;
stroke: #000000;
stroke-width: 2;
stroke-linecap: butt;
stroke-linejoin: miter;
stroke-miterlimit: 4;
stroke-opacity: 0.100006;
}
.g25_33{
fill: #FAAD60;
fill-opacity: 0.100006;
}
.g34_33{
fill: none;
stroke: #D6D4D6;
stroke-width: 2;
stroke-linecap: butt;
stroke-linejoin: miter;
stroke-miterlimit: 4;
}
.g24_33{
fill: none;
stroke: #FFFFFF;
stroke-width: 4;
stroke-linecap: round;
stroke-linejoin: round;
stroke-miterlimit: 4;
}
.g30_33{
fill: none;
stroke: #000000;
stroke-width: 2;
stroke-linecap: butt;
stroke-linejoin: miter;
stroke-miterlimit: 4;
}
.g29_33{
fill: #ED1D24;
fill-opacity: 0.100006;
}
.g15_33{
fill: none;
stroke: #989898;
stroke-width: 5;
stroke-linecap: butt;
stroke-linejoin: miter;
stroke-miterlimit: 4;
}
.g22_33{
fill: none;
stroke: #6D6E71;
stroke-width: 1;
stroke-linecap: butt;
stroke-linejoin: miter;
stroke-miterlimit: 4;
}
.g18_33{
fill: none;
stroke: #FFFFFF;
stroke-width: 1;
stroke-linecap: round;
stroke-linejoin: round;
stroke-miterlimit: 4;
}
.g14_33{
fill: #B897C1;
}
.g12_33{
fill: #FEC22A;
}
.g21_33{
fill: #F9AD60;
}
.g13_33{
fill: #00AEEF;
}
.g32_33{
fill: none;
stroke: #11151D;
stroke-width: 1;
stroke-linecap: butt;
stroke-linejoin: miter;
stroke-miterlimit: 4;
}
.g19_33{
fill: none;
stroke: #FFFFFF;
stroke-width: 2;
stroke-linecap: round;
stroke-linejoin: round;
stroke-miterlimit: 4;
}
.g2_33{
fill: #E7DEEC;
}
.g26_33{
fill: #FFD400;
fill-opacity: 0.100006;
}
.g3_33{
fill: #EC2127;
}
.g20_33{
fill: #FFD400;
}
.g35_33{
fill: none;
stroke: #11151D;
stroke-width: 2;
stroke-linecap: butt;
stroke-linejoin: miter;
stroke-miterlimit: 4;
}
.g4_33{
fill: #FED402;
}
.g16_33{
fill: #989797;
}
.g17_33{
fill: none;
stroke: #FFFFFF;
stroke-width: 1;
stroke-linecap: round;
stroke-linejoin: round;
}

.s7_33{
font-size: 14.92px;
font-family: Helvetica-Bold_1bu;
fill: #D6D4D6;
}
.s17_33{
font-size: 4.10px;
font-family: Helvetica-Bold_1bu;
fill: #11151D;
}
.s13_33{
font-size: 6.84px;
font-family: Helvetica-Bold_1bu;
fill: #11151D;
}
.s22_33{
font-size: 5.47px;
font-family: Helvetica_1e3;
fill: #11151D;
}
.s19_33{
font-size: 7.95px;
font-family: Helvetica-Bold_1bu;
fill: #11151D;
}
.s1_33{
font-size: 33.61px;
font-family: PixelSplitter-Bold_u3;
fill: #FFFFFF;
}
.s8_33{
font-size: 12.90px;
font-family: Helvetica-Bold_1bu;
fill: #11151D;
}
.s9_33{
font-size: 12.90px;
font-family: Helvetica-Bold_1bu;
fill: #D6D4D6;
}
.s15_33{
font-size: 8.00px;
font-family: Helvetica-Bold_1bu;
fill: #11151D;
}
.s3_33{
font-size: 15.28px;
font-family: Helvetica-Bold_1bu;
fill: #11151D;
}
.s21_33{
font-size: 4.28px;
font-family: Helvetica_1dx;
fill: #11151D;
}
.s27_33{
font-size: 14.86px;
font-family: Helvetica-Bold_1bu;
fill: #D6D4D6;
}
.s24_33{
font-size: 6.35px;
font-family: Helvetica-Bold_1bu;
fill: #11151D;
}
.s10_33{
font-size: 12.91px;
font-family: Helvetica-Bold_1bu;
fill: #11151D;
}
.s11_33{
font-size: 12.91px;
font-family: Helvetica-Bold_1bu;
fill: #D6D4D6;
}
.s14_33{
font-size: 4.10px;
font-family: Helvetica_1e3;
fill: #11151D;
}
.s16_33{
font-size: 4.30px;
font-family: Helvetica_1dx;
fill: #11151D;
}
.s5_33{
font-size: 18.33px;
font-family: PixelSplitter-Bold_1bs;
fill: #11151D;
}
.s25_33{
font-size: 10.70px;
font-family: Helvetica-Bold_1bu;
fill: #D6D4D6;
}
.s28_33{
font-size: 10.29px;
font-family: Helvetica_1e3;
fill: #D6D4D6;
}
.s26_33{
font-size: 10.70px;
font-family: Helvetica-Bold_1bu;
fill: #11151D;
}
.s23_33{
font-size: 18.33px;
font-family: Wingdings-Regular_1c4;
fill: #11151D;
}
.s18_33{
font-size: 5.53px;
font-family: Helvetica-Bold_1bu;
fill: #11151D;
}
.s12_33{
font-size: 7.91px;
font-family: Helvetica-Bold_1bu;
fill: #11151D;
}
.s29_33{
font-size: 12.22px;
font-family: PixelSplitter-Bold_1bs;
fill: #11151D;
}
.s6_33{
font-size: 21.39px;
font-family: PixelSplitter-Bold_1bs;
fill: #11151D;
}
.s20_33{
font-size: 4.28px;
font-family: Helvetica_1e3;
fill: #11151D;
}
.s4_33{
font-size: 15.28px;
font-family: AndaleMono_1cn;
fill: #11151D;
}
.s2_33{
font-size: 15.28px;
font-family: Helvetica-Light_1by;
fill: #11151D;
}

]]></style>

</defs>
<path d="M0,0
L0,1061
L1645,1061
L1645,0 Z " 
fill="#FFFFFF" stroke="none" />
<image x="-33" y="-32" width="1713" height="1115" xlink:href="33/img/1.png" />
<image x="-13" y="-11" width="1674" height="1073" opacity="0.5" xlink:href="33/img/2.png" />
<path d="M452,663l0,4l-4,0l0,334l4,0l0,4l323,0l0,-4l4,0l0,-334l-4,0l0,-4Z" class="g1_33" />
<path d="M1218.9,380l0,-176.5l-202.5,0l0,176.5l10.1,-8.9l10.1,8.9l10.2,-8.9l10.1,8.9l10.1,-8.9l10.2,8.9l10.1,-8.9l10.1,8.9l10.1,-8.9l10.2,8.9l10.1,-8.9l10.1,8.9l10.1,-8.9l10.2,8.9l10.1,-8.9l10.1,8.9l10.1,-8.9l10.2,8.9l10.1,-8.9Z" class="g1_33" />
<path d="M1218.9,380l0,-176.5l-10.5,0l0,168l0.4,-0.4Z" class="g2_33" />
<path d="M1047,349l75,0l0,-136l-75,0l0,136Z" class="g1_33" />
<path d="M1026,228l171,0l0,-15l-171,0l0,15Z" class="g3_33" />
<path d="M1197.5,379l0,-150.2l-171.3,0l0,142.6l0.3,-0.3l10.2,8.9l10.1,-8.9l10.1,8.9l10.1,-8.9l10.2,8.9l10.1,-8.9l10.1,8.9l10.1,-8.9l10.2,8.9l10.1,-8.9l10.1,8.9l10.1,-8.9l10.2,8.9l10.1,-8.9l10.1,8.9l10.1,-8.9Z" class="g4_33" />
<path d="M1043,309l137,0l0,-73l-137,0l0,73Z" class="g5_33" />
<path d="M1180.5,378.2l0,-61.2l-137.4,0l0,57.3l3.7,-3.2l10.1,8.9l10.1,-8.9l10.2,8.9l10.1,-8.9l10.1,8.9l10.1,-8.9l10.2,8.9l10.1,-8.9l10.1,8.9l10.1,-8.9l10.2,8.9l10.1,-8.9l10.1,8.9Z" class="g5_33" />
<path d="M1049,270l25,0l0,-29l-25,0l0,29Z" class="g6_33" />
<path d="M1049,351l25,0l0,-29l-25,0l0,29Z" class="g6_33" />
<path d="M1208,213l10,0l0,-10l-10,0l0,10Z" class="g7_33" />
<path d="M1213,207l-0.5,0c-0.1,0,-0.1,0,-0.2,0.1c0,0,-0.1,0.1,-0.1,0.2l0,0.5l-0.5,0c-0.1,0,-0.1,0,-0.2,0.1c0,0,0,0.1,0,0.1l0,0.5l-0.5,0c-0.1,0,-0.1,0.1,-0.2,0.1c0,0.1,-0.1,0.1,-0.1,0.2l0,0.7c0,0.1,0.1,0.2,0.1,0.2c0.1,0,0.1,0.1,0.2,0.1l0.7,0c0.1,0,0.1,-0.1,0.2,-0.1c0,0,0.1,-0.1,0.1,-0.2l0,-0.5l0.5,0c0.1,0,0.1,0,0.2,0c0,-0.1,0,-0.1,0,-0.2l0,-0.5l0.6,0c0,0,0.1,0,0.1,-0.1c0.1,0,0.1,-0.1,0.1,-0.2l0,-0.5l0.3,0l0,0.5c0,0.1,0.1,0.1,0.1,0.2c0,0,0.1,0,0.2,0l0.5,0l0,0.6c0,0,0,0.1,0.1,0.1c0,0.1,0.1,0.1,0.1,0.1l0.6,0l0,0.5c0,0.1,0,0.2,0,0.2c0.1,0,0.2,0.1,0.2,0.1l0.7,0c0.1,0,0.1,-0.1,0.2,-0.1c0,0,0,-0.1,0,-0.2l0,-0.6c0,-0.1,0,-0.2,0,-0.2c-0.1,-0.1,-0.1,-0.1,-0.2,-0.1l-0.5,0l0,-0.5c0,-0.1,0,-0.1,-0.1,-0.2c0,0,-0.1,-0.1,-0.2,-0.1l-0.5,0l0,-0.5c0,-0.1,0,-0.1,-0.1,-0.2c0,0,-0.1,0,-0.2,0l-0.5,0l0,-0.6c0,0,0,-0.1,0,-0.1c-0.1,-0.1,-0.2,-0.1,-0.2,-0.1l-0.7,0c-0.1,0,-0.2,0,-0.2,0.1c-0.1,0,-0.1,0.1,-0.1,0.1Z" class="g8_33" />
<path d="M985.1,349.9l0,-146.2l-119,0l0,146.2l10,-8.7l9.9,8.7l9.9,-8.7l9.9,8.7l9.9,-8.7l9.9,8.7l10,-8.7l9.9,8.7l9.9,-8.7l9.9,8.7l9.9,-8.7Z" class="g1_33" />
<path d="M985.1,349.9l0,-146.2l-10.5,0l0,138.1l0.6,-0.6Z" class="g2_33" />
<path d="M875,228l89,0l0,-15l-89,0l0,15Z" class="g3_33" />
<path d="M964.2,348.9l0,-120l-88.7,0l0,112.9l0.6,-0.6l9.9,8.7l9.9,-8.7l9.9,8.7l9.9,-8.7l9.9,8.7l10,-8.7l9.9,8.7l9.9,-8.7Z" class="g4_33" />
<path d="M955.4,341.3l0,-104.8l-71.1,0l0,111.9l1.7,1.5l9.9,-8.7l9.9,8.7l9.9,-8.7l9.9,8.7l10,-8.7l9.9,8.7Z" class="g5_33" />
<path d="M889,271l25,0l0,-30l-25,0l0,30Z" class="g6_33" />
<path d="M974,213l11,0l0,-10l-11,0l0,10Z" class="g7_33" />
<path d="M979.4,207.2l-0.5,0c-0.1,0,-0.2,0,-0.2,0.1c-0.1,0,-0.1,0.1,-0.1,0.1l0,0.6l-0.5,0c-0.1,0,-0.1,0,-0.2,0c-0.1,0.1,-0.1,0.1,-0.1,0.2l0,0.5l-0.4,0c-0.1,0,-0.2,0.1,-0.2,0.1c-0.1,0.1,-0.1,0.1,-0.1,0.2l0,0.7c0,0.1,0,0.1,0.1,0.2c0,0,0.1,0.1,0.2,0.1l0.7,0c0.1,0,0.1,-0.1,0.2,-0.1c0,-0.1,0,-0.1,0,-0.2l0,-0.5l0.6,0c0,0,0.1,0,0.1,0c0.1,-0.1,0.1,-0.2,0.1,-0.2l0,-0.5l0.5,0c0.1,0,0.2,-0.1,0.2,-0.1c0,-0.1,0.1,-0.1,0.1,-0.2l0,-0.5l0.3,0l0,0.5c0,0,0,0.1,0.1,0.1c0,0.1,0.1,0.1,0.1,0.1l0.6,0l0,0.5c0,0.1,0,0.2,0,0.2c0.1,0.1,0.1,0.1,0.2,0.1l0.5,0l0,0.5c0,0.1,0.1,0.1,0.1,0.2c0.1,0,0.1,0.1,0.2,0.1l0.7,0c0,0,0.1,-0.1,0.1,-0.1c0.1,-0.1,0.1,-0.1,0.1,-0.2l0,-0.7c0,0,0,-0.1,-0.1,-0.1c0,-0.1,-0.1,-0.1,-0.1,-0.1l-0.6,0l0,-0.5c0,-0.1,0,-0.2,0,-0.2C982,208,982,208,981.9,208l-0.5,0l0,-0.5c0,-0.1,-0.1,-0.1,-0.1,-0.2c-0.1,0,-0.1,-0.1,-0.2,-0.1l-0.5,0l0,-0.5c0,-0.1,0,-0.1,-0.1,-0.2c0,0,-0.1,0,-0.2,0l-0.7,0c0,0,-0.1,0,-0.2,0c0,0.1,0,0.1,0,0.2Z" class="g8_33" />
<path d="M1600,460.4l0,-256.9l-354,0l0,256.9l9.8,-8.6l9.9,8.6l9.8,-8.6l9.8,8.6l9.9,-8.6l9.8,8.6l9.8,-8.6l9.9,8.6l9.8,-8.6l9.8,8.6l9.9,-8.6l9.8,8.6l9.8,-8.6l9.8,8.6l9.9,-8.6l9.8,8.6l9.8,-8.6l9.9,8.6l9.8,-8.6l9.8,8.6l9.9,-8.6l9.8,8.6l9.8,-8.6l9.9,8.6l9.8,-8.6l9.8,8.6l9.9,-8.6l9.8,8.6l9.8,-8.6l9.9,8.6l9.8,-8.6l9.8,8.6l9.9,-8.6l9.8,8.6l9.8,-8.6Z" class="g1_33" />
<path d="M1600,460.4l0,-256.9l-10.6,0l0,248.9l0.7,-0.6Z" class="g2_33" />
<path d="M1256,231l321,0l0,-15l-321,0l0,15Z" class="g3_33" />
<path d="M1475.6,454.8l0,-223.5l-218.7,0l0,221.4l8.8,7.7l9.8,-8.6l9.8,8.6l9.9,-8.6l9.8,8.6l9.8,-8.6l9.9,8.6l9.8,-8.6l9.8,8.6l9.8,-8.6l9.9,8.6l9.8,-8.6l9.8,8.6l9.9,-8.6l9.8,8.6l9.8,-8.6l9.9,8.6l9.8,-8.6l9.8,8.6l9.9,-8.6l9.8,8.6l9.8,-8.6Z" class="g4_33" />
<path d="M1266,294l197,0l0,-56l-197,0l0,56Z" class="g5_33" />
<path d="M1266,358l197,0l0,-56l-197,0l0,56Z" class="g5_33" />
<path d="M1475,421l102,0l0,-190l-102,0l0,190Z" class="g9_33" />
<path d="M1577.7,458.1l0,-37.5l-102.2,0l0,34.1l6.5,5.7l9.8,-8.6l9.8,8.6l9.9,-8.6l9.8,8.6l9.8,-8.6l9.9,8.6l9.8,-8.6l9.8,8.6l9.9,-8.6Z" class="g9_33" />
<path d="M1273,273l25,0l0,-30l-25,0l0,30Z" class="g6_33" />
<path d="M1266,421l197,0l0,-55l-197,0l0,55Z" class="g5_33" />
<path d="M1463.4,459.4l0,-28.7l-196.4,0l0,28.6l8.5,-7.5l9.8,8.6l9.9,-8.6l9.8,8.6l9.8,-8.6l9.9,8.6l9.8,-8.6l9.8,8.6l9.9,-8.6l9.8,8.6l9.8,-8.6l9.8,8.6l9.9,-8.6l9.8,8.6l9.8,-8.6l9.9,8.6l9.8,-8.6l9.8,8.6l9.9,-8.6l9.8,8.6Z" class="g5_33" />
<path d="M1273,337l25,0l0,-30l-25,0l0,30Z" class="g6_33" />
<path d="M1273,396l25,0l0,-25l-25,0l0,25Z" class="g6_33" />
<path d="M1298.9,455.1l0,-19.3l-25.1,0l0,17.5l1.7,-1.5l9.8,8.6l9.9,-8.6Z" class="g6_33" />
<path d="M1589,213l10,0l0,-10l-10,0l0,10Z" class="g7_33" />
<path d="M1594,207.1l-0.5,0c0,0,-0.1,0,-0.2,0c0,0.1,0,0.1,0,0.2l0,0.5l-0.5,0c-0.1,0,-0.2,0.1,-0.2,0.1c-0.1,0.1,-0.1,0.1,-0.1,0.2l0,0.5l-0.5,0c0,0,-0.1,0,-0.1,0.1c-0.1,0,-0.1,0.1,-0.1,0.2l0,0.7c0,0.1,0,0.1,0.1,0.2c0,0,0.1,0,0.1,0l0.8,0c0,0,0.1,0,0.1,0c0.1,-0.1,0.1,-0.1,0.1,-0.2l0,-0.5l0.5,0c0.1,0,0.1,0,0.2,-0.1c0,0,0.1,-0.1,0.1,-0.1l0,-0.6l0.5,0c0.1,0,0.1,0,0.2,0c0,-0.1,0,-0.1,0,-0.2l0,-0.5l0.4,0l0,0.4c0,0.1,0,0.2,0,0.2c0.1,0.1,0.1,0.1,0.2,0.1l0.5,0l0,0.5c0,0.1,0.1,0.1,0.1,0.2c0.1,0,0.1,0.1,0.2,0.1l0.5,0l0,0.5c0,0.1,0,0.1,0.1,0.2c0,0,0.1,0,0.2,0l0.6,0c0.1,0,0.2,0,0.2,0c0.1,-0.1,0.1,-0.1,0.1,-0.2l0,-0.7c0,-0.1,0,-0.1,-0.1,-0.2c0,0,-0.1,0,-0.2,0l-0.5,0l0,-0.6c0,0,0,-0.1,-0.1,-0.1c0,-0.1,-0.1,-0.1,-0.1,-0.1l-0.6,0l0,-0.5c0,-0.1,0,-0.2,0,-0.2c-0.1,-0.1,-0.1,-0.1,-0.2,-0.1l-0.5,0l0,-0.5c0,-0.1,-0.1,-0.1,-0.1,-0.2c-0.1,0,-0.1,-0.1,-0.2,-0.1l-0.7,0c-0.1,0,-0.1,0.1,-0.2,0.1c0,0.1,-0.1,0.1,-0.1,0.2Z" class="g8_33" />
<path d="M461,753l301,0l0,-58l-301,0l0,58Z" class="g10_33" />
<path d="M469,745l285,0l0,-21l-285,0l0,21Z" class="g11_33" />
<path d="M461,963l211,0l0,-204l-211,0l0,204Z" class="g12_33" />
<path d="M680,963l82,0l0,-204l-82,0l0,204Z" class="g13_33" />
<path d="M471,952l191,0l0,-45l-191,0l0,45Z" class="g5_33" />
<path d="M688,865l68,0l0,-45l-68,0l0,45Z" class="g5_33" />
<path d="M688,916l68,0l0,-46l-68,0l0,46Z" class="g5_33" />
<path d="M471,902l191,0l0,-45l-191,0l0,45Z" class="g5_33" />
<path d="M688,815l68,0l0,-45l-68,0l0,45Z" class="g5_33" />
<path d="M461,997l301,0l0,-26l-301,0l0,26Z" class="g14_33" />
<path d="M50,371l0,2l0,2l-2,0l-3,0l0,623l3,0l2,0l0,2l0,3l377,0l0,-3l0,-2l3,0l2,0l0,-623l-2,0l-3,0l0,-2l0,-2Z" class="g1_33" />
<path d="M50.5,371.5l0,2l0,2l-2,0l-3,0l0,623l3,0l2,0l0,2l0,3l377,0l0,-3l0,-2l3,0l2,0l0,-623l-2,0l-3,0l0,-2l0,-2l-377,0Z" class="g15_33" />
<path d="M49,368l0,5l-4,0l0,26l388,0l0,-26l-5,0l0,-5Z" class="g16_33" />
<path d="M61.7,384.2c1.2,0,2.2,-1,2.2,-2.2c0,-1.2,-1,-2.2,-2.2,-2.2c-1.2,0,-2.2,1,-2.2,2.2c0,1.2,1,2.2,2.2,2.2Z" class="g1_33" />
<path d="M70.3,384.2c1.2,0,2.2,-1,2.2,-2.2c0,-1.2,-1,-2.2,-2.2,-2.2c-1.2,0,-2.2,1,-2.2,2.2c0,1.2,1,2.2,2.2,2.2Z" class="g1_33" />
<path d="M78.9,384.2c1.2,0,2.2,-1,2.2,-2.2c0,-1.2,-1,-2.2,-2.2,-2.2c-1.3,0,-2.3,1,-2.3,2.2c0,1.2,1,2.2,2.3,2.2Z" class="g1_33" />
<path d="M59.7,388.4c0,0,-1.6,0,-1.6,1.5l0,3.3c0,0,0,1.5,1.6,1.5l347.8,0c0,0,1.6,0,1.6,-1.5l0,-3.3c0,0,0,-1.5,-1.6,-1.5Z" class="g1_33" />
<path d="M422.8,388.8l0,2.8c-0.3,-0.1,-0.7,-0.1,-1.1,-0.2c-0.4,-0.1,-0.9,-0.2,-1.4,-0.3c-0.1,0,-0.2,0,-0.3,0c0.4,-0.3,0.7,-0.5,1,-0.8c-0.5,-0.3,-1,-0.4,-1.5,-0.3c-0.5,0.1,-0.8,0.4,-1.1,0.8c-0.3,0.4,-0.4,0.9,-0.3,1.4c0.1,0.5,0.3,0.9,0.7,1.2c0.4,0.3,1,0.5,1.6,0.3c0.6,-0.1,1,-0.4,1.3,-1l0,-0.1c0.3,0.1,0.7,0.2,1,0.3c-0.2,0.6,-0.5,1.1,-1,1.4c-0.5,0.3,-1,0.5,-1.6,0.5c0,0,-0.1,0,-0.1,0l-0.1,0c0,0,-0.1,0,-0.1,0c-0.2,0,-0.4,0,-0.6,-0.1c-0.6,-0.1,-1.1,-0.4,-1.5,-0.9c-0.4,-0.5,-0.6,-1,-0.7,-1.6c0,-0.1,0,-0.2,0,-0.2l0,-0.2l0,-0.1c0,-0.1,0,-0.2,0,-0.3c0.1,-0.6,0.4,-1.1,0.8,-1.5c0.4,-0.5,1,-0.8,1.6,-0.9c0.4,-0.1,0.7,-0.1,1.1,0c0.5,0.1,0.9,0.3,1.3,0.6c0.1,0,0.1,0,0.1,0c0.2,-0.2,0.4,-0.3,0.6,-0.5c0.1,-0.1,0.2,-0.2,0.3,-0.3Z" class="g1_33" />
<path d="M422.8,388.8l0,2.8c-0.3,-0.1,-0.7,-0.1,-1.1,-0.2c-0.4,-0.1,-0.9,-0.2,-1.4,-0.3c-0.1,0,-0.2,0,-0.3,0c0.4,-0.3,0.7,-0.5,1,-0.8c-0.5,-0.3,-1,-0.4,-1.5,-0.3c-0.5,0.1,-0.8,0.4,-1.1,0.8c-0.3,0.4,-0.4,0.9,-0.3,1.4c0.1,0.5,0.3,0.9,0.7,1.2c0.4,0.3,1,0.5,1.6,0.3c0.6,-0.1,1,-0.4,1.3,-1l0,-0.1c0.3,0.1,0.7,0.2,1,0.3c-0.2,0.6,-0.5,1.1,-1,1.4c-0.5,0.3,-1,0.5,-1.6,0.5c0,0,-0.1,0,-0.1,0l-0.1,0c0,0,-0.1,0,-0.1,0c-0.2,0,-0.4,0,-0.6,-0.1c-0.6,-0.1,-1.1,-0.4,-1.5,-0.9c-0.4,-0.5,-0.6,-1,-0.7,-1.6c0,-0.1,0,-0.2,0,-0.2l0,-0.2l0,-0.1c0,-0.1,0,-0.2,0,-0.3c0.1,-0.6,0.4,-1.1,0.8,-1.5c0.4,-0.5,1,-0.8,1.6,-0.9c0.4,-0.1,0.7,-0.1,1.1,0c0.5,0.1,0.9,0.3,1.3,0.6c0.1,0,0.1,0,0.1,0c0.2,-0.2,0.4,-0.3,0.6,-0.5c0.1,-0.1,0.2,-0.2,0.3,-0.3Z" class="g17_33" />
<path d="M417.5,380.5l5,0" class="g18_33" />
<path d="M417.5,381.5l5,0" class="g18_33" />
<path d="M417.5,383.5l5,0" class="g18_33" />
<path d="M54.9,389.7l-1.1,1.9l1.1,1.8" class="g19_33" />
<path d="M59,964l245,0l0,-521L59,443l0,521Z" class="g20_33" />
<path d="M59,415l360,0l0,-16L59,399l0,16Z" class="g10_33" />
<path d="M59,435l360,0l0,-20L59,415l0,20Z" class="g21_33" />
<path d="M64.8,567.6c-0.2,0,-5.1,0,-5.1,5.1l0,82.1c0,0.2,0.1,5.1,5.1,5.1l234.5,0c0.2,0,5.1,-0.1,5.1,-5.1l0,-82.1c0,-0.3,-0.1,-5.1,-5.1,-5.1l-234.5,0Z" class="g5_33" />
<path d="M64.8,567.6c-0.2,0,-5.1,0,-5.1,5.1l0,82.1c0,0.2,0.1,5.1,5.1,5.1l234.5,0c0.2,0,5.1,-0.1,5.1,-5.1l0,-82.1c0,-0.3,-0.1,-5.1,-5.1,-5.1l-234.5,0Z" class="g22_33" />
<path d="M64.8,668.9c-0.2,0,-5.1,0,-5.1,5.1l0,82.1c0,0.2,0.1,5.1,5.1,5.1l234.5,0c0.2,0,5.1,-0.1,5.1,-5.1l0,-82.1c0,-0.3,-0.1,-5.1,-5.1,-5.1l-234.5,0Z" class="g5_33" />
<path d="M64.8,668.9c-0.2,0,-5.1,0,-5.1,5.1l0,82.1c0,0.2,0.1,5.1,5.1,5.1l234.5,0c0.2,0,5.1,-0.1,5.1,-5.1l0,-82.1c0,-0.3,-0.1,-5.1,-5.1,-5.1l-234.5,0Z" class="g22_33" />
<path d="M64.8,770.2c-0.2,0,-5.1,0,-5.1,5.1l0,82.1c0,0.2,0.1,5.1,5.1,5.1l234.5,0c0.2,0,5.1,-0.1,5.1,-5.1l0,-82.1c0,-0.2,-0.1,-5.1,-5.1,-5.1l-234.5,0Z" class="g5_33" />
<path d="M64.8,770.2c-0.2,0,-5.1,0,-5.1,5.1l0,82.1c0,0.2,0.1,5.1,5.1,5.1l234.5,0c0.2,0,5.1,-0.1,5.1,-5.1l0,-82.1c0,-0.2,-0.1,-5.1,-5.1,-5.1l-234.5,0Z" class="g22_33" />
<path d="M64.8,871.5c-0.2,0,-5.1,0,-5.1,5.1l0,82.1c0,0.2,0.1,5.1,5.1,5.1l234.5,0c0.2,0,5.1,-0.1,5.1,-5.1l0,-82.1c0,-0.2,-0.1,-5.1,-5.1,-5.1l-234.5,0Z" class="g5_33" />
<path d="M64.8,871.5c-0.2,0,-5.1,0,-5.1,5.1l0,82.1c0,0.2,0.1,5.1,5.1,5.1l234.5,0c0.2,0,5.1,-0.1,5.1,-5.1l0,-82.1c0,-0.2,-0.1,-5.1,-5.1,-5.1l-234.5,0Z" class="g22_33" />
<path d="M64.7,473.9c-0.2,0,-5.1,0.1,-5.1,5.1l0,77.1c0,0.2,0.1,5.1,5.1,5.1l234.6,0c0.2,0,5.1,-0.1,5.1,-5.1l0,-77.1c0,-0.2,-0.1,-5.1,-5.1,-5.1l-234.6,0Z" class="g1_33" />
<image x="68" y="482" width="228" height="71" xlink:href="33/img/3.png" />
<path d="M64.7,473.9c-0.2,0,-5.1,0.1,-5.1,5.1l0,77.1c0,0.2,0.1,5.1,5.1,5.1l234.6,0c0.2,0,5.1,-0.1,5.1,-5.1l0,-77.1c0,-0.2,-0.1,-5.1,-5.1,-5.1l-234.6,0Z" class="g22_33" />
<path d="M75.3,582.5c-0.3,0,-7.6,0.1,-7.6,7.7l0,44.5c0,0.3,0.1,7.7,7.6,7.7l34.5,0c0.3,0,7.6,-0.1,7.6,-7.7l0,-44.5c0,-0.3,-0.1,-7.7,-7.6,-7.7l-34.5,0Z" class="g1_33" />
<image x="74" y="586" width="37" height="53" xlink:href="33/img/4.png" />
<path d="M75.3,582.5c-0.3,0,-7.6,0.1,-7.6,7.7l0,44.5c0,0.3,0.1,7.7,7.6,7.7l34.5,0c0.3,0,7.6,-0.1,7.6,-7.7l0,-44.5c0,-0.3,-0.1,-7.7,-7.6,-7.7l-34.5,0Z" class="g22_33" />
<path d="M75.3,683.8c-0.3,0,-7.6,0.1,-7.6,7.7l0,44.5c0,0.3,0.1,7.7,7.6,7.7l34.5,0c0.3,0,7.6,-0.1,7.6,-7.7l0,-44.5c0,-0.3,-0.1,-7.7,-7.6,-7.7l-34.5,0Z" class="g1_33" />
<image x="74" y="696" width="37" height="36" xlink:href="33/img/5.png" />
<path d="M75.3,683.8c-0.3,0,-7.6,0.1,-7.6,7.7l0,44.5c0,0.3,0.1,7.7,7.6,7.7l34.5,0c0.3,0,7.6,-0.1,7.6,-7.7l0,-44.5c0,-0.3,-0.1,-7.7,-7.6,-7.7l-34.5,0Z" class="g22_33" />
<path d="M75.3,785.1c-0.3,0,-7.6,0.1,-7.6,7.7l0,44.5c0,0.3,0.1,7.7,7.6,7.7l34.5,0c0.3,0,7.6,-0.1,7.6,-7.7l0,-44.5c0,-0.3,-0.1,-7.7,-7.6,-7.7l-34.5,0Z" class="g1_33" />
<path d="M75.3,785.1c-0.3,0,-7.6,0.1,-7.6,7.7l0,44.5c0,0.3,0.1,7.7,7.6,7.7l34.5,0c0.3,0,7.6,-0.1,7.6,-7.7l0,-44.5c0,-0.3,-0.1,-7.7,-7.6,-7.7l-34.5,0Z" class="g22_33" />
<path d="M75.3,886.4c-0.3,0,-7.6,0.1,-7.6,7.7l0,44.5c0,0.3,0.1,7.7,7.6,7.7l34.5,0c0.3,0,7.6,-0.1,7.6,-7.7l0,-44.5c0,-0.3,-0.1,-7.7,-7.6,-7.7l-34.5,0Z" class="g1_33" />
<path d="M75.3,886.4c-0.3,0,-7.6,0.1,-7.6,7.7l0,44.5c0,0.3,0.1,7.7,7.6,7.7l34.5,0c0.3,0,7.6,-0.1,7.6,-7.7l0,-44.5c0,-0.3,-0.1,-7.7,-7.6,-7.7l-34.5,0Z" class="g22_33" />
<path d="M67.2,415.9c0,0,-7.7,0,-7.7,7.7l0,4.2c0,0,0,7.7,7.7,7.7l344.2,0c0,0,7.6,0,7.6,-7.7l0,-4.2c0,0,0,-7.7,-7.6,-7.7Z" class="g11_33" />
<path d="M67.2,415.9c0,0,-7.7,0,-7.7,7.7l0,4.2c0,0,0,7.7,7.7,7.7l344.2,0c0,0,7.6,0,7.6,-7.7l0,-4.2c0,0,0,-7.7,-7.6,-7.7l-344.2,0Z" class="g23_33" />
<image x="71" y="791" width="43" height="47" xlink:href="33/img/6.png" />
<image x="71" y="893" width="43" height="47" xlink:href="33/img/7.png" />
<path d="M59,1000l361,0l0,-27L59,973l0,27Z" class="g14_33" />
<path d="M872,540l0,2l0,3l-2,0l-2,0l0,154l2,0l2,0l0,2l0,2l721,0l0,-2l0,-2l2,0l2,0l0,-154l-2,0l-2,0l0,-3l0,-2Z" class="g1_33" />
<path d="M872.5,540.5l0,2l0,3l-2,0l-2,0l0,154l2,0l2,0l0,2l0,2l721,0l0,-2l0,-2l2,0l2,0l0,-154l-2,0l-2,0l0,-3l0,-2l-721,0Z" class="g15_33" />
<path d="M871,538l0,4l-5,0l0,47l733,0l0,-47l-5,0l0,-4Z" class="g16_33" />
<path d="M898.2,561c2.2,0,4.1,-1.8,4.1,-4.1c0,-2.3,-1.9,-4.2,-4.1,-4.2c-2.3,0,-4.2,1.9,-4.2,4.2c0,2.3,1.9,4.1,4.2,4.1Z" class="g1_33" />
<path d="M914.3,561c2.3,0,4.2,-1.8,4.2,-4.1c0,-2.3,-1.9,-4.2,-4.2,-4.2c-2.3,0,-4.1,1.9,-4.1,4.2c0,2.3,1.8,4.1,4.1,4.1Z" class="g1_33" />
<path d="M930.5,561c2.3,0,4.2,-1.8,4.2,-4.1c0,-2.3,-1.9,-4.2,-4.2,-4.2c-2.3,0,-4.2,1.9,-4.2,4.2c0,2.3,1.9,4.1,4.2,4.1Z" class="g1_33" />
<path d="M894.5,569c0,0,-3.1,0,-3.1,3.1l0,5.8c0,0,0,3,3.1,3l656,0c0,0,3.1,0,3.1,-3l0,-5.8c0,0,0,-3.1,-3.1,-3.1Z" class="g1_33" />
<path d="M1579.6,569.8l0,5.2c-0.1,0,-0.1,0,-0.1,0c-0.7,-0.1,-1.3,-0.2,-2,-0.4c-0.9,-0.1,-1.8,-0.3,-2.7,-0.5c-0.2,0,-0.4,0,-0.5,-0.1c0.6,-0.5,1.2,-0.9,1.8,-1.4c0,-0.1,-0.1,-0.1,-0.1,-0.1c-0.8,-0.5,-1.7,-0.7,-2.7,-0.4c-0.9,0.2,-1.6,0.7,-2.1,1.5c-0.6,0.8,-0.7,1.6,-0.6,2.5c0.1,0.9,0.6,1.7,1.2,2.2c0.9,0.8,2,1,3.1,0.8c1.1,-0.3,1.9,-1,2.4,-2c0,0,0.1,-0.1,0.1,-0.1c0.6,0.2,1.3,0.3,2,0.5c-0.5,1.1,-1.1,2,-2.1,2.6c-0.9,0.7,-1.9,1,-3,1l-0.1,0l-0.2,0c-0.1,0,-0.1,0,-0.2,0c-0.3,0,-0.7,0,-1.1,-0.1c-1.1,-0.3,-2.1,-0.9,-2.8,-1.8c-0.8,-0.9,-1.2,-1.9,-1.4,-3.1c0,-0.1,0,-0.2,0,-0.4l0,-0.3c0,0,0,-0.1,0,-0.1c0,-0.3,0.1,-0.5,0.1,-0.7c0.2,-1.1,0.7,-2,1.4,-2.9c0.9,-0.9,1.9,-1.4,3.1,-1.7c0.7,-0.1,1.3,-0.1,2,0c0.9,0.2,1.8,0.6,2.5,1.2c0.1,0.1,0.1,0.1,0.2,0c0.3,-0.3,0.7,-0.5,1,-0.8c0.3,-0.2,0.5,-0.4,0.8,-0.6Z" class="g1_33" />
<path d="M1579.6,569.8l0,5.2c-0.1,0,-0.1,0,-0.1,0c-0.7,-0.1,-1.3,-0.2,-2,-0.4c-0.9,-0.1,-1.8,-0.3,-2.7,-0.5c-0.2,0,-0.4,0,-0.5,-0.1c0.6,-0.5,1.2,-0.9,1.8,-1.4c0,-0.1,-0.1,-0.1,-0.1,-0.1c-0.8,-0.5,-1.7,-0.7,-2.7,-0.4c-0.9,0.2,-1.6,0.7,-2.1,1.5c-0.6,0.8,-0.7,1.6,-0.6,2.5c0.1,0.9,0.6,1.7,1.2,2.2c0.9,0.8,2,1,3.1,0.8c1.1,-0.3,1.9,-1,2.4,-2c0,0,0.1,-0.1,0.1,-0.1c0.6,0.2,1.3,0.3,2,0.5c-0.5,1.1,-1.1,2,-2.1,2.6c-0.9,0.7,-1.9,1,-3,1l-0.1,0l-0.2,0c-0.1,0,-0.1,0,-0.2,0c-0.3,0,-0.7,0,-1.1,-0.1c-1.1,-0.3,-2.1,-0.9,-2.8,-1.8c-0.8,-0.9,-1.2,-1.9,-1.4,-3.1c0,-0.1,0,-0.2,0,-0.4l0,-0.3c0,0,0,-0.1,0,-0.1c0,-0.3,0.1,-0.5,0.1,-0.7c0.2,-1.1,0.7,-2,1.4,-2.9c0.9,-0.9,1.9,-1.4,3.1,-1.7c0.7,-0.1,1.3,-0.1,2,0c0.9,0.2,1.8,0.6,2.5,1.2c0.1,0.1,0.1,0.1,0.2,0c0.3,-0.3,0.7,-0.5,1,-0.8c0.3,-0.2,0.5,-0.4,0.8,-0.6Z" class="g17_33" />
<path d="M1568,553l11,0" class="g19_33" />
<path d="M1568,556l11,0" class="g19_33" />
<path d="M1568,558l11,0" class="g19_33" />
<path d="M885.3,571.5l-2,3.5l2,3.5" class="g24_33" />
<path d="M893,658l679,0l0,-38l-679,0l0,38Z" class="g25_33" />
<path d="M893,701l463,0l0,-28l-463,0l0,28Z" class="g26_33" />
<path d="M893,620l679,0l0,-31l-679,0l0,31Z" class="g10_33" />
<path d="M1372,701l200,0l0,-27l-200,0l0,27Z" class="g27_33" />
<path d="M909.2,621c0,0,-15.2,0,-15.2,15.1l0,6.6c0,0,0,15.1,15.2,15.1l648,0c0,0,15.1,0,15.1,-15.1l0,-6.6c0,0,0,-15.1,-15.1,-15.1Z" class="g25_33" />
<path d="M909.2,621c0,0,-15.2,0,-15.2,15.1l0,6.6c0,0,0,15.1,15.2,15.1l648,0c0,0,15.1,0,15.1,-15.1l0,-6.6c0,0,0,-15.1,-15.1,-15.1l-648,0Z" class="g28_33" />
<path d="M872,817l0,2l0,2l-2,0l-2,0l0,178l2,0l2,0l0,2l0,2l721,0l0,-2l0,-2l2,0l2,0l0,-178l-2,0l-2,0l0,-2l0,-2Z" class="g1_33" />
<path d="M872.5,817.5l0,2l0,2l-2,0l-2,0l0,178l2,0l2,0l0,2l0,2l721,0l0,-2l0,-2l2,0l2,0l0,-178l-2,0l-2,0l0,-2l0,-2l-721,0Z" class="g15_33" />
<path d="M871,815l0,4l-5,0l0,47l733,0l0,-47l-5,0l0,-4Z" class="g16_33" />
<path d="M898.2,837.7c2.2,0,4.1,-1.9,4.1,-4.2c0,-2.3,-1.9,-4.1,-4.1,-4.1c-2.3,0,-4.2,1.8,-4.2,4.1c0,2.3,1.9,4.2,4.2,4.2Z" class="g1_33" />
<path d="M914.3,837.7c2.3,0,4.2,-1.9,4.2,-4.2c0,-2.3,-1.9,-4.1,-4.2,-4.1c-2.3,0,-4.1,1.8,-4.1,4.1c0,2.3,1.8,4.2,4.1,4.2Z" class="g1_33" />
<path d="M930.5,837.7c2.3,0,4.2,-1.9,4.2,-4.2c0,-2.3,-1.9,-4.1,-4.2,-4.1c-2.3,0,-4.2,1.8,-4.2,4.1c0,2.3,1.9,4.2,4.2,4.2Z" class="g1_33" />
<path d="M894.5,845.7c0,0,-3.1,0,-3.1,3l0,5.8c0,0,0,3.1,3.1,3.1l656,0c0,0,3.1,0,3.1,-3.1l0,-5.8c0,0,0,-3,-3.1,-3Z" class="g1_33" />
<path d="M1579.6,846.5l0,5.2c-0.1,0,-0.1,0,-0.1,0c-0.7,-0.1,-1.3,-0.3,-2,-0.4c-0.9,-0.2,-1.8,-0.3,-2.7,-0.5c-0.2,0,-0.4,-0.1,-0.5,-0.1c0.6,-0.5,1.2,-1,1.8,-1.4c0,-0.1,0,-0.1,0,-0.1c0,0,-0.1,0,-0.1,0c-0.8,-0.5,-1.7,-0.7,-2.7,-0.5c-0.9,0.2,-1.6,0.8,-2.1,1.5c-0.6,0.8,-0.7,1.7,-0.6,2.6c0.1,0.9,0.6,1.6,1.2,2.2c0.9,0.7,2,1,3.1,0.7c1.1,-0.2,1.9,-0.9,2.4,-1.9c0,-0.1,0.1,-0.1,0.1,-0.1c0.6,0.1,1.3,0.3,2,0.5c-0.5,1.1,-1.1,1.9,-2.1,2.6c-0.9,0.6,-1.9,1,-3,1l-0.1,0l-0.2,0c-0.1,0,-0.1,0,-0.2,0c-0.3,0,-0.7,-0.1,-1.1,-0.2c-1.1,-0.3,-2.1,-0.8,-2.8,-1.7c-0.8,-0.9,-1.2,-1.9,-1.4,-3.1c0,-0.1,0,-0.3,0,-0.4l0,-0.3c0,-0.1,0,-0.1,0,-0.2c0,-0.2,0.1,-0.4,0.1,-0.6c0.2,-1.1,0.7,-2.1,1.4,-2.9c0.9,-0.9,1.9,-1.5,3.1,-1.7c0.7,-0.1,1.3,-0.1,2,0c0.9,0.2,1.8,0.6,2.5,1.2c0.1,0,0.1,0,0.2,0c0.3,-0.3,0.7,-0.6,1,-0.9c0.3,-0.1,0.5,-0.3,0.8,-0.5Z" class="g1_33" />
<path d="M1579.6,846.5l0,5.2c-0.1,0,-0.1,0,-0.1,0c-0.7,-0.1,-1.3,-0.3,-2,-0.4c-0.9,-0.2,-1.8,-0.3,-2.7,-0.5c-0.2,0,-0.4,-0.1,-0.5,-0.1c0.6,-0.5,1.2,-1,1.8,-1.4c0,-0.1,0,-0.1,0,-0.1c0,0,-0.1,0,-0.1,0c-0.8,-0.5,-1.7,-0.7,-2.7,-0.5c-0.9,0.2,-1.6,0.8,-2.1,1.5c-0.6,0.8,-0.7,1.7,-0.6,2.6c0.1,0.9,0.6,1.6,1.2,2.2c0.9,0.7,2,1,3.1,0.7c1.1,-0.2,1.9,-0.9,2.4,-1.9c0,-0.1,0.1,-0.1,0.1,-0.1c0.6,0.1,1.3,0.3,2,0.5c-0.5,1.1,-1.1,1.9,-2.1,2.6c-0.9,0.6,-1.9,1,-3,1l-0.1,0l-0.2,0c-0.1,0,-0.1,0,-0.2,0c-0.3,0,-0.7,-0.1,-1.1,-0.2c-1.1,-0.3,-2.1,-0.8,-2.8,-1.7c-0.8,-0.9,-1.2,-1.9,-1.4,-3.1c0,-0.1,0,-0.3,0,-0.4l0,-0.3c0,-0.1,0,-0.1,0,-0.2c0,-0.2,0.1,-0.4,0.1,-0.6c0.2,-1.1,0.7,-2.1,1.4,-2.9c0.9,-0.9,1.9,-1.5,3.1,-1.7c0.7,-0.1,1.3,-0.1,2,0c0.9,0.2,1.8,0.6,2.5,1.2c0.1,0,0.1,0,0.2,0c0.3,-0.3,0.7,-0.6,1,-0.9c0.3,-0.1,0.5,-0.3,0.8,-0.5Z" class="g17_33" />
<path d="M1568,830l11,0" class="g19_33" />
<path d="M1568,833l11,0" class="g19_33" />
<path d="M1568,835l11,0" class="g19_33" />
<path d="M885.3,848.1l-2,3.5l2,3.6" class="g24_33" />
<path d="M893,1000l463,0l0,-51l-463,0l0,51Z" class="g26_33" />
<path d="M893,896l679,0l0,-31l-679,0l0,31Z" class="g29_33" />
<path d="M893,934l679,0l0,-38l-679,0l0,38Z" class="g21_33" />
<path d="M1372,1000l200,0l0,-50l-200,0l0,50Z" class="g27_33" />
<path d="M909.2,896.9c0,0,-15.2,0,-15.2,15.2l0,6.5c0,0,0,15.2,15.2,15.2l648,0c0,0,15.1,0,15.1,-15.2l0,-6.5c0,0,0,-15.2,-15.1,-15.2Z" class="g11_33" />
<path d="M909.2,896.9c0,0,-15.2,0,-15.2,15.2l0,6.5c0,0,0,15.2,15.2,15.2l648,0c0,0,15.1,0,15.1,-15.2l0,-6.5c0,0,0,-15.2,-15.1,-15.2l-648,0Z" class="g30_33" />
<path d="M47,53l0,4l-4,0l0,40l4,0l0,4l477,0l0,-4l4,0l0,-40l-4,0l0,-4Z" class="g11_33" />
<image x="506" y="175" width="274" height="190" xlink:href="33/img/8.png" />
<image x="491" y="164" width="302" height="202" style="mix-blend-mode: multiply;" xlink:href="33/img/9.png" />
<path d="M313,963l106,0l0,-519l-106,0l0,519Z" class="g9_33" />
<path d="M1487,294l80,0l0,-56l-80,0l0,56Z" class="g5_33" />
<path d="M1487,359l80,0l0,-55l-80,0l0,55Z" class="g5_33" />
<path d="M1487,425l80,0l0,-56l-80,0l0,56Z" class="g5_33" />
<path d="M318.5,452.7c-0.2,0,-5.1,0,-5.1,5.1l0,204.2c0,0.2,0.1,5.1,5.1,5.1l95.3,0c0.2,0,5.1,-0.1,5.1,-5.1l0,-204.2c0,-0.3,-0.1,-5.1,-5.1,-5.1l-95.3,0Z" class="g5_33" />
<path d="M318.5,452.7c-0.2,0,-5.1,0,-5.1,5.1l0,204.2c0,0.2,0.1,5.1,5.1,5.1l95.3,0c0.2,0,5.1,-0.1,5.1,-5.1l0,-204.2c0,-0.3,-0.1,-5.1,-5.1,-5.1l-95.3,0Z" class="g22_33" />
<path d="M318.5,677c-0.2,0,-5.1,0.1,-5.1,5.1l0,106.6c0,0.3,0.1,5.1,5.1,5.1l95.3,0c0.2,0,5.1,0,5.1,-5.1l0,-106.6c0,-0.2,-0.1,-5.1,-5.1,-5.1l-95.3,0Z" class="g5_33" />
<path d="M318.5,677c-0.2,0,-5.1,0.1,-5.1,5.1l0,106.6c0,0.3,0.1,5.1,5.1,5.1l95.3,0c0.2,0,5.1,0,5.1,-5.1l0,-106.6c0,-0.2,-0.1,-5.1,-5.1,-5.1l-95.3,0Z" class="g22_33" />
<path d="M318.5,804.2c-0.2,0,-5.1,0.1,-5.1,5.1l0,77.3c0,0.3,0.1,5.1,5.1,5.1l95.3,0c0.2,0,5.1,0,5.1,-5.1l0,-77.3c0,-0.2,-0.1,-5.1,-5.1,-5.1l-95.3,0Z" class="g5_33" />
<path d="M318.5,804.2c-0.2,0,-5.1,0.1,-5.1,5.1l0,77.3c0,0.3,0.1,5.1,5.1,5.1l95.3,0c0.2,0,5.1,0,5.1,-5.1l0,-77.3c0,-0.2,-0.1,-5.1,-5.1,-5.1l-95.3,0Z" class="g22_33" />
<path d="M47,53l0,4l-4,0l0,40l4,0l0,4l477,0l0,-4l4,0l0,-40l-4,0l0,-4Z" class="g31_33" />
<text 
x="56" 
y="90" 
dx="0,-2.7,-3.1,-3.4,-2.8,-3.3,-3.9,-3.6,-3.3,-2.8,0,0,-3.2,-2.8,-2.7,0,0,-3.9,-2.9,-3.3,-4.8" 
class="s1_33"
>Organising your pages</text>

<text 
transform="matrix(0.98, 0, 0, 1, 879, 64)"
dx="0,-1.4,0,0,0.9,0,0,0,0.9,0,0,0,0,0.9,0,0,0,0.9,0,0.9,0,0,0,0,0,0,0,0,0,0.9,0,0,0,0,0,0" 
class="s2_33"
>You can also use a technique called </text>

<text 
transform="matrix(0.98, 0, 0, 1, 1131, 64)"
dx="0,0,0,0,0,0,0,0,0,0,0,0.9,0,0,0,0,0" 
class="s3_33"
>responsive design</text>

<text 
transform="matrix(0.98, 0, 0, 1, 1269, 64)"
dx="0,0,0,0.9,0,0,0,0,0,0,0,0,0,0,0,0,0,0.9,-0.3,0,0,0,0,0,0,0,0,0.9,0,0,0,0.9,0,0,0,0,0,0,0,0.9,0,0,0.9,0,0,0,0,0" 
class="s2_33"
>to automatically rearrange the content of these </text>

<text 
transform="matrix(0.98, 0, 0, 1, 879, 86)"
dx="0,0,0,0,0,0,0,0,0,0,0,1,0,0,0,0,0,0,0,0,1,0,0,1,0,0,0,0,1,0,0,0,1,0,0,0,0,1,0,0,0,0,0,1,0,-0.3,0,0,0,1,0,0,0,0,0,0,0,1,0,0,0,0,-0.3,0,1,0,0,0,0,0,0,0,1,0,0,1,0,0,1,0,0,1,0,1,0,0,0,0,0,0,1,0,0,0,0,0,0,1,0,1,0,0,0,0,0,0" 
class="s2_33"
>structural elements so that the page looks great whether you’re looking at it on a mobile phone, a tablet </text>

<text 
transform="matrix(0.98, 0, 0, 1, 879, 107)"
dx="0,0,0,0,0,0,0,0,-0.4,0,-0.4,0,0,0,0,0,0,-0.4,0,0,-0.4,0,-0.4,0,0,-0.4,0,0,0,0,-0.4,0,-0.4,0,0,0,0,0,-0.4,0,0,-0.3,0,0,0,0,-0.4,0,0,0,-0.4,0,0,0,0,0,0,0,0,-0.4,0,0,-0.4,0,0,0,0,-0.3,0,-0.4,0,0,0,0,0,0,0,-0.4,0,0,-0.4,0,0,0,-0.4,0,0,0,0,-0.4,0,0,-0.4,0,0,0,-0.4,0,0,0,0,0,-0.4,0,0,-0.3,0,0,0" 
class="s2_33"
>device, a laptop or a PC with a large screen. For example, if you’re looking at the page on the small screen </text>

<text 
transform="matrix(0.98, 0, 0, 1, 879, 128)"
dx="0,0,0,0.2,0,0.2,0,0,0,0,0,0,0.2,0,0,0,0,0,0.2,0,0,0,0.2,0,0,0,0,0.3,0,0,0.2,0,0,0,0,0,0.2,0,0,0,0,0,0,0.2,0,0,0,0,0,0.2,0,0,0,0,0,0,0.2,0,0,-0.3,0,0,0,0,0,0.2,0,0,0,0,0.2,0,0,-0.3,0,0,0,0,0.2,0,0,0,0.2,0,0,0,0,0.2,0,0,0,0.3,-1.4,0,0.2,0,0,0,0.2,0,0,0.2,0,0,0" 
class="s2_33"
>of a mobile phone the adverts might appear after you’ve scrolled down through the main story. But on the </text>

<text 
transform="matrix(0.98, 0, 0, 1, 879, 150)"
dx="0,0,0,0,0,-0.9,0,0,-0.3,0,0,0,-0.9,0,0,-0.9,0,-0.9,0,0,0,0,0,0,0,-0.9,0,0,-0.9,0,0,0,-0.9,0,0,0,0,0.3,0,0,-0.9,0,0,0,0,0,-0.9,0,0,0,0,0,0,-0.9,0,0,0,0,0,0,0,0,0,0,0,0,-0.9,0,0,0,0,-0.9,0,0,0,-0.9,0,0,0,0,-0.9,0,0,0,0,0,0,0" 
class="s2_33"
>wide screen of a desktop PC the adverts could appear side-by-side with the main content.</text>

<text 
x="456" 
y="385" 
dx="0,-1.7,0,7.5,0,0,0,0,7.5,0,0,7.5,0,0,0,0,0,0,7.5,0,0,0,7.5,0,0,0,7.5,0,0,0,0,0,0,0,0,0,7.5,0,0" 
class="s2_33"
>To make it easier for the Nanonauts to </text>

<text 
x="456" 
y="406" 
dx="0,0,0,0,0,0,0,0,0,4.4,0,0,0,0,0,4.4,0,0,0,0,0,4.4,0,0,0,0,4.4,0,0,0,4.4,0,0,0,4.4,0,0,0,-1.1,-1.1,0" 
class="s2_33"
>organise their page, they can use HTML’s </text>

<text 
x="456" 
y="428" 
dx="0,0,0,0,0,0,0,0,0,0,0,9.5,0,0,0,0,0,0,0" 
class="s3_33"
>structural elements</text>

<text 
x="607" 
y="428" 
dx="0,0,9.5,0,0,0,0,0,0,0,0,0,0,9.5,0,0,0,0,0,0,0,0" 
class="s2_33"
>. Structural elements </text>

<text 
x="456" 
y="449" 
dx="0,0,0,0,0,0,1.7,0,0,0,1.7,0,0,1.7,0,0,0,0,0,0,1.7,0,0,1.7,0,0,0,0,1.7,0,0,0,0,1.7,0,0,1.7,0,0,0,0,1.7,0,0,-1.1,0" 
class="s2_33"
>allow you to divide up your page so that it’s </text>

<text 
x="456" 
y="471" 
dx="0,0,0,0,0,5.2,0,0,5.2,0,0,0,5.2,0,0,0,-0.3,0,5.2,0,0,0,5.2,0,0,0,0,0,5.2,0,0,0,0,0,0,5.2,0,0,0" 
class="s2_33"
>easy to see where one topic begins and </text>

<text 
x="456" 
y="492" 
dx="0,0,0,0,0,0,0,0,2.9,0,0,0,0,0,2.9,0,0,0,0,2.9,0,0,2.9,0,0,0,2.9,0,0,0,0,2.9,0,0,0,0,0,0,0,0" 
class="s2_33"
>another ends. Some of the most commonly </text>

<text 
x="456" 
y="513" 
dx="0,0,0,0,0" 
class="s2_33"
>used </text>

<text 
x="506" 
y="513" 
dx="0,0,0" 
class="s2_33"
>of </text>

<text 
x="534" 
y="513" 
dx="0,0,0,0,0,0" 
class="s2_33"
>these </text>

<text 
x="587" 
y="513" 
dx="0,0,0,0,0,0,0,0,0,0,0" 
class="s2_33"
>structural </text>

<text 
x="667" 
y="513" 
dx="0,0,0,0,0,0,0,0,0" 
class="s2_33"
>elements </text>

<text 
x="744" 
y="513" 
dx="0,0,-0.3,0" 
class="s2_33"
>are </text>

<path d="M464.5,529.9c0,-1.7,-0.7,-2.6,-2.2,-2.6c-0.9,0,-1.8,0.4,-2.6,1.3l0,-3.9l-1.2,0l0,10.6l1.2,0l0,-5.7c0.8,-0.9,1.5,-1.3,2.2,-1.3c0.5,0,0.9,0.2,1.1,0.5c0.2,0.3,0.3,0.8,0.3,1.5l0,5l1.2,0l0,-5.4Z" class="g32_33" />
<path d="M473.9,531c0,-1.1,-0.3,-2,-0.9,-2.7c-0.6,-0.7,-1.4,-1,-2.3,-1c-1,0,-1.8,0.4,-2.4,1.1c-0.7,0.7,-1,1.7,-1,2.9c0,1.3,0.4,2.3,1.1,3c0.7,0.8,1.6,1.2,2.8,1.2c0.9,0,1.7,-0.2,2.4,-0.5l-0.2,-0.9c-0.8,0.2,-1.5,0.3,-2.2,0.3c-0.8,0,-1.4,-0.2,-1.9,-0.8c-0.5,-0.6,-0.8,-1.3,-0.8,-2.2l5.4,0l0,-0.4Zm-5.3,-0.5c0.1,-0.7,0.3,-1.2,0.7,-1.6c0.4,-0.4,0.9,-0.6,1.5,-0.6c0.4,0,0.9,0.2,1.2,0.6c0.4,0.4,0.6,0.9,0.6,1.6l-4,0Z" class="g32_33" />
<path d="M482.8,533.4l0,-3.3c0,-1.9,-0.9,-2.8,-2.6,-2.8c-0.9,0,-1.9,0.3,-3,0.8l0.3,0.8c0.3,-0.1,0.7,-0.3,1.2,-0.4c0.4,-0.1,0.8,-0.2,1.1,-0.2c1.2,0,1.9,0.7,1.9,2l0,0.4l-1.3,0.1c-0.6,0,-1.1,0.1,-1.6,0.2c-0.4,0.1,-0.8,0.3,-1.1,0.5c-0.3,0.2,-0.5,0.4,-0.6,0.7c-0.2,0.3,-0.3,0.7,-0.3,1.1c0,0.6,0.2,1.1,0.7,1.5c0.4,0.4,0.9,0.7,1.5,0.7c1.2,0,2.1,-0.5,2.7,-1.5c0,0.5,0.1,0.9,0.2,1.3l1.1,0c-0.1,-0.6,-0.2,-1.2,-0.2,-1.9Zm-2.2,0.6c-0.4,0.2,-0.8,0.3,-1.2,0.3c-0.4,0,-0.7,-0.1,-1,-0.3c-0.2,-0.2,-0.3,-0.5,-0.3,-0.8c0,-0.4,0.1,-0.7,0.4,-0.9c0.3,-0.3,0.6,-0.4,1,-0.5c0.4,-0.1,1.1,-0.2,2.2,-0.3l0,1.4c-0.4,0.5,-0.7,0.8,-1.1,1.1Z" class="g32_33" />
<path d="M492,524.7l-1.2,0l0,3.8c-0.6,-0.8,-1.4,-1.2,-2.4,-1.2c-0.9,0,-1.6,0.4,-2.1,1.1c-0.6,0.8,-0.8,1.7,-0.8,2.8c0,1.3,0.2,2.3,0.8,3.1c0.5,0.8,1.2,1.2,2.1,1.2c0.5,0,0.9,-0.2,1.4,-0.4c0.4,-0.3,0.8,-0.6,1,-1l0,1.2l1.2,0l0,-10.6Zm-1.6,8.8c-0.3,0.3,-0.5,0.5,-0.8,0.7c-0.3,0.1,-0.6,0.2,-0.9,0.2c-0.6,0,-1.1,-0.3,-1.5,-0.9c-0.3,-0.6,-0.5,-1.3,-0.5,-2.2c0,-0.9,0.2,-1.6,0.6,-2.1c0.3,-0.6,0.8,-0.9,1.5,-0.9c0.8,0,1.4,0.4,2,1.3l0,3.3c0,0,-0.1,0.2,-0.4,0.6Z" class="g32_33" />
<path d="M501.4,531c0,-1.1,-0.3,-2,-0.9,-2.7c-0.6,-0.7,-1.4,-1,-2.3,-1c-1,0,-1.8,0.4,-2.4,1.1c-0.7,0.7,-1,1.7,-1,2.9c0,1.3,0.4,2.3,1.1,3c0.7,0.8,1.6,1.2,2.8,1.2c0.9,0,1.7,-0.2,2.4,-0.5l-0.2,-0.9c-0.8,0.2,-1.5,0.3,-2.2,0.3c-0.7,0,-1.4,-0.2,-1.9,-0.8c-0.5,-0.6,-0.7,-1.3,-0.7,-2.2l5.3,0l0,-0.4Zm-5.3,-0.5c0.1,-0.7,0.3,-1.2,0.7,-1.6c0.4,-0.4,0.9,-0.6,1.5,-0.6c0.5,0,0.9,0.2,1.3,0.6c0.3,0.4,0.5,0.9,0.5,1.6l-4,0Z" class="g32_33" />
<path d="M508.7,527.3c-1,0,-1.8,0.6,-2.4,1.8l0,-1.6l-1.1,0l0,7.8l1.1,0l0,-5.1c0,0,0.2,-0.2,0.4,-0.6c0.3,-0.4,0.6,-0.6,0.9,-0.8c0.4,-0.2,0.7,-0.3,1,-0.3c0.4,0,0.9,0.1,1.4,0.3l0.4,-1.1c-0.5,-0.3,-1.1,-0.4,-1.7,-0.4Z" class="g32_33" />
<text 
x="456" 
y="535" 
dx="0,0,0,0,0,0,0,0" 
class="s4_33"
>header, </text>

<path d="M549.4,529.9c0,-1.7,-0.8,-2.6,-2.2,-2.6c-0.9,0,-1.8,0.4,-2.7,1.3l0,-1.1l-1.1,0l0,7.8l1.1,0l0,-5.7c0.9,-0.9,1.6,-1.3,2.3,-1.3c0.5,0,0.8,0.2,1.1,0.5c0.2,0.3,0.3,0.8,0.3,1.5l0,5l1.2,0l0,-5.4Z" class="g32_33" />
<path d="M558.5,533.4l0,-3.3c0,-1.9,-0.9,-2.8,-2.6,-2.8c-0.9,0,-1.9,0.3,-3,0.8l0.3,0.8c0.4,-0.1,0.7,-0.3,1.2,-0.4c0.4,-0.1,0.8,-0.2,1.1,-0.2c1.2,0,1.9,0.7,1.9,2l0,0.4l-1.3,0.1c-0.6,0,-1.1,0.1,-1.6,0.2c-0.4,0.1,-0.8,0.3,-1,0.5c-0.3,0.2,-0.6,0.4,-0.7,0.7c-0.2,0.3,-0.3,0.7,-0.3,1.1c0,0.6,0.3,1.1,0.7,1.5c0.4,0.4,0.9,0.7,1.5,0.7c1.2,0,2.1,-0.5,2.7,-1.5c0,0.5,0.1,0.9,0.2,1.3l1.1,0c-0.1,-0.6,-0.2,-1.2,-0.2,-1.9Zm-2.2,0.6c-0.4,0.2,-0.8,0.3,-1.2,0.3c-0.4,0,-0.7,-0.1,-1,-0.3c-0.2,-0.2,-0.3,-0.5,-0.3,-0.8c0,-0.4,0.1,-0.7,0.4,-0.9c0.3,-0.3,0.6,-0.4,1,-0.5c0.4,-0.1,1.1,-0.2,2.2,-0.3l0,1.4c-0.3,0.5,-0.7,0.8,-1.1,1.1Z" class="g32_33" />
<path d="M566.8,527.5l-2.2,6.2l-2.2,-6.2l-1.3,0l2.9,7.8l1.1,0l2.9,-7.8l-1.2,0Z" class="g32_33" />
<text 
x="541" 
y="535" 
dx="0,0,0,0,0" 
class="s4_33"
>nav, </text>

<path d="M606.7,533.4l0,-3.3c0,-1.9,-0.8,-2.8,-2.6,-2.8c-0.9,0,-1.9,0.3,-3,0.8l0.3,0.8c0.4,-0.1,0.7,-0.3,1.2,-0.4c0.4,-0.1,0.8,-0.2,1.1,-0.2c1.3,0,1.9,0.7,1.9,2l0,0.4l-1.3,0.1c-0.6,0,-1.1,0.1,-1.6,0.2c-0.4,0.1,-0.7,0.3,-1,0.5c-0.3,0.2,-0.6,0.4,-0.7,0.7c-0.2,0.3,-0.3,0.7,-0.3,1.1c0,0.6,0.3,1.1,0.7,1.5c0.4,0.4,1,0.7,1.5,0.7c1.2,0,2.1,-0.5,2.7,-1.5c0,0.5,0.1,0.9,0.2,1.3l1.1,0c-0.1,-0.6,-0.2,-1.2,-0.2,-1.9Zm-2.2,0.6c-0.4,0.2,-0.8,0.3,-1.2,0.3c-0.4,0,-0.7,-0.1,-1,-0.3c-0.2,-0.2,-0.3,-0.5,-0.3,-0.8c0,-0.4,0.1,-0.7,0.4,-0.9c0.3,-0.3,0.6,-0.4,1,-0.5c0.4,-0.1,1.1,-0.2,2.2,-0.3l0,1.4c-0.3,0.5,-0.7,0.8,-1.1,1.1Z" class="g32_33" />
<path d="M614.3,527.3c-1,0,-1.8,0.6,-2.4,1.8l0,-1.6l-1.2,0l0,7.8l1.2,0l0,-5.1c0,0,0.1,-0.2,0.4,-0.6c0.3,-0.4,0.6,-0.6,0.9,-0.8c0.3,-0.2,0.7,-0.3,1,-0.3c0.4,0,0.8,0.1,1.4,0.3l0.4,-1.1c-0.5,-0.3,-1.1,-0.4,-1.7,-0.4Z" class="g32_33" />
<path d="M624.9,534c-0.6,0.3,-1.2,0.4,-1.8,0.4c-0.4,0,-0.7,-0.1,-0.9,-0.4c-0.2,-0.2,-0.3,-0.6,-0.3,-1.1l0,-4.4l2.6,0l0,-1l-2.6,0l0,-2.1l-1.1,0l0,2.1l-1.5,0l0,1l1.5,0l0,4.7c0,1.5,0.7,2.2,2,2.2c0.8,0,1.6,-0.1,2.3,-0.5L624.9,534Z" class="g32_33" />
<path d="M631.2,524.8c-0.2,0.1,-0.2,0.3,-0.2,0.5c0,0.3,0,0.4,0.2,0.6c0.2,0.2,0.3,0.2,0.5,0.2c0.3,0,0.4,0,0.6,-0.2c0.2,-0.1,0.2,-0.3,0.2,-0.6c0,-0.2,-0.1,-0.4,-0.2,-0.5c-0.2,-0.2,-0.3,-0.3,-0.6,-0.3c-0.2,0,-0.3,0.1,-0.5,0.3Zm1.1,2.7l-3.5,0l0,1l2.3,0l0,6.8l1.2,0l0,-7.8Z" class="g32_33" />
<path d="M643.2,534.1c-0.7,0.2,-1.4,0.3,-2.1,0.3c-0.8,0,-1.5,-0.3,-2,-0.8c-0.5,-0.6,-0.7,-1.4,-0.7,-2.2c0,-1,0.2,-1.7,0.7,-2.3c0.5,-0.5,1.2,-0.8,2,-0.8c0.6,0,1.2,0.1,1.9,0.4l0.3,-1c-0.7,-0.3,-1.4,-0.4,-2.2,-0.4c-1.2,0,-2.1,0.4,-2.9,1.1c-0.7,0.8,-1.1,1.7,-1.1,3c0,1.2,0.4,2.2,1.1,2.9c0.7,0.8,1.7,1.2,2.9,1.2c0.9,0,1.6,-0.2,2.3,-0.5l-0.2,-0.9Z" class="g32_33" />
<path d="M652.5,534.5l-3,0l0,-10l-3,0l0,1l2,0l0,10l4,0l0,-1Z" class="g32_33" />
<path d="M662,531c0,-1.1,-0.3,-2,-0.9,-2.7c-0.6,-0.7,-1.4,-1,-2.3,-1c-1,0,-1.8,0.4,-2.4,1.1c-0.7,0.7,-1,1.7,-1,2.9c0,1.3,0.4,2.3,1.1,3c0.7,0.8,1.6,1.2,2.8,1.2c0.9,0,1.7,-0.2,2.4,-0.5l-0.2,-0.9c-0.8,0.2,-1.5,0.3,-2.2,0.3c-0.8,0,-1.4,-0.2,-1.9,-0.8c-0.5,-0.6,-0.8,-1.3,-0.8,-2.2l5.4,0l0,-0.4Zm-5.3,-0.5c0.1,-0.7,0.3,-1.2,0.7,-1.6c0.4,-0.4,0.9,-0.6,1.5,-0.6c0.4,0,0.9,0.2,1.2,0.6c0.4,0.4,0.6,0.9,0.6,1.6l-4,0Z" class="g32_33" />
<text 
x="599" 
y="535" 
dx="0,0,0,0,0,0,0,0,0" 
class="s4_33"
>article, </text>

<path d="M700.2,527.6c-0.7,-0.2,-1.4,-0.3,-2.1,-0.3c-0.9,0,-1.7,0.2,-2.3,0.6c-0.6,0.4,-0.9,0.9,-0.9,1.6c0,0.3,0.1,0.6,0.2,0.8c0.1,0.3,0.3,0.5,0.6,0.7c0.2,0.1,0.5,0.3,0.8,0.4c0.2,0.1,0.7,0.2,1.3,0.4c0.7,0.2,1.2,0.4,1.4,0.6c0.2,0.2,0.3,0.5,0.3,0.8c0,0.4,-0.2,0.7,-0.6,0.9c-0.4,0.3,-0.9,0.4,-1.6,0.4c-0.7,0,-1.4,-0.2,-2.1,-0.5l-0.2,1c0.6,0.3,1.4,0.5,2.4,0.5c0.9,0,1.7,-0.3,2.3,-0.7c0.7,-0.4,1,-1,1,-1.7c0,-0.4,-0.1,-0.8,-0.3,-1c-0.1,-0.3,-0.4,-0.6,-0.7,-0.8c-0.3,-0.2,-0.7,-0.4,-1.2,-0.5l-1.2,-0.3c-0.5,-0.2,-0.8,-0.3,-1,-0.5c-0.1,-0.1,-0.2,-0.3,-0.2,-0.6c0,-0.3,0.2,-0.6,0.5,-0.8c0.4,-0.2,0.9,-0.3,1.5,-0.3c0.6,0,1.2,0.1,1.9,0.3l0.2,-1Z" class="g32_33" />
<path d="M710.2,531c0,-1.1,-0.3,-2,-0.9,-2.7c-0.6,-0.7,-1.4,-1,-2.3,-1c-1,0,-1.8,0.4,-2.4,1.1c-0.7,0.7,-1,1.7,-1,2.9c0,1.3,0.4,2.3,1.1,3c0.7,0.8,1.6,1.2,2.8,1.2c0.9,0,1.7,-0.2,2.4,-0.5l-0.2,-0.9c-0.8,0.2,-1.5,0.3,-2.2,0.3c-0.8,0,-1.4,-0.2,-1.9,-0.8c-0.5,-0.6,-0.7,-1.3,-0.7,-2.2l5.3,0l0,-0.4Zm-5.3,-0.5c0.1,-0.7,0.3,-1.2,0.7,-1.6c0.4,-0.4,0.9,-0.6,1.5,-0.6c0.4,0,0.9,0.2,1.2,0.6c0.4,0.4,0.6,0.9,0.6,1.6l-4,0Z" class="g32_33" />
<path d="M718.9,534.1c-0.7,0.2,-1.4,0.3,-2,0.3c-0.9,0,-1.5,-0.3,-2.1,-0.8c-0.5,-0.6,-0.7,-1.4,-0.7,-2.2c0,-1,0.2,-1.7,0.7,-2.3c0.5,-0.5,1.2,-0.8,2,-0.8c0.6,0,1.2,0.1,2,0.4l0.3,-1c-0.7,-0.3,-1.5,-0.4,-2.3,-0.4c-1.2,0,-2.1,0.4,-2.9,1.1c-0.7,0.8,-1.1,1.7,-1.1,3c0,1.2,0.4,2.2,1.1,2.9c0.8,0.8,1.7,1.2,3,1.2c0.8,0,1.5,-0.2,2.2,-0.5l-0.2,-0.9Z" class="g32_33" />
<path d="M728.2,534c-0.7,0.3,-1.3,0.4,-1.9,0.4c-0.4,0,-0.7,-0.1,-0.9,-0.4c-0.2,-0.2,-0.3,-0.6,-0.3,-1.1l0,-4.4l2.7,0l0,-1l-2.7,0l0,-2.1l-1.1,0l0,2.1l-1.5,0l0,1l1.5,0l0,4.7c0,1.5,0.7,2.2,2.1,2.2c0.7,0,1.5,-0.1,2.3,-0.5L728.2,534Z" class="g32_33" />
<path d="M734.4,524.8c-0.1,0.1,-0.2,0.3,-0.2,0.5c0,0.3,0.1,0.4,0.2,0.6c0.2,0.2,0.3,0.2,0.6,0.2c0.2,0,0.4,0,0.5,-0.2c0.2,-0.1,0.2,-0.3,0.2,-0.6c0,-0.2,0,-0.4,-0.2,-0.5c-0.1,-0.2,-0.3,-0.3,-0.5,-0.3c-0.3,0,-0.4,0.1,-0.6,0.3Zm1.1,2.7l-3.4,0l0,1l2.3,0l0,6.8l1.1,0l0,-7.8Z" class="g32_33" />
<path d="M741.1,528.4c-0.7,0.8,-1,1.7,-1,3c0,1.2,0.3,2.2,1,2.9c0.6,0.8,1.4,1.2,2.5,1.2c1.1,0,1.9,-0.4,2.6,-1.2c0.6,-0.7,0.9,-1.7,0.9,-2.9c0,-1.3,-0.3,-2.2,-0.9,-3c-0.7,-0.7,-1.5,-1.1,-2.6,-1.1c-1.1,0,-1.9,0.4,-2.5,1.1Zm0.8,5.2c-0.4,-0.6,-0.6,-1.4,-0.6,-2.2c0,-0.9,0.2,-1.7,0.6,-2.2c0.4,-0.6,1,-0.9,1.7,-0.9c0.7,0,1.3,0.3,1.7,0.9c0.4,0.5,0.6,1.3,0.6,2.2c0,0.8,-0.2,1.5,-0.6,2.1c-0.4,0.6,-1,0.9,-1.7,0.9c-0.7,0,-1.3,-0.3,-1.7,-0.8Z" class="g32_33" />
<path d="M755.8,529.9c0,-1.7,-0.7,-2.6,-2.2,-2.6c-0.9,0,-1.8,0.4,-2.6,1.3l0,-1.1l-1.2,0l0,7.8l1.2,0l0,-5.7c0.8,-0.9,1.5,-1.3,2.3,-1.3c0.4,0,0.8,0.2,1,0.5c0.2,0.3,0.3,0.8,0.3,1.5l0,5l1.2,0l0,-5.4Z" class="g32_33" />
<text 
x="693" 
y="535" 
dx="0,0,0,0,0,0,0,0,0" 
class="s4_33"
>section, </text>

<path d="M464.5,554.8l0,-3.3c0,-1.9,-0.9,-2.8,-2.7,-2.8c-0.9,0,-1.9,0.3,-2.9,0.8l0.3,0.8c0.3,-0.1,0.7,-0.3,1.1,-0.4c0.5,-0.1,0.9,-0.2,1.2,-0.2c1.2,0,1.8,0.7,1.8,2l0,0.4l-1.3,0.1c-0.6,0,-1.1,0.1,-1.5,0.2c-0.4,0.1,-0.8,0.3,-1.1,0.5c-0.3,0.2,-0.5,0.4,-0.7,0.7c-0.1,0.3,-0.2,0.7,-0.2,1c0,0.7,0.2,1.2,0.7,1.6c0.4,0.4,0.9,0.6,1.5,0.6c1.1,0,2,-0.4,2.7,-1.4c0,0.5,0,0.9,0.1,1.2l1.2,0c-0.2,-0.5,-0.2,-1.1,-0.2,-1.8Zm-2.3,0.6c-0.4,0.2,-0.8,0.3,-1.2,0.3c-0.4,0,-0.7,-0.1,-0.9,-0.3c-0.3,-0.2,-0.4,-0.5,-0.4,-0.8c0,-0.4,0.2,-0.7,0.4,-1c0.3,-0.2,0.7,-0.3,1.1,-0.4c0.4,-0.1,1.1,-0.2,2.1,-0.3l0,1.4c-0.3,0.5,-0.6,0.8,-1.1,1.1Z" class="g32_33" />
<path d="M473.1,549c-0.8,-0.2,-1.5,-0.3,-2.1,-0.3c-1,0,-1.7,0.2,-2.3,0.6c-0.6,0.4,-0.9,0.9,-0.9,1.6c0,0.3,0.1,0.6,0.2,0.8c0.1,0.2,0.3,0.5,0.5,0.6c0.3,0.2,0.5,0.4,0.8,0.5c0.3,0,0.8,0.2,1.4,0.4c0.7,0.2,1.2,0.4,1.4,0.6c0.2,0.2,0.3,0.5,0.3,0.7c0,0.4,-0.2,0.8,-0.6,1c-0.4,0.2,-1,0.4,-1.6,0.4c-0.7,0,-1.4,-0.2,-2.1,-0.5l-0.2,1c0.6,0.3,1.4,0.4,2.3,0.4c1,0,1.8,-0.2,2.4,-0.6c0.6,-0.4,0.9,-1,0.9,-1.8c0,-0.3,0,-0.7,-0.2,-1c-0.2,-0.2,-0.4,-0.5,-0.7,-0.7c-0.3,-0.2,-0.8,-0.4,-1.3,-0.5l-1.1,-0.3c-0.5,-0.2,-0.8,-0.3,-1,-0.5c-0.2,-0.2,-0.3,-0.4,-0.3,-0.6c0,-0.3,0.2,-0.6,0.6,-0.8c0.4,-0.2,0.9,-0.3,1.5,-0.3c0.6,0,1.2,0.1,1.8,0.3l0.3,-1Z" class="g32_33" />
<path d="M479.8,546.2c-0.2,0.1,-0.3,0.3,-0.3,0.5c0,0.2,0.1,0.4,0.3,0.6c0.1,0.2,0.3,0.2,0.5,0.2c0.2,0,0.4,0,0.6,-0.2c0.1,-0.2,0.2,-0.3,0.2,-0.6c0,-0.2,-0.1,-0.4,-0.2,-0.5c-0.2,-0.2,-0.4,-0.3,-0.6,-0.3c-0.2,0,-0.4,0.1,-0.5,0.3Zm1.1,2.7l-3.5,0l0,1l2.3,0l0,6.7l1.2,0l0,-7.7Z" class="g32_33" />
<path d="M492,546.1l-1.2,0l0,3.8c-0.6,-0.8,-1.4,-1.2,-2.4,-1.2c-0.9,0,-1.6,0.4,-2.1,1.1c-0.6,0.8,-0.8,1.7,-0.8,2.8c0,1.3,0.2,2.3,0.8,3.1c0.5,0.7,1.2,1.1,2.1,1.1c0.5,0,0.9,-0.1,1.4,-0.3c0.4,-0.3,0.8,-0.6,1,-1l0,1.1l1.2,0l0,-10.5Zm-1.6,8.7c-0.3,0.4,-0.5,0.6,-0.8,0.8c-0.3,0.1,-0.6,0.2,-0.9,0.2c-0.6,0,-1.1,-0.3,-1.5,-0.9c-0.3,-0.6,-0.5,-1.3,-0.5,-2.2c0,-0.9,0.2,-1.6,0.6,-2.2c0.3,-0.5,0.8,-0.8,1.5,-0.8c0.8,0,1.4,0.4,2,1.3l0,3.3c0,0,-0.1,0.2,-0.4,0.5Z" class="g32_33" />
<path d="M501.4,552.4c0,-1.1,-0.3,-2,-0.9,-2.7c-0.6,-0.7,-1.4,-1,-2.3,-1c-1,0,-1.8,0.3,-2.4,1.1c-0.7,0.7,-1,1.7,-1,2.9c0,1.3,0.4,2.3,1.1,3c0.7,0.8,1.6,1.1,2.8,1.1c0.9,0,1.7,-0.1,2.4,-0.4l-0.2,-1c-0.8,0.3,-1.5,0.4,-2.2,0.4c-0.7,0,-1.4,-0.3,-1.9,-0.8c-0.5,-0.6,-0.7,-1.3,-0.7,-2.2l5.3,0l0,-0.4Zm-5.3,-0.6c0.1,-0.6,0.3,-1.1,0.7,-1.5c0.4,-0.4,0.9,-0.6,1.5,-0.6c0.5,0,0.9,0.2,1.3,0.6c0.3,0.4,0.5,0.9,0.5,1.5l-4,0Z" class="g32_33" />
<text 
x="456" 
y="556" 
dx="0,0,0,0,0" 
class="s4_33"
>aside</text>

<text 
x="506" 
y="556" 
dx="0,0,0,0" 
class="s2_33"
>and </text>

<path d="M541.7,545.9c-0.8,0,-1.4,0.2,-1.7,0.6c-0.4,0.4,-0.5,1.1,-0.5,2.1l0,0.3l-2,0l0,1l2,0l0,6.7l1.1,0l0,-6.7l2.6,0l0,-1l-2.6,0l0,-0.2c0,-0.7,0.1,-1.2,0.3,-1.4c0.1,-0.2,0.4,-0.4,0.8,-0.4c0.5,0,1,0.1,1.5,0.3l0.3,-1c-0.6,-0.2,-1.2,-0.3,-1.8,-0.3Z" class="g32_33" />
<path d="M547,549.8c-0.6,0.7,-0.9,1.7,-0.9,2.9c0,1.3,0.3,2.3,0.9,3c0.7,0.8,1.5,1.1,2.6,1.1c1.1,0,1.9,-0.3,2.5,-1.1c0.7,-0.7,1,-1.7,1,-3c0,-1.2,-0.3,-2.2,-1,-2.9c-0.6,-0.7,-1.4,-1.1,-2.5,-1.1c-1.1,0,-1.9,0.4,-2.6,1.1Zm0.9,5.1c-0.4,-0.5,-0.6,-1.3,-0.6,-2.1c0,-0.9,0.2,-1.7,0.6,-2.3c0.4,-0.5,1,-0.8,1.7,-0.8c0.7,0,1.3,0.3,1.7,0.9c0.4,0.5,0.6,1.3,0.6,2.2c0,0.8,-0.2,1.5,-0.6,2.1c-0.4,0.6,-1,0.9,-1.7,0.9c-0.7,0,-1.3,-0.3,-1.7,-0.9Z" class="g32_33" />
<path d="M556.2,549.8c-0.6,0.7,-0.9,1.7,-0.9,2.9c0,1.3,0.3,2.3,0.9,3c0.6,0.8,1.5,1.1,2.6,1.1c1,0,1.9,-0.3,2.5,-1.1c0.6,-0.7,1,-1.7,1,-3c0,-1.2,-0.4,-2.2,-1,-2.9c-0.6,-0.7,-1.5,-1.1,-2.5,-1.1c-1.1,0,-2,0.4,-2.6,1.1Zm0.9,5.1c-0.4,-0.5,-0.6,-1.3,-0.6,-2.1c0,-0.9,0.2,-1.7,0.6,-2.3c0.4,-0.5,0.9,-0.8,1.7,-0.8c0.7,0,1.2,0.3,1.6,0.9c0.4,0.5,0.6,1.3,0.6,2.2c0,0.8,-0.2,1.5,-0.6,2.1c-0.4,0.6,-0.9,0.9,-1.6,0.9c-0.7,0,-1.3,-0.3,-1.7,-0.9Z" class="g32_33" />
<path d="M570.8,555.4c-0.6,0.3,-1.2,0.4,-1.9,0.4c-0.3,0,-0.6,-0.1,-0.8,-0.4c-0.2,-0.2,-0.3,-0.6,-0.3,-1.1l0,-4.4l2.6,0l0,-1l-2.6,0l0,-2.2l-1.2,0l0,2.2l-1.5,0l0,1l1.5,0l0,4.7c0,1.5,0.7,2.2,2.1,2.2c0.8,0,1.5,-0.2,2.3,-0.5l-0.2,-0.9Z" class="g32_33" />
<path d="M580.3,552.4c0,-1.1,-0.3,-2,-0.9,-2.7c-0.6,-0.7,-1.3,-1,-2.2,-1c-1,0,-1.8,0.3,-2.5,1.1c-0.6,0.7,-0.9,1.7,-0.9,2.9c0,1.3,0.3,2.3,1,3c0.8,0.8,1.7,1.1,2.8,1.1c1,0,1.8,-0.1,2.4,-0.4l-0.2,-1c-0.7,0.3,-1.4,0.4,-2.1,0.4c-0.8,0,-1.4,-0.3,-1.9,-0.8c-0.5,-0.6,-0.8,-1.3,-0.8,-2.2l5.3,0l0,-0.4Zm-5.2,-0.6c0,-0.6,0.3,-1.1,0.6,-1.5c0.4,-0.4,0.9,-0.6,1.5,-0.6c0.5,0,0.9,0.2,1.3,0.6c0.4,0.4,0.6,0.9,0.6,1.5l-4,0Z" class="g32_33" />
<path d="M587.7,548.7c-1,0,-1.8,0.6,-2.4,1.7l0,-1.5l-1.2,0l0,7.7l1.2,0l0,-5c0,0,0.1,-0.2,0.4,-0.6c0.3,-0.4,0.6,-0.6,0.9,-0.8c0.3,-0.2,0.7,-0.3,1,-0.3c0.4,0,0.8,0.1,1.3,0.3l0.5,-1.1c-0.5,-0.3,-1.1,-0.4,-1.7,-0.4Z" class="g32_33" />
<text 
x="535" 
y="556" 
dx="0,0,0,0,0,0" 
class="s4_33"
>footer</text>

<text 
x="590" 
y="556" 
dx="0" 
class="s2_33"
>.</text>

<text 
x="456" 
y="599" 
dx="0,0,0,0,0,0,6.3,0,0,0,0,0,6.3,0,0,0,0,0,0,0,0,6.3,0,0,0,0,0,6.3,0,0,6.3,0,0,0,0,0,0,6.3,0,0" 
class="s2_33"
>Using these elements makes it easier to </text>

<text 
x="456" 
y="620" 
dx="0,0,0,0,0,0,0,0,0,-0.8,0,0,0,0,-0.8,0,0,0,0,-0.8,0,0,0,-0.8,0,0,0,0,-0.8,0,0,0,0,0,-0.8,0,0,-0.8,0,0,0,0,-0.8,0,0,0" 
class="s2_33"
>organise your code and also helps to give you </text>

<text 
x="456" 
y="642" 
dx="0,0,0,-0.3,0,-0.9,0,0,0,0,-0.3,0,0,-0.9,0,0,0,0,-0.9,0,0,0,-0.9,0,0,0,-0.9,0,0,0,0,-0.9,0,0,0,0,0,0,0" 
class="s2_33"
>more control over how the page appears.</text>

<text 
x="599" 
y="684" 
dx="0,0,0,-0.2" 
class="s3_33"
>body</text>

<text 
x="593" 
y="712" 
dx="0,0,0,0,0,0" 
class="s3_33"
>header</text>

<text 
x="602" 
y="739" 
dx="0,0,-0.2" 
class="s3_33"
>nav</text>

<text 
x="544" 
y="817" 
dx="0,0,0.3,0,0,-0.3,0" 
class="s3_33"
>article</text>

<text 
x="539" 
y="885" 
dx="0,0,0,0,0,0,0" 
class="s3_33"
>section</text>

<text 
x="695" 
y="897" 
dx="0,0,0,0,0,0,0" 
class="s3_33"
>section</text>

<text 
x="695" 
y="847" 
dx="0,0,0,0,0,0,0" 
class="s3_33"
>section</text>

<text 
x="695" 
y="797" 
dx="0,0,0,0,0,0,0" 
class="s3_33"
>section</text>

<text 
x="539" 
y="934" 
dx="0,0,0,0,0,0,0" 
class="s3_33"
>section</text>

<text 
x="600" 
y="987" 
dx="0,-0.3,0,0,0,0" 
class="s3_33"
>footer</text>

<text 
x="702" 
y="945" 
dx="0,0,0,0,0" 
class="s3_33"
>aside</text>

<text 
x="1247" 
y="193" 
dx="0,-1.5,-2.6,-1.6,-3.8,-1.9,-1.5" 
class="s5_33"
>desktop</text>

<text 
x="1023" 
y="193" 
dx="0,-1.9,-1.7,-1.5,-2.5,-2.7" 
class="s5_33"
>tablet</text>

<text 
x="881" 
y="428" 
dx="0,0,0,0,-1.1,0,-0.9,0,0,0,0,-0.9,0,0,-0.9,0,0,0,0,-0.9,0,0,-0.9,0,0,0,0,0,-0.9,0,0,0,0,0,0,0,0,-0.9,0,0,-0.9,0,0,0.3,0" 
class="s2_33"
>Let’s look at each of these elements in turn.</text>

<text 
x="881" 
y="471" 
dx="0,-2.2,-1.7,0,-0.9,-1.7,-2.7,-2,-1.8,-2.6,0,-0.9,-2.5,-2.9,-2.6,-1.7,-2.6,-2.2" 
class="s6_33"
>The header element</text>

<text 
x="881" 
y="492" 
dx="0,0,0,0" 
class="s2_33"
>The </text>

<path d="M919.6,487.2c0,-1.8,-0.7,-2.7,-2.2,-2.7c-0.9,0,-1.8,0.5,-2.6,1.3l0,-3.9l-1.2,0l0,10.6l1.2,0l0,-5.7c0.8,-0.8,1.5,-1.3,2.3,-1.3c0.4,0,0.8,0.2,1,0.5c0.2,0.3,0.3,0.8,0.3,1.5l0,5l1.2,0l0,-5.3Z" class="g32_33" />
<path d="M929,488.3c0,-1.2,-0.3,-2.1,-0.9,-2.8c-0.6,-0.6,-1.4,-1,-2.3,-1c-1,0,-1.8,0.4,-2.4,1.1c-0.6,0.7,-1,1.7,-1,3c0,1.2,0.4,2.2,1.1,3c0.7,0.7,1.6,1.1,2.8,1.1c0.9,0,1.7,-0.2,2.4,-0.5l-0.2,-0.9c-0.8,0.2,-1.5,0.4,-2.2,0.4c-0.7,0,-1.4,-0.3,-1.9,-0.9c-0.5,-0.6,-0.7,-1.3,-0.7,-2.2l5.3,0l0,-0.3Zm-5.3,-0.6c0.1,-0.7,0.3,-1.2,0.7,-1.6c0.4,-0.4,0.9,-0.6,1.5,-0.6c0.5,0,0.9,0.2,1.3,0.6c0.3,0.5,0.5,1,0.5,1.6l-4,0Z" class="g32_33" />
<path d="M937.9,490.7l0,-3.4c0,-1.8,-0.9,-2.8,-2.6,-2.8c-0.9,0,-1.9,0.3,-3,0.8l0.3,0.9c0.4,-0.2,0.7,-0.4,1.2,-0.5c0.4,-0.1,0.8,-0.2,1.1,-0.2c1.2,0,1.9,0.7,1.9,2l0,0.4l-1.3,0.1c-0.6,0,-1.1,0.1,-1.6,0.2c-0.4,0.2,-0.7,0.3,-1,0.5c-0.3,0.2,-0.6,0.5,-0.7,0.8c-0.2,0.3,-0.3,0.6,-0.3,1c0,0.6,0.3,1.1,0.7,1.6c0.4,0.4,1,0.6,1.5,0.6c1.2,0,2.1,-0.5,2.7,-1.5c0,0.5,0.1,1,0.2,1.3l1.1,0c-0.1,-0.6,-0.2,-1.2,-0.2,-1.8Zm-2.2,0.5c-0.4,0.2,-0.8,0.4,-1.2,0.4c-0.4,0,-0.7,-0.2,-1,-0.4c-0.2,-0.2,-0.3,-0.5,-0.3,-0.8c0,-0.4,0.1,-0.7,0.4,-0.9c0.3,-0.2,0.6,-0.4,1,-0.5c0.4,-0.1,1.1,-0.1,2.2,-0.2l0,1.4c-0.3,0.4,-0.7,0.7,-1.1,1Z" class="g32_33" />
<path d="M947.1,481.9l-1.2,0l0,3.8c-0.6,-0.8,-1.4,-1.2,-2.4,-1.2c-0.8,0,-1.6,0.4,-2.1,1.1c-0.5,0.8,-0.8,1.7,-0.8,2.9c0,1.2,0.2,2.2,0.8,3c0.5,0.8,1.2,1.2,2.1,1.2c0.5,0,0.9,-0.1,1.4,-0.4c0.4,-0.2,0.8,-0.6,1,-0.9l0,1.1l1.2,0l0,-10.6Zm-1.6,8.8c-0.3,0.3,-0.5,0.5,-0.8,0.7c-0.3,0.2,-0.6,0.2,-0.9,0.2c-0.6,0,-1.1,-0.3,-1.5,-0.8c-0.3,-0.6,-0.5,-1.4,-0.5,-2.3c0,-0.8,0.2,-1.6,0.6,-2.1c0.3,-0.6,0.9,-0.9,1.5,-0.9c0.8,0,1.5,0.5,2,1.4l0,3.2c0,0.1,-0.1,0.3,-0.4,0.6Z" class="g32_33" />
<path d="M956.5,488.3c0,-1.2,-0.3,-2.1,-0.9,-2.8c-0.6,-0.6,-1.4,-1,-2.2,-1c-1.1,0,-1.9,0.4,-2.5,1.1c-0.6,0.7,-1,1.7,-1,3c0,1.2,0.4,2.2,1.1,3c0.7,0.7,1.6,1.1,2.8,1.1c0.9,0,1.7,-0.2,2.4,-0.5L956,491.3c-0.8,0.2,-1.5,0.4,-2.2,0.4c-0.7,0,-1.4,-0.3,-1.9,-0.9c-0.5,-0.6,-0.7,-1.3,-0.7,-2.2l5.3,0l0,-0.3Zm-5.3,-0.6c0.1,-0.7,0.3,-1.2,0.7,-1.6c0.4,-0.4,0.9,-0.6,1.5,-0.6c0.5,0,0.9,0.2,1.3,0.6c0.3,0.5,0.5,1,0.5,1.6l-4,0Z" class="g32_33" />
<path d="M963.8,484.5c-0.9,0,-1.7,0.6,-2.4,1.8l0,-1.6l-1.1,0l0,7.8l1.1,0l0,-5.1c0,0,0.2,-0.2,0.4,-0.6c0.3,-0.3,0.6,-0.6,1,-0.8c0.3,-0.2,0.6,-0.3,1,-0.3c0.3,0,0.8,0.1,1.3,0.3l0.5,-1.1c-0.6,-0.3,-1.2,-0.4,-1.8,-0.4Z" class="g32_33" />
<text 
x="912" 
y="492" 
dx="0,0,0,0,0,0" 
class="s4_33"
>header</text>

<text 
x="971" 
y="492" 
dx="0,0,0,0,0,0,0,0,0.6,0,0,0.6,0,0,0,0,0,0.6,0,0,0,0,0.6,0,0,0.6,0,0,0,0,0,0,0,0.6,0,0,0,0.6,0,0,0,0.6,0,0,0,0,-1.1,0,0.6,0,0,0,0,0.6,0,0,0,0.6,0,0,0,0,0,0,0.6,0,0,0.6,0,0,0,0.6,0,0,0,0,0.6,0,0,0,0,0,0,0,0,0.6,0,0,0" 
class="s2_33"
>element is often used to contain the web page’s logo and title. As the name suggests you </text>

<text 
x="881" 
y="513" 
dx="0,0,0,0,0,0,0,0,-0.9,0,0,0,0,-0.9,0,0,-0.9,0,0,-0.9,0,0,0,-0.9,0,0,0,-0.9,0,0,-0.9,0,0,0,-0.9,0,0,0,0,0,-0.9,0,0,0,0,0,0,0,0,0,-0.9,0,0,0" 
class="s2_33"
>usually find it at the top of the page! Sometimes the </text>

<path d="M1234.9,508.5c0,-1.7,-0.7,-2.6,-2.2,-2.6c-0.9,0,-1.8,0.4,-2.6,1.3l0,-3.9l-1.2,0l0,10.6l1.2,0l0,-5.7c0.8,-0.8,1.5,-1.3,2.3,-1.3c0.4,0,0.8,0.2,1,0.5c0.2,0.3,0.3,0.8,0.3,1.5l0,5l1.2,0l0,-5.4Z" class="g32_33" />
<path d="M1244.3,509.6c0,-1.1,-0.3,-2,-0.9,-2.7c-0.6,-0.7,-1.4,-1,-2.3,-1c-1,0,-1.8,0.4,-2.4,1.1c-0.6,0.7,-1,1.7,-1,3c0,1.2,0.4,2.2,1.1,3c0.7,0.7,1.6,1.1,2.8,1.1c0.9,0,1.7,-0.2,2.4,-0.5l-0.2,-0.9c-0.8,0.2,-1.5,0.3,-2.2,0.3c-0.7,0,-1.4,-0.2,-1.9,-0.8c-0.5,-0.6,-0.7,-1.3,-0.7,-2.2l5.3,0l0,-0.4Zm-5.3,-0.5c0.1,-0.7,0.3,-1.2,0.7,-1.6c0.4,-0.4,0.9,-0.6,1.5,-0.6c0.5,0,0.9,0.2,1.3,0.6c0.3,0.4,0.5,1,0.5,1.6l-4,0Z" class="g32_33" />
<path d="M1253.2,512.1l0,-3.4c0,-1.9,-0.9,-2.8,-2.6,-2.8c-0.9,0,-1.9,0.3,-3,0.8l0.3,0.9c0.3,-0.2,0.7,-0.4,1.2,-0.5c0.4,-0.1,0.8,-0.2,1.1,-0.2c1.2,0,1.9,0.7,1.9,2l0,0.4l-1.3,0.1c-0.6,0,-1.1,0.1,-1.6,0.2c-0.4,0.1,-0.8,0.3,-1.1,0.5c-0.3,0.2,-0.5,0.5,-0.6,0.7c-0.2,0.3,-0.3,0.7,-0.3,1.1c0,0.6,0.3,1.1,0.7,1.5c0.4,0.5,0.9,0.7,1.5,0.7c1.2,0,2.1,-0.5,2.7,-1.5c0,0.5,0.1,0.9,0.2,1.3l1.1,0c-0.1,-0.6,-0.2,-1.2,-0.2,-1.8Zm-2.2,0.5c-0.4,0.2,-0.8,0.3,-1.2,0.3c-0.4,0,-0.7,-0.1,-1,-0.3c-0.2,-0.2,-0.3,-0.5,-0.3,-0.8c0,-0.4,0.1,-0.7,0.4,-0.9c0.3,-0.3,0.6,-0.4,1,-0.5c0.4,-0.1,1.1,-0.2,2.2,-0.3l0,1.5c-0.3,0.4,-0.7,0.7,-1.1,1Z" class="g32_33" />
<path d="M1262.4,503.3l-1.2,0l0,3.8c-0.6,-0.8,-1.4,-1.2,-2.4,-1.2c-0.9,0,-1.6,0.4,-2.1,1.1c-0.5,0.8,-0.8,1.7,-0.8,2.9c0,1.2,0.2,2.2,0.8,3c0.5,0.8,1.2,1.2,2.1,1.2c0.5,0,0.9,-0.2,1.4,-0.4c0.4,-0.3,0.8,-0.6,1,-1l0,1.2l1.2,0l0,-10.6Zm-1.6,8.8c-0.3,0.3,-0.5,0.5,-0.8,0.7c-0.3,0.1,-0.6,0.2,-0.9,0.2c-0.6,0,-1.1,-0.3,-1.5,-0.9c-0.3,-0.5,-0.5,-1.3,-0.5,-2.2c0,-0.8,0.2,-1.6,0.6,-2.1c0.3,-0.6,0.8,-0.9,1.5,-0.9c0.8,0,1.4,0.5,2,1.4l0,3.2c0,0.1,-0.1,0.2,-0.4,0.6Z" class="g32_33" />
<path d="M1271.8,509.6c0,-1.1,-0.3,-2,-0.9,-2.7c-0.6,-0.7,-1.4,-1,-2.3,-1c-1,0,-1.8,0.4,-2.4,1.1c-0.6,0.7,-1,1.7,-1,3c0,1.2,0.4,2.2,1.1,3c0.7,0.7,1.6,1.1,2.8,1.1c0.9,0,1.7,-0.2,2.4,-0.5l-0.2,-0.9c-0.8,0.2,-1.5,0.3,-2.2,0.3c-0.7,0,-1.4,-0.2,-1.9,-0.8c-0.5,-0.6,-0.7,-1.3,-0.7,-2.2l5.3,0l0,-0.4Zm-5.3,-0.5c0.1,-0.7,0.3,-1.2,0.7,-1.6c0.4,-0.4,0.9,-0.6,1.5,-0.6c0.5,0,0.9,0.2,1.3,0.6c0.3,0.4,0.5,1,0.5,1.6l-4,0Z" class="g32_33" />
<path d="M1279.1,505.9c-0.9,0,-1.8,0.6,-2.4,1.8l0,-1.6l-1.1,0l0,7.8l1.1,0l0,-5.1c0,0,0.2,-0.2,0.4,-0.6c0.3,-0.3,0.6,-0.6,0.9,-0.8c0.4,-0.2,0.7,-0.3,1.1,-0.3c0.3,0,0.8,0.1,1.3,0.3l0.5,-1.1c-0.6,-0.3,-1.2,-0.4,-1.8,-0.4Z" class="g32_33" />
<text 
x="1227" 
y="513" 
dx="0,0,0,0,0,0" 
class="s4_33"
>header</text>

<text 
x="1285" 
y="513" 
dx="0,0,0,0,0,0,0,0,-0.9,0,0,0,0,-0.9,0,0,0,0,0,0,0,0,-0.9,0,0,0" 
class="s2_33"
>element also contains the </text>

<path d="M1468.2,508.5c0,-1.7,-0.7,-2.6,-2.1,-2.6c-1,0,-1.9,0.4,-2.7,1.3l0,-1.1l-1.2,0l0,7.8l1.2,0l0,-5.7c0.8,-0.8,1.6,-1.3,2.3,-1.3c0.5,0,0.8,0.2,1,0.5c0.3,0.3,0.4,0.8,0.4,1.5l0,5l1.1,0l0,-5.4Z" class="g32_33" />
<path d="M1477.4,512.1l0,-3.4c0,-1.9,-0.9,-2.8,-2.6,-2.8c-1,0,-1.9,0.3,-3,0.8l0.3,0.9c0.3,-0.2,0.7,-0.4,1.2,-0.5c0.4,-0.1,0.8,-0.2,1.1,-0.2c1.2,0,1.8,0.7,1.8,2l0,0.4l-1.3,0.1c-0.5,0,-1.1,0.1,-1.5,0.2c-0.4,0.1,-0.8,0.3,-1.1,0.5c-0.3,0.2,-0.5,0.5,-0.7,0.7c-0.1,0.3,-0.2,0.7,-0.2,1.1c0,0.6,0.2,1.1,0.7,1.5c0.4,0.5,0.9,0.7,1.5,0.7c1.1,0,2,-0.5,2.7,-1.5c0,0.5,0,0.9,0.1,1.3l1.2,0c-0.1,-0.6,-0.2,-1.2,-0.2,-1.8Zm-2.2,0.5c-0.4,0.2,-0.8,0.3,-1.3,0.3c-0.3,0,-0.7,-0.1,-0.9,-0.3c-0.2,-0.2,-0.4,-0.5,-0.4,-0.8c0,-0.4,0.2,-0.7,0.5,-0.9c0.3,-0.3,0.6,-0.4,1,-0.5c0.4,-0.1,1.1,-0.2,2.1,-0.3l0,1.5c-0.3,0.4,-0.6,0.7,-1,1Z" class="g32_33" />
<path d="M1485.7,506.1l-2.2,6.2l-2.2,-6.2l-1.3,0l2.9,7.8l1.1,0l2.9,-7.8l-1.2,0Z" class="g32_33" />
<text 
x="1460" 
y="513" 
dx="0,0,0" 
class="s4_33"
>nav</text>

<text 
x="1491" 
y="513" 
dx="0,0,0,0,0,0,0,0" 
class="s2_33"
>element.</text>

<text 
x="881" 
y="749" 
dx="0,-2.2,-1.7,0,-0.9,-1.8,-1.9,0,-0.9,-2.5,-2.9,-2.6,-1.7,-2.6,-2.2" 
class="s6_33"
>The nav element</text>

<text 
transform="matrix(0.98, 0, 0, 1, 881, 770)"
dx="0,0,0,0.5,0,0,0,0.5,0,0,0,0,0.5,0,0,0.5,0,0,0,0.5,0,0,0,0,0,0,0,0,-1.1,0,0.5,0,0,0,0,0.5,0,0,0,0,0.5,0,0,0,0.5,0,0,0" 
class="s2_33"
>In the case of the Nanonaut’s page they use the </text>

<path d="M1217.9,765.2c0,-1.7,-0.7,-2.6,-2.2,-2.6c-0.9,0,-1.8,0.4,-2.6,1.3l0,-1.1l-1.1,0l0,7.7l1.1,0l0,-5.6c0.8,-0.9,1.6,-1.3,2.3,-1.3c0.4,0,0.8,0.1,1,0.4c0.2,0.4,0.3,0.9,0.3,1.5l0,5l1.2,0l0,-5.3Z" class="g33_33" />
<path d="M1226.9,768.7l0,-3.3c0,-1.9,-0.9,-2.8,-2.6,-2.8c-0.9,0,-1.9,0.2,-2.9,0.8l0.3,0.8c0.3,-0.2,0.7,-0.3,1.1,-0.4c0.4,-0.2,0.8,-0.2,1.1,-0.2c1.2,0,1.8,0.6,1.8,2l0,0.3l-1.3,0.2c-0.5,0,-1,0.1,-1.4,0.2c-0.5,0.1,-0.8,0.3,-1.1,0.5c-0.3,0.2,-0.5,0.4,-0.7,0.7c-0.1,0.3,-0.2,0.6,-0.2,1c0,0.7,0.2,1.2,0.6,1.6c0.5,0.4,1,0.6,1.5,0.6c1.2,0,2,-0.5,2.7,-1.4c0,0.5,0,0.9,0.1,1.2l1.2,0c-0.2,-0.5,-0.2,-1.1,-0.2,-1.8Zm-2.2,0.5c-0.4,0.3,-0.8,0.4,-1.2,0.4c-0.4,0,-0.7,-0.1,-0.9,-0.3c-0.3,-0.2,-0.4,-0.5,-0.4,-0.9c0,-0.3,0.1,-0.6,0.4,-0.9c0.3,-0.2,0.6,-0.3,1,-0.4c0.4,-0.1,1.1,-0.2,2.1,-0.3l0,1.4c-0.3,0.5,-0.6,0.8,-1,1Z" class="g33_33" />
<path d="M1235,762.8l-2.2,6.1l-2.1,-6.1l-1.3,0l2.9,7.7l1,0l2.9,-7.7l-1.2,0Z" class="g33_33" />
<text 
transform="matrix(0.98, 0, 0, 1, 1210, 770)"
dx="0,0,0" 
class="s4_33"
>nav</text>

<text 
transform="matrix(0.98, 0, 0, 1, 1242, 770)"
dx="0,0,0,0,0,0,0,0,0.5,0,0,0.5,0,0,0,0,0,0,0,0.5,0,0,0,0.5,0,0,0,0.5,0,0,0,0,-1.1,0,0.5,0,0,0,0,0.5,0,0,0,0,0,0,0,0,0,0,0" 
class="s2_33"
>element to contain the web page’s main navigation. </text>

<text 
transform="matrix(0.98, 0, 0, 1, 881, 791)"
dx="0,0,0,0,0,0,0,-0.9,0,0,0,0,-0.9,0,0,0,0,-0.9,0,0,0" 
class="s2_33"
>Notice also that the </text>

<path d="M1019.3,786.6c0,-1.8,-0.7,-2.6,-2.1,-2.6c-0.9,0,-1.8,0.4,-2.6,1.3l0,-1.2l-1.2,0l0,7.8l1.2,0l0,-5.6c0.8,-0.9,1.5,-1.3,2.2,-1.3c0.5,0,0.8,0.1,1,0.4c0.3,0.3,0.4,0.8,0.4,1.5l0,5l1.1,0l0,-5.3Z" class="g33_33" />
<path d="M1028.3,790.1l0,-3.3c0,-1.9,-0.8,-2.8,-2.6,-2.8c-0.9,0,-1.8,0.2,-2.9,0.8l0.3,0.8c0.3,-0.2,0.7,-0.3,1.1,-0.4c0.5,-0.2,0.9,-0.2,1.1,-0.2c1.3,0,1.9,0.6,1.9,2l0,0.3l-1.3,0.1c-0.6,0.1,-1.1,0.2,-1.5,0.3c-0.4,0.1,-0.8,0.3,-1.1,0.5c-0.3,0.2,-0.5,0.4,-0.6,0.7c-0.2,0.3,-0.3,0.6,-0.3,1c0,0.7,0.3,1.2,0.7,1.6c0.4,0.4,0.9,0.6,1.5,0.6c1.1,0,2,-0.5,2.6,-1.4c0,0.5,0.1,0.9,0.2,1.2l1.1,0c-0.1,-0.5,-0.2,-1.1,-0.2,-1.8Zm-2.2,0.5c-0.4,0.3,-0.8,0.4,-1.2,0.4c-0.4,0,-0.7,-0.1,-0.9,-0.3c-0.2,-0.2,-0.4,-0.5,-0.4,-0.9c0,-0.3,0.2,-0.6,0.5,-0.9c0.2,-0.2,0.6,-0.4,1,-0.4c0.3,-0.1,1,-0.2,2.1,-0.3l0,1.4c-0.3,0.4,-0.7,0.8,-1.1,1Z" class="g33_33" />
<path d="M1036.4,784.1l-2.1,6.2l-2.2,-6.2l-1.2,0l2.8,7.8l1.1,0l2.9,-7.8l-1.3,0Z" class="g33_33" />
<text 
transform="matrix(0.98, 0, 0, 1, 1011, 791)"
dx="0,0,0" 
class="s4_33"
>nav</text>

<text 
transform="matrix(0.98, 0, 0, 1, 1042, 791)"
dx="0,0,0,0,0,0,0,0,-0.9,0,0,-0.9,0,0,0,0,0,0,-0.9,0,0,0" 
class="s2_33"
>element is inside the </text>

<path d="M1188.1,786.6c0,-1.8,-0.7,-2.6,-2.1,-2.6c-0.9,0,-1.8,0.4,-2.6,1.3l0,-3.9l-1.2,0l0,10.5l1.2,0l0,-5.6c0.8,-0.9,1.5,-1.3,2.2,-1.3c0.5,0,0.8,0.1,1.1,0.4c0.2,0.3,0.3,0.8,0.3,1.5l0,5l1.1,0l0,-5.3Z" class="g33_33" />
<path d="M1197.4,787.7c0,-1.1,-0.3,-2,-0.9,-2.7c-0.6,-0.7,-1.4,-1,-2.2,-1c-1,0,-1.8,0.3,-2.4,1.1c-0.7,0.7,-1,1.7,-1,2.9c0,1.3,0.4,2.3,1.1,3c0.7,0.7,1.6,1.1,2.7,1.1c0.9,0,1.7,-0.1,2.4,-0.4l-0.2,-1c-0.8,0.3,-1.5,0.4,-2.2,0.4c-0.7,0,-1.3,-0.3,-1.8,-0.9c-0.5,-0.5,-0.8,-1.3,-0.8,-2.1l5.3,0l0,-0.4Zm-5.2,-0.6c0,-0.6,0.3,-1.1,0.6,-1.5c0.4,-0.4,0.9,-0.6,1.5,-0.6c0.5,0,0.9,0.2,1.3,0.6c0.3,0.4,0.5,0.9,0.5,1.5l-3.9,0Z" class="g33_33" />
<path d="M1206.1,790.1l0,-3.3c0,-1.9,-0.8,-2.8,-2.6,-2.8c-0.9,0,-1.8,0.2,-2.9,0.8l0.3,0.8c0.3,-0.2,0.7,-0.3,1.2,-0.4c0.4,-0.2,0.8,-0.2,1.1,-0.2c1.2,0,1.8,0.6,1.8,2l0,0.3l-1.3,0.1c-0.6,0.1,-1.1,0.2,-1.5,0.3c-0.4,0.1,-0.8,0.3,-1,0.5c-0.3,0.2,-0.6,0.4,-0.7,0.7c-0.2,0.3,-0.2,0.6,-0.2,1c0,0.7,0.2,1.2,0.6,1.6c0.4,0.4,0.9,0.6,1.5,0.6c1.1,0,2,-0.5,2.7,-1.4c0,0.5,0,0.9,0.1,1.2l1.1,0c-0.1,-0.5,-0.2,-1.1,-0.2,-1.8Zm-2.2,0.5c-0.4,0.3,-0.8,0.4,-1.2,0.4c-0.3,0,-0.6,-0.1,-0.9,-0.3c-0.2,-0.2,-0.3,-0.5,-0.3,-0.9c0,-0.3,0.1,-0.6,0.4,-0.9c0.3,-0.2,0.6,-0.4,1,-0.4c0.4,-0.1,1.1,-0.2,2.1,-0.3l0,1.4c-0.3,0.4,-0.7,0.8,-1.1,1Z" class="g33_33" />
<path d="M1215.1,781.4l-1.1,0l0,3.8c-0.6,-0.8,-1.4,-1.2,-2.3,-1.2c-0.9,0,-1.6,0.3,-2.2,1.1c-0.5,0.7,-0.7,1.7,-0.7,2.8c0,1.2,0.2,2.2,0.7,3c0.5,0.8,1.2,1.2,2.1,1.2c0.5,0,0.9,-0.1,1.4,-0.4c0.4,-0.2,0.7,-0.5,1,-0.9l0,1.1l1.1,0l0,-10.5Zm-1.5,8.7c-0.3,0.3,-0.5,0.6,-0.8,0.7c-0.3,0.2,-0.6,0.3,-0.9,0.3c-0.6,0,-1.1,-0.3,-1.4,-0.9c-0.4,-0.6,-0.5,-1.3,-0.5,-2.2c0,-0.9,0.1,-1.6,0.5,-2.2c0.4,-0.6,0.9,-0.8,1.5,-0.8c0.8,0,1.4,0.4,2,1.3l0,3.2c0,0.1,-0.2,0.3,-0.4,0.6Z" class="g33_33" />
<path d="M1224.4,787.7c0,-1.1,-0.3,-2,-0.9,-2.7c-0.6,-0.7,-1.3,-1,-2.2,-1c-1,0,-1.8,0.3,-2.4,1.1c-0.6,0.7,-1,1.7,-1,2.9c0,1.3,0.4,2.3,1.1,3c0.7,0.7,1.6,1.1,2.7,1.1c0.9,0,1.7,-0.1,2.4,-0.4l-0.2,-1c-0.8,0.3,-1.5,0.4,-2.2,0.4c-0.7,0,-1.3,-0.3,-1.8,-0.9c-0.5,-0.5,-0.8,-1.3,-0.8,-2.1l5.3,0l0,-0.4Zm-5.2,-0.6c0.1,-0.6,0.3,-1.1,0.7,-1.5c0.4,-0.4,0.8,-0.6,1.4,-0.6c0.5,0,0.9,0.2,1.3,0.6c0.4,0.4,0.5,0.9,0.5,1.5l-3.9,0Z" class="g33_33" />
<path d="M1231.6,784c-1,0,-1.8,0.5,-2.4,1.7l0,-1.6l-1.1,0l0,7.8l1.1,0l0,-5c0,-0.1,0.2,-0.3,0.4,-0.6c0.3,-0.4,0.6,-0.7,0.9,-0.9c0.3,-0.2,0.7,-0.3,1,-0.3c0.4,0,0.8,0.1,1.3,0.4l0.5,-1.1c-0.6,-0.3,-1.1,-0.4,-1.7,-0.4Z" class="g33_33" />
<text 
transform="matrix(0.98, 0, 0, 1, 1180, 791)"
dx="0,0,0,0,0,0" 
class="s4_33"
>header</text>

<text 
transform="matrix(0.98, 0, 0, 1, 1238, 791)"
dx="0,0,0,0,0,0,0,0" 
class="s2_33"
>element.</text>

<text 
x="870" 
y="193" 
dx="0,-1.5,-1.7,-1.9,-1.7,-2.5" 
class="s5_33"
>MOBILE</text>

<text 
x="893" 
y="691" 
dx="0,0,0,0,0,-0.8,0,0,0,-0.8,0,0,0,0,0,0,0,0" 
class="s7_33"
>Meet the Nanonauts</text>

<text 
x="1513" 
y="603" 
dx="0,0,0,0,0,0,-0.7,0" 
class="s8_33"
>About Us</text>

<text 
x="1513" 
y="879" 
dx="0,0,0,0,0,0,-0.7,0" 
class="s9_33"
>About Us</text>

<text 
x="895" 
y="601" 
dx="0,0,0" 
class="s10_33"
>the</text>

<text 
x="917" 
y="605" 
dx="0,0,0,0,0,0,0,0,0" 
class="s10_33"
>nanonauts</text>

<text 
x="895" 
y="878" 
dx="0,0,0" 
class="s11_33"
>the</text>

<text 
x="917" 
y="881" 
dx="0,0,0,0,0,0,0,0,0" 
class="s11_33"
>nanonauts</text>

<text 
x="59" 
y="453" 
dx="0,0,0,0,0,-0.4,0,0,0,-0.4,0,0,0,0,0,0,0,0" 
class="s12_33"
>Meet the Nanonauts</text>

<text 
x="67" 
y="576" 
dx="0,0,0,0,0,0,0,-0.4,0,-0.4,0,0,0,0.1,0,0,-0.4,-0.1,0,0,0,0,0,-0.2,0,0,0,0,0,0" 
class="s12_33"
>Daniel – Singer extraordinaire</text>

<text 
x="67" 
y="677" 
dx="0,0,0,0,-0.4,0,-0.4,0,0,0,0,0,0,0,-0.4,0,-0.2,0,0,0,0,-0.4,0,0,0,0,0,0" 
class="s12_33"
>Sam – One-man rhythm section</text>

<text 
x="67" 
y="779" 
dx="0,0,0,0,-0.1,0,-0.4,0,-0.4,0,0,-0.4,0,0,0,0,-0.4,0,0,0,-0.4,0,0,0,0,0,0,0,-0.3,-0.4,0,0,0,0,0,0,-0.4,0,0,-0.2,0,-0.4,0" 
class="s12_33"
>Holly – If it's got strings, she'll play it</text>

<text 
x="67" 
y="880" 
dx="0,0,0,0.1,0,0,0,-0.4,0,-0.4,-0.1,-0.1,0,0,0,0,-0.2,0,-0.4,0,0,0,0,0,-0.2" 
class="s12_33"
>Dervla – Keyboard maestro</text>

<text 
x="387" 
y="406" 
dx="0,0,0,0,0,0,-0.4,0" 
class="s13_33"
>About Us</text>

<text 
x="120" 
y="590" 
dx="0,0,0,0,0,0,0,0.3,0,0,0.3,0,0,0,0.3,0,0,0,0,0,0,0,0,0,0,0.3,0,0,0,0,0,-0.2,0,0.3,0,0,0.3,0,0,0,0,0,0.3,0,0,0.3,0,0,0,0,0.3,0,-0.1,0,0.3,0,0,0,0.3,0,0,0,0,0.3,0,0.3,0,0,0,0.3,0,0,0,0,0.3,0,0,0,0,0.3,0,0,0,0,0.3,0,0,0,0,0,0,0,0.3,0,0,0,0,0.3,0,0,0" 
class="s14_33"
>Daniel is the Nanonauts' singer. He likes to sing a l the time – not just when he's playing with the </text>

<text 
x="120" 
y="595" 
dx="0,0,0,0,0,0,0,0,0,0,0,-0.2,0,0,0,-0.2,0,0,0,-0.2,0,0,0,-0.2,0,0,0,-0.2,0,0,0,-0.2,0,0,-0.2,0,0,0,0,0,0,0,-0.2,0,0,-0.2,0,0,0,0,-0.2,0,0,0,0,0,0,-0.2,0,0,-0.2,0,0,0,0,0,0,0,-0.2,0,0,-0.2,0,0,0,0" 
class="s14_33"
>Nanonauts! His mum and dad say he learned to sing before he learned to talk!</text>

<text 
x="120" 
y="600" 
dx="0,0,0,0,0,0,0,-0.2,0,0,0,0,-0.2,0,0,0,0,0,-0.2,0,0,0,0,0,0,0,0,-0.2,0,0,0,-0.2,0,0,-0.2,0,0,0,0,0,0,0,0,-0.2,0,0,0,-0.2,0,0,0,0,-0.2,0,0,0,0,0,0,0,0,0" 
class="s14_33"
>Daniel also plays clarinet and is learning the alto saxophone.</text>

<text 
x="120" 
y="690" 
dx="0,0,0,0,0,0,0,0,0,0,0,0,0,0,0,0,0,0,0,0,0,0,0,0,0,0,0,0,0,0,0,0,0,0,0,0,0,0,0,0,0,0,0,0,0,0,0,0,0,0,0,0,0,0,0,0,0,0,0,0,0,0,0,0,0,0,0,0,0,0,0,0,0,0,0,0,0,0,0,0,0,0,0,0,0,0,0,0,0,0,0,0,0,0,0" 
class="s14_33"
>Sam had music in his blood from the day he was born. Both his mum and dad play instruments and </text>

<text 
x="120" 
y="695" 
dx="0,0,0,0,0.1,0,0,0,0.1,0,0,0,0.1,0,0,0,0,0,0.1,0,0,0,0,0.1,0,0,0,0.1,0,0,0,0,0.1,0,0,0.1,0,0,0,0.1,0,0,0,0,0.1,0,0,0,0,0.1,0,0,0,0,0,0.1,0,0,0,0,0.1,0,0,0,0,0,0.1,0,0,0,0.1,0,0,0.1,0,0,0,0,0,0,0,0.1,0,0,0,0,0.1,0,0,0,0.1,0,0,0,0,0,0,0,0,0,0,0" 
class="s14_33"
>got him his first drum kit when he was only five years old, which led to trouble with the neighbours. </text>

<text 
x="120" 
y="700" 
dx="0,0,0,0.2,0,0,0,0,0.2,0,0,0,0,0,0.2,0,0,0.2,0,0,0,0,0,0.2,0,0,0,0.2,0,0,0,0,0.2,0,0,0,0,0,0,0.2,0,0,0,0.2,0,0,0.2,0,0,0,0,0.2,0,0,0,0,0,0.2,0,0,0,0.2,0,0,0,0,0,0,0.2,0,0,0,0.2,0,0,0,0,0,0.2,0,0,0,0,0,0,0,0.2,0,0,0.2,0,0,0" 
class="s14_33"
>On some songs he plays the bass guitar and on some songs the drums. Sam loves playing in the </text>

<text 
x="120" 
y="704" 
dx="0,0,0,0,0,0,0,0,0,0,-0.2,0,0,0,-0.2,0,0,0,0,0,-0.2,0" 
class="s14_33"
>Nanonauts but hates ca</text>

<text 
x="164" 
y="704" 
dx="0,0,0,0,0,0,-0.2,0,0,0,-0.2,0,0,0,0,0,0,0,-0.2,0,0,0,0,0,0" 
class="s14_33"
>rying his drumkit around.</text>

<text 
x="120" 
y="791" 
dx="0,0,0,0,0,0,0,0,0,0.5,0,0,0,0,0,0,0,0.5,0,0,0,0,0,0,0,0,0.5,0,0,0,0,0.5,0,0,0,0,0,0,0,0.5,0,0,0,0,0,0,0,0,0.5,0,0,0,0,0,0.5,0,0,-0.1,0,0,0.5,0,0,0,0.5,0,0,0,0,0.5,0,0,0,0,0.5,0,-0.1,0,0,0.5,0,0,0,0.5,0,0,0,0,0,0,0,0.5,0,0,0,0.5,0,0" 
class="s14_33"
>Acoustic guitar? Electric lead guitar? Ukelele? Harp? Ho ly can play them a l. She started o f by </text>

<text 
x="120" 
y="796" 
dx="0,0,0,0,0,0,0,-0.2,0,0,0,0,0,0,0,0,-0.2,0,0,0,0,0,0,0,-0.2,0,0,0,0,-0.2,0,0,0,0,0,0,0,0,0,-0.2,0,0,0,0,0,-0.2,0,0,0,-0.2,0,0,0,0,0,0,0,-0.2,0,0,0,0,0,-0.2,0,0,-0.1,0,-0.2,0,0,0,-0.2,0,0,0,0,0,-0.2,0,0,0,0,-0.2,0,0,0,0,-0.2,0,0,-0.2,0,0,0,-0.2,0,0,0" 
class="s14_33"
>making homemade guitars from cardboard boxes and elastic bands ti l her uncle took pity on her and </text>

<text 
x="120" 
y="801" 
dx="0,0,0,0,0,0,0,-0.2,0,0,0,-0.2,0,-0.2,0,0,0,0,0,0,0,-0.2,0,0,0,0,0,0,-0.2,0,0,0,-0.2,0,0,0,0,0,0,0,0,0,0,-0.5,0,0,0,0,0,-0.2,0,-0.2,0,0,0,-0.2,0,0,0,0,0,0,0,-0.2,0,0,-0.2,0,0,0,0,0,0,-0.2,0,0,0,-0.2,0,0,0,-0.2,0,0,0,0,0,0" 
class="s14_33"
>bought her a Spanish guitar for Christmas. After a few lessons at school she was flying!</text>

<text 
x="120" 
y="892" 
dx="0,0,0,0,0,0,0,0.1,0,0,0,0.1,0,0,0,0,0,0.1,0,0.1,0,0,0,0,0,0.1,0,0,0,0.1,0,0,0.1,0,0,0,0,0,0,0.1,0,0,0,0,0,0,0,0.1,0,0,0.1,0,0,0,0,0.1,0,0,0,0,0,0,0,0,0,0,0.1,0,0,0,0,0,0,0,0,0,0,0.1,0,0,0,0.1,0,0,0,0,0,0.1,0,0,0,0,0,0,0,0,0,0,0" 
class="s14_33"
>Dervla has Grade 4 piano but in secret prefers to play electronic keyboards. She loves synthesizer </text>

<text 
x="120" 
y="897" 
dx="0,0,0,0,0,0,0,-0.2,0,0,0,-0.2,0,0,0,0,0,0,0,-0.2,0,0,0,0,-0.2,0,0,-0.1,0,0,-0.2,0,0,0,0,-0.2,0,0,0,-0.2,0,0,0,0,0,0,-0.2,0,0,0,0,-0.2,0,0,0,-0.2,0,0,0,0,0,0,0,0,0" 
class="s14_33"
>sounds and arguing with Ho ly over who should play the basslines.</text>

<text 
x="320" 
y="461" 
dx="0,0,0,0,0,1.4,0,0,0,0,0,0,0,0,1.4,0" 
class="s15_33"
>Nano Noodling – </text>

<text 
x="320" 
y="472" 
dx="0,0,0,0,-0.4,0,0,0,-0.4,0,-0.1,0,-0.4,0,0" 
class="s15_33"
>Buy Our New CD!</text>

<text 
x="320" 
y="499" 
dx="0,0,0,0,-0.1,0,0,0,0,-0.1,0,0,0,0,-0.1,0,0,0,0,0,0,0,0,-0.1,0,0,-0.1,0,0,0,0,-0.1,0,0,0,0,0,0,0,-0.1,0,0,0,0,0,0,0,0,0,0,0,0" 
class="s14_33"
>Are your kids learning to play musical instruments? </text>

<text 
x="320" 
y="506" 
dx="0,0,0,0,0,-0.2,0,0,0,-0.2,0,0,0,-0.2,0,0,0,0,0,-0.2,0,0,0,0,-0.2,0,0,0,0,0,-0.2,0,0,-0.2,0,0,-0.2,0,0,0,-0.2,0,0,0,0,0,0,0,0,0,0" 
class="s14_33"
>Then why not order this great CD of the Nanonauts' </text>

<text 
x="320" 
y="514" 
dx="0,0,0,0,0,0,0,0,0,0,0,0,0,0,0,0,0,-0.2,0,0,0,0,0,-0.1,0,0,0,0,0,0,0,0,0,0,0,0,0,-0.1,0,0,0,0,0,0,0,0,0,0,0,0,0,0" 
class="s14_33"
>favourite songs! As we l as having a l the complete </text>

<text 
x="320" 
y="522" 
dx="0,0,0,0,0,0,0,0.2,0,0,0,0.2,0,0,0.2,0,0,0,0,0,0,0,0,0.2,0,0,0,0,0,0,0,0,0.2,0,0,0.2,0,0,0,0.2,0,0,0,0,0,0.2,0,0,0,0" 
class="s14_33"
>songs, the CD includes versions of the songs with </text>

<text 
x="320" 
y="530" 
dx="0,0,0,0,0,0.4,0,0,0,0,0,0,0,0,0,0,0.4,0,0,0,0,0,0,0,0.4,0,0.4,0,0,0.4,0,0,0,0.4,0,0,0,0.4,0,0,0,0,0.4,0,0,0,0,0" 
class="s14_33"
>each instrument missing – so you can play along </text>

<text 
x="320" 
y="537" 
dx="0,0,0,0,0,-0.1,0,0,0,0,-0.1,0,0,0,-0.1,0,0,0,0,0,0,0,0,0,0,0,-0.1,0,0,0,-0.1,0,0,0,0,-0.1,0,0,0,0,-0.1,0,0,0,-0.1,0,0,0,-0.1,0,0,0,0" 
class="s14_33"
>with your own instrument. Not only that but the solo </text>

<text 
x="320" 
y="545" 
dx="0,0,0,0,0,0,0.2,0,0,0,0.2,0,0,0,0.2,0,0,0,0,0,0.2,0,0,0,0.2,0,0,0,0,0.2,0,0,0,0,0,0,0,0,0,0.2,0,0,0.2,0,0,0,0.2,0,0,0" 
class="s14_33"
>parts and the music are also included, so you can </text>

<text 
x="320" 
y="553" 
dx="0,0,0,0,0,-0.2,0,0,0,0,-0.2,0,0,-0.2,0,0,0,-0.3" 
class="s14_33"
>copy what to play.</text>

<text 
x="320" 
y="643" 
dx="0,0,0,0.2,0,0,0,0,0.2,0,0,0.2,0,0,0,0.2,0,0,0.2,0,0,0,0.2,0,0,0,0,0,0,0,0,0.2,0,0,0.2,0,0,0,0,0,0,0,0.2,0,0,0,0" 
class="s16_33"
>On sale at any of our concerts or contact info@</text>

<text 
x="320" 
y="650" 
dx="0,0,0,0,0,0,0,0,0,0,0,0,0" 
class="s16_33"
>nanonauts.com</text>

<text 
x="340" 
y="582" 
dx="0,0" 
class="s17_33"
>• </text>

<text 
x="351" 
y="582" 
dx="0,0,0,0,0,0,0,0,-0.2,0,0,0,0,0,0,0,-0.2,0,0" 
class="s14_33"
>Magical Mystery Bug</text>

<text 
x="340" 
y="590" 
dx="0,0" 
class="s17_33"
>• </text>

<text 
x="351" 
y="590" 
dx="0,0,0,0,0,-0.2,0" 
class="s14_33"
>Boot It</text>

<text 
x="340" 
y="598" 
dx="0,0" 
class="s17_33"
>• </text>

<text 
x="351" 
y="598" 
dx="0,0,0,0,-0.2,0,0,0,0,-0.2,0,0,0,-0.2,0,0,0,0,0,0,0,-0.2,0,0,0" 
class="s14_33"
>The Long and Winding Code</text>

<text 
x="340" 
y="605" 
dx="0,0" 
class="s17_33"
>• </text>

<text 
x="351" 
y="605" 
dx="0,0,0,0,0,-0.2,0,0,0,0,0,0" 
class="s14_33"
>Dojo Dancing</text>

<text 
x="340" 
y="613" 
dx="0,0" 
class="s17_33"
>• </text>

<text 
x="351" 
y="613" 
dx="0,0,0,0,0,0,-0.2,0,0,0,0,0,0,0" 
class="s14_33"
>Empty Elements</text>

<text 
x="340" 
y="621" 
dx="0,0" 
class="s17_33"
>• </text>

<text 
x="351" 
y="621" 
dx="0,0,0,0,0,-0.2,0,0,0,0,0,0,0,0" 
class="s14_33"
>Java Chameleon</text>

<text 
x="320" 
y="489" 
dx="0,0,0,0,0,0,-0.3,0,0,-0.3,-0.1,0,0,0,0,0,-0.3,0,0,0,0,0,0,0,0,-0.3,0,0,-0.3,0,0,-0.1,0" 
class="s18_33"
>Great if you're learning to play!</text>

<text 
x="320" 
y="574" 
dx="0,-0.4,0,0,-0.1,0,-0.3,0,0,0" 
class="s18_33"
>Track List</text>

<text 
x="320" 
y="706" 
dx="0,0,0,0,0,-0.1,-0.4,-0.2,-0.3,0,0,0,0,-0.3,-0.1,0,0,0.1,-0.2,-0.9,0,0,0,0,0,0" 
class="s18_33"
>Sunday, 12th June, Theatre</text>

<text 
x="320" 
y="688" 
dx="0,0,0,0,-0.4,0,-0.1,0,0,-0.4,0,0,0,0,0,0.2" 
class="s19_33"
>Our Next Concert</text>

<text 
x="320" 
y="813" 
dx="0,0,0,0,0,-0.4,-0.2,0,0,0,0,0,0,-0.4,0" 
class="s19_33"
>Nano Fashion – </text>

<text 
x="320" 
y="823" 
dx="0,0,0,0,-0.4,0,0,0,-1.2,-1,0,0,0,0,0.2" 
class="s19_33"
>Get the T-shirt</text>

<text 
x="320" 
y="719" 
dx="0,0,0,0,0.1,0,0,0,0.1,0,0,0,0,0.1,0,0,0,0,0,0.1,0,0,0.1,0,0,0,0.1,0,0,0,0,0.1,0,0,0,0,0,0,0,0,0.1,-0.1,0,0,0,0" 
class="s20_33"
>Why not come along to our next concert? We're </text>

<text 
x="320" 
y="727" 
dx="0,0,0,0,0,0,0,0,0.3,0,0,0.3,0,0,0,0,0.3,0,0,0.3,0,0.3,0,0,0,0,0,0,0,0,0,0,0,0,0.3,0,0,0,0,0,0,0,0.3,0,0,0,0.3,0,0,0" 
class="s20_33"
>playing as part of a star-studded line-up for the </text>

<text 
x="320" 
y="734" 
dx="0,0,0,0,0,0,0,2.3,0,0,0,0,0,0,0,0,0,0,2.3,0,0,0,0,0,0,0,2.3,0,0,0,0,0,0,0,0,0,-0.2,0,2.2,0,0,0" 
class="s20_33"
>Annual Greystones Charity Fundraiser. The </text>

<text 
x="320" 
y="742" 
dx="0,0,0,0,0,0,1.7,0,0,0,0,0,0,1.7,0,0,1.7,0,0,0,0,0,0,1.7,0,0,0,1.6,0,0,0,1.7,0,0,0,0,0,0,0,0,0" 
class="s20_33"
>event starts at 7:30pm and The Nanonauts </text>

<text 
x="320" 
y="750" 
dx="0,0,0,0,0,0,0,-0.2,0,0,-0.2,0,0,-0.2,0,0,0,0,0,-0.2,0,0,-0.2,0,0,0,0,0,0,-0.2,0,0,0,0,0,0" 
class="s20_33"
>should be on stage at around 8:30pm.</text>

<text 
x="320" 
y="765" 
dx="0,0,0,0,-0.2,0,0,0,-0.1,0,-0.2,0,0,-0.2,0,0,0,0,0,0,0,0,0,0,0,-0.2,0,-0.2,0,0,0,0,0,0,0,0,-0.2,0,0,0,0,0" 
class="s20_33"
>And we' l be introducing a surprise guest!</text>

<text 
x="320" 
y="773" 
dx="0,0,0,0,0,0,0,0,0,0,1.4,0,0,1.4,0,0,1.4,0,0,1.4,0,0,0,1.4,0,0,0,-0.2,0,1.4,0,0,0,1.4,0,0,0,0,0,1.4,0,0" 
class="s20_33"
>Admission is €5 on the door. Kid under 14 </text>

<text 
x="320" 
y="781" 
dx="0,0,0,0,-0.2,0,0,0,0" 
class="s21_33"
>are free.</text>

<text 
x="320" 
y="843" 
dx="0,0,0,0,0,0,0,0,0,0,0,0,0,0,0,0,0,0,0,0,0,0,0,0,0,0,0,0,0,0,0,0,0,0,0,0,0,0,0,0,0,0,0,0,0,0,0,0,0" 
class="s20_33"
>If you like the Nanonauts why not buy one of our </text>

<text 
x="320" 
y="851" 
dx="0,0,0,0,0,0,0,0,-0.2,0,-0.1,0,0,0" 
class="s20_33"
>stylish a l-co</text>

<text 
x="344" 
y="851" 
dx="0,0,0,0,-0.2,0,0,0,0,0,0,0,0,0,-0.3,-0.2,0,0,0,0,0,0,0" 
class="s20_33"
>ton Nanonauts T-shirts?</text>

<text 
x="320" 
y="866" 
dx="0,-0.1,0,0,0,0,0,0,0,0,-0.2,0,0,-0.2,0,0,-0.2,0,0,-0.2,-0.2,-0.2,0,0,0,-0.2,0,-0.2,-0.2,0,0,0,0,-0.2,0,0,0,0,-0.2,0,0,0,-0.2,0,0,0,0,0,0,0" 
class="s20_33"
>Available in S, M, L and XL they make the perfect </text>

<text 
x="320" 
y="874" 
dx="0,0,0,0,0,0,0,0,0,-0.2,0,0,-0.2,0,0,0,0,0,0,0,0,0,-0.2,0,0,0,0,0,0,0" 
class="s20_33"
>birthday or Christmas present.</text>

<text 
x="59" 
y="462" 
dx="0,-0.1,0,-0.3,0,0,0,-0.3,0,0,0,-0.3,0,0,0,0,0,0,0,0,0,0" 
class="s22_33"
>We are the Nanonauts. </text>

<text 
x="59" 
y="469" 
dx="0,0,0,0,-0.3,0,0,0,0,0,-0.3,0,0,0,-0.3,0,0,-0.2,0,-0.4,0,-0.3,0,0,0,0,0,0,0,-0.3,0,0,0,0,0,0,-0.3,0,0,0,-0.3,0,0,0" 
class="s22_33"
>Our names are Ho ly, Dervla, Daniel and Sam.</text>

<text 
x="64" 
y="981" 
dx="0,0,-0.1,0,-0.2,0,0,0,-0.2,0,0,0,0,0,0,0,0,0,0,0,-0.2,0,0,0,0,0,0,0,0,0,-0.2,0,-0.2,0,0,0,-0.2,0,0,0,0,0,0,0,0" 
class="s14_33"
>A l the information copyright © the Nanonauts</text>

<text 
x="360" 
y="981" 
dx="0,0,0,0,0,0,0,0,0,-0.2,0,0,0,0,0,0,0,0,0,0,0,0,0,0,0,0,0" 
class="s14_33"
>Contact: info@nanonauts.com</text>

<text 
x="60" 
y="405" 
dx="0,0,0" 
class="s13_33"
>the</text>

<text 
x="71" 
y="408" 
dx="0,0,0,0,0,0,0,0,0" 
class="s13_33"
>nanonauts</text>

<text 
transform="matrix(0.98, 0, 0, 1, 56, 128)"
dx="0,0,0,0.8,0,0,0,0.8,0,0,0,0,0,0.8,0,0,0,0,0,0,0.8,0,0,0.8,0,0,0,0,0.8,0,0,0,0,0,0,0,0,0.8,0,0,0,0,0,0.8,0,-0.3,0,0.8,0,0,0,0,0.8,0,0,0.8,0,0,0,0,0.8,0,0,0.8,0,0,0,0.8,0,0,0,0,0.8,0,0.8,0,0,0.8,0,0,0,0,0,0,0,0,0.8,0,0,0.8,0,0,0,0,0.8,0,0,0,0,0,0,0,0,0" 
class="s2_33"
>So far we’ve looked at HTML elements which are used to mark up our text – to organise it into headings, </text>

<text 
transform="matrix(0.98, 0, 0, 1, 56, 150)"
dx="0,0,0,0,0,0,0,0,0,0,0,0,4.2,0,0,0,0,0,4.2,0,0,0,4.2,0,0,0,0,0,0,0,4.2,0,0,0,4.2,0,0,0,0,4.2,0,0,0,4.2,0,0,0,0,0,4.2,0,0,0,0,4.2,0,0,0,0,4.2,0,0,4.2,0,0,-0.3,0,0,-0.3,0,0,0,4.2,0,0,0,0,0,0,4.2,0,0,4.2,0,4.2,0,0,0,0,0,0,4.2,0,0,0,0,0" 
class="s2_33"
>paragraphs, lists and tables. But many web pages have lots of different topics on a single page. </text>

<text 
transform="matrix(0.98, 0, 0, 1, 56, 171)"
dx="0,0,0,0,-1.1,0,-0.9,0,0,0,0,0,0,0,-0.9,0,0,0,0,-0.9,0,0,0,-0.9,0,0,0,0,0,0,0,0,0,-0.9,0,0,0,0,-0.9,0,0,-0.9,0,0,0,0,-0.9,0,0,0,0,0,-0.9,0,0,0,0,0,-0.9,0,0,-0.9,0,0,0,0,-0.9,0,0,-0.3,0,-0.9,0,0,0,0,-0.3,0,0,0,0,0,0" 
class="s2_33"
>Let’s imagine that the Nanonauts want to make their About Us page more interesting.</text>

<text 
transform="matrix(0.98, 0, 0, 1, 56, 214)"
dx="0,0,0,0,0,0,0,0,-0.9,0,0,0,0,0,0,0,-0.9,0,0,0,0,-0.9,0,0,0,0,-0.9,0,0,0,0,-0.9,0,0,-0.9,0,0,0,0" 
class="s2_33"
>They’ve decided that they want to have:</text>

<text 
x="56" 
y="235" 
dx="0" 
class="s23_33"
>[</text>

<text 
x="83" 
y="235" 
dx="0,0,-0.9,0,0,0,0.3,0,-0.9,0,0,0,0,0,-0.3,0,-0.9,0,0,0,0,0,-0.9,0,0,0,0,-0.9,0,0,0,0,0,0,0" 
class="s2_33"
>a short feature about each Nanonaut</text>

<text 
x="56" 
y="257" 
dx="0" 
class="s23_33"
>[</text>

<text 
x="83" 
y="257" 
dx="0,0,0,-0.9,0,0,0,0,0.3,0,-0.9,0,0,0,-0.9,0,0,0,0,0,-0.9,0,0,0,-0.9,0" 
class="s2_33"
>an advert for their new CD</text>

<text 
x="56" 
y="278" 
dx="0" 
class="s23_33"
>[</text>

<text 
x="83" 
y="278" 
dx="0,0,0,-0.9,0,0,0,0,0.3,0,-0.9,0,0,0,-0.9,0,-0.9,0,0,0,-0.9,0,0,0,0,0,0,0,0,0,-0.9,-2,0,0,0,0,0.3" 
class="s2_33"
>an advert for a new Nanonauts T-shirt</text>

<text 
x="56" 
y="299" 
dx="0" 
class="s23_33"
>[</text>

<text 
x="83" 
y="299" 
dx="0,0,0,0,0,0,0,0,-0.9,0,0,-0.9,0,0,0,0,0,-0.9,0,0,0,0,-0.9,0,0,0,0,0,0.3,0,-0.9,0,0,0,0,-0.9,0,-0.9,0,0,0,0,-0.9,0,0,-0.9,0,0,0,-0.9,0,0,0,0,0,0,0,-0.9,0,0,0,0,0" 
class="s2_33"
>details of their next concert with a link to the booking system</text>

<text 
x="56" 
y="342" 
dx="0,0,0,0,0,-0.9,0,0,0,0,0,0,0,-0.9,0,0,0,-0.9,0,0,0,0,-0.9,0,0,0,0,0,0,-0.9,0,0,0,0,0,-0.9,0,0,0,0,-0.9,0,0,0,0,0,0,0,0,0,-0.9,0,0,0,0,-0.9,0,0,0,0" 
class="s2_33"
>They imagine the page layout might look something like this:</text>

<text 
x="64" 
y="428" 
dx="0,0,0,0" 
class="s24_33"
>Home</text>

<text 
x="88" 
y="428" 
dx="0,0,0,0,0,0,-0.4,0" 
class="s24_33"
>About Us</text>

<text 
x="122" 
y="428" 
dx="0,0,0,0,-0.4,0,0,0,0" 
class="s24_33"
>Our Songs</text>

<text 
x="160" 
y="428" 
dx="0,0,0,0,-0.4,0,0,-0.4,0,0,-0.1" 
class="s24_33"
>See Us Play</text>

<text 
x="200" 
y="428" 
dx="0,0,0,-0.1,0,0,0,0,-0.4,0,-0.4,0,0,0,0,0,0.1" 
class="s24_33"
>Playing a Concert</text>

<path d="M85.5,420.5l0,10" class="g32_33" />
<path d="M119.5,420.5l0,10" class="g32_33" />
<path d="M157.5,420.5l0,10" class="g32_33" />
<path d="M198.5,420.5l0,10" class="g32_33" />
<text 
x="903" 
y="643" 
dx="0,0,0,0,0" 
class="s25_33"
>Home </text>

<text 
x="945" 
y="643" 
dx="0,0,0,0,0,0,-0.6,0,0" 
class="s25_33"
>About Us </text>

<text 
x="1001" 
y="643" 
dx="0,0,0,0,-0.6,0,0,0,0,0" 
class="s25_33"
>Our Songs </text>

<text 
x="1065" 
y="643" 
dx="0,0,0,0,-0.6,0,0,-0.6,0,0,-0.2,0" 
class="s25_33"
>See Us Play </text>

<text 
x="1133" 
y="643" 
dx="0,0,0,-0.2,0,0,0,0,-0.6,0,-0.6,0,0,0,0,0,0.2" 
class="s25_33"
>Playing a Concert</text>

<path d="M939,630l0,16" class="g34_33" />
<path d="M996,630l0,16" class="g34_33" />
<path d="M1060,630l0,16" class="g34_33" />
<path d="M1129,630l0,16" class="g34_33" />
<text 
x="903" 
y="919" 
dx="0,0,0,0,0" 
class="s26_33"
>Home </text>

<text 
x="945" 
y="919" 
dx="0,0,0,0,0,0,-0.6,0,0" 
class="s26_33"
>About Us </text>

<text 
x="1001" 
y="919" 
dx="0,0,0,0,-0.6,0,0,0,0,0" 
class="s26_33"
>Our Songs </text>

<text 
x="1065" 
y="919" 
dx="0,0,0,0,-0.6,0,0,-0.6,0,0,-0.2,0" 
class="s26_33"
>See Us Play </text>

<text 
x="1133" 
y="919" 
dx="0,0,0,-0.2,0,0,0,0,-0.6,0,-0.6,0,0,0,0,0,0.2" 
class="s26_33"
>Playing a Concert</text>

<path d="M939,906l0,16" class="g35_33" />
<path d="M996,906l0,16" class="g35_33" />
<path d="M1060,906l0,16" class="g35_33" />
<path d="M1129,906l0,16" class="g35_33" />
<text 
x="893" 
y="967" 
dx="0,0,0,0,0,-0.8,0,0,0,-0.8,0,0,0,0,0,0,0,0,0" 
class="s27_33"
>Meet the Nanonauts </text>

<text 
x="893" 
y="979" 
dx="0,-0.2,0,-0.6,0,0,0,-0.6,0,0,0,-0.6,0,0,0,0,0,0,0,0,0,0" 
class="s28_33"
>We are the Nanonauts. </text>

<text 
x="893" 
y="992" 
dx="0,0,0,0,-0.6,0,0,0,0,0,-0.6,0,0,0,-0.6,0,0,0,0,-0.8,0,-0.6,0,0,0,0,0,0,0,-0.6,0,0,0,0,0,0,-0.6,0,0,0,-0.6,0,0,0" 
class="s28_33"
>Our names are Holly, Dervla, Daniel and Sam.</text>

<text 
x="1590" 
y="1019" 
dx="0,-1.4" 
class="s29_33"
>65</text>

<text 
x="36" 
y="1019" 
dx="0,-1.7" 
class="s29_33"
>64</text>



<!-- Any embedded fonts defined here -->
<style type="text/css" ><![CDATA[

@font-face {
	font-family: PixelSplitter-Bold_u3;
	src: url("fonts/PixelSplitter-Bold_u3.woff") format("woff");
}

@font-face {
	font-family: AndaleMono_1cn;
	src: url("fonts/AndaleMono_1cn.woff") format("woff");
}

@font-face {
	font-family: Helvetica-Light_1by;
	src: url("fonts/Helvetica-Light_1by.woff") format("woff");
}

@font-face {
	font-family: Helvetica_1dx;
	src: url("fonts/Helvetica_1dx.woff") format("woff");
}

@font-face {
	font-family: PixelSplitter-Bold_1bs;
	src: url("fonts/PixelSplitter-Bold_1bs.woff") format("woff");
}

@font-face {
	font-family: Helvetica-Bold_1bu;
	src: url("fonts/Helvetica-Bold_1bu.woff") format("woff");
}

@font-face {
	font-family: Helvetica_1e3;
	src: url("fonts/Helvetica_1e3.woff") format("woff");
}

@font-face {
	font-family: Wingdings-Regular_1c4;
	src: url("fonts/Wingdings-Regular_1c4.woff") format("woff");
}

]]></style>

</svg>
