<?xml version="1.0" encoding="UTF-8" standalone="no"?>
<!DOCTYPE svg PUBLIC "-//W3C//DTD SVG 1.1//EN"
"http://www.w3.org/Graphics/SVG/1.1/DTD/svg11.dtd">


<!-- Page 34 -->
<svg x="0" y="0" width="1645" height="1061" viewBox="0 0 1645 1061" version="1.1" xmlns="http://www.w3.org/2000/svg" xmlns:xlink="http://www.w3.org/1999/xlink"
style="display: block;margin-left: auto;margin-right: auto;">
<defs>

<style type="text/css"><![CDATA[

.g7_34{
fill: #F9AD60;
fill-opacity: 0.100006;
}
.g8_34{
fill: #2AACE2;
}
.g19_34{
fill: #FFD400;
}
.g4_34{
fill: none;
stroke: #FFFFFF;
stroke-width: 1;
stroke-linecap: round;
stroke-linejoin: round;
}
.g15_34{
fill: #2AACE2;
fill-opacity: 0.100006;
}
.g16_34{
fill: #EFF5EB;
}
.g9_34{
fill: #FFD400;
fill-opacity: 0.100006;
}
.g10_34{
fill: #FFFFFF;
fill-opacity: 0.100006;
}
.g12_34{
fill: #FAAD60;
fill-opacity: 0.100006;
}
.g1_34{
fill: #FFFFFF;
}
.g18_34{
fill: #B897C1;
}
.g26_34{
fill: none;
stroke: #D6D4D6;
stroke-width: 2;
stroke-linecap: butt;
stroke-linejoin: miter;
stroke-miterlimit: 4;
}
.g25_34{
fill: none;
stroke: #11151D;
stroke-width: 1;
stroke-linecap: butt;
stroke-linejoin: miter;
stroke-miterlimit: 3;
}
.g13_34{
fill: none;
stroke: #11151D;
stroke-width: 2;
stroke-linecap: butt;
stroke-linejoin: miter;
stroke-miterlimit: 4;
stroke-opacity: 0.100006;
}
.g21_34{
fill: none;
stroke: #CFD1D2;
stroke-width: 2;
stroke-linecap: butt;
stroke-linejoin: miter;
stroke-miterlimit: 4;
stroke-opacity: 0.100006;
}
.g17_34{
fill: none;
stroke: #CFD1D2;
stroke-width: 2;
stroke-linecap: butt;
stroke-linejoin: miter;
stroke-miterlimit: 4;
}
.g14_34{
fill: #EFF5EB;
stroke: #DEDFE0;
stroke-width: 2;
stroke-linecap: butt;
stroke-linejoin: miter;
stroke-miterlimit: 4;
}
.g22_34{
fill: #89BA6E;
stroke: #6D6E71;
stroke-width: 2;
stroke-linecap: butt;
stroke-linejoin: miter;
stroke-miterlimit: 4;
}
.g23_34{
fill: #EFF5EB;
stroke: #EDEDEE;
stroke-width: 2;
stroke-linecap: butt;
stroke-linejoin: miter;
stroke-miterlimit: 4;
}
.g6_34{
fill: none;
stroke: #FFFFFF;
stroke-width: 4;
stroke-linecap: round;
stroke-linejoin: round;
stroke-miterlimit: 4;
}
.g2_34{
fill: none;
stroke: #989898;
stroke-width: 5;
stroke-linecap: butt;
stroke-linejoin: miter;
stroke-miterlimit: 4;
}
.g3_34{
fill: #989797;
}
.g20_34{
fill: none;
stroke: #6D6E71;
stroke-width: 2;
stroke-linecap: butt;
stroke-linejoin: miter;
stroke-miterlimit: 4;
}
.g24_34{
fill: none;
stroke: #DEDFE0;
stroke-width: 2;
stroke-linecap: butt;
stroke-linejoin: miter;
stroke-miterlimit: 4;
}
.g5_34{
fill: none;
stroke: #FFFFFF;
stroke-width: 2;
stroke-linecap: round;
stroke-linejoin: round;
stroke-miterlimit: 4;
}
.g11_34{
fill: none;
stroke: #6D6E71;
stroke-width: 2;
stroke-linecap: butt;
stroke-linejoin: miter;
stroke-miterlimit: 4;
stroke-opacity: 0.100006;
}

.s10_34{
font-size: 15.28px;
font-family: AndaleMono_1cn;
fill: #11151D;
}
.s9_34{
font-size: 15.28px;
font-family: Helvetica-Light_1by;
fill: #11151D;
}
.s6_34{
font-size: 10.29px;
font-family: Helvetica_1e3;
fill: #11151D;
}
.s7_34{
font-size: 10.29px;
font-family: Helvetica_1e3;
fill: #D6D4D6;
}
.s16_34{
font-size: 7.72px;
font-family: Helvetica_1e3;
fill: #D6D4D6;
}
.s18_34{
font-size: 10.70px;
font-family: Helvetica-Bold_1bu;
fill: #D6D4D6;
}
.s13_34{
font-size: 7.72px;
font-family: Helvetica_1e3;
fill: #11151D;
}
.s15_34{
font-size: 7.72px;
font-family: Helvetica-Bold_1bu;
fill: #D6D4D6;
}
.s3_34{
font-size: 10.40px;
font-family: Helvetica-Bold_1bu;
fill: #D6D4D6;
}
.s5_34{
font-size: 14.86px;
font-family: Helvetica-Bold_1bu;
fill: #11151D;
}
.s1_34{
font-size: 14.86px;
font-family: Helvetica-Bold_1bu;
fill: #D6D4D6;
}
.s8_34{
font-size: 21.39px;
font-family: PixelSplitter-Bold_1bs;
fill: #11151D;
}
.s14_34{
font-size: 10.41px;
font-family: Helvetica-Bold_1bu;
fill: #D6D4D6;
}
.s19_34{
font-size: 12.22px;
font-family: PixelSplitter-Bold_1bs;
fill: #11151D;
}
.s12_34{
font-size: 12.65px;
font-family: Helvetica-Bold_1bu;
fill: #11151D;
}
.s11_34{
font-size: 14.87px;
font-family: Helvetica-Bold_1bu;
fill: #11151D;
}
.s4_34{
font-size: 7.71px;
font-family: Helvetica_1e3;
fill: #D6D4D6;
}
.s17_34{
font-size: 7.71px;
font-family: Helvetica_1e3;
fill: #11151D;
}
.s2_34{
font-size: 15.03px;
font-family: Helvetica-Bold_1bu;
fill: #D6D4D6;
}

]]></style>

</defs>
<path d="M0,0
L0,1061
L1645,1061
L1645,0 Z " 
fill="#FFFFFF" stroke="none" />
<image x="-33" y="-32" width="1713" height="1115" xlink:href="34/img/1.png" />
<image x="-13" y="-11" width="1674" height="1073" opacity="0.5" style="mix-blend-mode: multiply;" xlink:href="34/img/2.png" />
<path d="M877,184l0,7l0,2l-2,0l-7,0l0,360l7,0l2,0l0,2l0,7l714,0l0,-7l0,-2l2,0l7,0l0,-360l-7,0l-2,0l0,-2l0,-7Z" class="g1_34" />
<path d="M877.5,184.5l0,7l0,2l-2,0l-7,0l0,360l7,0l2,0l0,2l0,7l714,0l0,-7l0,-2l2,0l7,0l0,-360l-7,0l-2,0l0,-2l0,-7l-714,0Z" class="g2_34" />
<path d="M878,182l0,9l-9,0l0,48l730,0l0,-48l-9,0l0,-9Z" class="g3_34" />
<path d="M900.7,211.4c2.3,0,4.2,-1.8,4.2,-4.1c0,-2.3,-1.9,-4.2,-4.2,-4.2c-2.2,0,-4.1,1.9,-4.1,4.2c0,2.3,1.9,4.1,4.1,4.1Z" class="g1_34" />
<path d="M916.9,211.4c2.2,0,4.1,-1.8,4.1,-4.1c0,-2.3,-1.9,-4.2,-4.1,-4.2c-2.3,0,-4.2,1.9,-4.2,4.2c0,2.3,1.9,4.1,4.2,4.1Z" class="g1_34" />
<path d="M933,211.4c2.3,0,4.1,-1.8,4.1,-4.1c0,-2.3,-1.8,-4.2,-4.1,-4.2c-2.3,0,-4.2,1.9,-4.2,4.2c0,2.3,1.9,4.1,4.2,4.1Z" class="g1_34" />
<path d="M897.1,219.4c0,0,-3.1,0,-3.1,3l0,5.8c0,0,0,3,3.1,3l653.6,0c0,0,3.1,0,3.1,-3l0,-5.8c0,0,0,-3,-3.1,-3Z" class="g1_34" />
<path d="M1579.6,220.2l0,5.2c0,0,0,-0.1,0,-0.1c-0.7,-0.1,-1.4,-0.2,-2,-0.3c-0.9,-0.2,-1.8,-0.4,-2.7,-0.5c-0.2,-0.1,-0.4,-0.1,-0.5,-0.1c0.6,-0.5,1.2,-1,1.8,-1.5c0,0,-0.1,0,-0.1,0c-0.8,-0.6,-1.7,-0.7,-2.7,-0.5c-0.9,0.2,-1.6,0.7,-2.1,1.5c-0.5,0.8,-0.7,1.6,-0.6,2.6c0.2,0.9,0.6,1.6,1.3,2.2c0.8,0.7,1.9,0.9,3,0.7c1.1,-0.3,1.9,-0.9,2.4,-2c0,0,0.1,0,0.1,-0.1c0.6,0.2,1.3,0.3,1.9,0.5c-0.4,1.1,-1,2,-2,2.6c-0.9,0.7,-1.9,1,-3,1l-0.1,0.1l-0.2,0c-0.1,-0.1,-0.1,-0.1,-0.2,-0.1c-0.3,0,-0.7,0,-1.1,-0.1c-1.1,-0.3,-2.1,-0.9,-2.8,-1.8c-0.8,-0.9,-1.2,-1.9,-1.3,-3c-0.1,-0.2,-0.1,-0.3,-0.1,-0.4l0,-0.4c0,0,0,-0.1,0,-0.1c0.1,-0.2,0.1,-0.4,0.1,-0.7c0.2,-1.1,0.7,-2,1.4,-2.8c0.9,-0.9,1.9,-1.5,3.1,-1.7c0.7,-0.1,1.3,-0.1,2,0c0.9,0.2,1.8,0.6,2.5,1.2c0.1,0,0.1,0,0.2,0c0.3,-0.3,0.7,-0.6,1,-0.9c0.3,-0.2,0.5,-0.4,0.7,-0.5Z" class="g1_34" />
<path d="M1579.6,220.2l0,5.2c0,0,0,-0.1,0,-0.1c-0.7,-0.1,-1.4,-0.2,-2,-0.3c-0.9,-0.2,-1.8,-0.4,-2.7,-0.5c-0.2,-0.1,-0.4,-0.1,-0.5,-0.1c0.6,-0.5,1.2,-1,1.8,-1.5c0,0,-0.1,0,-0.1,0c-0.8,-0.6,-1.7,-0.7,-2.7,-0.5c-0.9,0.2,-1.6,0.7,-2.1,1.5c-0.5,0.8,-0.7,1.6,-0.6,2.6c0.2,0.9,0.6,1.6,1.3,2.2c0.8,0.7,1.9,0.9,3,0.7c1.1,-0.3,1.9,-0.9,2.4,-2c0,0,0.1,0,0.1,-0.1c0.6,0.2,1.3,0.3,1.9,0.5c-0.4,1.1,-1,2,-2,2.6c-0.9,0.7,-1.9,1,-3,1l-0.1,0.1l-0.2,0c-0.1,-0.1,-0.1,-0.1,-0.2,-0.1c-0.3,0,-0.7,0,-1.1,-0.1c-1.1,-0.3,-2.1,-0.9,-2.8,-1.8c-0.8,-0.9,-1.2,-1.9,-1.3,-3c-0.1,-0.2,-0.1,-0.3,-0.1,-0.4l0,-0.4c0,0,0,-0.1,0,-0.1c0.1,-0.2,0.1,-0.4,0.1,-0.7c0.2,-1.1,0.7,-2,1.4,-2.8c0.9,-0.9,1.9,-1.5,3.1,-1.7c0.7,-0.1,1.3,-0.1,2,0c0.9,0.2,1.8,0.6,2.5,1.2c0.1,0,0.1,0,0.2,0c0.3,-0.3,0.7,-0.6,1,-0.9c0.3,-0.2,0.5,-0.4,0.7,-0.5Z" class="g4_34" />
<path d="M1568,204l11,0" class="g5_34" />
<path d="M1568,206l11,0" class="g5_34" />
<path d="M1568,209l11,0" class="g5_34" />
<path d="M887.9,221.8l-2,3.5l2,3.5" class="g6_34" />
<path d="M896,277l676,0l0,-38l-676,0l0,38Z" class="g7_34" />
<path d="M1372,559l200,0l0,-266l-200,0l0,266Z" class="g8_34" />
<path d="M896,512l461,0l0,-220l-461,0l0,220Z" class="g9_34" />
<path d="M906.4,349.4c-0.4,0,-9.5,0.2,-9.5,9.6l0,144.9c0,0.4,0.1,9.5,9.5,9.5l441,0c0.4,0,9.5,-0.1,9.5,-9.5l0,-144.9c0,-0.4,-0.1,-9.6,-9.5,-9.6l-441,0Z" class="g10_34" />
<image x="914" y="365" width="426" height="133" opacity="0.100006" xlink:href="34/img/3.png" />
<path d="M906.4,349.4c-0.4,0,-9.5,0.2,-9.5,9.6l0,144.9c0,0.4,0.1,9.5,9.5,9.5l441,0c0.4,0,9.5,-0.1,9.5,-9.5l0,-144.9c0,-0.4,-0.1,-9.6,-9.5,-9.6l-441,0Z" class="g11_34" />
<path d="M911.7,240.4c0,0,-15.1,0,-15.1,15.1l0,6.6c0,0,0,15.1,15.1,15.1l645.6,0c0,0,15.1,0,15.1,-15.1l0,-6.6c0,0,0,-15.1,-15.1,-15.1Z" class="g12_34" />
<path d="M911.7,240.4c0,0,-15.1,0,-15.1,15.1l0,6.6c0,0,0,15.1,15.1,15.1l645.6,0c0,0,15.1,0,15.1,-15.1l0,-6.6c0,0,0,-15.1,-15.1,-15.1l-645.6,0Z" class="g13_34" />
<path d="M1357.7,560l0,-24.9c0,0,0,-10.3,-10.3,-10.3l-440.8,0c0,0,-10.3,0,-10.3,10.3l0,24.9" class="g14_34" />
<path d="M877,699l0,7l0,2l-2,0l-7,0l0,278l7,0l2,0l0,3l0,6l714,0l0,-6l0,-3l2,0l7,0l0,-278l-7,0l-2,0l0,-2l0,-7Z" class="g1_34" />
<path d="M877.5,699.5l0,7l0,2l-2,0l-7,0l0,278l7,0l2,0l0,3l0,6l714,0l0,-6l0,-3l2,0l7,0l0,-278l-7,0l-2,0l0,-2l0,-7l-714,0Z" class="g2_34" />
<path d="M878,697l0,9l-9,0l0,48l730,0l0,-48l-9,0l0,-9Z" class="g3_34" />
<path d="M900.7,726.1c2.3,0,4.2,-1.8,4.2,-4.1c0,-2.3,-1.9,-4.2,-4.2,-4.2c-2.2,0,-4.1,1.9,-4.1,4.2c0,2.3,1.9,4.1,4.1,4.1Z" class="g1_34" />
<path d="M916.9,726.1c2.2,0,4.1,-1.8,4.1,-4.1c0,-2.3,-1.9,-4.2,-4.1,-4.2c-2.3,0,-4.2,1.9,-4.2,4.2c0,2.3,1.9,4.1,4.2,4.1Z" class="g1_34" />
<path d="M933,726.1c2.3,0,4.1,-1.8,4.1,-4.1c0,-2.3,-1.8,-4.2,-4.1,-4.2c-2.3,0,-4.2,1.9,-4.2,4.2c0,2.3,1.9,4.1,4.2,4.1Z" class="g1_34" />
<path d="M897.1,734.1c0,0,-3.1,0,-3.1,3.1l0,5.7c0,0,0,3.1,3.1,3.1l653.6,0c0,0,3.1,0,3.1,-3.1l0,-5.7c0,0,0,-3.1,-3.1,-3.1Z" class="g1_34" />
<path d="M1579.6,734.9l0,5.2c-0.7,-0.2,-1.4,-0.3,-2,-0.4c-0.9,-0.2,-1.8,-0.3,-2.7,-0.5c-0.2,0,-0.4,-0.1,-0.5,-0.1c0.6,-0.5,1.2,-1,1.8,-1.5c0,0,-0.1,0,-0.1,0c-0.8,-0.5,-1.7,-0.7,-2.7,-0.5c-0.9,0.2,-1.6,0.7,-2.1,1.5c-0.5,0.8,-0.7,1.7,-0.6,2.6c0.2,0.9,0.6,1.6,1.3,2.2c0.8,0.7,1.9,0.9,3,0.7c1.1,-0.2,1.9,-0.9,2.4,-2c0,0,0.1,0,0.1,-0.1c0.6,0.2,1.3,0.4,1.9,0.5c0,0,0,0.1,0,0.1c-0.4,1,-1,1.9,-2,2.6c-0.9,0.6,-1.9,0.9,-3,1l-0.1,0l-0.2,0c-0.1,0,-0.1,0,-0.2,0c-0.3,-0.1,-0.7,-0.1,-1.1,-0.2c-1.1,-0.3,-2.1,-0.9,-2.8,-1.8c-0.8,-0.8,-1.2,-1.9,-1.3,-3c-0.1,-0.1,-0.1,-0.3,-0.1,-0.4l0,-0.4l0,-0.1c0.1,-0.2,0.1,-0.4,0.1,-0.6c0.2,-1.1,0.7,-2.1,1.4,-2.9c0.9,-0.9,1.9,-1.5,3.1,-1.7c0.7,-0.1,1.3,-0.1,2,0c0.9,0.2,1.8,0.6,2.5,1.2c0.1,0,0.1,0,0.2,0c0.3,-0.3,0.7,-0.6,1,-0.9c0.3,-0.1,0.5,-0.3,0.7,-0.5Z" class="g1_34" />
<path d="M1579.6,734.9l0,5.2c-0.7,-0.2,-1.4,-0.3,-2,-0.4c-0.9,-0.2,-1.8,-0.3,-2.7,-0.5c-0.2,0,-0.4,-0.1,-0.5,-0.1c0.6,-0.5,1.2,-1,1.8,-1.5c0,0,-0.1,0,-0.1,0c-0.8,-0.5,-1.7,-0.7,-2.7,-0.5c-0.9,0.2,-1.6,0.7,-2.1,1.5c-0.5,0.8,-0.7,1.7,-0.6,2.6c0.2,0.9,0.6,1.6,1.3,2.2c0.8,0.7,1.9,0.9,3,0.7c1.1,-0.2,1.9,-0.9,2.4,-2c0,0,0.1,0,0.1,-0.1c0.6,0.2,1.3,0.4,1.9,0.5c0,0,0,0.1,0,0.1c-0.4,1,-1,1.9,-2,2.6c-0.9,0.6,-1.9,0.9,-3,1l-0.1,0l-0.2,0c-0.1,0,-0.1,0,-0.2,0c-0.3,-0.1,-0.7,-0.1,-1.1,-0.2c-1.1,-0.3,-2.1,-0.9,-2.8,-1.8c-0.8,-0.8,-1.2,-1.9,-1.3,-3c-0.1,-0.1,-0.1,-0.3,-0.1,-0.4l0,-0.4l0,-0.1c0.1,-0.2,0.1,-0.4,0.1,-0.6c0.2,-1.1,0.7,-2.1,1.4,-2.9c0.9,-0.9,1.9,-1.5,3.1,-1.7c0.7,-0.1,1.3,-0.1,2,0c0.9,0.2,1.8,0.6,2.5,1.2c0.1,0,0.1,0,0.2,0c0.3,-0.3,0.7,-0.6,1,-0.9c0.3,-0.1,0.5,-0.3,0.7,-0.5Z" class="g4_34" />
<path d="M1568,719l11,0" class="g5_34" />
<path d="M1568,721l11,0" class="g5_34" />
<path d="M1568,723l11,0" class="g5_34" />
<path d="M887.9,736.5l-2,3.5l2,3.5" class="g6_34" />
<path d="M1373,922l199,0l0,-168l-199,0l0,168Z" class="g15_34" />
<path d="M906.9,755.4c-0.4,0,-9.5,0.1,-9.5,9.5l0,144.8c0,0.4,0.1,9.5,9.5,9.5l440.8,0c0.4,0,9.5,-0.1,9.5,-9.5l0,-144.8c0,-0.4,-0.1,-9.5,-9.5,-9.5l-440.8,0Z" class="g16_34" />
<path d="M906.9,755.4c-0.4,0,-9.5,0.1,-9.5,9.5l0,144.8c0,0.4,0.1,9.5,9.5,9.5l440.8,0c0.4,0,9.5,-0.1,9.5,-9.5l0,-144.8c0,-0.4,-0.1,-9.5,-9.5,-9.5l-440.8,0Z" class="g17_34" />
<path d="M921.8,763.1c-0.4,0,-9.5,0.1,-9.5,9.5l0,93.4c0,0.4,0.1,9.5,9.5,9.5l74.4,0c0.4,0,9.6,-0.1,9.6,-9.5l0,-93.4c0,-0.4,-0.2,-9.5,-9.6,-9.5l-74.4,0Z" class="g1_34" />
<path d="M921.8,763.1c-0.4,0,-9.5,0.1,-9.5,9.5l0,93.4c0,0.4,0.1,9.5,9.5,9.5l74.4,0c0.4,0,9.6,-0.1,9.6,-9.5l0,-93.4c0,-0.4,-0.2,-9.5,-9.6,-9.5l-74.4,0Z" class="g17_34" />
<image x="918" y="776" width="82" height="87" opacity="0.100006" xlink:href="34/img/4.png" />
<path d="M896,993l679,0l0,-50l-679,0l0,50Z" class="g18_34" />
<path d="M54,184l0,7l0,2l-2,0l-7,0l0,360l7,0l2,0l0,2l0,7l714,0l0,-7l0,-2l2,0l7,0l0,-360l-7,0l-2,0l0,-2l0,-7Z" class="g1_34" />
<path d="M54.5,184.5l0,7l0,2l-2,0l-7,0l0,360l7,0l2,0l0,2l0,7l714,0l0,-7l0,-2l2,0l7,0l0,-360l-7,0l-2,0l0,-2l0,-7l-714,0Z" class="g2_34" />
<path d="M55,182l0,9l-9,0l0,48l730,0l0,-48l-9,0l0,-9Z" class="g3_34" />
<path d="M77.9,211.4c2.3,0,4.1,-1.8,4.1,-4.1c0,-2.3,-1.8,-4.2,-4.1,-4.2c-2.3,0,-4.1,1.9,-4.1,4.2c0,2.3,1.8,4.1,4.1,4.1Z" class="g1_34" />
<path d="M94,211.4c2.3,0,4.2,-1.8,4.2,-4.1c0,-2.3,-1.9,-4.2,-4.2,-4.2c-2.3,0,-4.1,1.9,-4.1,4.2c0,2.3,1.8,4.1,4.1,4.1Z" class="g1_34" />
<path d="M110.1,211.4c2.3,0,4.2,-1.8,4.2,-4.1c0,-2.3,-1.9,-4.2,-4.2,-4.2c-2.3,0,-4.1,1.9,-4.1,4.2c0,2.3,1.8,4.1,4.1,4.1Z" class="g1_34" />
<path d="M74.3,219.4c0,0,-3.1,0,-3.1,3l0,5.8c0,0,0,3,3.1,3l653.6,0c0,0,3,0,3,-3l0,-5.8c0,0,0,-3,-3,-3Z" class="g1_34" />
<path d="M756.8,220.2l0,5.2c0,0,0,-0.1,-0.1,-0.1c-0.6,-0.1,-1.3,-0.2,-2,-0.3c-0.9,-0.2,-1.8,-0.4,-2.7,-0.5c-0.1,-0.1,-0.3,-0.1,-0.5,-0.1c0.6,-0.5,1.2,-1,1.8,-1.5c-0.8,-0.6,-1.8,-0.7,-2.7,-0.5c-0.9,0.2,-1.7,0.7,-2.2,1.5c-0.5,0.8,-0.7,1.6,-0.5,2.6c0.1,0.9,0.5,1.6,1.2,2.2c0.9,0.7,1.9,0.9,3,0.7c1.2,-0.3,2,-0.9,2.5,-2l0,-0.1c0.7,0.2,1.4,0.3,2,0.5c-0.4,1.1,-1.1,2,-2,2.6c-0.9,0.7,-1.9,1,-3,1c0,0,-0.1,0,-0.1,0.1l-0.3,0c0,-0.1,-0.1,-0.1,-0.1,-0.1c-0.4,0,-0.7,0,-1.1,-0.1c-1.1,-0.3,-2.1,-0.9,-2.9,-1.8c-0.7,-0.9,-1.2,-1.9,-1.3,-3c0,-0.2,0,-0.3,0,-0.4l0,-0.4c0,0,0,-0.1,0,-0.1c0,-0.2,0,-0.4,0.1,-0.7c0.2,-1.1,0.7,-2,1.4,-2.8c0.9,-0.9,1.9,-1.5,3.1,-1.7c0.6,-0.1,1.3,-0.1,2,0c0.9,0.2,1.7,0.6,2.5,1.2c0,0,0.1,0,0.1,0c0.4,-0.3,0.7,-0.6,1.1,-0.9c0.2,-0.2,0.5,-0.4,0.7,-0.5Z" class="g1_34" />
<path d="M756.8,220.2l0,5.2c0,0,0,-0.1,-0.1,-0.1c-0.6,-0.1,-1.3,-0.2,-2,-0.3c-0.9,-0.2,-1.8,-0.4,-2.7,-0.5c-0.1,-0.1,-0.3,-0.1,-0.5,-0.1c0.6,-0.5,1.2,-1,1.8,-1.5c-0.8,-0.6,-1.8,-0.7,-2.7,-0.5c-0.9,0.2,-1.7,0.7,-2.2,1.5c-0.5,0.8,-0.7,1.6,-0.5,2.6c0.1,0.9,0.5,1.6,1.2,2.2c0.9,0.7,1.9,0.9,3,0.7c1.2,-0.3,2,-0.9,2.5,-2l0,-0.1c0.7,0.2,1.4,0.3,2,0.5c-0.4,1.1,-1.1,2,-2,2.6c-0.9,0.7,-1.9,1,-3,1c0,0,-0.1,0,-0.1,0.1l-0.3,0c0,-0.1,-0.1,-0.1,-0.1,-0.1c-0.4,0,-0.7,0,-1.1,-0.1c-1.1,-0.3,-2.1,-0.9,-2.9,-1.8c-0.7,-0.9,-1.2,-1.9,-1.3,-3c0,-0.2,0,-0.3,0,-0.4l0,-0.4c0,0,0,-0.1,0,-0.1c0,-0.2,0,-0.4,0.1,-0.7c0.2,-1.1,0.7,-2,1.4,-2.8c0.9,-0.9,1.9,-1.5,3.1,-1.7c0.6,-0.1,1.3,-0.1,2,0c0.9,0.2,1.7,0.6,2.5,1.2c0,0,0.1,0,0.1,0c0.4,-0.3,0.7,-0.6,1.1,-0.9c0.2,-0.2,0.5,-0.4,0.7,-0.5Z" class="g4_34" />
<path d="M746,204l10,0" class="g5_34" />
<path d="M746,206l10,0" class="g5_34" />
<path d="M746,209l10,0" class="g5_34" />
<path d="M65.1,221.8l-2,3.5l2,3.5" class="g6_34" />
<path d="M73,512l461,0l0,-220L73,292l0,220Z" class="g19_34" />
<path d="M73,277l677,0l0,-38L73,239l0,38Z" class="g7_34" />
<path d="M534.1,560l0,-24.9c0,-0.4,-0.1,-9.6,-9.5,-9.6l-440.8,0c-0.4,0,-9.6,0.2,-9.6,9.6l0,24.9" class="g14_34" />
<path d="M550,559l200,0l0,-266l-200,0l0,266Z" class="g15_34" />
<path d="M83.6,349.4c-0.4,0,-9.5,0.2,-9.5,9.6l0,144.9c0,0.4,0.1,9.5,9.5,9.5l441,0c0.4,0,9.5,-0.1,9.5,-9.5l0,-144.9c0,-0.4,-0.1,-9.6,-9.5,-9.6l-441,0Z" class="g1_34" />
<image x="91" y="365" width="426" height="133" xlink:href="34/img/5.png" />
<path d="M83.6,349.4c-0.4,0,-9.5,0.2,-9.5,9.6l0,144.9c0,0.4,0.1,9.5,9.5,9.5l441,0c0.4,0,9.5,-0.1,9.5,-9.5l0,-144.9c0,-0.4,-0.1,-9.6,-9.5,-9.6l-441,0Z" class="g20_34" />
<path d="M88.9,240.4c0,0,-15.1,0,-15.1,15.1l0,6.6c0,0,0,15.1,15.1,15.1l645.6,0c0,0,15.1,0,15.1,-15.1l0,-6.6c0,0,0,-15.1,-15.1,-15.1Z" class="g12_34" />
<path d="M88.9,240.4c0,0,-15.1,0,-15.1,15.1l0,6.6c0,0,0,15.1,15.1,15.1l645.6,0c0,0,15.1,0,15.1,-15.1l0,-6.6c0,0,0,-15.1,-15.1,-15.1l-645.6,0Z" class="g13_34" />
<path d="M54,718l0,7l0,2l-2,0l-7,0l0,259l7,0l2,0l0,3l0,6l714,0l0,-6l0,-3l2,0l7,0l0,-259l-7,0l-2,0l0,-2l0,-7Z" class="g1_34" />
<path d="M54.5,718.5l0,7l0,2l-2,0l-7,0l0,259l7,0l2,0l0,3l0,6l714,0l0,-6l0,-3l2,0l7,0l0,-259l-7,0l-2,0l0,-2l0,-7l-714,0Z" class="g2_34" />
<path d="M55,716l0,9l-9,0l0,48l730,0l0,-48l-9,0l0,-9Z" class="g3_34" />
<path d="M77.9,745.3c2.3,0,4.1,-1.9,4.1,-4.2C82,738.8,80.2,737,77.9,737c-2.3,0,-4.1,1.8,-4.1,4.1c0,2.3,1.8,4.2,4.1,4.2Z" class="g1_34" />
<path d="M94,745.3c2.3,0,4.2,-1.9,4.2,-4.2C98.2,738.8,96.3,737,94,737c-2.3,0,-4.1,1.8,-4.1,4.1c0,2.3,1.8,4.2,4.1,4.2Z" class="g1_34" />
<path d="M110.1,745.3c2.3,0,4.2,-1.9,4.2,-4.2c0,-2.3,-1.9,-4.1,-4.2,-4.1c-2.3,0,-4.1,1.8,-4.1,4.1c0,2.3,1.8,4.2,4.1,4.2Z" class="g1_34" />
<path d="M74.3,753.2c0,0,-3.1,0,-3.1,3.1l0,5.7c0,0,0,3.1,3.1,3.1l653.6,0c0,0,3,0,3,-3.1l0,-5.7c0,0,0,-3.1,-3,-3.1Z" class="g1_34" />
<path d="M756.8,754l0,5.2l-0.1,0c-0.6,-0.1,-1.3,-0.3,-2,-0.4c-0.9,-0.1,-1.8,-0.3,-2.7,-0.5c-0.1,0,-0.3,0,-0.5,-0.1c0.6,-0.5,1.2,-0.9,1.8,-1.4c0,-0.1,0,-0.1,0,-0.1c-0.8,-0.5,-1.8,-0.7,-2.7,-0.4c-0.9,0.2,-1.7,0.7,-2.2,1.5c-0.5,0.7,-0.7,1.6,-0.5,2.5c0.1,0.9,0.5,1.7,1.2,2.2c0.9,0.7,1.9,1,3,0.7c1.2,-0.2,2,-0.9,2.5,-1.9c0,-0.1,0,-0.1,0,-0.1c0.7,0.1,1.4,0.3,2,0.5c-0.4,1.1,-1.1,1.9,-2,2.6c-0.9,0.6,-1.9,1,-3,1c0,0,-0.1,0,-0.1,0l-0.3,0c0,0,-0.1,0,-0.1,0c-0.4,0,-0.7,-0.1,-1.1,-0.2c-1.1,-0.3,-2.1,-0.8,-2.9,-1.7c-0.7,-0.9,-1.2,-1.9,-1.3,-3.1c0,-0.1,0,-0.2,0,-0.4l0,-0.3c0,-0.1,0,-0.1,0,-0.1c0,-0.3,0,-0.5,0.1,-0.7c0.2,-1.1,0.7,-2,1.4,-2.9c0.9,-0.9,1.9,-1.4,3.1,-1.6c0.6,-0.2,1.3,-0.2,2,0c0.9,0.1,1.7,0.5,2.5,1.1c0,0.1,0.1,0.1,0.1,0c0.4,-0.3,0.7,-0.5,1.1,-0.8c0.2,-0.2,0.5,-0.4,0.7,-0.6Z" class="g1_34" />
<path d="M756.8,754l0,5.2l-0.1,0c-0.6,-0.1,-1.3,-0.3,-2,-0.4c-0.9,-0.1,-1.8,-0.3,-2.7,-0.5c-0.1,0,-0.3,0,-0.5,-0.1c0.6,-0.5,1.2,-0.9,1.8,-1.4c0,-0.1,0,-0.1,0,-0.1c-0.8,-0.5,-1.8,-0.7,-2.7,-0.4c-0.9,0.2,-1.7,0.7,-2.2,1.5c-0.5,0.7,-0.7,1.6,-0.5,2.5c0.1,0.9,0.5,1.7,1.2,2.2c0.9,0.7,1.9,1,3,0.7c1.2,-0.2,2,-0.9,2.5,-1.9c0,-0.1,0,-0.1,0,-0.1c0.7,0.1,1.4,0.3,2,0.5c-0.4,1.1,-1.1,1.9,-2,2.6c-0.9,0.6,-1.9,1,-3,1c0,0,-0.1,0,-0.1,0l-0.3,0c0,0,-0.1,0,-0.1,0c-0.4,0,-0.7,-0.1,-1.1,-0.2c-1.1,-0.3,-2.1,-0.8,-2.9,-1.7c-0.7,-0.9,-1.2,-1.9,-1.3,-3.1c0,-0.1,0,-0.2,0,-0.4l0,-0.3c0,-0.1,0,-0.1,0,-0.1c0,-0.3,0,-0.5,0.1,-0.7c0.2,-1.1,0.7,-2,1.4,-2.9c0.9,-0.9,1.9,-1.4,3.1,-1.6c0.6,-0.2,1.3,-0.2,2,0c0.9,0.1,1.7,0.5,2.5,1.1c0,0.1,0.1,0.1,0.1,0c0.4,-0.3,0.7,-0.5,1.1,-0.8c0.2,-0.2,0.5,-0.4,0.7,-0.6Z" class="g4_34" />
<path d="M746,738l10,0" class="g5_34" />
<path d="M746,740l10,0" class="g5_34" />
<path d="M746,743l10,0" class="g5_34" />
<path d="M65.1,755.7l-2,3.5l2,3.5" class="g6_34" />
<path d="M550,993l200,0l0,-220l-200,0l0,220Z" class="g15_34" />
<path d="M73,832l462,0l0,-54L73,778l0,54Z" class="g9_34" />
<path d="M74.1,773.8l0,37.9c0,0.4,0.1,9.5,9.5,9.5l441,0c0.4,0,9.5,-0.1,9.5,-9.5l0,-37.9Z" class="g10_34" />
<image x="91" y="772" width="426" height="34" opacity="0.100006" xlink:href="34/img/6.png" />
<path d="M74.1,773.8l0,37.9c0,0.4,0.1,9.5,9.5,9.5l441,0c0.4,0,9.5,-0.1,9.5,-9.5l0,-37.9" class="g21_34" />
<path d="M535.2,993.6l0,-150.6c0,0,0,-10.3,-10.3,-10.3l-441.1,0c0,0,-10.3,0,-10.3,10.3l0,150.6" class="g22_34" />
<path d="M103.5,861.6c-0.6,0,-14.3,0.2,-14.3,14.4l0,83.8c0,0.6,0.2,14.3,14.3,14.3l64.9,0c0.5,0,14.3,-0.2,14.3,-14.3l0,-83.8c0,-0.6,-0.2,-14.4,-14.3,-14.4l-64.9,0Z" class="g1_34" />
<image x="102" y="869" width="68" height="98" xlink:href="34/img/7.png" />
<path d="M103.5,861.6c-0.6,0,-14.3,0.2,-14.3,14.4l0,83.8c0,0.6,0.2,14.3,14.3,14.3l64.9,0c0.5,0,14.3,-0.2,14.3,-14.3l0,-83.8c0,-0.6,-0.2,-14.4,-14.3,-14.4l-64.9,0Z" class="g20_34" />
<image x="469" y="29" width="381" height="174" style="mix-blend-mode: multiply;" xlink:href="34/img/8.png" />
<image x="479" y="36" width="362" height="165" xlink:href="34/img/9.png" />
<path d="M749.5,559.9l0,-236.2c0,-0.4,-0.1,-9.5,-9.5,-9.5l-179.3,0c-0.4,0,-9.5,0.1,-9.5,9.5l0,236.2" class="g23_34" />
<path d="M1572,559.9l0,-236.2c0,-0.4,-0.1,-9.5,-9.5,-9.5l-179.3,0c-0.3,0,-9.5,0.1,-9.5,9.5l0,236.2" class="g23_34" />
<path d="M550,773l0,220l102,0l98,0l0,-220Z" class="g16_34" />
<path d="M551,773l0,220" class="g24_34" />
<path d="M749,993l0,-220" class="g24_34" />
<text 
x="88" 
y="542" 
dx="0,0,0,0,0,0,0,-0.8,0,-0.8,0,0,0,0.1,0,0,-0.8,-0.2,0,0,0,0,0,-0.3,0,0,0,0,0,0" 
class="s1_34"
>Daniel – Singer extraordinaire</text>

<text 
x="911" 
y="542" 
dx="0,0,0,0,0,0,0,-0.8,0,-0.8,0,0,0,0.1,0,0,-0.8,-0.2,0,0,0,0,0,-0.3,0,0,0,0,0,0" 
class="s1_34"
>Daniel – Singer extraordinaire</text>

<text 
x="565" 
y="331" 
dx="0,0,0,0,0,2.7,0,0,0,0,0,0,0,0,2.7,0" 
class="s2_34"
>Nano Noodling – </text>

<text 
x="565" 
y="352" 
dx="0,0,0,0,-0.8,0,0,0,-0.8,0,-0.2,0,-0.8,0,0" 
class="s2_34"
>Buy Our New CD!</text>

<text 
x="1387" 
y="331" 
dx="0,0,0,0,0,2.7,0,0,0,0,0,0,0,0,2.7,0" 
class="s2_34"
>Nano Noodling – </text>

<text 
x="1387" 
y="352" 
dx="0,0,0,0,-0.8,0,0,0,-0.8,0,-0.2,0,-0.8,0,0" 
class="s2_34"
>Buy Our New CD!</text>

<text 
x="1387" 
y="385" 
dx="0,0,0,0,0,0,-0.6,0,0,-0.6,-0.3,0,0,0,0,0,-0.6,0,0,0,0,0,0,0,0,-0.6,0,0,-0.6,0,0,-0.2,0,0" 
class="s3_34"
>Great if you're learning to play! </text>

<text 
x="1387" 
y="399" 
dx="0,0,0,0,-0.2,0,0,0,0,-0.2,0,0,0,0,-0.2,0,0,0,0,0,0,0,0,-0.2,0,0,-0.2,0,0,0,0,-0.2,0,0,0,0,0,0,0,-0.2,0,0,0,0,0,0,0,0,0,0,0,0" 
class="s4_34"
>Are your kids learning to play musical instruments? </text>

<text 
x="1387" 
y="414" 
dx="0,0,0,0,0,-0.4,0,0,0,-0.4,0,0,0,-0.4,0,0,0,0,0,-0.4,0,0,0,0,-0.4,0,0,0,0,0,-0.4,0,0,-0.4,0,0,-0.4,0,0,0,-0.4,0,0,0,0,0,0,0,0,0,0" 
class="s4_34"
>Then why not order this great CD of the Nanonauts' </text>

<text 
x="1387" 
y="428" 
dx="0,0,0,0,0,0,0,0,0,0,0.1,0,0,0,0,0,0,-0.3,0,0,0.1,0,0,0,0,0.1,0,0,0.1,0,0,0,0,0,0,0.1,0,0,0,0.1,0,0,0,0.1,0,0,0,0,0,0,0,0" 
class="s4_34"
>favourite songs! As well as having all the complete </text>

<text 
x="1387" 
y="443" 
dx="0,0,0,0,0,0,0,0.3,0,0,0,0.3,0,0,0.3,0,0,0,0,0,0,0,0,0.3,0,0,0,0,0,0,0,0,0.3,0,0,0.3,0,0,0,0.3,0,0,0,0,0,0.3,0,0,0,0" 
class="s4_34"
>songs, the CD includes versions of the songs with </text>

<text 
x="1387" 
y="457" 
dx="0,0,0,0,0,0.8,0,0,0,0,0,0,0,0,0,0,0.8,0,0,0,0,0,0,0,0.8,0,0.8,0,0,0.8,0,0,0,0.8,0,0,0,0.8,0,0,0,0,0.8,0,0,0,0,0" 
class="s4_34"
>each instrument missing – so you can play along </text>

<text 
x="1387" 
y="472" 
dx="0,0,0,0,0,-0.3,0,0,0,0,-0.3,0,0,0,-0.3,0,0,0,0,0,0,0,0,0,0,0,-0.3,0,0,0,-0.3,0,0,0,0,-0.3,0,0,0,0,-0.3,0,0,0,-0.3,0,0,0,-0.3,0,0,0,0" 
class="s4_34"
>with your own instrument. Not only that but the solo </text>

<text 
x="1387" 
y="487" 
dx="0,0,0,0,0,0,0.4,0,0,0,0.4,0,0,0,0.4,0,0,0,0,0,0.4,0,0,0,0.4,0,0,0,0,0.4,0,0,0,0,0,0,0,0,0,0.4,0,0,0.4,0,0,0,0.4,0,0,0" 
class="s4_34"
>parts and the music are also included, so you can </text>

<text 
x="1387" 
y="501" 
dx="0,0,0,0,0,-0.4,0,0,0,0,-0.4,0,0,-0.4,0,0,0,-0.6" 
class="s4_34"
>copy what to play.</text>

<text 
x="565" 
y="385" 
dx="0,0,0,0,0,0,-0.6,0,0,-0.6,-0.3,0,0,0,0,0,-0.6,0,0,0,0,0,0,0,0,-0.6,0,0,-0.6,0,0,-0.2,0,0" 
class="s3_34"
>Great if you're learning to play! </text>

<text 
x="565" 
y="399" 
dx="0,0,0,0,-0.2,0,0,0,0,-0.2,0,0,0,0,-0.2,0,0,0,0,0,0,0,0,-0.2,0,0,-0.2,0,0,0,0,-0.2,0,0,0,0,0,0,0,-0.2,0,0,0,0,0,0,0,0,0,0,0,0" 
class="s4_34"
>Are your kids learning to play musical instruments? </text>

<text 
x="565" 
y="414" 
dx="0,0,0,0,0,-0.4,0,0,0,-0.4,0,0,0,-0.4,0,0,0,0,0,-0.4,0,0,0,0,-0.4,0,0,0,0,0,-0.4,0,0,-0.4,0,0,-0.4,0,0,0,-0.4,0,0,0,0,0,0,0,0,0,0" 
class="s4_34"
>Then why not order this great CD of the Nanonauts' </text>

<text 
x="565" 
y="428" 
dx="0,0,0,0,0,0,0,0,0,0,0.1,0,0,0,0,0,0,-0.3,0,0,0.1,0,0,0,0,0.1,0,0,0.1,0,0,0,0,0,0,0.1,0,0,0,0.1,0,0,0,0.1,0,0,0,0,0,0,0,0" 
class="s4_34"
>favourite songs! As well as having all the complete </text>

<text 
x="565" 
y="443" 
dx="0,0,0,0,0,0,0,0.3,0,0,0,0.3,0,0,0.3,0,0,0,0,0,0,0,0,0.3,0,0,0,0,0,0,0,0,0.3,0,0,0.3,0,0,0,0.3,0,0,0,0,0,0.3,0,0,0,0" 
class="s4_34"
>songs, the CD includes versions of the songs with </text>

<text 
x="565" 
y="457" 
dx="0,0,0,0,0,0.8,0,0,0,0,0,0,0,0,0,0,0.8,0,0,0,0,0,0,0,0.8,0,0.8,0,0,0.8,0,0,0,0.8,0,0,0,0.8,0,0,0,0,0.8,0,0,0,0,0" 
class="s4_34"
>each instrument missing – so you can play along </text>

<text 
x="565" 
y="472" 
dx="0,0,0,0,0,-0.3,0,0,0,0,-0.3,0,0,0,-0.3,0,0,0,0,0,0,0,0,0,0,0,-0.3,0,0,0,-0.3,0,0,0,0,-0.3,0,0,0,0,-0.3,0,0,0,-0.3,0,0,0,-0.3,0,0,0,0" 
class="s4_34"
>with your own instrument. Not only that but the solo </text>

<text 
x="565" 
y="487" 
dx="0,0,0,0,0,0,0.4,0,0,0,0.4,0,0,0,0.4,0,0,0,0,0,0.4,0,0,0,0.4,0,0,0,0,0.4,0,0,0,0,0,0,0,0,0,0.4,0,0,0.4,0,0,0,0.4,0,0,0" 
class="s4_34"
>parts and the music are also included, so you can </text>

<text 
x="565" 
y="501" 
dx="0,0,0,0,0,-0.4,0,0,0,0,-0.4,0,0,-0.4,0,0,0,-0.6" 
class="s4_34"
>copy what to play.</text>

<text 
x="565" 
y="793" 
dx="0,0,0,0,0,-0.3,0,0,0,0,-0.3,0,0,0,-0.3,0,0,0,0,0,0,0,0,0,0,0,-0.3,0,0,0,-0.3,0,0,0,0,-0.3,0,0,0,0,-0.3,0,0,0,-0.3,0,0,0,-0.3,0,0,0,0" 
class="s4_34"
>with your own instrument. Not only that but the solo </text>

<text 
x="565" 
y="807" 
dx="0,0,0,0,0,0,0.4,0,0,0,0.4,0,0,0,0.4,0,0,0,0,0,0.4,0,0,0,0.4,0,0,0,0,0.4,0,0,0,0,0,0,0,0,0,0.4,0,0,0.4,0,0,0,0.4,0,0,0" 
class="s4_34"
>parts and the music are also included, so you can </text>

<text 
x="565" 
y="822" 
dx="0,0,0,0,0,-0.4,0,0,0,0,-0.4,0,0,-0.4,0,0,0,-0.6" 
class="s4_34"
>copy what to play.</text>

<text 
x="73" 
y="311" 
dx="0,0,0,0,0,-0.8,0,0,0,-0.8,0,0,0,0,0,0,0,0,0" 
class="s5_34"
>Meet the Nanonauts </text>

<text 
x="73" 
y="323" 
dx="0,-0.2,0,-0.6,0,0,0,-0.6,0,0,0,-0.6,0,0,0,0,0,0,0,0,0,0" 
class="s6_34"
>We are the Nanonauts. </text>

<text 
x="73" 
y="335" 
dx="0,0,0,0,-0.6,0,0,0,0,0,-0.6,0,0,0,-0.6,0,0,0,0,-0.8,0,-0.6,0,0,0,0,0,0,0,-0.6,0,0,0,0,0,0,-0.6,0,0,0,-0.6,0,0,0" 
class="s6_34"
>Our names are Holly, Dervla, Daniel and Sam.</text>

<text 
x="896" 
y="311" 
dx="0,0,0,0,0,-0.8,0,0,0,-0.8,0,0,0,0,0,0,0,0,0" 
class="s1_34"
>Meet the Nanonauts </text>

<text 
x="896" 
y="323" 
dx="0,-0.2,0,-0.6,0,0,0,-0.6,0,0,0,-0.6,0,0,0,0,0,0,0,0,0,0" 
class="s7_34"
>We are the Nanonauts. </text>

<text 
x="896" 
y="335" 
dx="0,0,0,0,-0.6,0,0,0,0,0,-0.6,0,0,0,-0.6,0,0,0,0,-0.8,0,-0.6,0,0,0,0,0,0,0,-0.6,0,0,0,0,0,0,-0.6,0,0,0,-0.6,0,0,0" 
class="s7_34"
>Our names are Holly, Dervla, Daniel and Sam.</text>

<text 
x="56" 
y="75" 
dx="0,-2.2,-1.7,0,-0.9,-1.8,-2.4,-2.6,-2.2,-2.5,-2.9,0,-0.9,-2.5,-2.9,-2.6,-1.7,-2.6,-2.2" 
class="s8_34"
>The ARTICLE element</text>

<text 
transform="matrix(0.98, 0, 0, 1, 56, 96)"
dx="0,0,0,0" 
class="s9_34"
>The </text>

<path d="M95.4,95l0,-3.4c0,-1.8,-0.9,-2.8,-2.6,-2.8c-0.9,0,-1.9,0.3,-2.9,0.8l0.3,0.9c0.3,-0.2,0.7,-0.4,1.1,-0.5c0.5,-0.1,0.8,-0.2,1.1,-0.2c1.2,0,1.8,0.7,1.8,2l0,0.4L93,92.3c-0.6,0,-1.1,0.1,-1.5,0.2c-0.4,0.2,-0.8,0.3,-1.1,0.5c-0.3,0.2,-0.5,0.5,-0.7,0.8c-0.1,0.3,-0.2,0.6,-0.2,1c0,0.6,0.2,1.2,0.7,1.6c0.4,0.4,0.9,0.6,1.5,0.6c1.1,0,2,-0.5,2.6,-1.5c0,0.5,0.1,1,0.1,1.3l1.2,0C95.5,96.3,95.4,95.7,95.4,95Zm-2.2,0.5c-0.4,0.2,-0.8,0.4,-1.2,0.4c-0.4,0,-0.7,-0.1,-0.9,-0.4C90.8,95.3,90.7,95,90.7,94.7c0,-0.4,0.1,-0.7,0.4,-0.9c0.3,-0.2,0.6,-0.4,1,-0.5c0.4,-0.1,1.1,-0.1,2.1,-0.2l0,1.4c-0.3,0.4,-0.6,0.7,-1,1Z" class="g25_34" />
<path d="M102.8,88.8c-0.9,0,-1.7,0.6,-2.3,1.8l0,-1.6l-1.2,0l0,7.8l1.2,0l0,-5c0,-0.1,0.1,-0.3,0.4,-0.7c0.2,-0.3,0.5,-0.6,0.9,-0.8c0.3,-0.2,0.6,-0.3,0.9,-0.3c0.4,0,0.8,0.1,1.4,0.3l0.4,-1.1C104,89,103.4,88.8,102.8,88.8Z" class="g25_34" />
<path d="M113.3,95.5c-0.6,0.3,-1.2,0.5,-1.9,0.5c-0.3,0,-0.6,-0.2,-0.8,-0.4c-0.2,-0.3,-0.3,-0.7,-0.3,-1.1l0,-4.5l2.6,0l0,-1l-2.6,0l0,-2.1l-1.1,0l0,2.1l-1.5,0l0,1l1.5,0l0,4.8c0,1.4,0.6,2.2,2,2.2c0.8,0,1.5,-0.2,2.3,-0.6l-0.2,-0.9Z" class="g25_34" />
<path d="M119.4,86.3c-0.1,0.2,-0.2,0.4,-0.2,0.6c0,0.2,0.1,0.4,0.2,0.5c0.2,0.2,0.3,0.3,0.5,0.3c0.3,0,0.5,-0.1,0.6,-0.3c0.1,-0.1,0.2,-0.3,0.2,-0.5c0,-0.3,-0.1,-0.4,-0.2,-0.6c-0.2,-0.2,-0.3,-0.2,-0.6,-0.2c-0.2,0,-0.3,0,-0.5,0.2Zm1.1,2.7l-3.4,0l0,1l2.3,0l0,6.8l1.1,0l0,-7.8Z" class="g25_34" />
<path d="M131.2,95.6c-0.7,0.2,-1.4,0.4,-2,0.4c-0.8,0,-1.5,-0.3,-2,-0.9c-0.5,-0.6,-0.8,-1.3,-0.8,-2.2c0,-0.9,0.3,-1.7,0.8,-2.2c0.5,-0.6,1.1,-0.9,2,-0.9c0.5,0,1.2,0.1,1.9,0.4l0.3,-1c-0.7,-0.2,-1.5,-0.4,-2.2,-0.4c-1.2,0,-2.2,0.4,-2.9,1.1c-0.7,0.8,-1.1,1.8,-1.1,3c0,1.2,0.4,2.2,1.1,3c0.7,0.7,1.7,1.1,2.9,1.1c0.8,0,1.5,-0.2,2.2,-0.5l-0.2,-0.9Z" class="g25_34" />
<path d="M139.5,95.5l-2,0l0,-9l-3,0l0,1l2,0l0,9l3,0l0,-1Z" class="g25_34" />
<path d="M149.7,92.6c0,-1.2,-0.3,-2.1,-0.9,-2.8c-0.6,-0.6,-1.4,-1,-2.2,-1c-1,0,-1.8,0.4,-2.5,1.1c-0.6,0.8,-0.9,1.7,-0.9,3c0,1.2,0.4,2.2,1.1,3c0.6,0.7,1.6,1.1,2.7,1.1c0.9,0,1.7,-0.2,2.4,-0.5l-0.2,-0.9C148.4,95.8,147.7,96,147,96c-0.7,0,-1.3,-0.3,-1.8,-0.9c-0.5,-0.6,-0.8,-1.3,-0.8,-2.2l5.3,0l0,-0.3ZM144.5,92c0,-0.7,0.3,-1.2,0.6,-1.6c0.4,-0.4,0.9,-0.6,1.5,-0.6c0.5,0,0.9,0.2,1.3,0.6c0.3,0.5,0.5,1,0.5,1.6l-3.9,0Z" class="g25_34" />
<text 
transform="matrix(0.98, 0, 0, 1, 87, 96)"
dx="0,0,0,0,0,0,0" 
class="s10_34"
>article</text>

<text 
transform="matrix(0.98, 0, 0, 1, 157, 96)"
dx="0,0,0,0,0,0,0,0,2.5,0,0,2.5,0,0,0,0,2.5,0,0,2.5,0,0,0,0,0,0,0,2.5,0,2.5,0,0,0,0,0,0,2.5,0,0,0,0,2.5,0,0" 
class="s9_34"
>element is used to contain a single item of </text>

<text 
transform="matrix(0.98, 0, 0, 1, 56, 118)"
dx="0,0,0,0,0,0,0,0,0,4.3,0,4.3,0,0,0,0,0,0,0,4.3,0,0,0,0,4.3,0,0,0,0,0,4.3,0,0,0,0,0,4.3,0,0,4.3,0,0,0,4.3,0,0,0,4.3,0,0,0,0,0,0,0" 
class="s9_34"
>content, a section that makes sense on its own without </text>

<text 
transform="matrix(0.98, 0, 0, 1, 56, 139)"
dx="0,0,0,0,1.8,-0.3,0,0,0,1.8,0,0,1.8,0,0,0,1.8,0,0,0,0,1.8,0,0,1.8,0,0,0,0,0,0,0,0,1.8,0,0.3,0,0,0,0,0,0,1.8,0,0,0,1.8,0,0,0,0,0,0,1.8,0,0,0,0,0,0" 
class="s9_34"
>the rest of the page in context. Articles can appear inside </text>

<text 
transform="matrix(0.98, 0, 0, 1, 56, 160)"
dx="0,0,0.3,0,0,0,0,0,0,0,-0.9,0,-0.9,0,0,0,0,0,0,-0.9,0,0,0,0,-0.9,0,0,0,0,0,0,0,-0.9,0,0,0,0,0,0" 
class="s9_34"
>articles, a little like Russian dolls! </text>

<text 
x="56" 
y="610" 
dx="0,-2.2,-1.7,0,-0.9,-1.9,-2.7,-3.1,-2.6,-2.1,-1.7,0,-0.9,-2.5,-2.9,-2.6,-1.7,-2.6,-2.2" 
class="s8_34"
>The section element</text>

<text 
transform="matrix(0.98, 0, 0, 1, 56, 631)"
dx="0,0,0,0" 
class="s9_34"
>The </text>

<path d="M94.1,623.9c-0.8,-0.3,-1.5,-0.4,-2.1,-0.4c-0.9,0,-1.7,0.2,-2.3,0.6c-0.6,0.4,-0.8,1,-0.8,1.6c0,0.3,0,0.6,0.1,0.9c0.2,0.2,0.3,0.4,0.6,0.6c0.2,0.2,0.5,0.3,0.8,0.4c0.2,0.1,0.7,0.2,1.3,0.4c0.7,0.3,1.2,0.5,1.4,0.7c0.2,0.2,0.3,0.4,0.3,0.7c0,0.4,-0.2,0.7,-0.6,1c-0.4,0.2,-0.9,0.3,-1.6,0.3c-0.7,0,-1.4,-0.1,-2,-0.4l-0.3,1c0.6,0.3,1.4,0.4,2.4,0.4c0.9,0,1.7,-0.2,2.3,-0.6c0.6,-0.5,0.9,-1.1,0.9,-1.8c0,-0.4,-0.1,-0.7,-0.2,-1c-0.2,-0.3,-0.4,-0.5,-0.7,-0.7c-0.4,-0.2,-0.8,-0.4,-1.3,-0.5l-1.1,-0.4c-0.5,-0.1,-0.8,-0.3,-1,-0.4C90.1,626.1,90,625.9,90,625.7c0,-0.4,0.2,-0.7,0.5,-0.9c0.4,-0.2,0.9,-0.3,1.5,-0.3c0.6,0,1.2,0.1,1.8,0.3l0.3,-0.9Z" class="g25_34" />
<path d="M103.8,627.3c0,-1.1,-0.3,-2.1,-0.8,-2.7c-0.6,-0.7,-1.4,-1.1,-2.3,-1.1c-0.9,0,-1.7,0.4,-2.4,1.1c-0.6,0.8,-0.9,1.8,-0.9,3c0,1.3,0.3,2.3,1,3c0.7,0.7,1.6,1.1,2.8,1.1c0.9,0,1.7,-0.2,2.3,-0.5l-0.2,-0.9c-0.7,0.3,-1.4,0.4,-2.1,0.4c-0.7,0,-1.3,-0.3,-1.8,-0.9c-0.5,-0.5,-0.8,-1.3,-0.8,-2.1l5.2,0l0,-0.4Zm-5.1,-0.6c0,-0.6,0.2,-1.2,0.6,-1.6c0.4,-0.4,0.9,-0.6,1.5,-0.6c0.5,0,0.9,0.3,1.2,0.7c0.4,0.4,0.6,0.9,0.6,1.5l-3.9,0Z" class="g25_34" />
<path d="M112.4,630.3c-0.7,0.3,-1.4,0.4,-2,0.4c-0.8,0,-1.5,-0.3,-2,-0.9c-0.5,-0.6,-0.7,-1.3,-0.7,-2.2c0,-0.9,0.2,-1.7,0.7,-2.2c0.5,-0.6,1.1,-0.9,2,-0.9c0.5,0,1.2,0.2,1.9,0.4l0.3,-0.9c-0.7,-0.3,-1.5,-0.5,-2.2,-0.5c-1.2,0,-2.1,0.4,-2.9,1.2c-0.7,0.7,-1,1.7,-1,2.9c0,1.3,0.3,2.2,1,3c0.7,0.7,1.7,1.1,2.9,1.1c0.8,0,1.5,-0.2,2.2,-0.5l-0.2,-0.9Z" class="g25_34" />
<path d="M121.5,630.2c-0.6,0.3,-1.2,0.5,-1.9,0.5c-0.3,0,-0.6,-0.2,-0.8,-0.4c-0.2,-0.3,-0.3,-0.6,-0.3,-1.1l0,-4.5l2.6,0l0,-1l-2.6,0l0,-2.1l-1.1,0l0,2.1l-1.5,0l0,1l1.5,0l0,4.8c0,1.5,0.7,2.2,2,2.2c0.8,0,1.5,-0.2,2.3,-0.5l-0.2,-1Z" class="g25_34" />
<path d="M127.6,621c-0.1,0.2,-0.2,0.4,-0.2,0.6c0,0.2,0.1,0.4,0.2,0.6c0.2,0.1,0.4,0.2,0.6,0.2c0.2,0,0.4,-0.1,0.5,-0.2c0.2,-0.2,0.2,-0.4,0.2,-0.6c0,-0.2,0,-0.4,-0.2,-0.6c-0.1,-0.1,-0.3,-0.2,-0.5,-0.2c-0.2,0,-0.4,0.1,-0.6,0.2Zm1.1,2.7l-3.4,0l0,1l2.3,0l0,6.8l1.1,0l0,-7.8Z" class="g25_34" />
<path d="M134.2,624.7c-0.6,0.7,-1,1.7,-1,2.9c0,1.2,0.4,2.2,1,3c0.6,0.7,1.4,1.1,2.5,1.1c1,0,1.9,-0.4,2.5,-1.1c0.6,-0.8,0.9,-1.8,0.9,-3c0,-1.2,-0.3,-2.2,-0.9,-2.9c-0.6,-0.8,-1.5,-1.2,-2.5,-1.2c-1.1,0,-1.9,0.4,-2.5,1.2Zm0.8,5.1c-0.4,-0.6,-0.6,-1.3,-0.6,-2.2c0,-0.9,0.2,-1.6,0.6,-2.2c0.4,-0.6,1,-0.9,1.7,-0.9c0.7,0,1.2,0.3,1.6,0.9c0.4,0.6,0.6,1.3,0.6,2.2c0,0.9,-0.2,1.6,-0.6,2.2c-0.4,0.6,-0.9,0.9,-1.6,0.9c-0.7,0,-1.3,-0.3,-1.7,-0.9Z" class="g25_34" />
<path d="M148.6,626.2c0,-1.8,-0.7,-2.7,-2.1,-2.7c-0.9,0,-1.8,0.5,-2.6,1.4l0,-1.2l-1.1,0l0,7.8l1.1,0l0,-5.6c0.8,-0.9,1.6,-1.4,2.3,-1.4c0.4,0,0.8,0.2,1,0.5c0.2,0.3,0.3,0.8,0.3,1.5l0,5l1.1,0l0,-5.3Z" class="g25_34" />
<text 
transform="matrix(0.98, 0, 0, 1, 87, 631)"
dx="0,0,0,0,0,0,0" 
class="s10_34"
>section</text>

<text 
transform="matrix(0.98, 0, 0, 1, 155, 631)"
dx="0,0,0,0,0,0,0,0,1.7,0,0,1.7,0,0,0,0,1.7,0,0,1.7,0,0,0,0,0,0,1.7,0,1.7,0,0,0,0,0,1.7,0,0.3,0,0,0,0,0,1.7,0,0,0,0,1.7,0,0,0,0,0,0,0,1.7,0,0,0,0,0,0,0,1.7,0,0,0,0,1.7,0,0,0,0,0,1.7,0,0,0,0,0,0,1.7,0,0,0,0,1.7,0" 
class="s9_34"
>element is used to divide a large article into smaller chunks. Each chunk should have a </text>

<text 
transform="matrix(0.98, 0, 0, 1, 56, 652)"
dx="0,0,0,0,0,0,0,0,0,0,0,1,0,0,0,1,0,0,0.3,0,1,0,1,0,0,0,0,0,1,0,0,0.3,0,1,0,0,1,0,0,0,1,0,0.3,0,0,0,0,0,0,1,0,0,0,0,0,0,1,0,0,0,1,0,0,0,0,0,1,0,0,0,1,0,0,0,0,0,0,0,0,0,0,1,0,0.3,0,0,0,0,0,0,1,0,0,0,0,1,0,0,0,0,0,0,0,0,0,0" 
class="s9_34"
>subheading and form a major part of the article. Within the ‘Meet the Nanonauts’ article, each individual </text>

<text 
transform="matrix(0.98, 0, 0, 1, 56, 674)"
dx="0,0,0,0,0,0,0,0,0,0.4,0,0,0,0,0,0,0,0,0,0.4,0,0,0,0.5,0,0,0.4,0,0,0,0,0,0,0.5,0,0,0,0,0,0,0.5,0,0.4,0,0,0,0,0,0,0,0,0.5,-1.4,0,0,0.4,0,0,0,0.5,0,0,0,0,0.4,0,0,0,0,0,0,0.4,0,0,0,0.5,0,0,0,0,0,0.4,0,0,0,0,0,0,0,0.4,0,0,0,0,0.5,0,0,0,0.4,0,0,0,0" 
class="s9_34"
>Nanonaut biography can be placed within a section. You can also divide the aside element (see the next </text>

<text 
transform="matrix(0.98, 0, 0, 1, 56, 695)"
dx="0,0,0,0,0,0,-0.9,0,0,0,0,-0.9,0,0,0,0,0,0,0,0,-0.9,0,0,0,0,0,-0.9,0,0,0,-0.9,0,0,0,0,0,0,0,-0.9,0,0,0,0,0,0,0,0" 
class="s9_34"
>page) into sections using the section element. </text>

<text 
x="879" 
y="75" 
dx="0,-2.2,-1.7,0,-0.9,-2.2,-2.3,-2.3,-1.8,0,-0.9,-2.5,-2.9,-2.6,-1.7,-2.6,-2.2" 
class="s8_34"
>The aside element</text>

<text 
transform="matrix(0.98, 0, 0, 1, 879, 96)"
dx="0,0,0,0" 
class="s9_34"
>The </text>

<path d="M917.9,95l0,-3.4c0,-1.8,-0.9,-2.8,-2.6,-2.8c-0.9,0,-1.9,0.3,-2.9,0.8l0.3,0.9c0.3,-0.2,0.7,-0.4,1.1,-0.5c0.4,-0.1,0.8,-0.2,1.1,-0.2c1.2,0,1.8,0.7,1.8,2l0,0.4l-1.3,0.1c-0.5,0,-1,0.1,-1.5,0.2c-0.4,0.2,-0.7,0.3,-1,0.5c-0.3,0.2,-0.5,0.5,-0.7,0.8c-0.1,0.3,-0.2,0.6,-0.2,1c0,0.6,0.2,1.2,0.6,1.6c0.5,0.4,1,0.6,1.5,0.6c1.2,0,2,-0.5,2.7,-1.5c0,0.5,0,1,0.1,1.3l1.2,0c-0.2,-0.5,-0.2,-1.1,-0.2,-1.8Zm-2.2,0.5c-0.4,0.2,-0.8,0.4,-1.2,0.4c-0.4,0,-0.7,-0.1,-1,-0.4c-0.2,-0.2,-0.3,-0.5,-0.3,-0.8c0,-0.4,0.1,-0.7,0.4,-0.9c0.3,-0.2,0.6,-0.4,1,-0.5c0.4,-0.1,1.1,-0.1,2.1,-0.2l0,1.4c-0.3,0.4,-0.6,0.7,-1,1Z" class="g25_34" />
<path d="M926.3,89.1c-0.7,-0.2,-1.4,-0.3,-2,-0.3c-1,0,-1.7,0.2,-2.3,0.6c-0.6,0.4,-0.9,0.9,-0.9,1.6c0,0.3,0.1,0.6,0.2,0.8c0.1,0.3,0.3,0.5,0.6,0.7c0.2,0.2,0.5,0.3,0.7,0.4c0.3,0.1,0.7,0.2,1.3,0.4c0.8,0.2,1.2,0.5,1.4,0.7c0.2,0.2,0.3,0.4,0.3,0.7c0,0.4,-0.2,0.7,-0.6,0.9c-0.4,0.3,-0.9,0.4,-1.5,0.4c-0.8,0,-1.4,-0.2,-2.1,-0.5l-0.2,1c0.6,0.3,1.4,0.5,2.3,0.5c1,0,1.7,-0.2,2.4,-0.7c0.6,-0.4,0.9,-1,0.9,-1.7c0,-0.4,-0.1,-0.7,-0.3,-1c-0.1,-0.3,-0.4,-0.5,-0.7,-0.7c-0.3,-0.3,-0.7,-0.4,-1.2,-0.6L923.5,92c-0.5,-0.1,-0.8,-0.3,-1,-0.5c-0.2,-0.1,-0.2,-0.3,-0.2,-0.5c0,-0.4,0.1,-0.7,0.5,-0.9c0.4,-0.2,0.8,-0.3,1.5,-0.3c0.5,0,1.1,0.1,1.8,0.3l0.2,-1Z" class="g25_34" />
<path d="M932.9,86.3c-0.2,0.2,-0.2,0.4,-0.2,0.6c0,0.2,0,0.4,0.2,0.5c0.1,0.2,0.3,0.3,0.5,0.3c0.2,0,0.4,-0.1,0.6,-0.3c0.1,-0.1,0.2,-0.3,0.2,-0.5c0,-0.3,-0.1,-0.4,-0.2,-0.6c-0.2,-0.2,-0.4,-0.2,-0.6,-0.2c-0.2,0,-0.4,0,-0.5,0.2ZM934,89l-3.4,0l0,1l2.2,0l0,6.8l1.2,0L934,89Z" class="g25_34" />
<path d="M944.9,86.3l-1.2,0l0,3.7c-0.6,-0.8,-1.3,-1.2,-2.3,-1.2c-0.9,0,-1.6,0.4,-2.1,1.1c-0.5,0.8,-0.8,1.7,-0.8,2.9c0,1.2,0.2,2.2,0.8,3c0.5,0.8,1.2,1.2,2,1.2c0.5,0,1,-0.1,1.4,-0.4c0.4,-0.2,0.8,-0.6,1,-0.9l0,1.1l1.2,0l0,-10.5ZM943.3,95c-0.2,0.3,-0.5,0.5,-0.8,0.7c-0.3,0.2,-0.6,0.2,-0.9,0.2c-0.6,0,-1,-0.3,-1.4,-0.8c-0.3,-0.6,-0.5,-1.4,-0.5,-2.3c0,-0.8,0.2,-1.5,0.5,-2.1c0.4,-0.6,0.9,-0.9,1.5,-0.9c0.8,0,1.5,0.5,2,1.4l0,3.2c0,0.1,-0.1,0.3,-0.4,0.6Z" class="g25_34" />
<path d="M954.1,92.6c0,-1.2,-0.3,-2.1,-0.9,-2.8c-0.6,-0.6,-1.3,-1,-2.2,-1c-1,0,-1.8,0.4,-2.4,1.1c-0.6,0.8,-0.9,1.7,-0.9,3c0,1.2,0.3,2.2,1,3c0.7,0.7,1.6,1.1,2.8,1.1c0.9,0,1.6,-0.2,2.3,-0.5l-0.2,-0.9c-0.7,0.2,-1.4,0.4,-2.1,0.4c-0.8,0,-1.4,-0.3,-1.9,-0.9c-0.5,-0.6,-0.7,-1.3,-0.7,-2.2l5.2,0l0,-0.3ZM949,92c0,-0.7,0.2,-1.2,0.6,-1.6c0.4,-0.4,0.9,-0.6,1.5,-0.6c0.4,0,0.8,0.2,1.2,0.6c0.4,0.5,0.6,1,0.6,1.6L949,92Z" class="g25_34" />
<text 
transform="matrix(0.98, 0, 0, 1, 910, 96)"
dx="0,0,0,0,0" 
class="s10_34"
>aside</text>

<text 
transform="matrix(0.98, 0, 0, 1, 961, 96)"
dx="0,0,0,0,0,0,0,0,2.1,0,0,2.1,0,0,0,0,2.1,0,0,2.1,0,0,0,0,0,0,0,2.1,0,0,0,0,0,0,0,2.1,0,0,0,0,0,2.1,0,0,0,-0.3,0,2.1,-0.3,0,0,0,0,0,2.1,0,0,0.3,0,2.1,0,0,2.1,0,0,0,2.1,0,0,0,0,2.1,0,0,0,0,0,0,0,2.1,0,0,2.1,0,0,0,2.1,0,0,0,0,0" 
class="s9_34"
>element is used to contain content which isn’t really part of the main subject of the page. </text>

<text 
transform="matrix(0.98, 0, 0, 1, 879, 118)"
dx="0,0,0,0,1.1,0,0,0,0,0,0,0,0,1.1,0,0,0,1.1,0,0,0,0,0,1.1,0,0,0,1.1,0,0,0,0,0.3,0,0,1.1,0,0,1.1,0,1.1,0,0,0,0,0,1.1,0,0,1.1,0,0,0,0,0.3,0,0,0,0,0,0,1.1,0,0,0,0,0,1.1,0,0,0,0,0,0,0,0,0,0,0,0,0,1.1,0,0,0,0,0,0,0,1.1,0,0,0,0,1.1,0,0,0.3,0,1.1,0,0" 
class="s9_34"
>For example, you often see adverts on a page, or information about up-and-coming events. This sort of </text>

<text 
transform="matrix(0.98, 0, 0, 1, 879, 139)"
dx="0,0,0,0,0,0,0,0,0,0,0,0,0,0,0,0,0,0,0,0,0,0,0,0,0,0,0,0,0,0,0,0" 
class="s9_34"
>content can be placed inside an </text>

<path d="M1107.7,137.8l0,-3.4c0,-1.9,-0.9,-2.8,-2.6,-2.8c-0.9,0,-1.9,0.3,-2.9,0.8l0.3,0.8c0.3,-0.1,0.6,-0.3,1.1,-0.4c0.4,-0.1,0.8,-0.2,1.1,-0.2c1.2,0,1.8,0.7,1.8,2l0,0.4l-1.3,0.1c-0.5,0,-1,0.1,-1.5,0.2c-0.4,0.1,-0.7,0.3,-1,0.5c-0.3,0.2,-0.5,0.4,-0.7,0.7c-0.1,0.3,-0.2,0.7,-0.2,1.1c0,0.6,0.2,1.1,0.6,1.5c0.5,0.5,1,0.7,1.5,0.7c1.1,0,2,-0.5,2.7,-1.5c0,0.5,0,0.9,0.1,1.3l1.2,0c-0.2,-0.6,-0.2,-1.2,-0.2,-1.8Zm-2.2,0.5c-0.4,0.2,-0.8,0.3,-1.2,0.3c-0.4,0,-0.7,-0.1,-1,-0.3c-0.2,-0.2,-0.3,-0.5,-0.3,-0.8c0,-0.4,0.1,-0.7,0.4,-0.9c0.3,-0.3,0.6,-0.4,1,-0.5c0.4,-0.1,1.1,-0.2,2.1,-0.3l0,1.5c-0.3,0.4,-0.6,0.7,-1,1Z" class="g25_34" />
<path d="M1116.1,131.9c-0.7,-0.2,-1.4,-0.3,-2,-0.3c-1,0,-1.7,0.2,-2.3,0.6c-0.6,0.4,-0.9,0.9,-0.9,1.6c0,0.3,0.1,0.6,0.2,0.8c0.1,0.3,0.3,0.5,0.5,0.7c0.3,0.1,0.5,0.3,0.8,0.4c0.3,0.1,0.7,0.2,1.3,0.4c0.8,0.2,1.2,0.4,1.4,0.6c0.2,0.3,0.3,0.5,0.3,0.8c0,0.4,-0.2,0.7,-0.6,0.9c-0.4,0.3,-0.9,0.4,-1.5,0.4c-0.8,0,-1.4,-0.2,-2.1,-0.5l-0.2,1c0.6,0.3,1.4,0.5,2.3,0.5c1,0,1.7,-0.3,2.3,-0.7c0.7,-0.4,1,-1,1,-1.7c0,-0.4,-0.1,-0.8,-0.3,-1c-0.1,-0.3,-0.4,-0.6,-0.7,-0.8c-0.3,-0.2,-0.7,-0.3,-1.2,-0.5l-1.1,-0.3c-0.5,-0.2,-0.8,-0.3,-1,-0.5c-0.2,-0.1,-0.3,-0.3,-0.3,-0.6c0,-0.3,0.2,-0.6,0.6,-0.8c0.3,-0.2,0.8,-0.3,1.5,-0.3c0.5,0,1.1,0.1,1.8,0.3l0.2,-1Z" class="g25_34" />
<path d="M1122.7,129.1c-0.2,0.1,-0.3,0.3,-0.3,0.5c0,0.3,0.1,0.4,0.3,0.6c0.1,0.2,0.3,0.2,0.5,0.2c0.2,0,0.4,0,0.6,-0.2c0.1,-0.1,0.2,-0.3,0.2,-0.6c0,-0.2,-0.1,-0.4,-0.2,-0.5c-0.2,-0.2,-0.4,-0.3,-0.6,-0.3c-0.2,0,-0.4,0.1,-0.5,0.3Zm1.1,2.7l-3.4,0l0,1l2.2,0l0,6.8l1.2,0l0,-7.8Z" class="g25_34" />
<path d="M1134.7,129l-1.2,0l0,3.8c-0.6,-0.8,-1.4,-1.2,-2.3,-1.2c-0.9,0,-1.6,0.4,-2.1,1.1c-0.6,0.8,-0.8,1.7,-0.8,2.9c0,1.2,0.2,2.2,0.7,3c0.6,0.8,1.2,1.2,2.1,1.2c0.5,0,1,-0.2,1.4,-0.4c0.4,-0.3,0.8,-0.6,1,-1l0,1.2l1.2,0l0,-10.6Zm-1.6,8.8c-0.2,0.3,-0.5,0.5,-0.8,0.7c-0.3,0.1,-0.6,0.2,-0.9,0.2c-0.6,0,-1.1,-0.3,-1.4,-0.9c-0.3,-0.5,-0.5,-1.3,-0.5,-2.2c0,-0.9,0.2,-1.6,0.5,-2.1c0.4,-0.6,0.9,-0.9,1.5,-0.9c0.8,0,1.5,0.5,2,1.3l0,3.3c0,0,-0.1,0.2,-0.4,0.6Z" class="g25_34" />
<path d="M1143.9,135.3c0,-1.1,-0.3,-2,-0.9,-2.7c-0.6,-0.7,-1.3,-1,-2.2,-1c-1,0,-1.8,0.4,-2.4,1.1c-0.6,0.7,-0.9,1.7,-0.9,2.9c0,1.3,0.3,2.3,1,3c0.7,0.8,1.6,1.2,2.8,1.2c0.9,0,1.6,-0.2,2.3,-0.5l-0.2,-0.9c-0.7,0.2,-1.4,0.3,-2.1,0.3c-0.8,0,-1.4,-0.2,-1.9,-0.8c-0.5,-0.6,-0.7,-1.3,-0.7,-2.2l5.2,0l0,-0.4Zm-5.2,-0.5c0.1,-0.7,0.3,-1.2,0.7,-1.6c0.4,-0.4,0.9,-0.6,1.5,-0.6c0.4,0,0.8,0.2,1.2,0.6c0.4,0.4,0.6,1,0.6,1.6l-4,0Z" class="g25_34" />
<text 
transform="matrix(0.98, 0, 0, 1, 1100, 139)"
dx="0,0,0,0,0" 
class="s10_34"
>aside</text>

<text 
transform="matrix(0.98, 0, 0, 1, 1149, 139)"
dx="0,0,0,0,0,0,0,0,0,0,0,0,0,0,0,0,0,0,0,0,0,0,0,0,0,0,0,0,0,0,0,0,0,0,0,0,0,0,0,0,0,0,0,0,0,0,0,0,0,0,0,0,0.3,0,0,0,0,0,0,0,0,0,0,0,0,0" 
class="s9_34"
>element. In the case of the About us page, the adverts for the CD </text>

<text 
transform="matrix(0.98, 0, 0, 1, 879, 160)"
dx="0,0,0,0,-0.9,-2,0,0,0,0,0.3,0,0,-0.9,0,0,0,-0.9,0,0,0,0,0.3,0,0,0,0,0,0,-0.9,0,0,0,0,0,-0.9,0,0,0,-0.9,0,0,0,0,-0.9,0,0,0,0,0,0.3,0,-0.9,0,0,0,-0.9,0,0,0,-0.9,0,0,-0.9,0,0,0,0,0,0,-0.9,0,0,0,0,0,0,-0.9,0,0,0" 
class="s9_34"
>and T-shirt, and information about the next concert can all be placed within the </text>

<path d="M1406,159.1l0,-3.3c0,-1.9,-0.9,-2.8,-2.6,-2.8c-0.9,0,-1.9,0.3,-2.9,0.8l0.3,0.8c0.3,-0.1,0.7,-0.3,1.1,-0.4c0.5,-0.1,0.8,-0.2,1.1,-0.2c1.2,0,1.8,0.7,1.8,2l0,0.4l-1.2,0.1c-0.6,0,-1.1,0.1,-1.5,0.2c-0.5,0.1,-0.8,0.3,-1.1,0.5c-0.3,0.2,-0.5,0.4,-0.7,0.7c-0.1,0.3,-0.2,0.7,-0.2,1c0,0.7,0.2,1.2,0.6,1.6c0.5,0.4,1,0.6,1.5,0.6c1.2,0,2,-0.4,2.7,-1.4c0,0.5,0,0.9,0.1,1.2l1.2,0c-0.2,-0.5,-0.2,-1.1,-0.2,-1.8Zm-2.2,0.6c-0.4,0.2,-0.8,0.3,-1.2,0.3c-0.4,0,-0.7,-0.1,-0.9,-0.3c-0.3,-0.2,-0.4,-0.5,-0.4,-0.8c0,-0.4,0.1,-0.7,0.4,-0.9c0.3,-0.3,0.6,-0.4,1,-0.5c0.4,-0.1,1.1,-0.2,2.1,-0.3l0,1.4c-0.3,0.5,-0.6,0.8,-1,1.1Z" class="g25_34" />
<path d="M1414.4,153.3c-0.7,-0.2,-1.4,-0.3,-2,-0.3c-1,0,-1.7,0.2,-2.3,0.6c-0.6,0.4,-0.9,0.9,-0.9,1.6c0,0.3,0.1,0.6,0.2,0.8c0.1,0.3,0.3,0.5,0.6,0.6c0.2,0.2,0.5,0.4,0.7,0.5c0.3,0,0.8,0.2,1.3,0.4c0.8,0.2,1.2,0.4,1.4,0.6c0.2,0.2,0.3,0.5,0.3,0.7c0,0.4,-0.2,0.8,-0.6,1c-0.4,0.2,-0.9,0.4,-1.5,0.4c-0.7,0,-1.4,-0.2,-2.1,-0.5l-0.2,1c0.6,0.3,1.4,0.4,2.3,0.4c1,0,1.8,-0.2,2.4,-0.6c0.6,-0.4,0.9,-1,0.9,-1.8c0,-0.3,-0.1,-0.7,-0.3,-1c-0.1,-0.2,-0.4,-0.5,-0.7,-0.7c-0.3,-0.2,-0.7,-0.4,-1.2,-0.5l-1.1,-0.3c-0.5,-0.2,-0.8,-0.3,-1,-0.5c-0.2,-0.2,-0.2,-0.3,-0.2,-0.6c0,-0.3,0.1,-0.6,0.5,-0.8c0.4,-0.2,0.9,-0.3,1.5,-0.3c0.5,0,1.1,0.1,1.8,0.3l0.2,-1Z" class="g25_34" />
<path d="M1421,150.5c-0.2,0.1,-0.2,0.3,-0.2,0.5c0,0.2,0,0.4,0.2,0.6c0.2,0.2,0.3,0.2,0.5,0.2c0.2,0,0.4,0,0.6,-0.2c0.1,-0.1,0.2,-0.3,0.2,-0.6c0,-0.2,-0.1,-0.4,-0.2,-0.5c-0.2,-0.2,-0.4,-0.3,-0.6,-0.3c-0.2,0,-0.3,0.1,-0.5,0.3Zm1.1,2.7l-3.4,0l0,1l2.2,0l0,6.7l1.2,0l0,-7.7Z" class="g25_34" />
<path d="M1433,150.4l-1.2,0l0,3.8c-0.6,-0.8,-1.3,-1.2,-2.3,-1.2c-0.9,0,-1.6,0.4,-2.1,1.1c-0.5,0.8,-0.8,1.7,-0.8,2.8c0,1.3,0.3,2.3,0.8,3.1c0.5,0.8,1.2,1.1,2,1.1c0.5,0,1,-0.1,1.4,-0.3c0.5,-0.3,0.8,-0.6,1,-1l0,1.1l1.2,0l0,-10.5Zm-1.6,8.7c-0.2,0.4,-0.5,0.6,-0.8,0.8c-0.3,0.1,-0.6,0.2,-0.9,0.2c-0.6,0,-1,-0.3,-1.4,-0.9c-0.3,-0.6,-0.5,-1.3,-0.5,-2.2c0,-0.9,0.2,-1.6,0.6,-2.2c0.3,-0.5,0.8,-0.8,1.4,-0.8c0.8,0,1.5,0.4,2,1.3l0,3.3c0,0,-0.1,0.2,-0.4,0.5Z" class="g25_34" />
<path d="M1442.2,156.7c0,-1.1,-0.3,-2,-0.9,-2.7c-0.5,-0.7,-1.3,-1,-2.2,-1c-0.9,0,-1.8,0.4,-2.4,1.1c-0.6,0.7,-0.9,1.7,-0.9,2.9c0,1.3,0.3,2.3,1,3c0.7,0.8,1.6,1.1,2.8,1.1c0.9,0,1.7,-0.1,2.3,-0.4l-0.2,-0.9c-0.7,0.2,-1.4,0.3,-2.1,0.3c-0.7,0,-1.4,-0.3,-1.9,-0.8c-0.5,-0.6,-0.7,-1.3,-0.7,-2.2l5.2,0l0,-0.4Zm-5.1,-0.6c0,-0.6,0.2,-1.1,0.6,-1.5c0.4,-0.4,0.9,-0.6,1.5,-0.6c0.4,0,0.9,0.2,1.2,0.6c0.4,0.4,0.6,0.9,0.6,1.5l-3.9,0Z" class="g25_34" />
<text 
transform="matrix(0.98, 0, 0, 1, 1398, 160)"
dx="0,0,0,0,0" 
class="s10_34"
>aside</text>

<text 
transform="matrix(0.98, 0, 0, 1, 1446, 160)"
dx="0,0,0,0,0,0,0,0" 
class="s9_34"
>element.</text>

<text 
x="879" 
y="610" 
dx="0,-2.2,-1.7,0,-0.9,-3,-1.7,-2.2,-2.2,-2.6,0,-0.9,-2.5,-2.9,-2.6,-1.7,-2.6,-2.2" 
class="s8_34"
>The FOOTER element</text>

<text 
transform="matrix(0.98, 0, 0, 1, 879, 631)"
dx="0,0,0,0" 
class="s9_34"
>The </text>

<path d="M914.4,620.8c-0.8,0,-1.4,0.2,-1.8,0.6c-0.3,0.4,-0.5,1.1,-0.5,2.1l0,0.2l-1.9,0l0,1l1.9,0l0,6.8l1.2,0l0,-6.8l2.6,0l0,-1l-2.6,0l0,-0.1c0,-0.7,0.1,-1.2,0.2,-1.4c0.2,-0.3,0.5,-0.4,0.9,-0.4c0.4,0,0.9,0.1,1.4,0.2l0.3,-0.9c-0.6,-0.2,-1.2,-0.3,-1.7,-0.3Z" class="g25_34" />
<path d="M919.6,624.7c-0.6,0.7,-0.9,1.7,-0.9,2.9c0,1.2,0.3,2.2,0.9,3c0.6,0.7,1.4,1.1,2.5,1.1c1.1,0,1.9,-0.4,2.5,-1.1c0.6,-0.8,0.9,-1.8,0.9,-3c0,-1.2,-0.3,-2.2,-0.9,-2.9c-0.6,-0.8,-1.4,-1.2,-2.5,-1.2c-1,0,-1.9,0.4,-2.5,1.2Zm0.9,5.1c-0.4,-0.6,-0.6,-1.3,-0.6,-2.2c0,-0.9,0.2,-1.6,0.6,-2.2c0.3,-0.6,0.9,-0.9,1.6,-0.9c0.7,0,1.3,0.3,1.7,0.9c0.3,0.6,0.5,1.3,0.5,2.2c0,0.9,-0.2,1.6,-0.6,2.2c-0.4,0.6,-0.9,0.9,-1.6,0.9c-0.7,0,-1.2,-0.3,-1.6,-0.9Z" class="g25_34" />
<path d="M928.6,624.7c-0.6,0.7,-0.9,1.7,-0.9,2.9c0,1.2,0.3,2.2,0.9,3c0.6,0.7,1.5,1.1,2.5,1.1c1.1,0,1.9,-0.4,2.5,-1.1c0.6,-0.8,0.9,-1.8,0.9,-3c0,-1.2,-0.3,-2.2,-0.9,-2.9c-0.6,-0.8,-1.4,-1.2,-2.5,-1.2c-1,0,-1.9,0.4,-2.5,1.2Zm0.9,5.1c-0.4,-0.6,-0.6,-1.3,-0.6,-2.2c0,-0.9,0.2,-1.6,0.6,-2.2c0.3,-0.6,0.9,-0.9,1.6,-0.9c0.7,0,1.3,0.3,1.7,0.9c0.4,0.6,0.5,1.3,0.5,2.2c0,0.9,-0.2,1.6,-0.6,2.2c-0.4,0.6,-0.9,0.9,-1.6,0.9c-0.7,0,-1.2,-0.3,-1.6,-0.9Z" class="g25_34" />
<path d="M942.9,630.2c-0.6,0.3,-1.2,0.5,-1.8,0.5c-0.4,0,-0.6,-0.2,-0.8,-0.4C940.1,630,940,629.7,940,629.2l0,-4.5l2.5,0l0,-1l-2.5,0l0,-2.1l-1.2,0l0,2.1l-1.4,0l0,1l1.4,0l0,4.8c0,1.5,0.7,2.2,2.1,2.2c0.7,0,1.5,-0.2,2.2,-0.5l-0.2,-1Z" class="g25_34" />
<path d="M952.3,627.3c0,-1.1,-0.3,-2.1,-0.9,-2.7c-0.6,-0.7,-1.3,-1.1,-2.2,-1.1c-1,0,-1.8,0.4,-2.4,1.1c-0.6,0.8,-0.9,1.8,-0.9,3c0,1.3,0.3,2.3,1,3c0.7,0.7,1.6,1.1,2.7,1.1c0.9,0,1.7,-0.2,2.4,-0.5l-0.2,-0.9c-0.7,0.3,-1.4,0.4,-2.1,0.4c-0.8,0,-1.4,-0.3,-1.9,-0.9c-0.5,-0.5,-0.7,-1.3,-0.7,-2.1l5.2,0l0,-0.4Zm-5.2,-0.6c0.1,-0.6,0.3,-1.2,0.7,-1.6c0.4,-0.4,0.9,-0.6,1.5,-0.6c0.4,0,0.8,0.3,1.2,0.7c0.4,0.4,0.6,0.9,0.6,1.5l-4,0Z" class="g25_34" />
<path d="M959.5,623.5c-0.9,0,-1.7,0.6,-2.3,1.8l0,-1.6l-1.2,0l0,7.8l1.2,0l0,-5c0,-0.1,0.1,-0.3,0.4,-0.6c0.2,-0.4,0.5,-0.7,0.8,-0.9c0.4,-0.2,0.7,-0.3,1,-0.3c0.4,0,0.8,0.1,1.3,0.4l0.5,-1.2c-0.5,-0.2,-1.1,-0.4,-1.7,-0.4Z" class="g25_34" />
<text 
transform="matrix(0.98, 0, 0, 1, 908, 631)"
dx="0,0,0,0,0,0" 
class="s10_34"
>footer</text>

<text 
transform="matrix(0.98, 0, 0, 1, 967, 631)"
dx="0,0,0,0,0,0,0,0,0.3,0,0,0.3,0,0,0,0,0.3,0,0,0.3,0,0,0,0,0,0,0,0.3,0,0,0,0,0,0,0,0.3,0,0,0,0,0,0.3,0,0,0,0,0,0,0,0.3,0,0,0.3,0,0,0,0.3,0,0,0,0,0,0,0.3,0,0,0.3,0,0,0,0.3,0,0,0,0,0,0.3,0,0,0,0.3,0,0,0,0,0,0,0.3,0,0,0" 
class="s9_34"
>element is used to contain content which appears at the bottom of the page. The footer may </text>

<text 
transform="matrix(0.98, 0, 0, 1, 879, 652)"
dx="0,0,0,1.8,0,0,0,1.8,0,0,0,0,1.8,0,0,0,1.8,0,0,0,0.3,0,1.8,0,0,0,0,1.8,0,0,1.8,0,0,0,1.8,0,0,0,0,0,1.8,0,0,0,0,0,1.8,0,0,0,0,0,1.8,0,0,0,1.8,0,0,0,0,0,0,1.8,0,0,0,0,1.8,0,0,0,0,0,0,0,1.8,0,1.8,0,0,0,0,0,0,0,0,0,1.8,0,0,0,0,0,0,1.8,0,0,0,1.8,0,0,0" 
class="s9_34"
>be the same for every page on the site. Quite often the footer will contain a copyright notice and may </text>

<text 
transform="matrix(0.98, 0, 0, 1, 879, 674)"
dx="0,0,0,0,0,0,0,0,-0.9,0,0,0,0,0,0,0,-0.9,0,0,0,0,0.3,0,0,0,0,0,0,-0.9,0,0,0,0,-0.9,0,0,-0.9,0,0,-0.9,0,0,0,0,0,-0.9,0,0,0,-0.3,0,0,0,-0.9,0,0,-0.9,0,0,0,0,0,0,0,0,0,-0.9,0,0,0,0,0,-1.4" 
class="s9_34"
>contain contact information such as an email address or telephone number.</text>

<text 
x="88" 
y="850" 
dx="0,0,0,0,0,0,0" 
class="s11_34"
>Daniel </text>

<text 
x="136" 
y="850" 
dx="0,0,-0.7,0,0,0,0.1,0,0,-0.7,-0.2,0,0,0,0,0,-0.3,0,0,0,0,0,0" 
class="s12_34"
>– Singer extraordinaire</text>

<text 
x="188" 
y="875" 
dx="0,0,0,0,0,0,0,0.6,0,0,0.6,0,0,0,0.6,0,0,0,0,0,0,0,0,0,0,0.6,0,0,0,0,0,-0.4,0,0.6,0,0,0.6,0,0,0,0,0,0.6,0,0,0.6,0,0,0,0,0.6,0,0,0,0.6,0,0,0,0.6,0,0,0,0,0.6,0,0.6,0,0,0,0.6,0,0,0,0,0.6,0,0,0,0,0.6,0,0,0,0,0.6,0,0,0,0,0,0,0,0.6,0,0,0,0,0.6,0,0,0" 
class="s13_34"
>Daniel is the Nanonauts' singer. He likes to sing all the time – not just when he's playing with the </text>

<text 
x="188" 
y="885" 
dx="0,0,0,0,0,0,0,0,0,0,0,-0.4,0,0,0,-0.4,0,0,0,-0.4,0,0,0,-0.4,0,0,0,-0.4,0,0,0,-0.4,0,0,-0.4,0,0,0,0,0,0,0,-0.4,0,0,-0.4,0,0,0,0,-0.4,0,0,0,0,0,0,-0.4,0,0,-0.4,0,0,0,0,0,0,0,-0.4,0,0,-0.4,0,0,0,0" 
class="s13_34"
>Nanonauts! His mum and dad say he learned to sing before he learned to talk!</text>

<text 
x="188" 
y="894" 
dx="0,0,0,0,0,0,0,-0.4,0,0,0,0,-0.4,0,0,0,0,0,-0.4,0,0,0,0,0,0,0,0,-0.4,0,0,0,-0.4,0,0,-0.4,0,0,0,0,0,0,0,0,-0.4,0,0,0,-0.4,0,0,0,0,-0.4,0,0,0,0,0,0,0,0,0" 
class="s13_34"
>Daniel also plays clarinet and is learning the alto saxophone.</text>

<text 
x="564" 
y="900" 
dx="0,-0.8,0,0,-0.2,0,-0.6,0,0,0" 
class="s14_34"
>Track List</text>

<text 
x="601" 
y="915" 
dx="0,0" 
class="s15_34"
>• </text>

<text 
x="623" 
y="915" 
dx="0,0,0,0,0,0,0,0,-0.4,0,0,0,0,0,0,0,-0.4,0,0" 
class="s16_34"
>Magical Mystery Bug</text>

<text 
x="601" 
y="929" 
dx="0,0" 
class="s15_34"
>• </text>

<text 
x="623" 
y="929" 
dx="0,0,0,0,0,-0.4,0" 
class="s16_34"
>Boot It</text>

<text 
x="601" 
y="944" 
dx="0,0" 
class="s15_34"
>• </text>

<text 
x="623" 
y="944" 
dx="0,0,0,0,-0.4,0,0,0,0,-0.4,0,0,0,-0.4,0,0,0,0,0,0,0,-0.4,0,0,0" 
class="s16_34"
>The Long and Winding Code</text>

<text 
x="601" 
y="958" 
dx="0,0" 
class="s15_34"
>• </text>

<text 
x="623" 
y="958" 
dx="0,0,0,0,0,-0.4,0,0,0,0,0,0" 
class="s16_34"
>Dojo Dancing</text>

<text 
x="601" 
y="973" 
dx="0,0" 
class="s15_34"
>• </text>

<text 
x="623" 
y="973" 
dx="0,0,0,0,0,0,-0.4,0,0,0,0,0,0,0" 
class="s16_34"
>Empty Elements</text>

<text 
x="1011" 
y="774" 
dx="0,0,0,0,0,0,0,0.2,0,0,0,0.2,0,0,0,0,0,0.2,0,0.2,0,0,0,0,0,0.2,0,0,0,0.2,0,0,0.2,0,0,0,0,0,0,0.2,0,0,0,0,0,0,0,0.2,0,0,0.2,0,0,0,0,0.2,0,0,0,0,0,0,0,0,0,0,0.2,0,0,0,0,0,0,0,0,0,0,0.2,0,0,0,0.2,0,0,0,0,0,0.2,0,0,0,0,0,0,0,0,0,0,0" 
class="s4_34"
>Dervla has Grade 4 piano but in secret prefers to play electronic keyboards. She loves synthesizer </text>

<text 
x="1011" 
y="784" 
dx="0,0,0,0,0,0,0,-0.4,0,0,0,-0.4,0,0,0,0,0,0,0,-0.4,0,0,0,0,-0.4,0,0,0,0,0,-0.4,0,0,0,0,-0.4,0,0,0,-0.4,0,0,0,0,0,0,-0.4,0,0,0,0,-0.4,0,0,0,-0.4,0,0,0,0,0,0,0,0,0" 
class="s4_34"
>sounds and arguing with Holly over who should play the basslines.</text>

<text 
x="906" 
y="957" 
dx="0,0,0,0,-0.4,0,0,0,-0.4,0,0,0,0,0,0,0,0,0,0,0,-0.4,0,0,0,0,0,0,0,0,0,-0.4,0,-0.4,0,0,0,-0.4,0,0,0,0,0,0,0,0" 
class="s17_34"
>All the information copyright © the Nanonauts</text>

<text 
x="1462" 
y="957" 
dx="0,0,0,0,0,0,0,0,0,-0.4,0,0,0,0,0,0,0,0,0,0,0,0,0,0,0,0,0" 
class="s17_34"
>Contact: info@nanonauts.com</text>

<text 
x="87" 
y="262" 
dx="0,0,0,0,0" 
class="s18_34"
>Home </text>

<text 
x="129" 
y="262" 
dx="0,0,0,0,0,0,-0.6,0,0" 
class="s18_34"
>About Us </text>

<text 
x="185" 
y="262" 
dx="0,0,0,0,-0.6,0,0,0,0,0" 
class="s18_34"
>Our Songs </text>

<text 
x="249" 
y="262" 
dx="0,0,0,0,-0.6,0,0,-0.6,0,0,-0.2,0" 
class="s18_34"
>See Us Play </text>

<text 
x="318" 
y="262" 
dx="0,0,0,-0.2,0,0,0,0,-0.6,0,-0.6,0,0,0,0,0,0.2" 
class="s18_34"
>Playing a Concert</text>

<path d="M123,249l0,16" class="g26_34" />
<path d="M180,249l0,16" class="g26_34" />
<path d="M244,249l0,16" class="g26_34" />
<path d="M313,249l0,16" class="g26_34" />
<text 
x="909" 
y="263" 
dx="0,0,0,0,0" 
class="s18_34"
>Home </text>

<text 
x="951" 
y="263" 
dx="0,0,0,0,0,0,-0.6,0,0" 
class="s18_34"
>About Us </text>

<text 
x="1007" 
y="263" 
dx="0,0,0,0,-0.6,0,0,0,0,0" 
class="s18_34"
>Our Songs </text>

<text 
x="1071" 
y="263" 
dx="0,0,0,0,-0.6,0,0,-0.6,0,0,-0.2,0" 
class="s18_34"
>See Us Play </text>

<text 
x="1139" 
y="263" 
dx="0,0,0,-0.2,0,0,0,0,-0.6,0,-0.6,0,0,0,0,0,0.2" 
class="s18_34"
>Playing a Concert</text>

<path d="M945,250l0,16" class="g26_34" />
<path d="M1002,250l0,16" class="g26_34" />
<path d="M1066,250l0,16" class="g26_34" />
<path d="M1135,250l0,16" class="g26_34" />
<text 
x="1591" 
y="1019" 
dx="0,-2.6" 
class="s19_34"
>67</text>

<text 
x="35" 
y="1019" 
dx="0,-1.3" 
class="s19_34"
>66</text>



<!-- Any embedded fonts defined here -->
<style type="text/css" ><![CDATA[

@font-face {
	font-family: AndaleMono_1cn;
	src: url("fonts/AndaleMono_1cn.woff") format("woff");
}

@font-face {
	font-family: Helvetica-Light_1by;
	src: url("fonts/Helvetica-Light_1by.woff") format("woff");
}

@font-face {
	font-family: PixelSplitter-Bold_1bs;
	src: url("fonts/PixelSplitter-Bold_1bs.woff") format("woff");
}

@font-face {
	font-family: Helvetica-Bold_1bu;
	src: url("fonts/Helvetica-Bold_1bu.woff") format("woff");
}

@font-face {
	font-family: Helvetica_1e3;
	src: url("fonts/Helvetica_1e3.woff") format("woff");
}

]]></style>

</svg>
