<?xml version="1.0" encoding="UTF-8" standalone="no"?>
<!DOCTYPE svg PUBLIC "-//W3C//DTD SVG 1.1//EN"
"http://www.w3.org/Graphics/SVG/1.1/DTD/svg11.dtd">


<!-- Page 38 -->
<svg x="0" y="0" width="1645" height="1061" viewBox="0 0 1645 1061" version="1.1" xmlns="http://www.w3.org/2000/svg" xmlns:xlink="http://www.w3.org/1999/xlink"
style="display: block;margin-left: auto;margin-right: auto;">
<defs>

<style type="text/css"><![CDATA[

.g5_38{
fill: #EC2127;
}
.g14_38{
fill: none;
stroke: #11151D;
stroke-width: 1;
stroke-linecap: butt;
stroke-linejoin: miter;
stroke-miterlimit: 3;
}
.g6_38{
fill: #FED402;
}
.g8_38{
fill: #F3F9F0;
}
.g7_38{
fill: #89BA6E;
}
.g13_38{
fill: #11151D;
}
.g1_38{
fill: #FAAD60;
}
.g12_38{
fill: none;
stroke: #FFD400;
stroke-width: 5;
stroke-linecap: butt;
stroke-linejoin: miter;
stroke-miterlimit: 4;
}
.g10_38{
}
.g9_38{
fill: #D5C5DD;
}
.g11_38{
fill: #2AACE2;
}
.g2_38{
fill: #FFD400;
}
.g16_38{
fill: none;
stroke: #11151D;
stroke-width: 4;
stroke-linecap: round;
stroke-linejoin: round;
stroke-miterlimit: 4;
}
.g3_38{
fill: #FFFFFF;
}
.g4_38{
fill: #E7DEEC;
}
.g15_38{
fill: none;
stroke: #11151D;
stroke-width: 1;
stroke-linecap: butt;
stroke-linejoin: miter;
stroke-miterlimit: 4;
}

.s5_38{
font-size: 15.28px;
font-family: AndaleMono_1cn;
fill: #11151D;
}
.s6_38{
font-size: 18.33px;
font-family: PixelSplitter-Bold_1bs;
fill: #11151D;
}
.s8_38{
font-size: 12.22px;
font-family: PixelSplitter-Bold_1bs;
fill: #11151D;
}
.s7_38{
font-size: 21.39px;
font-family: PixelSplitter-Bold_1bs;
fill: #11151D;
}
.s3_38{
font-size: 15.28px;
font-family: Helvetica-Light_1by;
fill: #11151D;
}
.s4_38{
font-size: 18.33px;
font-family: Wingdings-Regular_1c4;
fill: #11151D;
}
.s1_38{
font-size: 33.61px;
font-family: PixelSplitter-Bold_-j;
fill: #FFFFFF;
}
.s2_38{
font-size: 15.28px;
font-family: Helvetica-Bold_1bu;
fill: #11151D;
}

]]></style>

</defs>
<path d="M0,0
L0,1061
L1645,1061
L1645,0 Z " 
fill="#FFFFFF" stroke="none" />
<image x="-33" y="-32" width="1713" height="1115" xlink:href="38/img/1.png" />
<image x="-13" y="-11" width="1674" height="1073" opacity="0.5" xlink:href="38/img/2.png" />
<image x="808" y="133" width="873" height="951" xlink:href="38/img/3.png" />
<path d="M47,53l0,4l-4,0l0,40l4,0l0,4l416,0l0,-4l4,0l0,-40l-4,0l0,-4Z" class="g1_38" />
<image x="97" y="810" width="118" height="186" xlink:href="38/img/4.png" />
<image x="212" y="-23" width="806" height="509" style="mix-blend-mode: multiply;" xlink:href="38/img/5.png" />
<image x="249" y="-86" width="806" height="509" style="mix-blend-mode: multiply;" xlink:href="38/img/6.png" />
<image x="212" y="-23" width="806" height="509" style="mix-blend-mode: multiply;" xlink:href="38/img/7.png" />
<image x="249" y="-86" width="806" height="509" style="mix-blend-mode: multiply;" xlink:href="38/img/8.png" />
<path d="M873,164l0,4l-4,0l0,834l4,0l0,5l400,0l0,-5l5,0l0,-834l-5,0l0,-4Z" class="g1_38" />
<path d="M1296,164l0,4l-5,0l0,88l5,0l0,5l93,0l0,-97Z" class="g2_38" />
<image x="1291" y="168" width="88" height="89" xlink:href="38/img/9.png" />
<path d="M280,810l0,5l-4,0l0,47l4,0l0,5l495,0l0,-5l4,0l0,-47l-4,0l0,-5Z" class="g3_38" />
<path d="M280,874l0,5l-4,0l0,47l4,0l0,5l495,0l0,-5l4,0l0,-47l-4,0l0,-5Z" class="g3_38" />
<path d="M280,938l0,5l-4,0l0,47l4,0l0,5l495,0l0,-5l4,0l0,-47l-4,0l0,-5Z" class="g3_38" />
<path d="M411.4,508.5l0,-176.4l-202.5,0l0,176.4L219,499.6l10.1,8.9l10.2,-8.9l10.1,8.9l10.1,-8.9l10.2,8.9l10.1,-8.9l10.1,8.9L300,499.6l10.2,8.9l10.1,-8.9l10.1,8.9l10.1,-8.9l10.2,8.9l10.1,-8.9l10.1,8.9L381,499.6l10.2,8.9l10.1,-8.9Z" class="g3_38" />
<path d="M411.4,508.5l0,-176.4l-10.5,0l0,167.9l0.4,-0.4Z" class="g4_38" />
<path d="M239,478l76,0l0,-136l-76,0l0,136Z" class="g3_38" />
<path d="M218,357l171,0l0,-15l-171,0l0,15Z" class="g5_38" />
<path d="M390,507.5l0,-150.2l-171.3,0l0,142.7l0.3,-0.4l10.1,8.9l10.2,-8.9l10.1,8.9l10.1,-8.9l10.2,8.9l10.1,-8.9l10.1,8.9L300,499.6l10.2,8.9l10.1,-8.9l10.1,8.9l10.1,-8.9l10.2,8.9l10.1,-8.9l10.1,8.9L381,499.6Z" class="g6_38" />
<path d="M235,437l138,0l0,-73l-138,0l0,73Z" class="g7_38" />
<path d="M373,506.7l0,-61.2l-137.4,0l0,57.3l3.7,-3.2l10.1,8.9l10.1,-8.9l10.2,8.9l10.1,-8.9l10.1,8.9L300,499.6l10.2,8.9l10.1,-8.9l10.1,8.9l10.1,-8.9l10.2,8.9l10.1,-8.9l10.1,8.9Z" class="g7_38" />
<path d="M242,399l24,0l0,-30l-24,0l0,30Z" class="g8_38" />
<path d="M242,480l24,0l0,-30l-24,0l0,30Z" class="g8_38" />
<path d="M400,342l11,0l0,-10l-11,0l0,10Z" class="g9_38" />
<path d="M405.5,335.5l-0.5,0c-0.1,0,-0.1,0,-0.2,0.1c0,0,-0.1,0.1,-0.1,0.2l0,0.5l-0.5,0c-0.1,0,-0.1,0,-0.2,0.1c0,0,0,0.1,0,0.1l0,0.6l-0.5,0c-0.1,0,-0.1,0,-0.2,0c0,0.1,-0.1,0.1,-0.1,0.2l0,0.7c0,0.1,0.1,0.2,0.1,0.2c0.1,0.1,0.1,0.1,0.2,0.1l0.7,0c0.1,0,0.1,0,0.2,-0.1c0,0,0.1,-0.1,0.1,-0.2l0,-0.4l0.5,0c0.1,0,0.1,-0.1,0.2,-0.1c0,-0.1,0,-0.1,0,-0.2l0,-0.5l0.6,0c0,0,0.1,0,0.1,-0.1c0.1,0,0.1,-0.1,0.1,-0.2l0,-0.5l0.3,0l0,0.5c0,0.1,0.1,0.1,0.1,0.2c0,0,0.1,0.1,0.2,0.1l0.5,0l0,0.5c0,0,0,0.1,0.1,0.1c0,0.1,0.1,0.1,0.1,0.1l0.6,0l0,0.5c0,0.1,0,0.2,0,0.2c0.1,0.1,0.1,0.1,0.2,0.1l0.7,0c0.1,0,0.1,0,0.2,-0.1c0,0,0,-0.1,0,-0.2l0,-0.6c0,-0.1,0,-0.2,0,-0.2c-0.1,-0.1,-0.1,-0.1,-0.2,-0.1l-0.5,0l0,-0.5c0,-0.1,0,-0.1,-0.1,-0.2c0,0,-0.1,-0.1,-0.2,-0.1l-0.5,0l0,-0.5c0,-0.1,0,-0.1,-0.1,-0.2c0,0,-0.1,0,-0.2,0l-0.5,0l0,-0.6c0,0,0,-0.1,0,-0.1c-0.1,-0.1,-0.2,-0.1,-0.2,-0.1l-0.7,0c-0.1,0,-0.2,0,-0.2,0.1c-0.1,0,-0.1,0.1,-0.1,0.1Z" class="g10_38" />
<path d="M162.6,478.3l0,-146.2l-119,0l0,146.2l9.9,-8.7l10,8.7l9.9,-8.7l9.9,8.7l9.9,-8.7l9.9,8.7l9.9,-8.7l10,8.7l9.9,-8.7l9.9,8.7l9.9,-8.7Z" class="g3_38" />
<path d="M162.6,478.3l0,-146.2l-10.5,0l0,138l0.6,-0.5Z" class="g4_38" />
<path d="M52,357l89,0l0,-15l-89,0l0,15Z" class="g5_38" />
<path d="M141.6,477.2l0,-119.9l-88.7,0l0,112.8l0.6,-0.5l10,8.7l9.9,-8.7l9.9,8.7l9.9,-8.7l9.9,8.7l9.9,-8.7l10,8.7l9.9,-8.7Z" class="g6_38" />
<path d="M132.8,469.6l0,-104.8l-71.1,0l0,112l1.8,1.5l9.9,-8.7l9.9,8.7l9.9,-8.7l9.9,8.7l9.9,-8.7l10,8.7Z" class="g7_38" />
<path d="M67,399l24,0l0,-30l-24,0l0,30Z" class="g8_38" />
<path d="M152,342l10,0l0,-10l-10,0l0,10Z" class="g9_38" />
<path d="M156.9,335.5l-0.6,0c0,0,-0.1,0,-0.1,0.1c-0.1,0,-0.1,0.1,-0.1,0.2l0,0.5l-0.5,0c-0.1,0,-0.2,0,-0.2,0.1c-0.1,0,-0.1,0.1,-0.1,0.1l0,0.6l-0.5,0c0,0,-0.1,0,-0.1,0c-0.1,0.1,-0.1,0.1,-0.1,0.2l0,0.7c0,0.1,0,0.2,0.1,0.2c0,0.1,0.1,0.1,0.1,0.1l0.8,0c0,0,0.1,0,0.1,-0.1c0.1,0,0.1,-0.1,0.1,-0.2l0,-0.4l0.5,0c0.1,0,0.2,-0.1,0.2,-0.1c0.1,-0.1,0.1,-0.1,0.1,-0.2l0,-0.5l0.5,0c0.1,0,0.1,0,0.2,-0.1c0,0,0.1,-0.1,0.1,-0.2l0,-0.5l0.3,0l0,0.5c0,0.1,0,0.1,0,0.2c0.1,0,0.2,0.1,0.2,0.1l0.5,0l0,0.5c0,0,0.1,0.1,0.1,0.1c0.1,0.1,0.1,0.1,0.2,0.1l0.5,0l0,0.5c0,0.1,0,0.2,0.1,0.2c0,0.1,0.1,0.1,0.2,0.1l0.6,0c0.1,0,0.2,0,0.2,-0.1c0.1,0,0.1,-0.1,0.1,-0.2l0,-0.6c0,-0.1,0,-0.2,-0.1,-0.2c0,-0.1,-0.1,-0.1,-0.2,-0.1l-0.5,0l0,-0.5c0,-0.1,0,-0.1,0,-0.2c-0.1,0,-0.2,-0.1,-0.2,-0.1l-0.6,0l0,-0.5c0,-0.1,0,-0.1,0,-0.2c-0.1,0,-0.1,0,-0.2,0l-0.5,0l0,-0.6c0,0,0,-0.1,-0.1,-0.1c0,-0.1,-0.1,-0.1,-0.2,-0.1l-0.7,0c-0.1,0,-0.1,0,-0.2,0.1c0,0,0,0.1,0,0.1Z" class="g10_38" />
<path d="M411.4,791.7l0,-267.1l-368.1,0l0,267.1l10.2,-9l10.3,9l10.2,-9l10.2,9l10.2,-9l10.3,9l10.2,-9l10.2,9l10.2,-9l10.3,9l10.2,-9l10.2,9l10.2,-9l10.3,9l10.2,-9l10.2,9l10.2,-9l10.3,9l10.2,-9l10.2,9l10.2,-9l10.3,9l10.2,-9l10.2,9l10.2,-9l10.3,9l10.2,-9l10.2,9l10.2,-9l10.3,9l10.2,-9l10.2,9l10.2,-9l10.3,9l10.2,-9Z" class="g3_38" />
<path d="M411.4,791.7l0,-267.1l-11,0l0,258.8l0.8,-0.7Z" class="g4_38" />
<path d="M54,553l334,0l0,-16L54,537l0,16Z" class="g5_38" />
<path d="M282.1,785.9l0,-232.5l-227.5,0l0,230.3l9.2,8l10.2,-9l10.2,9l10.2,-9l10.3,9l10.2,-9l10.2,9l10.2,-9l10.3,9l10.2,-9l10.2,9l10.2,-9l10.3,9l10.2,-9l10.2,9l10.2,-9l10.3,9l10.2,-9l10.2,9l10.2,-9l10.3,9l10.2,-9Z" class="g6_38" />
<path d="M65,618l204,0l0,-57L65,561l0,57Z" class="g7_38" />
<path d="M65,685l204,0l0,-58L65,627l0,58Z" class="g7_38" />
<path d="M281,764l107,0l0,-211l-107,0l0,211Z" class="g11_38" />
<path d="M388.2,789.3l0,-28.5l-106.3,0l0,24.9l6.8,6l10.2,-9l10.3,9l10.2,-9l10.2,9l10.2,-9l10.3,9l10.2,-9l10.2,9l10.2,-9Z" class="g11_38" />
<path d="M72,597l26,0l0,-31l-26,0l0,31Z" class="g8_38" />
<path d="M65,751l204,0l0,-58L65,693l0,58Z" class="g7_38" />
<path d="M269.4,790.6l0,-29.8l-204.3,0l0,29.7L74,782.7l10.2,9l10.2,-9l10.3,9l10.2,-9l10.2,9l10.2,-9l10.3,9l10.2,-9l10.2,9l10.2,-9l10.3,9l10.2,-9l10.2,9l10.2,-9l10.3,9l10.2,-9l10.2,9l10.2,-9l10.3,9Z" class="g7_38" />
<path d="M72,663l26,0l0,-31l-26,0l0,31Z" class="g8_38" />
<path d="M72,725l26,0l0,-26l-26,0l0,26Z" class="g8_38" />
<path d="M98.3,786.1l0,-20l-26.1,0l0,18.2L74,782.7l10.2,9l10.2,-9Z" class="g8_38" />
<path d="M400,535l11,0l0,-11l-11,0l0,11Z" class="g9_38" />
<path d="M405.3,528.2l-0.6,0c0,0,-0.1,0,-0.2,0.1c0,0,0,0.1,0,0.2l0,0.5l-0.6,0c0,0,-0.1,0,-0.2,0.1c0,0.1,0,0.1,0,0.2l0,0.5l-0.5,0c-0.1,0,-0.2,0,-0.2,0.1c-0.1,0,-0.1,0.1,-0.1,0.2l0,0.7c0,0.1,0,0.2,0.1,0.2c0,0.1,0.1,0.1,0.2,0.1l0.7,0c0.1,0,0.2,0,0.2,-0.1c0.1,0,0.1,-0.1,0.1,-0.2l0,-0.5l0.5,0c0.1,0,0.2,0,0.2,0c0.1,-0.1,0.1,-0.1,0.1,-0.2l0,-0.6l0.5,0c0.1,0,0.2,0,0.2,0c0.1,-0.1,0.1,-0.1,0.1,-0.2l0,-0.6l0.3,0l0,0.5c0,0.1,0,0.2,0.1,0.2c0,0.1,0.1,0.1,0.2,0.1l0.5,0l0,0.5c0,0.1,0,0.2,0.1,0.2c0.1,0.1,0.1,0.1,0.2,0.1l0.5,0l0,0.5c0,0.1,0,0.2,0.1,0.2c0,0.1,0.1,0.1,0.2,0.1l0.7,0c0.1,0,0.1,0,0.2,-0.1c0,0,0.1,-0.1,0.1,-0.2l0,-0.7c0,0,-0.1,-0.1,-0.1,-0.1c-0.1,-0.1,-0.1,-0.1,-0.2,-0.1l-0.5,0l0,-0.6c0,0,-0.1,-0.1,-0.1,-0.1c-0.1,-0.1,-0.1,-0.1,-0.2,-0.1l-0.6,0l0,-0.6c0,0,0,-0.1,0,-0.2c-0.1,0,-0.1,0,-0.2,0l-0.6,0l0,-0.6c0,0,0,-0.1,0,-0.2c-0.1,0,-0.2,0,-0.2,0l-0.8,0c0,0,-0.1,0,-0.2,0c0,0.1,0,0.2,0,0.2Z" class="g10_38" />
<path d="M1391,207l0,191l2,0l2,0l0,2l0,2l200,0l0,-2l0,-2l3,0l2,0l0,-186l-2,0l-3,0l0,-2l0,-3Z" class="g3_38" />
<path d="M1391.5,207.5l0,191l2,0l2,0l0,2l0,2l200,0l0,-2l0,-2l3,0l2,0l0,-186l-2,0l-3,0l0,-2l0,-3l-204,0Z" class="g12_38" />
<path d="M1388,164l0,44l152,0l0,-40l-5,0l0,-4Z" class="g2_38" />
<path d="M294,618l81,0l0,-57l-81,0l0,57Z" class="g7_38" />
<path d="M294,684l81,0l0,-57l-81,0l0,57Z" class="g7_38" />
<path d="M294,751l81,0l0,-58l-81,0l0,58Z" class="g7_38" />
<path d="M47,53l0,4l-4,0l0,40l4,0l0,4l416,0l0,-4l4,0l0,-40l-4,0l0,-4Z" class="g13_38" />
<text 
x="60" 
y="90" 
dx="0,-3.3,-5,-4.3,-4.1,-3.3,-2.8,0,0,-2.9,-4.8,-3,-3.8,-2.7,-3.4,-3.6,-3.5,-3" 
class="s1_38"
>Getting responsive</text>

<text 
transform="matrix(0.98, 0, 0, 1, 56, 128)"
dx="0,0,0,0,0,0,0,0,0,0" 
class="s2_38"
>Responsive</text>

<text 
transform="matrix(0.98, 0, 0, 1, 147, 128)"
dx="0,0,0,0,0,0,0,0,0,3.1,0,-0.3,0,3.1,0,0,0,0,0,3.1,0,0,0,0,3.1,0,0,0,0,3.1,0,0,3.1,0,0,0,3.1,0,0,0,0,0,3.1,0,0" 
class="s3_38"
>websites are sites that work on all types of </text>

<text 
transform="matrix(0.98, 0, 0, 1, 56, 150)"
dx="0,0,0,0,0,0,0,0,5.9,0,5.9,0,0,0,0,0,0,0,5.9,0,0,0,0,0,0,0,0,0,0,5.9,0,0,0,0,0,0,0,0,5.9,0,0,0,0,0,0,0,0,5.9,0,0,0,0,0,0" 
class="s3_38"
>devices – desktop computers, laptops, tablets, mobile </text>

<text 
transform="matrix(0.98, 0, 0, 1, 56, 171)"
dx="0,0,0,0,0,0,0,0,5.1,0,0,0,0,0,0,0,0,0,0,5.1,0,0,0,0,0,0,0,0,5.1,0,0,5.1,0,0,0,0,5.1,0,0,5.1,0,0,0,0,0,0,0,0,5.1,0,0,0" 
class="s3_38"
>phones. Responsive websites do this by changing the </text>

<text 
transform="matrix(0.98, 0, 0, 1, 56, 193)"
dx="0,0,0,0,0,2.7,0,0,0,2.7,0,0,0,0,0,0,0,0,2.7,0,0,2.7,0,0,0,2.7,0,0,0,0,0,0,0,0,2.7,0,0,2.7,0,2.7,0,0,0,2.7,0,0,0,0,2.7,0,0,2.7,0,0,0,0" 
class="s3_38"
>size and position of the elements on a web page to suit </text>

<text 
transform="matrix(0.98, 0, 0, 1, 56, 214)"
dx="0,0,0,0,1.2,0,0,0,0,0,0,1.2,0,0,1.2,0,0,-0.3,0,0,0,1.2,0,0,0,0,1.2,0,0,1.2,0,0,0,0,0,0,0,0,0,0,1.2,0,0,0,1.2,0,0,0,0,0,0,0,1.2,0,0,0,0,0" 
class="s3_38"
>the amount of screen that is available. The diagram below </text>

<text 
transform="matrix(0.98, 0, 0, 1, 56, 235)"
dx="0,0,0,0,0,0,-0.2,0,0,0,-0.2,0,0,0,-0.2,0,0,0,0,0,0,0,0,-1.1,0,-0.2,0,0,0,0,0,-0.2,0,0,-0.2,0,0,0,0,-0.2,0,0,0,0,0,-0.2,0,0,0,0,0,0,-0.2,0,0,0" 
class="s3_38"
>shows how the Nanonaut’s About Us page might change its </text>

<text 
transform="matrix(0.98, 0, 0, 1, 56, 257)"
dx="0,0,0,0,0,0,0,-0.9,0,0,0,0,0,0,0,0,0,-0.9,0,0,-0.9,0,0,0,-0.9,0,0,0,0,0,0,-0.9,0,0,-0.9,0,0,-0.9,0,0,0,0,0,-0.9,0,0,0,0,0,0,-0.9,0,0" 
class="s3_38"
>layout depending on the device it is being viewed on.</text>

<text 
transform="matrix(0.98, 0, 0, 1, 433, 364)"
dx="0,0,-0.3,0,0,-0.9,0,0,0,0,0,-0.9,0,0,0,0,0,0,0,0,-0.9,0,0,-0.9,0,0,0,-0.9,0,0,0,-0.9,0,0,0,0,0" 
class="s3_38"
>From these examples we can see that: </text>

<text 
transform="matrix(0.98, 0, 0, 1, 433, 385)"
dx="0" 
class="s4_38"
>[</text>

<text 
transform="matrix(0.98, 0, 0, 1, 454, 385)"
dx="0,0,0,0,0,0,0,0.9,0,0,0.9,0,0,0,0,0,0,0.9,0,0,0,0,0,0,0,0,0.9,0,0,0,0.9,0,0,0,0,0,0,0.9,0,0,0,0,0,0.9,0,0,0" 
class="s3_38"
>mobile or tablet displays can simply stack the </text>

<text 
transform="matrix(0.98, 0, 0, 1, 433, 406)"
dx="0,0,0,0,0,0,0,0,0,0,-0.9,0,0,0,-0.9,0,0,-0.9,0,0,0,-0.9,0,0,-0.9,0,0,0,-0.9,0,0,0,0,-1.4,0" 
class="s3_38"
>elements, one on top of the other. </text>

<text 
transform="matrix(0.98, 0, 0, 1, 433, 428)"
dx="0" 
class="s4_38"
>[</text>

<text 
transform="matrix(0.98, 0, 0, 1, 454, 428)"
dx="0,0,0,0,0,0,0,0" 
class="s3_38"
>desktop </text>

<text 
transform="matrix(0.98, 0, 0, 1, 535, 428)"
dx="0,0,0,0,0,0,0,0,0" 
class="s3_38"
>machines </text>

<text 
transform="matrix(0.98, 0, 0, 1, 627, 428)"
dx="0,0,0,0,0,0" 
class="s3_38"
>allow </text>

<text 
transform="matrix(0.98, 0, 0, 1, 688, 428)"
dx="0,0,0,0" 
class="s3_38"
>for </text>

<text 
transform="matrix(0.98, 0, 0, 1, 733, 428)"
dx="0,0,0,0,0,0" 
class="s3_38"
>extra </text>

<text 
transform="matrix(0.98, 0, 0, 1, 433, 449)"
dx="0,0,0,0,0,0,0" 
class="s3_38"
>width: </text>

<text 
transform="matrix(0.98, 0, 0, 1, 488, 449)"
dx="0,0,0,0" 
class="s3_38"
>the </text>

<path d="M532.7,447.9l0,-3.4c0,-1.8,-0.9,-2.8,-2.6,-2.8c-0.9,0,-1.9,0.3,-2.9,0.8l0.3,0.9c0.3,-0.2,0.7,-0.3,1.1,-0.5c0.5,-0.1,0.8,-0.2,1.1,-0.2c1.3,0,1.9,0.7,1.9,2l0,0.4l-1.3,0.1c-0.6,0.1,-1.1,0.1,-1.5,0.3c-0.4,0.1,-0.8,0.2,-1.1,0.4c-0.3,0.2,-0.5,0.5,-0.6,0.8c-0.2,0.3,-0.3,0.6,-0.3,1c0,0.6,0.2,1.2,0.7,1.6c0.4,0.4,0.9,0.6,1.5,0.6c1.1,0,2,-0.5,2.6,-1.5c0,0.6,0.1,1,0.2,1.3l1.1,0c-0.1,-0.5,-0.2,-1.1,-0.2,-1.8Zm-2.2,0.5c-0.4,0.3,-0.8,0.4,-1.2,0.4c-0.4,0,-0.7,-0.1,-0.9,-0.3C528.1,448.2,528,448,528,447.6c0,-0.4,0.2,-0.7,0.4,-0.9c0.3,-0.2,0.7,-0.4,1,-0.5c0.4,0,1.1,-0.1,2.2,-0.2l0,1.4c-0.3,0.4,-0.7,0.8,-1.1,1Z" class="g14_38" />
<path d="M541.2,442.1c-0.8,-0.3,-1.5,-0.4,-2.1,-0.4c-0.9,0,-1.7,0.2,-2.3,0.6c-0.5,0.4,-0.8,1,-0.8,1.6c0,0.3,0,0.6,0.2,0.9c0.1,0.2,0.3,0.4,0.5,0.6c0.2,0.2,0.5,0.3,0.8,0.4c0.3,0.1,0.7,0.2,1.3,0.4c0.7,0.2,1.2,0.5,1.4,0.7c0.2,0.2,0.3,0.4,0.3,0.7c0,0.4,-0.2,0.7,-0.6,1c-0.4,0.2,-0.9,0.3,-1.6,0.3c-0.7,0,-1.4,-0.1,-2,-0.4l-0.3,1c0.7,0.3,1.4,0.4,2.4,0.4c0.9,0,1.7,-0.2,2.3,-0.6c0.6,-0.5,0.9,-1.1,0.9,-1.8c0,-0.4,-0.1,-0.7,-0.2,-1c-0.2,-0.3,-0.4,-0.5,-0.7,-0.7c-0.4,-0.2,-0.8,-0.4,-1.3,-0.6l-1.1,-0.3c-0.5,-0.1,-0.8,-0.3,-1,-0.4c-0.1,-0.2,-0.2,-0.4,-0.2,-0.6c0,-0.4,0.2,-0.7,0.5,-0.9c0.4,-0.2,0.9,-0.3,1.5,-0.3c0.6,0,1.2,0.1,1.8,0.3l0.3,-0.9Z" class="g14_38" />
<path d="M547.7,439.2c-0.1,0.2,-0.2,0.4,-0.2,0.6c0,0.2,0.1,0.4,0.2,0.5c0.2,0.2,0.4,0.3,0.6,0.3c0.2,0,0.4,-0.1,0.5,-0.2c0.2,-0.2,0.2,-0.4,0.2,-0.6c0,-0.2,0,-0.4,-0.2,-0.6c-0.1,-0.1,-0.3,-0.2,-0.5,-0.2c-0.2,0,-0.4,0.1,-0.6,0.2Zm1.1,2.7l-3.4,0l0,1l2.3,0l0,6.8l1.1,0l0,-7.8Z" class="g14_38" />
<path d="M559.7,439.2l-1.1,0l0,3.7c-0.6,-0.8,-1.4,-1.2,-2.4,-1.2c-0.8,0,-1.5,0.4,-2.1,1.2c-0.5,0.7,-0.8,1.7,-0.8,2.8c0,1.2,0.3,2.2,0.8,3c0.5,0.8,1.2,1.2,2.1,1.2c0.5,0,0.9,-0.1,1.3,-0.4c0.5,-0.2,0.8,-0.5,1.1,-0.9l0,1.1l1.1,0l0,-10.5Zm-1.5,8.7c-0.3,0.3,-0.6,0.6,-0.9,0.7c-0.3,0.2,-0.5,0.3,-0.8,0.3c-0.6,0,-1.1,-0.3,-1.4,-0.9c-0.4,-0.6,-0.6,-1.3,-0.6,-2.2c0,-0.9,0.2,-1.6,0.6,-2.2c0.4,-0.6,0.8,-0.9,1.5,-0.9c0.8,0,1.4,0.5,2,1.4l0,3.2c0,0.1,-0.2,0.3,-0.4,0.6Z" class="g14_38" />
<path d="M569,445.5c0,-1.2,-0.3,-2.1,-0.9,-2.7c-0.6,-0.7,-1.4,-1.1,-2.2,-1.1c-1,0,-1.8,0.4,-2.4,1.1c-0.7,0.8,-1,1.8,-1,3c0,1.2,0.4,2.2,1.1,3c0.7,0.7,1.6,1.1,2.7,1.1c0.9,0,1.7,-0.2,2.4,-0.5l-0.2,-0.9c-0.8,0.3,-1.5,0.4,-2.2,0.4c-0.7,0,-1.3,-0.3,-1.8,-0.9c-0.5,-0.5,-0.8,-1.3,-0.8,-2.2l5.3,0l0,-0.3Zm-5.2,-0.6c0,-0.6,0.3,-1.2,0.6,-1.6c0.4,-0.4,0.9,-0.6,1.5,-0.6c0.5,0,0.9,0.3,1.3,0.7c0.3,0.4,0.5,0.9,0.5,1.5l-3.9,0Z" class="g14_38" />
<text 
transform="matrix(0.98, 0, 0, 1, 525, 449)"
dx="0,0,0,0,0" 
class="s5_38"
>aside</text>

<text 
transform="matrix(0.98, 0, 0, 1, 585, 449)"
dx="0,0,0,0,0,0,0,0" 
class="s3_38"
>element </text>

<text 
transform="matrix(0.98, 0, 0, 1, 654, 449)"
dx="0,0,0,0,0,0,0,0,0,0,0,0" 
class="s3_38"
>(containing </text>

<text 
transform="matrix(0.98, 0, 0, 1, 745, 449)"
dx="0,0,0,0" 
class="s3_38"
>the </text>

<text 
transform="matrix(0.98, 0, 0, 1, 433, 471)"
dx="0,0,0,0,0,0.3,0,0,0,6.2,0,0,0,6.2,0,0,0,0,6.2,0,0,0,0,6.2,0,6.2,0,0,0,0,0,0,0,0,0,0,6.2,0,0,0,0,0,0,0" 
class="s3_38"
>adverts) can move into a right-hand column. </text>

<text 
transform="matrix(0.98, 0, 0, 1, 433, 513)"
dx="0,-1.7,0,1.5,0,0,0,0,-0.3,0,1.5,0,0,0,1.5,0,0,0,1.5,0,0,0,0,1.5,0,0,1.5,0,0,0,0,0,0,1.5,0,1.5,0,0,0,0,1.5,0,0,1.5,0,0,0" 
class="s3_38"
>To figure out how best to design a page we can </text>

<text 
transform="matrix(0.98, 0, 0, 1, 433, 535)"
dx="0,0,0,0,5.4,0" 
class="s3_38"
>use a </text>

<text 
transform="matrix(0.98, 0, 0, 1, 484, 535)"
dx="0,0,0,0,0,0,0,0,0,0,-0.2,0" 
class="s2_38"
>mobile-first</text>

<text 
transform="matrix(0.98, 0, 0, 1, 575, 535)"
dx="0,0,0,0,-0.3,0,0,0,0,0,5.4,0,0,0,0,0,0,0,0,0,0,0,0,5.4,0,0,5.4,0" 
class="s3_38"
>approach. Mobile-first is a </text>

<text 
transform="matrix(0.98, 0, 0, 1, 433, 556)"
dx="0,0,0,0,0,0,0,0,0.4,0,0,0,0.4,0,0,0.4,0,0,0,0,0,0,0.4,0,0,0,0,0,0,0,0.4,0,0,0,0,0,0,0.4,0,0,0,0,0,0.4,0,-0.3,0,0,0,0" 
class="s3_38"
>popular way to design website pages: first create </text>

<text 
transform="matrix(0.98, 0, 0, 1, 433, 578)"
dx="0,0,2.3,0,0,0,0,0,0,2.3,0,0,0,0,2.3,0,0,0,0,0,2.3,0,0,0,0,2.3,0,0,2.3,0,0,0,2.3,0,0,0,0,0,0,0,0,2.3,0,0,0,0,0,0" 
class="s3_38"
>a design that works well on the smallest mobile </text>

<text 
transform="matrix(0.98, 0, 0, 1, 433, 599)"
dx="0,0,0,0,0,0,0,0,4.1,0,0,0,0,4.1,0,0,4.1,0,4.1,0,0,0,0,0,0,4.1,0,0,0,4.1,0,0,0,0,4.1,0,0,0,4.1,0,0,0,0,0" 
class="s3_38"
>device, such as a phone, and then add extra </text>

<text 
transform="matrix(0.98, 0, 0, 1, 433, 620)"
dx="0,0,0,0,0,0,-0.3,0,0,5.5,0,0,0,0,0,5.5,0,0,0,0,5.5,0,0,0,5.5,0,0,5.5,0,0,0,5.5,0,0,0,0,0,5.5,0,0,-0.3,0,0,0" 
class="s3_38"
>features which make use of the extra screen </text>

<text 
transform="matrix(0.98, 0, 0, 1, 433, 642)"
dx="0,0,0,0,0,0,-0.9,0,0,0,0,0,0,0,0,0,-0.9,0,0,-0.9,0,0,0,0,0,0,-0.9,0,0,0,0,0,0,0" 
class="s3_38"
>space available on larger devices.</text>

<text 
transform="matrix(0.98, 0, 0, 1, 433, 684)"
dx="0,-0.3,0,0,-0.3,0,4.6,0,0,0,0,0,4.6,0,0,4.6,0,0,0,4.6,0,4.6,0,0,0,0,0,0,0,0,0,0,0,0,4.6,0,0,0,-0.3,0,0,0,0,4.6,0,0" 
class="s3_38"
>We’re going to use a mobile-first approach to </text>

<text 
transform="matrix(0.98, 0, 0, 1, 433, 706)"
dx="0,0,0,0,0,0,2.6,0,0,0,2.6,0,0,0,0,0,2.6,0,0,2.6,0,0,0,0,2.6,0,0,2.6,0,-0.3,0,0,0,0,0,2.6,0,-0.3,0,0,0,0,0,0,0,-1.4,0" 
class="s3_38"
>style the About Us page we created previously. </text>

<text 
transform="matrix(0.98, 0, 0, 1, 433, 727)"
dx="0,-1.7,0,0,0,0,0,0,0,0,0,0,0,0,0,0,0,0,0,0,0,0,0,0,0,0,0,-0.3,0,0,0,0,0,0,0,0,0,0,0,0,0,0,0,0,-0.3,0,0,0,0" 
class="s3_38"
>To show how this works we’re going to go through </text>

<text 
transform="matrix(0.98, 0, 0, 1, 433, 749)"
dx="0,0,0,0,-0.9,0,0,0,0,0,0,0,0,0,-0.9,0,0,0,0,0" 
class="s3_38"
>the following steps:</text>

<text 
x="289" 
y="834" 
dx="0,0,0" 
class="s6_38"
>1. </text>

<text 
x="316" 
y="834" 
dx="0,0,0,0,1.2,0,0,0,0,0,-0.3,0,0,1.2,0,0,0,0,0,-0.3,0,0,0,0,0,1.2,0,0,1.2,0,0,0,1.2,0,0,0,0,0,0,0,0,0,0,1.2,0,0,0,0,0,0,0,0,1.2,0,0,1.2,0,0,0,0,1.2,0,0" 
class="s3_38"
>Add coloured backgrounds to the structural elements so that we </text>

<text 
x="316" 
y="856" 
dx="0,0,0,0,-0.9,0,0,0,0,0,0,-0.9,0,0,0,-0.9,0,0,0,-0.9,0,0,0,0,-0.9,0,-0.3,0,-0.9,0,0,0,0,0,-0.9,0,-0.3,0,0,0,0,0,0,-0.9,0,0,-0.9,0,0,0,0,0,0,0,-0.9,0,0,-0.9,0,0,0,-0.9,0,0" 
class="s3_38"
>can easily see how they are being affected by changes in the CSS</text>

<text 
x="289" 
y="898" 
dx="0,0,0" 
class="s6_38"
>2. </text>

<text 
x="316" 
y="898" 
dx="0,0,0,0,0,0,-0.7,0,0,0,-0.7,0,0,0,0,0,0,0,0,0,0,-0.7,0,0,0,0,0,0,0,0,-0.7,0,0,-0.7,0,0,0,0,-0.7,0,0,0,0,-0.7,0,0,0,0,-0.7,0,0,0,0,-0.7,0,0,0,-0.7,0,-0.3,0,-0.7,0,0,0,0,-0.7,0,0" 
class="s3_38"
>Style the structural elements so that they look good and are easy to </text>

<text 
x="316" 
y="920" 
dx="0,-0.3,0,0,0,-0.9,0,0,-0.9,0,0,0,0,0,0,-0.9,0,0,0,0,0,0,-0.9,0,0,0,-0.9,0,0,0,0,0,0,-0.9,0,0,0,0,0,0,0" 
class="s3_38"
>read on mobile phones and larger devices.</text>

<text 
x="289" 
y="963" 
dx="0,0,0" 
class="s6_38"
>3. </text>

<text 
x="316" 
y="963" 
dx="0,0,0,0,0.9,0,0,0,0,0.9,0,0,0,0,0,0.9,0,0,0,0,0,-0.3,0,0,0.9,0,0,0,0,0,0.9,0,0,0,0,0.9,0,0,0,0,0.9,0,0,0,0.9,0,0,0.9,0,0,0,0.9,0,0,0,0,0,0.9,0,0,-0.3,0,0,0" 
class="s3_38"
>Add some extra features which will make use of the extra screen </text>

<text 
x="316" 
y="984" 
dx="0,0,0,0,0,0,-0.9,0,0,0,0,0,0,0,0,0,-0.9,0,0,-0.9,0,0,0,0,0,0,-0.9,0,0,0,0,0,0,0" 
class="s3_38"
>space available on larger devices.</text>

<text 
x="70" 
y="513" 
dx="0,-1.5,-2.6,-1.6,-3.8,-1.9,-1.5" 
class="s6_38"
>desktop</text>

<text 
x="245" 
y="321" 
dx="0,-1.9,-1.7,-1.5,-2.5,-2.7" 
class="s6_38"
>tablet</text>

<text 
transform="matrix(0.98, 0, 0, 1, 876, 75)"
dx="0,0,0,0,-0.2,0,0,0,0.3,0,0,0,0,-0.2,0,0,0,0,0,-0.2,0,0,-0.2,0,0,0,-0.2,0,0,0,0,0,0,0,0,0,-0.2,0,0,0,0,0,0,0,0,0,0,0,-0.2,-1.4,0,0,-0.2,0,0,0,-0.2,0,0,0,0,-0.2,0,0,-0.2,0,0,-0.2,0,0,-0.2,0,0,0,-0.2,0,0,0,-0.2,0,0,0,0,0,0,0,0,-0.2,0,0,-0.2,0,-0.3,0,0,-0.2,0,0,0,0,0,0,0,0,0,0,0,0,0,0,0,0" 
class="s3_38"
>Our starting point is the following stylesheet. You can type it in or you can download it from http://nano.tips/</text>

<text 
transform="matrix(0.98, 0, 0, 1, 876, 96)"
dx="0,0,0,0,0,0,0,0,0,0,0,0,0,0,0,0,0,0,0,-0.4,-1.4,0,0,-0.4,0,0,0,-0.4,0,0,0,0,-0.4,0,0,0,0,0,0,0,0,-0.4,0,0,0,-0.4,0,0,0,0,-0.4,0,0,0,0,-0.4,0,0,-0.4,0,0,0,-0.4,0,0,0,0,0,-0.4,0,0,-0.4,0,0,0,0,-0.4,0,0,-0.4,0,0,0,-0.4,0,0,0,-0.3,0,-0.4,0,0,0,0,-0.4,0,0,-0.4,0,0,0,0,-0.4,0,0,-0.4,0,0,0" 
class="s3_38"
>stylesheetexample. You can also download the full code of the About Us page if you don’t want to type it all </text>

<text 
transform="matrix(0.98, 0, 0, 1, 876, 118)"
dx="0,0,0,0,-0.3,0,0,0,0,-0.3,0,0,0,0,0,0,0,0,0,0,-0.3,0,0,0,0,0,0,-0.3,0,0,0,0,0,0,0,0,0,0,-0.3,0,0,0,-0.3,0,0,0,0,0,0,0,0,0,0,-0.3,0,0,0,0,0,0,0,0,-0.3,0,0,-0.3,0,0,0,0,0,0,-0.3,0,0,0,0,-0.3,0,-0.3,0,0,0,0,0,0,0,0,0,0,0,-0.3,0,0,0,0,0,-0.3,0,0,0,0,-0.3,0,0,0,0,0,-1.4,0" 
class="s3_38"
>in. This stylesheet simply highlights the structural elements by giving each a distinctive background colour. </text>

<text 
transform="matrix(0.98, 0, 0, 1, 876, 139)"
dx="0,0,0,0,0,-0.9,0,0,0,0,-0.9,0,0,0,0,-0.9,0,0,-0.9,0,0,0,0,-0.9,0,0,0,-0.9,0,0,-0.9,0,0,-0.9,0,0,0,-0.9,0,0,0,-0.9,0,-0.3,0,0,0,0,-0.9,0,0,-0.9,0,0,0,0,0,0,0,0,-0.9,0,0,0,-0.9,0,0,0,-0.9,0,0,0,0,0,0" 
class="s3_38"
>This will make it easy for us to see the effect of applying new CSS rules. </text>

<text 
x="882" 
y="195" 
dx="0,0,0,-1.8,0,0,0,0,0,0,0,0,0,-1.8,0,0,0,0,0,-1.8,0,-1.8,0,0,0,-1.8,0,0,0,0,0,0,-1.8,0,0,-1.8,0,0,0,0,0" 
class="s5_38"
>/* technical stuff - set sizing to border</text>

<text 
x="882" 
y="214" 
dx="0,0,0,0,-1.8,0,0,0,0,0,0,-1.8,0" 
class="s5_38"
>box method */</text>

<text 
x="882" 
y="250" 
dx="0,0,0,0,0,-1.8" 
class="s5_38"
>html {</text>

<text 
x="882" 
y="269" 
dx="0,0,0,0,0,0,0,0,0,0,0,0,-1.8,0,0,0,0,0,0,0,0,0,0" 
class="s5_38"
>box-sizing: border-box;</text>

<text 
x="882" 
y="287" 
dx="0" 
class="s5_38"
>}</text>

<text 
x="882" 
y="324" 
dx="0,0,0,-1.8,0,0,0,0,0,0,0,0,0,-1.8,0,0,0,0,0,0,0,-1.8" 
class="s5_38"
>*, *:before, *:after {</text>

<text 
x="882" 
y="342" 
dx="0,0,0,0,0,0,0,0,0,0,0,0,-1.8,0,0,0,0,0,0,0" 
class="s5_38"
>box-sizing: inherit;</text>

<text 
x="882" 
y="360" 
dx="0" 
class="s5_38"
>}</text>

<text 
x="882" 
y="397" 
dx="0,0,0,-1.8,0,0,0,0,0,-1.8,0,0,0,-1.8,0,0,0,0,0,0,0,-1.8,0,0,0,0,0,0,0,0,0,0,-1.8,0,0,0,0,0,0,0,0,-1.8,0" 
class="s5_38"
>/* style the various structural elements */</text>

<text 
x="882" 
y="415" 
dx="0,0,0,0,0,-1.8" 
class="s5_38"
>html {</text>

<text 
x="882" 
y="434" 
dx="0,0,0,0,0,0,0,0,0,0,0,0,0,0,0,0,0,0,-1.8,0,0,0,0" 
class="s5_38"
>background-color: Gray;</text>

<text 
x="882" 
y="452" 
dx="0" 
class="s5_38"
>}</text>

<text 
x="882" 
y="489" 
dx="0,0,0,0,0,-1.8" 
class="s5_38"
>body {</text>

<text 
x="882" 
y="507" 
dx="0,0,0,0,0,0,0,0,0,0,0,0,0,0,0,0,0,0,-1.8,0,0,0,0,0" 
class="s5_38"
>background-color: White;</text>

<text 
x="882" 
y="525" 
dx="0" 
class="s5_38"
>}</text>

<text 
x="882" 
y="562" 
dx="0,0,0,0,0,0,0,-1.8" 
class="s5_38"
>header {</text>

<text 
x="882" 
y="580" 
dx="0,0,0,0,0,0,0,0,0,0,0,0,0,0,0,0,0,0,-1.8,0,0,0,0,0,0,0" 
class="s5_38"
>background-color: #F45556;</text>

<text 
x="882" 
y="599" 
dx="0" 
class="s5_38"
>}</text>

<text 
x="882" 
y="635" 
dx="0,0,0,0,-1.8" 
class="s5_38"
>nav {</text>

<text 
x="882" 
y="654" 
dx="0,0,0,0,0,0,0,0,0,0,0,0,0,0,0,0,0,0,-1.8,0,0,0,0,0,0,0,0" 
class="s5_38"
>background-color: #FFCAB68;</text>

<text 
x="882" 
y="672" 
dx="0" 
class="s5_38"
>}</text>

<text 
x="882" 
y="709" 
dx="0,0,0,0,0,0,0,0,-1.8" 
class="s5_38"
>article {</text>

<text 
x="882" 
y="727" 
dx="0,0,0,0,0,0,0,0,0,0,0,0,0,0,0,0,0,0,-1.8,0,0,0,0,0,0,0" 
class="s5_38"
>background-color: #FFD239;</text>

<text 
x="882" 
y="745" 
dx="0" 
class="s5_38"
>}</text>

<text 
x="882" 
y="782" 
dx="0,0,0,0,0,0,0,0,-1.8" 
class="s5_38"
>section {</text>

<text 
x="882" 
y="800" 
dx="0,0,0,0,0,0,0,0,0,0,0,0,0,0,0,0,0,0,-1.8,0,0,0,0,0,0,0" 
class="s5_38"
>background-color: #88BB75;</text>

<text 
x="882" 
y="819" 
dx="0" 
class="s5_38"
>}</text>

<text 
x="882" 
y="855" 
dx="0,0,0,0,0,0,-1.8" 
class="s5_38"
>aside {</text>

<text 
x="882" 
y="874" 
dx="0,0,0,0,0,0,0,0,0,0,0,0,0,0,0,0,0,0,-1.8,0,0,0,0,0,0,0" 
class="s5_38"
>background-color: #1EADDF;</text>

<text 
x="882" 
y="892" 
dx="0" 
class="s5_38"
>}</text>

<text 
x="882" 
y="929" 
dx="0,0,0,0,0,0,0,-1.8" 
class="s5_38"
>footer {</text>

<text 
x="882" 
y="947" 
dx="0,0,0,0,0,0,0,0,0,0,0,0,0,0,0,0,0,0,-1.8,0,0,0,0,0,0,0" 
class="s5_38"
>background-color: #BA99C0;</text>

<text 
x="882" 
y="965" 
dx="0" 
class="s5_38"
>}</text>

<text 
x="1401" 
y="235" 
dx="0,0,0,0" 
class="s3_38"
>Use </text>

<text 
x="1442" 
y="235" 
dx="0,0,0,0,0,0,0,0" 
class="s2_38"
>comments</text>

<text 
x="1532" 
y="235" 
dx="0,0,0,9.5,0,0,0,0" 
class="s3_38"
>in your </text>

<text 
x="1401" 
y="257" 
dx="0,0,0,0,0,5.6,0,0,5.6,0,0,0,5.6,0,0,0,0,0,0,5.6,0,0,0,0" 
class="s3_38"
>code to let people know </text>

<text 
x="1401" 
y="278" 
dx="0,0,0,0,0,5.8,0,0,0,0,5.8,0,0,0,5.8,0,0,0,0,0,5.8,0,0,0,0,0" 
class="s3_38"
>what each bit does. (It's </text>

<text 
x="1401" 
y="299" 
dx="0,0,0,0,0,3,0,0,0,0,0,3,0,0,3,0,0,0,3,0,0,0,0,3,0,0" 
class="s3_38"
>also handy if you need to </text>

<text 
x="1401" 
y="321" 
dx="0,-0.3,0,0,0,0,0,-0.9,0,0,0,0,0,0,0,0,0" 
class="s3_38"
>remind yourself!)</text>

<text 
x="1401" 
y="364" 
dx="0,0,0,0,0,0,0,0,0" 
class="s3_38"
>Comments </text>

<text 
x="1503" 
y="364" 
dx="0,0,0,0,0.3,0" 
class="s3_38"
>start </text>

<text 
x="1560" 
y="364" 
dx="0,0,0,0,0" 
class="s3_38"
>with </text>

<path d="M1407.9,374.8l-4.6,10.9l1.1,0l4.6,-10.9l-1.1,0Z" class="g15_38" />
<path d="M1416.3,377.9l1.8,-1.2l-0.4,-0.8l-1.8,1.2l0,-2.1l-0.8,0l0,2.1l-1.8,-1.2l-0.5,0.8l1.9,1.2l-1.9,1.2l0.5,0.8l1.8,-1.2l0,2.1l0.8,0l0,-2.1l1.8,1.2l0.4,-0.8l-1.8,-1.2Z" class="g15_38" />
<text 
x="1401" 
y="385" 
dx="0,0,0" 
class="s5_38"
>/* </text>

<text 
x="1427" 
y="385" 
dx="0,0,0,0,-0.9,0,0,0,-0.9,0,0,0,0" 
class="s3_38"
>and end with </text>

<path d="M1522.6,377.9l1.8,-1.2l-0.4,-0.8l-1.8,1.2l0,-2.1l-0.8,0l0,2.1l-1.8,-1.2l-0.4,0.8l1.8,1.2l-1.8,1.2l0.4,0.8l1.8,-1.2l0,2.1l0.8,0l0,-2.1l1.8,1.2l0.4,-0.8l-1.8,-1.2Z" class="g15_38" />
<path d="M1532.5,374.8l-4.5,10.9l1.1,0l4.6,-10.9l-1.2,0Z" class="g15_38" />
<text 
x="1517" 
y="385" 
dx="0,0" 
class="s5_38"
>*/</text>

<text 
x="1538" 
y="385" 
dx="0,0,0,-0.9,0,0,0" 
class="s3_38"
>in CSS.</text>

<text 
x="1392" 
y="193" 
dx="0,-2.1,-2.1,-2.9,-1.8,0,0,-2.6,-2.1" 
class="s7_38"
>NINJA TIP</text>

<path d="M1192,215l0,103l203,0" class="g16_38" />
<path d="M1190.4,214.8l-1.4,0c-0.2,0,-0.3,0,-0.4,0.2c-0.2,0.1,-0.2,0.2,-0.2,0.4l0,1.4l-1.4,0c-0.2,0,-0.3,0,-0.5,0.2c-0.1,0.1,-0.1,0.2,-0.1,0.4l0,1.4l-1.3,0c-0.1,0,-0.3,0,-0.4,0.2c-0.2,0.1,-0.2,0.2,-0.2,0.4l0,1.9c0,0.2,0,0.4,0.2,0.5c0.1,0.1,0.3,0.2,0.4,0.2l1.9,0c0.2,0,0.4,-0.1,0.5,-0.2c0.1,-0.1,0.2,-0.3,0.2,-0.5l0,-1.2l1.3,0c0.2,0,0.4,-0.1,0.5,-0.2c0.1,-0.1,0.2,-0.3,0.2,-0.5l0,-1.3l1.3,0c0.2,0,0.4,-0.1,0.5,-0.2c0.1,-0.2,0.2,-0.3,0.2,-0.5l0,-1.3l0.8,0l0,1.2c0,0.2,0.1,0.3,0.2,0.5c0.1,0.1,0.3,0.2,0.5,0.2l1.3,0l0,1.3c0,0.2,0.1,0.3,0.2,0.5c0.1,0.1,0.3,0.2,0.5,0.2l1.3,0l0,1.3c0,0.2,0.1,0.4,0.2,0.5c0.1,0.1,0.3,0.2,0.5,0.2l1.8,0c0.1,0,0.3,-0.1,0.4,-0.2c0.1,-0.1,0.2,-0.3,0.2,-0.5l0,-1.7c0,-0.2,-0.1,-0.4,-0.2,-0.5c-0.1,-0.1,-0.3,-0.2,-0.4,-0.2l-1.4,0l0,-1.4c0,-0.1,-0.1,-0.3,-0.2,-0.4c-0.1,-0.1,-0.3,-0.2,-0.4,-0.2l-1.4,0l0,-1.4c0,-0.1,-0.1,-0.3,-0.2,-0.4c-0.1,-0.2,-0.3,-0.2,-0.5,-0.2l-1.3,0l0,-1.4c0,-0.2,-0.1,-0.3,-0.2,-0.4c-0.2,-0.2,-0.3,-0.2,-0.5,-0.2l-1.9,0c-0.1,0,-0.3,0,-0.4,0.2c-0.2,0.1,-0.2,0.2,-0.2,0.4Z" class="g13_38" />
<text 
x="70" 
y="321" 
dx="0,-1.5,-1.6,-1.9,-1.7,-2.5" 
class="s6_38"
>MOBILE</text>

<text 
x="1590" 
y="1019" 
dx="0,-1.5" 
class="s8_38"
>75</text>

<text 
x="36" 
y="1019" 
dx="0,-2.7" 
class="s8_38"
>74</text>



<!-- Any embedded fonts defined here -->
<style type="text/css" ><![CDATA[

@font-face {
	font-family: AndaleMono_1cn;
	src: url("fonts/AndaleMono_1cn.woff") format("woff");
}

@font-face {
	font-family: Helvetica-Light_1by;
	src: url("fonts/Helvetica-Light_1by.woff") format("woff");
}

@font-face {
	font-family: PixelSplitter-Bold_1bs;
	src: url("fonts/PixelSplitter-Bold_1bs.woff") format("woff");
}

@font-face {
	font-family: Helvetica-Bold_1bu;
	src: url("fonts/Helvetica-Bold_1bu.woff") format("woff");
}

@font-face {
	font-family: PixelSplitter-Bold_-j;
	src: url("fonts/PixelSplitter-Bold_-j.woff") format("woff");
}

@font-face {
	font-family: Wingdings-Regular_1c4;
	src: url("fonts/Wingdings-Regular_1c4.woff") format("woff");
}

]]></style>

</svg>
