<?xml version="1.0" encoding="UTF-8" standalone="no"?>
<!DOCTYPE svg PUBLIC "-//W3C//DTD SVG 1.1//EN"
"http://www.w3.org/Graphics/SVG/1.1/DTD/svg11.dtd">


<!-- Page 39 -->
<svg x="0" y="0" width="1645" height="1061" viewBox="0 0 1645 1061" version="1.1" xmlns="http://www.w3.org/2000/svg" xmlns:xlink="http://www.w3.org/1999/xlink"
style="display: block;margin-left: auto;margin-right: auto;">
<defs>

<style type="text/css"><![CDATA[

.g8_39{
fill: #FFD400;
}
.g9_39{
fill: #F05654;
}
.g7_39{
fill: none;
stroke: #FFFFFF;
stroke-width: 2;
stroke-linecap: round;
stroke-linejoin: round;
stroke-miterlimit: 4;
}
.g18_39{
fill: none;
stroke: #11151D;
stroke-width: 1;
stroke-linecap: butt;
stroke-linejoin: miter;
stroke-miterlimit: 3;
}
.g2_39{
fill: none;
stroke: #989898;
stroke-width: 5;
stroke-linecap: butt;
stroke-linejoin: miter;
stroke-miterlimit: 4;
}
.g15_39{
fill: #2AACE2;
}
.g17_39{
fill: none;
stroke: #11151D;
stroke-width: 1;
stroke-linecap: butt;
stroke-linejoin: miter;
}
.g10_39{
fill: #89BA6E;
}
.g1_39{
fill: #FFFFFF;
}
.g6_39{
fill: none;
stroke: #FFFFFF;
stroke-width: 1;
stroke-linecap: round;
stroke-linejoin: round;
}
.g5_39{
fill: none;
stroke: #FFFFFF;
stroke-width: 3;
stroke-linecap: round;
stroke-linejoin: round;
stroke-miterlimit: 4;
}
.g19_39{
fill: #11151D;
}
.g12_39{
fill: none;
stroke: #989898;
stroke-width: 6;
stroke-linecap: butt;
stroke-linejoin: miter;
stroke-miterlimit: 4;
}
.g3_39{
fill: #FAAD60;
}
.g13_39{
fill: none;
stroke: #6D6E71;
stroke-width: 1;
stroke-linecap: butt;
stroke-linejoin: miter;
stroke-miterlimit: 4;
}
.g14_39{
fill: #89BA6E;
stroke: #6D6E71;
stroke-width: 1;
stroke-linecap: butt;
stroke-linejoin: miter;
stroke-miterlimit: 4;
}
.g16_39{
fill: none;
stroke: #11151D;
stroke-width: 1;
stroke-linecap: butt;
stroke-linejoin: miter;
stroke-miterlimit: 4;
}
.g4_39{
fill: #989797;
}
.g11_39{
fill: none;
stroke: #FFFFFF;
stroke-width: 1;
stroke-linecap: round;
stroke-linejoin: round;
stroke-miterlimit: 4;
}

.s22_39{
font-size: 3.77px;
font-family: Helvetica-Bold_1bu;
fill: #11151D;
}
.s10_39{
font-size: 4.58px;
font-family: Times-Roman_1cf;
fill: #11151D;
}
.s13_39{
font-size: 7.97px;
font-family: Times-Bold_1cj;
fill: #11151D;
}
.s33_39{
font-size: 3.35px;
font-family: Helvetica_1dx;
fill: #11151D;
}
.s35_39{
font-size: 5.04px;
font-family: Helvetica-Bold_1bu;
fill: #11151D;
}
.s23_39{
font-size: 7.29px;
font-family: Helvetica-Bold_1bu;
fill: #11151D;
}
.s27_39{
font-size: 13.75px;
font-family: Times-Bold_1cj;
fill: #11151D;
}
.s1_39{
font-size: 16.81px;
font-family: Times-Bold_1cj;
fill: #11151D;
}
.s32_39{
font-size: 3.35px;
font-family: Helvetica-Light_1by;
fill: #11151D;
}
.s9_39{
font-size: 6.42px;
font-family: Times-Bold_1cj;
fill: #11151D;
}
.s36_39{
font-size: 12.22px;
font-family: PixelSplitter-Bold_1bs;
fill: #11151D;
}
.s21_39{
font-size: 3.95px;
font-family: Helvetica_1e3;
fill: #11151D;
}
.s26_39{
font-size: 9.17px;
font-family: Times-Bold_1cj;
fill: #11151D;
}
.s18_39{
font-size: 7.34px;
font-family: Helvetica-Bold_1bu;
fill: #11151D;
}
.s12_39{
font-size: 6.11px;
font-family: Helvetica_1e3;
fill: #11151D;
}
.s31_39{
font-size: 2.75px;
font-family: Times-Bold_1cj;
fill: #11151D;
}
.s24_39{
font-size: 5.02px;
font-family: Helvetica_1e3;
fill: #11151D;
}
.s30_39{
font-size: 2.75px;
font-family: Helvetica-Light_1by;
fill: #11151D;
}
.s29_39{
font-size: 10.67px;
font-family: Helvetica-Bold_1bu;
fill: #11151D;
}
.s4_39{
font-size: 6.88px;
font-family: Times-Bold_1cj;
fill: #11151D;
}
.s8_39{
font-size: 18.33px;
font-family: Wingdings-Regular_1c4;
fill: #11151D;
}
.s3_39{
font-size: 6.88px;
font-family: Helvetica-Light_1by;
fill: #11151D;
}
.s6_39{
font-size: 18.33px;
font-family: PixelSplitter-Bold_1bs;
fill: #11151D;
}
.s15_39{
font-size: 7.25px;
font-family: Helvetica-Bold_1bu;
fill: #11151D;
}
.s19_39{
font-size: 5.08px;
font-family: Helvetica-Bold_1bu;
fill: #11151D;
}
.s17_39{
font-size: 3.77px;
font-family: Helvetica_1e3;
fill: #11151D;
}
.s11_39{
font-size: 7.98px;
font-family: Helvetica-Bold_1bu;
fill: #11151D;
}
.s14_39{
font-size: 5.48px;
font-family: Times-Roman_1cf;
fill: #11151D;
}
.s25_39{
font-size: 6.11px;
font-family: Times-Bold_1cj;
fill: #11151D;
}
.s34_39{
font-size: 3.35px;
font-family: Helvetica_1e3;
fill: #11151D;
}
.s7_39{
font-size: 15.28px;
font-family: AndaleMono_1cn;
fill: #11151D;
}
.s20_39{
font-size: 3.95px;
font-family: Helvetica_1dx;
fill: #11151D;
}
.s5_39{
font-size: 15.28px;
font-family: Helvetica-Light_1by;
fill: #11151D;
}
.s2_39{
font-size: 9.17px;
font-family: Times-Roman_1cf;
fill: #11151D;
}
.s28_39{
font-size: 15.28px;
font-family: Times-Bold_1cj;
fill: #11151D;
}
.s16_39{
font-size: 6.28px;
font-family: Helvetica-Bold_1bu;
fill: #11151D;
}

]]></style>

</defs>
<path d="M0,0
L0,1061
L1645,1061
L1645,0 Z " 
fill="#FFFFFF" stroke="none" />
<image x="-33" y="-32" width="1713" height="1115" xlink:href="39/img/1.png" />
<image x="-13" y="-11" width="1674" height="1073" opacity="0.5" xlink:href="39/img/2.png" />
<image x="-35" y="-32" width="1737" height="1112" xlink:href="39/img/3.png" />
<path d="M303,58l0,2l0,2l-2,0l-2,0l0,772l2,0l2,0l0,2l0,3l469,0l0,-3l0,-2l3,0l2,0L777,62l-2,0l-3,0l0,-2l0,-2Z" class="g1_39" />
<path d="M303.5,58.5l0,2l0,2l-2,0l-2,0l0,772l2,0l2,0l0,2l0,3l469,0l0,-3l0,-2l3,0l2,0l0,-772l-2,0l-3,0l0,-2l0,-2l-469,0Z" class="g2_39" />
<path d="M1315,607l0,4l-5,0l0,208l5,0l0,5l283,0l0,-5l4,0l0,-208l-4,0l0,-4Z" class="g3_39" />
<path d="M301,56l0,4l-4,0l0,33l482,0l0,-33l-4,0l0,-4Z" class="g4_39" />
<path d="M317.3,72.6c1.8,0,3.2,-1.4,3.2,-3.2c0,-1.8,-1.4,-3.2,-3.2,-3.2c-1.8,0,-3.2,1.4,-3.2,3.2c0,1.8,1.4,3.2,3.2,3.2Z" class="g1_39" />
<path d="M329.8,72.6c1.8,0,3.2,-1.4,3.2,-3.2c0,-1.8,-1.4,-3.2,-3.2,-3.2c-1.8,0,-3.2,1.4,-3.2,3.2c0,1.8,1.4,3.2,3.2,3.2Z" class="g1_39" />
<path d="M342.3,72.6c1.8,0,3.2,-1.4,3.2,-3.2c0,-1.8,-1.4,-3.2,-3.2,-3.2c-1.8,0,-3.2,1.4,-3.2,3.2c0,1.8,1.4,3.2,3.2,3.2Z" class="g1_39" />
<path d="M309.2,78.8c0,0,-2.2,0,-2.2,2.2l0,4.8c0,0,0,2.2,2.2,2.2l444.2,0c0,0,2.2,0,2.2,-2.2l0,-4.8c0,0,0,-2.2,-2.2,-2.2Z" class="g1_39" />
<path d="M397.7,79.9l-3,3.5l3,3.4" class="g5_39" />
<path d="M771.3,79.3l0,4.1c-0.1,0,-0.1,0,-0.1,0c-0.5,-0.1,-1.1,-0.2,-1.6,-0.3c-0.7,-0.1,-1.4,-0.3,-2.1,-0.4c-0.1,0,-0.3,-0.1,-0.4,-0.1c0.5,-0.4,0.9,-0.7,1.4,-1.1c0,0,0,-0.1,0,-0.1c-0.7,-0.4,-1.4,-0.5,-2.2,-0.3c-0.7,0.1,-1.3,0.5,-1.7,1.2c-0.4,0.6,-0.5,1.3,-0.4,2c0.1,0.7,0.4,1.3,1,1.7c0.7,0.6,1.5,0.8,2.4,0.6c0.9,-0.2,1.5,-0.7,1.9,-1.6c0.6,0.1,1.1,0.2,1.6,0.3c0,0,0,0.1,0,0.1c-0.3,0.8,-0.9,1.5,-1.6,2c-0.7,0.5,-1.5,0.8,-2.4,0.8l-0.1,0l-0.2,0l-0.1,0c-0.3,0,-0.5,0,-0.8,-0.1c-0.9,-0.3,-1.7,-0.7,-2.3,-1.4c-0.6,-0.7,-0.9,-1.5,-1,-2.4c0,-0.1,0,-0.2,-0.1,-0.3l0,-0.3c0.1,0,0.1,-0.1,0.1,-0.1c0,-0.2,0,-0.4,0,-0.5c0.2,-0.9,0.6,-1.6,1.2,-2.3c0.6,-0.7,1.4,-1.1,2.4,-1.3c0.5,-0.1,1,-0.1,1.6,0c0.7,0.1,1.4,0.4,1.9,0.9c0.1,0,0.1,0,0.2,0c0.2,-0.2,0.5,-0.4,0.8,-0.7c0.2,-0.1,0.4,-0.3,0.6,-0.4Z" class="g1_39" />
<path d="M771.3,79.3l0,4.1c-0.1,0,-0.1,0,-0.1,0c-0.5,-0.1,-1.1,-0.2,-1.6,-0.3c-0.7,-0.1,-1.4,-0.3,-2.1,-0.4c-0.1,0,-0.3,-0.1,-0.4,-0.1c0.5,-0.4,0.9,-0.7,1.4,-1.1c0,0,0,-0.1,0,-0.1c-0.7,-0.4,-1.4,-0.5,-2.2,-0.3c-0.7,0.1,-1.3,0.5,-1.7,1.2c-0.4,0.6,-0.5,1.3,-0.4,2c0.1,0.7,0.4,1.3,1,1.7c0.7,0.6,1.5,0.8,2.4,0.6c0.9,-0.2,1.5,-0.7,1.9,-1.6c0.6,0.1,1.1,0.2,1.6,0.3c0,0,0,0.1,0,0.1c-0.3,0.8,-0.9,1.5,-1.6,2c-0.7,0.5,-1.5,0.8,-2.4,0.8l-0.1,0l-0.2,0l-0.1,0c-0.3,0,-0.5,0,-0.8,-0.1c-0.9,-0.3,-1.7,-0.7,-2.3,-1.4c-0.6,-0.7,-0.9,-1.5,-1,-2.4c0,-0.1,0,-0.2,-0.1,-0.3l0,-0.3c0.1,0,0.1,-0.1,0.1,-0.1c0,-0.2,0,-0.4,0,-0.5c0.2,-0.9,0.6,-1.6,1.2,-2.3c0.6,-0.7,1.4,-1.1,2.4,-1.3c0.5,-0.1,1,-0.1,1.6,0c0.7,0.1,1.4,0.4,1.9,0.9c0.1,0,0.1,0,0.2,0c0.2,-0.2,0.5,-0.4,0.8,-0.7c0.2,-0.1,0.4,-0.3,0.6,-0.4Z" class="g6_39" />
<path d="M762,66l9,0" class="g7_39" />
<path d="M762,69l9,0" class="g7_39" />
<path d="M762,71l9,0" class="g7_39" />
<path d="M308.1,79.9l-3,3.5l3,3.4" class="g5_39" />
<path d="M322,830l433,0l0,-600l-433,0l0,600Z" class="g8_39" />
<path d="M322,164l433,0l0,-58l-433,0l0,58Z" class="g9_39" />
<path d="M322,222l433,0l0,-58l-433,0l0,58Z" class="g3_39" />
<path d="M322,627l433,0l0,-184l-433,0l0,184Z" class="g10_39" />
<path d="M322,836l433,0l0,-191l-433,0l0,191Z" class="g10_39" />
<path d="M322,433l417,0l0,-150l-417,0l0,150Z" class="g1_39" />
<image x="337" y="298" width="388" height="121" xlink:href="39/img/4.png" />
<path d="M322,593l100,0l0,-121l-100,0l0,121Z" class="g1_39" />
<image x="336" y="481" width="72" height="104" xlink:href="39/img/5.png" />
<path d="M322,797l100,0l0,-120l-100,0l0,120Z" class="g1_39" />
<image x="333" y="700" width="78" height="75" xlink:href="39/img/6.png" />
<path d="M872,90l0,2l0,2l-2,0l-2,0l0,314l2,0l2,0l0,2l0,2l336,0l0,-2l0,-2l2,0l2,0l0,-314l-2,0l-2,0l0,-2l0,-2Z" class="g1_39" />
<path d="M872.5,90.5l0,2l0,2l-2,0l-2,0l0,314l2,0l2,0l0,2l0,2l336,0l0,-2l0,-2l2,0l2,0l0,-314l-2,0l-2,0l0,-2l0,-2l-336,0Z" class="g2_39" />
<path d="M878,410l322,0l0,-235l-322,0l0,235Z" class="g8_39" />
<path d="M878,145l322,0l0,-24l-322,0l0,24Z" class="g9_39" />
<path d="M878,169l322,0l0,-24l-322,0l0,24Z" class="g3_39" />
<path d="M878,340l322,0l0,-75l-322,0l0,75Z" class="g10_39" />
<path d="M878,410l322,0l0,-65l-322,0l0,65Z" class="g10_39" />
<path d="M878,261l170,0l0,-62l-170,0l0,62Z" class="g1_39" />
<image x="884" y="205" width="159" height="51" xlink:href="39/img/7.png" />
<path d="M878,324l41,0l0,-50l-41,0l0,50Z" class="g1_39" />
<image x="884" y="278" width="30" height="43" xlink:href="39/img/8.png" />
<path d="M878,404l41,0l0,-49l-41,0l0,49Z" class="g1_39" />
<image x="882" y="364" width="33" height="31" xlink:href="39/img/9.png" />
<path d="M870,88l0,4l-4,0l0,23l348,0l0,-23l-4,0l0,-4Z" class="g4_39" />
<path d="M881.1,102.2c1.1,0,2,-0.9,2,-2c0,-1.1,-0.9,-2,-2,-2c-1.1,0,-2,0.9,-2,2c0,1.1,0.9,2,2,2Z" class="g1_39" />
<path d="M888.8,102.2c1.1,0,2,-0.9,2,-2c0,-1.1,-0.9,-2,-2,-2c-1.1,0,-2,0.9,-2,2c0,1.1,0.9,2,2,2Z" class="g1_39" />
<path d="M896.5,102.2c1.1,0,2,-0.9,2,-2c0,-1.1,-0.9,-2,-2,-2c-1.1,0,-2,0.9,-2,2c0,1.1,0.9,2,2,2Z" class="g1_39" />
<path d="M877,106l0,0l0,5l316,0l0,-5Z" class="g1_39" />
<path d="M1205.5,106.4l0,2.5l-0.1,0c-0.3,-0.1,-0.6,-0.2,-0.9,-0.2c-0.4,-0.1,-0.9,-0.2,-1.3,-0.3c-0.1,0,-0.2,0,-0.2,0c0.2,-0.2,0.5,-0.5,0.8,-0.7c-0.4,-0.3,-0.8,-0.4,-1.3,-0.2c-0.4,0.1,-0.8,0.3,-1,0.7c-0.3,0.3,-0.4,0.8,-0.3,1.2c0.1,0.4,0.3,0.8,0.6,1c0.4,0.4,0.9,0.5,1.4,0.4c0.6,-0.1,1,-0.4,1.2,-0.9c0,-0.1,0,-0.1,0,-0.1c0.4,0.1,0.7,0.2,1,0.2l0,0.1c-0.2,0.5,-0.5,0.9,-1,1.2c-0.4,0.3,-0.9,0.5,-1.4,0.5l-0.1,0l-0.1,0l-0.1,0c-0.1,0,-0.3,-0.1,-0.5,-0.1c-0.5,-0.1,-1,-0.4,-1.3,-0.8c-0.4,-0.5,-0.6,-1,-0.7,-1.5c0,-0.1,0,-0.1,0,-0.2l0,-0.2c0,-0.1,0,-0.2,0.1,-0.3c0,-0.6,0.3,-1,0.6,-1.4c0.4,-0.4,0.9,-0.7,1.5,-0.8c0.3,-0.1,0.6,-0.1,1,0c0.4,0.1,0.8,0.3,1.2,0.6c0.2,-0.2,0.4,-0.3,0.5,-0.5c0.1,0,0.3,-0.1,0.4,-0.2Z" class="g1_39" />
<path d="M1205.5,106.4l0,2.5l-0.1,0c-0.3,-0.1,-0.6,-0.2,-0.9,-0.2c-0.4,-0.1,-0.9,-0.2,-1.3,-0.3c-0.1,0,-0.2,0,-0.2,0c0.2,-0.2,0.5,-0.5,0.8,-0.7c-0.4,-0.3,-0.8,-0.4,-1.3,-0.2c-0.4,0.1,-0.8,0.3,-1,0.7c-0.3,0.3,-0.4,0.8,-0.3,1.2c0.1,0.4,0.3,0.8,0.6,1c0.4,0.4,0.9,0.5,1.4,0.4c0.6,-0.1,1,-0.4,1.2,-0.9c0,-0.1,0,-0.1,0,-0.1c0.4,0.1,0.7,0.2,1,0.2l0,0.1c-0.2,0.5,-0.5,0.9,-1,1.2c-0.4,0.3,-0.9,0.5,-1.4,0.5l-0.1,0l-0.1,0l-0.1,0c-0.1,0,-0.3,-0.1,-0.5,-0.1c-0.5,-0.1,-1,-0.4,-1.3,-0.8c-0.4,-0.5,-0.6,-1,-0.7,-1.5c0,-0.1,0,-0.1,0,-0.2l0,-0.2c0,-0.1,0,-0.2,0.1,-0.3c0,-0.6,0.3,-1,0.6,-1.4c0.4,-0.4,0.9,-0.7,1.5,-0.8c0.3,-0.1,0.6,-0.1,1,0c0.4,0.1,0.8,0.3,1.2,0.6c0.2,-0.2,0.4,-0.3,0.5,-0.5c0.1,0,0.3,-0.1,0.4,-0.2Z" class="g6_39" />
<path d="M1200.5,98.5l5,0" class="g11_39" />
<path d="M1200.5,100.5l5,0" class="g11_39" />
<path d="M1200.5,101.5l5,0" class="g11_39" />
<path d="M874,611l0,2l0,3l-3,0l-3,0l0,390l3,0l3,0l0,3l0,2l417,0l0,-2l0,-3l3,0l2,0l0,-390l-2,0l-3,0l0,-3l0,-2Z" class="g1_39" />
<path d="M874,611l0,2l0,3l-3,0l-3,0l0,390l3,0l3,0l0,3l0,2l417,0l0,-2l0,-3l3,0l2,0l0,-390l-2,0l-3,0l0,-3l0,-2l-417,0Z" class="g12_39" />
<path d="M871,608l0,5l-5,0l0,29l433,0l0,-29l-5,0l0,-5Z" class="g4_39" />
<path d="M884.7,625.5c1.4,0,2.5,-1.1,2.5,-2.4c0,-1.4,-1.1,-2.5,-2.5,-2.5c-1.3,0,-2.4,1.1,-2.4,2.5c0,1.3,1.1,2.4,2.4,2.4Z" class="g1_39" />
<path d="M894.3,625.5c1.4,0,2.5,-1.1,2.5,-2.4c0,-1.4,-1.1,-2.5,-2.5,-2.5c-1.3,0,-2.4,1.1,-2.4,2.5c0,1.3,1.1,2.4,2.4,2.4Z" class="g1_39" />
<path d="M903.9,625.5c1.4,0,2.5,-1.1,2.5,-2.4c0,-1.4,-1.1,-2.5,-2.5,-2.5c-1.4,0,-2.5,1.1,-2.5,2.5c0,1.3,1.1,2.4,2.5,2.4Z" class="g1_39" />
<path d="M882.3,630.2c0,0,-1.5,0,-1.5,1.6l0,4c0,0,0,1.5,1.5,1.5l388.9,0c0,0,1.5,0,1.5,-1.5l0,-4c0,0,0,-1.6,-1.5,-1.6Z" class="g1_39" />
<path d="M1288.1,630.7l0,3.1c-0.4,-0.1,-0.8,-0.2,-1.2,-0.2c-0.6,-0.1,-1.1,-0.2,-1.6,-0.3c-0.1,0,-0.2,-0.1,-0.3,-0.1c0.3,-0.3,0.7,-0.6,1,-0.8c0,-0.1,0,-0.1,0,-0.1c-0.5,-0.3,-1,-0.4,-1.6,-0.3c-0.6,0.2,-1,0.5,-1.3,0.9c-0.3,0.5,-0.4,1,-0.3,1.6c0.1,0.5,0.3,0.9,0.7,1.3c0.6,0.4,1.2,0.5,1.8,0.4c0.7,-0.2,1.2,-0.6,1.5,-1.2c0.4,0.1,0.8,0.2,1.2,0.3c-0.3,0.6,-0.7,1.1,-1.2,1.5c-0.6,0.4,-1.2,0.6,-1.8,0.6l-0.1,0l-0.1,0c0,0,-0.1,0,-0.1,0c-0.2,0,-0.4,0,-0.7,-0.1c-0.6,-0.2,-1.2,-0.5,-1.6,-1c-0.5,-0.5,-0.8,-1.2,-0.8,-1.8c0,-0.1,0,-0.2,-0.1,-0.3l0,-0.2c0.1,0,0.1,0,0.1,-0.1c0,-0.1,0,-0.2,0,-0.4c0.1,-0.6,0.4,-1.2,0.9,-1.6c0.5,-0.6,1.1,-0.9,1.8,-1c0.4,-0.1,0.8,-0.1,1.2,0c0.5,0.1,1,0.3,1.5,0.6c0,0.1,0,0.1,0,0c0.3,-0.1,0.5,-0.3,0.7,-0.5c0.1,-0.1,0.3,-0.2,0.4,-0.3Z" class="g1_39" />
<path d="M1288.1,630.7l0,3.1c-0.4,-0.1,-0.8,-0.2,-1.2,-0.2c-0.6,-0.1,-1.1,-0.2,-1.6,-0.3c-0.1,0,-0.2,-0.1,-0.3,-0.1c0.3,-0.3,0.7,-0.6,1,-0.8c0,-0.1,0,-0.1,0,-0.1c-0.5,-0.3,-1,-0.4,-1.6,-0.3c-0.6,0.2,-1,0.5,-1.3,0.9c-0.3,0.5,-0.4,1,-0.3,1.6c0.1,0.5,0.3,0.9,0.7,1.3c0.6,0.4,1.2,0.5,1.8,0.4c0.7,-0.2,1.2,-0.6,1.5,-1.2c0.4,0.1,0.8,0.2,1.2,0.3c-0.3,0.6,-0.7,1.1,-1.2,1.5c-0.6,0.4,-1.2,0.6,-1.8,0.6l-0.1,0l-0.1,0c0,0,-0.1,0,-0.1,0c-0.2,0,-0.4,0,-0.7,-0.1c-0.6,-0.2,-1.2,-0.5,-1.6,-1c-0.5,-0.5,-0.8,-1.2,-0.8,-1.8c0,-0.1,0,-0.2,-0.1,-0.3l0,-0.2c0.1,0,0.1,0,0.1,-0.1c0,-0.1,0,-0.2,0,-0.4c0.1,-0.6,0.4,-1.2,0.9,-1.6c0.5,-0.6,1.1,-0.9,1.8,-1c0.4,-0.1,0.8,-0.1,1.2,0c0.5,0.1,1,0.3,1.5,0.6c0,0.1,0,0.1,0,0c0.3,-0.1,0.5,-0.3,0.7,-0.5c0.1,-0.1,0.3,-0.2,0.4,-0.3Z" class="g6_39" />
<path d="M1281.5,621.5l6,0" class="g11_39" />
<path d="M1281.5,622.5l6,0" class="g11_39" />
<path d="M1281.5,624.5l6,0" class="g11_39" />
<path d="M877.1,631.7l-1.1,2.1l1.1,2.1" class="g7_39" />
<path d="M885,1008l393,0l0,-295l-393,0l0,295Z" class="g8_39" />
<path d="M885,679l393,0l0,-30l-393,0l0,30Z" class="g9_39" />
<path d="M885,709l393,0l0,-30l-393,0l0,30Z" class="g3_39" />
<path d="M885,927l393,0l0,-99l-393,0l0,99Z" class="g10_39" />
<path d="M885,1008l393,0l0,-72l-393,0l0,72Z" class="g10_39" />
<path d="M885,823l212,0l0,-76l-212,0l0,76Z" class="g1_39" />
<image x="892" y="754" width="199" height="62" xlink:href="39/img/10.png" />
<path d="M885,904l51,0l0,-61l-51,0l0,61Z" class="g1_39" />
<image x="892" y="847" width="38" height="54" xlink:href="39/img/11.png" />
<path d="M884,1008l51,0l0,-59l-51,0l0,59Z" class="g1_39" />
<image x="890" y="961" width="40" height="39" xlink:href="39/img/12.png" />
<path d="M1274.4,281.6c0,0,-7.4,0,-7.4,7.3l0,40.9c0,0,0,7.4,7.4,7.4l31.6,0c0,0,7.4,0,7.4,-7.4l0,-40.9c0,0,0,-7.3,-7.4,-7.3Z" class="g1_39" />
<image x="1273" y="285" width="34" height="49" xlink:href="39/img/13.png" />
<path d="M1251,88l0,2l0,2l-2,0l-2,0l0,316l2,0l2,0l0,2l0,2l346,0l0,-2l0,-2l2,0l3,0l0,-316l-3,0l-2,0l0,-2l0,-2Z" class="g1_39" />
<path d="M1251.5,88.5l0,2l0,2l-2,0l-2,0l0,316l2,0l2,0l0,2l0,2l346,0l0,-2l0,-2l2,0l3,0l0,-316l-3,0l-2,0l0,-2l0,-2l-346,0Z" class="g2_39" />
<path d="M1251,86l0,4l-5,0l0,24l356,0l0,-24l-4,0l0,-4Z" class="g4_39" />
<path d="M1261.9,100.3c1.1,0,2,-0.9,2,-2c0,-1.2,-0.9,-2.1,-2,-2.1c-1.1,0,-2,0.9,-2,2.1c0,1.1,0.9,2,2,2Z" class="g1_39" />
<path d="M1269.7,100.3c1.2,0,2.1,-0.9,2.1,-2c0,-1.2,-0.9,-2.1,-2.1,-2.1c-1.1,0,-2,0.9,-2,2.1c0,1.1,0.9,2,2,2Z" class="g1_39" />
<path d="M1277.6,100.3c1.1,0,2,-0.9,2,-2c0,-1.2,-0.9,-2.1,-2,-2.1c-1.1,0,-2,0.9,-2,2.1c0,1.1,0.9,2,2,2Z" class="g1_39" />
<path d="M1258,104l0,0l0,5l322,0l0,-5Z" class="g1_39" />
<path d="M1593.2,104.5l0,2.6c-0.3,-0.1,-0.7,-0.1,-1,-0.2c-0.4,-0.1,-0.9,-0.2,-1.3,-0.3c-0.1,0,-0.2,0,-0.2,0c0.3,-0.2,0.5,-0.5,0.8,-0.7c-0.4,-0.3,-0.8,-0.4,-1.3,-0.3c-0.5,0.1,-0.8,0.4,-1.1,0.8c-0.2,0.4,-0.3,0.8,-0.2,1.2c0,0.5,0.2,0.8,0.6,1.1c0.4,0.3,0.9,0.5,1.4,0.3c0.6,-0.1,1,-0.4,1.2,-0.9c0.1,0,0.1,0,0.1,-0.1c0.3,0.1,0.6,0.2,0.9,0.3c-0.2,0.5,-0.5,0.9,-1,1.3c-0.4,0.3,-0.9,0.4,-1.4,0.4c0,0.1,0,0.1,-0.1,0.1l-0.1,0l-0.1,0c-0.1,-0.1,-0.3,-0.1,-0.5,-0.1c-0.5,-0.2,-1,-0.5,-1.4,-0.9c-0.4,-0.4,-0.6,-0.9,-0.6,-1.5c0,0,0,-0.1,0,-0.2l0,-0.1c0,-0.1,0,-0.1,0,-0.1c0,-0.1,0,-0.2,0,-0.3c0.1,-0.6,0.3,-1,0.7,-1.4c0.4,-0.5,0.9,-0.7,1.5,-0.8c0.3,-0.1,0.6,-0.1,1,0c0.4,0,0.8,0.2,1.2,0.5c0,0.1,0,0.1,0.1,0c0.1,-0.1,0.3,-0.2,0.5,-0.4c0.1,-0.1,0.2,-0.2,0.3,-0.3Z" class="g1_39" />
<path d="M1593.2,104.5l0,2.6c-0.3,-0.1,-0.7,-0.1,-1,-0.2c-0.4,-0.1,-0.9,-0.2,-1.3,-0.3c-0.1,0,-0.2,0,-0.2,0c0.3,-0.2,0.5,-0.5,0.8,-0.7c-0.4,-0.3,-0.8,-0.4,-1.3,-0.3c-0.5,0.1,-0.8,0.4,-1.1,0.8c-0.2,0.4,-0.3,0.8,-0.2,1.2c0,0.5,0.2,0.8,0.6,1.1c0.4,0.3,0.9,0.5,1.4,0.3c0.6,-0.1,1,-0.4,1.2,-0.9c0.1,0,0.1,0,0.1,-0.1c0.3,0.1,0.6,0.2,0.9,0.3c-0.2,0.5,-0.5,0.9,-1,1.3c-0.4,0.3,-0.9,0.4,-1.4,0.4c0,0.1,0,0.1,-0.1,0.1l-0.1,0l-0.1,0c-0.1,-0.1,-0.3,-0.1,-0.5,-0.1c-0.5,-0.2,-1,-0.5,-1.4,-0.9c-0.4,-0.4,-0.6,-0.9,-0.6,-1.5c0,0,0,-0.1,0,-0.2l0,-0.1c0,-0.1,0,-0.1,0,-0.1c0,-0.1,0,-0.2,0,-0.3c0.1,-0.6,0.3,-1,0.7,-1.4c0.4,-0.5,0.9,-0.7,1.5,-0.8c0.3,-0.1,0.6,-0.1,1,0c0.4,0,0.8,0.2,1.2,0.5c0,0.1,0,0.1,0.1,0c0.1,-0.1,0.3,-0.2,0.5,-0.4c0.1,-0.1,0.2,-0.2,0.3,-0.3Z" class="g6_39" />
<path d="M1587.5,96.5l6,0" class="g11_39" />
<path d="M1587.5,98.5l6,0" class="g11_39" />
<path d="M1587.5,99.5l6,0" class="g11_39" />
<path d="M1255.6,105.3l-0.9,1.8l0.9,1.7" class="g7_39" />
<path d="M1259,408l225,0l0,-254l-225,0l0,254Z" class="g8_39" />
<path d="M1259,128l330,0l0,-15l-330,0l0,15Z" class="g9_39" />
<path d="M1264.7,267.8c0,0,-5,0,-5,5.1l0,75.3c0,0,0,5,5,5l215.2,0c0,0,5,0,5,-5l0,-75.3c0,0,0,-5.1,-5,-5.1Z" class="g10_39" />
<path d="M1264.7,267.8c0,0,-5,0,-5,5.1l0,75.3c0,0,0,5,5,5l215.2,0c0,0,5,0,5,-5l0,-75.3c0,0,0,-5.1,-5,-5.1l-215.2,0Z" class="g13_39" />
<path d="M1484.5,410.4l0,-44.6c0,-0.2,0,-4.6,-4.6,-4.6l-215.2,0c-0.1,0,-4.6,0,-4.6,4.6l0,44.6" class="g14_39" />
<path d="M1492,410l97,0l0,-256l-97,0l0,256Z" class="g15_39" />
<path d="M1264.6,181.9c0,0,-5,0,-5,5l0,70.8c0,0,0,5,5,5l215.3,0c0,0,5,0,5,-5l0,-70.8c0,0,0,-5,-5,-5Z" class="g1_39" />
<image x="1268" y="190" width="209" height="65" xlink:href="39/img/14.png" />
<path d="M1264.6,181.9c0,0,-5,0,-5,5l0,70.8c0,0,0,5,5,5l215.3,0c0,0,5,0,5,-5l0,-70.8c0,0,0,-5,-5,-5l-215.3,0Z" class="g13_39" />
<path d="M1266,129.1c0,0,-6.1,0,-6.1,6.1l0,5.7c0,0,0,6.1,6.1,6.1l317.6,0c0,0,6.1,0,6.1,-6.1l0,-5.7c0,0,0,-6.1,-6.1,-6.1Z" class="g3_39" />
<path d="M1266,129.1c0,0,-6.1,0,-6.1,6.1l0,5.7c0,0,0,6.1,6.1,6.1l317.6,0c0,0,6.1,0,6.1,-6.1l0,-5.7c0,0,0,-6.1,-6.1,-6.1l-317.6,0Z" class="g16_39" />
<path d="M1259,147l330,0l0,-19l-330,0l0,19Z" class="g3_39" />
<path d="M1313,410.5l0,-28.6c0,-0.3,-0.1,-7,-7,-7l-31.6,0c-0.3,0,-7,0.1,-7,7l0,28.6Z" class="g1_39" />
<image x="1273" y="386" width="34" height="27" xlink:href="39/img/15.png" />
<path d="M1313,410.5l0,-28.6c0,-0.3,-0.1,-7,-7,-7l-31.6,0c-0.3,0,-7,0.1,-7,7l0,28.6" class="g13_39" />
<path d="M1273.8,282.9c-0.3,0,-7.2,0.1,-7.2,7.2l0,42c0,0.3,0.1,7.2,7.2,7.2l32.5,0c0.2,0,7.1,-0.1,7.1,-7.2l0,-42c0,-0.3,-0.1,-7.2,-7.1,-7.2l-32.5,0Z" class="g1_39" />
<image x="1273" y="286" width="34" height="50" xlink:href="39/img/16.png" />
<path d="M1273.8,282.9c-0.3,0,-7.2,0.1,-7.2,7.2l0,42c0,0.3,0.1,7.2,7.2,7.2l32.5,0c0.2,0,7.1,-0.1,7.1,-7.2l0,-42c0,-0.3,-0.1,-7.2,-7.1,-7.2l-32.5,0Z" class="g13_39" />
<path d="M1497.4,161.3c-0.1,0,-4.6,0.1,-4.6,4.7l0,182.4c0,0.2,0.1,4.7,4.6,4.7l87.5,0c0.2,0,4.6,-0.1,4.6,-4.7l0,-182.4c0,-0.2,0,-4.7,-4.6,-4.7l-87.5,0Z" class="g10_39" />
<path d="M1497.4,161.3c-0.1,0,-4.6,0.1,-4.6,4.7l0,182.4c0,0.2,0.1,4.7,4.6,4.7l87.5,0c0.2,0,4.6,-0.1,4.6,-4.7l0,-182.4c0,-0.2,0,-4.7,-4.6,-4.7l-87.5,0Z" class="g13_39" />
<path d="M1589.5,410.6l0,-45c0,-0.2,0,-4.7,-4.6,-4.7l-87.5,0c-0.1,0,-4.6,0.1,-4.6,4.7l0,45" class="g14_39" />
<text 
x="322" 
y="246" 
dx="0,0,0,0,0,-0.8,0,0,0,-0.8,0,0,0,0,0,0,0,0" 
class="s1_39"
>Meet the Nanonauts</text>

<text 
x="322" 
y="461" 
dx="0,0,0,0,0,0,0,-0.8,0,-0.8,0,0,0,0,0,-0.3,-0.8,0,0,0,0,0,0,0,0,0,0,0,0,-0.3" 
class="s1_39"
>Daniel – Singer extraordinaire</text>

<text 
x="322" 
y="666" 
dx="0,0,0,0,-0.8,0,-0.8,0,0,0,0,0,0,0,-0.8,0,0,0,0,0,0,-0.8,0,0,0,0,0,0" 
class="s1_39"
>Sam – One-man rhythm section</text>

<text 
x="322" 
y="266" 
dx="0,-0.7,0,-0.5,0,0,0,-0.5,0,0,0,-0.5,0,0,0,0,0,0,0,0,0,0" 
class="s2_39"
>We are the Nanonauts. </text>

<text 
x="322" 
y="275" 
dx="0,0,0,0,-0.5,0,0,0,0,0,-0.5,0,0,0,-0.5,0,0,0,0,-0.6,0,-0.5,0,0,0,0,0,0,0,-0.5,0,0,0,0,0,0,-0.5,0,0,0,-0.5,0,0,0" 
class="s2_39"
>Our names are Holly, Dervla, Daniel and Sam.</text>

<text 
x="327" 
y="606" 
dx="0,0,0,0,0,0,0,0.3,0,0,0.3,0,0,0,0.3,0,0,0,0,0,0,0,0,0,0,0.3,0,0,0,0,0,-0.5,0,0.3,0,0,0.3,0,0,0,0,0,0.3,0,0,0.3,0,0,0,0,0.3,0,0,0,0.3,0,0,0,0.3,0,0,0,0,0.3,0,0.3,0,0,0,0.3,0,0,0,0,0.3,0,0,0,0,0.3,0,0,0,0,0.3,0,0,0,0,0,0,0,0.3,0,0,0,0,0.3,0,0,0,0.3,0,0,0,0,0,0,0,0,0,0,0.3,0,0,0" 
class="s2_39"
>Daniel is the Nanonauts' singer. He likes to sing all the time – not just when he's playing with the Nanonauts! His </text>

<text 
x="327" 
y="615" 
dx="0,0,0,0,0.9,0,0,0,0.9,0,0,0,0.9,0,0,0,0.9,0,0,0.9,0,0,0,0,0,0,0,0.9,0,0,0.9,0,0,0,0,0.9,0,0,0,0,0,0,0.9,0,0,0.9,0,0,0,0,0,0,0,0.9,0,0,0.9,0,0,0,0,0,0,0,0,0,0,0,0.9,0,0,0,0,0.9,0,0,0,0,0,0.9,0,0,0,0,0,0,0,0,0.9,0,0,0,0.9,0,0,0.9,0,0,0,0,0,0,0,0,0.9,0,0,0,0.9,0,0,0,0" 
class="s2_39"
>mum and dad say he learned to sing before he learned to talk!Daniel also plays clarinet and is learning the alto </text>

<text 
x="327" 
y="624" 
dx="0,0,0,0,0,0,0,0,0,0" 
class="s2_39"
>saxophone.</text>

<path d="M357.5,176.5l18,0" class="g17_39" />
<path d="M357.5,186.5l28,0" class="g17_39" />
<path d="M357.5,196.5l31,0" class="g17_39" />
<path d="M357.5,206.5l34,0" class="g17_39" />
<path d="M357.5,216.5l52,0" class="g17_39" />
<text 
x="337" 
y="174" 
dx="0" 
class="s3_39"
>•</text>

<text 
x="357" 
y="174" 
dx="0,0,0,0" 
class="s4_39"
>Home</text>

<text 
x="337" 
y="184" 
dx="0" 
class="s3_39"
>•</text>

<text 
x="357" 
y="184" 
dx="0,0,0,0,0,0,-0.3,0" 
class="s4_39"
>About Us</text>

<text 
x="337" 
y="194" 
dx="0" 
class="s3_39"
>•</text>

<text 
x="357" 
y="194" 
dx="0,0,0,-0.1,-0.3,0,0,0,0" 
class="s4_39"
>Our Songs</text>

<text 
x="337" 
y="204" 
dx="0" 
class="s3_39"
>•</text>

<text 
x="357" 
y="204" 
dx="0,0,0,0,-0.3,0,0,-0.3,0,0,0" 
class="s4_39"
>See Us Play</text>

<text 
x="337" 
y="214" 
dx="0" 
class="s3_39"
>•</text>

<text 
x="357" 
y="214" 
dx="0,0,0,0,0,0,0,0,-0.3,0,-0.3,0,0,0,0,0,0" 
class="s4_39"
>Playing a Concert</text>

<text 
transform="matrix(0.98, 0, 0, 1, 879, 75)"
dx="0,0,-0.3,0,0,-0.9,0,0,0,0" 
class="s5_39"
>From this:</text>

<text 
x="879" 
y="449" 
dx="0,0" 
class="s6_39"
>1.</text>

<text 
transform="matrix(0.98, 0, 0, 1, 902, 449)"
dx="0,-0.3,0,-0.9,0,0,0,0,0,-0.9,0,0,-0.9,0,0,0,0,0,0,0,-0.9,0,0,0,-0.9,0,0,0,0,0,-0.9,0,0,0,0,0,0,0,0,0,0,-0.9,0,0,0,-0.9,0,0,0,0,0,0,0,0,0,0,-0.9,0,0,-0.9,0,0,0,-0.9,0,0,0,0,0,0" 
class="s5_39"
>We begin by setting the basic dimensions and appearance of the page's </text>

<path d="M1387.6,439.2l-1.2,0l0,10.5l1.2,0l0,-1.1c0.2,0.4,0.5,0.7,0.9,0.9c0.5,0.3,0.9,0.4,1.4,0.4c0.9,0,1.6,-0.4,2.1,-1.2c0.5,-0.8,0.8,-1.8,0.8,-3c0,-1.2,-0.3,-2.1,-0.8,-2.9c-0.5,-0.7,-1.2,-1.1,-2,-1.1c-0.5,0,-1,0.1,-1.4,0.4c-0.4,0.2,-0.8,0.5,-1,0.8l0,-3.7Zm2,3.5c0.6,0,1.1,0.3,1.5,0.9c0.3,0.5,0.5,1.3,0.5,2.2c0,0.8,-0.2,1.6,-0.6,2.2c-0.3,0.6,-0.8,0.9,-1.4,0.9c-0.4,0,-0.8,-0.2,-1.2,-0.5c-0.3,-0.3,-0.6,-0.6,-0.8,-1.1l0,-3.2c0.5,-0.9,1.2,-1.4,2,-1.4Z" class="g18_39" />
<path d="M1395.8,442.9c-0.6,0.7,-0.9,1.7,-0.9,2.9c0,1.2,0.3,2.2,0.9,3c0.7,0.7,1.5,1.1,2.5,1.1c1.1,0,1.9,-0.4,2.6,-1.1c0.6,-0.8,0.9,-1.8,0.9,-3c0,-1.2,-0.3,-2.2,-0.9,-2.9c-0.7,-0.8,-1.5,-1.2,-2.6,-1.2c-1,0,-1.8,0.4,-2.5,1.2Zm0.9,5.1c-0.4,-0.6,-0.6,-1.3,-0.6,-2.2c0,-0.9,0.2,-1.6,0.6,-2.2c0.4,-0.6,0.9,-0.9,1.6,-0.9c0.8,0,1.3,0.3,1.7,0.9c0.4,0.6,0.6,1.3,0.6,2.2c0,0.9,-0.2,1.6,-0.6,2.2c-0.4,0.6,-1,0.9,-1.7,0.9c-0.7,0,-1.2,-0.3,-1.6,-0.9Z" class="g18_39" />
<path d="M1410.3,439.2l-1.2,0l0,3.7c-0.5,-0.8,-1.3,-1.2,-2.3,-1.2c-0.9,0,-1.6,0.4,-2.1,1.2c-0.5,0.7,-0.8,1.7,-0.8,2.8c0,1.2,0.3,2.2,0.8,3c0.5,0.8,1.2,1.2,2.1,1.2c0.4,0,0.9,-0.1,1.3,-0.4c0.5,-0.2,0.8,-0.5,1,-0.9l0,1.1l1.2,0l0,-10.5Zm-1.5,8.7c-0.3,0.3,-0.6,0.6,-0.9,0.7c-0.3,0.2,-0.6,0.3,-0.8,0.3c-0.6,0,-1.1,-0.3,-1.5,-0.9c-0.3,-0.6,-0.5,-1.3,-0.5,-2.2c0,-0.9,0.2,-1.6,0.6,-2.2c0.3,-0.6,0.8,-0.9,1.5,-0.9c0.7,0,1.4,0.5,1.9,1.4l0,3.2c0,0.1,-0.1,0.3,-0.3,0.6Z" class="g18_39" />
<path d="M1418.4,441.9l-2.1,6.2l-2.2,-6.2l-1.2,0l2.8,7.8c-0.3,0.7,-0.5,1.2,-0.8,1.6c-0.2,0.3,-0.6,0.5,-1,0.5c-0.3,0,-0.6,-0.1,-1,-0.2l-0.2,0.9c0.5,0.2,0.9,0.3,1.4,0.3c0.5,0,1,-0.3,1.4,-0.7c0.4,-0.5,0.9,-1.3,1.3,-2.4l2.9,-7.8l-1.3,0Z" class="g18_39" />
<text 
transform="matrix(0.98, 0, 0, 1, 1384, 449)"
dx="0,0,0,0" 
class="s7_39"
>body</text>

<text 
transform="matrix(0.98, 0, 0, 1, 1424, 449)"
dx="0,0,0,0,0,0,0,0" 
class="s5_39"
>element.</text>

<text 
transform="matrix(0.98, 0, 0, 1, 879, 471)"
dx="0" 
class="s8_39"
>[</text>

<text 
transform="matrix(0.98, 0, 0, 1, 906, 471)"
dx="0,0,0,-0.9,-0.3,0,0,0,0,0,0,0,-0.9,0,0,0,-0.9,0,0,0,0,0,-0.9,0,0" 
class="s5_39"
>we restrict the width to </text>

<path d="M1064.8,470l-2.1,0l0,-9.5l-1,0l-2.2,1.2l0,1.2l2,-1.1l0,8.2l-2.1,0l0,1.1l5.4,0l0,-1.1Z" class="g18_39" />
<path d="M1068.3,461.8c-0.6,1,-0.9,2.3,-0.9,4c0,1.8,0.3,3.1,0.9,4.1c0.6,0.9,1.4,1.4,2.5,1.4c1.2,0,2,-0.5,2.6,-1.5c0.5,-1,0.8,-2.3,0.8,-4c0,-1.7,-0.3,-3,-0.9,-4c-0.5,-1,-1.4,-1.4,-2.5,-1.4c-1.1,0,-1.9,0.4,-2.5,1.4Zm0.9,7.4c-0.3,-0.7,-0.5,-1.9,-0.5,-3.4c0,-1.5,0.2,-2.6,0.5,-3.3c0.4,-0.7,0.9,-1.1,1.6,-1.1c0.7,0,1.3,0.4,1.6,1.1c0.4,0.7,0.6,1.8,0.6,3.3c0,1.6,-0.2,2.7,-0.6,3.4c-0.3,0.7,-0.9,1,-1.6,1c-0.7,0,-1.2,-0.3,-1.6,-1ZM1070,465c-0.2,0.2,-0.3,0.5,-0.3,0.8c0,0.3,0.1,0.6,0.3,0.9c0.2,0.2,0.5,0.3,0.8,0.3c0.3,0,0.6,-0.1,0.8,-0.3c0.2,-0.3,0.3,-0.6,0.3,-0.9c0,-0.3,-0.1,-0.6,-0.3,-0.8c-0.2,-0.2,-0.5,-0.3,-0.8,-0.3c-0.3,0,-0.6,0.1,-0.8,0.3Z" class="g18_39" />
<path d="M1082.5,470l-4.3,0c1.3,-1.5,2.2,-2.5,2.6,-3.1c0.5,-0.5,0.9,-1.1,1.2,-1.7c0.2,-0.7,0.4,-1.3,0.4,-1.9c0,-0.9,-0.3,-1.6,-0.9,-2.1c-0.5,-0.6,-1.3,-0.8,-2.2,-0.8c-0.8,0,-1.6,0.1,-2.3,0.4l0.2,1.1c0.8,-0.3,1.4,-0.5,1.9,-0.5c0.6,0,1.1,0.2,1.5,0.5c0.3,0.4,0.5,0.8,0.5,1.4c0,0.6,-0.1,1.2,-0.4,1.9c-0.3,0.6,-0.6,1.1,-1,1.7c-0.5,0.6,-1.4,1.7,-2.9,3.3l0,0.9l5.7,0l0,-1.1Z" class="g18_39" />
<path d="M1092.2,467.6l-1.3,0l0,-7l-1.6,0l-4.1,7.1l0,1l4.5,0l0,2.4l1.2,0l0,-2.4l1.3,0l0,-1.1Zm-5.7,0l3.2,-5.8l0,5.8l-3.2,0Z" class="g18_39" />
<path d="M1096.1,463.3l-1.2,0l0,10.9l1.2,0l0,-4.2c0.2,0.4,0.5,0.7,1,0.9c0.4,0.3,0.8,0.4,1.3,0.4c0.9,0,1.6,-0.4,2.1,-1.2c0.5,-0.8,0.8,-1.8,0.8,-3c0,-1.2,-0.3,-2.1,-0.8,-2.9c-0.5,-0.7,-1.1,-1.1,-2,-1.1c-0.5,0,-1,0.1,-1.4,0.4c-0.4,0.2,-0.8,0.5,-1,0.8l0,-1Zm2,0.8c0.6,0,1.1,0.3,1.5,0.9c0.3,0.5,0.5,1.3,0.5,2.2c0,0.8,-0.2,1.6,-0.5,2.2c-0.4,0.5,-0.9,0.8,-1.5,0.8c-0.4,0,-0.8,-0.1,-1.2,-0.4c-0.3,-0.3,-0.6,-0.7,-0.8,-1.1l0,-3.2c0.5,-0.9,1.2,-1.4,2,-1.4Z" class="g18_39" />
<path d="M1107.4,467.1l2.7,-3.8l-1.2,0l-2.1,3l-2.1,-3l-1.3,0l2.7,3.9l-2.7,3.9l1.2,0l2.2,-3.1l2,3.1l1.3,0l-2.7,-4Z" class="g18_39" />
<path d="M1115.2,469.6c-0.2,0.2,-0.3,0.4,-0.3,0.7c0,0.3,0.1,0.5,0.3,0.7c0.2,0.2,0.4,0.3,0.6,0.3c0.3,0,0.5,-0.1,0.7,-0.3c0.2,-0.2,0.2,-0.4,0.2,-0.7c0,-0.3,0,-0.5,-0.2,-0.7c-0.2,-0.1,-0.4,-0.2,-0.7,-0.2c-0.2,0,-0.4,0.1,-0.6,0.2Z" class="g18_39" />
<text 
transform="matrix(0.98, 0, 0, 1, 1057, 471)"
dx="0,0,0,0,0,0,0" 
class="s7_39"
>1024px.</text>

<text 
transform="matrix(0.98, 0, 0, 1, 879, 492)"
dx="0" 
class="s8_39"
>[</text>

<text 
transform="matrix(0.98, 0, 0, 1, 906, 492)"
dx="0,0,0,-0.7,0,0,0,-0.7,0,-0.7,0,0,0,0,0,0,0,-0.7,0,0,0,0,0,-0.7,0,0" 
class="s5_39"
>we set a minimum width of </text>

<path d="M1091.4,491.4l-4.4,0c1.4,-1.5,2.2,-2.5,2.7,-3.1c0.5,-0.5,0.8,-1.1,1.1,-1.8c0.3,-0.6,0.5,-1.2,0.5,-1.8c0,-0.9,-0.3,-1.6,-0.9,-2.2c-0.6,-0.5,-1.3,-0.8,-2.2,-0.8c-0.8,0,-1.6,0.2,-2.3,0.5l0.1,1.1c0.8,-0.3,1.5,-0.5,2,-0.5c0.6,0,1.1,0.2,1.4,0.5c0.4,0.4,0.6,0.8,0.6,1.4c0,0.6,-0.2,1.2,-0.4,1.8c-0.3,0.7,-0.6,1.2,-1.1,1.8c-0.4,0.6,-1.3,1.6,-2.8,3.3l0,0.9l5.7,0l0,-1.1Z" class="g18_39" />
<path d="M1096.4,483l3.7,0l0,-1.1l-4.7,0l0,5.1l0.7,0.3c0.4,-0.2,0.8,-0.2,1.2,-0.2c0.6,0,1.1,0.2,1.4,0.5c0.4,0.4,0.6,0.9,0.6,1.7c0,0.7,-0.2,1.3,-0.6,1.7c-0.4,0.4,-0.9,0.6,-1.5,0.6c-0.7,0,-1.4,-0.1,-2.1,-0.4l-0.2,1c0.6,0.3,1.3,0.5,2.2,0.5c1,0,1.8,-0.4,2.5,-1c0.6,-0.7,0.9,-1.5,0.9,-2.4c0,-1,-0.2,-1.7,-0.8,-2.3c-0.6,-0.6,-1.3,-0.9,-2.3,-0.9c-0.3,0,-0.7,0,-1,0.1l0,-3.2Z" class="g18_39" />
<path d="M1105.5,484c0.5,-0.8,1.1,-1.2,1.9,-1.2c0.6,0,1.2,0.1,1.9,0.4l0.2,-1.1c-0.6,-0.2,-1.3,-0.4,-2.1,-0.4c-1.2,0,-2.1,0.6,-2.8,1.7c-0.7,1,-1,2.4,-1,3.9c0,1.5,0.3,2.8,1,3.8c0.6,1.1,1.5,1.6,2.6,1.6c0.9,0,1.6,-0.3,2.1,-1c0.5,-0.6,0.7,-1.5,0.7,-2.4c0,-0.9,-0.2,-1.7,-0.8,-2.3c-0.6,-0.5,-1.3,-0.8,-2.2,-0.8c-0.8,0,-1.5,0.3,-2.1,0.8c0,-1.2,0.2,-2.2,0.6,-3Zm1.5,3.3c0.5,0,1,0.2,1.3,0.5c0.3,0.4,0.5,0.9,0.5,1.6c0,0.7,-0.2,1.2,-0.5,1.6c-0.3,0.4,-0.7,0.6,-1.2,0.6c-0.6,0,-1.1,-0.4,-1.6,-1.1c-0.4,-0.7,-0.6,-1.6,-0.6,-2.5c0.6,-0.5,1.3,-0.7,2.1,-0.7Z" class="g18_39" />
<path d="M1114,484.7l-1.2,0l0,10.8l1.2,0l0,-4.1c0.2,0.4,0.5,0.7,0.9,0.9c0.4,0.3,0.9,0.4,1.4,0.4c0.8,0,1.6,-0.4,2.1,-1.2c0.5,-0.8,0.8,-1.8,0.8,-3c0,-1.2,-0.3,-2.1,-0.8,-2.9c-0.5,-0.7,-1.2,-1.1,-2.1,-1.1c-0.4,0,-0.9,0.1,-1.3,0.3c-0.5,0.3,-0.8,0.5,-1,0.9l0,-1Zm2,0.8c0.6,0,1.1,0.3,1.5,0.9c0.3,0.5,0.5,1.3,0.5,2.2c0,0.8,-0.2,1.6,-0.6,2.2c-0.3,0.5,-0.8,0.8,-1.4,0.8c-0.4,0,-0.8,-0.1,-1.2,-0.4c-0.3,-0.3,-0.6,-0.7,-0.8,-1.1l0,-3.2c0.5,-0.9,1.2,-1.4,2,-1.4Z" class="g18_39" />
<path d="M1125.3,488.5l2.7,-3.8l-1.2,0l-2.1,3l-2.1,-3l-1.3,0l2.7,3.9l-2.7,3.9l1.2,0l2.1,-3.1l2.1,3.1l1.3,0l-2.7,-4Z" class="g18_39" />
<text 
transform="matrix(0.98, 0, 0, 1, 1084, 492)"
dx="0,0,0,0,0" 
class="s7_39"
>256px</text>

<text 
transform="matrix(0.98, 0, 0, 1, 1129, 492)"
dx="0,0,-0.7,0,0,-0.7,0,0,0,-0.7,0,0,0,0,0,0,-0.7,0,0,0,0,-0.7,0,0,0,0,0,0,0,-0.7,0,0,0,0,-0.7,0,0,0,0,-0.7,0,-0.7,0,0,0,0,0,0,0,0,0,0,-0.7,0,0,-0.3,0,0,0,-0.7,0,0,0,-0.7,0,0,0,0,-0.7,0,0,0,0,0,0" 
class="s5_39"
>. If the window gets smaller than this a horizontal scroll bar will appear </text>

<text 
transform="matrix(0.98, 0, 0, 1, 906, 513)"
dx="0,0,0,-0.9,0,0,0,-0.9,0,0,0,0,-0.9,0,0,-0.9,0,0,0,-0.9,0,0,0,0" 
class="s5_39"
>at the foot of the page.</text>

<text 
transform="matrix(0.98, 0, 0, 1, 879, 535)"
dx="0" 
class="s8_39"
>[</text>

<text 
transform="matrix(0.98, 0, 0, 1, 906, 535)"
dx="0,0,0,-0.2,0,0,0,-0.2,0,0,0" 
class="s5_39"
>we set the </text>

<path d="M986.7,529.8c0,-1.7,-0.5,-2.5,-1.4,-2.5c-0.3,0,-0.6,0.1,-0.9,0.4c-0.3,0.2,-0.5,0.5,-0.7,0.9c-0.1,-0.4,-0.3,-0.7,-0.6,-0.9c-0.2,-0.3,-0.5,-0.4,-0.8,-0.4c-0.3,0,-0.6,0.1,-0.9,0.4c-0.3,0.2,-0.5,0.5,-0.7,0.9l0,-1.1l-1.1,0l0,7.8l1.1,0l0,-5.7c0,0,0.2,-0.2,0.4,-0.7c0.3,-0.4,0.6,-0.6,0.8,-0.6c0.4,0,0.7,0.6,0.7,1.8l0,5.2l1.1,0l0,-5.7c0,0,0.1,-0.2,0.4,-0.7c0.3,-0.4,0.5,-0.6,0.8,-0.6c0.4,0,0.6,0.6,0.6,1.8l0,5.2l1.2,0l0,-5.5Z" class="g18_39" />
<path d="M995.1,533.4l0,-3.3c0,-1.9,-0.9,-2.8,-2.6,-2.8c-0.9,0,-1.9,0.3,-2.9,0.8l0.3,0.8c0.3,-0.1,0.7,-0.3,1.1,-0.4c0.5,-0.1,0.8,-0.2,1.1,-0.2c1.2,0,1.8,0.7,1.8,2l0,0.4l-1.2,0.1c-0.6,0,-1.1,0.1,-1.5,0.2c-0.5,0.1,-0.8,0.3,-1.1,0.5c-0.3,0.2,-0.5,0.4,-0.7,0.7c-0.1,0.3,-0.2,0.7,-0.2,1.1c0,0.6,0.2,1.1,0.7,1.5c0.4,0.4,0.9,0.7,1.5,0.7c1.1,0,2,-0.5,2.6,-1.5c0,0.5,0.1,0.9,0.1,1.3l1.2,0c-0.1,-0.6,-0.2,-1.2,-0.2,-1.9Zm-2.2,0.6c-0.4,0.2,-0.8,0.3,-1.2,0.3c-0.4,0,-0.7,-0.1,-0.9,-0.3c-0.3,-0.2,-0.4,-0.5,-0.4,-0.8c0,-0.4,0.1,-0.7,0.4,-0.9c0.3,-0.3,0.6,-0.4,1,-0.5c0.4,-0.1,1.1,-0.2,2.1,-0.3l0,1.4c-0.3,0.5,-0.6,0.8,-1,1.1Z" class="g18_39" />
<path d="M1002.5,527.3c-0.9,0,-1.7,0.6,-2.3,1.8l0,-1.6l-1.2,0l0,7.8l1.2,0l0,-5.1c0,0,0.1,-0.2,0.4,-0.6c0.2,-0.4,0.5,-0.6,0.9,-0.8c0.3,-0.2,0.6,-0.3,0.9,-0.3c0.4,0,0.8,0.1,1.4,0.3l0.4,-1.1c-0.5,-0.3,-1.1,-0.4,-1.7,-0.4Z" class="g18_39" />
<path d="M1009.8,532.3c0.7,0,1.3,-0.2,1.8,-0.7c0.5,-0.5,0.7,-1.1,0.7,-1.8c0,-0.5,-0.1,-1,-0.3,-1.4l1.5,0l0,-1.1l-2.3,0.3c-0.4,-0.2,-0.9,-0.3,-1.4,-0.3c-0.8,0,-1.4,0.2,-1.8,0.7c-0.5,0.5,-0.8,1.1,-0.8,1.8c0,0.5,0.1,0.9,0.3,1.3c0.3,0.4,0.6,0.7,1,1c-0.9,0.4,-1.3,1,-1.3,1.5c0,0.5,0.3,0.9,1,1.2c-0.8,0.4,-1.3,1,-1.3,1.6c0,0.6,0.3,1,0.9,1.4c0.5,0.3,1.2,0.5,2,0.5c1.1,0,2,-0.2,2.7,-0.8c0.8,-0.5,1.2,-1.2,1.2,-2.1c0,-0.5,-0.2,-0.9,-0.5,-1.3c-0.4,-0.3,-0.8,-0.4,-1.4,-0.4l-2.6,0.1c-0.3,0,-0.5,-0.1,-0.7,-0.2c-0.2,-0.1,-0.2,-0.2,-0.2,-0.3c0,-0.3,0.3,-0.6,1,-1c0.2,0,0.3,0,0.5,0Zm-1,-1.3c-0.3,-0.3,-0.5,-0.7,-0.5,-1.2c0,-0.4,0.2,-0.8,0.5,-1.1c0.2,-0.3,0.6,-0.5,1,-0.5c0.4,0,0.8,0.2,1,0.4c0.3,0.3,0.4,0.7,0.4,1.2c0,0.5,-0.1,0.9,-0.4,1.2c-0.3,0.3,-0.6,0.4,-1,0.4c-0.4,0,-0.8,-0.1,-1,-0.4Zm-0.3,6.1c-0.3,-0.2,-0.5,-0.5,-0.5,-0.8c0,-0.2,0.1,-0.4,0.2,-0.5c0.1,-0.2,0.3,-0.4,0.5,-0.6c0.2,-0.2,0.4,-0.3,0.5,-0.3c0.2,0,0.5,0,0.9,0c0.6,0,1.1,0,1.3,0c0.8,0,1.1,0.2,1.1,0.7c0,0.5,-0.2,1,-0.7,1.3c-0.6,0.4,-1.2,0.5,-2,0.5c-0.5,0,-1,-0.1,-1.3,-0.3Z" class="g18_39" />
<path d="M1019.1,524.8c-0.1,0.1,-0.2,0.3,-0.2,0.5c0,0.3,0.1,0.4,0.2,0.6c0.2,0.2,0.3,0.2,0.5,0.2c0.3,0,0.5,0,0.6,-0.2c0.1,-0.1,0.2,-0.3,0.2,-0.6c0,-0.2,-0.1,-0.4,-0.2,-0.5c-0.2,-0.2,-0.3,-0.3,-0.6,-0.3c-0.2,0,-0.3,0.1,-0.5,0.3Zm1.1,2.7l-3.4,0l0,1l2.3,0l0,6.8l1.1,0l0,-7.8Z" class="g18_39" />
<path d="M1031.1,529.9c0,-1.7,-0.7,-2.6,-2.1,-2.6c-0.9,0,-1.8,0.4,-2.6,1.3l0,-1.1l-1.2,0l0,7.8l1.2,0l0,-5.7c0.8,-0.9,1.5,-1.3,2.2,-1.3c0.5,0,0.8,0.2,1,0.5c0.3,0.3,0.4,0.8,0.4,1.5l0,5l1.1,0l0,-5.4Z" class="g18_39" />
<path d="M1039.5,530.5l-5,0l0,1l5,0l0,-1Z" class="g18_39" />
<path d="M1048.5,534.5l-2,0l0,-10l-3,0l0,1l2,0l0,10l3,0l0,-1Z" class="g18_39" />
<path d="M1058.4,531c0,-1.1,-0.3,-2,-0.9,-2.7c-0.6,-0.7,-1.4,-1,-2.2,-1c-1,0,-1.8,0.4,-2.4,1.1c-0.7,0.7,-1,1.7,-1,2.9c0,1.3,0.4,2.3,1.1,3c0.7,0.8,1.6,1.2,2.7,1.2c0.9,0,1.7,-0.2,2.4,-0.5l-0.2,-0.9c-0.8,0.2,-1.5,0.3,-2.2,0.3c-0.7,0,-1.3,-0.2,-1.8,-0.8c-0.5,-0.6,-0.8,-1.3,-0.8,-2.2l5.3,0l0,-0.4Zm-5.2,-0.5c0,-0.7,0.3,-1.2,0.6,-1.6c0.4,-0.4,0.9,-0.6,1.5,-0.6c0.5,0,0.9,0.2,1.3,0.6c0.3,0.4,0.5,0.9,0.5,1.6l-3.9,0Z" class="g18_39" />
<path d="M1065.5,524.5c-0.9,0,-1.4,0.2,-1.8,0.6c-0.3,0.4,-0.5,1.1,-0.5,2.1l0,0.3l-1.9,0l0,1l1.9,0l0,6.8l1.2,0l0,-6.8l2.5,0l0,-1l-2.5,0l0,-0.2c0,-0.7,0.1,-1.2,0.2,-1.4c0.2,-0.2,0.4,-0.3,0.9,-0.3c0.4,0,0.9,0,1.4,0.2l0.3,-1c-0.6,-0.2,-1.2,-0.3,-1.7,-0.3Z" class="g18_39" />
<path d="M1076,534c-0.6,0.3,-1.2,0.4,-1.8,0.4c-0.4,0,-0.7,-0.1,-0.9,-0.4c-0.2,-0.2,-0.3,-0.6,-0.3,-1.1l0,-4.4l2.6,0l0,-1l-2.6,0l0,-2.1l-1.1,0l0,2.1l-1.5,0l0,1l1.5,0l0,4.7c0,1.5,0.7,2.2,2.1,2.2c0.7,0,1.5,-0.1,2.2,-0.5L1076,534Z" class="g18_39" />
<text 
transform="matrix(0.98, 0, 0, 1, 978, 535)"
dx="0,0,0,0,0,0,0,0,0,0,0,0" 
class="s7_39"
>margin-left </text>

<text 
transform="matrix(0.98, 0, 0, 1, 1086, 535)"
dx="0,0,0,0" 
class="s5_39"
>and </text>

<path d="M1124.2,529.8c0,-1.7,-0.5,-2.5,-1.4,-2.5c-0.3,0,-0.6,0.1,-0.9,0.4c-0.3,0.2,-0.5,0.5,-0.8,0.9c-0.1,-0.4,-0.2,-0.7,-0.5,-0.9c-0.2,-0.3,-0.5,-0.4,-0.8,-0.4c-0.3,0,-0.6,0.1,-0.9,0.4c-0.3,0.2,-0.5,0.5,-0.7,0.9l0,-1.1l-1.1,0l0,7.8l1.1,0l0,-5.7c0,0,0.1,-0.2,0.4,-0.7c0.3,-0.4,0.5,-0.6,0.8,-0.6c0.4,0,0.6,0.6,0.6,1.8l0,5.2l1.2,0l0,-5.7c0,0,0.1,-0.2,0.4,-0.7c0.3,-0.4,0.5,-0.6,0.8,-0.6c0.4,0,0.6,0.6,0.6,1.8l0,5.2l1.2,0l0,-5.5Z" class="g18_39" />
<path d="M1132.6,533.4l0,-3.3c0,-1.9,-0.9,-2.8,-2.6,-2.8c-0.9,0,-1.9,0.3,-2.9,0.8l0.3,0.8c0.3,-0.1,0.7,-0.3,1.1,-0.4c0.4,-0.1,0.8,-0.2,1.1,-0.2c1.2,0,1.8,0.7,1.8,2l0,0.4l-1.2,0.1c-0.6,0,-1.1,0.1,-1.5,0.2c-0.5,0.1,-0.8,0.3,-1.1,0.5c-0.3,0.2,-0.5,0.4,-0.7,0.7c-0.1,0.3,-0.2,0.7,-0.2,1.1c0,0.6,0.2,1.1,0.6,1.5c0.5,0.4,1,0.7,1.5,0.7c1.2,0,2,-0.5,2.7,-1.5c0,0.5,0,0.9,0.1,1.3l1.2,0c-0.2,-0.6,-0.2,-1.2,-0.2,-1.9Zm-2.2,0.6c-0.4,0.2,-0.8,0.3,-1.2,0.3c-0.4,0,-0.7,-0.1,-0.9,-0.3c-0.3,-0.2,-0.4,-0.5,-0.4,-0.8c0,-0.4,0.1,-0.7,0.4,-0.9c0.3,-0.3,0.6,-0.4,1,-0.5c0.4,-0.1,1.1,-0.2,2.1,-0.3l0,1.4c-0.3,0.5,-0.6,0.8,-1,1.1Z" class="g18_39" />
<path d="M1140,527.3c-0.9,0,-1.7,0.6,-2.4,1.8l0,-1.6l-1.1,0l0,7.8l1.1,0l0,-5.1c0,0,0.2,-0.2,0.5,-0.6c0.2,-0.4,0.5,-0.6,0.8,-0.8c0.4,-0.2,0.7,-0.3,1,-0.3c0.4,0,0.8,0.1,1.3,0.3l0.5,-1.1c-0.5,-0.3,-1.1,-0.4,-1.7,-0.4Z" class="g18_39" />
<path d="M1147.3,532.3c0.7,0,1.3,-0.2,1.8,-0.7c0.5,-0.5,0.7,-1.1,0.7,-1.8c0,-0.5,-0.1,-1,-0.3,-1.4l1.5,0l0,-1.1l-2.3,0.3c-0.4,-0.2,-0.9,-0.3,-1.4,-0.3c-0.8,0,-1.4,0.2,-1.9,0.7c-0.5,0.5,-0.7,1.1,-0.7,1.8c0,0.5,0.1,0.9,0.3,1.3c0.3,0.4,0.6,0.7,1,1c-0.9,0.4,-1.4,1,-1.4,1.5c0,0.5,0.4,0.9,1.1,1.2c-0.9,0.4,-1.3,1,-1.3,1.6c0,0.6,0.3,1,0.8,1.4c0.6,0.3,1.3,0.5,2.1,0.5c1,0,1.9,-0.2,2.7,-0.8c0.8,-0.5,1.2,-1.2,1.2,-2.1c0,-0.5,-0.2,-0.9,-0.5,-1.3c-0.4,-0.3,-0.8,-0.4,-1.5,-0.4l-2.5,0.1c-0.3,0,-0.5,-0.1,-0.7,-0.2c-0.2,-0.1,-0.2,-0.2,-0.2,-0.3c0,-0.3,0.3,-0.6,1,-1c0.2,0,0.3,0,0.5,0Zm-1.1,-1.3c-0.2,-0.3,-0.4,-0.7,-0.4,-1.2c0,-0.4,0.2,-0.8,0.4,-1.1c0.3,-0.3,0.7,-0.5,1.1,-0.5c0.4,0,0.8,0.2,1,0.4c0.3,0.3,0.4,0.7,0.4,1.2c0,0.5,-0.1,0.9,-0.4,1.2c-0.3,0.3,-0.6,0.4,-1,0.4c-0.4,0,-0.8,-0.1,-1.1,-0.4Zm-0.2,6.1c-0.3,-0.2,-0.5,-0.5,-0.5,-0.8c0,-0.2,0.1,-0.4,0.2,-0.5c0.1,-0.2,0.3,-0.4,0.5,-0.6c0.2,-0.2,0.4,-0.3,0.5,-0.3c0.2,0,0.5,0,0.9,0c0.6,0,1.1,0,1.3,0c0.8,0,1.1,0.2,1.1,0.7c0,0.5,-0.2,1,-0.8,1.3c-0.5,0.4,-1.1,0.5,-1.9,0.5c-0.5,0,-1,-0.1,-1.3,-0.3Z" class="g18_39" />
<path d="M1156.6,524.8c-0.2,0.1,-0.2,0.3,-0.2,0.5c0,0.3,0,0.4,0.2,0.6c0.2,0.2,0.3,0.2,0.5,0.2c0.3,0,0.4,0,0.6,-0.2c0.1,-0.1,0.2,-0.3,0.2,-0.6c0,-0.2,-0.1,-0.4,-0.2,-0.5c-0.2,-0.2,-0.4,-0.3,-0.6,-0.3c-0.2,0,-0.3,0.1,-0.5,0.3Zm1.1,2.7l-3.4,0l0,1l2.2,0l0,6.8l1.2,0l0,-7.8Z" class="g18_39" />
<path d="M1168.6,529.9c0,-1.7,-0.7,-2.6,-2.1,-2.6c-1,0,-1.8,0.4,-2.6,1.3l0,-1.1l-1.2,0l0,7.8l1.2,0l0,-5.7c0.8,-0.9,1.5,-1.3,2.2,-1.3c0.5,0,0.8,0.2,1,0.5c0.2,0.3,0.4,0.8,0.4,1.5l0,5l1.1,0l0,-5.4Z" class="g18_39" />
<path d="M1176.5,530.5l-4,0l0,1l4,0l0,-1Z" class="g18_39" />
<path d="M1185.1,527.3c-1,0,-1.8,0.6,-2.4,1.8l0,-1.6l-1.2,0l0,7.8l1.2,0l0,-5.1c0,0,0.1,-0.2,0.4,-0.6c0.3,-0.4,0.6,-0.6,0.9,-0.8c0.3,-0.2,0.6,-0.3,1,-0.3c0.3,0,0.8,0.1,1.3,0.3l0.4,-1.1c-0.5,-0.3,-1.1,-0.4,-1.6,-0.4Z" class="g18_39" />
<path d="M1192.6,524.8c-0.1,0.1,-0.2,0.3,-0.2,0.5c0,0.3,0.1,0.4,0.2,0.6c0.2,0.2,0.4,0.2,0.6,0.2c0.2,0,0.4,0,0.5,-0.2c0.2,-0.1,0.2,-0.3,0.2,-0.6c0,-0.2,0,-0.4,-0.2,-0.5c-0.1,-0.2,-0.3,-0.3,-0.5,-0.3c-0.2,0,-0.4,0.1,-0.6,0.3Zm1.1,2.7l-3.4,0l0,1l2.3,0l0,6.8l1.1,0l0,-7.8Z" class="g18_39" />
<path d="M1201.3,532.3c0.8,0,1.4,-0.2,1.8,-0.7c0.5,-0.5,0.8,-1.1,0.8,-1.8c0,-0.5,-0.1,-1,-0.4,-1.4l1.5,0l0,-1.1l-2.3,0.3c-0.4,-0.2,-0.9,-0.3,-1.4,-0.3c-0.7,0,-1.3,0.2,-1.8,0.7c-0.5,0.5,-0.8,1.1,-0.8,1.8c0,0.5,0.2,0.9,0.4,1.3c0.2,0.4,0.5,0.7,0.9,1c-0.9,0.4,-1.3,1,-1.3,1.5c0,0.5,0.3,0.9,1,1.2c-0.8,0.4,-1.2,1,-1.2,1.6c0,0.6,0.2,1,0.8,1.4c0.5,0.3,1.2,0.5,2.1,0.5c1,0,1.9,-0.2,2.7,-0.8c0.7,-0.5,1.1,-1.2,1.1,-2.1c0,-0.5,-0.2,-0.9,-0.5,-1.3c-0.3,-0.3,-0.8,-0.4,-1.4,-0.4l-2.6,0.1c-0.3,0,-0.5,-0.1,-0.7,-0.2c-0.1,-0.1,-0.2,-0.2,-0.2,-0.3c0,-0.3,0.3,-0.6,1.1,-1c0.1,0,0.3,0,0.4,0Zm-1,-1.3c-0.3,-0.3,-0.4,-0.7,-0.4,-1.2c0,-0.4,0.1,-0.8,0.4,-1.1c0.3,-0.3,0.6,-0.5,1,-0.5c0.4,0,0.8,0.2,1,0.4c0.3,0.3,0.4,0.7,0.4,1.2c0,0.5,-0.1,0.9,-0.4,1.2c-0.2,0.3,-0.6,0.4,-1,0.4c-0.4,0,-0.7,-0.1,-1,-0.4Zm-0.3,6.1c-0.3,-0.2,-0.5,-0.5,-0.5,-0.8c0,-0.2,0.1,-0.4,0.2,-0.5c0.1,-0.2,0.3,-0.4,0.5,-0.6c0.3,-0.2,0.4,-0.3,0.5,-0.3c0.3,0,0.6,0,1,0c0.6,0,1,0,1.2,0c0.8,0,1.2,0.2,1.2,0.7c0,0.5,-0.3,1,-0.8,1.3c-0.6,0.4,-1.2,0.5,-1.9,0.5c-0.6,0,-1,-0.1,-1.4,-0.3Z" class="g18_39" />
<path d="M1213.6,529.9c0,-1.7,-0.7,-2.6,-2.1,-2.6c-0.9,0,-1.8,0.4,-2.6,1.3l0,-3.9l-1.2,0l0,10.6l1.2,0l0,-5.7c0.8,-0.9,1.5,-1.3,2.2,-1.3c0.5,0,0.8,0.2,1.1,0.5c0.2,0.3,0.3,0.8,0.3,1.5l0,5l1.1,0l0,-5.4Z" class="g18_39" />
<path d="M1222.5,534c-0.6,0.3,-1.2,0.4,-1.8,0.4c-0.4,0,-0.7,-0.1,-0.9,-0.4c-0.2,-0.2,-0.3,-0.6,-0.3,-1.1l0,-4.4l2.6,0l0,-1l-2.6,0l0,-2.1l-1.1,0l0,2.1l-1.5,0l0,1l1.5,0l0,4.7c0,1.5,0.7,2.2,2,2.2c0.8,0,1.5,-0.1,2.3,-0.5l-0.2,-0.9Z" class="g18_39" />
<text 
transform="matrix(0.98, 0, 0, 1, 1116, 535)"
dx="0,0,0,0,0,0,0,0,0,0,0,0" 
class="s7_39"
>margin-right</text>

<text 
transform="matrix(0.98, 0, 0, 1, 1228, 535)"
dx="0,0,-0.3,0,0,0,0.3,0,0,0,0,-0.2,0,0" 
class="s5_39"
>properties to </text>

<path d="M1324.5,533.4l0,-3.3c0,-1.9,-0.9,-2.8,-2.6,-2.8c-0.9,0,-1.9,0.3,-2.9,0.8l0.3,0.8c0.3,-0.1,0.7,-0.3,1.1,-0.4c0.4,-0.1,0.8,-0.2,1.1,-0.2c1.2,0,1.8,0.7,1.8,2l0,0.4l-1.3,0.1c-0.5,0,-1,0.1,-1.5,0.2c-0.4,0.1,-0.7,0.3,-1,0.5c-0.3,0.2,-0.5,0.4,-0.7,0.7c-0.1,0.3,-0.2,0.7,-0.2,1.1c0,0.6,0.2,1.1,0.6,1.5c0.5,0.4,1,0.7,1.5,0.7c1.1,0,2,-0.5,2.7,-1.5c0,0.5,0,0.9,0.1,1.3l1.2,0c-0.2,-0.6,-0.2,-1.2,-0.2,-1.9Zm-2.2,0.6c-0.4,0.2,-0.8,0.3,-1.2,0.3c-0.4,0,-0.7,-0.1,-1,-0.3c-0.2,-0.2,-0.3,-0.5,-0.3,-0.8c0,-0.4,0.1,-0.7,0.4,-0.9c0.3,-0.3,0.6,-0.4,1,-0.5c0.4,-0.1,1.1,-0.2,2.1,-0.3l0,1.4c-0.3,0.5,-0.6,0.8,-1,1.1Z" class="g18_39" />
<path d="M1333.5,527.5l-1.2,0l0,5.6c-0.8,0.9,-1.5,1.3,-2.2,1.3c-0.5,0,-0.9,-0.1,-1.1,-0.5c-0.2,-0.3,-0.3,-0.8,-0.3,-1.4l0,-5l-1.1,0l0,5.3c0,1.8,0.7,2.6,2.1,2.6c0.9,0,1.8,-0.4,2.6,-1.3l0,1.2l1.2,0l0,-7.8Z" class="g18_39" />
<path d="M1342.4,534c-0.7,0.3,-1.3,0.4,-1.9,0.4c-0.4,0,-0.6,-0.1,-0.8,-0.4c-0.2,-0.2,-0.3,-0.6,-0.3,-1.1l0,-4.4l2.6,0l0,-1l-2.6,0l0,-2.1l-1.2,0l0,2.1l-1.4,0l0,1l1.4,0l0,4.7c0,1.5,0.7,2.2,2.1,2.2c0.7,0,1.5,-0.1,2.3,-0.5l-0.2,-0.9Z" class="g18_39" />
<path d="M1346,528.4c-0.6,0.8,-0.9,1.7,-0.9,3c0,1.2,0.3,2.2,0.9,2.9c0.6,0.8,1.5,1.2,2.5,1.2c1.1,0,1.9,-0.4,2.5,-1.2c0.7,-0.7,1,-1.7,1,-2.9c0,-1.3,-0.3,-2.2,-1,-3c-0.6,-0.7,-1.4,-1.1,-2.5,-1.1c-1,0,-1.9,0.4,-2.5,1.1Zm0.9,5.2c-0.4,-0.6,-0.6,-1.4,-0.6,-2.2c0,-0.9,0.2,-1.7,0.6,-2.2c0.4,-0.6,0.9,-0.9,1.6,-0.9c0.7,0,1.3,0.3,1.7,0.9c0.4,0.5,0.6,1.3,0.6,2.2c0,0.8,-0.2,1.5,-0.6,2.1c-0.4,0.6,-1,0.9,-1.7,0.9c-0.7,0,-1.2,-0.3,-1.6,-0.8Z" class="g18_39" />
<text 
transform="matrix(0.98, 0, 0, 1, 1317, 535)"
dx="0,0,0,0" 
class="s7_39"
>auto</text>

<text 
transform="matrix(0.98, 0, 0, 1, 1353, 535)"
dx="0,0,-0.2,0,0,0,0,-0.2,0,0,0,0,0,-0.2,0,0,0,-0.2,0,0,0,0,-0.2,0,0,0,0,0,-0.2,0,0,0,0,-0.2,0,0" 
class="s5_39"
>. This makes our body panel stay in </text>

<text 
transform="matrix(0.98, 0, 0, 1, 906, 556)"
dx="0,0,0,0,-0.9,0,0,0,0,-0.3,0,-0.9,0,0,-0.9,0,0,0,-0.9,0,-0.3,0,0,0,0,0,-0.9,0,0,0,0,0,-0.8" 
class="s5_39"
>the centre of the browser window.</text>

<text 
transform="matrix(0.98, 0, 0, 1, 879, 578)"
dx="0" 
class="s8_39"
>[</text>

<text 
transform="matrix(0.98, 0, 0, 1, 906, 578)"
dx="0,0,0,-0.9,0,0,0,0,-0.9,0,0,0,-0.9,0,0,0,-0.9,0,0,0,0,-0.9,0,0,0,0,0,-0.9,0,0,0,-0.9,0,0,0,-0.9,0,0,0,0,-0.9,0,0,0,0,0,-1.4" 
class="s5_39"
>we also set the font style and the text colour.</text>

<text 
transform="matrix(0.98, 0, 0, 1, 1259, 75)"
dx="0,-1.7,0,-0.9,0,0,0,0" 
class="s5_39"
>To this:</text>

<text 
x="1323" 
y="631" 
dx="0,0,0,0,0,-1.8" 
class="s7_39"
>body {</text>

<text 
x="1323" 
y="652" 
dx="0,0,0,0,0,0,0,0,0,0,0,0,0,0,0,0,0,0,0,0,0,0,0" 
class="s7_39"
>background-color:White;</text>

<text 
x="1323" 
y="674" 
dx="0,0,0,0,0,0,0,0,0,0,0,0,0,0" 
class="s7_39"
>color:#111111;</text>

<text 
x="1323" 
y="695" 
dx="0,0,0,0,0,0,0,0,0,0,0,0,0,0,0,0,0,0,0,0,0,0,0" 
class="s7_39"
>font-family:sans-serif;</text>

<text 
x="1323" 
y="717" 
dx="0,0,0,0,0,0,0,0,0,0,0,0,0,-1.8,0,0,0,0" 
class="s7_39"
>margin-left: auto;</text>

<text 
x="1323" 
y="738" 
dx="0,0,0,0,0,0,0,0,0,0,0,0,0,0,-1.8,0,0,0,0" 
class="s7_39"
>margin-right: auto;</text>

<text 
x="1323" 
y="759" 
dx="0,0,0,0,0,0,0,0,0,0,0,-1.8,0,0,0,0,0,0" 
class="s7_39"
>max-width: 1024px;</text>

<text 
x="1323" 
y="781" 
dx="0,0,0,0,0,0,0,0,0,0,0,-1.8,0,0,0,0,0" 
class="s7_39"
>min-width: 256px;</text>

<text 
x="1323" 
y="802" 
dx="0" 
class="s7_39"
>}</text>

<path d="M875,84.4l-1,1.7l1,1.7" class="g7_39" />
<text 
x="878" 
y="271" 
dx="0,0,0,0,0,0,0,-0.3,0,-0.3,0,0,0,0,0,-0.1,-0.3,0,0,0,0,0,0,0,0,0,0,0,0,-0.1" 
class="s9_39"
>Daniel – Singer extraordinaire</text>

<text 
x="878" 
y="351" 
dx="0,0,0,0,-0.3,0,-0.3,0,0,0,0,0,0,0,-0.3,0,0,0,0,0,0,-0.3,0,0,0,0,0,0" 
class="s9_39"
>Sam – One-man rhythm section</text>

<text 
x="878" 
y="327" 
dx="0,0,0,0,0,0,0,-0.2,0,0,-0.2,0,0,0,-0.2,0,0,0,0,0,0,0,0,0,0,-0.2,0,0,0,0,0,-0.3,0,-0.2,0,0,-0.2,0,0,0,0,0,-0.2,0,0,-0.2,0,0,0,0,-0.2,0,0.1,0,-0.2,0,0,0,-0.2,0,0,0,0,-0.2,0,-0.2,0,0,0,-0.2,0,0,0,0,-0.2,0,0,0,0,-0.2,0,0,0,0,-0.2,0,0,0,0,0,0,0,-0.2,0,0,0,0,-0.2,0,0,0,-0.2,0,0,0,0,0,0,0,0,0,0,-0.2,0,0,0,-0.2,0,0,0,-0.2,0,0,0,-0.2,0,0,0,-0.2,0,0,0,-0.2,0,0,-0.2,0,0,0,0,0,0,0,-0.2,0,0,-0.2,0,0,0,0,-0.2,0,0,0,0,0,0,-0.2,0,0,-0.2,0,0,0,0,0,0,0,-0.2,0,0,-0.2,0,0,0,0" 
class="s10_39"
>Daniel is the Nanonauts' singer. He likes to sing a l the time – not just when he's playing with the Nanonauts! His mum and dad say he learned to sing before he learned to talk!</text>

<text 
x="878" 
y="332" 
dx="0,0,0,0,0,0,0,-0.2,0,0,0,0,-0.2,0,0,0,0,0,-0.2,0,0,0,0,0,0,0,0,-0.2,0,0,0,-0.2,0,0,-0.2,0,0,0,0,0,0,0,0,-0.2,0,0,0,-0.2,0,0,0,0,-0.2,0,0,0,0,0,0,0,0,0" 
class="s10_39"
>Daniel also plays clarinet and is learning the alto saxophone.</text>

<text 
x="885" 
y="726" 
dx="0,0,0,0,0,-0.4,0,0,0,-0.4,0,0,0,0,0,0,0,0" 
class="s11_39"
>Meet the Nanonauts</text>

<text 
x="885" 
y="837" 
dx="0,0,0,0,0,0,0,-0.4,0,-0.4,0,0,0,0.1,0,0,-0.4,-0.1,0,0,0,0,0,-0.2,0,0,0,0,0,0" 
class="s11_39"
>Daniel – Singer extraordinaire</text>

<text 
x="885" 
y="943" 
dx="0,0,0,0,-0.4,0,-0.4,0,0,0,0,0,0,0,-0.4,0,-0.2,0,0,0,0,-0.4,0,0,0,0,0,0" 
class="s11_39"
>Sam – One-man rhythm section</text>

<text 
x="327" 
y="811" 
dx="0,0,0,0,-0.1,0,0,0,-0.1,0,0,0,0,0,-0.1,0,0,-0.1,0,0,0,-0.1,0,0,0,0,0,-0.1,0,0,0,0,-0.1,0,0,0,-0.1,0,0,0,-0.1,0,0,-0.1,0,0,0,-0.1,0,0,0,0,0,-0.1,0,0,0,0,-0.1,0,0,0,-0.1,0,0,0,-0.1,0,0,0,-0.1,0,0,0,-0.1,0,0,0,0,-0.1,0,0,0,0,0,0,0,0,0,0,0,-0.1,0,0,0,-0.1,0,0,0,-0.1,0,0,0,-0.1,0,0,0,-0.1,0,0,0,0,0" 
class="s2_39"
>Sam had music in his blood from the day he was born. Both his mum and dad play instruments and got him his first </text>

<text 
x="327" 
y="820" 
dx="0,0,0,0,0,-0.3,0,0,0,-0.3,0,0,0,0,-0.3,0,0,-0.3,0,0,0,-0.3,0,0,0,0,-0.3,0,0,0,0,-0.3,0,0,0,0,0,-0.3,0,0,0,0,-0.3,0,0,0,0,0,-0.3,0,0,0,-0.3,0,0,-0.3,0,0,0,0,0,0,0,-0.3,0,0,0,0,-0.3,0,0,0,-0.3,0,0,0,0,0,0,0,0,0,0,0,-0.3,0,0,-0.3,0,0,0,0,-0.3,0,0,0,0,0,-0.3,0,0,-0.3,0,0,0,0,0,-0.3,0,0,0,-0.3,0,0,0,0" 
class="s2_39"
>drum kit when he was only five years old, which led to trouble with the neighbours. On some songs he plays the bass </text>

<text 
x="327" 
y="829" 
dx="0,0,0,0,0,0,0,-0.5,0,0,0,-0.5,0,0,-0.5,0,0,0,0,-0.5,0,0,0,0,0,-0.5,0,0,0,-0.5,0,0,0,0,0,0,-0.5,0,0,0,-0.5,0,0,0,0,0,-0.5,0,0,0,0,0,0,0,-0.5,0,0,-0.5,0,0,0,-0.5,0,0,0,0,0,0,0,0,0,-0.5,0,0,0,-0.5,0,0,0,0,0,-0.5,0,0,0,0,0,0,0,0,-0.5,0,0,0,-0.5,0,0,0,0,0,0,0,-0.5,0,0,0,0,0,0" 
class="s2_39"
>guitar and on some songs the drums. Sam loves playing in the Nanonauts but hates carrying his drumkit around.</text>

<text 
x="885" 
y="909" 
dx="0,0,0,0,0,0,0,0.1,0,0,0.1,0,0,0,0.1,0,0,0,0,0,0,0,0,0,0,0.1,0,0,0,0,0,-0.3,0,0.1,0,0,0.1,0,0,0,0,0,0.1,0,0,0.1,0,0,0,0,0.1,0,-0.2,0,0.1,0,0,0,0.1,0,0,0,0,0.1,0,0.1,0,0,0,0.1,0,0,0,0,0.1,0,0,0,0,0.1,0,0,0,0,0.1,0,0,0,0,0,0,0,0.1,0,0,0,0,0.1,0,0,0,0.1,0,0,0,0,0,0,0,0,0,0,0.1,0,0,0,0.1,0,0,0,0.1,0,0,0,0.1,0,0,0,0.1,0,0,0,0.1,0,0,0.1,0,0,0,0,0,0,0,0.1,0,0" 
class="s12_39"
>Daniel is the Nanonauts' singer. He likes to sing a l the time – not just when he's playing with the Nanonauts! His mum and dad say he learned to </text>

<text 
x="885" 
y="917" 
dx="0,0,0,0,0,-0.3,0,0,0,0,0,0,-0.3,0,0,-0.3,0,0,0,0,0,0,0,-0.3,0,0,-0.3,0,0,0,0" 
class="s12_39"
>sing before he learned to talk!</text>

<text 
x="885" 
y="925" 
dx="0,0,0,0,0,0,0,-0.3,0,0,0,0,-0.3,0,0,0,0,0,-0.3,0,0,0,0,0,0,0,0,-0.3,0,0,0,-0.3,0,0,-0.3,0,0,0,0,0,0,0,0,-0.3,0,0,0,-0.3,0,0,0,0,-0.3,0,0,0,0,0,0,0,0,0" 
class="s12_39"
>Daniel also plays clarinet and is learning the alto saxophone.</text>

<text 
x="879" 
y="182" 
dx="0,0,0,0,0,-0.4,0,0,0,-0.4,0,0,0,0,0,0,0,0" 
class="s13_39"
>Meet the Nanonauts</text>

<text 
x="885" 
y="736" 
dx="0,-0.1,0,-0.3,0,0,0,-0.3,0,0,0,-0.3,0,0,0,0,0,0,0,0,0,0" 
class="s12_39"
>We are the Nanonauts. </text>

<text 
x="885" 
y="743" 
dx="0,0,0,0,-0.3,0,0,0,0,0,-0.3,0,0,0,-0.3,0,0,-0.2,0,-0.4,0,-0.3,0,0,0,0,0,0,0,-0.3,0,0,0,0,0,0,-0.3,0,0,0,-0.3,0,0,0" 
class="s12_39"
>Our names are Ho ly, Dervla, Daniel and Sam.</text>

<text 
x="880" 
y="191" 
dx="0,-0.4,0,-0.3,0,0,0,-0.3,0,0,0,-0.3,0,0,0,0,0,0,0,0,0,0" 
class="s14_39"
>We are the Nanonauts. </text>

<text 
x="880" 
y="197" 
dx="0,0,0,0,-0.3,0,0,0,0,0,-0.3,0,0,0,-0.3,0,0,0.2,0,-0.4,0,-0.3,0,0,0,0,0,0,0,-0.3,0,0,0,0,0,0,-0.3,0,0,0,-0.3,0,0,0" 
class="s14_39"
>Our names are Ho ly, Dervla, Daniel and Sam.</text>

<path d="M297,202l0,4l-4,0l0,4l-4,0l0,4l-4,0l0,4l-4,0l0,-4l0,-4l0,-4l0,-4l0,-4l0,-4l0,-4l0,-4l0,-4l4,0l0,4l4,0l0,4l4,0l0,4l4,0l0,4l4,0l0,4Z" class="g19_39" />
<path d="M1239,255l0,5l-4,0l0,4l-4,0l0,4l-4,0l0,4l-4,0l0,-4l0,-4l0,-4l0,-5l0,-4l0,-4l0,-4l0,-4l0,-4l4,0l0,4l4,0l0,4l4,0l0,4l4,0l0,4l4,0l0,4Z" class="g19_39" />
<text 
x="1259" 
y="163" 
dx="0,0,0,0,0,-0.4,0,0,0,-0.4,0,0,0,0,0,0,0,0" 
class="s15_39"
>Meet the Nanonauts</text>

<text 
x="1266" 
y="276" 
dx="0,0,0,0,0,0,0,-0.4,0,-0.4,0,0,0,0.1,0,0,-0.4,-0.1,0,0,0,0,0,-0.1,0,0,0,0,0,0" 
class="s15_39"
>Daniel – Singer extraordinaire</text>

<text 
x="1266" 
y="369" 
dx="0,0,0,0,-0.4,0,-0.4,0,0,0,0,0,0,0,-0.4,0,-0.1,0,0,0,0,-0.4,0,0,0,0,0,0" 
class="s15_39"
>Sam – One-man rhythm section</text>

<text 
x="1561" 
y="120" 
dx="0,0,0,0,0,0,-0.4,0" 
class="s16_39"
>About Us</text>

<text 
x="1315" 
y="288" 
dx="0,0,0,0,0,0,0,0.3,0,0,0.3,0,0,0,0.3,0,0,0,0,0,0,0,0,0,0,0.3,0,0,0,0,0,-0.2,0,0.3,0,0,0.3,0,0,0,0,0,0.3,0,0,0.3,0,0,0,0,0.3,0,-0.1,0,0.3,0,0,0,0.3,0,0,0,0,0.3,0,0.3,0,0,0,0.3,0,0,0,0,0.3,0,0,0,0,0.3,0,0,0,0,0.3,0,0,0,0,0,0,0,0.3,0,0,0,0,0.3,0,0,0" 
class="s17_39"
>Daniel is the Nanonauts' singer. He likes to sing a l the time – not just when he's playing with the </text>

<text 
x="1315" 
y="293" 
dx="0,0,0,0,0,0,0,0,0,0,0,-0.2,0,0,0,-0.2,0,0,0,-0.2,0,0,0,-0.2,0,0,0,-0.2,0,0,0,-0.2,0,0,-0.2,0,0,0,0,0,0,0,-0.2,0,0,-0.2,0,0,0,0,-0.2,0,0,0,0,0,0,-0.2,0,0,-0.2,0,0,0,0,0,0,0,-0.2,0,0,-0.2,0,0,0,0" 
class="s17_39"
>Nanonauts! His mum and dad say he learned to sing before he learned to talk!</text>

<text 
x="1315" 
y="298" 
dx="0,0,0,0,0,0,0,-0.2,0,0,0,0,-0.2,0,0,0,0,0,-0.2,0,0,0,0,0,0,0,0,-0.2,0,0,0,-0.2,0,0,-0.2,0,0,0,0,0,0,0,0,-0.2,0,0,0,-0.2,0,0,0,0,-0.2,0,0,0,0,0,0,0,0,0" 
class="s17_39"
>Daniel also plays clarinet and is learning the alto saxophone.</text>

<text 
x="1315" 
y="380" 
dx="0,0,0,0,0,0,0,0,0,0,0,0,0,0,0,0,0,0,0,0,0,0,0,0,0,0,0,0,0,0,0,0,0,0,0,0,0,0,0,0,0,0,0,0,0,0,0,0,0,0,0,0,0,0,0,0,0,0,0,0,0,0,0,0,0,0,0,0,0,0,0,0,0,0,0,0,0,0,0,0,0,0,0,0,0,0,0,0,0,0,0,0,0,0,0" 
class="s17_39"
>Sam had music in his blood from the day he was born. Both his mum and dad play instruments and </text>

<text 
x="1315" 
y="385" 
dx="0,0,0,0,0.1,0,0,0,0.1,0,0,0,0.1,0,0,0,0,0,0.1,0,0,0,0,0.1,0,0,0,0.1,0,0,0,0,0.1,0,0,0.1,0,0,0,0.1,0,0,0,0,0.1,0,0,0,0,0.1,0,0,0,0,0,0.1,0,0,0,0,0.1,0,0,0,0,0,0.1,0,0,0,0.1,0,0,0.1,0,0,0,0,0,0,0,0.1,0,0,0,0,0.1,0,0,0,0.1,0,0,0,0,0,0,0,0,0,0,0" 
class="s17_39"
>got him his first drum kit when he was only five years old, which led to trouble with the neighbours. </text>

<text 
x="1315" 
y="389" 
dx="0,0,0,0.2,0,0,0,0,0.2,0,0,0,0,0,0.2,0,0,0.2,0,0,0,0,0,0.2,0,0,0,0.2,0,0,0,0,0.2,0,0,0,0,0,0,0.2,0,0,0,0.2,0,0,0.2,0,0,0,0,0.2,0,0,0,0,0,0.2,0,0,0,0.2,0,0,0,0,0,0,0.2,0,0,0,0.2,0,0,0,0,0,0.2,0,0,0,0,0,0,0,0.2,0,0,0.2,0,0,0" 
class="s17_39"
>On some songs he plays the bass guitar and on some songs the drums. Sam loves playing in the </text>

<text 
x="1315" 
y="394" 
dx="0,0,0,0,0,0,0,0,0,0,-0.2,0,0,0,-0.2,0,0,0,0,0,-0.2,0" 
class="s17_39"
>Nanonauts but hates ca</text>

<text 
x="1356" 
y="394" 
dx="0,0,0,0,0,0,-0.2,0,0,0,-0.2,0,0,0,0,0,0,0,-0.2,0,0,0,0,0,0" 
class="s17_39"
>rying his drumkit around.</text>

<text 
x="882" 
y="409" 
dx="0,0,0,0,-0.2,0,0,0,-0.2,0,0,0,0,0,-0.2,0,0,-0.2,0,0,0,-0.2,0,0,0,0,0,-0.2,0,0,0,0,-0.2,0,0,0,-0.2,0,0,0,-0.2,0,0,-0.2,0,0,0,-0.2,0,0,0,0,0,-0.2,0,0,0,0,-0.2,0,0,0,-0.2,0,0,0,-0.2,0,0,0,-0.2,0,0,0,-0.2,0,0,0,0,-0.2,0,0,0,0,0,0,0,0,0,0,0,-0.2,0,0,0,-0.2,0,0,0,-0.2,0,0,0,-0.2,0,0,0,-0.2,0,0,0,0,0,-0.2,0,0,0,0,-0.2,0,0,0,-0.2,0,0,0,0,-0.2,0,0,-0.2,0,0,0,-0.2,0,0,0,0,-0.2,0,0,0" 
class="s10_39"
>Sam had music in his blood from the day he was born. Both his mum and dad play instruments and got him his first drum kit when he was only five</text>

<text 
x="1499" 
y="170" 
dx="0,0,0,0,0,1.3,0,0,0,0,0,0,0,0,1.3,0" 
class="s18_39"
>Nano Noodling – </text>

<text 
x="1499" 
y="180" 
dx="0,0,0,0,-0.4,0,0,0,-0.4,0,-0.1,0,-0.4,0,0" 
class="s18_39"
>Buy Our New CD!</text>

<text 
x="1499" 
y="196" 
dx="0,0,0,0,0,0,-0.3,0,0,-0.3,-0.1,0,0,0,0,0,-0.3,0,0,0,0,0,0,0,0,-0.3,0,0,-0.3,0,0,-0.1,0,0" 
class="s19_39"
>Great if you're learning to play! </text>

<text 
x="1499" 
y="203" 
dx="0,0,0,0,-0.1,0,0,0,0,-0.1,0,0,0,0,-0.1,0,0,0,0,0,0,0,0,-0.1,0,0,-0.1,0,0,0,0,-0.1,0,0,0,0,0,0,0,-0.1,0,0,0,0,0,0,0,0,0,0,0,0" 
class="s17_39"
>Are your kids learning to play musical instruments? </text>

<text 
x="1499" 
y="210" 
dx="0,0,0,0,0,-0.2,0,0,0,-0.2,0,0,0,-0.2,0,0,0,0,0,-0.2,0,0,0,0,-0.2,0,0,0,0,0,-0.2,0,0,-0.2,0,0,-0.2,0,0,0,-0.2,0,0,0,0,0,0,0,0,0,0" 
class="s17_39"
>Then why not order this great CD of the Nanonauts' </text>

<text 
x="1499" 
y="217" 
dx="0,0,0,0,0,0,0,0,0,0,0,0,0,0,0,0,0,-0.2,0,0,0,0,0,-0.1,0,0,0,0,0,0,0,0,0,0,0,0,0,-0.1,0,0,0,0,0,0,0,0,0,0,0,0,0,0" 
class="s17_39"
>favourite songs! As we l as having a l the complete </text>

<text 
x="1499" 
y="224" 
dx="0,0,0,0,0,0,0,0.1,0,0,0,0.1,0,0,0.1,0,0,0,0,0,0,0,0,0.1,0,0,0,0,0,0,0,0,0.1,0,0,0.1,0,0,0,0.1,0,0,0,0,0,0.1,0,0,0,0" 
class="s17_39"
>songs, the CD includes versions of the songs with </text>

<text 
x="1499" 
y="232" 
dx="0,0,0,0,0,0.4,0,0,0,0,0,0,0,0,0,0,0.4,0,0,0,0,0,0,0,0.4,0,0.4,0,0,0.4,0,0,0,0.4,0,0,0,0.4,0,0,0,0,0.4,0,0,0,0,0" 
class="s17_39"
>each instrument missing – so you can play along </text>

<text 
x="1499" 
y="239" 
dx="0,0,0,0,0,-0.1,0,0,0,0,-0.1,0,0,0,-0.1,0,0,0,0,0,0,0,0,0,0,0,-0.1,0,0,0,-0.1,0,0,0,0,-0.1,0,0,0,0,-0.1,0,0,0,-0.1,0,0,0,-0.1,0,0,0,0" 
class="s17_39"
>with your own instrument. Not only that but the solo </text>

<text 
x="1499" 
y="246" 
dx="0,0,0,0,0,0,0.2,0,0,0,0.2,0,0,0,0.2,0,0,0,0,0,0.2,0,0,0,0.2,0,0,0,0,0.2,0,0,0,0,0,0,0,0,0,0.2,0,0,0.2,0,0,0,0.2,0,0,0" 
class="s17_39"
>parts and the music are also included, so you can </text>

<text 
x="1499" 
y="253" 
dx="0,0,0,0,0,-0.2,0,0,0,0,-0.2,0,0,-0.2,0,0,0,-0.3" 
class="s17_39"
>copy what to play.</text>

<text 
x="1499" 
y="337" 
dx="0,0,0,0.2,0,0,0,0,0.2,0,0,0.2,0,0,0,0.2,0,0,0.2,0,0,0,0.2,0,0,0,0,0,0,0,0,0.2,0,0,0.2,0,0,0,0,0,0,0,0.2,0,0,0,0" 
class="s20_39"
>On sale at any of our concerts or contact info@</text>

<text 
x="1499" 
y="344" 
dx="0,0,0,0,0,0,0,0,0,0,0,0,0" 
class="s20_39"
>nanonauts.com</text>

<text 
x="1499" 
y="386" 
dx="0,0,0,0,0,-0.1,-0.4,-0.2,-0.3,0,0,0,0,-0.3,-0.1,0,0,0,-0.2,-0.8,0,0,0,0,0,0,0" 
class="s19_39"
>Sunday, 12th June, Theatre </text>

<text 
x="1499" 
y="400" 
dx="0,0,0,0,0.1,0,0,0,0.1,0,0,0,0,0.1,0,0,0,0,0,0.1,0,0,0.1,0,0,0,0.1,0,0,0,0,0.1,0,0,0,0,0,0,0,0,0.1,-0.1,0,0,0,0" 
class="s21_39"
>Why not come along to our next concert? We're </text>

<text 
x="1499" 
y="407" 
dx="0,0,0,0,0,0,0,0,-0.2,0,0,-0.2,0,0,0,0,-0.2,0,0,-0.2,0,-0.2,0,0,0,0,0,0,0,0,0,0,0,0,-0.2,0,0,0,0,0,0,0,-0.2,0,0,0,-0.2,0,0" 
class="s21_39"
>playing as part of a star-studded line-up for the</text>

<text 
x="1499" 
y="275" 
dx="0,-0.4,0,0,-0.1,0,-0.3,0,0,0" 
class="s19_39"
>Track List</text>

<text 
x="1517" 
y="282" 
dx="0,0" 
class="s22_39"
>• </text>

<text 
x="1528" 
y="282" 
dx="0,0,0,0,0,0,0,0,-0.2,0,0,0,0,0,0,0,-0.2,0,0" 
class="s17_39"
>Magical Mystery Bug</text>

<text 
x="1517" 
y="289" 
dx="0,0" 
class="s22_39"
>• </text>

<text 
x="1528" 
y="289" 
dx="0,0,0,0,0,-0.2,0" 
class="s17_39"
>Boot It</text>

<text 
x="1517" 
y="296" 
dx="0,0" 
class="s22_39"
>• </text>

<text 
x="1528" 
y="296" 
dx="0,0,0,0,-0.2,0,0,0,0,-0.2,0,0,0,-0.2,0,0,0,0,0,0,0,-0.2,0,0,0" 
class="s17_39"
>The Long and Winding Code</text>

<text 
x="1517" 
y="303" 
dx="0,0" 
class="s22_39"
>• </text>

<text 
x="1528" 
y="303" 
dx="0,0,0,0,0,-0.2,0,0,0,0,0,0" 
class="s17_39"
>Dojo Dancing</text>

<text 
x="1517" 
y="310" 
dx="0,0" 
class="s22_39"
>• </text>

<text 
x="1528" 
y="310" 
dx="0,0,0,0,0,0,-0.2,0,0,0,0,0,0,0" 
class="s17_39"
>Empty Elements</text>

<text 
x="1517" 
y="317" 
dx="0,0" 
class="s22_39"
>• </text>

<text 
x="1528" 
y="317" 
dx="0,0,0,0,0,-0.2,0,0,0,0,0,0,0,0" 
class="s17_39"
>Java Chameleon</text>

<text 
x="1499" 
y="371" 
dx="0,0,0,0,-0.4,0,-0.1,0,0,-0.4,0,0,0,0,0,0.1" 
class="s23_39"
>Our Next Concert</text>

<text 
x="1259" 
y="171" 
dx="0,-0.1,0,-0.3,0,0,0,-0.3,0,0,0,-0.3,0,0,0,0,0,0,0,0,0,0" 
class="s24_39"
>We are the Nanonauts. </text>

<text 
x="1259" 
y="177" 
dx="0,0,0,0,-0.3,0,0,0,0,0,-0.3,0,0,0,-0.3,0,0,-0.1,0,-0.4,0,-0.3,0,0,0,0,0,0,0,-0.3,0,0,0,0,0,0,-0.3,0,0,0,-0.3,0,0,0" 
class="s24_39"
>Our names are Ho ly, Dervla, Daniel and Sam.</text>

<text 
x="1261" 
y="119" 
dx="0,0,0" 
class="s16_39"
>the</text>

<text 
x="1272" 
y="122" 
dx="0,0,0,0,0,0,0,0,0" 
class="s16_39"
>nanonauts</text>

<text 
x="55" 
y="75" 
dx="0,-0.2,-0.2,-0.2,-0.2,10.9,-0.2,-0.2,-0.2,10.9,-0.2,-0.2,-0.2,10.9,-0.2,-0.2,-0.2,-0.2,10.9,-0.2,-0.2,-0.2,-0.2,0" 
class="s5_39"
>When you add this basic </text>

<text 
x="55" 
y="96" 
dx="0,-0.2,-0.2,-0.2,-0.2,-0.2,-0.2,-0.2,-0.2,-0.2,-0.2,5.3,-0.2,-0.2,-0.2,-0.2,-0.2,-0.2,-0.2,-0.2,5.3,-0.2,-0.2,-0.2,-0.2,-0.2,-0.2,5.3,-0.2,-0.2,0" 
class="s5_39"
>stylesheet skeleton you’ll see </text>

<text 
x="55" 
y="118" 
dx="0,-0.2,-0.2,-0.2,1.7,-0.2,-0.2,-0.2,-0.2,-0.2,-0.2,-0.2,1.7,-0.2,-0.2,-0.2,-0.2,-0.2,-0.2,-0.2,-0.2,-0.2,-0.2,1.7,-0.2,-0.2,-0.2,-0.2,-0.2,-0.2,-0.2,0" 
class="s5_39"
>the various structural elements </text>

<text 
x="55" 
y="139" 
dx="0,-0.2,-0.2,-0.2,-0.2,-0.2,-0.2,-0.2,-0.2,-0.2,-0.2,-0.2,0.6,-0.2,-0.2,0.6,-0.2,-0.2,-0.2,-0.2,-0.2,-0.2,0.6,-0.2,-0.2,-0.2,-0.2,0.6,-0.2,-0.2,-0.2,0" 
class="s5_39"
>highlighted in colour (the same </text>

<text 
x="55" 
y="160" 
dx="0,-0.2,-0.2,-0.2,-0.2,-0.2,-0.2,-0.2,-0.1,-0.2,-0.2,-0.1,-0.2,-0.2,-0.2,-0.1,-0.2,-0.2,-0.2,-0.2,-0.2,-0.2,-0.2,-0.1,-0.2,-0.2,-0.1,-0.2,-0.2,-0.2,0" 
class="s5_39"
>colours in the diagram on page </text>

<text 
x="55" 
y="182" 
dx="0,-0.2,-0.2,-0.2,0" 
class="s5_39"
>73). </text>

<text 
x="55" 
y="225" 
dx="0,0,0,2.3,0,0,0,2.3,-0.3,0,0,0,2.3,0,0,2.3,0,0,0,0,2.3,0,0,0,0,0,0,-1.4,0,2.3,0,0" 
class="s5_39"
>In the rest of this chapter, we </text>

<text 
x="55" 
y="246" 
dx="0,0,0,0,0,6.6,0,0,0,0,0,6.6,0,0,0,6.6,0,0,0,0,0,6.6,0,0,0,0,0,0" 
class="s5_39"
>will apply the rules one-by-</text>

<text 
x="55" 
y="267" 
dx="0,0,0,0,0,4.3,0,0,0,0,4.3,0,0,0,0,-0.3,0,0,4.3,0,0,4.3,0,0,0,0,4.3,0,0,0" 
class="s5_39"
>one, like before, so that you </text>

<text 
x="55" 
y="289" 
dx="0,0,0,0,6.5,0,0,0,6.5,0,0,0,6.5,0,-0.3,0,0,0,0,6.5,0,0,6.5,0,0,0,0" 
class="s5_39"
>can see the effect of each </text>

<text 
x="55" 
y="310" 
dx="0,0,0,0,0,0,0,0,7.7,-0.3,0,0,0,0,7.7,0,0,0,0.3,0,7.7,0,-0.3,0,7.7,0,0,0,0" 
class="s5_39"
>change. We’ll start off with </text>

<text 
x="55" 
y="332" 
dx="0,0,0,0,7.4,0,0,0,0,0,0,7.4,0,0,0,0,0,0,0,0,0,0,7.4,0,0,0,0,0" 
class="s5_39"
>the simple stylesheet which </text>

<text 
x="55" 
y="353" 
dx="0,0,0,0,0,0,0,0,0,2.6,0,0,0,2.6,0,0,0,0,0,0,0,0,2.6,0,0,0,2.6,0,0" 
class="s5_39"
>displays the elements one on </text>

<text 
x="55" 
y="374" 
dx="0,0,0,0,-0.7,0,0,-0.7,0,0,0,-0.7,0,0,0,0,-1.4,0,-0.7,-0.3,0,0,0,0,-0.7,0,0,0,0,0,0,-0.7,0,0,0,0" 
class="s5_39"
>top of the other. We’ll finish with </text>

<text 
x="55" 
y="396" 
dx="0,0,6.8,0,0,0,0,0,0,0,0,0,0,6.8,0,0,0,0,0,6.8,0,0,0,0,0,0,0" 
class="s5_39"
>a stylesheet which changes </text>

<text 
x="55" 
y="417" 
dx="0,0,0,0,-0.3,0" 
class="s5_39"
>where </text>

<text 
x="117" 
y="417" 
dx="0,0,0,0" 
class="s5_39"
>the </text>

<text 
x="160" 
y="417" 
dx="0,0,0,0,0,0,0,0,0" 
class="s5_39"
>elements </text>

<text 
x="243" 
y="417" 
dx="0,0,-0.3,0" 
class="s5_39"
>are </text>

<text 
x="55" 
y="439" 
dx="0,0,0,0,0,0,0,0,0,0,5.7,0,0,0,0,0,0,0,0,0,5.7,0,0,5.7,0,0,0" 
class="s5_39"
>displayed depending on the </text>

<text 
x="55" 
y="460" 
dx="0,0,0,0,0,0,-0.9,0,0,-0.9,0,0,0,0,-0.9,0,-0.3,0,0,0,0,0,-0.9,0,0,0,0,0,-0.8" 
class="s5_39"
>width of your browser window.</text>

<text 
x="1169" 
y="129" 
dx="0,0,0,0,0,0,-0.3,0" 
class="s25_39"
>About Us</text>

<text 
x="879" 
y="131" 
dx="0,0,0" 
class="s26_39"
>the</text>

<text 
x="893" 
y="134" 
dx="0,0,0,0,0,0,0,0,0" 
class="s26_39"
>nanonauts</text>

<text 
x="690" 
y="120" 
dx="0,0,0,0,0,0,-0.7,0" 
class="s27_39"
>About Us</text>

<text 
x="325" 
y="120" 
dx="0,0,0" 
class="s28_39"
>the</text>

<text 
x="349" 
y="127" 
dx="0,0,0,0,0,0,0,0,0" 
class="s28_39"
>nanonauts</text>

<text 
x="1227" 
y="660" 
dx="0,0,0,0,0,0,-0.6,0" 
class="s29_39"
>About Us</text>

<text 
x="888" 
y="659" 
dx="0,0,0" 
class="s29_39"
>the</text>

<text 
x="906" 
y="664" 
dx="0,0,0,0,0,0,0,0,0" 
class="s29_39"
>nanonauts</text>

<path d="M893.5,150.5l7,0" class="g17_39" />
<path d="M893.5,154.5l10,0" class="g17_39" />
<path d="M893.5,158.5l12,0" class="g17_39" />
<path d="M893.5,162.5l13,0" class="g17_39" />
<path d="M893.5,166.5l20,0" class="g17_39" />
<text 
x="885" 
y="149" 
dx="0" 
class="s30_39"
>•</text>

<text 
x="893" 
y="149" 
dx="0,0,0,0" 
class="s31_39"
>Home</text>

<text 
x="885" 
y="153" 
dx="0" 
class="s30_39"
>•</text>

<text 
x="893" 
y="153" 
dx="0,0,0,0,0,0,-0.1,0" 
class="s31_39"
>About Us</text>

<text 
x="885" 
y="157" 
dx="0" 
class="s30_39"
>•</text>

<text 
x="893" 
y="157" 
dx="0,0,0,0,-0.1,0,0,0,0" 
class="s31_39"
>Our Songs</text>

<text 
x="885" 
y="161" 
dx="0" 
class="s30_39"
>•</text>

<text 
x="893" 
y="161" 
dx="0" 
class="s31_39"
>S</text>

<text 
x="895" 
y="161" 
dx="0,0,-0.1,0,0,-0.1,0,0,0" 
class="s31_39"
>e Us Play</text>

<text 
x="885" 
y="165" 
dx="0" 
class="s30_39"
>•</text>

<text 
x="893" 
y="165" 
dx="0,0,0,0,0,0,0,0,-0.1,0,-0.1,0,0,0,0,0,0" 
class="s31_39"
>Playing a Concert</text>

<path d="M902.5,685.5l9,0" class="g17_39" />
<path d="M902.5,690.5l14,0" class="g17_39" />
<path d="M902.5,695.5l16,0" class="g17_39" />
<path d="M902.5,700.5l18,0" class="g17_39" />
<path d="M902.5,705.5l26,0" class="g17_39" />
<text 
x="892" 
y="684" 
dx="0" 
class="s32_39"
>•</text>

<text 
x="902" 
y="684" 
dx="0,0,0,0" 
class="s33_39"
>Home</text>

<text 
x="892" 
y="689" 
dx="0" 
class="s32_39"
>•</text>

<text 
x="902" 
y="689" 
dx="0,0,0,0,0,0,-0.2,0" 
class="s34_39"
>About Us</text>

<text 
x="892" 
y="694" 
dx="0" 
class="s32_39"
>•</text>

<text 
x="902" 
y="694" 
dx="0,0,0,0,-0.2,0,0,0,0" 
class="s33_39"
>Our Songs</text>

<text 
x="892" 
y="699" 
dx="0" 
class="s32_39"
>•</text>

<text 
x="902" 
y="699" 
dx="0,0,0,0,-0.2,0,0,-0.2,0,0,0" 
class="s34_39"
>See Us Play</text>

<text 
x="892" 
y="704" 
dx="0" 
class="s32_39"
>•</text>

<text 
x="902" 
y="704" 
dx="0,0,0,0,0,0,0,0,-0.2,0,-0.2,0,0,0,0,0,0" 
class="s33_39"
>Playing a Concert</text>

<text 
x="1262" 
y="140" 
dx="0,0,0,0" 
class="s35_39"
>Home</text>

<text 
x="1282" 
y="140" 
dx="0,0,0,0,0,0,-0.3,0" 
class="s35_39"
>About Us</text>

<text 
x="1308" 
y="140" 
dx="0,0,0,0,-0.3,0,0,0,0" 
class="s35_39"
>Our Songs</text>

<text 
x="1338" 
y="140" 
dx="0,0,0,0,-0.3,0,0,-0.3,0,0,-0.1" 
class="s35_39"
>See Us Play</text>

<text 
x="1371" 
y="140" 
dx="0,0,0,-0.1,0,0,0,0,-0.3,0,-0.3,0,0,0,0,0,0.1" 
class="s35_39"
>Playing a Concert</text>

<path d="M1279.5,134.5l0,8" class="g16_39" />
<path d="M1306.5,134.5l0,8" class="g16_39" />
<path d="M1336.5,134.5l0,8" class="g16_39" />
<path d="M1368.5,134.5l0,8" class="g16_39" />
<text 
x="1590" 
y="1019" 
dx="0,-1.8" 
class="s36_39"
>77</text>

<text 
x="36" 
y="1019" 
dx="0,-1.4" 
class="s36_39"
>76</text>



<!-- Any embedded fonts defined here -->
<style type="text/css" ><![CDATA[

@font-face {
	font-family: AndaleMono_1cn;
	src: url("fonts/AndaleMono_1cn.woff") format("woff");
}

@font-face {
	font-family: Times-Bold_1cj;
	src: url("fonts/Times-Bold_1cj.woff") format("woff");
}

@font-face {
	font-family: Helvetica-Light_1by;
	src: url("fonts/Helvetica-Light_1by.woff") format("woff");
}

@font-face {
	font-family: Helvetica_1dx;
	src: url("fonts/Helvetica_1dx.woff") format("woff");
}

@font-face {
	font-family: Times-Roman_1cf;
	src: url("fonts/Times-Roman_1cf.woff") format("woff");
}

@font-face {
	font-family: PixelSplitter-Bold_1bs;
	src: url("fonts/PixelSplitter-Bold_1bs.woff") format("woff");
}

@font-face {
	font-family: Helvetica-Bold_1bu;
	src: url("fonts/Helvetica-Bold_1bu.woff") format("woff");
}

@font-face {
	font-family: Wingdings-Regular_1c4;
	src: url("fonts/Wingdings-Regular_1c4.woff") format("woff");
}

@font-face {
	font-family: Helvetica_1e3;
	src: url("fonts/Helvetica_1e3.woff") format("woff");
}

]]></style>

</svg>
