<?xml version="1.0" encoding="UTF-8" standalone="no"?>
<!DOCTYPE svg PUBLIC "-//W3C//DTD SVG 1.1//EN"
"http://www.w3.org/Graphics/SVG/1.1/DTD/svg11.dtd">


<!-- Page 4 -->
<svg x="0" y="0" width="1645" height="1061" viewBox="0 0 1645 1061" version="1.1" xmlns="http://www.w3.org/2000/svg" xmlns:xlink="http://www.w3.org/1999/xlink"
style="display: block;margin-left: auto;margin-right: auto;">
<defs>
<clipPath id="c0_4"><path d="M47.5,677.5l0,-4l-4,0l0,-170l4,0l0,-4l728,0l0,4l4,0l0,170l-4,0l0,4Z" /></clipPath>
<clipPath id="c1_4"><path d="M47.5,1005.5l0,-4l-4,0l0,-264l4,0l0,-5l728,0l0,5l4,0l0,264l-4,0l0,4Z" /></clipPath>

<style type="text/css"><![CDATA[

.g5_4{
fill: #89BA6E;
}
.g6_4{
fill: #FFFFFF;
}
.g2_4{
fill: #FFD400;
}
.g9_4{
fill: none;
stroke: #FFD400;
stroke-width: 5;
stroke-linecap: butt;
stroke-linejoin: miter;
stroke-miterlimit: 4;
}
.g8_4{
fill: none;
stroke: #F37A6D;
stroke-width: 5;
stroke-linecap: butt;
stroke-linejoin: miter;
stroke-miterlimit: 4;
}
.g3_4{
fill: #F37A6D;
}
.g10_4{
fill: #11151D;
}
.g7_4{
fill: none;
stroke: #71C7F0;
stroke-width: 2;
stroke-linecap: butt;
stroke-linejoin: miter;
stroke-miterlimit: 4;
stroke-opacity: 0.19999701;
}
.g4_4{
fill: #7AB0D6;
}
.g1_4{
fill: #FAAD60;
}

.s4_4{
font-size: 15.28px;
font-family: Helvetica-Bold_1bu;
fill: #11151D;
}
.s8_4{
font-size: 12.22px;
font-family: PixelSplitter-Bold_1bs;
fill: #11151D;
}
.s6_4{
font-size: 24.44px;
font-family: SuomiHand-Script_1c8;
fill: #11151D;
}
.s7_4{
font-size: 22.92px;
font-family: SuomiHand-Script_1c8;
fill: #11151D;
}
.s2_4{
font-size: 15.28px;
font-family: Helvetica-Light_1by;
fill: #11151D;
}
.s5_4{
font-size: 41.25px;
font-family: PixelSplitter-Bold_3a;
fill: #FFFFFF;
}
.s3_4{
font-size: 15.28px;
font-family: Wingdings-Regular_1c4;
fill: #11151D;
}
.s1_4{
font-size: 21.39px;
font-family: PixelSplitter-Bold_1bs;
fill: #11151D;
}

]]></style>

</defs>
<path d="M0,0
L0,1061
L1645,1061
L1645,0 Z "
fill="#FFFFFF" stroke="none" />
<image x="-33" y="-32" width="1713" height="1115" xlink:href="4/img/1.png" />
<image x="-13" y="-11" width="1674" height="1073" opacity="0.5" xlink:href="4/img/2.png" />
<image x="809" y="362" width="875" height="730" xlink:href="4/img/3.png" />
<path d="M47,46l0,5l-4,0l0,57l4,0l0,5l728,0l0,-5l4,0l0,-57l-4,0l0,-5Z" class="g1_4" />
<path d="M47,196l0,4l-4,0l0,191l4,0l0,5l160,0l0,-5l5,0l0,-191l-5,0l0,-4Z" class="g2_4" />
<image x="62" y="208" width="131" height="177" xlink:href="4/img/4.png" />
<path d="M47,410l0,4l-4,0l0,31l4,0l0,4l160,0l0,-4l5,0l0,-31l-5,0l0,-4Z" class="g2_4" />
<path d="M236,410l0,4l-4,0l0,31l4,0l0,4l161,0l0,-4l4,0l0,-31l-4,0l0,-4Z" class="g3_4" />
<path d="M425,410l0,4l-4,0l0,31l4,0l0,4l161,0l0,-4l4,0l0,-31l-4,0l0,-4Z" class="g4_4" />
<path d="M615,410l0,4l-5,0l0,31l5,0l0,4l160,0l0,-4l4,0l0,-31l-4,0l0,-4Z" class="g5_4" />
<path d="M614,196l0,4l-4,0l0,191l4,0l0,5l161,0l0,-5l4,0l0,-191l-4,0l0,-4Z" class="g5_4" />
<image x="629" y="208" width="132" height="177" xlink:href="4/img/5.png" />
<path d="M870,374l0,5l-4,0l0,81l4,0l0,4l86,0l0,-90Z" class="g3_4" />
<image x="872" y="375" width="86" height="89" xlink:href="4/img/6.png" />
<path d="M236,196l0,4l-4,0l0,191l4,0l0,5l161,0l0,-5l4,0l0,-191l-4,0l0,-4Z" class="g3_4" />
<image x="251" y="208" width="131" height="177" xlink:href="4/img/7.png" />
<path d="M425,196l0,4l-4,0l0,191l4,0l0,5l161,0l0,-5l4,0l0,-191l-4,0l0,-4Z" class="g4_4" />
<image x="440" y="208" width="132" height="176" xlink:href="4/img/8.png" />
<path d="M47,499l0,4l-4,0l0,170l4,0l0,4l728,0l0,-4l4,0l0,-170l-4,0l0,-4Z" class="g6_4" />
<g clip-path="url(#c0_4)">
<path d="M-81,653l985,0" class="g7_4" />
<path d="M-81,621l985,0" class="g7_4" />
<path d="M-81,589l985,0" class="g7_4" />
<path d="M-81,557l985,0" class="g7_4" />
<path d="M-81,525l985,0" class="g7_4" />
<path d="M68,332l0,996" class="g7_4" />
<path d="M98,332l0,996" class="g7_4" />
<path d="M128,332l0,996" class="g7_4" />
<path d="M158,332l0,996" class="g7_4" />
<path d="M188,332l0,996" class="g7_4" />
<path d="M217,332l0,996" class="g7_4" />
<path d="M247,332l0,996" class="g7_4" />
<path d="M277,332l0,996" class="g7_4" />
<path d="M307,332l0,996" class="g7_4" />
<path d="M337,332l0,996" class="g7_4" />
<path d="M366,332l0,996" class="g7_4" />
<path d="M396,332l0,996" class="g7_4" />
<path d="M426,332l0,996" class="g7_4" />
<path d="M456,332l0,996" class="g7_4" />
<path d="M485,332l0,996" class="g7_4" />
<path d="M515,332l0,996" class="g7_4" />
<path d="M545,332l0,996" class="g7_4" />
<path d="M575,332l0,996" class="g7_4" />
<path d="M605,332l0,996" class="g7_4" />
<path d="M634,332l0,996" class="g7_4" />
<path d="M664,332l0,996" class="g7_4" />
<path d="M694,332l0,996" class="g7_4" />
<path d="M724,332l0,996" class="g7_4" />
<path d="M754,332l0,996" class="g7_4" />
</g>
<path d="M47,732l0,5l-4,0l0,264l4,0l0,4l728,0l0,-4l4,0l0,-264l-4,0l0,-5Z" class="g6_4" />
<g clip-path="url(#c1_4)">
<path d="M-81,824l985,0" class="g7_4" />
<path d="M-81,855l985,0" class="g7_4" />
<path d="M-81,887l985,0" class="g7_4" />
<path d="M-81,919l985,0" class="g7_4" />
<path d="M-81,951l985,0" class="g7_4" />
<path d="M-81,982l985,0" class="g7_4" />
<path d="M-81,792l985,0" class="g7_4" />
<path d="M-81,760l985,0" class="g7_4" />
<path d="M68,347l0,985" class="g7_4" />
<path d="M98,347l0,985" class="g7_4" />
<path d="M128,347l0,985" class="g7_4" />
<path d="M158,347l0,985" class="g7_4" />
<path d="M188,347l0,985" class="g7_4" />
<path d="M217,347l0,985" class="g7_4" />
<path d="M247,347l0,985" class="g7_4" />
<path d="M277,347l0,985" class="g7_4" />
<path d="M307,347l0,985" class="g7_4" />
<path d="M337,347l0,985" class="g7_4" />
<path d="M366,347l0,985" class="g7_4" />
<path d="M396,347l0,985" class="g7_4" />
<path d="M426,347l0,985" class="g7_4" />
<path d="M456,347l0,985" class="g7_4" />
<path d="M485,347l0,985" class="g7_4" />
<path d="M515,347l0,985" class="g7_4" />
<path d="M545,347l0,985" class="g7_4" />
<path d="M575,347l0,985" class="g7_4" />
<path d="M605,347l0,985" class="g7_4" />
<path d="M634,347l0,985" class="g7_4" />
<path d="M664,347l0,985" class="g7_4" />
<path d="M694,347l0,985" class="g7_4" />
<path d="M724,347l0,985" class="g7_4" />
<path d="M754,347l0,985" class="g7_4" />
</g>
<path d="M958,420l0,172l2,0l2,0l0,2l0,2l560,0l0,-2l0,-2l2,0l2,0l0,-167l-2,0l-2,0l0,-3l0,-2Z" class="g6_4" />
<path d="M958.5,420.5l0,172l2,0l2,0l0,2l0,2l560,0l0,-2l0,-2l2,0l2,0l0,-167l-2,0l-2,0l0,-3l0,-2l-564,0Z" class="g8_4" />
<path d="M956,374l0,44l259,0l0,-39l-4,0l0,-5Z" class="g3_4" />
<image x="1200" y="28" width="435" height="361" style="mix-blend-mode: multiply;" xlink:href="4/img/9.png" />
<image x="1213" y="37" width="411" height="352" xlink:href="4/img/10.png" />
<path d="M870,612l0,4l-4,0l0,88l4,0l0,4l92,0l0,-96Z" class="g2_4" />
<image x="864" y="616" width="88" height="89" xlink:href="4/img/11.png" />
<path d="M965,657l0,82l2,0l2,0l0,2l0,2l553,0l0,-2l0,-2l2,0l2,0l0,-78l-2,0l-2,0l0,-2l0,-2Z" class="g6_4" />
<path d="M965.5,657.5l0,82l2,0l2,0l0,2l0,2l553,0l0,-2l0,-2l2,0l2,0l0,-78l-2,0l-2,0l0,-2l0,-2l-557,0Z" class="g9_4" />
<path d="M962,612l0,46l142,0l0,-42l-5,0l0,-4Z" class="g2_4" />
<text
x="971"
y="642"
dx="0,-2.1,-2.1,-2.9,-1.8,0,0,-2.6,-2.1"
class="s1_4"
>NINJA TIP</text>

<image x="630" y="637" width="159" height="160" xlink:href="4/img/12.png" />
<text
x="879"
y="75"
dx="0,0,0,1.8,0,0,0,0,1.8,0,0,0,0,0,1.8,0,0,0,0,0,1.8,0,0,0,0.3,0,1.8,0,0,1.8,0,0,0,0,0,1.8,0,0,0,1.8,0,0,0,0,1.8,0,0,0,0,1.8,0,0,0"
class="s2_4"
>In this book, we'll start to build the site that the </text>

<text
x="879"
y="96"
dx="0,0,0,0,0,0,0,0,0,0,4.8,0,0,0,0,0,0,0,0,4.8,0,0,4.8,0,0,0,0,0,4.8,0,0,0,0,4.8,0,0,0,0,4.8,0,0,4.8,0,0,0"
class="s2_4"
>Nanonauts sketched in their site map. If you </text>

<text
x="879"
y="118"
dx="0,0,0,0,0,1.7,0,0,0,1.7,0,0,0,1.7,0,0,0,1.7,0,0,0,0,0,0,1.7,0,0,0,1.7,0,0,0,0,0,0,0,0,1.7,0,0,0,1.7,0,0,0,0,0"
class="s2_4"
>want to, you can follow the examples and build </text>

<text
x="879"
y="139"
dx="0,0,0.7,0,0,0,0,0.7,0,0,0,0,0,0.7,0,0,0,0.7,0,0,0,0,0,0,0,0,0,0,0.7,0,0,0,0.7,0,0,0.7,0,0,0,0.7,0,0,0,0,0.7,0,0,0,0"
class="s2_4"
>a site about the Nanonauts. But if you have your </text>

<text
x="879"
y="160"
dx="0,0,0,0,4,0,0,0,0,0,4,0,0,4,0,0,0,0,4,0,0,4,0,0,0,0,4,0,0,0,4,0,0,0,0,0,4,0,0,0,0,0"
class="s2_4"
>own band, or want to make the pages about </text>

<text
x="879"
y="182"
dx="0,0,0,0,0,0,0,0,0,0,4,0,0,0,0,0,0,0,0,0,0,4,0,0,-0.3,0,0,-0.3,0,0,0,0,4,0,0,0,0,-1.1,0,4,0,0,0,0,4,0,0,0,0"
class="s2_4"
>something completely different, that’s fine too! </text>

<text
x="879"
y="203"
dx="0,0,0,0,0,1.2,0,0,0,1.2,0,0,0,0,0,1.2,0,0,0,0,1.2,0,0,0,1.2,0,0,0,0,1.2,0,0,0,1.2,0,0,0,-0.3,0,1.2,0,0,1.2,0,0,0,0,0,0"
class="s2_4"
>Just get stuck into the code and don’t be afraid </text>

<text
x="879"
y="225"
dx="0,0,0,6.7,0,0,0,0,0,0,0,0,0,0,0,6.7,0,0,6.7,0,0,0,0,0,0,0,0,0,6.7,0,0,0,0,0,-0.3,0,6.7,0,0,0,0,6.7,0,0"
class="s2_4"
>to experiment. If something doesn’t work at </text>

<text
x="879"
y="246"
dx="0,0,0,0,0,0,0,2,0,0,0,-0.3,0,2,0,0,0,2,0,0,0,0,0,0,0.3,0,0,0,0,0,0,2,0,0,0,0,2,0,0,2,0,0,0,0,2,0,0,0,0"
class="s2_4"
>first, don’t get disheartened. Look at your code </text>

<text
x="879"
y="267"
dx="0,0,0,-0.3,0,0,0,0,0,0,2.1,0,0,0,2.1,0,0,0,2.1,0,0,2.1,0,0,0,2.1,0,0,0,2.1,0,0,0,0,2.1,0,0,0,-0.3,0,2.1,0,0,-1.1,0,2.1,0,0,0"
class="s2_4"
>carefully and see if you can spot where it’s not </text>

<text
x="879"
y="289"
dx="0,0,0,0,0,0,0,0,0,-0.9,0,-0.3,0,0,0,0,0,0,0,0,0,-0.9,0,0,0,0,-0.9,0,0,0,0,-0.9,0,0,0,0,0,0,0,0,0,0,0"
class="s2_4"
>working. Programmers call that ‘debugging'.</text>

<text
x="879"
y="332"
dx="0,0,0,0,0,1.3,0,0,1.3,0,0,1.3,0,0,0,0,1.3,0,0,0,1.3,0,0,0,1.3,0,0,1.3,0,0,0.3,0,1.3,0,0,0,0,0,-1.1,0,1.3,0,0,0,0,1.3,0,0,0"
class="s2_4"
>Read on to find out how to turn Holly’s site map </text>

<text
x="879"
y="353"
dx="0,0,0,0,0,-0.9,0,-0.9,-0.3,0,0,0,-0.9,0,0,0,0,0,0,0"
class="s2_4"
>into a real website!</text>

<text
x="969"
y="449"
dx="0,0,0,0,-0.9,0,0,0,-0.9,0,0,0,0,0,0,-0.9,0,0,0,-0.9,0,-0.9,0,0,0,0,-0.9,0,0,0,-0.9,0,0,-0.9,0,0,0,0,-0.9,0,0,0,-0.9,0,0,0,-0.9,0,-0.9,0,0,0,0,0,0,0,-0.9,0,0,0,0,-0.9,0,0,0,0,0,-0.9,0,0,0,0,-0.9,0,0,-0.9,0,0,0,0"
class="s2_4"
>Why not sketch out a site map of your own for a website that you’d like to make?</text>

<text
x="969"
y="471"
dx="0,0,0,-0.9,0,0,0,-0.9,0,0,0,-0.3,0,-0.9,0,0,0,0,-0.9,0,0,-0.9,0,0,0,0,-0.9,0,0,0,-0.9,0,0,0,0,0,-0.9,0,-0.9,0,0,0,0,0,-0.9,0,0,-0.3,0,-0.9,0,-0.3,0,-0.9,0,0,0,0,-0.9,0,0,0,0,0"
class="s2_4"
>If you don’t want to make one about a band, here are some ideas:</text>

<text
x="969"
y="492"
dx="0"
class="s3_4"
>[</text>

<text
x="996"
y="492"
dx="0,0,-0.9,0,0,0,0,-0.9,0,0,0,0,0,-0.9,0,0,0,0,-0.9,0,0,0"
class="s2_4"
>a site about your pets</text>

<text
x="969"
y="513"
dx="0"
class="s3_4"
>[</text>

<text
x="996"
y="513"
dx="0,0,-0.9,0,0,0,0,-0.9,0,0,0,0,0,-0.9,0,0,0,0,-0.9,0,0,0,0,0,0,0,0,0,-0.9,0,0,0,0"
class="s2_4"
>a site about your favourite games</text>

<text
x="969"
y="535"
dx="0"
class="s3_4"
>[</text>

<text
x="996"
y="535"
dx="0,0,-0.9,0,0,0,0,-0.9,0,0,0,0,0,-0.9,0,0,0,0,-0.9,0,0,0,0,0,0,-0.9,0,0,0,0,0,0"
class="s2_4"
>a site about your school friends</text>

<text
x="969"
y="556"
dx="0"
class="s3_4"
>[</text>

<text
x="996"
y="556"
dx="0,0,-0.9,0,0,0,0,-0.9,0,0,0,0,0,-0.9,0,0,0,0,-0.9,0,0,0,0"
class="s2_4"
>a site about your hobby</text>

<text
x="969"
y="578"
dx="0"
class="s3_4"
>[</text>

<text
x="996"
y="578"
dx="0,0,-0.9,0,0,0,0,-0.9,0,0,0,0,0,-0.9,0,0,0,0,0,0,-0.9,0,0,-0.9,0,0,-0.9,0,0,-0.9,0,0,0,0,-0.9,0,0,0"
class="s2_4"
>a site about things to do in your town</text>

<text
x="51"
y="717"
dx="0,0,-0.9,0,0,0,0,0,-0.9,0,0,0,0,-0.9,0,0,0,0,0,0,0,0,0,0,-0.9,0,0,0.3,0,-0.9,0,0,0,0,-0.9,0,0,0,0"
class="s2_4"
>… which they eventually turn into this </text>

<text
x="302"
y="717"
dx="0,0,0,0,0,-0.9,0,0"
class="s4_4"
>site map</text>

<text
x="363"
y="717"
dx="0"
class="s2_4"
>:</text>

<text
x="964"
y="406"
dx="0,-2.2,-2.1,-2.1,-1.8,-2.5,0,0,-2.2,0,0,-1.8,0,0,-1.7,-2.8,-2.4"
class="s1_4"
>Things to do next</text>

<text
x="92"
y="439"
dx="0,-1.7,-1.6,-2.8,-6.4"
class="s1_4"
>HOLLY</text>

<text
x="271"
y="439"
dx="0,-1.8,-2.6,-2.1,-1.8,-2.9"
class="s1_4"
>DERVLA</text>

<text
x="460"
y="439"
dx="0,-1.8,-1.8,-2.1,-2.1,-2.5"
class="s1_4"
>DANIEL</text>

<text
x="674"
y="439"
dx="0,-2,-1.8"
class="s1_4"
>SAM</text>

<path d="M47,46l0,5l-4,0l0,57l4,0l0,5l728,0l0,-5l4,0l0,-57l-4,0l0,-5Z" class="g10_4" />
<text
x="54"
y="96"
dx="0,0,-4,-4.3,-4.3,-3.6,-3.7,-3.5,-3.5,-5.7,-4,-3.5,0,-5.1,-4.3,-3.3,0,-5.1,-3.4,-3.4,-3.3,-3.3,-3.4,-3.5,-4.4,-5.2,0"
class="s5_4"
>&lt;Introducing the Nanonauts&gt;</text>

<text
x="54"
y="139"
dx="0,0,0,0,0,-1.4,0,-0.4,0,0,0,0,0,0,0,-0.4,0,0,0,0,0,0,-0.4,0,0,0,-0.4,0,0,0,-0.4,0,-0.3,0,-0.4,0,0,-0.4,0,-0.4,0,0,0,0,-0.4,0,0,0,0,0,0,-0.4,0,0,0,-0.4,0,0,0,0,0,0,0,0,0,0,-0.4,0,0,0,0,0,-0.4,0,0,0,0,0,-0.4,0,0,0,0,0,-1.4,0,-0.4,0,0,0,0,0,0,-0.4,0,0,0,0,0,0,-0.4,0,0,0,0,0,0"
class="s2_4"
>Holly, Dervla, Daniel and Sam are in a band called the Nanonauts. Holly plays guitar, Dervla piano, Daniel </text>

<text
x="54"
y="160"
dx="0,0,0,0,0,0,-0.2,0,0,0,-0.2,0,0,0,-0.2,0,0,0,0,0,-0.2,0,0,0,0,0,-0.2,0,0,0,0,0,0,0,-0.2,0,0,0,0.3,0,0,0,-0.2,0,0,-0.2,0,0,0,0,-0.2,0,0,0,0,0,-0.2,0,-0.2,0,0,0,-0.2,0,0,0,0,0,0.3,0,0,-0.2,0,0,0,-0.2,0,0,0,0,0,-0.2,0,0,-0.2,0,0,0,0,0,-0.2,0,0,-0.2,0,-0.3,0,0,0,-0.2,0,0,-0.2,0,0,0,0"
class="s2_4"
>sings and Sam plays bass. They’ve started to play quite a few concerts and think it would be great if they </text>

<text
x="54"
y="182"
dx="0,0,0,0,0,0,-0.9,0,0,0,0,0,-0.9,0,-0.9,0,0,0,0,0,0,0,-0.9,0,0,-0.9,0,0,0,0,-0.9,0,0,0,-0.9,0,0,0,0,0,-0.9,0,0,0,0,0,-0.9,0,0,0,0,0,-0.9,0,0,0,0,0"
class="s2_4"
>could build a website to tell the world about their music.</text>

<text
x="56"
y="481"
dx="0,0,0,-0.9,0,0,0,0,-0.9,0,0,-0.9,0,0,0,-0.9,0,0,0,0,0,0,0,0,0,-0.9,0,0,0,0.3,0,-0.9,0,0,0,0,0,0,0,-0.9,0,0,0,0,0,-0.9,0,0,-0.9,0,0,0,0,-0.9,0,0,0,-0.9,0,0,0,0,0,-0.9,0,0,-0.9,0,0,0,0,0,-0.9,0,0,0,-0.9,0,0,0,0,0,-0.9,0,0,0,0,-0.9"
class="s2_4"
>As soon as the Nanonauts start talking about it they had loads of ideas for their site –</text>

<text
transform="matrix(0.98, 0, 0, 1, 86, 524)"
dx="0,2"
class="s6_4"
>• </text>

<text
transform="matrix(0.98, 0, 0, 1, 114, 524)"
dx="0,1.7,2,0.9,1.7,1.7,2.2,0.7,2,0.9,1.5,2.4,1,2,0.9,2.2,1.2,2.2,2,1.3,2,0.9,1.2,2.2,1.2,2,0.9,1.7,2,0.9,1.7,1.7,2.2,2,0.9,2,0.2,2,1,2,1.7,2,0.9,1.7,2.2,2,0.9,2.2,1,0.5,2,0.9,1.7,2,2.2,1.5,1.7,2"
class="s6_4"
>we could tell people when we were playing our next concert</text>

<text
transform="matrix(0.98, 0, 0, 1, 86, 556)"
dx="0,2"
class="s6_4"
>• </text>

<text
transform="matrix(0.98, 0, 0, 1, 114, 556)"
dx="0,1.7,2,0.9,1.7,1.7,2.2,0.7,2,0.9,2,1.5,1.7,1.7,2,0,2,2.2,2,0.9,1.7,2.2,2,0.9,1.7,2,0.9,2,2.2,2,0.9,2,2,2,2,2,2"
class="s6_4"
>we could advertise our CD and T-shirt</text>

<text
transform="matrix(0.98, 0, 0, 1, 86, 588)"
dx="0,2"
class="s6_4"
>• </text>

<text
transform="matrix(0.98, 0, 0, 1, 114, 588)"
dx="0,1.7,2,0.9,1.7,1.7,2.2,0.7,2,0.9,1.2,2.2,1.7,2,0.9,0.1,2,0.7,0.2,2,0.9,-0.1,2,0.9,1.7,2.2,2,0.9,0.5,1.7,2,-2,2,2.2,2,0.9,1.5,1.5,1.7,1.2,2"
class="s6_4"
>we could have links to our YouTube videos</text>

<text
transform="matrix(0.98, 0, 0, 1, 86, 620)"
dx="0,2"
class="s6_4"
>• </text>

<text
transform="matrix(0.98, 0, 0, 1, 114, 620)"
dx="0,1.7,2,0.9,1.7,1.7,2.2,0.7,2,0.9,1.2,2.2,1.7,2,0.9,0,2,1.7,2,0.9,2,2,0.9,1.7,1.7,1,2,1.7,2,0.9,2,1.7,0.2,0.1,1.2,2,2.4,1.2,1.5,0.9,2,0.9,2,0.9,2,2.2,2,0.9,-0.7,1,0.5,2,1.7,2,0.9,0.2,2,2.2,2,0.9,1.7,2,0.9,0.5,2.2,1.7"
class="s6_4"
>we could have tips on buying instruments – and taking care of them</text>

<text
transform="matrix(0.98, 0, 0, 1, 86, 652)"
dx="0,2"
class="s6_4"
>• </text>

<text
transform="matrix(0.98, 0, 0, 1, 114, 652)"
dx="0,1.7,2,0.9,1.7,1.7,2.2,0.7,2,0.9,1.2,2.2,1.7,2,0.9,0,2,1.7,2,0.9,2,2,0.9,2,0,2.2,1.7,0,2,1.2,2,1.7,2,0.9,1.2,1.7,0.5,2,1.7,-0.2,2,0.9,1.2,0.6,2,1.5,2,1.7,2,0.9,0.5,2.2,2,0.9,2.2,1,1.2,1.5,2,2,1.7,2.2,2.2,2,0.9,2,0,2,0.5"
class="s6_4"
>we could have tips on practising without driving the neighbours crazy</text>

<text
transform="matrix(0.98, 0, 0, 1, 372, 784)"
dx="0,1.7,2,2"
class="s6_4"
>HOME</text>

<text
transform="matrix(0.98, 0, 0, 1, 103, 847)"
dx="0,2,2,2,1.5,2,0.9,2.4"
class="s6_4"
>ABOUT US</text>

<text
transform="matrix(0.98, 0, 0, 1, 276, 846)"
dx="0,2.3,2.3,2.1,0.5,2.5,2.3,2.1,2.1"
class="s6_4"
>OUR SONGS</text>

<text
transform="matrix(0.98, 0, 0, 1, 449, 847)"
dx="0,2.3,2.3,2.1,1,2.8,2.1,1,1.8,2.3,2.3"
class="s6_4"
>SEE US PLAY</text>

<text
transform="matrix(0.98, 0, 0, 1, 603, 848)"
dx="0,1.8,2.3,2.3,2.1,1.8,2.1,2.1,1.1,2.1"
class="s6_4"
>PLAYING A </text>

<text
transform="matrix(0.98, 0, 0, 1, 693, 848)"
dx="0,1,2.2,1.7,2.2,1.5,1.2"
class="s7_4"
>CONCERT</text>

<text
transform="matrix(0.98, 0, 0, 1, 426, 899)"
dx="0,2.2,1,1,2.2,2.2,1.7,1.9,2,0.8,1,2.2,1.7,2.2,1.5,1.2,1.2"
class="s7_4"
>UPCOMING CONCERTS</text>

<text
transform="matrix(0.98, 0, 0, 1, 644, 899)"
dx="0,2.2,2.2,2,0.8,1.5,2.2,2.6"
class="s7_4"
>TOP TIPS</text>

<text
transform="matrix(0.98, 0, 0, 1, 291, 904)"
dx="0,2.3,2.3,2.3,2,2.3"
class="s6_4"
>VIDEOS</text>

<text
transform="matrix(0.98, 0, 0, 1, 97, 900)"
dx="0,2,2,2,0.7,2.7,2,2,0.7,1.7"
class="s6_4"
>OUR NEW CD</text>

<text
transform="matrix(0.98, 0, 0, 1, 74, 950)"
dx="0,2,2.4,2,0.7,2,2,2,0.7,2,2,2.2,2,2,1"
class="s6_4"
>BUY OUR T-SHIRT</text>

<text
x="975"
y="684"
dx="0,0,0,0,0.9,0,0,0.9,0,0,0,0.9,0,0,0,0,0,0.9,0,0,0,0.9,0,0,0,0,0.9,0,0,0,0,0.9,0,0,0.9,0,0,0,0,0.9,0,0,0,0,0.9,0,-0.3,0,0.9,0,0,0,0,0,0,0,0.9,-1.4,0,0,0.9,0,0,0,0.9,0,0,0,0,0,0,0.9,0,0,0,0,0,0.9,0,0"
class="s2_4"
>All of the pages you will make in this book are online. You can follow along as </text>

<text
x="975"
y="706"
dx="0,0,0,0,1.3,0,0,0,0,0,0,0,0,0,1.3,0,0,0,0,0,1.3,0,0,0,0,0,1.3,0,0,0,0,0,0,0,0,1.3,0,0,0,1.3,0,0,0,0,1.3,0,0,0,1.3,0,0,0,0,1.3,0,0,1.3,0,0,0,0,1.3,0,0,0,0,0,1.3,0,0,0,1.3,0,0,-0.3,0"
class="s2_4"
>the Nanonauts build their website, and copy the code to save time. For more </text>

<text
x="975"
y="727"
dx="0,0,0,0,0,0.3,0,0,0,0,0,0,0,-0.9,0,0,-0.9,0,0,-0.9,0,0,0,0,0,0,0,0,0,0,0,0,0,0,0,0,0,0,0,0,0,0,0,0"
class="s2_4"
>information, go to http://nano.tips/examples</text>

<path d="M763.9,838.9c-0.1,-3.5,0.8,-11.7,-3.1,-13.5c-1.9,-1,-5.9,-0.3,-8,-0.4c-5.8,-0.1,-11.6,-0.2,-17.3,-0.2c-20.1,-0.2,-40.2,-0.3,-60.3,-0.4l-0.9,-12.2c0,-0.3,-0.4,-0.5,-0.7,-0.5c-25.8,0,-51.7,0,-77.6,-0.1c-57.7,-0.1,-115.4,-0.1,-173.1,-0.2c-7.9,0,-15.8,0,-23.7,0c0.1,-0.1,0.1,-0.2,0.1,-0.4c-0.1,-4.4,-0.2,-8.9,-0.4,-13.4c16.8,-0.2,33.5,-0.4,50.2,-0.6c10.4,-0.2,20.8,-0.3,31.1,-0.5c0.5,0,1.2,-0.3,1.2,-0.8c1,-6.5,1.5,-13.2,1.5,-19.8c0,-4.4,0.6,-12.7,-4.3,-14.9c-2.2,-1.1,-5.8,-0.6,-8.1,-0.7c-5.8,-0.2,-11.6,-0.1,-17.5,-0.1c-35.2,0.2,-70.5,1.4,-105.7,2.5c-9.5,0.3,-18.9,0.6,-28.3,0.9c-0.3,0,-0.6,0.2,-0.8,0.3c-0.5,0.4,-0.5,1.2,0.6,1.2c22.6,-0.8,45.2,-1.5,67.9,-2.1c28.8,-0.8,58.3,-3,87.1,-1.1c13.2,0.9,4.4,24.3,5.7,32.4c0,0.4,0.1,0.6,0.1,0.8c-1,0.2,-2.2,0,-3.2,0c-5,0.1,-10.1,0.2,-15.1,0.2c-32.6,0.5,-65.3,0.9,-98,1.3c-11.8,0.2,-23.7,0.7,-35.5,-0.2c-2.7,-0.3,-12,0.1,-13.4,-2.3c-1.3,-2.2,0.3,-8.8,0.5,-11.1c0.5,-6.7,1.1,-13.5,1.8,-20.2c0,-0.2,0.1,-0.5,0.1,-0.8c0.1,-1,-2.1,-0.7,-2.2,0.2c-0.7,6.5,-1.3,13,-1.8,19.5c-0.2,3.3,-2.4,11.5,0.2,14.1c1.5,1.6,7.7,1.4,9.5,1.6c5.3,0.6,10.7,0.9,16.1,0.9c3.1,0.1,6.2,0,9.3,0c16.3,-0.2,32.5,-0.4,48.8,-0.6c0.2,4.5,0.3,9,0.4,13.5c0,0.1,0.1,0.1,0.1,0.2c-51.1,0,-102.3,-0.1,-153.4,0c-21.2,0,-42.4,0,-63.5,0c-10.5,0.1,-21.6,-0.9,-31.9,0.3c-2.6,0.3,-3.1,0.4,-3.8,3.1c-0.7,2.9,-1,6,-1.2,9.2c-13.8,-0.1,-27.7,-0.1,-41.6,-0.1c-9,0,-18,0,-27,0c-0.2,0,-0.7,0.1,-1.2,0.3c-0.5,0.3,-0.8,0.5,-0.3,0.5c22.5,0,44.9,0.1,67.3,0.1c16.8,0.1,33.6,0.2,50.4,0.3c6.6,0,13.6,-0.3,20.4,-0.2c0,0,0.1,0,0.1,0c4.1,0,8.1,0.2,12.1,0.7c5.3,0.6,4.7,5.9,4.9,10.6c0.4,6.8,0.1,13.7,-0.4,20.6c-22.1,0.1,-44.2,0.1,-66.4,-0.1c-11.8,0,-23.9,0.1,-35.9,0.1c-12.3,0,-24.6,-0.3,-36.8,-1c-6.6,-0.4,-13.2,-1,-19.7,-1.9c-4.9,-0.6,-7.8,-1.1,-7.9,-6.8c-0.3,-7.9,3.7,-16.6,7.1,-23.7c0.1,-0.1,0.1,-0.2,0.2,-0.4c0.1,-0.3,-1.9,-0.1,-2.2,0.4C63.6,829.5,53.2,850.3,63,854c3.2,1.3,7.6,1.1,11,1.4c6.6,0.5,13.1,0.8,19.7,1c16.6,0.6,33.2,0.9,49.8,1.1c0,5.8,0,11.6,0.1,17.5c-17.2,-0.1,-34.5,-0.1,-51.7,-0.2c-6.6,0,-13.2,0,-19.8,-0.1c-0.4,0,-0.9,0.3,-1.2,0.6c-0.3,0.3,-0.4,0.7,0.4,0.7c49.2,0.1,98.4,0.3,147.6,0.4c1.7,0,6.3,-0.8,7.8,0c0.4,0.2,0.3,0.3,0.3,2.4c0.3,5.9,2.1,11.3,1.3,17.3c-1,7.5,-4.1,14.2,-12.1,14.6c-4.8,0.3,-9.7,0.3,-14.5,0.3c-32.1,0.3,-64.1,-0.4,-96.1,-1.4C93,909.2,79.4,909.8,67,907.7c-5.9,-1,-4.1,-8.4,-3.6,-13.1c0.7,-6.6,2,-13.2,3.4,-19.6c0,-0.1,0,-0.2,0,-0.2c0.2,-0.8,-2,-0.5,-2.1,0.2C63,882.5,61.5,890.1,61,897.7c-0.3,4,-1.2,9.3,3.1,10.9c3.7,1.4,9.3,0.9,13.2,1.1c8.2,0.5,16.5,0.8,24.7,1.1c13.5,0.4,27.1,0.9,40.6,1.3c0.1,4.4,0.4,13,0.4,17.2c-14.5,-0.1,-29,-0.1,-43.5,-0.1c-9.1,0,-18.1,0,-27.1,0c-0.2,0,-0.7,0.2,-1.1,0.3C70.8,929.8,70.4,930,71,930c22.4,0,44.9,0.1,67.3,0.1c16.8,0.1,33.5,0.2,50.3,0.3c6.7,0,13.6,-0.3,20.4,-0.2c0.1,0,0.1,0,0.1,0c4.1,0,8.2,0.2,12.1,0.7c5.3,0.7,4.7,5.9,5,10.6c0.3,6.8,0,13.7,-0.4,20.6c-22.2,0.1,-44.3,0.1,-66.4,0c-11.9,-0.1,-23.9,0,-35.9,0c-12.3,0,-24.6,-0.2,-36.8,-1c-6.6,-0.4,-13.2,-1,-19.8,-1.8c-4.8,-0.7,-7.7,-1.1,-7.9,-6.9c-0.2,-7.9,3.7,-16.6,7.1,-23.7c0.1,-0.1,0.1,-0.2,0.2,-0.3c0.1,-0.3,-1.9,-0.2,-2.1,0.3c-3,6.1,-13.4,26.9,-3.6,30.6c3.3,1.3,7.7,1.1,11.1,1.4c6.5,0.5,13.1,0.8,19.6,1c35.7,1.3,71.4,1.3,107,1.3c9.3,0,18.6,0,27.8,-0.1c0.4,0,1.8,-0.1,1.8,-0.7c0.4,-6.1,0.7,-12.3,0.5,-18.4c-0.1,-3.5,0.7,-11.7,-3.1,-13.6c-1.9,-0.9,-5.9,-0.3,-8,-0.3c-5.8,-0.1,-11.6,-0.2,-17.4,-0.3c-18.2,-0.2,-36.4,-0.3,-54.7,-0.3c0,-4.2,-0.4,-12.7,-0.4,-17.2l1.5,0.1c22.6,0.5,45.3,0.7,67.8,-0.2c4.2,-0.2,8,-0.1,11.2,-3.3c8.2,-8.4,5.3,-23.1,3.5,-33.2c-0.1,-0.2,-0.5,-0.3,-0.7,-0.3C200.7,875.1,173.2,875,145.8,875c0,-2.7,-0.1,-5.3,-0.1,-7.9c0,-3.2,0,-6.4,0,-9.6c18.3,0.2,36.7,0.2,55,0.2c9.3,0,18.5,0,27.8,-0.1c0.4,0,1.7,-0.1,1.8,-0.7c0.4,-6.1,0.6,-12.3,0.5,-18.4c-0.1,-3.5,0.7,-11.7,-3.1,-13.6c-2,-0.9,-6,-0.3,-8.1,-0.3c-5.7,-0.2,-11.5,-0.2,-17.3,-0.3C183.6,824.1,164.9,824,146.2,824c0.2,-3.2,0.5,-6.3,0.6,-9.4c0.1,-0.5,0.3,-1.2,0.3,-1.5c0.1,0,0.2,0,0.2,0c3,-0.8,7.3,-0.1,10.3,-0.1c6.5,-0.1,13,-0.1,19.6,-0.1c20.9,-0.1,41.9,-0.1,62.9,-0.1c27.5,-0.1,55.1,-0.1,82.6,0c-0.4,0.1,-0.8,0.3,-0.8,0.7c-0.1,3.1,-0.2,6.2,-0.3,9.3c-18.5,0,-37,-0.1,-55.5,-0.1c-6.6,0,-13.2,-0.1,-19.8,-0.1c-0.4,0,-0.9,0.3,-1.2,0.6c-0.3,0.3,-0.4,0.6,0.4,0.6c49.2,0.2,98.4,0.3,147.6,0.5c1.7,0,6.3,-0.9,7.8,0c0.4,0.2,0.3,0.3,0.4,2.3c0.2,5.9,2,11.4,1.2,17.4c-1,7.5,-4.1,14.2,-12.1,14.6c-4.8,0.3,-9.7,0.3,-14.5,0.3c-32,0.3,-64.1,-0.4,-96.1,-1.4c-12.6,-0.4,-26.1,0.2,-38.6,-1.9c-5.9,-1.1,-4.1,-8.4,-3.5,-13.1c0.7,-6.6,1.9,-13.2,3.3,-19.6c0,-0.1,0.1,-0.2,0.1,-0.3c0.1,-0.8,-2,-0.4,-2.2,0.3c-1.7,7.4,-3.2,15.1,-3.7,22.7c-0.3,3.9,-1.2,9.3,3.1,10.9c3.8,1.4,9.3,0.9,13.2,1.1c8.3,0.5,16.5,0.8,24.7,1c15.6,0.6,31.4,1.1,47.1,1.5c0.1,4.9,0.2,16.4,0.3,20.9c-1.5,0.1,-2.9,0.1,-4.4,0.1c0,0,-1.6,0,-2.3,0.1c-12.6,0.3,-25.3,0.6,-37.9,0.9c-9,0.2,-18.1,0.5,-27.1,0.7c-0.2,0,-0.7,0.2,-1.1,0.4c-0.5,0.3,-0.8,0.5,-0.3,0.5c22.5,-0.6,44.9,-1.1,67.3,-1.6c16.8,-0.4,33.6,-0.8,50.3,-1.1c6.7,-0.1,13.6,-0.6,20.4,-0.7c0.1,0,0.1,0,0.1,0c4.1,-0.1,8.2,0,12.1,0.4c5.3,0.5,4.9,6,5.3,10.9c0.5,7.1,0.4,14.3,0.1,21.5c-22.1,0.7,-44.2,1.3,-66.4,1.7c-11.8,0.2,-23.8,0.7,-35.8,1c-12.3,0.3,-24.6,0.4,-36.8,-0.1c-6.7,-0.3,-13.3,-0.7,-19.8,-1.4c-4.9,-0.5,-7.8,-1,-8.1,-7c-0.5,-8.2,3.2,-17.4,6.4,-24.8c0.1,-0.2,0.1,-0.3,0.2,-0.4c0.1,-0.3,-1.9,-0.1,-2.1,0.5c-2.8,6.4,-12.6,28.3,-2.7,31.9c3.3,1.2,7.7,1,11.1,1.2c6.5,0.3,13.1,0.4,19.6,0.5c35.7,0.5,71.4,-0.5,107,-1.4c9.3,-0.3,18.6,-0.5,27.8,-0.8c0.4,-0.1,1.7,-0.2,1.8,-0.8c0.2,-6.4,0.3,-12.9,0,-19.3c-0.2,-3.6,0.4,-12.2,-3.5,-14c-1.9,-0.9,-6,-0.2,-8,-0.2c-5.8,0.1,-11.6,0.1,-17.4,0.2c-17.8,0.3,-35.7,0.7,-53.6,1.1c-0.1,-4.4,-0.2,-15.5,-0.3,-20.9c21,0.5,41.9,0.6,62.8,-0.2c4.2,-0.2,8.1,-0.1,11.2,-3.3c8.3,-8.4,5.3,-23.1,3.5,-33.2c-0.1,-0.3,-0.5,-0.3,-0.7,-0.3C376.1,823,350,822.9,323.8,822.8c0.1,-3.2,0.2,-6.4,0.3,-9.6c0,-0.2,-0.1,-0.4,-0.3,-0.4c31.5,0,63,0,94.5,0c27.2,0,54.3,0.1,81.4,0.1c-0.6,0,-1.8,0.3,-1.8,0.7l0,9.1c-17.3,0.4,-34.7,1,-52.1,1.6c-9.4,0.3,-18.9,0.6,-28.3,0.9c-0.3,0,-0.6,0.1,-0.8,0.3c-0.5,0.4,-0.5,1.2,0.6,1.2c22.6,-0.8,45.2,-1.5,67.9,-2.2c28.8,-0.7,58.3,-3,87.1,-1c13.2,0.9,4.4,24.3,5.7,32.4c0,0.4,0.1,0.6,0.1,0.8c-1,0.1,-2.2,0,-3.2,0c-5,0.1,-10,0.1,-15.1,0.2c-32.6,0.4,-65.3,0.9,-98,1.3c-11.8,0.1,-23.7,0.6,-35.5,-0.3c-2.6,-0.2,-12,0.2,-13.4,-2.3c-1.3,-2.2,0.3,-8.7,0.5,-11.1c0.5,-6.7,1.1,-13.4,1.8,-20.1c0,-0.3,0.1,-0.5,0.1,-0.8c0.1,-1,-2.1,-0.7,-2.2,0.2c-0.7,6.5,-1.3,13,-1.8,19.5c-0.2,3.3,-2.4,11.4,0.2,14c1.5,1.6,7.7,1.5,9.5,1.7c5.4,0.5,10.7,0.9,16.1,0.9c3.1,0,6.2,0,9.3,-0.1c17.2,-0.2,34.4,-0.4,51.5,-0.6l0,17.1c-17.8,0,-35.6,-0.1,-53.4,-0.2c-6.6,0,-13.2,0,-19.8,0c-0.4,0,-1,0.3,-1.3,0.5c-0.3,0.4,-0.4,0.7,0.4,0.7c49.2,0.2,98.4,0.3,147.7,0.4c1.7,0,6.2,-0.8,7.7,0.1c0.4,0.2,0.3,0.3,0.4,2.3c0.2,5.9,2,11.3,1.2,17.4c-1,7.5,-4,14.1,-12,14.6c-4.9,0.2,-9.7,0.3,-14.6,0.3c-32,0.3,-64.1,-0.4,-96.1,-1.4c-12.6,-0.4,-26.1,0.2,-38.6,-2c-5.9,-1,-4,-8.3,-3.5,-13.1c0.7,-6.6,1.9,-13.1,3.3,-19.6c0.1,0,0.1,-0.1,0.1,-0.2c0.2,-0.8,-2,-0.4,-2.2,0.3c-1.7,7.4,-3.1,15,-3.7,22.6c-0.2,4,-1.2,9.4,3.1,11c3.8,1.4,9.3,0.9,13.3,1.1c8.2,0.4,16.4,0.7,24.6,1c14.4,0.5,28.9,1,43.4,1.4l2.2,0c22.2,0.6,44.4,0.8,66.5,-0.1c4.2,-0.2,8.1,-0.1,11.2,-3.3c8.3,-8.4,5.3,-23.1,3.5,-33.2c-0.1,-0.3,-0.5,-0.4,-0.7,-0.4c-26.8,0,-53.6,-0.1,-80.5,-0.2l0,-17.1c15.9,-0.3,31.7,-0.5,47.6,-0.7c10.3,-0.1,20.7,-0.3,31,-0.4c0.5,0,1.2,-0.3,1.2,-0.8c1,-6.5,1.6,-13.2,1.5,-19.8c0,-4.4,0.6,-12.7,-4.3,-15c-2.2,-1,-5.8,-0.6,-8.1,-0.6c-5.8,-0.2,-11.6,-0.2,-17.4,-0.1c-17.2,0.1,-34.3,0.4,-51.5,0.8l0,-9.5c0,-0.1,-0.1,-0.2,-0.3,-0.2c30.9,0.1,61.8,0.1,92.7,0.1c19.1,0.1,38.2,0.1,57.3,0.1c5.5,0,11,0,16.6,0c1,0,5,-0.6,6.2,0c-0.7,-0.1,-0.1,4.2,-0.1,4.9c0.2,2.2,0.3,4.3,0.5,6.4c-12.7,0,-25.4,0,-38,-0.1c-9,0,-18.1,0,-27.1,0c-0.2,0,-0.7,0.2,-1.1,0.4c-0.5,0.2,-0.9,0.5,-0.3,0.5c22.4,0,44.9,0,67.3,0.1c16.8,0,33.6,0.1,50.3,0.2c6.7,0.1,13.6,-0.2,20.4,-0.2c0.1,0,0.1,0,0.2,0c4,0.1,8.1,0.2,12,0.7c5.3,0.7,4.7,5.9,5,10.6c0.3,6.9,0,13.8,-0.4,20.6c-22.2,0.2,-44.3,0.1,-66.4,0c-11.9,-0.1,-23.9,0.1,-35.9,0c-12.3,0,-24.6,-0.2,-36.8,-1c-6.6,-0.4,-13.2,-1,-19.8,-1.8c-4.8,-0.6,-7.7,-1.1,-7.9,-6.9c-0.2,-7.9,3.8,-16.6,7.1,-23.7c0.1,-0.1,0.2,-0.2,0.2,-0.3c0.2,-0.3,-1.9,-0.2,-2.1,0.4c-3,6.1,-13.4,26.8,-3.5,30.6c3.2,1.2,7.6,1.1,11,1.3c6.5,0.5,13.1,0.8,19.6,1.1c15.3,0.5,30.5,0.8,45.8,1c0.1,4.7,0.2,12.1,0.3,16.6c0,0.2,0,0.5,0,0.7c-14.8,0.4,-29.5,0.9,-44.3,1.4c-9.4,0.3,-18.9,0.6,-28.3,0.9c-0.3,0,-0.5,0.1,-0.7,0.3c-0.6,0.4,-0.6,1.2,0.5,1.2c22.6,-0.8,45.3,-1.5,67.9,-2.1c28.8,-0.8,58.3,-3,87.1,-1.1c13.2,0.9,4.4,24.3,5.7,32.4c0,0.4,0.1,0.6,0.1,0.8c-1,0.2,-2.2,0,-3.2,0c-5,0.1,-10,0.2,-15.1,0.2c-32.6,0.5,-65.3,0.9,-97.9,1.3c-11.9,0.2,-23.7,0.6,-35.5,-0.3c-2.7,-0.2,-12.1,0.2,-13.5,-2.2c-1.3,-2.2,0.3,-8.8,0.5,-11.1c0.5,-6.8,1.2,-13.5,1.8,-20.2c0.1,-0.2,0.1,-0.5,0.1,-0.8c0.1,-1,-2.1,-0.7,-2.2,0.2c-0.6,6.5,-1.2,13,-1.8,19.5c-0.2,3.3,-2.3,11.5,0.2,14.1c1.5,1.6,7.7,1.4,9.5,1.6c5.4,0.5,10.7,0.9,16.1,0.9c3.1,0.1,6.2,0,9.3,-0.1c33.8,-0.3,67.5,-0.8,101.3,-1.2c10.3,-0.2,20.7,-0.3,31,-0.5c0.5,0,1.2,-0.3,1.3,-0.8c0.9,-6.5,1.5,-13.2,1.4,-19.8c0,-4.4,0.6,-12.7,-4.3,-14.9c-2.1,-1.1,-5.8,-0.6,-8.1,-0.7C746,874,740.2,874.1,734.4,874.1c-19.8,0.1,-39.5,0.5,-59.3,1.1c-0.1,-4.7,-0.2,-12.4,-0.3,-17.3c19.7,0.3,39.4,0.3,59.1,0.3c9.2,0,18.5,-0.1,27.7,-0.1c0.4,0,1.8,-0.2,1.8,-0.7c0.4,-6.2,0.7,-12.3,0.5,-18.5Z" class="g10_4" />
<text
x="40"
y="1019"
dx="0"
class="s8_4"
>6</text>



<!-- Any embedded fonts defined here -->
<style type="text/css" ><![CDATA[

@font-face {
	font-family: PixelSplitter-Bold_3a;
	src: url("fonts/PixelSplitter-Bold_3a.woff") format("woff");
}

@font-face {
	font-family: Helvetica-Light_1by;
	src: url("fonts/Helvetica-Light_1by.woff") format("woff");
}

@font-face {
	font-family: PixelSplitter-Bold_1bs;
	src: url("fonts/PixelSplitter-Bold_1bs.woff") format("woff");
}

@font-face {
	font-family: SuomiHand-Script_1c8;
	src: url("fonts/SuomiHand-Script_1c8.woff") format("woff");
}

@font-face {
	font-family: Helvetica-Bold_1bu;
	src: url("fonts/Helvetica-Bold_1bu.woff") format("woff");
}

@font-face {
	font-family: Wingdings-Regular_1c4;
	src: url("fonts/Wingdings-Regular_1c4.woff") format("woff");
}

]]></style>

</svg>
