<?xml version="1.0" encoding="UTF-8" standalone="no"?>
<!DOCTYPE svg PUBLIC "-//W3C//DTD SVG 1.1//EN"
"http://www.w3.org/Graphics/SVG/1.1/DTD/svg11.dtd">


<!-- Page 41 -->
<svg x="0" y="0" width="1645" height="1061" viewBox="0 0 1645 1061" version="1.1" xmlns="http://www.w3.org/2000/svg" xmlns:xlink="http://www.w3.org/1999/xlink"
style="display: block;margin-left: auto;margin-right: auto;">
<defs>

<style type="text/css"><![CDATA[

.g8_41{
fill: #FFD400;
}
.g9_41{
fill: #F05654;
}
.g16_41{
fill: none;
stroke: #11151D;
stroke-width: 1;
stroke-linecap: butt;
stroke-linejoin: miter;
stroke-miterlimit: 4;
}
.g12_41{
fill: #B897C1;
}
.g6_41{
fill: none;
stroke: #FFFFFF;
stroke-width: 1;
stroke-linecap: round;
stroke-linejoin: round;
stroke-miterlimit: 4;
}
.g10_41{
fill: #89BA6E;
}
.g11_41{
fill: none;
stroke: #000000;
stroke-width: 1;
stroke-linecap: butt;
stroke-linejoin: miter;
stroke-miterlimit: 4;
}
.g1_41{
fill: #FAAD60;
}
.g13_41{
fill: none;
stroke: #6D6E71;
stroke-width: 1;
stroke-linecap: butt;
stroke-linejoin: miter;
stroke-miterlimit: 4;
}
.g14_41{
fill: none;
stroke: #11151D;
stroke-width: 1;
stroke-linecap: butt;
stroke-linejoin: miter;
stroke-miterlimit: 3;
}
.g15_41{
fill: #11151D;
}
.g2_41{
fill: #FFFFFF;
}
.g7_41{
fill: none;
stroke: #FFFFFF;
stroke-width: 2;
stroke-linecap: round;
stroke-linejoin: round;
stroke-miterlimit: 4;
}
.g4_41{
fill: #989797;
}
.g3_41{
fill: none;
stroke: #989898;
stroke-width: 6;
stroke-linecap: butt;
stroke-linejoin: miter;
stroke-miterlimit: 4;
}
.g5_41{
fill: none;
stroke: #FFFFFF;
stroke-width: 1;
stroke-linecap: round;
stroke-linejoin: round;
}

.s6_41{
font-size: 15.28px;
font-family: Helvetica-Light_128;
fill: #FFFFFF;
}
.s5_41{
font-size: 15.28px;
font-family: Helvetica-Light_124;
fill: #FFFFFF;
}
.s9_41{
font-size: 7.64px;
font-family: Helvetica-Bold_1bu;
fill: #11151D;
}
.s7_41{
font-size: 15.28px;
font-family: Helvetica-Light_12c;
fill: #FFFFFF;
}
.s12_41{
font-size: 15.28px;
font-family: Helvetica-Bold_1bu;
fill: #11151D;
}
.s14_41{
font-size: 6.11px;
font-family: Helvetica_1e3;
fill: #11151D;
}
.s15_41{
font-size: 10.67px;
font-family: Helvetica-Bold_1bu;
fill: #11151D;
}
.s1_41{
font-size: 18.33px;
font-family: PixelSplitter-Bold_1bs;
fill: #11151D;
}
.s13_41{
font-size: 4.58px;
font-family: Helvetica_1e3;
fill: #11151D;
}
.s8_41{
font-size: 8.53px;
font-family: Helvetica-Bold_1bu;
fill: #11151D;
}
.s16_41{
font-size: 5.68px;
font-family: Helvetica-Bold_1bu;
fill: #11151D;
}
.s17_41{
font-size: 12.22px;
font-family: PixelSplitter-Bold_1bs;
fill: #11151D;
}
.s11_41{
font-size: 15.28px;
font-family: Helvetica-Light_12m;
fill: #FFFFFF;
}
.s10_41{
font-size: 15.28px;
font-family: Helvetica-Light_12i;
fill: #FFFFFF;
}
.s2_41{
font-size: 15.28px;
font-family: Helvetica-Light_1by;
fill: #11151D;
}
.s3_41{
font-size: 15.28px;
font-family: AndaleMono_1cn;
fill: #11151D;
}
.s4_41{
font-size: 15.28px;
font-family: Helvetica-Light_120;
fill: #FFFFFF;
}

]]></style>

</defs>
<path d="M0,0
L0,1061
L1645,1061
L1645,0 Z " 
fill="#FFFFFF" stroke="none" />
<image x="-33" y="-32" width="1713" height="1115" xlink:href="41/img/1.png" />
<image x="-13" y="-11" width="1674" height="1073" opacity="0.5" xlink:href="41/img/2.png" />
<path d="M502,50l0,5l-4,0l0,632l4,0l0,4l274,0l0,-4l4,0L780,55l-4,0l0,-5Z" class="g1_41" />
<path d="M199,824l0,35l576,0l0,-5l4,0l0,-25l-4,0l0,-5Z" class="g2_41" />
<path d="M199,867l0,35l576,0l0,-5l4,0l0,-25l-4,0l0,-5Z" class="g2_41" />
<path d="M199,911l0,34l576,0l0,-5l4,0l0,-25l-4,0l0,-4Z" class="g2_41" />
<path d="M201,953l0,34l574,0l0,-4l4,0l0,-26l-4,0l0,-4Z" class="g2_41" />
<path d="M868,50l0,5l-5,0l0,439l5,0l0,4l269,0l0,-4l5,0l0,-439l-5,0l0,-5Z" class="g1_41" />
<path d="M872,646l0,4l-5,0l0,101l5,0l0,4l265,0l0,-4l5,0l0,-101l-5,0l0,-4Z" class="g1_41" />
<path d="M1012,900l0,35l587,0l0,-5l5,0l0,-25l-5,0l0,-5Z" class="g2_41" />
<path d="M1012,943l0,55l587,0l0,-5l5,0l0,-46l-5,0l0,-4Z" class="g2_41" />
<path d="M51,175l0,3l0,3l-3,0l-2,0l0,502l2,0l3,0l0,3l0,2l417,0l0,-2l0,-3l3,0l2,0l0,-502l-2,0l-3,0l0,-3l0,-3Z" class="g2_41" />
<path d="M51,175l0,3l0,3l-3,0l-2,0l0,502l2,0l3,0l0,3l0,2l417,0l0,-2l0,-3l3,0l2,0l0,-502l-2,0l-3,0l0,-3l0,-3L51,175Z" class="g3_41" />
<path d="M48,172l0,6l-5,0l0,29l433,0l0,-29l-5,0l0,-6Z" class="g4_41" />
<path d="M61.9,190.1c1.4,0,2.5,-1.1,2.5,-2.4c0,-1.4,-1.1,-2.5,-2.5,-2.5c-1.3,0,-2.4,1.1,-2.4,2.5c0,1.3,1.1,2.4,2.4,2.4Z" class="g2_41" />
<path d="M71.5,190.1c1.3,0,2.4,-1.1,2.4,-2.4c0,-1.4,-1.1,-2.5,-2.4,-2.5c-1.4,0,-2.5,1.1,-2.5,2.5c0,1.3,1.1,2.4,2.5,2.4Z" class="g2_41" />
<path d="M81.1,190.1c1.3,0,2.4,-1.1,2.4,-2.4c0,-1.4,-1.1,-2.5,-2.4,-2.5c-1.4,0,-2.5,1.1,-2.5,2.5c0,1.3,1.1,2.4,2.5,2.4Z" class="g2_41" />
<path d="M59.5,194.9c0,0,-1.6,0,-1.6,1.5l0,4c0,0,0,1.5,1.6,1.5l388.9,0c0,0,1.5,0,1.5,-1.5l0,-4c0,0,0,-1.5,-1.5,-1.5Z" class="g2_41" />
<path d="M465.3,195.3l0,3.1c-0.1,0,-0.1,0,-0.1,0c-0.4,-0.1,-0.8,-0.2,-1.2,-0.2c-0.5,-0.1,-1,-0.2,-1.6,-0.3c-0.1,0,-0.2,-0.1,-0.3,-0.1c0.4,-0.3,0.7,-0.6,1.1,-0.8c0,0,0,-0.1,0,-0.1c-0.5,-0.3,-1.1,-0.4,-1.6,-0.3c-0.6,0.2,-1,0.5,-1.3,0.9c-0.3,0.5,-0.4,1,-0.3,1.6c0,0.5,0.3,0.9,0.7,1.3c0.5,0.4,1.1,0.5,1.8,0.4c0.7,-0.1,1.1,-0.5,1.4,-1.2c0.1,0,0.1,0,0.1,0c0.4,0.1,0.8,0.2,1.1,0.3c-0.2,0.6,-0.6,1.1,-1.2,1.5c-0.5,0.4,-1.1,0.6,-1.7,0.6c-0.1,0,-0.1,0,-0.1,0l-0.2,0c-0.3,0,-0.5,0,-0.7,-0.1c-0.7,-0.2,-1.2,-0.5,-1.7,-1c-0.4,-0.5,-0.7,-1.1,-0.8,-1.8c0,-0.1,0,-0.2,0,-0.3l0,-0.2c0,-0.2,0.1,-0.3,0.1,-0.4c0.1,-0.7,0.4,-1.3,0.8,-1.7c0.5,-0.6,1.1,-0.9,1.8,-1c0.4,-0.1,0.8,-0.1,1.2,0c0.6,0.1,1.1,0.3,1.5,0.7c0.1,0,0.1,0,0.1,0c0.2,-0.2,0.4,-0.4,0.6,-0.5c0.2,-0.2,0.3,-0.3,0.5,-0.4Z" class="g2_41" />
<path d="M465.3,195.3l0,3.1c-0.1,0,-0.1,0,-0.1,0c-0.4,-0.1,-0.8,-0.2,-1.2,-0.2c-0.5,-0.1,-1,-0.2,-1.6,-0.3c-0.1,0,-0.2,-0.1,-0.3,-0.1c0.4,-0.3,0.7,-0.6,1.1,-0.8c0,0,0,-0.1,0,-0.1c-0.5,-0.3,-1.1,-0.4,-1.6,-0.3c-0.6,0.2,-1,0.5,-1.3,0.9c-0.3,0.5,-0.4,1,-0.3,1.6c0,0.5,0.3,0.9,0.7,1.3c0.5,0.4,1.1,0.5,1.8,0.4c0.7,-0.1,1.1,-0.5,1.4,-1.2c0.1,0,0.1,0,0.1,0c0.4,0.1,0.8,0.2,1.1,0.3c-0.2,0.6,-0.6,1.1,-1.2,1.5c-0.5,0.4,-1.1,0.6,-1.7,0.6c-0.1,0,-0.1,0,-0.1,0l-0.2,0c-0.3,0,-0.5,0,-0.7,-0.1c-0.7,-0.2,-1.2,-0.5,-1.7,-1c-0.4,-0.5,-0.7,-1.1,-0.8,-1.8c0,-0.1,0,-0.2,0,-0.3l0,-0.2c0,-0.2,0.1,-0.3,0.1,-0.4c0.1,-0.7,0.4,-1.3,0.8,-1.7c0.5,-0.6,1.1,-0.9,1.8,-1c0.4,-0.1,0.8,-0.1,1.2,0c0.6,0.1,1.1,0.3,1.5,0.7c0.1,0,0.1,0,0.1,0c0.2,-0.2,0.4,-0.4,0.6,-0.5c0.2,-0.2,0.3,-0.3,0.5,-0.4Z" class="g5_41" />
<path d="M458.5,185.5l7,0" class="g6_41" />
<path d="M458.5,187.5l7,0" class="g6_41" />
<path d="M458.5,188.5l7,0" class="g6_41" />
<path d="M54.3,196.3l-1.2,2.1l1.2,2.1" class="g7_41" />
<path d="M66,685l388,0l0,-409L66,276l0,409Z" class="g8_41" />
<path d="M66,246l388,0l0,-32L66,214l0,32Z" class="g9_41" />
<path d="M66,267l388,0l0,-21L66,246l0,21Z" class="g1_41" />
<path d="M66,560l388,0l0,-100L66,460l0,100Z" class="g10_41" />
<path d="M66,667l388,0l0,-94L66,573l0,94Z" class="g10_41" />
<path d="M66,448l388,0l0,-139L66,309l0,139Z" class="g2_41" />
<image x="81" y="323" width="359" height="112" xlink:href="41/img/3.png" />
<path d="M74,542l55,0l0,-66l-55,0l0,66Z" class="g2_41" />
<image x="82" y="481" width="40" height="57" xlink:href="41/img/4.png" />
<path d="M74,656l55,0l0,-65l-55,0l0,65Z" class="g2_41" />
<image x="81" y="603" width="42" height="42" xlink:href="41/img/5.png" />
<path d="M71.3,246.4c0,0,-5,0,-5,4.9l0,11.2c0,0,0,4.9,5,4.9l377.8,0c0,0,5,0,5,-4.9l0,-11.2c0,0,0,-4.9,-5,-4.9Z" class="g1_41" />
<path d="M71.3,246.4c0,0,-5,0,-5,4.9l0,11.2c0,0,0,4.9,5,4.9l377.8,0c0,0,5,0,5,-4.9l0,-11.2c0,0,0,-4.9,-5,-4.9l-377.8,0Z" class="g11_41" />
<path d="M1177,53l0,2l0,3l-3,0l-3,0l0,432l3,0l3,0l0,3l0,3l417,0l0,-3l0,-3l2,0l3,0l0,-432l-3,0l-2,0l0,-3l0,-2Z" class="g2_41" />
<path d="M1177,53l0,2l0,3l-3,0l-3,0l0,432l3,0l3,0l0,3l0,3l417,0l0,-3l0,-3l2,0l3,0l0,-432l-3,0l-2,0l0,-3l0,-2l-417,0Z" class="g3_41" />
<path d="M1174,50l0,5l-6,0l0,29l434,0l0,-29l-6,0l0,-5Z" class="g4_41" />
<path d="M1187.5,67.6c1.3,0,2.4,-1.1,2.4,-2.5c0,-1.3,-1.1,-2.4,-2.4,-2.4c-1.4,0,-2.5,1.1,-2.5,2.4c0,1.4,1.1,2.5,2.5,2.5Z" class="g2_41" />
<path d="M1197.1,67.6c1.3,0,2.4,-1.1,2.4,-2.5c0,-1.3,-1.1,-2.4,-2.4,-2.4c-1.4,0,-2.5,1.1,-2.5,2.4c0,1.4,1.1,2.5,2.5,2.5Z" class="g2_41" />
<path d="M1206.6,67.6c1.4,0,2.5,-1.1,2.5,-2.5c0,-1.3,-1.1,-2.4,-2.5,-2.4c-1.3,0,-2.4,1.1,-2.4,2.4c0,1.4,1.1,2.5,2.4,2.5Z" class="g2_41" />
<path d="M1185,72.3c0,0,-1.5,0,-1.5,1.6l0,3.9c0,0,0,1.6,1.5,1.6l388.9,0c0,0,1.6,0,1.6,-1.6l0,-3.9c0,0,0,-1.6,-1.6,-1.6Z" class="g2_41" />
<path d="M1590.8,72.8l0,3.1c-0.4,-0.1,-0.8,-0.2,-1.2,-0.3c-0.5,-0.1,-1.1,-0.2,-1.6,-0.3c-0.1,0,-0.2,0,-0.3,0c0.4,-0.3,0.7,-0.6,1.1,-0.9c-0.6,-0.3,-1.1,-0.4,-1.7,-0.3c-0.5,0.1,-0.9,0.4,-1.2,0.9c-0.3,0.5,-0.5,1,-0.4,1.5c0.1,0.6,0.4,1,0.8,1.3c0.5,0.5,1.1,0.6,1.8,0.5c0.6,-0.2,1.1,-0.6,1.4,-1.2l0,-0.1c0.4,0.1,0.8,0.2,1.2,0.3l0,0.1c-0.2,0.6,-0.6,1.1,-1.2,1.5c-0.5,0.4,-1.1,0.6,-1.8,0.6l-0.2,0l-0.1,0c-0.2,0,-0.4,0,-0.6,-0.1c-0.7,-0.2,-1.3,-0.5,-1.7,-1.1c-0.5,-0.5,-0.7,-1.1,-0.8,-1.8c0,0,0,-0.1,0,-0.2l0,-0.2c0,0,0,-0.1,0,-0.1c0,-0.1,0,-0.2,0,-0.4c0.2,-0.6,0.4,-1.2,0.9,-1.7c0.5,-0.5,1.1,-0.8,1.8,-1c0.4,0,0.8,0,1.2,0c0.6,0.1,1.1,0.4,1.5,0.7c0,0.1,0,0.1,0.1,0c0.2,-0.1,0.4,-0.3,0.6,-0.5c0.1,-0.1,0.3,-0.2,0.4,-0.3Z" class="g2_41" />
<path d="M1590.8,72.8l0,3.1c-0.4,-0.1,-0.8,-0.2,-1.2,-0.3c-0.5,-0.1,-1.1,-0.2,-1.6,-0.3c-0.1,0,-0.2,0,-0.3,0c0.4,-0.3,0.7,-0.6,1.1,-0.9c-0.6,-0.3,-1.1,-0.4,-1.7,-0.3c-0.5,0.1,-0.9,0.4,-1.2,0.9c-0.3,0.5,-0.5,1,-0.4,1.5c0.1,0.6,0.4,1,0.8,1.3c0.5,0.5,1.1,0.6,1.8,0.5c0.6,-0.2,1.1,-0.6,1.4,-1.2l0,-0.1c0.4,0.1,0.8,0.2,1.2,0.3l0,0.1c-0.2,0.6,-0.6,1.1,-1.2,1.5c-0.5,0.4,-1.1,0.6,-1.8,0.6l-0.2,0l-0.1,0c-0.2,0,-0.4,0,-0.6,-0.1c-0.7,-0.2,-1.3,-0.5,-1.7,-1.1c-0.5,-0.5,-0.7,-1.1,-0.8,-1.8c0,0,0,-0.1,0,-0.2l0,-0.2c0,0,0,-0.1,0,-0.1c0,-0.1,0,-0.2,0,-0.4c0.2,-0.6,0.4,-1.2,0.9,-1.7c0.5,-0.5,1.1,-0.8,1.8,-1c0.4,0,0.8,0,1.2,0c0.6,0.1,1.1,0.4,1.5,0.7c0,0.1,0,0.1,0.1,0c0.2,-0.1,0.4,-0.3,0.6,-0.5c0.1,-0.1,0.3,-0.2,0.4,-0.3Z" class="g5_41" />
<path d="M1584.5,63.5l6,0" class="g6_41" />
<path d="M1584.5,64.5l6,0" class="g6_41" />
<path d="M1584.5,66.5l6,0" class="g6_41" />
<path d="M1179.9,73.8l-1.2,2.1l1.2,2" class="g7_41" />
<path d="M1191,492l388,0l0,-353l-388,0l0,353Z" class="g8_41" />
<path d="M1191,108l388,0l0,-17l-388,0l0,17Z" class="g9_41" />
<path d="M1191,130l388,0l0,-22l-388,0l0,22Z" class="g1_41" />
<path d="M1191,423l388,0l0,-100l-388,0l0,100Z" class="g10_41" />
<path d="M1191,493l388,0l0,-60l-388,0l0,60Z" class="g10_41" />
<path d="M1191,311l388,0l0,-139l-388,0l0,139Z" class="g2_41" />
<image x="1206" y="186" width="359" height="112" xlink:href="41/img/6.png" />
<path d="M1200,404l54,0l0,-65l-54,0l0,65Z" class="g2_41" />
<image x="1208" y="344" width="39" height="57" xlink:href="41/img/7.png" />
<path d="M1200,493l54,0l0,-43l-54,0l0,43Z" class="g2_41" />
<image x="1206" y="463" width="43" height="32" xlink:href="41/img/8.png" />
<path d="M1196.9,109.2c0,0,-5,0,-5,4.9l0,11.2c0,0,0,4.9,5,4.9l377.8,0c0,0,5,0,5,-4.9l0,-11.2c0,0,0,-4.9,-5,-4.9Z" class="g1_41" />
<path d="M1196.9,109.2c0,0,-5,0,-5,4.9l0,11.2c0,0,0,4.9,5,4.9l377.8,0c0,0,5,0,5,-4.9l0,-11.2c0,0,0,-4.9,-5,-4.9l-377.8,0Z" class="g11_41" />
<path d="M1177,516l0,3l0,3l-3,0l-3,0l0,357l3,0l3,0l0,3l0,3l417,0l0,-3l0,-3l2,0l3,0l0,-357l-3,0l-2,0l0,-3l0,-3Z" class="g2_41" />
<path d="M1177,516l0,3l0,3l-3,0l-3,0l0,357l3,0l3,0l0,3l0,3l417,0l0,-3l0,-3l2,0l3,0l0,-357l-3,0l-2,0l0,-3l0,-3l-417,0Z" class="g3_41" />
<path d="M1174,513l0,6l-6,0l0,29l434,0l0,-29l-6,0l0,-6Z" class="g4_41" />
<path d="M1187.5,531.1c1.3,0,2.4,-1.1,2.4,-2.4c0,-1.4,-1.1,-2.5,-2.4,-2.5c-1.4,0,-2.5,1.1,-2.5,2.5c0,1.3,1.1,2.4,2.5,2.4Z" class="g2_41" />
<path d="M1197.1,531.1c1.3,0,2.4,-1.1,2.4,-2.4c0,-1.4,-1.1,-2.5,-2.4,-2.5c-1.4,0,-2.5,1.1,-2.5,2.5c0,1.3,1.1,2.4,2.5,2.4Z" class="g2_41" />
<path d="M1206.6,531.1c1.4,0,2.5,-1.1,2.5,-2.4c0,-1.4,-1.1,-2.5,-2.5,-2.5c-1.3,0,-2.4,1.1,-2.4,2.5c0,1.3,1.1,2.4,2.4,2.4Z" class="g2_41" />
<path d="M1185,535.9c0,0,-1.5,0,-1.5,1.5l0,4c0,0,0,1.5,1.5,1.5l388.9,0c0,0,1.6,0,1.6,-1.5l0,-4c0,0,0,-1.5,-1.6,-1.5Z" class="g2_41" />
<path d="M1590.8,536.3l0,3.1c-0.4,-0.1,-0.8,-0.1,-1.2,-0.2c-0.5,-0.1,-1.1,-0.2,-1.6,-0.3c-0.1,0,-0.2,0,-0.3,-0.1c0.4,-0.3,0.7,-0.5,1.1,-0.8l0,-0.1c-0.6,-0.3,-1.1,-0.4,-1.7,-0.2c-0.5,0.1,-0.9,0.4,-1.2,0.9c-0.3,0.4,-0.5,0.9,-0.4,1.5c0.1,0.5,0.4,0.9,0.8,1.3c0.5,0.4,1.1,0.5,1.8,0.4c0.6,-0.1,1.1,-0.5,1.4,-1.2c0.4,0.1,0.8,0.2,1.2,0.3c-0.2,0.6,-0.6,1.2,-1.2,1.5c-0.5,0.4,-1.1,0.6,-1.8,0.6l-0.2,0l-0.1,0c-0.2,0,-0.4,0,-0.6,-0.1c-0.7,-0.1,-1.3,-0.5,-1.7,-1c-0.5,-0.5,-0.7,-1.1,-0.8,-1.8c0,-0.1,0,-0.2,0,-0.3l0,-0.2c0,-0.2,0,-0.3,0,-0.4c0.2,-0.7,0.4,-1.2,0.9,-1.7c0.5,-0.6,1.1,-0.9,1.8,-1c0.4,-0.1,0.8,-0.1,1.2,0c0.6,0.1,1.1,0.3,1.5,0.7l0.1,0c0.2,-0.2,0.4,-0.4,0.6,-0.5c0.1,-0.1,0.3,-0.3,0.4,-0.4Z" class="g2_41" />
<path d="M1590.8,536.3l0,3.1c-0.4,-0.1,-0.8,-0.1,-1.2,-0.2c-0.5,-0.1,-1.1,-0.2,-1.6,-0.3c-0.1,0,-0.2,0,-0.3,-0.1c0.4,-0.3,0.7,-0.5,1.1,-0.8l0,-0.1c-0.6,-0.3,-1.1,-0.4,-1.7,-0.2c-0.5,0.1,-0.9,0.4,-1.2,0.9c-0.3,0.4,-0.5,0.9,-0.4,1.5c0.1,0.5,0.4,0.9,0.8,1.3c0.5,0.4,1.1,0.5,1.8,0.4c0.6,-0.1,1.1,-0.5,1.4,-1.2c0.4,0.1,0.8,0.2,1.2,0.3c-0.2,0.6,-0.6,1.2,-1.2,1.5c-0.5,0.4,-1.1,0.6,-1.8,0.6l-0.2,0l-0.1,0c-0.2,0,-0.4,0,-0.6,-0.1c-0.7,-0.1,-1.3,-0.5,-1.7,-1c-0.5,-0.5,-0.7,-1.1,-0.8,-1.8c0,-0.1,0,-0.2,0,-0.3l0,-0.2c0,-0.2,0,-0.3,0,-0.4c0.2,-0.7,0.4,-1.2,0.9,-1.7c0.5,-0.6,1.1,-0.9,1.8,-1c0.4,-0.1,0.8,-0.1,1.2,0c0.6,0.1,1.1,0.3,1.5,0.7l0.1,0c0.2,-0.2,0.4,-0.4,0.6,-0.5c0.1,-0.1,0.3,-0.3,0.4,-0.4Z" class="g5_41" />
<path d="M1584.5,526.5l6,0" class="g6_41" />
<path d="M1584.5,528.5l6,0" class="g6_41" />
<path d="M1584.5,529.5l6,0" class="g6_41" />
<path d="M1179.9,537.3l-1.2,2.1l1.2,2.1" class="g7_41" />
<path d="M1191,882l388,0l0,-279l-388,0l0,279Z" class="g8_41" />
<path d="M1191,573l388,0l0,-17l-388,0l0,17Z" class="g9_41" />
<path d="M1191,595l388,0l0,-22l-388,0l0,22Z" class="g12_41" />
<path d="M1200.4,788.5c-0.3,0,-8.3,0.2,-8.3,8.3l0,77.1c0,0.4,0.1,8.3,8.3,8.3l370.9,0c0.3,0,8.3,-0.1,8.3,-8.3l0,-77.1c0,-0.3,-0.1,-8.3,-8.3,-8.3l-370.9,0Z" class="g10_41" />
<path d="M1200.4,788.5c-0.3,0,-8.3,0.2,-8.3,8.3l0,77.1c0,0.4,0.1,8.3,8.3,8.3l370.9,0c0.3,0,8.3,-0.1,8.3,-8.3l0,-77.1c0,-0.3,-0.1,-8.3,-8.3,-8.3l-370.9,0Z" class="g13_41" />
<path d="M1200.3,637.6c-0.4,0,-8.3,0.1,-8.3,8.3l0,121.9c0,0.3,0.1,8.3,8.3,8.3l371,0c0.3,0,8.3,-0.1,8.3,-8.3l0,-121.9c0,-0.4,-0.1,-8.3,-8.3,-8.3l-371,0Z" class="g2_41" />
<image x="1206" y="651" width="359" height="112" xlink:href="41/img/9.png" />
<path d="M1200.3,637.6c-0.4,0,-8.3,0.1,-8.3,8.3l0,121.9c0,0.3,0.1,8.3,8.3,8.3l371,0c0.3,0,8.3,-0.1,8.3,-8.3l0,-121.9c0,-0.4,-0.1,-8.3,-8.3,-8.3l-371,0Z" class="g13_41" />
<path d="M1208.9,804.7c-0.3,0,-8.2,0.1,-8.2,8.3l0,48c0,0.4,0.1,8.3,8.2,8.3l37.2,0c0.4,0,8.3,-0.1,8.3,-8.3l0,-48c0,-0.4,-0.1,-8.3,-8.3,-8.3l-37.2,0Z" class="g2_41" />
<image x="1208" y="809" width="39" height="56" xlink:href="41/img/10.png" />
<path d="M1208.9,804.7c-0.3,0,-8.2,0.1,-8.2,8.3l0,48c0,0.4,0.1,8.3,8.2,8.3l37.2,0c0.4,0,8.3,-0.1,8.3,-8.3l0,-48c0,-0.4,-0.1,-8.3,-8.3,-8.3l-37.2,0Z" class="g13_41" />
<path d="M1199.5,574c0,0,-7.6,0,-7.6,7.6l0,5.8c0,0,0,7.6,7.6,7.6l372.5,0c0,0,7.7,0,7.7,-7.6l0,-5.8c0,0,0,-7.6,-7.7,-7.6Z" class="g1_41" />
<path d="M1199.5,574c0,0,-7.6,0,-7.6,7.6l0,5.8c0,0,0,7.6,7.6,7.6l372.5,0c0,0,7.7,0,7.7,-7.6l0,-5.8c0,0,0,-7.6,-7.7,-7.6l-372.5,0Z" class="g11_41" />
<text 
x="56" 
y="75" 
dx="0,0" 
class="s1_41"
>5.</text>

<text 
transform="matrix(0.98, 0, 0, 1, 85, 75)"
dx="0,-0.3,0,2.9,0,0,0,0,0,0,2.9,0,0,0,2.9,0,0,0,0,2.9,0,0,0,0,0,0,-1.4,0,2.9,-0.3,0,2.9,0,0,0,2.9,0,0,0,0,0,0,2.9,0,-0.3,0,0,2.9,0,0,0,0,0" 
class="s2_41"
>We styled our menu earlier. We can simply drop those </text>

<text 
transform="matrix(0.98, 0, 0, 1, 56, 96)"
dx="0,0,0,0,0,0,0,4.9,0,0,0,0,4.9,0,0,0,4.9,0,0,0,-0.3,0,0,0,4.9,0,0,0,0,0,0,0,0,0,0,4.9,0,0,4.9,0,0,0,4.9,0,0,0,0,0,0,0,0,0,4.9,0,4.9,0,0,0,0" 
class="s2_41"
>styles into our current stylesheet to get ourselves a nice </text>

<text 
transform="matrix(0.98, 0, 0, 1, 56, 118)"
dx="0,0,0,0,0,0,0,0,1.5,0,0,0,0,0,1.5,0,0,0,1.5,0,0,0,0,0,1.5,0,0,0,0,0,1.5,0,0,1.5,0,0,0,1.5,0,0,0,0,1.5,0,0,1.5,0,1.5,0,0,0,0,1.5,0,0,0,1.5,0,0,-0.1" 
class="s2_41"
>looking menu. Add these rules in one line at a time and see </text>

<text 
transform="matrix(0.98, 0, 0, 1, 56, 139)"
dx="0,0,0,0,-0.9,0,-0.3,0,0,0,0,0" 
class="s2_41"
>the effects.</text>

<text 
x="56" 
y="727" 
dx="0,0" 
class="s1_41"
>6.</text>

<text 
transform="matrix(0.98, 0, 0, 1, 82, 727)"
dx="0,0,0,0,0,0,0.8,0,0,0.8,0,0,0,0.8,0,0,0,0,0,0,0.8,0,0,0.8,0,0,0,0.8,0,0,0,0,0,0,0.8,0,0,0,0,0.8,0,0,0,0,0,0,0,0.8,0,0,0.8,0,0,0,0.8,0,0,0,0.8,0,0,0.8,0,0,0,0.8,0,0,0,0,0,0.8,0,0,0,0.8,0,0,0,0,0,0,0.8,0,0,0,0,0.8,0,0,0,0,0,0,0,0.8,0,0,0.8,0,0,0" 
class="s2_41"
>Next, we can neaten up our header (the element at the top of the page) and footer (the element at the </text>

<text 
transform="matrix(0.98, 0, 0, 1, 56, 749)"
dx="0,0,0,0,0,0,0,-0.8,0,0,-0.8,0,0,0,-0.8,0,0,0,0,0,-0.8,0,0,-0.8,0,0,0,0,0,-0.8,0,-0.8,0,0,0,0,0,0,0,0,0,0,0,-0.8,0,0,-0.8,0,0,0" 
class="s2_41"
>bottom of the page) by using a combination of the </text>

<path d="M393.4,738.4c-0.8,0,-1.4,0.2,-1.7,0.6c-0.4,0.4,-0.5,1.1,-0.5,2.1l0,0.3l-1.9,0l0,1l1.9,0l0,6.7l1.1,0l0,-6.7l2.6,0l0,-1l-2.6,0l0,-0.2c0,-0.7,0.1,-1.2,0.3,-1.4c0.1,-0.2,0.4,-0.4,0.8,-0.4c0.4,0,0.9,0.1,1.5,0.3l0.3,-1c-0.7,-0.2,-1.3,-0.3,-1.8,-0.3Z" class="g14_41" />
<path d="M403.5,748.5l-2,0l0,-10l-3,0l0,1l2,0l0,10l3,0l0,-1Z" class="g14_41" />
<path d="M407.6,742.3c-0.6,0.7,-0.9,1.7,-0.9,2.9c0,1.3,0.3,2.3,0.9,3c0.6,0.8,1.5,1.1,2.5,1.1c1.1,0,1.9,-0.3,2.5,-1.1c0.7,-0.7,1,-1.7,1,-3c0,-1.2,-0.3,-2.2,-1,-2.9c-0.6,-0.7,-1.4,-1.1,-2.5,-1.1c-1,0,-1.8,0.4,-2.5,1.1Zm0.9,5.1c-0.4,-0.5,-0.6,-1.3,-0.6,-2.1c0,-0.9,0.2,-1.7,0.6,-2.3c0.4,-0.5,0.9,-0.8,1.6,-0.8c0.7,0,1.3,0.3,1.7,0.9c0.4,0.5,0.6,1.3,0.6,2.2c0,0.8,-0.2,1.5,-0.6,2.1c-0.4,0.6,-1,0.9,-1.7,0.9c-0.7,0,-1.2,-0.3,-1.6,-0.9Z" class="g14_41" />
<path d="M422.1,747.3l0,-3.3c0,-1.9,-0.9,-2.8,-2.6,-2.8c-0.9,0,-1.9,0.3,-2.9,0.8l0.3,0.8c0.3,-0.1,0.7,-0.3,1.1,-0.4c0.5,-0.1,0.8,-0.2,1.1,-0.2c1.3,0,1.9,0.7,1.9,2l0,0.4l-1.3,0.1c-0.6,0,-1.1,0.1,-1.5,0.2c-0.4,0.1,-0.8,0.3,-1.1,0.5c-0.3,0.2,-0.5,0.4,-0.7,0.7c-0.1,0.3,-0.2,0.7,-0.2,1c0,0.7,0.2,1.2,0.7,1.6c0.4,0.4,0.9,0.6,1.5,0.6c1.1,0,2,-0.4,2.6,-1.4c0,0.5,0.1,0.9,0.2,1.2l1.1,0c-0.1,-0.5,-0.2,-1.1,-0.2,-1.8Zm-2.2,0.6c-0.4,0.2,-0.8,0.3,-1.2,0.3c-0.4,0,-0.7,-0.1,-0.9,-0.3c-0.3,-0.2,-0.4,-0.5,-0.4,-0.8c0,-0.4,0.2,-0.7,0.4,-1c0.3,-0.2,0.7,-0.3,1,-0.4c0.4,-0.1,1.1,-0.2,2.2,-0.3l0,1.4c-0.3,0.5,-0.7,0.8,-1.1,1.1Z" class="g14_41" />
<path d="M431,747.9c-0.6,0.3,-1.2,0.4,-1.9,0.4c-0.3,0,-0.6,-0.1,-0.8,-0.4c-0.2,-0.2,-0.3,-0.6,-0.3,-1.1l0,-4.4l2.6,0l0,-1l-2.6,0l0,-2.2l-1.1,0l0,2.2l-1.5,0l0,1l1.5,0l0,4.7c0,1.5,0.7,2.2,2,2.2c0.8,0,1.5,-0.2,2.3,-0.5L431,747.9Z" class="g14_41" />
<path d="M436.5,741.5c-0.2,0.2,-0.3,0.4,-0.3,0.6c0,0.3,0.1,0.5,0.3,0.7c0.1,0.1,0.4,0.2,0.6,0.2c0.2,0,0.5,-0.1,0.6,-0.2c0.2,-0.2,0.3,-0.4,0.3,-0.7c0,-0.2,-0.1,-0.4,-0.3,-0.6c-0.1,-0.2,-0.4,-0.2,-0.6,-0.2c-0.2,0,-0.5,0,-0.6,0.2Zm0,6.2c-0.2,0.2,-0.3,0.4,-0.3,0.7c0,0.2,0.1,0.4,0.3,0.6c0.1,0.2,0.4,0.3,0.6,0.3c0.2,0,0.5,-0.1,0.6,-0.3c0.2,-0.2,0.3,-0.4,0.3,-0.6c0,-0.3,-0.1,-0.5,-0.3,-0.7c-0.1,-0.1,-0.4,-0.2,-0.6,-0.2c-0.2,0,-0.5,0.1,-0.6,0.2Z" class="g14_41" />
<path d="M455.5,748.5l-2,0l0,-10l-3,0l0,1l2,0l0,10l3,0l0,-1Z" class="g14_41" />
<path d="M465.6,744.9c0,-1.1,-0.3,-2,-0.9,-2.7c-0.6,-0.7,-1.3,-1,-2.2,-1c-1,0,-1.8,0.3,-2.4,1.1c-0.6,0.7,-0.9,1.7,-0.9,2.9c0,1.3,0.3,2.3,1,3c0.7,0.8,1.6,1.1,2.7,1.1c0.9,0,1.7,-0.1,2.4,-0.4l-0.2,-1c-0.7,0.3,-1.4,0.4,-2.1,0.4c-0.8,0,-1.4,-0.3,-1.9,-0.8c-0.5,-0.6,-0.7,-1.3,-0.7,-2.2l5.2,0l0,-0.4Zm-5.2,-0.6c0.1,-0.6,0.3,-1.1,0.7,-1.5c0.4,-0.4,0.9,-0.6,1.5,-0.6c0.4,0,0.8,0.2,1.2,0.6c0.4,0.4,0.6,0.9,0.6,1.5l-4,0Z" class="g14_41" />
<path d="M472.7,738.4c-0.8,0,-1.4,0.2,-1.7,0.6c-0.4,0.4,-0.5,1.1,-0.5,2.1l0,0.3l-1.9,0l0,1l1.9,0l0,6.7l1.1,0l0,-6.7l2.6,0l0,-1l-2.6,0l0,-0.2c0,-0.7,0.1,-1.2,0.3,-1.4c0.1,-0.2,0.4,-0.4,0.8,-0.4c0.4,0,0.9,0.1,1.5,0.3l0.3,-1c-0.7,-0.2,-1.3,-0.3,-1.8,-0.3Z" class="g14_41" />
<path d="M483.3,747.9c-0.6,0.3,-1.3,0.4,-1.9,0.4c-0.3,0,-0.6,-0.1,-0.8,-0.4c-0.2,-0.2,-0.3,-0.6,-0.3,-1.1l0,-4.4l2.6,0l0,-1l-2.6,0l0,-2.2l-1.1,0l0,2.2l-1.5,0l0,1l1.5,0l0,4.7c0,1.5,0.6,2.2,2,2.2c0.7,0,1.5,-0.2,2.3,-0.5l-0.2,-0.9Z" class="g14_41" />
<text 
transform="matrix(0.98, 0, 0, 1, 387, 749)"
dx="0,0,0,0,0,0,0,-1.8,0,0,0" 
class="s3_41"
>float: left</text>

<text 
transform="matrix(0.98, 0, 0, 1, 488, 749)"
dx="0,0,0,0,0,-0.8,0,0,0" 
class="s2_41"
>rule and </text>

<path d="M553.2,747.9c-0.6,0.3,-1.2,0.4,-1.8,0.4c-0.4,0,-0.7,-0.1,-0.9,-0.4c-0.2,-0.2,-0.3,-0.6,-0.3,-1.1l0,-4.4l2.6,0l0,-1l-2.6,0l0,-2.2l-1.1,0l0,2.2l-1.5,0l0,1l1.5,0l0,4.7c0,1.5,0.7,2.2,2,2.2c0.8,0,1.5,-0.2,2.3,-0.5l-0.2,-0.9Z" class="g14_41" />
<path d="M562.6,744.9c0,-1.1,-0.3,-2,-0.9,-2.7c-0.6,-0.7,-1.3,-1,-2.2,-1c-1,0,-1.8,0.3,-2.4,1.1c-0.7,0.7,-1,1.7,-1,2.9c0,1.3,0.4,2.3,1.1,3c0.7,0.8,1.6,1.1,2.7,1.1c0.9,0,1.7,-0.1,2.4,-0.4l-0.2,-1c-0.8,0.3,-1.5,0.4,-2.2,0.4c-0.7,0,-1.3,-0.3,-1.8,-0.8c-0.5,-0.6,-0.8,-1.3,-0.8,-2.2l5.3,0l0,-0.4Zm-5.2,-0.6c0,-0.6,0.3,-1.1,0.7,-1.5c0.3,-0.4,0.8,-0.6,1.4,-0.6c0.5,0,0.9,0.2,1.3,0.6c0.3,0.4,0.5,0.9,0.5,1.5l-3.9,0Z" class="g14_41" />
<path d="M568.9,745.2l2.7,-3.8l-1.2,0l-2.1,3l-2,-3l-1.3,0l2.7,3.8l-2.7,3.9l1.2,0l2.1,-3l2,3l1.3,0l-2.7,-3.9Z" class="g14_41" />
<path d="M580.2,747.9c-0.6,0.3,-1.2,0.4,-1.8,0.4c-0.4,0,-0.7,-0.1,-0.9,-0.4c-0.2,-0.2,-0.3,-0.6,-0.3,-1.1l0,-4.4l2.6,0l0,-1l-2.6,0l0,-2.2l-1.1,0l0,2.2l-1.4,0l0,1l1.4,0l0,4.7c0,1.5,0.7,2.2,2.1,2.2c0.7,0,1.5,-0.2,2.2,-0.5l-0.2,-0.9Z" class="g14_41" />
<path d="M588.5,744.5l-4,0l0,1l4,0l0,-1Z" class="g14_41" />
<path d="M598.4,747.3l0,-3.3c0,-1.9,-0.9,-2.8,-2.6,-2.8c-0.9,0,-1.9,0.3,-2.9,0.8l0.3,0.8c0.3,-0.1,0.7,-0.3,1.1,-0.4c0.4,-0.1,0.8,-0.2,1.1,-0.2c1.2,0,1.8,0.7,1.8,2l0,0.4l-1.3,0.1c-0.5,0,-1,0.1,-1.5,0.2c-0.4,0.1,-0.7,0.3,-1,0.5c-0.3,0.2,-0.5,0.4,-0.7,0.7c-0.1,0.3,-0.2,0.7,-0.2,1c0,0.7,0.2,1.2,0.6,1.6c0.5,0.4,1,0.6,1.5,0.6c1.2,0,2,-0.4,2.7,-1.4c0,0.5,0,0.9,0.1,1.2l1.2,0c-0.2,-0.5,-0.2,-1.1,-0.2,-1.8Zm-2.2,0.6c-0.4,0.2,-0.8,0.3,-1.2,0.3c-0.4,0,-0.7,-0.1,-1,-0.3c-0.2,-0.2,-0.3,-0.5,-0.3,-0.8c0,-0.4,0.1,-0.7,0.4,-1c0.3,-0.2,0.6,-0.3,1,-0.4c0.4,-0.1,1.1,-0.2,2.1,-0.3l0,1.4c-0.3,0.5,-0.6,0.8,-1,1.1Z" class="g14_41" />
<path d="M606.5,748.5l-2,0l0,-10l-3,0l0,1l2,0l0,10l3,0l0,-1Z" class="g14_41" />
<path d="M613.4,738.7c-0.2,0.1,-0.2,0.3,-0.2,0.5c0,0.2,0,0.4,0.2,0.6c0.1,0.2,0.3,0.2,0.5,0.2c0.2,0,0.4,0,0.6,-0.2c0.1,-0.2,0.2,-0.3,0.2,-0.6c0,-0.2,-0.1,-0.4,-0.2,-0.5c-0.2,-0.2,-0.4,-0.3,-0.6,-0.3c-0.2,0,-0.4,0.1,-0.5,0.3Zm1.1,2.7l-3.4,0l0,1l2.2,0l0,6.7l1.2,0l0,-7.7Z" class="g14_41" />
<path d="M622.1,746.2c0.7,0,1.3,-0.2,1.8,-0.7c0.5,-0.5,0.7,-1.1,0.7,-1.8c0,-0.5,-0.1,-1,-0.3,-1.4l1.5,0l0,-1.1l-2.3,0.3c-0.4,-0.2,-0.9,-0.3,-1.4,-0.3c-0.8,0,-1.4,0.2,-1.9,0.7c-0.5,0.5,-0.7,1.1,-0.7,1.8c0,0.5,0.1,0.9,0.3,1.3c0.3,0.4,0.6,0.7,1,1c-0.9,0.4,-1.4,0.9,-1.4,1.5c0,0.5,0.4,0.9,1.1,1.2c-0.9,0.4,-1.3,1,-1.3,1.6c0,0.5,0.3,1,0.8,1.4c0.6,0.3,1.3,0.5,2.1,0.5c1,0,1.9,-0.2,2.7,-0.8c0.8,-0.5,1.2,-1.2,1.2,-2.1c0,-0.5,-0.2,-1,-0.5,-1.3c-0.4,-0.3,-0.8,-0.4,-1.5,-0.4l-2.5,0.1c-0.3,0,-0.5,-0.1,-0.7,-0.2c-0.2,-0.1,-0.2,-0.2,-0.2,-0.4c0,-0.2,0.3,-0.5,1,-0.9c0.2,0,0.3,0,0.5,0ZM621,744.9c-0.2,-0.3,-0.4,-0.7,-0.4,-1.2c0,-0.5,0.2,-0.8,0.4,-1.1c0.3,-0.3,0.7,-0.5,1.1,-0.5c0.4,0,0.8,0.2,1,0.4c0.3,0.3,0.4,0.7,0.4,1.2c0,0.5,-0.1,0.9,-0.4,1.2c-0.3,0.3,-0.6,0.4,-1,0.4c-0.4,0,-0.8,-0.1,-1.1,-0.4Zm-0.2,6.1c-0.3,-0.2,-0.5,-0.5,-0.5,-0.8c0,-0.2,0.1,-0.4,0.2,-0.6c0.1,-0.1,0.3,-0.3,0.5,-0.5c0.2,-0.2,0.4,-0.3,0.5,-0.3c0.2,0,0.5,0,0.9,0c0.6,0,1.1,0,1.3,0c0.8,0,1.1,0.2,1.1,0.7c0,0.5,-0.2,1,-0.8,1.3c-0.5,0.3,-1.1,0.5,-1.9,0.5c-0.5,0,-1,-0.1,-1.3,-0.3Z" class="g14_41" />
<path d="M634.4,743.8c0,-1.7,-0.7,-2.6,-2.2,-2.6c-0.9,0,-1.7,0.4,-2.5,1.3l0,-1.1l-1.2,0l0,7.7l1.2,0l0,-5.6c0.8,-0.9,1.5,-1.3,2.2,-1.3c0.5,0,0.8,0.1,1,0.5c0.2,0.3,0.4,0.8,0.4,1.5l0,4.9l1.1,0l0,-5.3Z" class="g14_41" />
<path d="M639.8,741.5c-0.2,0.2,-0.3,0.4,-0.3,0.6c0,0.3,0.1,0.5,0.3,0.7c0.1,0.1,0.3,0.2,0.6,0.2c0.2,0,0.4,-0.1,0.6,-0.2c0.2,-0.2,0.3,-0.4,0.3,-0.7c0,-0.2,-0.1,-0.4,-0.3,-0.6c-0.2,-0.2,-0.4,-0.2,-0.6,-0.2c-0.3,0,-0.5,0,-0.6,0.2Zm0,6.2c-0.2,0.2,-0.3,0.4,-0.3,0.7c0,0.2,0.1,0.4,0.3,0.6c0.1,0.2,0.3,0.3,0.6,0.3c0.2,0,0.4,-0.1,0.6,-0.3c0.2,-0.2,0.3,-0.4,0.3,-0.6c0,-0.3,-0.1,-0.5,-0.3,-0.7c-0.2,-0.1,-0.4,-0.2,-0.6,-0.2c-0.3,0,-0.5,0.1,-0.6,0.2Z" class="g14_41" />
<path d="M658.1,741.2c-1,0,-1.8,0.6,-2.4,1.7l0,-1.5l-1.1,0l0,7.7l1.1,0l0,-5c0,0,0.2,-0.2,0.4,-0.6c0.3,-0.4,0.6,-0.6,0.9,-0.8c0.3,-0.2,0.7,-0.3,1,-0.3c0.4,0,0.8,0.1,1.3,0.3l0.5,-1.1c-0.6,-0.3,-1.1,-0.4,-1.7,-0.4Z" class="g14_41" />
<path d="M665.7,738.7c-0.2,0.1,-0.3,0.3,-0.3,0.5c0,0.2,0.1,0.4,0.3,0.6c0.1,0.2,0.3,0.2,0.5,0.2c0.2,0,0.4,0,0.5,-0.2c0.2,-0.2,0.3,-0.3,0.3,-0.6c0,-0.2,-0.1,-0.4,-0.3,-0.5c-0.1,-0.2,-0.3,-0.3,-0.5,-0.3c-0.2,0,-0.4,0.1,-0.5,0.3Zm1.1,2.7l-3.4,0l0,1l2.2,0l0,6.7l1.2,0l0,-7.7Z" class="g14_41" />
<path d="M674.3,746.2c0.8,0,1.4,-0.2,1.9,-0.7c0.5,-0.5,0.7,-1.1,0.7,-1.8c0,-0.5,-0.1,-1,-0.3,-1.4l1.4,0l0,-1.1l-2.2,0.3c-0.5,-0.2,-0.9,-0.3,-1.5,-0.3c-0.7,0,-1.3,0.2,-1.8,0.7c-0.5,0.5,-0.7,1.1,-0.7,1.8c0,0.5,0.1,0.9,0.3,1.3c0.2,0.4,0.5,0.7,1,1c-0.9,0.4,-1.4,0.9,-1.4,1.5c0,0.5,0.4,0.9,1.1,1.2c-0.9,0.4,-1.3,1,-1.3,1.6c0,0.5,0.3,1,0.8,1.4c0.6,0.3,1.2,0.5,2.1,0.5c1,0,1.9,-0.2,2.7,-0.8c0.8,-0.5,1.2,-1.2,1.2,-2.1c0,-0.5,-0.2,-1,-0.6,-1.3c-0.3,-0.3,-0.8,-0.4,-1.4,-0.4l-2.6,0.1c-0.2,0,-0.5,-0.1,-0.6,-0.2c-0.2,-0.1,-0.3,-0.2,-0.3,-0.4c0,-0.2,0.4,-0.5,1.1,-0.9c0.1,0,0.3,0,0.4,0Zm-1,-1.3c-0.3,-0.3,-0.4,-0.7,-0.4,-1.2c0,-0.5,0.1,-0.8,0.4,-1.1c0.3,-0.3,0.6,-0.5,1,-0.5c0.5,0,0.8,0.2,1.1,0.4c0.2,0.3,0.4,0.7,0.4,1.2c0,0.5,-0.2,0.9,-0.4,1.2c-0.3,0.3,-0.6,0.4,-1.1,0.4c-0.4,0,-0.7,-0.1,-1,-0.4Zm-0.2,6.1c-0.4,-0.2,-0.5,-0.5,-0.5,-0.8c0,-0.2,0,-0.4,0.2,-0.6c0.1,-0.1,0.3,-0.3,0.5,-0.5c0.2,-0.2,0.4,-0.3,0.5,-0.3c0.2,0,0.5,0,0.9,0c0.6,0,1,0,1.3,0c0.7,0,1.1,0.2,1.1,0.7c0,0.5,-0.3,1,-0.8,1.3c-0.5,0.3,-1.2,0.5,-1.9,0.5c-0.6,0,-1,-0.1,-1.3,-0.3Z" class="g14_41" />
<path d="M686.7,743.8c0,-1.7,-0.7,-2.6,-2.2,-2.6c-0.9,0,-1.8,0.4,-2.6,1.3l0,-3.9l-1.1,0l0,10.5l1.1,0l0,-5.6c0.8,-0.9,1.6,-1.3,2.3,-1.3c0.4,0,0.8,0.1,1,0.5c0.2,0.3,0.3,0.8,0.3,1.5l0,4.9l1.2,0l0,-5.3Z" class="g14_41" />
<path d="M695.6,747.9c-0.7,0.3,-1.3,0.4,-1.9,0.4c-0.4,0,-0.6,-0.1,-0.8,-0.4c-0.2,-0.2,-0.3,-0.6,-0.3,-1.1l0,-4.4l2.5,0l0,-1l-2.5,0l0,-2.2l-1.2,0l0,2.2l-1.4,0l0,1l1.4,0l0,4.7c0,1.5,0.7,2.2,2.1,2.2c0.7,0,1.5,-0.2,2.2,-0.5l-0.1,-0.9Z" class="g14_41" />
<text 
transform="matrix(0.98, 0, 0, 1, 545, 749)"
dx="0,0,0,0,0,0,0,0,0,0,0,0,-1.8,0,0,0,0" 
class="s3_41"
>text-align: right</text>

<text 
transform="matrix(0.98, 0, 0, 1, 697, 749)"
dx="0,0,-0.8,0,0,0,0,0,0,-0.8,0,0,0" 
class="s2_41"
>. Again, add </text>

<text 
transform="matrix(0.98, 0, 0, 1, 56, 770)"
dx="0,0,0,0,0,0,0.1,0,0,0,0,0,0.1,0,0,0.1,0,0,0,0.1,0,0,0.1,0,0.1,0,0,0,0,0.1,0,0,0.1,0,0,0,0.1,0,0,0,0.1,0,-0.3,0,0,0,0,0.1,0,0,0,0,0.1,0,0,0,0,0.1,0,0,0,0.1,0,0,0,0.1,0,0,0,0,0.1,0,0,0,0,0.1,0,0,0,0,0,0,0,-1.4,0,0.1,0,0,0,0,0,0,0.1,0,0,0,0,0.1,0,0,0.1,0,-0.3,0,0.1,0,0,0,0,0" 
class="s2_41"
>these rules in one at a time to see the effect they have and how they work together. Notice that we are using </text>

<text 
transform="matrix(0.98, 0, 0, 1, 56, 791)"
dx="0,0,0,0,0,0,0,0,0,0,0,-0.9,0,0,0,0,0,0,0,0,0,-0.9,0,0,-0.9,0,0,0,0,0,0,0,0,-0.9,0,0,0,-0.9,0,0,0,-0.9,0,0,0,0,0,0,0,0" 
class="s2_41"
>contextual selectors to identify all the elements:</text>

<text 
x="514" 
y="75" 
dx="0,0,0,0,-1.8,0,0,-1.8" 
class="s3_41"
>nav ul {</text>

<text 
x="514" 
y="96" 
dx="0,0,0,0,0,0,0,0,0,0,0,0,0,0,0,0,0,-1.8,0,0,0,0" 
class="s3_41"
>list-style-type: none;</text>

<text 
x="514" 
y="118" 
dx="0,0,0,0,0,0,0,0,0,0,0,0,0,0,0,0,0,0,-2.4,0,0,0,0,0,0,0" 
class="s3_41"
>background-color: #B577B5;</text>

<text 
x="514" 
y="139" 
dx="0,0,0,0,0,0,0,0,-1.8,0,0,0,-1.8,0,0,0,0,0,-1.8,0,0,0,0,0,0,0" 
class="s3_41"
>border: 4px solid #111111;</text>

<text 
x="514" 
y="160" 
dx="0,0,0,0,0,0,0,0,0,0,0,0,0,0,0,-1.8,0,0,0,0" 
class="s3_41"
>border-radius: 10px;</text>

<text 
x="514" 
y="182" 
dx="0,0,0,0,0,0,0,0,0,0,0,0,0,-1.8,0,0,0,0,0,0,0,0,0,0" 
class="s3_41"
>font-family: sans-serif;</text>

<text 
x="514" 
y="203" 
dx="0,0,0,0,0,0,0,0,0,0,0,0,0,-1.8,0,0,0,0" 
class="s3_41"
>font-weight: bold;</text>

<text 
x="514" 
y="225" 
dx="0,0,0,0,0,0,0,0,0,-1.8,0,0,0,0" 
class="s3_41"
>padding: 16px;</text>

<text 
x="514" 
y="246" 
dx="0" 
class="s3_41"
>}</text>

<text 
x="514" 
y="267" 
dx="0,0,0,0,-1.8,0,0,-1.8,0,0,-1.8" 
class="s3_41"
>nav ul li {</text>

<text 
x="514" 
y="289" 
dx="0,0,0,0,0,0,0,0,0,-1.8,0,0,0,0,0,0" 
class="s3_41"
>display: inline;</text>

<text 
x="514" 
y="310" 
dx="0,0,0,0,0,0,0,0,0,0,0,0,0,0,-1.8,0,0,0,-1.8,0,0,0,0,0" 
class="s3_41"
>border-right: 2px solid </text>

<text 
x="514" 
y="332" 
dx="0,0,0,0,0,0,0,0" 
class="s3_41"
>#111111;</text>

<text 
x="514" 
y="353" 
dx="0,0,0,0,0,0,0,0,0,0,0,0,0,0,0,-1.8,0,0,0" 
class="s3_41"
>padding-right: 8px;</text>

<text 
x="514" 
y="374" 
dx="0,0,0,0,0,0,0,0,0,0,0,0,0,0,-1.8,0,0,0" 
class="s3_41"
>padding-left: 8px;</text>

<text 
x="514" 
y="396" 
dx="0" 
class="s3_41"
>}</text>

<text 
x="514" 
y="417" 
dx="0,0,0,0,-1.8,0,0,-1.8,0,0,0,0,0,0,0,0,0,0,0,0,0,-1.8" 
class="s3_41"
>nav ul li:last-child {</text>

<text 
x="514" 
y="439" 
dx="0,0,0,0,0,0,0,0,0,0,0,0,0,0,-1.8,0,0,0,0" 
class="s3_41"
>border-right: none;</text>

<text 
x="514" 
y="460" 
dx="0" 
class="s3_41"
>}</text>

<text 
x="514" 
y="481" 
dx="0,0,0,0,-1.8,0,0,-1.8,0,0,-1.8,0,-1.8" 
class="s3_41"
>nav ul li a {</text>

<text 
x="514" 
y="503" 
dx="0,0,0,0,0,0,0,0,0,0,0,0,0,0,0,0,0,0,0,0,0" 
class="s3_41"
>text-decoration:none;</text>

<text 
x="514" 
y="524" 
dx="0,0,0,0,0,0,0,0,0,0,0,0,0,0" 
class="s3_41"
>color:#111111;</text>

<text 
x="514" 
y="545" 
dx="0" 
class="s3_41"
>}</text>

<text 
x="514" 
y="567" 
dx="0,0,0,0,-1.8,0,0,0,0,0,0,0,0,0,0,0,-1.8" 
class="s3_41"
>nav li.selected {</text>

<text 
x="514" 
y="588" 
dx="0,0,0,0,0,0,0,-1.8,0,0,0,0,0,0,0" 
class="s3_41"
>color: #606060;</text>

<text 
x="514" 
y="610" 
dx="0" 
class="s3_41"
>}</text>

<text 
x="514" 
y="631" 
dx="0,0,0,0,-1.8,0,0,-1.8,0,0,-1.8,0,0,0,0,0,0,0,-1.8" 
class="s3_41"
>nav ul li a:hover {</text>

<text 
x="514" 
y="652" 
dx="0,-0.5,-0.5,-0.5,-0.5,-0.5,-0.5,-0.5,-0.5,-0.5,-0.5,-0.5,-0.5,-0.5,-0.5,-0.5,-0.5,-2.3,-0.5,-0.5,-0.5,-0.5,-0.5,-0.5,-0.5,-0.5,-0.5" 
class="s3_41"
>text-decoration: underline;</text>

<text 
x="514" 
y="674" 
dx="0" 
class="s3_41"
>}</text>

<path d="M49,824l0,5l-5,0l0,25l5,0l0,5l150,0l0,-35Z" class="g15_41" />
<path d="M49,867l0,5l-5,0l0,25l5,0l0,5l150,0l0,-35Z" class="g15_41" />
<path d="M49,911l0,4l-5,0l0,25l5,0l0,5l150,0l0,-34Z" class="g15_41" />
<path d="M49,953l0,4l-5,0l0,26l5,0l0,4l152,0l0,-34Z" class="g15_41" />
<text 
x="90" 
y="845" 
dx="0,0,0,0,0,0,0,-0.9" 
class="s4_41"
>header p</text>

<text 
x="86" 
y="888" 
dx="0,0,0,0,0,0,0,-0.9,0" 
class="s5_41"
>header h1</text>

<text 
x="61" 
y="930" 
dx="0,0,0,0,0,0,0,-0.9,0,0,0,0,0,0,0,0,0,0" 
class="s6_41"
>footer p.copyright</text>

<text 
x="67" 
y="973" 
dx="0,0,0,0,0,0,0,-0.9,0,0,0,0,0,0,0,0" 
class="s7_41"
>footer p.contact</text>

<text 
transform="matrix(0.98, 0, 0, 1, 212, 845)"
dx="0,0,0,0,0,0,-0.9,0,0,0,0" 
class="s2_41"
>means ‘any </text>

<path d="M294.4,837.6l-1.1,0l0,10.9l1.1,0l0,-4.2c0.2,0.4,0.6,0.7,1,0.9c0.4,0.3,0.8,0.4,1.3,0.4c0.9,0,1.6,-0.4,2.1,-1.2c0.6,-0.8,0.8,-1.8,0.8,-3c0,-1.2,-0.2,-2.1,-0.7,-2.9c-0.5,-0.7,-1.2,-1.1,-2.1,-1.1c-0.5,0,-0.9,0.1,-1.4,0.4c-0.4,0.2,-0.7,0.5,-1,0.8l0,-1Zm2,0.8c0.7,0,1.2,0.3,1.5,0.9c0.3,0.6,0.5,1.3,0.5,2.2c0,0.9,-0.2,1.6,-0.5,2.2c-0.4,0.6,-0.9,0.8,-1.5,0.8c-0.4,0,-0.8,-0.1,-1.1,-0.4c-0.4,-0.3,-0.7,-0.7,-0.9,-1.1l0,-3.2c0.6,-0.9,1.2,-1.4,2,-1.4Z" class="g14_41" />
<text 
transform="matrix(0.98, 0, 0, 1, 291, 845)"
dx="0" 
class="s3_41"
>p</text>

<text 
transform="matrix(0.98, 0, 0, 1, 304, 845)"
dx="0,0,0,0,0,0,0,0,-0.9,0,0,0,0,0,0,-0.9,0,0,0" 
class="s2_41"
>element inside the </text>

<path d="M435.8,840.1c0,-1.8,-0.8,-2.7,-2.2,-2.7c-0.9,0,-1.8,0.5,-2.6,1.4l0,-3.9l-1.1,0l0,10.5l1.1,0l0,-5.6c0.8,-0.9,1.6,-1.4,2.3,-1.4c0.4,0,0.8,0.2,1,0.5c0.2,0.3,0.3,0.8,0.3,1.5l0,5l1.2,0l0,-5.3Z" class="g14_41" />
<path d="M445,841.2c0,-1.2,-0.3,-2.1,-0.9,-2.7c-0.6,-0.7,-1.3,-1.1,-2.2,-1.1c-1,0,-1.8,0.4,-2.4,1.1c-0.6,0.8,-0.9,1.7,-0.9,3c0,1.2,0.3,2.2,1,3c0.7,0.7,1.6,1.1,2.7,1.1c0.9,0,1.7,-0.2,2.4,-0.5l-0.2,-0.9c-0.7,0.3,-1.5,0.4,-2.1,0.4c-0.8,0,-1.4,-0.3,-1.9,-0.9c-0.5,-0.6,-0.7,-1.3,-0.7,-2.2l5.2,0l0,-0.3Zm-5.2,-0.6c0.1,-0.6,0.3,-1.2,0.7,-1.6c0.4,-0.4,0.9,-0.6,1.5,-0.6c0.4,0,0.8,0.2,1.2,0.7c0.4,0.4,0.6,0.9,0.6,1.5l-4,0Z" class="g14_41" />
<path d="M453.8,843.6l0,-3.4c0,-1.8,-0.9,-2.8,-2.6,-2.8c-0.9,0,-1.9,0.3,-2.9,0.8l0.3,0.9c0.3,-0.2,0.7,-0.3,1.1,-0.5c0.5,-0.1,0.8,-0.2,1.1,-0.2c1.2,0,1.8,0.7,1.8,2l0,0.4l-1.2,0.1c-0.6,0.1,-1.1,0.1,-1.5,0.3c-0.5,0.1,-0.8,0.2,-1.1,0.4c-0.3,0.2,-0.5,0.5,-0.7,0.8c-0.1,0.3,-0.2,0.6,-0.2,1c0,0.6,0.2,1.2,0.6,1.6c0.5,0.4,1,0.6,1.5,0.6c1.2,0,2,-0.5,2.7,-1.5c0,0.6,0,1,0.1,1.3l1.2,0c-0.2,-0.5,-0.2,-1.1,-0.2,-1.8Zm-2.2,0.5c-0.4,0.2,-0.8,0.4,-1.2,0.4c-0.4,0,-0.7,-0.1,-0.9,-0.3c-0.3,-0.3,-0.4,-0.5,-0.4,-0.9c0,-0.4,0.1,-0.7,0.4,-0.9c0.3,-0.2,0.6,-0.4,1,-0.5c0.4,0,1.1,-0.1,2.1,-0.2l0,1.4c-0.3,0.4,-0.6,0.8,-1,1Z" class="g14_41" />
<path d="M462.8,834.9l-1.2,0l0,3.7c-0.6,-0.8,-1.3,-1.2,-2.3,-1.2c-0.9,0,-1.6,0.4,-2.1,1.2c-0.5,0.7,-0.8,1.6,-0.8,2.8c0,1.2,0.2,2.2,0.8,3c0.5,0.8,1.1,1.2,2,1.2c0.5,0,1,-0.1,1.4,-0.4c0.4,-0.2,0.8,-0.5,1,-0.9l0,1.1l1.2,0l0,-10.5Zm-1.6,8.7c-0.2,0.3,-0.5,0.5,-0.8,0.7c-0.3,0.2,-0.6,0.2,-0.9,0.2c-0.6,0,-1,-0.2,-1.4,-0.8c-0.3,-0.6,-0.5,-1.4,-0.5,-2.2c0,-0.9,0.2,-1.6,0.5,-2.2c0.4,-0.6,0.9,-0.9,1.5,-0.9c0.8,0,1.5,0.5,2,1.4l0,3.2c0,0.1,-0.1,0.3,-0.4,0.6Z" class="g14_41" />
<path d="M472,841.2c0,-1.2,-0.3,-2.1,-0.9,-2.7c-0.6,-0.7,-1.3,-1.1,-2.2,-1.1c-1,0,-1.8,0.4,-2.4,1.1c-0.6,0.8,-0.9,1.7,-0.9,3c0,1.2,0.3,2.2,1,3c0.7,0.7,1.6,1.1,2.8,1.1c0.9,0,1.6,-0.2,2.3,-0.5l-0.2,-0.9c-0.7,0.3,-1.4,0.4,-2.1,0.4c-0.8,0,-1.4,-0.3,-1.9,-0.9c-0.5,-0.6,-0.7,-1.3,-0.7,-2.2l5.2,0l0,-0.3Zm-5.1,-0.6c0,-0.6,0.2,-1.2,0.6,-1.6c0.4,-0.4,0.9,-0.6,1.5,-0.6c0.4,0,0.8,0.2,1.2,0.7c0.4,0.4,0.6,0.9,0.6,1.5l-3.9,0Z" class="g14_41" />
<path d="M479.2,837.4c-0.9,0,-1.7,0.6,-2.3,1.8l0,-1.6l-1.2,0l0,7.8l1.2,0l0,-5c0,-0.1,0.1,-0.3,0.4,-0.7c0.2,-0.3,0.5,-0.6,0.9,-0.8c0.3,-0.2,0.6,-0.3,0.9,-0.3c0.4,0,0.9,0.1,1.4,0.3l0.4,-1.1c-0.5,-0.2,-1.1,-0.4,-1.7,-0.4Z" class="g14_41" />
<text 
transform="matrix(0.98, 0, 0, 1, 428, 845)"
dx="0,0,0,0,0,0" 
class="s3_41"
>header</text>

<text 
transform="matrix(0.98, 0, 0, 1, 485, 845)"
dx="0,0,0,0,0,0,0,0" 
class="s2_41"
>element’</text>

<text 
x="212" 
y="888" 
dx="0,0,0,0,0,0,-0.9,0,0,0,0" 
class="s2_41"
>means ‘any </text>

<path d="M300.8,882.8c0,-1.7,-0.7,-2.6,-2.1,-2.6c-1,0,-1.8,0.5,-2.7,1.3l0,-3.9l-1.1,0l0,10.6l1.1,0l0,-5.7c0.8,-0.8,1.6,-1.3,2.3,-1.3c0.5,0,0.8,0.2,1.1,0.5c0.2,0.3,0.3,0.8,0.3,1.5l0,5l1.1,0l0,-5.4Z" class="g16_41" />
<path d="M310,887.1l-2.1,0l0,-9.5l-1,0l-2.3,1.2l0,1.2l2.1,-1.1l0,8.2l-2.2,0l0,1.1l5.5,0l0,-1.1Z" class="g16_41" />
<text 
x="293" 
y="888" 
dx="0,0" 
class="s3_41"
>h1</text>

<text 
x="314" 
y="888" 
dx="0,0,0,0,0,0,0,0,-0.9,0,0,0,0,0,0,-0.9,0,0,0" 
class="s2_41"
>element inside the </text>

<path d="M449.1,882.8c0,-1.7,-0.7,-2.6,-2.2,-2.6c-0.9,0,-1.8,0.5,-2.6,1.3l0,-3.9l-1.2,0l0,10.6l1.2,0l0,-5.7c0.8,-0.8,1.6,-1.3,2.3,-1.3c0.4,0,0.8,0.2,1,0.5c0.2,0.3,0.3,0.8,0.3,1.5l0,5l1.2,0l0,-5.4Z" class="g16_41" />
<path d="M458.5,884c0,-1.2,-0.3,-2.1,-0.9,-2.8c-0.6,-0.7,-1.4,-1,-2.3,-1c-1,0,-1.8,0.4,-2.4,1.1c-0.6,0.7,-1,1.7,-1,3c0,1.2,0.4,2.2,1.1,3c0.7,0.7,1.6,1.1,2.8,1.1c0.9,0,1.7,-0.2,2.4,-0.5L458,887c-0.8,0.2,-1.5,0.4,-2.2,0.4c-0.7,0,-1.4,-0.3,-1.9,-0.9c-0.5,-0.6,-0.7,-1.3,-0.7,-2.2l5.3,0l0,-0.3Zm-5.3,-0.6c0.1,-0.7,0.3,-1.2,0.7,-1.6c0.4,-0.4,0.9,-0.6,1.5,-0.6c0.5,0,0.9,0.2,1.3,0.6c0.3,0.5,0.5,1,0.5,1.6l-4,0Z" class="g16_41" />
<path d="M467.4,886.4l0,-3.4c0,-1.9,-0.8,-2.8,-2.6,-2.8c-0.9,0,-1.9,0.3,-3,0.8l0.3,0.9c0.4,-0.2,0.7,-0.4,1.2,-0.5c0.4,-0.1,0.8,-0.2,1.1,-0.2c1.2,0,1.9,0.7,1.9,2l0,0.4l-1.3,0.1c-0.6,0,-1.1,0.1,-1.6,0.2c-0.4,0.2,-0.7,0.3,-1,0.5c-0.3,0.2,-0.6,0.5,-0.7,0.8c-0.2,0.2,-0.3,0.6,-0.3,1c0,0.6,0.3,1.1,0.7,1.6c0.4,0.4,1,0.6,1.5,0.6c1.2,0,2.1,-0.5,2.7,-1.5c0,0.5,0.1,1,0.2,1.3l1.1,0c-0.1,-0.6,-0.2,-1.2,-0.2,-1.8Zm-2.2,0.5c-0.4,0.2,-0.8,0.4,-1.2,0.4c-0.4,0,-0.7,-0.2,-1,-0.4c-0.2,-0.2,-0.3,-0.5,-0.3,-0.8c0,-0.4,0.1,-0.7,0.4,-0.9c0.3,-0.2,0.6,-0.4,1,-0.5c0.4,-0.1,1.1,-0.2,2.2,-0.2l0,1.4c-0.3,0.4,-0.7,0.7,-1.1,1Z" class="g16_41" />
<path d="M476.6,877.6l-1.2,0l0,3.8c-0.6,-0.8,-1.4,-1.2,-2.4,-1.2c-0.8,0,-1.6,0.4,-2.1,1.1c-0.5,0.8,-0.8,1.7,-0.8,2.9c0,1.2,0.2,2.2,0.8,3c0.5,0.8,1.2,1.2,2.1,1.2c0.5,0,0.9,-0.2,1.4,-0.4c0.4,-0.3,0.8,-0.6,1,-1l0,1.2l1.2,0l0,-10.6Zm-1.6,8.8c-0.2,0.3,-0.5,0.5,-0.8,0.7c-0.3,0.1,-0.6,0.2,-0.9,0.2c-0.6,0,-1.1,-0.3,-1.5,-0.9c-0.3,-0.5,-0.5,-1.3,-0.5,-2.2c0,-0.8,0.2,-1.6,0.6,-2.1c0.3,-0.6,0.9,-0.9,1.5,-0.9c0.8,0,1.5,0.5,2,1.4l0,3.2c0,0.1,-0.1,0.3,-0.4,0.6Z" class="g16_41" />
<path d="M486,884c0,-1.2,-0.3,-2.1,-0.9,-2.8c-0.6,-0.7,-1.4,-1,-2.2,-1c-1,0,-1.9,0.4,-2.5,1.1c-0.6,0.7,-1,1.7,-1,3c0,1.2,0.4,2.2,1.1,3c0.7,0.7,1.6,1.1,2.8,1.1c0.9,0,1.7,-0.2,2.4,-0.5L485.5,887c-0.8,0.2,-1.5,0.4,-2.2,0.4c-0.7,0,-1.4,-0.3,-1.9,-0.9c-0.5,-0.6,-0.7,-1.3,-0.7,-2.2l5.3,0l0,-0.3Zm-5.3,-0.6c0.1,-0.7,0.3,-1.2,0.7,-1.6c0.4,-0.4,0.9,-0.6,1.5,-0.6c0.5,0,0.9,0.2,1.3,0.6c0.3,0.5,0.5,1,0.5,1.6l-4,0Z" class="g16_41" />
<path d="M493.4,880.2c-1,0,-1.8,0.6,-2.5,1.8l0,-1.6l-1.1,0l0,7.8l1.1,0l0,-5.1c0,0,0.2,-0.2,0.4,-0.6c0.3,-0.3,0.6,-0.6,1,-0.8c0.3,-0.2,0.6,-0.3,1,-0.3c0.3,0,0.8,0.1,1.3,0.3l0.5,-1.1c-0.6,-0.3,-1.2,-0.4,-1.7,-0.4Z" class="g16_41" />
<text 
x="441" 
y="888" 
dx="0,0,0,0,0,0" 
class="s3_41"
>header</text>

<text 
x="499" 
y="888" 
dx="0,0,0,0,0,0,0,0" 
class="s2_41"
>element’</text>

<text 
x="212" 
y="930" 
dx="0,0,0,0,0,0,-0.9,0,0,0,0" 
class="s2_41"
>means ‘any </text>

<path d="M296,923.2l-1.1,0l0,10.8l1.1,0l0,-4.2c0.3,0.4,0.6,0.7,1,1c0.4,0.2,0.9,0.3,1.4,0.3c0.9,0,1.6,-0.3,2.1,-1.1c0.6,-0.8,0.8,-1.8,0.8,-3c0,-1.2,-0.2,-2.2,-0.7,-2.9c-0.5,-0.7,-1.2,-1.1,-2.1,-1.1c-0.5,0,-1,0.1,-1.4,0.3c-0.5,0.2,-0.8,0.5,-1.1,0.9l0,-1Zm2.1,0.8c0.6,0,1.1,0.3,1.5,0.8c0.3,0.6,0.5,1.3,0.5,2.2c0,0.9,-0.2,1.6,-0.5,2.2c-0.4,0.6,-0.9,0.9,-1.5,0.9c-0.4,0,-0.8,-0.1,-1.2,-0.4c-0.4,-0.3,-0.7,-0.7,-0.9,-1.1l0,-3.3c0.6,-0.9,1.3,-1.3,2.1,-1.3Z" class="g16_41" />
<text 
x="293" 
y="930" 
dx="0" 
class="s3_41"
>p</text>

<text 
x="305" 
y="930" 
dx="0,0,0,0,0,0,0,0,-0.9,0,0,0,0,-0.9,0,-0.9,0,0,0,0,0,-0.9,0,0" 
class="s2_41"
>element with a class of </text>

<path d="M468.6,929.8c-0.7,0.2,-1.4,0.3,-2.1,0.3c-0.8,0,-1.5,-0.3,-2,-0.9c-0.5,-0.5,-0.8,-1.3,-0.8,-2.1c0,-1,0.3,-1.7,0.8,-2.3c0.5,-0.5,1.2,-0.8,2,-0.8c0.6,0,1.2,0.1,1.9,0.4l0.3,-1C468,923.1,467.3,923,466.5,923c-1.2,0,-2.1,0.4,-2.9,1.1c-0.7,0.7,-1.1,1.7,-1.1,3c0,1.2,0.4,2.2,1.1,2.9c0.7,0.8,1.7,1.1,2.9,1.1c0.9,0,1.6,-0.1,2.3,-0.4l-0.2,-0.9Z" class="g16_41" />
<path d="M472.4,924.1c-0.6,0.7,-0.9,1.7,-0.9,3c0,1.2,0.3,2.2,0.9,2.9c0.6,0.8,1.5,1.1,2.6,1.1c1,0,1.9,-0.3,2.5,-1.1c0.6,-0.7,1,-1.7,1,-2.9c0,-1.3,-0.4,-2.2,-1,-3C476.9,923.4,476,923,475,923c-1.1,0,-2,0.4,-2.6,1.1Zm0.9,5.1c-0.4,-0.5,-0.6,-1.3,-0.6,-2.1c0,-0.9,0.2,-1.7,0.6,-2.3c0.4,-0.5,0.9,-0.8,1.7,-0.8c0.7,0,1.2,0.3,1.6,0.9c0.4,0.5,0.6,1.3,0.6,2.2c0,0.8,-0.2,1.5,-0.6,2.1c-0.4,0.6,-0.9,0.9,-1.6,0.9c-0.8,0,-1.3,-0.3,-1.7,-0.9Z" class="g16_41" />
<path d="M482.3,923.2l-1.2,0l0,10.8l1.2,0l0,-4.2c0.3,0.4,0.6,0.7,1,1c0.4,0.2,0.9,0.3,1.4,0.3c0.9,0,1.6,-0.3,2.1,-1.1c0.6,-0.8,0.8,-1.8,0.8,-3c0,-1.2,-0.2,-2.2,-0.7,-2.9c-0.6,-0.7,-1.3,-1.1,-2.1,-1.1c-0.5,0,-1,0.1,-1.4,0.3c-0.5,0.2,-0.8,0.5,-1.1,0.9l0,-1Zm2.1,0.8c0.6,0,1.1,0.3,1.5,0.8c0.3,0.6,0.5,1.3,0.5,2.2c0,0.9,-0.2,1.6,-0.5,2.2c-0.4,0.6,-0.9,0.9,-1.5,0.9c-0.4,0,-0.8,-0.1,-1.2,-0.4c-0.4,-0.3,-0.7,-0.7,-0.9,-1.1l0,-3.3c0.6,-0.9,1.3,-1.3,2.1,-1.3Z" class="g16_41" />
<path d="M495.4,923.2l-2.2,6.2L491,923.2l-1.3,0l2.9,7.7c-0.2,0.8,-0.5,1.3,-0.8,1.6c-0.2,0.3,-0.6,0.5,-1,0.5c-0.3,0,-0.6,-0.1,-1,-0.2l-0.2,1c0.5,0.1,0.9,0.2,1.4,0.2c0.5,0,1,-0.2,1.4,-0.7c0.5,-0.4,0.9,-1.2,1.3,-2.4l3,-7.7l-1.3,0Z" class="g16_41" />
<path d="M503.9,923c-1,0,-1.8,0.6,-2.4,1.7l0,-1.5l-1.2,0l0,7.7l1.2,0l0,-5c0,0,0.1,-0.2,0.4,-0.6c0.3,-0.4,0.6,-0.6,0.9,-0.8c0.3,-0.2,0.7,-0.3,1,-0.3c0.4,0,0.8,0.1,1.3,0.3l0.5,-1.1C505,923.1,504.5,923,503.9,923Z" class="g16_41" />
<path d="M511.6,920.5c-0.2,0.1,-0.2,0.3,-0.2,0.5c0,0.2,0,0.4,0.2,0.6c0.2,0.2,0.3,0.2,0.5,0.2c0.3,0,0.4,0,0.6,-0.2c0.2,-0.1,0.2,-0.3,0.2,-0.6c0,-0.2,0,-0.4,-0.2,-0.5c-0.2,-0.2,-0.3,-0.3,-0.6,-0.3c-0.2,0,-0.3,0.1,-0.5,0.3Zm1.1,2.7l-3.5,0l0,1l2.3,0l0,6.7l1.2,0l0,-7.7Z" class="g16_41" />
<path d="M520.4,928c0.8,0,1.4,-0.2,1.9,-0.7c0.5,-0.5,0.7,-1.1,0.7,-1.8c0,-0.5,-0.1,-1,-0.3,-1.4l1.5,0l0,-1.1l-2.3,0.3C521.5,923.1,521,923,520.4,923c-0.7,0,-1.3,0.2,-1.8,0.7c-0.5,0.5,-0.8,1.1,-0.8,1.8c0,0.5,0.1,0.9,0.4,1.3c0.2,0.4,0.5,0.7,0.9,1c-0.9,0.4,-1.3,0.9,-1.3,1.5c0,0.5,0.3,0.9,1,1.2c-0.8,0.4,-1.3,1,-1.3,1.6c0,0.6,0.3,1,0.9,1.4c0.5,0.3,1.2,0.5,2.1,0.5c1,0,1.9,-0.2,2.7,-0.8c0.8,-0.5,1.2,-1.2,1.2,-2.1c0,-0.5,-0.2,-1,-0.5,-1.3c-0.4,-0.3,-0.8,-0.4,-1.5,-0.4l-2.6,0.1c-0.3,0,-0.5,-0.1,-0.7,-0.2c-0.1,-0.1,-0.2,-0.2,-0.2,-0.4c0,-0.2,0.4,-0.5,1.1,-0.9c0.1,0,0.3,0,0.4,0Zm-1,-1.3C519.1,926.4,519,926,519,925.5c0,-0.5,0.1,-0.8,0.4,-1.1c0.3,-0.3,0.6,-0.5,1,-0.5c0.5,0,0.8,0.2,1.1,0.4c0.3,0.3,0.4,0.7,0.4,1.2c0,0.5,-0.1,0.9,-0.4,1.2c-0.3,0.3,-0.6,0.4,-1.1,0.4c-0.4,0,-0.7,-0.1,-1,-0.4Zm-0.3,6.1c-0.3,-0.2,-0.5,-0.5,-0.5,-0.8c0,-0.2,0.1,-0.4,0.2,-0.6c0.1,-0.1,0.3,-0.3,0.5,-0.5c0.3,-0.2,0.4,-0.3,0.6,-0.3c0.2,0,0.5,0,0.9,0c0.6,0,1,0,1.3,0c0.8,0,1.1,0.2,1.1,0.7c0,0.5,-0.2,1,-0.8,1.3c-0.5,0.3,-1.2,0.5,-1.9,0.5c-0.6,0,-1,-0.1,-1.4,-0.3Z" class="g16_41" />
<path d="M533,925.6c0,-1.7,-0.7,-2.6,-2.2,-2.6c-0.9,0,-1.8,0.4,-2.6,1.3l0,-3.9l-1.2,0l0,10.5l1.2,0l0,-5.6c0.8,-0.9,1.5,-1.3,2.2,-1.3c0.5,0,0.9,0.1,1.1,0.5c0.2,0.3,0.3,0.8,0.3,1.5l0,4.9l1.2,0l0,-5.3Z" class="g16_41" />
<path d="M542,929.7c-0.6,0.3,-1.2,0.4,-1.9,0.4c-0.3,0,-0.6,-0.1,-0.8,-0.4c-0.2,-0.2,-0.3,-0.6,-0.3,-1.1l0,-4.4l2.6,0l0,-1l-2.6,0l0,-2.2l-1.2,0l0,2.2l-1.5,0l0,1l1.5,0l0,4.7c0,1.5,0.7,2.2,2.1,2.2c0.8,0,1.5,-0.1,2.3,-0.5L542,929.7Z" class="g16_41" />
<text 
x="461" 
y="930" 
dx="0,0,0,0,0,0,0,0,0" 
class="s3_41"
>copyright</text>

<text 
x="547" 
y="930" 
dx="0,0,0,0,0,0,0,-0.9,0,0,0" 
class="s2_41"
>inside the </text>

<path d="M621.8,920.2c-0.9,0,-1.4,0.2,-1.8,0.6c-0.3,0.4,-0.5,1.1,-0.5,2.1l0,0.3l-1.9,0l0,1l1.9,0l0,6.7l1.2,0l0,-6.7l2.6,0l0,-1l-2.6,0l0,-0.2c0,-0.7,0.1,-1.2,0.2,-1.4c0.2,-0.2,0.5,-0.4,0.9,-0.4c0.4,0,0.9,0.1,1.5,0.3l0.3,-1c-0.7,-0.2,-1.3,-0.3,-1.8,-0.3Z" class="g16_41" />
<path d="M627.1,924.1c-0.6,0.7,-1,1.7,-1,3c0,1.2,0.4,2.2,1,2.9c0.6,0.8,1.5,1.1,2.5,1.1c1.1,0,2,-0.3,2.6,-1.1c0.6,-0.7,0.9,-1.7,0.9,-2.9c0,-1.3,-0.3,-2.2,-0.9,-3c-0.6,-0.7,-1.5,-1.1,-2.6,-1.1c-1,0,-1.9,0.4,-2.5,1.1Zm0.9,5.1c-0.4,-0.5,-0.6,-1.3,-0.6,-2.1c0,-0.9,0.2,-1.7,0.6,-2.3c0.4,-0.5,0.9,-0.8,1.6,-0.8c0.8,0,1.3,0.3,1.7,0.9c0.4,0.5,0.6,1.3,0.6,2.2c0,0.8,-0.2,1.5,-0.6,2.1c-0.4,0.6,-0.9,0.9,-1.7,0.9c-0.7,0,-1.2,-0.3,-1.6,-0.9Z" class="g16_41" />
<path d="M636.3,924.1c-0.7,0.7,-1,1.7,-1,3c0,1.2,0.3,2.2,1,2.9c0.6,0.8,1.4,1.1,2.5,1.1c1.1,0,1.9,-0.3,2.6,-1.1c0.6,-0.7,0.9,-1.7,0.9,-2.9c0,-1.3,-0.3,-2.2,-0.9,-3c-0.7,-0.7,-1.5,-1.1,-2.6,-1.1c-1.1,0,-1.9,0.4,-2.5,1.1Zm0.8,5.1c-0.4,-0.5,-0.6,-1.3,-0.6,-2.1c0,-0.9,0.2,-1.7,0.6,-2.3c0.4,-0.5,1,-0.8,1.7,-0.8c0.7,0,1.3,0.3,1.7,0.9c0.4,0.5,0.6,1.3,0.6,2.2c0,0.8,-0.2,1.5,-0.6,2.1c-0.4,0.6,-1,0.9,-1.7,0.9c-0.7,0,-1.3,-0.3,-1.7,-0.9Z" class="g16_41" />
<path d="M650.9,929.7c-0.7,0.3,-1.3,0.4,-1.9,0.4c-0.4,0,-0.7,-0.1,-0.9,-0.4c-0.2,-0.2,-0.3,-0.6,-0.3,-1.1l0,-4.4l2.7,0l0,-1l-2.7,0l0,-2.2l-1.1,0l0,2.2l-1.5,0l0,1l1.5,0l0,4.7c0,1.5,0.7,2.2,2.1,2.2c0.7,0,1.5,-0.1,2.3,-0.5l-0.2,-0.9Z" class="g16_41" />
<path d="M660.4,926.7c0,-1.1,-0.3,-2,-0.9,-2.7c-0.6,-0.7,-1.4,-1,-2.3,-1c-1,0,-1.8,0.4,-2.4,1.1c-0.6,0.7,-1,1.7,-1,2.9c0,1.3,0.4,2.3,1.1,3c0.7,0.8,1.6,1.1,2.8,1.1c0.9,0,1.7,-0.1,2.4,-0.4l-0.2,-0.9c-0.8,0.2,-1.5,0.3,-2.2,0.3c-0.7,0,-1.4,-0.3,-1.9,-0.8c-0.5,-0.6,-0.7,-1.3,-0.7,-2.2l5.3,0l0,-0.4Zm-5.3,-0.6c0.1,-0.6,0.3,-1.1,0.7,-1.5c0.4,-0.4,0.9,-0.6,1.5,-0.6c0.5,0,0.9,0.2,1.3,0.6c0.3,0.4,0.5,0.9,0.5,1.5l-4,0Z" class="g16_41" />
<path d="M667.7,923c-0.9,0,-1.8,0.6,-2.4,1.7l0,-1.5l-1.1,0l0,7.7l1.1,0l0,-5c0,0,0.2,-0.2,0.4,-0.6c0.3,-0.4,0.6,-0.6,0.9,-0.8c0.4,-0.2,0.7,-0.3,1.1,-0.3c0.3,0,0.8,0.1,1.3,0.3l0.5,-1.1c-0.6,-0.3,-1.2,-0.4,-1.8,-0.4Z" class="g16_41" />
<text 
x="615" 
y="930" 
dx="0,0,0,0,0,0" 
class="s3_41"
>footer</text>

<text 
x="674" 
y="930" 
dx="0,0,0,0,0,0,0,0" 
class="s2_41"
>element’</text>

<text 
x="214" 
y="973" 
dx="0,0,0,0,0,0,-0.9,0,0,0,0" 
class="s2_41"
>means ‘any </text>

<path d="M297.8,966l-1.2,0l0,10.8l1.2,0l0,-4.2c0.2,0.4,0.5,0.7,1,1c0.4,0.2,0.8,0.3,1.3,0.3c0.9,0,1.6,-0.4,2.2,-1.2c0.5,-0.8,0.8,-1.8,0.8,-2.9c0,-1.2,-0.3,-2.2,-0.8,-2.9c-0.5,-0.8,-1.2,-1.1,-2.1,-1.1c-0.5,0,-1,0.1,-1.4,0.3c-0.4,0.2,-0.8,0.5,-1,0.9l0,-1Zm2,0.8c0.7,0,1.2,0.3,1.5,0.8c0.4,0.6,0.6,1.3,0.6,2.2c0,0.9,-0.2,1.6,-0.6,2.2c-0.4,0.6,-0.9,0.9,-1.5,0.9c-0.4,0,-0.8,-0.2,-1.2,-0.5c-0.3,-0.3,-0.6,-0.6,-0.8,-1.1l0,-3.2c0.5,-0.9,1.2,-1.3,2,-1.3Z" class="g16_41" />
<text 
x="294" 
y="973" 
dx="0" 
class="s3_41"
>p</text>

<text 
x="307" 
y="973" 
dx="0,0,0,0,0,0,0,0,-0.9,0,0,0,0,-0.9,0,-0.9,0,0,0,0,0,-0.9,0,0" 
class="s2_41"
>element with a class of </text>

<path d="M470.3,972.5c-0.7,0.3,-1.4,0.4,-2,0.4c-0.9,0,-1.5,-0.3,-2,-0.9c-0.6,-0.6,-0.8,-1.3,-0.8,-2.2c0,-0.9,0.2,-1.6,0.7,-2.2c0.5,-0.6,1.2,-0.8,2.1,-0.8c0.5,0,1.2,0.1,1.9,0.3l0.3,-0.9c-0.7,-0.3,-1.5,-0.4,-2.3,-0.4c-1.1,0,-2.1,0.3,-2.8,1.1c-0.8,0.7,-1.1,1.7,-1.1,2.9c0,1.3,0.3,2.3,1,3c0.8,0.8,1.8,1.1,3,1.1c0.8,0,1.5,-0.1,2.2,-0.4l-0.2,-1Z" class="g16_41" />
<path d="M474.1,966.9c-0.6,0.7,-0.9,1.7,-0.9,2.9c0,1.3,0.3,2.3,0.9,3c0.7,0.8,1.5,1.1,2.6,1.1c1.1,0,1.9,-0.4,2.5,-1.1c0.7,-0.8,1,-1.7,1,-3c0,-1.2,-0.3,-2.2,-1,-2.9c-0.6,-0.8,-1.4,-1.1,-2.5,-1.1c-1.1,0,-1.9,0.3,-2.6,1.1ZM475,972c-0.4,-0.6,-0.6,-1.3,-0.6,-2.2c0,-0.9,0.2,-1.6,0.6,-2.2c0.4,-0.5,1,-0.8,1.7,-0.8c0.7,0,1.3,0.3,1.7,0.8c0.4,0.6,0.6,1.3,0.6,2.2c0,0.9,-0.2,1.6,-0.6,2.2c-0.4,0.6,-1,0.9,-1.7,0.9c-0.7,0,-1.3,-0.3,-1.7,-0.9Z" class="g16_41" />
<path d="M488.9,968.4c0,-1.8,-0.8,-2.6,-2.2,-2.6c-0.9,0,-1.8,0.4,-2.7,1.3l0,-1.1l-1.1,0l0,7.7l1.1,0l0,-5.6c0.9,-0.9,1.6,-1.3,2.3,-1.3c0.5,0,0.9,0.1,1.1,0.4c0.2,0.3,0.3,0.8,0.3,1.5l0,5l1.2,0l0,-5.3Z" class="g16_41" />
<path d="M497.9,972.5c-0.6,0.3,-1.2,0.4,-1.9,0.4c-0.3,0,-0.6,-0.1,-0.8,-0.4c-0.2,-0.3,-0.3,-0.6,-0.3,-1.1l0,-4.4l2.6,0l0,-1.1l-2.6,0l0,-2.1l-1.2,0l0,2.1l-1.5,0l0,1.1l1.5,0l0,4.7c0,1.5,0.7,2.2,2.1,2.2c0.8,0,1.5,-0.2,2.3,-0.5l-0.2,-0.9Z" class="g16_41" />
<path d="M507.2,971.9l0,-3.3c0,-1.9,-0.9,-2.8,-2.6,-2.8c-1,0,-1.9,0.2,-3,0.8l0.3,0.8c0.3,-0.2,0.7,-0.3,1.2,-0.4c0.4,-0.2,0.8,-0.2,1.1,-0.2c1.2,0,1.8,0.6,1.8,2l0,0.3l-1.3,0.1c-0.5,0.1,-1.1,0.2,-1.5,0.3c-0.4,0.1,-0.8,0.3,-1.1,0.5c-0.3,0.2,-0.5,0.4,-0.6,0.7c-0.2,0.3,-0.3,0.6,-0.3,1c0,0.7,0.2,1.2,0.7,1.6c0.4,0.4,0.9,0.6,1.5,0.6c1.1,0,2,-0.5,2.7,-1.4c0,0.5,0.1,0.9,0.1,1.2l1.2,0c-0.1,-0.5,-0.2,-1.1,-0.2,-1.8Zm-2.2,0.5c-0.4,0.3,-0.8,0.4,-1.3,0.4c-0.3,0,-0.6,-0.1,-0.9,-0.3c-0.2,-0.2,-0.4,-0.5,-0.4,-0.9c0,-0.3,0.2,-0.6,0.5,-0.9c0.3,-0.2,0.6,-0.3,1,-0.4c0.4,-0.1,1.1,-0.2,2.1,-0.3l0,1.4c-0.3,0.5,-0.6,0.8,-1,1Z" class="g16_41" />
<path d="M516.1,972.5c-0.6,0.3,-1.3,0.4,-2,0.4c-0.8,0,-1.5,-0.3,-2,-0.9c-0.5,-0.6,-0.8,-1.3,-0.8,-2.2c0,-0.9,0.3,-1.6,0.8,-2.2c0.5,-0.6,1.1,-0.8,2,-0.8c0.6,0,1.2,0.1,1.9,0.3l0.3,-0.9c-0.7,-0.3,-1.4,-0.4,-2.2,-0.4c-1.2,0,-2.2,0.3,-2.9,1.1c-0.7,0.7,-1.1,1.7,-1.1,2.9c0,1.3,0.4,2.3,1.1,3c0.7,0.8,1.7,1.1,2.9,1.1c0.8,0,1.6,-0.1,2.2,-0.4l-0.2,-1Z" class="g16_41" />
<path d="M525.4,972.5c-0.6,0.3,-1.2,0.4,-1.9,0.4c-0.3,0,-0.6,-0.1,-0.8,-0.4c-0.2,-0.3,-0.3,-0.6,-0.3,-1.1l0,-4.4l2.6,0l0,-1.1l-2.6,0l0,-2.1l-1.2,0l0,2.1l-1.5,0l0,1.1l1.5,0l0,4.7c0,1.5,0.7,2.2,2.1,2.2c0.8,0,1.5,-0.2,2.3,-0.5l-0.2,-0.9Z" class="g16_41" />
<text 
x="462" 
y="973" 
dx="0,0,0,0,0,0,0" 
class="s3_41"
>contact</text>

<text 
x="530" 
y="973" 
dx="0,0,0,0,0,0,0,-0.9,0,0,0" 
class="s2_41"
>inside the </text>

<path d="M605.2,963c-0.9,0,-1.4,0.2,-1.8,0.6c-0.3,0.4,-0.5,1.1,-0.5,2.1l0,0.3l-1.9,0l0,1l1.9,0l0,6.7l1.2,0l0,-6.7l2.6,0l0,-1l-2.6,0l0,-0.2c0,-0.7,0.1,-1.2,0.2,-1.4c0.2,-0.3,0.5,-0.4,0.9,-0.4c0.4,0,0.9,0.1,1.5,0.3l0.3,-1c-0.7,-0.2,-1.3,-0.3,-1.8,-0.3Z" class="g16_41" />
<path d="M610.5,966.9c-0.6,0.7,-1,1.7,-1,2.9c0,1.3,0.4,2.3,1,3c0.6,0.8,1.5,1.1,2.5,1.1c1.1,0,2,-0.4,2.6,-1.1c0.6,-0.8,0.9,-1.7,0.9,-3c0,-1.2,-0.3,-2.2,-0.9,-2.9c-0.6,-0.8,-1.5,-1.1,-2.6,-1.1c-1,0,-1.9,0.3,-2.5,1.1Zm0.9,5.1c-0.4,-0.6,-0.6,-1.3,-0.6,-2.2c0,-0.9,0.2,-1.6,0.6,-2.2c0.4,-0.5,0.9,-0.8,1.6,-0.8c0.8,0,1.3,0.3,1.7,0.8c0.4,0.6,0.6,1.3,0.6,2.2c0,0.9,-0.2,1.6,-0.6,2.2c-0.4,0.6,-1,0.9,-1.7,0.9c-0.7,0,-1.2,-0.3,-1.6,-0.9Z" class="g16_41" />
<path d="M619.7,966.9c-0.7,0.7,-1,1.7,-1,2.9c0,1.3,0.3,2.3,1,3c0.6,0.8,1.4,1.1,2.5,1.1c1.1,0,1.9,-0.4,2.6,-1.1c0.6,-0.8,0.9,-1.7,0.9,-3c0,-1.2,-0.3,-2.2,-0.9,-2.9c-0.7,-0.8,-1.5,-1.1,-2.6,-1.1c-1.1,0,-1.9,0.3,-2.5,1.1Zm0.8,5.1c-0.4,-0.6,-0.6,-1.3,-0.6,-2.2c0,-0.9,0.2,-1.6,0.6,-2.2c0.4,-0.5,1,-0.8,1.7,-0.8c0.7,0,1.3,0.3,1.7,0.8c0.4,0.6,0.6,1.3,0.6,2.2c0,0.9,-0.2,1.6,-0.6,2.2c-0.4,0.6,-1,0.9,-1.7,0.9c-0.7,0,-1.3,-0.3,-1.7,-0.9Z" class="g16_41" />
<path d="M634.3,972.5c-0.7,0.3,-1.3,0.4,-1.9,0.4c-0.4,0,-0.7,-0.1,-0.9,-0.4c-0.2,-0.3,-0.3,-0.6,-0.3,-1.1l0,-4.4l2.7,0l0,-1.1l-2.7,0l0,-2.1l-1.1,0l0,2.1l-1.5,0l0,1.1l1.5,0l0,4.7c0,1.5,0.7,2.2,2.1,2.2c0.7,0,1.5,-0.2,2.3,-0.5l-0.2,-0.9Z" class="g16_41" />
<path d="M643.8,969.5c0,-1.1,-0.3,-2,-0.9,-2.7c-0.6,-0.7,-1.4,-1,-2.3,-1c-1,0,-1.8,0.3,-2.4,1.1c-0.6,0.7,-1,1.7,-1,2.9c0,1.3,0.4,2.3,1.1,3c0.7,0.8,1.6,1.1,2.8,1.1c0.9,0,1.7,-0.1,2.4,-0.4l-0.2,-1c-0.8,0.3,-1.5,0.4,-2.2,0.4c-0.7,0,-1.4,-0.3,-1.9,-0.8c-0.5,-0.6,-0.7,-1.3,-0.7,-2.2l5.3,0l0,-0.4Zm-5.3,-0.6c0.1,-0.6,0.3,-1.1,0.7,-1.5c0.4,-0.4,0.9,-0.6,1.5,-0.6c0.5,0,0.9,0.2,1.3,0.6c0.3,0.4,0.5,0.9,0.5,1.5l-4,0Z" class="g16_41" />
<path d="M651.1,965.8c-0.9,0,-1.8,0.6,-2.4,1.7l0,-1.5l-1.1,0l0,7.7l1.1,0l0,-5c0,0,0.2,-0.3,0.4,-0.6c0.3,-0.4,0.6,-0.7,0.9,-0.9c0.4,-0.2,0.7,-0.3,1.1,-0.3c0.3,0,0.8,0.2,1.3,0.4l0.4,-1.1c-0.5,-0.3,-1.1,-0.4,-1.7,-0.4Z" class="g16_41" />
<text 
x="599" 
y="973" 
dx="0,0,0,0,0,0" 
class="s3_41"
>footer</text>

<text 
x="657" 
y="973" 
dx="0,0,0,0,0,0,0,0" 
class="s2_41"
>element’</text>

<text 
x="66" 
y="286" 
dx="0,0,0,0,0,-0.5,0,0,0,-0.5,0,0,0,0,0,0,0,0" 
class="s8_41"
>Meet the Nanonauts</text>

<text 
x="74" 
y="470" 
dx="0,0,0,0,0,0,0,-0.5,0,-0.5,0,0,0,0.1,0,0,-0.5,-0.1,0,0,0,0,0,-0.2,0,0,0,0,0,0" 
class="s8_41"
>Daniel – Singer extraordinaire</text>

<text 
x="74" 
y="583" 
dx="0,0,0,0,-0.5,0,-0.5,0,0,0,0,0,0,0,-0.5,0,-0.2,0,0,0,0,-0.5,0,0,0,0,0,0" 
class="s8_41"
>Sam – One-man rhythm section</text>

<text 
x="876" 
y="75" 
dx="0,0,0,0,0,0,0,-1.8,0,-1.8" 
class="s3_41"
>header p {</text>

<text 
x="876" 
y="96" 
dx="0,0,0,0,0,0,0,-1.8,0,0,0,0" 
class="s3_41"
>float: left;</text>

<text 
x="876" 
y="118" 
dx="0,0,0,0,0,0,0,0,0,0,0,-1.8,0,0,0,0" 
class="s3_41"
>font-size: 16px;</text>

<text 
x="876" 
y="139" 
dx="0,0,0,0,0,0,0,0,0,0,0,0,0,-1.8,0,0,0,0" 
class="s3_41"
>font-weight: bold;</text>

<text 
x="876" 
y="160" 
dx="0,0,0,0,0,0,0,0,0,0,0,0,-1.8,0,0,0" 
class="s3_41"
>margin-top: 0px;</text>

<text 
x="876" 
y="182" 
dx="0" 
class="s3_41"
>}</text>

<text 
x="876" 
y="225" 
dx="0,0,0,0,0,0,0,-1.8,0,0,-1.8" 
class="s3_41"
>header h1 {</text>

<text 
x="876" 
y="246" 
dx="0,0,0,0,0,0,0,0,0,0,0,-1.8,0,0,0,0" 
class="s3_41"
>font-size: 16px;</text>

<text 
x="876" 
y="267" 
dx="0,0,0,0,0,0,0,0,0,0,0,0,-1.8,0,0,0,0,0" 
class="s3_41"
>text-align: right;</text>

<text 
x="876" 
y="289" 
dx="0" 
class="s3_41"
>}</text>

<text 
x="876" 
y="332" 
dx="0,0,0,0,0,0,0,-1.8,0,0,0,0,0,0,0,0,0,0,0,-1.8" 
class="s3_41"
>footer p.copyright {</text>

<text 
x="876" 
y="353" 
dx="0,0,0,0,0,0,0,-1.8,0,0,0,0" 
class="s3_41"
>float: left;</text>

<text 
x="876" 
y="374" 
dx="0,0,0,0,0,0,0,0,0,0,0,0,-1.8,0,0,0" 
class="s3_41"
>margin-top: 0px;</text>

<text 
x="876" 
y="396" 
dx="0" 
class="s3_41"
>}</text>

<text 
x="876" 
y="439" 
dx="0,0,0,0,0,0,0,-1.8,0,0,0,0,0,0,0,0,0,-1.8" 
class="s3_41"
>footer p.contact {</text>

<text 
x="876" 
y="460" 
dx="0,0,0,0,0,0,0,0,0,0,0,0,-1.8,0,0,0,0,0" 
class="s3_41"
>text-align: right;</text>

<text 
x="876" 
y="481" 
dx="0" 
class="s3_41"
>}</text>

<text 
x="880" 
y="674" 
dx="0,0,0,0,0,0,-1.8,0,0,0,0,0,0,0,0,-1.8,0,0,0,-1.8" 
class="s3_41"
>body, section, img {</text>

<text 
x="880" 
y="695" 
dx="0,0,0,0,0,0,0,0,-1.8,0,0,0,-1.8,0,0,0,0,0,-1.8,0,0,0,0" 
class="s3_41"
>border: 2px solid Gray;</text>

<text 
x="880" 
y="717" 
dx="0,0,0,0,0,0,0,0,0,0,0,0,0,0,0,-1.8,0,0,0,0" 
class="s3_41"
>border-radius: 16px;</text>

<text 
x="880" 
y="738" 
dx="0" 
class="s3_41"
>}</text>

<text 
x="879" 
y="535" 
dx="0,0" 
class="s1_41"
>7.</text>

<text 
transform="matrix(0.98, 0, 0, 1, 904, 535)"
dx="0,-0.3,0,0,0,-0.4,0,0,0,-0.4,0,0,0,0,-0.4,0,0,-0.4,0,0,0,0,-0.4,0,0,0,-0.4,-0.3,0,0,0,0,0,0" 
class="s2_41"
>We’d now like to give the rounded </text>

<text 
transform="matrix(0.98, 0, 0, 1, 879, 556)"
dx="0,0,0,-0.3,0,0,0,0,6.6,0,0,6.6,0,0,0,6.6,0,0,0,-1.4,0,6.6,0,0,0,0,0,0,0,6.6,0,0,0" 
class="s2_41"
>borders to the body, section and </text>

<text 
transform="matrix(0.98, 0, 0, 1, 879, 578)"
dx="0,0,0,0,0,0,2,0,0,0,0,0,0,0,0,0,2,-1.7,0,2,0,0,2,0,0,0,0,2,0,-0.3,0,0,0,0,2,0" 
class="s2_41"
>image elements. To do this create a </text>

<text 
transform="matrix(0.98, 0, 0, 1, 879, 599)"
dx="0,0,0,0,0,0,0,1.7,0,0,0,0,1.7,0,0,0,0,0,1.7,0,0,0,0,0,0,0,1.7,0,0,1.7,0,0,1.7,0,0,0,1.7,0,0,0" 
class="s2_41"
>single rule which applies it to all the </text>

<text 
transform="matrix(0.98, 0, 0, 1, 879, 620)"
dx="0,0,0,0,0,0,0,0,0,-0.9,0,0,-0.9,0,0,0,-0.9,0,0,0,-0.9,0,0,-0.9,0,0,0,0,0,-0.9,0,0,0,0,-0.9,0,0,0,0" 
class="s2_41"
>elements in one go. It looks like this:</text>

<text 
transform="matrix(0.98, 0, 0, 1, 879, 791)"
dx="0,0,0,0,0,0,0,8.4,0,0,0,8.4,0,0,0,0,0,0,8.4,0,0,0,0,0,0,0,8.4,0,0,0" 
class="s2_41"
>Notice the commas between the </text>

<text 
transform="matrix(0.98, 0, 0, 1, 879, 813)"
dx="0,0,0,0,0,0,0,0,5.3,0,0,0,0,0,0,5.3,-1.7,0,0,0,5.3,0,0,0,5.3,0,0,0,0,0,0" 
class="s2_41"
>element names! Take the commas </text>

<text 
transform="matrix(0.98, 0, 0, 1, 879, 834)"
dx="0,0,0,0,0,1.7,0,0,0,1.7,0,0,0,1.7,0,0,0,0,0,0,0,0,1.7,0,0,1.7,0,0,0,0,0,1.7,0,0,0" 
class="s2_41"
>away and the elements to which the </text>

<text 
transform="matrix(0.98, 0, 0, 1, 879, 856)"
dx="0,0,0,0,0,-0.9,0,0,0,0,0,0,0,-0.9,0,-0.3,0,-0.9,0,0,0,0,0,0,0,0,0,0,-0.9,0,0,-0.3,0,0,-0.3,0,0,0" 
class="s2_41"
>rule applies are completely different:</text>

<text 
x="1545" 
y="100" 
dx="0,0,0,0,0,0,-0.4,0" 
class="s9_41"
>About Us</text>

<text 
x="1191" 
y="149" 
dx="0,0,0,0,0,-0.5,0,0,0,-0.5,0,0,0,0,0,0,0,0" 
class="s8_41"
>Meet the Nanonauts</text>

<text 
x="1200" 
y="333" 
dx="0,0,0,0,0,0,0,-0.5,0,-0.5,0,0,0,0.1,0,0,-0.5,-0.1,0,0,0,0,0,-0.2,0,0,0,0,0,0" 
class="s8_41"
>Daniel – Singer extraordinaire</text>

<text 
x="1200" 
y="443" 
dx="0,0,0,0,-0.5,0,-0.5,0,0,0,0,0,0,0,-0.5,0,-0.2,0,0,0,0,-0.5,0,0,0,0,0,0" 
class="s8_41"
>Sam – One-man rhythm section</text>

<text 
x="1545" 
y="564" 
dx="0,0,0,0,0,0,-0.4,0" 
class="s9_41"
>About Us</text>

<text 
x="1191" 
y="614" 
dx="0,0,0,0,0,-0.5,0,0,0,-0.5,0,0,0,0,0,0,0,0" 
class="s8_41"
>Meet the Nanonauts</text>

<text 
x="1200" 
y="798" 
dx="0,0,0,0,0,0,0,-0.5,0,-0.5,0,0,0,0.1,0,0,-0.5,-0.1,0,0,0,0,0,-0.2,0,0,0,0,0,0" 
class="s8_41"
>Daniel – Singer extraordinaire</text>

<path d="M870,900l0,5l-4,0l0,25l4,0l0,5l141,0l0,-35Z" class="g15_41" />
<path d="M870,943l0,4l-4,0l0,46l4,0l0,5l142,0l0,-55Z" class="g15_41" />
<text 
transform="matrix(0.98, 0, 0, 1, 877, 922)"
dx="0,0,0,0,-1.4,0,-0.9,0,0,0,0,0,0,0,0,-0.9,0,0" 
class="s10_41"
>body, section, img</text>

<text 
x="877" 
y="973" 
dx="0,0,0,0,0,-0.9,0,0,0,0,0,0,0,-0.9,0,0" 
class="s11_41"
>body section img</text>

<text 
x="1025" 
y="920" 
dx="0,0,0,0,0,0,-0.9,0,0,0,0,0,0,-0.9,0,0,0,0,-0.9,0,0,0,0,-0.9,0,0" 
class="s2_41"
>means ‘apply this rule to </text>

<text 
x="1191" 
y="920" 
dx="0,0,0,-0.2" 
class="s12_41"
>body</text>

<text 
x="1231" 
y="920" 
dx="0,0,0,0,0,0,0,0,0,-0.9,0,0,0" 
class="s2_41"
>elements and </text>

<text 
x="1326" 
y="920" 
dx="0,0,0,0,0,0,0" 
class="s12_41"
>section</text>

<text 
x="1383" 
y="920" 
dx="0,0,0,0,0,0,0,0,0,-0.9,0,0,0" 
class="s2_41"
>elements and </text>

<text 
x="1478" 
y="920" 
dx="0,0,0,-0.1,0.1" 
class="s12_41"
>image</text>

<text 
x="1525" 
y="920" 
dx="0,0,0,0,0,0,0,0" 
class="s2_41"
>elements</text>

<text 
x="1025" 
y="963" 
dx="0,0,0,0,0,0,0.5,0,0,0,0,0,0,0.5,0,0,0,0,0.5,0,0,0,0,0.5,0,0" 
class="s2_41"
>means ‘apply this rule to </text>

<path d="M1202.7,952.6c-0.1,0.1,-0.2,0.3,-0.2,0.5c0,0.2,0.1,0.4,0.2,0.6c0.2,0.1,0.4,0.2,0.6,0.2c0.2,0,0.4,-0.1,0.5,-0.2c0.2,-0.2,0.3,-0.4,0.3,-0.6c0,-0.2,-0.1,-0.4,-0.3,-0.5c-0.1,-0.2,-0.3,-0.3,-0.5,-0.3c-0.2,0,-0.4,0.1,-0.6,0.3Zm1.2,2.7l-3.5,0l0,1l2.3,0l0,6.7l1.2,0l0,-7.7Z" class="g16_41" />
<path d="M1215.6,957.6c0,-1.7,-0.5,-2.5,-1.4,-2.5c-0.3,0,-0.6,0.1,-0.9,0.3c-0.3,0.3,-0.6,0.6,-0.8,1c-0.1,-0.4,-0.3,-0.7,-0.5,-1c-0.3,-0.2,-0.6,-0.3,-0.9,-0.3c-0.3,0,-0.6,0.1,-0.9,0.3c-0.3,0.3,-0.5,0.6,-0.8,1l0,-1.1l-1.1,0l0,7.7l1.2,0l0,-5.6c0,0,0.1,-0.3,0.4,-0.7c0.3,-0.4,0.5,-0.6,0.8,-0.6c0.4,0,0.7,0.6,0.7,1.8l0,5.1l1.1,0l0,-5.6c0,0,0.2,-0.3,0.5,-0.7c0.2,-0.4,0.5,-0.6,0.7,-0.6c0.5,0,0.7,0.6,0.7,1.8l0,5.1l1.2,0l0,-5.4Z" class="g16_41" />
<path d="M1220.7,960.1c0.8,0,1.4,-0.2,1.9,-0.7c0.5,-0.5,0.8,-1.1,0.8,-1.8c0,-0.5,-0.2,-1,-0.4,-1.4l1.5,0l0,-1.1l-2.3,0.3c-0.4,-0.2,-0.9,-0.3,-1.5,-0.3c-0.7,0,-1.3,0.2,-1.8,0.7c-0.5,0.5,-0.8,1.1,-0.8,1.8c0,0.4,0.2,0.9,0.4,1.3c0.2,0.4,0.5,0.7,0.9,1c-0.9,0.4,-1.3,0.9,-1.3,1.5c0,0.5,0.3,0.9,1,1.2c-0.8,0.4,-1.2,0.9,-1.2,1.6c0,0.5,0.2,1,0.8,1.4c0.5,0.3,1.2,0.5,2.1,0.5c1,0,2,-0.3,2.7,-0.8c0.8,-0.5,1.2,-1.2,1.2,-2.1c0,-0.5,-0.1,-1,-0.5,-1.3c-0.3,-0.3,-0.8,-0.4,-1.4,-0.4l-2.7,0c-0.3,0,-0.5,0,-0.6,-0.1c-0.2,-0.1,-0.3,-0.2,-0.3,-0.4c0,-0.2,0.4,-0.6,1.1,-0.9c0.1,0,0.3,0,0.4,0Zm-1,-1.3c-0.3,-0.3,-0.4,-0.7,-0.4,-1.2c0,-0.5,0.1,-0.9,0.4,-1.2c0.3,-0.3,0.6,-0.4,1,-0.4c0.5,0,0.8,0.1,1.1,0.4c0.3,0.3,0.4,0.7,0.4,1.2c0,0.5,-0.1,0.9,-0.4,1.2c-0.3,0.3,-0.6,0.4,-1.1,0.4c-0.4,0,-0.7,-0.1,-1,-0.4Zm-0.2,6.1c-0.4,-0.2,-0.5,-0.5,-0.5,-0.8c0,-0.2,0,-0.4,0.1,-0.6c0.2,-0.1,0.3,-0.3,0.6,-0.5c0.2,-0.2,0.4,-0.3,0.5,-0.3c0.2,0,0.5,0,0.9,0c0.6,0,1.1,-0.1,1.3,-0.1c0.8,0,1.2,0.3,1.2,0.8c0,0.5,-0.3,0.9,-0.8,1.3c-0.6,0.3,-1.2,0.5,-2,0.5c-0.6,0,-1,-0.1,-1.3,-0.3Z" class="g16_41" />
<text 
x="1198" 
y="963" 
dx="0,0,0" 
class="s3_41"
>img</text>

<text 
x="1230" 
y="963" 
dx="0,0,0,0,0,0,0,0,0,0.5,0,0,0,0,0,0.5,0,-0.3,0,0.5,0,0,0,0,0,0" 
class="s2_41"
>elements which are inside </text>

<path d="M1420.9,955.4c-0.8,-0.2,-1.5,-0.3,-2.1,-0.3c-1,0,-1.8,0.2,-2.3,0.6c-0.6,0.4,-0.9,0.9,-0.9,1.6c0,0.3,0,0.5,0.2,0.8c0.1,0.2,0.3,0.5,0.5,0.6c0.3,0.2,0.5,0.3,0.8,0.4c0.3,0.1,0.7,0.3,1.3,0.5c0.8,0.2,1.3,0.4,1.5,0.6c0.2,0.2,0.3,0.5,0.3,0.7c0,0.4,-0.2,0.8,-0.6,1c-0.4,0.2,-1,0.4,-1.6,0.4c-0.8,0,-1.5,-0.2,-2.1,-0.5l-0.2,1c0.6,0.3,1.4,0.4,2.3,0.4c1,0,1.8,-0.2,2.4,-0.6c0.6,-0.4,0.9,-1,0.9,-1.8c0,-0.3,0,-0.7,-0.2,-1c-0.2,-0.3,-0.4,-0.5,-0.7,-0.7c-0.4,-0.2,-0.8,-0.4,-1.3,-0.5l-1.1,-0.3c-0.5,-0.2,-0.8,-0.3,-1,-0.5c-0.2,-0.2,-0.3,-0.4,-0.3,-0.6c0,-0.3,0.2,-0.6,0.6,-0.8c0.3,-0.2,0.9,-0.4,1.5,-0.4c0.6,0,1.2,0.2,1.8,0.4l0.3,-1Z" class="g16_41" />
<path d="M1430.8,958.8c0,-1.1,-0.3,-2,-0.9,-2.7c-0.6,-0.7,-1.3,-1,-2.2,-1c-1,0,-1.8,0.3,-2.5,1.1c-0.6,0.7,-0.9,1.7,-0.9,2.9c0,1.3,0.3,2.3,1,3c0.7,0.8,1.7,1.1,2.8,1.1c0.9,0,1.7,-0.1,2.4,-0.4l-0.2,-1c-0.7,0.3,-1.5,0.4,-2.2,0.4c-0.7,0,-1.3,-0.3,-1.8,-0.8c-0.5,-0.6,-0.8,-1.3,-0.8,-2.2l5.3,0l0,-0.4Zm-5.2,-0.6c0,-0.6,0.2,-1.1,0.6,-1.5c0.4,-0.4,0.9,-0.6,1.5,-0.6c0.5,0,0.9,0.2,1.3,0.6c0.4,0.4,0.6,0.9,0.6,1.5l-4,0Z" class="g16_41" />
<path d="M1439.5,961.8c-0.7,0.3,-1.3,0.4,-2,0.4c-0.8,0,-1.5,-0.3,-2,-0.9c-0.5,-0.6,-0.8,-1.3,-0.8,-2.2c0,-0.9,0.3,-1.6,0.8,-2.2c0.5,-0.5,1.1,-0.8,2,-0.8c0.6,0,1.2,0.1,1.9,0.3l0.3,-0.9c-0.7,-0.3,-1.4,-0.4,-2.2,-0.4c-1.2,0,-2.2,0.3,-2.9,1.1c-0.7,0.7,-1.1,1.7,-1.1,2.9c0,1.3,0.4,2.3,1.1,3c0.7,0.8,1.7,1.1,2.9,1.1c0.8,0,1.6,-0.1,2.2,-0.4l-0.2,-1Z" class="g16_41" />
<path d="M1448.8,961.8c-0.6,0.3,-1.2,0.4,-1.9,0.4c-0.3,0,-0.6,-0.1,-0.8,-0.4c-0.2,-0.3,-0.3,-0.6,-0.3,-1.1l0,-4.4l2.6,0l0,-1l-2.6,0l0,-2.2l-1.2,0l0,2.2l-1.5,0l0,1l1.5,0l0,4.7c0,1.5,0.7,2.2,2.1,2.2c0.8,0,1.5,-0.2,2.3,-0.5l-0.2,-0.9Z" class="g16_41" />
<path d="M1455.1,952.6c-0.2,0.1,-0.3,0.3,-0.3,0.5c0,0.2,0.1,0.4,0.3,0.6c0.1,0.1,0.3,0.2,0.5,0.2c0.2,0,0.4,-0.1,0.6,-0.2c0.1,-0.2,0.2,-0.4,0.2,-0.6c0,-0.2,-0.1,-0.4,-0.2,-0.5c-0.2,-0.2,-0.4,-0.3,-0.6,-0.3c-0.2,0,-0.4,0.1,-0.5,0.3Zm1.1,2.7l-3.5,0l0,1l2.3,0l0,6.7l1.2,0l0,-7.7Z" class="g16_41" />
<path d="M1461.7,956.2c-0.6,0.7,-0.9,1.7,-0.9,2.9c0,1.3,0.3,2.3,0.9,3c0.6,0.8,1.5,1.1,2.6,1.1c1,0,1.9,-0.3,2.5,-1.1c0.6,-0.7,1,-1.7,1,-3c0,-1.2,-0.4,-2.2,-1,-2.9c-0.6,-0.8,-1.5,-1.1,-2.5,-1.1c-1.1,0,-2,0.3,-2.6,1.1Zm0.9,5.1c-0.4,-0.6,-0.6,-1.3,-0.6,-2.1c0,-1,0.2,-1.7,0.6,-2.3c0.4,-0.5,0.9,-0.8,1.7,-0.8c0.7,0,1.2,0.3,1.6,0.8c0.4,0.6,0.6,1.4,0.6,2.3c0,0.8,-0.2,1.5,-0.6,2.1c-0.4,0.6,-0.9,0.9,-1.6,0.9c-0.7,0,-1.3,-0.3,-1.7,-0.9Z" class="g16_41" />
<path d="M1476.4,957.7c0,-1.7,-0.7,-2.6,-2.1,-2.6c-1,0,-1.8,0.4,-2.7,1.3l0,-1.1l-1.1,0l0,7.7l1.1,0l0,-5.6c0.8,-0.9,1.6,-1.3,2.3,-1.3c0.5,0,0.8,0.1,1.1,0.4c0.2,0.4,0.3,0.9,0.3,1.5l0,5l1.1,0l0,-5.3Z" class="g16_41" />
<text 
x="1413" 
y="963" 
dx="0,0,0,0,0,0,0" 
class="s3_41"
>section</text>

<text 
x="1482" 
y="963" 
dx="0,0,0,0,0,0,0,0,0,0.5,0,0,0,0,0" 
class="s2_41"
>elements which </text>

<text 
x="1025" 
y="984" 
dx="0,0,-0.3,0,0,-0.9,0,0,-0.9,0,0,0.3,0,0,-0.9,0,0,0,0,0,0" 
class="s2_41"
>are, in turn, inside </text>

<path d="M1151,973.9l-1.2,0l0,10.5l1.2,0l0,-1.1c0.2,0.4,0.5,0.7,1,1c0.4,0.2,0.8,0.3,1.3,0.3c0.9,0,1.6,-0.4,2.2,-1.2c0.5,-0.8,0.8,-1.8,0.8,-3c0,-1.2,-0.3,-2.1,-0.8,-2.9c-0.5,-0.7,-1.2,-1,-2.1,-1c-0.5,0,-0.9,0.1,-1.4,0.3c-0.4,0.2,-0.8,0.5,-1,0.9l0,-3.8Zm2.1,3.6c0.6,0,1.1,0.2,1.4,0.8c0.4,0.6,0.6,1.3,0.6,2.2c0,0.8,-0.2,1.6,-0.6,2.2c-0.4,0.6,-0.9,0.9,-1.5,0.9c-0.4,0,-0.8,-0.2,-1.1,-0.5c-0.4,-0.3,-0.7,-0.6,-0.9,-1.1l0,-3.2c0.5,-0.9,1.2,-1.3,2.1,-1.3Z" class="g16_41" />
<path d="M1159.4,977.6c-0.6,0.7,-1,1.7,-1,2.9c0,1.3,0.4,2.2,1,3c0.6,0.7,1.5,1.1,2.5,1.1c1.1,0,2,-0.4,2.6,-1.1c0.6,-0.8,0.9,-1.7,0.9,-3c0,-1.2,-0.3,-2.2,-0.9,-2.9c-0.6,-0.8,-1.5,-1.1,-2.6,-1.1c-1,0,-1.9,0.3,-2.5,1.1Zm0.9,5.1c-0.4,-0.6,-0.6,-1.3,-0.6,-2.2c0,-0.9,0.2,-1.6,0.6,-2.2c0.4,-0.5,0.9,-0.8,1.6,-0.8c0.8,0,1.3,0.3,1.7,0.8c0.4,0.6,0.6,1.3,0.6,2.2c0,0.9,-0.2,1.6,-0.6,2.2c-0.4,0.6,-1,0.9,-1.7,0.9c-0.7,0,-1.2,-0.3,-1.6,-0.9Z" class="g16_41" />
<path d="M1174.1,973.9l-1.2,0l0,3.8c-0.6,-0.8,-1.4,-1.2,-2.3,-1.2c-0.9,0,-1.6,0.3,-2.2,1.1c-0.5,0.7,-0.8,1.7,-0.8,2.8c0,1.2,0.3,2.2,0.8,3c0.5,0.8,1.2,1.2,2.1,1.2c0.5,0,1,-0.1,1.4,-0.4c0.5,-0.2,0.8,-0.5,1,-0.9l0,1.1l1.2,0l0,-10.5Zm-1.6,8.7c-0.2,0.3,-0.5,0.6,-0.8,0.7c-0.3,0.2,-0.6,0.3,-0.9,0.3c-0.6,0,-1.1,-0.3,-1.4,-0.9c-0.4,-0.6,-0.6,-1.3,-0.6,-2.2c0,-0.9,0.2,-1.6,0.6,-2.2c0.4,-0.6,0.9,-0.8,1.5,-0.8c0.8,0,1.5,0.4,2,1.3l0,3.2c0,0.1,-0.1,0.3,-0.4,0.6Z" class="g16_41" />
<path d="M1182.4,976.6l-2.2,6.2l-2.2,-6.2l-1.3,0l2.9,7.8c-0.3,0.7,-0.5,1.3,-0.8,1.6c-0.3,0.3,-0.6,0.5,-1,0.5c-0.3,0,-0.7,-0.1,-1,-0.2l-0.2,0.9c0.4,0.2,0.9,0.3,1.4,0.3c0.5,0,1,-0.2,1.4,-0.7c0.4,-0.4,0.9,-1.2,1.3,-2.4l2.9,-7.8l-1.2,0Z" class="g16_41" />
<text 
x="1148" 
y="984" 
dx="0,0,0,0" 
class="s3_41"
>body</text>

<text 
x="1188" 
y="984" 
dx="0,0,0,0,0,0,0,0,0" 
class="s2_41"
>elements’</text>

<text 
x="131" 
y="483" 
dx="0,0,0,0,0,0,0,0.1,0,0,0.1,0,0,0,0.1,0,0,0,0,0,0,0,0,0,0,0.1,0,0,0,0,0,-0.2,0,0.1,0,0,0.1,0,0,0,0,0,0.1,0,0,0.1,0,0,0,0,0.1,0,-0.1,0,0.1,0,0,0,0.1,0,0,0,0,0.1,0,0.1,0,0,0,0.1,0,0,0,0,0.1,0,0,0,0,0.1,0,0,0,0,0.1,0,0,0,0,0,0,0,0.1,0,0,0,0,0.1,0,0,0,0.1,0,0,0,0,0,0,0,0,0,0,0.1,0,0,0,0.1,0,0,0,0.1,0,0,0,0.1,0,0,0,0.1,0,0,0,0.1,0,0,0.1,0,0,0,0,0,0,0,0.1,0,0,0.1,0,0,0,0,0.1,0,0,0,0,0,0" 
class="s13_41"
>Daniel is the Nanonauts' singer. He likes to sing a l the time – not just when he's playing with the Nanonauts! His mum and dad say he learned to sing before </text>

<text 
x="131" 
y="488" 
dx="0,0,0,-0.3,0,0,0,0,0,0,0,-0.3,0,0,-0.3,0,0,0,0" 
class="s13_41"
>he learned to talk!</text>

<text 
x="131" 
y="494" 
dx="0,0,0,0,0,0,0,-0.3,0,0,0,0,-0.3,0,0,0,0,0,-0.3,0,0,0,0,0,0,0,0,-0.3,0,0,0,-0.3,0,0,-0.3,0,0,0,0,0,0,0,0,-0.3,0,0,0,-0.3,0,0,0,0,-0.3,0,0,0,0,0,0,0,0,0" 
class="s13_41"
>Daniel also plays clarinet and is learning the alto saxophone.</text>

<text 
x="1257" 
y="347" 
dx="0,0,0,0,0,0,0,0,0,0,0,0,0,0,0,0,0,0,0,0,0,0,0,0,0,0,0,0,0,0,0,-0.2,0,0,0,0,0,0,0,0,0,0,0,0,0,0,0,0,0,0,0,0,-0.1,0,0,0,0,0,0,0,0,0,0,0,0,0,0,0,0,0,0,0,0,0,0,0,0,0,0,0,0,0,0,0,0,0,0,0,0,0,0,0,0,0,0,0,0,0,0,0,0,0,0,0,0,0,0,0,0,0,0,0,0,0,0,0,0,0,0,0,0,0,0,0,0,0,0,0,0,0,0,0,0,0,0,0,0,0,0,0,0,0,0,0,0,0,0,0,0,0,0,0,0,0,0,0,0,0" 
class="s13_41"
>Daniel is the Nanonauts' singer. He likes to sing a l the time – not just when he's playing with the Nanonauts! His mum and dad say he learned to sing before </text>

<text 
x="1257" 
y="352" 
dx="0,0,0,-0.3,0,0,0,0,0,0,0,-0.3,0,0,-0.3,0,0,0,0" 
class="s13_41"
>he learned to talk!</text>

<text 
x="1257" 
y="358" 
dx="0,0,0,0,0,0,0,-0.3,0,0,0,0,-0.3,0,0,0,0,0,-0.3,0,0,0,0,0,0,0,0,-0.3,0,0,0,-0.3,0,0,-0.3,0,0,0,0,0,0,0,0,-0.3,0,0,0,-0.3,0,0,0,0,-0.3,0,0,0,0,0,0,0,0,0" 
class="s13_41"
>Daniel also plays clarinet and is learning the alto saxophone.</text>

<text 
x="131" 
y="598" 
dx="0,0,0,0,0.2,0,0,0,0.2,0,0,0,0,0,0.2,0,0,0.2,0,0,0,0.2,0,0,0,0,0,0.2,0,0,0,0,0.2,0,0,0,0.2,0,0,0,0.2,0,0,0.2,0,0,0,0.2,0,0,0,0,0,0.2,0,0,0,0.2,0,0,0,0.2,0,0,0,0,0.2,0,0,0.2,0,0,0,0.2,0,0,0,0,0,0.2,0,0,0,0,0,0.2,0,0.2,0,0,0,0,0,0,0.2,0,0,0,0,0.2,0,0,0,0,0,0,0,0,0.2,0,0,0,0,0.2,0,0,0,0.2,0,0,0,0,0,0.2,0,0,0,0,0,0.2,0,0,0,0.2,0,0,0,0.2,0,0,0,0,0.2,0,0,0,0,0.2,0,0" 
class="s13_41"
>Sam had music in his blood from the day he was born. His dad says he was named after a famous folk musician (can you guess who?) but his says this is </text>

<text 
x="131" 
y="604" 
dx="0,0,0,0,0,0,0,0,0,0.1,0,0,0,0.1,0,0,0.1,0,0,0,0.1,0,0,0,0,0,0.1,0,0,0,0,0,0.1,0,0.1,0,0,0,0,0,0,0,0.1,0,0,0.1,0,0,0,0,0.1,0,0,0,0,0,0.1,0,0,0.1,0,0,0,0,0,0.1,0,0,0,0.1,0,0,0,0,0.1,0,0,0,0,0,0,0.1,0,0,0,0.1,0,0,0.1,0,0,0,0,0.1,0,0,0,0,0,0.1,0,0,0,0.1,0,0,0,0,0,0,0.1,0,0,0,0.1,0,0,0,0,0,0.1,0,0,0,0,0,0,0,0.1,0,0,0.1,0,0,0,0.1,0,0,0,0,0,0,0,0,0,0.1,0,0,0" 
class="s13_41"
>nonsense and he was named after a rabbit. On some songs he plays the bass guitar and on some songs the drums. Sam loves playing in the Nanonauts but </text>

<text 
x="131" 
y="609" 
dx="0,0,0,0,0,0,-0.3,0" 
class="s13_41"
>hates ca</text>

<text 
x="150" 
y="609" 
dx="0,0,0,0,0,0,-0.3,0,0,0,-0.3,0,0,0,0,0,0,0,-0.3,0,0,0,0,0,0,0" 
class="s13_41"
>rying his drumkit around. </text>

<text 
x="1257" 
y="458" 
dx="0,0,0,0,0,0,0,0,0,0,0,0,0,0,0,0,0,0,0,0,0,0,0,0,0,0,0,0,0,0,0,0,0,0,0,0,0,0,0,0,0,0,0,0,0,0,0,0,0,0,0,0,0,0,0,0,0,0,0,0,0,0,0,0,0,0,0,0,0,0,0,0,0,0,0,0,0,0,0,0,0,0,0,0,0,0,0,0,0,0,0,0,0,0,0,0,0,0,0,0,0,0,0,0,0,0,0,0,0,0,0,0,0,0,0,0,0,0,0,0,0,0,0,0,0,0,0,0,0,0,0,0,0,0,0,0,0,0,0,0,0,0,0,0,0,0,0,0,0,0,0,0,0,0,0" 
class="s13_41"
>Sam had music in his blood from the day he was born. Both his mum and dad play instruments and got him his first drum kit when he was only five years old, </text>

<text 
x="1257" 
y="464" 
dx="0,0,0,0,0,0,0.2,0,0,0,0.2,0,0,0.2,0,0,0,0,0,0,0,0.2,0,0,0,0,0.2,0,0,0,0.2,0,0,0,0,0,0,0,0,0,0,0,0.2,0,0,0.2,0,0,0,0,0.2,0,0,0,0,0,0.2,0,0,0.2,0,0,0,0,0,0.2,0,0,0,0.2,0,0,0,0,0.2,0,0,0,0,0,0,0.2,0,0,0,0.2,0,0,0.2,0,0,0,0,0.2,0,0,0,0,0,0.2,0,0,0,0.2,0,0,0,0,0,0,0.2,0,0,0,0.2,0,0,0,0,0,0.2,0,0,0,0,0,0,0,0.2,0,0,0.2,0,0,0,0.2,0,0,0,0,0,0,0,0,0,0.2,0,0,0" 
class="s13_41"
>which led to trouble with the neighbours. On some songs he plays the bass guitar and on some songs the drums. Sam loves playing in the Nanonauts but </text>

<text 
x="1257" 
y="469" 
dx="0,0,0,0,0,0,-0.3,0" 
class="s13_41"
>hates ca</text>

<text 
x="1276" 
y="469" 
dx="0,0,0,0,0,0,-0.3,0,0,0,-0.3,0,0,0,0,0,0,0,-0.3,0,0,0,0,0,0" 
class="s13_41"
>rying his drumkit around.</text>

<text 
x="1257" 
y="812" 
dx="0,0,0,0,0,0,0,0,0,0,0,0,0,0,0,0,0,0,0,0,0,0,0,0,0,0,0,0,0,0,0,-0.2,0,0,0,0,0,0,0,0,0,0,0,0,0,0,0,0,0,0,0,0,-0.1,0,0,0,0,0,0,0,0,0,0,0,0,0,0,0,0,0,0,0,0,0,0,0,0,0,0,0,0,0,0,0,0,0,0,0,0,0,0,0,0,0,0,0,0,0,0,0,0,0,0,0,0,0,0,0,0,0,0,0,0,0,0,0,0,0,0,0,0,0,0,0,0,0,0,0,0,0,0,0,0,0,0,0,0,0,0,0,0,0,0,0,0,0,0,0,0,0,0,0,0,0,0,0,0,0" 
class="s13_41"
>Daniel is the Nanonauts' singer. He likes to sing a l the time – not just when he's playing with the Nanonauts! His mum and dad say he learned to sing before </text>

<text 
x="1257" 
y="818" 
dx="0,0,0,-0.3,0,0,0,0,0,0,0,-0.3,0,0,-0.3,0,0,0,0" 
class="s13_41"
>he learned to talk!</text>

<text 
x="1257" 
y="823" 
dx="0,0,0,0,0,0,0,-0.3,0,0,0,0,-0.3,0,0,0,0,0,-0.3,0,0,0,0,0,0,0,0,-0.3,0,0,0,-0.3,0,0,-0.3,0,0,0,0,0,0,0,0,-0.3,0,0,0,-0.3,0,0,0,0,-0.3,0,0,0,0,0,0,0,0,0" 
class="s13_41"
>Daniel also plays clarinet and is learning the alto saxophone.</text>

<text 
x="65" 
y="299" 
dx="0,-0.1,0,-0.3,0,0,0,-0.3,0,0,0,-0.3,0,0,0,0,0,0,0,0,0,0" 
class="s14_41"
>We are the Nanonauts. </text>

<text 
x="65" 
y="306" 
dx="0,0,0,0,-0.3,0,0,0,0,0,-0.3,0,0,0,-0.3,0,0,-0.2,0,-0.4,0,-0.3,0,0,0,0,0,0,0,-0.3,0,0,0,0,0,0,-0.3,0,0,0,-0.3,0,0,0" 
class="s14_41"
>Our names are Ho ly, Dervla, Daniel and Sam.</text>

<text 
x="1192" 
y="160" 
dx="0,-0.1,0,-0.3,0,0,0,-0.3,0,0,0,-0.3,0,0,0,0,0,0,0,0,0,0" 
class="s14_41"
>We are the Nanonauts. </text>

<text 
x="1192" 
y="167" 
dx="0,0,0,0,-0.3,0,0,0,0,0,-0.3,0,0,0,-0.3,0,0,-0.2,0,-0.4,0,-0.3,0,0,0,0,0,0,0,-0.3,0,0,0,0,0,0,-0.3,0,0,0,-0.3,0,0,0" 
class="s14_41"
>Our names are Ho ly, Dervla, Daniel and Sam.</text>

<text 
x="1192" 
y="626" 
dx="0,-0.1,0,-0.3,0,0,0,-0.3,0,0,0,-0.3,0,0,0,0,0,0,0,0,0,0" 
class="s14_41"
>We are the Nanonauts. </text>

<text 
x="1192" 
y="633" 
dx="0,0,0,0,-0.3,0,0,0,0,0,-0.3,0,0,0,-0.3,0,0,-0.2,0,-0.4,0,-0.3,0,0,0,0,0,0,0,-0.3,0,0,0,0,0,0,-0.3,0,0,0,-0.3,0,0,0" 
class="s14_41"
>Our names are Ho ly, Dervla, Daniel and Sam.</text>

<path d="M490,419l0,-4l4,0l0,-4l4,0l0,-4l4,0l0,-4l4,0l0,4l0,4l0,4l0,4l0,4l0,4l0,4l0,4l0,4l-4,0l0,-4l-4,0l0,-4l-4,0l0,-4l-4,0l0,-4l-4,0l0,-4Z" class="g15_41" />
<path d="M1150,276l0,4l-4,0l0,4l-4,0l0,4l-4,0l0,4l-4,0l0,-4l0,-4l0,-4l0,-4l0,-4l0,-4l0,-4l0,-4l0,-4l4,0l0,4l4,0l0,4l4,0l0,4l4,0l0,4l4,0l0,4Z" class="g15_41" />
<path d="M1150,703l0,4l-4,0l0,4l-4,0l0,4l-4,0l0,4l-4,0l0,-4l0,-4l0,-4l0,-4l0,-5l0,-4l0,-4l0,-4l0,-4l4,0l0,4l4,0l0,4l4,0l0,4l4,0l0,4l4,0l0,5Z" class="g15_41" />
<text 
x="1194" 
y="97" 
dx="0,0,0" 
class="s9_41"
>the</text>

<text 
x="1207" 
y="101" 
dx="0,0,0,0,0,0,0,0,0" 
class="s9_41"
>nanonauts</text>

<text 
x="1194" 
y="563" 
dx="0,0,0" 
class="s9_41"
>the</text>

<text 
x="1207" 
y="566" 
dx="0,0,0,0,0,0,0,0,0" 
class="s9_41"
>nanonauts</text>

<text 
x="404" 
y="225" 
dx="0,0,0,0,0,0,-0.6,0" 
class="s15_41"
>About Us</text>

<text 
x="67" 
y="223" 
dx="0,0,0" 
class="s15_41"
>the</text>

<text 
x="85" 
y="229" 
dx="0,0,0,0,0,0,0,0,0" 
class="s15_41"
>nanonauts</text>

<text 
x="73" 
y="258" 
dx="0,0,0,0" 
class="s16_41"
>Home</text>

<text 
x="95" 
y="258" 
dx="0,0,0,0,0,0,-0.3,0" 
class="s16_41"
>About Us</text>

<text 
x="125" 
y="258" 
dx="0,0,0,0,-0.3,0,0,0,0" 
class="s16_41"
>Our Songs</text>

<text 
x="159" 
y="258" 
dx="0,0,0,0,-0.3,0,0,-0.3,0,0,-0.1" 
class="s16_41"
>See Us Play</text>

<text 
x="195" 
y="258" 
dx="0,0,0,-0.1,0,0,0,0,-0.3,0,-0.3,0,0,0,0,0,0.1" 
class="s16_41"
>Playing a Concert</text>

<path d="M92.5,252.5l0,8" class="g16_41" />
<path d="M122.5,252.5l0,8" class="g16_41" />
<path d="M156.5,252.5l0,8" class="g16_41" />
<path d="M193.5,252.5l0,8" class="g16_41" />
<text 
x="1199" 
y="120" 
dx="0,0,0,0" 
class="s16_41"
>Home</text>

<text 
x="1221" 
y="120" 
dx="0,0,0,0,0,0,-0.3,0" 
class="s16_41"
>About Us</text>

<text 
x="1251" 
y="120" 
dx="0,0,0,0,-0.3,0,0,0,0" 
class="s16_41"
>Our Songs</text>

<text 
x="1285" 
y="120" 
dx="0,0,0,0,-0.3,0,0,-0.3,0,0,-0.1" 
class="s16_41"
>See Us Play</text>

<text 
x="1321" 
y="120" 
dx="0,0,0,-0.1,0,0,0,0,-0.3,0,-0.3,0,0,0,0,0,0.1" 
class="s16_41"
>Playing a Concert</text>

<path d="M1218.5,114.5l0,9" class="g16_41" />
<path d="M1248.5,114.5l0,9" class="g16_41" />
<path d="M1282.5,114.5l0,9" class="g16_41" />
<path d="M1319.5,114.5l0,9" class="g16_41" />
<text 
x="1199" 
y="586" 
dx="0,0,0,0" 
class="s16_41"
>Home</text>

<text 
x="1221" 
y="586" 
dx="0,0,0,0,0,0,-0.3,0" 
class="s16_41"
>About Us</text>

<text 
x="1251" 
y="586" 
dx="0,0,0,0,-0.3,0,0,0,0" 
class="s16_41"
>Our Songs</text>

<text 
x="1285" 
y="586" 
dx="0,0,0,0,-0.3,0,0,-0.3,0,0,-0.1" 
class="s16_41"
>See Us Play</text>

<text 
x="1321" 
y="586" 
dx="0,0,0,-0.1,0,0,0,0,-0.3,0,-0.3,0,0,0,0,0,0.1" 
class="s16_41"
>Playing a Concert</text>

<path d="M1218.5,579.5l0,9" class="g16_41" />
<path d="M1248.5,579.5l0,9" class="g16_41" />
<path d="M1282.5,579.5l0,9" class="g16_41" />
<path d="M1319.5,579.5l0,9" class="g16_41" />
<text 
x="1591" 
y="1019" 
dx="0,-1.2" 
class="s17_41"
>81</text>

<text 
x="35" 
y="1019" 
dx="0,-1.1" 
class="s17_41"
>80</text>



<!-- Any embedded fonts defined here -->
<style type="text/css" ><![CDATA[

@font-face {
	font-family: Helvetica-Light_12m;
	src: url("fonts/Helvetica-Light_12m.woff") format("woff");
}

@font-face {
	font-family: AndaleMono_1cn;
	src: url("fonts/AndaleMono_1cn.woff") format("woff");
}

@font-face {
	font-family: Helvetica-Light_1by;
	src: url("fonts/Helvetica-Light_1by.woff") format("woff");
}

@font-face {
	font-family: Helvetica-Light_12i;
	src: url("fonts/Helvetica-Light_12i.woff") format("woff");
}

@font-face {
	font-family: Helvetica-Light_128;
	src: url("fonts/Helvetica-Light_128.woff") format("woff");
}

@font-face {
	font-family: Helvetica-Light_12c;
	src: url("fonts/Helvetica-Light_12c.woff") format("woff");
}

@font-face {
	font-family: PixelSplitter-Bold_1bs;
	src: url("fonts/PixelSplitter-Bold_1bs.woff") format("woff");
}

@font-face {
	font-family: Helvetica-Light_124;
	src: url("fonts/Helvetica-Light_124.woff") format("woff");
}

@font-face {
	font-family: Helvetica-Bold_1bu;
	src: url("fonts/Helvetica-Bold_1bu.woff") format("woff");
}

@font-face {
	font-family: Helvetica-Light_120;
	src: url("fonts/Helvetica-Light_120.woff") format("woff");
}

@font-face {
	font-family: Helvetica_1e3;
	src: url("fonts/Helvetica_1e3.woff") format("woff");
}

]]></style>

</svg>
