<?xml version="1.0" encoding="UTF-8" standalone="no"?>
<!DOCTYPE svg PUBLIC "-//W3C//DTD SVG 1.1//EN"
"http://www.w3.org/Graphics/SVG/1.1/DTD/svg11.dtd">


<!-- Page 42 -->
<svg x="0" y="0" width="1645" height="1061" viewBox="0 0 1645 1061" version="1.1" xmlns="http://www.w3.org/2000/svg" xmlns:xlink="http://www.w3.org/1999/xlink"
style="display: block;margin-left: auto;margin-right: auto;">
<defs>

<style type="text/css"><![CDATA[

.g5_42{
fill: #7AB0D6;
}
.g7_42{
fill: #989797;
}
.g4_42{
fill: none;
stroke: #F37A6D;
stroke-width: 5;
stroke-linecap: butt;
stroke-linejoin: miter;
stroke-miterlimit: 4;
}
.g8_42{
fill: none;
stroke: #FFFFFF;
stroke-width: 1;
stroke-linecap: round;
stroke-linejoin: round;
}
.g6_42{
fill: none;
stroke: #989898;
stroke-width: 6;
stroke-linecap: butt;
stroke-linejoin: miter;
stroke-miterlimit: 4;
}
.g12_42{
fill: #F05654;
}
.g20_42{
fill: #11151D;
}
.g11_42{
fill: #FFD400;
}
.g1_42{
fill: #FAAD60;
}
.g14_42{
fill: none;
stroke: #6D6E71;
stroke-width: 1;
stroke-linecap: butt;
stroke-linejoin: miter;
stroke-miterlimit: 4;
}
.g15_42{
fill: #2AACE2;
}
.g9_42{
fill: none;
stroke: #FFFFFF;
stroke-width: 1;
stroke-linecap: round;
stroke-linejoin: round;
stroke-miterlimit: 4;
}
.g13_42{
fill: #89BA6E;
}
.g17_42{
fill: #B897C1;
}
.g19_42{
fill: none;
stroke: #11151D;
stroke-width: 1;
stroke-linecap: butt;
stroke-linejoin: miter;
stroke-miterlimit: 3;
}
.g2_42{
fill: #FFFFFF;
}
.g18_42{
fill: none;
stroke: #11151D;
stroke-width: 1;
stroke-linecap: butt;
stroke-linejoin: miter;
stroke-miterlimit: 4;
}
.g16_42{
fill: none;
stroke: #000000;
stroke-width: 1;
stroke-linecap: butt;
stroke-linejoin: miter;
stroke-miterlimit: 4;
}
.g3_42{
fill: #F37A6D;
}
.g10_42{
fill: none;
stroke: #FFFFFF;
stroke-width: 2;
stroke-linecap: round;
stroke-linejoin: round;
stroke-miterlimit: 4;
}

.s13_42{
font-size: 8.93px;
font-family: Helvetica-Bold_1bu;
fill: #11151D;
}
.s19_42{
font-size: 4.78px;
font-family: Helvetica_1dx;
fill: #11151D;
}
.s12_42{
font-size: 4.58px;
font-family: Helvetica_1e3;
fill: #11151D;
}
.s17_42{
font-size: 8.88px;
font-family: Helvetica-Bold_1bu;
fill: #11151D;
}
.s8_42{
font-size: 15.28px;
font-family: Helvetica-Light_13q;
fill: #FFFFFF;
}
.s11_42{
font-size: 7.64px;
font-family: Helvetica-Bold_1bu;
fill: #11151D;
}
.s22_42{
font-size: 21.39px;
font-family: PixelSplitter-Bold_1bs;
fill: #11151D;
}
.s6_42{
font-size: 15.28px;
font-family: Helvetica-Light_13i;
fill: #FFFFFF;
}
.s7_42{
font-size: 15.28px;
font-family: Helvetica-Light_13m;
fill: #FFFFFF;
}
.s24_42{
font-size: 12.22px;
font-family: PixelSplitter-Bold_1bs;
fill: #11151D;
}
.s5_42{
font-size: 15.28px;
font-family: Helvetica-Light_13e;
fill: #FFFFFF;
}
.s20_42{
font-size: 6.11px;
font-family: Helvetica_1e3;
fill: #11151D;
}
.s1_42{
font-size: 15.28px;
font-family: AndaleMono_1cn;
fill: #11151D;
}
.s3_42{
font-size: 15.28px;
font-family: Helvetica-Light_1by;
fill: #11151D;
}
.s4_42{
font-size: 15.28px;
font-family: Helvetica-Bold_1bu;
fill: #11151D;
}
.s9_42{
font-size: 39.25px;
font-family: PixelSplitter-Bold_13w;
fill: #FFFFFF;
}
.s16_42{
font-size: 4.58px;
font-family: Helvetica-Bold_1bu;
fill: #11151D;
}
.s14_42{
font-size: 6.18px;
font-family: Helvetica-Bold_1bu;
fill: #11151D;
}
.s23_42{
font-size: 5.68px;
font-family: Helvetica-Bold_1bu;
fill: #11151D;
}
.s10_42{
font-size: 8.83px;
font-family: Helvetica-Bold_1bu;
fill: #11151D;
}
.s2_42{
font-size: 18.33px;
font-family: PixelSplitter-Bold_1bs;
fill: #11151D;
}
.s15_42{
font-size: 4.81px;
font-family: Helvetica_1dx;
fill: #11151D;
}
.s18_42{
font-size: 4.78px;
font-family: Helvetica_1e3;
fill: #11151D;
}
.s21_42{
font-size: 4.73px;
font-family: Helvetica_1e3;
fill: #11151D;
}

]]></style>

</defs>
<path d="M0,0
L0,1061
L1645,1061
L1645,0 Z " 
fill="#FFFFFF" stroke="none" />
<image x="-33" y="-32" width="1713" height="1115" xlink:href="42/img/1.png" />
<image x="-13" y="-11" width="1674" height="1073" opacity="0.5" xlink:href="42/img/2.png" />
<path d="M870,266l0,5l-4,0l0,47l4,0l0,5l264,0l0,-5l4,0l0,-47l-4,0l0,-5Z" class="g1_42" />
<path d="M454,192l0,4l-4,0l0,78l4,0l0,4l321,0l0,-4l4,0l0,-78l-4,0l0,-4Z" class="g1_42" />
<path d="M46,649l0,5l-4,0l0,337l4,0l0,4l320,0l0,-4l4,0l0,-337l-4,0l0,-5Z" class="g1_42" />
<path d="M507,322l0,35l268,0l0,-5l4,0l0,-26l-4,0l0,-4Z" class="g2_42" />
<path d="M507,492l0,34l268,0l0,-4l4,0l0,-26l-4,0l0,-4Z" class="g2_42" />
<path d="M507,365l0,119l268,0l0,-4l4,0l0,-111l-4,0l0,-4Z" class="g2_42" />
<path d="M507,535l0,77l268,0l0,-4l4,0l0,-68l-4,0l0,-5Z" class="g2_42" />
<path d="M870,835l0,4l-4,0l0,90l4,0l0,4l92,0l0,-98Z" class="g3_42" />
<image x="875" y="840" width="88" height="89" xlink:href="42/img/3.png" />
<path d="M964,875l0,76l3,0l2,0l0,2l0,2l246,0l0,-2l0,-2l2,0l3,0l0,-76Z" class="g2_42" />
<path d="M964.5,875.5l0,76l3,0l2,0l0,2l0,2l246,0l0,-2l0,-2l2,0l3,0l0,-76l-256,0Z" class="g4_42" />
<path d="M1101,132l0,-15l-4,0l0,-14l-5,0l0,-5l-5,0l0,-10l-5,0l0,-4l-5,0l0,-5l-4,0l0,-5l-5,0l0,-5l-5,0l0,-4l-5,0l-4,0l0,-5l-5,0l0,-5l-15,0l0,-5l-14,0l0,-5l-38,0l0,5l-15,0l0,5l-14,0l0,5l-5,0l0,5l-5,0l-5,0l0,4l-4,0l0,5l-5,0l0,5l-5,0l0,5l-5,0l0,4l-4,0l0,10l-5,0l0,5l-5,0l0,14l-5,0l0,15l-5,0l0,38l5,0l0,14l5,0l0,15l5,0l0,4l5,0l0,10l4,0l0,5l5,0l0,5l5,0l0,4l5,0l0,5l4,0l0,5l5,0l5,0l0,5l5,0l0,5l14,0l0,4l15,0l0,5l38,0l0,-5l14,0l0,-4l15,0l0,-5l5,0l0,-5l4,0l5,0l0,-5l5,0l0,-5l5,0l0,-4l4,0l0,-5l5,0l0,-5l5,0l0,-10l5,0l0,-4l5,0l0,-15l4,0l0,-14l5,0l0,-38Z" class="g5_42" />
<image x="912" y="67" width="192" height="192" xlink:href="42/img/4.png" />
<path d="M870,468l0,4l-4,0l0,330l4,0l0,5l271,0l0,-5l4,0l0,-330l-4,0l0,-4Z" class="g1_42" />
<path d="M1175,53l0,3l0,3l-3,0l-3,0l0,697l3,0l3,0l0,3l0,2l421,0l0,-2l0,-3l2,0l3,0l0,-697l-3,0l-2,0l0,-3l0,-3Z" class="g2_42" />
<path d="M1175,53l0,3l0,3l-3,0l-3,0l0,697l3,0l3,0l0,3l0,2l421,0l0,-2l0,-3l2,0l3,0l0,-697l-3,0l-2,0l0,-3l0,-3l-421,0Z" class="g6_42" />
<path d="M1174,51l0,5l-6,0l0,29l434,0l0,-29l-6,0l0,-5Z" class="g7_42" />
<path d="M1187.5,68.3c1.3,0,2.4,-1.1,2.4,-2.4c0,-1.4,-1.1,-2.5,-2.4,-2.5c-1.4,0,-2.5,1.1,-2.5,2.5c0,1.3,1.1,2.4,2.5,2.4Z" class="g2_42" />
<path d="M1197,68.3c1.4,0,2.5,-1.1,2.5,-2.4c0,-1.4,-1.1,-2.5,-2.5,-2.5c-1.3,0,-2.4,1.1,-2.4,2.5c0,1.3,1.1,2.4,2.4,2.4Z" class="g2_42" />
<path d="M1206.6,68.3c1.4,0,2.5,-1.1,2.5,-2.4c0,-1.4,-1.1,-2.5,-2.5,-2.5c-1.3,0,-2.4,1.1,-2.4,2.5c0,1.3,1.1,2.4,2.4,2.4Z" class="g2_42" />
<path d="M1185,73.1c0,0,-1.5,0,-1.5,1.5l0,4c0,0,0,1.5,1.5,1.5l388.9,0c0,0,1.5,0,1.5,-1.5l0,-4c0,0,0,-1.5,-1.5,-1.5Z" class="g2_42" />
<path d="M1590.8,73.5l0,3.1c-0.4,-0.1,-0.8,-0.2,-1.2,-0.2c-0.5,-0.1,-1.1,-0.2,-1.6,-0.3c-0.1,0,-0.2,-0.1,-0.3,-0.1c0.4,-0.3,0.7,-0.6,1.1,-0.8c0,0,0,-0.1,0,-0.1c-0.1,0,-0.1,0,-0.1,0c-0.5,-0.3,-1,-0.4,-1.6,-0.3c-0.5,0.2,-1,0.5,-1.3,0.9c-0.3,0.5,-0.4,1,-0.3,1.6c0.1,0.5,0.3,0.9,0.8,1.3c0.5,0.4,1.1,0.5,1.7,0.4c0.7,-0.1,1.2,-0.5,1.5,-1.2c0.4,0.1,0.8,0.2,1.2,0.3c-0.2,0.6,-0.6,1.1,-1.2,1.5c-0.5,0.4,-1.1,0.6,-1.8,0.6l-0.2,0l-0.1,0c-0.2,0,-0.4,0,-0.6,-0.1c-0.7,-0.2,-1.3,-0.5,-1.7,-1c-0.5,-0.5,-0.7,-1.1,-0.8,-1.8c0,-0.1,0,-0.2,0,-0.3l0,-0.2c0,-0.2,0,-0.3,0,-0.4c0.1,-0.7,0.4,-1.3,0.9,-1.7c0.5,-0.6,1.1,-0.9,1.8,-1c0.4,-0.1,0.8,-0.1,1.2,0c0.5,0.1,1,0.3,1.5,0.7l0.1,0c0.2,-0.2,0.4,-0.4,0.6,-0.5c0.1,-0.2,0.3,-0.3,0.4,-0.4Z" class="g2_42" />
<path d="M1590.8,73.5l0,3.1c-0.4,-0.1,-0.8,-0.2,-1.2,-0.2c-0.5,-0.1,-1.1,-0.2,-1.6,-0.3c-0.1,0,-0.2,-0.1,-0.3,-0.1c0.4,-0.3,0.7,-0.6,1.1,-0.8c0,0,0,-0.1,0,-0.1c-0.1,0,-0.1,0,-0.1,0c-0.5,-0.3,-1,-0.4,-1.6,-0.3c-0.5,0.2,-1,0.5,-1.3,0.9c-0.3,0.5,-0.4,1,-0.3,1.6c0.1,0.5,0.3,0.9,0.8,1.3c0.5,0.4,1.1,0.5,1.7,0.4c0.7,-0.1,1.2,-0.5,1.5,-1.2c0.4,0.1,0.8,0.2,1.2,0.3c-0.2,0.6,-0.6,1.1,-1.2,1.5c-0.5,0.4,-1.1,0.6,-1.8,0.6l-0.2,0l-0.1,0c-0.2,0,-0.4,0,-0.6,-0.1c-0.7,-0.2,-1.3,-0.5,-1.7,-1c-0.5,-0.5,-0.7,-1.1,-0.8,-1.8c0,-0.1,0,-0.2,0,-0.3l0,-0.2c0,-0.2,0,-0.3,0,-0.4c0.1,-0.7,0.4,-1.3,0.9,-1.7c0.5,-0.6,1.1,-0.9,1.8,-1c0.4,-0.1,0.8,-0.1,1.2,0c0.5,0.1,1,0.3,1.5,0.7l0.1,0c0.2,-0.2,0.4,-0.4,0.6,-0.5c0.1,-0.2,0.3,-0.3,0.4,-0.4Z" class="g8_42" />
<path d="M1584.5,64.5l6,0" class="g9_42" />
<path d="M1584.5,65.5l6,0" class="g9_42" />
<path d="M1584.5,67.5l6,0" class="g9_42" />
<path d="M1179.9,74.5l-1.2,2.1l1.2,2.1" class="g10_42" />
<path d="M1184,759l274,0l0,-625l-274,0l0,625Z" class="g11_42" />
<path d="M1184,103l402,0l0,-19l-402,0l0,19Z" class="g12_42" />
<path d="M1184,125l402,0l0,-22l-402,0l0,22Z" class="g1_42" />
<path d="M1193.5,272.7c-0.3,0,-8.3,0.1,-8.3,8.3l0,86.6c0,0.3,0.1,8.3,8.3,8.3l256.8,0c0.3,0,8.3,-0.1,8.3,-8.3l0,-86.6c0,-0.4,-0.1,-8.3,-8.3,-8.3l-256.8,0Z" class="g13_42" />
<path d="M1193.5,272.7c-0.3,0,-8.3,0.1,-8.3,8.3l0,86.6c0,0.3,0.1,8.3,8.3,8.3l256.8,0c0.3,0,8.3,-0.1,8.3,-8.3l0,-86.6c0,-0.4,-0.1,-8.3,-8.3,-8.3l-256.8,0Z" class="g14_42" />
<path d="M1193.5,385.8c-0.3,0,-8.3,0.1,-8.3,8.3l0,86.6c0,0.4,0.1,8.3,8.3,8.3l256.8,0c0.3,0,8.3,-0.1,8.3,-8.3l0,-86.6c0,-0.3,-0.1,-8.3,-8.3,-8.3l-256.8,0Z" class="g13_42" />
<path d="M1193.5,385.8c-0.3,0,-8.3,0.1,-8.3,8.3l0,86.6c0,0.4,0.1,8.3,8.3,8.3l256.8,0c0.3,0,8.3,-0.1,8.3,-8.3l0,-86.6c0,-0.3,-0.1,-8.3,-8.3,-8.3l-256.8,0Z" class="g14_42" />
<path d="M1193.5,499c-0.3,0,-8.3,0.1,-8.3,8.2l0,86.7c0,0.3,0.1,8.3,8.3,8.3l256.8,0c0.3,0,8.3,-0.2,8.3,-8.3l0,-86.7c0,-0.3,-0.1,-8.2,-8.3,-8.2l-256.8,0Z" class="g13_42" />
<path d="M1193.5,499c-0.3,0,-8.3,0.1,-8.3,8.2l0,86.7c0,0.3,0.1,8.3,8.3,8.3l256.8,0c0.3,0,8.3,-0.2,8.3,-8.3l0,-86.7c0,-0.3,-0.1,-8.2,-8.3,-8.2l-256.8,0Z" class="g14_42" />
<path d="M1193.5,612.1c-0.3,0,-8.3,0.1,-8.3,8.3l0,86.6c0,0.4,0.1,8.3,8.3,8.3l256.8,0c0.3,0,8.3,-0.1,8.3,-8.3l0,-86.6c0,-0.4,-0.1,-8.3,-8.3,-8.3l-256.8,0Z" class="g13_42" />
<path d="M1193.5,612.1c-0.3,0,-8.3,0.1,-8.3,8.3l0,86.6c0,0.4,0.1,8.3,8.3,8.3l256.8,0c0.3,0,8.3,-0.1,8.3,-8.3l0,-86.6c0,-0.4,-0.1,-8.3,-8.3,-8.3l-256.8,0Z" class="g14_42" />
<path d="M1468,722l118,0l0,-588l-118,0l0,588Z" class="g15_42" />
<path d="M1476.8,385.9c-0.3,0,-8.3,0.1,-8.3,8.3l0,114c0,0.4,0.1,8.3,8.3,8.3l101.4,0c0.3,0,8.2,-0.1,8.2,-8.3l0,-114c0,-0.3,-0.1,-8.3,-8.2,-8.3l-101.4,0Z" class="g13_42" />
<path d="M1476.8,385.9c-0.3,0,-8.3,0.1,-8.3,8.3l0,114c0,0.4,0.1,8.3,8.3,8.3l101.4,0c0.3,0,8.2,-0.1,8.2,-8.3l0,-114c0,-0.3,-0.1,-8.3,-8.2,-8.3l-101.4,0Z" class="g14_42" />
<path d="M1476.8,527.9c-0.3,0,-8.3,0.1,-8.3,8.3l0,114c0,0.4,0.1,8.3,8.3,8.3l101.4,0c0.3,0,8.2,-0.1,8.2,-8.3l0,-114c0,-0.4,-0.1,-8.3,-8.2,-8.3l-101.4,0Z" class="g13_42" />
<path d="M1476.8,527.9c-0.3,0,-8.3,0.1,-8.3,8.3l0,114c0,0.4,0.1,8.3,8.3,8.3l101.4,0c0.3,0,8.2,-0.1,8.2,-8.3l0,-114c0,-0.4,-0.1,-8.3,-8.2,-8.3l-101.4,0Z" class="g14_42" />
<path d="M1190.8,168.1c-0.2,0,-5.7,0,-5.7,5.7l0,86.1c0,0.2,0.1,5.7,5.7,5.7l262,0c0.3,0,5.8,0,5.8,-5.7l0,-86.1c0,-0.2,-0.1,-5.7,-5.8,-5.7l-262,0Z" class="g2_42" />
<image x="1195" y="177" width="254" height="80" xlink:href="42/img/5.png" />
<path d="M1190.8,168.1c-0.2,0,-5.7,0,-5.7,5.7l0,86.1c0,0.2,0.1,5.7,5.7,5.7l262,0c0.3,0,5.8,0,5.8,-5.7l0,-86.1c0,-0.2,-0.1,-5.7,-5.8,-5.7l-262,0Z" class="g14_42" />
<path d="M1202.7,289.4c-0.4,0,-8.6,0.1,-8.6,8.6l0,49.7c0,0.4,0.1,8.6,8.6,8.6l38.5,0c0.3,0,8.6,-0.1,8.6,-8.6l0,-49.7c0,-0.4,-0.2,-8.6,-8.6,-8.6l-38.5,0Z" class="g2_42" />
<image x="1201" y="293" width="41" height="59" xlink:href="42/img/6.png" />
<path d="M1202.7,289.4c-0.4,0,-8.6,0.1,-8.6,8.6l0,49.7c0,0.4,0.1,8.6,8.6,8.6l38.5,0c0.3,0,8.6,-0.1,8.6,-8.6l0,-49.7c0,-0.4,-0.2,-8.6,-8.6,-8.6l-38.5,0Z" class="g14_42" />
<path d="M1202.7,402.5c-0.4,0,-8.6,0.1,-8.6,8.6l0,49.8c0,0.3,0.1,8.6,8.6,8.6l38.5,0c0.3,0,8.6,-0.2,8.6,-8.6l0,-49.8c0,-0.3,-0.2,-8.6,-8.6,-8.6l-38.5,0Z" class="g2_42" />
<image x="1201" y="416" width="41" height="40" xlink:href="42/img/7.png" />
<path d="M1202.7,402.5c-0.4,0,-8.6,0.1,-8.6,8.6l0,49.8c0,0.3,0.1,8.6,8.6,8.6l38.5,0c0.3,0,8.6,-0.2,8.6,-8.6l0,-49.8c0,-0.3,-0.2,-8.6,-8.6,-8.6l-38.5,0Z" class="g14_42" />
<path d="M1202.7,515.7c-0.4,0,-8.6,0.1,-8.6,8.6l0,49.7c0,0.4,0.1,8.6,8.6,8.6l38.5,0c0.3,0,8.6,-0.1,8.6,-8.6l0,-49.7c0,-0.4,-0.2,-8.6,-8.6,-8.6l-38.5,0Z" class="g2_42" />
<image x="1197" y="522" width="49" height="52" xlink:href="42/img/8.png" />
<path d="M1202.7,515.7c-0.4,0,-8.6,0.1,-8.6,8.6l0,49.7c0,0.4,0.1,8.6,8.6,8.6l38.5,0c0.3,0,8.6,-0.1,8.6,-8.6l0,-49.7c0,-0.4,-0.2,-8.6,-8.6,-8.6l-38.5,0Z" class="g14_42" />
<path d="M1202.7,628.8c-0.4,0,-8.6,0.1,-8.6,8.6l0,49.8c0,0.3,0.1,8.5,8.6,8.5l38.5,0c0.3,0,8.6,-0.1,8.6,-8.5l0,-49.8c0,-0.4,-0.2,-8.6,-8.6,-8.6l-38.5,0Z" class="g2_42" />
<image x="1197" y="636" width="49" height="52" xlink:href="42/img/9.png" />
<path d="M1202.7,628.8c-0.4,0,-8.6,0.1,-8.6,8.6l0,49.8c0,0.3,0.1,8.5,8.6,8.5l38.5,0c0.3,0,8.6,-0.1,8.6,-8.5l0,-49.8c0,-0.4,-0.2,-8.6,-8.6,-8.6l-38.5,0Z" class="g14_42" />
<path d="M1194,103.4c0,0,-9,0,-9,8.9l0,3.9c0,0,0,9,9,9l383.6,0c0,0,8.9,0,8.9,-9l0,-3.9c0,0,0,-8.9,-8.9,-8.9Z" class="g1_42" />
<path d="M1194,103.4c0,0,-9,0,-9,8.9l0,3.9c0,0,0,9,9,9l383.6,0c0,0,8.9,0,8.9,-9l0,-3.9c0,0,0,-8.9,-8.9,-8.9l-383.6,0Z" class="g16_42" />
<path d="M1184,759l414,0l0,-35l-414,0l0,35Z" class="g17_42" />
<path d="M962,835l0,41l260,0l0,-37l-5,0l0,-4Z" class="g3_42" />
<image x="1200" y="740" width="436" height="283" xlink:href="42/img/10.png" />
<path d="M1476.8,142.9c-0.3,0,-8.3,0.1,-8.3,8.2l0,216.6c0,0.3,0.1,8.3,8.3,8.3l101.4,0c0.3,0,8.2,-0.2,8.2,-8.3l0,-216.6c0,-0.3,-0.1,-8.2,-8.2,-8.2l-101.4,0Z" class="g13_42" />
<path d="M1476.8,142.9c-0.3,0,-8.3,0.1,-8.3,8.2l0,216.6c0,0.3,0.1,8.3,8.3,8.3l101.4,0c0.3,0,8.2,-0.2,8.2,-8.3l0,-216.6c0,-0.3,-0.1,-8.2,-8.2,-8.2l-101.4,0Z" class="g14_42" />
<image x="59" y="417" width="273" height="120" xlink:href="42/img/11.png" />
<image x="44" y="405" width="302" height="134" style="mix-blend-mode: multiply;" xlink:href="42/img/12.png" />
<text 
x="463" 
y="214" 
dx="0,0,0,0,0,0,0,0.1,0,0,0,0.1,0,0,0,0.1,0,0,0,0,0,0,0,0,0,0,0,0.1,0,0,0,0,0,0" 
class="s1_42"
>@media all and (min-width: 900px) </text>

<text 
x="463" 
y="235" 
dx="0" 
class="s1_42"
>{</text>

<text 
x="463" 
y="257" 
dx="0" 
class="s1_42"
>}</text>

<text 
x="55" 
y="674" 
dx="0,0,0,0,0,0,0,0,0,0,0,0,0,0,0,0,0,0,0,0,0,0,0,0,0,0,0,0,0,0,0,0,0,0" 
class="s1_42"
>@media all and (min-width: 900px) </text>

<text 
x="55" 
y="695" 
dx="0" 
class="s1_42"
>{</text>

<text 
x="55" 
y="717" 
dx="0,0,0,0,0,0,0,0,-1.8" 
class="s1_42"
>article {</text>

<text 
x="55" 
y="738" 
dx="0,0,0,0,0,0,0,-1.8,0,0,0,0" 
class="s1_42"
>float: left;</text>

<text 
x="55" 
y="759" 
dx="0,0,0,0,0,0,0,-1.8,0,0,0" 
class="s1_42"
>width: 66%;</text>

<text 
x="55" 
y="781" 
dx="0" 
class="s1_42"
>}</text>

<text 
x="55" 
y="802" 
dx="0,0,0,0,0,0,-1.8" 
class="s1_42"
>aside {</text>

<text 
x="55" 
y="824" 
dx="0,0,0,0,0,0,0,-1.8,0,0,0,0" 
class="s1_42"
>float: left;</text>

<text 
x="55" 
y="845" 
dx="0,0,0,0,0,0,0,0,0,0,0,0,0,0,-1.8,0,0,0,0" 
class="s1_42"
>padding-left: 24px;</text>

<text 
x="55" 
y="866" 
dx="0,0,0,0,0,0,0,-1.8,0,0,0" 
class="s1_42"
>width: 34%;</text>

<text 
x="55" 
y="888" 
dx="0" 
class="s1_42"
>}</text>

<text 
x="55" 
y="909" 
dx="0,0,0,0,0,0,0,-1.8" 
class="s1_42"
>footer {</text>

<text 
x="55" 
y="930" 
dx="0,0,0,0,0,0,0,-1.8,0,0,0,0" 
class="s1_42"
>clear: both;</text>

<text 
x="55" 
y="952" 
dx="0" 
class="s1_42"
>}</text>

<text 
x="55" 
y="973" 
dx="0" 
class="s1_42"
>}</text>

<text 
x="55" 
y="75" 
dx="0,0,0" 
class="s2_42"
>8. </text>

<text 
x="80" 
y="75" 
dx="0,0,0,0,-0.5,0,0,0,-0.5,0,0,0,-0.5,-0.3,0,0,0,0,0,-0.5,0,0,0,0,-0.3,0,0,0,0,0,0,-0.5,0,0,0,0,-0.5,0,0,-0.5,0,0,0,-0.5,0,0,0,0,0,0,0,-0.5,0,0,0,-0.5,0,0,-0.5,0,0,0,-0.5,0,0,0,0,0,0,0,0,0,0,-0.5,0,0,0,0,0,0,0,0,-0.5,0,-0.3,0,-0.5,0,0,0,0,0,0,0,0,-0.5,0,0,0,-0.5,0,0,-0.5,0,0,0" 
class="s3_42"
>Now for the really interesting bit. At the moment, all of our structural elements are arranged one on top </text>

<text 
x="55" 
y="96" 
dx="0,0,0,-0.3,0,0,0,-0.3,0,0,0,0,-1.4,0,-0.3,0,0,0,0,0,0,-0.3,0,0,0,0,-0.3,0,-0.3,0,0,0,0,-0.3,0,0,0,0,0,0,-0.3,0,0,-0.3,0,0,0,0,0,0,0,0,0,-0.3,-1.4,0.3,0,-0.3,-0.3,0,0,0,0,0,0,0,-0.3,0,0,0,0,-0.3,0,-0.3,0,0,0,0,0,-0.3,0,0,0,0,0,0,-0.3,0,0,-0.3,0,0,0,-0.3,0,0,0,0,-0.3,0,0,0,0,0,0,0,0" 
class="s3_42"
>of the other, rather like a long ladder of elements. Try resizing your browser window to see what happens. </text>

<text 
x="55" 
y="118" 
dx="0,0,0,0,0,0,0,0,0,-1.4,0,-0.2,0,0,0,-0.2,0,0,0,0,-0.2,0,0,0,0,0,0,-0.2,0,0,-0.3,0,0,0,0,0,0,0,-0.2,0,0,-0.2,0,0,-0.2,0,-0.2,0,0,0,0,0,0,0,-0.2,0,0,0,0,0,-0.2,0,0,-0.2,0,0,0,0,0,0,-0.2,0,0,0,-0.2,0,0,0,0,-0.2,0,0,0,0,0,-0.2,0,0,0,0,-0.2,0,0,0,-0.2,0,0,0,0,0,-0.2,0,0,0,-0.2,0,0,0,0" 
class="s3_42"
>Basically, the line length stretches, up to a maximum width of 1024px and then after that the right and left </text>

<text 
x="55" 
y="139" 
dx="0,0,0,0,0,0,0,0,-0.1,0,0,0,0,-0.1,0,0,0,-0.1,0,0,0,0,0,-0.8,0,-0.1,0,0,0,-0.1,0,0,-0.1,0,0,-0.1,0,0,0,0,-0.1,0,-0.1,0,0,0,0,0,0,-0.1,0,0,0,0,0,-0.1,0,0,0,0,0,0,0,0,0,-0.1,0,0,-0.1,0,0,0,0,0,-0.1,0,0,0,0,-0.1,0,0,0" 
class="s3_42"
>margins fill the window. But if we have a decent width available we could show the </text>

<path d="M627.4,137.8l0,-3.4c0,-1.9,-0.9,-2.8,-2.7,-2.8c-0.9,0,-1.9,0.3,-2.9,0.8l0.3,0.8c0.3,-0.1,0.7,-0.3,1.2,-0.4c0.4,-0.1,0.8,-0.2,1.1,-0.2c1.2,0,1.8,0.7,1.8,2l0,0.4l-1.3,0.1c-0.6,0,-1.1,0.1,-1.5,0.2c-0.4,0.1,-0.8,0.3,-1.1,0.5c-0.3,0.2,-0.5,0.4,-0.7,0.7c-0.1,0.3,-0.2,0.7,-0.2,1.1c0,0.6,0.2,1.1,0.7,1.5c0.4,0.5,0.9,0.7,1.5,0.7c1.1,0,2,-0.5,2.7,-1.5c0,0.5,0,0.9,0.1,1.3l1.2,0c-0.1,-0.6,-0.2,-1.2,-0.2,-1.8Zm-2.2,0.5c-0.4,0.2,-0.9,0.3,-1.3,0.3c-0.3,0,-0.7,-0.1,-0.9,-0.3c-0.2,-0.2,-0.4,-0.5,-0.4,-0.8c0,-0.4,0.2,-0.7,0.5,-0.9c0.2,-0.3,0.6,-0.4,1,-0.5c0.4,-0.1,1.1,-0.2,2.1,-0.3l0,1.5c-0.3,0.4,-0.6,0.7,-1,1Z" class="g18_42" />
<path d="M636,131.9c-0.7,-0.2,-1.4,-0.3,-2.1,-0.3c-0.9,0,-1.7,0.2,-2.3,0.6c-0.6,0.4,-0.9,0.9,-0.9,1.6c0,0.3,0.1,0.6,0.2,0.8c0.1,0.3,0.3,0.5,0.6,0.7c0.2,0.1,0.5,0.3,0.7,0.4c0.3,0.1,0.8,0.2,1.4,0.4c0.7,0.2,1.2,0.4,1.4,0.6c0.2,0.3,0.3,0.5,0.3,0.8c0,0.4,-0.2,0.7,-0.6,0.9c-0.4,0.3,-0.9,0.4,-1.6,0.4c-0.7,0,-1.4,-0.2,-2.1,-0.5l-0.2,1c0.6,0.3,1.4,0.5,2.4,0.5c0.9,0,1.7,-0.3,2.3,-0.7c0.7,-0.4,1,-1,1,-1.7c0,-0.4,-0.1,-0.8,-0.3,-1c-0.1,-0.3,-0.4,-0.6,-0.7,-0.8c-0.3,-0.2,-0.7,-0.3,-1.3,-0.5l-1.1,-0.3c-0.5,-0.2,-0.8,-0.3,-1,-0.5c-0.2,-0.1,-0.2,-0.3,-0.2,-0.6c0,-0.3,0.1,-0.6,0.5,-0.8c0.4,-0.2,0.9,-0.3,1.5,-0.3c0.6,0,1.2,0.1,1.9,0.3l0.2,-1Z" class="g18_42" />
<path d="M642.7,129.1c-0.2,0.1,-0.2,0.3,-0.2,0.5c0,0.3,0,0.4,0.2,0.6c0.1,0.2,0.3,0.2,0.5,0.2c0.3,0,0.4,0,0.6,-0.2c0.1,-0.1,0.2,-0.3,0.2,-0.6c0,-0.2,-0.1,-0.4,-0.2,-0.5c-0.2,-0.2,-0.4,-0.3,-0.6,-0.3c-0.2,0,-0.4,0.1,-0.5,0.3Zm1.1,2.7l-3.5,0l0,1l2.3,0l0,6.8l1.2,0l0,-7.8Z" class="g18_42" />
<path d="M654.9,129l-1.2,0l0,3.8c-0.6,-0.8,-1.4,-1.2,-2.4,-1.2c-0.8,0,-1.6,0.4,-2.1,1.1c-0.5,0.8,-0.8,1.7,-0.8,2.9c0,1.2,0.3,2.2,0.8,3c0.5,0.8,1.2,1.2,2.1,1.2c0.5,0,0.9,-0.2,1.4,-0.4c0.4,-0.3,0.8,-0.6,1,-1l0,1.2l1.2,0l0,-10.6Zm-1.6,8.8c-0.2,0.3,-0.5,0.5,-0.8,0.7c-0.3,0.1,-0.6,0.2,-0.9,0.2c-0.6,0,-1.1,-0.3,-1.5,-0.9c-0.3,-0.5,-0.5,-1.3,-0.5,-2.2c0,-0.9,0.2,-1.6,0.6,-2.1c0.3,-0.6,0.9,-0.9,1.5,-0.9c0.8,0,1.5,0.5,2,1.3l0,3.3c0,0,-0.1,0.2,-0.4,0.6Z" class="g18_42" />
<path d="M664.3,135.3c0,-1.1,-0.3,-2,-0.9,-2.7c-0.6,-0.7,-1.3,-1,-2.2,-1c-1,0,-1.9,0.4,-2.5,1.1c-0.6,0.7,-1,1.7,-1,2.9c0,1.3,0.4,2.3,1.1,3c0.7,0.8,1.6,1.2,2.8,1.2c0.9,0,1.7,-0.2,2.4,-0.5l-0.2,-0.9c-0.8,0.2,-1.5,0.3,-2.2,0.3c-0.7,0,-1.4,-0.2,-1.9,-0.8c-0.5,-0.6,-0.7,-1.3,-0.7,-2.2l5.3,0l0,-0.4ZM659,134.8c0.1,-0.7,0.3,-1.2,0.7,-1.6c0.4,-0.4,0.9,-0.6,1.5,-0.6c0.5,0,0.9,0.2,1.3,0.6c0.3,0.4,0.5,1,0.5,1.6l-4,0Z" class="g18_42" />
<text 
x="619" 
y="139" 
dx="0,0,0,0,0" 
class="s1_42"
>aside</text>

<text 
x="669" 
y="139" 
dx="0,0,0,0,0,0,0,0,-0.1,0,0,-0.1,0,0,0" 
class="s3_42"
>element to the </text>

<text 
x="55" 
y="160" 
dx="0,0,0,0,0,0,-0.9,0,0,-0.9,0,0,0" 
class="s3_42"
>right of the </text>

<path d="M137.6,159.1l0,-3.3c0,-1.9,-0.9,-2.8,-2.7,-2.8c-0.9,0,-1.9,0.3,-2.9,0.8l0.3,0.8c0.3,-0.1,0.7,-0.3,1.1,-0.4c0.5,-0.1,0.8,-0.2,1.1,-0.2c1.3,0,1.9,0.7,1.9,2l0,0.4l-1.3,0.1c-0.6,0,-1.1,0.1,-1.5,0.2c-0.4,0.1,-0.8,0.3,-1.1,0.5c-0.3,0.2,-0.5,0.4,-0.7,0.7c-0.1,0.3,-0.2,0.7,-0.2,1c0,0.7,0.2,1.2,0.6,1.6c0.5,0.4,1,0.6,1.6,0.6c1.1,0,2,-0.4,2.7,-1.4c0,0.5,0,0.9,0.1,1.2l1.2,0c-0.2,-0.5,-0.2,-1.1,-0.2,-1.8Zm-2.3,0.6c-0.4,0.2,-0.8,0.3,-1.2,0.3c-0.4,0,-0.7,-0.1,-0.9,-0.3c-0.3,-0.2,-0.4,-0.5,-0.4,-0.8c0,-0.4,0.1,-0.7,0.4,-0.9c0.3,-0.3,0.7,-0.4,1,-0.5c0.4,-0.1,1.2,-0.2,2.2,-0.3l0,1.4c-0.3,0.5,-0.7,0.8,-1.1,1.1Z" class="g18_42" />
<path d="M145.1,153c-0.9,0,-1.7,0.6,-2.4,1.7l0,-1.5l-1.1,0l0,7.7l1.1,0l0,-5c0,0,0.2,-0.2,0.4,-0.6c0.3,-0.4,0.6,-0.6,1,-0.8c0.3,-0.2,0.6,-0.3,1,-0.3c0.3,0,0.8,0.1,1.3,0.3l0.5,-1.1c-0.6,-0.3,-1.2,-0.4,-1.8,-0.4Z" class="g18_42" />
<path d="M155.8,159.7c-0.6,0.3,-1.3,0.4,-1.9,0.4c-0.4,0,-0.6,-0.1,-0.9,-0.4c-0.2,-0.2,-0.3,-0.6,-0.3,-1.1l0,-4.4l2.7,0l0,-1l-2.7,0l0,-2.2l-1.1,0l0,2.2l-1.5,0l0,1l1.5,0l0,4.7c0,1.5,0.7,2.2,2.1,2.2c0.7,0,1.5,-0.1,2.3,-0.5l-0.2,-0.9Z" class="g18_42" />
<path d="M162,150.5c-0.1,0.1,-0.2,0.3,-0.2,0.5c0,0.2,0.1,0.4,0.2,0.6c0.2,0.2,0.4,0.2,0.6,0.2c0.2,0,0.4,0,0.5,-0.2c0.2,-0.1,0.3,-0.3,0.3,-0.6c0,-0.2,-0.1,-0.4,-0.3,-0.5c-0.1,-0.2,-0.3,-0.3,-0.5,-0.3c-0.2,0,-0.4,0.1,-0.6,0.3Zm1.1,2.7l-3.4,0l0,1l2.3,0l0,6.7l1.1,0l0,-7.7Z" class="g18_42" />
<path d="M174,159.8c-0.7,0.2,-1.4,0.3,-2,0.3c-0.8,0,-1.5,-0.3,-2,-0.9c-0.6,-0.5,-0.8,-1.3,-0.8,-2.1c0,-1,0.2,-1.7,0.7,-2.3c0.5,-0.5,1.2,-0.8,2.1,-0.8c0.5,0,1.2,0.1,1.9,0.4l0.3,-1C173.5,153.1,172.7,153,172,153c-1.2,0,-2.2,0.4,-2.9,1.1c-0.8,0.7,-1.1,1.7,-1.1,3c0,1.2,0.3,2.2,1.1,2.9c0.7,0.8,1.7,1.1,2.9,1.1c0.8,0,1.5,-0.1,2.2,-0.4L174,159.8Z" class="g18_42" />
<path d="M182.5,159.5l-2,0l0,-9l-3,0l0,1l2,0l0,9l3,0l0,-1Z" class="g18_42" />
<path d="M192.8,156.7c0,-1.1,-0.3,-2,-0.9,-2.7c-0.6,-0.7,-1.3,-1,-2.2,-1c-1,0,-1.9,0.4,-2.5,1.1c-0.6,0.7,-0.9,1.7,-0.9,2.9c0,1.3,0.3,2.3,1,3c0.7,0.8,1.6,1.1,2.8,1.1c0.9,0,1.7,-0.1,2.4,-0.4l-0.2,-0.9c-0.7,0.2,-1.5,0.3,-2.2,0.3c-0.7,0,-1.3,-0.3,-1.9,-0.8c-0.5,-0.6,-0.7,-1.3,-0.7,-2.2l5.3,0l0,-0.4Zm-5.2,-0.6c0,-0.6,0.2,-1.1,0.6,-1.5c0.4,-0.4,0.9,-0.6,1.5,-0.6c0.5,0,0.9,0.2,1.3,0.6c0.4,0.4,0.5,0.9,0.5,1.5l-3.9,0Z" class="g18_42" />
<text 
x="129" 
y="160" 
dx="0,0,0,0,0,0,0" 
class="s1_42"
>article</text>

<text 
x="197" 
y="160" 
dx="0,0,0,0,0,0,0,0" 
class="s3_42"
>element.</text>

<text 
x="55" 
y="203" 
dx="0,-1.7,0,3.4,0,0,3.4,0,0,0,0,3.4,0,0,3.4,0,0,0,0,3.4,0,0,3.4,0,0,0,0,0,3.4,0,3.4,0,0,0,3.4,0,0,0,0,3.4,0,0,0,0,3.4,0,0,0,0,0" 
class="s3_42"
>To do this we need to write a CSS rule that says: </text>

<text 
x="55" 
y="225" 
dx="0,0,0,0,0,0,1.1,0,0,0,1.1,0,0,-0.3,0,0,0,1.1,0,0,1.1,0,0,0,0,0,1.1,0,1.1,0,0,0.3,0,0,0,0,1.1,0,0,0,0,0,0,1.1,0,0,0,0,1.1,0,0,0" 
class="s3_42"
>“when the screen is above a certain width, show the </text>

<path d="M62.8,244.7l0,-3.3c0,-1.9,-0.8,-2.9,-2.6,-2.9c-0.9,0,-1.9,0.3,-3,0.9l0.3,0.8c0.4,-0.2,0.7,-0.3,1.2,-0.5c0.4,-0.1,0.8,-0.2,1.1,-0.2c1.3,0,1.9,0.7,1.9,2l0,0.4L60.4,242c-0.6,0.1,-1.1,0.2,-1.5,0.3c-0.5,0.1,-0.8,0.2,-1.1,0.4c-0.3,0.2,-0.6,0.5,-0.7,0.8c-0.2,0.3,-0.2,0.6,-0.2,1c0,0.6,0.2,1.2,0.6,1.6c0.5,0.4,1,0.6,1.5,0.6c1.2,0,2.1,-0.5,2.7,-1.5c0,0.6,0.1,1,0.2,1.3l1.1,0c-0.1,-0.5,-0.2,-1.1,-0.2,-1.8Zm-2.2,0.5c-0.4,0.3,-0.8,0.4,-1.2,0.4c-0.4,0,-0.7,-0.1,-1,-0.3c-0.2,-0.3,-0.3,-0.5,-0.3,-0.9c0,-0.4,0.1,-0.7,0.4,-0.9c0.3,-0.2,0.6,-0.4,1,-0.4c0.4,-0.1,1.1,-0.2,2.2,-0.3l0,1.4c-0.3,0.4,-0.7,0.8,-1.1,1Z" class="g18_42" />
<path d="M70.4,238.5c-1,0,-1.8,0.6,-2.4,1.8l0,-1.6l-1.2,0l0,7.8l1.2,0l0,-5c0,-0.1,0.1,-0.3,0.4,-0.6c0.3,-0.4,0.6,-0.7,0.9,-0.9c0.4,-0.2,0.7,-0.3,1,-0.3c0.4,0,0.8,0.1,1.4,0.4l0.4,-1.2c-0.5,-0.2,-1.1,-0.4,-1.7,-0.4Z" class="g18_42" />
<path d="M81.1,245.2c-0.7,0.3,-1.3,0.5,-1.9,0.5c-0.4,0,-0.7,-0.2,-0.9,-0.4C78.1,245,78,244.7,78,244.2l0,-4.5l2.6,0l0,-1l-2.6,0l0,-2.1l-1.1,0l0,2.1l-1.5,0l0,1l1.5,0l0,4.8c0,1.5,0.7,2.2,2,2.2c0.8,0,1.6,-0.2,2.4,-0.5l-0.2,-1Z" class="g18_42" />
<path d="M87.3,236c-0.2,0.2,-0.2,0.4,-0.2,0.6c0,0.2,0,0.4,0.2,0.6c0.2,0.1,0.3,0.2,0.5,0.2c0.3,0,0.5,-0.1,0.6,-0.2c0.2,-0.2,0.2,-0.4,0.2,-0.6c0,-0.2,0,-0.4,-0.2,-0.6c-0.2,-0.1,-0.3,-0.2,-0.6,-0.2c-0.2,0,-0.3,0.1,-0.5,0.2Zm1.1,2.7l-3.4,0l0,1l2.2,0l0,6.8l1.2,0l0,-7.8Z" class="g18_42" />
<path d="M99.3,245.3c-0.7,0.3,-1.4,0.4,-2,0.4c-0.9,0,-1.5,-0.3,-2.1,-0.9c-0.5,-0.6,-0.7,-1.3,-0.7,-2.2c0,-0.9,0.2,-1.7,0.7,-2.2c0.5,-0.6,1.2,-0.9,2,-0.9c0.6,0,1.2,0.2,2,0.4L99.5,239c-0.7,-0.3,-1.5,-0.5,-2.3,-0.5c-1.2,0,-2.1,0.4,-2.9,1.2c-0.7,0.7,-1.1,1.7,-1.1,2.9c0,1.3,0.4,2.2,1.1,3c0.8,0.7,1.7,1.1,3,1.1c0.8,0,1.5,-0.2,2.2,-0.5l-0.2,-0.9Z" class="g18_42" />
<path d="M108.5,245.5l-2,0l0,-10l-4,0l0,1l2,0l0,10l4,0l0,-1Z" class="g18_42" />
<path d="M118.1,242.3c0,-1.1,-0.3,-2.1,-0.9,-2.7c-0.6,-0.7,-1.4,-1.1,-2.3,-1.1c-1,0,-1.8,0.4,-2.4,1.1c-0.7,0.8,-1,1.8,-1,3c0,1.3,0.4,2.2,1.1,3c0.7,0.7,1.6,1.1,2.8,1.1c0.9,0,1.7,-0.2,2.4,-0.5l-0.2,-0.9c-0.8,0.3,-1.5,0.4,-2.2,0.4c-0.8,0,-1.4,-0.3,-1.9,-0.9c-0.5,-0.5,-0.7,-1.3,-0.7,-2.1l5.3,0l0,-0.4Zm-5.3,-0.6c0.1,-0.6,0.3,-1.2,0.7,-1.6c0.4,-0.4,0.9,-0.6,1.5,-0.6c0.4,0,0.9,0.3,1.2,0.7c0.4,0.4,0.6,0.9,0.6,1.5l-4,0Z" class="g18_42" />
<text 
x="55" 
y="246" 
dx="0,0,0,0,0,0,0" 
class="s1_42"
>article</text>

<text 
x="125" 
y="246" 
dx="0,0,0,0" 
class="s3_42"
>and </text>

<path d="M164.9,244.7l0,-3.3c0,-1.9,-0.8,-2.9,-2.6,-2.9c-0.9,0,-1.9,0.3,-3,0.9l0.3,0.8c0.4,-0.2,0.7,-0.3,1.2,-0.5c0.4,-0.1,0.8,-0.2,1.1,-0.2c1.3,0,1.9,0.7,1.9,2l0,0.4l-1.3,0.1c-0.6,0.1,-1.1,0.2,-1.5,0.3c-0.5,0.1,-0.8,0.2,-1.1,0.4c-0.3,0.2,-0.6,0.5,-0.7,0.8c-0.2,0.3,-0.2,0.6,-0.2,1c0,0.6,0.2,1.2,0.6,1.6c0.5,0.4,1,0.6,1.5,0.6c1.2,0,2.1,-0.5,2.7,-1.5c0,0.6,0.1,1,0.2,1.3l1.1,0c-0.1,-0.5,-0.2,-1.1,-0.2,-1.8Zm-2.2,0.5c-0.4,0.3,-0.8,0.4,-1.2,0.4c-0.4,0,-0.7,-0.1,-1,-0.3c-0.2,-0.3,-0.3,-0.5,-0.3,-0.9c0,-0.4,0.1,-0.7,0.4,-0.9c0.3,-0.2,0.6,-0.4,1,-0.4c0.4,-0.1,1.1,-0.2,2.2,-0.3l0,1.4c-0.3,0.4,-0.7,0.8,-1.1,1Z" class="g18_42" />
<path d="M173.6,238.9c-0.8,-0.3,-1.5,-0.4,-2.1,-0.4c-1,0,-1.8,0.2,-2.4,0.6c-0.6,0.4,-0.8,1,-0.8,1.6c0,0.3,0,0.6,0.1,0.9c0.2,0.2,0.4,0.4,0.6,0.6c0.2,0.2,0.5,0.3,0.8,0.4c0.3,0.1,0.7,0.2,1.3,0.4c0.8,0.3,1.2,0.5,1.4,0.7c0.2,0.2,0.3,0.4,0.3,0.7c0,0.4,-0.2,0.7,-0.6,1c-0.4,0.2,-0.9,0.3,-1.5,0.3c-0.8,0,-1.5,-0.1,-2.1,-0.4l-0.3,1c0.7,0.3,1.4,0.4,2.4,0.4c1,0,1.8,-0.2,2.4,-0.6c0.6,-0.5,0.9,-1.1,0.9,-1.8c0,-0.4,-0.1,-0.7,-0.2,-1c-0.2,-0.3,-0.4,-0.5,-0.8,-0.7c-0.3,-0.2,-0.7,-0.4,-1.2,-0.5l-1.1,-0.4c-0.5,-0.1,-0.9,-0.3,-1,-0.4c-0.2,-0.2,-0.3,-0.4,-0.3,-0.6c0,-0.4,0.2,-0.7,0.6,-0.9c0.3,-0.2,0.8,-0.3,1.5,-0.3c0.5,0,1.1,0.1,1.8,0.3l0.3,-0.9Z" class="g18_42" />
<path d="M180.2,236c-0.1,0.2,-0.2,0.4,-0.2,0.6c0,0.2,0.1,0.4,0.2,0.6c0.2,0.1,0.4,0.2,0.6,0.2c0.2,0,0.4,-0.1,0.5,-0.2c0.2,-0.2,0.3,-0.4,0.3,-0.6c0,-0.2,-0.1,-0.4,-0.3,-0.6c-0.1,-0.1,-0.3,-0.2,-0.5,-0.2c-0.2,0,-0.4,0.1,-0.6,0.2Zm1.1,2.7l-3.4,0l0,1l2.3,0l0,6.8l1.1,0l0,-7.8Z" class="g18_42" />
<path d="M192.4,236l-1.1,0l0,3.7c-0.6,-0.8,-1.4,-1.2,-2.4,-1.2c-0.9,0,-1.6,0.4,-2.2,1.2c-0.5,0.7,-0.8,1.7,-0.8,2.8c0,1.2,0.3,2.2,0.8,3c0.5,0.8,1.2,1.2,2.1,1.2c0.5,0,1,-0.1,1.4,-0.4c0.5,-0.2,0.8,-0.5,1.1,-0.9l0,1.1l1.1,0l0,-10.5Zm-1.5,8.7c-0.3,0.3,-0.6,0.6,-0.9,0.7c-0.3,0.2,-0.6,0.3,-0.9,0.3c-0.6,0,-1.1,-0.3,-1.4,-0.9c-0.4,-0.6,-0.5,-1.3,-0.5,-2.2c0,-0.9,0.1,-1.6,0.5,-2.2c0.4,-0.6,0.9,-0.9,1.5,-0.9c0.8,0,1.5,0.5,2.1,1.4l0,3.2c0,0.1,-0.2,0.3,-0.4,0.6Z" class="g18_42" />
<path d="M201.8,242.3c0,-1.1,-0.3,-2.1,-0.9,-2.7c-0.6,-0.7,-1.3,-1.1,-2.2,-1.1c-1,0,-1.8,0.4,-2.5,1.1c-0.6,0.8,-0.9,1.8,-0.9,3c0,1.3,0.3,2.2,1,3c0.8,0.7,1.7,1.1,2.8,1.1c1,0,1.8,-0.2,2.4,-0.5l-0.2,-0.9c-0.7,0.3,-1.4,0.4,-2.1,0.4c-0.8,0,-1.4,-0.3,-1.9,-0.9c-0.5,-0.5,-0.8,-1.3,-0.8,-2.1l5.3,0l0,-0.4Zm-5.2,-0.6c0,-0.6,0.3,-1.2,0.6,-1.6c0.4,-0.4,0.9,-0.6,1.5,-0.6c0.5,0,0.9,0.3,1.3,0.7c0.4,0.4,0.6,0.9,0.6,1.5l-4,0Z" class="g18_42" />
<text 
x="157" 
y="246" 
dx="0,0,0,0,0" 
class="s1_42"
>aside</text>

<text 
x="208" 
y="246" 
dx="0,0,0,0,0,0,0,0,0,1.6,0,0,0,0,1.6,0,0,1.6,0,0,0,0,0,1.6,-0.3,0,1.6,0,0" 
class="s3_42"
>elements side by side” We do </text>

<text 
x="55" 
y="267" 
dx="0,0,0,0,0,-0.3,0,0,0,0,0,-0.3,0,-0.3,0,0,0,0,0,0,0,-0.3,0,0,0,0,-0.3,0,0,-0.3,0,0,0,0,-0.3,0,0,0,0,0,0,-0.3,0" 
class="s3_42"
>this using a special type of rule called a </text>

<text 
x="327" 
y="267" 
dx="0,0,0,0,0,0,-0.3,0,0,0,0.1,-1.2,-0.6" 
class="s4_42"
>media query. </text>

<text 
x="55" 
y="289" 
dx="0,0,0,0,0,-0.9,0,0,-0.9,0,0,0,-0.9,0,0,0,0,0,-0.9,0,0,0,0.3,0" 
class="s3_42"
>This is our media query:</text>

<text 
x="55" 
y="332" 
dx="0,0,0,3.1,0,0,0,0,0,0,3.1,0,0,0,0,3.1,0,3.1,0,0,0,0,0,0,0,0,0,3.1,0,0,0,0,0,3.1,0,0,0,0" 
class="s3_42"
>It begins with a statement which says </text>

<text 
x="55" 
y="353" 
dx="0,0,0,0,0,0.2,0,0,0,0.2,0,0,0,0.3,0,0.2,0,0,0,0,0.2,0,0,0.2,0,0,0,0,0,0,0,0" 
class="s3_42"
>when the query will be applied. </text>

<path d="M280.9,353.4c-0.7,0.3,-1.5,0.5,-2.3,0.5c-0.9,0,-1.7,-0.5,-2.3,-1.3c-0.6,-0.8,-0.9,-2,-0.9,-3.4c0,-1.7,0.3,-3.1,0.9,-4.1c0.6,-1,1.3,-1.6,2.3,-1.6c0.9,0,1.6,0.4,2.2,1.2c0.5,0.8,0.8,1.8,0.8,3.1c0,0.9,-0.2,1.7,-0.4,2.3c-0.3,0.6,-0.6,0.9,-1,0.9c0,0,-0.1,-0.1,-0.2,-0.2c0,-0.1,-0.1,-0.2,-0.1,-0.3c0,-0.2,0.2,-1.6,0.5,-4.3l-0.9,0l-0.1,0.2c-0.2,-0.2,-0.5,-0.3,-0.7,-0.3c-0.7,0,-1.2,0.3,-1.6,1c-0.5,0.7,-0.7,1.5,-0.7,2.5c0,0.7,0.1,1.2,0.4,1.6c0.2,0.4,0.6,0.6,0.9,0.6c0.6,0,1,-0.3,1.3,-0.9c0.1,0.6,0.4,0.9,0.9,0.9c0.7,0,1.3,-0.4,1.8,-1.1c0.5,-0.8,0.7,-1.7,0.7,-2.9c0,-1.5,-0.4,-2.8,-1.1,-3.7c-0.7,-0.9,-1.6,-1.3,-2.7,-1.3c-1.2,0,-2.2,0.6,-2.9,1.7c-0.7,1.2,-1.1,2.7,-1.1,4.7c0,1.7,0.4,3,1.1,4c0.8,1,1.7,1.5,2.9,1.5c0.9,0,1.7,-0.3,2.5,-0.7l-0.2,-0.6ZM279,350c0,0.1,-0.1,0.3,-0.3,0.6c-0.2,0.2,-0.4,0.4,-0.7,0.4c-0.2,0,-0.3,-0.2,-0.5,-0.4c-0.1,-0.3,-0.1,-0.6,-0.1,-1.1c0,-0.8,0.1,-1.4,0.3,-1.9c0.3,-0.5,0.6,-0.7,1,-0.7c0.3,0,0.5,0.1,0.6,0.3L279,350Z" class="g18_42" />
<path d="M291.2,348c0,-1.7,-0.4,-2.5,-1.4,-2.5c-0.3,0,-0.6,0.1,-0.9,0.4c-0.3,0.2,-0.5,0.5,-0.8,0.9c-0.1,-0.4,-0.2,-0.7,-0.5,-0.9c-0.2,-0.3,-0.5,-0.4,-0.8,-0.4c-0.3,0,-0.6,0.1,-0.9,0.4c-0.3,0.2,-0.6,0.5,-0.8,0.9l0,-1.1l-1.1,0l0,7.7l1.1,0l0,-5.6c0,0,0.2,-0.2,0.5,-0.7c0.2,-0.4,0.5,-0.6,0.7,-0.6c0.5,0,0.7,0.6,0.7,1.8l0,5.1l1.2,0l0,-5.6c0,0,0.1,-0.2,0.4,-0.7c0.3,-0.4,0.5,-0.6,0.8,-0.6c0.4,0,0.7,0.6,0.7,1.8l0,5.1l1.1,0l0,-5.4Z" class="g18_42" />
<path d="M300,349.2c0,-1.1,-0.3,-2,-0.9,-2.7c-0.6,-0.7,-1.3,-1,-2.2,-1c-1,0,-1.9,0.4,-2.5,1.1c-0.6,0.7,-0.9,1.7,-0.9,2.9c0,1.3,0.3,2.3,1,3c0.7,0.8,1.6,1.1,2.8,1.1c0.9,0,1.7,-0.1,2.4,-0.4l-0.2,-0.9c-0.7,0.2,-1.5,0.3,-2.2,0.3c-0.7,0,-1.4,-0.3,-1.9,-0.8c-0.5,-0.6,-0.7,-1.3,-0.7,-2.2l5.3,0l0,-0.4Zm-5.2,-0.6c0,-0.6,0.2,-1.1,0.6,-1.5c0.4,-0.4,0.9,-0.6,1.5,-0.6c0.5,0,0.9,0.2,1.3,0.6c0.4,0.4,0.5,0.9,0.5,1.5l-3.9,0Z" class="g18_42" />
<path d="M308.9,342.9l-1.1,0l0,3.8c-0.6,-0.8,-1.4,-1.2,-2.4,-1.2c-0.9,0,-1.6,0.4,-2.2,1.1c-0.5,0.8,-0.8,1.7,-0.8,2.8c0,1.3,0.3,2.3,0.8,3.1c0.5,0.8,1.2,1.1,2.1,1.1c0.5,0,1,-0.1,1.4,-0.3c0.5,-0.3,0.8,-0.6,1.1,-1l0,1.1l1.1,0l0,-10.5Zm-1.5,8.7c-0.3,0.4,-0.6,0.6,-0.9,0.8c-0.3,0.1,-0.6,0.2,-0.9,0.2c-0.6,0,-1.1,-0.3,-1.4,-0.9c-0.4,-0.6,-0.5,-1.3,-0.5,-2.2c0,-0.9,0.1,-1.6,0.5,-2.2c0.4,-0.5,0.9,-0.8,1.5,-0.8c0.8,0,1.5,0.4,2.1,1.3l0,3.3c0,0,-0.2,0.2,-0.4,0.5Z" class="g18_42" />
<path d="M315.1,343c-0.2,0.1,-0.3,0.3,-0.3,0.5c0,0.2,0.1,0.4,0.3,0.6c0.1,0.2,0.3,0.2,0.5,0.2c0.2,0,0.4,0,0.6,-0.2c0.1,-0.1,0.2,-0.3,0.2,-0.6c0,-0.2,-0.1,-0.4,-0.2,-0.5c-0.2,-0.2,-0.4,-0.3,-0.6,-0.3c-0.2,0,-0.4,0.1,-0.5,0.3Zm1.1,2.7l-3.5,0l0,1l2.3,0l0,6.7l1.2,0l0,-7.7Z" class="g18_42" />
<path d="M327.3,351.6l0,-3.3c0,-1.9,-0.9,-2.8,-2.7,-2.8c-0.9,0,-1.9,0.3,-2.9,0.8l0.3,0.8c0.3,-0.1,0.7,-0.3,1.1,-0.4c0.5,-0.1,0.9,-0.2,1.2,-0.2c1.2,0,1.8,0.7,1.8,2l0,0.4l-1.3,0.1c-0.6,0,-1.1,0.1,-1.5,0.2c-0.4,0.1,-0.8,0.3,-1.1,0.5c-0.3,0.2,-0.5,0.4,-0.7,0.7c-0.1,0.3,-0.2,0.7,-0.2,1c0,0.7,0.2,1.2,0.7,1.6c0.4,0.4,0.9,0.6,1.5,0.6c1.1,0,2,-0.4,2.7,-1.4c0,0.5,0,0.9,0.1,1.2l1.2,0c-0.2,-0.5,-0.2,-1.1,-0.2,-1.8Zm-2.3,0.6c-0.4,0.2,-0.8,0.3,-1.2,0.3c-0.4,0,-0.7,-0.1,-0.9,-0.3c-0.3,-0.2,-0.4,-0.5,-0.4,-0.8c0,-0.4,0.2,-0.7,0.4,-0.9c0.3,-0.3,0.7,-0.4,1.1,-0.5c0.3,-0.1,1.1,-0.2,2.1,-0.3l0,1.4c-0.3,0.5,-0.6,0.8,-1.1,1.1Z" class="g18_42" />
<text 
x="273" 
y="353" 
dx="0,0,0,0,0,0,0" 
class="s1_42"
>@media </text>

<path d="M62.8,373l0,-3.3c0,-1.9,-0.8,-2.8,-2.6,-2.8c-0.9,0,-1.9,0.2,-3,0.8l0.3,0.8c0.4,-0.2,0.7,-0.3,1.2,-0.4c0.4,-0.2,0.8,-0.2,1.1,-0.2c1.3,0,1.9,0.6,1.9,2l0,0.4l-1.3,0.1c-0.6,0,-1.1,0.1,-1.5,0.2c-0.5,0.1,-0.8,0.3,-1.1,0.5c-0.3,0.2,-0.6,0.4,-0.7,0.7c-0.2,0.3,-0.2,0.7,-0.2,1c0,0.7,0.2,1.2,0.6,1.6c0.5,0.4,1,0.6,1.5,0.6c1.2,0,2.1,-0.4,2.7,-1.4c0,0.5,0.1,0.9,0.2,1.2l1.1,0c-0.1,-0.5,-0.2,-1.1,-0.2,-1.8Zm-2.2,0.5c-0.4,0.3,-0.8,0.4,-1.2,0.4c-0.4,0,-0.7,-0.1,-1,-0.3c-0.2,-0.2,-0.3,-0.5,-0.3,-0.8c0,-0.4,0.1,-0.7,0.4,-1c0.3,-0.2,0.6,-0.3,1,-0.4c0.4,-0.1,1.1,-0.2,2.2,-0.3l0,1.4c-0.3,0.5,-0.7,0.8,-1.1,1Z" class="g18_42" />
<path d="M71.5,373.5l-2,0l0,-9l-3,0l0,1l2,0l0,9l3,0l0,-1Z" class="g18_42" />
<path d="M80.5,373.5l-2,0l0,-9l-3,0l0,1l2,0l0,9l3,0l0,-1Z" class="g18_42" />
<path d="M109.8,373l0,-3.3c0,-1.9,-0.8,-2.8,-2.6,-2.8c-0.9,0,-1.9,0.2,-3,0.8l0.3,0.8c0.4,-0.2,0.8,-0.3,1.2,-0.4c0.5,-0.2,0.8,-0.2,1.1,-0.2c1.3,0,1.9,0.6,1.9,2l0,0.4l-1.3,0.1c-0.6,0,-1.1,0.1,-1.5,0.2c-0.5,0.1,-0.8,0.3,-1.1,0.5c-0.3,0.2,-0.6,0.4,-0.7,0.7c-0.2,0.3,-0.2,0.7,-0.2,1c0,0.7,0.2,1.2,0.6,1.6c0.5,0.4,1,0.6,1.5,0.6c1.2,0,2.1,-0.4,2.7,-1.4c0,0.5,0.1,0.9,0.2,1.2l1.1,0c-0.1,-0.5,-0.2,-1.1,-0.2,-1.8Zm-2.2,0.5c-0.4,0.3,-0.8,0.4,-1.2,0.4c-0.4,0,-0.7,-0.1,-1,-0.3c-0.2,-0.2,-0.3,-0.5,-0.3,-0.8c0,-0.4,0.1,-0.7,0.4,-1c0.3,-0.2,0.6,-0.3,1,-0.4c0.4,-0.1,1.1,-0.2,2.2,-0.3l0,1.4c-0.3,0.5,-0.7,0.8,-1.1,1Z" class="g18_42" />
<path d="M119,369.5c0,-1.7,-0.7,-2.6,-2.2,-2.6c-0.9,0,-1.8,0.4,-2.6,1.3l0,-1.1l-1.2,0l0,7.7l1.2,0l0,-5.6c0.8,-0.9,1.6,-1.3,2.3,-1.3c0.4,0,0.8,0.1,1,0.4c0.2,0.4,0.3,0.9,0.3,1.6l0,4.9l1.2,0l0,-5.3Z" class="g18_42" />
<path d="M128.2,364.3l-1.2,0l0,3.8c-0.6,-0.8,-1.4,-1.2,-2.4,-1.2c-0.9,0,-1.6,0.3,-2.1,1.1c-0.6,0.7,-0.8,1.7,-0.8,2.8c0,1.2,0.2,2.3,0.7,3c0.6,0.8,1.3,1.2,2.2,1.2c0.4,0,0.9,-0.1,1.4,-0.3c0.4,-0.3,0.7,-0.6,1,-1l0,1.1l1.2,0l0,-10.5Zm-1.6,8.7c-0.3,0.4,-0.6,0.6,-0.8,0.8c-0.3,0.1,-0.6,0.2,-0.9,0.2c-0.7,0,-1.1,-0.3,-1.5,-0.9c-0.3,-0.6,-0.5,-1.3,-0.5,-2.2c0,-0.9,0.2,-1.6,0.6,-2.2c0.3,-0.5,0.8,-0.8,1.5,-0.8c0.8,0,1.4,0.4,2,1.3l0,3.3c0,0,-0.1,0.2,-0.4,0.5Z" class="g18_42" />
<path d="M154.5,373.9c-0.5,-0.9,-0.7,-2,-0.7,-3.3c0,-1.3,0.2,-2.4,0.6,-3.3c0.4,-0.9,1.1,-1.7,2,-2.5l-0.5,-0.7c-1.1,0.9,-1.9,1.8,-2.5,2.9c-0.6,1.1,-0.9,2.3,-0.9,3.6c0,1.2,0.3,2.4,0.9,3.5c0.6,1.1,1.4,2.1,2.5,2.9l0.5,-0.6c-0.9,-0.8,-1.5,-1.6,-1.9,-2.5Z" class="g18_42" />
<path d="M166.6,369.4c0,-1.7,-0.4,-2.5,-1.4,-2.5c-0.3,0,-0.6,0.1,-0.9,0.3c-0.3,0.3,-0.5,0.6,-0.8,1c-0.1,-0.4,-0.2,-0.7,-0.5,-1c-0.2,-0.2,-0.5,-0.3,-0.8,-0.3c-0.3,0,-0.6,0.1,-0.9,0.3c-0.3,0.3,-0.6,0.6,-0.8,1l0,-1.1l-1.1,0l0,7.7l1.1,0l0,-5.6c0,0,0.2,-0.3,0.5,-0.7c0.2,-0.4,0.5,-0.6,0.7,-0.6c0.5,0,0.7,0.6,0.7,1.8l0,5.1l1.2,0l0,-5.6c0,0,0.1,-0.3,0.4,-0.7c0.3,-0.4,0.5,-0.6,0.8,-0.6c0.4,0,0.7,0.6,0.7,1.8l0,5.1l1.1,0l0,-5.4Z" class="g18_42" />
<path d="M172.1,364.4c-0.1,0.1,-0.2,0.3,-0.2,0.5c0,0.2,0.1,0.4,0.2,0.6c0.2,0.1,0.4,0.2,0.6,0.2c0.2,0,0.4,-0.1,0.5,-0.2c0.2,-0.2,0.3,-0.4,0.3,-0.6c0,-0.2,-0.1,-0.4,-0.3,-0.5c-0.1,-0.2,-0.3,-0.3,-0.5,-0.3c-0.2,0,-0.4,0.1,-0.6,0.3Zm1.1,2.7l-3.4,0l0,1l2.3,0l0,6.7l1.1,0l0,-7.7Z" class="g18_42" />
<path d="M184.4,369.5c0,-1.7,-0.8,-2.6,-2.2,-2.6c-1,0,-1.8,0.4,-2.7,1.3l0,-1.1l-1.1,0l0,7.7l1.1,0l0,-5.6c0.8,-0.9,1.6,-1.3,2.3,-1.3c0.5,0,0.8,0.1,1.1,0.4c0.2,0.4,0.3,0.9,0.3,1.6l0,4.9l1.2,0l0,-5.3Z" class="g18_42" />
<path d="M192.5,370.5l-4,0l0,1l4,0l0,-1Z" class="g18_42" />
<path d="M202.4,367.1l-0.6,5.7l-1.4,-3.4l-1.2,0l-1.5,3.4c0,-0.2,-0.2,-2.1,-0.6,-5.7l-1.1,0l1,7.7l0.9,0l1.9,-4.4l1.8,4.4l0.9,0l1.1,-7.7l-1.2,0Z" class="g18_42" />
<path d="M208.8,364.4c-0.1,0.1,-0.2,0.3,-0.2,0.5c0,0.2,0.1,0.4,0.2,0.6c0.2,0.1,0.3,0.2,0.5,0.2c0.3,0,0.5,-0.1,0.6,-0.2c0.2,-0.2,0.2,-0.4,0.2,-0.6c0,-0.2,0,-0.4,-0.2,-0.5c-0.1,-0.2,-0.3,-0.3,-0.6,-0.3c-0.2,0,-0.3,0.1,-0.5,0.3Zm1.1,2.7l-3.4,0l0,1l2.3,0l0,6.7l1.1,0l0,-7.7Z" class="g18_42" />
<path d="M221,364.3l-1.2,0l0,3.8c-0.6,-0.8,-1.4,-1.2,-2.3,-1.2c-0.9,0,-1.6,0.3,-2.2,1.1c-0.5,0.7,-0.8,1.7,-0.8,2.8c0,1.2,0.3,2.3,0.8,3c0.5,0.8,1.2,1.2,2.1,1.2c0.5,0,1,-0.1,1.4,-0.3c0.4,-0.3,0.8,-0.6,1,-1l0,1.1l1.2,0l0,-10.5Zm-1.6,8.7c-0.2,0.4,-0.5,0.6,-0.8,0.8c-0.3,0.1,-0.6,0.2,-0.9,0.2c-0.6,0,-1.1,-0.3,-1.4,-0.9c-0.4,-0.6,-0.6,-1.3,-0.6,-2.2c0,-0.9,0.2,-1.6,0.6,-2.2c0.4,-0.5,0.9,-0.8,1.5,-0.8c0.8,0,1.5,0.4,2,1.3l0,3.3c0,0,-0.1,0.2,-0.4,0.5Z" class="g18_42" />
<path d="M230.1,373.6c-0.7,0.3,-1.3,0.4,-1.9,0.4c-0.4,0,-0.7,-0.1,-0.9,-0.4C227.1,373.4,227,373,227,372.5l0,-4.4l2.7,0l0,-1l-2.7,0l0,-2.2l-1.1,0l0,2.2l-1.5,0l0,1l1.5,0l0,4.7c0,1.5,0.7,2.2,2.1,2.2c0.7,0,1.5,-0.2,2.3,-0.5l-0.2,-0.9Z" class="g18_42" />
<path d="M239.4,369.5c0,-1.7,-0.8,-2.6,-2.2,-2.6c-0.9,0,-1.8,0.4,-2.7,1.3l0,-3.9l-1.1,0l0,10.5l1.1,0l0,-5.6c0.9,-0.9,1.6,-1.3,2.3,-1.3c0.5,0,0.8,0.1,1.1,0.4c0.2,0.4,0.3,0.9,0.3,1.6l0,4.9l1.2,0l0,-5.3Z" class="g18_42" />
<path d="M244.8,367.2c-0.1,0.2,-0.2,0.4,-0.2,0.6c0,0.3,0.1,0.5,0.2,0.7c0.2,0.1,0.4,0.2,0.7,0.2c0.2,0,0.4,-0.1,0.6,-0.2c0.2,-0.2,0.3,-0.4,0.3,-0.7c0,-0.2,-0.1,-0.4,-0.3,-0.6C245.9,367,245.7,367,245.5,367c-0.3,0,-0.5,0,-0.7,0.2Zm0,6.2c-0.1,0.2,-0.2,0.4,-0.2,0.7c0,0.2,0.1,0.4,0.2,0.6c0.2,0.2,0.4,0.3,0.7,0.3c0.2,0,0.4,-0.1,0.6,-0.3c0.2,-0.2,0.3,-0.4,0.3,-0.6c0,-0.3,-0.1,-0.5,-0.3,-0.7c-0.2,-0.1,-0.4,-0.2,-0.6,-0.2c-0.3,0,-0.5,0.1,-0.7,0.2Z" class="g18_42" />
<path d="M275.4,372.7c-0.4,0.8,-1.1,1.2,-1.9,1.2c-0.6,0,-1.2,-0.1,-1.9,-0.3l-0.2,1c0.6,0.3,1.3,0.4,2.1,0.4c1.2,0,2.2,-0.5,2.9,-1.6c0.7,-1.1,1.1,-2.4,1.1,-4c0,-1.5,-0.3,-2.8,-0.9,-3.8c-0.7,-1,-1.5,-1.5,-2.6,-1.5c-0.9,0,-1.6,0.3,-2.2,1c-0.6,0.6,-0.9,1.5,-0.9,2.4c0,0.9,0.3,1.7,0.9,2.2c0.6,0.6,1.4,0.9,2.2,0.9c0.9,0,1.6,-0.3,2.2,-0.8c0,1.2,-0.3,2.1,-0.8,2.9Zm0.7,-3.9c-0.6,0.5,-1.3,0.7,-2,0.7c-0.6,0,-1,-0.2,-1.4,-0.6c-0.3,-0.4,-0.5,-0.9,-0.5,-1.5c0,-0.7,0.2,-1.2,0.5,-1.6c0.4,-0.4,0.8,-0.6,1.4,-0.6c0.6,0,1.1,0.3,1.5,1c0.4,0.8,0.6,1.6,0.6,2.5l-0.1,0.1Z" class="g18_42" />
<path d="M280.7,365.6c-0.5,1,-0.8,2.3,-0.8,4c0,1.7,0.3,3,0.9,4c0.6,1,1.4,1.4,2.5,1.4c1.2,0,2,-0.5,2.6,-1.4c0.6,-1,0.9,-2.3,0.9,-4c0,-1.8,-0.3,-3.1,-0.9,-4.1c-0.6,-0.9,-1.5,-1.4,-2.6,-1.4c-1.1,0,-2,0.5,-2.6,1.5Zm1,7.3c-0.4,-0.7,-0.5,-1.8,-0.5,-3.3c0,-1.5,0.1,-2.6,0.5,-3.3c0.4,-0.7,0.9,-1.1,1.6,-1.1c0.8,0,1.3,0.3,1.7,1c0.3,0.7,0.5,1.8,0.5,3.4c0,1.5,-0.2,2.6,-0.5,3.3c-0.4,0.7,-0.9,1.1,-1.7,1.1c-0.7,0,-1.2,-0.4,-1.6,-1.1Zm0.8,-4.1c-0.2,0.2,-0.3,0.5,-0.3,0.8c0,0.3,0.1,0.6,0.3,0.8c0.2,0.2,0.5,0.4,0.8,0.4c0.3,0,0.6,-0.2,0.8,-0.4c0.2,-0.2,0.3,-0.5,0.3,-0.8c0,-0.3,-0.1,-0.6,-0.3,-0.8c-0.2,-0.2,-0.5,-0.3,-0.8,-0.3c-0.3,0,-0.6,0.1,-0.8,0.3Z" class="g18_42" />
<path d="M289.9,365.6c-0.6,1,-0.9,2.3,-0.9,4c0,1.7,0.3,3,0.9,4c0.6,1,1.5,1.4,2.6,1.4c1.2,0,2,-0.5,2.6,-1.4c0.6,-1,0.9,-2.3,0.9,-4c0,-1.8,-0.3,-3.1,-0.9,-4.1c-0.6,-0.9,-1.5,-1.4,-2.6,-1.4c-1.1,0,-2,0.5,-2.6,1.5Zm1,7.3c-0.4,-0.7,-0.6,-1.8,-0.6,-3.3c0,-1.5,0.2,-2.6,0.6,-3.3c0.3,-0.7,0.9,-1.1,1.6,-1.1c0.7,0,1.3,0.3,1.6,1c0.4,0.7,0.6,1.8,0.6,3.4c0,1.5,-0.2,2.6,-0.6,3.3c-0.3,0.7,-0.9,1.1,-1.6,1.1c-0.7,0,-1.3,-0.4,-1.6,-1.1Zm0.8,-4.1c-0.2,0.2,-0.3,0.5,-0.3,0.8c0,0.3,0.1,0.6,0.3,0.8c0.2,0.2,0.5,0.4,0.8,0.4c0.3,0,0.5,-0.2,0.8,-0.4c0.2,-0.2,0.3,-0.5,0.3,-0.8c0,-0.3,-0.1,-0.6,-0.3,-0.8c-0.2,-0.2,-0.5,-0.3,-0.8,-0.3c-0.3,0,-0.6,0.1,-0.8,0.3Z" class="g18_42" />
<path d="M299.9,367.1l-1.2,0l0,10.8l1.2,0l0,-4.2c0.2,0.4,0.5,0.7,1,1c0.4,0.2,0.8,0.3,1.3,0.3c0.9,0,1.6,-0.4,2.2,-1.2c0.5,-0.7,0.8,-1.7,0.8,-2.9c0,-1.2,-0.3,-2.2,-0.8,-2.9c-0.5,-0.8,-1.2,-1.1,-2.1,-1.1c-0.5,0,-0.9,0.1,-1.4,0.3c-0.4,0.2,-0.8,0.5,-1,0.9l0,-1Zm2.1,0.8c0.6,0,1.1,0.3,1.4,0.8c0.4,0.6,0.6,1.3,0.6,2.2c0,0.9,-0.2,1.6,-0.6,2.2c-0.4,0.6,-0.9,0.9,-1.5,0.9c-0.4,0,-0.8,-0.2,-1.1,-0.4c-0.4,-0.3,-0.7,-0.7,-0.9,-1.1l0,-3.3c0.5,-0.9,1.2,-1.3,2.1,-1.3Z" class="g18_42" />
<path d="M311.4,370.9l2.7,-3.8l-1.2,0l-2.1,3l-2.1,-3l-1.3,0l2.7,3.8l-2.7,3.9l1.2,0l2.1,-3l2.1,3l1.3,0l-2.7,-3.9Z" class="g18_42" />
<path d="M317.5,364.8c0.8,0.8,1.5,1.6,1.9,2.5c0.4,0.9,0.6,2,0.6,3.3c0,1.2,-0.2,2.3,-0.6,3.2c-0.4,0.9,-1,1.8,-1.9,2.6l0.4,0.6c1.1,-0.8,2,-1.8,2.5,-2.9c0.6,-1.1,0.9,-2.3,0.9,-3.5c0,-1.3,-0.3,-2.5,-0.8,-3.6c-0.6,-1.1,-1.5,-2,-2.6,-2.9l-0.4,0.7Z" class="g18_42" />
<text 
x="55" 
y="374" 
dx="0,0,0,0,10.3,0,0,0,10.3,0,0,0,0,0,0,0,0,0,0,0,10.3,0,0,0,0,0" 
class="s1_42"
>all and (min-width: 900px)</text>

<text 
x="324" 
y="374" 
dx="0" 
class="s3_42"
>.</text>

<text 
x="55" 
y="396" 
dx="0,-0.3,0,-0.9,0,0,0,-0.9,0,-0.3,0,0,0,-0.9,0,0,0,0,-0.9,0,0,0,0.3,0,-0.9,0,0,0,0,0,0,0,-0.9,0,0,0,0" 
class="s3_42"
>We can break this short example down:</text>

<text 
transform="matrix(0.98, 0, 0, 1, 55, 567)"
dx="0,0,0,0,0,0,0,-0.8,0,0,0,0,-0.8,0,0,0,0,0,-0.8,0,0,-0.3,0,0,-0.8,0,0,0,0,0,-0.8,0,0,-0.8,0,0,0,0,0,0,-0.8,0,0,0" 
class="s3_42"
>Notice that these three rules go inside the </text>

<text 
transform="matrix(0.98, 0, 0, 1, 55, 588)"
dx="0,0,0,0,0,0,0.4,0,0,0,0,0,0,0,0,0.4,0,0,0.4,0,0,0,0.4,0,0,0,0,0,0.4,0,0,0,0.3,-1.4,0,0.4,0,0,0,0,-1.1,0" 
class="s3_42"
>curly brackets of the media query. That’s </text>

<text 
transform="matrix(0.98, 0, 0, 1, 55, 610)"
dx="0,0,0,0,-0.9,0,0,0,-0.9,0,0,0,0,-0.9,0,0,0,0,-0.9,0,0,0,-0.9,0,0,0,-0.9,0,0,0,0,0,0,0,0,-0.9,0,0,0,0,0,-0.9,0,0,0" 
class="s3_42"
>why the last rule has two brackets after it. </text>

<text 
transform="matrix(0.98, 0, 0, 1, 401, 674)"
dx="0,0,0,0,0,4.2,0,0,0,0,0,4.2,0,0,0,0,0,4.2,0,0,4.2,0,0,4.2,0,0,0,4.2,0,0,0" 
class="s3_42"
>What these rules do is use the </text>

<path d="M641.5,663.6c-0.8,0,-1.4,0.2,-1.7,0.6c-0.3,0.4,-0.5,1.1,-0.5,2l0,0.3l-1.9,0l0,1l1.9,0l0,6.8l1.1,0l0,-6.8l2.6,0l0,-1l-2.6,0l0,-0.1c0,-0.8,0.1,-1.2,0.3,-1.5c0.1,-0.2,0.4,-0.3,0.8,-0.3c0.4,0,0.9,0.1,1.5,0.2l0.3,-0.9c-0.7,-0.2,-1.3,-0.3,-1.8,-0.3Z" class="g19_42" />
<path d="M651.5,673.5l-2,0l0,-10l-3,0l0,1l2,0l0,10l3,0l0,-1Z" class="g19_42" />
<path d="M655.8,667.4c-0.7,0.8,-1,1.8,-1,3c0,1.2,0.3,2.2,0.9,3c0.7,0.7,1.5,1.1,2.6,1.1c1,0,1.8,-0.4,2.5,-1.1c0.6,-0.8,0.9,-1.8,0.9,-3c0,-1.2,-0.3,-2.2,-0.9,-3c-0.7,-0.7,-1.5,-1.1,-2.5,-1.1c-1.1,0,-1.9,0.4,-2.5,1.1Zm0.8,5.2C656.2,672,656,671.3,656,670.4c0,-0.9,0.2,-1.7,0.6,-2.2c0.4,-0.6,0.9,-0.9,1.7,-0.9c0.7,0,1.2,0.3,1.6,0.9c0.4,0.6,0.6,1.3,0.6,2.2c0,0.9,-0.2,1.6,-0.6,2.2c-0.4,0.6,-1,0.9,-1.6,0.9c-0.7,0,-1.3,-0.3,-1.7,-0.9Z" class="g19_42" />
<path d="M670.2,672.5l0,-3.4c0,-1.8,-0.8,-2.8,-2.6,-2.8c-0.9,0,-1.8,0.3,-2.9,0.8L665,668c0.3,-0.2,0.7,-0.4,1.2,-0.5c0.4,-0.1,0.8,-0.2,1,-0.2c1.3,0,1.9,0.7,1.9,2l0,0.4l-1.3,0.1c-0.6,0,-1.1,0.1,-1.5,0.2c-0.4,0.2,-0.8,0.3,-1.1,0.5c-0.3,0.2,-0.5,0.5,-0.6,0.8c-0.2,0.3,-0.3,0.6,-0.3,1c0,0.6,0.3,1.2,0.7,1.6c0.4,0.4,0.9,0.6,1.5,0.6c1.1,0,2,-0.5,2.6,-1.5c0,0.5,0.1,1,0.2,1.3l1.1,0c-0.1,-0.5,-0.2,-1.1,-0.2,-1.8ZM668,673c-0.4,0.2,-0.8,0.4,-1.2,0.4c-0.4,0,-0.7,-0.1,-0.9,-0.4c-0.2,-0.2,-0.4,-0.5,-0.4,-0.8c0,-0.4,0.2,-0.7,0.5,-0.9c0.2,-0.2,0.6,-0.4,1,-0.5c0.3,-0.1,1,-0.1,2.1,-0.2l0,1.4c-0.3,0.4,-0.7,0.7,-1.1,1Z" class="g19_42" />
<path d="M679.1,673c-0.6,0.3,-1.2,0.5,-1.8,0.5c-0.4,0,-0.7,-0.2,-0.9,-0.4c-0.2,-0.3,-0.3,-0.7,-0.3,-1.1l0,-4.5l2.6,0l0,-1l-2.6,0l0,-2.1l-1.1,0l0,2.1l-1.5,0l0,1l1.5,0l0,4.8c0,1.4,0.7,2.2,2,2.2c0.8,0,1.5,-0.2,2.3,-0.6L679.1,673Z" class="g19_42" />
<text 
transform="matrix(0.98, 0, 0, 1, 635, 674)"
dx="0,0,0,0,0" 
class="s1_42"
>float</text>

<text 
transform="matrix(0.98, 0, 0, 1, 689, 674)"
dx="0,0,-0.3,0,0,0,0.3,0,0,4.2,0,0" 
class="s3_42"
>property to </text>

<text 
transform="matrix(0.98, 0, 0, 1, 401, 695)"
dx="0,0,0,0,0,0,0,0,0,0.3,0,0,0" 
class="s3_42"
>position the </text>

<path d="M490.8,693.9l0,-3.4c0,-1.9,-0.9,-2.8,-2.6,-2.8c-0.9,0,-1.9,0.3,-3,0.8l0.4,0.9c0.3,-0.2,0.6,-0.4,1.1,-0.5c0.4,-0.1,0.8,-0.2,1.1,-0.2c1.2,0,1.8,0.7,1.8,2l0,0.4l-1.3,0.1c-0.5,0,-1,0.1,-1.5,0.2c-0.4,0.2,-0.7,0.3,-1,0.5c-0.3,0.2,-0.5,0.5,-0.7,0.8c-0.1,0.2,-0.2,0.6,-0.2,1c0,0.6,0.2,1.1,0.6,1.6c0.5,0.4,1,0.6,1.5,0.6c1.1,0,2,-0.5,2.7,-1.5c0,0.5,0,1,0.1,1.3l1.2,0c-0.2,-0.6,-0.2,-1.2,-0.2,-1.8Zm-2.2,0.5c-0.4,0.2,-0.8,0.4,-1.2,0.4c-0.4,0,-0.7,-0.2,-1,-0.4c-0.2,-0.2,-0.3,-0.5,-0.3,-0.8c0,-0.4,0.1,-0.7,0.4,-0.9c0.3,-0.2,0.6,-0.4,1,-0.5c0.4,-0.1,1.1,-0.2,2.1,-0.2l0,1.4c-0.3,0.4,-0.6,0.7,-1,1Z" class="g19_42" />
<path d="M498.2,687.7c-1,0,-1.8,0.6,-2.4,1.8l0,-1.6l-1.1,0l0,7.8l1.1,0l0,-5.1c0,0,0.2,-0.2,0.4,-0.6c0.3,-0.3,0.6,-0.6,0.9,-0.8c0.4,-0.2,0.7,-0.3,1,-0.3c0.4,0,0.8,0.1,1.3,0.3l0.5,-1.1c-0.6,-0.3,-1.1,-0.4,-1.7,-0.4Z" class="g19_42" />
<path d="M508.6,694.4c-0.6,0.3,-1.2,0.4,-1.8,0.4c-0.4,0,-0.6,-0.1,-0.8,-0.4c-0.2,-0.2,-0.3,-0.6,-0.3,-1.1l0,-4.4l2.5,0l0,-1l-2.5,0l0,-2.1l-1.2,0l0,2.1l-1.4,0l0,1l1.4,0l0,4.8c0,1.4,0.7,2.2,2.1,2.2c0.7,0,1.5,-0.2,2.2,-0.6l-0.2,-0.9Z" class="g19_42" />
<path d="M514.8,685.2c-0.2,0.2,-0.2,0.3,-0.2,0.6c0,0.2,0,0.4,0.2,0.5c0.1,0.2,0.3,0.3,0.5,0.3c0.2,0,0.4,-0.1,0.6,-0.3c0.1,-0.1,0.2,-0.3,0.2,-0.5c0,-0.3,-0.1,-0.5,-0.2,-0.6C515.7,685,515.5,685,515.3,685c-0.2,0,-0.4,0,-0.5,0.2Zm1.1,2.7l-3.4,0l0,1l2.2,0l0,6.8l1.2,0l0,-7.8Z" class="g19_42" />
<path d="M526.6,694.5c-0.7,0.2,-1.4,0.4,-2,0.4c-0.9,0,-1.5,-0.3,-2,-0.9c-0.5,-0.6,-0.8,-1.3,-0.8,-2.2c0,-1,0.3,-1.7,0.8,-2.3c0.4,-0.5,1.1,-0.8,2,-0.8c0.5,0,1.1,0.1,1.8,0.4l0.3,-1c-0.7,-0.3,-1.4,-0.4,-2.2,-0.4c-1.1,0,-2.1,0.4,-2.8,1.1c-0.7,0.8,-1.1,1.8,-1.1,3c0,1.2,0.4,2.2,1.1,3c0.7,0.7,1.7,1.1,2.9,1.1c0.8,0,1.5,-0.2,2.2,-0.5l-0.2,-0.9Z" class="g19_42" />
<path d="M535.5,694.5l-2,0l0,-9l-3,0l0,1l2,0l0,9l3,0l0,-1Z" class="g19_42" />
<path d="M545,691.5c0,-1.2,-0.3,-2.1,-0.9,-2.8c-0.6,-0.7,-1.3,-1,-2.2,-1c-1,0,-1.8,0.4,-2.4,1.1c-0.6,0.7,-0.9,1.7,-0.9,3c0,1.2,0.3,2.2,1,3c0.7,0.7,1.6,1.1,2.8,1.1c0.9,0,1.7,-0.2,2.3,-0.5l-0.2,-0.9c-0.7,0.2,-1.4,0.4,-2.1,0.4c-0.7,0,-1.4,-0.3,-1.9,-0.9c-0.5,-0.6,-0.7,-1.3,-0.7,-2.2l5.2,0l0,-0.3Zm-5.1,-0.6c0,-0.7,0.2,-1.2,0.6,-1.6c0.4,-0.4,0.9,-0.6,1.5,-0.6c0.4,0,0.9,0.2,1.2,0.6c0.4,0.5,0.6,1,0.6,1.6l-3.9,0Z" class="g19_42" />
<text 
transform="matrix(0.98, 0, 0, 1, 483, 695)"
dx="0,0,0,0,0,0,0" 
class="s1_42"
>article</text>

<text 
transform="matrix(0.98, 0, 0, 1, 550, 695)"
dx="0,0,0,0,0.3,0,0,0" 
class="s3_42"
>and the </text>

<path d="M613.9,693.9l0,-3.4c0,-1.9,-0.9,-2.8,-2.7,-2.8c-0.8,0,-1.8,0.3,-2.9,0.8l0.3,0.9c0.4,-0.2,0.7,-0.4,1.2,-0.5c0.4,-0.1,0.8,-0.2,1.1,-0.2c1.2,0,1.8,0.7,1.8,2l0,0.4l-1.3,0.1c-0.5,0,-1,0.1,-1.5,0.2c-0.4,0.2,-0.7,0.3,-1,0.5c-0.3,0.2,-0.5,0.5,-0.7,0.8c-0.1,0.2,-0.2,0.6,-0.2,1c0,0.6,0.2,1.1,0.6,1.6c0.5,0.4,1,0.6,1.5,0.6c1.1,0,2,-0.5,2.7,-1.5c0,0.5,0,1,0.1,1.3l1.2,0c-0.2,-0.6,-0.2,-1.2,-0.2,-1.8Zm-2.2,0.5c-0.4,0.2,-0.8,0.4,-1.2,0.4c-0.4,0,-0.7,-0.2,-1,-0.4c-0.2,-0.2,-0.3,-0.5,-0.3,-0.8c0,-0.4,0.1,-0.7,0.4,-0.9c0.3,-0.2,0.6,-0.4,1,-0.5c0.4,-0.1,1.1,-0.2,2.1,-0.2l0,1.4c-0.3,0.4,-0.6,0.7,-1,1Z" class="g19_42" />
<path d="M622.3,688c-0.7,-0.2,-1.4,-0.3,-2,-0.3c-1,0,-1.7,0.2,-2.3,0.6c-0.6,0.4,-0.9,0.9,-0.9,1.6c0,0.3,0.1,0.6,0.2,0.8c0.1,0.3,0.3,0.5,0.5,0.7c0.3,0.2,0.5,0.3,0.8,0.4c0.3,0.1,0.7,0.2,1.3,0.4c0.8,0.2,1.2,0.4,1.4,0.7c0.2,0.2,0.3,0.4,0.3,0.7c0,0.4,-0.2,0.7,-0.6,0.9c-0.4,0.3,-0.9,0.4,-1.5,0.4c-0.8,0,-1.4,-0.2,-2.1,-0.5l-0.2,1c0.6,0.3,1.4,0.5,2.3,0.5c1,0,1.7,-0.2,2.3,-0.7c0.7,-0.4,1,-1,1,-1.7c0,-0.4,-0.1,-0.7,-0.3,-1c-0.1,-0.3,-0.4,-0.6,-0.7,-0.8c-0.3,-0.2,-0.7,-0.3,-1.2,-0.5l-1.1,-0.3c-0.5,-0.1,-0.8,-0.3,-1,-0.5c-0.2,-0.1,-0.3,-0.3,-0.3,-0.6c0,-0.3,0.2,-0.6,0.6,-0.8c0.3,-0.2,0.8,-0.3,1.5,-0.3c0.5,0,1.1,0.1,1.8,0.3l0.2,-1Z" class="g19_42" />
<path d="M628.9,685.2c-0.2,0.2,-0.3,0.3,-0.3,0.6c0,0.2,0.1,0.4,0.3,0.5c0.1,0.2,0.3,0.3,0.5,0.3c0.2,0,0.4,-0.1,0.6,-0.3c0.1,-0.1,0.2,-0.3,0.2,-0.5c0,-0.3,-0.1,-0.5,-0.2,-0.6C629.8,685,629.6,685,629.4,685c-0.2,0,-0.4,0,-0.5,0.2Zm1.1,2.7l-3.4,0l0,1l2.2,0l0,6.8l1.2,0l0,-7.8Z" class="g19_42" />
<path d="M640.8,685.1l-1.1,0l0,3.8c-0.6,-0.8,-1.4,-1.2,-2.3,-1.2c-0.9,0,-1.6,0.4,-2.1,1.1c-0.6,0.8,-0.8,1.7,-0.8,2.9c0,1.2,0.2,2.2,0.7,3c0.6,0.8,1.2,1.2,2.1,1.2c0.5,0,1,-0.2,1.4,-0.4c0.4,-0.3,0.8,-0.6,1,-1l0,1.2l1.1,0l0,-10.6Zm-1.5,8.8c-0.2,0.3,-0.5,0.5,-0.8,0.7c-0.3,0.1,-0.6,0.2,-0.9,0.2c-0.6,0,-1.1,-0.3,-1.4,-0.9c-0.3,-0.5,-0.5,-1.3,-0.5,-2.2c0,-0.8,0.2,-1.6,0.5,-2.1c0.4,-0.6,0.9,-0.9,1.5,-0.9c0.8,0,1.5,0.5,2,1.4l0,3.2c0,0.1,-0.1,0.3,-0.4,0.6Z" class="g19_42" />
<path d="M650.1,691.5c0,-1.2,-0.3,-2.1,-0.9,-2.8c-0.6,-0.7,-1.3,-1,-2.2,-1c-1,0,-1.8,0.4,-2.4,1.1c-0.6,0.7,-0.9,1.7,-0.9,3c0,1.2,0.3,2.2,1,3c0.7,0.7,1.6,1.1,2.8,1.1c0.9,0,1.6,-0.2,2.3,-0.5l-0.2,-0.9c-0.7,0.2,-1.4,0.4,-2.1,0.4c-0.8,0,-1.4,-0.3,-1.9,-0.9c-0.5,-0.6,-0.7,-1.3,-0.7,-2.2l5.2,0l0,-0.3Zm-5.2,-0.6c0.1,-0.7,0.3,-1.2,0.7,-1.6c0.4,-0.4,0.9,-0.6,1.5,-0.6c0.4,0,0.8,0.2,1.2,0.6c0.4,0.5,0.6,1,0.6,1.6l-4,0Z" class="g19_42" />
<text 
transform="matrix(0.98, 0, 0, 1, 606, 695)"
dx="0,0,0,0,0" 
class="s1_42"
>aside</text>

<text 
transform="matrix(0.98, 0, 0, 1, 655, 695)"
dx="0,0,0,0,0,0,0,0,0,0.3,0,0,0,0,0.3,0,0" 
class="s3_42"
>elements next to </text>

<text 
transform="matrix(0.98, 0, 0, 1, 401, 717)"
dx="0,0,0,0,1.6,0,0,0,0,0,0,-1.4,0,1.6,0,0,1.6,0,0,0,0,0,0,0,0,1.6,0,0,0,0,0,0,1.6,0,0,1.6,0,0,0,0,1.6,0,0,0,0,0,0,0,0,1.6,0,0,0" 
class="s3_42"
>one another. By applying floats to both elements and </text>

<text 
transform="matrix(0.98, 0, 0, 1, 401, 738)"
dx="0,0,0,0,0,4.3,0,0,0,0,0,0,4.3,0,0,0,0,0,4.3,0,0,0,0,0,0,0,0,4.3,0,0,0,0,0,0,4.3,0,0,0,0,0,4.3,0,0,4.3,0,0,0,0" 
class="s3_42"
>then making their combined widths equal to 100% </text>

<text 
transform="matrix(0.98, 0, 0, 1, 401, 759)"
dx="0,0,0,0,0,1.8,0,0,0,1.8,0,0,0,1.8,0,0.3,0,0,0,0,0,1.8,0,0,0,1.8,0,0,0,1.8,0,0,0,1.8,0,0,0,1.8,0,0,0,0,0,0,1.8,0,0,1.8,0,0,0,0" 
class="s3_42"
>(66% for the article and 34% for the aside) we make </text>

<text 
transform="matrix(0.98, 0, 0, 1, 401, 781)"
dx="0,0,0,0,0,2.4,0,0,0,0,0,0,2.4,0,0,0,0,0,0,0,0,0,0,0,0,2.4,0,0,0,0,2.4,0,0,0,2.4,0,0,0,0,0,0,2.4,-0.3,0,0,0,0,0,0" 
class="s3_42"
>them appear side-by-side when the window reaches </text>

<text 
transform="matrix(0.98, 0, 0, 1, 401, 802)"
dx="0,0,0,0,1.3,0,0,0,0,0,0,1.3,0,0,1.3,0,0,0,0,0,0,1.3,-0.3,0,1.3,0,0,0,1.3,0,0,0,0,1.3,0,0,0,0,0,0,0,1.3,0,0,1.3,0,0,0,1.3,0,0,0,0" 
class="s3_42"
>900 pixels in width. We add some padding to the left </text>

<text 
transform="matrix(0.98, 0, 0, 1, 401, 824)"
dx="0,0,0,0.1,0,0,0,0.1,0,0,0,0,0,0.1,0,0,0.1,0,0,0,0,0.1,0,0,0,0.1,0,0,-0.3,0,0,0,0,0.1,0,0,0,-0.3,0,0.1,0,0,0,0,0.1,0,0,0.1,0,0,0,0,0,0,0" 
class="s3_42"
>of the aside so that the borders don’t bump up against </text>

<text 
transform="matrix(0.98, 0, 0, 1, 401, 845)"
dx="0,0,0,0,0,-0.9,0,0,0,0,0,-0.9,0,0,0,0,-0.9,0,0,0,0,-0.9,0,0,0,0,0,0,0" 
class="s3_42"
>each other when this happens.</text>

<text 
transform="matrix(0.98, 0, 0, 1, 401, 888)"
dx="0,0,0,0,0,0,0,0,6.2,0,0,6.2,0,0,0,6.2,0" 
class="s3_42"
>Finally we add a </text>

<path d="M546,887c-0.7,0.2,-1.4,0.4,-2,0.4c-0.9,0,-1.5,-0.3,-2,-0.9c-0.5,-0.6,-0.8,-1.3,-0.8,-2.2c0,-1,0.3,-1.7,0.8,-2.3c0.4,-0.5,1.1,-0.8,1.9,-0.8c0.6,0,1.2,0.1,1.9,0.4l0.3,-1c-0.7,-0.3,-1.4,-0.4,-2.2,-0.4c-1.1,0,-2.1,0.4,-2.8,1.1c-0.7,0.8,-1.1,1.8,-1.1,3c0,1.2,0.4,2.2,1.1,3c0.7,0.7,1.7,1.1,2.9,1.1c0.8,0,1.5,-0.2,2.2,-0.5L546,887Z" class="g19_42" />
<path d="M554.5,887.5l-2,0l0,-10l-3,0l0,1l2,0l0,10l3,0l0,-1Z" class="g19_42" />
<path d="M564.4,884c0,-1.2,-0.3,-2.1,-0.9,-2.8c-0.6,-0.7,-1.3,-1,-2.2,-1c-1,0,-1.8,0.4,-2.4,1.1c-0.6,0.7,-0.9,1.7,-0.9,3c0,1.2,0.3,2.2,1,3c0.7,0.7,1.6,1.1,2.8,1.1c0.9,0,1.6,-0.2,2.3,-0.5L563.9,887c-0.7,0.2,-1.4,0.4,-2.1,0.4c-0.7,0,-1.4,-0.3,-1.9,-0.9c-0.5,-0.6,-0.7,-1.3,-0.7,-2.2l5.2,0l0,-0.3Zm-5.1,-0.6c0,-0.7,0.2,-1.2,0.6,-1.6c0.4,-0.4,0.9,-0.6,1.5,-0.6c0.4,0,0.8,0.2,1.2,0.6c0.4,0.5,0.6,1,0.6,1.6l-3.9,0Z" class="g19_42" />
<path d="M573.2,886.4l0,-3.4c0,-1.9,-0.9,-2.8,-2.6,-2.8c-0.9,0,-1.9,0.3,-2.9,0.8l0.3,0.9c0.3,-0.2,0.7,-0.4,1.1,-0.5c0.5,-0.1,0.8,-0.2,1.1,-0.2c1.2,0,1.9,0.7,1.9,2l0,0.4l-1.3,0.1c-0.6,0,-1.1,0.1,-1.5,0.2c-0.4,0.2,-0.8,0.3,-1.1,0.5c-0.3,0.2,-0.5,0.5,-0.7,0.8c-0.1,0.2,-0.2,0.6,-0.2,1c0,0.6,0.2,1.1,0.7,1.6c0.4,0.4,0.9,0.6,1.5,0.6c1.1,0,2,-0.5,2.6,-1.5c0,0.5,0.1,1,0.2,1.3l1.1,0c-0.1,-0.6,-0.2,-1.2,-0.2,-1.8Zm-2.2,0.5c-0.4,0.2,-0.8,0.4,-1.2,0.4c-0.4,0,-0.7,-0.2,-0.9,-0.4c-0.3,-0.2,-0.4,-0.5,-0.4,-0.8c0,-0.4,0.2,-0.7,0.4,-0.9c0.3,-0.2,0.7,-0.4,1,-0.5c0.4,-0.1,1.1,-0.2,2.2,-0.2l0,1.4c-0.3,0.4,-0.7,0.7,-1.1,1Z" class="g19_42" />
<path d="M580.6,880.2c-0.9,0,-1.7,0.6,-2.3,1.8l0,-1.6l-1.2,0l0,7.8l1.2,0l0,-5.1c0,0,0.1,-0.2,0.4,-0.6c0.3,-0.3,0.5,-0.6,0.9,-0.8c0.3,-0.2,0.6,-0.3,1,-0.3c0.3,0,0.8,0.1,1.3,0.3l0.4,-1.1c-0.5,-0.3,-1.1,-0.4,-1.7,-0.4Z" class="g19_42" />
<path d="M587.6,880.5c-0.2,0.2,-0.3,0.4,-0.3,0.7c0,0.2,0.1,0.4,0.3,0.6c0.1,0.2,0.4,0.3,0.6,0.3c0.2,0,0.5,-0.1,0.6,-0.3c0.2,-0.2,0.3,-0.4,0.3,-0.6c0,-0.3,-0.1,-0.5,-0.3,-0.7c-0.1,-0.1,-0.4,-0.2,-0.6,-0.2c-0.2,0,-0.5,0.1,-0.6,0.2Zm0,6.3c-0.2,0.1,-0.3,0.4,-0.3,0.6c0,0.3,0.1,0.5,0.3,0.6c0.1,0.2,0.4,0.3,0.6,0.3c0.2,0,0.5,-0.1,0.6,-0.3c0.2,-0.1,0.3,-0.3,0.3,-0.6c0,-0.2,-0.1,-0.5,-0.3,-0.6c-0.1,-0.2,-0.4,-0.3,-0.6,-0.3c-0.2,0,-0.5,0.1,-0.6,0.3Z" class="g19_42" />
<path d="M595.5,877.6l-1.2,0l0,10.6l1.2,0l0,-1.2c0.2,0.4,0.5,0.8,1,1c0.4,0.2,0.8,0.4,1.3,0.4c0.9,0,1.6,-0.4,2.1,-1.2c0.5,-0.8,0.8,-1.8,0.8,-3c0,-1.2,-0.2,-2.2,-0.7,-2.9c-0.5,-0.7,-1.2,-1.1,-2.1,-1.1c-0.5,0,-1,0.1,-1.4,0.3c-0.4,0.3,-0.8,0.5,-1,0.9l0,-3.8Zm2,3.6c0.7,0,1.1,0.3,1.5,0.9c0.3,0.5,0.5,1.2,0.5,2.1c0,0.9,-0.2,1.6,-0.5,2.2c-0.4,0.6,-0.9,0.9,-1.5,0.9c-0.4,0,-0.8,-0.1,-1.1,-0.4c-0.4,-0.3,-0.7,-0.7,-0.9,-1.1l0,-3.2c0.5,-0.9,1.2,-1.4,2,-1.4Z" class="g19_42" />
<path d="M603.8,881.3c-0.7,0.8,-1,1.7,-1,3c0,1.2,0.3,2.2,1,2.9c0.6,0.8,1.4,1.2,2.5,1.2c1,0,1.9,-0.4,2.5,-1.2c0.6,-0.7,0.9,-1.7,0.9,-2.9c0,-1.2,-0.3,-2.2,-0.9,-3c-0.6,-0.7,-1.5,-1.1,-2.5,-1.1c-1.1,0,-1.9,0.4,-2.5,1.1Zm0.8,5.2c-0.4,-0.6,-0.6,-1.3,-0.6,-2.2c0,-0.9,0.2,-1.7,0.6,-2.2c0.4,-0.6,1,-0.9,1.7,-0.9c0.7,0,1.2,0.3,1.6,0.9c0.4,0.6,0.6,1.3,0.6,2.2c0,0.8,-0.2,1.6,-0.6,2.2c-0.4,0.6,-0.9,0.9,-1.6,0.9c-0.7,0,-1.3,-0.3,-1.7,-0.9Z" class="g19_42" />
<path d="M618.1,886.9c-0.6,0.3,-1.2,0.4,-1.8,0.4c-0.4,0,-0.7,-0.1,-0.9,-0.4c-0.2,-0.2,-0.3,-0.6,-0.3,-1.1l0,-4.4l2.6,0l0,-1l-2.6,0l0,-2.1l-1.1,0l0,2.1l-1.5,0l0,1l1.5,0l0,4.8c0,1.4,0.7,2.2,2,2.2c0.8,0,1.5,-0.2,2.3,-0.6l-0.2,-0.9Z" class="g19_42" />
<path d="M627.2,882.8c0,-1.7,-0.7,-2.6,-2.1,-2.6c-0.9,0,-1.8,0.5,-2.6,1.3l0,-3.9l-1.1,0l0,10.6l1.1,0l0,-5.7c0.8,-0.8,1.6,-1.3,2.2,-1.3c0.5,0,0.9,0.2,1.1,0.5c0.2,0.3,0.3,0.8,0.3,1.5l0,5l1.1,0l0,-5.4Z" class="g19_42" />
<text 
transform="matrix(0.98, 0, 0, 1, 538, 888)"
dx="0,0,0,0,0,0,0,0,0,0" 
class="s1_42"
>clear:both</text>

<text 
transform="matrix(0.98, 0, 0, 1, 639, 888)"
dx="0,0,0,0,0,6.2,0,0,6.2,0,0,0,6.2,0,0,0,0,0,0" 
class="s3_42"
>rule to the footer </text>

<text 
transform="matrix(0.98, 0, 0, 1, 401, 909)"
dx="0,0,0,0,0,0,0,0,0,1.2,0,0,0,0,1.2,0,0,0,0,1.2,0,0,0,1.2,0,0,0,0,0,0,0,0,1.2,0,0,0,0,0,0,0,0,1.2,0,0,0,1.2,0,0,0,0,-0.3,0,0" 
class="s3_42"
>element. This ends the floating elements and ensures </text>

<text 
transform="matrix(0.98, 0, 0, 1, 401, 930)"
dx="0,0,0,0,0,2.9,0,0,0,2.9,0,0,0,0,0,0,2.9,0,0,0,0,0,0,0,2.9,0,0,2.9,0,0,0,2.9,0,0,0.3,0,0,0,2.9,0,0,0,0,0,0,0,0,0,2.9,0,0,2.9,0,0,0" 
class="s3_42"
>that the footer appears in its normal position. If you </text>

<text 
transform="matrix(0.98, 0, 0, 1, 401, 952)"
dx="0,0,0,0,-0.3,0,1.4,0,0,0,1.4,0,0,0,0,1.4,0,0,0,0,0,1.4,0,0,0,1.4,0,0,0,0,0,0,1.4,0,0,0,0,0,0,1.4,0,0,1.4,0,0,0,1.4,0,0,0,0,0,1.4,0,0,1.4,0,0,0" 
class="s3_42"
>don’t add this rule, the footer floats to the right of the </text>

<text 
transform="matrix(0.98, 0, 0, 1, 401, 973)"
dx="0,0,0.3,0,0,0,0,0,-0.9,0,-0.9,0,0,0,-0.9,0,0,0,-0.9,0,-0.3,0,0,0,0,-0.9,0,0,0,-0.3,0,-0.9,0,0,0,0,0,0,0,-0.9,0,0,0" 
class="s3_42"
>article – not the effect we’re looking for!</text>

<path d="M367,321l0,5l-4,0l0,27l4,0l0,4l140,0l0,-36Z" class="g20_42" />
<path d="M367,364l0,4l-4,0l0,112l4,0l0,4l140,0l0,-120Z" class="g20_42" />
<text 
x="427" 
y="428" 
dx="0,0,0" 
class="s5_42"
>all</text>

<text 
transform="matrix(0.98, 0, 0, 1, 407, 342)"
dx="0,0,0,0,0,0" 
class="s6_42"
>@media</text>

<path d="M367,492l0,5l-4,0l0,25l4,0l0,4l140,0l0,-34Z" class="g20_42" />
<path d="M367,535l0,5l-4,0l0,68l4,0l0,4l140,0l0,-77Z" class="g20_42" />
<text 
x="425" 
y="513" 
dx="0,0,0" 
class="s7_42"
>and</text>

<text 
x="372" 
y="578" 
dx="0,0,0,0,0,0,0,0,0,0,0,0,-0.9,0,0,0,0,0" 
class="s8_42"
>(min-width: 900px)</text>

<text 
transform="matrix(0.98, 0, 0, 1, 520, 342)"
dx="0,0,0,0,0,-0.9,0,0,-0.9,0,-0.9,0,0,0,0,0,-0.9,0,0,0,0.3,0" 
class="s3_42"
>This is a media query!</text>

<text 
transform="matrix(0.98, 0, 0, 1, 520, 513)"
dx="0,0,0,0,0,0,0,0,0,-0.9,0,0,0,-0.9,0,0,0" 
class="s3_42"
>Connects the two.</text>

<text 
x="520" 
y="385" 
dx="0,0,0,0,0,0,0,0,7.2,0,0,7.2,0,0,0,0,7.2,0,0,0,7.2,0,0,-0.3,0,0,0,7.2,0,0,0" 
class="s3_42"
>Applies to both the screen and </text>

<text 
x="520" 
y="406" 
dx="0,0,0,0,0,0,0,0,0,4.5,0,0,0,0,0,0,0,4.5,0,0,0,0,0,4.5,0,0,0,4.5,0,0,0,0,0" 
class="s3_42"
>physical printed pages (we could </text>

<text 
x="520" 
y="428" 
dx="0,0,0,0,-0.7,0,0,0,0,0,0,0,0,-0.7,0,0,-0.7,0,0,-0.7,0,0,0,0,-0.7,0,0,0,0,0,0,0,-0.7,0,0,-0.7,0,0,0,0,0,0,0" 
class="s3_42"
>say ‘print’, if it only applied to printed </text>

<text 
x="520" 
y="449" 
dx="0,0,0,0,0,0,0,0,0,1.7,0,0,1.7,0,0,0,1.7,0,0,0,0,0,1.7,0,0,1.7,0,0,0,-0.3,0,0,0,0,1.7,0,0" 
class="s3_42"
>versions of the page, or ‘screen’ to </text>

<text 
x="520" 
y="471" 
dx="0,-0.3,0,0,0,0,-0.9,0,0,0,0,-0.9,0,0,-0.9,0,0,0,0,0,-0.3,0,0,0,-0.9,0,0,0,0,0,0,0,0,0" 
class="s3_42"
>refer only to on-screen versions).</text>

<text 
x="520" 
y="556" 
dx="0,0,0,0,0,0.6,0,0,0,0.3,0,0.6,0,0,0,0,0.6,0,0,0,0,0.6,0,0,0,0,0.6,0,-0.3,0,0,0,0,0.6,0,0,0,0" 
class="s3_42"
>This query will come into effect only </text>

<text 
x="520" 
y="578" 
dx="0,0,0,0,0,2.4,0,0,0,2.4,0,-0.3,0,0,0,0,0,2.4,0,0,0,0,0,0,2.4,0,0,2.4,0,0,0,0,0" 
class="s3_42"
>when the browser window is wider </text>

<text 
x="520" 
y="599" 
dx="0,0,0,0,0,-0.9,0,0,0,0,0" 
class="s3_42"
>than 900px.</text>

<text 
x="879" 
y="353" 
dx="0,-1.4,0,0,2.4,0,0,0,2.4,0,0,0,0,0,0,2.4,0,0,0,0,2.4,0,0,0,2.4,0,0,0,0,0,0,0,0,2.4,0,0" 
class="s3_42"
>You can easily swap the position of </text>

<text 
x="879" 
y="374" 
dx="0,0,0,0,4.6,0,0.3,0,0,0,0,0,4.6,0,0,0,4.6,0,0,0,0,0,4.6,0,0,0,0,0,0,0,0,0,4.6,0,0" 
class="s3_42"
>the article and aside elements, so </text>

<text 
x="879" 
y="396" 
dx="0,0,0,0,0,0.7,0,0,0,0.7,0,0,0,0,0,0.7,0,0,0,0,0,0,0,0.7,0,0,0.7,0,0,0,0.7,0,0,0,0,0,0.7,-1.7,0" 
class="s3_42"
>that the aside appears on the left. To </text>

<text 
x="879" 
y="417" 
dx="0,0,0,0.2,0,0,0,0,0.2,0,0,0,0,0.2,-0.3,0,0,0,0,0,0" 
class="s3_42"
>do this just replace </text>

<path d="M1020.5,416.5l-2,0l0,-9l-3,0l0,1l2,0l0,9l3,0l0,-1Z" class="g18_42" />
<path d="M1030.9,413.4c0,-1.1,-0.3,-2,-0.9,-2.7c-0.6,-0.7,-1.3,-1,-2.2,-1c-1,0,-1.9,0.3,-2.5,1.1c-0.6,0.7,-0.9,1.7,-0.9,2.9c0,1.3,0.3,2.3,1,3c0.7,0.7,1.7,1.1,2.8,1.1c0.9,0,1.7,-0.1,2.4,-0.4l-0.2,-1c-0.7,0.3,-1.5,0.4,-2.2,0.4c-0.7,0,-1.3,-0.3,-1.9,-0.9c-0.5,-0.5,-0.7,-1.3,-0.7,-2.1l5.3,0l0,-0.4Zm-5.2,-0.6c0,-0.6,0.2,-1.1,0.6,-1.5c0.4,-0.4,0.9,-0.6,1.5,-0.6c0.5,0,0.9,0.2,1.3,0.6c0.4,0.4,0.5,0.9,0.5,1.5l-3.9,0Z" class="g18_42" />
<path d="M1038.1,406.9c-0.8,0,-1.4,0.2,-1.7,0.6c-0.4,0.4,-0.5,1.1,-0.5,2.1l0,0.2l-2,0l0,1l2,0l0,6.8l1.1,0l0,-6.8l2.7,0l0,-1l-2.7,0l0,-0.1c0,-0.7,0.1,-1.2,0.3,-1.4c0.1,-0.3,0.4,-0.4,0.8,-0.4c0.5,0,1,0.1,1.5,0.3l0.3,-1c-0.6,-0.2,-1.2,-0.3,-1.8,-0.3Z" class="g18_42" />
<path d="M1048.9,416.4c-0.6,0.2,-1.3,0.4,-1.9,0.4c-0.4,0,-0.6,-0.1,-0.8,-0.4c-0.3,-0.3,-0.4,-0.6,-0.4,-1.1l0,-4.5l2.7,0l0,-1l-2.7,0l0,-2.1l-1.1,0l0,2.1l-1.5,0l0,1l1.5,0l0,4.8c0,1.5,0.7,2.2,2.1,2.2c0.7,0,1.5,-0.2,2.3,-0.5l-0.2,-0.9Z" class="g18_42" />
<text 
x="1013" 
y="417" 
dx="0,0,0,0" 
class="s1_42"
>left</text>

<text 
x="1055" 
y="417" 
dx="0,0,0,0,0" 
class="s3_42"
>with </text>

<path d="M1092.7,409.7c-1,0,-1.8,0.5,-2.4,1.7l0,-1.6l-1.2,0l0,7.8l1.2,0l0,-5c0,-0.1,0.1,-0.3,0.4,-0.6c0.3,-0.4,0.6,-0.7,0.9,-0.9c0.3,-0.2,0.7,-0.3,1,-0.3c0.4,0,0.8,0.1,1.4,0.4l0.4,-1.2c-0.5,-0.2,-1.1,-0.3,-1.7,-0.3Z" class="g18_42" />
<path d="M1100.4,407.1c-0.1,0.2,-0.2,0.4,-0.2,0.6c0,0.2,0.1,0.4,0.2,0.6c0.2,0.1,0.4,0.2,0.6,0.2c0.2,0,0.4,-0.1,0.5,-0.2c0.2,-0.2,0.3,-0.4,0.3,-0.6c0,-0.2,-0.1,-0.4,-0.3,-0.6c-0.1,-0.1,-0.3,-0.2,-0.5,-0.2c-0.2,0,-0.4,0.1,-0.6,0.2Zm1.1,2.7l-3.4,0l0,1l2.3,0l0,6.8l1.1,0l0,-7.8Z" class="g18_42" />
<path d="M1109.3,414.7c0.7,0,1.3,-0.2,1.8,-0.7c0.5,-0.5,0.8,-1.1,0.8,-1.8c0,-0.6,-0.1,-1,-0.4,-1.4l1.5,0l0,-1.1l-2.3,0.3c-0.4,-0.2,-0.9,-0.3,-1.4,-0.3c-0.8,0,-1.4,0.2,-1.9,0.7c-0.5,0.4,-0.7,1,-0.7,1.8c0,0.4,0.1,0.8,0.3,1.3c0.2,0.4,0.5,0.7,0.9,0.9c-0.9,0.5,-1.3,1,-1.3,1.6c0,0.4,0.3,0.8,1,1.2c-0.8,0.4,-1.2,0.9,-1.2,1.5c0,0.6,0.2,1.1,0.8,1.4c0.5,0.4,1.2,0.6,2.1,0.6c1.1,0,2,-0.3,2.8,-0.8c0.7,-0.5,1.1,-1.2,1.1,-2.1c0,-0.6,-0.1,-1,-0.5,-1.3c-0.3,-0.3,-0.8,-0.4,-1.4,-0.4l-2.6,0c-0.3,0,-0.6,0,-0.7,-0.1c-0.2,-0.1,-0.3,-0.2,-0.3,-0.4c0,-0.3,0.4,-0.6,1.1,-0.9c0.2,0,0.3,0,0.5,0Zm-1.1,-1.4c-0.3,-0.3,-0.4,-0.6,-0.4,-1.1c0,-0.5,0.1,-0.9,0.4,-1.2c0.3,-0.3,0.6,-0.4,1.1,-0.4c0.4,0,0.8,0.1,1,0.4c0.3,0.3,0.4,0.7,0.4,1.2c0,0.5,-0.1,0.9,-0.4,1.1c-0.3,0.3,-0.6,0.5,-1,0.5c-0.5,0,-0.8,-0.2,-1.1,-0.5Zm-0.2,6.2c-0.4,-0.3,-0.5,-0.5,-0.5,-0.8c0,-0.2,0,-0.4,0.1,-0.6c0.2,-0.2,0.3,-0.3,0.6,-0.5c0.2,-0.2,0.4,-0.3,0.5,-0.3c0.2,0,0.5,0,0.9,0c0.6,-0.1,1.1,-0.1,1.3,-0.1c0.8,0,1.2,0.3,1.2,0.8c0,0.5,-0.3,0.9,-0.8,1.3c-0.6,0.3,-1.2,0.5,-2,0.5c-0.5,0,-1,-0.1,-1.3,-0.3Z" class="g18_42" />
<path d="M1121.8,412.3c0,-1.8,-0.7,-2.6,-2.2,-2.6c-0.9,0,-1.8,0.4,-2.6,1.3l0,-3.9l-1.2,0l0,10.5l1.2,0l0,-5.6c0.8,-0.9,1.6,-1.3,2.3,-1.3c0.4,0,0.8,0.1,1,0.4c0.2,0.3,0.3,0.8,0.3,1.5l0,5l1.2,0l0,-5.3Z" class="g18_42" />
<path d="M1130.9,416.4c-0.7,0.2,-1.3,0.4,-1.9,0.4c-0.4,0,-0.7,-0.1,-0.9,-0.4c-0.2,-0.3,-0.3,-0.6,-0.3,-1.1l0,-4.5l2.6,0l0,-1l-2.6,0l0,-2.1l-1.1,0l0,2.1l-1.5,0l0,1l1.5,0l0,4.8c0,1.5,0.7,2.2,2,2.2c0.8,0,1.6,-0.2,2.4,-0.5l-0.2,-0.9Z" class="g18_42" />
<text 
x="1086" 
y="417" 
dx="0,0,0,0,0" 
class="s1_42"
>right</text>

<text 
x="879" 
y="439" 
dx="0,0,0,-0.9,0,0,0,-0.9,0,0,0,0.3,-1.4,0,-0.9,0,0,0,0,-0.9,0,0,0,0" 
class="s3_42"
>in the query. Like this:</text>

<path d="M870,266l0,5l-4,0l0,47l4,0l0,5l264,0l0,-5l4,0l0,-47l-4,0l0,-5Z" class="g20_42" />
<text 
transform="matrix(0.98, 0, 0, 1, 878, 310)"
dx="0,-4.1,-3.1,0,-1.7,-3.4,-5.7,-3.6,-3,-11.9,0" 
class="s9_42"
>The result!</text>

<text 
x="879" 
y="492" 
dx="0,0,0,0,0,0,0,-1.8,0,0,0,-1.8,0,0,0,-1.8,0,0,0,0,0,0,0,0,0,0,0" 
class="s1_42"
>@media all and (min-width: </text>

<text 
x="879" 
y="513" 
dx="0,0,0,0,0,0,0,-1.8" 
class="s1_42"
>900px) {</text>

<text 
x="879" 
y="535" 
dx="0,0,0,0,0,0,0,0,-1.8" 
class="s1_42"
>article {</text>

<text 
x="879" 
y="556" 
dx="0,0,0,0,0,0,0,-1.8,0,0,0,0,0" 
class="s1_42"
>float: right;</text>

<text 
x="879" 
y="578" 
dx="0,0,0,0,0,0,0,-1.8,0,0,0" 
class="s1_42"
>width: 66%;</text>

<text 
x="879" 
y="599" 
dx="0" 
class="s1_42"
>}</text>

<text 
x="879" 
y="620" 
dx="0,0,0,0,0,0,-1.8" 
class="s1_42"
>aside {</text>

<text 
x="879" 
y="642" 
dx="0,0,0,0,0,0,0,-1.8,0,0,0,0,0" 
class="s1_42"
>float: right;</text>

<text 
x="879" 
y="663" 
dx="0,0,0,0,0,0,0,0,0,0,0,0,0,0,0,-1.8,0,0,0,0" 
class="s1_42"
>padding-right: 24px;</text>

<text 
x="879" 
y="684" 
dx="0,0,0,0,0,0,0,-1.8,0,0,0" 
class="s1_42"
>width: 34%;</text>

<text 
x="879" 
y="706" 
dx="0" 
class="s1_42"
>}</text>

<text 
x="879" 
y="727" 
dx="0,0,0,0,0,0,0,-1.8" 
class="s1_42"
>footer {</text>

<text 
x="879" 
y="749" 
dx="0,0,0,0,0,0,0,-1.8,0,0,0,0" 
class="s1_42"
>clear: both;</text>

<text 
x="879" 
y="770" 
dx="0" 
class="s1_42"
>}</text>

<text 
x="879" 
y="791" 
dx="0" 
class="s1_42"
>}</text>

<text 
x="1184" 
y="145" 
dx="0,0,0,0,0,-0.5,0,0,0,-0.5,0,0,0,0,0,0,0,0" 
class="s10_42"
>Meet the Nanonauts</text>

<text 
x="1193" 
y="282" 
dx="0,0,0,0,0,0,0,-0.5,0,-0.5,0,0,0,0.1,0,0,-0.5,-0.1,0,0,0,0,0,-0.2,0,0,0,0,0,0" 
class="s10_42"
>Daniel – Singer extraordinaire</text>

<text 
x="1193" 
y="395" 
dx="0,0,0,0,-0.5,0,-0.5,0,0,0,0,0,0,0,-0.5,0,-0.2,0,0,0,0,-0.5,0,0,0,0,0,0" 
class="s10_42"
>Sam – One-man rhythm section</text>

<text 
x="1193" 
y="509" 
dx="0,0,0,0,-0.1,0,-0.5,0,-0.5,0,0,-0.5,0,0,0,0,-0.5,0,0,0,-0.5,0,0,0,0,0,0,0,-0.4,-0.5,0,0,0,0,0,0,-0.5,0,0,-0.2,0,-0.5,0" 
class="s10_42"
>Holly – If it's got strings, she'll play it</text>

<text 
x="1193" 
y="622" 
dx="0,0,0,0.1,0,0,0,-0.5,0,-0.5,-0.1,-0.1,0,0,0,0,-0.2,0,-0.5,0,0,0,0,0,-0.2" 
class="s10_42"
>Dervla – Keyboard maestro</text>

<text 
x="1551" 
y="92" 
dx="0,0,0,0,0,0,-0.4,0" 
class="s11_42"
>About Us</text>

<text 
x="1253" 
y="297" 
dx="0,0,0,0,0,0,0,0.3,0,0,0.3,0,0,0,0.3,0,0,0,0,0,0,0,0,0,0,0.3,0,0,0,0,0,-0.2,0,0.3,0,0,0.3,0,0,0,0,0,0.3,0,0,0.3,0,0,0,0,0.3,0,-0.1,0,0.3,0,0,0,0.3,0,0,0,0,0.3,0,0.3,0,0,0,0.3,0,0,0,0,0.3,0,0,0,0,0.3,0,0,0,0,0.3,0,0,0,0,0,0,0,0.3,0,0,0,0,0.3,0,0,0" 
class="s12_42"
>Daniel is the Nanonauts' singer. He likes to sing a l the time – not just when he's playing with the </text>

<text 
x="1253" 
y="303" 
dx="0,0,0,0,0,0,0,0,0,0,0,-0.3,0,0,0,-0.3,0,0,0,-0.3,0,0,0,-0.3,0,0,0,-0.3,0,0,0,-0.3,0,0,-0.3,0,0,0,0,0,0,0,-0.3,0,0,-0.3,0,0,0,0,-0.3,0,0,0,0,0,0,-0.3,0,0,-0.3,0,0,0,0,0,0,0,-0.3,0,0,-0.3,0,0,0,0" 
class="s12_42"
>Nanonauts! His mum and dad say he learned to sing before he learned to talk!</text>

<text 
x="1253" 
y="309" 
dx="0,0,0,0,0,0,0,-0.3,0,0,0,0,-0.3,0,0,0,0,0,-0.3,0,0,0,0,0,0,0,0,-0.3,0,0,0,-0.3,0,0,-0.3,0,0,0,0,0,0,0,0,-0.3,0,0,0,-0.3,0,0,0,0,-0.3,0,0,0,0,0,0,0,0,0" 
class="s12_42"
>Daniel also plays clarinet and is learning the alto saxophone.</text>

<text 
x="1253" 
y="409" 
dx="0,0,0,0,0,0,0,0,0,0,0,0,0,0,0,0,0,0,0,0,0,0,0,0,0,0,0,0,0,0,0,0,0,0,0,0,0,0,0,0,0,0,0,0,0,0,0,0,0,0,0,0,0,0,0,0,0,0,0,0,0,0,0,0,0,0,0,0,0,0,0,0,0,0,0,0,0,0,0,0,0,0,0,0,0,0,0,0,0,0,0,0,0,0,0" 
class="s12_42"
>Sam had music in his blood from the day he was born. Both his mum and dad play instruments and </text>

<text 
x="1253" 
y="415" 
dx="0,0,0,0,0.1,0,0,0,0.1,0,0,0,0.1,0,0,0,0,0,0.1,0,0,0,0,0.1,0,0,0,0.1,0,0,0,0,0.1,0,0,0.1,0,0,0,0.1,0,0,0,0,0.1,0,0,0,0,0.1,0,0,0,0,0,0.1,0,0,0,0,0.1,0,0,0,0,0,0.1,0,0,0,0.1,0,0,0.1,0,0,0,0,0,0,0,0.1,0,0,0,0,0.1,0,0,0,0.1,0,0,0,0,0,0,0,0,0,0,0" 
class="s12_42"
>got him his first drum kit when he was only five years old, which led to trouble with the neighbours. </text>

<text 
x="1253" 
y="420" 
dx="0,0,0,0.2,0,0,0,0,0.2,0,0,0,0,0,0.2,0,0,0.2,0,0,0,0,0,0.2,0,0,0,0.2,0,0,0,0,0.2,0,0,0,0,0,0,0.2,0,0,0,0.2,0,0,0.2,0,0,0,0,0.2,0,0,0,0,0,0.2,0,0,0,0.2,0,0,0,0,0,0,0.2,0,0,0,0.2,0,0,0,0,0,0.2,0,0,0,0,0,0,0,0.2,0,0,0.2,0,0,0" 
class="s12_42"
>On some songs he plays the bass guitar and on some songs the drums. Sam loves playing in the </text>

<text 
x="1253" 
y="426" 
dx="0,0,0,0,0,0,0,0,0,0,-0.3,0,0,0,-0.3,0,0,0,0,0,-0.3,0" 
class="s12_42"
>Nanonauts but hates ca</text>

<text 
x="1302" 
y="426" 
dx="0,0,0,0,0,0,-0.3,0,0,0,-0.3,0,0,0,0,0,0,0,-0.3,0,0,0,0,0,0" 
class="s12_42"
>rying his drumkit around.</text>

<text 
x="1253" 
y="522" 
dx="0,0,0,0,0,0,0,0,0,0.6,0,0,0,0,0,0,0,0.6,0,0,0,0,0,0,0,0,0.6,0,0,0,0,0.6,0,0,0,0,0,0,0,0.6,0,0,0,0,0,0,0,0,0.6,0,0,0,0,0,0.6,0,0,-0.1,0,0,0.6,0,0,0,0.6,0,0,0,0,0.6,0,0,0,0,0.6,0,-0.1,0,0,0.6,0,0,0,0.6,0,0,0,0,0,0,0,0.6,0,0,0,0.6,0,0" 
class="s12_42"
>Acoustic guitar? Electric lead guitar? Ukelele? Harp? Ho ly can play them a l. She started o f by </text>

<text 
x="1253" 
y="528" 
dx="0,0,0,0,0,0,0,-0.2,0,0,0,0,0,0,0,0,-0.2,0,0,0,0,0,0,0,-0.2,0,0,0,0,-0.2,0,0,0,0,0,0,0,0,0,-0.2,0,0,0,0,0,-0.2,0,0,0,-0.2,0,0,0,0,0,0,0,-0.2,0,0,0,0,0,-0.2,0,0,-0.1,0,-0.2,0,0,0,-0.2,0,0,0,0,0,-0.2,0,0,0,0,-0.2,0,0,0,0,-0.2,0,0,-0.2,0,0,0,-0.2,0,0,0" 
class="s12_42"
>making homemade guitars from cardboard boxes and elastic bands ti l her uncle took pity on her and </text>

<text 
x="1253" 
y="533" 
dx="0,0,0,0,0,0,0,-0.3,0,0,0,-0.3,0,-0.3,0,0,0,0,0,0,0,-0.3,0,0,0,0,0,0,-0.3,0,0,0,-0.3,0,0,0,0,0,0,0,0,0,0,-0.5,0,0,0,0,0,-0.3,0,-0.3,0,0,0,-0.3,0,0,0,0,0,0,0,-0.3,0,0,-0.3,0,0,0,0,0,0,-0.3,0,0,0,-0.3,0,0,0,-0.3,0,0,0,0,0,0" 
class="s12_42"
>bought her a Spanish guitar for Christmas. After a few lessons at school she was flying!</text>

<text 
x="1253" 
y="635" 
dx="0,0,0,0,0,0,0,0.1,0,0,0,0.1,0,0,0,0,0,0.1,0,0.1,0,0,0,0,0,0.1,0,0,0,0.1,0,0,0.1,0,0,0,0,0,0,0.1,0,0,0,0,0,0,0,0.1,0,0,0.1,0,0,0,0,0.1,0,0,0,0,0,0,0,0,0,0,0.1,0,0,0,0,0,0,0,0,0,0,0.1,0,0,0,0.1,0,0,0,0,0,0.1,0,0,0,0,0,0,0,0,0,0,0" 
class="s12_42"
>Dervla has Grade 4 piano but in secret prefers to play electronic keyboards. She loves synthesizer </text>

<text 
x="1253" 
y="641" 
dx="0,0,0,0,0,0,0,-0.3,0,0,0,-0.3,0,0,0,0,0,0,0,-0.3,0,0,0,0,-0.3,0,0,-0.1,0,0,-0.3,0,0,0,0,-0.3,0,0,0,-0.3,0,0,0,0,0,0,-0.3,0,0,0,0,-0.3,0,0,0,-0.3,0,0,0,0,0,0,0,0,0" 
class="s12_42"
>sounds and arguing with Ho ly over who should play the basslines.</text>

<text 
x="1476" 
y="156" 
dx="0,0,0,0,0,1.6,0,0,0,0,0,0,0,0,1.6,0" 
class="s13_42"
>Nano Noodling – </text>

<text 
x="1476" 
y="168" 
dx="0,0,0,0,-0.5,0,0,0,-0.5,0,-0.1,0,-0.5,0,0" 
class="s13_42"
>Buy Our New CD!</text>

<text 
x="1476" 
y="184" 
dx="0,0,0,0,0,0,-0.3,0,0,-0.3,-0.2,0,0,0,0,0,-0.3,0,0,0,0,0,0,0,0,-0.3,0,0,-0.3,0,0,-0.1,0,0" 
class="s14_42"
>Great if you're learning to play! </text>

<text 
x="1476" 
y="193" 
dx="0,0,0,0,-0.1,0,0,0,0,-0.1,0,0,0,0,-0.1,0,0,0,0,0,0,0,0,-0.1,0,0,-0.1,0,0,0,0,-0.1,0,0,0,0,0,0,0,-0.1,0,0,0,0,0,0,0,0,0,0,0,0" 
class="s12_42"
>Are your kids learning to play musical instruments? </text>

<text 
x="1476" 
y="202" 
dx="0,0,0,0,0,-0.2,0,0,0,-0.2,0,0,0,-0.2,0,0,0,0,0,-0.2,0,0,0,0,-0.2,0,0,0,0,0,-0.2,0,0,-0.2,0,0,-0.2,0,0,0,-0.2,0,0,0,0,0,0,0,0,0,0" 
class="s12_42"
>Then why not order this great CD of the Nanonauts' </text>

<text 
x="1476" 
y="210" 
dx="0,0,0,0,0,0,0,0,0,0,0,0,0,0,0,0,0,-0.2,0,0,0,0,0,-0.1,0,0,0,0,0,0,0,0,0,0,0,0,0,-0.1,0,0,0,0,0,0,0,0,0,0,0,0,0,0" 
class="s12_42"
>favourite songs! As we l as having a l the complete </text>

<text 
x="1476" 
y="219" 
dx="0,0,0,0,0,0,0,0.2,0,0,0,0.2,0,0,0.2,0,0,0,0,0,0,0,0,0.2,0,0,0,0,0,0,0,0,0.2,0,0,0.2,0,0,0,0.2,0,0,0,0,0,0.2,0,0,0,0" 
class="s12_42"
>songs, the CD includes versions of the songs with </text>

<text 
x="1476" 
y="228" 
dx="0,0,0,0,0,0.5,0,0,0,0,0,0,0,0,0,0,0.5,0,0,0,0,0,0,0,0.5,0,0.5,0,0,0.5,0,0,0,0.5,0,0,0,0.5,0,0,0,0,0.5,0,0,0,0,0" 
class="s12_42"
>each instrument missing – so you can play along </text>

<text 
x="1476" 
y="236" 
dx="0,0,0,0,0,-0.2,0,0,0,0,-0.2,0,0,0,-0.2,0,0,0,0,0,0,0,0,0,0,0,-0.2,0,0,0,-0.2,0,0,0,0,-0.2,0,0,0,0,-0.2,0,0,0,-0.2,0,0,0,-0.2,0,0,0,0" 
class="s12_42"
>with your own instrument. Not only that but the solo </text>

<text 
x="1476" 
y="245" 
dx="0,0,0,0,0,0,0.2,0,0,0,0.2,0,0,0,0.2,0,0,0,0,0,0.2,0,0,0,0.2,0,0,0,0,0.2,0,0,0,0,0,0,0,0,0,0.2,0,0,0.2,0,0,0,0.2,0,0,0" 
class="s12_42"
>parts and the music are also included, so you can </text>

<text 
x="1476" 
y="254" 
dx="0,0,0,0,0,-0.3,0,0,0,0,-0.3,0,0,-0.3,0,0,0,-0.3" 
class="s12_42"
>copy what to play.</text>

<text 
x="1476" 
y="357" 
dx="0,0,0,0.2,0,0,0,0,0.2,0,0,0.2,0,0,0,0.2,0,0,0.2,0,0,0,0.2,0,0,0,0,0,0,0,0,0.2,0,0,0.2,0,0,0,0,0,0,0,0.2,0,0,0,0" 
class="s15_42"
>On sale at any of our concerts or contact info@</text>

<text 
x="1476" 
y="365" 
dx="0,0,0,0,0,0,0,0,0,0,0,0,0" 
class="s15_42"
>nanonauts.com</text>

<text 
x="1476" 
y="277" 
dx="0,-0.5,0,0,-0.1,0,-0.3,0,0,0" 
class="s14_42"
>Track List</text>

<text 
x="1498" 
y="286" 
dx="0,0" 
class="s16_42"
>• </text>

<text 
x="1511" 
y="286" 
dx="0,0,0,0,0,0,0,0,-0.3,0,0,0,0,0,0,0,-0.3,0,0" 
class="s12_42"
>Magical Mystery Bug</text>

<text 
x="1498" 
y="294" 
dx="0,0" 
class="s16_42"
>• </text>

<text 
x="1511" 
y="294" 
dx="0,0,0,0,0,-0.3,0" 
class="s12_42"
>Boot It</text>

<text 
x="1498" 
y="303" 
dx="0,0" 
class="s16_42"
>• </text>

<text 
x="1511" 
y="303" 
dx="0,0,0,0,-0.3,0,0,0,0,-0.3,0,0,0,-0.3,0,0,0,0,0,0,0,-0.3,0,0,0" 
class="s12_42"
>The Long and Winding Code</text>

<text 
x="1498" 
y="312" 
dx="0,0" 
class="s16_42"
>• </text>

<text 
x="1511" 
y="312" 
dx="0,0,0,0,0,-0.3,0,0,0,0,0,0" 
class="s12_42"
>Dojo Dancing</text>

<text 
x="1498" 
y="320" 
dx="0,0" 
class="s16_42"
>• </text>

<text 
x="1511" 
y="320" 
dx="0,0,0,0,0,0,-0.3,0,0,0,0,0,0,0" 
class="s12_42"
>Empty Elements</text>

<text 
x="1498" 
y="329" 
dx="0,0" 
class="s16_42"
>• </text>

<text 
x="1511" 
y="329" 
dx="0,0,0,0,0,-0.3,0,0,0,0,0,0,0,0" 
class="s12_42"
>Java Chameleon</text>

<text 
x="1476" 
y="399" 
dx="0,0,0,0,-0.5,0,-0.1,0,0,-0.5,0,0,0,0,0,0.2" 
class="s17_42"
>Our Next Concert</text>

<text 
x="1476" 
y="541" 
dx="0,0,0,0,0,-0.5,-0.2,0,0,0,0,0,0,-0.5,0" 
class="s17_42"
>Nano Fashion – </text>

<text 
x="1476" 
y="553" 
dx="0,0,0,0,-0.5,0,0,0,-1.4,-1.1,0,0,0,0,0.2" 
class="s17_42"
>Get the T-shirt</text>

<text 
x="1476" 
y="416" 
dx="0,0,0,0,0,-0.1,-0.5,-0.2,-0.3,0,0,0,0,-0.3,-0.1,0,0,0.1,-0.2,-1,0,0,0,0,0,0,0" 
class="s14_42"
>Sunday, 12th June, Theatre </text>

<text 
x="1476" 
y="433" 
dx="0,0,0,0,0.2,0,0,0,0.2,0,0,0,0,0.2,0,0,0,0,0,0.2,0,0,0.2,0,0,0,0.2,0,0,0,0,0.2,0,0,0,0,0,0,0,0,0.2,-0.1,0,0,0,0" 
class="s18_42"
>Why not come along to our next concert? We're </text>

<text 
x="1476" 
y="442" 
dx="0,0,0,0,0,0,0,0,0.4,0,0,0.4,0,0,0,0,0.4,0,0,0.4,0,0.4,0,0,0,0,0,0,0,0,0,0,0,0,0.4,0,0,0,0,0,0,0,0.4,0,0,0,0.4,0,0,0" 
class="s18_42"
>playing as part of a star-studded line-up for the </text>

<text 
x="1476" 
y="450" 
dx="0,0,0,0,0,0,0,2.5,0,0,0,0,0,0,0,0,0,0,2.5,0,0,0,0,0,0,0,2.5,0,0,0,0,0,0,0,0,0,-0.3,0,2.4,0,0,0" 
class="s18_42"
>Annual Greystones Charity Fundraiser. The </text>

<text 
x="1476" 
y="459" 
dx="0,0,0,0,0,0,1.9,0,0,0,0,0,0,1.9,0,0,1.9,0,0,0,0,0,0,1.9,0,0,0,1.8,0,0,0,1.9,0,0,0,0,0,0,0,0,0" 
class="s18_42"
>event starts at 7:30pm and The Nanonauts </text>

<text 
x="1476" 
y="467" 
dx="0,0,0,0,0,0,0,-0.3,0,0,-0.3,0,0,-0.3,0,0,0,0,0,-0.3,0,0,-0.3,0,0,0,0,0,0,-0.3,0,0,0,0,0,0" 
class="s18_42"
>should be on stage at around 8:30pm.</text>

<text 
x="1476" 
y="485" 
dx="0,0,0,0,-0.3,0,0,0,-0.1,0,-0.3,0,0,-0.3,0,0,0,0,0,0,0,0,0,0,0,-0.3,0,-0.3,0,0,0,0,0,0,0,0,-0.3,0,0,0,0,0" 
class="s18_42"
>And we' l be introducing a surprise guest!</text>

<text 
x="1476" 
y="493" 
dx="0,0,0,0,0,0,0,0,0,0,1.6,0,0,1.6,0,0,1.6,0,0,1.6,0,0,0,1.6,0,0,0,-0.3,0,1.6,0,0,0,1.6,0,0,0,0,0,1.6,0,0" 
class="s18_42"
>Admission is €5 on the door. Kid under 14 </text>

<text 
x="1476" 
y="502" 
dx="0,0,0,0,-0.3,0,0,0,0" 
class="s19_42"
>are free.</text>

<text 
x="1476" 
y="572" 
dx="0,0,0,0,0,0,0,0,0,0,0,0,0,0,0,0,0,0,0,0,0,0,0,0,0,0,0,0,0,0,0,0,0,0,0,0,0,0,0,0,0,0,0,0,0,0,0,0,0" 
class="s18_42"
>If you like the Nanonauts why not buy one of our </text>

<text 
x="1476" 
y="580" 
dx="0,0,0,0,0,0,0,0,-0.3,0,-0.1,0,0,0" 
class="s18_42"
>stylish a l-co</text>

<text 
x="1503" 
y="580" 
dx="0,0,0,0,-0.3,0,0,0,0,0,0,0,0,0,-0.4,-0.3,0,0,0,0,0,0,0" 
class="s18_42"
>ton Nanonauts T-shirts?</text>

<text 
x="1476" 
y="598" 
dx="0,-0.1,0,0,0,0,0,0,0,0,-0.2,0,0,-0.2,0,0,-0.2,0,0,-0.2,-0.2,-0.2,0,0,0,-0.2,0,-0.2,-0.2,0,0,0,0,-0.2,0,0,0,0,-0.2,0,0,0,-0.2,0,0,0,0,0,0,0" 
class="s18_42"
>Available in S, M, L and XL they make the perfect </text>

<text 
x="1476" 
y="606" 
dx="0,0,0,0,0,0,0,0,0,-0.3,0,0,-0.3,0,0,0,0,0,0,0,0,0,-0.3,0,0,0,0,0,0,0" 
class="s18_42"
>birthday or Christmas present.</text>

<text 
x="1184" 
y="155" 
dx="0,-0.1,0,-0.3,0,0,0,-0.3,0,0,0,-0.3,0,0,0,0,0,0,0,0,0,0" 
class="s20_42"
>We are the Nanonauts. </text>

<text 
x="1184" 
y="162" 
dx="0,0,0,0,-0.3,0,0,0,0,0,-0.3,0,0,0,-0.3,0,0,-0.2,0,-0.4,0,-0.3,0,0,0,0,0,0,0,-0.3,0,0,0,0,0,0,-0.3,0,0,0,-0.3,0,0,0" 
class="s20_42"
>Our names are Ho ly, Dervla, Daniel and Sam.</text>

<path d="M204,654l-4,0l0,-4l-4,0l0,-5l-4,0l0,-4l-4,0l0,-4l4,0l4,0l4,0l4,0l4,0l4,0l4,0l4,0l4,0l0,4l-4,0l0,4l-4,0l0,5l-4,0l0,4l-4,0l0,4l-4,0Z" class="g20_42" />
<path d="M353,362l0,4l-4,0l0,4l-4,0l0,5l-4,0l0,4l-4,0l0,-4l0,-5l0,-4l0,-4l0,-4l0,-4l0,-4l0,-4l0,-4l4,0l0,4l4,0l0,4l4,0l0,4l4,0l0,4l4,0l0,4Z" class="g20_42" />
<path d="M454,237l0,4l-4,0l0,4l-4,0l0,4l-4,0l0,4l-4,0l0,-4l0,-4l0,-4l0,-4l0,-4l0,-4l0,-4l0,-4l0,-4l4,0l0,4l4,0l0,4l4,0l0,4l4,0l0,4l4,0l0,4Z" class="g20_42" />
<path d="M1003,472l-4,0l0,-4l-4,0l0,-4l-4,0l0,-4l-4,0l0,-4l4,0l4,0l4,0l4,0l4,0l4,0l4,0l4,0l4,0l0,4l-4,0l0,4l-4,0l0,4l-4,0l0,4l-4,0l0,4l-4,0Z" class="g20_42" />
<path d="M1167,295l0,4l-4,0l0,4l-4,0l0,4l-4,0l0,4l-4,0l0,-4l0,-4l0,-4l0,-4l0,-4l0,-4l0,-4l0,-4l0,-4l4,0l0,4l4,0l0,4l4,0l0,4l4,0l0,4l4,0l0,4Z" class="g20_42" />
<text 
x="1188" 
y="732" 
dx="0,0,-0.1,0,-0.3,0,0,0,-0.3,0,0,0,0,0,0,0,0,0,0,0,-0.3,0,0,0,0,0,0,0,0,0,-0.3,0,-0.3,0,0,0,-0.3,0,0,0,0,0,0,0,0" 
class="s21_42"
>A l the information copyright © the Nanonauts</text>

<text 
x="1529" 
y="732" 
dx="0,0,0,0,0,0,0,0,0,-0.3,0,0,0,0,0,0,0,0,0,0,0,0,0,0,0,0,0" 
class="s21_42"
>Contact: info@nanonauts.com</text>

<text 
x="1188" 
y="92" 
dx="0,0,0" 
class="s11_42"
>the</text>

<text 
x="1201" 
y="95" 
dx="0,0,0,0,0,0,0,0,0" 
class="s11_42"
>nanonauts</text>

<text 
transform="matrix(0.98, 0, 0, 1, 975, 898)"
dx="0,-1.4,0.3,0,5.9,0,0,5.9,0,0,0,5.9,0,5.9,0,0,0,0,0,5.9,0,0,0,0.3,0,5.9,0,0,0,0" 
class="s3_42"
>Try to add a media query that </text>

<text 
transform="matrix(0.98, 0, 0, 1, 975, 920)"
dx="0,0,0,0,0,0,0,0,1.2,0,0,0,1.2,0,0,0,0,1.2,0,0,1.2,0,1.2,0,0,0,0,0,0,0,1.2,0,0,0,0" 
class="s3_42"
>changes the font to a smaller size </text>

<text 
transform="matrix(0.98, 0, 0, 1, 975, 941)"
dx="0,0,0,0,0,-0.9,0,0,0,-0.9,0,0,0,0,0,-0.9,0,0,-0.9,0,0,0,0,0,-0.9,0,0,0,-0.9,0,0,0,0,0,0" 
class="s3_42"
>when the width is below 480 pixels.</text>

<text 
x="971" 
y="866" 
dx="0,-2.2,-2.1,-2.1,-1.8,-2.5,0,0,-2.2,0,0,-1.8,0,0,-1.7,-2.8,-2.4" 
class="s22_42"
>Things to do next</text>

<text 
x="1192" 
y="115" 
dx="0,0,0,0" 
class="s23_42"
>Home</text>

<text 
x="1214" 
y="115" 
dx="0,0,0,0,0,0,-0.3,0" 
class="s23_42"
>About Us</text>

<text 
x="1244" 
y="115" 
dx="0,0,0,0,-0.3,0,0,0,0" 
class="s23_42"
>Our Songs</text>

<text 
x="1278" 
y="115" 
dx="0,0,0,0,-0.3,0,0,-0.3,0,0,-0.1" 
class="s23_42"
>See Us Play</text>

<text 
x="1315" 
y="115" 
dx="0,0,0,-0.1,0,0,0,0,-0.3,0,-0.3,0,0,0,0,0,0.1" 
class="s23_42"
>Playing a Concert</text>

<path d="M1211.5,109.5l0,9" class="g18_42" />
<path d="M1241.5,109.5l0,9" class="g18_42" />
<path d="M1275.5,109.5l0,9" class="g18_42" />
<path d="M1312.5,109.5l0,9" class="g18_42" />
<text 
x="1590" 
y="1019" 
dx="0,-1.4" 
class="s24_42"
>83</text>

<text 
x="36" 
y="1019" 
dx="0,-1.3" 
class="s24_42"
>82</text>



<!-- Any embedded fonts defined here -->
<style type="text/css" ><![CDATA[

@font-face {
	font-family: AndaleMono_1cn;
	src: url("fonts/AndaleMono_1cn.woff") format("woff");
}

@font-face {
	font-family: Helvetica-Light_13m;
	src: url("fonts/Helvetica-Light_13m.woff") format("woff");
}

@font-face {
	font-family: Helvetica-Light_1by;
	src: url("fonts/Helvetica-Light_1by.woff") format("woff");
}

@font-face {
	font-family: Helvetica-Light_13i;
	src: url("fonts/Helvetica-Light_13i.woff") format("woff");
}

@font-face {
	font-family: PixelSplitter-Bold_13w;
	src: url("fonts/PixelSplitter-Bold_13w.woff") format("woff");
}

@font-face {
	font-family: Helvetica_1dx;
	src: url("fonts/Helvetica_1dx.woff") format("woff");
}

@font-face {
	font-family: PixelSplitter-Bold_1bs;
	src: url("fonts/PixelSplitter-Bold_1bs.woff") format("woff");
}

@font-face {
	font-family: Helvetica-Light_13e;
	src: url("fonts/Helvetica-Light_13e.woff") format("woff");
}

@font-face {
	font-family: Helvetica-Bold_1bu;
	src: url("fonts/Helvetica-Bold_1bu.woff") format("woff");
}

@font-face {
	font-family: Helvetica-Light_13q;
	src: url("fonts/Helvetica-Light_13q.woff") format("woff");
}

@font-face {
	font-family: Helvetica_1e3;
	src: url("fonts/Helvetica_1e3.woff") format("woff");
}

]]></style>

</svg>
