<?xml version="1.0" encoding="UTF-8" standalone="no"?>
<!DOCTYPE svg PUBLIC "-//W3C//DTD SVG 1.1//EN"
"http://www.w3.org/Graphics/SVG/1.1/DTD/svg11.dtd">


<!-- Page 43 -->
<svg x="0" y="0" width="1645" height="1061" viewBox="0 0 1645 1061" version="1.1" xmlns="http://www.w3.org/2000/svg" xmlns:xlink="http://www.w3.org/1999/xlink"
style="display: block;margin-left: auto;margin-right: auto;">
<defs>

<style type="text/css"><![CDATA[

.g2_43{
fill: none;
stroke: #11151D;
stroke-width: 1;
stroke-linecap: butt;
stroke-linejoin: miter;
stroke-miterlimit: 4;
}
.g1_43{
fill: #FAAD60;
}

.s4_43{
font-size: 12.22px;
font-family: PixelSplitter-Bold_1bs;
fill: #11151D;
}
.s2_43{
font-size: 15.28px;
font-family: Helvetica-Light_1by;
fill: #11151D;
}
.s3_43{
font-size: 15.28px;
font-family: AndaleMono_1cn;
fill: #11151D;
}
.s1_43{
font-size: 18.33px;
font-family: PixelSplitter-Bold_1bs;
fill: #11151D;
}

]]></style>

</defs>
<path d="M0,0
L0,1061
L1645,1061
L1645,0 Z " 
fill="#FFFFFF" stroke="none" />
<image x="-33" y="-32" width="1713" height="1115" xlink:href="43/img/1.png" />
<image x="-13" y="-11" width="1674" height="1073" opacity="0.5" xlink:href="43/img/2.png" />
<path d="M778.2,1000.8l0,-840.3l-4.3,0l0,-4.3l-725,0l0,4.3l-4.3,0l0,840.6l11.1,-9.7l11.1,9.7L78,991.4l11.1,9.7l11.1,-9.7l11.1,9.7l11.1,-9.7l11.2,9.7l11.1,-9.7l11.1,9.7l11.1,-9.7l11.1,9.7l11.2,-9.7l11.1,9.7l11.1,-9.7l11.1,9.7l11.1,-9.7l11.2,9.7l11.1,-9.7l11.1,9.7l11.1,-9.7l11.1,9.7l11.2,-9.7l11.1,9.7l11.1,-9.7l11.1,9.7l11.1,-9.7l11.2,9.7l11.1,-9.7l11.1,9.7l11.1,-9.7l11.1,9.7l11.2,-9.7l11.1,9.7l11.1,-9.7l11.1,9.7L456,991.4l11.2,9.7l11.1,-9.7l11.1,9.7l11.1,-9.7l11.1,9.7l11.2,-9.7l11.1,9.7L545,991.4l11.1,9.7l11.1,-9.7l11.2,9.7l11.1,-9.7l11.1,9.7l11.1,-9.7l11.1,9.7L634,991.4l11.1,9.7l11.1,-9.7l11.1,9.7l11.1,-9.7l11.2,9.7l11.1,-9.7l11.1,9.7l11.1,-9.7l11.1,9.7l11.2,-9.7l11.1,9.7l11.1,-9.7Z" class="g1_43" />
<path d="M1599.8,1000.4l0,-939.1l-10.9,-9.4l-11.1,9.7l-11.1,-9.7l-11.1,9.7l-11.1,-9.7l-11.2,9.7l-11.1,-9.7l-11.1,9.7L1500,51.9l-11.1,9.7l-11.2,-9.7l-11.1,9.7l-11.1,-9.7l-11.1,9.7l-11.1,-9.7l-11.2,9.7L1411,51.9l-11.1,9.7l-11.1,-9.7l-11.1,9.7l-11.2,-9.7l-11.1,9.7l-11.1,-9.7l-11.1,9.7l-11.1,-9.7l-11.2,9.7l-11.1,-9.7l-11.1,9.7l-11.1,-9.7l-11.1,9.7l-11.2,-9.7l-11.1,9.7l-11.1,-9.7L1222,61.6l-11.1,-9.7l-11.2,9.7l-11.1,-9.7l-11.1,9.7l-11.1,-9.7l-11.1,9.7l-11.2,-9.7L1133,61.6l-11.1,-9.7l-11.1,9.7l-11.1,-9.7l-11.2,9.7l-11.1,-9.7l-11.1,9.7l-11.1,-9.7l-11.1,9.7l-11.2,-9.7l-11.1,9.7l-11.1,-9.7l-11.1,9.7L988.5,51.9l-11.2,9.7L966.2,51.9l-11.1,9.7L944,51.9l-11.1,9.7L921.7,51.9l-11.1,9.7L899.5,51.9l-11.1,9.7L877.3,51.9l-11.2,9.7l0,939l11.2,-9.7l11.1,9.7l11.1,-9.7l11.1,9.7l11.1,-9.7l11.2,9.7L944,990.9l11.1,9.7l11.1,-9.7l11.1,9.7l11.2,-9.7l11.1,9.7l11.1,-9.7l11.1,9.7l11.1,-9.7l11.2,9.7l11.1,-9.7l11.1,9.7l11.1,-9.7l11.1,9.7l11.2,-9.7l11.1,9.7l11.1,-9.7l11.1,9.7l11.1,-9.7l11.2,9.7l11.1,-9.7l11.1,9.7l11.1,-9.7l11.1,9.7l11.2,-9.7l11.1,9.7l11.1,-9.7l11.1,9.7l11.1,-9.7l11.2,9.7l11.1,-9.7l11.1,9.7l11.1,-9.7l11.1,9.7l11.2,-9.7l11.1,9.7l11.1,-9.7l11.1,9.7l11.1,-9.7l11.2,9.7l11.1,-9.7l11.1,9.7l11.1,-9.7l11.1,9.7l11.2,-9.7l11.1,9.7l11.1,-9.7l11.1,9.7l11.1,-9.7l11.2,9.7l11.1,-9.7l11.1,9.7l11.1,-9.7l11.1,9.7l11.2,-9.7l11.1,9.7l11.1,-9.7l11.1,9.7l11.1,-9.7Z" class="g1_43" />
<text 
x="56" 
y="75" 
dx="0,0,0" 
class="s1_43"
>9. </text>

<text 
x="82" 
y="75" 
dx="0,0,0,0,0.6,0,0,0,0,0.6,0,0,0.6,0,0,0,0,0.6,0,0,0,0,0,0.6,0,0,0,0,0,0,0,0,0,0.6,0,0,0,0.6,0,0,0,0,0,-1.4,0,0.6,0,0,0.6,0,0,0,0,0.6,0,0,0.6,0,0,0,0,0,0,0,0,0,0,0.6,0,0,0,0.6,0,0,0,-0.3,0,0,0,0.6,0,0,0,0,0,-0.3,0,0,0,0,0.6,0,0,0,0,0,0,0,0.6,0,0,0" 
class="s2_43"
>Our page is just about finished. But lastly, we need to substitute the correct background colours for </text>

<text 
x="56" 
y="96" 
dx="0,0,0,0,0,0,0,0,0,0,0,0,0,0,0,0,0,0,0,0,0,0,0,0,0,0,0,0,0,0,0,0,0,0,0,0,0,0,0,0,0,0,0,0,0,0,0,0,0,0,0,0,0,-0.3,0,0,0,0,0,0,0,0,0,0,0,0,0" 
class="s2_43"
>the structural elements and add the fancy page background into the </text>

<path d="M534.6,91.5c0,-1.8,-0.8,-2.7,-2.2,-2.7c-1,0,-1.8,0.5,-2.7,1.3l0,-3.8l-1.1,0l0,10.5l1.1,0l0,-5.6c0.8,-0.9,1.6,-1.4,2.3,-1.4c0.5,0,0.8,0.2,1.1,0.5c0.2,0.3,0.3,0.8,0.3,1.5l0,5l1.2,0l0,-5.3Z" class="g2_43" />
<path d="M543.6,95.5C543,95.8,542.3,96,541.7,96c-0.4,0,-0.6,-0.2,-0.8,-0.4c-0.3,-0.3,-0.4,-0.7,-0.4,-1.1l0,-4.5l2.7,0l0,-1l-2.7,0l0,-2.1l-1.1,0l0,2.1l-1.5,0l0,1l1.5,0l0,4.8c0,1.4,0.7,2.2,2.1,2.2c0.7,0,1.5,-0.2,2.3,-0.6l-0.2,-0.9Z" class="g2_43" />
<path d="M553.5,91.3c0,-1.6,-0.5,-2.5,-1.4,-2.5c-0.3,0,-0.6,0.1,-0.9,0.4c-0.3,0.2,-0.6,0.6,-0.8,1c-0.1,-0.4,-0.3,-0.8,-0.5,-1c-0.3,-0.3,-0.5,-0.4,-0.8,-0.4c-0.3,0,-0.6,0.1,-0.9,0.4c-0.3,0.2,-0.6,0.6,-0.8,1l0,-1.2l-1.1,0l0,7.8l1.1,0l0,-5.6c0,-0.1,0.2,-0.3,0.4,-0.7c0.3,-0.5,0.6,-0.7,0.8,-0.7c0.5,0,0.7,0.6,0.7,1.9l0,5.1l1.2,0l0,-5.6c0,-0.1,0.1,-0.3,0.4,-0.7c0.3,-0.5,0.5,-0.7,0.8,-0.7c0.4,0,0.6,0.6,0.6,1.9l0,5.1l1.2,0l0,-5.5Z" class="g2_43" />
<path d="M561.5,95.5l-2,0l0,-9l-3,0l0,1l2,0l0,9l3,0l0,-1Z" class="g2_43" />
<text 
x="526" 
y="96" 
dx="0,0,0,0" 
class="s3_43"
>html</text>

<text 
x="567" 
y="96" 
dx="0,0,0,0,0,0,0,0,0,0,0,0,0,0,0,0,0,0,0,0,0,0,0,0,0,0,0,0,-0.3,0" 
class="s2_43"
>element. The colour rules are </text>

<text 
x="56" 
y="118" 
dx="0,-0.3,0,0,0,0,0,0,0.2,0,-0.3,0,0,0.2,0,0,0" 
class="s2_43"
>removed from the </text>

<path d="M188.6,112.8c0,-1.7,-0.7,-2.6,-2.2,-2.6c-0.9,0,-1.8,0.5,-2.6,1.3l0,-3.9l-1.2,0l0,10.6l1.2,0l0,-5.7c0.8,-0.8,1.6,-1.3,2.3,-1.3c0.5,0,0.8,0.2,1,0.5c0.3,0.3,0.4,0.8,0.4,1.5l0,5l1.1,0l0,-5.4Z" class="g2_43" />
<path d="M198,114c0,-1.2,-0.3,-2.1,-0.9,-2.8c-0.6,-0.7,-1.3,-1,-2.2,-1c-1,0,-1.8,0.4,-2.5,1.1c-0.6,0.7,-0.9,1.7,-0.9,3c0,1.2,0.3,2.2,1,3c0.7,0.7,1.7,1.1,2.8,1.1c0.9,0,1.7,-0.2,2.4,-0.5L197.5,117c-0.7,0.2,-1.5,0.4,-2.2,0.4c-0.7,0,-1.3,-0.3,-1.8,-0.9c-0.6,-0.6,-0.8,-1.3,-0.8,-2.2l5.3,0l0,-0.3Zm-5.2,-0.6c0,-0.7,0.2,-1.2,0.6,-1.6c0.4,-0.4,0.9,-0.6,1.5,-0.6c0.5,0,0.9,0.2,1.3,0.6c0.4,0.5,0.6,1,0.6,1.6l-4,0Z" class="g2_43" />
<path d="M207,116.4l0,-3.4c0,-1.9,-0.9,-2.8,-2.7,-2.8c-0.9,0,-1.9,0.3,-2.9,0.8l0.3,0.9c0.3,-0.2,0.7,-0.4,1.1,-0.5c0.5,-0.1,0.8,-0.2,1.1,-0.2c1.3,0,1.9,0.7,1.9,2l0,0.4l-1.3,0.1c-0.6,0,-1.1,0.1,-1.5,0.2c-0.5,0.2,-0.8,0.3,-1.1,0.5c-0.3,0.2,-0.5,0.5,-0.7,0.8c-0.2,0.2,-0.2,0.6,-0.2,1c0,0.6,0.2,1.1,0.6,1.6c0.5,0.4,1,0.6,1.6,0.6c1.1,0,2,-0.5,2.7,-1.5c0,0.5,0,1,0.1,1.3l1.2,0C207,117.6,207,117,207,116.4Zm-2.3,0.5c-0.4,0.2,-0.8,0.4,-1.2,0.4c-0.4,0,-0.7,-0.2,-0.9,-0.4c-0.3,-0.2,-0.4,-0.5,-0.4,-0.8c0,-0.4,0.1,-0.7,0.4,-0.9c0.3,-0.2,0.6,-0.4,1,-0.5c0.4,-0.1,1.1,-0.2,2.2,-0.2l0,1.4c-0.3,0.4,-0.7,0.7,-1.1,1Z" class="g2_43" />
<path d="M216.1,107.6l-1.2,0l0,3.8c-0.6,-0.8,-1.3,-1.2,-2.3,-1.2c-0.9,0,-1.6,0.4,-2.2,1.1c-0.5,0.8,-0.8,1.7,-0.8,2.9c0,1.2,0.3,2.2,0.8,3c0.5,0.8,1.2,1.2,2.1,1.2c0.5,0,1,-0.2,1.4,-0.4c0.5,-0.3,0.8,-0.6,1,-1l0,1.2l1.2,0l0,-10.6Zm-1.6,8.8c-0.2,0.3,-0.5,0.5,-0.8,0.7c-0.3,0.1,-0.6,0.2,-0.9,0.2c-0.6,0,-1.1,-0.3,-1.4,-0.9c-0.4,-0.5,-0.6,-1.3,-0.6,-2.2c0,-0.8,0.2,-1.6,0.6,-2.1c0.4,-0.6,0.9,-0.9,1.5,-0.9c0.8,0,1.5,0.5,2,1.4l0,3.2c0,0.1,-0.1,0.3,-0.4,0.6Z" class="g2_43" />
<path d="M225.5,114c0,-1.2,-0.3,-2.1,-0.9,-2.8c-0.6,-0.7,-1.3,-1,-2.2,-1c-1,0,-1.8,0.4,-2.5,1.1c-0.6,0.7,-0.9,1.7,-0.9,3c0,1.2,0.3,2.2,1,3c0.7,0.7,1.7,1.1,2.8,1.1c0.9,0,1.7,-0.2,2.4,-0.5L225,117c-0.7,0.2,-1.5,0.4,-2.2,0.4c-0.7,0,-1.3,-0.3,-1.8,-0.9c-0.5,-0.6,-0.8,-1.3,-0.8,-2.2l5.3,0l0,-0.3Zm-5.2,-0.6c0,-0.7,0.2,-1.2,0.6,-1.6c0.4,-0.4,0.9,-0.6,1.5,-0.6c0.5,0,0.9,0.2,1.3,0.6c0.4,0.5,0.6,1,0.6,1.6l-4,0Z" class="g2_43" />
<path d="M232.9,110.2c-1,0,-1.8,0.6,-2.4,1.8l0,-1.6l-1.2,0l0,7.8l1.2,0l0,-5.1c0,0,0.1,-0.2,0.4,-0.6c0.3,-0.3,0.6,-0.6,0.9,-0.8c0.3,-0.2,0.6,-0.3,1,-0.3c0.4,0,0.8,0.1,1.3,0.3l0.5,-1.1c-0.6,-0.3,-1.1,-0.4,-1.7,-0.4Z" class="g2_43" />
<text 
x="181" 
y="118" 
dx="0,0,0,0,0,0" 
class="s3_43"
>header</text>

<text 
x="236" 
y="118" 
dx="0,0" 
class="s2_43"
>, </text>

<path d="M252.3,116.4l0,-3.4c0,-1.9,-0.9,-2.8,-2.7,-2.8c-0.9,0,-1.9,0.3,-2.9,0.8l0.3,0.9c0.3,-0.2,0.7,-0.4,1.1,-0.5c0.5,-0.1,0.9,-0.2,1.2,-0.2c1.2,0,1.8,0.7,1.8,2l0,0.4l-1.3,0.1c-0.6,0,-1.1,0.1,-1.5,0.2c-0.4,0.2,-0.8,0.3,-1.1,0.5c-0.3,0.2,-0.5,0.5,-0.7,0.8c-0.1,0.2,-0.2,0.6,-0.2,1c0,0.6,0.2,1.1,0.7,1.6c0.4,0.4,0.9,0.6,1.5,0.6c1.1,0,2,-0.5,2.7,-1.5c0,0.5,0,1,0.1,1.3l1.2,0c-0.2,-0.6,-0.2,-1.2,-0.2,-1.8Zm-2.3,0.5c-0.4,0.2,-0.8,0.4,-1.2,0.4c-0.4,0,-0.7,-0.2,-0.9,-0.4c-0.3,-0.2,-0.4,-0.5,-0.4,-0.8c0,-0.4,0.2,-0.7,0.4,-0.9c0.3,-0.2,0.7,-0.4,1.1,-0.5c0.4,-0.1,1.1,-0.2,2.1,-0.2l0,1.4c-0.3,0.4,-0.6,0.7,-1.1,1Z" class="g2_43" />
<path d="M260.9,110.5c-0.8,-0.2,-1.5,-0.3,-2.1,-0.3c-1,0,-1.7,0.2,-2.3,0.6c-0.6,0.4,-0.9,0.9,-0.9,1.6c0,0.3,0.1,0.6,0.2,0.8c0.1,0.3,0.3,0.5,0.5,0.7c0.3,0.2,0.6,0.3,0.8,0.4c0.3,0.1,0.8,0.2,1.4,0.4c0.7,0.2,1.2,0.4,1.4,0.7c0.2,0.2,0.3,0.4,0.3,0.7c0,0.4,-0.2,0.7,-0.6,0.9c-0.4,0.3,-1,0.4,-1.6,0.4c-0.7,0,-1.4,-0.2,-2.1,-0.5l-0.2,1c0.6,0.3,1.4,0.5,2.3,0.5c1,0,1.8,-0.2,2.4,-0.7c0.6,-0.4,0.9,-1,0.9,-1.7c0,-0.4,0,-0.7,-0.2,-1c-0.2,-0.3,-0.4,-0.6,-0.7,-0.8c-0.3,-0.2,-0.8,-0.3,-1.3,-0.5L258,113.4c-0.5,-0.1,-0.8,-0.3,-1,-0.5c-0.2,-0.1,-0.3,-0.3,-0.3,-0.6c0,-0.3,0.2,-0.6,0.6,-0.8c0.4,-0.2,0.9,-0.3,1.5,-0.3c0.6,0,1.2,0.1,1.8,0.3l0.3,-1Z" class="g2_43" />
<path d="M267.6,107.7c-0.2,0.2,-0.3,0.3,-0.3,0.6c0,0.2,0.1,0.4,0.3,0.5c0.1,0.2,0.3,0.3,0.5,0.3c0.2,0,0.4,-0.1,0.6,-0.3c0.1,-0.1,0.2,-0.3,0.2,-0.5c0,-0.3,-0.1,-0.5,-0.2,-0.6c-0.2,-0.2,-0.4,-0.2,-0.6,-0.2c-0.2,0,-0.4,0,-0.5,0.2Zm1.1,2.7l-3.5,0l0,1l2.3,0l0,6.8l1.2,0l0,-7.8Z" class="g2_43" />
<path d="M279.8,107.6l-1.2,0l0,3.8c-0.6,-0.8,-1.4,-1.2,-2.4,-1.2c-0.9,0,-1.6,0.4,-2.1,1.1c-0.6,0.8,-0.8,1.7,-0.8,2.9c0,1.2,0.2,2.2,0.8,3c0.5,0.8,1.2,1.2,2.1,1.2c0.5,0,0.9,-0.2,1.4,-0.4c0.4,-0.3,0.8,-0.6,1,-1l0,1.2l1.2,0l0,-10.6Zm-1.6,8.8c-0.3,0.3,-0.5,0.5,-0.8,0.7c-0.3,0.1,-0.6,0.2,-0.9,0.2c-0.6,0,-1.1,-0.3,-1.5,-0.9c-0.3,-0.5,-0.5,-1.3,-0.5,-2.2c0,-0.8,0.2,-1.6,0.6,-2.1c0.3,-0.6,0.8,-0.9,1.5,-0.9c0.8,0,1.4,0.5,2,1.4l0,3.2c0,0.1,-0.1,0.3,-0.4,0.6Z" class="g2_43" />
<path d="M289.2,114c0,-1.2,-0.3,-2.1,-0.9,-2.8c-0.6,-0.7,-1.4,-1,-2.3,-1c-1,0,-1.8,0.4,-2.4,1.1c-0.7,0.7,-1,1.7,-1,3c0,1.2,0.4,2.2,1.1,3c0.7,0.7,1.6,1.1,2.8,1.1c0.9,0,1.7,-0.2,2.4,-0.5L288.7,117c-0.8,0.2,-1.5,0.4,-2.2,0.4c-0.7,0,-1.4,-0.3,-1.9,-0.9c-0.5,-0.6,-0.7,-1.3,-0.7,-2.2l5.3,0l0,-0.3Zm-5.3,-0.6c0.1,-0.7,0.3,-1.2,0.7,-1.6c0.4,-0.4,0.9,-0.6,1.5,-0.6c0.5,0,0.9,0.2,1.3,0.6c0.3,0.5,0.5,1,0.5,1.6l-4,0Z" class="g2_43" />
<text 
x="244" 
y="118" 
dx="0,0,0,0,0" 
class="s3_43"
>aside</text>

<text 
x="294" 
y="118" 
dx="0,0,0,0" 
class="s2_43"
>and </text>

<path d="M331.5,107.5c-0.8,0,-1.4,0.2,-1.7,0.6c-0.3,0.4,-0.5,1,-0.5,2l0,0.3l-2,0l0,1l2,0l0,6.8l1.1,0l0,-6.8l2.7,0l0,-1l-2.7,0l0,-0.1c0,-0.8,0.1,-1.2,0.3,-1.5c0.1,-0.2,0.4,-0.3,0.8,-0.3c0.5,0,1,0,1.5,0.2l0.3,-0.9c-0.6,-0.2,-1.2,-0.3,-1.8,-0.3Z" class="g2_43" />
<path d="M336.9,111.3c-0.7,0.8,-1,1.7,-1,3c0,1.2,0.3,2.2,1,2.9c0.6,0.8,1.4,1.2,2.5,1.2c1.1,0,1.9,-0.4,2.6,-1.2c0.6,-0.7,0.9,-1.7,0.9,-2.9c0,-1.2,-0.3,-2.2,-0.9,-3c-0.7,-0.7,-1.5,-1.1,-2.6,-1.1c-1.1,0,-1.9,0.4,-2.5,1.1Zm0.8,5.2c-0.4,-0.6,-0.6,-1.3,-0.6,-2.2c0,-0.9,0.2,-1.7,0.6,-2.2c0.4,-0.6,1,-0.9,1.7,-0.9c0.7,0,1.3,0.3,1.7,0.9c0.4,0.6,0.6,1.3,0.6,2.2c0,0.8,-0.2,1.6,-0.6,2.2c-0.4,0.6,-1,0.9,-1.7,0.9c-0.7,0,-1.3,-0.3,-1.7,-0.9Z" class="g2_43" />
<path d="M346,111.3c-0.6,0.8,-0.9,1.7,-0.9,3c0,1.2,0.3,2.2,0.9,2.9c0.7,0.8,1.5,1.2,2.6,1.2c1.1,0,1.9,-0.4,2.5,-1.2c0.7,-0.7,1,-1.7,1,-2.9c0,-1.2,-0.3,-2.2,-1,-3c-0.6,-0.7,-1.4,-1.1,-2.5,-1.1c-1.1,0,-1.9,0.4,-2.6,1.1Zm0.9,5.2c-0.4,-0.6,-0.6,-1.3,-0.6,-2.2c0,-0.9,0.2,-1.7,0.6,-2.2c0.4,-0.6,1,-0.9,1.7,-0.9c0.7,0,1.3,0.3,1.7,0.9c0.4,0.6,0.6,1.3,0.6,2.2c0,0.8,-0.2,1.6,-0.6,2.2c-0.5,0.6,-1,0.9,-1.7,0.9c-0.7,0,-1.3,-0.3,-1.7,-0.9Z" class="g2_43" />
<path d="M360.6,116.9c-0.6,0.3,-1.2,0.4,-1.9,0.4c-0.3,0,-0.6,-0.1,-0.8,-0.4c-0.2,-0.2,-0.3,-0.6,-0.3,-1.1l0,-4.4l2.6,0l0,-1l-2.6,0l0,-2.1l-1.1,0l0,2.1l-1.5,0l0,1l1.5,0l0,4.8c0,1.4,0.6,2.2,2,2.2c0.8,0,1.6,-0.2,2.3,-0.6l-0.2,-0.9Z" class="g2_43" />
<path d="M370.2,114c0,-1.2,-0.3,-2.1,-0.9,-2.8c-0.6,-0.7,-1.4,-1,-2.3,-1c-1,0,-1.8,0.4,-2.4,1.1c-0.7,0.7,-1,1.7,-1,3c0,1.2,0.4,2.2,1.1,3c0.7,0.7,1.6,1.1,2.8,1.1c0.9,0,1.7,-0.2,2.4,-0.5L369.7,117c-0.8,0.2,-1.5,0.4,-2.2,0.4c-0.8,0,-1.4,-0.3,-1.9,-0.9c-0.5,-0.6,-0.8,-1.3,-0.8,-2.2l5.4,0l0,-0.3Zm-5.3,-0.6c0,-0.7,0.3,-1.2,0.7,-1.6c0.4,-0.4,0.9,-0.6,1.5,-0.6c0.4,0,0.8,0.2,1.2,0.6c0.4,0.5,0.6,1,0.6,1.6l-4,0Z" class="g2_43" />
<path d="M377.5,110.2c-1,0,-1.8,0.6,-2.4,1.8l0,-1.6l-1.2,0l0,7.8l1.2,0l0,-5.1c0,0,0.1,-0.2,0.4,-0.6c0.3,-0.3,0.6,-0.6,0.9,-0.8c0.3,-0.2,0.7,-0.3,1,-0.3c0.4,0,0.8,0.1,1.3,0.3l0.5,-1.1c-0.5,-0.3,-1.1,-0.4,-1.7,-0.4Z" class="g2_43" />
<text 
x="325" 
y="118" 
dx="0,0,0,0,0,0" 
class="s3_43"
>footer</text>

<text 
x="385" 
y="118" 
dx="0,0,0,0,0,0,0,0,0,0,0.2,0,0,0.2,0,0,0,0,0.2,0,-0.3,0,0.2,0,0,0,0.2,0,0,0,0,0.2,0,0,0,0,0,0,0.2,0,0,0.2,0,0,0" 
class="s2_43"
>elements, so they are the same colour as the </text>

<path d="M698.9,107.6l-1.1,0l0,10.6l1.1,0l0,-1.2c0.3,0.4,0.6,0.8,1,1c0.5,0.2,0.9,0.4,1.4,0.4c0.9,0,1.6,-0.4,2.2,-1.2c0.5,-0.8,0.8,-1.8,0.8,-3c0,-1.2,-0.3,-2.2,-0.8,-2.9c-0.5,-0.7,-1.2,-1.1,-2.1,-1.1c-0.5,0,-1,0.1,-1.4,0.3c-0.4,0.3,-0.8,0.5,-1.1,0.9l0,-3.8Zm2.1,3.6c0.7,0,1.2,0.3,1.5,0.9c0.4,0.5,0.5,1.2,0.5,2.1c0,0.9,-0.1,1.6,-0.5,2.2c-0.4,0.6,-0.9,0.9,-1.5,0.9c-0.4,0,-0.8,-0.1,-1.2,-0.4c-0.3,-0.3,-0.6,-0.7,-0.9,-1.1l0,-3.2c0.6,-0.9,1.3,-1.4,2.1,-1.4Z" class="g2_43" />
<path d="M707.4,111.3c-0.7,0.8,-1,1.7,-1,3c0,1.2,0.3,2.2,1,2.9c0.6,0.8,1.5,1.2,2.5,1.2c1.1,0,1.9,-0.4,2.6,-1.2c0.6,-0.7,0.9,-1.7,0.9,-2.9c0,-1.2,-0.3,-2.2,-0.9,-3c-0.7,-0.7,-1.5,-1.1,-2.6,-1.1c-1,0,-1.9,0.4,-2.5,1.1Zm0.9,5.2c-0.4,-0.6,-0.6,-1.3,-0.6,-2.2c0,-0.9,0.1,-1.7,0.5,-2.2c0.4,-0.6,1,-0.9,1.7,-0.9c0.7,0,1.3,0.3,1.7,0.9c0.4,0.6,0.6,1.3,0.6,2.2c0,0.8,-0.2,1.6,-0.6,2.2c-0.4,0.6,-1,0.9,-1.7,0.9c-0.7,0,-1.2,-0.3,-1.6,-0.9Z" class="g2_43" />
<path d="M722.1,107.6l-1.2,0l0,3.8c-0.6,-0.8,-1.4,-1.2,-2.4,-1.2c-0.8,0,-1.6,0.4,-2.1,1.1c-0.5,0.8,-0.8,1.7,-0.8,2.9c0,1.2,0.3,2.2,0.8,3c0.5,0.8,1.2,1.2,2.1,1.2c0.5,0,0.9,-0.2,1.4,-0.4c0.4,-0.3,0.8,-0.6,1,-1l0,1.2l1.2,0l0,-10.6Zm-1.6,8.8c-0.2,0.3,-0.5,0.5,-0.8,0.7c-0.3,0.1,-0.6,0.2,-0.9,0.2c-0.6,0,-1.1,-0.3,-1.5,-0.9c-0.3,-0.5,-0.5,-1.3,-0.5,-2.2c0,-0.8,0.2,-1.6,0.6,-2.1c0.4,-0.6,0.9,-0.9,1.5,-0.9c0.8,0,1.5,0.5,2,1.4l0,3.2c0,0.1,-0.1,0.3,-0.4,0.6Z" class="g2_43" />
<path d="M730.4,110.4l-2.2,6.2L726,110.4l-1.3,0l2.9,7.8c-0.3,0.7,-0.5,1.2,-0.8,1.5c-0.3,0.4,-0.6,0.5,-1,0.5c-0.3,0,-0.7,0,-1.1,-0.2l-0.1,1c0.4,0.2,0.9,0.2,1.4,0.2c0.5,0,1,-0.2,1.4,-0.6c0.4,-0.5,0.9,-1.3,1.3,-2.4l2.9,-7.8l-1.2,0Z" class="g2_43" />
<text 
x="696" 
y="118" 
dx="0,0,0,0" 
class="s3_43"
>body</text>

<text 
x="732" 
y="118" 
dx="0,0" 
class="s2_43"
>. </text>

<text 
transform="matrix(0.98, 0, 0, 1, 741, 118)"
dx="0,0,0,0" 
class="s2_43"
>The </text>

<text 
transform="matrix(0.98, 0, 0, 1, 56, 139)"
dx="0,0,0,0,0,0,-0.9,0,0,0,0,0,0,0,0,0,0,-0.9,0,0,0,0,0,-0.9,0,0,0,0,-0.9,0,0,0,0" 
class="s2_43"
>final stylesheet looks like this:</text>

<text 
x="879" 
y="87" 
dx="0,0,0,0,0,0,0,0,-1.8,0,0,0,-1.8,0,0,0,0,0,-1.8,0,0,0,0,0" 
class="s3_43"
>border: 2px solid Black;</text>

<text 
x="879" 
y="106" 
dx="0,0,0,0,0,0,0,0,0,0,0,0,0,0,0,-1.8,0,0,0,0" 
class="s3_43"
>border-radius: 10px;</text>

<text 
x="879" 
y="125" 
dx="0,0,0,0,0,0,0,0,0,0,0,0,0,-1.8,0,0,0,0,0,0,0,0,0,0" 
class="s3_43"
>font-family: sans-serif;</text>

<text 
x="879" 
y="144" 
dx="0,0,0,0,0,0,0,0,0,0,0,0,0,-1.8,0,0,0,0" 
class="s3_43"
>font-weight: bold;</text>

<text 
x="879" 
y="164" 
dx="0,0,0,0,0,0,0,0,0,-1.8,0,0,0,0" 
class="s3_43"
>padding: 16px;</text>

<text 
x="879" 
y="183" 
dx="0" 
class="s3_43"
>}</text>

<text 
x="879" 
y="202" 
dx="0,0,0,0,-1.8,0,0,-1.8,0,0,-1.8" 
class="s3_43"
>nav ul li {</text>

<text 
x="879" 
y="221" 
dx="0,0,0,0,0,0,0,0,0,-1.8,0,0,0,0,0,0" 
class="s3_43"
>display: inline;</text>

<text 
x="879" 
y="241" 
dx="0,0,0,0,0,0,0,0,0,0,0,0,0,0,-1.8,0,0,0,-1.8,0,0,0,0,0,-1.8,0,0,0,0,0,0,0" 
class="s3_43"
>border-right: 2px solid #111111;</text>

<text 
x="879" 
y="260" 
dx="0,0,0,0,0,0,0,0,0,0,0,0,0,0,0,-1.8,0,0,0" 
class="s3_43"
>padding-right: 8px;</text>

<text 
x="879" 
y="279" 
dx="0,0,0,0,0,0,0,0,0,0,0,0,0,0,-1.8,0,0,0" 
class="s3_43"
>padding-left: 8px;</text>

<text 
x="879" 
y="298" 
dx="0" 
class="s3_43"
>}</text>

<text 
x="879" 
y="318" 
dx="0,0,0,0,-1.8,0,0,-1.8,0,0,0,0,0,0,0,0,0,0,0,0,0,-1.8" 
class="s3_43"
>nav ul li:last-child {</text>

<text 
x="879" 
y="337" 
dx="0,0,0,0,0,0,0,0,0,0,0,0,0,0,-1.8,0,0,0,0" 
class="s3_43"
>border-right: none;</text>

<text 
x="879" 
y="356" 
dx="0" 
class="s3_43"
>}</text>

<text 
x="879" 
y="375" 
dx="0,0,0,0,-1.8,0,0,-1.8,0,0,-1.8,0,-1.8" 
class="s3_43"
>nav ul li a {</text>

<text 
x="879" 
y="395" 
dx="0,0,0,0,0,0,0,0,0,0,0,0,0,0,0,0,0,-1.8,0,0,0,0" 
class="s3_43"
>text-decoration: none;</text>

<text 
x="879" 
y="414" 
dx="0,0,0,0,0,0,0,-1.8,0,0,0,0,0,0,0" 
class="s3_43"
>color: #111111;</text>

<text 
x="879" 
y="433" 
dx="0" 
class="s3_43"
>}</text>

<text 
x="879" 
y="452" 
dx="0,0,0,0,-1.8,0,0,0,0,0,0,0,0,0,0,0" 
class="s3_43"
>nav li.selected{</text>

<text 
x="879" 
y="472" 
dx="0,0,0,0,0,0,0,-1.8,0,0,0,0,0,0,0" 
class="s3_43"
>color: #606060;</text>

<text 
x="879" 
y="491" 
dx="0" 
class="s3_43"
>}</text>

<text 
x="879" 
y="510" 
dx="0,0,0,0,-1.8,0,0,-1.8,0,0,-1.8,0,0,0,0,0,0,0,-1.8" 
class="s3_43"
>nav ul li a:hover {</text>

<text 
x="879" 
y="529" 
dx="0,0,0,0,0,0,0,0,0,0,0,0,0,0,0,0,0,-1.8,0,0,0,0,0,0,0,0,0" 
class="s3_43"
>text-decoration: underline;</text>

<text 
x="879" 
y="549" 
dx="0" 
class="s3_43"
>}</text>

<text 
x="879" 
y="568" 
dx="0,0,0,-1.8,0,0,0,0,0,0,0,0,0,0,0,-1.8,0" 
class="s3_43"
>/* biographies */</text>

<text 
x="879" 
y="587" 
dx="0,0,0,0,0,0,0,0,-1.8" 
class="s3_43"
>section {</text>

<text 
x="879" 
y="606" 
dx="0,0,0,0,0,0,0,0,0,0,0,0,0,0,0,0,0,0,-1.8,0,0,0,0,0,0,0" 
class="s3_43"
>background-color: #FFFFFF;</text>

<text 
x="879" 
y="626" 
dx="0,0,0,0,0,0,0,0,0,0,0,0,0,0,0,-1.8,0,0,0,0" 
class="s3_43"
>margin-bottom: 24px;</text>

<text 
x="879" 
y="645" 
dx="0,0,0,0,0,0,0,0,0,0,0,0,-1.8,0,0,0,0,0" 
class="s3_43"
>min-height: 320px;</text>

<text 
x="879" 
y="664" 
dx="0,0,0,0,0,0,0,0,0,0,0,0,0,0,-1.8,0,0,0,0" 
class="s3_43"
>padding-left: 24px;</text>

<text 
x="879" 
y="683" 
dx="0,0,0,0,0,0,0,0,0,0,0,0,0,0,0,-1.8,0,0,0,0" 
class="s3_43"
>padding-right: 24px;</text>

<text 
x="879" 
y="703" 
dx="0" 
class="s3_43"
>}</text>

<text 
x="879" 
y="722" 
dx="0,0,0,-1.8,0,0,0,-1.8,0,0,0,0,0,-1.8,0" 
class="s3_43"
>/* the aside */</text>

<text 
x="879" 
y="741" 
dx="0,0,0,0,0,0,-1.8" 
class="s3_43"
>aside {</text>

<text 
x="879" 
y="760" 
dx="0" 
class="s3_43"
>}</text>

<text 
x="879" 
y="780" 
dx="0,0,0,-1.8,0,0,0,0,0,0,-1.8,0" 
class="s3_43"
>/* footer */</text>

<text 
x="879" 
y="799" 
dx="0,0,0,0,0,0,0,-1.8" 
class="s3_43"
>footer {</text>

<text 
x="879" 
y="818" 
dx="0" 
class="s3_43"
>}</text>

<text 
x="879" 
y="837" 
dx="0,0,0,0,0,0,0,-1.8,0,0,0,0,0,0,0,0,0,0,0,-1.8" 
class="s3_43"
>footer p.copyright {</text>

<text 
x="879" 
y="857" 
dx="0,0,0,0,0,0,0,-1.8,0,0,0,0" 
class="s3_43"
>float: left;</text>

<text 
x="879" 
y="876" 
dx="0,0,0,0,0,0,0,0,0,0,0,0,-1.8,0,0,0" 
class="s3_43"
>margin-top: 0px;</text>

<text 
x="879" 
y="895" 
dx="0" 
class="s3_43"
>}</text>

<text 
x="879" 
y="914" 
dx="0,0,0,0,0,0,0,-1.8,0,0,0,0,0,0,0,0,0,-1.8" 
class="s3_43"
>footer p.contact {</text>

<text 
x="879" 
y="934" 
dx="0,0,0,0,0,0,0,0,0,0,0,0,-1.8,0,0,0,0,0" 
class="s3_43"
>text-align: right;</text>

<text 
x="879" 
y="953" 
dx="0" 
class="s3_43"
>}</text>

<text 
x="57" 
y="183" 
dx="0,0,0,-1.8,0,0,0,-1.8,0,0,0,0,0,0,-1.8,0,0,-1.8,0,0,0,0,0,0,-1.8,0,0,0,-1.8,0,0,0,0,0,0,-1.8,0" 
class="s3_43"
>/* set sizing to border box method */</text>

<text 
x="57" 
y="202" 
dx="0,0,0,0,0,-1.8" 
class="s3_43"
>html {</text>

<text 
x="57" 
y="221" 
dx="0,0,0,0,0,0,0,0,0,0,0,0,-1.8,0,0,0,0,0,0,0,0,0,0" 
class="s3_43"
>box-sizing: border-box;</text>

<text 
x="57" 
y="241" 
dx="0" 
class="s3_43"
>}</text>

<text 
x="57" 
y="260" 
dx="0,0,0,-1.8,0,0,0,0,0,0,0,0,0,-1.8,0,0,0,0,0,0,0,-1.8" 
class="s3_43"
>*, *:before, *:after {</text>

<text 
x="57" 
y="279" 
dx="0,0,0,0,0,0,0,0,0,0,0,0,-1.8,0,0,0,0,0,0,0" 
class="s3_43"
>box-sizing: inherit;</text>

<text 
x="57" 
y="298" 
dx="0" 
class="s3_43"
>}</text>

<text 
x="57" 
y="318" 
dx="0,0,0,-1.8,0,0,0,-1.8,0,0,0,0,0,0,0,-1.8,0,0,0,-1.8,0,0,0,0,0,0,0,-1.8,0,0,0,0,0,0,-1.8,0,0,0,-1.8,0,0,0,-1.8,0,0,0,0,-1.8,0,0,0,-1.8,0,0,0,0,0,0,-1.8,0,0,0,0,0,0,-1.8,0,0,0,-1.8,0,0,0,0,0,0,0,0,-1.8,0" 
class="s3_43"
>/* set maximum and minimum widths for the body and centre within the viewport */</text>

<text 
x="57" 
y="337" 
dx="0,0,0,0,0,-1.8" 
class="s3_43"
>body {</text>

<text 
x="57" 
y="356" 
dx="0,0,0,0,0,0,0,0,0,0,0,0,0,0,0,0,0,0,-1.8,0,0,0,0,0,0,0" 
class="s3_43"
>background-color: Thistle;</text>

<text 
x="57" 
y="375" 
dx="0,0,0,0,0,0,0,0,0,0,0,0,0,-1.8,0,0,0,0,0,0,0,0,0,0" 
class="s3_43"
>font-family: sans-serif;</text>

<text 
x="57" 
y="395" 
dx="0,0,0,0,0,0,0,0,0,0,0,0,0,-1.8,0,0,0,0" 
class="s3_43"
>margin-left: auto;</text>

<text 
x="57" 
y="414" 
dx="0,0,0,0,0,0,0,0,0,0,0,0,0,0,-1.8,0,0,0,0" 
class="s3_43"
>margin-right: auto;</text>

<text 
x="57" 
y="433" 
dx="0,0,0,0,0,0,0,0,0,0,0,-1.8,0,0,0,0,0,0" 
class="s3_43"
>max-width: 1024px;</text>

<text 
x="57" 
y="452" 
dx="0,0,0,0,0,0,0,0,0,0,0,-1.8,0,0,0,0,0" 
class="s3_43"
>min-width: 256px;</text>

<text 
x="57" 
y="472" 
dx="0,0,0,0,0,0,0,0,0,0,0,0,0,-1.8,0,0,0" 
class="s3_43"
>padding-top: 8px;</text>

<text 
x="57" 
y="491" 
dx="0,0,0,0,0,0,0,0,0,0,0,0,0,0,0,0,-1.8,0,0,0,0" 
class="s3_43"
>padding-bottom: 24px;</text>

<text 
x="57" 
y="510" 
dx="0,0,0,0,0,0,0,0,0,0,0,0,0,0,-1.8,0,0,0,0" 
class="s3_43"
>padding-left: 24px;</text>

<text 
x="57" 
y="529" 
dx="0,0,0,0,0,0,0,0,0,0,0,0,0,0,0,-1.8,0,0,0,0" 
class="s3_43"
>padding-right: 24px;</text>

<text 
x="57" 
y="549" 
dx="0" 
class="s3_43"
>}</text>

<text 
x="57" 
y="568" 
dx="0,0,0,-1.8,0,0,0,-1.8,0,-1.8,0,0,0,0,0,-1.8,0,0,0,0,0,0,0,0,0,0,-1.8,0" 
class="s3_43"
>/* add a fancy background */</text>

<text 
x="57" 
y="587" 
dx="0,0,0,0,0,-1.8" 
class="s3_43"
>html {</text>

<text 
x="57" 
y="606" 
dx="0,-0.5,-0.5,-0.5,-0.5,-0.5,-0.5,-0.5,-0.5,-0.5,-0.5,-0.5,-2.3,-0.5,-0.5,-0.5,-0.5,-0.5,-0.5,-0.5,-0.5,-0.5,-0.5,-0.5,-0.5,-0.5,-0.5,-0.5,-0.5,-0.5,-0.5,-0.5,-0.5,-0.5,-0.5,-0.5,-2.3,-0.5,-0.5,-0.5,-0.5,-0.5,-0.5,-0.5,-0.5,-2.3,-0.5,-0.5,-0.5,-0.5,-0.5,-0.5,-0.5,-2.3,-0.5,-0.5,-0.5,-0.5,-2.3,-0.5,-0.5,-0.5,-0.5,-0.5,-0.5,-0.5,-0.5,-0.5,-2.3,-0.5,-0.5,-0.5,-0.5,-2.3,-0.5,-0.5,-0.5,-0.5,-0.5,-0.5,-0.5,-0.5" 
class="s3_43"
>background: radial-gradient(circle, SkyBlue, SkyBlue 50%, LightCyan 50%, SkyBlue);</text>

<text 
x="57" 
y="626" 
dx="0,0,0,0,0,0,0,0,0,0,0,0,0,0,0,0,0,-1.8,0,0,0,-1.8,0,0,0" 
class="s3_43"
>background-size: 8px 8px;</text>

<text 
x="57" 
y="645" 
dx="0" 
class="s3_43"
>}</text>

<text 
x="57" 
y="664" 
dx="0,0,0,-1.8,0,0,0,0,0,0,-1.8,0" 
class="s3_43"
>/* header */</text>

<text 
x="57" 
y="683" 
dx="0,0,0,0,0,0,0" 
class="s3_43"
>header{</text>

<text 
x="57" 
y="703" 
dx="0" 
class="s3_43"
>}</text>

<text 
x="57" 
y="722" 
dx="0,0,0,0,0,0,0,-1.8,0,-1.8" 
class="s3_43"
>header p {</text>

<text 
x="57" 
y="741" 
dx="0,0,0,0,0,0,0,-1.8,0,0,0,0" 
class="s3_43"
>float: left;</text>

<text 
x="57" 
y="760" 
dx="0,0,0,0,0,0,0,0,0,0,0,-1.8,0,0,0,0" 
class="s3_43"
>font-size: 16px;</text>

<text 
x="57" 
y="780" 
dx="0,0,0,0,0,0,0,0,0,0,0,0,0,-1.8,0,0,0,0" 
class="s3_43"
>font-weight: bold;</text>

<text 
x="57" 
y="799" 
dx="0,0,0,0,0,0,0,0,0,0,0,0,-1.8,0,0,0" 
class="s3_43"
>margin-top: 0px;</text>

<text 
x="57" 
y="818" 
dx="0" 
class="s3_43"
>}</text>

<text 
x="57" 
y="837" 
dx="0,0,0,0,0,0,0,-1.8,0,0,-1.8" 
class="s3_43"
>header h1 {</text>

<text 
x="57" 
y="857" 
dx="0,0,0,0,0,0,0,0,0,0,0,-1.8,0,0,0,0" 
class="s3_43"
>font-size: 16px;</text>

<text 
x="57" 
y="876" 
dx="0,0,0,0,0,0,0,0,0,0,0,0,-1.8,0,0,0,0,0" 
class="s3_43"
>text-align: right;</text>

<text 
x="57" 
y="895" 
dx="0" 
class="s3_43"
>}</text>

<text 
x="57" 
y="914" 
dx="0,0,0,-1.8,0,0,0,-1.8,0,0,0,0,-1.8,0" 
class="s3_43"
>/* the menu */</text>

<text 
x="57" 
y="934" 
dx="0,0,0,0,-1.8,0,0,-1.8" 
class="s3_43"
>nav ul {</text>

<text 
x="57" 
y="953" 
dx="0,0,0,0,0,0,0,0,0,0,0,0,0,0,0,0,0,-1.8,0,0,0,0" 
class="s3_43"
>list-style-type: none;</text>

<text 
x="57" 
y="972" 
dx="0,0,0,0,0,0,0,0,0,0,0,0,0,0,0,0,0,0,-1.8,0,0,0,0,0,0,0" 
class="s3_43"
>background-color: #B577B5;</text>

<text 
x="1590" 
y="1019" 
dx="0,-1.2" 
class="s4_43"
>85</text>

<text 
x="36" 
y="1019" 
dx="0,-1.5" 
class="s4_43"
>84</text>



<!-- Any embedded fonts defined here -->
<style type="text/css" ><![CDATA[

@font-face {
	font-family: AndaleMono_1cn;
	src: url("fonts/AndaleMono_1cn.woff") format("woff");
}

@font-face {
	font-family: Helvetica-Light_1by;
	src: url("fonts/Helvetica-Light_1by.woff") format("woff");
}

@font-face {
	font-family: PixelSplitter-Bold_1bs;
	src: url("fonts/PixelSplitter-Bold_1bs.woff") format("woff");
}

]]></style>

</svg>
