<?xml version="1.0" encoding="UTF-8" standalone="no"?>
<!DOCTYPE svg PUBLIC "-//W3C//DTD SVG 1.1//EN"
"http://www.w3.org/Graphics/SVG/1.1/DTD/svg11.dtd">


<!-- Page 45 -->
<svg x="0" y="0" width="1645" height="1061" viewBox="0 0 1645 1061" version="1.1" xmlns="http://www.w3.org/2000/svg" xmlns:xlink="http://www.w3.org/1999/xlink"
style="display: block;margin-left: auto;margin-right: auto;">
<defs>
<clipPath id="c0_45"><path d="M1156.8,222.1c-1.3,0,-2.3,-1.1,-2.3,-2.3l0,-5.8c0,-1.3,1,-2.3,2.3,-2.3l5.8,0c1.2,0,2.2,1,2.2,2.3l0,5.8c0,1.2,-1,2.3,-2.2,2.3Z" /></clipPath>

<style type="text/css"><![CDATA[

.g6_45{
fill: #FFD400;
}
.g16_45{
fill: none;
stroke: #8ED8F8;
stroke-width: 1;
stroke-linecap: round;
stroke-linejoin: miter;
}
.g9_45{
fill: #E6E7E8;
}
.g5_45{
fill: none;
stroke: #CDCCCC;
stroke-width: 2;
stroke-linecap: butt;
stroke-linejoin: miter;
stroke-miterlimit: 4;
}
.g14_45{
fill: none;
stroke: #E6E7E8;
stroke-width: 1;
stroke-linecap: round;
stroke-linejoin: miter;
}
.g21_45{
fill: #11151D;
}
.g13_45{
fill: none;
stroke: #6D6E71;
stroke-width: 1;
stroke-linecap: round;
stroke-linejoin: miter;
}
.g8_45{
fill: none;
stroke: #FFD400;
stroke-width: 5;
stroke-linecap: butt;
stroke-linejoin: miter;
stroke-miterlimit: 4;
}
.g11_45{
fill: #6D6E71;
}
.g19_45{
fill: #D9D9D8;
}
.g10_45{
fill: #D1D3D4;
}
.g20_45{
fill: #BABABA;
}
.g1_45{
fill: #FAAD60;
}
.g12_45{
fill: none;
stroke: #6D6E71;
stroke-width: 2;
stroke-linecap: butt;
stroke-linejoin: miter;
}
.g17_45{
fill: #35459C;
}
.g15_45{
fill: #8ED8F8;
}
.g18_45{
}
.g22_45{
fill: none;
stroke: #11151D;
stroke-width: 1;
stroke-linecap: butt;
stroke-linejoin: miter;
stroke-miterlimit: 3;
}
.g7_45{
fill: #FFFFFF;
}
.g23_45{
fill: none;
stroke: #11151D;
stroke-width: 1;
stroke-linecap: butt;
stroke-linejoin: miter;
stroke-miterlimit: 4;
}
.g2_45{
fill: #FFFFFF;
stroke: #CDCCCC;
stroke-width: 2;
stroke-linecap: butt;
stroke-linejoin: miter;
stroke-miterlimit: 4;
}
.g4_45{
fill: #F2F2F3;
}
.g3_45{
fill: #F2F2F3;
stroke: #CDCCCC;
stroke-width: 2;
stroke-linecap: butt;
stroke-linejoin: miter;
stroke-miterlimit: 4;
}

.s12_45{
font-size: 21.39px;
font-family: PTSans-Narrow_1gk;
fill: #11151D;
}
.s17_45{
font-size: 12.22px;
font-family: PixelSplitter-Bold_1bs;
fill: #11151D;
}
.s9_45{
font-size: 7.64px;
font-family: Helvetica-Light_1by;
fill: #11151D;
}
.s15_45{
font-size: 21.39px;
font-family: PixelSplitter-Bold_1bs;
fill: #11151D;
}
.s5_45{
font-size: 10.69px;
font-family: Helvetica-Light_1by;
fill: #11151D;
}
.s10_45{
font-size: 10.69px;
font-family: Helvetica-Bold_1bu;
fill: #11151D;
}
.s7_45{
font-size: 10.69px;
font-family: PTSans-Narrow_1gk;
fill: #11151D;
}
.s1_45{
font-size: 33.61px;
font-family: PixelSplitter-Bold_16m;
fill: #FFFFFF;
}
.s8_45{
font-size: 10.69px;
font-family: PTSans-NarrowBold_1gj;
fill: #11151D;
}
.s14_45{
font-size: 16.81px;
font-family: PixelSplitter-Bold_1bs;
fill: #11151D;
}
.s11_45{
font-size: 19.86px;
font-family: HVDPosterClean_1e7;
fill: #11151D;
}
.s13_45{
font-size: 19.86px;
font-family: AmericanTypewriter_1gi;
fill: #11151D;
}
.s16_45{
font-size: 15.28px;
font-family: Helvetica_1e3;
fill: #11151D;
}
.s6_45{
font-size: 12.22px;
font-family: PTSans-Narrow_1gk;
fill: #11151D;
}
.s3_45{
font-size: 15.28px;
font-family: Helvetica-Bold_1bu;
fill: #11151D;
}
.s4_45{
font-size: 15.28px;
font-family: AndaleMono_1cn;
fill: #11151D;
}
.s2_45{
font-size: 15.28px;
font-family: Helvetica-Light_1by;
fill: #11151D;
}

]]></style>

</defs>
<path d="M0,0
L0,1061
L1645,1061
L1645,0 Z " 
fill="#FFFFFF" stroke="none" />
<image x="-33" y="-32" width="1713" height="1115" xlink:href="45/img/1.png" />
<image x="-13" y="-11" width="1674" height="1073" opacity="0.5" xlink:href="45/img/2.png" />
<path d="M50,53l0,4l-5,0l0,40l5,0l0,4l139,0l0,-4l5,0l0,-40l-5,0l0,-4Z" class="g1_45" />
<path d="M44,994l734,0l0,-416L44,578l0,416Z" class="g2_45" />
<path d="M1082,272l519,0l0,-138l-519,0l0,138Z" class="g2_45" />
<path d="M867,272l184,0l0,-138l-184,0l0,138Z" class="g2_45" />
<path d="M872,450l86,0l0,-73l-86,0l0,73Z" class="g3_45" />
<path d="M1054,450l86,0l0,-73l-86,0l0,73Z" class="g3_45" />
<path d="M872.5,401.9l0,120.4l729.9,0l0,-120.4l-552.8,0l0,-24.8l-86.2,0l0,24.8Z" class="g4_45" />
<path d="M872.5,401.9l0,120.4l729.9,0l0,-120.4l-552.8,0l0,-24.8l-86.2,0l0,24.8l-90.9,0Z" class="g5_45" />
<path d="M447,367l0,5l-4,0l0,88l4,0l0,4l93,0l0,-97Z" class="g6_45" />
<image x="441" y="372" width="88" height="89" xlink:href="45/img/3.png" />
<path d="M870,878l0,4l-4,0l0,48l4,0l0,4l323,0l0,-4l4,0l0,-48l-4,0l0,-4Z" class="g1_45" />
<path d="M1600.6,981.8l0,-433.7l-4.8,0l0,-4.3l-380.7,0l0,4.3l-4.8,0l0,433.7l0.1,0l12.1,-9.8l12.2,9.8l12.2,-9.8l12.2,9.8l12.2,-9.8l12.2,9.8l12.2,-9.8l12.2,9.8l12.2,-9.8l12.2,9.8l12.2,-9.8l12.2,9.8l12.2,-9.8l12.2,9.8l12.2,-9.8l12.2,9.8l12.2,-9.8l12.2,9.8l12.2,-9.8l12.2,9.8l12.2,-9.8l12.2,9.8l12.1,-9.8l12.2,9.8l12.2,-9.8l12.2,9.8l12.2,-9.8l12.2,9.8L1564,972l12.2,9.8l12.2,-9.8Z" class="g1_45" />
<path d="M882,492l705,0l0,-48l-705,0l0,48Z" class="g2_45" />
<path d="M61,718l700,0l0,-76L61,642l0,76Z" class="g2_45" />
<path d="M61,804l700,0l0,-76L61,728l0,76Z" class="g2_45" />
<path d="M61,889l700,0l0,-75L61,814l0,75Z" class="g2_45" />
<path d="M61,975l700,0l0,-75L61,900l0,75Z" class="g2_45" />
<path d="M542,411l0,125l2,0l2,0l0,3l0,2l228,0l0,-2l0,-3l2,0l2,0l0,-121l-2,0l-2,0l0,-2l0,-2Z" class="g7_45" />
<path d="M542.5,411.5l0,125l2,0l2,0l0,3l0,2l228,0l0,-2l0,-3l2,0l2,0l0,-121l-2,0l-2,0l0,-2l0,-2l-232,0Z" class="g8_45" />
<path d="M540,367l0,44l151,0l0,-39l-4,0l0,-5Z" class="g6_45" />
<path d="M708.9,711.8l0,-23.2l42.9,0c3.2,0,3.2,3.1,3.2,3.2l0,16.7c0,3.2,-3,3.3,-3.2,3.3Z" class="g9_45" />
<path d="M751.8,688.8c3,0,3.1,2.9,3.1,3l0,16.7c0,3.1,-2.9,3.1,-3.1,3.1l-42.8,0l0,-22.8Zm0,-0.3l-43.1,0l0,23.4l43.1,0c0,0,3.4,0,3.4,-3.4l0,-16.7c0,0,0,-3.3,-3.4,-3.3Z" class="g10_45" />
<path d="M687.6,711.8c-3.2,0,-3.2,-3.1,-3.2,-3.3l0,-16.7c0,-3.1,3.1,-3.2,3.2,-3.2l21,0l0,23.2Z" class="g9_45" />
<path d="M708.4,688.8l0,22.8l-20.8,0c-3,0,-3,-2.9,-3,-3.1l0,-16.7c0,-3,2.9,-3,3,-3Zm0.3,-0.3l-21.1,0c0,0,-3.3,0,-3.3,3.3l0,16.7c0,0,0,3.4,3.3,3.4l21.1,0Z" class="g10_45" />
<path d="M697.9,701.3l-2.5,2.8l-2.5,-2.8Z" class="g11_45" />
<path d="M696,701l-2,0l0,-3l2,0l0,3Z" class="g11_45" />
<path d="M701,705l-12,0l0,-11l12,0l0,11Zm-12,-9l12,0" class="g12_45" />
<path d="M707,688l24,0l0,23l-24,0l0,-23Z" class="g9_45" />
<path d="M731,711l-24,0l0,-23l24,0l0,23Zm0,-23l-24,0l0,23l24,0l0,-23Z" class="g10_45" />
<path d="M719.7,697.5l2.8,2.6l-2.8,2.5Z" class="g11_45" />
<path d="M719,700l-2,0l0,-1l2,0l0,1Z" class="g11_45" />
<path d="M724,704l-10,0l0,-9l10,0l0,9Zm24,-2l-8,0l0,-7l8,0l0,7Z" class="g12_45" />
<path d="M747.5,704.5l-9,0l0,-9" class="g13_45" />
<path d="M708.9,797.6l0,-23.1l42.9,0c3.2,0,3.2,3.1,3.2,3.2l0,16.7c0,3.2,-3,3.2,-3.2,3.2Z" class="g9_45" />
<path d="M751.8,774.6c3,0,3.1,3,3.1,3.1l0,16.7c0,3,-2.9,3.1,-3.1,3.1l-42.8,0l0,-22.9Zm0,-0.3l-43.1,0l0,23.5l43.1,0c0,0,3.4,0,3.4,-3.4l0,-16.7c0,0,0,-3.4,-3.4,-3.4Z" class="g10_45" />
<path d="M687.6,797.6c-3.2,0,-3.2,-3.1,-3.2,-3.2l0,-16.7c0,-3.2,3.1,-3.2,3.2,-3.2l21,0l0,23.1Z" class="g9_45" />
<path d="M708.4,774.6l0,22.9l-20.8,0c-3,0,-3,-3,-3,-3.1l0,-16.7c0,-3,2.9,-3.1,3,-3.1Zm0.3,-0.3l-21.1,0c0,0,-3.3,0,-3.3,3.4l0,16.7c0,0,0,3.4,3.3,3.4l21.1,0Z" class="g10_45" />
<path d="M697.9,787.1l-2.5,2.9l-2.5,-2.9Z" class="g11_45" />
<path d="M696,787l-2,0l0,-3l2,0l0,3Z" class="g11_45" />
<path d="M701,791l-12,0l0,-11l12,0l0,11Zm-12,-9l12,0" class="g12_45" />
<path d="M707,774l24,0l0,23l-24,0l0,-23Z" class="g9_45" />
<path d="M731,797l-24,0l0,-23l24,0l0,23Zm0,-23l-24,0l0,23l24,0l0,-23Z" class="g10_45" />
<path d="M719.7,783.4l2.8,2.5l-2.8,2.5Z" class="g11_45" />
<path d="M719,786l-2,0l0,-1l2,0l0,1Z" class="g11_45" />
<path d="M724,790l-10,0l0,-9l10,0l0,9Zm24,-2l-8,0l0,-7l8,0l0,7Z" class="g12_45" />
<path d="M747.5,790.5l-9,0l0,-9" class="g13_45" />
<path d="M708.9,883.5l0,-23.2l42.9,0c3.2,0,3.2,3.1,3.2,3.2l0,16.7c0,3.2,-3,3.3,-3.2,3.3Z" class="g9_45" />
<path d="M751.8,860.5c3,0,3.1,2.9,3.1,3l0,16.7c0,3.1,-2.9,3.1,-3.1,3.1l-42.8,0l0,-22.8Zm0,-0.3l-43.1,0l0,23.4l43.1,0c0,0,3.4,0,3.4,-3.4l0,-16.7c0,0,0,-3.3,-3.4,-3.3Z" class="g10_45" />
<path d="M687.6,883.5c-3.2,0,-3.2,-3.1,-3.2,-3.3l0,-16.6c0,-3.2,3.1,-3.3,3.2,-3.3l21,0l0,23.2Z" class="g9_45" />
<path d="M708.4,860.5l0,22.8l-20.8,0c-3,0,-3,-2.9,-3,-3.1l0,-16.6c0,-3.1,2.9,-3.1,3,-3.1Zm0.3,-0.3l-21.1,0c0,0,-3.3,0,-3.3,3.4l0,16.6c0,0,0,3.4,3.3,3.4l21.1,0Z" class="g10_45" />
<path d="M697.9,873l-2.5,2.8L692.9,873Z" class="g11_45" />
<path d="M696,872l-2,0l0,-2l2,0l0,2Z" class="g11_45" />
<path d="M701,877l-12,0l0,-12l12,0l0,12Zm-12,-9l12,0" class="g12_45" />
<path d="M707,860l24,0l0,23l-24,0l0,-23Z" class="g9_45" />
<path d="M731,883l-24,0l0,-23l24,0l0,23Zm0,-23l-24,0l0,23l24,0l0,-23Z" class="g10_45" />
<path d="M719.7,869.2l2.8,2.6l-2.8,2.5Z" class="g11_45" />
<path d="M719,872l-2,0l0,-2l2,0l0,2Z" class="g11_45" />
<path d="M724,876l-10,0l0,-9l10,0l0,9Zm24,-3l-8,0l0,-6l8,0l0,6Z" class="g12_45" />
<path d="M747.5,875.5l-9,0l0,-8" class="g13_45" />
<path d="M708.9,969.3l0,-23.1l42.9,0c3.2,0,3.2,3.1,3.2,3.2l0,16.7c0,3.2,-3,3.2,-3.2,3.2Z" class="g9_45" />
<path d="M751.8,946.3c3,0,3.1,3,3.1,3.1l0,16.7c0,3,-2.9,3.1,-3.1,3.1l-42.8,0l0,-22.9Zm0,-0.3l-43.1,0l0,23.5l43.1,0c0,0,3.4,0,3.4,-3.4l0,-16.7c0,0,0,-3.4,-3.4,-3.4Z" class="g10_45" />
<path d="M687.6,969.3c-3.2,0,-3.2,-3.1,-3.2,-3.2l0,-16.7c0,-3.2,3.1,-3.2,3.2,-3.2l21,0l0,23.1Z" class="g9_45" />
<path d="M708.4,946.3l0,22.9l-20.8,0c-3,0,-3,-3,-3,-3.1l0,-16.7c0,-3,2.9,-3.1,3,-3.1Zm0.3,-0.3l-21.1,0c0,0,-3.3,0,-3.3,3.4l0,16.7c0,0,0,3.4,3.3,3.4l21.1,0Z" class="g10_45" />
<path d="M697.9,958.8l-2.5,2.9l-2.5,-2.9Z" class="g11_45" />
<path d="M696,958l-2,0l0,-2l2,0l0,2Z" class="g11_45" />
<path d="M701,963l-12,0l0,-12l12,0l0,12Zm-12,-9l12,0" class="g12_45" />
<path d="M707,946l24,0l0,23l-24,0l0,-23Z" class="g9_45" />
<path d="M731,969l-24,0l0,-23l24,0l0,23Zm0,-23l-24,0l0,23l24,0l0,-23Z" class="g10_45" />
<path d="M719.7,955.1l2.8,2.5l-2.8,2.6Z" class="g11_45" />
<path d="M719,958l-2,0l0,-2l2,0l0,2Z" class="g11_45" />
<path d="M724,962l-10,0l0,-10l10,0l0,10Zm24,-3l-8,0l0,-7l8,0l0,7Z" class="g12_45" />
<path d="M747.5,961.5l-9,0l0,-8" class="g13_45" />
<path d="M960.8,183.3l20.5,18.4l-20.5,18.4Z" class="g11_45" />
<path d="M960,207l-18,0l0,-12l18,0l0,12Z" class="g11_45" />
<path d="M1000,241l-82,0l0,-79l82,0l0,79ZM929,230l60,0l0,-57l-60,0l0,57Z" class="g11_45" />
<path d="M130,620l225,0l0,-23l-225,0l0,23Zm0,-23l225,0l0,23l-225,0l0,-23Z" class="g10_45" />
<path d="M355.9,620.7l0,-23.2l19.7,0c3.1,0,3.2,3.1,3.2,3.2l0,16.7c0,3.2,-3.1,3.3,-3.2,3.3Z" class="g9_45" />
<path d="M375.6,597.7c3,0,3,2.9,3,3l0,16.7c0,3.1,-2.9,3.1,-3,3.1l-19.6,0l0,-22.8Zm0,-0.3l-19.9,0l0,23.4l19.9,0c0,0,3.3,0,3.3,-3.4l0,-16.7c0,0,0,-3.3,-3.3,-3.3Z" class="g10_45" />
<path d="M369.9,607.7l-2.6,2.8l-2.5,-2.8Z" class="g11_45" />
<path d="M414.2,620.7l0,-23.2l13.3,0c3.1,0,3.2,3.1,3.2,3.2l0,16.7c0,3.2,-3.1,3.3,-3.2,3.3Z" class="g9_45" />
<path d="M427.5,597.7c3,0,3,2.9,3,3l0,16.7c0,3.1,-2.9,3.1,-3,3.1l-13.1,0l0,-22.8Zm0,-0.3l-13.4,0l0,23.4l13.4,0c0,0,3.3,0,3.3,-3.4l0,-16.7c0,0,0,-3.3,-3.3,-3.3Z" class="g10_45" />
<path d="M388.5,620.7c-3.1,0,-3.1,-3.1,-3.1,-3.3l0,-16.7c0,-3.1,3,-3.2,3.1,-3.2l25.4,0l0,23.2Z" class="g9_45" />
<path d="M413.8,597.7l0,22.8l-25.3,0c-2.9,0,-3,-2.9,-3,-3.1l0,-16.7c0,-3,2.9,-3,3,-3Zm0.3,-0.3l-25.6,0c0,0,-3.3,0,-3.3,3.3l0,16.7c0,0,0,3.4,3.3,3.4l25.6,0Z" class="g10_45" />
<path d="M524.7,620.7l0,-23.2l20.2,0c3.2,0,3.2,3.1,3.2,3.2l0,16.7c0,3.2,-3,3.3,-3.2,3.3Z" class="g9_45" />
<path d="M544.9,597.7c3,0,3.1,2.9,3.1,3l0,16.7c0,3.1,-2.9,3.1,-3.1,3.1l-20,0l0,-22.8Zm0,-0.3l-20.3,0l0,23.4l20.3,0c0,0,3.4,0,3.4,-3.4l0,-16.7c0,0,0,-3.3,-3.4,-3.3Z" class="g10_45" />
<path d="M480.7,620.7c-3.1,0,-3.2,-3.1,-3.2,-3.3l0,-16.7c0,-3.1,3.1,-3.2,3.2,-3.2l43.7,0l0,23.2Z" class="g9_45" />
<path d="M524.3,597.7l0,22.8l-43.6,0c-3,0,-3,-2.9,-3,-3.1l0,-16.7c0,-3,2.9,-3,3,-3Zm0.3,-0.3l-43.9,0c0,0,-3.3,0,-3.3,3.3l0,16.7c0,0,0,3.4,3.3,3.4l43.9,0Z" class="g10_45" />
<path d="M680.4,620.7l0,-23.2l20.3,0c3.1,0,3.1,3.1,3.1,3.2l0,16.7c0,3.2,-3,3.3,-3.1,3.3Z" class="g9_45" />
<path d="M700.7,597.7c2.9,0,3,2.9,3,3l0,16.7c0,3.1,-2.9,3.1,-3,3.1l-20.1,0l0,-22.8Zm0,-0.3l-20.4,0l0,23.4l20.4,0c0,0,3.3,0,3.3,-3.4l0,-16.7c0,0,0,-3.3,-3.3,-3.3Z" class="g10_45" />
<path d="M612.7,620.7c-3.2,0,-3.2,-3.1,-3.2,-3.3l0,-16.7c0,-3.1,3.1,-3.2,3.2,-3.2l67.4,0l0,23.2Z" class="g9_45" />
<path d="M680,597.7l0,22.8l-67.3,0c-3,0,-3,-2.9,-3,-3.1l0,-16.7c0,-3,2.9,-3,3,-3Zm0.3,-0.3l-67.6,0c0,0,-3.3,0,-3.3,3.3l0,16.7c0,0,0,3.4,3.3,3.4l67.6,0Z" class="g10_45" />
<path d="M425,607.7l-2.6,2.8l-2.5,-2.8Z" class="g11_45" />
<path d="M538.9,607.7l-2.5,2.8l-2.5,-2.8Z" class="g11_45" />
<path d="M694.7,607.7l-2.6,2.8l-2.5,-2.8Z" class="g11_45" />
<path d="M407,614l-16,0l0,-10l16,0l0,10Z" class="g11_45" />
<path d="M392.5,607.5l0,-1" class="g14_45" />
<path d="M394.5,607.5l0,-1" class="g14_45" />
<path d="M396.5,607.5l0,-1" class="g14_45" />
<path d="M397.5,607.5l0,-1" class="g14_45" />
<path d="M399.5,607.5l0,-1" class="g14_45" />
<path d="M401.5,607.5l0,-1" class="g14_45" />
<path d="M403.5,607.5l0,-1" class="g14_45" />
<path d="M404.5,607.5l0,-1" class="g14_45" />
<path d="M392.5,609.5l0,-1" class="g14_45" />
<path d="M394.5,609.5l0,-1" class="g14_45" />
<path d="M396.5,609.5l0,-1" class="g14_45" />
<path d="M397.5,609.5l0,-1" class="g14_45" />
<path d="M399.5,609.5l0,-1" class="g14_45" />
<path d="M401.5,609.5l0,-1" class="g14_45" />
<path d="M403.5,609.5l0,-1" class="g14_45" />
<path d="M404.5,609.5l0,-1" class="g14_45" />
<path d="M392.5,611.5l0,-2" class="g14_45" />
<path d="M394.5,611.5l0,-2" class="g14_45" />
<path d="M396.5,611.5l0,-2" class="g14_45" />
<path d="M397.5,611.5l0,-2" class="g14_45" />
<path d="M399.5,611.5l0,-2" class="g14_45" />
<path d="M401.5,611.5l0,-2" class="g14_45" />
<path d="M403.5,611.5l0,-2" class="g14_45" />
<path d="M404.5,611.5l0,-2" class="g14_45" />
<path d="M394.5,612.5l10,0" class="g14_45" />
<g clip-path="url(#c0_45)">
<path d="M1164.8,214.5l-10.3,0.1l0,-2.9l10.3,0Z" class="g15_45" />
<path d="M1154.5,214.5l10,0" class="g16_45" />
<path d="M1154.5,214.5l10,0" class="g16_45" />
<path d="M1154.5,214.5l10,0" class="g16_45" />
<path d="M1154.5,215.5l10,0" class="g16_45" />
<path d="M1154.5,215.5l10,0" class="g16_45" />
<path d="M1154.5,215.5l10,0" class="g16_45" />
<path d="M1154.5,215.5l10,0" class="g16_45" />
<path d="M1154.5,215.5l10,0" class="g16_45" />
<path d="M1154.5,215.5l10,0" class="g16_45" />
<path d="M1154.5,215.5l10,0" class="g16_45" />
<path d="M1154.5,216.5l10,0" class="g16_45" />
<path d="M1154.5,216.5l10,0" class="g16_45" />
<path d="M1154.5,216.5l10,0" class="g16_45" />
<path d="M1154.5,216.5l10,0" class="g16_45" />
<path d="M1154.5,216.5l10,0" class="g16_45" />
<path d="M1154.5,216.5l10,0" class="g16_45" />
<path d="M1154.5,216.5l10,0" class="g16_45" />
<path d="M1154.5,216.5l10,0" class="g16_45" />
<path d="M1154.5,217.5l10,0" class="g16_45" />
<path d="M1154.5,217.5l10,0" class="g16_45" />
<path d="M1154.5,217.5l10,0" class="g16_45" />
<path d="M1154.5,217.5l10,0" class="g16_45" />
<path d="M1154.5,217.5l10,0" class="g16_45" />
<path d="M1154.5,217.5l10,0" class="g16_45" />
<path d="M1154.5,217.5l10,0" class="g16_45" />
<path d="M1154.5,218.5l10,0" class="g16_45" />
<path d="M1154.5,218.5l10,0" class="g16_45" />
<path d="M1154.5,218.5l10,0" class="g16_45" />
<path d="M1154.5,218.5l10,0" class="g16_45" />
<path d="M1154.5,218.5l10,0" class="g16_45" />
<path d="M1154.5,218.5l10,0" class="g16_45" />
<path d="M1154.5,218.5l10,0" class="g16_45" />
<path d="M1154.5,219.5l10,0" class="g16_45" />
<path d="M1154.5,219.5l10,0" class="g16_45" />
<path d="M1154.5,219.5l10,0" class="g16_45" />
<path d="M1154.5,219.5l10,0" class="g16_45" />
<path d="M1154.5,219.5l10,0" class="g16_45" />
<path d="M1154.5,219.5l10,0" class="g16_45" />
<path d="M1154.5,219.5l10,0" class="g16_45" />
<path d="M1154.5,219.5l10,0" class="g16_45" />
<path d="M1154.5,220.5l10,0" class="g16_45" />
<path d="M1154.5,220.5l10,0" class="g16_45" />
<path d="M1154.5,220.5l10,0" class="g16_45" />
<path d="M1154.5,220.5l10,0" class="g16_45" />
<path d="M1154.5,220.5l10,0" class="g16_45" />
<path d="M1154.5,220.5l10,0" class="g16_45" />
<path d="M1154.5,220.5l10,0" class="g16_45" />
<path d="M1154.5,221.5l10,0" class="g16_45" />
<path d="M1154.5,221.5l10,0" class="g16_45" />
<path d="M1154.5,221.5l10,0" class="g16_45" />
<path d="M1154.5,221.5l10,0" class="g16_45" />
<path d="M1154.5,221.5l10,0" class="g16_45" />
<path d="M1154.5,221.5l10,0" class="g16_45" />
<path d="M1154.5,221.5l10,0" class="g16_45" />
<path d="M1154.5,221.5l10,0" class="g16_45" />
<path d="M1154.5,222.5l10,0" class="g16_45" />
<path d="M1159.5,222.5l5,0" class="g16_45" />
</g>
<path d="M1162.6,222.5l-5.8,0c-1.5,0,-2.8,-1.2,-2.8,-2.7l0,-5.8c0,-1.5,1.3,-2.8,2.8,-2.8l5.8,0c1.5,0,2.7,1.3,2.7,2.8l0,5.8c0,1.5,-1.2,2.7,-2.7,2.7m-5.8,-10.3c-1,0,-1.8,0.8,-1.8,1.8l0,5.8c0,1,0.8,1.8,1.8,1.8l5.8,0c1,0,1.8,-0.8,1.8,-1.8l0,-5.8c0,-1,-0.8,-1.8,-1.8,-1.8Z" class="g17_45" />
<path d="M1165.4,209.1c-0.1,0,-0.1,0,-0.2,0.1l-5.3,8.3l-1.8,-2.1c-0.4,-0.4,-1,-0.5,-1.4,-0.1c-0.5,0.4,-0.5,1,-0.1,1.5l2.7,3.1c0.2,0.2,0.4,0.3,0.7,0.3c0.1,0,0.1,0,0.1,0c0.3,0,0.6,-0.2,0.8,-0.5l4.5,-6.9Z" class="g18_45" />
<path d="M1162.4,244l-5.7,0c-1.3,0,-2.3,-1.1,-2.3,-2.3l0,-5.8c0,-1.2,1,-2.3,2.3,-2.3l5.7,0c1.3,0,2.3,1.1,2.3,2.3l0,5.8c0,1.2,-1,2.3,-2.3,2.3Z" class="g19_45" />
<path d="M1162.4,244.4l-5.7,0c-1.6,0,-2.8,-1.2,-2.8,-2.7l0,-5.8c0,-1.5,1.2,-2.8,2.8,-2.8l5.7,0c1.5,0,2.8,1.3,2.8,2.8l0,5.8c0,1.5,-1.3,2.7,-2.8,2.7m-5.7,-10.3c-1,0,-1.8,0.8,-1.8,1.8l0,5.8c0,1,0.8,1.8,1.8,1.8l5.7,0c1,0,1.8,-0.8,1.8,-1.8l0,-5.8c0,-1,-0.8,-1.8,-1.8,-1.8Z" class="g20_45" />
<path d="M1108.8,193.5l-5.7,0c-1.3,0,-2.3,-1,-2.3,-2.3l0,-5.7c0,-1.3,1,-2.3,2.3,-2.3l5.7,0c1.3,0,2.3,1,2.3,2.3l0,5.7c0,1.3,-1,2.3,-2.3,2.3Z" class="g19_45" />
<path d="M1108.8,194l-5.7,0c-1.6,0,-2.8,-1.2,-2.8,-2.8l0,-5.7c0,-1.5,1.2,-2.8,2.8,-2.8l5.7,0c1.6,0,2.8,1.3,2.8,2.8l0,5.7c0,1.6,-1.2,2.8,-2.8,2.8m-5.7,-10.3c-1,0,-1.8,0.8,-1.8,1.8l0,5.7c0,1,0.8,1.9,1.8,1.9l5.7,0c1,0,1.8,-0.9,1.8,-1.9l0,-5.7c0,-1,-0.8,-1.8,-1.8,-1.8Z" class="g17_45" />
<path d="M1109.2,188.9l-6.6,0c-0.3,0,-0.5,-0.3,-0.5,-0.5c0,-0.3,0.2,-0.5,0.5,-0.5l6.6,0c0.3,0,0.5,0.2,0.5,0.5c0,0.2,-0.2,0.5,-0.5,0.5Z" class="g17_45" />
<image x="419" y="63" width="385" height="269" xlink:href="45/img/4.png" />
<image x="406" y="52" width="410" height="281" style="mix-blend-mode: multiply;" xlink:href="45/img/5.png" />
<path d="M50,53l0,4l-5,0l0,40l5,0l0,4l139,0l0,-4l5,0l0,-40l-5,0l0,-4Z" class="g21_45" />
<text 
x="62" 
y="90" 
dx="0,-4.7,-2.7,-3.5,-4.2" 
class="s1_45"
>FONTS</text>

<text 
transform="matrix(0.98, 0, 0, 1, 58, 128)"
dx="0,0,0,0,8.8,0,0,8.8,0,0,0,8.8,0,0,0,0,8.8,0,0,0,0,8.8,0,0,8.8,0,0,0,0,0,0,8.8,0,8.8,0,0,0,0,-1.1,0" 
class="s2_45"
>One of the best ways to change a page’s </text>

<text 
transform="matrix(0.98, 0, 0, 1, 58, 150)"
dx="0,0,0,0,0,0,0,0,0,0,0,5.3,0,0,5.3,0,0,5.3,0,0,0,0,0,0,5.3,0,0,0,5.3,0,0,0,0,0,5.3,0,5.3,0,0,0,0,5.3,0,0,5.3,0" 
class="s2_45"
>appearance is to change the font. A font is a </text>

<text 
transform="matrix(0.98, 0, 0, 1, 58, 171)"
dx="0,0,0,0.3,0,0,0,0,0,0,0,3.5,0,0,0,0,0,3.5,0,0,3.5,0,0,0,0,0,3.5,0,0,0,3.5,0,0,0,0,0,3.5,0,0,0,3.5,0,0,0,0,0,0,3.5,0,0,0" 
class="s2_45"
>particular style of text. The fonts you choose for </text>

<text 
transform="matrix(0.98, 0, 0, 1, 58, 193)"
dx="0,0,0,0,0,0.1,0,0,0,0,0.1,0,0,0,0.1,0,0,0,0,0.1,0,0.1,0,0,0,0,0.1,0,-0.3,0,0,0,0,0.1,0,0,0.1,0,0,0,0.1,0,0,0,0.1,0,0,0,0" 
class="s2_45"
>your page can have a huge effect on how the page </text>

<text 
transform="matrix(0.98, 0, 0, 1, 58, 214)"
dx="0,0,0,0,0,0,0,0" 
class="s2_45"
>appears.</text>

<text 
transform="matrix(0.98, 0, 0, 1, 58, 257)"
dx="0,0,0,0.3,0,0,0,0.3,0,0,0,0,0.3,0,0,0.3,0,0,0,0,0.3,0,0.3,0,0,0.3,0,0,0,0,0,0,0,0.3,0,0,0,0,0.3,0,0,0,0,0.3,0,0,0,0,0,0,0.3,0,0,0,0" 
class="s2_45"
>If you want to pick a particular font then you’ll need </text>

<text 
transform="matrix(0.98, 0, 0, 1, 58, 278)"
dx="0,0,0,-0.8,0,0,0,0,0,0,-0.8,0" 
class="s2_45"
>to choose a </text>

<text 
transform="matrix(0.98, 0, 0, 1, 138, 278)"
dx="0,0,0,0,-0.8,-0.3,0,0" 
class="s3_45"
>web font</text>

<text 
transform="matrix(0.98, 0, 0, 1, 199, 278)"
dx="0,0,-0.8,0,-0.8,0,0,0,-0.8,0,0,0,0,-0.8,0,0,-0.8,0,-0.8,0,0,0,0,0,0,0,-0.8,0,0,0,0,-0.8,0,0" 
class="s2_45"
>. A web font is a special type of </text>

<text 
transform="matrix(0.98, 0, 0, 1, 58, 299)"
dx="0,0,0,0,0,1.3,0,0,0,0,1.3,0,0,1.3,0,0,0,0,0,0,0,0,0,0,1.3,0,0,0,0,0,1.3,0,0,0,0,1.3,0,0,0,1.3,0,0,0,0,0,1.3,0,0,0,0,0,0" 
class="s2_45"
>font that is downloaded along with the style sheet. </text>

<text 
transform="matrix(0.98, 0, 0, 1, 58, 321)"
dx="0,0,0,0,0,0,0.1,0,0.1,0,0,0,0.1,0,0,0,0,0.1,0,0,0,0,0,0.1,0,0,0,0.1,0,0,-0.3,0,0.1,0,0,0,0,-0.3,0,0,0.1,0,0,0,0,0.1,0,0,0,0,0" 
class="s2_45"
>Using a web font gives you more control than using </text>

<text 
transform="matrix(0.98, 0, 0, 1, 58, 342)"
dx="0,0,-0.9,0,0,0,0,0,0,0,-0.9,0,0,0,0,-0.9,0,0,0,0" 
class="s2_45"
>a general name like </text>

<path d="M198.3,335.1c-0.7,-0.2,-1.4,-0.3,-2,-0.3c-1,0,-1.7,0.2,-2.3,0.6c-0.6,0.4,-0.9,0.9,-0.9,1.6c0,0.3,0.1,0.6,0.2,0.8c0.1,0.3,0.3,0.5,0.5,0.7c0.3,0.1,0.5,0.3,0.8,0.4c0.3,0.1,0.7,0.2,1.3,0.4c0.8,0.2,1.2,0.4,1.4,0.6c0.2,0.2,0.3,0.5,0.3,0.8c0,0.4,-0.2,0.7,-0.6,0.9c-0.4,0.3,-0.9,0.4,-1.5,0.4c-0.8,0,-1.4,-0.2,-2.1,-0.5l-0.2,1c0.6,0.3,1.4,0.5,2.3,0.5c1,0,1.7,-0.3,2.3,-0.7c0.7,-0.4,1,-1,1,-1.7c0,-0.4,-0.1,-0.8,-0.3,-1c-0.1,-0.3,-0.4,-0.6,-0.7,-0.8c-0.3,-0.2,-0.7,-0.4,-1.2,-0.5L195.5,338c-0.5,-0.2,-0.8,-0.3,-1,-0.5c-0.2,-0.1,-0.3,-0.3,-0.3,-0.6c0,-0.3,0.2,-0.6,0.6,-0.8c0.3,-0.2,0.8,-0.3,1.5,-0.3c0.5,0,1.1,0.1,1.8,0.3l0.2,-1Z" class="g22_45" />
<path d="M207.9,340.9l0,-3.3c0,-1.9,-0.9,-2.8,-2.6,-2.8c-0.9,0,-1.9,0.3,-2.9,0.8l0.3,0.8c0.3,-0.1,0.7,-0.3,1.1,-0.4c0.4,-0.1,0.8,-0.2,1.1,-0.2c1.2,0,1.8,0.7,1.8,2l0,0.4l-1.3,0.1c-0.5,0,-1,0.1,-1.4,0.2c-0.5,0.1,-0.8,0.3,-1.1,0.5c-0.3,0.2,-0.5,0.4,-0.7,0.7c-0.1,0.3,-0.2,0.7,-0.2,1.1c0,0.6,0.2,1.1,0.6,1.5c0.5,0.4,1,0.7,1.5,0.7c1.2,0,2,-0.5,2.7,-1.5c0,0.5,0,0.9,0.1,1.3l1.2,0c-0.2,-0.6,-0.2,-1.2,-0.2,-1.9Zm-2.2,0.6c-0.4,0.2,-0.8,0.3,-1.2,0.3c-0.4,0,-0.7,-0.1,-1,-0.3c-0.2,-0.2,-0.3,-0.5,-0.3,-0.8c0,-0.4,0.1,-0.7,0.4,-0.9c0.3,-0.3,0.6,-0.4,1,-0.5c0.4,-0.1,1.1,-0.2,2.1,-0.3l0,1.4c-0.3,0.5,-0.6,0.8,-1,1.1Z" class="g22_45" />
<path d="M216.9,337.4c0,-1.7,-0.7,-2.6,-2.2,-2.6c-0.9,0,-1.7,0.4,-2.6,1.3l0,-1.1l-1.1,0l0,7.8l1.1,0l0,-5.7c0.8,-0.9,1.6,-1.3,2.3,-1.3c0.4,0,0.8,0.2,1,0.5c0.2,0.3,0.3,0.8,0.3,1.5l0,5l1.2,0l0,-5.4Z" class="g22_45" />
<path d="M225.3,335.1c-0.7,-0.2,-1.4,-0.3,-2,-0.3c-1,0,-1.7,0.2,-2.3,0.6c-0.6,0.4,-0.9,0.9,-0.9,1.6c0,0.3,0.1,0.6,0.2,0.8c0.1,0.3,0.3,0.5,0.6,0.7c0.2,0.1,0.5,0.3,0.7,0.4c0.3,0.1,0.8,0.2,1.3,0.4c0.8,0.2,1.2,0.4,1.4,0.6c0.2,0.2,0.3,0.5,0.3,0.8c0,0.4,-0.2,0.7,-0.6,0.9c-0.4,0.3,-0.9,0.4,-1.5,0.4c-0.7,0,-1.4,-0.2,-2.1,-0.5l-0.2,1c0.6,0.3,1.4,0.5,2.3,0.5c1,0,1.8,-0.3,2.4,-0.7c0.6,-0.4,0.9,-1,0.9,-1.7c0,-0.4,-0.1,-0.8,-0.3,-1c-0.1,-0.3,-0.4,-0.6,-0.7,-0.8c-0.3,-0.2,-0.7,-0.4,-1.2,-0.5L222.5,338c-0.5,-0.2,-0.8,-0.3,-1,-0.5c-0.2,-0.1,-0.2,-0.3,-0.2,-0.6c0,-0.3,0.1,-0.6,0.5,-0.8c0.4,-0.2,0.9,-0.3,1.5,-0.3c0.5,0,1.1,0.1,1.8,0.3l0.2,-1Z" class="g22_45" />
<path d="M234.5,337.5l-5,0l0,2l5,0l0,-2Z" class="g22_45" />
<path d="M243.4,335.1c-0.8,-0.2,-1.5,-0.3,-2.1,-0.3c-1,0,-1.7,0.2,-2.3,0.6c-0.6,0.4,-0.9,0.9,-0.9,1.6c0,0.3,0.1,0.6,0.2,0.8c0.2,0.3,0.3,0.5,0.6,0.7c0.2,0.1,0.5,0.3,0.8,0.4c0.2,0.1,0.7,0.2,1.3,0.4c0.7,0.2,1.2,0.4,1.4,0.6c0.2,0.2,0.3,0.5,0.3,0.8c0,0.4,-0.2,0.7,-0.6,0.9c-0.4,0.3,-1,0.4,-1.6,0.4c-0.7,0,-1.4,-0.2,-2.1,-0.5l-0.2,1c0.6,0.3,1.4,0.5,2.3,0.5c1,0,1.8,-0.3,2.4,-0.7c0.6,-0.4,0.9,-1,0.9,-1.7c0,-0.4,-0.1,-0.8,-0.2,-1c-0.2,-0.3,-0.4,-0.6,-0.8,-0.8c-0.3,-0.2,-0.7,-0.4,-1.2,-0.5L240.5,338c-0.5,-0.2,-0.8,-0.3,-1,-0.5c-0.1,-0.1,-0.2,-0.3,-0.2,-0.6c0,-0.3,0.2,-0.6,0.5,-0.8c0.4,-0.2,0.9,-0.3,1.5,-0.3c0.6,0,1.2,0.1,1.8,0.3l0.3,-1Z" class="g22_45" />
<path d="M253.1,338.5c0,-1.1,-0.3,-2,-0.9,-2.7c-0.5,-0.7,-1.3,-1,-2.2,-1c-0.9,0,-1.8,0.4,-2.4,1.1c-0.6,0.7,-0.9,1.7,-0.9,2.9c0,1.3,0.3,2.3,1,3c0.7,0.8,1.6,1.2,2.8,1.2c0.9,0,1.7,-0.2,2.3,-0.5l-0.2,-0.9c-0.7,0.2,-1.4,0.3,-2.1,0.3c-0.7,0,-1.4,-0.2,-1.9,-0.8c-0.5,-0.6,-0.7,-1.3,-0.7,-2.2l5.2,0l0,-0.4ZM248,338c0,-0.7,0.2,-1.2,0.6,-1.6c0.4,-0.4,0.9,-0.6,1.5,-0.6c0.4,0,0.9,0.2,1.2,0.6c0.4,0.4,0.6,0.9,0.6,1.6l-3.9,0Z" class="g22_45" />
<path d="M260.3,334.8c-0.9,0,-1.7,0.6,-2.3,1.8l0,-1.6l-1.2,0l0,7.8l1.2,0l0,-5.1c0,0,0.1,-0.2,0.4,-0.6c0.3,-0.4,0.5,-0.6,0.9,-0.8c0.3,-0.2,0.6,-0.3,1,-0.3c0.3,0,0.8,0.1,1.3,0.3l0.4,-1.1c-0.5,-0.3,-1.1,-0.4,-1.7,-0.4Z" class="g22_45" />
<path d="M267.9,332.3c-0.1,0.1,-0.2,0.3,-0.2,0.5c0,0.3,0.1,0.4,0.2,0.6c0.2,0.2,0.4,0.2,0.6,0.2c0.2,0,0.4,0,0.5,-0.2c0.2,-0.1,0.2,-0.3,0.2,-0.6c0,-0.2,0,-0.4,-0.2,-0.5c-0.1,-0.2,-0.3,-0.3,-0.5,-0.3c-0.2,0,-0.4,0.1,-0.6,0.3ZM269,335l-3.4,0l0,1l2.3,0l0,6.8l1.1,0l0,-7.8Z" class="g22_45" />
<path d="M278.2,332c-0.8,0,-1.4,0.2,-1.7,0.6c-0.3,0.4,-0.5,1.1,-0.5,2.1l0,0.3l-1.9,0l0,1l1.9,0l0,6.8l1.2,0l0,-6.8l2.5,0l0,-1l-2.5,0l0,-0.2c0,-0.7,0,-1.2,0.2,-1.4c0.1,-0.2,0.4,-0.3,0.8,-0.3c0.5,0,1,0,1.5,0.2l0.3,-1c-0.7,-0.2,-1.2,-0.3,-1.8,-0.3Z" class="g22_45" />
<text 
transform="matrix(0.98, 0, 0, 1, 191, 342)"
dx="0,0,0,0,0,0,0,0,0,0,0" 
class="s4_45"
>sans-serif </text>

<text 
transform="matrix(0.98, 0, 0, 1, 288, 342)"
dx="0,0,0" 
class="s2_45"
>or </text>

<path d="M313.4,337.3c0,-1.7,-0.4,-2.5,-1.4,-2.5c-0.3,0,-0.6,0.1,-0.9,0.4c-0.2,0.2,-0.5,0.5,-0.7,0.9c-0.1,-0.4,-0.3,-0.7,-0.5,-0.9c-0.3,-0.3,-0.5,-0.4,-0.9,-0.4c-0.2,0,-0.5,0.1,-0.8,0.4c-0.3,0.2,-0.6,0.5,-0.8,0.9l0,-1.1l-1.1,0l0,7.8l1.1,0l0,-5.7c0,0,0.2,-0.2,0.5,-0.7c0.2,-0.4,0.5,-0.6,0.7,-0.6c0.5,0,0.7,0.6,0.7,1.8l0,5.2l1.1,0l0,-5.7c0,0,0.2,-0.2,0.4,-0.7c0.3,-0.4,0.6,-0.6,0.8,-0.6c0.4,0,0.7,0.6,0.7,1.8l0,5.2l1.1,0l0,-5.5Z" class="g22_45" />
<path d="M316.4,335.9c-0.7,0.8,-1,1.7,-1,3c0,1.2,0.3,2.2,0.9,2.9c0.7,0.8,1.5,1.2,2.6,1.2c1,0,1.8,-0.4,2.5,-1.2c0.6,-0.7,0.9,-1.7,0.9,-2.9c0,-1.3,-0.3,-2.2,-0.9,-3c-0.7,-0.7,-1.5,-1.1,-2.5,-1.1c-1.1,0,-1.9,0.4,-2.5,1.1Zm0.8,5.2c-0.4,-0.6,-0.6,-1.4,-0.6,-2.2c0,-0.9,0.2,-1.7,0.6,-2.2c0.4,-0.6,1,-0.9,1.7,-0.9c0.7,0,1.2,0.3,1.6,0.9c0.4,0.5,0.6,1.3,0.6,2.2c0,0.8,-0.2,1.5,-0.6,2.1c-0.4,0.6,-0.9,0.9,-1.6,0.9c-0.7,0,-1.3,-0.3,-1.7,-0.8Z" class="g22_45" />
<path d="M330.8,337.4c0,-1.7,-0.7,-2.6,-2.1,-2.6c-0.9,0,-1.8,0.4,-2.6,1.3l0,-1.1l-1.2,0l0,7.8l1.2,0l0,-5.7c0.8,-0.9,1.5,-1.3,2.2,-1.3c0.5,0,0.8,0.2,1.1,0.5c0.2,0.3,0.3,0.8,0.3,1.5l0,5l1.1,0l0,-5.4Z" class="g22_45" />
<path d="M334.4,335.9c-0.7,0.8,-1,1.7,-1,3c0,1.2,0.3,2.2,1,2.9c0.6,0.8,1.4,1.2,2.5,1.2c1,0,1.9,-0.4,2.5,-1.2c0.6,-0.7,0.9,-1.7,0.9,-2.9c0,-1.3,-0.3,-2.2,-0.9,-3c-0.6,-0.7,-1.5,-1.1,-2.5,-1.1c-1.1,0,-1.9,0.4,-2.5,1.1Zm0.8,5.2c-0.4,-0.6,-0.6,-1.4,-0.6,-2.2c0,-0.9,0.2,-1.7,0.6,-2.2c0.4,-0.6,1,-0.9,1.7,-0.9c0.7,0,1.2,0.3,1.6,0.9c0.4,0.5,0.6,1.3,0.6,2.2c0,0.8,-0.2,1.5,-0.6,2.1c-0.4,0.6,-0.9,0.9,-1.6,0.9c-0.7,0,-1.3,-0.3,-1.7,-0.8Z" class="g22_45" />
<path d="M348.3,335.1c-0.8,-0.2,-1.4,-0.3,-2.1,-0.3c-0.9,0,-1.7,0.2,-2.2,0.6c-0.6,0.4,-0.9,0.9,-0.9,1.6c0,0.3,0,0.6,0.2,0.8c0.1,0.3,0.3,0.5,0.5,0.7c0.3,0.1,0.5,0.3,0.8,0.4c0.3,0.1,0.7,0.2,1.3,0.4c0.7,0.2,1.2,0.4,1.4,0.6c0.2,0.2,0.3,0.5,0.3,0.8c0,0.4,-0.2,0.7,-0.6,0.9c-0.4,0.3,-0.9,0.4,-1.6,0.4c-0.7,0,-1.4,-0.2,-2,-0.5l-0.2,1c0.6,0.3,1.4,0.5,2.3,0.5c0.9,0,1.7,-0.3,2.3,-0.7c0.6,-0.4,0.9,-1,0.9,-1.7c0,-0.4,0,-0.8,-0.2,-1c-0.2,-0.3,-0.4,-0.6,-0.7,-0.8c-0.3,-0.2,-0.7,-0.4,-1.2,-0.5L345.5,338c-0.5,-0.2,-0.9,-0.3,-1,-0.5c-0.2,-0.1,-0.3,-0.3,-0.3,-0.6c0,-0.3,0.2,-0.6,0.6,-0.8c0.3,-0.2,0.8,-0.3,1.4,-0.3c0.6,0,1.2,0.1,1.8,0.3l0.3,-1Z" class="g22_45" />
<path d="M353.1,335l-1.1,0l0,10.8l1.1,0l0,-4.2c0.2,0.4,0.6,0.7,1,1c0.4,0.2,0.8,0.4,1.3,0.4c0.9,0,1.6,-0.4,2.1,-1.2c0.6,-0.8,0.8,-1.8,0.8,-3c0,-1.2,-0.2,-2.2,-0.7,-2.9c-0.5,-0.7,-1.2,-1.1,-2.1,-1.1c-0.5,0,-0.9,0.1,-1.4,0.3c-0.4,0.2,-0.7,0.5,-1,0.9l0,-1Zm2.1,0.8c0.6,0,1.1,0.3,1.4,0.8c0.4,0.6,0.5,1.3,0.5,2.2c0,0.9,-0.2,1.6,-0.5,2.2c-0.4,0.6,-0.9,0.9,-1.5,0.9c-0.4,0,-0.8,-0.1,-1.1,-0.4c-0.4,-0.3,-0.7,-0.7,-0.9,-1.1l0,-3.3c0.6,-0.9,1.2,-1.3,2.1,-1.3Z" class="g22_45" />
<path d="M366.9,340.9l0,-3.3c0,-1.9,-0.9,-2.8,-2.7,-2.8c-0.9,0,-1.8,0.3,-2.9,0.8l0.3,0.8c0.4,-0.1,0.7,-0.3,1.2,-0.4c0.4,-0.1,0.8,-0.2,1.1,-0.2c1.2,0,1.8,0.7,1.8,2l0,0.4l-1.3,0.1c-0.6,0,-1,0.1,-1.5,0.2c-0.4,0.1,-0.7,0.3,-1,0.5c-0.3,0.2,-0.6,0.4,-0.7,0.7c-0.2,0.3,-0.2,0.7,-0.2,1.1c0,0.6,0.2,1.1,0.6,1.5c0.4,0.4,0.9,0.7,1.5,0.7c1.1,0,2,-0.5,2.7,-1.5c0,0.5,0,0.9,0.1,1.3l1.1,0c-0.1,-0.6,-0.1,-1.2,-0.1,-1.9Zm-2.2,0.6c-0.4,0.2,-0.9,0.3,-1.3,0.3c-0.3,0,-0.6,-0.1,-0.9,-0.3c-0.2,-0.2,-0.3,-0.5,-0.3,-0.8c0,-0.4,0.1,-0.7,0.4,-0.9c0.3,-0.3,0.6,-0.4,1,-0.5c0.4,-0.1,1.1,-0.2,2.1,-0.3l0,1.4c-0.3,0.5,-0.6,0.8,-1,1.1Z" class="g22_45" />
<path d="M375.6,341.6c-0.7,0.2,-1.3,0.3,-2,0.3c-0.8,0,-1.4,-0.3,-1.9,-0.8c-0.6,-0.6,-0.8,-1.4,-0.8,-2.2c0,-1,0.2,-1.7,0.7,-2.3c0.5,-0.5,1.2,-0.8,2,-0.8c0.6,0,1.2,0.1,1.9,0.4l0.3,-1c-0.7,-0.3,-1.4,-0.4,-2.2,-0.4c-1.2,0,-2.1,0.4,-2.8,1.1c-0.8,0.8,-1.1,1.7,-1.1,3c0,1.2,0.3,2.2,1.1,2.9c0.7,0.8,1.6,1.2,2.8,1.2c0.8,0,1.6,-0.2,2.2,-0.5l-0.2,-0.9Z" class="g22_45" />
<path d="M385.1,338.5c0,-1.1,-0.3,-2,-0.9,-2.7c-0.6,-0.7,-1.3,-1,-2.2,-1c-1,0,-1.8,0.4,-2.4,1.1c-0.6,0.7,-1,1.7,-1,2.9c0,1.3,0.4,2.3,1.1,3c0.7,0.8,1.6,1.2,2.7,1.2c0.9,0,1.7,-0.2,2.4,-0.5l-0.2,-0.9c-0.7,0.2,-1.5,0.3,-2.2,0.3c-0.7,0,-1.3,-0.2,-1.8,-0.8c-0.5,-0.6,-0.7,-1.3,-0.7,-2.2l5.2,0l0,-0.4ZM379.9,338c0.1,-0.7,0.3,-1.2,0.7,-1.6c0.4,-0.4,0.9,-0.6,1.4,-0.6c0.5,0,0.9,0.2,1.3,0.6c0.4,0.4,0.5,0.9,0.5,1.6l-3.9,0Z" class="g22_45" />
<text 
transform="matrix(0.98, 0, 0, 1, 305, 342)"
dx="0,0,0,0,0,0,0,0,0" 
class="s4_45"
>monospace</text>

<text 
transform="matrix(0.98, 0, 0, 1, 386, 342)"
dx="0" 
class="s2_45"
>.</text>

<text 
transform="matrix(0.98, 0, 0, 1, 58, 385)"
dx="0,0,0,0,3.3,0,0,0,0,0,0,0,0,3.3,0,0,3.3,0,0,0,3.3,0,0,0,0,0,0,3.3,0,0,0,0,0,0,0,0,0,3.3,0,0,0,0,3.3,0,0,0" 
class="s2_45"
>For example, if you choose monospace then the </text>

<text 
transform="matrix(0.98, 0, 0, 1, 58, 406)"
dx="0,0,0,0,0,1,0,0,0,0,1,0,0,1,0,0,0,0,1,0,0,1,0,0,-0.3,0,0,-0.3,0,0,0,1,0,0,1,0,0,-0.3,0,0,0,0,1,0,0,0,1,0,0,-0.3,0,0,0,0" 
class="s2_45"
>font that is used is different in Firefox and Chrome. </text>

<text 
transform="matrix(0.98, 0, 0, 1, 58, 428)"
dx="0,0,0,0,0,0,0,-1.4,0,2.5,0,0,2.5,0,0,0,2.5,0,0,0,0,0,0,2.5,0,2.5,0,0,0,2.5,0,0,0,0,2.5,0,0,0,0,2.5,0,0,2.5,0,0,0,0,0,0" 
class="s2_45"
>However, if you choose a web font then it should </text>

<text 
transform="matrix(0.98, 0, 0, 1, 58, 449)"
dx="0,0,0,0,0,0,0,-0.9,0,0,0,-0.9,0,0,0,0,-0.9,0,0,-0.9,0,0,0,-0.9,0,0,0,0,0,0,0,0,0,0,-0.9,0,-0.3,0,0,0,0,-1.4" 
class="s2_45"
>appear the same in any up-to-date browser.</text>

<text 
transform="matrix(0.98, 0, 0, 1, 58, 492)"
dx="0,0,0,0,0.2,0,0,0,0,0,0,0,0.2,0,0,0,0.2,0,0,0.2,0,0,0,0.2,0,0.2,0,0,0,0.2,0,0,0,0,0.2,0,0,0.2,0,0,0.2,0,0,0,0,0,0,0.2,0,0,0,0.2,0,-0.3,0,0,0.2,0,0,0,0.2,0,0,0,0,0,0" 
class="s2_45"
>The easiest way to use a web font is to choose one from the Google </text>

<text 
transform="matrix(0.98, 0, 0, 1, 58, 513)"
dx="0,0,0,0,0,0,1,0,0,0,0,1,0,0,1,0,0,0,0,0,0,0,0,0,0,-0.8,0,0,0,0,0,0,0,0,0,0,0,0,0,0,0,0,0,0,1,0,0,-0.3,0,1,0,0,0,0,0,0,1,0,0,0,1,0,1,0,0,0,0" 
class="s2_45"
>Fonts page at https://www.google.com/fonts. Here you’ll see a long </text>

<text 
transform="matrix(0.98, 0, 0, 1, 58, 535)"
dx="0,0,0,0,0,-0.2,0,0,-0.2,0,0,0,0,0,-0.2,0,0,0,0,0,-0.2,0,0,0,-0.2,0,0,0,-0.2,0,0,0,0,0,0,-0.2,0,-0.3,0,0,0,-0.2,0,0,0,0,0,0,0,0,0,0,-0.2,0,0,-0.3,0,-0.2,0,0,0,0,0,0,0,0,-0.2,0,0,0,0" 
class="s2_45"
>list of fonts which you can choose from. Definitely more exciting than </text>

<text 
transform="matrix(0.98, 0, 0, 1, 58, 556)"
dx="0,0,0,0,-0.9,0,0,0,0,0,0,-0.9,0,0,0,0,0,0,0,-0.9,0,0,0,0" 
class="s2_45"
>the boring default ones!</text>

<text 
transform="matrix(0.98, 0, 0, 1, 879, 64)"
dx="0,0,0,0,0,-0.4,0,0,0,-0.4,0,0,0,0,0,-0.4,0,0,0,-0.4,0,0,0,0" 
class="s2_45"
>Once you found the font </text>

<text 
transform="matrix(0.98, 0, 0, 1, 879, 86)"
dx="0,0,0,0,0,-0.3,0,2.6,0,0,0,0,0,0,0,2.6,0,0,-1.4,0,2.6,0,0,0,0,0" 
class="s2_45"
>you’re looking for, click </text>

<text 
transform="matrix(0.98, 0, 0, 1, 879, 107)"
dx="0,0,0,0,-0.9,0,0,0,0,0,-0.9,0,0,0,-0.9,0,0,0,0" 
class="s2_45"
>the Quick Use icon.</text>

<text 
transform="matrix(0.98, 0, 0, 1, 1094, 64)"
dx="0,0,0,0,-0.3,0,0,0,0,0,-0.3,0,0,0,-0.3,0,0,0,0,-0.3,0,0,0,0,0,0,-0.3,0,0,-0.3,0,0,0,0,-0.3,0,-0.3,0,0,0,-0.3,0,0,0,-0.3,0,0,0,0,0,0,-0.3,0,0,-0.3,0,0,-0.3,0,0,0,-0.3,0,0,0,0,0,0,0,-0.3,0,0,0" 
class="s2_45"
>The Quick Use page opens. In step 1 you can choose different styles, and </text>

<text 
transform="matrix(0.98, 0, 0, 1, 1094, 86)"
dx="0,0,0,-0.6,0,0,0,0,-0.6,0,0,-0.6,0,0,0,-0.6,0,0,0,-0.6,0,0,0,0,-0.6,0,0,0,-0.6,0,0,0,0,0,0,0,0,0,0,-0.6,0,0,0,0,-0.6,0,0,0,0,0,0,-0.6,0,0,0,0,0,-0.6,0,0,0,0,-0.6,0,0,0,0,-0.6,0,0,0,0,0,-0.6,0,0,0" 
class="s2_45"
>in step 2, you can pick the characters that you'll need. This page gives you </text>

<text 
transform="matrix(0.98, 0, 0, 1, 1094, 107)"
dx="0,0,0,0,-0.9,0,0,0,0,0.3,0,0,0,0,0,0,-0.9,0,0,0,0,0,0,-0.9,0,0,0,0,-0.9,0,0,-0.9,0,0,0,-0.9,0,0,0,-0.9,0,0,0,-0.9,0,0,0,0,-0.9,0,0,-0.9,0,0,0,0,-0.9,0,0,0,0" 
class="s2_45"
>the information you’ll need to add the web font to your site.</text>

<text 
transform="matrix(0.98, 0, 0, 1, 553, 439)"
dx="0,-1.4,0,0,6.6,0,0,0,0,6.6,0,0,6.6,0,0,0,0,0,0,6.6,0,0,0,6.6,0,0,0" 
class="s2_45"
>You must be online for web </text>

<text 
transform="matrix(0.98, 0, 0, 1, 553, 460)"
dx="0,0,0,0,0,0,0.9,0,0,0.9,0,0,0,0,0,0.9,0,0,0.9,0,0,0,0.9,0,-0.3,0,0.9,0,0,0,0,0,0,0" 
class="s2_45"
>fonts to work. If you are looking </text>

<text 
transform="matrix(0.98, 0, 0, 1, 553, 481)"
dx="0,0,0,0.8,0,0,0,0,0.8,0,0,0,0.8,0,0,0,0,0.8,0,0,0,0.8,0,0,0,0.8,0,0,0,-0.3,0" 
class="s2_45"
>at your web page but you don’t </text>

<text 
transform="matrix(0.98, 0, 0, 1, 553, 503)"
dx="0,0,0,0,0,-0.2,0,0,-0.2,0,0,0,0,0.3,0,0,0,-0.2,0,0,0,0,0,0,0,0,0,0,-0.2,0,0,0" 
class="s2_45"
>have an internet connection you </text>

<text 
transform="matrix(0.98, 0, 0, 1, 553, 524)"
dx="0,0,0,0,-0.3,0,-0.9,0,0,0,-0.9,0,0,0,-0.9,0,0,0,-0.9,0,0,0,0,0" 
class="s2_45"
>won’t see the web fonts.</text>

<text 
transform="matrix(0.98, 0, 0, 1, 62, 613)"
dx="0,0,-0.2,0,0,0,0,0,-0.6,-1.2,0,0,0" 
class="s5_45"
>Preview Text:</text>

<text 
transform="matrix(0.98, 0, 0, 1, 1100, 164)"
dx="0,0,0,-0.6,0,0,0,0,0,0,-0.6,0,0,0,-0.6,0,0,0,0,0,0,-0.6,0,0,0,-0.6,0,0,0,0" 
class="s5_45"
>1. Choose the styles you want:</text>

<text 
transform="matrix(0.98, 0, 0, 1, 1115, 192)"
dx="0,-0.1,-0.4,-0.5,0,0,0,0,-0.5,0,0,0,0,-0.1" 
class="s6_45"
>PT Sans Narrow</text>

<text 
transform="matrix(0.98, 0, 0, 1, 1255, 219)"
dx="0,0,0,0,0,-0.1,-0.3,-0.6,0,0,0,0,0,0,0,-0.4,0,0,-0.1,0,-0.4,-0.1,-0.2,0,0,-0.2,-0.4,0,0,-0.1,-0.2,-0.4,-0.1,0,0,-0.4,0,0,0,-0.4,-0.2,0,0,0,-0.4,0,0,-0.1,0,0,-0.4,0,0,0,-0.4,0,0,0,0" 
class="s7_45"
>Grumpy Wizards make toxic brew for the evil Queen and Jack.</text>

<text 
transform="matrix(0.98, 0, 0, 1, 1255, 242)"
dx="0,0,0,0,0,-0.1,-0.3,-0.7,0,0,0,0,0,0,0,-0.4,0,0,-0.1,0,-0.4,0,-0.2,0,0,-0.2,-0.4,0,0,0,-0.2,-0.4,0,0,0,-0.4,0,0,0,-0.4,-0.1,0,0,0,-0.6,0,0,0,0,0,-0.4,0,0,0,-0.4,0,0,0,0" 
class="s8_45"
>Grumpy Wizards make toxic brew for the evil Queen and Jack.</text>

<text 
transform="matrix(0.98, 0, 0, 1, 1169, 219)"
dx="0,-0.4,-0.1,0,0,0,0" 
class="s7_45"
>Regular</text>

<text 
transform="matrix(0.98, 0, 0, 1, 1169, 242)"
dx="0,0,0,0" 
class="s8_45"
>Bold</text>

<text 
transform="matrix(0.98, 0, 0, 1, 73, 658)"
dx="0,0,0,0.1,0,0,0,-0.4,0,0" 
class="s9_45"
>Normal 400</text>

<text 
transform="matrix(0.98, 0, 0, 1, 73, 744)"
dx="0,0,0,0.1,0,0,0,-0.4,0,0" 
class="s9_45"
>Normal 400</text>

<text 
transform="matrix(0.98, 0, 0, 1, 73, 830)"
dx="0,0,0,0.1,0,0,0,-0.4,0,0" 
class="s9_45"
>Normal 400</text>

<text 
transform="matrix(0.98, 0, 0, 1, 73, 916)"
dx="0,0,0,0.1,0,0,0,-0.4,0,0" 
class="s9_45"
>Normal 400</text>

<text 
x="135" 
y="613" 
dx="0,0,0,0,0,-0.2,0,-1.4,0,0,0,0,-0.2,0,0,-0.6,0,0,0,0,-0.6,0,-0.3,0,0,0,-0.6,0,0,-0.2,0,-0.6,-0.2,0,0,-0.6,0,0" 
class="s10_45"
>Grumpy Wizards make toxic brew for the</text>

<text 
x="73" 
y="687" 
dx="0,0,0,0,0,0,0,-1.6,0,0,-1,0,0,0,0,-1.6,0,0,0,0,-1.6,0,0,0,0,0,-1.6,0,0,0,0,-1.6,0,0,0,-1.6,0,0,0,-1.6,0,0,0,0,-1.6,0,0,0,0,0,-1.6,0,0,0,-1.6,0,0,0,0" 
class="s11_45"
>Grumpy Wizards make toxic brew for the evil Queen and Jack.</text>

<text 
x="73" 
y="777" 
dx="0,0,0,0,0,-0.2,-0.6,-1.2,0,0,0,0,0,0,0,-0.9,0,0,-0.2,0,-0.9,-0.2,-0.4,0,0,-0.4,-0.9,0,0,-0.2,-0.4,-0.9,-0.2,0,0,-0.9,0,0,0,-0.9,-0.4,0,0,0,-0.9,0,0,-0.2,0,0,-0.9,0,0,0,-0.9,0,0,0,0" 
class="s12_45"
>Grumpy Wizards make toxic brew for the evil Queen and Jack.</text>

<text 
x="73" 
y="863" 
dx="0,0,0.4,0,-0.5,0,0,-1,0,0,0,0,0,0,0,-1,0,0,-0.3,0,-1,0,-0.5,0,0,0,-1,0,0,0,0,-1,-0.5,0,0,-1,0,0,0,-1,0,0,0,0,-1,0,0,0,0,0,-1,0,0,0,-1,0,0,-0.3,0" 
class="s13_45"
>Grumpy Wizards make toxic brew for the evil Queen and Jack.</text>

<text 
x="73" 
y="945" 
dx="0,-1.6,-1.5,-1.4,-1.3,-2.2,0,-0.7,-1.6,-2,-1.8,-1.4,-1.6,-1.7,0,-0.7,-1.4,-1.4,-1.8,0,-0.7,-1.7,-1.5,-1.8,-1.7,0,-0.7,-1.4,-1.5,-2.1,0,-0.7,-2.4,-1.3,0,-0.7,-1.7,-1.3,0,-0.7,-2.2,-1.8,-1.6,0,-0.7,-1.4,-1.4,-2.1,-2.1,0,-0.7,-1.4,-1.5,0,-0.7,-1.4,-1.4,-2,0" 
class="s14_45"
>Grumpy Wizards make toxic brew for the evil Queen and Jack.</text>

<text 
transform="matrix(0.98, 0, 0, 1, 447, 613)"
dx="0,0,0,0,0" 
class="s5_45"
>Size:</text>

<text 
transform="matrix(0.98, 0, 0, 1, 569, 613)"
dx="0,0,0,0.2,0,0,0,0" 
class="s5_45"
>Sorting:</text>

<text 
x="544" 
y="396" 
dx="0,-2.1,-2.1,-2.9,-1.8,0,0,-2.6,-2.1" 
class="s15_45"
>NINJA TIP</text>

<text 
transform="matrix(0.98, 0, 0, 1, 879, 310)"
dx="0,0,0,-0.2,0,0,0,0,-0.2,0,0,0,0,0,-0.2,0,0,0,0,-0.2,0,-0.2,0,0,0,-0.2,0,0,0,0,-0.2,0,-0.2,0,-0.3,0,-0.2,0,0,0,0,-0.2,0,0,0.3,0,-0.2,0,0,0,0,0.3,0,0,0,0,0,-0.2,0,0,-0.2,0,0,0,0,-0.2,0,-0.2,0,0,0,0,0,0,-0.2,0,0,0,-0.2,0,0,-0.3,0,0,-0.2,0,0,0,0,-0.2,0,0,0,0,0,-0.2,0,0,0,0,0,0,0,-0.3,0,0,0" 
class="s2_45"
>On this page, Step 3 and Step 4 are both very important! At Step 3 you’ll see three tabs named ‘Standard’, </text>

<text 
transform="matrix(0.98, 0, 0, 1, 879, 332)"
dx="0,0,0,0,0,0,0,0.3,0,0,-0.8,0,0,0,-0.8,0,0,0,0,0,0,0,0,0,0,0,0,0" 
class="s2_45"
>‘@import’ and ‘Javascript’. </text>

<text 
x="1056" 
y="332" 
dx="0,0,0,0,0,0,-0.8,0,0,0,-0.8,0,0,0,0,0,0,0.3,0,0,-0.8,0,0,0,0,-0.8,0,0,0,-0.8,0,0,0,0,-0.8,0,0,0,0,0,-0.8,0,0,-0.8,0,0,0,-0.8,0,0,0,0,0.3,0,-0.8,0,0,0,-0.8,0,0,-0.8,0,0,0,-0.8,0,0,0,0,-0.8,0,0,0,0,-0.8,0,0,0,0,0,0" 
class="s2_45"
>Click the ‘@import’ tab. The code shown on the import tab is the code that you’ll </text>

<text 
x="879" 
y="353" 
dx="0,0,0,0,0,-0.9,0,0,-0.9,0,0,0,-0.9,0,0,-0.9,0,0,0,0,-0.9,0,0,0,0,0,0,0,0,0,0,0,-0.9,0,0,-0.9,0,0,0,0,-0.9,0,0,0,0,-0.9,0,0,0,0,0,0,0,0,0,-0.9,0,0,0,0,-0.9,0,0,0,0" 
class="s2_45"
>need to add to your stylesheet. It will look something like this:</text>

<text 
transform="matrix(0.98, 0, 0, 1, 879, 556)"
dx="0,0,0,0,0,8.1,0,0,0,0,8.1,0,0,0,0,0.3,0,0,8.1,0,0,0,8.1,0,0,0,0,8.1,0,0,0,8.1,0,0,0,0,0,8.1,0,0" 
class="s2_45"
>This line imports the font and makes it </text>

<text 
transform="matrix(0.98, 0, 0, 1, 879, 578)"
dx="0,0,0,0,0,0,0,0,0,0,0.7,0,0,0,0.7,0,0,0,0.7,0,0,0.7,0,0,0,0.7,0,0,0,0,0,0,0,0,0,0,0,0.7,-1.4,0,0,0.7,0,0,0,0,0,0" 
class="s2_45"
>available for use in the stylesheet. You should </text>

<text 
transform="matrix(0.98, 0, 0, 1, 879, 599)"
dx="0,0,0,0,-0.9,0,0,-0.9,0,0,-0.9,0,0,0,-0.9,0,0,0,0,0,-0.9,0,0,0,0,-0.9,0,0,-0.9,0,0,0,-0.9,0,0,0,0,0,0,0,0,0,0,-0.9,0,0,0,0,-0.9,0,0,0,0" 
class="s2_45"
>add it as the first line in the stylesheet like this.</text>

<text 
transform="matrix(0.98, 0, 0, 1, 879, 642)"
dx="0,0,0,1.8,0,0,0,1.8,0,0,0,0,0,0,0,1.8,0,0,0,0,0,1.8,0,0,0,1.8,0,0,0,0,0,0.3,0,1.8,0,0,0,0,0,0,0,0,0" 
class="s2_45"
>In the example above the @import statement </text>

<text 
transform="matrix(0.98, 0, 0, 1, 879, 663)"
dx="0,0,0,0,0,7.2,0,0,0,0,7.2,0,7.2,0,0,0,0,7.2,0,0,0,0,0,0,7.2,0,0,7.2,0,0,0,0,7.2,0,0,0,-0.3,0,0" 
class="s2_45"
>will make a font called PT Sans Narrow </text>

<text 
transform="matrix(0.98, 0, 0, 1, 879, 684)"
dx="0,0,0,0,0,0,0,0,0,0,0,2.5,0,0,0,2.5,0,0,0,0,-1.1,0,2.5,0,0,0,2.5,0,2.5,0,0,2.5,0,0,0,0,0,-0.3,0,2.5,0,0,0,0,0,0,0,0" 
class="s2_45"
>available. But that’s all – we haven’t actually </text>

<text 
transform="matrix(0.98, 0, 0, 1, 879, 706)"
dx="0,0,0,0,0,2.4,0,0,0,2.4,0,0,0,0,2.4,0,0,0,0,0,0,-0.3,0,0,2.4,-1.7,0,2.4,0,0,2.4,0,0,0,0,2.4,0,0,2.4,0,0,0,0" 
class="s2_45"
>used the font anywhere. To do this we need </text>

<text 
transform="matrix(0.98, 0, 0, 1, 879, 727)"
dx="0,0,0,1.5,0,0,0,1.5,0,0,0,1.5,0,0,0,0,1.5,0,0,1.5,0,1.5,0,0,0,0,1.5,0,0,0,0,0,0,1.5,0,0,0,1.5,0,0,0,0,0,0,0,0,0,0,0" 
class="s2_45"
>to use the font in a rule within the stylesheet. </text>

<text 
transform="matrix(0.98, 0, 0, 1, 879, 749)"
dx="0,0,0,0,0,-1.1,0,-0.9,0,0,0,-0.3,0,-0.9,0,0,0,0,-0.9,0,-0.9,0,0,0,0,0,-0.9,0,0" 
class="s2_45"
>That’s where Step 4 comes in!</text>

<text 
transform="matrix(0.98, 0, 0, 1, 879, 791)"
dx="0,0,0,0,0,0.6,0,0.6,0,0,0,0,0,0.6,0,0,0.6,0,0,0,0.6,0,0,0.6,0,0,0,0,0,0,0.6,-0.3,0,0,0,0,0.6,0,0,0.6,0,0,0,0.6,0,0,0,0" 
class="s2_45"
>Step 4 tells us how we should refer to the font </text>

<text 
transform="matrix(0.98, 0, 0, 1, 879, 813)"
dx="0,0,0,0.1,0,0,0,0.1,0,0,0,0,0,0,0,0,0,0,0,0.1,0,0,0.1,0,0,0,0,0,0.1,0,0,0.1,0,0.1,0,0,0,0,0,0,0.1,0,0,0,0,0,0,0" 
class="s2_45"
>in our stylesheet. It gives us a simple example </text>

<text 
transform="matrix(0.98, 0, 0, 1, 879, 834)"
dx="0,0,0,-0.9,0,-0.9,0,0,0,0,0,0,0,0,0,0,0,0,-0.9,0,0,0,0,0,0,0,0,0,-0.9,0,0,0,0,-0.9,0,0,0,-0.9,0,0,0,-0.9,0,0,0,0,0" 
class="s2_45"
>of a declaration, something like the one below:</text>

<text 
transform="matrix(0.98, 0, 0, 1, 883, 394)"
dx="0,0,0,0,0,0,0,0" 
class="s16_45"
>Standard</text>

<text 
transform="matrix(0.98, 0, 0, 1, 883, 422)"
dx="0,0,0,-1.7,0,0,0,-0.8,0,0,0,0,-0.9,0,0,0,0,-0.8,0,0,-0.8,0,0,0,0,-0.9,0,0,0,0,0,0,0" 
class="s16_45"
>3. Add this code to your website:</text>

<text 
transform="matrix(0.98, 0, 0, 1, 975, 394)"
dx="0,0,0,0,0,0,0" 
class="s16_45"
>@import</text>

<text 
transform="matrix(0.98, 0, 0, 1, 1063, 394)"
dx="0,0,0,0,0,0,0,0,0,0" 
class="s16_45"
>Javascript</text>

<text 
x="896" 
y="471" 
dx="0,0,0,0,0,0,0,0,-1.8,0,0,0,0,0,0,0,0,0,0,0,0,0,0,0,0,0,0,0,0,0,0,0,0,0,0,0,0,0,0,0,0,0,0,0,0,0,0,0,0,0,0,0,0,0,0,0,0,0,0,0,0,0,0,0,0,0,0" 
class="s4_45"
>@import url(http://fonts.googleapis.com/css?family=PT+Sans+Narrow);</text>

<text 
x="879" 
y="898" 
dx="0,0,0,0,0,0,0,0,0,0,0,0,0,10.3,0,0,0,10.3,0,0,0,0,10.3,0,0,0,0,0,0,0,0" 
class="s4_45"
>font-family: 'PT Sans Narrow', </text>

<text 
x="879" 
y="920" 
dx="0,0,0,0,0,0,0,0,0,0,0" 
class="s4_45"
>sans-serif;</text>

<path d="M1230.4,567.2c-0.7,0.4,-1.5,0.6,-2.3,0.6c-0.9,0,-1.7,-0.5,-2.3,-1.3c-0.6,-0.9,-0.9,-2,-0.9,-3.4c0,-1.8,0.3,-3.1,0.9,-4.2c0.6,-1,1.3,-1.5,2.3,-1.5c0.9,0,1.6,0.4,2.2,1.2c0.5,0.7,0.8,1.8,0.8,3.1c0,0.9,-0.2,1.7,-0.5,2.3c-0.2,0.6,-0.5,0.9,-0.9,0.9c-0.1,0,-0.1,-0.1,-0.2,-0.2c0,-0.1,-0.1,-0.2,-0.1,-0.3c0,-0.2,0.2,-1.6,0.5,-4.3l-1,0l0,0.2c-0.3,-0.2,-0.5,-0.3,-0.8,-0.3c-0.6,0,-1.1,0.3,-1.6,1c-0.4,0.7,-0.6,1.5,-0.6,2.5c0,0.7,0.1,1.2,0.4,1.6c0.2,0.4,0.5,0.6,0.9,0.6c0.5,0,1,-0.3,1.2,-0.9c0.2,0.6,0.5,0.9,1,0.9c0.7,0,1.3,-0.4,1.8,-1.2c0.4,-0.7,0.7,-1.7,0.7,-2.8c0,-1.5,-0.4,-2.8,-1.1,-3.7c-0.7,-0.9,-1.6,-1.3,-2.7,-1.3c-1.2,0,-2.2,0.5,-2.9,1.7c-0.8,1.1,-1.1,2.7,-1.1,4.7c0,1.7,0.3,3,1.1,4c0.7,1,1.7,1.4,2.9,1.4c0.9,0,1.7,-0.2,2.5,-0.6l-0.2,-0.7Zm-1.9,-3.3c0,0.1,-0.1,0.3,-0.3,0.5c-0.2,0.3,-0.4,0.5,-0.7,0.5c-0.2,0,-0.3,-0.2,-0.5,-0.4c-0.1,-0.3,-0.2,-0.6,-0.2,-1.1c0,-0.8,0.2,-1.4,0.4,-1.9c0.3,-0.5,0.6,-0.7,1,-0.7c0.2,0,0.4,0.1,0.6,0.3l-0.3,2.8Z" class="g23_45" />
<path d="M1237,556.9c-0.1,0.1,-0.2,0.3,-0.2,0.5c0,0.2,0.1,0.4,0.2,0.6c0.2,0.1,0.4,0.2,0.6,0.2c0.2,0,0.4,-0.1,0.6,-0.2c0.1,-0.2,0.2,-0.4,0.2,-0.6c0,-0.2,-0.1,-0.4,-0.3,-0.5c-0.1,-0.2,-0.3,-0.3,-0.5,-0.3c-0.2,0,-0.4,0.1,-0.6,0.3Zm1.2,2.7l-3.5,0l0,1l2.3,0l0,6.7l1.2,0l0,-7.7Z" class="g23_45" />
<path d="M1249.9,561.9c0,-1.7,-0.5,-2.5,-1.4,-2.5c-0.3,0,-0.6,0.1,-0.9,0.3c-0.3,0.3,-0.6,0.6,-0.8,1c-0.1,-0.4,-0.3,-0.7,-0.5,-1c-0.3,-0.2,-0.6,-0.3,-0.9,-0.3c-0.3,0,-0.6,0.1,-0.9,0.3c-0.3,0.3,-0.5,0.6,-0.8,1l0,-1.1l-1.1,0l0,7.7l1.2,0l0,-5.6c0,0,0.1,-0.3,0.4,-0.7c0.3,-0.4,0.6,-0.6,0.8,-0.6c0.4,0,0.7,0.6,0.7,1.8l0,5.1l1.1,0l0,-5.6c0,0,0.2,-0.3,0.5,-0.7c0.2,-0.4,0.5,-0.6,0.7,-0.6c0.5,0,0.7,0.6,0.7,1.8l0,5.1l1.2,0l0,-5.4Z" class="g23_45" />
<path d="M1253.6,559.6l-1.2,0l0,10.8l1.2,0l0,-4.2c0.2,0.4,0.6,0.7,1,1c0.4,0.2,0.9,0.3,1.4,0.3c0.9,0,1.6,-0.4,2.1,-1.2c0.5,-0.7,0.8,-1.7,0.8,-2.9c0,-1.2,-0.2,-2.2,-0.7,-2.9c-0.6,-0.8,-1.3,-1.1,-2.2,-1.1c-0.4,0,-0.9,0.1,-1.3,0.3c-0.5,0.2,-0.8,0.5,-1.1,0.9l0,-1Zm2.1,0.8c0.6,0,1.1,0.3,1.5,0.8c0.3,0.6,0.5,1.3,0.5,2.2c0,0.9,-0.2,1.6,-0.6,2.2c-0.3,0.6,-0.8,0.9,-1.5,0.9c-0.4,0,-0.7,-0.2,-1.1,-0.4c-0.4,-0.3,-0.7,-0.7,-0.9,-1.1l0,-3.3c0.6,-0.9,1.3,-1.3,2.1,-1.3Z" class="g23_45" />
<path d="M1262,560.5c-0.6,0.7,-0.9,1.7,-0.9,2.9c0,1.3,0.3,2.3,0.9,3c0.7,0.8,1.5,1.1,2.6,1.1c1.1,0,1.9,-0.3,2.5,-1.1c0.7,-0.7,1,-1.7,1,-3c0,-1.2,-0.3,-2.2,-1,-2.9c-0.6,-0.8,-1.4,-1.1,-2.5,-1.1c-1.1,0,-1.9,0.3,-2.6,1.1Zm0.9,5.1c-0.4,-0.6,-0.6,-1.3,-0.6,-2.1c0,-1,0.2,-1.7,0.6,-2.3c0.4,-0.5,1,-0.8,1.7,-0.8c0.7,0,1.3,0.3,1.7,0.8c0.4,0.6,0.6,1.4,0.6,2.3c0,0.8,-0.2,1.5,-0.6,2.1c-0.5,0.6,-1,0.9,-1.7,0.9c-0.7,0,-1.3,-0.3,-1.7,-0.9Z" class="g23_45" />
<path d="M1275.2,559.4c-1,0,-1.8,0.6,-2.4,1.7l0,-1.5l-1.2,0l0,7.7l1.2,0l0,-5c0,0,0.1,-0.2,0.4,-0.6c0.3,-0.4,0.6,-0.7,0.9,-0.9c0.3,-0.1,0.6,-0.2,1,-0.2c0.4,0,0.8,0.1,1.3,0.3l0.5,-1.1c-0.6,-0.3,-1.1,-0.4,-1.7,-0.4Z" class="g23_45" />
<path d="M1285.8,566.1c-0.6,0.3,-1.2,0.4,-1.9,0.4c-0.3,0,-0.6,-0.1,-0.8,-0.4c-0.2,-0.2,-0.3,-0.6,-0.3,-1.1l0,-4.4l2.6,0l0,-1l-2.6,0l0,-2.2l-1.2,0l0,2.2l-1.5,0l0,1l1.5,0l0,4.7c0,1.5,0.7,2.2,2.1,2.2c0.8,0,1.5,-0.2,2.3,-0.5l-0.2,-0.9Z" class="g23_45" />
<path d="M1302.4,559.6l-1.1,0l0,5.6c-0.9,0.9,-1.6,1.3,-2.3,1.3c-0.5,0,-0.9,-0.2,-1.1,-0.5c-0.2,-0.3,-0.3,-0.8,-0.3,-1.5l0,-4.9l-1.2,0l0,5.3c0,1.7,0.8,2.6,2.2,2.6c0.9,0,1.8,-0.4,2.7,-1.3l0,1.1l1.1,0l0,-7.7Z" class="g23_45" />
<path d="M1310,559.4c-1,0,-1.8,0.6,-2.4,1.7l0,-1.5l-1.2,0l0,7.7l1.2,0l0,-5c0,0,0.1,-0.2,0.4,-0.6c0.3,-0.4,0.6,-0.7,0.9,-0.9c0.3,-0.1,0.7,-0.2,1,-0.2c0.4,0,0.8,0.1,1.4,0.3l0.4,-1.1c-0.5,-0.3,-1.1,-0.4,-1.7,-0.4Z" class="g23_45" />
<path d="M1320.5,566.5l-2,0l0,-10l-4,0l0,1l3,0l0,10l3,0l0,-1Z" class="g23_45" />
<path d="M1327.6,566.4c-0.5,-0.9,-0.7,-2,-0.7,-3.3c0,-1.3,0.2,-2.4,0.6,-3.3c0.4,-0.9,1.1,-1.7,2,-2.5l-0.5,-0.7c-1.1,0.9,-1.9,1.8,-2.5,2.9c-0.6,1.1,-0.9,2.3,-0.9,3.6c0,1.2,0.3,2.4,0.9,3.5c0.6,1.1,1.4,2.1,2.5,2.9l0.5,-0.6c-0.9,-0.8,-1.5,-1.6,-1.9,-2.5Z" class="g23_45" />
<path d="M1339.1,562c0,-1.7,-0.7,-2.6,-2.2,-2.6c-0.9,0,-1.8,0.4,-2.6,1.3l0,-3.9l-1.2,0l0,10.5l1.2,0l0,-5.6c0.8,-0.9,1.6,-1.3,2.3,-1.3c0.4,0,0.8,0.1,1,0.4c0.2,0.4,0.3,0.9,0.3,1.6l0,4.9l1.2,0l0,-5.3Z" class="g23_45" />
<path d="M1348.2,566.1c-0.7,0.3,-1.3,0.4,-1.9,0.4c-0.4,0,-0.7,-0.1,-0.9,-0.4c-0.2,-0.2,-0.3,-0.6,-0.3,-1.1l0,-4.4l2.6,0l0,-1l-2.6,0l0,-2.2l-1.1,0l0,2.2l-1.5,0l0,1l1.5,0l0,4.7c0,1.5,0.7,2.2,2,2.2c0.8,0,1.6,-0.2,2.4,-0.5l-0.2,-0.9Z" class="g23_45" />
<path d="M1357.3,566.1c-0.6,0.3,-1.2,0.4,-1.9,0.4c-0.3,0,-0.6,-0.1,-0.8,-0.4c-0.2,-0.2,-0.3,-0.6,-0.3,-1.1l0,-4.4l2.6,0l0,-1l-2.6,0l0,-2.2l-1.2,0l0,2.2l-1.5,0l0,1l1.5,0l0,4.7c0,1.5,0.7,2.2,2.1,2.2c0.8,0,1.5,-0.2,2.3,-0.5l-0.2,-0.9Z" class="g23_45" />
<path d="M1361.8,559.6l-1.2,0l0,10.8l1.2,0l0,-4.2c0.2,0.4,0.6,0.7,1,1c0.4,0.2,0.9,0.3,1.3,0.3c0.9,0,1.7,-0.4,2.2,-1.2c0.5,-0.7,0.8,-1.7,0.8,-2.9c0,-1.2,-0.3,-2.2,-0.8,-2.9c-0.5,-0.8,-1.2,-1.1,-2.1,-1.1c-0.5,0,-0.9,0.1,-1.4,0.3c-0.4,0.2,-0.8,0.5,-1,0.9l0,-1Zm2.1,0.8c0.6,0,1.1,0.3,1.5,0.8c0.3,0.6,0.5,1.3,0.5,2.2c0,0.9,-0.2,1.6,-0.6,2.2c-0.3,0.6,-0.8,0.9,-1.5,0.9c-0.4,0,-0.8,-0.2,-1.1,-0.4c-0.4,-0.3,-0.7,-0.7,-0.9,-1.1l0,-3.3c0.6,-0.9,1.3,-1.3,2.1,-1.3Z" class="g23_45" />
<path d="M1372.1,559.7c-0.2,0.2,-0.3,0.4,-0.3,0.6c0,0.3,0.1,0.5,0.3,0.7c0.1,0.1,0.4,0.2,0.6,0.2c0.3,0,0.5,-0.1,0.7,-0.2c0.1,-0.2,0.2,-0.4,0.2,-0.7c0,-0.2,-0.1,-0.4,-0.2,-0.6c-0.2,-0.2,-0.4,-0.2,-0.7,-0.2c-0.2,0,-0.5,0,-0.6,0.2Zm0,6.2c-0.2,0.2,-0.3,0.4,-0.3,0.7c0,0.2,0.1,0.4,0.3,0.6c0.1,0.2,0.4,0.3,0.6,0.3c0.3,0,0.5,-0.1,0.7,-0.3c0.1,-0.2,0.2,-0.4,0.2,-0.6c0,-0.3,-0.1,-0.5,-0.2,-0.7c-0.2,-0.1,-0.4,-0.2,-0.7,-0.2c-0.2,0,-0.5,0.1,-0.6,0.2Z" class="g23_45" />
<path d="M1383.5,556.6l-4.5,10.9l1.1,0l4.5,-10.9l-1.1,0Z" class="g23_45" />
<path d="M1392.7,556.6l-4.6,10.9l1.1,0l4.6,-10.9l-1.1,0Z" class="g23_45" />
<path d="M1401.6,556.6c-0.9,0,-1.4,0.2,-1.8,0.6c-0.3,0.4,-0.5,1.1,-0.5,2.1l0,0.3l-1.9,0l0,1l1.9,0l0,6.7l1.2,0l0,-6.7l2.6,0l0,-1l-2.6,0l0,-0.2c0,-0.7,0.1,-1.2,0.2,-1.4c0.2,-0.2,0.5,-0.4,0.9,-0.4c0.4,0,0.9,0.1,1.5,0.3l0.3,-1c-0.7,-0.2,-1.3,-0.3,-1.8,-0.3Z" class="g23_45" />
<path d="M1406.9,560.5c-0.6,0.7,-1,1.7,-1,2.9c0,1.3,0.4,2.3,1,3c0.6,0.8,1.5,1.1,2.5,1.1c1.1,0,2,-0.3,2.6,-1.1c0.6,-0.7,0.9,-1.7,0.9,-3c0,-1.2,-0.3,-2.2,-0.9,-2.9c-0.6,-0.8,-1.5,-1.1,-2.6,-1.1c-1,0,-1.9,0.3,-2.5,1.1Zm0.9,5.1c-0.4,-0.6,-0.6,-1.3,-0.6,-2.1c0,-1,0.2,-1.7,0.6,-2.3c0.4,-0.5,0.9,-0.8,1.6,-0.8c0.8,0,1.3,0.3,1.7,0.8c0.4,0.6,0.6,1.4,0.6,2.3c0,0.8,-0.2,1.5,-0.6,2.1c-0.4,0.6,-1,0.9,-1.7,0.9c-0.7,0,-1.2,-0.3,-1.6,-0.9Z" class="g23_45" />
<path d="M1421.6,562c0,-1.7,-0.7,-2.6,-2.2,-2.6c-0.9,0,-1.8,0.4,-2.6,1.3l0,-1.1l-1.2,0l0,7.7l1.2,0l0,-5.6c0.8,-0.9,1.6,-1.3,2.3,-1.3c0.5,0,0.8,0.1,1,0.4c0.2,0.4,0.4,0.9,0.4,1.6l0,4.9l1.1,0l0,-5.3Z" class="g23_45" />
<path d="M1430.7,566.1c-0.7,0.3,-1.3,0.4,-1.9,0.4c-0.4,0,-0.7,-0.1,-0.9,-0.4c-0.2,-0.2,-0.3,-0.6,-0.3,-1.1l0,-4.4l2.7,0l0,-1l-2.7,0l0,-2.2l-1.1,0l0,2.2l-1.5,0l0,1l1.5,0l0,4.7c0,1.5,0.7,2.2,2.1,2.2c0.7,0,1.5,-0.2,2.3,-0.5l-0.2,-0.9Z" class="g23_45" />
<path d="M1439.4,559.7c-0.8,-0.2,-1.5,-0.3,-2.1,-0.3c-1,0,-1.7,0.2,-2.3,0.6c-0.6,0.4,-0.9,0.9,-0.9,1.6c0,0.3,0.1,0.5,0.2,0.8c0.1,0.2,0.3,0.5,0.6,0.6c0.2,0.2,0.5,0.4,0.7,0.4c0.3,0.1,0.8,0.3,1.4,0.5c0.7,0.2,1.2,0.4,1.4,0.6c0.2,0.2,0.3,0.5,0.3,0.7c0,0.4,-0.2,0.8,-0.6,1c-0.4,0.2,-0.9,0.4,-1.6,0.4c-0.7,0,-1.4,-0.2,-2.1,-0.5l-0.2,1c0.6,0.3,1.4,0.4,2.4,0.4c0.9,0,1.7,-0.2,2.3,-0.6c0.6,-0.4,1,-1,1,-1.8c0,-0.3,-0.1,-0.7,-0.3,-1c-0.1,-0.2,-0.4,-0.5,-0.7,-0.7c-0.3,-0.2,-0.8,-0.4,-1.3,-0.5l-1.1,-0.3c-0.5,-0.2,-0.8,-0.3,-1,-0.5c-0.2,-0.2,-0.2,-0.4,-0.2,-0.6c0,-0.3,0.1,-0.6,0.5,-0.8c0.4,-0.2,0.9,-0.3,1.5,-0.3c0.6,0,1.2,0.1,1.8,0.3l0.3,-1Z" class="g23_45" />
<path d="M1445.4,565.9c-0.2,0.2,-0.2,0.4,-0.2,0.7c0,0.2,0,0.5,0.2,0.6c0.2,0.2,0.4,0.3,0.7,0.3c0.2,0,0.4,-0.1,0.6,-0.3c0.2,-0.1,0.3,-0.4,0.3,-0.6c0,-0.3,-0.1,-0.5,-0.3,-0.7c-0.1,-0.2,-0.4,-0.3,-0.6,-0.3c-0.3,0,-0.5,0.1,-0.7,0.3Z" class="g23_45" />
<path d="M1454.9,564.4c0.8,0,1.4,-0.2,1.9,-0.7c0.5,-0.5,0.7,-1.1,0.7,-1.8c0,-0.5,-0.1,-1,-0.3,-1.4l1.5,0l0,-1.1l-2.3,0.3c-0.5,-0.2,-0.9,-0.3,-1.5,-0.3c-0.7,0,-1.4,0.2,-1.8,0.7c-0.5,0.5,-0.8,1.1,-0.8,1.8c0,0.4,0.1,0.9,0.3,1.3c0.3,0.4,0.6,0.7,1,1c-0.9,0.4,-1.4,0.9,-1.4,1.5c0,0.5,0.4,0.9,1.1,1.2c-0.8,0.4,-1.3,0.9,-1.3,1.6c0,0.5,0.3,1,0.8,1.4c0.6,0.3,1.3,0.5,2.2,0.5c1,0,1.9,-0.3,2.7,-0.8c0.8,-0.5,1.2,-1.2,1.2,-2.1c0,-0.5,-0.2,-1,-0.5,-1.3c-0.4,-0.3,-0.9,-0.4,-1.5,-0.4l-2.6,0c-0.3,0,-0.5,0,-0.7,-0.1c-0.1,-0.1,-0.2,-0.2,-0.2,-0.4c0,-0.2,0.3,-0.5,1.1,-0.9c0.1,0,0.3,0,0.4,0Zm-1,-1.3c-0.3,-0.3,-0.4,-0.7,-0.4,-1.2c0,-0.5,0.1,-0.9,0.4,-1.1c0.3,-0.3,0.6,-0.5,1,-0.5c0.5,0,0.8,0.1,1.1,0.4c0.2,0.3,0.4,0.7,0.4,1.2c0,0.5,-0.2,0.9,-0.4,1.2c-0.3,0.3,-0.7,0.4,-1.1,0.4c-0.4,0,-0.7,-0.1,-1,-0.4Zm-0.3,6.1c-0.3,-0.2,-0.5,-0.5,-0.5,-0.8c0,-0.2,0.1,-0.4,0.2,-0.6c0.1,-0.1,0.3,-0.3,0.5,-0.5c0.3,-0.2,0.4,-0.3,0.5,-0.3c0.3,0,0.6,0,1,0c0.6,0,1,0,1.3,0c0.7,0,1.1,0.2,1.1,0.7c0,0.5,-0.2,1,-0.8,1.3c-0.5,0.3,-1.2,0.5,-1.9,0.5c-0.6,0,-1,-0.1,-1.4,-0.3Z" class="g23_45" />
<path d="M1461.9,560.5c-0.6,0.7,-0.9,1.7,-0.9,2.9c0,1.3,0.3,2.3,0.9,3c0.6,0.8,1.5,1.1,2.6,1.1c1,0,1.9,-0.3,2.5,-1.1c0.6,-0.7,0.9,-1.7,0.9,-3c0,-1.2,-0.3,-2.2,-0.9,-2.9c-0.6,-0.8,-1.5,-1.1,-2.5,-1.1c-1.1,0,-2,0.3,-2.6,1.1Zm0.9,5.1c-0.4,-0.6,-0.6,-1.3,-0.6,-2.1c0,-1,0.2,-1.7,0.6,-2.3c0.4,-0.5,0.9,-0.8,1.7,-0.8c0.7,0,1.2,0.3,1.6,0.8c0.4,0.6,0.6,1.4,0.6,2.3c0,0.8,-0.2,1.5,-0.6,2.1c-0.4,0.6,-0.9,0.9,-1.6,0.9c-0.8,0,-1.3,-0.3,-1.7,-0.9Z" class="g23_45" />
<path d="M1471.1,560.5c-0.7,0.7,-1,1.7,-1,2.9c0,1.3,0.3,2.3,1,3c0.6,0.8,1.4,1.1,2.5,1.1c1.1,0,1.9,-0.3,2.6,-1.1c0.6,-0.7,0.9,-1.7,0.9,-3c0,-1.2,-0.3,-2.2,-0.9,-2.9c-0.7,-0.8,-1.5,-1.1,-2.6,-1.1c-1.1,0,-1.9,0.3,-2.5,1.1Zm0.8,5.1c-0.4,-0.6,-0.6,-1.3,-0.6,-2.1c0,-1,0.2,-1.7,0.6,-2.3c0.4,-0.5,1,-0.8,1.7,-0.8c0.7,0,1.3,0.3,1.7,0.8c0.4,0.6,0.6,1.4,0.6,2.3c0,0.8,-0.2,1.5,-0.6,2.1c-0.4,0.6,-1,0.9,-1.7,0.9c-0.7,0,-1.2,-0.3,-1.7,-0.9Z" class="g23_45" />
<path d="M1482.4,564.4c0.8,0,1.4,-0.2,1.9,-0.7c0.5,-0.5,0.7,-1.1,0.7,-1.8c0,-0.5,-0.1,-1,-0.3,-1.4l1.5,0l0,-1.1l-2.3,0.3c-0.5,-0.2,-0.9,-0.3,-1.5,-0.3c-0.7,0,-1.3,0.2,-1.8,0.7c-0.5,0.5,-0.8,1.1,-0.8,1.8c0,0.4,0.1,0.9,0.3,1.3c0.3,0.4,0.6,0.7,1,1c-0.9,0.4,-1.3,0.9,-1.3,1.5c0,0.5,0.3,0.9,1,1.2c-0.8,0.4,-1.3,0.9,-1.3,1.6c0,0.5,0.3,1,0.9,1.4c0.5,0.3,1.2,0.5,2.1,0.5c1,0,1.9,-0.3,2.7,-0.8c0.8,-0.5,1.2,-1.2,1.2,-2.1c0,-0.5,-0.2,-1,-0.5,-1.3c-0.4,-0.3,-0.9,-0.4,-1.5,-0.4l-2.6,0c-0.3,0,-0.5,0,-0.7,-0.1c-0.1,-0.1,-0.2,-0.2,-0.2,-0.4c0,-0.2,0.3,-0.5,1.1,-0.9c0.1,0,0.3,0,0.4,0Zm-1,-1.3c-0.3,-0.3,-0.4,-0.7,-0.4,-1.2c0,-0.5,0.1,-0.9,0.4,-1.1c0.3,-0.3,0.6,-0.5,1,-0.5c0.5,0,0.8,0.1,1.1,0.4c0.2,0.3,0.4,0.7,0.4,1.2c0,0.5,-0.2,0.9,-0.4,1.2c-0.3,0.3,-0.7,0.4,-1.1,0.4c-0.4,0,-0.7,-0.1,-1,-0.4Zm-0.3,6.1c-0.3,-0.2,-0.5,-0.5,-0.5,-0.8c0,-0.2,0.1,-0.4,0.2,-0.6c0.1,-0.1,0.3,-0.3,0.5,-0.5c0.3,-0.2,0.4,-0.3,0.5,-0.3c0.3,0,0.6,0,1,0c0.6,0,1,0,1.3,0c0.8,0,1.1,0.2,1.1,0.7c0,0.5,-0.2,1,-0.8,1.3c-0.5,0.3,-1.2,0.5,-1.9,0.5c-0.6,0,-1,-0.1,-1.4,-0.3Z" class="g23_45" />
<path d="M1494.5,566.5l-2,0l0,-10l-3,0l0,1l2,0l0,10l3,0l0,-1Z" class="g23_45" />
<path d="M1504.4,563.1c0,-1.1,-0.3,-2,-0.9,-2.7c-0.6,-0.7,-1.4,-1,-2.3,-1c-1,0,-1.8,0.3,-2.4,1.1c-0.7,0.7,-1,1.7,-1,2.9c0,1.3,0.4,2.3,1.1,3c0.7,0.8,1.6,1.1,2.8,1.1c0.9,0,1.7,-0.1,2.4,-0.4l-0.2,-1c-0.8,0.3,-1.5,0.4,-2.2,0.4c-0.8,0,-1.4,-0.3,-1.9,-0.8c-0.5,-0.6,-0.8,-1.3,-0.8,-2.2l5.4,0l0,-0.4Zm-5.3,-0.6c0.1,-0.6,0.3,-1.1,0.7,-1.5c0.4,-0.4,0.9,-0.6,1.5,-0.6c0.4,0,0.9,0.2,1.2,0.6c0.4,0.4,0.6,0.9,0.6,1.5l-4,0Z" class="g23_45" />
<path d="M1513.3,565.5l0,-3.3c0,-1.9,-0.9,-2.8,-2.7,-2.8c-0.9,0,-1.8,0.2,-2.9,0.8l0.3,0.8c0.3,-0.2,0.7,-0.3,1.2,-0.4c0.4,-0.2,0.8,-0.2,1.1,-0.2c1.2,0,1.8,0.6,1.8,2l0,0.4l-1.3,0.1c-0.6,0,-1.1,0.1,-1.5,0.2c-0.4,0.1,-0.8,0.3,-1.1,0.5c-0.3,0.2,-0.5,0.4,-0.7,0.7c-0.1,0.3,-0.2,0.7,-0.2,1c0,0.7,0.2,1.2,0.7,1.6c0.4,0.4,0.9,0.6,1.5,0.6c1.1,0,2,-0.4,2.7,-1.4c0,0.5,0,0.9,0.1,1.2l1.2,0c-0.1,-0.5,-0.2,-1.1,-0.2,-1.8Zm-2.2,0.5c-0.4,0.3,-0.9,0.4,-1.3,0.4c-0.3,0,-0.7,-0.1,-0.9,-0.3c-0.2,-0.2,-0.4,-0.5,-0.4,-0.8c0,-0.4,0.2,-0.7,0.5,-1c0.3,-0.2,0.6,-0.3,1,-0.4c0.4,-0.1,1.1,-0.2,2.1,-0.3l0,1.4c-0.3,0.5,-0.6,0.8,-1,1Z" class="g23_45" />
<path d="M1517.6,559.6l-1.1,0l0,10.8l1.1,0l0,-4.2c0.3,0.4,0.6,0.7,1,1c0.5,0.2,0.9,0.3,1.4,0.3c0.9,0,1.6,-0.4,2.2,-1.2c0.5,-0.7,0.8,-1.7,0.8,-2.9c0,-1.2,-0.3,-2.2,-0.8,-2.9c-0.5,-0.8,-1.2,-1.1,-2.1,-1.1c-0.5,0,-1,0.1,-1.4,0.3c-0.4,0.2,-0.8,0.5,-1.1,0.9l0,-1Zm2.1,0.8c0.7,0,1.2,0.3,1.5,0.8c0.4,0.6,0.5,1.3,0.5,2.2c0,0.9,-0.1,1.6,-0.5,2.2c-0.4,0.6,-0.9,0.9,-1.5,0.9c-0.4,0,-0.8,-0.2,-1.2,-0.4c-0.3,-0.3,-0.6,-0.7,-0.9,-1.1l0,-3.3c0.6,-0.9,1.3,-1.3,2.1,-1.3Z" class="g23_45" />
<path d="M1528.6,556.9c-0.2,0.1,-0.2,0.3,-0.2,0.5c0,0.2,0,0.4,0.2,0.6c0.2,0.1,0.3,0.2,0.5,0.2c0.3,0,0.4,-0.1,0.6,-0.2c0.1,-0.2,0.2,-0.4,0.2,-0.6c0,-0.2,-0.1,-0.4,-0.2,-0.5c-0.2,-0.2,-0.3,-0.3,-0.6,-0.3c-0.2,0,-0.3,0.1,-0.5,0.3Zm1.1,2.7l-3.5,0l0,1l2.3,0l0,6.7l1.2,0l0,-7.7Z" class="g23_45" />
<path d="M1540.3,559.7c-0.8,-0.2,-1.5,-0.3,-2.1,-0.3c-1,0,-1.8,0.2,-2.4,0.6c-0.6,0.4,-0.8,0.9,-0.8,1.6c0,0.3,0,0.5,0.1,0.8c0.2,0.2,0.4,0.5,0.6,0.6c0.2,0.2,0.5,0.4,0.8,0.4c0.3,0.1,0.7,0.3,1.3,0.5c0.8,0.2,1.2,0.4,1.4,0.6c0.2,0.2,0.3,0.5,0.3,0.7c0,0.4,-0.2,0.8,-0.6,1c-0.4,0.2,-0.9,0.4,-1.5,0.4c-0.8,0,-1.5,-0.2,-2.1,-0.5l-0.3,1c0.7,0.3,1.4,0.4,2.4,0.4c1,0,1.8,-0.2,2.4,-0.6c0.6,-0.4,0.9,-1,0.9,-1.8c0,-0.3,-0.1,-0.7,-0.2,-1c-0.2,-0.2,-0.4,-0.5,-0.8,-0.7c-0.3,-0.2,-0.7,-0.4,-1.2,-0.5l-1.1,-0.3c-0.5,-0.2,-0.9,-0.3,-1,-0.5c-0.2,-0.2,-0.3,-0.4,-0.3,-0.6c0,-0.3,0.2,-0.6,0.6,-0.8c0.3,-0.2,0.8,-0.3,1.5,-0.3c0.5,0,1.1,0.1,1.8,0.3l0.3,-1Z" class="g23_45" />
<path d="M1546.3,565.9c-0.2,0.2,-0.3,0.4,-0.3,0.7c0,0.2,0.1,0.5,0.3,0.6c0.1,0.2,0.4,0.3,0.6,0.3c0.3,0,0.5,-0.1,0.7,-0.3c0.2,-0.1,0.3,-0.4,0.3,-0.6c0,-0.3,-0.1,-0.5,-0.3,-0.7c-0.2,-0.2,-0.4,-0.3,-0.7,-0.3c-0.2,0,-0.5,0.1,-0.6,0.3Z" class="g23_45" />
<path d="M1558.9,566.1c-0.7,0.3,-1.4,0.4,-2,0.4c-0.8,0,-1.5,-0.3,-2,-0.9c-0.6,-0.6,-0.8,-1.3,-0.8,-2.1c0,-1,0.2,-1.7,0.7,-2.3c0.5,-0.5,1.2,-0.8,2.1,-0.8c0.5,0,1.2,0.1,1.9,0.3l0.3,-0.9c-0.7,-0.3,-1.5,-0.4,-2.2,-0.4c-1.2,0,-2.2,0.3,-2.9,1.1c-0.8,0.7,-1.1,1.7,-1.1,3c0,1.2,0.3,2.2,1.1,2.9c0.7,0.8,1.7,1.1,2.9,1.1c0.8,0,1.5,-0.1,2.2,-0.4l-0.2,-1Z" class="g23_45" />
<path d="M1562.7,560.5c-0.6,0.7,-0.9,1.7,-0.9,2.9c0,1.3,0.3,2.3,0.9,3c0.7,0.8,1.5,1.1,2.6,1.1c1.1,0,1.9,-0.3,2.6,-1.1c0.6,-0.7,0.9,-1.7,0.9,-3c0,-1.2,-0.3,-2.2,-0.9,-2.9c-0.7,-0.8,-1.5,-1.1,-2.6,-1.1c-1.1,0,-1.9,0.3,-2.6,1.1Zm0.9,5.1c-0.4,-0.6,-0.6,-1.3,-0.6,-2.1c0,-1,0.2,-1.7,0.6,-2.3c0.4,-0.5,1,-0.8,1.7,-0.8c0.7,0,1.3,0.3,1.7,0.8c0.4,0.6,0.6,1.4,0.6,2.3c0,0.8,-0.2,1.5,-0.6,2.1c-0.4,0.6,-1,0.9,-1.7,0.9c-0.7,0,-1.3,-0.3,-1.7,-0.9Z" class="g23_45" />
<path d="M1578.1,561.9c0,-1.7,-0.5,-2.5,-1.4,-2.5c-0.3,0,-0.6,0.1,-0.9,0.3c-0.3,0.3,-0.6,0.6,-0.8,1c-0.1,-0.4,-0.3,-0.7,-0.5,-1c-0.3,-0.2,-0.5,-0.3,-0.9,-0.3c-0.3,0,-0.6,0.1,-0.9,0.3c-0.3,0.3,-0.5,0.6,-0.7,1l0,-1.1l-1.1,0l0,7.7l1.1,0l0,-5.6c0,0,0.2,-0.3,0.4,-0.7c0.3,-0.4,0.6,-0.6,0.8,-0.6c0.5,0,0.7,0.6,0.7,1.8l0,5.1l1.2,0l0,-5.6c0,0,0.1,-0.3,0.4,-0.7c0.3,-0.4,0.5,-0.6,0.7,-0.6c0.5,0,0.7,0.6,0.7,1.8l0,5.1l1.2,0l0,-5.4Z" class="g23_45" />
<path d="M1585.2,556.6l-4.5,10.9l1.1,0l4.5,-10.9l-1.1,0Z" class="g23_45" />
<text 
x="1223" 
y="567" 
dx="0,0,0,0,0,0,0,0,-1.8,0,0,0,0,0,0,0,0,0,0,0,0,0,0,0,0,0,0,0,0,0,0,0,0,0,0,0,0,0,0,0,0" 
class="s4_45"
>@import url(http://fonts.googleapis.com/ </text>

<path d="M1230.7,587.5c-0.7,0.3,-1.4,0.4,-2,0.4c-0.9,0,-1.5,-0.3,-2.1,-0.9c-0.5,-0.6,-0.7,-1.3,-0.7,-2.2c0,-0.9,0.2,-1.6,0.7,-2.2c0.5,-0.6,1.2,-0.8,2.1,-0.8c0.5,0,1.2,0.1,1.9,0.3l0.3,-0.9c-0.7,-0.3,-1.5,-0.4,-2.3,-0.4c-1.2,0,-2.1,0.3,-2.9,1.1c-0.7,0.7,-1.1,1.7,-1.1,2.9c0,1.3,0.4,2.3,1.1,3c0.8,0.8,1.7,1.1,3,1.1c0.8,0,1.5,-0.1,2.2,-0.4l-0.2,-1Z" class="g23_45" />
<path d="M1239.5,581.1c-0.7,-0.2,-1.4,-0.3,-2,-0.3c-1,0,-1.8,0.2,-2.4,0.6c-0.6,0.3,-0.9,0.9,-0.9,1.6c0,0.3,0.1,0.5,0.2,0.8c0.2,0.2,0.3,0.4,0.6,0.6c0.2,0.2,0.5,0.3,0.8,0.4c0.3,0.1,0.7,0.3,1.3,0.4c0.7,0.3,1.2,0.5,1.4,0.7c0.2,0.2,0.3,0.5,0.3,0.7c0,0.4,-0.2,0.7,-0.6,1c-0.4,0.2,-0.9,0.3,-1.6,0.3c-0.7,0,-1.4,-0.1,-2.1,-0.4l-0.2,1c0.6,0.3,1.4,0.4,2.4,0.4c0.9,0,1.7,-0.2,2.4,-0.6c0.6,-0.5,0.9,-1,0.9,-1.8c0,-0.4,-0.1,-0.7,-0.3,-1c-0.1,-0.3,-0.4,-0.5,-0.7,-0.7c-0.3,-0.2,-0.7,-0.4,-1.2,-0.5l-1.1,-0.3c-0.6,-0.2,-0.9,-0.3,-1.1,-0.5c-0.1,-0.2,-0.2,-0.4,-0.2,-0.6c0,-0.3,0.2,-0.6,0.5,-0.8c0.4,-0.3,0.9,-0.4,1.5,-0.4c0.6,0,1.2,0.1,1.9,0.4l0.2,-1Z" class="g23_45" />
<path d="M1248.7,581.1c-0.8,-0.2,-1.5,-0.3,-2.1,-0.3c-0.9,0,-1.7,0.2,-2.3,0.6c-0.6,0.3,-0.9,0.9,-0.9,1.6c0,0.3,0.1,0.5,0.2,0.8c0.1,0.2,0.3,0.4,0.6,0.6c0.2,0.2,0.5,0.3,0.7,0.4c0.3,0.1,0.8,0.3,1.4,0.4c0.7,0.3,1.2,0.5,1.4,0.7c0.2,0.2,0.3,0.5,0.3,0.7c0,0.4,-0.2,0.7,-0.6,1c-0.4,0.2,-0.9,0.3,-1.6,0.3c-0.7,0,-1.4,-0.1,-2.1,-0.4l-0.2,1c0.6,0.3,1.4,0.4,2.4,0.4c0.9,0,1.7,-0.2,2.3,-0.6c0.6,-0.5,1,-1,1,-1.8c0,-0.4,-0.1,-0.7,-0.3,-1c-0.1,-0.3,-0.4,-0.5,-0.7,-0.7c-0.3,-0.2,-0.8,-0.4,-1.3,-0.5l-1.1,-0.3c-0.5,-0.2,-0.8,-0.3,-1,-0.5c-0.2,-0.2,-0.2,-0.4,-0.2,-0.6c0,-0.3,0.1,-0.6,0.5,-0.8c0.4,-0.3,0.9,-0.4,1.5,-0.4c0.6,0,1.2,0.1,1.8,0.4l0.3,-1Z" class="g23_45" />
<path d="M1253,579.5c0.8,-0.4,1.4,-0.6,1.9,-0.6c0.6,0,1,0.2,1.4,0.5c0.3,0.2,0.5,0.6,0.5,1.1c0,0.4,-0.1,0.7,-0.3,0.9c-0.1,0.3,-0.4,0.6,-0.7,0.8l-1,0.9c-0.5,0.5,-0.8,1.2,-0.8,2l0,0.5l1,0l0,-0.5c0,-0.2,0.1,-0.5,0.1,-0.7c0.1,-0.1,0.2,-0.3,0.3,-0.4c0.1,-0.2,0.4,-0.4,0.9,-0.8c1.1,-1,1.6,-1.8,1.6,-2.7c0,-0.8,-0.2,-1.4,-0.7,-1.9c-0.5,-0.4,-1.3,-0.6,-2.2,-0.6c-0.7,0,-1.5,0.2,-2.4,0.6l0.4,0.9Zm1,7.8c-0.2,0.2,-0.3,0.4,-0.3,0.6c0,0.3,0.1,0.5,0.3,0.7c0.2,0.2,0.4,0.3,0.7,0.3c0.2,0,0.4,-0.1,0.6,-0.3c0.2,-0.2,0.3,-0.4,0.3,-0.7c0,-0.2,-0.1,-0.4,-0.3,-0.6c-0.2,-0.2,-0.4,-0.3,-0.6,-0.3c-0.3,0,-0.5,0.1,-0.7,0.3Z" class="g23_45" />
<path d="M1265.9,578c-0.8,0,-1.4,0.2,-1.8,0.6c-0.3,0.4,-0.5,1.1,-0.5,2.1l0,0.3l-1.9,0l0,1l1.9,0l0,6.7l1.2,0l0,-6.7l2.6,0l0,-1l-2.6,0l0,-0.2c0,-0.7,0.1,-1.2,0.2,-1.4c0.2,-0.3,0.5,-0.4,0.9,-0.4c0.4,0,0.9,0.1,1.5,0.3l0.3,-1c-0.7,-0.2,-1.3,-0.3,-1.8,-0.3Z" class="g23_45" />
<path d="M1276.8,586.9l0,-3.3c0,-1.9,-0.9,-2.8,-2.7,-2.8c-0.9,0,-1.9,0.2,-2.9,0.8l0.3,0.8c0.3,-0.2,0.7,-0.3,1.1,-0.4c0.5,-0.2,0.8,-0.2,1.1,-0.2c1.3,0,1.9,0.6,1.9,2l0,0.3l-1.3,0.1c-0.6,0.1,-1.1,0.2,-1.5,0.3c-0.5,0.1,-0.8,0.3,-1.1,0.5c-0.3,0.2,-0.5,0.4,-0.7,0.7c-0.1,0.3,-0.2,0.6,-0.2,1c0,0.7,0.2,1.2,0.6,1.6c0.5,0.4,1,0.6,1.6,0.6c1.1,0,2,-0.5,2.7,-1.4c0,0.5,0,0.9,0.1,1.2l1.2,0c-0.2,-0.5,-0.2,-1.1,-0.2,-1.8Zm-2.3,0.5c-0.4,0.3,-0.8,0.4,-1.2,0.4c-0.4,0,-0.7,-0.1,-0.9,-0.3c-0.3,-0.2,-0.4,-0.5,-0.4,-0.9c0,-0.3,0.1,-0.6,0.4,-0.9c0.3,-0.2,0.7,-0.3,1,-0.4c0.4,-0.1,1.2,-0.2,2.2,-0.3l0,1.4c-0.3,0.5,-0.7,0.8,-1.1,1Z" class="g23_45" />
<path d="M1286.5,583.3c0,-1.7,-0.4,-2.5,-1.4,-2.5c-0.3,0,-0.6,0.1,-0.9,0.3c-0.3,0.3,-0.5,0.6,-0.7,1c-0.1,-0.4,-0.3,-0.7,-0.6,-1c-0.2,-0.2,-0.5,-0.3,-0.8,-0.3c-0.3,0,-0.6,0.1,-0.9,0.3c-0.3,0.3,-0.6,0.6,-0.8,1l0,-1.1l-1.1,0l0,7.7l1.2,0l0,-5.6c0,0,0.1,-0.3,0.4,-0.7c0.3,-0.4,0.5,-0.6,0.8,-0.6c0.4,0,0.6,0.6,0.6,1.8l0,5.1l1.2,0l0,-5.6c0,0,0.1,-0.3,0.4,-0.7c0.3,-0.4,0.6,-0.6,0.8,-0.6c0.5,0,0.7,0.6,0.7,1.8l0,5.1l1.1,0l0,-5.4Z" class="g23_45" />
<path d="M1292.1,578.2c-0.2,0.2,-0.3,0.4,-0.3,0.6c0,0.2,0.1,0.4,0.3,0.6c0.1,0.1,0.3,0.2,0.5,0.2c0.2,0,0.4,-0.1,0.6,-0.2c0.1,-0.2,0.2,-0.4,0.2,-0.6c0,-0.2,-0.1,-0.4,-0.2,-0.6c-0.2,-0.1,-0.4,-0.2,-0.6,-0.2c-0.2,0,-0.4,0.1,-0.5,0.2Zm1.1,2.8l-3.5,0l0,1l2.3,0l0,6.7l1.2,0l0,-7.7Z" class="g23_45" />
<path d="M1303.5,587.5l-2,0l0,-9l-3,0l0,1l2,0l0,9l3,0l0,-1Z" class="g23_45" />
<path d="M1312.5,581l-2.2,6.2l-2.2,-6.2l-1.2,0l2.9,7.7c-0.3,0.7,-0.6,1.3,-0.8,1.6c-0.3,0.3,-0.7,0.5,-1.1,0.5c-0.3,0,-0.6,-0.1,-1,-0.2l-0.2,0.9c0.5,0.2,1,0.3,1.4,0.3c0.6,0,1.1,-0.2,1.5,-0.7c0.4,-0.4,0.8,-1.2,1.2,-2.4l3,-7.7l-1.3,0Z" class="g23_45" />
<path d="M1323.5,581.5l-7,0l0,1l7,0l0,-1Zm0,3l-7,0l0,1l7,0l0,-1Z" class="g23_45" />
<path d="M1326.1,588.7l1.2,0l0,-4.7l1.5,0c1,0,1.8,-0.3,2.4,-0.8c0.6,-0.5,0.9,-1.3,0.9,-2.1c0,-0.9,-0.3,-1.6,-0.9,-2.1c-0.6,-0.5,-1.4,-0.8,-2.4,-0.8l-2.7,0l0,10.5Zm1.2,-9.4l1.4,0c0.6,0,1.1,0.1,1.5,0.5c0.4,0.3,0.6,0.8,0.6,1.3c0,1.2,-0.7,1.8,-2.2,1.8l-1.3,0l0,-3.6Z" class="g23_45" />
<path d="M1341.5,578.5l-7,0l0,1l3,0l0,9l1,0l0,-9l3,0l0,-1Z" class="g23_45" />
<path d="M1350.5,582.5l-3,0l0,-3l-1,0l0,3l-3,0l0,1l3,0l0,3l1,0l0,-3l3,0l0,-1Z" class="g23_45" />
<path d="M1358.8,578.3c-0.7,-0.2,-1.4,-0.3,-2.1,-0.3c-1,0,-1.8,0.2,-2.4,0.7c-0.6,0.5,-0.9,1.2,-0.9,2.1c0,0.3,0,0.6,0.2,0.9c0.1,0.3,0.2,0.5,0.5,0.7c0.2,0.3,0.4,0.4,0.6,0.6c0.2,0.1,0.7,0.3,1.5,0.7c0.7,0.3,1.2,0.6,1.5,1c0.3,0.3,0.4,0.7,0.4,1.2c0,0.6,-0.2,1.1,-0.6,1.4c-0.4,0.4,-1,0.6,-1.7,0.6c-0.6,0,-1.3,-0.2,-2.1,-0.6l-0.2,1.1c0.6,0.3,1.4,0.5,2.3,0.5c1,0,1.8,-0.3,2.5,-0.8c0.7,-0.6,1,-1.4,1,-2.4c0,-0.4,-0.1,-0.8,-0.2,-1.1c-0.2,-0.4,-0.4,-0.6,-0.6,-0.9c-0.3,-0.2,-0.6,-0.4,-0.8,-0.6c-0.3,-0.1,-0.8,-0.3,-1.6,-0.7c-1,-0.5,-1.5,-1,-1.5,-1.7c0,-0.5,0.2,-0.9,0.6,-1.2c0.4,-0.3,0.9,-0.5,1.5,-0.5c0.6,0,1.2,0.1,1.8,0.4l0.3,-1.1Z" class="g23_45" />
<path d="M1368.4,586.9l0,-3.3c0,-1.9,-0.8,-2.8,-2.6,-2.8c-0.9,0,-1.9,0.2,-3,0.8l0.3,0.8c0.4,-0.2,0.8,-0.3,1.2,-0.4c0.5,-0.2,0.8,-0.2,1.1,-0.2c1.3,0,1.9,0.6,1.9,2l0,0.3l-1.3,0.1c-0.6,0.1,-1.1,0.2,-1.5,0.3c-0.5,0.1,-0.8,0.3,-1.1,0.5c-0.3,0.2,-0.6,0.4,-0.7,0.7c-0.2,0.3,-0.2,0.6,-0.2,1c0,0.7,0.2,1.2,0.6,1.6c0.5,0.4,1,0.6,1.5,0.6c1.2,0,2.1,-0.5,2.7,-1.4c0,0.5,0.1,0.9,0.2,1.2l1.1,0c-0.1,-0.5,-0.2,-1.1,-0.2,-1.8Zm-2.2,0.5c-0.4,0.3,-0.8,0.4,-1.2,0.4c-0.4,0,-0.7,-0.1,-1,-0.3c-0.2,-0.2,-0.3,-0.5,-0.3,-0.9c0,-0.3,0.1,-0.6,0.4,-0.9c0.3,-0.2,0.6,-0.3,1,-0.4c0.4,-0.1,1.1,-0.2,2.2,-0.3l0,1.4c-0.3,0.5,-0.7,0.8,-1.1,1Z" class="g23_45" />
<path d="M1377.6,583.4c0,-1.8,-0.7,-2.6,-2.2,-2.6c-0.9,0,-1.8,0.4,-2.6,1.3l0,-1.1l-1.2,0l0,7.7l1.2,0l0,-5.6c0.8,-0.9,1.6,-1.3,2.3,-1.3c0.5,0,0.8,0.1,1,0.4c0.2,0.3,0.4,0.8,0.4,1.5l0,5l1.1,0l0,-5.3Z" class="g23_45" />
<path d="M1386.2,581.1c-0.7,-0.2,-1.4,-0.3,-2.1,-0.3c-0.9,0,-1.7,0.2,-2.3,0.6c-0.6,0.3,-0.9,0.9,-0.9,1.6c0,0.3,0.1,0.5,0.2,0.8c0.1,0.2,0.3,0.4,0.6,0.6c0.2,0.2,0.5,0.3,0.8,0.4c0.2,0.1,0.7,0.3,1.3,0.4c0.7,0.3,1.2,0.5,1.4,0.7c0.2,0.2,0.3,0.5,0.3,0.7c0,0.4,-0.2,0.7,-0.6,1c-0.4,0.2,-0.9,0.3,-1.6,0.3c-0.7,0,-1.4,-0.1,-2.1,-0.4l-0.2,1c0.6,0.3,1.4,0.4,2.4,0.4c0.9,0,1.7,-0.2,2.3,-0.6c0.7,-0.5,1,-1,1,-1.8c0,-0.4,-0.1,-0.7,-0.3,-1c-0.1,-0.3,-0.4,-0.5,-0.7,-0.7c-0.3,-0.2,-0.7,-0.4,-1.2,-0.5l-1.2,-0.3c-0.5,-0.2,-0.8,-0.3,-1,-0.5c-0.1,-0.2,-0.2,-0.4,-0.2,-0.6c0,-0.3,0.2,-0.6,0.5,-0.8c0.4,-0.3,0.9,-0.4,1.5,-0.4c0.6,0,1.2,0.1,1.9,0.4l0.2,-1Z" class="g23_45" />
<path d="M1396.5,582.5l-3,0l0,-3l-1,0l0,3l-3,0l0,1l3,0l0,3l1,0l0,-3l3,0l0,-1Z" class="g23_45" />
<path d="M1405.3,578.2l-1.2,0l0,8.2l-3.8,-8.2l-1.4,0l0,10.5l1.3,0l0,-8.3l3.7,8.3l1.4,0l0,-10.5Z" class="g23_45" />
<path d="M1414.3,586.9l0,-3.3c0,-1.9,-0.9,-2.8,-2.7,-2.8c-0.9,0,-1.9,0.2,-2.9,0.8l0.3,0.8c0.3,-0.2,0.7,-0.3,1.1,-0.4c0.5,-0.2,0.9,-0.2,1.2,-0.2c1.2,0,1.8,0.6,1.8,2l0,0.3l-1.3,0.1c-0.6,0.1,-1.1,0.2,-1.5,0.3c-0.4,0.1,-0.8,0.3,-1.1,0.5c-0.3,0.2,-0.5,0.4,-0.7,0.7c-0.1,0.3,-0.2,0.6,-0.2,1c0,0.7,0.2,1.2,0.7,1.6c0.4,0.4,0.9,0.6,1.5,0.6c1.1,0,2,-0.5,2.7,-1.4c0,0.5,0,0.9,0.1,1.2l1.2,0c-0.1,-0.5,-0.2,-1.1,-0.2,-1.8Zm-2.2,0.5c-0.5,0.3,-0.9,0.4,-1.3,0.4c-0.4,0,-0.7,-0.1,-0.9,-0.3c-0.3,-0.2,-0.4,-0.5,-0.4,-0.9c0,-0.3,0.2,-0.6,0.5,-0.9c0.2,-0.2,0.6,-0.3,1,-0.4c0.4,-0.1,1.1,-0.2,2.1,-0.3l0,1.4c-0.3,0.5,-0.6,0.8,-1,1Z" class="g23_45" />
<path d="M1421.9,580.8c-1,0,-1.8,0.6,-2.4,1.7l0,-1.5l-1.2,0l0,7.7l1.2,0l0,-5c0,0,0.1,-0.3,0.4,-0.6c0.2,-0.4,0.5,-0.7,0.9,-0.9c0.3,-0.2,0.6,-0.3,1,-0.3c0.4,0,0.8,0.2,1.3,0.4l0.5,-1.1c-0.6,-0.3,-1.1,-0.4,-1.7,-0.4Z" class="g23_45" />
<path d="M1431,580.8c-1,0,-1.8,0.6,-2.4,1.7l0,-1.5l-1.1,0l0,7.7l1.1,0l0,-5c0,0,0.2,-0.3,0.4,-0.6c0.3,-0.4,0.6,-0.7,0.9,-0.9c0.4,-0.2,0.7,-0.3,1,-0.3c0.4,0,0.9,0.2,1.4,0.4l0.4,-1.1c-0.5,-0.3,-1.1,-0.4,-1.7,-0.4Z" class="g23_45" />
<path d="M1436.2,581.9c-0.6,0.7,-0.9,1.7,-0.9,2.9c0,1.3,0.3,2.3,0.9,3c0.7,0.8,1.5,1.1,2.6,1.1c1,0,1.9,-0.4,2.5,-1.1c0.7,-0.8,1,-1.7,1,-3c0,-1.2,-0.3,-2.2,-1,-2.9c-0.6,-0.8,-1.5,-1.1,-2.5,-1.1c-1.1,0,-1.9,0.3,-2.6,1.1Zm0.9,5.1c-0.4,-0.6,-0.6,-1.3,-0.6,-2.2c0,-0.9,0.2,-1.6,0.6,-2.2c0.4,-0.5,1,-0.8,1.7,-0.8c0.7,0,1.3,0.3,1.7,0.8c0.4,0.6,0.6,1.3,0.6,2.2c0,0.9,-0.2,1.6,-0.6,2.2c-0.5,0.6,-1,0.9,-1.7,0.9c-0.7,0,-1.3,-0.3,-1.7,-0.9Z" class="g23_45" />
<path d="M1450.7,581l-0.6,5.6l-1.5,-3.3l-1.2,0l-1.4,3.4c0,-0.2,-0.2,-2.1,-0.6,-5.7l-1.2,0l1.1,7.7l0.9,0l1.8,-4.4l1.9,4.4l0.9,0l1.1,-7.7l-1.2,0Z" class="g23_45" />
<path d="M1454.5,578.7c0.9,0.7,1.6,1.6,2,2.5c0.4,0.8,0.6,1.9,0.6,3.2c0,1.3,-0.2,2.4,-0.6,3.3c-0.4,0.9,-1,1.8,-2,2.6l0.5,0.6c1.1,-0.8,2,-1.8,2.5,-2.9c0.6,-1.1,0.9,-2.3,0.9,-3.5c0,-1.3,-0.3,-2.5,-0.9,-3.6c-0.5,-1.1,-1.4,-2,-2.5,-2.9l-0.5,0.7Z" class="g23_45" />
<path d="M1465.7,581.1c-0.2,0.2,-0.3,0.4,-0.3,0.6c0,0.3,0.1,0.5,0.3,0.7c0.1,0.1,0.3,0.2,0.6,0.2c0.2,0,0.5,-0.1,0.6,-0.2c0.2,-0.2,0.3,-0.4,0.3,-0.7c0,-0.2,-0.1,-0.4,-0.3,-0.6c-0.1,-0.2,-0.4,-0.3,-0.6,-0.3c-0.3,0,-0.5,0.1,-0.6,0.3Zm-0.3,8.9l0.3,0.5c1.1,-0.5,1.6,-1.3,1.6,-2.3c0,-0.3,-0.1,-0.6,-0.3,-0.8c-0.2,-0.2,-0.5,-0.3,-0.7,-0.3c-0.3,0,-0.5,0.1,-0.7,0.2c-0.1,0.2,-0.2,0.4,-0.2,0.7c0,0.2,0.1,0.4,0.3,0.6c0.1,0.2,0.3,0.3,0.6,0.3c0,0.4,-0.3,0.8,-0.9,1.1Z" class="g23_45" />
<text 
x="1223" 
y="588" 
dx="0,0,0,0,0,0,0,0,0,0,0,0,0,0,0,0,0,0,0,0,0,0,0,0,0,0,0" 
class="s4_45"
>css?family=PT+Sans+Narrow);</text>

<text 
x="1223" 
y="610" 
dx="0,0,0,0,0,-1.8" 
class="s4_45"
>body {</text>

<text 
x="1223" 
y="631" 
dx="0,0,0,-1.8,0,0,0,-1.8,0,0,0,0,0,0,-1.8,0,0,-1.8,0,0,0,0,0,0,-1.8,0,0,0,-1.8,0,0,0,0,0,0,-1.8,0" 
class="s4_45"
>/* set sizing to border box method */</text>

<text 
x="1223" 
y="652" 
dx="0,0,0,0,0,-1.8" 
class="s4_45"
>html {</text>

<text 
x="1223" 
y="674" 
dx="0,0,0,0,0,0,0,0,0,0,0,0,-1.8,0,0,0,0,0,0,0,0,0,0" 
class="s4_45"
>box-sizing: border-box;</text>

<text 
x="1223" 
y="695" 
dx="0" 
class="s4_45"
>}</text>

<text 
x="1223" 
y="717" 
dx="0,0,0,-1.8,0,0,0,0,0,0,0,0,0,-1.8,0,0,0,0,0,0,0,-1.8" 
class="s4_45"
>*, *:before, *:after {</text>

<text 
x="1223" 
y="738" 
dx="0,0,0,0,0,0,0,0,0,0,0,0,-1.8,0,0,0,0,0,0,0" 
class="s4_45"
>box-sizing: inherit;</text>

<text 
x="1223" 
y="759" 
dx="0" 
class="s4_45"
>}</text>

<text 
x="1223" 
y="781" 
dx="0,0,0,-1.8,0,0,0,-1.8,0,0,0,0,0,0,0,-1.8,0,0,0,-1.8,0,0,0,0,0,0,0,-1.8,0,0,0,0,0,0,-1.8,0,0,0,-1.8,0,0,0" 
class="s4_45"
>/* set maximum and minimum widths for the </text>

<text 
x="1223" 
y="802" 
dx="0,0,0,0,0,-1.8,0,0,0,-1.8,0,0,0,0,0,0,-1.8,0,0,0,0,0,0,-1.8,0,0,0,-1.8,0,0,0,0,0,0,0,0,-1.8,0" 
class="s4_45"
>body and centre within the viewport */</text>

<text 
x="1223" 
y="824" 
dx="0,0,0,0,0,-1.8,0" 
class="s4_45"
>body { </text>

<text 
x="1223" 
y="845" 
dx="0,0,0,0,0,0,0,0,0,0,0,0,0,-1.8,0,0,0,0,0,0,0,0,0,0" 
class="s4_45"
>font-family: sans-serif;</text>

<text 
x="1223" 
y="866" 
dx="0,0,0,0,0,0,0,0,0,0,0,0,0,-1.8,0,0,0,0" 
class="s4_45"
>margin-left: auto;</text>

<text 
x="1223" 
y="888" 
dx="0,0,0,0,0,0,0,0,0,0,0,0,0,0,-1.8,0,0,0,0" 
class="s4_45"
>margin-right: auto;</text>

<text 
x="1223" 
y="909" 
dx="0,0,0,0,0,0,0,0,0,0,0,-1.8,0,0,0,0,0,0" 
class="s4_45"
>max-width: 1024px;</text>

<text 
x="1223" 
y="930" 
dx="0,0,0,0,0,0,0,0,0,0,0,-1.8,0,0,0,0,0" 
class="s4_45"
>min-width: 256px;</text>

<text 
x="1223" 
y="952" 
dx="0,0,0,0,0,0,0,0,0,0,0,0,0,-1.8,0,0,0" 
class="s4_45"
>padding-top: 8px;</text>

<path d="M1214,618l0,4l-4,0l0,4l-4,0l0,4l-4,0l0,4l-5,0l0,-4l0,-4l0,-4l0,-4l0,-4l0,-4l0,-4l0,-4l0,-4l5,0l0,4l4,0l0,4l4,0l0,4l4,0l0,4l4,0l0,4Z" class="g21_45" />
<path d="M1030,878l-4,0l0,-4l-5,0l0,-4l-4,0l0,-4l-4,0l0,-4l4,0l4,0l5,0l4,0l4,0l4,0l4,0l4,0l4,0l0,4l-4,0l0,4l-4,0l0,4l-4,0l0,4l-4,0l0,4l-4,0Z" class="g21_45" />
<text 
x="485" 
y="613" 
dx="0,0,0,0" 
class="s10_45"
>12px</text>

<text 
x="615" 
y="613" 
dx="0,-0.4,0,0,0,0,0,0,0,0" 
class="s10_45"
>Popularity</text>

<text 
x="1590" 
y="1019" 
dx="0,-1.3" 
class="s17_45"
>89</text>

<text 
x="35" 
y="1019" 
dx="0,-1.1" 
class="s17_45"
>88</text>



<!-- Any embedded fonts defined here -->
<style type="text/css" ><![CDATA[

@font-face {
	font-family: AndaleMono_1cn;
	src: url("fonts/AndaleMono_1cn.woff") format("woff");
}

@font-face {
	font-family: HVDPosterClean_1e7;
	src: url("fonts/HVDPosterClean_1e7.woff") format("woff");
}

@font-face {
	font-family: PTSans-NarrowBold_1gj;
	src: url("fonts/PTSans-NarrowBold_1gj.woff") format("woff");
}

@font-face {
	font-family: Helvetica-Light_1by;
	src: url("fonts/Helvetica-Light_1by.woff") format("woff");
}

@font-face {
	font-family: PixelSplitter-Bold_1bs;
	src: url("fonts/PixelSplitter-Bold_1bs.woff") format("woff");
}

@font-face {
	font-family: PixelSplitter-Bold_16m;
	src: url("fonts/PixelSplitter-Bold_16m.woff") format("woff");
}

@font-face {
	font-family: Helvetica-Bold_1bu;
	src: url("fonts/Helvetica-Bold_1bu.woff") format("woff");
}

@font-face {
	font-family: PTSans-Narrow_1gk;
	src: url("fonts/PTSans-Narrow_1gk.woff") format("woff");
}

@font-face {
	font-family: AmericanTypewriter_1gi;
	src: url("fonts/AmericanTypewriter_1gi.woff") format("woff");
}

@font-face {
	font-family: Helvetica_1e3;
	src: url("fonts/Helvetica_1e3.woff") format("woff");
}

]]></style>

</svg>
