<?xml version="1.0" encoding="UTF-8" standalone="no"?>
<!DOCTYPE svg PUBLIC "-//W3C//DTD SVG 1.1//EN"
"http://www.w3.org/Graphics/SVG/1.1/DTD/svg11.dtd">


<!-- Page 47 -->
<svg x="0" y="0" width="1645" height="1061" viewBox="0 0 1645 1061" version="1.1" xmlns="http://www.w3.org/2000/svg" xmlns:xlink="http://www.w3.org/1999/xlink"
style="display: block;margin-left: auto;margin-right: auto;">
<defs>

<style type="text/css"><![CDATA[

.g4_47{
fill: none;
stroke: #11151D;
stroke-width: 1;
stroke-linecap: butt;
stroke-linejoin: miter;
stroke-miterlimit: 4;
}
.g2_47{
fill: #FFFFFF;
}
.g3_47{
fill: #11151D;
}
.g1_47{
fill: #FAAD60;
}

.s5_47{
font-size: 15.28px;
font-family: Helvetica-Bold_190;
fill: #FFFFFF;
}
.s6_47{
font-size: 15.28px;
font-family: Helvetica-Bold_196;
fill: #FFFFFF;
}
.s7_47{
font-size: 15.28px;
font-family: Helvetica-Bold_19c;
fill: #FFFFFF;
}
.s8_47{
font-size: 15.28px;
font-family: Helvetica-Bold_19i;
fill: #FFFFFF;
}
.s13_47{
font-size: 12.22px;
font-family: PixelSplitter-Bold_1bs;
fill: #11151D;
}
.s1_47{
font-size: 33.61px;
font-family: PixelSplitter-Bold_18w;
fill: #FFFFFF;
}
.s12_47{
font-size: 15.28px;
font-family: Helvetica-Bold_18q;
fill: #FFFFFF;
}
.s10_47{
font-size: 15.28px;
font-family: Helvetica-Bold_19u;
fill: #FFFFFF;
}
.s11_47{
font-size: 15.28px;
font-family: Helvetica-Bold_19-;
fill: #FFFFFF;
}
.s9_47{
font-size: 15.28px;
font-family: Helvetica-Bold_19o;
fill: #FFFFFF;
}
.s3_47{
font-size: 15.28px;
font-family: AndaleMono_1cn;
fill: #11151D;
}
.s4_47{
font-size: 15.28px;
font-family: Helvetica-Bold_1bu;
fill: #11151D;
}
.s2_47{
font-size: 15.28px;
font-family: Helvetica-Light_1by;
fill: #11151D;
}

]]></style>

</defs>
<path d="M0,0
L0,1061
L1645,1061
L1645,0 Z " 
fill="#FFFFFF" stroke="none" />
<image x="-33" y="-32" width="1713" height="1115" xlink:href="47/img/1.png" />
<image x="-13" y="-11" width="1674" height="1073" opacity="0.5" xlink:href="47/img/2.png" />
<path d="M47,53l0,4l-4,0l0,40l4,0l0,4l340,0l0,-4l4,0l0,-40l-4,0l0,-4Z" class="g1_47" />
<image x="-35" y="-32" width="1733" height="1112" xlink:href="47/img/3.png" />
<path d="M506,209l0,5l-4,0l0,133l4,0l0,4l269,0l0,-4l4,0l0,-133l-4,0l0,-5Z" class="g2_47" />
<path d="M506,172l0,4l-4,0l0,21l4,0l0,4l269,0l0,-4l4,0l0,-21l-4,0l0,-4Z" class="g2_47" />
<path d="M129,172l0,4l-5,0l0,21l5,0l0,4l268,0l0,-4l5,0l0,-21l-5,0l0,-4Z" class="g2_47" />
<path d="M951,172l0,4l-4,0l0,21l4,0l0,4l269,0l0,-4l4,0l0,-21l-4,0l0,-4Z" class="g2_47" />
<path d="M1329,172l0,4l-4,0l0,21l4,0l0,4l269,0l0,-4l4,0l0,-21l-4,0l0,-4Z" class="g2_47" />
<path d="M424,209l0,5l-4,0l0,133l4,0l0,4l68,0l0,-4l4,0l0,-133l-4,0l0,-5Z" class="g2_47" />
<path d="M424,172l0,4l-4,0l0,21l4,0l0,4l68,0l0,-4l4,0l0,-21l-4,0l0,-4Z" class="g2_47" />
<path d="M47,172l0,4l-4,0l0,21l4,0l0,4l68,0l0,-4l4,0l0,-21l-4,0l0,-4Z" class="g2_47" />
<path d="M870,172l0,4l-5,0l0,21l5,0l0,4l67,0l0,-4l5,0l0,-21l-5,0l0,-4Z" class="g2_47" />
<path d="M1248,172l0,4l-5,0l0,21l5,0l0,4l67,0l0,-4l5,0l0,-21l-5,0l0,-4Z" class="g2_47" />
<path d="M1329,209l0,5l-4,0l0,111l4,0l0,5l268,0l0,-5l5,0l0,-111l-5,0l0,-5Z" class="g2_47" />
<path d="M1247,209l0,5l-4,0l0,111l4,0l0,5l68,0l0,-5l4,0l0,-111l-4,0l0,-5Z" class="g2_47" />
<path d="M129,276l0,5l-5,0l0,49l5,0l0,5l268,0l0,-5l5,0l0,-49l-5,0l0,-5Z" class="g2_47" />
<path d="M47,276l0,5l-4,0l0,49l4,0l0,5l68,0l0,-5l4,0l0,-49l-4,0l0,-5Z" class="g2_47" />
<path d="M952,296l0,4l-5,0l0,70l5,0l0,4l268,0l0,-4l5,0l0,-70l-5,0l0,-4Z" class="g2_47" />
<path d="M870,296l0,4l-4,0l0,70l4,0l0,4l68,0l0,-4l4,0l0,-70l-4,0l0,-4Z" class="g2_47" />
<path d="M129,654l0,5l-4,0l0,70l4,0l0,5l268,0l0,-5l5,0l0,-70l-5,0l0,-5Z" class="g2_47" />
<path d="M47,654l0,5l-4,0l0,70l4,0l0,5l68,0l0,-5l4,0l0,-70l-4,0l0,-5Z" class="g2_47" />
<path d="M1329,490l0,4l-4,0l0,90l4,0l0,5l268,0l0,-5l5,0l0,-90l-5,0l0,-4Z" class="g2_47" />
<path d="M1247,490l0,4l-4,0l0,90l4,0l0,5l68,0l0,-5l4,0l0,-90l-4,0l0,-4Z" class="g2_47" />
<path d="M1329,598l0,5l-4,0l0,111l4,0l0,4l268,0l0,-4l5,0l0,-111l-5,0l0,-5Z" class="g2_47" />
<path d="M1247,598l0,5l-4,0l0,111l4,0l0,4l68,0l0,-4l4,0l0,-111l-4,0l0,-5Z" class="g2_47" />
<path d="M506,511l0,5l-4,0l0,153l4,0l0,5l269,0l0,-5l4,0l0,-153l-4,0l0,-5Z" class="g2_47" />
<path d="M424,511l0,5l-4,0l0,153l4,0l0,5l68,0l0,-5l4,0l0,-153l-4,0l0,-5Z" class="g2_47" />
<path d="M129,432l0,4l-5,0l0,49l5,0l0,5l268,0l0,-5l5,0l0,-49l-5,0l0,-4Z" class="g2_47" />
<path d="M47,432l0,4l-4,0l0,49l4,0l0,5l68,0l0,-5l4,0l0,-49l-4,0l0,-4Z" class="g2_47" />
<path d="M507,684l0,5l-5,0l0,69l5,0l0,4l268,0l0,-4l4,0l0,-69l-4,0l0,-5Z" class="g2_47" />
<path d="M425,684l0,5l-4,0l0,69l4,0l0,4l67,0l0,-4l5,0l0,-69l-5,0l0,-5Z" class="g2_47" />
<path d="M951,598l0,4l-4,0l0,48l4,0l0,4l269,0l0,-4l4,0l0,-48l-4,0l0,-4Z" class="g2_47" />
<path d="M870,598l0,4l-5,0l0,48l5,0l0,4l67,0l0,-4l5,0l0,-48l-5,0l0,-4Z" class="g2_47" />
<path d="M1329,339l0,5l-4,0l0,133l4,0l0,4l268,0l0,-4l5,0l0,-133l-5,0l0,-5Z" class="g2_47" />
<path d="M1247,339l0,5l-4,0l0,133l4,0l0,4l68,0l0,-4l4,0l0,-133l-4,0l0,-5Z" class="g2_47" />
<path d="M129,499l0,4l-5,0l0,71l5,0l0,5l268,0l0,-5l5,0l0,-71l-5,0l0,-4Z" class="g2_47" />
<path d="M47,499l0,4l-4,0l0,71l4,0l0,5l68,0l0,-5l4,0l0,-71l-4,0l0,-4Z" class="g2_47" />
<path d="M129,209l0,5l-4,0l0,49l4,0l0,4l268,0l0,-4l5,0l0,-49l-5,0l0,-5Z" class="g2_47" />
<path d="M47,209l0,5l-4,0l0,49l4,0l0,4l68,0l0,-4l4,0l0,-49l-4,0l0,-5Z" class="g2_47" />
<path d="M506,772l0,4l-4,0l0,112l4,0l0,4l269,0l0,-4l4,0l0,-112l-4,0l0,-4Z" class="g2_47" />
<path d="M424,772l0,4l-4,0l0,112l4,0l0,4l68,0l0,-4l4,0l0,-112l-4,0l0,-4Z" class="g2_47" />
<path d="M129,587l0,5l-5,0l0,49l5,0l0,4l268,0l0,-4l5,0l0,-49l-5,0l0,-5Z" class="g2_47" />
<path d="M47,587l0,5l-4,0l0,49l4,0l0,4l68,0l0,-4l4,0l0,-49l-4,0l0,-5Z" class="g2_47" />
<path d="M129,343l0,5l-5,0l0,71l5,0l0,4l268,0l0,-4l5,0l0,-71l-5,0l0,-5Z" class="g2_47" />
<path d="M47,343l0,5l-4,0l0,71l4,0l0,4l68,0l0,-4l4,0l0,-71l-4,0l0,-5Z" class="g2_47" />
<path d="M952,209l0,5l-5,0l0,69l5,0l0,4l268,0l0,-4l5,0l0,-69l-5,0l0,-5Z" class="g2_47" />
<path d="M870,209l0,5l-4,0l0,69l4,0l0,4l67,0l0,-4l5,0l0,-69l-5,0l0,-5Z" class="g2_47" />
<path d="M952,383l0,4l-5,0l0,112l5,0l0,4l268,0l0,-4l4,0l0,-112l-4,0l0,-4Z" class="g2_47" />
<path d="M870,383l0,4l-5,0l0,112l5,0l0,4l67,0l0,-4l5,0l0,-112l-5,0l0,-4Z" class="g2_47" />
<path d="M952,512l0,4l-5,0l0,69l5,0l0,4l268,0l0,-4l5,0l0,-69l-5,0l0,-4Z" class="g2_47" />
<path d="M870,512l0,4l-4,0l0,69l4,0l0,4l68,0l0,-4l4,0l0,-69l-4,0l0,-4Z" class="g2_47" />
<path d="M952,663l0,4l-4,0l0,91l4,0l0,4l269,0l0,-4l4,0l0,-91l-4,0l0,-4Z" class="g2_47" />
<path d="M870,663l0,4l-4,0l0,91l4,0l0,4l68,0l0,-4l4,0l0,-91l-4,0l0,-4Z" class="g2_47" />
<path d="M506,360l0,4l-4,0l0,133l4,0l0,5l269,0l0,-5l4,0l0,-133l-4,0l0,-4Z" class="g2_47" />
<path d="M424,360l0,4l-4,0l0,133l4,0l0,5l68,0l0,-5l4,0l0,-133l-4,0l0,-4Z" class="g2_47" />
<path d="M47,53l0,4l-4,0l0,40l4,0l0,4l340,0l0,-4l4,0l0,-40l-4,0l0,-4Z" class="g3_47" />
<text 
x="60" 
y="90" 
dx="0,-4,-3,-2.8,0,0,-2.9,-4.1,-4.7,-4.1,-2.9,-4.1,-2.8,-4" 
class="s1_47"
>Code Reference</text>

<text 
transform="matrix(0.98, 0, 0, 1, 56, 128)"
dx="0,0,0,-0.2,0,0,0,0,0,-0.2,0,0,0,0,0,-0.2,0,0,0,-0.2,0,0,0,-0.2,0,0,0,0,0,-0.2,0,0,0,0,0,-0.2,0,0,0,0,-0.2,0,0,0,0,0,-0.2,0,-0.2,0,0,0,0,0,0,-0.2,0,0,-0.2,0,0,0,0,-0.2,0,0,0,0,0,0,0,0,0,-0.2,0,0,0,-0.2,0,0,0,0,0,-0.2,0,0,0,0,0,-0.2,0,0,0,0,0,0,0,0,-0.2,0,-0.2,0,0,0,0" 
class="s2_47"
>As we’ve built our web pages we’ve been using a number of html elements. The table below contains a list </text>

<text 
transform="matrix(0.98, 0, 0, 1, 56, 150)"
dx="0,0,0,-0.9,0,0,0,0,0,-0.9,0,0,0,0,0,0,0,0,0,-0.9,0,0,0,0,0,0,0,0,0,0,0,0,0,-0.9,0,0,-0.9,0,0,0,-0.9,0,0,0,0,-0.9,0,0,-0.9,0,0,0,0,0,-0.9,0,0,0,0,-0.9,0,0,0,0,0" 
class="s2_47"
>of these elements. Mix-and-match as you need to build your pages!</text>

<path d="M437.2,226.2c0,-1.8,-0.7,-2.7,-2.1,-2.7c-1,0,-1.9,0.5,-2.7,1.3l0,-3.8l-1.2,0l0,10.5l1.2,0l0,-5.6c0.8,-0.9,1.6,-1.4,2.3,-1.4c0.5,0,0.8,0.2,1,0.5c0.3,0.3,0.4,0.8,0.4,1.5l0,5l1.1,0l0,-5.3Z" class="g4_47" />
<path d="M446.3,230.2c-0.6,0.3,-1.3,0.4,-1.9,0.4c-0.4,0,-0.7,-0.1,-0.9,-0.3c-0.2,-0.3,-0.3,-0.7,-0.3,-1.1l0,-4.5l2.7,0l0,-1l-2.7,0l0,-2.1l-1.1,0l0,2.1l-1.5,0l0,1l1.5,0l0,4.8c0,1.4,0.7,2.2,2.1,2.2c0.7,0,1.5,-0.2,2.3,-0.6l-0.2,-0.9Z" class="g4_47" />
<path d="M456.2,226c0,-1.6,-0.5,-2.5,-1.4,-2.5c-0.3,0,-0.6,0.1,-0.9,0.4c-0.3,0.2,-0.6,0.6,-0.8,1c-0.1,-0.4,-0.3,-0.8,-0.5,-1c-0.3,-0.3,-0.5,-0.4,-0.9,-0.4c-0.3,0,-0.6,0.1,-0.9,0.4c-0.3,0.2,-0.5,0.6,-0.7,1l0,-1.2l-1.2,0l0,7.8l1.2,0l0,-5.6c0,-0.1,0.1,-0.3,0.4,-0.7c0.3,-0.5,0.6,-0.7,0.8,-0.7c0.5,0,0.7,0.6,0.7,1.9l0,5.1l1.1,0l0,-5.6c0,-0.1,0.2,-0.3,0.5,-0.7c0.2,-0.5,0.5,-0.7,0.7,-0.7c0.5,0,0.7,0.6,0.7,1.9l0,5.1l1.2,0l0,-5.5Z" class="g4_47" />
<path d="M464.5,230.5l-2,0l0,-10l-4,0l0,1l2,0l0,10l4,0l0,-1Z" class="g4_47" />
<text 
x="429" 
y="231" 
dx="0,0,0,0" 
class="s3_47"
>html</text>

<text 
x="515" 
y="231" 
dx="0,0,0,0,-0.4,0,0,-0.4,0,0,0,0,-0.4,0,0,0,0,0,0,0,-0.4,0,0,0,0,-0.4,0,0,-0.4,0,0,0,0,0,0,-0.4,0" 
class="s2_47"
>All of your webpage must be inside a </text>

<path d="M522.9,247.5c0,-1.7,-0.8,-2.6,-2.2,-2.6c-0.9,0,-1.8,0.4,-2.6,1.3l0,-3.9l-1.2,0l0,10.6l1.2,0l0,-5.7c0.8,-0.8,1.5,-1.3,2.2,-1.3c0.5,0,0.9,0.2,1.1,0.5c0.2,0.3,0.3,0.8,0.3,1.5l0,5l1.2,0l0,-5.4Z" class="g4_47" />
<path d="M531.9,251.6c-0.6,0.3,-1.2,0.4,-1.9,0.4c-0.3,0,-0.6,-0.1,-0.8,-0.4c-0.2,-0.2,-0.3,-0.6,-0.3,-1.1l0,-4.4l2.6,0l0,-1l-2.6,0l0,-2.1l-1.2,0l0,2.1l-1.5,0l0,1l1.5,0l0,4.8c0,1.4,0.7,2.2,2.1,2.2c0.8,0,1.5,-0.2,2.3,-0.6l-0.2,-0.9Z" class="g4_47" />
<path d="M541.8,247.4c0,-1.7,-0.4,-2.5,-1.4,-2.5c-0.3,0,-0.6,0.1,-0.9,0.4c-0.3,0.2,-0.5,0.6,-0.8,1c-0.1,-0.4,-0.2,-0.8,-0.5,-1c-0.2,-0.3,-0.5,-0.4,-0.8,-0.4c-0.3,0,-0.6,0.1,-0.9,0.4c-0.3,0.2,-0.6,0.6,-0.8,1l0,-1.2l-1.1,0l0,7.8l1.1,0l0,-5.6c0,-0.1,0.2,-0.3,0.5,-0.8c0.2,-0.4,0.5,-0.6,0.7,-0.6c0.5,0,0.7,0.6,0.7,1.9l0,5.1l1.2,0l0,-5.6c0,-0.1,0.1,-0.3,0.4,-0.8c0.3,-0.4,0.5,-0.6,0.8,-0.6c0.4,0,0.7,0.6,0.7,1.9l0,5.1l1.1,0l0,-5.5Z" class="g4_47" />
<path d="M549.5,251.5l-2,0l0,-9l-3,0l0,1l2,0l0,9l3,0l0,-1Z" class="g4_47" />
<text 
x="515" 
y="252" 
dx="0,0,0,0" 
class="s3_47"
>html</text>

<text 
x="555" 
y="252" 
dx="0,0,0,0,0,0,0,0,0,-0.3,0,-0.3,0,0,0,0,-0.3,0,0,0,-0.3,0,0,0,0,-0.3,0,0,0,0" 
class="s2_47"
>element. A page can only have </text>

<text 
x="515" 
y="274" 
dx="0,0,4.7,0,0,0,0,0,0" 
class="s2_47"
>a single </text>

<path d="M589.9,268.9c0,-1.7,-0.7,-2.6,-2.1,-2.6c-1,0,-1.9,0.4,-2.7,1.3l0,-3.9l-1.2,0l0,10.6l1.2,0l0,-5.7c0.8,-0.9,1.6,-1.3,2.3,-1.3c0.5,0,0.8,0.2,1,0.5c0.3,0.3,0.4,0.8,0.4,1.5l0,5l1.1,0l0,-5.4Z" class="g4_47" />
<path d="M599,273c-0.6,0.3,-1.3,0.4,-1.9,0.4c-0.4,0,-0.6,-0.1,-0.9,-0.4c-0.2,-0.2,-0.3,-0.6,-0.3,-1.1l0,-4.4l2.7,0l0,-1l-2.7,0l0,-2.1l-1.1,0l0,2.1l-1.5,0l0,1l1.5,0l0,4.7c0,1.5,0.7,2.2,2.1,2.2c0.7,0,1.5,-0.1,2.3,-0.5L599,273Z" class="g4_47" />
<path d="M608.9,268.8c0,-1.7,-0.5,-2.5,-1.4,-2.5c-0.3,0,-0.6,0.1,-0.9,0.4c-0.3,0.2,-0.6,0.5,-0.8,1c-0.1,-0.5,-0.3,-0.8,-0.5,-1c-0.3,-0.3,-0.5,-0.4,-0.9,-0.4c-0.3,0,-0.6,0.1,-0.9,0.4c-0.3,0.2,-0.5,0.5,-0.7,1l0,-1.2l-1.2,0l0,7.8l1.2,0l0,-5.7c0,0,0.1,-0.2,0.4,-0.7c0.3,-0.4,0.6,-0.6,0.8,-0.6c0.5,0,0.7,0.6,0.7,1.9l0,5.1l1.1,0l0,-5.7c0,0,0.2,-0.2,0.5,-0.7c0.2,-0.4,0.5,-0.6,0.7,-0.6c0.5,0,0.7,0.6,0.7,1.9l0,5.1l1.2,0l0,-5.5Z" class="g4_47" />
<path d="M616.5,273.5l-2,0l0,-10l-3,0l0,1l2,0l0,10l3,0l0,-1Z" class="g4_47" />
<text 
x="582" 
y="274" 
dx="0,0,0,0" 
class="s3_47"
>html</text>

<text 
x="627" 
y="274" 
dx="0,0,0,0,0,0,0,0,0,4.7,0,0,0" 
class="s2_47"
>element. The </text>

<path d="M737.4,268.9c0,-1.7,-0.7,-2.6,-2.2,-2.6c-0.9,0,-1.8,0.4,-2.6,1.3l0,-3.9l-1.2,0l0,10.6l1.2,0l0,-5.7c0.8,-0.9,1.6,-1.3,2.3,-1.3c0.5,0,0.8,0.2,1,0.5c0.2,0.3,0.4,0.8,0.4,1.5l0,5l1.1,0l0,-5.4Z" class="g4_47" />
<path d="M746.5,273c-0.7,0.3,-1.3,0.4,-1.9,0.4c-0.4,0,-0.7,-0.1,-0.9,-0.4c-0.2,-0.2,-0.3,-0.6,-0.3,-1.1l0,-4.4l2.7,0l0,-1l-2.7,0l0,-2.1l-1.1,0l0,2.1l-1.5,0l0,1l1.5,0l0,4.7c0,1.5,0.7,2.2,2.1,2.2c0.7,0,1.5,-0.1,2.3,-0.5L746.5,273Z" class="g4_47" />
<path d="M756.4,268.8c0,-1.7,-0.5,-2.5,-1.4,-2.5c-0.3,0,-0.6,0.1,-0.9,0.4c-0.3,0.2,-0.6,0.5,-0.8,1c-0.1,-0.5,-0.3,-0.8,-0.5,-1c-0.3,-0.3,-0.6,-0.4,-0.9,-0.4c-0.3,0,-0.6,0.1,-0.9,0.4c-0.3,0.2,-0.5,0.5,-0.8,1l0,-1.2l-1.1,0l0,7.8l1.2,0l0,-5.7c0,0,0.1,-0.2,0.4,-0.7c0.3,-0.4,0.5,-0.6,0.8,-0.6c0.4,0,0.7,0.6,0.7,1.9l0,5.1l1.1,0l0,-5.7c0,0,0.2,-0.2,0.4,-0.7c0.3,-0.4,0.6,-0.6,0.8,-0.6c0.5,0,0.7,0.6,0.7,1.9l0,5.1l1.2,0l0,-5.5Z" class="g4_47" />
<path d="M764.5,273.5l-2,0l0,-10l-3,0l0,1l2,0l0,10l3,0l0,-1Z" class="g4_47" />
<text 
x="729" 
y="274" 
dx="0,0,0,0" 
class="s3_47"
>html</text>

<text 
x="515" 
y="295" 
dx="0,0,0,0,0,0,0,0,6.6,0,0,0,0,0,0,6.6,0,0,0,0,0,0,0,0,6.6,0,6.6,0,0,0,0,0,0" 
class="s2_47"
>element always contains a single </text>

<path d="M522.9,311.7c0,-1.7,-0.8,-2.6,-2.2,-2.6c-0.9,0,-1.8,0.4,-2.6,1.3l0,-3.9l-1.2,0l0,10.5l1.2,0l0,-5.6c0.8,-0.9,1.5,-1.3,2.2,-1.3c0.5,0,0.9,0.1,1.1,0.4c0.2,0.4,0.3,0.9,0.3,1.5l0,5l1.2,0l0,-5.3Z" class="g4_47" />
<path d="M532.3,312.8c0,-1.1,-0.3,-2,-0.9,-2.7c-0.6,-0.7,-1.4,-1,-2.3,-1c-1,0,-1.8,0.3,-2.4,1.1c-0.7,0.7,-1,1.7,-1,2.9c0,1.3,0.4,2.3,1.1,3c0.7,0.8,1.6,1.1,2.8,1.1c0.9,0,1.7,-0.1,2.4,-0.4l-0.2,-1c-0.8,0.3,-1.5,0.4,-2.2,0.4c-0.8,0,-1.4,-0.3,-1.9,-0.8c-0.5,-0.6,-0.8,-1.3,-0.8,-2.2l5.4,0l0,-0.4ZM527,312.2c0.1,-0.6,0.3,-1.1,0.7,-1.5c0.4,-0.4,0.9,-0.6,1.5,-0.6c0.4,0,0.9,0.2,1.2,0.6c0.4,0.4,0.6,0.9,0.6,1.5l-4,0Z" class="g4_47" />
<path d="M541.2,315.2l0,-3.3c0,-1.9,-0.9,-2.8,-2.6,-2.8c-1,0,-1.9,0.2,-3,0.8l0.3,0.8c0.3,-0.2,0.7,-0.3,1.2,-0.4c0.4,-0.2,0.8,-0.2,1.1,-0.2c1.2,0,1.8,0.6,1.8,2l0,0.4l-1.3,0.1c-0.5,0,-1.1,0.1,-1.5,0.2c-0.4,0.1,-0.8,0.3,-1.1,0.5c-0.3,0.2,-0.5,0.4,-0.6,0.7c-0.2,0.3,-0.3,0.6,-0.3,1c0,0.7,0.2,1.2,0.7,1.6c0.4,0.4,0.9,0.6,1.5,0.6c1.1,0,2,-0.5,2.7,-1.4c0,0.5,0.1,0.9,0.2,1.2l1.1,0c-0.1,-0.5,-0.2,-1.1,-0.2,-1.8Zm-2.2,0.5c-0.4,0.3,-0.8,0.4,-1.3,0.4c-0.3,0,-0.6,-0.1,-0.9,-0.3c-0.2,-0.2,-0.4,-0.5,-0.4,-0.9c0,-0.3,0.2,-0.6,0.5,-0.9c0.3,-0.2,0.6,-0.3,1,-0.4c0.4,-0.1,1.1,-0.2,2.1,-0.3l0,1.4c-0.3,0.5,-0.6,0.8,-1,1Z" class="g4_47" />
<path d="M550.4,306.5l-1.2,0l0,3.8c-0.6,-0.8,-1.4,-1.2,-2.4,-1.2c-0.9,0,-1.6,0.3,-2.1,1.1c-0.6,0.7,-0.8,1.7,-0.8,2.8c0,1.2,0.2,2.2,0.7,3c0.6,0.8,1.3,1.2,2.2,1.2c0.4,0,0.9,-0.1,1.4,-0.3c0.4,-0.3,0.7,-0.6,1,-1l0,1.1l1.2,0l0,-10.5Zm-1.6,8.7c-0.3,0.4,-0.6,0.6,-0.9,0.8c-0.3,0.1,-0.5,0.2,-0.8,0.2c-0.7,0,-1.1,-0.3,-1.5,-0.9c-0.3,-0.6,-0.5,-1.3,-0.5,-2.2c0,-0.9,0.2,-1.6,0.6,-2.2c0.3,-0.5,0.8,-0.8,1.5,-0.8c0.8,0,1.4,0.4,2,1.3l0,3.3c0,0,-0.1,0.2,-0.4,0.5Z" class="g4_47" />
<text 
x="515" 
y="317" 
dx="0,0,0,0" 
class="s3_47"
>head</text>

<text 
x="559" 
y="317" 
dx="0,0,0,0,0,0,0,0,3.2,0,0,0,0,0,0,0,0,3.2,0,0,3.2,0,3.2,0,0,0,0,0,0" 
class="s2_47"
>element followed by a single </text>

<path d="M518,327.9l-1.1,0l0,10.5l1.1,0l0,-1.1c0.3,0.4,0.6,0.7,1,1c0.5,0.2,0.9,0.3,1.4,0.3c0.9,0,1.6,-0.4,2.2,-1.2c0.5,-0.8,0.8,-1.8,0.8,-3c0,-1.2,-0.3,-2.1,-0.8,-2.8c-0.5,-0.8,-1.2,-1.1,-2.1,-1.1c-0.5,0,-1,0.1,-1.4,0.3c-0.4,0.2,-0.8,0.5,-1.1,0.9l0,-3.8Zm2.1,3.6c0.7,0,1.2,0.2,1.5,0.8c0.4,0.6,0.5,1.3,0.5,2.2c0,0.9,-0.1,1.6,-0.5,2.2c-0.4,0.6,-0.9,0.9,-1.5,0.9c-0.4,0,-0.8,-0.2,-1.2,-0.5c-0.3,-0.3,-0.6,-0.6,-0.9,-1.1l0,-3.2c0.6,-0.9,1.3,-1.3,2.1,-1.3Z" class="g4_47" />
<path d="M526.5,331.6c-0.7,0.7,-1,1.7,-1,2.9c0,1.3,0.3,2.3,1,3c0.6,0.7,1.5,1.1,2.5,1.1c1.1,0,1.9,-0.4,2.6,-1.1c0.6,-0.8,0.9,-1.7,0.9,-3c0,-1.2,-0.3,-2.2,-0.9,-2.9c-0.7,-0.8,-1.5,-1.1,-2.6,-1.1c-1,0,-1.9,0.3,-2.5,1.1Zm0.9,5.1c-0.4,-0.6,-0.6,-1.3,-0.6,-2.2c0,-0.9,0.2,-1.6,0.6,-2.2c0.4,-0.5,0.9,-0.8,1.6,-0.8c0.7,0,1.3,0.3,1.7,0.8c0.4,0.6,0.6,1.3,0.6,2.2c0,0.9,-0.2,1.6,-0.6,2.2c-0.4,0.6,-1,0.9,-1.7,0.9c-0.7,0,-1.2,-0.3,-1.6,-0.9Z" class="g4_47" />
<path d="M541.2,327.9l-1.2,0l0,3.8c-0.6,-0.8,-1.4,-1.2,-2.3,-1.2c-0.9,0,-1.7,0.3,-2.2,1.1c-0.5,0.7,-0.8,1.7,-0.8,2.8c0,1.2,0.3,2.2,0.8,3c0.5,0.8,1.2,1.2,2.1,1.2c0.5,0,0.9,-0.1,1.4,-0.4c0.4,-0.2,0.8,-0.5,1,-0.9l0,1.1l1.2,0l0,-10.5Zm-1.6,8.7c-0.2,0.3,-0.5,0.6,-0.8,0.7c-0.3,0.2,-0.6,0.3,-0.9,0.3c-0.6,0,-1.1,-0.3,-1.5,-0.9c-0.3,-0.6,-0.5,-1.3,-0.5,-2.2c0,-0.9,0.2,-1.6,0.6,-2.2c0.4,-0.5,0.9,-0.8,1.5,-0.8c0.8,0,1.5,0.4,2,1.3l0,3.2c0,0.1,-0.1,0.3,-0.4,0.6Z" class="g4_47" />
<path d="M549.5,330.6l-2.2,6.2l-2.2,-6.2l-1.3,0l2.9,7.8c-0.3,0.7,-0.5,1.3,-0.8,1.6c-0.3,0.3,-0.6,0.5,-1,0.5c-0.3,0,-0.7,-0.1,-1,-0.2l-0.2,0.9c0.4,0.2,0.9,0.3,1.4,0.3c0.5,0,1,-0.2,1.4,-0.7c0.4,-0.4,0.9,-1.2,1.3,-2.4l2.9,-7.8l-1.2,0Z" class="g4_47" />
<text 
x="515" 
y="338" 
dx="0,0,0,0" 
class="s3_47"
>body</text>

<text 
x="555" 
y="338" 
dx="0,0,0,0,0,0,0,0" 
class="s2_47"
>element.</text>

<path d="M1259.9,230.3c-0.7,0.2,-1.4,0.4,-2.1,0.4c-0.8,0,-1.5,-0.3,-2,-0.9c-0.5,-0.6,-0.8,-1.3,-0.8,-2.2c0,-0.9,0.3,-1.7,0.8,-2.2c0.5,-0.6,1.2,-0.9,2,-0.9c0.6,0,1.2,0.1,1.9,0.4l0.3,-1c-0.7,-0.2,-1.4,-0.4,-2.2,-0.4c-1.2,0,-2.1,0.4,-2.9,1.1c-0.7,0.8,-1.1,1.8,-1.1,3c0,1.2,0.4,2.2,1.1,3c0.7,0.7,1.7,1.1,2.9,1.1c0.9,0,1.6,-0.2,2.3,-0.5l-0.2,-0.9Z" class="g4_47" />
<path d="M1268.5,230.5l-2,0l0,-10l-3,0l0,1l2,0l0,10l3,0l0,-1Z" class="g4_47" />
<path d="M1278.4,229.7l0,-3.4c0,-1.8,-0.8,-2.8,-2.6,-2.8c-0.9,0,-1.9,0.3,-3,0.8l0.3,0.9c0.4,-0.2,0.7,-0.4,1.2,-0.5c0.4,-0.1,0.8,-0.2,1.1,-0.2c1.3,0,1.9,0.7,1.9,2l0,0.4L1276,227c-0.6,0,-1.1,0.1,-1.5,0.2c-0.5,0.2,-0.8,0.3,-1.1,0.5c-0.3,0.2,-0.6,0.5,-0.7,0.8c-0.2,0.3,-0.2,0.6,-0.2,1c0,0.6,0.2,1.2,0.6,1.6c0.5,0.4,1,0.6,1.5,0.6c1.2,0,2.1,-0.5,2.7,-1.5c0,0.5,0.1,1,0.2,1.3l1.1,0c-0.1,-0.6,-0.2,-1.2,-0.2,-1.8Zm-2.2,0.5c-0.4,0.2,-0.8,0.4,-1.2,0.4c-0.4,0,-0.7,-0.1,-1,-0.4c-0.2,-0.2,-0.3,-0.5,-0.3,-0.8c0,-0.4,0.1,-0.7,0.4,-0.9c0.3,-0.2,0.6,-0.4,1,-0.5c0.4,-0.1,1.1,-0.1,2.2,-0.2l0,1.4c-0.3,0.4,-0.7,0.7,-1.1,1Z" class="g4_47" />
<path d="M1287.1,223.8c-0.8,-0.2,-1.5,-0.3,-2.1,-0.3c-1,0,-1.8,0.2,-2.4,0.6c-0.6,0.4,-0.8,0.9,-0.8,1.6c0,0.3,0,0.6,0.1,0.8c0.2,0.3,0.4,0.5,0.6,0.7c0.2,0.2,0.5,0.3,0.8,0.4c0.3,0.1,0.7,0.2,1.3,0.4c0.8,0.2,1.2,0.4,1.4,0.7c0.2,0.2,0.3,0.4,0.3,0.7c0,0.4,-0.2,0.7,-0.6,0.9c-0.4,0.3,-0.9,0.4,-1.5,0.4c-0.8,0,-1.5,-0.2,-2.1,-0.5l-0.3,1c0.7,0.3,1.4,0.5,2.4,0.5c1,0,1.8,-0.2,2.4,-0.7c0.6,-0.4,0.9,-1,0.9,-1.7c0,-0.4,-0.1,-0.7,-0.2,-1c-0.2,-0.3,-0.4,-0.6,-0.8,-0.8c-0.3,-0.2,-0.7,-0.3,-1.2,-0.5l-1.1,-0.3c-0.5,-0.1,-0.9,-0.3,-1,-0.5c-0.2,-0.1,-0.3,-0.3,-0.3,-0.5c0,-0.4,0.2,-0.7,0.6,-0.9c0.3,-0.2,0.8,-0.3,1.5,-0.3c0.5,0,1.1,0.1,1.8,0.3l0.3,-1Z" class="g4_47" />
<path d="M1296.2,223.8c-0.7,-0.2,-1.4,-0.3,-2.1,-0.3c-0.9,0,-1.7,0.2,-2.3,0.6c-0.6,0.4,-0.9,0.9,-0.9,1.6c0,0.3,0.1,0.6,0.2,0.8c0.1,0.3,0.3,0.5,0.6,0.7c0.2,0.2,0.5,0.3,0.8,0.4c0.2,0.1,0.7,0.2,1.3,0.4c0.7,0.2,1.2,0.4,1.4,0.7c0.2,0.2,0.3,0.4,0.3,0.7c0,0.4,-0.2,0.7,-0.6,0.9c-0.4,0.3,-0.9,0.4,-1.6,0.4c-0.7,0,-1.4,-0.2,-2.1,-0.5l-0.2,1c0.6,0.3,1.4,0.5,2.4,0.5c0.9,0,1.7,-0.2,2.3,-0.7c0.7,-0.4,1,-1,1,-1.7c0,-0.4,-0.1,-0.7,-0.3,-1c-0.1,-0.3,-0.4,-0.6,-0.7,-0.8c-0.3,-0.2,-0.7,-0.3,-1.2,-0.5l-1.2,-0.3c-0.5,-0.1,-0.8,-0.3,-1,-0.5c-0.1,-0.1,-0.2,-0.3,-0.2,-0.5c0,-0.4,0.2,-0.7,0.5,-0.9c0.4,-0.2,0.9,-0.3,1.5,-0.3c0.6,0,1.2,0.1,1.9,0.3l0.2,-1Z" class="g4_47" />
<text 
x="1252" 
y="231" 
dx="0,0,0,0,0" 
class="s3_47"
>class</text>

<text 
x="1338" 
y="231" 
dx="0,0,0,0,9.3,0,0,0,0,0,0,0,9.3,0,0,0,9.3,0,0,0,0,9.3,0,9.3,0,0,0,0,0" 
class="s2_47"
>Any element can have a class </text>

<text 
x="1338" 
y="252" 
dx="0,0,0,0,0,0,0,0,0,0,0,3.6,0,0,0,3.6,0,0,0,0,0,3.6,0,0,0,0,0,0,0,0,0,3.6,0,0,0,0,0,0" 
class="s2_47"
>attribute. The class attribute allows </text>

<text 
x="1338" 
y="274" 
dx="0,0,0,0,0.6,0,0,0.5,0,0,0,0,0.6,0,0,0,0.6,0,0,0,0,0,0,0,0,0.5,0,0,0,0,0,0.5,0,0,0,0" 
class="s2_47"
>you to pick out elements which have </text>

<text 
x="1338" 
y="295" 
dx="0,0,-0.8,0,0,0,0,0,0,0,-0.8,0,0,0,0,0,0,0,-0.8,0,0,0,-0.8,0,0,0.3,0,0,0,-0.8,0,0,0,0,-0.8,0,0" 
class="s2_47"
>a special purpose and format them in </text>

<text 
x="1338" 
y="317" 
dx="0,0,-0.9,0,0,0,0,0,0,0,0,0,0,0,-0.9,0,0,0,-0.9,0,0,-0.9,0,0,0,0,-0.9,0,0,0" 
class="s2_47"
>a distinctive way in your CSS.</text>

<path d="M55,287.8l-1.2,0l0,10.6l1.2,0l0,-1.2c0.2,0.4,0.6,0.8,1,1c0.4,0.2,0.9,0.4,1.3,0.4c0.9,0,1.7,-0.4,2.2,-1.2c0.5,-0.8,0.8,-1.8,0.8,-3c0,-1.2,-0.3,-2.2,-0.8,-2.9c-0.5,-0.7,-1.2,-1.1,-2.1,-1.1c-0.5,0,-0.9,0.1,-1.4,0.3c-0.4,0.3,-0.8,0.5,-1,0.9l0,-3.8Zm2.1,3.6c0.6,0,1.1,0.3,1.5,0.8c0.3,0.6,0.5,1.3,0.5,2.2c0,0.9,-0.2,1.6,-0.6,2.2c-0.3,0.6,-0.8,0.9,-1.5,0.9c-0.4,0,-0.8,-0.1,-1.1,-0.4C55.5,296.8,55.2,296.4,55,296l0,-3.2c0.6,-0.9,1.3,-1.4,2.1,-1.4Z" class="g4_47" />
<path d="M63.4,291.5c-0.6,0.8,-0.9,1.7,-0.9,3c0,1.2,0.3,2.2,0.9,2.9c0.6,0.8,1.5,1.2,2.6,1.2c1,0,1.9,-0.4,2.5,-1.2c0.7,-0.7,1,-1.7,1,-2.9c0,-1.2,-0.3,-2.2,-1,-3C67.9,290.8,67,290.4,66,290.4c-1.1,0,-2,0.4,-2.6,1.1Zm0.9,5.2c-0.4,-0.6,-0.6,-1.4,-0.6,-2.2c0,-0.9,0.2,-1.7,0.6,-2.2c0.4,-0.6,0.9,-0.9,1.7,-0.9c0.7,0,1.2,0.3,1.6,0.9c0.5,0.6,0.7,1.3,0.7,2.2c0,0.8,-0.3,1.6,-0.7,2.2c-0.4,0.6,-0.9,0.9,-1.6,0.9c-0.7,0,-1.3,-0.3,-1.7,-0.9Z" class="g4_47" />
<path d="M78.1,287.8l-1.1,0l0,3.8c-0.6,-0.8,-1.4,-1.2,-2.4,-1.2c-0.9,0,-1.6,0.4,-2.2,1.1c-0.5,0.8,-0.8,1.7,-0.8,2.9c0,1.2,0.3,2.2,0.8,3c0.5,0.8,1.2,1.2,2.1,1.2c0.5,0,1,-0.2,1.4,-0.4c0.5,-0.3,0.8,-0.6,1.1,-1l0,1.2l1.1,0l0,-10.6Zm-1.5,8.8c-0.3,0.3,-0.6,0.5,-0.9,0.7c-0.3,0.1,-0.6,0.2,-0.9,0.2c-0.6,0,-1.1,-0.3,-1.4,-0.9c-0.4,-0.5,-0.5,-1.3,-0.5,-2.2c0,-0.8,0.1,-1.6,0.5,-2.1c0.4,-0.6,0.9,-0.9,1.5,-0.9c0.8,0,1.5,0.5,2.1,1.4l0,3.2c0,0.1,-0.2,0.2,-0.4,0.6Z" class="g4_47" />
<path d="M86.4,290.6l-2.2,6.2L82,290.6l-1.3,0l2.9,7.7c-0.2,0.8,-0.5,1.3,-0.8,1.6c-0.2,0.4,-0.6,0.5,-1,0.5c-0.3,0,-0.6,0,-1,-0.2l-0.2,1c0.5,0.2,0.9,0.2,1.4,0.2c0.6,0,1,-0.2,1.5,-0.6c0.4,-0.5,0.8,-1.3,1.2,-2.4l3,-7.8l-1.3,0Z" class="g4_47" />
<text 
x="52" 
y="298" 
dx="0,0,0,0" 
class="s3_47"
>body</text>

<text 
x="137" 
y="298" 
dx="0,0,0,0,2.6,0,0,0.3,0,2.6,0,0,2.6,0,2.6,0,0,0,2.6,0,0,0,0,2.6,0,0,0,0,0,2.6,0,0,0" 
class="s2_47"
>The part of a web page which you </text>

<text 
x="137" 
y="320" 
dx="0,0,0,0,-0.9,0,0,0,-0.9,0,0,-0.9,0,0,0,-0.9,0,-0.3,0,0,0,0,-1.4" 
class="s2_47"
>can see in the browser.</text>

<path d="M877.3,311.1c-0.7,0.7,-1,1.7,-1,2.9c0,1.3,0.3,2.3,1,3c0.6,0.8,1.4,1.1,2.5,1.1c1.1,0,1.9,-0.3,2.6,-1.1c0.6,-0.7,0.9,-1.7,0.9,-3c0,-1.2,-0.3,-2.2,-0.9,-2.9c-0.7,-0.7,-1.5,-1.1,-2.6,-1.1c-1.1,0,-1.9,0.4,-2.5,1.1Zm0.8,5.1c-0.4,-0.5,-0.6,-1.3,-0.6,-2.1c0,-0.9,0.2,-1.7,0.6,-2.3c0.4,-0.5,1,-0.8,1.7,-0.8c0.7,0,1.3,0.3,1.7,0.9c0.4,0.5,0.6,1.3,0.6,2.2c0,0.8,-0.2,1.5,-0.6,2.1c-0.4,0.6,-1,0.9,-1.7,0.9c-0.7,0,-1.3,-0.3,-1.7,-0.9Z" class="g4_47" />
<path d="M891.5,316.5l-2,0l0,-9l-3,0l0,1l2,0l0,9l3,0l0,-1Z" class="g4_47" />
<text 
x="875" 
y="317" 
dx="0,0" 
class="s3_47"
>ol</text>

<text 
x="960" 
y="317" 
dx="0,0,0,8.5,0,-0.3,0,0,-0.3,0,0,8.5,0,0,0,0,0,8.5,0,0,0,0,8.5,0,0,8.5,0,-0.3,0,0,0,0" 
class="s2_47"
>An ordered list. Used to create </text>

<text 
x="960" 
y="339" 
dx="0,0,0,0,0,0,-0.3,0,0,3.7,0,0,0,0,0,0,3.7,0,0,0,0,3.7,0,0,0,0,0,0,0,0,0,0,3.7,0,0,0,0" 
class="s2_47"
>numbered lists. Each individual list </text>

<text 
x="960" 
y="360" 
dx="0,0,0,0,0,-0.9,0,0,0,0,0,0,-0.9,0,0,-0.9,0,0,0,0,0,0,-0.9,0,0" 
class="s2_47"
>item should be inside an </text>

<path d="M1135.5,359.5l-2,0l0,-9l-4,0l0,1l2,0l0,9l4,0l0,-1Z" class="g4_47" />
<path d="M1141.9,350.2c-0.2,0.2,-0.3,0.4,-0.3,0.6c0,0.2,0.1,0.4,0.3,0.6c0.1,0.1,0.3,0.2,0.5,0.2c0.2,0,0.4,-0.1,0.6,-0.2c0.1,-0.2,0.2,-0.4,0.2,-0.6c0,-0.2,-0.1,-0.4,-0.2,-0.6c-0.2,-0.1,-0.4,-0.2,-0.6,-0.2c-0.2,0,-0.4,0.1,-0.5,0.2Zm1.1,2.7l-3.5,0l0,1.1l2.3,0l0,6.7l1.2,0l0,-7.8Z" class="g4_47" />
<text 
x="1128" 
y="360" 
dx="0,0" 
class="s3_47"
>li</text>

<text 
x="1149" 
y="360" 
dx="0,0,0,0,0,0,0,0" 
class="s2_47"
>element.</text>

<path d="M60,671c0,-1.7,-0.7,-2.6,-2.2,-2.6c-0.9,0,-1.8,0.4,-2.6,1.3l0,-3.9l-1.2,0l0,10.6l1.2,0l0,-5.7c0.8,-0.8,1.5,-1.3,2.3,-1.3c0.4,0,0.8,0.2,1,0.5c0.2,0.3,0.3,0.8,0.3,1.5l0,5l1.2,0L60,671Z" class="g4_47" />
<path d="M69.4,672.1c0,-1.1,-0.3,-2,-0.9,-2.7c-0.6,-0.7,-1.4,-1,-2.3,-1c-1,0,-1.8,0.4,-2.4,1.1c-0.6,0.7,-1,1.7,-1,3c0,1.2,0.4,2.2,1.1,3c0.7,0.7,1.6,1.1,2.8,1.1c0.9,0,1.7,-0.2,2.4,-0.5l-0.2,-0.9c-0.8,0.2,-1.5,0.4,-2.2,0.4c-0.7,0,-1.4,-0.3,-1.9,-0.9c-0.5,-0.6,-0.7,-1.3,-0.7,-2.2l5.3,0l0,-0.4Zm-5.3,-0.5c0.1,-0.7,0.3,-1.2,0.7,-1.6c0.4,-0.4,0.9,-0.6,1.5,-0.6c0.5,0,0.9,0.2,1.3,0.6c0.3,0.4,0.5,1,0.5,1.6l-4,0Z" class="g4_47" />
<path d="M78.3,674.6l0,-3.4c0,-1.9,-0.9,-2.8,-2.6,-2.8c-0.9,0,-1.9,0.3,-3,0.8l0.3,0.9c0.4,-0.2,0.7,-0.4,1.2,-0.5c0.4,-0.1,0.8,-0.2,1.1,-0.2c1.2,0,1.9,0.7,1.9,2l0,0.4l-1.3,0.1c-0.6,0,-1.1,0.1,-1.6,0.2c-0.4,0.1,-0.7,0.3,-1,0.5c-0.3,0.2,-0.6,0.5,-0.7,0.7c-0.2,0.3,-0.3,0.7,-0.3,1.1c0,0.6,0.3,1.1,0.7,1.5c0.4,0.5,1,0.7,1.5,0.7c1.2,0,2.1,-0.5,2.7,-1.5c0,0.5,0.1,1,0.2,1.3l1.1,0c-0.1,-0.6,-0.2,-1.2,-0.2,-1.8Zm-2.2,0.5c-0.4,0.2,-0.8,0.3,-1.2,0.3c-0.4,0,-0.7,-0.1,-1,-0.3c-0.2,-0.2,-0.3,-0.5,-0.3,-0.8c0,-0.4,0.1,-0.7,0.4,-0.9c0.3,-0.3,0.6,-0.4,1,-0.5c0.4,-0.1,1.1,-0.2,2.2,-0.3l0,1.5c-0.3,0.4,-0.7,0.7,-1.1,1Z" class="g4_47" />
<path d="M87.5,665.8l-1.2,0l0,3.8c-0.6,-0.8,-1.4,-1.2,-2.4,-1.2c-0.8,0,-1.6,0.4,-2.1,1.1c-0.5,0.8,-0.8,1.7,-0.8,2.9c0,1.2,0.2,2.2,0.8,3c0.5,0.8,1.2,1.2,2.1,1.2c0.5,0,0.9,-0.2,1.4,-0.4c0.4,-0.3,0.8,-0.6,1,-1l0,1.2l1.2,0l0,-10.6Zm-1.6,8.8c-0.3,0.3,-0.5,0.5,-0.8,0.7c-0.3,0.1,-0.6,0.2,-0.9,0.2c-0.6,0,-1.1,-0.3,-1.5,-0.9c-0.3,-0.5,-0.5,-1.3,-0.5,-2.2c0,-0.8,0.2,-1.6,0.6,-2.1c0.3,-0.6,0.9,-0.9,1.5,-0.9c0.8,0,1.5,0.5,2,1.4l0,3.2c0,0.1,-0.1,0.2,-0.4,0.6Z" class="g4_47" />
<text 
x="52" 
y="676" 
dx="0,0,0,0" 
class="s3_47"
>head</text>

<text 
x="138" 
y="676" 
dx="0,0,0,0,0,0,0,0,0" 
class="s2_47"
>Contains </text>

<text 
x="216" 
y="676" 
dx="0,0,0,0,0,0.3,0,0,0,0,0,0" 
class="s2_47"
>information </text>

<text 
x="310" 
y="676" 
dx="0,0,0,0,0,0" 
class="s2_47"
>which </text>

<text 
x="368" 
y="676" 
dx="0,0,0,0" 
class="s2_47"
>the </text>

<text 
x="138" 
y="697" 
dx="0,0,-0.3,0,0,0,0,0,0.7,0,0,0,0,0.7,0,0,0,0,0.7,0,0,0,0,0,0,0,0.7,0,0,0,0.7,0,0,0" 
class="s2_47"
>browser uses when working out how </text>

<text 
x="138" 
y="719" 
dx="0,0,0,0,-0.9,0,0,0,0,-0.9,0,0,0,0,0,0,-0.9,0,0,-0.9,0,0,0,0,0,0,0,0,0" 
class="s2_47"
>the page should be displayed.</text>

<path d="M1257.1,501.5c-0.2,0.2,-0.3,0.3,-0.3,0.6c0,0.2,0.1,0.4,0.3,0.5c0.1,0.2,0.3,0.3,0.5,0.3c0.2,0,0.4,-0.1,0.6,-0.3c0.1,-0.1,0.2,-0.3,0.2,-0.5c0,-0.3,-0.1,-0.4,-0.2,-0.6c-0.2,-0.2,-0.4,-0.2,-0.6,-0.2c-0.2,0,-0.4,0,-0.5,0.2Zm1.1,2.7l-3.5,0l0,1l2.3,0l0,6.8l1.2,0l0,-7.8Z" class="g4_47" />
<path d="M1269.2,501.5l-1.1,0l0,3.7c-0.6,-0.8,-1.4,-1.2,-2.4,-1.2c-0.9,0,-1.6,0.4,-2.1,1.1c-0.6,0.8,-0.8,1.7,-0.8,2.9c0,1.2,0.2,2.2,0.7,3c0.6,0.8,1.3,1.2,2.1,1.2c0.5,0,1,-0.1,1.5,-0.4c0.4,-0.2,0.7,-0.6,1,-0.9l0,1.1l1.1,0l0,-10.5Zm-1.5,8.7c-0.3,0.3,-0.6,0.5,-0.9,0.7c-0.3,0.2,-0.6,0.2,-0.8,0.2c-0.7,0,-1.1,-0.3,-1.5,-0.8c-0.3,-0.6,-0.5,-1.4,-0.5,-2.3c0,-0.8,0.2,-1.6,0.5,-2.1c0.4,-0.6,0.9,-0.9,1.6,-0.9c0.8,0,1.4,0.5,2,1.4l0,3.2c0,0.1,-0.1,0.3,-0.4,0.6Z" class="g4_47" />
<text 
x="1252" 
y="511" 
dx="0,0" 
class="s3_47"
>id</text>

<text 
x="1338" 
y="511" 
dx="0,0" 
class="s2_47"
>A </text>

<text 
x="1368" 
y="511" 
dx="0,0,0,0,0,0,0" 
class="s2_47"
>unique </text>

<text 
x="1435" 
y="511" 
dx="0,0,0,0,0,0,0,0,0,0,0,0,0,0,0" 
class="s2_47"
>identification </text>

<text 
x="1542" 
y="511" 
dx="0,0,0,0" 
class="s2_47"
>for </text>

<text 
x="1580" 
y="511" 
dx="0,0" 
class="s2_47"
>a </text>

<text 
x="1338" 
y="533" 
dx="0,0,0,0.3,0,0,0,0,0,0,0,4.4,0,0,0,0,0,0,0,0,4.4,0,4.4,0,0,0.3,0,0,0,0,0,0,0" 
class="s2_47"
>particular element. A particular </text>

<path d="M1575.6,522.9c-0.2,0.2,-0.3,0.3,-0.3,0.6c0,0.2,0.1,0.4,0.3,0.5c0.1,0.2,0.3,0.3,0.5,0.3c0.2,0,0.4,-0.1,0.6,-0.3c0.1,-0.1,0.2,-0.3,0.2,-0.5c0,-0.3,-0.1,-0.5,-0.2,-0.6c-0.2,-0.2,-0.4,-0.2,-0.6,-0.2c-0.2,0,-0.4,0,-0.5,0.2Zm1.1,2.7l-3.5,0l0,1l2.3,0l0,6.8l1.2,0l0,-7.8Z" class="g4_47" />
<path d="M1587.8,522.8l-1.2,0l0,3.8c-0.6,-0.8,-1.4,-1.2,-2.4,-1.2c-0.9,0,-1.6,0.4,-2.1,1.1c-0.5,0.8,-0.8,1.7,-0.8,2.9c0,1.2,0.2,2.2,0.8,3c0.5,0.8,1.2,1.2,2.1,1.2c0.5,0,0.9,-0.2,1.4,-0.4c0.4,-0.3,0.8,-0.6,1,-1l0,1.2l1.2,0l0,-10.6Zm-1.6,8.8c-0.3,0.3,-0.5,0.5,-0.8,0.7c-0.3,0.1,-0.6,0.2,-0.9,0.2c-0.6,0,-1.1,-0.3,-1.5,-0.9c-0.3,-0.5,-0.5,-1.3,-0.5,-2.2c0,-0.8,0.2,-1.6,0.6,-2.1c0.3,-0.6,0.8,-0.9,1.5,-0.9c0.8,0,1.4,0.5,2,1.4l0,3.2c0,0.1,-0.1,0.2,-0.4,0.6Z" class="g4_47" />
<text 
x="1571" 
y="533" 
dx="0,0" 
class="s3_47"
>id</text>

<text 
x="1338" 
y="554" 
dx="0,0,0,0,0,0,4.9,0,0,0,0,4.9,0,0,0,0,4.9,0,0,0,0,0,4.9,0,0,0,0,4.9,0,0,4.9,0" 
class="s2_47"
>value must only occur once on a </text>

<text 
x="1338" 
y="576" 
dx="0,0,0,0,0" 
class="s2_47"
>page.</text>

<path d="M1259.6,612.8c-0.8,-0.2,-1.5,-0.3,-2.1,-0.3c-1,0,-1.8,0.2,-2.4,0.5c-0.6,0.4,-0.8,1,-0.8,1.6c0,0.4,0,0.6,0.1,0.9c0.2,0.2,0.4,0.4,0.6,0.6c0.2,0.2,0.5,0.3,0.8,0.4c0.3,0.1,0.7,0.3,1.3,0.4c0.8,0.3,1.2,0.5,1.4,0.7c0.2,0.2,0.3,0.5,0.3,0.7c0,0.4,-0.2,0.7,-0.6,1c-0.4,0.2,-0.9,0.3,-1.5,0.3c-0.8,0,-1.5,-0.1,-2.1,-0.4l-0.3,1c0.7,0.3,1.4,0.4,2.4,0.4c1,0,1.7,-0.2,2.4,-0.6c0.6,-0.5,0.9,-1,0.9,-1.8c0,-0.4,-0.1,-0.7,-0.2,-1c-0.2,-0.3,-0.4,-0.5,-0.8,-0.7c-0.3,-0.2,-0.7,-0.4,-1.2,-0.5l-1.1,-0.3c-0.5,-0.2,-0.9,-0.3,-1,-0.5c-0.2,-0.2,-0.3,-0.4,-0.3,-0.6c0,-0.4,0.2,-0.6,0.6,-0.8c0.3,-0.3,0.8,-0.4,1.5,-0.4c0.5,0,1.1,0.1,1.8,0.4l0.3,-1Z" class="g4_47" />
<path d="M1267.7,612.5c-1,0,-1.8,0.5,-2.4,1.7l0,-1.6l-1.2,0l0,7.8l1.2,0l0,-5c0,-0.1,0.1,-0.3,0.4,-0.6c0.3,-0.4,0.6,-0.7,0.9,-0.9c0.3,-0.2,0.7,-0.3,1,-0.3c0.4,0,0.8,0.1,1.3,0.4l0.5,-1.1c-0.6,-0.3,-1.1,-0.4,-1.7,-0.4Z" class="g4_47" />
<path d="M1278.2,619.2c-0.7,0.3,-1.4,0.4,-2,0.4c-0.8,0,-1.5,-0.3,-2,-0.9c-0.6,-0.6,-0.8,-1.3,-0.8,-2.2c0,-0.9,0.2,-1.7,0.7,-2.2c0.5,-0.6,1.2,-0.8,2.1,-0.8c0.5,0,1.2,0.1,1.9,0.3l0.3,-0.9c-0.7,-0.3,-1.5,-0.4,-2.2,-0.4c-1.2,0,-2.2,0.3,-2.9,1.1c-0.8,0.7,-1.1,1.7,-1.1,2.9c0,1.3,0.3,2.3,1.1,3c0.7,0.7,1.7,1.1,2.9,1.1c0.8,0,1.5,-0.1,2.2,-0.4l-0.2,-1Z" class="g4_47" />
<text 
x="1252" 
y="620" 
dx="0,0,0" 
class="s3_47"
>src</text>

<text 
x="1338" 
y="620" 
dx="0,0,0,0,0,7.7,0,0,0,0,0,0,7.7,0,0,0" 
class="s2_47"
>Used within the </text>

<path d="M1475.4,609.9c-0.2,0.2,-0.2,0.4,-0.2,0.6c0,0.2,0,0.4,0.2,0.6c0.1,0.1,0.3,0.2,0.5,0.2c0.3,0,0.4,-0.1,0.6,-0.2c0.1,-0.2,0.2,-0.4,0.2,-0.6c0,-0.2,-0.1,-0.4,-0.2,-0.6c-0.2,-0.1,-0.4,-0.2,-0.6,-0.2c-0.2,0,-0.4,0.1,-0.5,0.2Zm1.1,2.7l-3.5,0l0,1.1l2.3,0l0,6.7l1.2,0l0,-7.8Z" class="g4_47" />
<path d="M1488.2,615c0,-1.7,-0.5,-2.5,-1.4,-2.5c-0.3,0,-0.6,0.1,-0.9,0.3c-0.3,0.3,-0.6,0.6,-0.8,1c-0.1,-0.4,-0.2,-0.7,-0.5,-1c-0.2,-0.2,-0.5,-0.3,-0.8,-0.3c-0.3,0,-0.6,0.1,-0.9,0.3c-0.3,0.3,-0.6,0.6,-0.8,1l0,-1.2l-1.1,0l0,7.8l1.1,0l0,-5.6c0,0,0.2,-0.3,0.5,-0.7c0.2,-0.4,0.5,-0.6,0.7,-0.6c0.5,0,0.7,0.6,0.7,1.8l0,5.1l1.2,0l0,-5.6c0,0,0.1,-0.3,0.4,-0.7c0.3,-0.4,0.5,-0.6,0.8,-0.6c0.4,0,0.7,0.6,0.7,1.8l0,5.1l1.1,0l0,-5.4Z" class="g4_47" />
<path d="M1493.4,617.5c0.8,0,1.4,-0.2,1.9,-0.7c0.5,-0.5,0.7,-1.1,0.7,-1.8c0,-0.6,-0.1,-1,-0.3,-1.4l1.5,0l0,-1.1l-2.4,0.3c-0.4,-0.2,-0.9,-0.3,-1.4,-0.3c-0.8,0,-1.4,0.2,-1.9,0.7c-0.5,0.4,-0.7,1,-0.7,1.8c0,0.4,0.1,0.9,0.3,1.3c0.2,0.4,0.6,0.7,1,0.9c-0.9,0.5,-1.4,1,-1.4,1.6c0,0.4,0.4,0.8,1.1,1.2c-0.9,0.4,-1.3,0.9,-1.3,1.6c0,0.5,0.3,1,0.8,1.3c0.6,0.4,1.3,0.6,2.1,0.6c1.1,0,2,-0.3,2.8,-0.8c0.8,-0.5,1.2,-1.2,1.2,-2.1c0,-0.6,-0.2,-1,-0.5,-1.3c-0.4,-0.3,-0.9,-0.4,-1.5,-0.4l-2.6,0c-0.3,0,-0.5,0,-0.7,-0.1c-0.2,-0.1,-0.2,-0.2,-0.2,-0.4c0,-0.3,0.3,-0.6,1,-0.9c0.2,0,0.3,0,0.5,0Zm-1,-1.4c-0.3,-0.3,-0.5,-0.6,-0.5,-1.1c0,-0.5,0.2,-0.9,0.5,-1.2c0.2,-0.3,0.6,-0.4,1,-0.4c0.4,0,0.8,0.1,1.1,0.4c0.2,0.3,0.3,0.7,0.3,1.2c0,0.5,-0.1,0.9,-0.4,1.2c-0.2,0.2,-0.6,0.4,-1,0.4c-0.4,0,-0.8,-0.2,-1,-0.5Zm-0.3,6.2c-0.3,-0.3,-0.5,-0.5,-0.5,-0.8c0,-0.2,0.1,-0.4,0.2,-0.6c0.1,-0.2,0.3,-0.3,0.5,-0.5c0.2,-0.2,0.4,-0.3,0.5,-0.3c0.2,0,0.6,0,0.9,0c0.7,0,1.1,-0.1,1.4,-0.1c0.7,0,1.1,0.3,1.1,0.8c0,0.5,-0.3,0.9,-0.8,1.3c-0.5,0.3,-1.2,0.5,-2,0.5c-0.5,0,-1,-0.1,-1.3,-0.3Z" class="g4_47" />
<text 
x="1470" 
y="620" 
dx="0,0,0" 
class="s3_47"
>img</text>

<text 
x="1510" 
y="620" 
dx="0,0,0,0,0,0,0,0,7.7,0,0" 
class="s2_47"
>element to </text>

<text 
x="1338" 
y="641" 
dx="0,0,0,0,0,0,0,0,0,1.6,0,0,0,1.6,0,0,0,-0.3,0,0,1.6,0,0,1.6,0,0,0,1.6,0,0,0,0,0,1.6,0,0,0,0" 
class="s2_47"
>identify the source of the image (for </text>

<text 
x="1338" 
y="663" 
dx="0,0,0,0,0,0,0,0,0" 
class="s2_47"
>example, </text>

<path d="M1428.7,652.7c-0.1,0.2,-0.2,0.4,-0.2,0.6c0,0.2,0.1,0.4,0.2,0.5c0.2,0.2,0.4,0.3,0.6,0.3c0.2,0,0.4,-0.1,0.5,-0.2c0.2,-0.2,0.3,-0.4,0.3,-0.6c0,-0.2,-0.1,-0.4,-0.3,-0.6c-0.1,-0.1,-0.3,-0.2,-0.5,-0.2c-0.2,0,-0.4,0.1,-0.6,0.2Zm1.1,2.7l-3.4,0l0,1l2.3,0l0,6.8l1.1,0l0,-7.8Z" class="g4_47" />
<path d="M1441.6,657.8c0,-1.7,-0.5,-2.6,-1.5,-2.6c-0.3,0,-0.6,0.2,-0.9,0.4c-0.3,0.2,-0.5,0.6,-0.7,1c-0.1,-0.4,-0.3,-0.8,-0.6,-1c-0.2,-0.2,-0.5,-0.4,-0.8,-0.4c-0.3,0,-0.6,0.2,-0.9,0.4c-0.3,0.2,-0.6,0.6,-0.8,1l0,-1.2l-1.1,0l0,7.8l1.2,0l0,-5.6c0,-0.1,0.1,-0.3,0.4,-0.7c0.3,-0.4,0.5,-0.7,0.8,-0.7c0.4,0,0.7,0.7,0.7,1.9l0,5.1l1.1,0l0,-5.6c0,-0.1,0.1,-0.3,0.4,-0.7c0.3,-0.4,0.6,-0.7,0.8,-0.7c0.5,0,0.7,0.7,0.7,1.9l0,5.1l1.2,0l0,-5.4Z" class="g4_47" />
<path d="M1450.1,661.4l0,-3.4c0,-1.8,-0.9,-2.8,-2.6,-2.8c-1,0,-1.9,0.3,-3,0.8l0.3,0.9c0.3,-0.2,0.7,-0.3,1.2,-0.5c0.4,-0.1,0.8,-0.2,1.1,-0.2c1.2,0,1.8,0.7,1.8,2l0,0.4l-1.3,0.1c-0.5,0.1,-1.1,0.1,-1.5,0.3c-0.4,0.1,-0.8,0.2,-1.1,0.4c-0.3,0.2,-0.5,0.5,-0.7,0.8c-0.1,0.3,-0.2,0.6,-0.2,1c0,0.6,0.2,1.2,0.7,1.6c0.4,0.4,0.9,0.6,1.5,0.6c1.1,0,2,-0.5,2.7,-1.5c0,0.6,0,1,0.1,1.3l1.2,0c-0.1,-0.5,-0.2,-1.1,-0.2,-1.8Zm-2.2,0.5c-0.4,0.3,-0.8,0.4,-1.3,0.4c-0.3,0,-0.6,-0.1,-0.9,-0.3c-0.2,-0.3,-0.4,-0.5,-0.4,-0.9c0,-0.4,0.2,-0.7,0.5,-0.9c0.3,-0.2,0.6,-0.4,1,-0.5c0.4,0,1.1,-0.1,2.1,-0.2l0,1.4c-0.3,0.4,-0.6,0.8,-1,1Z" class="g4_47" />
<path d="M1455.9,660.3c0.8,0,1.4,-0.3,1.9,-0.8c0.5,-0.4,0.7,-1,0.7,-1.7c0,-0.6,-0.1,-1,-0.3,-1.4l1.5,0l0,-1.2l-2.3,0.4c-0.5,-0.2,-1,-0.4,-1.5,-0.4c-0.7,0,-1.4,0.3,-1.9,0.8c-0.5,0.4,-0.7,1,-0.7,1.8c0,0.4,0.1,0.8,0.3,1.2c0.2,0.4,0.6,0.8,1,1c-0.9,0.5,-1.4,1,-1.4,1.5c0,0.5,0.4,0.9,1.1,1.3c-0.9,0.4,-1.3,0.9,-1.3,1.5c0,0.6,0.3,1.1,0.8,1.4c0.6,0.4,1.3,0.6,2.1,0.6c1.1,0,2,-0.3,2.8,-0.8c0.8,-0.5,1.2,-1.2,1.2,-2.1c0,-0.6,-0.2,-1,-0.5,-1.3c-0.4,-0.3,-0.9,-0.5,-1.5,-0.5l-2.6,0.1c-0.3,0,-0.5,0,-0.7,-0.1c-0.2,-0.1,-0.2,-0.3,-0.2,-0.4c0,-0.3,0.3,-0.6,1,-0.9c0.2,0,0.3,0,0.5,0Zm-1,-1.4c-0.3,-0.3,-0.5,-0.7,-0.5,-1.1c0,-0.5,0.2,-0.9,0.5,-1.2c0.2,-0.3,0.6,-0.4,1,-0.4c0.4,0,0.8,0.1,1.1,0.4c0.2,0.3,0.4,0.7,0.4,1.2c0,0.4,-0.2,0.8,-0.5,1.1c-0.2,0.3,-0.6,0.5,-1,0.5c-0.4,0,-0.8,-0.2,-1,-0.5Zm-0.3,6.1c-0.3,-0.2,-0.5,-0.4,-0.5,-0.7c0,-0.2,0.1,-0.4,0.2,-0.6c0.1,-0.2,0.3,-0.4,0.5,-0.5c0.2,-0.2,0.4,-0.3,0.5,-0.3c0.2,0,0.6,0,0.9,0c0.7,-0.1,1.1,-0.1,1.4,-0.1c0.7,0,1.1,0.3,1.1,0.8c0,0.5,-0.3,0.9,-0.8,1.3c-0.5,0.3,-1.2,0.5,-2,0.5c-0.5,0,-1,-0.1,-1.3,-0.4Z" class="g4_47" />
<path d="M1468.7,659c0,-1.2,-0.3,-2.1,-0.9,-2.7c-0.6,-0.7,-1.4,-1.1,-2.3,-1.1c-1,0,-1.8,0.4,-2.4,1.1c-0.7,0.8,-1,1.8,-1,3c0,1.2,0.4,2.2,1.1,3c0.7,0.7,1.6,1.1,2.8,1.1c0.9,0,1.7,-0.2,2.4,-0.5l-0.2,-0.9c-0.8,0.3,-1.5,0.4,-2.2,0.4c-0.8,0,-1.4,-0.3,-1.9,-0.9c-0.5,-0.5,-0.8,-1.3,-0.8,-2.2l5.4,0l0,-0.3Zm-5.3,-0.6c0.1,-0.6,0.3,-1.2,0.7,-1.6c0.4,-0.4,0.9,-0.6,1.5,-0.6c0.4,0,0.9,0.2,1.2,0.7c0.4,0.4,0.6,0.9,0.6,1.5l-4,0Z" class="g4_47" />
<path d="M1477.1,655.6c-0.8,-0.3,-1.5,-0.4,-2.1,-0.4c-1,0,-1.8,0.2,-2.4,0.6c-0.6,0.4,-0.8,0.9,-0.8,1.6c0,0.3,0,0.6,0.1,0.9c0.2,0.2,0.4,0.4,0.6,0.6c0.2,0.2,0.5,0.3,0.8,0.4c0.3,0.1,0.7,0.2,1.3,0.4c0.8,0.2,1.2,0.5,1.4,0.7c0.2,0.2,0.3,0.4,0.3,0.7c0,0.4,-0.2,0.7,-0.6,1c-0.4,0.2,-0.9,0.3,-1.5,0.3c-0.8,0,-1.5,-0.1,-2.1,-0.4l-0.3,1c0.7,0.3,1.4,0.4,2.4,0.4c1,0,1.8,-0.2,2.4,-0.7c0.6,-0.4,0.9,-1,0.9,-1.7c0,-0.4,-0.1,-0.7,-0.2,-1c-0.2,-0.3,-0.4,-0.5,-0.8,-0.7c-0.3,-0.2,-0.7,-0.4,-1.2,-0.6l-1.1,-0.3c-0.5,-0.1,-0.9,-0.3,-1,-0.4c-0.2,-0.2,-0.3,-0.4,-0.3,-0.6c0,-0.4,0.2,-0.7,0.6,-0.9c0.3,-0.2,0.8,-0.3,1.5,-0.3c0.5,0,1.1,0.1,1.8,0.3l0.3,-0.9Z" class="g4_47" />
<path d="M1485.3,652.5l-4.5,10.9l1.1,0l4.6,-10.9l-1.2,0Z" class="g4_47" />
<path d="M1495.9,652.7l-1.1,0l0,3.7c-0.6,-0.8,-1.4,-1.2,-2.4,-1.2c-0.9,0,-1.6,0.4,-2.2,1.2c-0.5,0.7,-0.8,1.6,-0.8,2.8c0,1.2,0.3,2.2,0.8,3c0.5,0.8,1.2,1.2,2.1,1.2c0.5,0,1,-0.1,1.4,-0.4c0.5,-0.2,0.8,-0.5,1.1,-0.9l0,1.1l1.1,0l0,-10.5Zm-1.5,8.7c-0.3,0.3,-0.6,0.6,-0.9,0.7c-0.3,0.2,-0.6,0.3,-0.9,0.3c-0.6,0,-1.1,-0.3,-1.4,-0.9c-0.4,-0.6,-0.5,-1.3,-0.5,-2.2c0,-0.9,0.1,-1.6,0.5,-2.2c0.4,-0.6,0.9,-0.9,1.5,-0.9c0.8,0,1.5,0.5,2.1,1.4l0,3.2c0,0.1,-0.2,0.3,-0.4,0.6Z" class="g4_47" />
<path d="M1505.3,659c0,-1.2,-0.3,-2.1,-0.9,-2.7c-0.6,-0.7,-1.3,-1.1,-2.2,-1.1c-1,0,-1.8,0.4,-2.5,1.1c-0.6,0.8,-0.9,1.8,-0.9,3c0,1.2,0.3,2.2,1,3c0.8,0.7,1.7,1.1,2.8,1.1c1,0,1.8,-0.2,2.4,-0.5l-0.2,-0.9c-0.7,0.3,-1.4,0.4,-2.1,0.4c-0.8,0,-1.4,-0.3,-1.9,-0.9c-0.5,-0.5,-0.8,-1.3,-0.8,-2.2l5.3,0l0,-0.3Zm-5.2,-0.6c0,-0.6,0.3,-1.2,0.6,-1.6c0.4,-0.4,0.9,-0.6,1.5,-0.6c0.5,0,0.9,0.2,1.3,0.7c0.4,0.4,0.6,0.9,0.6,1.5l-4,0Z" class="g4_47" />
<path d="M1512.7,655.2c-1,0,-1.8,0.6,-2.4,1.8l0,-1.6l-1.2,0l0,7.8l1.2,0l0,-5c0,-0.1,0.1,-0.3,0.4,-0.6c0.3,-0.4,0.6,-0.7,0.9,-0.9c0.3,-0.2,0.7,-0.3,1,-0.3c0.4,0,0.8,0.1,1.3,0.3l0.5,-1.1c-0.5,-0.2,-1.1,-0.4,-1.7,-0.4Z" class="g4_47" />
<path d="M1522.5,655.4l-2.2,6.2l-2.2,-6.2l-1.2,0l2.9,7.8l1.1,0l2.9,-7.8l-1.3,0Z" class="g4_47" />
<path d="M1532.5,662.5l-2,0l0,-10l-4,0l0,1l2,0l0,10l4,0l0,-1Z" class="g4_47" />
<path d="M1541.8,661.4l0,-3.4c0,-1.8,-0.9,-2.8,-2.7,-2.8c-0.9,0,-1.9,0.3,-2.9,0.8l0.3,0.9c0.3,-0.2,0.7,-0.3,1.1,-0.5c0.5,-0.1,0.9,-0.2,1.2,-0.2c1.2,0,1.8,0.7,1.8,2l0,0.4l-1.3,0.1c-0.6,0.1,-1.1,0.1,-1.5,0.3c-0.4,0.1,-0.8,0.2,-1.1,0.4c-0.3,0.2,-0.5,0.5,-0.7,0.8c-0.1,0.3,-0.2,0.6,-0.2,1c0,0.6,0.2,1.2,0.7,1.6c0.4,0.4,0.9,0.6,1.5,0.6c1.1,0,2,-0.5,2.7,-1.5c0,0.6,0,1,0.1,1.3l1.2,0c-0.1,-0.5,-0.2,-1.1,-0.2,-1.8Zm-2.2,0.5c-0.5,0.3,-0.9,0.4,-1.3,0.4c-0.4,0,-0.7,-0.1,-0.9,-0.3c-0.3,-0.3,-0.4,-0.5,-0.4,-0.9c0,-0.4,0.2,-0.7,0.5,-0.9c0.2,-0.2,0.6,-0.4,1,-0.5c0.4,0,1.1,-0.1,2.1,-0.2l0,1.4c-0.3,0.4,-0.6,0.8,-1,1Z" class="g4_47" />
<path d="M1547.2,661.8c-0.1,0.1,-0.2,0.3,-0.2,0.6c0,0.3,0.1,0.5,0.2,0.7c0.2,0.2,0.4,0.3,0.7,0.3c0.3,0,0.5,-0.1,0.7,-0.3c0.1,-0.2,0.2,-0.4,0.2,-0.7c0,-0.2,-0.1,-0.5,-0.2,-0.6c-0.2,-0.2,-0.4,-0.3,-0.7,-0.3c-0.3,0,-0.5,0.1,-0.7,0.3Z" class="g4_47" />
<path d="M1557.1,652.7c-0.2,0.2,-0.3,0.4,-0.3,0.6c0,0.2,0.1,0.4,0.3,0.5c0.1,0.2,0.3,0.3,0.5,0.3c0.2,0,0.4,-0.1,0.6,-0.2c0.1,-0.2,0.2,-0.4,0.2,-0.6c0,-0.2,-0.1,-0.4,-0.2,-0.6c-0.2,-0.1,-0.4,-0.2,-0.6,-0.2c-0.2,0,-0.4,0.1,-0.5,0.2Zm1.1,2.7l-3.5,0l0,1l2.3,0l0,7.1c0,0.7,-0.1,1.2,-0.2,1.4c-0.2,0.2,-0.5,0.4,-0.9,0.4c-0.4,0,-0.9,-0.1,-1.5,-0.3l-0.3,1c0.7,0.2,1.3,0.3,1.8,0.3c0.9,0,1.4,-0.2,1.8,-0.6c0.3,-0.4,0.5,-1.1,0.5,-2.1l0,-8.2Z" class="g4_47" />
<path d="M1564.5,655.4l-1.2,0l0,10.9l1.2,0l0,-4.2c0.2,0.4,0.5,0.7,1,0.9c0.4,0.3,0.8,0.4,1.3,0.4c0.9,0,1.6,-0.4,2.2,-1.2c0.5,-0.8,0.8,-1.8,0.8,-3c0,-1.2,-0.3,-2.1,-0.8,-2.9c-0.5,-0.7,-1.2,-1.1,-2.1,-1.1c-0.5,0,-0.9,0.1,-1.4,0.4c-0.4,0.2,-0.8,0.5,-1,0.8l0,-1Zm2.1,0.8c0.6,0,1.1,0.3,1.4,0.9c0.4,0.6,0.6,1.3,0.6,2.2c0,0.9,-0.2,1.6,-0.6,2.2c-0.4,0.6,-0.9,0.9,-1.5,0.9c-0.4,0,-0.8,-0.2,-1.1,-0.5c-0.4,-0.3,-0.7,-0.6,-0.9,-1.1l0,-3.2c0.5,-0.9,1.2,-1.4,2.1,-1.4Z" class="g4_47" />
<path d="M1575.1,660.3c0.7,0,1.4,-0.3,1.9,-0.8c0.4,-0.4,0.7,-1,0.7,-1.7c0,-0.6,-0.1,-1,-0.3,-1.4l1.4,0l0,-1.2l-2.3,0.4c-0.4,-0.2,-0.9,-0.4,-1.4,-0.4c-0.8,0,-1.4,0.3,-1.9,0.8c-0.5,0.4,-0.7,1,-0.7,1.8c0,0.4,0.1,0.8,0.3,1.2c0.2,0.4,0.6,0.8,1,1c-0.9,0.5,-1.4,1,-1.4,1.5c0,0.5,0.4,0.9,1.1,1.3c-0.9,0.4,-1.3,0.9,-1.3,1.5c0,0.6,0.3,1.1,0.8,1.4c0.6,0.4,1.3,0.6,2.1,0.6c1.1,0,2,-0.3,2.8,-0.8c0.8,-0.5,1.2,-1.2,1.2,-2.1c0,-0.6,-0.2,-1,-0.6,-1.3c-0.3,-0.3,-0.8,-0.5,-1.4,-0.5l-2.6,0.1c-0.3,0,-0.5,0,-0.7,-0.1c-0.2,-0.1,-0.3,-0.3,-0.3,-0.4c0,-0.3,0.4,-0.6,1.1,-0.9c0.2,0,0.3,0,0.5,0Zm-1.1,-1.4c-0.2,-0.3,-0.4,-0.7,-0.4,-1.1c0,-0.5,0.2,-0.9,0.4,-1.2c0.3,-0.3,0.7,-0.4,1.1,-0.4c0.4,0,0.8,0.1,1,0.4c0.3,0.3,0.4,0.7,0.4,1.2c0,0.4,-0.1,0.8,-0.4,1.1c-0.2,0.3,-0.6,0.5,-1,0.5c-0.4,0,-0.8,-0.2,-1.1,-0.5Zm-0.2,6.1c-0.3,-0.2,-0.5,-0.4,-0.5,-0.7c0,-0.2,0,-0.4,0.2,-0.6c0.1,-0.2,0.3,-0.4,0.5,-0.5c0.2,-0.2,0.4,-0.3,0.5,-0.3c0.2,0,0.5,0,0.9,0c0.7,-0.1,1.1,-0.1,1.3,-0.1c0.8,0,1.2,0.3,1.2,0.8c0,0.5,-0.3,0.9,-0.8,1.3c-0.6,0.3,-1.2,0.5,-2,0.5c-0.5,0,-1,-0.1,-1.3,-0.4Z" class="g4_47" />
<text 
x="1424" 
y="663" 
dx="0,0,0,0,0,0,0,0,0,0,0,0,0,0,0,0,0" 
class="s3_47"
>images/dervla.jpg</text>

<text 
x="1580" 
y="663" 
dx="0,0,0" 
class="s2_47"
>). </text>

<text 
x="1338" 
y="684" 
dx="0,0,0,0,0,0,0,2.5,0,0,0,0,0,0,0,2.5,0,0,0,2.5,0,0,0,0,2.5,0" 
class="s2_47"
>Images usually end with a </text>

<path d="M1536.2,683.1c-0.1,0.2,-0.2,0.4,-0.2,0.7c0,0.3,0.1,0.5,0.3,0.7c0.1,0.2,0.3,0.3,0.6,0.3c0.3,0,0.5,-0.1,0.7,-0.3c0.1,-0.2,0.2,-0.4,0.2,-0.7c0,-0.3,-0.1,-0.5,-0.2,-0.7c-0.2,-0.1,-0.4,-0.2,-0.7,-0.2c-0.3,0,-0.5,0.1,-0.7,0.2Z" class="g4_47" />
<path d="M1546.1,674.1c-0.2,0.2,-0.3,0.4,-0.3,0.6c0,0.2,0.1,0.4,0.3,0.5c0.1,0.2,0.3,0.3,0.5,0.3c0.2,0,0.4,-0.1,0.6,-0.3c0.1,-0.1,0.2,-0.3,0.2,-0.5c0,-0.2,-0.1,-0.4,-0.2,-0.6c-0.2,-0.2,-0.4,-0.2,-0.6,-0.2c-0.2,0,-0.4,0.1,-0.5,0.2Zm1.1,2.7l-3.5,0l0,1l2.3,0l0,7.1c0,0.7,-0.1,1.2,-0.2,1.4c-0.2,0.2,-0.5,0.3,-0.9,0.3c-0.4,0,-0.9,0,-1.5,-0.2l-0.3,1c0.7,0.2,1.3,0.3,1.8,0.3c0.9,0,1.4,-0.2,1.8,-0.7c0.3,-0.4,0.5,-1,0.5,-2l0,-8.2Z" class="g4_47" />
<path d="M1553.5,676.8l-1.2,0l0,10.9l1.2,0l0,-4.2c0.2,0.4,0.5,0.7,1,0.9c0.4,0.3,0.8,0.4,1.3,0.4c0.9,0,1.6,-0.4,2.2,-1.2c0.5,-0.8,0.8,-1.8,0.8,-3c0,-1.2,-0.3,-2.1,-0.8,-2.9c-0.5,-0.7,-1.2,-1.1,-2.1,-1.1c-0.5,0,-0.9,0.1,-1.4,0.4c-0.4,0.2,-0.8,0.5,-1,0.8l0,-1Zm2.1,0.8c0.6,0,1.1,0.3,1.4,0.9c0.4,0.5,0.6,1.3,0.6,2.2c0,0.8,-0.2,1.6,-0.6,2.2c-0.4,0.5,-0.9,0.8,-1.5,0.8c-0.4,0,-0.8,-0.1,-1.1,-0.4c-0.4,-0.3,-0.7,-0.7,-0.9,-1.1l0,-3.2c0.5,-0.9,1.2,-1.4,2.1,-1.4Z" class="g4_47" />
<path d="M1564.1,681.7c0.7,0,1.4,-0.3,1.9,-0.8c0.4,-0.5,0.7,-1,0.7,-1.8c0,-0.5,-0.1,-0.9,-0.3,-1.3l1.4,0l0,-1.2l-2.3,0.4c-0.4,-0.2,-0.9,-0.4,-1.4,-0.4c-0.8,0,-1.4,0.3,-1.9,0.7c-0.5,0.5,-0.7,1.1,-0.7,1.8c0,0.5,0.1,0.9,0.3,1.3c0.2,0.4,0.6,0.8,1,1c-0.9,0.5,-1.4,1,-1.4,1.5c0,0.5,0.4,0.9,1.1,1.2c-0.9,0.5,-1.3,1,-1.3,1.6c0,0.6,0.3,1.1,0.8,1.4c0.6,0.4,1.3,0.6,2.1,0.6c1.1,0,2,-0.3,2.8,-0.8c0.8,-0.5,1.2,-1.3,1.2,-2.1c0,-0.6,-0.2,-1,-0.6,-1.3c-0.3,-0.3,-0.8,-0.5,-1.4,-0.5l-2.6,0.1c-0.3,0,-0.5,-0.1,-0.7,-0.2c-0.2,0,-0.3,-0.2,-0.3,-0.3c0,-0.3,0.4,-0.6,1.1,-0.9c0.2,0,0.3,0,0.5,0Zm-1.1,-1.4c-0.2,-0.3,-0.4,-0.7,-0.4,-1.1c0,-0.5,0.2,-0.9,0.4,-1.2c0.3,-0.3,0.7,-0.4,1.1,-0.4c0.4,0,0.8,0.1,1,0.4c0.3,0.3,0.4,0.7,0.4,1.2c0,0.4,-0.1,0.8,-0.4,1.1c-0.2,0.3,-0.6,0.5,-1,0.5c-0.4,0,-0.8,-0.2,-1.1,-0.5Zm-0.2,6.1c-0.3,-0.2,-0.5,-0.4,-0.5,-0.8c0,-0.1,0,-0.3,0.2,-0.5c0.1,-0.2,0.3,-0.4,0.5,-0.6c0.2,-0.1,0.4,-0.2,0.5,-0.2c0.2,0,0.5,0,0.9,-0.1c0.7,0,1.1,0,1.3,0c0.8,0,1.2,0.3,1.2,0.8c0,0.5,-0.3,0.9,-0.8,1.2c-0.6,0.4,-1.2,0.6,-2,0.6c-0.5,0,-1,-0.2,-1.3,-0.4Z" class="g4_47" />
<text 
x="1532" 
y="684" 
dx="0,0,0,0" 
class="s3_47"
>.jpg</text>

<text 
x="1575" 
y="684" 
dx="0,0,0" 
class="s2_47"
>or </text>

<path d="M1342,704.5c-0.1,0.2,-0.2,0.4,-0.2,0.7c0,0.3,0.1,0.5,0.2,0.7c0.2,0.2,0.4,0.3,0.7,0.3c0.2,0,0.5,-0.1,0.6,-0.3c0.2,-0.2,0.3,-0.4,0.3,-0.7c0,-0.3,-0.1,-0.5,-0.2,-0.7c-0.2,-0.1,-0.4,-0.2,-0.7,-0.2c-0.3,0,-0.5,0.1,-0.7,0.2Z" class="g4_47" />
<path d="M1350.1,698.2l-1.2,0l0,10.8l1.2,0l0,-4.1c0.2,0.4,0.6,0.7,1,0.9c0.4,0.3,0.9,0.4,1.3,0.4c0.9,0,1.7,-0.4,2.2,-1.2c0.5,-0.8,0.8,-1.8,0.8,-3c0,-1.2,-0.3,-2.1,-0.8,-2.9c-0.5,-0.7,-1.2,-1.1,-2.1,-1.1c-0.5,0,-0.9,0.1,-1.4,0.3c-0.4,0.3,-0.8,0.5,-1,0.9l0,-1Zm2.1,0.8c0.6,0,1.1,0.3,1.5,0.9c0.3,0.5,0.5,1.3,0.5,2.2c0,0.8,-0.2,1.6,-0.6,2.1c-0.3,0.6,-0.8,0.9,-1.5,0.9c-0.4,0,-0.8,-0.1,-1.1,-0.4c-0.4,-0.3,-0.7,-0.7,-0.9,-1.1l0,-3.2c0.6,-0.9,1.3,-1.4,2.1,-1.4Z" class="g4_47" />
<path d="M1364.1,700.7c0,-1.8,-0.7,-2.7,-2.2,-2.7c-0.9,0,-1.8,0.5,-2.6,1.3l0,-1.1l-1.2,0l0,7.8l1.2,0l0,-5.7c0.8,-0.8,1.5,-1.3,2.2,-1.3c0.5,0,0.9,0.2,1.1,0.5c0.2,0.3,0.3,0.8,0.3,1.5l0,5l1.2,0l0,-5.3Z" class="g4_47" />
<path d="M1369.9,703.1c0.7,0,1.4,-0.3,1.8,-0.8c0.5,-0.5,0.8,-1.1,0.8,-1.8c0,-0.5,-0.1,-1,-0.4,-1.4l1.5,0l0,-1.1l-2.3,0.4c-0.4,-0.3,-0.9,-0.4,-1.4,-0.4c-0.8,0,-1.4,0.3,-1.9,0.7c-0.5,0.5,-0.7,1.1,-0.7,1.8c0,0.5,0.1,0.9,0.3,1.3c0.2,0.4,0.5,0.7,1,1c-0.9,0.5,-1.4,1,-1.4,1.5c0,0.5,0.4,0.9,1.1,1.2c-0.9,0.5,-1.3,1,-1.3,1.6c0,0.6,0.3,1,0.8,1.4c0.6,0.4,1.3,0.5,2.1,0.5c1.1,0,2,-0.2,2.8,-0.7c0.8,-0.6,1.1,-1.3,1.1,-2.1c0,-0.6,-0.1,-1,-0.5,-1.3c-0.3,-0.3,-0.8,-0.5,-1.4,-0.5l-2.6,0.1c-0.3,0,-0.6,-0.1,-0.7,-0.2c-0.2,-0.1,-0.3,-0.2,-0.3,-0.3c0,-0.3,0.4,-0.6,1.1,-1c0.2,0.1,0.3,0.1,0.5,0.1Zm-1.1,-1.4c-0.2,-0.3,-0.4,-0.7,-0.4,-1.2c0,-0.4,0.2,-0.8,0.4,-1.1c0.3,-0.3,0.7,-0.5,1.1,-0.5c0.4,0,0.8,0.2,1,0.5c0.3,0.3,0.4,0.6,0.4,1.1c0,0.5,-0.1,0.9,-0.4,1.2c-0.3,0.3,-0.6,0.5,-1,0.5c-0.4,0,-0.8,-0.2,-1.1,-0.5Zm-0.2,6.1c-0.4,-0.2,-0.5,-0.5,-0.5,-0.8c0,-0.2,0,-0.3,0.2,-0.5c0.1,-0.2,0.3,-0.4,0.5,-0.6c0.2,-0.1,0.4,-0.2,0.5,-0.2c0.2,0,0.5,0,0.9,-0.1c0.6,0,1.1,0,1.3,0c0.8,0,1.2,0.2,1.2,0.8c0,0.5,-0.3,0.9,-0.8,1.2c-0.6,0.4,-1.2,0.5,-2,0.5c-0.5,0,-1,-0.1,-1.3,-0.3Z" class="g4_47" />
<text 
x="1338" 
y="705" 
dx="0,0,0,0" 
class="s3_47"
>.png</text>

<text 
x="1378" 
y="705" 
dx="0,0,0,0,0,-0.9,0,0,0,0,0,0,0,0,0,0" 
class="s2_47"
>file extension. </text>

<path d="M434.2,523.2c-0.2,0.1,-0.3,0.3,-0.3,0.5c0,0.2,0.1,0.4,0.3,0.6c0.1,0.2,0.3,0.2,0.5,0.2c0.2,0,0.4,0,0.6,-0.2c0.1,-0.2,0.2,-0.3,0.2,-0.6c0,-0.2,-0.1,-0.4,-0.2,-0.5c-0.2,-0.2,-0.4,-0.3,-0.6,-0.3c-0.2,0,-0.4,0.1,-0.5,0.3Zm1.1,2.7l-3.5,0l0,1l2.3,0l0,6.7l1.2,0l0,-7.7Z" class="g4_47" />
<path d="M447,528.2c0,-1.7,-0.5,-2.5,-1.4,-2.5c-0.3,0,-0.6,0.1,-0.9,0.4c-0.3,0.2,-0.6,0.5,-0.8,0.9c-0.1,-0.4,-0.3,-0.7,-0.5,-0.9c-0.3,-0.3,-0.6,-0.4,-0.9,-0.4c-0.3,0,-0.6,0.1,-0.9,0.4c-0.3,0.2,-0.5,0.5,-0.7,0.9l0,-1.1l-1.2,0l0,7.7l1.2,0l0,-5.6c0,0,0.1,-0.2,0.4,-0.7c0.3,-0.4,0.6,-0.6,0.8,-0.6c0.4,0,0.7,0.6,0.7,1.8l0,5.1l1.1,0l0,-5.6c0,0,0.2,-0.2,0.5,-0.7c0.2,-0.4,0.5,-0.6,0.7,-0.6c0.5,0,0.7,0.6,0.7,1.8l0,5.1l1.2,0l0,-5.4Z" class="g4_47" />
<path d="M452.2,530.7c0.7,0,1.3,-0.2,1.8,-0.7c0.5,-0.5,0.8,-1.1,0.8,-1.8c0,-0.5,-0.1,-1,-0.4,-1.4l1.5,0l0,-1.1l-2.3,0.3c-0.4,-0.2,-0.9,-0.3,-1.4,-0.3c-0.8,0,-1.4,0.2,-1.9,0.7c-0.5,0.5,-0.8,1.1,-0.8,1.8c0,0.5,0.2,0.9,0.4,1.3c0.2,0.4,0.5,0.7,0.9,1c-0.9,0.4,-1.3,0.9,-1.3,1.5c0,0.5,0.3,0.9,1,1.2c-0.8,0.4,-1.2,1,-1.2,1.6c0,0.5,0.2,1,0.8,1.4c0.5,0.3,1.2,0.5,2.1,0.5c1.1,0,2,-0.2,2.8,-0.8c0.7,-0.5,1.1,-1.2,1.1,-2.1c0,-0.5,-0.1,-1,-0.5,-1.3c-0.3,-0.3,-0.8,-0.4,-1.4,-0.4l-2.7,0.1c-0.2,0,-0.5,-0.1,-0.6,-0.2c-0.2,-0.1,-0.3,-0.2,-0.3,-0.4c0,-0.2,0.4,-0.5,1.1,-0.9c0.1,0,0.3,0,0.5,0Zm-1.1,-1.3c-0.3,-0.3,-0.4,-0.7,-0.4,-1.2c0,-0.5,0.1,-0.8,0.4,-1.1c0.3,-0.3,0.6,-0.5,1.1,-0.5c0.4,0,0.8,0.2,1,0.4c0.3,0.3,0.4,0.7,0.4,1.2c0,0.5,-0.1,0.9,-0.4,1.2c-0.3,0.3,-0.6,0.4,-1,0.4c-0.5,0,-0.8,-0.1,-1.1,-0.4Zm-0.2,6.1c-0.4,-0.2,-0.5,-0.5,-0.5,-0.8c0,-0.2,0,-0.4,0.1,-0.6c0.2,-0.1,0.3,-0.3,0.6,-0.5c0.2,-0.2,0.4,-0.3,0.5,-0.3c0.2,0,0.5,0,0.9,0c0.6,0,1.1,0,1.3,0c0.8,0,1.2,0.2,1.2,0.7c0,0.5,-0.3,1,-0.8,1.3c-0.6,0.3,-1.2,0.5,-2,0.5c-0.5,0,-1,-0.1,-1.3,-0.3Z" class="g4_47" />
<text 
x="429" 
y="533" 
dx="0,0,0" 
class="s3_47"
>img</text>

<text 
x="515" 
y="533" 
dx="0,0,0,0,0,0,0,3.7,0,0,0,3.7,0,0,3.7,0,0,0,0,0,0,0,3.7,0,0,3.7,0,0,0,0,0,3.7,0,0" 
class="s2_47"
>Allows you to display an image or </text>

<text 
x="515" 
y="555" 
dx="0,0,0,0,0,0,-0.3,0,0,0.9,0,0,-1.1,0,0.9,0,0.9,0,0,0,0,0.9,0,0,0,0,0.9,0,0,0.9,0,0,0,0,0.9,0,0,0,0" 
class="s2_47"
>picture. It’s a good idea to give your </text>

<text 
x="515" 
y="576" 
dx="0,0,0,0,0,0,0.1,0" 
class="s2_47"
>image a </text>

<path d="M582.3,575.2c-0.7,0.3,-1.4,0.4,-2,0.4c-0.9,0,-1.5,-0.3,-2.1,-0.9c-0.5,-0.6,-0.7,-1.3,-0.7,-2.2c0,-0.9,0.2,-1.7,0.7,-2.2c0.5,-0.6,1.2,-0.8,2,-0.8c0.6,0,1.2,0.1,2,0.3l0.3,-0.9c-0.7,-0.3,-1.5,-0.4,-2.3,-0.4c-1.2,0,-2.1,0.3,-2.9,1.1c-0.7,0.7,-1.1,1.7,-1.1,2.9c0,1.3,0.4,2.3,1.1,3c0.8,0.7,1.7,1.1,3,1.1c0.8,0,1.5,-0.1,2.2,-0.4l-0.2,-1Z" class="g4_47" />
<path d="M591.5,575.5l-2,0l0,-10l-4,0l0,1l2,0l0,10l4,0l0,-1Z" class="g4_47" />
<path d="M600.9,574.6l0,-3.3c0,-1.9,-0.9,-2.8,-2.7,-2.8c-0.9,0,-1.9,0.2,-3,0.8l0.4,0.8c0.3,-0.2,0.7,-0.3,1.1,-0.4c0.5,-0.2,0.8,-0.2,1.1,-0.2c1.3,0,1.9,0.6,1.9,2l0,0.3l-1.3,0.1c-0.6,0.1,-1.1,0.2,-1.5,0.3c-0.5,0.1,-0.8,0.3,-1.1,0.5c-0.3,0.2,-0.5,0.4,-0.7,0.7c-0.2,0.3,-0.2,0.6,-0.2,1c0,0.7,0.2,1.2,0.6,1.6c0.5,0.4,1,0.6,1.6,0.6c1.1,0,2,-0.5,2.7,-1.4c0,0.5,0,0.9,0.1,1.2l1.1,0c-0.1,-0.5,-0.1,-1.1,-0.1,-1.8Zm-2.3,0.5c-0.4,0.3,-0.8,0.4,-1.2,0.4c-0.4,0,-0.7,-0.1,-0.9,-0.3c-0.3,-0.2,-0.4,-0.5,-0.4,-0.9c0,-0.3,0.1,-0.6,0.4,-0.9c0.3,-0.2,0.6,-0.3,1,-0.4c0.4,-0.1,1.1,-0.2,2.2,-0.3l0,1.4c-0.3,0.4,-0.7,0.8,-1.1,1Z" class="g4_47" />
<path d="M609.5,568.8c-0.8,-0.2,-1.5,-0.3,-2.1,-0.3c-1,0,-1.8,0.2,-2.4,0.5c-0.5,0.4,-0.8,1,-0.8,1.6c0,0.4,0,0.6,0.2,0.9c0.1,0.2,0.3,0.4,0.5,0.6c0.3,0.2,0.5,0.3,0.8,0.4c0.3,0.1,0.7,0.3,1.3,0.4c0.8,0.3,1.3,0.5,1.5,0.7c0.2,0.2,0.3,0.5,0.3,0.7c0,0.4,-0.2,0.7,-0.7,1c-0.4,0.2,-0.9,0.3,-1.5,0.3c-0.8,0,-1.5,-0.1,-2.1,-0.4l-0.3,1c0.7,0.3,1.5,0.4,2.4,0.4c1,0,1.8,-0.2,2.4,-0.6c0.6,-0.5,0.9,-1,0.9,-1.8c0,-0.4,-0.1,-0.7,-0.2,-1c-0.2,-0.3,-0.4,-0.5,-0.8,-0.7c-0.3,-0.2,-0.7,-0.4,-1.2,-0.5l-1.1,-0.3c-0.5,-0.2,-0.9,-0.3,-1,-0.5c-0.2,-0.2,-0.3,-0.4,-0.3,-0.6c0,-0.4,0.2,-0.6,0.6,-0.8c0.3,-0.3,0.8,-0.4,1.5,-0.4c0.5,0,1.2,0.1,1.8,0.4l0.3,-1Z" class="g4_47" />
<path d="M618.6,568.8c-0.7,-0.2,-1.4,-0.3,-2,-0.3c-1,0,-1.8,0.2,-2.4,0.5c-0.6,0.4,-0.9,1,-0.9,1.6c0,0.4,0.1,0.6,0.2,0.9c0.2,0.2,0.3,0.4,0.6,0.6c0.2,0.2,0.5,0.3,0.8,0.4c0.3,0.1,0.7,0.3,1.3,0.4c0.7,0.3,1.2,0.5,1.4,0.7c0.2,0.2,0.3,0.5,0.3,0.7c0,0.4,-0.2,0.7,-0.6,1c-0.4,0.2,-0.9,0.3,-1.6,0.3c-0.7,0,-1.4,-0.1,-2.1,-0.4l-0.2,1c0.6,0.3,1.4,0.4,2.4,0.4c0.9,0,1.7,-0.2,2.4,-0.6c0.6,-0.5,0.9,-1,0.9,-1.8c0,-0.4,-0.1,-0.7,-0.3,-1c-0.1,-0.3,-0.4,-0.5,-0.7,-0.7c-0.3,-0.2,-0.7,-0.4,-1.2,-0.5l-1.1,-0.3c-0.6,-0.2,-0.9,-0.3,-1.1,-0.5c-0.1,-0.2,-0.2,-0.4,-0.2,-0.6c0,-0.4,0.2,-0.6,0.5,-0.8c0.4,-0.3,0.9,-0.4,1.5,-0.4c0.6,0,1.2,0.1,1.9,0.4l0.2,-1Z" class="g4_47" />
<text 
x="574" 
y="576" 
dx="0,0,0,0,0" 
class="s3_47"
>class</text>

<text 
x="625" 
y="576" 
dx="0,0,0,0,0,0,0,0,0,0,0.1,0,0,0,0,0.1,0,0.1,0,0,0,0,0" 
class="s2_47"
>attribute with a value </text>

<text 
x="515" 
y="597" 
dx="0,0,0,0,0,1.1,0,0,1.1,0,0,0,0,0,0,1.1,0,0,0,0,0,0,1.1,0,0,1.1,0,0,0,0,0,1.1,0,0,0" 
class="s2_47"
>such as large, medium or small and </text>

<text 
x="515" 
y="619" 
dx="0,0,0,0,0,1.2,0,0,0,1.2,0,0,0,1.2,0,0,0,1.2,0,0,1.2,0,0,0,0,-0.3,0,0,1.2,0,0,0,1.2,0,0,0,0" 
class="s2_47"
>then use the CSS to control the size </text>

<text 
x="515" 
y="640" 
dx="0,0,0,4.2,0,0,0,4.2,0,0,0,0,0,0,4.2,0,0,0" 
class="s2_47"
>of the image. The </text>

<path d="M662.1,632.9c-0.8,-0.2,-1.5,-0.3,-2.1,-0.3c-1,0,-1.7,0.2,-2.3,0.6c-0.6,0.4,-0.9,0.9,-0.9,1.6c0,0.3,0.1,0.6,0.2,0.8c0.1,0.3,0.3,0.5,0.5,0.7c0.3,0.2,0.6,0.3,0.8,0.4c0.3,0.1,0.8,0.2,1.4,0.4c0.7,0.2,1.2,0.5,1.4,0.7c0.2,0.2,0.3,0.4,0.3,0.7c0,0.4,-0.2,0.7,-0.6,0.9c-0.4,0.3,-1,0.4,-1.6,0.4c-0.7,0,-1.4,-0.1,-2.1,-0.5l-0.2,1.1c0.6,0.2,1.4,0.4,2.3,0.4c1,0,1.8,-0.2,2.4,-0.7c0.6,-0.4,0.9,-1,0.9,-1.7c0,-0.4,0,-0.7,-0.2,-1c-0.2,-0.3,-0.4,-0.5,-0.7,-0.7c-0.3,-0.2,-0.8,-0.4,-1.3,-0.6l-1.1,-0.3c-0.5,-0.1,-0.8,-0.3,-1,-0.4c-0.2,-0.2,-0.3,-0.4,-0.3,-0.6c0,-0.4,0.2,-0.7,0.6,-0.9c0.4,-0.2,0.9,-0.3,1.5,-0.3c0.6,0,1.2,0.1,1.8,0.3l0.3,-1Z" class="g4_47" />
<path d="M670.2,632.6c-1,0,-1.8,0.6,-2.4,1.8l0,-1.6l-1.1,0l0,7.8l1.1,0l0,-5c0,-0.1,0.2,-0.3,0.4,-0.7c0.3,-0.3,0.6,-0.6,0.9,-0.8c0.4,-0.2,0.7,-0.3,1,-0.3c0.4,0,0.9,0.1,1.4,0.3l0.4,-1.1c-0.5,-0.2,-1.1,-0.4,-1.7,-0.4Z" class="g4_47" />
<path d="M680.8,639.4c-0.7,0.2,-1.4,0.4,-2.1,0.4c-0.8,0,-1.5,-0.3,-2,-0.9c-0.5,-0.6,-0.8,-1.3,-0.8,-2.2c0,-0.9,0.3,-1.7,0.8,-2.2c0.5,-0.6,1.2,-0.9,2,-0.9c0.6,0,1.2,0.2,1.9,0.4l0.3,-1c-0.7,-0.2,-1.4,-0.4,-2.2,-0.4c-1.2,0,-2.2,0.4,-2.9,1.1c-0.7,0.8,-1.1,1.8,-1.1,3c0,1.2,0.4,2.2,1.1,3c0.7,0.7,1.7,1.1,2.9,1.1c0.8,0,1.6,-0.2,2.3,-0.5l-0.2,-0.9Z" class="g4_47" />
<text 
x="655" 
y="640" 
dx="0,0,0" 
class="s3_47"
>src</text>

<text 
x="690" 
y="640" 
dx="0,0,0,0,0,0,0,0,0,0,4.2,0,0" 
class="s2_47"
>attribute is </text>

<text 
x="515" 
y="661" 
dx="0,0,0,0,0,-0.9,0,0,-0.9,0,0,0,0,0,0,-0.9,0,0,0,-0.9,0,0,0,0,0" 
class="s2_47"
>used to locate the image.</text>

<path d="M59.8,448.7c0,-1.8,-0.7,-2.7,-2.2,-2.7c-0.9,0,-1.8,0.5,-2.6,1.3l0,-3.9l-1.2,0l0,10.6l1.2,0l0,-5.6c0.8,-0.9,1.6,-1.4,2.3,-1.4c0.5,0,0.8,0.2,1,0.5c0.2,0.3,0.4,0.8,0.4,1.5l0,5l1.1,0l0,-5.3Z" class="g4_47" />
<path d="M69,452.9l-2.1,0l0,-9.5l-1.1,0l-2.2,1.2l0,1.2l2.1,-1.1l0,8.2l-2.3,0l0,1.1l5.6,0l0,-1.1Z" class="g4_47" />
<text 
x="52" 
y="453" 
dx="0,0" 
class="s3_47"
>h1</text>

<text 
x="137" 
y="453" 
dx="0,0,2.4,0,0,0,0,0,2.4,0,0,0,0,0,0,0,2.4,0,2.4,0,0,0,0,0,0,0,2.4,0,0,0,0,2.4,0,0,0" 
class="s2_47"
>A major heading – usually used for </text>

<text 
x="137" 
y="475" 
dx="0,0,0,0,-0.9,0,0,0,0,-1.1,0,-0.9,0,0,0,0,-0.9,0,0,0,0" 
class="s2_47"
>the page’s main title</text>

<path d="M437.5,705.5l-2,0l0,-9l-4,0l0,1l2,0l0,9l4,0l0,-1Z" class="g4_47" />
<path d="M443.8,696.2c-0.1,0.1,-0.2,0.3,-0.2,0.5c0,0.2,0.1,0.4,0.2,0.6c0.2,0.1,0.4,0.2,0.6,0.2c0.2,0,0.4,-0.1,0.5,-0.2c0.2,-0.2,0.3,-0.4,0.3,-0.6c0,-0.2,-0.1,-0.4,-0.3,-0.5c-0.1,-0.2,-0.3,-0.3,-0.5,-0.3c-0.2,0,-0.4,0.1,-0.6,0.3Zm1.1,2.7l-3.4,0l0,1l2.3,0l0,6.7l1.1,0l0,-7.7Z" class="g4_47" />
<text 
x="430" 
y="706" 
dx="0,0" 
class="s3_47"
>li</text>

<text 
x="515" 
y="706" 
dx="0,0,0,8.5,0,0,0,0,0,0,0,0,0,0,8.5,0,0,0,0,8.5,0,0,8.5,0,8.5,0,0,0,0,0" 
class="s2_47"
>An individual item in a list. </text>

<path d="M755.5,705.5l-2,0l0,-9l-3,0l0,1l2,0l0,9l3,0l0,-1Z" class="g4_47" />
<path d="M762.3,696.2c-0.1,0.1,-0.2,0.3,-0.2,0.5c0,0.2,0.1,0.4,0.2,0.6c0.2,0.1,0.4,0.2,0.6,0.2c0.2,0,0.4,-0.1,0.6,-0.2c0.1,-0.2,0.2,-0.4,0.2,-0.6c0,-0.2,-0.1,-0.4,-0.3,-0.5c-0.1,-0.2,-0.3,-0.3,-0.5,-0.3c-0.2,0,-0.4,0.1,-0.6,0.3Zm1.2,2.7l-3.5,0l0,1l2.3,0l0,6.7l1.2,0l0,-7.7Z" class="g4_47" />
<text 
x="748" 
y="706" 
dx="0,0" 
class="s3_47"
>li</text>

<text 
x="515" 
y="728" 
dx="0,0,0,0,0,0,0,0,0,-0.8,0,0,0,-0.8,0,0,0,0,0,-0.8,0,0,0,0,0,0" 
class="s2_47"
>elements can occur inside </text>

<path d="M704.6,720.2l-1.2,0l0,5.7c-0.8,0.8,-1.6,1.3,-2.3,1.3c-0.5,0,-0.8,-0.2,-1,-0.5c-0.3,-0.3,-0.4,-0.8,-0.4,-1.5l0,-5l-1.1,0l0,5.4c0,1.7,0.7,2.6,2.2,2.6c0.9,0,1.8,-0.4,2.6,-1.3l0,1.1l1.2,0l0,-7.8Z" class="g4_47" />
<path d="M713.5,727.5l-2,0l0,-10l-4,0l0,1l3,0l0,10l3,0l0,-1Z" class="g4_47" />
<text 
x="696" 
y="728" 
dx="0,0" 
class="s3_47"
>ul</text>

<text 
x="718" 
y="728" 
dx="0,0,0,0" 
class="s2_47"
>and </text>

<path d="M750.7,721.2c-0.7,0.7,-1,1.7,-1,2.9c0,1.3,0.3,2.2,1,3c0.6,0.7,1.4,1.1,2.5,1.1c1.1,0,1.9,-0.4,2.6,-1.1c0.6,-0.8,0.9,-1.8,0.9,-3c0,-1.2,-0.3,-2.2,-0.9,-2.9c-0.7,-0.8,-1.5,-1.1,-2.6,-1.1c-1.1,0,-1.9,0.3,-2.5,1.1Zm0.8,5.1c-0.4,-0.6,-0.6,-1.3,-0.6,-2.2c0,-0.9,0.2,-1.6,0.6,-2.2c0.4,-0.6,1,-0.8,1.7,-0.8c0.7,0,1.3,0.3,1.7,0.8c0.4,0.6,0.6,1.3,0.6,2.2c0,0.9,-0.2,1.6,-0.6,2.2c-0.4,0.6,-1,0.9,-1.7,0.9c-0.7,0,-1.3,-0.3,-1.7,-0.9Z" class="g4_47" />
<path d="M764.5,727.5l-2,0l0,-10l-3,0l0,1l2,0l0,10l3,0l0,-1Z" class="g4_47" />
<text 
x="748" 
y="728" 
dx="0,0" 
class="s3_47"
>ol</text>

<text 
x="515" 
y="749" 
dx="0,0,0,0,0,0,0,0,0" 
class="s2_47"
>elements.</text>

<path d="M882.5,618.8c-0.6,0.3,-1.3,0.4,-1.9,0.4c-0.4,0,-0.6,-0.1,-0.9,-0.4c-0.2,-0.2,-0.3,-0.6,-0.3,-1.1l0,-4.4l2.7,0l0,-1l-2.7,0l0,-2.2l-1.1,0l0,2.2l-1.5,0l0,1l1.5,0l0,4.7c0,1.5,0.7,2.2,2.1,2.2c0.7,0,1.5,-0.2,2.3,-0.5l-0.2,-0.9Z" class="g4_47" />
<path d="M888.7,609.6c-0.1,0.1,-0.2,0.3,-0.2,0.5c0,0.2,0.1,0.4,0.2,0.6c0.2,0.2,0.4,0.2,0.6,0.2c0.2,0,0.4,0,0.5,-0.2c0.2,-0.2,0.3,-0.3,0.3,-0.6c0,-0.2,-0.1,-0.4,-0.3,-0.5c-0.1,-0.2,-0.3,-0.3,-0.5,-0.3c-0.2,0,-0.4,0.1,-0.6,0.3Zm1.1,2.7l-3.4,0l0,1l2.3,0l0,6.7l1.1,0l0,-7.7Z" class="g4_47" />
<path d="M900.8,618.8c-0.6,0.3,-1.2,0.4,-1.9,0.4c-0.3,0,-0.6,-0.1,-0.8,-0.4c-0.2,-0.2,-0.3,-0.6,-0.3,-1.1l0,-4.4l2.6,0l0,-1l-2.6,0l0,-2.2l-1.2,0l0,2.2l-1.5,0l0,1l1.5,0l0,4.7c0,1.5,0.7,2.2,2.1,2.2c0.8,0,1.5,-0.2,2.3,-0.5l-0.2,-0.9Z" class="g4_47" />
<path d="M909.5,619.5l-2,0l0,-10l-3,0l0,1l2,0l0,10l3,0l0,-1Z" class="g4_47" />
<path d="M919.5,615.8c0,-1.1,-0.3,-2,-0.9,-2.7c-0.6,-0.7,-1.3,-1,-2.2,-1c-1,0,-1.9,0.3,-2.5,1.1c-0.6,0.7,-0.9,1.7,-0.9,2.9c0,1.3,0.3,2.3,1,3c0.7,0.8,1.7,1.1,2.8,1.1c0.9,0,1.7,-0.1,2.4,-0.4l-0.2,-1c-0.7,0.3,-1.5,0.4,-2.2,0.4c-0.7,0,-1.3,-0.3,-1.9,-0.8c-0.5,-0.6,-0.7,-1.3,-0.7,-2.2l5.3,0l0,-0.4Zm-5.2,-0.6c0,-0.6,0.2,-1.1,0.6,-1.5c0.4,-0.4,0.9,-0.6,1.5,-0.6c0.5,0,0.9,0.2,1.3,0.6c0.4,0.4,0.5,0.9,0.5,1.5l-3.9,0Z" class="g4_47" />
<text 
x="875" 
y="620" 
dx="0,0,0,0,0" 
class="s3_47"
>title</text>

<text 
x="960" 
y="620" 
dx="0,0,0,0,0.1,0,0,0,0,0,0.1,0,0,0.1,0,0,0,0.1,0,0,0,0,0.1,0,0,0,0,0.1,0,0,0,0.1,0,-0.3,0,0,0,0,0" 
class="s2_47"
>The title of the page that the browser </text>

<text 
x="960" 
y="641" 
dx="0,0,0,0,0,-0.9,0,0,0,0,0,0,0,-0.9,0,0,-0.9,0,0,0,-0.9,0,0,0,0,-0.9,0,0,0" 
class="s2_47"
>will display in the page tab.</text>

<path d="M1260.1,356.1c0,-1.8,-0.7,-2.6,-2.2,-2.6c-0.9,0,-1.8,0.4,-2.6,1.3l0,-3.9l-1.2,0l0,10.5l1.2,0l0,-5.6c0.8,-0.9,1.6,-1.3,2.3,-1.3c0.4,0,0.8,0.1,1,0.4c0.2,0.3,0.3,0.8,0.3,1.5l0,5l1.2,0l0,-5.3Z" class="g4_47" />
<path d="M1267.7,353.5c-1,0,-1.8,0.5,-2.4,1.7l0,-1.6l-1.2,0l0,7.8l1.2,0l0,-5c0,-0.1,0.1,-0.3,0.4,-0.6c0.3,-0.4,0.6,-0.7,0.9,-0.9c0.3,-0.2,0.7,-0.3,1,-0.3c0.4,0,0.8,0.1,1.3,0.4l0.5,-1.2c-0.6,-0.2,-1.1,-0.3,-1.7,-0.3Z" class="g4_47" />
<path d="M1278.7,357.2c0,-1.1,-0.3,-2,-0.9,-2.7c-0.6,-0.7,-1.4,-1,-2.3,-1c-1,0,-1.8,0.3,-2.4,1.1c-0.7,0.7,-1,1.7,-1,2.9c0,1.3,0.4,2.3,1.1,3c0.7,0.7,1.6,1.1,2.8,1.1c0.9,0,1.7,-0.1,2.4,-0.4l-0.2,-1c-0.8,0.3,-1.5,0.4,-2.2,0.4c-0.8,0,-1.4,-0.3,-1.9,-0.9c-0.5,-0.5,-0.8,-1.3,-0.8,-2.1l5.4,0l0,-0.4Zm-5.3,-0.6c0.1,-0.6,0.3,-1.1,0.7,-1.5c0.4,-0.4,0.9,-0.6,1.5,-0.6c0.4,0,0.9,0.2,1.2,0.6c0.4,0.4,0.6,0.9,0.6,1.5l-4,0Z" class="g4_47" />
<path d="M1285.9,350.7c-0.8,0,-1.4,0.2,-1.8,0.6c-0.3,0.4,-0.5,1.1,-0.5,2.1l0,0.2l-1.9,0l0,1l1.9,0l0,6.8l1.2,0l0,-6.8l2.6,0l0,-1l-2.6,0l0,-0.1c0,-0.7,0.1,-1.2,0.2,-1.4c0.2,-0.3,0.5,-0.4,0.9,-0.4c0.4,0,0.9,0.1,1.5,0.3l0.3,-1c-0.7,-0.2,-1.3,-0.3,-1.8,-0.3Z" class="g4_47" />
<text 
x="1252" 
y="361" 
dx="0,0,0,0" 
class="s3_47"
>href</text>

<text 
x="1338" 
y="361" 
dx="0,0,0,0,4.8,0,0,0,0,0,0,4.8,0,0" 
class="s2_47"
>Use within an </text>

<path d="M1456.2,359.6l0,-3.3c0,-1.9,-0.9,-2.8,-2.7,-2.8c-0.9,0,-1.9,0.2,-3,0.8l0.3,0.8c0.4,-0.2,0.8,-0.3,1.2,-0.4c0.5,-0.2,0.8,-0.2,1.1,-0.2c1.3,0,1.9,0.6,1.9,2l0,0.3l-1.3,0.1c-0.6,0.1,-1.1,0.2,-1.5,0.3c-0.5,0.1,-0.8,0.3,-1.1,0.5c-0.3,0.2,-0.6,0.4,-0.7,0.7c-0.2,0.3,-0.2,0.6,-0.2,1c0,0.7,0.2,1.2,0.6,1.6c0.5,0.4,1,0.6,1.5,0.6c1.2,0,2.1,-0.5,2.7,-1.4c0,0.5,0.1,0.9,0.2,1.2l1.1,0c-0.1,-0.5,-0.1,-1.1,-0.1,-1.8Zm-2.3,0.5c-0.4,0.3,-0.8,0.4,-1.2,0.4c-0.4,0,-0.7,-0.1,-0.9,-0.3c-0.3,-0.2,-0.4,-0.5,-0.4,-0.9c0,-0.4,0.1,-0.7,0.4,-0.9c0.3,-0.2,0.6,-0.4,1,-0.4c0.4,-0.1,1.1,-0.2,2.2,-0.3l0,1.4c-0.3,0.4,-0.7,0.8,-1.1,1Z" class="g4_47" />
<text 
x="1448" 
y="361" 
dx="0" 
class="s3_47"
>a</text>

<text 
x="1466" 
y="361" 
dx="0,0,0,0,0,0,0,0,4.8,0,0,4.8,0,0,0,0" 
class="s2_47"
>element to make </text>

<text 
x="1338" 
y="382" 
dx="0,0,4,0,0,0,0,0,4,-1.4,0,0,4,0,0,0,4,0,0,0,4,0,0,0,-0.3,0,0,0,4,0,0,4,0,0,0" 
class="s2_47"
>a link. You put the address of the </text>

<text 
x="1338" 
y="404" 
dx="0,0,0,0,0,0.8,0,0,0,0.8,0,0,0,0,0.8,0,0,0.8,0,0,0,0,0.8,0,0,0.8,0,0,0.8,0,0,0" 
class="s2_47"
>page you want to link to in the </text>

<path d="M1560.3,398.9c0,-1.8,-0.7,-2.7,-2.2,-2.7c-0.9,0,-1.8,0.5,-2.6,1.4l0,-3.9l-1.2,0l0,10.5l1.2,0l0,-5.6c0.8,-0.9,1.5,-1.4,2.3,-1.4c0.4,0,0.8,0.2,1,0.5c0.2,0.3,0.3,0.8,0.3,1.5l0,5l1.2,0l0,-5.3Z" class="g4_47" />
<path d="M1567.9,396.2c-1,0,-1.8,0.6,-2.4,1.8l0,-1.6l-1.2,0l0,7.8l1.2,0l0,-5c0,-0.1,0.1,-0.3,0.4,-0.7c0.2,-0.3,0.5,-0.6,0.9,-0.8c0.3,-0.2,0.6,-0.3,1,-0.3c0.4,0,0.8,0.1,1.3,0.3l0.5,-1.1c-0.6,-0.2,-1.1,-0.4,-1.7,-0.4Z" class="g4_47" />
<path d="M1578.9,400c0,-1.2,-0.3,-2.1,-0.9,-2.7c-0.6,-0.7,-1.4,-1.1,-2.3,-1.1c-1,0,-1.8,0.4,-2.4,1.1c-0.7,0.8,-1,1.7,-1,3c0,1.2,0.4,2.2,1.1,3c0.7,0.7,1.6,1.1,2.8,1.1c0.9,0,1.7,-0.2,2.4,-0.5l-0.2,-0.9c-0.8,0.3,-1.5,0.4,-2.2,0.4c-0.8,0,-1.4,-0.3,-1.9,-0.9c-0.5,-0.6,-0.8,-1.3,-0.8,-2.2l5.4,0l0,-0.3Zm-5.3,-0.6c0,-0.6,0.3,-1.2,0.7,-1.6c0.4,-0.4,0.9,-0.6,1.5,-0.6c0.4,0,0.8,0.2,1.2,0.7c0.4,0.4,0.6,0.9,0.6,1.5l-4,0Z" class="g4_47" />
<path d="M1586.1,393.5c-0.9,0,-1.4,0.2,-1.8,0.6c-0.3,0.4,-0.5,1.1,-0.5,2.1l0,0.2l-1.9,0l0,1l1.9,0l0,6.8l1.2,0l0,-6.8l2.6,0l0,-1l-2.6,0l0,-0.1c0,-0.7,0.1,-1.2,0.2,-1.5c0.2,-0.2,0.5,-0.3,0.9,-0.3c0.4,0,0.9,0.1,1.5,0.2l0.3,-0.9c-0.7,-0.2,-1.3,-0.3,-1.8,-0.3Z" class="g4_47" />
<text 
x="1552" 
y="404" 
dx="0,0,0,0" 
class="s3_47"
>href</text>

<text 
x="1338" 
y="425" 
dx="0,0,0,0,0,0,0,0,0,0,0,4.6,0,0,0,0,4.6,0,0,0,0,4.6,0,0,0,0,0,0,4.6,0,0,0,4.6,0,0,0,0" 
class="s2_47"
>attribute. Also used within the link </text>

<text 
x="1338" 
y="446" 
dx="0,0,0,0,0,0,0,0,5.2,0,0,5.2,0,0,0,0,0,0,0,0,5.2,0,0,0,5.2,0,0,0,0,0,0,0,0,5.2,0,0" 
class="s2_47"
>element to identify the location of </text>

<text 
x="1338" 
y="468" 
dx="0,0,0,0,0,-0.9,0,0,0,-0.9,0,0,0,0,0,0,0,0,0,0" 
class="s2_47"
>your CSS stylesheet.</text>

<path d="M59.8,516c0,-1.8,-0.7,-2.6,-2.2,-2.6c-0.9,0,-1.8,0.4,-2.6,1.3l0,-3.9l-1.2,0l0,10.5l1.2,0l0,-5.6c0.8,-0.9,1.6,-1.3,2.3,-1.3c0.5,0,0.8,0.1,1,0.4c0.2,0.3,0.4,0.8,0.4,1.5l0,5l1.1,0l0,-5.3Z" class="g4_47" />
<path d="M68.7,520.3l-4.4,0c1.3,-1.5,2.2,-2.6,2.7,-3.1c0.4,-0.6,0.8,-1.2,1.1,-1.8c0.3,-0.6,0.5,-1.3,0.5,-1.9c0,-0.9,-0.3,-1.6,-0.9,-2.1c-0.6,-0.5,-1.3,-0.8,-2.3,-0.8c-0.8,0,-1.6,0.1,-2.3,0.5l0.1,1c0.9,-0.3,1.5,-0.4,2,-0.4c0.7,0,1.2,0.1,1.5,0.5c0.4,0.3,0.6,0.8,0.6,1.4c0,0.6,-0.2,1.2,-0.5,1.8c-0.2,0.6,-0.6,1.2,-1,1.7c-0.5,0.6,-1.4,1.7,-2.9,3.3l0,0.9l5.8,0l0,-1Z" class="g4_47" />
<text 
x="52" 
y="521" 
dx="0,0" 
class="s3_47"
>h2</text>

<text 
x="137" 
y="521" 
dx="0,0,7.4,0,0,0,0,0,0,0,0.3,0,7.4,0,0,0,0,0,0,0,7.4,0,7.4,0,0,0,0,7.4,0,0" 
class="s2_47"
>A secondary heading – used to </text>

<text 
x="137" 
y="542" 
dx="0,0,0,0,0,0,0,0.4,0,0,0.4,0,0.4,0,0,0,0,0.4,0,0,0,0,0.4,0,0,0,0,0.4,0,0,0,0,0,0,0,0,0,0" 
class="s2_47"
>divide up a long page into individual </text>

<text 
x="137" 
y="563" 
dx="0,0,0,0,0,0" 
class="s2_47"
>topics</text>

<path d="M60,229.7l0,-3.4c0,-1.8,-0.9,-2.8,-2.7,-2.8c-0.9,0,-1.9,0.3,-2.9,0.8l0.3,0.9c0.3,-0.2,0.7,-0.4,1.2,-0.5c0.4,-0.1,0.8,-0.2,1.1,-0.2c1.2,0,1.8,0.7,1.8,2l0,0.4L57.5,227c-0.6,0,-1.1,0.1,-1.5,0.2c-0.4,0.2,-0.8,0.3,-1.1,0.5c-0.3,0.2,-0.5,0.5,-0.7,0.8c-0.1,0.3,-0.2,0.6,-0.2,1c0,0.6,0.2,1.2,0.7,1.6c0.4,0.4,0.9,0.6,1.5,0.6c1.1,0,2,-0.5,2.7,-1.5c0,0.5,0,1,0.1,1.3l1.2,0C60.1,230.9,60,230.3,60,229.7Zm-2.2,0.5c-0.5,0.2,-0.9,0.4,-1.3,0.4c-0.4,0,-0.7,-0.1,-0.9,-0.4c-0.2,-0.2,-0.4,-0.5,-0.4,-0.8c0,-0.4,0.2,-0.7,0.5,-0.9c0.2,-0.2,0.6,-0.4,1,-0.5c0.4,-0.1,1.1,-0.1,2.1,-0.2l0,1.4c-0.3,0.4,-0.6,0.7,-1,1Z" class="g4_47" />
<text 
x="52" 
y="231" 
dx="0" 
class="s3_47"
>a</text>

<text 
x="138" 
y="231" 
dx="0,0,0.8,0,0,0,0,0,0.8,-1.4,0,0,0.8,0,0,0,0.8,0,0,0,0.8,0,0,0,0,0.8,0,0,0,0.8,0,0,0,0,0.8,0,0" 
class="s2_47"
>A link. You put the page you want to </text>

<text 
x="138" 
y="252" 
dx="0,0,0,0,0,-0.9,0,0,-0.9,0,0,-0.9,0,0,0" 
class="s2_47"
>link to in the </text>

<path d="M228,247.5c0,-1.7,-0.7,-2.6,-2.2,-2.6c-0.9,0,-1.8,0.4,-2.6,1.3l0,-3.9l-1.2,0l0,10.6l1.2,0l0,-5.7c0.8,-0.8,1.6,-1.3,2.3,-1.3c0.4,0,0.8,0.2,1,0.5c0.2,0.3,0.3,0.8,0.3,1.5l0,5l1.2,0l0,-5.4Z" class="g4_47" />
<path d="M235.6,244.9c-1,0,-1.8,0.6,-2.4,1.8l0,-1.6l-1.2,0l0,7.8l1.2,0l0,-5.1c0,0,0.1,-0.2,0.4,-0.6c0.3,-0.3,0.6,-0.6,0.9,-0.8c0.3,-0.2,0.7,-0.3,1,-0.3c0.4,0,0.8,0.1,1.3,0.3l0.5,-1.1c-0.6,-0.3,-1.1,-0.4,-1.7,-0.4Z" class="g4_47" />
<path d="M246.6,248.7c0,-1.2,-0.3,-2.1,-0.9,-2.8c-0.6,-0.7,-1.4,-1,-2.3,-1c-1,0,-1.8,0.4,-2.4,1.1c-0.7,0.7,-1,1.7,-1,3c0,1.2,0.4,2.2,1.1,3c0.7,0.7,1.6,1.1,2.8,1.1c0.9,0,1.7,-0.2,2.4,-0.5l-0.2,-0.9c-0.8,0.2,-1.5,0.4,-2.2,0.4c-0.8,0,-1.4,-0.3,-1.9,-0.9c-0.5,-0.6,-0.8,-1.3,-0.8,-2.2l5.4,0l0,-0.3Zm-5.3,-0.6c0.1,-0.7,0.3,-1.2,0.7,-1.6c0.4,-0.4,0.9,-0.6,1.5,-0.6c0.4,0,0.9,0.2,1.2,0.6c0.4,0.5,0.6,1,0.6,1.6l-4,0Z" class="g4_47" />
<path d="M253.8,242.2c-0.8,0,-1.4,0.2,-1.8,0.6c-0.3,0.3,-0.5,1,-0.5,2l0,0.3l-1.9,0l0,1l1.9,0l0,6.8l1.2,0l0,-6.8l2.6,0l0,-1l-2.6,0l0,-0.1c0,-0.8,0.1,-1.2,0.2,-1.5c0.2,-0.2,0.5,-0.3,0.9,-0.3c0.4,0,0.9,0,1.5,0.2l0.3,-0.9c-0.7,-0.2,-1.3,-0.3,-1.8,-0.3Z" class="g4_47" />
<text 
x="220" 
y="252" 
dx="0,0,0,0" 
class="s3_47"
>href</text>

<text 
x="260" 
y="252" 
dx="0,0,0,0,0,0,0,0,0,0" 
class="s2_47"
>attribute.</text>

<path d="M436.5,792.5l-2,0l0,-9l-3,0l0,1l2,0l0,9l3,0l0,-1Z" class="g4_47" />
<path d="M443.3,783.4c-0.1,0.1,-0.2,0.3,-0.2,0.5c0,0.2,0.1,0.4,0.2,0.6c0.2,0.1,0.4,0.2,0.6,0.2c0.2,0,0.4,-0.1,0.5,-0.2c0.2,-0.2,0.3,-0.4,0.3,-0.6c0,-0.2,-0.1,-0.4,-0.3,-0.5c-0.1,-0.2,-0.3,-0.3,-0.5,-0.3c-0.2,0,-0.4,0.1,-0.6,0.3Zm1.1,2.7l-3.4,0l0,1l2.3,0l0,6.7l1.1,0l0,-7.7Z" class="g4_47" />
<path d="M455.5,788.5c0,-1.7,-0.7,-2.6,-2.1,-2.6c-1,0,-1.9,0.4,-2.7,1.3l0,-1.1l-1.2,0l0,7.7l1.2,0l0,-5.6c0.8,-0.9,1.6,-1.3,2.3,-1.3c0.5,0,0.8,0.1,1,0.4c0.3,0.4,0.4,0.9,0.4,1.6l0,4.9l1.1,0l0,-5.3Z" class="g4_47" />
<path d="M461.5,789.2l3.5,-3.1l-1.5,0l-3.6,3.2l0,-6l-1.2,0l0,10.5l1.2,0l0,-3.2l0.7,-0.6l3.3,3.8l1.6,0l-4,-4.6Z" class="g4_47" />
<text 
x="429" 
y="793" 
dx="0,0,0,0" 
class="s3_47"
>link</text>

<text 
x="515" 
y="793" 
dx="0,0,-0.3,0,0,0,0,0,0" 
class="s2_47"
>Provides </text>

<text 
x="591" 
y="793" 
dx="0,0,0,0" 
class="s2_47"
>the </text>

<text 
x="629" 
y="793" 
dx="0,0,0,0,0" 
class="s2_47"
>link </text>

<text 
x="669" 
y="793" 
dx="0,0,0" 
class="s2_47"
>to </text>

<text 
x="698" 
y="793" 
dx="0,0,0,0" 
class="s2_47"
>the </text>

<text 
x="736" 
y="793" 
dx="0,0,0,0" 
class="s2_47"
>CSS </text>

<text 
x="515" 
y="815" 
dx="0,0,0,0,0,0,0,0,0,0,0,7.1,0,0,0,0,0,7.1,0,0,0,0,7.1,0,0,7.1,0,0,0,0,7.1,0,0" 
class="s2_47"
>stylesheet which will be used to </text>

<text 
x="515" 
y="836" 
dx="0,0,0,0.3,0,0,0,3,0,0,0,3,0,0,0,3,0,0,0,0,0,3,0,0,0,3,0,0,0,-0.3,0,0,0" 
class="s2_47"
>format the web page. The address </text>

<text 
x="515" 
y="858" 
dx="0,0,0,3.2,0,0,0,3.2,0,0,0,0,0,0,0,0,0,0,3.2,0,0,0,0,3.2,0,0,3.2,0,0,0" 
class="s2_47"
>of the stylesheet goes in the </text>

<path d="M737.4,852.7c0,-1.8,-0.7,-2.7,-2.2,-2.7c-0.9,0,-1.8,0.5,-2.6,1.4l0,-3.9l-1.2,0l0,10.5l1.2,0l0,-5.6c0.8,-0.9,1.5,-1.4,2.2,-1.4c0.5,0,0.9,0.2,1.1,0.5c0.2,0.3,0.3,0.8,0.3,1.5l0,5l1.2,0l0,-5.3Z" class="g4_47" />
<path d="M745,850c-1,0,-1.8,0.6,-2.5,1.8l0,-1.6l-1.1,0l0,7.8l1.1,0l0,-5c0,-0.1,0.2,-0.3,0.5,-0.6c0.2,-0.4,0.5,-0.7,0.9,-0.9c0.3,-0.2,0.6,-0.3,1,-0.3c0.3,0,0.8,0.1,1.3,0.4l0.5,-1.2C746.1,850.2,745.6,850,745,850Z" class="g4_47" />
<path d="M756,853.8c0,-1.1,-0.3,-2.1,-1,-2.7c-0.6,-0.7,-1.3,-1.1,-2.2,-1.1c-1,0,-1.8,0.4,-2.5,1.1c-0.6,0.8,-0.9,1.8,-0.9,3c0,1.2,0.3,2.2,1.1,3c0.7,0.7,1.6,1.1,2.7,1.1c1,0,1.8,-0.2,2.4,-0.5l-0.2,-0.9c-0.7,0.3,-1.4,0.4,-2.1,0.4c-0.8,0,-1.4,-0.3,-1.9,-0.9c-0.5,-0.5,-0.8,-1.3,-0.8,-2.1l5.4,0l0,-0.4Zm-5.3,-0.6c0,-0.6,0.3,-1.2,0.7,-1.6c0.3,-0.4,0.8,-0.6,1.4,-0.6c0.5,0,0.9,0.3,1.3,0.7c0.4,0.4,0.6,0.9,0.6,1.5l-4,0Z" class="g4_47" />
<path d="M763.2,847.3c-0.9,0,-1.4,0.2,-1.8,0.6c-0.3,0.4,-0.5,1.1,-0.5,2.1l0,0.2l-1.9,0l0,1l1.9,0l0,6.8l1.2,0l0,-6.8l2.6,0l0,-1l-2.6,0l0,-0.1c0,-0.7,0.1,-1.2,0.2,-1.4c0.2,-0.3,0.5,-0.4,0.9,-0.4c0.4,0,0.9,0.1,1.5,0.2l0.3,-0.9c-0.7,-0.2,-1.3,-0.3,-1.8,-0.3Z" class="g4_47" />
<text 
x="729" 
y="858" 
dx="0,0,0,0" 
class="s3_47"
>href</text>

<text 
x="515" 
y="879" 
dx="0,0,0,0,0,0,0,0,0,0" 
class="s2_47"
>attribute.</text>

<path d="M59.8,604.2c0,-1.8,-0.7,-2.7,-2.2,-2.7c-0.9,0,-1.8,0.5,-2.6,1.3l0,-3.9l-1.2,0l0,10.6l1.2,0l0,-5.7c0.8,-0.8,1.6,-1.3,2.3,-1.3c0.5,0,0.8,0.2,1,0.5c0.2,0.3,0.4,0.8,0.4,1.5l0,5l1.1,0l0,-5.3Z" class="g4_47" />
<path d="M66.6,603.8c0.5,-0.1,1,-0.4,1.4,-0.9c0.3,-0.5,0.5,-1,0.5,-1.5c0,-0.8,-0.3,-1.4,-0.9,-1.9C67,599,66.2,598.7,65.3,598.7c-0.7,0,-1.4,0.2,-2.1,0.5l0.2,1.1c0.7,-0.3,1.3,-0.5,1.8,-0.5c0.6,0,1.1,0.2,1.5,0.4c0.4,0.3,0.5,0.7,0.5,1.2c0,0.6,-0.2,1.1,-0.7,1.5c-0.5,0.3,-1.1,0.5,-1.9,0.5l-0.1,0l0,1l0.3,0c0.8,0,1.5,0.2,1.9,0.6c0.5,0.4,0.8,0.9,0.8,1.5c0,0.6,-0.3,1.1,-0.7,1.5c-0.5,0.4,-1,0.6,-1.6,0.6c-0.7,0,-1.4,-0.2,-2.1,-0.5l-0.2,1c0.6,0.4,1.4,0.6,2.2,0.6c1,0,1.8,-0.3,2.6,-1c0.7,-0.6,1.1,-1.4,1.1,-2.3c0,-0.6,-0.2,-1.1,-0.6,-1.6c-0.4,-0.5,-0.9,-0.8,-1.6,-1Z" class="g4_47" />
<text 
x="52" 
y="609" 
dx="0,0" 
class="s3_47"
>h3</text>

<text 
x="137" 
y="609" 
dx="0,0,4.2,0,0,0,0,0,4.2,0,0,0,0,0,0,0,4.2,0,4.2,0,0,0,0,4.2,0,0,4.2,0,0,0,0,0,0" 
class="s2_47"
>A minor heading – used to divide </text>

<text 
x="137" 
y="630" 
dx="0,0,0,0,0,-0.9,0,0,0,0,0,0,-0.9,0,0,-0.9,0,0,0,0,-0.9,0,0,0,0,0,0,0,-0.9,0,0,0,0,0" 
class="s2_47"
>long topics up into smaller chunks</text>

<path d="M60,361.4c0,-1.2,-0.3,-2.1,-0.9,-2.7c-0.6,-0.7,-1.3,-1.1,-2.2,-1.1c-1,0,-1.8,0.4,-2.5,1.1c-0.6,0.8,-0.9,1.7,-0.9,3c0,1.2,0.3,2.2,1,3c0.8,0.7,1.7,1.1,2.8,1.1c1,0,1.8,-0.2,2.4,-0.5l-0.2,-0.9c-0.7,0.3,-1.4,0.4,-2.1,0.4c-0.8,0,-1.4,-0.3,-1.9,-0.9c-0.5,-0.6,-0.8,-1.3,-0.8,-2.2l5.3,0l0,-0.3Zm-5.2,-0.6c0,-0.6,0.3,-1.2,0.6,-1.6c0.4,-0.4,0.9,-0.6,1.5,-0.6c0.5,0,0.9,0.2,1.3,0.7c0.4,0.4,0.6,0.9,0.6,1.5l-4,0Z" class="g4_47" />
<path d="M69.6,360.2c0,-1.7,-0.5,-2.6,-1.4,-2.6c-0.3,0,-0.6,0.2,-0.9,0.4c-0.3,0.2,-0.6,0.6,-0.8,1c-0.1,-0.4,-0.3,-0.8,-0.5,-1c-0.3,-0.2,-0.5,-0.4,-0.9,-0.4c-0.2,0,-0.5,0.2,-0.9,0.4c-0.3,0.2,-0.5,0.6,-0.7,1l0,-1.2l-1.1,0l0,7.8l1.1,0l0,-5.6c0,-0.1,0.2,-0.3,0.4,-0.7c0.3,-0.5,0.6,-0.7,0.8,-0.7c0.5,0,0.7,0.7,0.7,1.9l0,5.1l1.2,0l0,-5.6c0,-0.1,0.1,-0.3,0.4,-0.7c0.3,-0.5,0.5,-0.7,0.7,-0.7c0.5,0,0.7,0.7,0.7,1.9l0,5.1l1.2,0l0,-5.4Z" class="g4_47" />
<text 
x="52" 
y="365" 
dx="0,0" 
class="s3_47"
>em</text>

<text 
x="137" 
y="365" 
dx="0,0,0,0,0,0,0,1,0,0,0,1,0,0,1,0,0,0,0,1,0,0,0,0,0.3,0,0,0,0,1,0,0,-0.3,0,0" 
class="s2_47"
>Allows you to make important words </text>

<text 
x="137" 
y="386" 
dx="0,0,0,-0.3,0,0,0,0,0,0,0,-0.3,0,0,0,0,0,-0.3,0,0,0,-0.3,0,0,-0.3,0,0,0,0,0,0,0,0,0,-0.3,0,0" 
class="s2_47"
>or phrases stand out by appearing in </text>

<text 
x="137" 
y="408" 
dx="0,0,0,0,0,0,0,0,-0.9,0,0,0,0,0,0,-0.9,0,0,0,0" 
class="s2_47"
>sloping italic text.</text>

<path d="M883.4,226c0,-1.6,-0.5,-2.5,-1.4,-2.5c-0.3,0,-0.6,0.1,-0.9,0.4c-0.3,0.2,-0.6,0.6,-0.8,1c-0.1,-0.4,-0.2,-0.8,-0.5,-1c-0.2,-0.3,-0.5,-0.4,-0.8,-0.4c-0.3,0,-0.6,0.1,-0.9,0.4c-0.3,0.2,-0.6,0.6,-0.8,1l0,-1.2l-1.1,0l0,7.8l1.1,0l0,-5.6c0,-0.1,0.2,-0.3,0.4,-0.7c0.3,-0.5,0.6,-0.7,0.8,-0.7c0.5,0,0.7,0.6,0.7,1.9l0,5.1l1.2,0l0,-5.6c0,-0.1,0.1,-0.3,0.4,-0.7c0.3,-0.5,0.5,-0.7,0.8,-0.7c0.4,0,0.6,0.6,0.6,1.9l0,5.1l1.2,0l0,-5.5Z" class="g4_47" />
<path d="M892.2,227.3c0,-1.2,-0.3,-2.1,-0.9,-2.8c-0.6,-0.6,-1.4,-1,-2.3,-1c-1,0,-1.8,0.4,-2.4,1.1c-0.6,0.8,-1,1.7,-1,3c0,1.2,0.4,2.2,1.1,3c0.7,0.7,1.6,1.1,2.8,1.1c0.9,0,1.7,-0.2,2.4,-0.5l-0.2,-0.9c-0.8,0.2,-1.5,0.4,-2.2,0.4c-0.7,0,-1.4,-0.3,-1.9,-0.9c-0.5,-0.6,-0.7,-1.3,-0.7,-2.2l5.3,0l0,-0.3Zm-5.3,-0.6c0.1,-0.7,0.3,-1.2,0.7,-1.6c0.4,-0.4,0.9,-0.6,1.5,-0.6c0.5,0,0.9,0.2,1.3,0.6c0.3,0.5,0.5,1,0.5,1.6l-4,0Z" class="g4_47" />
<path d="M901,230.2c-0.6,0.3,-1.2,0.4,-1.9,0.4c-0.3,0,-0.6,-0.1,-0.8,-0.3C898.1,230,898,229.6,898,229.2l0,-4.5l2.6,0l0,-1l-2.6,0l0,-2.1l-1.2,0l0,2.1l-1.5,0l0,1l1.5,0l0,4.8c0,1.4,0.7,2.2,2.1,2.2c0.8,0,1.5,-0.2,2.3,-0.6L901,230.2Z" class="g4_47" />
<path d="M910.3,229.7l0,-3.4c0,-1.8,-0.9,-2.8,-2.7,-2.8c-0.9,0,-1.9,0.3,-2.9,0.8l0.3,0.9c0.3,-0.2,0.7,-0.4,1.2,-0.5c0.4,-0.1,0.8,-0.2,1.1,-0.2c1.2,0,1.8,0.7,1.8,2l0,0.4l-1.3,0.1c-0.6,0,-1.1,0.1,-1.5,0.2c-0.4,0.2,-0.8,0.3,-1.1,0.5c-0.3,0.2,-0.5,0.5,-0.7,0.8c-0.1,0.3,-0.2,0.6,-0.2,1c0,0.6,0.2,1.2,0.7,1.6c0.4,0.4,0.9,0.6,1.5,0.6c1.1,0,2,-0.5,2.7,-1.5c0,0.5,0,1,0.1,1.3l1.2,0c-0.1,-0.6,-0.2,-1.2,-0.2,-1.8Zm-2.2,0.5c-0.4,0.2,-0.9,0.4,-1.3,0.4c-0.3,0,-0.7,-0.1,-0.9,-0.4c-0.2,-0.2,-0.4,-0.5,-0.4,-0.8c0,-0.4,0.2,-0.7,0.5,-0.9c0.2,-0.2,0.6,-0.4,1,-0.5c0.4,-0.1,1.1,-0.1,2.1,-0.2l0,1.4c-0.3,0.4,-0.6,0.7,-1,1Z" class="g4_47" />
<text 
x="875" 
y="231" 
dx="0,0,0,0" 
class="s3_47"
>meta</text>

<text 
x="960" 
y="231" 
dx="0,0,-0.3,0,0,0,0,0,0,2.6,0,0,0,0,0.3,0,0,0,0,0,0,2.6,0,0,2.6,0,0,0,2.6,0,-0.3,0,0,0,0,0" 
class="s2_47"
>Provides information to the browser </text>

<text 
x="960" 
y="252" 
dx="0,0,0,0,0,0,4.5,0,0,4.5,0,0,0,0,4.5,0,0,4.5,0,0,0,0,0,0,0,4.5,0,0,0,4.5,0,0,0,0" 
class="s2_47"
>which it uses to display the page </text>

<text 
x="960" 
y="274" 
dx="0,0,0,0,-0.3,0,0,0,0" 
class="s2_47"
>correctly</text>

<path d="M877.8,397.1l-1.1,0l0,10.9l1.1,0l0,-4.2c0.3,0.4,0.6,0.7,1,0.9c0.4,0.3,0.9,0.4,1.4,0.4c0.9,0,1.6,-0.4,2.1,-1.2c0.6,-0.8,0.8,-1.8,0.8,-3c0,-1.2,-0.2,-2.1,-0.7,-2.9c-0.5,-0.7,-1.2,-1.1,-2.1,-1.1c-0.5,0,-1,0.1,-1.4,0.4c-0.5,0.2,-0.8,0.5,-1.1,0.8l0,-1Zm2.1,0.8c0.6,0,1.1,0.3,1.5,0.9c0.3,0.6,0.5,1.3,0.5,2.2c0,0.8,-0.2,1.6,-0.5,2.2c-0.4,0.6,-0.9,0.8,-1.5,0.8c-0.4,0,-0.8,-0.1,-1.2,-0.4c-0.4,-0.3,-0.7,-0.7,-0.9,-1.1l0,-3.2c0.6,-0.9,1.3,-1.4,2.1,-1.4Z" class="g4_47" />
<text 
x="875" 
y="404" 
dx="0" 
class="s3_47"
>p</text>

<text 
x="960" 
y="404" 
dx="0,0,8.1,0,0,0,0,0,0,0,0,0,0,8.1,0,-0.3,0,0,0,0,0,0,8.1,0,0,0,8.1,0,0,0,0" 
class="s2_47"
>A paragraph. Probably the most </text>

<text 
x="960" 
y="426" 
dx="0,0,0,0,0,0,0,6.8,0,0,0,0,0,0,0,0,6.8,0,0,6.8,0,0,0,6.8,0,0,0,0,6.8,0,0" 
class="s2_47"
>common element. If you want to </text>

<text 
x="960" 
y="447" 
dx="0,0,-0.3,0,0,0,0,1.3,0,0,0,0,0,0,0,0,0,1.3,0,0,0,0,0,1.3,0,0,1.3,0,0,0,0,0,0,0,0,0,0" 
class="s2_47"
>create ‘special’ types of paragraphs </text>

<text 
x="960" 
y="469" 
dx="0,0,0,0,0,0,1.7,0,0,1.7,0,0,0,0,1.7,0,0,1.7,0,0,0,0,0,0,1.7,0,0,0,1.7,0,0,0,1.7,0,0" 
class="s2_47"
>(such as Tips or Notes) you can do </text>

<text 
x="960" 
y="490" 
dx="0,0,0,-0.9,0,0,-0.9,0,0,0,0,0,-0.9,0" 
class="s2_47"
>so by using a </text>

<path d="M1060.6,489.2c-0.7,0.3,-1.4,0.4,-2,0.4c-0.9,0,-1.5,-0.3,-2,-0.9c-0.6,-0.5,-0.8,-1.3,-0.8,-2.1c0,-1,0.2,-1.7,0.7,-2.3c0.5,-0.5,1.2,-0.8,2.1,-0.8c0.5,0,1.2,0.1,1.9,0.4l0.3,-1c-0.7,-0.3,-1.5,-0.4,-2.3,-0.4c-1.1,0,-2.1,0.4,-2.8,1.1c-0.8,0.7,-1.1,1.7,-1.1,3c0,1.2,0.3,2.2,1,2.9c0.8,0.8,1.8,1.1,3,1.1c0.8,0,1.5,-0.1,2.2,-0.4l-0.2,-1Z" class="g4_47" />
<path d="M1069.5,489.5l-2,0l0,-10l-3,0l0,1l2,0l0,10l3,0l0,-1Z" class="g4_47" />
<path d="M1079.2,488.6l0,-3.3c0,-1.9,-0.9,-2.8,-2.7,-2.8c-0.9,0,-1.9,0.3,-2.9,0.8l0.3,0.8c0.3,-0.1,0.7,-0.3,1.1,-0.4c0.5,-0.1,0.8,-0.2,1.1,-0.2c1.3,0,1.9,0.7,1.9,2l0,0.4l-1.3,0.1c-0.6,0,-1.1,0.1,-1.5,0.2c-0.4,0.1,-0.8,0.3,-1.1,0.5c-0.3,0.2,-0.5,0.4,-0.7,0.7c-0.1,0.3,-0.2,0.7,-0.2,1c0,0.7,0.2,1.2,0.6,1.6c0.5,0.4,1,0.6,1.6,0.6c1.1,0,2,-0.4,2.7,-1.4c0,0.5,0,0.9,0.1,1.2l1.2,0c-0.2,-0.5,-0.2,-1.1,-0.2,-1.8Zm-2.3,0.6c-0.4,0.2,-0.8,0.3,-1.2,0.3c-0.4,0,-0.7,-0.1,-0.9,-0.3c-0.3,-0.2,-0.4,-0.5,-0.4,-0.8c0,-0.4,0.1,-0.7,0.4,-0.9c0.3,-0.3,0.7,-0.4,1,-0.5c0.4,-0.1,1.2,-0.2,2.2,-0.3l0,1.4c-0.3,0.5,-0.7,0.8,-1.1,1.1Z" class="g4_47" />
<path d="M1087.8,482.8c-0.8,-0.2,-1.5,-0.3,-2.1,-0.3c-1,0,-1.7,0.2,-2.3,0.6c-0.6,0.4,-0.9,0.9,-0.9,1.6c0,0.3,0,0.6,0.2,0.8c0.1,0.3,0.3,0.5,0.5,0.6c0.3,0.2,0.5,0.4,0.8,0.5c0.3,0,0.7,0.2,1.3,0.4c0.8,0.2,1.3,0.4,1.5,0.6c0.2,0.2,0.3,0.5,0.3,0.7c0,0.4,-0.2,0.8,-0.6,1c-0.4,0.2,-1,0.4,-1.6,0.4c-0.8,0,-1.5,-0.2,-2.1,-0.5l-0.2,1c0.6,0.3,1.4,0.4,2.3,0.4c1,0,1.8,-0.2,2.4,-0.6c0.6,-0.4,0.9,-1,0.9,-1.8c0,-0.3,0,-0.7,-0.2,-1c-0.2,-0.2,-0.4,-0.5,-0.7,-0.7c-0.4,-0.2,-0.8,-0.4,-1.3,-0.5l-1.1,-0.3c-0.5,-0.2,-0.8,-0.3,-1,-0.5c-0.2,-0.2,-0.3,-0.4,-0.3,-0.6c0,-0.3,0.2,-0.6,0.6,-0.8c0.4,-0.2,0.9,-0.3,1.5,-0.3c0.6,0,1.2,0.1,1.8,0.3l0.3,-1Z" class="g4_47" />
<path d="M1097,482.8c-0.8,-0.2,-1.5,-0.3,-2.1,-0.3c-1,0,-1.8,0.2,-2.4,0.6c-0.6,0.4,-0.8,0.9,-0.8,1.6c0,0.3,0,0.6,0.1,0.8c0.2,0.3,0.4,0.5,0.6,0.6c0.2,0.2,0.5,0.4,0.8,0.5c0.3,0,0.7,0.2,1.3,0.4c0.8,0.2,1.2,0.4,1.4,0.6c0.2,0.2,0.3,0.5,0.3,0.7c0,0.4,-0.2,0.8,-0.6,1c-0.4,0.2,-0.9,0.4,-1.5,0.4c-0.8,0,-1.5,-0.2,-2.1,-0.5l-0.3,1c0.7,0.3,1.4,0.4,2.4,0.4c1,0,1.8,-0.2,2.4,-0.6c0.6,-0.4,0.9,-1,0.9,-1.8c0,-0.3,-0.1,-0.7,-0.2,-1c-0.2,-0.2,-0.4,-0.5,-0.8,-0.7c-0.3,-0.2,-0.7,-0.4,-1.2,-0.5l-1.1,-0.3c-0.5,-0.2,-0.9,-0.3,-1,-0.5c-0.2,-0.2,-0.3,-0.4,-0.3,-0.6c0,-0.3,0.2,-0.6,0.6,-0.8c0.3,-0.2,0.8,-0.3,1.5,-0.3c0.5,0,1.1,0.1,1.8,0.3l0.3,-1Z" class="g4_47" />
<text 
x="1053" 
y="490" 
dx="0,0,0,0,0" 
class="s3_47"
>class</text>

<text 
x="1102" 
y="490" 
dx="0,0,0,0,0,0,0,0,0,0" 
class="s2_47"
>attribute.</text>

<path d="M882.3,526.3c-0.8,-0.2,-1.5,-0.4,-2.1,-0.4c-1,0,-1.8,0.2,-2.3,0.6c-0.6,0.4,-0.9,1,-0.9,1.6c0,0.3,0,0.6,0.2,0.9c0.1,0.2,0.3,0.4,0.5,0.6c0.3,0.2,0.5,0.3,0.8,0.4c0.3,0.1,0.7,0.2,1.3,0.4c0.8,0.3,1.3,0.5,1.5,0.7c0.2,0.2,0.3,0.4,0.3,0.7c0,0.4,-0.2,0.7,-0.6,1c-0.5,0.2,-1,0.3,-1.6,0.3c-0.8,0,-1.5,-0.1,-2.1,-0.4l-0.2,1c0.6,0.3,1.4,0.4,2.3,0.4c1,0,1.8,-0.2,2.4,-0.6c0.6,-0.5,0.9,-1,0.9,-1.8c0,-0.4,-0.1,-0.7,-0.2,-1c-0.2,-0.3,-0.4,-0.5,-0.7,-0.7c-0.4,-0.2,-0.8,-0.4,-1.3,-0.5l-1.1,-0.4c-0.5,-0.1,-0.9,-0.3,-1,-0.4c-0.2,-0.2,-0.3,-0.4,-0.3,-0.6c0,-0.4,0.2,-0.6,0.6,-0.9c0.3,-0.2,0.8,-0.3,1.5,-0.3c0.6,0,1.2,0.1,1.8,0.3l0.3,-0.9Z" class="g4_47" />
<path d="M891.9,532.7c-0.6,0.2,-1.3,0.4,-1.9,0.4c-0.4,0,-0.7,-0.1,-0.9,-0.4c-0.2,-0.3,-0.3,-0.6,-0.3,-1.1l0,-4.5l2.7,0l0,-1l-2.7,0l0,-2.1l-1.1,0l0,2.1l-1.5,0l0,1l1.5,0l0,4.8c0,1.5,0.7,2.2,2.1,2.2c0.7,0,1.5,-0.2,2.3,-0.5l-0.2,-0.9Z" class="g4_47" />
<path d="M899.6,525.9c-1,0,-1.8,0.6,-2.4,1.8l0,-1.6l-1.2,0l0,7.8l1.2,0l0,-5c0,-0.1,0.1,-0.3,0.4,-0.6c0.3,-0.4,0.6,-0.7,0.9,-0.9c0.3,-0.2,0.6,-0.3,1,-0.3c0.4,0,0.8,0.1,1.3,0.4l0.5,-1.2c-0.6,-0.2,-1.1,-0.4,-1.7,-0.4Z" class="g4_47" />
<path d="M904.8,527.1c-0.7,0.7,-1,1.7,-1,2.9c0,1.2,0.3,2.2,1,3c0.6,0.7,1.4,1.1,2.5,1.1c1.1,0,1.9,-0.4,2.6,-1.1c0.6,-0.8,0.9,-1.8,0.9,-3c0,-1.2,-0.3,-2.2,-0.9,-2.9c-0.7,-0.8,-1.5,-1.2,-2.6,-1.2c-1,0,-1.9,0.4,-2.5,1.2Zm0.8,5.1C905.2,531.6,905,530.9,905,530c0,-0.9,0.2,-1.6,0.6,-2.2c0.4,-0.6,1,-0.8,1.7,-0.8c0.7,0,1.3,0.2,1.7,0.8c0.4,0.6,0.6,1.3,0.6,2.2c0,0.9,-0.2,1.6,-0.6,2.2c-0.4,0.6,-1,0.9,-1.7,0.9c-0.7,0,-1.2,-0.3,-1.7,-0.9Z" class="g4_47" />
<path d="M919.5,528.6c0,-1.8,-0.7,-2.7,-2.2,-2.7c-0.9,0,-1.8,0.5,-2.6,1.4l0,-1.2l-1.2,0l0,7.8l1.2,0l0,-5.6c0.8,-0.9,1.6,-1.3,2.3,-1.3c0.4,0,0.8,0.1,1,0.4c0.2,0.3,0.3,0.8,0.3,1.5l0,5l1.2,0l0,-5.3Z" class="g4_47" />
<path d="M925.3,531c0.7,0,1.4,-0.3,1.9,-0.7c0.5,-0.5,0.7,-1.1,0.7,-1.8c0,-0.6,-0.1,-1,-0.3,-1.4l1.5,0l0,-1.2l-2.4,0.4c-0.4,-0.2,-0.9,-0.3,-1.4,-0.3c-0.8,0,-1.4,0.2,-1.9,0.7c-0.5,0.4,-0.7,1,-0.7,1.8c0,0.4,0.1,0.8,0.3,1.2c0.2,0.4,0.6,0.8,1,1c-0.9,0.5,-1.4,1,-1.4,1.6c0,0.4,0.4,0.8,1.1,1.2c-0.9,0.4,-1.3,0.9,-1.3,1.5c0,0.6,0.3,1.1,0.8,1.4c0.6,0.4,1.3,0.6,2.1,0.6c1.1,0,2,-0.3,2.8,-0.8c0.8,-0.5,1.2,-1.2,1.2,-2.1c0,-0.6,-0.2,-1,-0.6,-1.3c-0.3,-0.3,-0.8,-0.4,-1.4,-0.4l-2.6,0c-0.3,0,-0.5,0,-0.7,-0.1c-0.2,-0.1,-0.3,-0.2,-0.3,-0.4c0,-0.3,0.4,-0.6,1.1,-0.9c0.2,0,0.3,0,0.5,0Zm-1,-1.4c-0.3,-0.3,-0.5,-0.6,-0.5,-1.1c0,-0.5,0.2,-0.9,0.5,-1.2c0.2,-0.3,0.6,-0.4,1,-0.4c0.4,0,0.8,0.1,1.1,0.4c0.2,0.3,0.3,0.7,0.3,1.2c0,0.5,-0.1,0.9,-0.4,1.1c-0.2,0.3,-0.6,0.5,-1,0.5c-0.4,0,-0.8,-0.2,-1,-0.5Zm-0.3,6.2c-0.3,-0.3,-0.5,-0.5,-0.5,-0.8c0,-0.2,0.1,-0.4,0.2,-0.6c0.1,-0.2,0.3,-0.3,0.5,-0.5c0.2,-0.2,0.4,-0.3,0.5,-0.3c0.2,0,0.5,0,0.9,0c0.7,-0.1,1.1,-0.1,1.4,-0.1c0.7,0,1.1,0.3,1.1,0.8c0,0.5,-0.3,0.9,-0.8,1.3c-0.5,0.3,-1.2,0.5,-2,0.5c-0.5,0,-1,-0.1,-1.3,-0.3Z" class="g4_47" />
<text 
x="875" 
y="533" 
dx="0,0,0,0,0,0" 
class="s3_47"
>strong</text>

<text 
x="960" 
y="533" 
dx="0,0,0,0,0,0,0,1,0,0,0,1,0,0,1,0,0,0,0,1,0,0,0,0,0.3,0,0,0,0,1,0,0,-0.3,0,0" 
class="s2_47"
>Allows you to make important words </text>

<text 
x="960" 
y="555" 
dx="0,0,0,-0.3,0,0,0,0,0,0,0,-0.3,0,0,0,0,0,-0.3,0,0,0,-0.3,0,0,-0.3,0,0,0,0,0,0,0,0,0,-0.3,0,0" 
class="s2_47"
>or phrases stand out by appearing in </text>

<text 
x="960" 
y="576" 
dx="0,0,0,0,0,0,-0.9,0,0,0,0,-0.9,0,0,0,0" 
class="s2_47"
>heavy bold text.</text>

<path d="M883.2,677.5l-1.1,0l0,5.6c-0.8,0.9,-1.6,1.3,-2.3,1.3c-0.5,0,-0.9,-0.1,-1.1,-0.4c-0.2,-0.4,-0.3,-0.9,-0.3,-1.5l0,-5l-1.1,0l0,5.3c0,1.8,0.7,2.7,2.1,2.7c1,0,1.8,-0.5,2.7,-1.4l0,1.2l1.1,0l0,-7.8Z" class="g4_47" />
<path d="M891.5,684.5l-2,0l0,-10l-3,0l0,1l2,0l0,10l3,0l0,-1Z" class="g4_47" />
<text 
x="875" 
y="685" 
dx="0,0" 
class="s3_47"
>ul</text>

<text 
x="961" 
y="685" 
dx="0,0,0,5.1,0,0,0,-0.3,0,0,-0.3,0,0,5.1,0,0,0,0,0,5.1,0,0,0,0,5.1,0,0,5.1,0,-0.3,0,0,0,0" 
class="s2_47"
>An unordered list. Used to create </text>

<text 
x="961" 
y="706" 
dx="0,0,0,0,0,0,0,0,0,10.4,0,0,0,0,0,10.4,0,0,0,10.4,0,0,0,0,0,0,10.4,0,0,0,0" 
class="s2_47"
>bulleted lists and menus. Each </text>

<text 
x="961" 
y="728" 
dx="0,0,0,0,0,0,0,0,0,0,0,2.5,0,0,0,0,2.5,0,0,0,0,2.5,0,0,0,0,0,0,2.5,0,0,2.5,0,0,0,0,0,0" 
class="s2_47"
>individual list item should be inside </text>

<text 
x="961" 
y="749" 
dx="0,0,0" 
class="s2_47"
>an </text>

<path d="M988.5,748.5l-2,0l0,-10l-3,0l0,1l2,0l0,10l3,0l0,-1Z" class="g4_47" />
<path d="M995.4,739c-0.1,0.1,-0.2,0.3,-0.2,0.5c0,0.2,0.1,0.4,0.2,0.6c0.2,0.1,0.3,0.2,0.6,0.2c0.2,0,0.4,0,0.5,-0.2c0.2,-0.2,0.2,-0.3,0.2,-0.6c0,-0.2,0,-0.4,-0.2,-0.5c-0.1,-0.2,-0.3,-0.3,-0.5,-0.3c-0.3,0,-0.4,0.1,-0.6,0.3Zm1.1,2.7l-3.4,0l0,1l2.3,0l0,6.7l1.1,0l0,-7.7Z" class="g4_47" />
<text 
x="981" 
y="749" 
dx="0,0" 
class="s3_47"
>li</text>

<text 
x="1003" 
y="749" 
dx="0,0,0,0,0,0,0,0" 
class="s2_47"
>element.</text>

<path d="M434.2,371.8c-0.1,0.2,-0.2,0.3,-0.2,0.6c0,0.2,0.1,0.4,0.2,0.5c0.2,0.2,0.4,0.3,0.6,0.3c0.2,0,0.4,-0.1,0.5,-0.3c0.2,-0.1,0.3,-0.3,0.3,-0.5c0,-0.3,-0.1,-0.5,-0.3,-0.6c-0.1,-0.2,-0.3,-0.2,-0.5,-0.2c-0.2,0,-0.4,0,-0.6,0.2Zm1.1,2.7l-3.4,0l0,1l2.3,0l0,6.8l1.1,0l0,-7.8Z" class="g4_47" />
<path d="M444.7,371.6c-0.8,0,-1.4,0.2,-1.7,0.6c-0.4,0.3,-0.5,1,-0.5,2l0,0.3l-2,0l0,1l2,0l0,6.8l1.1,0l0,-6.8l2.6,0l0,-1l-2.6,0l0,-0.1c0,-0.8,0.1,-1.2,0.3,-1.5c0.1,-0.2,0.4,-0.3,0.8,-0.3c0.5,0,1,0,1.5,0.2l0.3,-0.9c-0.6,-0.2,-1.2,-0.3,-1.8,-0.3Z" class="g4_47" />
<path d="M454,374.3c-1,0,-1.8,0.6,-2.4,1.8l0,-1.6l-1.2,0l0,7.8l1.2,0l0,-5.1c0,0,0.1,-0.2,0.4,-0.6c0.3,-0.3,0.6,-0.6,0.9,-0.8c0.4,-0.2,0.7,-0.3,1,-0.3c0.4,0,0.8,0.1,1.4,0.3l0.4,-1.1c-0.5,-0.3,-1.1,-0.4,-1.7,-0.4Z" class="g4_47" />
<path d="M464.8,380.5l0,-3.4c0,-1.9,-0.9,-2.8,-2.7,-2.8c-0.9,0,-1.9,0.3,-2.9,0.8l0.3,0.9c0.3,-0.2,0.7,-0.4,1.1,-0.5c0.5,-0.1,0.9,-0.2,1.1,-0.2c1.3,0,1.9,0.7,1.9,2l0,0.4l-1.3,0.1c-0.6,0,-1.1,0.1,-1.5,0.2c-0.4,0.1,-0.8,0.3,-1.1,0.5c-0.3,0.2,-0.5,0.5,-0.7,0.8c-0.1,0.2,-0.2,0.6,-0.2,1c0,0.6,0.2,1.1,0.6,1.6c0.5,0.4,1,0.6,1.6,0.6c1.1,0,2,-0.5,2.7,-1.5c0,0.5,0,1,0.1,1.3l1.2,0c-0.2,-0.6,-0.2,-1.2,-0.2,-1.8Zm-2.3,0.5c-0.4,0.2,-0.8,0.3,-1.2,0.3c-0.4,0,-0.7,-0.1,-0.9,-0.3c-0.3,-0.2,-0.4,-0.5,-0.4,-0.8c0,-0.4,0.2,-0.7,0.4,-0.9c0.3,-0.2,0.7,-0.4,1.1,-0.5c0.3,-0.1,1.1,-0.2,2.1,-0.2l0,1.4c-0.3,0.4,-0.7,0.7,-1.1,1Z" class="g4_47" />
<path d="M474.6,376.8c0,-1.7,-0.5,-2.5,-1.5,-2.5c-0.2,0,-0.5,0.1,-0.8,0.4c-0.4,0.2,-0.6,0.6,-0.8,1c-0.1,-0.4,-0.3,-0.8,-0.5,-1c-0.3,-0.3,-0.6,-0.4,-0.9,-0.4c-0.3,0,-0.6,0.1,-0.9,0.4c-0.3,0.2,-0.5,0.6,-0.8,1l0,-1.2l-1.1,0l0,7.8l1.2,0l0,-5.6c0,-0.1,0.1,-0.3,0.4,-0.7c0.3,-0.5,0.5,-0.7,0.8,-0.7c0.4,0,0.7,0.6,0.7,1.9l0,5.1l1.1,0l0,-5.6c0,-0.1,0.2,-0.3,0.4,-0.7c0.3,-0.5,0.6,-0.7,0.8,-0.7c0.5,0,0.7,0.6,0.7,1.9l0,5.1l1.2,0l0,-5.5Z" class="g4_47" />
<path d="M483.3,378.1c0,-1.2,-0.3,-2.1,-0.9,-2.8c-0.6,-0.7,-1.3,-1,-2.2,-1c-1,0,-1.8,0.4,-2.5,1.1c-0.6,0.7,-0.9,1.7,-0.9,3c0,1.2,0.3,2.2,1,3c0.8,0.7,1.7,1.1,2.8,1.1c1,0,1.8,-0.2,2.4,-0.5l-0.2,-0.9c-0.7,0.2,-1.4,0.4,-2.1,0.4c-0.8,0,-1.4,-0.3,-1.9,-0.9C478.3,380,478,379.3,478,378.4l5.3,0l0,-0.3Zm-5.2,-0.6c0,-0.7,0.3,-1.2,0.6,-1.6c0.4,-0.4,0.9,-0.6,1.5,-0.6c0.5,0,0.9,0.2,1.3,0.6c0.4,0.5,0.6,1,0.6,1.6l-4,0Z" class="g4_47" />
<text 
x="429" 
y="382" 
dx="0,0,0,0,0,0" 
class="s3_47"
>iframe</text>

<text 
x="515" 
y="382" 
dx="0,0,0" 
class="s2_47"
>An </text>

<text 
x="545" 
y="382" 
dx="0,0,0,0,0,0" 
class="s4_47"
>iframe</text>

<text 
x="603" 
y="382" 
dx="0,0,0,0,0,0,0,7.5,0,0,0,7.5,0,0,7.5,0,0,0,0,0" 
class="s2_47"
>allows you to embed </text>

<text 
x="515" 
y="403" 
dx="0,0,0,0,0,0,0,0,3.9,0,-0.3,0,0,3.9,0,0,0,0,0,0,0,3.9,0,0,0,0,0,3.9,0,0,0,0,3.9,0,0" 
class="s2_47"
>content from another site, such as </text>

<text 
x="515" 
y="425" 
dx="0,-1.4,0,0,-1.4,0,0,0,-0.1,0,0,-0.1,0,0,0,0,0,0,-0.1,0,0,0,0,-0.1,0,0,0,0,0,0,-0.1,0,0,0,0" 
class="s2_47"
>YouTube or Google Maps inside your </text>

<text 
x="515" 
y="446" 
dx="0,0,0,0,0,0,0,0,0,1.3,-1.4,0,0,1.3,0,0,0,1.3,0,0,0,-0.3,0,1.3,0,0,1.3,0,0,0,0,1.3,0,0,0" 
class="s2_47"
>webpage. You say where to find the </text>

<text 
x="515" 
y="467" 
dx="0,0,0,0,0,0,0,0,0.3,0,0,0.3,0,0,0,0,0,0,0,0,0.3,0,0.3,0,0,0,0.3,0,0,0,0,0,0,0.3,0,0,0" 
class="s2_47"
>content by entering a URL inside the </text>

<text 
x="515" 
y="489" 
dx="0,0,0,0,0,0,0,-1.1,0" 
class="s2_47"
>iframe’s </text>

<path d="M578.1,481.6c-0.8,-0.2,-1.5,-0.3,-2.1,-0.3c-1,0,-1.7,0.1,-2.3,0.5c-0.6,0.4,-0.9,1,-0.9,1.6c0,0.3,0.1,0.6,0.2,0.9c0.1,0.2,0.3,0.4,0.5,0.6c0.3,0.2,0.5,0.3,0.8,0.4c0.3,0.1,0.8,0.2,1.4,0.4c0.7,0.3,1.2,0.5,1.4,0.7c0.2,0.2,0.3,0.4,0.3,0.7c0,0.4,-0.2,0.7,-0.6,1c-0.4,0.2,-1,0.3,-1.6,0.3c-0.7,0,-1.4,-0.1,-2.1,-0.4l-0.2,1c0.6,0.3,1.4,0.4,2.3,0.4c1,0,1.8,-0.2,2.4,-0.6c0.6,-0.5,0.9,-1,0.9,-1.8c0,-0.4,0,-0.7,-0.2,-1c-0.2,-0.3,-0.4,-0.5,-0.7,-0.7c-0.3,-0.2,-0.8,-0.4,-1.3,-0.5l-1.1,-0.4c-0.5,-0.1,-0.8,-0.3,-1,-0.4c-0.2,-0.2,-0.3,-0.4,-0.3,-0.6c0,-0.4,0.2,-0.6,0.6,-0.9c0.4,-0.2,0.9,-0.3,1.5,-0.3c0.6,0,1.2,0.1,1.8,0.3l0.3,-0.9Z" class="g4_47" />
<path d="M586.2,481.3c-1,0,-1.8,0.5,-2.4,1.7l0,-1.6l-1.1,0l0,7.8l1.1,0l0,-5c0,-0.1,0.2,-0.3,0.4,-0.6c0.3,-0.4,0.6,-0.7,0.9,-0.9c0.4,-0.2,0.7,-0.3,1,-0.3c0.4,0,0.9,0.1,1.4,0.4l0.4,-1.2c-0.5,-0.2,-1.1,-0.3,-1.7,-0.3Z" class="g4_47" />
<path d="M596.8,488c-0.7,0.3,-1.4,0.4,-2.1,0.4c-0.8,0,-1.5,-0.3,-2,-0.9c-0.5,-0.6,-0.8,-1.3,-0.8,-2.2c0,-0.9,0.3,-1.7,0.8,-2.2c0.5,-0.6,1.2,-0.8,2,-0.8c0.6,0,1.2,0.1,1.9,0.3l0.3,-0.9c-0.7,-0.3,-1.4,-0.4,-2.2,-0.4c-1.2,0,-2.2,0.3,-2.9,1.1c-0.7,0.7,-1.1,1.7,-1.1,2.9c0,1.3,0.4,2.3,1.1,3c0.7,0.7,1.7,1.1,2.9,1.1c0.8,0,1.6,-0.1,2.3,-0.5L596.8,488Z" class="g4_47" />
<text 
x="571" 
y="489" 
dx="0,0,0" 
class="s3_47"
>src</text>

<text 
x="601" 
y="489" 
dx="0,0,0,0,0,0,0,0,0,0" 
class="s2_47"
>attribute.</text>

<path d="M129,172l0,5l-4,0l0,20l4,0l0,4l268,0l0,-4l5,0l0,-20l-5,0l0,-5Z" class="g3_47" />
<text 
transform="matrix(0.98, 0, 0, 1, 134, 193)"
dx="0,0,0,0,0,0,0" 
class="s5_47"
>Meaning</text>

<path d="M1329,172l0,4l-4,0l0,21l4,0l0,4l269,0l0,-4l4,0l0,-21l-4,0l0,-4Z" class="g3_47" />
<text 
transform="matrix(0.98, 0, 0, 1, 1334, 193)"
dx="0,0,0,0,0,0,0" 
class="s6_47"
>Meaning</text>

<path d="M506,172l0,5l-4,0l0,20l4,0l0,4l269,0l0,-4l4,0l0,-20l-4,0l0,-5Z" class="g3_47" />
<text 
transform="matrix(0.98, 0, 0, 1, 511, 193)"
dx="0,0,0,0,0,0,0" 
class="s7_47"
>Meaning</text>

<path d="M952,172l0,4l-5,0l0,21l5,0l0,4l268,0l0,-4l5,0l0,-21l-5,0l0,-4Z" class="g3_47" />
<text 
transform="matrix(0.98, 0, 0, 1, 956, 193)"
dx="0,0,0,0,0,0,0" 
class="s8_47"
>Meaning</text>

<path d="M47,172l0,5l-4,0l0,20l4,0l0,4l68,0l0,-4l4,0l0,-20l-4,0l0,-5Z" class="g3_47" />
<text 
transform="matrix(0.98, 0, 0, 1, 52, 193)"
dx="0,0,0,0,0,0,0" 
class="s9_47"
>Element</text>

<path d="M1247,172l0,4l-4,0l0,21l4,0l0,4l68,0l0,-4l4,0l0,-21l-4,0l0,-4Z" class="g3_47" />
<text 
transform="matrix(0.98, 0, 0, 1, 1250, 193)"
dx="0,0,0,0,0,0,-0.3,0,0" 
class="s10_47"
>Attribute</text>

<path d="M424,172l0,5l-4,0l0,20l4,0l0,4l68,0l0,-4l4,0l0,-20l-4,0l0,-5Z" class="g3_47" />
<text 
transform="matrix(0.98, 0, 0, 1, 429, 193)"
dx="0,0,0,0,0,0,0" 
class="s11_47"
>Element</text>

<path d="M870,172l0,4l-4,0l0,21l4,0l0,4l68,0l0,-4l4,0l0,-21l-4,0l0,-4Z" class="g3_47" />
<text 
transform="matrix(0.98, 0, 0, 1, 875, 193)"
dx="0,0,0,0,0,0,0" 
class="s12_47"
>Element</text>

<text 
x="1590" 
y="1019" 
dx="0,-1.4" 
class="s13_47"
>93</text>

<text 
x="36" 
y="1019" 
dx="0,-1.3" 
class="s13_47"
>92</text>



<!-- Any embedded fonts defined here -->
<style type="text/css" ><![CDATA[

@font-face {
	font-family: Helvetica-Light_1by;
	src: url("fonts/Helvetica-Light_1by.woff") format("woff");
}

@font-face {
	font-family: Helvetica-Bold_19c;
	src: url("fonts/Helvetica-Bold_19c.woff") format("woff");
}

@font-face {
	font-family: PixelSplitter-Bold_1bs;
	src: url("fonts/PixelSplitter-Bold_1bs.woff") format("woff");
}

@font-face {
	font-family: Helvetica-Bold_196;
	src: url("fonts/Helvetica-Bold_196.woff") format("woff");
}

@font-face {
	font-family: Helvetica-Bold_190;
	src: url("fonts/Helvetica-Bold_190.woff") format("woff");
}

@font-face {
	font-family: Helvetica-Bold_19o;
	src: url("fonts/Helvetica-Bold_19o.woff") format("woff");
}

@font-face {
	font-family: AndaleMono_1cn;
	src: url("fonts/AndaleMono_1cn.woff") format("woff");
}

@font-face {
	font-family: PixelSplitter-Bold_18w;
	src: url("fonts/PixelSplitter-Bold_18w.woff") format("woff");
}

@font-face {
	font-family: Helvetica-Bold_19u;
	src: url("fonts/Helvetica-Bold_19u.woff") format("woff");
}

@font-face {
	font-family: Helvetica-Bold_18q;
	src: url("fonts/Helvetica-Bold_18q.woff") format("woff");
}

@font-face {
	font-family: Helvetica-Bold_19i;
	src: url("fonts/Helvetica-Bold_19i.woff") format("woff");
}

@font-face {
	font-family: Helvetica-Bold_19-;
	src: url("fonts/Helvetica-Bold_19-.woff") format("woff");
}

@font-face {
	font-family: Helvetica-Bold_1bu;
	src: url("fonts/Helvetica-Bold_1bu.woff") format("woff");
}

]]></style>

</svg>
