<?xml version="1.0" encoding="UTF-8" standalone="no"?>
<!DOCTYPE svg PUBLIC "-//W3C//DTD SVG 1.1//EN"
"http://www.w3.org/Graphics/SVG/1.1/DTD/svg11.dtd">


<!-- Page 48 -->
<svg x="0" y="0" width="1645" height="1061" viewBox="0 0 1645 1061" version="1.1" xmlns="http://www.w3.org/2000/svg" xmlns:xlink="http://www.w3.org/1999/xlink"
style="display: block;margin-left: auto;margin-right: auto;">
<defs>
<clipPath id="c0_48"><path d="M380.5,1010.5l0,-68l81,0l0,68Z" /></clipPath>

<style type="text/css"><![CDATA[

.g2_48{
fill: #FAAD60;
}
.g3_48{
fill: none;
stroke: #11151D;
stroke-width: 1;
stroke-linecap: butt;
stroke-linejoin: miter;
stroke-miterlimit: 3;
}
.g1_48{
fill: #11151D;
}

.s2_48{
font-size: 15.28px;
font-family: Helvetica-Light_1by;
fill: #11151D;
}
.s3_48{
font-size: 15.28px;
font-family: AndaleMono_1cn;
fill: #11151D;
}
.s4_48{
font-size: 33.61px;
font-family: PixelSplitter-Bold_1ai;
fill: #FFFFFF;
}
.s1_48{
font-size: 42.39px;
font-family: PixelSplitter-Bold_1bs;
fill: #11151D;
}

]]></style>

</defs>
<path d="M0,0
L0,1061
L1645,1061
L1645,0 Z " 
fill="#FFFFFF" stroke="none" />
<image x="-33" y="-32" width="1713" height="1115" xlink:href="48/img/1.png" />
<image x="-13" y="-11" width="1674" height="1073" opacity="0.5" style="mix-blend-mode: multiply;" xlink:href="48/img/2.png" />
<image x="-13" y="-32" width="1694" height="1116" xlink:href="48/img/3.png" />
<g clip-path="url(#c0_48)">
<path fill-rule="evenodd" d="M414.5,1000.6l-0.4,0c-0.8,0,-1.6,0,-2.4,0c-0.2,0,-0.4,0.1,-0.5,0.1c-0.5,0.1,-0.9,0.6,-0.8,1.1c0.1,0.6,0.5,0.9,1.1,0.9c2.7,0,5.4,0,8.1,0c0,0,0.1,0,0.2,0c0.4,0,0.7,-0.3,0.8,-0.7c0.1,-0.1,0.1,-0.3,0.1,-0.4c0,-1.7,0,-3.4,0,-5.1c0,-0.1,0,-0.2,0,-0.2c-0.1,-0.6,-0.7,-1.1,-1.3,-0.9c-0.5,0.1,-0.7,0.5,-0.7,1c-0.1,1.3,0,2.5,0,3.8l0,0.4c-0.7,0,-1.4,0.1,-2.1,0l0,-1.6c0,-0.5,0,-1,0,-1.5l0,-1.6l0,-1.5c0,-0.6,0,-1.1,0,-1.6c0,-0.6,0,-1.1,0,-1.6l0,-1.5c0,-0.6,0,-1.1,0,-1.6c0,-0.5,0,-1,0,-1.6l-1.3,0c-1.3,0,-2.6,0,-3.8,0c-0.6,0,-1.1,0.5,-1.1,1.1c0,0.5,0.5,1,1,1c0.9,0,1.8,0,2.7,0l0.4,0Zm-9,7.6c0,-0.1,0,-0.1,0,-0.1c0,-0.1,-0.1,-0.1,-0.2,-0.2c-1,-0.6,-1.9,-1.4,-2.8,-2.3c-3.9,-4.1,-5.5,-9,-4.7,-14.7c0.6,-4.1,2.5,-7.5,5.6,-10.3c3.4,-2.9,7.3,-4.4,11.7,-4.4c0.9,0,1.8,-0.1,2.6,-0.2c3.8,-0.6,7.1,-2.3,9.7,-5.2c3.4,-3.9,4.7,-8.4,3.8,-13.5c-0.7,-4.1,-2.9,-7.4,-6.2,-9.9c-2.5,-1.9,-5.3,-2.9,-8.4,-3.2c-1.1,-0.1,-2.2,-0.1,-3.3,0c-2.1,0.1,-4.2,0.4,-6.3,0.9c-9.5,2.4,-17.4,8.7,-21.8,17.6c-1.8,3.8,-2.9,7.8,-3.2,12.1c-0.1,1.5,-0.1,3.1,0.1,4.6c0.1,1.9,0.4,3.8,0.9,5.6c1.5,5.8,4.5,10.8,8.8,15c3.8,3.8,8.3,6.5,13.4,8.1c0.1,0,0.2,0,0.3,0.1m11.1,-65.4c0.5,0,1,0.1,1.5,0.1c4.1,0.4,8.1,1.4,11.9,3.3c8.3,4.1,14.1,10.6,17.3,19.3c0.9,2.5,1.5,5.1,1.7,7.8c1.8,16.3,-8.3,31,-23.2,35.9c-2.5,0.8,-5.1,1.4,-7.8,1.6c-0.5,0,-1,0,-1.5,0.1c-0.2,0,-0.3,0,-0.5,0l-1.9,0c-0.2,0,-0.4,0,-0.6,0c-2,-0.1,-3.9,-0.4,-5.8,-0.8c-8,-1.8,-14.6,-5.9,-19.7,-12.3c-4.4,-5.4,-6.8,-11.7,-7.3,-18.7c0,-0.3,-0.1,-0.6,-0.1,-0.9l0,-2.7c0,-0.3,0.1,-0.6,0.1,-0.9c0.2,-2.6,0.6,-5,1.4,-7.5c3,-9.5,9,-16.5,18,-20.9c3.9,-1.9,8,-2.9,12.3,-3.3c0.5,0,1,-0.1,1.6,-0.1Z" class="g1_48" />
</g>
<path fill-rule="evenodd" d="M411.2,963.5l6.1,0c0.1,-0.5,0.1,-11.7,0,-12l-6.1,0Zm8.2,-6c0,2,0,4,0,6c0,1.1,-0.8,2.1,-2.1,2.1c-2.1,0,-4.1,0,-6.2,0c-1,0,-1.7,-0.6,-2,-1.5c0,-0.2,0,-0.4,0,-0.6c0,-4,0,-8,0,-12.1c0,-0.4,0,-0.7,0.3,-1.1c0.4,-0.6,0.9,-0.9,1.7,-0.9c2.1,0,4.2,0,6.3,0c1,0,2,0.9,2,1.9c0,2.1,0,4.1,0,6.2Z" class="g1_48" />
<path d="M47,53l0,4l-4,0l0,40l4,0l0,4l234,0l0,-4l4,0l0,-40l-4,0l0,-4Z" class="g2_48" />
<text 
transform="matrix(0.98, 0, 0, 1, 56, 150)"
dx="0" 
class="s1_48"
>B</text>

<text 
transform="matrix(0.98, 0, 0, 1, 89, 128)"
dx="0,0,6.7,0,0,-0.8,0,6.7,0,0,0,6.7,0,0,0,0,6.7,0,0,0,0,6.7,0,0,0.3,0,6.7,0,0,0,6.7,0,0,0,0,0,0,0,6.7,0,0,6.7,0,0,0" 
class="s2_48"
>y now, you have your very own website up and </text>

<text 
transform="matrix(0.98, 0, 0, 1, 89, 150)"
dx="0,0,0,0,0,0,0,0,0,0.9,0,0,0,0,0,0,0,0,0,0,0,0,0,0,0,0,0.9,0,0,0.9,0,0,0,0,0,-0.3,0,0.9,0,0,0,0,0.9,0,0,0,-0.3,0,0,0.9,0,0,0,0,0,0,0" 
class="s2_48"
>running. Congratulations! It doesn’t stop there, though. </text>

<text 
transform="matrix(0.98, 0, 0, 1, 56, 171)"
dx="0,0,0,0,0,0,2.4,0,0,0,2.4,0,0,0,2.4,0,0,0,0,0,0,0,0,0,2.4,0,0,0,0,2.4,0,0,0,2.4,0,0,0,2.4,0,0,2.4,0,0,0,0.3,0,0,0,0,-0.3,0,0,2.4,0,0,-1.1,0,2.4,0,0" 
class="s2_48"
>Code, and the computers that run it, is everywhere. It’s in </text>

<text 
transform="matrix(0.98, 0, 0, 1, 56, 193)"
dx="0,0,0,0,0,0,0,0,0,3.4,0,0,0,0,0,0,0,0,3.4,0,0,0,0,0,0,3.4,0,0,0,0,0,0,3.4,0,0,0,3.4,0,0,0,0,0,3.4,0,0,0,0,0,0,0,0,0,3.4,0,0,-1.1,0" 
class="s2_48"
>laptops, tablets, mobile phones and games consoles. It’s </text>

<text 
transform="matrix(0.98, 0, 0, 1, 56, 214)"
dx="0,0,0,2,0,0,0,0.3,0,0,0,0,0,0,2,0,-0.3,0,0,2,0,0,0,2,0,0,0,0,0,0,0,2,0,0,0,2,-0.3,0,0,0,0,0,0,0,0,0,0,0,0,2,0,0,2,0,0,0,0,0,0,0,0" 
class="s2_48"
>in everything from car engines and refrigerators to electric </text>

<text 
transform="matrix(0.98, 0, 0, 1, 56, 235)"
dx="0,0,0,0,0,0,0,0,0,0,0,0,0,0" 
class="s2_48"
>toothbrushes! </text>

<text 
transform="matrix(0.98, 0, 0, 1, 56, 278)"
dx="0,0,0,0,0.5,0,0,0,0,0,0,0,0,0.5,-0.3,0,0,0,0,0,0,0,0,0,0.5,0,0,0,0,0,0,0.5,0,0,0,0,0,0,0.5,0,0,0,0.3,0,0,0,0,0,0,0.5,0,0,0.5,0,0,0,0,0.5,0,0,0" 
class="s2_48"
>The computer revolution didn't happen overnight. It took the </text>

<text 
transform="matrix(0.98, 0, 0, 1, 56, 299)"
dx="0,0,0,0,0,0,0.3,0,0,0,0,0.3,0,0,0,0.3,0,0,-0.3,0,0.3,0,0,0,0,0.3,0,0,0.3,0,0,0,0,0.3,0,0,0,0,0,0,0,0.3,0,0,0,0,0,0,0,0.3,0,0,0,0,0,0,0,0" 
class="s2_48"
>cleverness and hard work of many people, working together </text>

<text 
transform="matrix(0.98, 0, 0, 1, 56, 321)"
dx="0,0,0,0,-0.9,0,0,0,0,0,0,0,-0.9,0,0,0,0,0,-0.9,0,0,0,0,0" 
class="s2_48"
>and sharing their ideas.</text>

<text 
transform="matrix(0.98, 0, 0, 1, 56, 364)"
dx="0,0,0,0,0,0,0,0,0,0,0,0,0,0,0,0,0,0,0,0,0,0,0,0,0,0,0,-0.3,0,0,0,0,0,0,0,0,0,0,0,0,0,0,0,0,0,0,0,0,0,0,0,0,0,0,0,0,0,0,0,0" 
class="s2_48"
>A long time ago in Cork, Ireland, a man called George Boole </text>

<text 
transform="matrix(0.98, 0, 0, 1, 56, 385)"
dx="0,0,0,0,0.7,0,0.7,-0.3,0,0,0,0,0,0.7,0,0,0,0,0,0,0,0.7,0,0,0,0,0,0.7,0,0,0,0,0,0,0,0.7,0,0,0.7,0,0,0,0,0,0,0.7,0,0,0.7,0,0,0,0.7,0,0,0,0.7,0,0,0.3,0,0" 
class="s2_48"
>had a really amazing idea: instead of having to use all sorts </text>

<text 
transform="matrix(0.98, 0, 0, 1, 56, 406)"
dx="0,0,0,0.3,0,0,-0.3,0,0,-0.3,0,0,0,0.3,0,0,0,0,0,0,0,0.3,0,0,0.3,0,0,0,0,0.3,0,0,0.3,0,0.3,0,-0.3,0,0,0,0,0,0,0.3,0,0,0,0.3,0,0,0,0,0,0.3,0,0,0,0,0.3,0,0,0" 
class="s2_48"
>of different numbers to look at a problem, you could just use </text>

<text 
transform="matrix(0.98, 0, 0, 1, 56, 428)"
dx="0,0,-0.9,0,0,0,-0.9,0,0" 
class="s2_48"
>0 and 1. </text>

<text 
transform="matrix(0.98, 0, 0, 1, 56, 471)"
dx="0,0,0,6.2,0,-0.3,0,0,0,0,6.2,0,0,0,6.2,0,0,0,0,6.2,0,0,0,0,6.2,0,6.2,0,0,0,0,0,0,0,0,0,0,0,0,0,6.2,0,0,0,0,0,0,6.2,0,0,0" 
class="s2_48"
>At around the same time a mathematician called Ada </text>

<text 
transform="matrix(0.98, 0, 0, 1, 56, 492)"
dx="0,0,0,0,0,0,0,0,0,5.4,0,0,0,5.4,0,0,0,0,0,0,0,5.4,0,0,0,0,5.4,0,5.4,0,0,0,0,0,0,0,0,0,0,5.4,0,0,0,0,0,0,5.4,0,0,0,0,0,0" 
class="s2_48"
>Lovelace was working with a mechanical genius called </text>

<text 
transform="matrix(0.98, 0, 0, 1, 56, 513)"
dx="0,0,0,0,0,0,0,0,2.7,0,0,0,0,0,0,0,0,2.7,0,0,0,2.7,0,0,0,2.7,0,0,0,0,0,0,2.7,0,2.7,0,0,0,0,0,0,0,2.7,0,0,0,0,2.7,0,0,0,0,0" 
class="s2_48"
>Charles Babbage, who was making a machine that could </text>

<text 
transform="matrix(0.98, 0, 0, 1, 56, 535)"
dx="0,0,0,0,0,0,0,0,0,2.5,0,0,2.5,0,0,0,0,0,0,2.5,0,0,0,2.5,0,-0.3,0,0,0,2.5,0,2.5,0,0,0,2.5,0,0,2.5,0,0,0,0,0,0,0,0,2.5,0,0,0,0,2.5,0,0,0" 
class="s2_48"
>actually do maths. She wrote a set of commands that the </text>

<text 
transform="matrix(0.98, 0, 0, 1, 56, 556)"
dx="0,0,0,0,0,0,0,0,-0.9,0,0,0,0,0,-0.9,0,0,0,-0.9,0,0,-0.9,0,0,0,0,-0.3,0,-0.9,0,0,0,-0.9,0,0,0,0,0,-0.9,0,-0.3,0,0,0,0,0,0,0" 
class="s2_48"
>machine would use to figure out maths problems. </text>

<text 
transform="matrix(0.98, 0, 0, 1, 56, 599)"
dx="0,0,0,2.7,0,0,0,2.7,0,0,0,0,0,0,2.7,0,2.7,0,0,0,2.7,0,0,0,0,0,0,2.7,0,0,0,0,2.7,-0.3,0,0,0,0,0,0,2.7,0,0,0,0,0,0,0,-0.3,0,2.7,0,0,0,2.7,0" 
class="s2_48"
>In the 1930s, a man called John Vincent Atanasoff had a </text>

<text 
transform="matrix(0.98, 0, 0, 1, 56, 620)"
dx="0,0,0,0,0,0,1.3,0,0,1.3,0,0,0,0,0,0,0,0,0,0,0,1.3,0,0,0,1.3,0,-0.3,0,0,0,0,0,1.3,0,0,0,1.3,0,0,0,0,0,1.3,0,0,0,0,0,-0.3,0,0,0,0,1.3,0,0,0,0,0,0,0,0" 
class="s2_48"
>flash of brilliance, and created the first electronic computer </text>

<text 
transform="matrix(0.98, 0, 0, 1, 56, 642)"
dx="0,0,0,0,0,0,-0.2,0,0,0,-0.2,0,0,0,0,-0.2,0,0,-0.2,0,0,0,0,0,0,-0.2,0,0,-0.2,0,0,0,0,-0.2,0,0,0,0,0,0,0,0,0,0,0,0,-0.2,0,0,0,0,-0.2,0,0,0,-0.2,0,0,0,0,-0.2,0,0,0" 
class="s2_48"
>using the work of Boole. It took instructions like the ones Ada </text>

<text 
transform="matrix(0.98, 0, 0, 1, 56, 663)"
dx="0,0,0,0,0,0,0,0,0,-0.9,0,0,0,0,-0.9,0,0,-0.9,0,0,0,0,0,0,0,-1.1,0,-0.9,0,0,0,0,0,0,0,0" 
class="s2_48"
>Lovelace used in Babbage’s machine. </text>

<text 
transform="matrix(0.98, 0, 0, 1, 56, 706)"
dx="0,0,0,0,1.3,0,0,0,-0.3,0,0,1.3,0,0,1.3,0,0,0,0,1.3,-0.3,0,0,0,0,0,0,0,0,0,1.3,0,0,1.3,0,0,0,0,1.3,0,0,1.3,0,0,0,1.3,0,1.3,0,0,0,0,0,0,0,0,1.3,0,0,1.3,0,0" 
class="s2_48"
>The secret of this revolution is that to get a computer to do </text>

<text 
transform="matrix(0.98, 0, 0, 1, 56, 727)"
dx="0,0,0,0,0,0,0,0,4.4,0,0,0,0,4.4,0,0,0,4.4,0,0,0,0,0,4.4,0,0,4.4,0,0,0,4.4,0,0,4.4,0,0,4.4,0,0,4.4,0,0,0,0,0,0,0,0,0,4.4,0,0,0,0,0,0,0" 
class="s2_48"
>exactly what you want, to get it to do something totally </text>

<text 
transform="matrix(0.98, 0, 0, 1, 56, 749)"
dx="0,0,0,-0.8,0,0.9,0,0,0,0.9,0,0,0,0.9,0,0,0,0,0.9,0,0,0.9,0,0,0,0,0.9,0,0,0.9,0,0,0,0.9,0,0,0.9,0,0,0,0,0,0.9,0,0,0.9,0,0,0,0.9,0,0,0,0,0,0,0,0.9,0,0" 
class="s2_48"
>new, all you need to know is how to speak to it. Because of </text>

<text 
transform="matrix(0.98, 0, 0, 1, 56, 770)"
dx="0,0,0,0,0,0,0,-0.4,0,0,0,0,-0.4,0,0,0,-0.4,0,0,0,0,0,0,0,0,0,-0.4,0,0,-0.4,0,0,0,-0.4,0,0,0,0,0,0,0,0,0,0,-0.4,0,0,0,0,0,-0.4,0,0,0,0,0,0,0,0" 
class="s2_48"
>coders like Ada Lovelace, we can photograph other galaxies </text>

<text 
transform="matrix(0.98, 0, 0, 1, 56, 791)"
dx="0,0,0,0,0,0,2.6,0,0,0,0,0,2.6,0,0,0,0,0,0,0,0,0,0,2.6,0,0,0,0,-0.3,0,0,2.6,0,0,2.6,0,0,0,0,0,2.6,-0.3,0,2.6,0,0,0,2.6,0,0,0,2.6,0" 
class="s2_48"
>using space telescopes powered by code. We can see a </text>

<text 
transform="matrix(0.98, 0, 0, 1, 56, 813)"
dx="0,0,0,0,0,2.5,0,0,0,0,0,0,2.5,0,0,0,2.5,0,0,0,0,0,0,0,0,2.5,0,0,0,0,0,2.5,0,0,0,0,0,2.5,0,0,0,0,0,0,0,0,0,0,2.5,0,0,0,0,-0.3,0,0" 
class="s2_48"
>baby inside its mother's tummy using ultrasound powered </text>

<text 
transform="matrix(0.98, 0, 0, 1, 56, 834)"
dx="0,0,0,1.7,0,0,0,0,0,1.7,-0.3,0,1.7,0,0,0,1.7,0,0,0,0,1.7,0,0,0,-0.3,0,0,0,0,0,0,1.7,0,0,0,0,0,0,0,1.7,0,0,0,0,1.7,0,0,0,0,1.7,0,0,1.7,0,0,0" 
class="s2_48"
>by code. We can make incredible visions come true in the </text>

<text 
transform="matrix(0.98, 0, 0, 1, 56, 856)"
dx="0,0,0,0,0,0,0,-0.9,0,0,0,0,-0.9,0,0,0,0,0,0,0,0,0,-0.3,0,0,-0.9,0,0,0,0,0,0,0,0,0,0,-0.9,0,0,0,-0.9,0,0,0,0,0,0,0,-0.9,0,-0.3,0,0,0,0,0" 
class="s2_48"
>movies with code-powered animations and special effects.</text>

<text 
transform="matrix(0.98, 0, 0, 1, 56, 898)"
dx="0,0,0,0,0.1,0,0,0,0.1,0,0,0,0,0.1,0,0,0,0.1,0,0,0,-0.3,0,0,0.1,0,0,0,0,0.1,0,0,0,0,0.1,0,0,0.1,0,0,0.1,0,0,0,0.1,0,0,0,0,0.1,0,0,0,0.1,0,0,0.1,0,0,0,0" 
class="s2_48"
>Now you know the secret too, it's up to you what you do with </text>

<text 
transform="matrix(0.98, 0, 0, 1, 56, 920)"
dx="0,0,0,0,0.2,0,0.2,0,0,0,0,0.2,0,0,0,0,0.2,0,0,0,0,0,0,0,0,0.2,0,0,0.2,0,0,0,0.2,0,0,0,0.2,0,0,0,-0.3,0,0.2,0,0,0,0.2,0,0,0,0.2,0,0,0,0.2,0,0,0,0,0,0.2,0,0,0" 
class="s2_48"
>it. I hope that whatever it is, you share the fun you have, and </text>

<text 
transform="matrix(0.98, 0, 0, 1, 56, 941)"
dx="0,0,0,0,0,-0.9,0,0,0,0,0,0,0,0,-0.9,0,0,0,-0.9,0,0,0,0,0,-0.9,0,0,-0.9,0,0,0,0,0" 
class="s2_48"
>that whatever you build is cool! </text>

<path d="M65.5,979.5l-9,0l0,1l9,0l0,-1Z" class="g3_48" />
<path d="M78.3,978.6c0.5,-0.2,1,-0.4,1.3,-0.8c0.3,-0.4,0.5,-0.9,0.5,-1.4c0,-0.8,-0.3,-1.4,-0.9,-1.8c-0.5,-0.5,-1.3,-0.7,-2.3,-0.7l-2.9,0l0,10.5l3,0c0.9,0,1.8,-0.3,2.4,-0.8c0.7,-0.6,1.1,-1.4,1.1,-2.3c0,-0.7,-0.2,-1.2,-0.6,-1.7c-0.4,-0.5,-1,-0.8,-1.6,-1ZM75.2,975l1.5,0c0.7,0,1.3,0.1,1.6,0.4c0.4,0.2,0.6,0.6,0.6,1.1c0,1,-0.8,1.6,-2.2,1.6l-1.5,0l0,-3.1Zm0,4.1l1.3,0c0.9,0,1.6,0.2,2,0.6c0.5,0.4,0.7,0.9,0.7,1.6c0,0.6,-0.2,1.1,-0.7,1.5c-0.5,0.4,-1.1,0.6,-1.9,0.6l-1.4,0l0,-4.3Z" class="g3_48" />
<path d="M86,973.9c-0.2,0.2,-0.2,0.4,-0.2,0.6c0,0.2,0,0.4,0.2,0.6c0.1,0.1,0.3,0.2,0.5,0.2c0.2,0,0.4,-0.1,0.6,-0.2c0.1,-0.2,0.2,-0.4,0.2,-0.6c0,-0.2,-0.1,-0.4,-0.2,-0.6c-0.2,-0.1,-0.4,-0.2,-0.6,-0.2c-0.2,0,-0.4,0.1,-0.5,0.2Zm1.1,2.7l-3.4,0l0,1.1l2.2,0l0,6.7l1.2,0l0,-7.8Z" class="g3_48" />
<path d="M97.5,983.5l-2,0l0,-10l-3,0l0,1l2,0l0,10l3,0l0,-1Z" class="g3_48" />
<path d="M106.5,983.5l-2,0l0,-10l-3,0l0,1l2,0l0,10l3,0l0,-1Z" class="g3_48" />
<path d="M123.5,983.5l-5,0l0,-10l-1,0l0,11l6,0l0,-1Z" class="g3_48" />
<path d="M129.2,973.9c-0.1,0.2,-0.2,0.4,-0.2,0.6c0,0.2,0.1,0.4,0.2,0.6c0.2,0.1,0.3,0.2,0.5,0.2c0.3,0,0.4,-0.1,0.6,-0.2c0.1,-0.2,0.2,-0.4,0.2,-0.6c0,-0.2,-0.1,-0.4,-0.2,-0.6c-0.2,-0.1,-0.3,-0.2,-0.6,-0.2c-0.2,0,-0.3,0.1,-0.5,0.2Zm1.1,2.7l-3.4,0l0,1.1l2.3,0l0,6.7l1.1,0l0,-7.8Z" class="g3_48" />
<path d="M141.2,982.6l0,-3.3c0,-1.9,-0.9,-2.8,-2.6,-2.8c-0.9,0,-1.9,0.2,-2.9,0.8l0.3,0.8c0.3,-0.2,0.7,-0.3,1.1,-0.4c0.5,-0.2,0.9,-0.2,1.1,-0.2c1.3,0,1.9,0.6,1.9,2l0,0.3l-1.3,0.1c-0.6,0.1,-1.1,0.2,-1.5,0.3c-0.4,0.1,-0.8,0.3,-1.1,0.5c-0.3,0.2,-0.5,0.4,-0.6,0.7c-0.2,0.3,-0.3,0.6,-0.3,1c0,0.7,0.2,1.2,0.7,1.6c0.4,0.4,0.9,0.6,1.5,0.6c1.1,0,2,-0.5,2.6,-1.4c0,0.5,0.1,0.9,0.2,1.2l1.1,0c-0.1,-0.5,-0.2,-1.1,-0.2,-1.8Zm-2.2,0.5c-0.4,0.3,-0.8,0.4,-1.2,0.4c-0.4,0,-0.7,-0.1,-0.9,-0.3c-0.2,-0.2,-0.4,-0.5,-0.4,-0.9c0,-0.3,0.2,-0.6,0.5,-0.9c0.2,-0.2,0.6,-0.4,0.9,-0.4c0.4,-0.1,1.1,-0.2,2.2,-0.3l0,1.4c-0.3,0.4,-0.7,0.8,-1.1,1Z" class="g3_48" />
<path d="M144.8,977.6c-0.7,0.7,-1,1.7,-1,2.9c0,1.3,0.3,2.2,1,3c0.6,0.7,1.4,1.1,2.5,1.1c1,0,1.8,-0.4,2.5,-1.1c0.6,-0.8,0.9,-1.7,0.9,-3c0,-1.2,-0.3,-2.2,-0.9,-2.9c-0.7,-0.8,-1.5,-1.1,-2.5,-1.1c-1.1,0,-1.9,0.3,-2.5,1.1Zm0.8,5.1c-0.4,-0.6,-0.6,-1.3,-0.6,-2.2c0,-0.9,0.2,-1.6,0.6,-2.2c0.4,-0.5,1,-0.8,1.7,-0.8c0.7,0,1.2,0.3,1.6,0.8c0.4,0.6,0.6,1.3,0.6,2.2c0,0.9,-0.2,1.6,-0.6,2.2c-0.4,0.6,-0.9,0.9,-1.6,0.9c-0.7,0,-1.3,-0.3,-1.7,-0.9Z" class="g3_48" />
<path d="M155.4,985.7l0.3,0.5c1,-0.5,1.6,-1.3,1.6,-2.3c0,-0.3,-0.1,-0.6,-0.3,-0.8c-0.2,-0.2,-0.5,-0.3,-0.7,-0.3c-0.3,0,-0.5,0.1,-0.7,0.2c-0.1,0.2,-0.2,0.4,-0.2,0.7c0,0.2,0.1,0.4,0.3,0.6c0.1,0.2,0.3,0.3,0.6,0.3c0,0.4,-0.3,0.8,-0.9,1.1Z" class="g3_48" />
<path d="M175.5,982.8c-0.9,0.5,-1.7,0.7,-2.5,0.7c-1.9,0,-2.8,-1.4,-2.8,-4.3c0,-1.6,0.2,-2.7,0.7,-3.4c0.4,-0.7,1.2,-1,2.1,-1c0.8,0,1.6,0.2,2.3,0.6l0.4,-1c-0.3,-0.2,-0.7,-0.4,-1.2,-0.5c-0.5,-0.1,-1,-0.2,-1.5,-0.2c-1.4,0,-2.4,0.5,-3.1,1.4c-0.7,1,-1,2.3,-1,4.1c0,1.7,0.4,3.1,1.1,4c0.6,1,1.7,1.4,3,1.4c1.1,0,2,-0.3,2.8,-0.8l-0.3,-1Z" class="g3_48" />
<path d="M179,977.6c-0.6,0.7,-1,1.7,-1,2.9c0,1.3,0.4,2.2,1,3c0.6,0.7,1.4,1.1,2.5,1.1c1,0,1.9,-0.4,2.5,-1.1c0.6,-0.8,0.9,-1.7,0.9,-3c0,-1.2,-0.3,-2.2,-0.9,-2.9c-0.6,-0.8,-1.5,-1.1,-2.5,-1.1c-1.1,0,-1.9,0.3,-2.5,1.1Zm0.8,5.1c-0.4,-0.6,-0.6,-1.3,-0.6,-2.2c0,-0.9,0.2,-1.6,0.6,-2.2c0.4,-0.5,1,-0.8,1.7,-0.8c0.7,0,1.2,0.3,1.6,0.8c0.4,0.6,0.6,1.3,0.6,2.2c0,0.9,-0.2,1.6,-0.6,2.2c-0.4,0.6,-0.9,0.9,-1.6,0.9c-0.7,0,-1.3,-0.3,-1.7,-0.9Z" class="g3_48" />
<path d="M193.4,973.9l-1.1,0l0,3.8c-0.6,-0.8,-1.4,-1.2,-2.3,-1.2c-0.9,0,-1.6,0.3,-2.2,1.1c-0.5,0.7,-0.7,1.7,-0.7,2.8c0,1.2,0.2,2.2,0.7,3c0.5,0.8,1.2,1.2,2.1,1.2c0.5,0,0.9,-0.1,1.4,-0.4c0.4,-0.2,0.7,-0.5,1,-0.9l0,1.1l1.1,0l0,-10.5Zm-1.5,8.7c-0.3,0.3,-0.5,0.6,-0.8,0.7c-0.3,0.2,-0.6,0.3,-0.9,0.3c-0.6,0,-1.1,-0.3,-1.4,-0.9c-0.4,-0.6,-0.5,-1.3,-0.5,-2.2c0,-0.9,0.1,-1.6,0.5,-2.2c0.4,-0.6,0.9,-0.8,1.5,-0.8c0.8,0,1.4,0.4,2,1.3l0,3.2c0,0.1,-0.2,0.3,-0.4,0.6Z" class="g3_48" />
<path d="M202.7,980.2c0,-1.1,-0.3,-2,-0.9,-2.7c-0.6,-0.7,-1.3,-1,-2.2,-1c-1,0,-1.8,0.3,-2.4,1.1c-0.6,0.7,-1,1.7,-1,2.9c0,1.3,0.4,2.3,1.1,3c0.7,0.7,1.6,1.1,2.7,1.1c0.9,0,1.7,-0.1,2.4,-0.4l-0.2,-1c-0.8,0.3,-1.5,0.4,-2.2,0.4c-0.7,0,-1.3,-0.3,-1.8,-0.9c-0.5,-0.5,-0.8,-1.3,-0.8,-2.1l5.3,0l0,-0.4Zm-5.2,-0.6c0.1,-0.6,0.3,-1.1,0.7,-1.5c0.4,-0.4,0.8,-0.6,1.4,-0.6c0.5,0,0.9,0.2,1.3,0.6c0.4,0.4,0.5,0.9,0.5,1.5l-3.9,0Z" class="g3_48" />
<path d="M209.9,976.5c-1,0,-1.8,0.5,-2.4,1.7l0,-1.6l-1.1,0l0,7.8l1.1,0l0,-5c0,-0.1,0.2,-0.3,0.4,-0.6c0.3,-0.4,0.6,-0.7,0.9,-0.9c0.3,-0.2,0.7,-0.3,1,-0.3c0.4,0,0.8,0.1,1.3,0.4l0.5,-1.1c-0.6,-0.3,-1.1,-0.4,-1.7,-0.4Z" class="g3_48" />
<path d="M214.5,984.4l2.1,0c1.3,0,2.4,-0.4,3.2,-1.4c0.8,-0.9,1.3,-2.2,1.3,-3.8c0,-1.7,-0.5,-3,-1.3,-3.9c-0.8,-0.9,-1.9,-1.4,-3.2,-1.4l-2.1,0l0,10.5Zm1.2,-9.4l0.9,0c1,0,1.7,0.3,2.3,1.1c0.6,0.7,0.9,1.8,0.9,3.1c0,1.3,-0.3,2.3,-0.9,3c-0.5,0.8,-1.3,1.2,-2.3,1.2l-0.9,0l0,-8.4Z" class="g3_48" />
<path d="M224,977.6c-0.6,0.7,-0.9,1.7,-0.9,2.9c0,1.3,0.3,2.2,0.9,3c0.6,0.7,1.5,1.1,2.5,1.1c1.1,0,1.9,-0.4,2.5,-1.1c0.6,-0.8,1,-1.7,1,-3c0,-1.2,-0.4,-2.2,-1,-2.9c-0.6,-0.8,-1.4,-1.1,-2.5,-1.1c-1,0,-1.9,0.3,-2.5,1.1Zm0.9,5.1c-0.4,-0.6,-0.6,-1.3,-0.6,-2.2c0,-0.9,0.2,-1.6,0.6,-2.2c0.4,-0.5,0.9,-0.8,1.6,-0.8c0.7,0,1.3,0.3,1.7,0.8c0.4,0.6,0.6,1.3,0.6,2.2c0,0.9,-0.2,1.6,-0.6,2.2c-0.4,0.6,-1,0.9,-1.7,0.9c-0.7,0,-1.2,-0.3,-1.6,-0.9Z" class="g3_48" />
<path d="M235.5,973.9c-0.2,0.2,-0.2,0.4,-0.2,0.6c0,0.2,0,0.4,0.2,0.6c0.1,0.1,0.3,0.2,0.5,0.2c0.2,0,0.4,-0.1,0.6,-0.2c0.1,-0.2,0.2,-0.4,0.2,-0.6c0,-0.2,-0.1,-0.4,-0.2,-0.6c-0.2,-0.1,-0.4,-0.2,-0.6,-0.2c-0.2,0,-0.4,0.1,-0.5,0.2Zm1.1,2.7l-3.4,0l0,1.1l2.2,0l0,7c0,0.7,0,1.2,-0.2,1.4c-0.2,0.3,-0.4,0.4,-0.8,0.4c-0.5,0,-1,-0.1,-1.5,-0.3l-0.3,1c0.6,0.2,1.2,0.3,1.8,0.3c0.8,0,1.4,-0.2,1.7,-0.6c0.3,-0.4,0.5,-1.1,0.5,-2.1l0,-8.2Z" class="g3_48" />
<path d="M242,977.6c-0.6,0.7,-0.9,1.7,-0.9,2.9c0,1.3,0.3,2.2,0.9,3c0.6,0.7,1.5,1.1,2.5,1.1c1.1,0,1.9,-0.4,2.5,-1.1c0.7,-0.8,1,-1.7,1,-3c0,-1.2,-0.3,-2.2,-1,-2.9c-0.6,-0.8,-1.4,-1.1,-2.5,-1.1c-1,0,-1.9,0.3,-2.5,1.1Zm0.9,5.1c-0.4,-0.6,-0.6,-1.3,-0.6,-2.2c0,-0.9,0.2,-1.6,0.6,-2.2c0.4,-0.5,0.9,-0.8,1.6,-0.8c0.7,0,1.3,0.3,1.7,0.8c0.4,0.6,0.6,1.3,0.6,2.2c0,0.9,-0.2,1.6,-0.6,2.2c-0.4,0.6,-1,0.9,-1.7,0.9c-0.7,0,-1.2,-0.3,-1.6,-0.9Z" class="g3_48" />
<path d="M263.5,973.5l-5,0l0,11l1,0l0,-5l4,0l0,-1l-4,0l0,-4l4,0l0,-1Z" class="g3_48" />
<path d="M267.2,977.6c-0.6,0.7,-0.9,1.7,-0.9,2.9c0,1.3,0.3,2.2,0.9,3c0.7,0.7,1.5,1.1,2.5,1.1c1.1,0,1.9,-0.4,2.6,-1.1c0.6,-0.8,0.9,-1.7,0.9,-3c0,-1.2,-0.3,-2.2,-0.9,-2.9c-0.7,-0.8,-1.5,-1.1,-2.6,-1.1c-1,0,-1.8,0.3,-2.5,1.1Zm0.9,5.1c-0.4,-0.6,-0.6,-1.3,-0.6,-2.2c0,-0.9,0.2,-1.6,0.6,-2.2c0.4,-0.5,0.9,-0.8,1.6,-0.8c0.7,0,1.3,0.3,1.7,0.8c0.4,0.6,0.6,1.3,0.6,2.2c0,0.9,-0.2,1.6,-0.6,2.2c-0.4,0.6,-1,0.9,-1.7,0.9c-0.7,0,-1.2,-0.3,-1.6,-0.9Z" class="g3_48" />
<path d="M281.7,976.6l-1.1,0l0,5.7c-0.8,0.8,-1.6,1.3,-2.3,1.3c-0.5,0,-0.8,-0.2,-1,-0.5c-0.2,-0.3,-0.3,-0.8,-0.3,-1.5l0,-5l-1.2,0l0,5.4c0,1.7,0.7,2.6,2.2,2.6c0.9,0,1.7,-0.4,2.6,-1.3l0,1.1l1.1,0l0,-7.8Z" class="g3_48" />
<path d="M290.7,979.1c0,-1.8,-0.7,-2.6,-2.1,-2.6c-0.9,0,-1.8,0.4,-2.6,1.3l0,-1.2l-1.2,0l0,7.8l1.2,0l0,-5.6c0.8,-0.9,1.5,-1.3,2.2,-1.3c0.5,0,0.8,0.1,1,0.4c0.3,0.3,0.4,0.8,0.4,1.5l0,5l1.1,0l0,-5.3Z" class="g3_48" />
<path d="M299.7,973.9l-1.1,0l0,3.8c-0.6,-0.8,-1.4,-1.2,-2.4,-1.2c-0.8,0,-1.5,0.3,-2.1,1.1c-0.5,0.7,-0.8,1.7,-0.8,2.8c0,1.2,0.3,2.2,0.8,3c0.5,0.8,1.2,1.2,2.1,1.2c0.4,0,0.9,-0.1,1.3,-0.4c0.5,-0.2,0.8,-0.5,1.1,-0.9l0,1.1l1.1,0l0,-10.5Zm-1.5,8.7c-0.3,0.3,-0.6,0.6,-0.9,0.7c-0.3,0.2,-0.5,0.3,-0.8,0.3c-0.6,0,-1.1,-0.3,-1.5,-0.9c-0.3,-0.6,-0.5,-1.3,-0.5,-2.2c0,-0.9,0.2,-1.6,0.6,-2.2c0.3,-0.6,0.8,-0.8,1.5,-0.8c0.7,0,1.4,0.4,2,1.3l0,3.2c0,0.1,-0.2,0.3,-0.4,0.6Z" class="g3_48" />
<path d="M308.7,982.6l0,-3.3c0,-1.9,-0.8,-2.8,-2.6,-2.8c-0.9,0,-1.8,0.2,-2.9,0.8l0.3,0.8c0.3,-0.2,0.7,-0.3,1.2,-0.4c0.4,-0.2,0.8,-0.2,1.1,-0.2c1.2,0,1.8,0.6,1.8,2l0,0.3l-1.3,0.1c-0.6,0.1,-1.1,0.2,-1.5,0.3c-0.4,0.1,-0.8,0.3,-1.1,0.5c-0.3,0.2,-0.5,0.4,-0.6,0.7c-0.2,0.3,-0.3,0.6,-0.3,1c0,0.7,0.3,1.2,0.7,1.6c0.4,0.4,0.9,0.6,1.5,0.6c1.1,0,2,-0.5,2.6,-1.4c0,0.5,0.1,0.9,0.2,1.2l1.1,0c-0.1,-0.5,-0.2,-1.1,-0.2,-1.8Zm-2.2,0.5c-0.4,0.3,-0.8,0.4,-1.2,0.4c-0.3,0,-0.7,-0.1,-0.9,-0.3C304.2,983,304,982.7,304,982.3c0,-0.3,0.2,-0.6,0.5,-0.9c0.3,-0.2,0.6,-0.4,1,-0.4c0.4,-0.1,1.1,-0.2,2.1,-0.3l0,1.4c-0.3,0.4,-0.7,0.8,-1.1,1Z" class="g3_48" />
<path d="M317.6,983.2c-0.6,0.2,-1.2,0.4,-1.8,0.4c-0.4,0,-0.7,-0.1,-0.9,-0.4c-0.2,-0.3,-0.3,-0.6,-0.3,-1.1l0,-4.4l2.6,0l0,-1.1l-2.6,0l0,-2.1l-1.1,0l0,2.1l-1.5,0l0,1.1l1.5,0l0,4.7c0,1.5,0.7,2.2,2,2.2c0.8,0,1.5,-0.2,2.3,-0.5l-0.2,-0.9Z" class="g3_48" />
<path d="M323.8,973.9c-0.2,0.2,-0.3,0.4,-0.3,0.6c0,0.2,0.1,0.4,0.3,0.6c0.1,0.1,0.3,0.2,0.5,0.2c0.2,0,0.4,-0.1,0.5,-0.2c0.2,-0.2,0.3,-0.4,0.3,-0.6c0,-0.2,-0.1,-0.4,-0.3,-0.6c-0.1,-0.1,-0.3,-0.2,-0.5,-0.2c-0.2,0,-0.4,0.1,-0.5,0.2Zm1,2.7l-3.4,0l0,1.1l2.3,0l0,6.7l1.1,0l0,-7.8Z" class="g3_48" />
<path d="M330.3,977.6c-0.6,0.7,-0.9,1.7,-0.9,2.9c0,1.3,0.3,2.2,0.9,3c0.6,0.7,1.4,1.1,2.5,1.1c1,0,1.9,-0.4,2.5,-1.1c0.6,-0.8,0.9,-1.7,0.9,-3c0,-1.2,-0.3,-2.2,-0.9,-2.9c-0.6,-0.8,-1.5,-1.1,-2.5,-1.1c-1.1,0,-1.9,0.3,-2.5,1.1Zm0.8,5.1c-0.3,-0.6,-0.5,-1.3,-0.5,-2.2c0,-0.9,0.2,-1.6,0.5,-2.2c0.4,-0.5,1,-0.8,1.7,-0.8c0.7,0,1.2,0.3,1.6,0.8c0.4,0.6,0.6,1.3,0.6,2.2c0,0.9,-0.2,1.6,-0.6,2.2c-0.4,0.6,-0.9,0.9,-1.6,0.9c-0.7,0,-1.3,-0.3,-1.7,-0.9Z" class="g3_48" />
<path d="M344.8,979.1c0,-1.8,-0.8,-2.6,-2.2,-2.6c-0.9,0,-1.8,0.4,-2.6,1.3l0,-1.2l-1.1,0l0,7.8l1.1,0l0,-5.6c0.8,-0.9,1.6,-1.3,2.3,-1.3c0.4,0,0.8,0.1,1,0.4c0.2,0.3,0.3,0.8,0.3,1.5l0,5l1.2,0l0,-5.3Z" class="g3_48" />
<text 
transform="matrix(0.98, 0, 0, 1, 56, 984)"
dx="0,0,-1.8,0,0,0,0,-1.8,0,0,0,0,0,-1.8,0,0,0,0,0,0,0,0,0,-1.8,0,0,0,0,0,0,0,0,0" 
class="s3_48"
>— Bill Liao, CoderDojo Foundation</text>

<path d="M47,53l0,4l-4,0l0,40l4,0l0,4l234,0l0,-4l4,0l0,-40l-4,0l0,-4Z" class="g1_48" />
<text 
x="60" 
y="90" 
dx="0,-2.8,-5.6,-3.5,-4.2,-2.9,-2.7,-2.7,-3.3" 
class="s4_48"
>afterword</text>



<!-- Any embedded fonts defined here -->
<style type="text/css" ><![CDATA[

@font-face {
	font-family: AndaleMono_1cn;
	src: url("fonts/AndaleMono_1cn.woff") format("woff");
}

@font-face {
	font-family: Helvetica-Light_1by;
	src: url("fonts/Helvetica-Light_1by.woff") format("woff");
}

@font-face {
	font-family: PixelSplitter-Bold_1bs;
	src: url("fonts/PixelSplitter-Bold_1bs.woff") format("woff");
}

@font-face {
	font-family: PixelSplitter-Bold_1ai;
	src: url("fonts/PixelSplitter-Bold_1ai.woff") format("woff");
}

]]></style>

</svg>
