<?xml version="1.0" encoding="UTF-8" standalone="no"?>
<!DOCTYPE svg PUBLIC "-//W3C//DTD SVG 1.1//EN"
"http://www.w3.org/Graphics/SVG/1.1/DTD/svg11.dtd">


<!-- Page 5 -->
<svg x="0" y="0" width="1645" height="1061" viewBox="0 0 1645 1061" version="1.1" xmlns="http://www.w3.org/2000/svg" xmlns:xlink="http://www.w3.org/1999/xlink"
style="display: block;margin-left: auto;margin-right: auto;">
<defs>

<style type="text/css"><![CDATA[

.g5_5{
fill: #B3CBC8;
}
.g6_5{
fill: none;
stroke: #FFD400;
stroke-width: 5;
stroke-linecap: butt;
stroke-linejoin: miter;
stroke-miterlimit: 4;
}
.g15_5{
fill: none;
stroke: #11151D;
stroke-width: 1;
stroke-linecap: butt;
stroke-linejoin: miter;
stroke-miterlimit: 4;
}
.g10_5{
fill: #989797;
}
.g9_5{
fill: none;
stroke: #989898;
stroke-width: 5;
stroke-linecap: butt;
stroke-linejoin: miter;
stroke-miterlimit: 4;
}
.g11_5{
fill: none;
stroke: #FFFFFF;
stroke-width: 5;
stroke-linecap: round;
stroke-linejoin: round;
stroke-miterlimit: 4;
}
.g8_5{
fill: none;
stroke: #000000;
stroke-width: 3;
stroke-linecap: butt;
stroke-linejoin: miter;
}
.g7_5{
fill: #27AAE1;
}
.g14_5{
fill: none;
stroke: #11151D;
stroke-width: 1;
stroke-linecap: butt;
stroke-linejoin: miter;
stroke-miterlimit: 3;
}
.g1_5{
fill: #FAAD60;
}
.g16_5{
fill: #11151D;
}
.g2_5{
fill: #B897C1;
}
.g3_5{
fill: #FFFFFF;
}
.g4_5{
fill: #FFD400;
}
.g12_5{
fill: none;
stroke: #FFFFFF;
stroke-width: 1;
stroke-linecap: round;
stroke-linejoin: round;
}
.g13_5{
fill: none;
stroke: #FFFFFF;
stroke-width: 3;
stroke-linecap: round;
stroke-linejoin: round;
stroke-miterlimit: 4;
}

.s5_5{
font-size: 15.28px;
font-family: AndaleMono_1cn;
fill: #11151D;
}
.s9_5{
font-size: 15.28px;
font-family: Times-Roman_1cf;
fill: #11151D;
}
.s11_5{
font-size: 42.78px;
font-family: PixelSplitter-Bold_4j;
fill: #FFFFFF;
}
.s3_5{
font-size: 18.33px;
font-family: PixelSplitter-Bold_1bs;
fill: #11151D;
}
.s8_5{
font-size: 26.59px;
font-family: Times-Bold_1cj;
fill: #11151D;
}
.s1_5{
font-size: 24.44px;
font-family: PixelSplitter-Bold_1bs;
fill: #11151D;
}
.s6_5{
font-size: 18.33px;
font-family: Wingdings-Regular_1c4;
fill: #11151D;
}
.s10_5{
font-size: 55.00px;
font-family: PixelSplitter-Bold_1bs;
fill: #11151D;
}
.s13_5{
font-size: 12.22px;
font-family: PixelSplitter-Bold_1bs;
fill: #11151D;
}
.s12_5{
font-size: 18.62px;
font-family: AndaleMono_1cn;
fill: #11151D;
}
.s2_5{
font-size: 15.28px;
font-family: Helvetica-Light_1by;
fill: #11151D;
}
.s7_5{
font-size: 21.39px;
font-family: PixelSplitter-Bold_1bs;
fill: #11151D;
}
.s4_5{
font-size: 15.28px;
font-family: Helvetica-Bold_1bu;
fill: #11151D;
}

]]></style>

</defs>
<path d="M0,0
L0,1061
L1645,1061
L1645,0 Z "
fill="#FFFFFF" stroke="none" />
<image x="-33" y="-32" width="1713" height="1115" xlink:href="5/img/1.png" />
<image x="-13" y="-11" width="1674" height="1073" opacity="0.5" xlink:href="5/img/2.png" />
<image x="808" y="-28" width="875" height="1120" xlink:href="5/img/3.png" />
<path d="M47,43l0,4l-4,0l0,54l4,0l0,5l295,0l0,-63Z" class="g1_5" />
<path d="M870,317l0,4l-4,0l0,300l4,0l0,4l351,0l0,-4l4,0l0,-300l-4,0l0,-4Z" class="g2_5" />
<image x="832" y="489" width="406" height="151" opacity="0.39999402" style="mix-blend-mode: multiply;" xlink:href="5/img/4.png" />
<path d="M342,43l0,64l433,0l0,-4l4,0l0,-56l-4,0l0,-4Z" class="g3_5" />
<path d="M229,869l0,4l-5,0l0,135l5,0l0,4l229,0l0,-4l5,0l0,-135l-5,0l0,-4Z" class="g3_5" />
<path d="M47,684l0,4l-4,0l0,88l4,0l0,4l92,0l0,-96Z" class="g4_5" />
<image x="41" y="688" width="88" height="89" xlink:href="5/img/5.png" />
<path d="M384,684l0,4l-4,0l0,88l4,0l0,4l93,0l0,-96Z" class="g4_5" />
<image x="379" y="688" width="87" height="89" xlink:href="5/img/6.png" />
<path d="M870,664l0,5l-4,0l0,88l4,0l0,4l92,0l0,-97Z" class="g4_5" />
<image x="864" y="669" width="88" height="88" xlink:href="5/img/7.png" />
<path d="M289,126l0,4l-4,0l0,247l4,0l0,4l484,0l0,-4l4,0l0,-247l-4,0l0,-4Z" class="g5_5" />
<image x="883" y="354" width="326" height="217" xlink:href="5/img/8.png" />
<image x="43" y="396" width="735" height="277" xlink:href="5/img/9.png" />
<path d="M142,729l0,108l2,0l2,0l0,2l0,2l202,0l0,-2l0,-2l2,0l3,0l0,-104l-3,0l-2,0l0,-2l0,-2Z" class="g3_5" />
<path d="M142.5,729.5l0,108l2,0l2,0l0,2l0,2l202,0l0,-2l0,-2l2,0l3,0l0,-104l-3,0l-2,0l0,-2l0,-2l-206,0Z" class="g6_5" />
<path d="M479,729l0,277l2,0l2,0l0,2l0,3l289,0l0,-3l0,-2l3,0l2,0l0,-273l-2,0l-3,0l0,-2l0,-2Z" class="g3_5" />
<path d="M479.5,729.5l0,277l2,0l2,0l0,2l0,3l289,0l0,-3l0,-2l3,0l2,0l0,-273l-2,0l-3,0l0,-2l0,-2l-293,0Z" class="g6_5" />
<path d="M139,684l0,43l152,0l0,-39l-5,0l0,-4Z" class="g4_5" />
<path d="M476,683l0,44l152,0l0,-39l-4,0l0,-5Z" class="g4_5" />
<path d="M965,710l0,130l479,0l0,-2l0,-3l2,0l2,0l0,-121l-2,0l-2,0l0,-2l0,-2Z" class="g3_5" />
<path d="M965.5,710.5l0,130l479,0l0,-2l0,-3l2,0l2,0l0,-121l-2,0l-2,0l0,-2l0,-2l-479,0Z" class="g6_5" />
<path d="M962,664l0,44l152,0l0,-40l-5,0l0,-4Z" class="g4_5" />
<path d="M236.6,902.3l2.3,25.6l2.2,0l0,2.2l42.5,0l0,-2.2l2.2,0l2.3,-25.6Z" class="g7_5" />
<path d="M283,895l-2,0l0,-2l-23,0l0,-2l-15,0l0,2l-2,0l0,7l42,0Z" class="g7_5" />
<path d="M261.5,938.5l0,32l36,0" class="g8_5" />
<path d="M1232,54l0,2l0,2l-2,0l-2,0l0,211l2,0l2,0l0,3l0,2l363,0l0,-2l0,-3l2,0l3,0l0,-211l-3,0l-2,0l0,-2l0,-2Z" class="g3_5" />
<path d="M1232.5,54.5l0,2l0,2l-2,0l-2,0l0,211l2,0l2,0l0,3l0,2l363,0l0,-2l0,-3l2,0l3,0l0,-211l-3,0l-2,0l0,-2l0,-2l-363,0Z" class="g9_5" />
<path d="M1230,51l0,5l-5,0l0,49l377,0l0,-49l-5,0l0,-5Z" class="g10_5" />
<path d="M1246.2,72.3c3,0,5.4,-2.4,5.4,-5.4c0,-2.9,-2.4,-5.3,-5.4,-5.3c-2.9,0,-5.3,2.4,-5.3,5.3c0,3,2.4,5.4,5.3,5.4Z" class="g3_5" />
<path d="M1267,72.3c3,0,5.4,-2.4,5.4,-5.4c0,-2.9,-2.4,-5.3,-5.4,-5.3c-2.9,0,-5.3,2.4,-5.3,5.3c0,3,2.4,5.4,5.3,5.4Z" class="g3_5" />
<path d="M1287.8,72.3c3,0,5.4,-2.4,5.4,-5.4c0,-2.9,-2.4,-5.3,-5.4,-5.3c-2.9,0,-5.3,2.4,-5.3,5.3c0,3,2.4,5.4,5.3,5.4Z" class="g3_5" />
<path d="M1266.4,78.7c0,0,-4.3,0,-4.3,4.3l0,9.6c0,0,0,4.3,4.3,4.3l293.6,0c0,0,4.3,0,4.3,-4.3l0,-9.6c0,0,0,-4.3,-4.3,-4.3Z" class="g3_5" />
<path d="M1248.9,80.5l-6.1,7.1l6.1,7" class="g11_5" />
<path d="M1591.7,79.5l0,7.6c0,0,-0.1,0,-0.1,0c-1,-0.2,-2,-0.4,-3,-0.5c-1.3,-0.3,-2.6,-0.5,-3.9,-0.8c-0.3,0,-0.5,-0.1,-0.8,-0.1c0.9,-0.7,1.8,-1.5,2.7,-2.2c-0.1,0,-0.1,0,-0.1,0c-1.2,-0.8,-2.6,-1.1,-4,-0.7c-1.4,0.3,-2.4,1,-3.2,2.2c-0.7,1.1,-1,2.4,-0.8,3.8c0.2,1.3,0.8,2.4,1.8,3.2c1.4,1.1,2.9,1.4,4.5,1.1c1.7,-0.4,2.9,-1.4,3.6,-2.9c0,-0.1,0.1,-0.1,0.1,-0.2c1,0.3,1.9,0.5,2.9,0.7c0,0.1,0,0.1,0,0.1c-0.6,1.6,-1.6,2.9,-3,3.8c-1.3,1,-2.8,1.5,-4.4,1.5c-0.1,0,-0.1,0,-0.2,0l-0.3,0c-0.1,0,-0.2,0,-0.2,0c-0.6,0,-1.1,-0.1,-1.7,-0.2c-1.6,-0.5,-3,-1.3,-4.2,-2.6c-1.1,-1.3,-1.7,-2.8,-1.9,-4.5c0,-0.2,-0.1,-0.4,-0.1,-0.6l0,-0.5c0,-0.1,0.1,-0.1,0.1,-0.2c0,-0.3,0,-0.7,0.1,-1c0.3,-1.6,1,-3,2.1,-4.2c1.2,-1.3,2.7,-2.1,4.5,-2.5c1,-0.2,2,-0.2,3,0c1.3,0.3,2.6,0.9,3.7,1.7c0,0.1,0.1,0.1,0.2,0c0.5,-0.4,1,-0.8,1.5,-1.2c0.4,-0.3,0.7,-0.6,1.1,-0.8Z" class="g3_5" />
<path d="M1591.7,79.5l0,7.6c0,0,-0.1,0,-0.1,0c-1,-0.2,-2,-0.4,-3,-0.5c-1.3,-0.3,-2.6,-0.5,-3.9,-0.8c-0.3,0,-0.5,-0.1,-0.8,-0.1c0.9,-0.7,1.8,-1.5,2.7,-2.2c-0.1,0,-0.1,0,-0.1,0c-1.2,-0.8,-2.6,-1.1,-4,-0.7c-1.4,0.3,-2.4,1,-3.2,2.2c-0.7,1.1,-1,2.4,-0.8,3.8c0.2,1.3,0.8,2.4,1.8,3.2c1.4,1.1,2.9,1.4,4.5,1.1c1.7,-0.4,2.9,-1.4,3.6,-2.9c0,-0.1,0.1,-0.1,0.1,-0.2c1,0.3,1.9,0.5,2.9,0.7c0,0.1,0,0.1,0,0.1c-0.6,1.6,-1.6,2.9,-3,3.8c-1.3,1,-2.8,1.5,-4.4,1.5c-0.1,0,-0.1,0,-0.2,0l-0.3,0c-0.1,0,-0.2,0,-0.2,0c-0.6,0,-1.1,-0.1,-1.7,-0.2c-1.6,-0.5,-3,-1.3,-4.2,-2.6c-1.1,-1.3,-1.7,-2.8,-1.9,-4.5c0,-0.2,-0.1,-0.4,-0.1,-0.6l0,-0.5c0,-0.1,0.1,-0.1,0.1,-0.2c0,-0.3,0,-0.7,0.1,-1c0.3,-1.6,1,-3,2.1,-4.2c1.2,-1.3,2.7,-2.1,4.5,-2.5c1,-0.2,2,-0.2,3,0c1.3,0.3,2.6,0.9,3.7,1.7c0,0.1,0.1,0.1,0.2,0c0.5,-0.4,1,-0.8,1.5,-1.2c0.4,-0.3,0.7,-0.6,1.1,-0.8Z" class="g12_5" />
<path d="M1576.5,62.5l14,0" class="g13_5" />
<path d="M1576.5,66.5l14,0" class="g13_5" />
<path d="M1576.5,70.5l14,0" class="g13_5" />
<text
x="358"
y="86"
dx="0,-3.3,-2.5,-3,-3,-2.4,-2.1,0,-0.2,-2.3,-2,-2,0,-0.2,-3.9,-2.4,-2.6,-2.8,0,-0.2,-2,-3.3,0,-0.2,-2.8,-2.1,-2.4"
class="s1_5"
>editing your first web page</text>

<text
transform="matrix(0.98, 0, 0, 1, 51, 139)"
dx="0,0,0,0,3.5,0,0,0,-1.1,0,3.5,0,0,0,3.5,0,0,0,0,0,0,3.5,0,0,0,0,3.5,0,0,3.5,0,0,0"
class="s2_5"
>So, let’s get going! This is the </text>

<text
transform="matrix(0.98, 0, 0, 1, 51, 160)"
dx="0,0,0,0,0,-0.9,0,0,0,-0.9,0,-0.9,0,0,0,0,0,0,-0.9,0,0,0,-0.9,0,0,0,0,0"
class="s2_5"
>code for a simple web page: </text>

<text
x="51"
y="203"
dx="0,0"
class="s3_5"
>1.</text>

<text
transform="matrix(0.98, 0, 0, 1, 77, 203)"
dx="0,-1.3,0,0,0,0.9,0,0,0,0,0.9,0,0,0,0,0.9,0,0,0,0,0.9,0,0.9,0,0,0,0,0,0"
class="s2_5"
>Type this code into a simple </text>

<text
transform="matrix(0.98, 0, 0, 1, 51, 225)"
dx="0,0,0,0,0,0,0,0,-0.2,0,0"
class="s4_5"
>plain-text </text>

<text
transform="matrix(0.98, 0, 0, 1, 138, 225)"
dx="0,0,0,0,0,0,0"
class="s4_5"
>editor </text>

<text
transform="matrix(0.98, 0, 0, 1, 200, 225)"
dx="0,0,0,0,0"
class="s2_5"
>such </text>

<text
transform="matrix(0.98, 0, 0, 1, 253, 225)"
dx="0,0,0"
class="s2_5"
>as </text>

<text
transform="matrix(0.98, 0, 0, 1, 51, 246)"
dx="0,0,0,0,0,0,0,0"
class="s2_5"
>Notepad </text>

<text
transform="matrix(0.98, 0, 0, 1, 133, 246)"
dx="0,0,0,0,0,0,0,0,0,0,0"
class="s2_5"
>(Windows), </text>

<text
transform="matrix(0.98, 0, 0, 1, 231, 246)"
dx="0,0,0,0,0,0"
class="s2_5"
>GEdit </text>

<text
transform="matrix(0.98, 0, 0, 1, 51, 267)"
dx="0,0,0,0,0,0,0,0,0,5.5,0,0,5.5,0,0,5.5,0"
class="s2_5"
>(Ubuntu) or in a </text>

<text
transform="matrix(0.98, 0, 0, 1, 182, 267)"
dx="0,0,0,0,0,5.5,0,0,0,0,0,0"
class="s4_5"
>code editor </text>

<text
transform="matrix(0.98, 0, 0, 1, 51, 289)"
dx="0,0,0,0,0,4.9,0,0,4.9,0,0,0,0,0,0,0,0,0,4.9,0,0,0,0,0,0,0,0,0"
class="s2_5"
>such as Brackets, Notepad++ </text>

<text
transform="matrix(0.98, 0, 0, 1, 51, 310)"
dx="0,0,0,2.2,0,0,0,0,0,2.2,0,0,2.2,0,0,0,0,-0.3,0,2.2,0,0,0,2.2,0,0,-0.3,0,2.2,0,0,0"
class="s2_5"
>or Atom. If you’re not sure how </text>

<text
transform="matrix(0.98, 0, 0, 1, 51, 332)"
dx="0,0,0,1.7,0,0,1.7,0,0,0,0,1.7,0,0,1.7,0,0,1.7,0,0,0,0,0,0,0,0,0,0,0,0,0,0,0,0"
class="s2_5"
>to do this go to http://nano.tips/</text>

<text
transform="matrix(0.98, 0, 0, 1, 51, 353)"
dx="0,0,0,0,0,0,0,0,0,0,0"
class="s2_5"
>texteditors</text>

<text
x="51"
y="888"
dx="0,0"
class="s3_5"
>2.</text>

<text
transform="matrix(0.98, 0, 0, 1, 79, 888)"
dx="0,0,0,0,0,0,1.3,0,0,0,0,1.3,0,1.3,0,0,0,0,0,0"
class="s2_5"
>Next, make a folder </text>

<text
transform="matrix(0.98, 0, 0, 1, 51, 909)"
dx="0,0,0,-0.5,0,0,0,0,-0.5,0,0,0,0,0,0,0,0,-0.5,0,0,0,0,0,0"
class="s2_5"
>on your computer called </text>

<path d="M59.4,925.6c0,-1.7,-0.7,-2.6,-2.1,-2.6c-0.9,0,-1.8,0.4,-2.6,1.3l0,-1.1l-1.2,0l0,7.7l1.2,0l0,-5.6c0.8,-0.9,1.5,-1.3,2.2,-1.3c0.5,0,0.8,0.1,1.1,0.5c0.2,0.3,0.3,0.8,0.3,1.5l0,4.9l1.1,0l0,-5.3Z" class="g14_5" />
<path d="M68.4,929.1l0,-3.3c0,-1.9,-0.8,-2.8,-2.6,-2.8c-0.9,0,-1.8,0.3,-2.9,0.8l0.3,0.8c0.3,-0.1,0.7,-0.3,1.2,-0.4c0.4,-0.1,0.8,-0.2,1.1,-0.2c1.2,0,1.8,0.7,1.8,2l0,0.4L66,926.5c-0.6,0,-1.1,0.1,-1.5,0.2c-0.4,0.1,-0.8,0.3,-1.1,0.5c-0.2,0.2,-0.5,0.4,-0.6,0.7c-0.2,0.3,-0.3,0.7,-0.3,1c0,0.7,0.3,1.2,0.7,1.6c0.4,0.4,0.9,0.6,1.5,0.6c1.1,0,2,-0.4,2.7,-1.4c0,0.5,0,0.9,0.1,1.2l1.1,0c-0.1,-0.5,-0.2,-1.1,-0.2,-1.8Zm-2.2,0.6C65.8,929.9,65.4,930,65,930c-0.3,0,-0.6,-0.1,-0.9,-0.3c-0.2,-0.2,-0.3,-0.5,-0.3,-0.8c0,-0.4,0.1,-0.7,0.4,-0.9c0.3,-0.3,0.6,-0.4,1,-0.5c0.4,-0.1,1.1,-0.2,2.1,-0.3l0,1.4c-0.3,0.5,-0.7,0.8,-1.1,1.1Z" class="g14_5" />
<path d="M77.4,925.6c0,-1.7,-0.7,-2.6,-2.1,-2.6c-0.9,0,-1.8,0.4,-2.6,1.3l0,-1.1l-1.1,0l0,7.7l1.1,0l0,-5.6c0.8,-0.9,1.6,-1.3,2.2,-1.3c0.5,0,0.9,0.1,1.1,0.5c0.2,0.3,0.3,0.8,0.3,1.5l0,4.9l1.1,0l0,-5.3Z" class="g14_5" />
<path d="M81,924.1c-0.6,0.7,-0.9,1.7,-0.9,3c0,1.2,0.3,2.2,0.9,2.9c0.6,0.8,1.4,1.1,2.5,1.1c1,0,1.9,-0.3,2.5,-1.1c0.6,-0.7,0.9,-1.7,0.9,-2.9c0,-1.3,-0.3,-2.2,-0.9,-3C85.4,923.4,84.5,923,83.5,923c-1.1,0,-1.9,0.4,-2.5,1.1Zm0.8,5.1c-0.4,-0.5,-0.5,-1.3,-0.5,-2.1c0,-0.9,0.1,-1.7,0.5,-2.3c0.4,-0.5,1,-0.8,1.7,-0.8c0.7,0,1.2,0.3,1.6,0.9c0.4,0.5,0.6,1.3,0.6,2.2c0,0.8,-0.2,1.5,-0.6,2.1c-0.4,0.6,-0.9,0.9,-1.6,0.9c-0.7,0,-1.3,-0.3,-1.7,-0.9Z" class="g14_5" />
<path d="M95.5,925.6c0,-1.7,-0.8,-2.6,-2.2,-2.6c-0.9,0,-1.8,0.4,-2.6,1.3l0,-1.1l-1.1,0l0,7.7l1.1,0l0,-5.6C91.5,924.4,92.3,924,93,924c0.4,0,0.8,0.1,1,0.5c0.2,0.3,0.3,0.8,0.3,1.5l0,4.9l1.2,0l0,-5.3Z" class="g14_5" />
<path d="M104.5,929.1l0,-3.3c0,-1.9,-0.9,-2.8,-2.6,-2.8c-0.9,0,-1.9,0.3,-3,0.8l0.4,0.8c0.3,-0.1,0.6,-0.3,1.1,-0.4c0.4,-0.1,0.8,-0.2,1.1,-0.2c1.2,0,1.8,0.7,1.8,2l0,0.4l-1.3,0.1c-0.5,0,-1,0.1,-1.5,0.2c-0.4,0.1,-0.7,0.3,-1,0.5c-0.3,0.2,-0.5,0.4,-0.7,0.7c-0.1,0.3,-0.2,0.7,-0.2,1c0,0.7,0.2,1.2,0.6,1.6c0.5,0.4,1,0.6,1.5,0.6c1.1,0,2,-0.4,2.7,-1.4c0,0.5,0,0.9,0.1,1.2l1.2,0c-0.2,-0.5,-0.2,-1.1,-0.2,-1.8Zm-2.2,0.6c-0.4,0.2,-0.8,0.3,-1.2,0.3c-0.4,0,-0.7,-0.1,-1,-0.3c-0.2,-0.2,-0.3,-0.5,-0.3,-0.8c0,-0.4,0.1,-0.7,0.4,-0.9c0.3,-0.3,0.6,-0.4,1,-0.5c0.4,-0.1,1.1,-0.2,2.1,-0.3l0,1.4c-0.3,0.5,-0.6,0.8,-1,1.1Z" class="g14_5" />
<path d="M113.5,923.2l-1.2,0l0,5.6c-0.8,0.9,-1.5,1.3,-2.2,1.3c-0.5,0,-0.9,-0.1,-1.1,-0.5c-0.2,-0.3,-0.3,-0.8,-0.3,-1.5l0,-4.9l-1.1,0l0,5.3c0,1.7,0.7,2.6,2.1,2.6c0.9,0,1.8,-0.4,2.6,-1.3l0,1.1l1.2,0l0,-7.7Z" class="g14_5" />
<path d="M122.3,929.7c-0.6,0.3,-1.2,0.4,-1.8,0.4c-0.4,0,-0.6,-0.1,-0.8,-0.4c-0.2,-0.2,-0.3,-0.6,-0.3,-1.1l0,-4.4l2.5,0l0,-1l-2.5,0l0,-2.2l-1.2,0l0,2.2l-1.4,0l0,1l1.4,0l0,4.7c0,1.5,0.7,2.2,2.1,2.2c0.7,0,1.5,-0.1,2.2,-0.5l-0.2,-0.9Z" class="g14_5" />
<path d="M130.9,923.3c-0.7,-0.2,-1.4,-0.3,-2,-0.3c-1,0,-1.7,0.2,-2.3,0.6c-0.6,0.4,-0.9,0.9,-0.9,1.6c0,0.3,0.1,0.6,0.2,0.8c0.1,0.3,0.3,0.5,0.6,0.6c0.2,0.2,0.5,0.4,0.7,0.5c0.3,0,0.8,0.2,1.3,0.4c0.8,0.2,1.2,0.4,1.4,0.6c0.2,0.2,0.3,0.5,0.3,0.7c0,0.4,-0.2,0.8,-0.6,1c-0.4,0.2,-0.9,0.4,-1.5,0.4c-0.7,0,-1.4,-0.2,-2.1,-0.5l-0.2,1c0.6,0.3,1.4,0.4,2.3,0.4c1,0,1.7,-0.2,2.4,-0.6c0.6,-0.4,0.9,-1,0.9,-1.8c0,-0.3,-0.1,-0.7,-0.3,-1c-0.1,-0.2,-0.4,-0.5,-0.7,-0.7c-0.3,-0.2,-0.7,-0.4,-1.2,-0.5l-1.1,-0.3c-0.5,-0.2,-0.8,-0.3,-1,-0.5c-0.2,-0.2,-0.2,-0.3,-0.2,-0.6c0,-0.3,0.1,-0.6,0.5,-0.8c0.4,-0.2,0.8,-0.3,1.5,-0.3c0.5,0,1.1,0.1,1.8,0.3l0.2,-1Z" class="g14_5" />
<text
transform="matrix(0.98, 0, 0, 1, 51, 930)"
dx="0,0,0,0,0,0,0,0,0"
class="s5_5"
>nanonauts</text>

<text
transform="matrix(0.98, 0, 0, 1, 144, 930)"
dx="0,0,0,0,7.7,0,0,0,0"
class="s2_5"
>and save </text>

<text
transform="matrix(0.98, 0, 0, 1, 51, 952)"
dx="0,0,0,0,0.4,0,0,0,0,0.4,0,0,0.4,0,0.4,0,0,0,0,0.4,0,0,0,0,0,0"
class="s2_5"
>the code as a file called </text>

<path d="M59.4,971.9l0,-3.3c0,-1.9,-0.8,-2.8,-2.6,-2.8c-0.9,0,-1.8,0.2,-2.9,0.8l0.3,0.8c0.3,-0.2,0.7,-0.3,1.2,-0.4c0.4,-0.2,0.8,-0.2,1.1,-0.2c1.2,0,1.8,0.6,1.8,2l0,0.3L57,969.2c-0.6,0.1,-1.1,0.2,-1.5,0.3c-0.4,0.1,-0.8,0.3,-1.1,0.5c-0.3,0.2,-0.5,0.4,-0.6,0.7c-0.2,0.3,-0.3,0.6,-0.3,1c0,0.7,0.3,1.2,0.7,1.6c0.4,0.4,0.9,0.6,1.5,0.6c1.1,0,2,-0.5,2.6,-1.4c0,0.5,0.1,0.9,0.2,1.2l1.1,0c-0.1,-0.5,-0.2,-1.1,-0.2,-1.8Zm-2.2,0.5c-0.4,0.3,-0.8,0.4,-1.2,0.4c-0.3,0,-0.7,-0.1,-0.9,-0.3c-0.2,-0.2,-0.4,-0.5,-0.4,-0.9c0,-0.3,0.2,-0.6,0.5,-0.9c0.2,-0.2,0.6,-0.3,1,-0.4c0.3,-0.1,1.1,-0.2,2.1,-0.3l0,1.4c-0.3,0.5,-0.7,0.8,-1.1,1Z" class="g14_5" />
<path d="M63.7,963.2l-1.1,0l0,10.5l1.1,0l0,-1.1c0.2,0.4,0.6,0.7,1,1c0.4,0.2,0.8,0.3,1.3,0.3c0.9,0,1.6,-0.4,2.1,-1.2c0.5,-0.8,0.8,-1.8,0.8,-3c0,-1.2,-0.2,-2.1,-0.7,-2.8c-0.5,-0.8,-1.2,-1.1,-2.1,-1.1c-0.5,0,-0.9,0.1,-1.4,0.3c-0.4,0.2,-0.8,0.5,-1,0.9l0,-3.8Zm2,3.6c0.7,0,1.2,0.2,1.5,0.8c0.3,0.6,0.5,1.3,0.5,2.2c0,0.9,-0.2,1.6,-0.5,2.2c-0.4,0.6,-0.9,0.9,-1.5,0.9c-0.4,0,-0.8,-0.2,-1.1,-0.5c-0.4,-0.3,-0.7,-0.6,-0.9,-1.1l0,-3.2c0.6,-0.9,1.2,-1.3,2,-1.3Z" class="g14_5" />
<path d="M72,966.9c-0.6,0.7,-1,1.7,-1,2.9c0,1.3,0.4,2.3,1,3c0.6,0.8,1.4,1.1,2.5,1.1c1,0,1.9,-0.4,2.5,-1.1c0.6,-0.8,0.9,-1.7,0.9,-3c0,-1.2,-0.3,-2.2,-0.9,-2.9c-0.6,-0.8,-1.5,-1.1,-2.5,-1.1c-1.1,0,-1.9,0.3,-2.5,1.1Zm0.8,5.1c-0.4,-0.6,-0.6,-1.3,-0.6,-2.2c0,-0.9,0.2,-1.6,0.6,-2.2c0.4,-0.5,1,-0.8,1.7,-0.8c0.7,0,1.2,0.3,1.6,0.8c0.4,0.6,0.6,1.3,0.6,2.2c0,0.9,-0.2,1.6,-0.6,2.2c-0.4,0.6,-0.9,0.9,-1.6,0.9c-0.7,0,-1.3,-0.3,-1.7,-0.9Z" class="g14_5" />
<path d="M86.4,966l-1.1,0l0,5.6c-0.8,0.9,-1.6,1.3,-2.3,1.3c-0.4,0,-0.8,-0.2,-1,-0.5c-0.2,-0.3,-0.3,-0.8,-0.3,-1.5l0,-4.9l-1.2,0l0,5.3c0,1.7,0.8,2.6,2.2,2.6c0.9,0,1.8,-0.4,2.6,-1.3l0,1.1l1.1,0l0,-7.7Z" class="g14_5" />
<path d="M95.3,972.5c-0.6,0.3,-1.2,0.4,-1.8,0.4c-0.4,0,-0.7,-0.1,-0.9,-0.4c-0.2,-0.3,-0.3,-0.6,-0.3,-1.1l0,-4.4l2.6,0l0,-1.1l-2.6,0l0,-2.1l-1.1,0l0,2.1l-1.4,0l0,1.1l1.4,0l0,4.7c0,1.5,0.7,2.2,2.1,2.2c0.7,0,1.5,-0.2,2.2,-0.5l-0.2,-0.9Z" class="g14_5" />
<path d="M103.5,968.5l-4,0l0,2l4,0l0,-2Z" class="g14_5" />
<path d="M113.5,966l-1.2,0l0,5.6c-0.8,0.9,-1.5,1.3,-2.2,1.3c-0.5,0,-0.9,-0.2,-1.1,-0.5c-0.2,-0.3,-0.3,-0.8,-0.3,-1.5l0,-4.9l-1.1,0l0,5.3c0,1.7,0.7,2.6,2.1,2.6c0.9,0,1.8,-0.4,2.6,-1.3l0,1.1l1.2,0l0,-7.7Z" class="g14_5" />
<path d="M121.9,966.1c-0.7,-0.2,-1.4,-0.3,-2,-0.3c-1,0,-1.7,0.2,-2.3,0.6c-0.6,0.3,-0.9,0.9,-0.9,1.6c0,0.3,0.1,0.5,0.2,0.8c0.1,0.2,0.3,0.4,0.6,0.6c0.2,0.2,0.5,0.3,0.7,0.4c0.3,0.1,0.7,0.3,1.3,0.4c0.8,0.3,1.2,0.5,1.4,0.7c0.2,0.2,0.3,0.5,0.3,0.7c0,0.4,-0.2,0.7,-0.6,1c-0.4,0.2,-0.9,0.3,-1.5,0.3c-0.8,0,-1.4,-0.1,-2.1,-0.4l-0.2,1c0.6,0.3,1.4,0.4,2.3,0.4c1,0,1.7,-0.2,2.4,-0.6c0.6,-0.5,0.9,-1,0.9,-1.8c0,-0.4,-0.1,-0.7,-0.3,-1c-0.1,-0.3,-0.4,-0.5,-0.7,-0.7c-0.3,-0.2,-0.7,-0.4,-1.2,-0.5L119.1,969c-0.5,-0.2,-0.8,-0.3,-1,-0.5c-0.2,-0.2,-0.3,-0.4,-0.3,-0.6c0,-0.3,0.2,-0.6,0.6,-0.8c0.4,-0.3,0.8,-0.4,1.5,-0.4c0.5,0,1.1,0.1,1.8,0.4l0.2,-1Z" class="g14_5" />
<path d="M127.8,972.3c-0.1,0.2,-0.2,0.4,-0.2,0.6c0,0.3,0.1,0.5,0.2,0.7c0.2,0.2,0.4,0.3,0.7,0.3c0.2,0,0.4,-0.1,0.6,-0.3c0.2,-0.2,0.3,-0.4,0.3,-0.7c0,-0.2,-0.1,-0.4,-0.3,-0.6C129,972.1,128.7,972,128.5,972c-0.3,0,-0.5,0.1,-0.7,0.3Z" class="g14_5" />
<path d="M140.5,968.4c0,-1.8,-0.7,-2.6,-2.2,-2.6c-0.9,0,-1.7,0.4,-2.6,1.3l0,-3.9l-1.1,0l0,10.5l1.1,0l0,-5.6c0.8,-0.9,1.6,-1.3,2.3,-1.3c0.5,0,0.8,0.1,1,0.4c0.2,0.3,0.3,0.8,0.3,1.5l0,5l1.2,0l0,-5.3Z" class="g14_5" />
<path d="M149.4,972.5c-0.6,0.3,-1.3,0.4,-1.9,0.4c-0.3,0,-0.6,-0.1,-0.8,-0.4c-0.2,-0.3,-0.3,-0.6,-0.3,-1.1l0,-4.4l2.6,0l0,-1.1l-2.6,0l0,-2.1l-1.1,0l0,2.1l-1.5,0l0,1.1l1.5,0l0,4.7c0,1.5,0.6,2.2,2,2.2c0.7,0,1.5,-0.2,2.3,-0.5l-0.2,-0.9Z" class="g14_5" />
<path d="M159.1,968.3c0,-1.7,-0.5,-2.5,-1.4,-2.5c-0.3,0,-0.6,0.1,-0.9,0.3c-0.3,0.3,-0.5,0.6,-0.7,1c-0.1,-0.4,-0.3,-0.7,-0.5,-1c-0.3,-0.2,-0.6,-0.3,-0.9,-0.3c-0.3,0,-0.6,0.1,-0.9,0.3c-0.2,0.3,-0.5,0.6,-0.7,1l0,-1.1l-1.1,0l0,7.7l1.1,0l0,-5.6c0,0,0.2,-0.3,0.4,-0.7c0.3,-0.4,0.6,-0.6,0.8,-0.6c0.4,0,0.7,0.6,0.7,1.8l0,5.1l1.1,0l0,-5.6c0,0,0.1,-0.3,0.4,-0.7c0.3,-0.4,0.6,-0.6,0.8,-0.6c0.4,0,0.7,0.6,0.7,1.8l0,5.1l1.1,0l0,-5.4Z" class="g14_5" />
<path d="M166.5,972.5l-2,0l0,-9l-3,0l0,1l2,0l0,9l3,0l0,-1Z" class="g14_5" />
<text
transform="matrix(0.98, 0, 0, 1, 51, 973)"
dx="0,0,0,0,0,0,0,0,0,0,0,0,0"
class="s5_5"
>about-us.html</text>

<text
transform="matrix(0.98, 0, 0, 1, 169, 973)"
dx="0"
class="s2_5"
>.</text>

<text
x="152"
y="759"
dx="0,0,0,0,-0.3,0,0.9,0,0.3,0,0.9,0,0,0.9,0,0,0,0,0.9,0,0,0,0,0.9,0,0,0,0,0"
class="s2_5"
>Don’t try to edit your pages </text>

<text
x="152"
y="781"
dx="0,0,0,4.2,0,4.2,0,0,-0.3,0,4.2,0,-0.3,0,0,0,0,0,0,0,4.2,0,0,0,0"
class="s2_5"
>in a word processor such </text>

<text
x="152"
y="802"
dx="0,0,0"
class="s2_5"
>as </text>

<text
x="189"
y="802"
dx="0,0,0,0,-0.3,0,0,0,0,0"
class="s2_5"
>Microsoft </text>

<text
x="272"
y="802"
dx="0,-0.3,0,-0.3,0"
class="s2_5"
>Word </text>

<text
x="328"
y="802"
dx="0,0,0"
class="s2_5"
>or </text>

<text
x="152"
y="824"
dx="0,0,0,0,-0.3,0,0,-0.3,0,0,0,0"
class="s2_5"
>LibreOffice.</text>

<path d="M497.7,758l0,-3.3c0,-1.9,-0.8,-2.8,-2.6,-2.8c-0.9,0,-1.9,0.2,-3,0.8l0.3,0.8c0.4,-0.2,0.8,-0.3,1.2,-0.4c0.5,-0.2,0.8,-0.2,1.1,-0.2c1.3,0,1.9,0.6,1.9,2l0,0.4l-1.3,0.1c-0.6,0,-1.1,0.1,-1.5,0.2c-0.5,0.1,-0.8,0.3,-1.1,0.5c-0.3,0.2,-0.6,0.4,-0.7,0.7c-0.2,0.3,-0.2,0.7,-0.2,1c0,0.7,0.2,1.2,0.6,1.6c0.5,0.4,1,0.6,1.5,0.6c1.2,0,2.1,-0.4,2.7,-1.4c0,0.5,0.1,0.9,0.2,1.2l1.1,0c-0.1,-0.5,-0.2,-1.1,-0.2,-1.8Zm-2.2,0.5c-0.4,0.3,-0.8,0.4,-1.2,0.4c-0.4,0,-0.7,-0.1,-1,-0.3c-0.2,-0.2,-0.3,-0.5,-0.3,-0.8c0,-0.4,0.1,-0.7,0.4,-1c0.3,-0.2,0.6,-0.3,1,-0.4c0.4,-0.1,1.1,-0.2,2.2,-0.3l0,1.4c-0.3,0.5,-0.7,0.8,-1.1,1Z" class="g15_5" />
<path d="M502.1,749.3l-1.2,0l0,10.5l1.2,0l0,-1.1c0.2,0.4,0.6,0.7,1,1c0.4,0.2,0.9,0.3,1.3,0.3c0.9,0,1.7,-0.4,2.2,-1.2c0.5,-0.8,0.8,-1.8,0.8,-3c0,-1.2,-0.3,-2.1,-0.8,-2.8c-0.5,-0.8,-1.2,-1.1,-2.1,-1.1c-0.5,0,-0.9,0.1,-1.4,0.3c-0.4,0.2,-0.8,0.5,-1,0.9l0,-3.8Zm2.1,3.6c0.6,0,1.1,0.3,1.5,0.8c0.3,0.6,0.5,1.3,0.5,2.2c0,0.9,-0.2,1.6,-0.6,2.2c-0.3,0.6,-0.8,0.9,-1.5,0.9c-0.4,0,-0.8,-0.2,-1.1,-0.4c-0.4,-0.3,-0.7,-0.7,-0.9,-1.1l0,-3.3c0.6,-0.9,1.3,-1.3,2.1,-1.3Z" class="g15_5" />
<path d="M510.5,753c-0.6,0.7,-0.9,1.7,-0.9,2.9c0,1.3,0.3,2.3,0.9,3c0.6,0.8,1.5,1.1,2.6,1.1c1,0,1.9,-0.3,2.5,-1.1c0.6,-0.7,1,-1.7,1,-3c0,-1.2,-0.4,-2.2,-1,-2.9c-0.6,-0.8,-1.5,-1.1,-2.5,-1.1c-1.1,0,-2,0.3,-2.6,1.1Zm0.9,5.1c-0.4,-0.6,-0.6,-1.3,-0.6,-2.1c0,-1,0.2,-1.7,0.6,-2.3c0.4,-0.5,0.9,-0.8,1.7,-0.8c0.7,0,1.2,0.3,1.6,0.8c0.4,0.6,0.6,1.4,0.6,2.3c0,0.8,-0.2,1.5,-0.6,2.1c-0.4,0.6,-0.9,0.9,-1.6,0.9c-0.7,0,-1.3,-0.3,-1.7,-0.9Z" class="g15_5" />
<path d="M525.2,752.1l-1.1,0l0,5.6c-0.8,0.9,-1.6,1.3,-2.3,1.3c-0.5,0,-0.9,-0.2,-1.1,-0.5c-0.2,-0.3,-0.3,-0.8,-0.3,-1.5l0,-4.9l-1.2,0l0,5.3c0,1.7,0.8,2.6,2.2,2.6c1,0,1.8,-0.4,2.7,-1.3l0,1.1l1.1,0l0,-7.7Z" class="g15_5" />
<path d="M534.3,758.6c-0.6,0.3,-1.3,0.4,-1.9,0.4c-0.4,0,-0.6,-0.1,-0.8,-0.4c-0.3,-0.2,-0.4,-0.6,-0.4,-1.1l0,-4.4l2.7,0l0,-1l-2.7,0l0,-2.2l-1.1,0l0,2.2l-1.5,0l0,1l1.5,0l0,4.7c0,1.5,0.7,2.2,2.1,2.2c0.7,0,1.5,-0.2,2.3,-0.5l-0.2,-0.9Z" class="g15_5" />
<path d="M542.5,755.5l-4,0l0,1l4,0l0,-1Z" class="g15_5" />
<path d="M552.7,752.1l-1.1,0l0,5.6c-0.8,0.9,-1.6,1.3,-2.3,1.3c-0.5,0,-0.9,-0.2,-1.1,-0.5c-0.2,-0.3,-0.3,-0.8,-0.3,-1.5l0,-4.9l-1.2,0l0,5.3c0,1.7,0.8,2.6,2.2,2.6c1,0,1.8,-0.4,2.7,-1.3l0,1.1l1.1,0l0,-7.7Z" class="g15_5" />
<path d="M561.4,752.2c-0.8,-0.2,-1.5,-0.3,-2.1,-0.3c-1,0,-1.8,0.2,-2.4,0.6c-0.5,0.4,-0.8,0.9,-0.8,1.6c0,0.3,0,0.5,0.2,0.8c0.1,0.2,0.3,0.5,0.5,0.6c0.3,0.2,0.5,0.4,0.8,0.4c0.3,0.1,0.7,0.3,1.3,0.5c0.8,0.2,1.3,0.4,1.5,0.6c0.2,0.2,0.3,0.5,0.3,0.7c0,0.4,-0.2,0.8,-0.7,1c-0.4,0.2,-0.9,0.4,-1.5,0.4c-0.8,0,-1.5,-0.2,-2.1,-0.5l-0.3,1c0.7,0.3,1.5,0.4,2.4,0.4c1,0,1.8,-0.2,2.4,-0.6c0.6,-0.4,0.9,-1,0.9,-1.8c0,-0.3,-0.1,-0.7,-0.2,-1c-0.2,-0.2,-0.4,-0.5,-0.8,-0.7c-0.3,-0.2,-0.7,-0.4,-1.2,-0.5l-1.1,-0.3c-0.5,-0.2,-0.9,-0.3,-1,-0.5c-0.2,-0.2,-0.3,-0.4,-0.3,-0.6c0,-0.3,0.2,-0.6,0.6,-0.8c0.3,-0.2,0.8,-0.3,1.5,-0.3c0.5,0,1.2,0.1,1.8,0.3l0.3,-1Z" class="g15_5" />
<path d="M567.4,758.4c-0.2,0.2,-0.3,0.4,-0.3,0.7c0,0.2,0.1,0.5,0.3,0.6c0.2,0.2,0.4,0.3,0.6,0.3c0.3,0,0.5,-0.1,0.7,-0.3c0.2,-0.1,0.3,-0.4,0.3,-0.6c0,-0.3,-0.1,-0.5,-0.3,-0.7c-0.2,-0.2,-0.4,-0.3,-0.7,-0.3c-0.2,0,-0.4,0.1,-0.6,0.3Z" class="g15_5" />
<path d="M580.3,754.5c0,-1.7,-0.8,-2.6,-2.2,-2.6c-1,0,-1.8,0.4,-2.7,1.3l0,-3.9l-1.1,0l0,10.5l1.1,0l0,-5.6c0.8,-0.9,1.6,-1.3,2.3,-1.3c0.5,0,0.8,0.1,1.1,0.4c0.2,0.4,0.3,0.9,0.3,1.6l0,4.9l1.2,0l0,-5.3Z" class="g15_5" />
<path d="M589.3,758.6c-0.6,0.3,-1.3,0.4,-1.9,0.4c-0.3,0,-0.6,-0.1,-0.8,-0.4c-0.2,-0.2,-0.4,-0.6,-0.4,-1.1l0,-4.4l2.7,0l0,-1l-2.7,0l0,-2.2l-1.1,0l0,2.2l-1.5,0l0,1l1.5,0l0,4.7c0,1.5,0.7,2.2,2.1,2.2c0.8,0,1.5,-0.2,2.3,-0.5l-0.2,-0.9Z" class="g15_5" />
<path d="M599.2,754.4c0,-1.7,-0.5,-2.5,-1.4,-2.5c-0.3,0,-0.6,0.1,-0.9,0.3c-0.3,0.3,-0.6,0.6,-0.8,1c-0.1,-0.4,-0.2,-0.7,-0.5,-1c-0.2,-0.2,-0.5,-0.3,-0.8,-0.3c-0.3,0,-0.6,0.1,-0.9,0.3c-0.3,0.3,-0.6,0.6,-0.8,1l0,-1.1l-1.1,0l0,7.7l1.1,0l0,-5.6c0,0,0.2,-0.3,0.4,-0.7c0.3,-0.4,0.6,-0.6,0.8,-0.6c0.5,0,0.7,0.6,0.7,1.8l0,5.1l1.2,0l0,-5.6c0,0,0.1,-0.3,0.4,-0.7c0.3,-0.4,0.5,-0.6,0.8,-0.6c0.4,0,0.6,0.6,0.6,1.8l0,5.1l1.2,0l0,-5.4Z" class="g15_5" />
<path d="M607.5,758.5l-2,0l0,-9l-4,0l0,1l3,0l0,9l3,0l0,-1Z" class="g15_5" />
<text
x="490"
y="759"
dx="0,0,0,0,0,0,0,0,0,0,0,0,0"
class="s5_5"
>about-us.html</text>

<text
x="624"
y="759"
dx="0,0,0"
class="s2_5"
>is </text>

<text
x="651"
y="759"
dx="0,0,0,0"
class="s2_5"
>the </text>

<text
x="687"
y="759"
dx="0,0,0,0,0"
class="s4_5"
>file </text>

<text
x="725"
y="759"
dx="0,0,0,0"
class="s4_5"
>name</text>

<text
x="490"
y="781"
dx="0,0,0,6.2,0,0,0,6.2,0,0,0,6.2,0,0,0,0,0,6.2,0,0,0"
class="s2_5"
>of the web page. The </text>

<path d="M674.4,779.8c-0.2,0.2,-0.3,0.4,-0.3,0.6c0,0.3,0.1,0.5,0.3,0.7c0.1,0.2,0.4,0.3,0.6,0.3c0.3,0,0.5,-0.1,0.7,-0.3c0.1,-0.2,0.2,-0.4,0.2,-0.7c0,-0.2,-0.1,-0.4,-0.2,-0.6c-0.2,-0.2,-0.4,-0.3,-0.7,-0.3c-0.3,0,-0.5,0.1,-0.6,0.3Z" class="g15_5" />
<path d="M687.2,775.9c0,-1.8,-0.7,-2.6,-2.2,-2.6c-0.9,0,-1.8,0.4,-2.6,1.3l0,-3.9l-1.2,0l0,10.5l1.2,0l0,-5.6c0.8,-0.9,1.6,-1.3,2.3,-1.3c0.5,0,0.8,0.1,1,0.4c0.3,0.3,0.4,0.8,0.4,1.5l0,5l1.1,0l0,-5.3Z" class="g15_5" />
<path d="M696.3,780c-0.6,0.3,-1.3,0.4,-1.9,0.4c-0.4,0,-0.7,-0.1,-0.9,-0.4c-0.2,-0.3,-0.3,-0.6,-0.3,-1.1l0,-4.4l2.7,0l0,-1.1l-2.7,0l0,-2.1l-1.1,0l0,2.1l-1.5,0l0,1.1l1.5,0l0,4.7c0,1.5,0.7,2.2,2.1,2.2c0.7,0,1.5,-0.2,2.3,-0.5L696.3,780Z" class="g15_5" />
<path d="M706.2,775.8c0,-1.7,-0.5,-2.5,-1.4,-2.5c-0.3,0,-0.6,0.1,-0.9,0.3c-0.3,0.3,-0.6,0.6,-0.8,1c-0.1,-0.4,-0.3,-0.7,-0.5,-1c-0.3,-0.2,-0.6,-0.3,-0.9,-0.3c-0.3,0,-0.6,0.1,-0.9,0.3c-0.3,0.3,-0.5,0.6,-0.7,1l0,-1.1l-1.2,0l0,7.7l1.2,0l0,-5.6c0,0,0.1,-0.3,0.4,-0.7c0.3,-0.4,0.6,-0.6,0.8,-0.6c0.4,0,0.7,0.6,0.7,1.8l0,5.1l1.1,0l0,-5.6c0,0,0.2,-0.3,0.5,-0.7c0.2,-0.4,0.5,-0.6,0.7,-0.6c0.5,0,0.7,0.6,0.7,1.8l0,5.1l1.2,0l0,-5.4Z" class="g15_5" />
<path d="M714.5,780.5l-2,0l0,-10l-4,0l0,1l2,0l0,10l4,0l0,-1Z" class="g15_5" />
<text
x="670"
y="781"
dx="0,0,0,0,0"
class="s5_5"
>.html</text>

<text
x="726"
y="781"
dx="0,0,0,0,6.2,0,0"
class="s2_5"
>bit is </text>

<text
x="490"
y="802"
dx="0,0,0,0,0,0,0,2.1,0,0,0"
class="s2_5"
>called the </text>

<text
x="565"
y="802"
dx="0,0,0,0,0,2.1,-0.2,0,0,0,0,0,0,0"
class="s4_5"
>file extension</text>

<text
x="665"
y="802"
dx="0,0,2.1,0,0,0,0,2.1,0,0,0,0,0,2.1,0,0,0"
class="s2_5"
>. This tells the </text>

<text
x="490"
y="824"
dx="0,0,0,0,0,0,0,0,1.1,0,-0.3,0,0,0,0,0,0,1.1,0,0,1.1,0,0,0,0,1.1,0,0,0,0,0,0,0,0,1.1,0,0,0,0"
class="s2_5"
>various programs of your computer that </text>

<path d="M497.7,843.6l0,-3.4c0,-1.8,-0.8,-2.8,-2.6,-2.8c-0.9,0,-1.9,0.3,-3,0.8l0.3,0.9c0.4,-0.2,0.8,-0.3,1.2,-0.5c0.5,-0.1,0.8,-0.2,1.1,-0.2c1.3,0,1.9,0.7,1.9,2l0,0.4l-1.3,0.1c-0.6,0.1,-1.1,0.1,-1.5,0.3c-0.5,0.1,-0.8,0.2,-1.1,0.4c-0.3,0.2,-0.6,0.5,-0.7,0.8c-0.2,0.3,-0.2,0.6,-0.2,1c0,0.6,0.2,1.2,0.6,1.6c0.5,0.4,1,0.6,1.5,0.6c1.2,0,2.1,-0.5,2.7,-1.5c0,0.6,0.1,1,0.2,1.3l1.1,0c-0.1,-0.5,-0.2,-1.1,-0.2,-1.8Zm-2.2,0.5c-0.4,0.2,-0.8,0.4,-1.2,0.4c-0.4,0,-0.7,-0.1,-1,-0.3c-0.2,-0.3,-0.3,-0.5,-0.3,-0.9c0,-0.4,0.1,-0.7,0.4,-0.9c0.3,-0.2,0.6,-0.4,1,-0.5c0.4,0,1.1,-0.1,2.2,-0.2l0,1.4c-0.3,0.4,-0.7,0.8,-1.1,1Z" class="g15_5" />
<path d="M502.1,834.9l-1.2,0l0,10.5l1.2,0l0,-1.1c0.2,0.4,0.6,0.7,1,0.9c0.4,0.3,0.9,0.4,1.3,0.4c0.9,0,1.7,-0.4,2.2,-1.2c0.5,-0.8,0.8,-1.8,0.8,-3c0,-1.2,-0.3,-2.2,-0.8,-2.9c-0.5,-0.7,-1.2,-1.1,-2.1,-1.1c-0.5,0,-0.9,0.1,-1.4,0.4c-0.4,0.2,-0.8,0.5,-1,0.8l0,-3.7Zm2.1,3.5c0.6,0,1.1,0.3,1.5,0.9c0.3,0.5,0.5,1.3,0.5,2.2c0,0.8,-0.2,1.6,-0.6,2.2c-0.3,0.5,-0.8,0.8,-1.5,0.8c-0.4,0,-0.8,-0.1,-1.1,-0.4c-0.4,-0.3,-0.7,-0.7,-0.9,-1.1l0,-3.2c0.6,-0.9,1.3,-1.4,2.1,-1.4Z" class="g15_5" />
<path d="M510.5,838.5c-0.6,0.8,-0.9,1.8,-0.9,3c0,1.2,0.3,2.2,0.9,3c0.6,0.7,1.5,1.1,2.6,1.1c1,0,1.9,-0.4,2.5,-1.1c0.6,-0.8,1,-1.8,1,-3c0,-1.2,-0.4,-2.2,-1,-3c-0.6,-0.7,-1.5,-1.1,-2.5,-1.1c-1.1,0,-2,0.4,-2.6,1.1Zm0.9,5.2c-0.4,-0.6,-0.6,-1.3,-0.6,-2.2c0,-0.9,0.2,-1.6,0.6,-2.2c0.4,-0.6,0.9,-0.9,1.7,-0.9c0.7,0,1.2,0.3,1.6,0.9c0.4,0.6,0.6,1.3,0.6,2.2c0,0.9,-0.2,1.6,-0.6,2.2c-0.4,0.6,-0.9,0.9,-1.6,0.9c-0.7,0,-1.3,-0.3,-1.7,-0.9Z" class="g15_5" />
<path d="M525.2,837.6l-1.1,0l0,5.6c-0.8,0.9,-1.6,1.4,-2.3,1.4c-0.5,0,-0.9,-0.2,-1.1,-0.5c-0.2,-0.4,-0.3,-0.8,-0.3,-1.5l0,-5l-1.2,0l0,5.3c0,1.8,0.8,2.7,2.2,2.7c1,0,1.8,-0.5,2.7,-1.4l0,1.2l1.1,0l0,-7.8Z" class="g15_5" />
<path d="M534.3,844.1c-0.6,0.3,-1.3,0.5,-1.9,0.5c-0.4,0,-0.6,-0.2,-0.8,-0.4c-0.3,-0.3,-0.4,-0.7,-0.4,-1.1l0,-4.5l2.7,0l0,-1l-2.7,0l0,-2.1l-1.1,0l0,2.1l-1.5,0l0,1l1.5,0l0,4.8c0,1.4,0.7,2.2,2.1,2.2c0.7,0,1.5,-0.2,2.3,-0.6l-0.2,-0.9Z" class="g15_5" />
<path d="M542.5,840.5l-4,0l0,1l4,0l0,-1Z" class="g15_5" />
<path d="M552.7,837.6l-1.1,0l0,5.6c-0.8,0.9,-1.6,1.4,-2.3,1.4c-0.5,0,-0.9,-0.2,-1.1,-0.5c-0.2,-0.4,-0.3,-0.8,-0.3,-1.5l0,-5l-1.2,0l0,5.3c0,1.8,0.8,2.7,2.2,2.7c1,0,1.8,-0.5,2.7,-1.4l0,1.2l1.1,0l0,-7.8Z" class="g15_5" />
<path d="M561.4,837.8c-0.8,-0.3,-1.5,-0.4,-2.1,-0.4c-1,0,-1.8,0.2,-2.4,0.6c-0.5,0.4,-0.8,0.9,-0.8,1.6c0,0.3,0,0.6,0.2,0.9c0.1,0.2,0.3,0.4,0.5,0.6c0.3,0.2,0.5,0.3,0.8,0.4c0.3,0.1,0.7,0.2,1.3,0.4c0.8,0.2,1.3,0.5,1.5,0.7c0.2,0.2,0.3,0.4,0.3,0.7c0,0.4,-0.2,0.7,-0.7,1c-0.4,0.2,-0.9,0.3,-1.5,0.3c-0.8,0,-1.5,-0.1,-2.1,-0.4l-0.3,1c0.7,0.2,1.5,0.4,2.4,0.4c1,0,1.8,-0.2,2.4,-0.7c0.6,-0.4,0.9,-1,0.9,-1.7c0,-0.4,-0.1,-0.7,-0.2,-1c-0.2,-0.3,-0.4,-0.5,-0.8,-0.7c-0.3,-0.2,-0.7,-0.4,-1.2,-0.6l-1.1,-0.3c-0.5,-0.1,-0.9,-0.3,-1,-0.4c-0.2,-0.2,-0.3,-0.4,-0.3,-0.6c0,-0.4,0.2,-0.7,0.6,-0.9c0.3,-0.2,0.8,-0.3,1.5,-0.3c0.5,0,1.2,0.1,1.8,0.3l0.3,-0.9Z" class="g15_5" />
<path d="M567.4,843.9c-0.2,0.2,-0.3,0.4,-0.3,0.7c0,0.3,0.1,0.5,0.3,0.7c0.2,0.2,0.4,0.3,0.6,0.3c0.3,0,0.5,-0.1,0.7,-0.3c0.2,-0.2,0.3,-0.4,0.3,-0.7c0,-0.2,-0.1,-0.5,-0.3,-0.7c-0.2,-0.1,-0.4,-0.2,-0.7,-0.2c-0.2,0,-0.4,0.1,-0.6,0.2Z" class="g15_5" />
<path d="M580.3,840.1c0,-1.8,-0.8,-2.7,-2.2,-2.7c-1,0,-1.8,0.5,-2.7,1.4l0,-3.9l-1.1,0l0,10.5l1.1,0l0,-5.6c0.8,-0.9,1.6,-1.4,2.3,-1.4c0.5,0,0.8,0.2,1.1,0.5c0.2,0.3,0.3,0.8,0.3,1.5l0,5l1.2,0l0,-5.3Z" class="g15_5" />
<path d="M589.3,844.1c-0.6,0.3,-1.3,0.5,-1.9,0.5c-0.3,0,-0.6,-0.2,-0.8,-0.4c-0.2,-0.3,-0.4,-0.7,-0.4,-1.1l0,-4.5l2.7,0l0,-1l-2.7,0l0,-2.1l-1.1,0l0,2.1l-1.5,0l0,1l1.5,0l0,4.8c0,1.4,0.7,2.2,2.1,2.2c0.8,0,1.5,-0.2,2.3,-0.6l-0.2,-0.9Z" class="g15_5" />
<path d="M599.2,840c0,-1.7,-0.5,-2.6,-1.4,-2.6c-0.3,0,-0.6,0.2,-0.9,0.4c-0.3,0.2,-0.6,0.6,-0.8,1c-0.1,-0.4,-0.2,-0.8,-0.5,-1c-0.2,-0.2,-0.5,-0.4,-0.8,-0.4c-0.3,0,-0.6,0.2,-0.9,0.4c-0.3,0.2,-0.6,0.6,-0.8,1l0,-1.2l-1.1,0l0,7.8l1.1,0l0,-5.6c0,-0.1,0.2,-0.3,0.4,-0.7c0.3,-0.4,0.6,-0.7,0.8,-0.7c0.5,0,0.7,0.7,0.7,1.9l0,5.1l1.2,0l0,-5.6c0,-0.1,0.1,-0.3,0.4,-0.7c0.3,-0.4,0.5,-0.7,0.8,-0.7c0.4,0,0.6,0.7,0.6,1.9l0,5.1l1.2,0l0,-5.4Z" class="g15_5" />
<path d="M607.5,844.5l-2,0l0,-10l-4,0l0,1l3,0l0,10l3,0l0,-1Z" class="g15_5" />
<text
x="490"
y="845"
dx="0,0,0,0,0,0,0,0,0,0,0,0,0,0"
class="s5_5"
>about-us.html </text>

<text
x="616"
y="845"
dx="0,0,0,-0.9,0,-0.9,0,0,0,-0.9,0,0,0,0,0"
class="s2_5"
>is a web page. </text>

<text
x="490"
y="888"
dx="0,0,0,0,0,0,0,0,0,0,0.8,0,0,0,0,0.8,0,0,0,0,0,0,0,0,0,0,0.8,0,0,0,0.8,0,0,0,0,0,0,0.8,0,0"
class="s2_5"
>Sometimes file extensions get hidden in </text>

<text
x="490"
y="909"
dx="0,0,0,0,0,0,0,0,-0.8,0,0,-0.8,0,0,0,0,-0.8,0,0,0,-0.8,0,0,0,0,-0.8,0,0,0"
class="s2_5"
>Windows so that you only see </text>

<path d="M699.4,907.8l0,-3.4c0,-1.9,-0.9,-2.8,-2.7,-2.8c-0.9,0,-1.9,0.3,-2.9,0.8l0.3,0.8c0.3,-0.1,0.7,-0.3,1.2,-0.4c0.4,-0.1,0.8,-0.2,1.1,-0.2c1.2,0,1.8,0.7,1.8,2l0,0.4l-1.3,0.1c-0.6,0,-1.1,0.1,-1.5,0.2c-0.4,0.1,-0.8,0.3,-1.1,0.5c-0.3,0.2,-0.5,0.4,-0.7,0.7c-0.1,0.3,-0.2,0.7,-0.2,1.1c0,0.6,0.2,1.1,0.7,1.5c0.4,0.5,0.9,0.7,1.5,0.7c1.1,0,2,-0.5,2.7,-1.5c0,0.5,0,0.9,0.1,1.3l1.2,0c-0.1,-0.6,-0.2,-1.2,-0.2,-1.8Zm-2.2,0.5c-0.4,0.2,-0.9,0.3,-1.3,0.3c-0.3,0,-0.7,-0.1,-0.9,-0.3c-0.2,-0.2,-0.4,-0.5,-0.4,-0.8c0,-0.4,0.2,-0.7,0.5,-0.9c0.2,-0.3,0.6,-0.4,1,-0.5c0.4,-0.1,1.1,-0.2,2.1,-0.3l0,1.5c-0.3,0.4,-0.6,0.7,-1,1Z" class="g15_5" />
<path d="M703.7,899l-1.1,0l0,10.6l1.1,0l0,-1.2c0.3,0.4,0.6,0.8,1,1c0.5,0.2,0.9,0.4,1.4,0.4c0.9,0,1.6,-0.4,2.1,-1.2c0.6,-0.9,0.9,-1.9,0.9,-3c0,-1.2,-0.3,-2.2,-0.8,-2.9c-0.5,-0.7,-1.2,-1.1,-2.1,-1.1c-0.5,0,-1,0.1,-1.4,0.3c-0.5,0.2,-0.8,0.5,-1.1,0.9l0,-3.8Zm2.1,3.6c0.7,0,1.2,0.3,1.5,0.8c0.4,0.6,0.5,1.3,0.5,2.2c0,0.9,-0.1,1.6,-0.5,2.2c-0.4,0.6,-0.9,0.9,-1.5,0.9c-0.4,0,-0.8,-0.1,-1.2,-0.4c-0.3,-0.3,-0.6,-0.7,-0.9,-1.1l0,-3.3c0.6,-0.8,1.3,-1.3,2.1,-1.3Z" class="g15_5" />
<path d="M712.2,902.7c-0.7,0.8,-1,1.7,-1,3c0,1.2,0.3,2.2,1,2.9c0.6,0.8,1.4,1.2,2.5,1.2c1.1,0,1.9,-0.4,2.6,-1.2c0.6,-0.7,0.9,-1.7,0.9,-2.9c0,-1.3,-0.3,-2.2,-0.9,-3c-0.7,-0.7,-1.5,-1.1,-2.6,-1.1c-1,0,-1.9,0.4,-2.5,1.1Zm0.9,5.2c-0.5,-0.6,-0.7,-1.4,-0.7,-2.2c0,-0.9,0.2,-1.7,0.6,-2.2c0.4,-0.6,1,-0.9,1.7,-0.9c0.7,0,1.3,0.3,1.7,0.9c0.4,0.5,0.6,1.3,0.6,2.2c0,0.8,-0.2,1.6,-0.6,2.1c-0.4,0.6,-1,0.9,-1.7,0.9c-0.7,0,-1.2,-0.3,-1.6,-0.8Z" class="g15_5" />
<path d="M726.9,901.8l-1.2,0l0,5.6c-0.8,0.9,-1.6,1.3,-2.3,1.3c-0.5,0,-0.8,-0.1,-1,-0.5c-0.2,-0.3,-0.3,-0.8,-0.3,-1.4l0,-5l-1.2,0l0,5.3c0,1.8,0.7,2.6,2.2,2.6c0.9,0,1.8,-0.4,2.6,-1.3l0,1.2l1.2,0l0,-7.8Z" class="g15_5" />
<path d="M735.9,908.3c-0.6,0.3,-1.2,0.4,-1.8,0.4c-0.4,0,-0.7,-0.1,-0.9,-0.4c-0.2,-0.2,-0.3,-0.6,-0.3,-1.1l0,-4.4l2.6,0l0,-1l-2.6,0l0,-2.1l-1.1,0l0,2.1l-1.5,0l0,1l1.5,0l0,4.7c0,1.5,0.7,2.2,2,2.2c0.8,0,1.6,-0.1,2.3,-0.5l-0.2,-0.9Z" class="g15_5" />
<path d="M744.5,904.5l-5,0l0,1l5,0l0,-1Z" class="g15_5" />
<path d="M754.4,901.8l-1.2,0l0,5.6c-0.8,0.9,-1.5,1.3,-2.3,1.3c-0.5,0,-0.8,-0.1,-1,-0.5c-0.2,-0.3,-0.3,-0.8,-0.3,-1.4l0,-5l-1.2,0l0,5.3c0,1.8,0.7,2.6,2.2,2.6c0.9,0,1.8,-0.4,2.6,-1.3l0,1.2l1.2,0l0,-7.8Z" class="g15_5" />
<path d="M763,901.9c-0.7,-0.2,-1.4,-0.3,-2.1,-0.3c-0.9,0,-1.7,0.2,-2.3,0.6c-0.6,0.4,-0.9,0.9,-0.9,1.6c0,0.3,0.1,0.6,0.2,0.8c0.1,0.3,0.3,0.5,0.6,0.7c0.2,0.1,0.5,0.3,0.8,0.4c0.2,0.1,0.7,0.2,1.3,0.4c0.7,0.2,1.2,0.4,1.4,0.6c0.2,0.3,0.3,0.5,0.3,0.8c0,0.4,-0.2,0.7,-0.6,0.9c-0.4,0.3,-0.9,0.4,-1.6,0.4c-0.7,0,-1.4,-0.2,-2.1,-0.5l-0.2,1c0.6,0.3,1.4,0.5,2.4,0.5c0.9,0,1.7,-0.3,2.3,-0.7c0.7,-0.4,1,-1,1,-1.7c0,-0.4,-0.1,-0.8,-0.3,-1c-0.1,-0.3,-0.4,-0.6,-0.7,-0.8c-0.3,-0.2,-0.7,-0.3,-1.3,-0.5l-1.1,-0.3c-0.5,-0.2,-0.8,-0.3,-1,-0.5c-0.1,-0.1,-0.2,-0.3,-0.2,-0.6c0,-0.3,0.2,-0.6,0.5,-0.8c0.4,-0.2,0.9,-0.3,1.5,-0.3c0.6,0,1.2,0.1,1.9,0.3l0.2,-1Z" class="g15_5" />
<text
x="691"
y="909"
dx="0,0,0,0,0,0,0,0"
class="s5_5"
>about-us</text>

<text
x="490"
y="930"
dx="0,0,0,0,0,0,0,2.9,0,0,0,0"
class="s2_5"
>rather than </text>

<path d="M581.6,929.1l0,-3.3c0,-1.9,-0.9,-2.8,-2.7,-2.8c-0.9,0,-1.9,0.3,-2.9,0.8l0.3,0.8c0.3,-0.1,0.7,-0.3,1.2,-0.4c0.4,-0.1,0.8,-0.2,1.1,-0.2c1.2,0,1.8,0.7,1.8,2l0,0.4l-1.3,0.1c-0.6,0,-1.1,0.1,-1.5,0.2c-0.4,0.1,-0.8,0.3,-1.1,0.5c-0.3,0.2,-0.5,0.4,-0.7,0.7c-0.1,0.3,-0.2,0.7,-0.2,1c0,0.7,0.2,1.2,0.7,1.6c0.4,0.4,0.9,0.6,1.5,0.6c1.1,0,2,-0.4,2.7,-1.4c0,0.5,0,0.9,0.1,1.2l1.2,0c-0.1,-0.5,-0.2,-1.1,-0.2,-1.8Zm-2.2,0.6c-0.5,0.2,-0.9,0.3,-1.3,0.3c-0.4,0,-0.7,-0.1,-0.9,-0.3c-0.2,-0.2,-0.4,-0.5,-0.4,-0.8c0,-0.4,0.2,-0.7,0.5,-0.9c0.2,-0.3,0.6,-0.4,1,-0.5c0.4,-0.1,1.1,-0.2,2.1,-0.3l0,1.4c-0.3,0.5,-0.6,0.8,-1,1.1Z" class="g15_5" />
<path d="M585.9,920.4l-1.1,0l0,10.5l1.1,0l0,-1.1c0.3,0.4,0.6,0.7,1,1c0.5,0.2,0.9,0.3,1.4,0.3c0.9,0,1.6,-0.4,2.1,-1.2c0.6,-0.8,0.8,-1.8,0.8,-3c0,-1.1,-0.2,-2.1,-0.7,-2.8C590,923.3,589.3,923,588.4,923c-0.5,0,-1,0.1,-1.4,0.3c-0.5,0.2,-0.8,0.5,-1.1,0.9l0,-3.8ZM588,924c0.7,0,1.1,0.3,1.5,0.8c0.4,0.6,0.5,1.3,0.5,2.2c0,0.9,-0.2,1.6,-0.5,2.2c-0.4,0.6,-0.9,0.9,-1.5,0.9c-0.4,0,-0.8,-0.1,-1.2,-0.4c-0.3,-0.3,-0.6,-0.7,-0.9,-1.1l0,-3.3c0.6,-0.9,1.3,-1.3,2.1,-1.3Z" class="g15_5" />
<path d="M594.4,924.1c-0.7,0.7,-1,1.7,-1,3c0,1.2,0.3,2.2,1,2.9c0.6,0.8,1.4,1.1,2.5,1.1c1.1,0,1.9,-0.3,2.6,-1.1c0.6,-0.7,0.9,-1.7,0.9,-2.9c0,-1.3,-0.3,-2.2,-0.9,-3C598.8,923.4,598,923,596.9,923c-1.1,0,-1.9,0.4,-2.5,1.1Zm0.8,5.1c-0.4,-0.5,-0.6,-1.3,-0.6,-2.1c0,-0.9,0.2,-1.7,0.6,-2.3c0.4,-0.5,1,-0.8,1.7,-0.8c0.7,0,1.3,0.3,1.7,0.9c0.4,0.5,0.6,1.3,0.6,2.2c0,0.8,-0.2,1.5,-0.6,2.1c-0.4,0.6,-1,0.9,-1.7,0.9c-0.7,0,-1.3,-0.3,-1.7,-0.9Z" class="g15_5" />
<path d="M609.1,923.2l-1.2,0l0,5.6c-0.8,0.9,-1.6,1.3,-2.3,1.3c-0.5,0,-0.8,-0.1,-1,-0.5c-0.2,-0.3,-0.3,-0.8,-0.3,-1.5l0,-4.9l-1.2,0l0,5.3c0,1.7,0.7,2.6,2.2,2.6c0.9,0,1.8,-0.4,2.6,-1.3l0,1.1l1.2,0l0,-7.7Z" class="g15_5" />
<path d="M618.1,929.7c-0.6,0.3,-1.2,0.4,-1.8,0.4c-0.4,0,-0.7,-0.1,-0.9,-0.4c-0.2,-0.2,-0.3,-0.6,-0.3,-1.1l0,-4.4l2.6,0l0,-1l-2.6,0l0,-2.2l-1.1,0l0,2.2l-1.5,0l0,1l1.5,0l0,4.7c0,1.5,0.6,2.2,2,2.2c0.8,0,1.6,-0.1,2.3,-0.5l-0.2,-0.9Z" class="g15_5" />
<path d="M626.5,926.5l-4,0l0,1l4,0l0,-1Z" class="g15_5" />
<path d="M636.6,923.2l-1.2,0l0,5.6c-0.8,0.9,-1.6,1.3,-2.3,1.3c-0.5,0,-0.8,-0.1,-1,-0.5c-0.2,-0.3,-0.3,-0.8,-0.3,-1.5l0,-4.9l-1.2,0l0,5.3c0,1.7,0.7,2.6,2.2,2.6c0.9,0,1.8,-0.4,2.6,-1.3l0,1.1l1.2,0l0,-7.7Z" class="g15_5" />
<path d="M645.2,923.3c-0.7,-0.2,-1.4,-0.3,-2.1,-0.3c-0.9,0,-1.7,0.2,-2.3,0.6c-0.6,0.4,-0.9,0.9,-0.9,1.6c0,0.3,0.1,0.6,0.2,0.8c0.1,0.3,0.3,0.5,0.6,0.6c0.2,0.2,0.5,0.4,0.8,0.5c0.2,0,0.7,0.2,1.3,0.4c0.7,0.2,1.2,0.4,1.4,0.6c0.2,0.2,0.3,0.5,0.3,0.7c0,0.4,-0.2,0.8,-0.6,1c-0.4,0.2,-0.9,0.4,-1.6,0.4c-0.7,0,-1.4,-0.2,-2.1,-0.5l-0.2,1c0.6,0.3,1.4,0.4,2.4,0.4c0.9,0,1.7,-0.2,2.3,-0.6c0.7,-0.4,1,-1,1,-1.8c0,-0.3,-0.1,-0.7,-0.3,-1c-0.1,-0.2,-0.4,-0.5,-0.7,-0.7c-0.3,-0.2,-0.7,-0.4,-1.3,-0.5l-1.1,-0.3c-0.5,-0.2,-0.8,-0.3,-1,-0.5c-0.2,-0.2,-0.2,-0.3,-0.2,-0.6c0,-0.3,0.1,-0.6,0.5,-0.8c0.4,-0.2,0.9,-0.3,1.5,-0.3c0.6,0,1.2,0.1,1.9,0.3l0.2,-1Z" class="g15_5" />
<path d="M651.2,929.5c-0.1,0.2,-0.2,0.4,-0.2,0.7c0,0.2,0.1,0.5,0.2,0.7c0.2,0.2,0.4,0.2,0.7,0.2c0.2,0,0.5,0,0.6,-0.2c0.2,-0.2,0.3,-0.5,0.3,-0.7c0,-0.3,-0.1,-0.5,-0.3,-0.7c-0.1,-0.2,-0.4,-0.3,-0.6,-0.3c-0.3,0,-0.5,0.1,-0.7,0.3Z" class="g15_5" />
<path d="M664.1,925.6c0,-1.7,-0.7,-2.6,-2.2,-2.6c-0.9,0,-1.8,0.4,-2.6,1.3l0,-3.9l-1.2,0l0,10.5l1.2,0l0,-5.6c0.8,-0.9,1.6,-1.3,2.3,-1.3c0.4,0,0.8,0.1,1,0.5c0.2,0.3,0.3,0.8,0.3,1.5l0,4.9l1.2,0l0,-5.3Z" class="g15_5" />
<path d="M673.1,929.7c-0.6,0.3,-1.2,0.4,-1.8,0.4c-0.4,0,-0.7,-0.1,-0.9,-0.4c-0.2,-0.2,-0.3,-0.6,-0.3,-1.1l0,-4.4l2.6,0l0,-1l-2.6,0l0,-2.2l-1.1,0l0,2.2l-1.5,0l0,1l1.5,0l0,4.7c0,1.5,0.7,2.2,2,2.2c0.8,0,1.6,-0.1,2.4,-0.5l-0.3,-0.9Z" class="g15_5" />
<path d="M683.1,925.5c0,-1.7,-0.5,-2.5,-1.5,-2.5c-0.2,0,-0.5,0.1,-0.8,0.4c-0.4,0.2,-0.6,0.5,-0.8,0.9c-0.1,-0.4,-0.3,-0.7,-0.5,-0.9c-0.3,-0.3,-0.6,-0.4,-0.9,-0.4c-0.3,0,-0.6,0.1,-0.9,0.4c-0.3,0.2,-0.6,0.5,-0.8,0.9l0,-1.1l-1.1,0l0,7.7l1.2,0l0,-5.6c0,0,0.1,-0.2,0.4,-0.7c0.3,-0.4,0.5,-0.6,0.8,-0.6c0.4,0,0.7,0.6,0.7,1.8l0,5.1l1.1,0l0,-5.6c0,0,0.2,-0.2,0.4,-0.7c0.3,-0.4,0.6,-0.6,0.8,-0.6c0.5,0,0.7,0.6,0.7,1.8l0,5.1l1.2,0l0,-5.4Z" class="g15_5" />
<path d="M691.5,929.5l-2,0l0,-9l-4,0l0,1l2,0l0,9l4,0l0,-1Z" class="g15_5" />
<text
x="574"
y="930"
dx="0,0,0,0,0,0,0,0,0,0,0,0,0"
class="s5_5"
>about-us.html</text>

<text
x="693"
y="930"
dx="0,0,2.9,0,0,0,0,2.9,0,0,0"
class="s2_5"
>. This can </text>

<text
x="490"
y="952"
dx="0,0,0,0.2,0,0,0,0,0,0,0,0,0,0.2,0,0,0.2,0,0,0,0,0.2,0,0,-0.3,0,0.2,0,0,0,0,0.2,0,0,0,0,0.2,0,-0.3,0"
class="s2_5"
>be confusing so make sure that they are </text>

<text
x="490"
y="973"
dx="0,0,0,0,0,0,0,0,0,0,0,0,0,0,0,0,0,0,-0.3,0,0,0,0,0,0,0,0,-0.3,0,0,0,0,0,0,0,0,0,0,0,0,0,0,0,0,0"
class="s2_5"
>visible – if you're not sure how to do this, </text>

<text
x="490"
y="995"
dx="0,0,0,-0.9,0,0,-0.9,0,0,0,0,0,0,0,0,0,0,0,0,0,0,0,0,0,0,0,0,0,0,0,0,0"
class="s2_5"
>go to http://nano.tips/findfiles</text>

<text
x="975"
y="738"
dx="0,0,0,0,0,3.4,0,0,0,0,-0.3,0,3.4,0,0,0,0,0,0,0,0,0,0,3.4,0,3.4,0,0,0,0,0,0,0,3.4,0,0,0,0,0,0,3.4,0,0,0,0,3.4,0,0,3.4,0,0,0,0,3.4,0,0,0,3.4,0,0,0"
class="s2_5"
>When you’re developing a website you’ll need to open the web </text>

<text
x="975"
y="759"
dx="0,0,0,0,0,0,-0.9,0,0,-0.9,0,0,0,-0.9,0,0,-0.3,0,0,-0.3,0,0,0,-0.9,0,0,0,0,0,0,0,0,0,0,0,0,0"
class="s2_5"
>pages in two different applications: </text>

<text
x="975"
y="781"
dx="0"
class="s6_5"
>[</text>

<text
x="1003"
y="781"
dx="0,0,-0.9,0,0,0,0,0,0,0,0,0,0,-0.9,0,0,0,0,0,0,-0.9,0,0,-0.9,0,-0.9,0,0,0,0,-0.9,0,0,0,0,0,0,-0.9,0,0,-0.9,0,0,0,0,0,-0.9,0,0,0,-0.9,0,0,0,0,-0.9,0,0,0,-0.9,0,0,0,-0.9,0,0,0"
class="s2_5"
>a plain-text editor or a code editor to write the code for the page</text>

<text
x="975"
y="802"
dx="0"
class="s6_5"
>[</text>

<text
x="1003"
y="802"
dx="0,0,-0.9,0,0,0,-0.9,0,-0.3,0,0,0,0,0,-0.9,0,0,-0.9,0,0,0,-0.9,0,0,0,-0.9,-0.3,0,0,0,0,0"
class="s2_5"
>a web browser to see the results</text>

<text
x="975"
y="824"
dx="0,0,0,0,0,-0.9,0,0,0,-0.9,0,0,-0.9,0,-0.9,0,0,0,0,0,0,-0.9,0,0,0,0,0,0,0,0,0,-0.9,0,0,-0.9,0,0,0,0,0,0,-0.9,0,0,0,-0.9,0,0,0,0,0,0,-0.9,0,0,0,0,-0.9,0,0,0,-0.9,0,0,0,0,-0.9,0,0,-0.9,0,0"
class="s2_5"
>This can be a little confusing at first, but you’ll soon get used to it!</text>

<text
x="1256"
y="385"
dx="0,0"
class="s3_5"
>4.</text>

<text
x="1285"
y="385"
dx="0,0,0,0,3.4,0,0,0,3.4,0,0,0,0,3.4,0,0,0,3.4,0,0,0,0,3.4,0,0,0,0,3.4,0,0,0,0,3.4,0,0,3.4,0,0,0,0"
class="s2_5"
>Now you have the same file open in your </text>

<text
x="1256"
y="406"
dx="0,0,0,0,2.7,0,-0.3,0,0,0,0,0,2.7,0,0,0,2.7,0,0,0,2.7,0,0,0,0,2.7,0,0,0,0,0,-1.4,0,2.7,0,0,0,0,0,0,0,2.7,0,0,0"
class="s2_5"
>web browser and the code editor. Arrange the </text>

<text
x="1256"
y="428"
dx="0,0,0,0,0,0,0,0,-0.3,0,0,-0.3,0,0,0,0,-0.3,0,0,0,-0.3,0,0,0,-0.3,0,0,0,-0.3,0,0,0,-0.3,0,0,0,0,-0.3,0,0,0,0,0,0,-0.3,0,0,0"
class="s2_5"
>windows so that you can see the code editor and </text>

<text
x="1256"
y="449"
dx="0,0,0,0,-0.9,0,0,0,-0.9,0,-0.3,0,0,0,0,0,-0.9,0,0,-0.9,0,0,0,-0.9,0,0,0,0,-0.9,0,0,0,0"
class="s2_5"
>the web browser at the same time.</text>

<text
x="1256"
y="492"
dx="0,0,0,0,0,0,0,4.2,0,0,0,4.2,0,0,0,0,4.2,0,0,4.2,0,0,0,4.2,0,0,0,0,4.2,0,0,0,0,0,0,4.2,0,0,4.2,0,0,0,0,4.2,0,0"
class="s2_5"
>Change the text in the code editor so that it </text>

<text
x="1256"
y="513"
dx="0,0,0,0,0,0,6.9,0,0,0,6.9,0,0,0,0,0,6.9,0,0,6.9,0,0,0,6.9,0,0,0,6.9,0,0,0,0,6.9,0,0,0,0,0,0,0,0"
class="s2_5"
>shows the names of you and your friends. </text>

<text
x="1256"
y="535"
dx="0,0,0,0,0,0,0,4.4,0,0,0,4.4,0,0,0,0,4.4,0,0,4.4,0,0,0,4.4,0,0,0,0,4.4,0,0,4.4,0,0,0,4.4,0,0,0,0,4.4,0,0"
class="s2_5"
>Change the name of the band if you like as </text>

<text
x="1256"
y="556"
dx="0,0,0,0,0,0,1.2,0,0,1.2,0,0,0,0,0,0,0,1.2,0,0,1.2,0,0,0,0,0,0,1.2,0,0,0,0,1.2,0,0,0,0,0,1.2,0,-0.3,0,1.2,0,0,0,0,-1.4,0"
class="s2_5"
>well. So instead of saying ‘Our names are Holly, </text>

<text
x="1256"
y="578"
dx="0,0,0,0,0,0,0,0,-0.2,0,0,0,0,0,0,-0.2,0,0,0,-0.2,0,0,0,0,0,-0.2,0,0,-0.2,0,0,0,0,0,-0.2,0,0,0,-0.2,0,0,0,0,-0.2,0,0,0,0,0"
class="s2_5"
>Dervla, Daniel and Sam.’ it might say ‘Our names </text>

<text
x="1256"
y="599"
dx="0,0,-0.3,0,-0.3,0,0,0,0,0,0,-0.3,0,0,0,0,-0.3,0,0,0,0,-0.3,0,0,0,-0.3,0,0,0,0,0,-0.3,-1.7,0,-0.3,0,0,0,0,0,0,-0.3,0,0,0,-0.3,0,0,0,0,0"
class="s2_5"
>are ‘Anna, Ali, Zeke and Zoe’. To change the text, </text>

<text
x="1256"
y="620"
dx="0,0,0,0,0,0,0.6,0,0,0.6,0,0,0,0.6,0,0,0,0,0.6,0,0,0,0,0,0,0.6,0,0,0,0.6,0,0,0,0,0.6,0,0,0.6,0,0,0,0.6,0,0,0,0.6,0,0,0,0,0"
class="s2_5"
>click in the code editor and type in the new text. </text>

<text
x="1256"
y="642"
dx="0,0,0,0,-0.3,0,1.1,0,0,0,0,0,0,1.1,0,0,0"
class="s2_5"
>Don’t change the </text>

<text
x="1380"
y="642"
dx="0,0,-0.1,0"
class="s4_5"
>tags</text>

<text
x="1417"
y="642"
dx="0,0,1.1,0,0,0,1.1,0,0,0,0,0,0,1.1,0,0,0,0,0,0,0,1.1,0,0,0"
class="s2_5"
>– the things between the </text>

<text
x="1256"
y="663"
dx="0,0,0,0,0,0,3.2,0,0,0,-0.3,0,0,0"
class="s4_5"
>angle brackets</text>

<text
x="1373"
y="663"
dx="0,0,0,0,0,3.2,0,0"
class="s2_5"
>such as </text>

<path d="M1445.1,660.9l-4.5,-2.7l4.5,-2.7l0,-1.1l-5.6,3.3l0,0.9l5.6,3.4l0,-1.1Z" class="g15_5" />
<path d="M1454.5,658.3c0,-1.8,-0.7,-2.7,-2.1,-2.7c-1,0,-1.8,0.5,-2.7,1.4l0,-3.9l-1.1,0l0,10.5l1.1,0l0,-5.6c0.8,-0.9,1.6,-1.4,2.3,-1.4c0.5,0,0.8,0.2,1,0.5c0.3,0.3,0.4,0.8,0.4,1.5l0,5l1.1,0l0,-5.3Z" class="g15_5" />
<path d="M1463.7,662.5l-2.1,0l0,-9.5l-1,0l-2.3,1.2l0,1.2l2.1,-1.1l0,8.2l-2.2,0l0,1.1l5.5,0l0,-1.1Z" class="g15_5" />
<path d="M1472.9,657.7l-5.6,-3.3l0,1.1l4.4,2.7l-4.4,2.7l0,1.1l5.6,-3.4l0,-0.9Z" class="g15_5" />
<text
x="1437"
y="663"
dx="0,0,0,0"
class="s5_5"
>&lt;h1&gt;</text>

<text
x="1481"
y="663"
dx="0,0,0,0"
class="s2_5"
>and </text>

<path d="M1522.9,660.9l-4.5,-2.7l4.5,-2.7l0,-1.1l-5.6,3.3l0,0.9l5.6,3.4l0,-1.1Z" class="g15_5" />
<path d="M1527.6,655.8l-1.2,0l0,10.9l1.2,0l0,-4.2c0.2,0.4,0.5,0.7,0.9,0.9c0.5,0.3,0.9,0.4,1.4,0.4c0.9,0,1.6,-0.4,2.2,-1.2c0.5,-0.8,0.8,-1.8,0.8,-3c0,-1.2,-0.3,-2.1,-0.8,-2.9c-0.5,-0.7,-1.2,-1.1,-2.1,-1.1c-0.5,0,-1,0.1,-1.4,0.4c-0.4,0.2,-0.8,0.5,-1,0.8l0,-1Zm2,0.8c0.7,0,1.2,0.3,1.5,0.9c0.4,0.5,0.5,1.3,0.5,2.2c0,0.8,-0.1,1.6,-0.5,2.2c-0.4,0.5,-0.9,0.8,-1.5,0.8c-0.4,0,-0.8,-0.1,-1.2,-0.4c-0.3,-0.3,-0.6,-0.7,-0.8,-1.1l0,-3.2c0.5,-0.9,1.2,-1.4,2,-1.4Z" class="g15_5" />
<path d="M1541.5,657.7l-5.6,-3.3l0,1.1l4.5,2.7l-4.5,2.7l0,1.1l5.6,-3.4l0,-0.9Z" class="g15_5" />
<text
x="1515"
y="663"
dx="0,0,0"
class="s5_5"
>&lt;p&gt;</text>

<text
x="1550"
y="663"
dx="0,0,3.2,0,0,0,0"
class="s2_5"
>– just </text>

<text
x="1256"
y="684"
dx="0,0,0,0,0,0,0,-0.9,0,0,0,-0.9,0,0,0,0,-0.9,0,0,0,0,0,0,0,-0.9,0,0,0,0"
class="s2_5"
>change the text between them.</text>

<text
x="879"
y="75"
dx="0,0"
class="s3_5"
>3.</text>

<text
x="906"
y="75"
dx="0,0,0,0,1.4,0,0,0,0,1.4,0,0,0,0,0,1.4,0"
class="s2_5"
>The code tells a </text>

<text
x="1024"
y="75"
dx="0,0,0,0,1.4,0,-0.3,-0.2,0,0,0"
class="s4_5"
>web browser</text>

<text
x="1119"
y="75"
dx="0,0,1.4,0,0,0,0,1.4,0,0"
class="s2_5"
>, such as </text>

<text
x="879"
y="96"
dx="0,0,0,-0.3,0,0,0,1.8,0,0,1.8,0,0,-0.3,0,0,0,0,0,1.8,0,0,0,0,1.8,0,0,1.8,0,0,1.8,0,0,0,1.8,0,0,0,0,0,0,0,0"
class="s2_5"
>Chrome or Firefox, what is in the webpage. </text>

<text
x="879"
y="118"
dx="0,0,0,0,0,0.9,0,0,0,0,0.9,0,0,0.9,0,0,0,0,0.9,0,0,0.9,0,0,0,0,0,0.9,0,0"
class="s2_5"
>This type of code is known as </text>

<text
x="1092"
y="118"
dx="0,0,0,0"
class="s4_5"
>HTML</text>

<text
x="1134"
y="118"
dx="0,0,0.9,0,0,0,0,0"
class="s2_5"
>, which </text>

<text
x="879"
y="139"
dx="0,0,0,0,0,0,0,-0.9,0,0,0,-0.9,0,0,0,0,0.3,0,0,0,0,-0.9,0,0,0,0,0,0,-0.9,0,0,0,0,0,0,0,0"
class="s2_5"
>stands for Hypertext Markup Language.</text>

<text
x="879"
y="182"
dx="0,0,0,0,0,0,1.8,0,0,0,0,1.8,0,0,0,1.8,0,0,0,0,1.8,0,0,1.8,0,0,0,1.8,0,0,0,1.8,0,-0.3,0,0,0,0,-1.4,0,1.8,0,0,0,0"
class="s2_5"
>Let's open the file in our web browser. This </text>

<text
x="879"
y="203"
dx="0,0,0,0,0,0,3.1,0,0,0,0,0,0,0,3.1,0,0,3.1,0,0,0,0,0,0,0,3.1,0,0,3.1,0,0,0,3.1,0,0,0,0,0,3.1,0,0,0,0,0,0"
class="s2_5"
>time, instead of looking at the code, you'll </text>

<text
x="879"
y="225"
dx="0,0,0,0,0.6,0,0,0,0.6,0,0,0,0.6,0,0,0,0,0.6,0,0,0.6,0,0,0.6,0,0,0.6,0,0,0,0,0,0.6,0,0,0.6,0,0,0.6,0,0,0,0,0"
class="s2_5"
>see the web page as it is meant to be seen! </text>

<text
x="879"
y="246"
dx="0,-1.4,0,0,3,0,0,0,3,0,0,0,0,0,0,0,3,0,0,3,0,0,0,0,3,0,0,0,0,3,0,0,3,0,0,0,0,0,0,0,0,3,0,0"
class="s2_5"
>You can usually do this just by clicking or </text>

<text
x="879"
y="267"
dx="0,0,0,0,0,0,0,0,0,0,0,0,0,0,0,0,5.1,0,0,0,5.1,0,0,0,0,5.1,0,5.1,0,0,5.1,0,0,0,0,-0.3,0,5.1,0,0,0,0,0,0"
class="s2_5"
>double-clicking the file – if you're having </text>

<text
x="879"
y="289"
dx="0,0,-0.3,0,0,0,0,0,0,-0.9,0,0,-0.9,0,0,-0.9,0,0,0,0,0,0,0,0,0,0,0,0,0,0,0,0,0,0,0,0,0,0,0,0,0"
class="s2_5"
>trouble, go to http://nano.tips/openfiles</text>

<text
x="143"
y="717"
dx="0,-2.1,-2.1,-2.9,-1.8,0,0,-2.6,-2.1"
class="s7_5"
>NINJA TIP</text>

<text
x="481"
y="717"
dx="0,-2.1,-2.1,-2.9,-1.8,0,0,-2.6,-2.1"
class="s7_5"
>NINJA TIP</text>

<text
x="966"
y="695"
dx="0,-2.1,-2.1,-2.9,-1.8,0,0,-2.6,-2.1"
class="s7_5"
>NINJA TIP</text>

<text
x="298"
y="150"
dx="0,0,0,0,0,0,0,0,0,0,-1.8,0,0,0,0"
class="s5_5"
>&lt;!DOCTYPE html&gt;</text>

<text
x="298"
y="171"
dx="0,0,0,0,0,0"
class="s5_5"
>&lt;html&gt;</text>

<text
x="298"
y="193"
dx="0,0,0,0,0,0"
class="s5_5"
>&lt;head&gt;</text>

<text
x="298"
y="214"
dx="0,0,0,0,0,0,0,0,0,0,0,0,0,-1.8,0,0,0,0,0,0,0,0,0"
class="s5_5"
>&lt;title&gt;About Us&lt;/title&gt;</text>

<text
x="298"
y="235"
dx="0,0,0,0,0,0,0"
class="s5_5"
>&lt;/head&gt;</text>

<text
x="298"
y="257"
dx="0,0,0,0,0,0"
class="s5_5"
>&lt;body&gt;</text>

<text
x="298"
y="278"
dx="0,0,0,0,0,0,0,0,0,0,-1.8,0,0,0,0,0,0"
class="s5_5"
>&lt;h1&gt;About Us&lt;/h1&gt;</text>

<text
x="298"
y="299"
dx="0,0,0,0,0,0,-1.8,0,0,0,-1.8,0,0,0,-1.8,0,0,0,0,0,0,0,0,0,0,0,0,0"
class="s5_5"
>&lt;p&gt;We are the Nanonauts.&lt;/p&gt;</text>

<text
x="298"
y="321"
dx="0,0,0,0,0,0,0,-1.8,0,0,0,0,0,-1.8,0,0,0,-1.8,0,0,0,0,0,0,-1.8,0,0,0,0,0,0,0,-1.8,0,0,0,0,0,0,-1.8,0,0,0,-1.8,0,0,0,0,0,0,0"
class="s5_5"
>&lt;p&gt;Our names are Holly, Dervla, Daniel and Sam.&lt;/p&gt;</text>

<text
x="298"
y="342"
dx="0,0,0,0,0,0,0"
class="s5_5"
>&lt;/body&gt;</text>

<text
x="298"
y="364"
dx="0,0,0,0,0,0,0"
class="s5_5"
>&lt;/html&gt;</text>

<text
x="1257"
y="150"
dx="0,0,0,0,0,0,-1.3,0"
class="s8_5"
>About Us</text>

<text
x="1251"
y="193"
dx="0,-1.2,0,-0.8,0,0,0,-0.8,0,0,0,-0.8,0,0,0,0,0,0,0,0,0,0"
class="s9_5"
>We are the Nanonauts. </text>

<text
x="1251"
y="225"
dx="0,0,0,0,-0.8,0,0,0,0,0,-0.8,0,0,0,-0.8,0,0,0,0,-1,0,-0.8,0,0,0,0,0,0,0,-0.8,0,0,0,0,0,0,-0.8,0,0,0,-0.8,0,0,0"
class="s9_5"
>Our names are Holly, Dervla, Daniel and Sam.</text>

<text
x="1253"
y="353"
dx="0,-6.5,-4.5,-4.5,-4.6,-5.4,0,0,-6.7,0"
class="s10_5"
>Change it!</text>

<path d="M47,43l0,4l-4,0l0,54l4,0l0,5l295,0l0,-63Z" class="g16_5" />
<text
x="56"
y="93"
dx="0,0,-3.9,-3.6,-3.5,-4.5,0,0,-4.4,0"
class="s11_5"
>&lt;ABOUT US&gt;</text>

<path d="M310,903.1c0,-2.2,-0.9,-3.2,-2.6,-3.2c-1.1,0,-2.2,0.5,-3.2,1.6l0,-1.4l-1.4,0l0,9.5l1.4,0l0,-6.9c1,-1.1,1.9,-1.6,2.8,-1.6c0.5,0,0.9,0.2,1.2,0.6c0.3,0.3,0.4,0.9,0.4,1.8l0,6.1l1.4,0l0,-6.5Z" class="g15_5" />
<path d="M321,907.4l0,-4.1c0,-2.3,-1.1,-3.4,-3.2,-3.4c-1.1,0,-2.3,0.3,-3.5,0.9l0.3,1.1c0.4,-0.2,0.9,-0.4,1.4,-0.6c0.6,-0.1,1,-0.2,1.4,-0.2c1.4,0,2.2,0.8,2.2,2.4l0,0.5l-1.6,0.1c-0.7,0.1,-1.3,0.2,-1.8,0.3c-0.5,0.1,-0.9,0.3,-1.3,0.6c-0.4,0.2,-0.6,0.5,-0.8,0.9c-0.2,0.3,-0.3,0.8,-0.3,1.2c0,0.8,0.3,1.5,0.8,2c0.5,0.5,1.1,0.7,1.8,0.7c1.4,0,2.5,-0.6,3.3,-1.8c0,0.7,0,1.2,0.1,1.6l1.4,0c-0.1,-0.7,-0.2,-1.4,-0.2,-2.2Zm-2.7,0.6c-0.5,0.3,-1,0.4,-1.5,0.4c-0.4,0,-0.8,-0.1,-1.1,-0.4c-0.3,-0.2,-0.4,-0.6,-0.4,-1c0,-0.4,0.1,-0.8,0.5,-1.1c0.3,-0.3,0.7,-0.4,1.2,-0.5c0.5,-0.1,1.3,-0.3,2.6,-0.4l0,1.7c-0.4,0.6,-0.8,1,-1.3,1.3Z" class="g15_5" />
<path d="M332,903.1c0,-2.2,-0.9,-3.2,-2.7,-3.2c-1.1,0,-2.1,0.5,-3.1,1.6l0,-1.4l-1.4,0l0,9.5l1.4,0l0,-6.9c1,-1.1,1.9,-1.6,2.7,-1.6c0.6,0,1,0.2,1.3,0.6c0.2,0.3,0.4,0.9,0.4,1.8l0,6.1l1.4,0l0,-6.5Z" class="g15_5" />
<path d="M336.3,901.2c-0.8,0.9,-1.2,2.1,-1.2,3.6c0,1.5,0.4,2.7,1.2,3.6c0.7,0.9,1.7,1.4,3,1.4c1.3,0,2.3,-0.5,3.1,-1.4c0.7,-0.9,1.1,-2.1,1.1,-3.6c0,-1.5,-0.4,-2.7,-1.1,-3.6c-0.8,-0.9,-1.8,-1.3,-3.1,-1.3c-1.2,0,-2.3,0.4,-3,1.3Zm1,6.3c-0.5,-0.7,-0.7,-1.6,-0.7,-2.7c0,-1.1,0.2,-2,0.7,-2.7c0.5,-0.7,1.2,-1,2,-1c0.9,0,1.6,0.3,2,1c0.5,0.7,0.8,1.6,0.8,2.7c0,1.1,-0.3,1.9,-0.8,2.7c-0.5,0.7,-1.1,1.1,-2,1.1c-0.8,0,-1.5,-0.4,-2,-1.1Z" class="g15_5" />
<path d="M353.9,903.1c0,-2.2,-0.9,-3.2,-2.6,-3.2c-1.1,0,-2.2,0.5,-3.2,1.6l0,-1.4l-1.4,0l0,9.5l1.4,0l0,-6.9c1,-1.1,1.9,-1.6,2.8,-1.6c0.5,0,1,0.2,1.2,0.6c0.3,0.3,0.4,0.9,0.4,1.8l0,6.1l1.4,0l0,-6.5Z" class="g15_5" />
<path d="M364.9,907.4l0,-4.1c0,-2.3,-1.1,-3.4,-3.2,-3.4c-1.1,0,-2.3,0.3,-3.5,0.9l0.3,1.1c0.4,-0.2,0.9,-0.4,1.4,-0.6c0.6,-0.1,1,-0.2,1.4,-0.2c1.5,0,2.2,0.8,2.2,2.4l0,0.5l-1.6,0.1c-0.7,0.1,-1.3,0.2,-1.8,0.3c-0.5,0.1,-0.9,0.3,-1.3,0.6c-0.3,0.2,-0.6,0.5,-0.8,0.9c-0.2,0.3,-0.3,0.8,-0.3,1.2c0,0.8,0.3,1.5,0.8,2c0.5,0.5,1.2,0.7,1.8,0.7c1.4,0,2.5,-0.6,3.3,-1.8c0,0.7,0,1.2,0.1,1.6l1.4,0c-0.1,-0.7,-0.2,-1.4,-0.2,-2.2Zm-2.7,0.6c-0.5,0.3,-1,0.4,-1.5,0.4c-0.4,0,-0.8,-0.1,-1.1,-0.4c-0.3,-0.2,-0.4,-0.6,-0.4,-1c0,-0.4,0.2,-0.8,0.5,-1.1c0.3,-0.3,0.8,-0.4,1.2,-0.5c0.5,-0.1,1.3,-0.3,2.6,-0.4l0,1.7c-0.4,0.6,-0.8,1,-1.3,1.3Z" class="g15_5" />
<path d="M375.9,900.1l-1.4,0l0,6.8c-1,1.1,-1.9,1.6,-2.8,1.6c-0.6,0,-1,-0.2,-1.2,-0.5c-0.3,-0.4,-0.4,-1,-0.4,-1.9l0,-6l-1.4,0l0,6.5c0,2.1,0.9,3.2,2.6,3.2c1.1,0,2.2,-0.6,3.2,-1.6l0,1.4l1.4,0l0,-9.5Z" class="g15_5" />
<path d="M386.7,908c-0.7,0.4,-1.5,0.5,-2.3,0.5c-0.4,0,-0.7,-0.1,-1,-0.4c-0.2,-0.3,-0.3,-0.8,-0.3,-1.4l0,-5.4l3.1,0l0,-1.2l-3.1,0l0,-2.6l-1.4,0l0,2.6l-1.8,0l0,1.2l1.8,0l0,5.8c0,1.8,0.8,2.7,2.5,2.7c0.9,0,1.8,-0.2,2.7,-0.7L386.7,908Z" class="g15_5" />
<path d="M397.2,900.2c-0.9,-0.2,-1.8,-0.3,-2.5,-0.3c-1.2,0,-2.1,0.2,-2.8,0.7c-0.7,0.5,-1.1,1.1,-1.1,1.9c0,0.4,0.1,0.7,0.2,1c0.2,0.3,0.4,0.6,0.7,0.8c0.3,0.2,0.6,0.4,1,0.5c0.3,0.1,0.8,0.3,1.6,0.5c0.8,0.3,1.4,0.6,1.7,0.8c0.2,0.3,0.3,0.6,0.3,0.9c0,0.5,-0.2,0.9,-0.7,1.2c-0.5,0.3,-1.1,0.4,-1.9,0.4c-0.9,0,-1.7,-0.2,-2.5,-0.6l-0.3,1.3c0.8,0.3,1.7,0.5,2.9,0.5c1.1,0,2,-0.3,2.8,-0.8c0.7,-0.5,1.1,-1.2,1.1,-2.1c0,-0.5,-0.1,-0.9,-0.3,-1.2c-0.2,-0.4,-0.5,-0.7,-0.9,-0.9c-0.3,-0.3,-0.8,-0.5,-1.5,-0.7l-1.3,-0.4c-0.6,-0.1,-1,-0.3,-1.2,-0.5c-0.2,-0.2,-0.3,-0.5,-0.3,-0.7c0,-0.5,0.2,-0.8,0.7,-1.1c0.4,-0.2,1,-0.4,1.8,-0.4c0.6,0,1.4,0.2,2.2,0.4l0.3,-1.2Z" class="g15_5" />
<text
transform="matrix(0.98, 0, 0, 1, 300, 909)"
dx="0,0,0,0,0,0,0,0,0"
class="s12_5"
>nanonauts</text>

<path d="M319.1,971.5l0,-4.1c0,-2.2,-1.1,-3.4,-3.2,-3.4c-1.1,0,-2.3,0.4,-3.6,1l0.4,1c0.4,-0.2,0.9,-0.4,1.4,-0.5c0.5,-0.2,1,-0.3,1.3,-0.3c1.5,0,2.3,0.9,2.3,2.5l0,0.4l-1.6,0.2c-0.7,0,-1.3,0.1,-1.8,0.3c-0.5,0.1,-1,0.3,-1.3,0.5c-0.4,0.3,-0.7,0.6,-0.8,1c-0.2,0.3,-0.3,0.7,-0.3,1.2c0,0.8,0.2,1.4,0.8,1.9c0.5,0.5,1.1,0.8,1.8,0.8c1.4,0,2.4,-0.6,3.2,-1.8c0,0.6,0.1,1.1,0.2,1.5l1.4,0c-0.2,-0.6,-0.2,-1.4,-0.2,-2.2Zm-2.7,0.7c-0.5,0.3,-1,0.4,-1.5,0.4c-0.4,0,-0.8,-0.1,-1.1,-0.4c-0.3,-0.2,-0.5,-0.6,-0.5,-1c0,-0.5,0.2,-0.9,0.6,-1.1c0.3,-0.3,0.7,-0.5,1.2,-0.6c0.4,-0.1,1.3,-0.2,2.6,-0.3l0,1.7c-0.4,0.5,-0.8,1,-1.3,1.3Z" class="g15_5" />
<path d="M324.3,960.9l-1.4,0l0,12.8l1.4,0l0,-1.3c0.2,0.4,0.6,0.8,1.1,1.1c0.6,0.3,1.1,0.5,1.7,0.5c1,0,1.9,-0.5,2.6,-1.5c0.6,-1,0.9,-2.2,0.9,-3.7c0,-1.4,-0.3,-2.6,-0.9,-3.5c-0.6,-0.8,-1.4,-1.3,-2.5,-1.3c-0.6,0,-1.2,0.2,-1.7,0.4c-0.5,0.3,-0.9,0.6,-1.2,1.1l0,-4.6Zm2.5,4.3c0.7,0,1.3,0.4,1.7,1.1c0.4,0.6,0.7,1.5,0.7,2.6c0,1.1,-0.3,2,-0.7,2.7c-0.4,0.7,-1,1.1,-1.8,1.1c-0.5,0,-0.9,-0.2,-1.4,-0.5c-0.4,-0.4,-0.8,-0.8,-1,-1.4l0,-3.9c0.6,-1.1,1.5,-1.7,2.5,-1.7Z" class="g15_5" />
<path d="M334.3,965.4c-0.7,0.9,-1.1,2.1,-1.1,3.6c0,1.5,0.4,2.7,1.1,3.6c0.8,0.9,1.8,1.4,3.1,1.4c1.3,0,2.3,-0.5,3.1,-1.4c0.7,-0.9,1.1,-2.1,1.1,-3.6c0,-1.5,-0.4,-2.7,-1.1,-3.6c-0.8,-0.9,-1.8,-1.4,-3.1,-1.4c-1.3,0,-2.3,0.5,-3.1,1.4Zm1.1,6.3c-0.5,-0.8,-0.7,-1.7,-0.7,-2.7c0,-1.1,0.2,-2,0.7,-2.7c0.5,-0.7,1.1,-1.1,2,-1.1c0.9,0,1.5,0.4,2,1.1c0.5,0.7,0.7,1.6,0.7,2.7c0,1,-0.2,1.9,-0.7,2.6c-0.5,0.8,-1.2,1.1,-2,1.1c-0.8,0,-1.5,-0.3,-2,-1Z" class="g15_5" />
<path d="M352,964.2l-1.4,0l0,6.9c-1,1.1,-1.9,1.6,-2.8,1.6c-0.6,0,-1,-0.2,-1.2,-0.6c-0.3,-0.4,-0.4,-1,-0.4,-1.8l0,-6.1l-1.4,0l0,6.5c0,2.2,0.9,3.3,2.6,3.3c1.1,0,2.2,-0.6,3.2,-1.7l0,1.4l1.4,0l0,-9.5Z" class="g15_5" />
<path d="M362.8,972.2c-0.7,0.3,-1.5,0.5,-2.2,0.5c-0.5,0,-0.8,-0.1,-1.1,-0.5c-0.2,-0.3,-0.3,-0.7,-0.3,-1.3l0,-5.4l3.1,0l0,-1.3l-3.1,0l0,-2.5l-1.4,0l0,2.5l-1.8,0l0,1.3l1.8,0l0,5.8c0,1.8,0.8,2.7,2.5,2.7c0.9,0,1.8,-0.3,2.8,-0.7l-0.3,-1.1Z" class="g15_5" />
<path d="M372.5,967.5l-5,0l0,2l5,0l0,-2Z" class="g15_5" />
<path d="M384.9,964.2l-1.4,0l0,6.9c-1,1.1,-1.9,1.6,-2.7,1.6c-0.6,0,-1,-0.2,-1.3,-0.6c-0.2,-0.4,-0.4,-1,-0.4,-1.8l0,-6.1l-1.4,0l0,6.5c0,2.2,0.9,3.3,2.7,3.3c1.1,0,2.1,-0.6,3.1,-1.7l0,1.4l1.4,0l0,-9.5Z" class="g15_5" />
<path d="M395.2,964.4c-0.9,-0.2,-1.7,-0.4,-2.5,-0.4c-1.1,0,-2,0.3,-2.8,0.7c-0.7,0.5,-1,1.2,-1,2c0,0.4,0.1,0.7,0.2,1c0.2,0.3,0.4,0.6,0.7,0.8c0.3,0.2,0.6,0.4,0.9,0.5c0.4,0.1,0.9,0.3,1.6,0.5c0.9,0.3,1.5,0.5,1.7,0.8c0.3,0.2,0.4,0.5,0.4,0.9c0,0.5,-0.3,0.8,-0.7,1.1c-0.5,0.3,-1.2,0.5,-1.9,0.5c-0.9,0,-1.8,-0.2,-2.5,-0.6l-0.3,1.2c0.7,0.4,1.7,0.6,2.8,0.6c1.2,0,2.1,-0.3,2.9,-0.8c0.7,-0.5,1.1,-1.3,1.1,-2.2c0,-0.4,-0.1,-0.8,-0.3,-1.2c-0.2,-0.3,-0.5,-0.6,-0.9,-0.9c-0.4,-0.2,-0.9,-0.4,-1.5,-0.6l-1.3,-0.4c-0.6,-0.2,-1,-0.4,-1.2,-0.6c-0.2,-0.2,-0.3,-0.4,-0.3,-0.7c0,-0.4,0.2,-0.7,0.6,-1c0.5,-0.3,1.1,-0.4,1.8,-0.4c0.7,0,1.5,0.1,2.2,0.4l0.3,-1.2Z" class="g15_5" />
<path d="M402.4,972c-0.2,0.2,-0.3,0.4,-0.3,0.8c0,0.3,0.1,0.6,0.3,0.8c0.3,0.3,0.5,0.4,0.8,0.4c0.3,0,0.6,-0.1,0.8,-0.4c0.2,-0.2,0.3,-0.5,0.3,-0.8c0,-0.3,-0.1,-0.6,-0.3,-0.8c-0.2,-0.2,-0.5,-0.4,-0.8,-0.4c-0.3,0,-0.5,0.1,-0.8,0.4Z" class="g15_5" />
<path d="M417.9,967.2c0,-2.1,-0.9,-3.2,-2.7,-3.2c-1.1,0,-2.1,0.6,-3.1,1.6l0,-4.7l-1.4,0l0,12.8l1.4,0l0,-6.8c1,-1.1,1.9,-1.7,2.7,-1.7c0.6,0,1,0.2,1.3,0.6c0.2,0.4,0.4,1,0.4,1.8l0,6.1l1.4,0l0,-6.5Z" class="g15_5" />
<path d="M428.7,972.2c-0.8,0.3,-1.5,0.5,-2.3,0.5c-0.4,0,-0.7,-0.1,-1,-0.5c-0.2,-0.3,-0.4,-0.7,-0.4,-1.3l0,-5.4l3.2,0l0,-1.3l-3.2,0l0,-2.5l-1.3,0l0,2.5l-1.8,0l0,1.3l1.8,0l0,5.8c0,1.8,0.8,2.7,2.5,2.7c0.9,0,1.8,-0.3,2.7,-0.7l-0.2,-1.1Z" class="g15_5" />
<path d="M440.6,967.1c0,-2.1,-0.6,-3.1,-1.7,-3.1c-0.4,0,-0.7,0.2,-1.1,0.5c-0.4,0.3,-0.7,0.7,-0.9,1.2c-0.2,-0.5,-0.4,-0.9,-0.7,-1.2c-0.3,-0.3,-0.6,-0.5,-1,-0.5c-0.3,0,-0.7,0.2,-1,0.5c-0.4,0.3,-0.7,0.7,-1,1.2l0,-1.5l-1.3,0l0,9.5l1.4,0l0,-6.8c0,-0.1,0.1,-0.4,0.5,-0.9c0.3,-0.5,0.6,-0.8,0.9,-0.8c0.5,0,0.8,0.8,0.8,2.3l0,6.2l1.4,0l0,-6.8c0,-0.1,0.2,-0.4,0.5,-0.9c0.3,-0.5,0.7,-0.8,0.9,-0.8c0.6,0,0.9,0.8,0.9,2.3l0,6.2l1.4,0l0,-6.6Z" class="g15_5" />
<path d="M450.5,972.5l-3,0l0,-12l-4,0l0,2l3,0l0,11l4,0l0,-1Z" class="g15_5" />
<text
transform="matrix(0.98, 0, 0, 1, 309, 973)"
dx="0,0,0,0,0,0,0,0,0,0,0,0,0"
class="s12_5"
>about-us.html</text>

<path d="M533,387l4,0l0,-4l4,0l0,-4l4,0l0,-4l4,0l0,-4l-4,0l-4,0l-4,0l-4,0l-4,0l-4,0l-4,0l-4,0l-4,0l0,4l4,0l0,4l4,0l0,4l4,0l0,4l4,0l0,4l4,0Z" class="g16_5" />
<path d="M1225,162l0,-4l-4,0l0,-4l-4,0l0,-4l-4,0l0,-4l-4,0l0,4l0,4l0,4l0,4l0,4l0,4l0,4l0,4l0,4l4,0l0,-4l4,0l0,-4l4,0l0,-4l4,0l0,-4l4,0l0,-4Z" class="g16_5" />
<text
x="1594"
y="1019"
dx="0"
class="s13_5"
>9</text>

<text
x="40"
y="1019"
dx="0"
class="s13_5"
>8</text>



<!-- Any embedded fonts defined here -->
<style type="text/css" ><![CDATA[

@font-face {
	font-family: AndaleMono_1cn;
	src: url("fonts/AndaleMono_1cn.woff") format("woff");
}

@font-face {
	font-family: Times-Bold_1cj;
	src: url("fonts/Times-Bold_1cj.woff") format("woff");
}

@font-face {
	font-family: Helvetica-Light_1by;
	src: url("fonts/Helvetica-Light_1by.woff") format("woff");
}

@font-face {
	font-family: PixelSplitter-Bold_4j;
	src: url("fonts/PixelSplitter-Bold_4j.woff") format("woff");
}

@font-face {
	font-family: PixelSplitter-Bold_1bs;
	src: url("fonts/PixelSplitter-Bold_1bs.woff") format("woff");
}

@font-face {
	font-family: Times-Roman_1cf;
	src: url("fonts/Times-Roman_1cf.woff") format("woff");
}

@font-face {
	font-family: Helvetica-Bold_1bu;
	src: url("fonts/Helvetica-Bold_1bu.woff") format("woff");
}

@font-face {
	font-family: Wingdings-Regular_1c4;
	src: url("fonts/Wingdings-Regular_1c4.woff") format("woff");
}

]]></style>

</svg>
