<?xml version="1.0" encoding="UTF-8" standalone="no"?>
<!DOCTYPE svg PUBLIC "-//W3C//DTD SVG 1.1//EN"
"http://www.w3.org/Graphics/SVG/1.1/DTD/svg11.dtd">


<!-- Page 7 -->
<svg x="0" y="0" width="1645" height="1061" viewBox="0 0 1645 1061" version="1.1" xmlns="http://www.w3.org/2000/svg" xmlns:xlink="http://www.w3.org/1999/xlink"
style="display: block;margin-left: auto;margin-right: auto;">
<defs>

<style type="text/css"><![CDATA[

.g5_7{
fill: #B3CBC8;
}
.g6_7{
fill: #FFFFFF;
}
.g11_7{
fill: none;
stroke: #FFFFFF;
stroke-width: 3;
stroke-linecap: round;
stroke-linejoin: round;
stroke-miterlimit: 4;
}
.g14_7{
fill: none;
stroke: #11151D;
stroke-width: 1;
stroke-linecap: butt;
stroke-linejoin: miter;
stroke-miterlimit: 4;
}
.g12_7{
fill: none;
stroke: #FFFFFF;
stroke-width: 1;
stroke-linecap: round;
stroke-linejoin: round;
}
.g10_7{
fill: #989797;
}
.g7_7{
fill: none;
stroke: #FFD400;
stroke-width: 5;
stroke-linecap: butt;
stroke-linejoin: miter;
stroke-miterlimit: 4;
}
.g8_7{
fill: none;
stroke: #89BA6E;
stroke-width: 5;
stroke-linecap: butt;
stroke-linejoin: miter;
stroke-miterlimit: 4;
}
.g9_7{
fill: none;
stroke: #989898;
stroke-width: 5;
stroke-linecap: butt;
stroke-linejoin: miter;
stroke-miterlimit: 4;
}
.g1_7{
fill: #FAAD60;
}
.g13_7{
fill: none;
stroke: #FFFFFF;
stroke-width: 2;
stroke-linecap: round;
stroke-linejoin: round;
stroke-miterlimit: 4;
}
.g15_7{
fill: #11151D;
}
.g2_7{
fill: #92BDDD;
}
.g3_7{
fill: #FFD400;
}
.g4_7{
fill: #89BA6E;
}

.s3_7{
font-size: 15.28px;
font-family: AndaleMono_1cn;
fill: #11151D;
}
.s9_7{
font-size: 12.22px;
font-family: PixelSplitter-Bold_1bs;
fill: #11151D;
}
.s4_7{
font-size: 21.39px;
font-family: PixelSplitter-Bold_1bs;
fill: #11151D;
}
.s7_7{
font-size: 18.98px;
font-family: Helvetica-Bold_1bu;
fill: #11151D;
}
.s8_7{
font-size: 10.69px;
font-family: Helvetica-Light_1by;
fill: #11151D;
}
.s6_7{
font-size: 42.78px;
font-family: PixelSplitter-Bold_6d;
fill: #FFFFFF;
}
.s5_7{
font-size: 18.33px;
font-family: PixelSplitter-Bold_1bs;
fill: #11151D;
}
.s1_7{
font-size: 15.28px;
font-family: Helvetica-Light_1by;
fill: #11151D;
}
.s2_7{
font-size: 15.28px;
font-family: Helvetica-Bold_1bu;
fill: #11151D;
}

]]></style>

</defs>
<path d="M0,0
L0,1061
L1645,1061
L1645,0 Z "
fill="#FFFFFF" stroke="none" />
<image x="-33" y="-32" width="1713" height="1115" xlink:href="7/img/1.png" />
<image x="-13" y="-11" width="1674" height="1073" opacity="0.5" xlink:href="7/img/2.png" />
<path d="M870,54l0,4l-4,0l0,59l732,0l0,-4l4,0l0,-55l-4,0l0,-4Z" class="g1_7" />
<path d="M43,90l0,684l4,0l0,5l728,0l0,-5l4,0L779,94l-4,0l0,-4Z" class="g2_7" />
<path d="M47,792l0,5l-4,0l0,88l4,0l0,4l92,0l0,-97Z" class="g3_7" />
<image x="41" y="797" width="88" height="89" xlink:href="7/img/3.png" />
<path d="M424,792l0,5l-4,0l0,88l4,0l0,4l92,0l0,-97Z" class="g4_7" />
<image x="428" y="797" width="87" height="89" xlink:href="7/img/4.png" />
<image x="88" y="72" width="193" height="216" xlink:href="7/img/5.png" />
<path d="M1243,265l0,4l-4,0l0,54l4,0l0,5l353,0l0,-5l4,0l0,-54l-4,0l0,-4Z" class="g5_7" />
<path d="M870,361l0,4l-4,0l0,347l4,0l0,4l417,0l0,-4l5,0l0,-347l-5,0l0,-4Z" class="g5_7" />
<path d="M866,118l0,38l4,0l0,4l390,0l0,-4l4,0l0,-38Z" class="g6_7" />
<path d="M317,103l0,4l-5,0l0,124l452,0l0,-124l-5,0l0,-4Z" class="g6_7" />
<path d="M312,285l452,0l0,-43l-452,0l0,43Z" class="g6_7" />
<path d="M61,295l0,4l-4,0l0,82l707,0l0,-86Z" class="g6_7" />
<path d="M57,499l709,0l0,-108L57,391l0,108Z" class="g6_7" />
<path d="M57,616l710,0l0,-107L57,509l0,107Z" class="g6_7" />
<path d="M57,702l0,60l4,0l0,4l701,0l0,-4l4,0l0,-60Z" class="g6_7" />
<path d="M57,691l709,0l0,-64L57,627l0,64Z" class="g6_7" />
<path d="M47,50l0,5l-4,0l0,39l269,0l0,-39l-4,0l0,-5Z" class="g2_7" />
<path d="M142,838l0,125l2,0l2,0l0,2l0,2l258,0l0,-2l0,-2l3,0l2,0l0,-121l-2,0l-3,0l0,-2l0,-2Z" class="g6_7" />
<path d="M142.5,838.5l0,125l2,0l2,0l0,2l0,2l258,0l0,-2l0,-2l3,0l2,0l0,-121l-2,0l-3,0l0,-2l0,-2l-262,0Z" class="g7_7" />
<path d="M519,838l0,82l2,0l2,0l0,2l0,2l249,0l0,-2l0,-2l3,0l2,0l0,-78l-2,0l-3,0l0,-2l0,-2Z" class="g6_7" />
<path d="M519.5,838.5l0,82l2,0l2,0l0,2l0,2l249,0l0,-2l0,-2l3,0l2,0l0,-78l-2,0l-3,0l0,-2l0,-2l-253,0Z" class="g8_7" />
<path d="M139,792l0,44l142,0l0,-39l-4,0l0,-5Z" class="g3_7" />
<path d="M516,792l0,44l190,0l0,-39l-4,0l0,-5Z" class="g4_7" />
<image x="1300" y="349" width="314" height="650" opacity="0.39999402" style="mix-blend-mode: multiply;" xlink:href="7/img/6.png" />
<image x="1316" y="352" width="288" height="659" xlink:href="7/img/7.png" />
<path d="M873,773l0,2l0,2l-3,0l-2,0l0,233l2,0l3,0l0,3l0,2l412,0l0,-2l0,-3l2,0l2,0l0,-233l-2,0l-2,0l0,-2l0,-2Z" class="g6_7" />
<path d="M873.5,773.5l0,2l0,2l-3,0l-2,0l0,233l2,0l3,0l0,3l0,2l412,0l0,-2l0,-3l2,0l2,0l0,-233l-2,0l-2,0l0,-2l0,-2l-412,0Z" class="g9_7" />
<path d="M870,770l0,5l-4,0l0,33l426,0l0,-33l-5,0l0,-5Z" class="g10_7" />
<path d="M884.8,787c1.8,0,3.2,-1.5,3.2,-3.2c0,-1.8,-1.4,-3.3,-3.2,-3.3c-1.8,0,-3.2,1.5,-3.2,3.3c0,1.7,1.4,3.2,3.2,3.2Z" class="g6_7" />
<path d="M897.3,787c1.8,0,3.2,-1.5,3.2,-3.2c0,-1.8,-1.4,-3.3,-3.2,-3.3c-1.8,0,-3.2,1.5,-3.2,3.3c0,1.7,1.4,3.2,3.2,3.2Z" class="g6_7" />
<path d="M909.8,787c1.8,0,3.2,-1.5,3.2,-3.2c0,-1.8,-1.4,-3.3,-3.2,-3.3c-1.8,0,-3.2,1.5,-3.2,3.3c0,1.7,1.4,3.2,3.2,3.2Z" class="g6_7" />
<path d="M894.3,793.1c0,0,-2.2,0,-2.2,2.2l0,4.9c0,0,0,2.2,2.2,2.2l367.9,0c0,0,2.2,0,2.2,-2.2l0,-4.9c0,0,0,-2.2,-2.2,-2.2Z" class="g6_7" />
<path d="M885.5,794.3l-3,3.4l3,3.5" class="g11_7" />
<path d="M1283.6,789.8l0,4.1c-0.5,-0.1,-1.1,-0.2,-1.6,-0.3c-0.7,-0.2,-1.4,-0.3,-2.1,-0.4c-0.1,-0.1,-0.3,-0.1,-0.4,-0.1c0.5,-0.4,0.9,-0.8,1.4,-1.2c-0.7,-0.4,-1.4,-0.6,-2.2,-0.4c-0.7,0.2,-1.3,0.6,-1.7,1.2c-0.4,0.6,-0.5,1.3,-0.4,2c0.1,0.7,0.4,1.3,1,1.8c0.7,0.5,1.5,0.7,2.4,0.5c0.8,-0.1,1.5,-0.7,1.9,-1.5c0,0,0,-0.1,0,-0.1c0.6,0.1,1.1,0.3,1.6,0.4c-0.3,0.9,-0.9,1.6,-1.6,2.1c-0.7,0.5,-1.5,0.7,-2.4,0.8l-0.1,0l-0.2,0l-0.1,0c-0.3,0,-0.6,-0.1,-0.8,-0.2c-0.9,-0.2,-1.7,-0.7,-2.3,-1.4c-0.6,-0.6,-0.9,-1.4,-1,-2.4c0,-0.1,-0.1,-0.2,-0.1,-0.3l0,-0.2c0,-0.1,0,-0.1,0.1,-0.1c0,-0.2,0,-0.4,0,-0.6c0.2,-0.8,0.5,-1.6,1.1,-2.2c0.7,-0.7,1.5,-1.2,2.5,-1.4c0.5,0,1,0,1.5,0c0.8,0.2,1.4,0.5,2,1c0.1,0,0.1,0,0.1,0c0.3,-0.3,0.6,-0.5,0.9,-0.7c0.2,-0.1,0.4,-0.3,0.5,-0.4Z" class="g6_7" />
<path d="M1283.6,789.8l0,4.1c-0.5,-0.1,-1.1,-0.2,-1.6,-0.3c-0.7,-0.2,-1.4,-0.3,-2.1,-0.4c-0.1,-0.1,-0.3,-0.1,-0.4,-0.1c0.5,-0.4,0.9,-0.8,1.4,-1.2c-0.7,-0.4,-1.4,-0.6,-2.2,-0.4c-0.7,0.2,-1.3,0.6,-1.7,1.2c-0.4,0.6,-0.5,1.3,-0.4,2c0.1,0.7,0.4,1.3,1,1.8c0.7,0.5,1.5,0.7,2.4,0.5c0.8,-0.1,1.5,-0.7,1.9,-1.5c0,0,0,-0.1,0,-0.1c0.6,0.1,1.1,0.3,1.6,0.4c-0.3,0.9,-0.9,1.6,-1.6,2.1c-0.7,0.5,-1.5,0.7,-2.4,0.8l-0.1,0l-0.2,0l-0.1,0c-0.3,0,-0.6,-0.1,-0.8,-0.2c-0.9,-0.2,-1.7,-0.7,-2.3,-1.4c-0.6,-0.6,-0.9,-1.4,-1,-2.4c0,-0.1,-0.1,-0.2,-0.1,-0.3l0,-0.2c0,-0.1,0,-0.1,0.1,-0.1c0,-0.2,0,-0.4,0,-0.6c0.2,-0.8,0.5,-1.6,1.1,-2.2c0.7,-0.7,1.5,-1.2,2.5,-1.4c0.5,0,1,0,1.5,0c0.8,0.2,1.4,0.5,2,1c0.1,0,0.1,0,0.1,0c0.3,-0.3,0.6,-0.5,0.9,-0.7c0.2,-0.1,0.4,-0.3,0.5,-0.4Z" class="g12_7" />
<path d="M1274,777l9,0" class="g13_7" />
<path d="M1274,779l9,0" class="g13_7" />
<path d="M1274,781l9,0" class="g13_7" />
<image x="888" y="849" width="346" height="109" xlink:href="7/img/8.png" />
<text
x="152"
y="866"
dx="0,0,0,0,0,8,0,0,-0.3,0,0,0,-0.3,0,0,0,0,0,0,0,0,8,0,-0.3,0,0,0,0,0,0"
class="s1_7"
>Some word-processing programs </text>

<text
x="152"
y="888"
dx="0,0,0,0,0,5.2,0,0,0,0,0,0,0,0,0,0,0,0,0,5.2,0,0,0.3,0,5.2,0,0,0,0,5.2,0,0,0,0,0"
class="s1_7"
>will automatically turn your quote </text>

<text
x="152"
y="909"
dx="0,0,0,0,0,0,4,0,0,0,4,0,0,0,0,4,0,0,0,0,0.3,0,4,0,0,0,0,0,0,0,4,0,0,0,0,0,0"
class="s1_7"
>marks (") into 'smart quotes' (“,”). </text>

<text
x="152"
y="930"
dx="0,-1.4,0,0,0,1.2,0,0,0,0,1.2,0,0,0,0,0,1.2,0,0,0,0,0,1.2,0,0,0,1.2,0,1.2,0,0,0,0,0"
class="s1_7"
>Your code won't work! Use a plain-</text>

<text
x="152"
y="952"
dx="0,0,0,0,0,-0.9,0,0,0,0,0,-1.4"
class="s1_7"
>text editor.</text>

<text
x="529"
y="866"
dx="0,-0.6,0,0,0,2.2,0,0,2.2,0,0,0,0,2.2,0,0,-0.3,0,2.2,0,0,0,0,0,2.2,0,0,0,0,0,0,0"
class="s1_7"
>Want to know more about editing </text>

<text
x="529"
y="888"
dx="0,0,0,0,0,2.4,0,0,0,0,0,2.4,0,2.4,0,0,0,0,2.4,0,0,0,0,0,0,0,2.4,0,0,2.4,0,0"
class="s1_7"
>code using a code editor? Go to </text>

<text
x="529"
y="909"
dx="0,0,0,0,0,0,0,-0.9,0,0,0,0,0,0,0,0,0,0,0,0,0,0,0,0,0,0,0,0"
class="s1_7"
>http:/ /nano.tips/codeeditor</text>

<text
x="325"
y="128"
dx="0,0,0,0,0,2.6,0,0,0,0,0,0"
class="s2_7"
>Code editor </text>

<text
x="420"
y="128"
dx="0,0,2.6,0,2.6,0,-0.3,0,0,0,0,0,2.6,0,0,0,0,2.6,0,0,0,0,0,0,2.6,0,0,0,2.6,0,0,2.6,0,0,0,0,2.6,0,0,0,2.6,0,0,0,0"
class="s1_7"
>– a program that allows you to edit the HTML </text>

<text
x="325"
y="150"
dx="0,0,0,0,0,0.1,0,0,0,0.1,0,0,0,0,0.1,0,0,0,0.1,0,0,0,0,0,0.1,-1.4,0,0,0.1,0,0,0,-0.3,0,0.1,0,0,0,0,0.1,0,0,0.1,0,0,0,0.1,0,0.1,0,0,0,0,0,0,0,0.1,0,0,0,0"
class="s1_7"
>code for your web page. You don’t have to use a special code </text>

<text
x="325"
y="171"
dx="0,0,0,0,0,0,0,2,0,2,0,0,0,0,0,0,0,2,0,0,0,0,2,0,0,2,0,0,0,0,2,0,0,0,0,2,0,2,0,0,0,2,0,0,0,0,2,0,0,0,0,0,0,0,2,0,0,0,0,2,0,0"
class="s1_7"
>editor – Notepad will do just fine – but code editors make it </text>

<text
x="325"
y="193"
dx="0,0,0,0,0,0,0,-0.2,0,0,-0.2,0,0,0,0,0,-0.8,0,0,0,0,0,0,0,-0.2,0,0,0,-0.2,0,0,0,0,-0.2,0,0,0,0,0,0,-0.2,0,0,0,-0.2,0,-0.3,0,0,0,0,0,0,0,-0.2,0,0,0,0,0"
class="s1_7"
>easier by colour-coding the HTML markup and providing other </text>

<text
x="325"
y="214"
dx="0,0,0,0,0,0,0,0,-0.9,0,0,0,0,0,-0.3,0,0"
class="s1_7"
>helpful features.</text>

<text
x="325"
y="267"
dx="0,0,0,0"
class="s2_7"
>Edit</text>

<text
x="357"
y="267"
dx="0,0,-0.9,0,0,0,0,-0.9,0,0,0,-0.9,0,0,0,0,-0.9,0,0,0,0,0,0,0,-0.9,0,0,-0.9,0,-0.9,0,0,0,-0.9,0,0,0,0,0,-0.9,0,0,0,-0.9,0,0,0,0,-0.9,0,0"
class="s1_7"
>– when you make changes to a web page, you edit it.</text>

<text
x="70"
y="321"
dx="0,0,0,0,0"
class="s2_7"
>File </text>

<text
x="101"
y="321"
dx="0,0,1,0,0,0,0,0,0,0,0,1,0,0,0,1,0,0,0,0,1,0,0,0,0,0,0,0,0,1,0,0,0,0,1,0,0,0,0,1,0,0,0,0,0,0,0,0,1,0,0,1,0,0,1,0,0,1,0,0,0,1,0,0,0,0,1,0,0,-1.1,0,1,0,0,0,-0.3,0,0,1,0,0,1,0,1,0,0,0,0,0,1,0,0,0,0,0"
class="s1_7"
>– whenever you save anything onto your computer or up to the web, it’s stored as a file. Files </text>

<text
x="70"
y="342"
dx="0,0,0,0,0.4,0,0,0,0,0,0,0,0.4,0,0,0,0.4,0,0,0,0,0.4,0,0,0.4,0,0,0,0,0.3,0,0,0,0,0,0,0.4,0,0.4,0,0,0,0,0.4,0,0,0,0.4,0,0,0.4,0,0,0,0.4,0,0,0,0,0,0,0.4,0,0,0,0,0,0,0,0.4,0,0,0,0,0,0,0.4,0,0,0,0.4,0,0,0,0,0,0,0,0,0,0,0.4,0,0,0"
class="s1_7"
>can contain any kind of information – they can be web pages, photos, songs, PDF documents, you </text>

<text
x="70"
y="364"
dx="0,0,0,0,0,-0.9,0,0,0,-0.9,0,0,0,-0.9,0,-0.3,0,0,0,0,0,0,0,0,0,-0.9,-0.3,0,0,0,0,-0.9,0,0,-0.9,0,0,0,-0.9,0,0,-0.9,0,0,0,0,0,-0.9,0,0,0,0,0,0,-0.9,0,0,-0.9,0,0,0,0,0"
class="s1_7"
>name it. But programmers refer to all of these things as files.</text>

<text
x="70"
y="417"
dx="0,0,0,0,0,5.4,0,0,0"
class="s2_7"
>File name</text>

<text
x="155"
y="417"
dx="0,0,5.4,0,0,0,0,0,5.4,0,0,0,0,0,0,5.4,0,0,0,0,5.4,0,5.4,0,0,0,0,5.4,0,0,0,0,0,5.4,0,0,5.4,0,0,0,5.4,0,0,0,0,0,5.4,0,0,5.4,0,0,0,5.4,0,0,0,0,5.4,0,0,0,5.4,0,5.4,0,0,0,0,5.4,0,0,0,0,0"
class="s1_7"
>– files always have a file name. So the About Us web page has a file name: </text>

<path d="M77.8,437.2l0,-3.3C77.8,432,76.9,431,75.1,431c-0.9,0,-1.9,0.3,-3,0.9l0.3,0.8c0.4,-0.2,0.8,-0.3,1.2,-0.5c0.5,-0.1,0.8,-0.2,1.1,-0.2c1.3,0,1.9,0.7,1.9,2l0,0.4l-1.3,0.1c-0.6,0.1,-1.1,0.2,-1.5,0.3c-0.5,0.1,-0.8,0.2,-1.1,0.4c-0.3,0.2,-0.6,0.5,-0.7,0.8c-0.2,0.3,-0.2,0.6,-0.2,1c0,0.6,0.2,1.2,0.6,1.6c0.5,0.4,1,0.6,1.5,0.6c1.2,0,2.1,-0.5,2.7,-1.5c0,0.6,0.1,1,0.2,1.3l1.1,0c-0.1,-0.5,-0.1,-1.1,-0.1,-1.8Zm-2.3,0.5c-0.4,0.3,-0.8,0.4,-1.2,0.4c-0.4,0,-0.7,-0.1,-0.9,-0.3C73.1,437.5,73,437.3,73,436.9c0,-0.4,0.1,-0.7,0.4,-0.9c0.3,-0.2,0.6,-0.4,1,-0.4c0.4,-0.1,1.1,-0.2,2.2,-0.3l0,1.4c-0.3,0.4,-0.7,0.8,-1.1,1Z" class="g14_7" />
<path d="M82.1,428.5l-1.2,0l0,10.5l1.2,0l0,-1.1c0.2,0.4,0.6,0.7,1,0.9c0.4,0.3,0.9,0.4,1.3,0.4c0.9,0,1.7,-0.4,2.2,-1.2c0.5,-0.8,0.8,-1.8,0.8,-3c0,-1.2,-0.2,-2.1,-0.8,-2.9C86.1,431.4,85.4,431,84.5,431c-0.5,0,-0.9,0.2,-1.4,0.4c-0.4,0.2,-0.7,0.5,-1,0.8l0,-3.7Zm2.1,3.5c0.6,0,1.1,0.3,1.5,0.9c0.3,0.5,0.5,1.3,0.5,2.2c0,0.8,-0.2,1.6,-0.6,2.2c-0.3,0.6,-0.8,0.9,-1.5,0.9c-0.4,0,-0.7,-0.2,-1.1,-0.5c-0.4,-0.3,-0.7,-0.6,-0.9,-1.1l0,-3.2c0.6,-0.9,1.3,-1.4,2.1,-1.4Z" class="g14_7" />
<path d="M90.5,432.2c-0.6,0.7,-0.9,1.7,-0.9,2.9c0,1.2,0.3,2.2,0.9,3c0.6,0.7,1.5,1.1,2.6,1.1c1,0,1.9,-0.4,2.5,-1.1c0.7,-0.8,1,-1.8,1,-3c0,-1.2,-0.3,-2.2,-1,-2.9C95,431.4,94.1,431,93.1,431c-1.1,0,-1.9,0.4,-2.6,1.2Zm0.9,5.1C91,436.7,90.8,436,90.8,435.1c0,-0.9,0.2,-1.6,0.6,-2.2c0.4,-0.6,1,-0.9,1.7,-0.9c0.7,0,1.3,0.3,1.7,0.9c0.4,0.6,0.6,1.3,0.6,2.2c0,0.9,-0.2,1.6,-0.7,2.2c-0.4,0.6,-0.9,0.9,-1.6,0.9c-0.7,0,-1.3,-0.3,-1.7,-0.9Z" class="g14_7" />
<path d="M105.2,431.2l-1.1,0l0,5.6c-0.8,0.9,-1.6,1.4,-2.3,1.4c-0.5,0,-0.9,-0.2,-1.1,-0.5c-0.2,-0.3,-0.3,-0.8,-0.3,-1.5l0,-5l-1.1,0l0,5.3c0,1.8,0.7,2.7,2.1,2.7c1,0,1.8,-0.5,2.7,-1.3l0,1.1l1.1,0l0,-7.8Z" class="g14_7" />
<path d="M114.3,437.7c-0.6,0.3,-1.3,0.5,-1.9,0.5c-0.3,0,-0.6,-0.2,-0.8,-0.4c-0.2,-0.3,-0.4,-0.6,-0.4,-1.1l0,-4.5l2.7,0l0,-1l-2.7,0l0,-2.1l-1.1,0l0,2.1l-1.5,0l0,1l1.5,0l0,4.8c0,1.5,0.7,2.2,2.1,2.2c0.7,0,1.5,-0.2,2.3,-0.5l-0.2,-1Z" class="g14_7" />
<path d="M122.5,434.5l-4,0l0,1l4,0l0,-1Z" class="g14_7" />
<path d="M132.7,431.2l-1.1,0l0,5.6c-0.8,0.9,-1.6,1.4,-2.3,1.4c-0.5,0,-0.9,-0.2,-1.1,-0.5c-0.2,-0.3,-0.3,-0.8,-0.3,-1.5l0,-5l-1.1,0l0,5.3c0,1.8,0.7,2.7,2.1,2.7c1,0,1.8,-0.5,2.7,-1.3l0,1.1l1.1,0l0,-7.8Z" class="g14_7" />
<path d="M141.4,431.4c-0.8,-0.3,-1.5,-0.4,-2.1,-0.4c-1,0,-1.8,0.2,-2.3,0.6c-0.6,0.4,-0.9,1,-0.9,1.6c0,0.3,0,0.6,0.2,0.9c0.1,0.2,0.3,0.4,0.5,0.6c0.3,0.2,0.5,0.3,0.8,0.4c0.3,0.1,0.7,0.2,1.3,0.4c0.8,0.3,1.3,0.5,1.5,0.7c0.2,0.2,0.3,0.4,0.3,0.7c0,0.4,-0.2,0.7,-0.6,1c-0.5,0.2,-1,0.3,-1.6,0.3c-0.8,0,-1.5,-0.1,-2.1,-0.4l-0.2,1c0.6,0.3,1.4,0.4,2.3,0.4c1,0,1.8,-0.2,2.4,-0.6c0.6,-0.5,0.9,-1.1,0.9,-1.8c0,-0.4,-0.1,-0.7,-0.2,-1c-0.2,-0.3,-0.4,-0.5,-0.7,-0.7c-0.4,-0.2,-0.8,-0.4,-1.3,-0.5l-1.1,-0.4c-0.5,-0.1,-0.9,-0.3,-1,-0.4c-0.2,-0.2,-0.3,-0.4,-0.3,-0.6c0,-0.4,0.2,-0.7,0.6,-0.9c0.3,-0.2,0.8,-0.3,1.5,-0.3c0.6,0,1.2,0.1,1.8,0.3l0.3,-0.9Z" class="g14_7" />
<path d="M147.4,437.6c-0.2,0.1,-0.3,0.4,-0.3,0.6c0,0.3,0.1,0.5,0.3,0.7c0.2,0.2,0.4,0.3,0.6,0.3c0.3,0,0.5,-0.1,0.7,-0.3c0.2,-0.2,0.3,-0.4,0.3,-0.7c0,-0.2,-0.1,-0.5,-0.3,-0.6c-0.2,-0.2,-0.4,-0.3,-0.7,-0.3c-0.2,0,-0.4,0.1,-0.6,0.3Z" class="g14_7" />
<path d="M160.3,433.7c0,-1.8,-0.8,-2.7,-2.2,-2.7c-0.9,0,-1.8,0.5,-2.7,1.4l0,-3.9l-1.1,0l0,10.5l1.1,0l0,-5.6c0.9,-0.9,1.6,-1.4,2.3,-1.4c0.5,0,0.8,0.2,1.1,0.5c0.2,0.3,0.3,0.8,0.3,1.5l0,5l1.2,0l0,-5.3Z" class="g14_7" />
<path d="M169.3,437.7c-0.6,0.3,-1.2,0.5,-1.9,0.5c-0.3,0,-0.6,-0.2,-0.8,-0.4c-0.2,-0.3,-0.3,-0.6,-0.3,-1.1l0,-4.5l2.6,0l0,-1l-2.6,0l0,-2.1l-1.2,0l0,2.1l-1.5,0l0,1l1.5,0l0,4.8c0,1.5,0.7,2.2,2.1,2.2c0.8,0,1.5,-0.2,2.3,-0.5l-0.2,-1Z" class="g14_7" />
<path d="M179.2,433.6c0,-1.7,-0.5,-2.6,-1.4,-2.6c-0.3,0,-0.6,0.2,-0.9,0.4c-0.3,0.3,-0.6,0.6,-0.8,1c-0.1,-0.4,-0.2,-0.7,-0.5,-1c-0.2,-0.2,-0.5,-0.4,-0.8,-0.4c-0.3,0,-0.6,0.2,-0.9,0.4c-0.3,0.3,-0.6,0.6,-0.8,1l0,-1.2l-1.1,0l0,7.8l1.1,0l0,-5.6c0,-0.1,0.2,-0.3,0.5,-0.7c0.2,-0.4,0.5,-0.7,0.7,-0.7c0.5,0,0.7,0.7,0.7,1.9l0,5.1l1.2,0l0,-5.6c0,-0.1,0.1,-0.3,0.4,-0.7c0.3,-0.4,0.5,-0.7,0.8,-0.7c0.4,0,0.6,0.7,0.6,1.9l0,5.1l1.2,0l0,-5.4Z" class="g14_7" />
<path d="M187.5,437.5l-2,0l0,-9l-4,0l0,1l3,0l0,10l3,0l0,-2Z" class="g14_7" />
<text
x="70"
y="439"
dx="0,0,0,0,0,0,0,0,0,0,0,0,0"
class="s3_7"
>about-us.html</text>

<text
x="189"
y="439"
dx="0,0,1.2,0,0,0,0,1.2,0,0,0,0,0,1.2,0,0,0,0,0,0,0,1.2,0,0,0,1.2,0,0,0,0,1.2,0,1.2,0,0,0,0,0,0,0,0,0,1.2,0,0,0,0,0,0,0,0,1.2,0,0,1.2,0,0,-0.3,0,0,1.2,0,0,1.2,0,0,0,0,1.2,0,0,0,0,0,0,0,1.2,0,0,0,0,0,1.2,0,0"
class="s1_7"
>. File names usually end with a full-stop followed by three or four letters (such as </text>

<path d="M74,458.9c-0.1,0.2,-0.2,0.4,-0.2,0.7c0,0.3,0.1,0.5,0.2,0.7c0.2,0.2,0.4,0.3,0.7,0.3c0.3,0,0.5,-0.1,0.7,-0.3c0.1,-0.2,0.2,-0.4,0.2,-0.7c0,-0.2,-0.1,-0.5,-0.2,-0.7c-0.2,-0.1,-0.4,-0.2,-0.7,-0.2c-0.3,0,-0.5,0.1,-0.7,0.2Z" class="g14_7" />
<path d="M83.9,449.9c-0.2,0.2,-0.3,0.4,-0.3,0.6c0,0.2,0.1,0.4,0.3,0.5c0.1,0.2,0.3,0.3,0.5,0.3c0.2,0,0.4,-0.1,0.6,-0.2c0.1,-0.2,0.2,-0.4,0.2,-0.6c0,-0.2,-0.1,-0.4,-0.2,-0.6c-0.2,-0.1,-0.4,-0.2,-0.6,-0.2c-0.2,0,-0.4,0.1,-0.5,0.2Zm1.1,2.7l-3.5,0l0,1l2.3,0l0,7.1c0,0.7,-0.1,1.2,-0.2,1.4c-0.2,0.2,-0.5,0.3,-0.9,0.3c-0.4,0,-0.9,0,-1.5,-0.2l-0.3,1c0.7,0.2,1.3,0.3,1.8,0.3c0.9,0,1.4,-0.2,1.8,-0.6c0.3,-0.4,0.5,-1.1,0.5,-2.1l0,-8.2Z" class="g14_7" />
<path d="M91.3,452.6l-1.2,0l0,10.9l1.2,0l0,-4.2c0.2,0.4,0.5,0.7,1,0.9c0.4,0.3,0.8,0.4,1.3,0.4c0.9,0,1.6,-0.4,2.2,-1.2c0.5,-0.8,0.8,-1.8,0.8,-3c0,-1.2,-0.3,-2.1,-0.8,-2.9c-0.5,-0.7,-1.2,-1.1,-2.1,-1.1c-0.5,0,-1,0.1,-1.4,0.4c-0.4,0.2,-0.8,0.5,-1,0.8l0,-1Zm2,0.8c0.7,0,1.2,0.3,1.5,0.9c0.4,0.6,0.6,1.3,0.6,2.2c0,0.9,-0.2,1.6,-0.6,2.2c-0.4,0.6,-0.9,0.8,-1.5,0.8c-0.4,0,-0.8,-0.1,-1.2,-0.4c-0.3,-0.3,-0.6,-0.7,-0.8,-1.1l0,-3.2c0.5,-0.9,1.2,-1.4,2,-1.4Z" class="g14_7" />
<path d="M101.9,457.5c0.7,0,1.4,-0.3,1.8,-0.8c0.5,-0.4,0.8,-1,0.8,-1.7c0,-0.6,-0.1,-1,-0.3,-1.4l1.4,0l0,-1.2l-2.3,0.4c-0.4,-0.2,-0.9,-0.4,-1.4,-0.4c-0.8,0,-1.4,0.3,-1.9,0.7c-0.5,0.5,-0.7,1.1,-0.7,1.9c0,0.4,0.1,0.8,0.3,1.2c0.2,0.4,0.5,0.8,1,1c-0.9,0.5,-1.4,1,-1.4,1.5c0,0.5,0.4,0.9,1.1,1.2c-0.9,0.5,-1.3,1,-1.3,1.6c0,0.6,0.3,1.1,0.8,1.4c0.6,0.4,1.3,0.6,2.1,0.6c1.1,0,2,-0.3,2.8,-0.8c0.8,-0.5,1.2,-1.2,1.2,-2.1c0,-0.6,-0.2,-1,-0.6,-1.3c-0.3,-0.3,-0.8,-0.5,-1.4,-0.5l-2.6,0.1c-0.3,0,-0.6,0,-0.7,-0.1c-0.2,-0.1,-0.3,-0.3,-0.3,-0.4c0,-0.3,0.4,-0.6,1.1,-0.9c0.2,0,0.3,0,0.5,0Zm-1.1,-1.4c-0.2,-0.3,-0.4,-0.7,-0.4,-1.1c0,-0.5,0.2,-0.9,0.4,-1.2c0.3,-0.3,0.7,-0.4,1.1,-0.4c0.4,0,0.8,0.1,1,0.4c0.3,0.3,0.4,0.7,0.4,1.2c0,0.4,-0.1,0.8,-0.4,1.1c-0.2,0.3,-0.6,0.5,-1,0.5c-0.4,0,-0.8,-0.2,-1.1,-0.5Zm-0.2,6.1c-0.4,-0.2,-0.5,-0.4,-0.5,-0.7c0,-0.2,0,-0.4,0.2,-0.6c0.1,-0.2,0.3,-0.4,0.5,-0.5c0.2,-0.2,0.4,-0.3,0.5,-0.3c0.2,0,0.5,0,0.9,0c0.6,-0.1,1.1,-0.1,1.3,-0.1c0.8,0,1.2,0.3,1.2,0.8c0,0.5,-0.3,0.9,-0.8,1.3c-0.6,0.3,-1.2,0.5,-2,0.5c-0.5,0,-1,-0.1,-1.3,-0.4Z" class="g14_7" />
<text
x="70"
y="460"
dx="0,0,0,0"
class="s3_7"
>.jpg</text>

<text
x="106"
y="460"
dx="0,0"
class="s1_7"
>, </text>

<path d="M119,458.9c-0.2,0.2,-0.2,0.4,-0.2,0.7c0,0.3,0.1,0.5,0.2,0.7c0.2,0.2,0.4,0.3,0.7,0.3c0.2,0,0.5,-0.1,0.6,-0.3c0.2,-0.2,0.3,-0.4,0.3,-0.7c0,-0.2,-0.1,-0.5,-0.3,-0.7c-0.1,-0.1,-0.4,-0.2,-0.6,-0.2c-0.3,0,-0.5,0.1,-0.7,0.2Z" class="g14_7" />
<path d="M127.1,452.6l-1.2,0l0,10.9l1.2,0l0,-4.2c0.2,0.4,0.6,0.7,1,0.9c0.4,0.3,0.8,0.4,1.3,0.4c0.9,0,1.7,-0.4,2.2,-1.2c0.5,-0.8,0.8,-1.8,0.8,-3c0,-1.2,-0.3,-2.1,-0.8,-2.9c-0.5,-0.7,-1.2,-1.1,-2.1,-1.1c-0.5,0,-0.9,0.1,-1.4,0.4c-0.4,0.2,-0.8,0.5,-1,0.8l0,-1Zm2.1,0.8c0.6,0,1.1,0.3,1.4,0.9c0.4,0.6,0.6,1.3,0.6,2.2c0,0.9,-0.2,1.6,-0.6,2.2c-0.4,0.6,-0.9,0.8,-1.5,0.8c-0.4,0,-0.8,-0.1,-1.1,-0.4c-0.4,-0.3,-0.7,-0.7,-0.9,-1.1l0,-3.2c0.6,-0.9,1.2,-1.4,2.1,-1.4Z" class="g14_7" />
<path d="M141,449.9l-1.1,0l0,3.7c-0.6,-0.8,-1.4,-1.2,-2.4,-1.2c-0.9,0,-1.6,0.4,-2.1,1.2c-0.6,0.7,-0.8,1.6,-0.8,2.8c0,1.2,0.2,2.2,0.7,3c0.6,0.8,1.3,1.2,2.1,1.2c0.5,0,1,-0.1,1.5,-0.4c0.4,-0.2,0.7,-0.5,1,-0.9l0,1.1l1.1,0l0,-10.5Zm-1.5,8.7c-0.3,0.3,-0.6,0.6,-0.9,0.7c-0.3,0.2,-0.6,0.2,-0.8,0.2c-0.7,0,-1.1,-0.2,-1.5,-0.8c-0.3,-0.6,-0.5,-1.4,-0.5,-2.2c0,-0.9,0.2,-1.6,0.5,-2.2c0.4,-0.6,0.9,-0.9,1.6,-0.9c0.8,0,1.4,0.5,2,1.4l0,3.2c0,0.1,-0.2,0.3,-0.4,0.6Z" class="g14_7" />
<path d="M148.5,449.7c-0.8,0,-1.4,0.2,-1.7,0.6c-0.4,0.4,-0.5,1.1,-0.5,2.1l0,0.2l-2,0l0,1l2,0l0,6.8l1.1,0l0,-6.8l2.6,0l0,-1l-2.6,0l0,-0.1c0,-0.7,0.1,-1.2,0.3,-1.5c0.1,-0.2,0.4,-0.3,0.8,-0.3c0.5,0,1,0.1,1.5,0.2l0.3,-0.9c-0.6,-0.2,-1.2,-0.3,-1.8,-0.3Z" class="g14_7" />
<text
x="115"
y="460"
dx="0,0,0,0"
class="s3_7"
>.pdf</text>

<text
x="151"
y="460"
dx="0,0"
class="s1_7"
>, </text>

<path d="M164,458.9c-0.2,0.2,-0.3,0.4,-0.3,0.7c0,0.3,0.1,0.5,0.3,0.7c0.2,0.2,0.4,0.3,0.7,0.3c0.2,0,0.4,-0.1,0.6,-0.3c0.2,-0.2,0.3,-0.4,0.3,-0.7c0,-0.2,-0.1,-0.5,-0.3,-0.7c-0.2,-0.1,-0.4,-0.2,-0.6,-0.2c-0.3,0,-0.5,0.1,-0.7,0.2Z" class="g14_7" />
<path d="M176.9,455.1c0,-1.8,-0.7,-2.7,-2.2,-2.7c-0.9,0,-1.8,0.5,-2.6,1.4l0,-3.9l-1.2,0l0,10.5l1.2,0l0,-5.6c0.8,-0.9,1.5,-1.4,2.3,-1.4c0.4,0,0.8,0.2,1,0.5c0.2,0.3,0.3,0.8,0.3,1.5l0,5l1.2,0l0,-5.3Z" class="g14_7" />
<path d="M185.9,459.1c-0.6,0.3,-1.2,0.5,-1.9,0.5c-0.3,0,-0.6,-0.2,-0.8,-0.4c-0.2,-0.3,-0.3,-0.7,-0.3,-1.1l0,-4.5l2.6,0l0,-1l-2.6,0l0,-2.1l-1.2,0l0,2.1l-1.4,0l0,1l1.4,0l0,4.8c0,1.4,0.7,2.2,2.1,2.2c0.8,0,1.6,-0.2,2.3,-0.6l-0.2,-0.9Z" class="g14_7" />
<path d="M195.8,455c0,-1.7,-0.4,-2.6,-1.4,-2.6c-0.3,0,-0.6,0.2,-0.9,0.4c-0.3,0.2,-0.5,0.6,-0.7,1c-0.1,-0.4,-0.3,-0.8,-0.6,-1c-0.2,-0.2,-0.5,-0.4,-0.8,-0.4c-0.3,0,-0.6,0.2,-0.9,0.4c-0.3,0.2,-0.6,0.6,-0.8,1l0,-1.2l-1.1,0l0,7.8l1.2,0l0,-5.6c0,-0.1,0.1,-0.3,0.4,-0.7c0.3,-0.4,0.5,-0.7,0.7,-0.7c0.5,0,0.7,0.7,0.7,1.9l0,5.1l1.2,0l0,-5.6c0,-0.1,0.1,-0.3,0.4,-0.7c0.3,-0.4,0.6,-0.7,0.8,-0.7c0.4,0,0.7,0.7,0.7,1.9l0,5.1l1.1,0l0,-5.4Z" class="g14_7" />
<path d="M203.5,459.5l-2,0l0,-10l-3,0l0,1l2,0l0,10l3,0l0,-1Z" class="g14_7" />
<text
x="160"
y="460"
dx="0,0,0,0,0"
class="s3_7"
>.html</text>

<text
x="205"
y="460"
dx="0,0,0,-0.2,0,0,0,0,-0.2,0,0,-0.2,0,0,0,0,0,-0.2,0,0,-0.2,0"
class="s1_7"
>). This is known as a </text>

<text
x="347"
y="460"
dx="0,0,0,0,0,-0.2,-0.2,0,0,0,0,0,0,0"
class="s2_7"
>file extension</text>

<text
x="448"
y="460"
dx="0,0,0,0,-0.2,0,0,-0.2,0,0,0,0,0,-0.2,0,0,0,-0.2,0,0,0,0,0,0,0,0,-0.2,0,0,0,0,-0.2,0,0,0,0,-0.2,0,0,-0.2,0,0,0,0,-0.2,0,0,-0.2,0,0,0"
class="s1_7"
>and it tells the computer what kind of file it is. </text>

<text
x="70"
y="481"
dx="0,0,0,0,-0.9,0,0,0,0,0,0,0,0,-0.9,0,-0.9,0,0,0,0,-0.9,0,0,0,0,0,0"
class="s1_7"
>For example, a file ending </text>

<path d="M251.5,480.3c-0.2,0.2,-0.3,0.4,-0.3,0.7c0,0.3,0.1,0.5,0.3,0.7c0.2,0.2,0.4,0.3,0.6,0.3c0.3,0,0.5,-0.1,0.7,-0.3c0.2,-0.2,0.3,-0.4,0.3,-0.7c0,-0.3,-0.1,-0.5,-0.3,-0.7c-0.2,-0.1,-0.4,-0.2,-0.7,-0.2c-0.2,0,-0.4,0.1,-0.6,0.2Z" class="g14_7" />
<path d="M261.3,471.3c-0.1,0.2,-0.2,0.4,-0.2,0.6c0,0.2,0.1,0.4,0.2,0.5c0.2,0.2,0.4,0.3,0.6,0.3c0.2,0,0.4,-0.1,0.5,-0.3c0.2,-0.1,0.3,-0.3,0.3,-0.5c0,-0.3,-0.1,-0.4,-0.3,-0.6c-0.1,-0.2,-0.3,-0.2,-0.5,-0.2c-0.2,0,-0.4,0,-0.6,0.2Zm1.1,2.7l-3.4,0l0,1l2.3,0l0,7.1c0,0.7,-0.1,1.1,-0.3,1.4c-0.1,0.2,-0.4,0.3,-0.8,0.3c-0.5,0,-1,0,-1.5,-0.2l-0.3,0.9c0.6,0.2,1.2,0.4,1.8,0.4c0.8,0,1.4,-0.3,1.7,-0.7c0.4,-0.4,0.5,-1.1,0.5,-2l0,-8.2Z" class="g14_7" />
<path d="M268.7,474l-1.2,0l0,10.9l1.2,0l0,-4.2c0.3,0.4,0.6,0.7,1,0.9c0.4,0.3,0.9,0.4,1.4,0.4c0.9,0,1.6,-0.4,2.1,-1.2c0.6,-0.8,0.8,-1.8,0.8,-3c0,-1.2,-0.2,-2.1,-0.7,-2.9c-0.6,-0.7,-1.3,-1.1,-2.1,-1.1c-0.5,0,-1,0.1,-1.4,0.3c-0.5,0.3,-0.8,0.6,-1.1,0.9l0,-1Zm2.1,0.8c0.6,0,1.1,0.3,1.5,0.9c0.3,0.5,0.5,1.3,0.5,2.2c0,0.8,-0.2,1.6,-0.5,2.2c-0.4,0.5,-0.9,0.8,-1.5,0.8c-0.4,0,-0.8,-0.1,-1.2,-0.4c-0.4,-0.3,-0.7,-0.7,-0.9,-1.1l0,-3.2c0.6,-0.9,1.3,-1.4,2.1,-1.4Z" class="g14_7" />
<path d="M279.3,478.9c0.8,0,1.4,-0.3,1.9,-0.8c0.5,-0.5,0.7,-1.1,0.7,-1.8c0,-0.5,-0.1,-1,-0.3,-1.3l1.5,0l0,-1.2l-2.3,0.4c-0.5,-0.3,-0.9,-0.4,-1.5,-0.4c-0.7,0,-1.3,0.3,-1.8,0.7c-0.5,0.5,-0.8,1.1,-0.8,1.8c0,0.5,0.1,0.9,0.4,1.3c0.2,0.4,0.5,0.7,0.9,1c-0.9,0.5,-1.3,1,-1.3,1.5c0,0.5,0.3,0.9,1,1.2c-0.8,0.5,-1.3,1,-1.3,1.6c0,0.6,0.3,1.1,0.9,1.4c0.5,0.4,1.2,0.6,2.1,0.6c1,0,1.9,-0.3,2.7,-0.8c0.8,-0.6,1.2,-1.3,1.2,-2.1c0,-0.6,-0.2,-1,-0.5,-1.3c-0.4,-0.3,-0.8,-0.5,-1.5,-0.5l-2.6,0.1c-0.3,0,-0.5,-0.1,-0.7,-0.2c-0.1,-0.1,-0.2,-0.2,-0.2,-0.3c0,-0.3,0.3,-0.6,1.1,-1c0.1,0.1,0.3,0.1,0.4,0.1Zm-1,-1.4c-0.3,-0.3,-0.4,-0.7,-0.4,-1.1c0,-0.5,0.1,-0.9,0.4,-1.2c0.3,-0.3,0.6,-0.4,1,-0.4c0.5,0,0.8,0.1,1.1,0.4c0.2,0.3,0.4,0.7,0.4,1.2c0,0.4,-0.2,0.8,-0.4,1.1c-0.3,0.3,-0.6,0.5,-1.1,0.5c-0.4,0,-0.7,-0.2,-1,-0.5Zm-0.3,6.1c-0.3,-0.2,-0.5,-0.5,-0.5,-0.8c0,-0.1,0.1,-0.3,0.2,-0.5c0.1,-0.2,0.3,-0.4,0.5,-0.6c0.3,-0.1,0.4,-0.2,0.6,-0.2c0.2,0,0.5,0,0.9,-0.1c0.6,0,1,0,1.3,0c0.8,0,1.1,0.3,1.1,0.8c0,0.5,-0.2,0.9,-0.8,1.2c-0.5,0.4,-1.2,0.5,-1.9,0.5c-0.6,0,-1,-0.1,-1.4,-0.3Z" class="g14_7" />
<text
x="247"
y="481"
dx="0,0,0,0"
class="s3_7"
>.jpg</text>

<text
x="287"
y="481"
dx="0,0,0,-0.9,0,0,-0.9,0,0,0,0,0,-0.9,0,0,0,0"
class="s1_7"
>is an image file.</text>

<text
x="70"
y="535"
dx="0,0,0,0,0,0"
class="s2_7"
>Folder</text>

<text
x="123"
y="535"
dx="0,0,1.9,0,0,0,0,1.9,0,0,0,1.9,0,0,0,0,1.9,0,1.9,0,0,0,0,0,1.9,0,0,1.9,0,0,0,0,1.9,0,0,0,0,1.9,0,1.9,0,0,0,0,0,-1.4,0,1.9,0,1.9,0,0,0,0,0,0,1.9,0,0,1.9,0,1.9,0,0,0.3,0,0,0,0,0,0,0,1.9,0,0,0,0,0,0,0,1.9,0,0,0,0,0,0,0,0,1.9,0,0,1.9,0"
class="s1_7"
>– when you save a file, it goes into a folder. A folder is a particular storage location on a </text>

<text
x="70"
y="556"
dx="0,0,0,0,0,0,0,0,-1.4,0,1.5,0,0,0,0,0,0,0,1.5,0,0,0,1.5,0,0,0,0,0,0,0,1.5,0,0,0,0,0,1.5,0,0,0,0,0,0,0,0,1.5,-1.4,0,0,1.5,-0.3,0,0,0,0,1.5,0,0,1.5,0,1.5,0,0,0,0,0,0,1.5,0,0,1.5,0,0,0,0,0,0,1.5,0,0,0"
class="s1_7"
>computer. Folders can contain other folders. You refer to a folder by giving its </text>

<text
x="621"
y="556"
dx="0,0,0,0"
class="s2_7"
>path</text>

<text
x="653"
y="556"
dx="0,0,1.5,0,0,0,1.5,0,0,0,0,0,0,0,0"
class="s1_7"
>. For example, </text>

<path d="M77.8,576.4c-0.9,0.5,-1.7,0.8,-2.5,0.8c-1.9,0,-2.9,-1.5,-2.9,-4.4c0,-1.6,0.2,-2.7,0.7,-3.4c0.5,-0.7,1.2,-1,2.2,-1c0.8,0,1.6,0.2,2.3,0.6L78,568c-0.3,-0.2,-0.7,-0.4,-1.2,-0.5c-0.5,-0.1,-1,-0.2,-1.5,-0.2c-1.4,0,-2.5,0.5,-3.2,1.5c-0.7,0.9,-1,2.3,-1,4c0,1.7,0.4,3.1,1.1,4c0.7,1,1.7,1.4,3.1,1.4c1.1,0,2,-0.3,2.8,-0.8l-0.3,-1Z" class="g14_7" />
<path d="M83.2,570.4C83,570.6,83,570.8,83,571c0,0.3,0,0.5,0.2,0.7c0.2,0.1,0.4,0.2,0.6,0.2c0.3,0,0.5,-0.1,0.7,-0.2c0.2,-0.2,0.2,-0.4,0.2,-0.7c0,-0.2,0,-0.4,-0.2,-0.6c-0.2,-0.2,-0.4,-0.3,-0.7,-0.3c-0.2,0,-0.4,0.1,-0.6,0.3Zm0,6.2C83,576.8,83,577,83,577.3c0,0.2,0,0.4,0.2,0.6c0.2,0.2,0.4,0.2,0.6,0.2c0.3,0,0.5,0,0.7,-0.2c0.2,-0.2,0.2,-0.4,0.2,-0.6c0,-0.3,0,-0.5,-0.2,-0.7c-0.2,-0.1,-0.4,-0.2,-0.7,-0.2c-0.2,0,-0.4,0.1,-0.6,0.2Z" class="g14_7" />
<path d="M94.6,567.3l-4.5,10.9l1.1,0l4.6,-10.9l-1.2,0Z" class="g14_7" />
<path d="M105.3,572.7c0,-1.7,-0.8,-2.6,-2.2,-2.6c-1,0,-1.8,0.4,-2.7,1.3l0,-1.1l-1.1,0l0,7.7l1.1,0l0,-5.6c0.8,-0.9,1.6,-1.3,2.3,-1.3c0.5,0,0.8,0.1,1.1,0.4c0.2,0.4,0.3,0.9,0.3,1.5l0,5l1.2,0l0,-5.3Z" class="g14_7" />
<path d="M114.4,576.2l0,-3.3c0,-1.9,-0.9,-2.8,-2.6,-2.8c-0.9,0,-1.9,0.2,-3,0.8l0.3,0.8c0.3,-0.2,0.7,-0.3,1.2,-0.4c0.4,-0.2,0.8,-0.2,1.1,-0.2c1.2,0,1.9,0.6,1.9,2l0,0.3l-1.3,0.2c-0.6,0,-1.1,0.1,-1.6,0.2c-0.4,0.1,-0.8,0.3,-1.1,0.5c-0.3,0.2,-0.5,0.4,-0.6,0.7c-0.2,0.3,-0.3,0.6,-0.3,1c0,0.7,0.3,1.2,0.7,1.6c0.4,0.4,0.9,0.6,1.5,0.6c1.2,0,2.1,-0.5,2.7,-1.4c0,0.5,0.1,0.9,0.2,1.2l1.1,0c-0.1,-0.5,-0.2,-1.1,-0.2,-1.8Zm-2.2,0.5c-0.4,0.3,-0.8,0.4,-1.2,0.4c-0.4,0,-0.7,-0.1,-1,-0.3c-0.2,-0.2,-0.3,-0.5,-0.3,-0.9c0,-0.3,0.1,-0.6,0.4,-0.9c0.3,-0.2,0.6,-0.3,1,-0.4c0.4,-0.1,1.1,-0.2,2.2,-0.3l0,1.4c-0.3,0.5,-0.7,0.8,-1.1,1Z" class="g14_7" />
<path d="M123.6,572.7c0,-1.7,-0.7,-2.6,-2.2,-2.6c-0.9,0,-1.8,0.4,-2.6,1.3l0,-1.1l-1.2,0l0,7.7l1.2,0l0,-5.6c0.8,-0.9,1.5,-1.3,2.3,-1.3c0.4,0,0.8,0.1,1,0.4c0.2,0.4,0.3,0.9,0.3,1.5l0,5l1.2,0l0,-5.3Z" class="g14_7" />
<path d="M127.2,571.2c-0.6,0.7,-1,1.7,-1,2.9c0,1.3,0.4,2.3,1,3c0.6,0.8,1.5,1.1,2.5,1.1c1.1,0,2,-0.3,2.6,-1.1c0.6,-0.7,0.9,-1.7,0.9,-3c0,-1.2,-0.3,-2.2,-0.9,-2.9c-0.6,-0.8,-1.5,-1.1,-2.6,-1.1c-1,0,-1.9,0.3,-2.5,1.1Zm0.9,5.1c-0.4,-0.6,-0.6,-1.3,-0.6,-2.1c0,-1,0.2,-1.7,0.6,-2.3c0.4,-0.5,0.9,-0.8,1.6,-0.8c0.8,0,1.3,0.3,1.7,0.8c0.4,0.6,0.6,1.4,0.6,2.3c0,0.8,-0.2,1.5,-0.6,2.1c-0.4,0.6,-0.9,0.9,-1.7,0.9c-0.7,0,-1.2,-0.3,-1.6,-0.9Z" class="g14_7" />
<path d="M141.9,572.7c0,-1.7,-0.7,-2.6,-2.2,-2.6c-0.9,0,-1.8,0.4,-2.6,1.3l0,-1.1l-1.2,0l0,7.7l1.2,0l0,-5.6c0.8,-0.9,1.6,-1.3,2.3,-1.3c0.5,0,0.8,0.1,1,0.4c0.3,0.4,0.4,0.9,0.4,1.5l0,5l1.1,0l0,-5.3Z" class="g14_7" />
<path d="M151.1,576.2l0,-3.3c0,-1.9,-0.9,-2.8,-2.7,-2.8c-0.9,0,-1.9,0.2,-2.9,0.8l0.3,0.8c0.3,-0.2,0.7,-0.3,1.2,-0.4c0.4,-0.2,0.8,-0.2,1.1,-0.2c1.2,0,1.8,0.6,1.8,2l0,0.3l-1.3,0.2c-0.6,0,-1.1,0.1,-1.5,0.2c-0.4,0.1,-0.8,0.3,-1.1,0.5c-0.3,0.2,-0.5,0.4,-0.7,0.7c-0.1,0.3,-0.2,0.6,-0.2,1c0,0.7,0.2,1.2,0.7,1.6c0.4,0.4,0.9,0.6,1.5,0.6c1.1,0,2,-0.5,2.7,-1.4c0,0.5,0,0.9,0.1,1.2l1.2,0c-0.1,-0.5,-0.2,-1.1,-0.2,-1.8Zm-2.2,0.5c-0.4,0.3,-0.9,0.4,-1.3,0.4c-0.4,0,-0.7,-0.1,-0.9,-0.3c-0.2,-0.2,-0.4,-0.5,-0.4,-0.9c0,-0.3,0.2,-0.6,0.5,-0.9c0.2,-0.2,0.6,-0.3,1,-0.4c0.4,-0.1,1.1,-0.2,2.1,-0.3l0,1.4c-0.3,0.5,-0.6,0.8,-1,1Z" class="g14_7" />
<path d="M160.3,570.3l-1.2,0l0,5.6c-0.8,0.9,-1.6,1.3,-2.3,1.3c-0.5,0,-0.9,-0.2,-1.1,-0.5c-0.2,-0.3,-0.3,-0.8,-0.3,-1.5l0,-4.9l-1.1,0l0,5.3c0,1.7,0.7,2.6,2.1,2.6c1,0,1.9,-0.4,2.7,-1.3l0,1.1l1.2,0l0,-7.7Z" class="g14_7" />
<path d="M169.3,576.8c-0.6,0.3,-1.2,0.4,-1.9,0.4c-0.3,0,-0.6,-0.1,-0.8,-0.4c-0.2,-0.3,-0.3,-0.6,-0.3,-1.1l0,-4.4l2.6,0l0,-1l-2.6,0l0,-2.2l-1.2,0l0,2.2l-1.5,0l0,1l1.5,0l0,4.7c0,1.5,0.7,2.2,2.1,2.2c0.8,0,1.5,-0.2,2.3,-0.5l-0.2,-0.9Z" class="g14_7" />
<path d="M178,570.4c-0.7,-0.2,-1.4,-0.3,-2,-0.3c-1,0,-1.8,0.2,-2.4,0.6c-0.6,0.4,-0.9,0.9,-0.9,1.6c0,0.3,0.1,0.5,0.2,0.8c0.2,0.2,0.3,0.5,0.6,0.6c0.2,0.2,0.5,0.3,0.8,0.4c0.3,0.1,0.7,0.3,1.3,0.5c0.8,0.2,1.2,0.4,1.4,0.6c0.2,0.2,0.3,0.5,0.3,0.7c0,0.4,-0.2,0.8,-0.6,1c-0.4,0.2,-0.9,0.4,-1.6,0.4c-0.7,0,-1.4,-0.2,-2,-0.5l-0.3,1c0.6,0.3,1.4,0.4,2.4,0.4c1,0,1.7,-0.2,2.4,-0.6c0.6,-0.4,0.9,-1,0.9,-1.8c0,-0.3,-0.1,-0.7,-0.2,-1c-0.2,-0.3,-0.4,-0.5,-0.8,-0.7c-0.3,-0.2,-0.7,-0.4,-1.2,-0.5l-1.1,-0.3c-0.5,-0.2,-0.9,-0.3,-1.1,-0.5c-0.1,-0.2,-0.2,-0.4,-0.2,-0.6c0,-0.3,0.2,-0.6,0.5,-0.8c0.4,-0.2,0.9,-0.4,1.5,-0.4c0.6,0,1.2,0.2,1.9,0.4l0.2,-1Z" class="g14_7" />
<path d="M186.3,567.3l-4.5,10.9l1.1,0l4.5,-10.9l-1.1,0Z" class="g14_7" />
<path d="M193.9,567.6c-0.2,0.1,-0.2,0.3,-0.2,0.5c0,0.2,0,0.4,0.2,0.6c0.1,0.1,0.3,0.2,0.5,0.2c0.3,0,0.4,-0.1,0.6,-0.2c0.1,-0.2,0.2,-0.4,0.2,-0.6c0,-0.2,-0.1,-0.4,-0.2,-0.5c-0.2,-0.2,-0.4,-0.3,-0.6,-0.3c-0.2,0,-0.4,0.1,-0.5,0.3Zm1.1,2.7l-3.5,0l0,1l2.3,0l0,6.7l1.2,0l0,-7.7Z" class="g14_7" />
<path d="M206.7,572.6c0,-1.7,-0.5,-2.5,-1.4,-2.5c-0.3,0,-0.6,0.1,-0.9,0.3c-0.3,0.3,-0.6,0.6,-0.8,1c-0.1,-0.4,-0.2,-0.7,-0.5,-1c-0.2,-0.2,-0.5,-0.3,-0.8,-0.3c-0.3,0,-0.6,0.1,-0.9,0.3c-0.3,0.3,-0.6,0.6,-0.8,1l0,-1.1l-1.1,0l0,7.7l1.1,0l0,-5.6c0,0,0.2,-0.3,0.5,-0.7c0.2,-0.4,0.5,-0.6,0.7,-0.6c0.5,0,0.7,0.6,0.7,1.8l0,5.1l1.2,0l0,-5.6c0,0,0.1,-0.3,0.4,-0.7c0.3,-0.4,0.5,-0.6,0.8,-0.6c0.4,0,0.7,0.6,0.7,1.8l0,5.1l1.1,0l0,-5.4Z" class="g14_7" />
<path d="M215.3,576.2l0,-3.3c0,-1.9,-0.9,-2.8,-2.7,-2.8c-0.9,0,-1.9,0.2,-2.9,0.8l0.3,0.8c0.3,-0.2,0.7,-0.3,1.1,-0.4c0.5,-0.2,0.9,-0.2,1.1,-0.2c1.3,0,1.9,0.6,1.9,2l0,0.3l-1.3,0.2c-0.6,0,-1.1,0.1,-1.5,0.2c-0.4,0.1,-0.8,0.3,-1.1,0.5c-0.3,0.2,-0.5,0.4,-0.7,0.7c-0.1,0.3,-0.2,0.6,-0.2,1c0,0.7,0.2,1.2,0.6,1.6c0.5,0.4,1,0.6,1.6,0.6c1.1,0,2,-0.5,2.7,-1.4c0,0.5,0,0.9,0.1,1.2l1.2,0c-0.2,-0.5,-0.2,-1.1,-0.2,-1.8Zm-2.3,0.5c-0.4,0.3,-0.8,0.4,-1.2,0.4c-0.4,0,-0.7,-0.1,-0.9,-0.3c-0.3,-0.2,-0.4,-0.5,-0.4,-0.9c0,-0.3,0.1,-0.6,0.4,-0.9c0.3,-0.2,0.7,-0.3,1.1,-0.4c0.3,-0.1,1.1,-0.2,2.1,-0.3l0,1.4c-0.3,0.5,-0.7,0.8,-1.1,1Z" class="g14_7" />
<path d="M221.1,575.1c0.7,0,1.3,-0.2,1.8,-0.7c0.5,-0.5,0.8,-1.1,0.8,-1.8c0,-0.5,-0.1,-1,-0.4,-1.4l1.5,0l0,-1.1l-2.3,0.3c-0.4,-0.2,-0.9,-0.3,-1.4,-0.3c-0.8,0,-1.4,0.2,-1.9,0.7c-0.5,0.5,-0.7,1.1,-0.7,1.8c0,0.4,0.1,0.9,0.3,1.3c0.2,0.4,0.5,0.7,1,1c-1,0.4,-1.4,0.9,-1.4,1.5c0,0.5,0.3,0.9,1,1.2c-0.8,0.4,-1.2,0.9,-1.2,1.6c0,0.5,0.2,1,0.8,1.4c0.5,0.3,1.2,0.5,2.1,0.5c1.1,0,2,-0.3,2.8,-0.8c0.7,-0.5,1.1,-1.2,1.1,-2.1c0,-0.5,-0.1,-1,-0.5,-1.3c-0.3,-0.3,-0.8,-0.4,-1.4,-0.4l-2.6,0c-0.3,0,-0.6,0,-0.7,-0.1c-0.2,-0.1,-0.3,-0.2,-0.3,-0.4c0,-0.2,0.4,-0.6,1.1,-0.9c0.2,0,0.3,0,0.5,0ZM220,573.8c-0.3,-0.3,-0.4,-0.7,-0.4,-1.2c0,-0.5,0.1,-0.9,0.4,-1.2c0.3,-0.3,0.7,-0.4,1.1,-0.4c0.4,0,0.8,0.1,1,0.4c0.3,0.3,0.4,0.7,0.4,1.2c0,0.5,-0.1,0.9,-0.4,1.2c-0.3,0.3,-0.6,0.4,-1,0.4c-0.4,0,-0.8,-0.1,-1.1,-0.4Zm-0.2,6.1c-0.4,-0.2,-0.5,-0.5,-0.5,-0.8c0,-0.2,0,-0.4,0.1,-0.6c0.2,-0.1,0.3,-0.3,0.6,-0.5c0.2,-0.2,0.4,-0.3,0.5,-0.3c0.2,0,0.5,0,0.9,0c0.6,0,1.1,-0.1,1.3,-0.1c0.8,0,1.2,0.3,1.2,0.8c0,0.5,-0.3,0.9,-0.8,1.3c-0.6,0.3,-1.2,0.5,-2,0.5c-0.5,0,-1,-0.1,-1.3,-0.3Z" class="g14_7" />
<path d="M233.8,573.8c0,-1.1,-0.3,-2,-0.9,-2.7c-0.6,-0.7,-1.3,-1,-2.2,-1c-1,0,-1.8,0.3,-2.5,1.1c-0.6,0.7,-0.9,1.7,-0.9,2.9c0,1.3,0.3,2.3,1,3c0.8,0.8,1.7,1.1,2.8,1.1c0.9,0,1.8,-0.1,2.4,-0.4l-0.2,-1c-0.7,0.3,-1.4,0.4,-2.2,0.4c-0.7,0,-1.3,-0.3,-1.8,-0.8c-0.5,-0.6,-0.8,-1.3,-0.8,-2.2l5.3,0l0,-0.4Zm-5.2,-0.6c0,-0.6,0.2,-1.1,0.6,-1.5c0.4,-0.4,0.9,-0.6,1.5,-0.6c0.5,0,0.9,0.2,1.3,0.6c0.4,0.4,0.6,0.9,0.6,1.5l-4,0Z" class="g14_7" />
<path d="M242.2,570.4c-0.7,-0.2,-1.4,-0.3,-2.1,-0.3c-0.9,0,-1.7,0.2,-2.3,0.6c-0.6,0.4,-0.9,0.9,-0.9,1.6c0,0.3,0.1,0.5,0.2,0.8c0.1,0.2,0.3,0.5,0.6,0.6c0.2,0.2,0.5,0.3,0.8,0.4c0.2,0.1,0.7,0.3,1.3,0.5c0.7,0.2,1.2,0.4,1.4,0.6c0.2,0.2,0.3,0.5,0.3,0.7c0,0.4,-0.2,0.8,-0.6,1c-0.4,0.2,-0.9,0.4,-1.6,0.4c-0.7,0,-1.4,-0.2,-2.1,-0.5l-0.2,1c0.6,0.3,1.4,0.4,2.4,0.4c0.9,0,1.7,-0.2,2.3,-0.6c0.7,-0.4,1,-1,1,-1.8c0,-0.3,-0.1,-0.7,-0.3,-1c-0.1,-0.3,-0.4,-0.5,-0.7,-0.7c-0.3,-0.2,-0.7,-0.4,-1.2,-0.5l-1.2,-0.3c-0.5,-0.2,-0.8,-0.3,-1,-0.5c-0.1,-0.2,-0.2,-0.4,-0.2,-0.6c0,-0.3,0.2,-0.6,0.5,-0.8c0.4,-0.2,0.9,-0.4,1.5,-0.4c0.6,0,1.2,0.2,1.9,0.4l0.2,-1Z" class="g14_7" />
<text
x="70"
y="578"
dx="0,0,0,0,0,0,0,0,0,0,0,0,0,0,0,0,0,0,0"
class="s3_7"
>C:/nanonauts/images</text>

<text
x="249"
y="578"
dx="0,0,0,0,0,0,0.6,0,0,0,0.6,0,0,0,0,0.6,0,0,0.6,0,0,0"
class="s1_7"
>gives the path to the </text>

<path d="M400.5,567.6c-0.2,0.1,-0.3,0.3,-0.3,0.5c0,0.2,0.1,0.4,0.3,0.6c0.1,0.1,0.3,0.2,0.5,0.2c0.2,0,0.4,-0.1,0.6,-0.2c0.1,-0.2,0.2,-0.4,0.2,-0.6c0,-0.2,-0.1,-0.4,-0.2,-0.5c-0.2,-0.2,-0.4,-0.3,-0.6,-0.3c-0.2,0,-0.4,0.1,-0.5,0.3Zm1.1,2.7l-3.5,0l0,1l2.3,0l0,6.7l1.2,0l0,-7.7Z" class="g14_7" />
<path d="M413.3,572.6c0,-1.7,-0.5,-2.5,-1.4,-2.5c-0.3,0,-0.6,0.1,-0.9,0.3c-0.3,0.3,-0.6,0.6,-0.8,1c-0.1,-0.4,-0.3,-0.7,-0.5,-1c-0.2,-0.2,-0.5,-0.3,-0.8,-0.3c-0.3,0,-0.6,0.1,-0.9,0.3c-0.3,0.3,-0.6,0.6,-0.8,1l0,-1.1l-1.1,0l0,7.7l1.1,0l0,-5.6c0,0,0.2,-0.3,0.4,-0.7c0.3,-0.4,0.6,-0.6,0.8,-0.6c0.5,0,0.7,0.6,0.7,1.8l0,5.1l1.2,0l0,-5.6c0,0,0.1,-0.3,0.4,-0.7c0.3,-0.4,0.5,-0.6,0.8,-0.6c0.4,0,0.6,0.6,0.6,1.8l0,5.1l1.2,0l0,-5.4Z" class="g14_7" />
<path d="M421.9,576.2l0,-3.3c0,-1.9,-0.9,-2.8,-2.7,-2.8c-0.9,0,-1.9,0.2,-3,0.8l0.4,0.8c0.3,-0.2,0.7,-0.3,1.1,-0.4c0.5,-0.2,0.8,-0.2,1.1,-0.2c1.3,0,1.9,0.6,1.9,2l0,0.3l-1.3,0.2c-0.6,0,-1.1,0.1,-1.5,0.2c-0.5,0.1,-0.8,0.3,-1.1,0.5c-0.3,0.2,-0.5,0.4,-0.7,0.7c-0.2,0.3,-0.2,0.6,-0.2,1c0,0.7,0.2,1.2,0.6,1.6c0.5,0.4,1,0.6,1.6,0.6c1.1,0,2,-0.5,2.7,-1.4c0,0.5,0,0.9,0.1,1.2l1.2,0c-0.2,-0.5,-0.2,-1.1,-0.2,-1.8Zm-2.3,0.5c-0.4,0.3,-0.8,0.4,-1.2,0.4c-0.4,0,-0.7,-0.1,-0.9,-0.3c-0.3,-0.2,-0.4,-0.5,-0.4,-0.9c0,-0.3,0.1,-0.6,0.4,-0.9c0.3,-0.2,0.6,-0.3,1,-0.4c0.4,-0.1,1.1,-0.2,2.2,-0.3l0,1.4c-0.3,0.5,-0.7,0.8,-1.1,1Z" class="g14_7" />
<path d="M427.6,575.1c0.8,0,1.4,-0.2,1.9,-0.7c0.5,-0.5,0.8,-1.1,0.8,-1.8c0,-0.5,-0.2,-1,-0.4,-1.4l1.5,0l0,-1.1l-2.3,0.3c-0.4,-0.2,-0.9,-0.3,-1.5,-0.3c-0.7,0,-1.3,0.2,-1.8,0.7c-0.5,0.5,-0.8,1.1,-0.8,1.8c0,0.4,0.1,0.9,0.4,1.3c0.2,0.4,0.5,0.7,0.9,1c-0.9,0.4,-1.3,0.9,-1.3,1.5c0,0.5,0.3,0.9,1,1.2c-0.8,0.4,-1.2,0.9,-1.2,1.6c0,0.5,0.2,1,0.8,1.4c0.5,0.3,1.2,0.5,2.1,0.5c1,0,2,-0.3,2.7,-0.8c0.8,-0.5,1.2,-1.2,1.2,-2.1c0,-0.5,-0.2,-1,-0.5,-1.3c-0.3,-0.3,-0.8,-0.4,-1.4,-0.4l-2.7,0c-0.3,0,-0.5,0,-0.6,-0.1c-0.2,-0.1,-0.3,-0.2,-0.3,-0.4c0,-0.2,0.4,-0.6,1.1,-0.9c0.1,0,0.3,0,0.4,0Zm-1,-1.3c-0.3,-0.3,-0.4,-0.7,-0.4,-1.2c0,-0.5,0.1,-0.9,0.4,-1.2c0.3,-0.3,0.6,-0.4,1,-0.4c0.5,0,0.8,0.1,1.1,0.4c0.3,0.3,0.4,0.7,0.4,1.2c0,0.5,-0.1,0.9,-0.4,1.2c-0.3,0.3,-0.6,0.4,-1.1,0.4c-0.4,0,-0.7,-0.1,-1,-0.4Zm-0.2,6.1c-0.4,-0.2,-0.6,-0.5,-0.6,-0.8c0,-0.2,0.1,-0.4,0.2,-0.6c0.2,-0.1,0.3,-0.3,0.6,-0.5c0.2,-0.2,0.4,-0.3,0.5,-0.3c0.2,0,0.5,0,0.9,0c0.6,0,1.1,-0.1,1.3,-0.1c0.8,0,1.2,0.3,1.2,0.8c0,0.5,-0.3,0.9,-0.8,1.3c-0.6,0.3,-1.2,0.5,-2,0.5c-0.6,0,-1,-0.1,-1.3,-0.3Z" class="g14_7" />
<path d="M440.4,573.8c0,-1.1,-0.3,-2,-0.9,-2.7c-0.6,-0.7,-1.3,-1,-2.2,-1c-1,0,-1.8,0.3,-2.5,1.1c-0.6,0.7,-0.9,1.7,-0.9,2.9c0,1.3,0.3,2.3,1,3c0.7,0.8,1.7,1.1,2.8,1.1c0.9,0,1.7,-0.1,2.4,-0.4l-0.2,-1c-0.7,0.3,-1.5,0.4,-2.2,0.4c-0.7,0,-1.3,-0.3,-1.8,-0.8c-0.6,-0.6,-0.8,-1.3,-0.8,-2.2l5.3,0l0,-0.4Zm-5.2,-0.6c0,-0.6,0.2,-1.1,0.6,-1.5c0.4,-0.4,0.9,-0.6,1.5,-0.6c0.5,0,0.9,0.2,1.3,0.6c0.4,0.4,0.6,0.9,0.6,1.5l-4,0Z" class="g14_7" />
<path d="M448.8,570.4c-0.8,-0.2,-1.5,-0.3,-2.1,-0.3c-0.9,0,-1.7,0.2,-2.3,0.6c-0.6,0.4,-0.9,0.9,-0.9,1.6c0,0.3,0.1,0.5,0.2,0.8c0.1,0.2,0.3,0.5,0.6,0.6c0.2,0.2,0.5,0.3,0.7,0.4c0.3,0.1,0.8,0.3,1.4,0.5c0.7,0.2,1.2,0.4,1.4,0.6c0.2,0.2,0.3,0.5,0.3,0.7c0,0.4,-0.2,0.8,-0.6,1c-0.4,0.2,-0.9,0.4,-1.6,0.4c-0.7,0,-1.4,-0.2,-2.1,-0.5l-0.2,1c0.6,0.3,1.4,0.4,2.4,0.4c0.9,0,1.7,-0.2,2.3,-0.6c0.6,-0.4,1,-1,1,-1.8c0,-0.3,-0.1,-0.7,-0.3,-1c-0.1,-0.3,-0.4,-0.5,-0.7,-0.7c-0.3,-0.2,-0.8,-0.4,-1.3,-0.5l-1.1,-0.3c-0.5,-0.2,-0.8,-0.3,-1,-0.5c-0.2,-0.2,-0.2,-0.4,-0.2,-0.6c0,-0.3,0.1,-0.6,0.5,-0.8c0.4,-0.2,0.9,-0.4,1.5,-0.4c0.6,0,1.2,0.2,1.8,0.4l0.3,-1Z" class="g14_7" />
<text
x="395"
y="578"
dx="0,0,0,0,0,0"
class="s3_7"
>images</text>

<text
x="455"
y="578"
dx="0,0,0,0,0,0,0,0.6,0,0,0,0,0,0,0.6,0,0,0"
class="s1_7"
>folder inside the </text>

<path d="M579.1,572.7c0,-1.7,-0.7,-2.6,-2.2,-2.6c-0.9,0,-1.8,0.4,-2.6,1.3l0,-1.1l-1.2,0l0,7.7l1.2,0l0,-5.6c0.8,-0.9,1.5,-1.3,2.3,-1.3c0.4,0,0.8,0.1,1,0.4c0.2,0.4,0.3,0.9,0.3,1.5l0,5l1.2,0l0,-5.3Z" class="g14_7" />
<path d="M588.3,576.2l0,-3.3c0,-1.9,-0.9,-2.8,-2.7,-2.8c-0.9,0,-1.9,0.2,-3,0.8l0.4,0.8c0.3,-0.2,0.7,-0.3,1.1,-0.4c0.5,-0.2,0.8,-0.2,1.1,-0.2c1.3,0,1.9,0.6,1.9,2l0,0.3l-1.3,0.2c-0.6,0,-1.1,0.1,-1.5,0.2c-0.5,0.1,-0.8,0.3,-1.1,0.5c-0.3,0.2,-0.5,0.4,-0.7,0.7c-0.2,0.3,-0.2,0.6,-0.2,1c0,0.7,0.2,1.2,0.6,1.6c0.5,0.4,1,0.6,1.6,0.6c1.1,0,2,-0.5,2.7,-1.4c0,0.5,0,0.9,0.1,1.2l1.2,0c-0.2,-0.5,-0.2,-1.1,-0.2,-1.8Zm-2.3,0.5c-0.4,0.3,-0.8,0.4,-1.2,0.4c-0.4,0,-0.7,-0.1,-0.9,-0.3c-0.3,-0.2,-0.4,-0.5,-0.4,-0.9c0,-0.3,0.1,-0.6,0.4,-0.9c0.3,-0.2,0.6,-0.3,1,-0.4c0.4,-0.1,1.1,-0.2,2.2,-0.3l0,1.4c-0.3,0.5,-0.7,0.8,-1.1,1Z" class="g14_7" />
<path d="M597.4,572.7c0,-1.7,-0.7,-2.6,-2.2,-2.6c-0.9,0,-1.8,0.4,-2.6,1.3l0,-1.1l-1.2,0l0,7.7l1.2,0l0,-5.6c0.8,-0.9,1.6,-1.3,2.3,-1.3c0.5,0,0.8,0.1,1,0.4c0.3,0.4,0.4,0.9,0.4,1.5l0,5l1.1,0l0,-5.3Z" class="g14_7" />
<path d="M601,571.2c-0.6,0.7,-0.9,1.7,-0.9,2.9c0,1.3,0.3,2.3,0.9,3c0.7,0.8,1.5,1.1,2.6,1.1c1.1,0,1.9,-0.3,2.5,-1.1c0.7,-0.7,1,-1.7,1,-3c0,-1.2,-0.3,-2.2,-1,-2.9c-0.6,-0.8,-1.4,-1.1,-2.5,-1.1c-1.1,0,-1.9,0.3,-2.6,1.1Zm0.9,5.1c-0.4,-0.6,-0.6,-1.3,-0.6,-2.1c0,-1,0.2,-1.7,0.6,-2.3c0.4,-0.5,1,-0.8,1.7,-0.8c0.7,0,1.3,0.3,1.7,0.8c0.4,0.6,0.6,1.4,0.6,2.3c0,0.8,-0.2,1.5,-0.6,2.1c-0.5,0.6,-1,0.9,-1.7,0.9c-0.7,0,-1.3,-0.3,-1.7,-0.9Z" class="g14_7" />
<path d="M615.8,572.7c0,-1.7,-0.8,-2.6,-2.2,-2.6c-0.9,0,-1.8,0.4,-2.7,1.3l0,-1.1l-1.1,0l0,7.7l1.1,0l0,-5.6c0.9,-0.9,1.6,-1.3,2.3,-1.3c0.5,0,0.8,0.1,1.1,0.4c0.2,0.4,0.3,0.9,0.3,1.5l0,5l1.2,0l0,-5.3Z" class="g14_7" />
<path d="M624.9,576.2l0,-3.3c0,-1.9,-0.9,-2.8,-2.6,-2.8c-0.9,0,-1.9,0.2,-3,0.8l0.3,0.8c0.4,-0.2,0.7,-0.3,1.2,-0.4c0.4,-0.2,0.8,-0.2,1.1,-0.2c1.2,0,1.9,0.6,1.9,2l0,0.3l-1.3,0.2c-0.6,0,-1.1,0.1,-1.6,0.2c-0.4,0.1,-0.8,0.3,-1,0.5c-0.3,0.2,-0.6,0.4,-0.7,0.7c-0.2,0.3,-0.3,0.6,-0.3,1c0,0.7,0.3,1.2,0.7,1.6c0.4,0.4,0.9,0.6,1.5,0.6c1.2,0,2.1,-0.5,2.7,-1.4c0,0.5,0.1,0.9,0.2,1.2l1.1,0c-0.1,-0.5,-0.2,-1.1,-0.2,-1.8Zm-2.2,0.5c-0.4,0.3,-0.8,0.4,-1.2,0.4c-0.4,0,-0.7,-0.1,-1,-0.3c-0.2,-0.2,-0.3,-0.5,-0.3,-0.9c0,-0.3,0.1,-0.6,0.4,-0.9c0.3,-0.2,0.6,-0.3,1,-0.4c0.4,-0.1,1.1,-0.2,2.2,-0.3l0,1.4c-0.3,0.5,-0.7,0.8,-1.1,1Z" class="g14_7" />
<path d="M634.1,570.3l-1.2,0l0,5.6c-0.8,0.9,-1.6,1.3,-2.3,1.3c-0.5,0,-0.8,-0.2,-1,-0.5c-0.2,-0.3,-0.3,-0.8,-0.3,-1.5l0,-4.9l-1.2,0l0,5.3c0,1.7,0.7,2.6,2.2,2.6c0.9,0,1.8,-0.4,2.6,-1.3l0,1.1l1.2,0l0,-7.7Z" class="g14_7" />
<path d="M643.1,576.8c-0.6,0.3,-1.2,0.4,-1.8,0.4c-0.4,0,-0.7,-0.1,-0.9,-0.4c-0.2,-0.3,-0.3,-0.6,-0.3,-1.1l0,-4.4l2.6,0l0,-1l-2.6,0l0,-2.2l-1.1,0l0,2.2l-1.5,0l0,1l1.5,0l0,4.7c0,1.5,0.6,2.2,2,2.2c0.8,0,1.6,-0.2,2.3,-0.5l-0.2,-0.9Z" class="g14_7" />
<path d="M651.9,570.4c-0.8,-0.2,-1.5,-0.3,-2.1,-0.3c-1,0,-1.8,0.2,-2.3,0.6c-0.6,0.4,-0.9,0.9,-0.9,1.6c0,0.3,0,0.5,0.2,0.8c0.1,0.2,0.3,0.5,0.5,0.6c0.3,0.2,0.5,0.3,0.8,0.4c0.3,0.1,0.7,0.3,1.3,0.5c0.8,0.2,1.3,0.4,1.5,0.6c0.2,0.2,0.3,0.5,0.3,0.7c0,0.4,-0.2,0.8,-0.6,1c-0.4,0.2,-1,0.4,-1.6,0.4c-0.8,0,-1.5,-0.2,-2.1,-0.5l-0.2,1c0.6,0.3,1.4,0.4,2.3,0.4c1,0,1.8,-0.2,2.4,-0.6c0.6,-0.4,0.9,-1,0.9,-1.8c0,-0.3,0,-0.7,-0.2,-1c-0.2,-0.3,-0.4,-0.5,-0.7,-0.7c-0.4,-0.2,-0.8,-0.4,-1.3,-0.5L649,573.3c-0.5,-0.2,-0.8,-0.3,-1,-0.5c-0.2,-0.2,-0.3,-0.4,-0.3,-0.6c0,-0.3,0.2,-0.6,0.6,-0.8c0.3,-0.2,0.8,-0.4,1.5,-0.4c0.6,0,1.2,0.2,1.8,0.4l0.3,-1Z" class="g14_7" />
<text
x="571"
y="578"
dx="0,0,0,0,0,0,0,0,0"
class="s3_7"
>nanonauts</text>

<text
x="658"
y="578"
dx="0,0,0,0,0,0,0,0.6,0,0,0.6,0,0,0,0"
class="s1_7"
>folder on your </text>

<text
x="70"
y="599"
dx="0,0,0,0,0,0,0,0,0,-1.1,0"
class="s1_7"
>computer’s </text>

<path d="M156.4,597.8c-0.8,0.5,-1.6,0.7,-2.5,0.7c-1.9,0,-2.8,-1.4,-2.8,-4.3c0,-1.6,0.2,-2.7,0.7,-3.4c0.5,-0.7,1.2,-1,2.1,-1c0.9,0,1.7,0.2,2.4,0.6l0.4,-1c-0.3,-0.2,-0.7,-0.4,-1.2,-0.5c-0.5,-0.1,-1,-0.2,-1.6,-0.2c-1.4,0,-2.4,0.5,-3.1,1.4c-0.7,1,-1,2.3,-1,4.1c0,1.7,0.3,3.1,1,4c0.7,1,1.8,1.4,3.1,1.4c1.1,0,2.1,-0.3,2.9,-0.8l-0.4,-1Z" class="g14_7" />
<path d="M161.9,591.8c-0.2,0.2,-0.3,0.4,-0.3,0.6c0,0.3,0.1,0.5,0.3,0.7c0.2,0.1,0.4,0.2,0.6,0.2c0.3,0,0.5,-0.1,0.7,-0.2c0.1,-0.2,0.2,-0.4,0.2,-0.7c0,-0.2,-0.1,-0.4,-0.2,-0.6c-0.2,-0.2,-0.4,-0.3,-0.7,-0.3c-0.2,0,-0.4,0.1,-0.6,0.3Zm0,6.2c-0.2,0.2,-0.3,0.4,-0.3,0.7c0,0.2,0.1,0.4,0.3,0.6c0.2,0.2,0.4,0.2,0.6,0.2c0.3,0,0.5,0,0.7,-0.2c0.1,-0.2,0.2,-0.4,0.2,-0.6c0,-0.3,-0.1,-0.5,-0.2,-0.7c-0.2,-0.1,-0.4,-0.2,-0.7,-0.2c-0.2,0,-0.4,0.1,-0.6,0.2Z" class="g14_7" />
<text
x="148"
y="599"
dx="0,0"
class="s3_7"
>C:</text>

<text
x="170"
y="599"
dx="0,0,0,0,0,0"
class="s1_7"
>drive.</text>

<text
x="70"
y="727"
dx="0,-0.5,0,0,-0.4,0,-0.3,-0.2,0,0,0,0"
class="s2_7"
>Web browser </text>

<text
x="168"
y="727"
dx="0,0,-0.4,0,0,-0.3,0,0,0,0,-0.4,0,0,-0.3,0,0,0,0,0,-0.4,0,0,0,0,0.3,0,0,0,-0.4,0,0,0,0,0,-0.3,0,-1.4,0,-0.4,0,0,0,0,0,0,-0.4,0,0,0,0,0,0,-0.4,0,0,0,-0.4,0,0,0,0,0,-0.4,0,0,0,0,0,0,0,0,0,0,0,0,-0.4,0,0,0,0,0,-0.4,0,0,0,-0.4,0,0,0"
class="s1_7"
>– Chrome, Firefox, Internet Explorer, Opera, Safari and other applications which let you </text>

<text
x="70"
y="749"
dx="0,0,-0.3,0,0,0,0,-0.9,0,0,0,-0.9,0,0,0,-0.9,0,-0.3,0,-0.9,0,0,0,0,0,0,-0.9,0,0,0,-0.9,0,-0.3,0,0,0,0,0,0,0,-0.9,-1.7,0,-0.9,0,0,0,0,-0.9,0,-0.9,0,0,0,-0.9,0,0,0,0,-0.9,0,0,0,-0.9,0,0,0,0,-0.9,0,-0.9,0,0,0,-0.9,0,-0.3,0,0,0,0,-1.4"
class="s1_7"
>browse the web are called web browsers. To view a web page you need a web browser.</text>

<text
x="70"
y="652"
dx="0,-1.2,-0.1,0,0"
class="s2_7"
>Tags </text>

<text
x="111"
y="652"
dx="0,0,3.2,0,-0.3,0,3.2,0,0,0,0,0,0,0,3.2,0,0,0,0,0,0,0,3.2,0,0,0,0,3.2,0,0,3.2,0,0,0,0,3.2,0,0,0,0,0,3.2,0,0,0,0,3.2,0,0,0,3.2,0,0,0,0,0,3.2,0,0,0,0,0,0,0,0,3.2,0,0,0,3.2,0,0,0,0,3.2,0,0,0,0,3.2,0,0,0,0,0"
class="s1_7"
>– are special markers used in HTML code. They use angle brackets and look like these </text>

<text
x="70"
y="674"
dx="0,0,0,0,0,0,0,0,0,0"
class="s1_7"
>examples: </text>

<path d="M151.3,671.6l-4.5,-2.7l4.5,-2.7l0,-1.1l-5.6,3.3l0,0.9l5.6,3.4l0,-1.1Z" class="g14_7" />
<path d="M156,666.5l-1.2,0l0,10.9l1.2,0l0,-4.2c0.2,0.4,0.5,0.7,0.9,0.9c0.5,0.3,0.9,0.4,1.4,0.4c0.9,0,1.6,-0.4,2.2,-1.2c0.5,-0.8,0.8,-1.8,0.8,-3c0,-1.2,-0.3,-2.1,-0.8,-2.9c-0.5,-0.7,-1.2,-1.1,-2.1,-1.1c-0.5,0,-1,0.1,-1.4,0.3c-0.4,0.3,-0.8,0.6,-1,0.9l0,-1Zm2,0.8c0.7,0,1.2,0.3,1.5,0.9c0.4,0.5,0.5,1.3,0.5,2.2c0,0.8,-0.1,1.6,-0.5,2.2c-0.4,0.5,-0.9,0.8,-1.5,0.8c-0.4,0,-0.8,-0.1,-1.2,-0.4c-0.3,-0.3,-0.6,-0.7,-0.8,-1.1l0,-3.2c0.5,-0.9,1.2,-1.4,2,-1.4Z" class="g14_7" />
<path d="M169.9,668.4l-5.6,-3.3l0,1.1l4.5,2.7l-4.5,2.7l0,1.1l5.6,-3.4l0,-0.9Z" class="g14_7" />
<text
x="144"
y="674"
dx="0,0,0"
class="s3_7"
>&lt;p&gt;</text>

<path d="M182.2,671.6l-4.5,-2.7l4.5,-2.7l0,-1.1l-5.6,3.3l0,0.9l5.6,3.4l0,-1.1Z" class="g14_7" />
<path d="M190.2,663.6l-4.5,10.9l1.1,0l4.6,-10.9l-1.2,0Z" class="g14_7" />
<path d="M196,666.5l-1.1,0l0,10.9l1.1,0l0,-4.2c0.3,0.4,0.6,0.7,1,0.9c0.4,0.3,0.9,0.4,1.4,0.4c0.9,0,1.6,-0.4,2.1,-1.2c0.6,-0.8,0.8,-1.8,0.8,-3c0,-1.2,-0.2,-2.1,-0.7,-2.9c-0.5,-0.7,-1.2,-1.1,-2.1,-1.1c-0.5,0,-1,0.1,-1.4,0.3c-0.5,0.3,-0.8,0.6,-1.1,0.9l0,-1Zm2.1,0.8c0.6,0,1.1,0.3,1.5,0.9c0.3,0.5,0.5,1.3,0.5,2.2c0,0.8,-0.2,1.6,-0.5,2.2c-0.4,0.5,-0.9,0.8,-1.5,0.8c-0.4,0,-0.8,-0.1,-1.2,-0.4c-0.4,-0.3,-0.7,-0.7,-0.9,-1.1l0,-3.2c0.6,-0.9,1.3,-1.4,2.1,-1.4Z" class="g14_7" />
<path d="M210,668.4l-5.6,-3.3l0,1.1l4.5,2.7l-4.5,2.7l0,1.1l5.6,-3.4l0,-0.9Z" class="g14_7" />
<text
x="174"
y="674"
dx="0,0,0,0"
class="s3_7"
>&lt;/p&gt;</text>

<path d="M222.3,671.6l-4.5,-2.7l4.5,-2.7l0,-1.1l-5.6,3.3l0,0.9l5.6,3.4l0,-1.1Z" class="g14_7" />
<path d="M231.8,669c0,-1.8,-0.8,-2.7,-2.2,-2.7c-1,0,-1.8,0.5,-2.7,1.3l0,-3.8l-1.1,0l0,10.5l1.1,0l0,-5.6c0.8,-0.9,1.6,-1.4,2.3,-1.4c0.5,0,0.8,0.2,1.1,0.5c0.2,0.3,0.3,0.8,0.3,1.5l0,5l1.2,0l0,-5.3Z" class="g14_7" />
<path d="M240.9,673.2l-2.1,0l0,-9.5l-1,0l-2.3,1.2l0,1.2l2.1,-1.1l0,8.2l-2.2,0l0,1.1l5.5,0l0,-1.1Z" class="g14_7" />
<path d="M250.1,668.4l-5.6,-3.3l0,1.1l4.5,2.7l-4.5,2.7l0,1.1l5.6,-3.4l0,-0.9Z" class="g14_7" />
<text
x="214"
y="674"
dx="0,0,0,0"
class="s3_7"
>&lt;h1&gt;</text>

<path d="M262.3,671.6l-4.4,-2.7l4.4,-2.7l0,-1.1l-5.5,3.3l0,0.9l5.5,3.4l0,-1.1Z" class="g14_7" />
<path d="M270.4,663.6l-4.6,10.9l1.1,0l4.6,-10.9l-1.1,0Z" class="g14_7" />
<path d="M281,669c0,-1.8,-0.7,-2.7,-2.2,-2.7c-0.9,0,-1.8,0.5,-2.6,1.3l0,-3.8l-1.2,0l0,10.5l1.2,0l0,-5.6c0.8,-0.9,1.5,-1.4,2.3,-1.4c0.4,0,0.8,0.2,1,0.5c0.2,0.3,0.3,0.8,0.3,1.5l0,5l1.2,0l0,-5.3Z" class="g14_7" />
<path d="M290.2,673.2l-2.1,0l0,-9.5l-1.1,0l-2.3,1.2l0,1.2l2.2,-1.1l0,8.2l-2.3,0l0,1.1l5.6,0l0,-1.1Z" class="g14_7" />
<path d="M299.3,668.4l-5.6,-3.3l0,1.1l4.5,2.7l-4.5,2.7l0,1.1l5.6,-3.4l0,-0.9Z" class="g14_7" />
<text
x="255"
y="674"
dx="0,0,0,0,0"
class="s3_7"
>&lt;/h1&gt;</text>

<path d="M311.6,671.6l-4.5,-2.7l4.5,-2.7l0,-1.1l-5.6,3.3l0,0.9l5.6,3.4l0,-1.1Z" class="g14_7" />
<path d="M316.2,663.8l-1.1,0l0,10.5l1.1,0l0,-1.1c0.3,0.4,0.6,0.7,1,0.9c0.4,0.3,0.9,0.4,1.4,0.4c0.9,0,1.6,-0.4,2.1,-1.2c0.6,-0.8,0.8,-1.8,0.8,-3c0,-1.2,-0.2,-2.2,-0.7,-2.9c-0.5,-0.7,-1.2,-1.1,-2.1,-1.1c-0.5,0,-1,0.1,-1.4,0.3c-0.5,0.3,-0.8,0.6,-1.1,0.9l0,-3.7Zm2.1,3.5c0.7,0,1.1,0.3,1.5,0.9c0.4,0.5,0.5,1.2,0.5,2.1c0,0.9,-0.2,1.6,-0.5,2.2c-0.4,0.6,-0.9,0.9,-1.5,0.9c-0.4,0,-0.8,-0.1,-1.2,-0.4c-0.4,-0.3,-0.6,-0.7,-0.9,-1.1l0,-3.2c0.6,-0.9,1.3,-1.4,2.1,-1.4Z" class="g14_7" />
<path d="M328.6,666.3c-1,0,-1.8,0.6,-2.4,1.8l0,-1.6l-1.1,0l0,7.8l1.1,0l0,-5c0,-0.1,0.2,-0.3,0.4,-0.7c0.3,-0.3,0.6,-0.6,0.9,-0.8c0.4,-0.2,0.7,-0.3,1,-0.3c0.4,0,0.9,0.1,1.4,0.3l0.4,-1.1c-0.5,-0.2,-1.1,-0.4,-1.7,-0.4Z" class="g14_7" />
<path d="M338,663.6l-4.6,10.9l1.1,0l4.6,-10.9l-1.1,0Z" class="g14_7" />
<path d="M348.5,668.4L343,665.1l0,1.1l4.4,2.7l-4.4,2.7l0,1.1l5.5,-3.4l0,-0.9Z" class="g14_7" />
<text
x="304"
y="674"
dx="0,0,0,0,0"
class="s3_7"
>&lt;br/&gt;</text>

<text
x="350"
y="674"
dx="0,0,-0.9,-1.4,0,0,0,0,0,-0.9,0,0,-0.9,0,0,0,0,0,0,-0.9,0,-0.9,0,0,0,-0.9,0,0,-0.3,0,-0.9,0,0,-0.9,0,0,0,0,-0.9,0,0,-0.3,0,0,0,0,0,0,0,-0.9,0,0,0,0,-0.9,0,0,0,0"
class="s1_7"
>. You’ll be seeing a lot more of them throughout this book!</text>

<text
x="148"
y="824"
dx="0,-2.1,-2.1,-2.9,-1.8,0,0,-2.6,-2.1"
class="s4_7"
>NINJA TIP</text>

<text
x="525"
y="824"
dx="0,-1.7,-1.7,-1.9,0,0,-1.7,-1.6,-3.2,-2.1,-1.7"
class="s4_7"
>more online</text>

<text
x="51"
y="86"
dx="0,-1.7,-1.7,-2.1,-2.2,0,0,-2.2,0,0,-1.9,-2.6,-1.7,-2.6,-1.9,-1.8,-2.6"
class="s4_7"
>WORDS TO REMEMBER</text>

<text
x="879"
y="150"
dx="0,-2,-2,-2.2,-2.1,-1.8,0,0,0,0,-2.4,-1.7,-2.2,-2.2,0,0,-2.2,0,0,-2.2,-1.7,0,0,-2.5,-1.8,-2.1,0"
class="s4_7"
>adding a photo to the page </text>

<text
x="879"
y="182"
dx="0,0,0,0,-0.4,0,0,0,0,0,-0.4,0,0,-0.4,0,0,0,0,-0.4,0,0,0,0,0,-0.4,0,0,0,0.3,0,0,0,0,-0.4,0,0,0,0,0,-0.4,0,0,0,-0.4,0,0,0,0,0,-0.4,0,0,0,-0.4,0,0,0,0,0,0,-0.3,0,-0.4,0,0,-0.4,0,0,-0.4,0,0,-0.3,0,-0.4,0,0,0,0,-0.3,0,0,0,0,0,0,-0.4,0,0,-0.4,0,0,-0.4,0,0,0,0,0,0,-0.4,0,-0.4,0,0,0,0,0"
class="s1_7"
>The About Us page tells everyone about the band. But wouldn’t it be more interesting if it showed a photo </text>

<text
x="879"
y="203"
dx="0,0,0,0.3,0,0,0,0,0,0.3,-1.7,0,0.3,0,0,0,0,0.3,0,0.3,0,0,0,0,0,0.3,0,0,0,0,0,0,0.3,0,0,0,0.3,0,0,0.3,0,0,0,0,0.3,0,0,0,0.3,0,0,0,0.3,0,-0.3,0,0,0,0,0,0.3,0,0,0,-0.3,0,0.3,0,0,0.3,0,0,0,0,0.3,0,0,0,0.3,0,0,0,0.3,0,0,0.3,0,0,0,0,0,0,0,0,0,0,0.3,0,0,0,-0.3,0,0.3,0,0"
class="s1_7"
>as well? To show a photo you’ve got to tell the web browser where to find it. And to understand where to </text>

<text
x="879"
y="225"
dx="0,0,0,0,0,0,-0.8,0,0,0,-0.8,0,0,0,-0.8,0,-0.3,0,0,0,0,0,-0.8,0,0,0,0,0,-0.8,0,0,-0.8,0,0,0,0"
class="s1_7"
>look, the web browser needs to know </text>

<text
x="1131"
y="225"
dx="0,0"
class="s5_7"
>1.</text>

<text
x="1155"
y="225"
dx="0,0,0,0,-0.8,0,0,0,0,-0.8,0,0,-0.8,0,0,0,-0.8,0,0,0,0,0,0,-0.8,0,0,-0.8,0,0,0,0,0,-0.8,0,0,0,-0.8,0,0,0,0,0,-0.8,0,0,-0.8,0,0,0,-0.3,0,0,-0.8,0,0,0"
class="s1_7"
>the name of the folder in which the photo is stored and </text>

<text
x="1521"
y="225"
dx="0,0"
class="s5_7"
>2.</text>

<text
x="1546"
y="225"
dx="0,0,0,0,-0.8,0,0,0,0"
class="s1_7"
>the file </text>

<text
x="879"
y="246"
dx="0,0,0,0,0,-0.9,0,0,-0.9,0,0,0,-0.9,0,0,0,0,0,-0.3,0,0,-0.9,0,0,0,0,0,-0.9,0,0,0,-0.9,0,0,0,-0.9,0,0,0,0,-0.9,0,-0.9,0,0,0,0,0,-0.3,0,-0.9,0,0,0,0,0,0,-0.9"
class="s1_7"
>name of the picture. Let's say you have a picture called '</text>

<path d="M1262.6,241.2c0,-1.8,-0.7,-2.7,-2.2,-2.7c-0.9,0,-1.8,0.5,-2.6,1.4l0,-1.2l-1.2,0l0,7.8l1.2,0l0,-5.6c0.8,-0.9,1.6,-1.4,2.3,-1.4c0.5,0,0.8,0.2,1,0.5c0.3,0.3,0.4,0.8,0.4,1.5l0,5l1.1,0l0,-5.3Z" class="g14_7" />
<path d="M1271.8,244.7l0,-3.3c0,-1.9,-0.9,-2.9,-2.7,-2.9c-0.9,0,-1.9,0.3,-2.9,0.9l0.3,0.8c0.3,-0.2,0.7,-0.3,1.1,-0.5c0.5,-0.1,0.9,-0.2,1.2,-0.2c1.2,0,1.8,0.7,1.8,2l0,0.4l-1.3,0.1c-0.6,0.1,-1.1,0.2,-1.5,0.3c-0.4,0.1,-0.8,0.2,-1.1,0.4c-0.3,0.2,-0.5,0.5,-0.7,0.8c-0.1,0.3,-0.2,0.6,-0.2,1c0,0.6,0.2,1.2,0.7,1.6c0.4,0.4,0.9,0.6,1.5,0.6c1.1,0,2,-0.5,2.7,-1.5c0,0.6,0,1,0.1,1.3l1.2,0c-0.1,-0.5,-0.2,-1.1,-0.2,-1.8Zm-2.2,0.5c-0.5,0.3,-0.9,0.4,-1.3,0.4c-0.4,0,-0.7,-0.1,-0.9,-0.3c-0.3,-0.3,-0.4,-0.5,-0.4,-0.9c0,-0.4,0.2,-0.7,0.5,-0.9c0.2,-0.2,0.6,-0.4,1,-0.4c0.4,-0.1,1.1,-0.2,2.1,-0.3l0,1.4c-0.3,0.4,-0.6,0.8,-1,1Z" class="g14_7" />
<path d="M1281,241.2c0,-1.8,-0.8,-2.7,-2.2,-2.7c-0.9,0,-1.8,0.5,-2.7,1.4l0,-1.2l-1.1,0l0,7.8l1.1,0l0,-5.6c0.9,-0.9,1.6,-1.4,2.3,-1.4c0.5,0,0.8,0.2,1.1,0.5c0.2,0.3,0.3,0.8,0.3,1.5l0,5l1.2,0l0,-5.3Z" class="g14_7" />
<path d="M1284.6,239.7c-0.7,0.7,-1,1.7,-1,2.9c0,1.2,0.3,2.2,1,3c0.6,0.7,1.4,1.1,2.5,1.1c1.1,0,1.9,-0.4,2.6,-1.1c0.6,-0.8,0.9,-1.8,0.9,-3c0,-1.2,-0.3,-2.2,-0.9,-2.9c-0.7,-0.8,-1.5,-1.2,-2.6,-1.2c-1.1,0,-1.9,0.4,-2.5,1.2Zm0.8,5.1c-0.4,-0.6,-0.6,-1.3,-0.6,-2.2c0,-0.9,0.2,-1.6,0.6,-2.2c0.4,-0.6,1,-0.9,1.7,-0.9c0.7,0,1.3,0.3,1.7,0.9c0.4,0.6,0.6,1.3,0.6,2.2c0,0.9,-0.2,1.6,-0.6,2.2c-0.4,0.6,-1,0.9,-1.7,0.9c-0.7,0,-1.3,-0.3,-1.7,-0.9Z" class="g14_7" />
<path d="M1299.3,241.2c0,-1.8,-0.7,-2.7,-2.2,-2.7c-0.9,0,-1.8,0.5,-2.6,1.4l0,-1.2l-1.2,0l0,7.8l1.2,0l0,-5.6c0.8,-0.9,1.5,-1.4,2.3,-1.4c0.4,0,0.8,0.2,1,0.5c0.2,0.3,0.3,0.8,0.3,1.5l0,5l1.2,0l0,-5.3Z" class="g14_7" />
<path d="M1308.5,244.7l0,-3.3c0,-1.9,-0.9,-2.9,-2.7,-2.9c-0.9,0,-1.9,0.3,-2.9,0.9l0.3,0.8c0.3,-0.2,0.7,-0.3,1.1,-0.5c0.5,-0.1,0.8,-0.2,1.1,-0.2c1.3,0,1.9,0.7,1.9,2l0,0.4L1306,242c-0.6,0.1,-1.1,0.2,-1.5,0.3c-0.5,0.1,-0.8,0.2,-1.1,0.4c-0.3,0.2,-0.5,0.5,-0.7,0.8c-0.1,0.3,-0.2,0.6,-0.2,1c0,0.6,0.2,1.2,0.6,1.6c0.5,0.4,1,0.6,1.6,0.6c1.1,0,2,-0.5,2.7,-1.5c0,0.6,0,1,0.1,1.3l1.2,0c-0.2,-0.5,-0.2,-1.1,-0.2,-1.8Zm-2.3,0.5c-0.4,0.3,-0.8,0.4,-1.2,0.4c-0.4,0,-0.7,-0.1,-0.9,-0.3c-0.3,-0.3,-0.4,-0.5,-0.4,-0.9c0,-0.4,0.1,-0.7,0.4,-0.9c0.3,-0.2,0.7,-0.4,1,-0.4c0.4,-0.1,1.2,-0.2,2.2,-0.3l0,1.4c-0.3,0.4,-0.7,0.8,-1.1,1Z" class="g14_7" />
<path d="M1317.6,238.7l-1.1,0l0,5.6c-0.9,0.9,-1.6,1.4,-2.3,1.4c-0.5,0,-0.9,-0.2,-1.1,-0.5c-0.2,-0.3,-0.3,-0.8,-0.3,-1.5l0,-5l-1.2,0l0,5.3c0,1.8,0.8,2.7,2.2,2.7c0.9,0,1.8,-0.5,2.7,-1.3l0,1.1l1.1,0l0,-7.8Z" class="g14_7" />
<path d="M1326.7,245.2c-0.6,0.3,-1.3,0.5,-1.9,0.5c-0.4,0,-0.7,-0.2,-0.9,-0.4c-0.2,-0.3,-0.3,-0.6,-0.3,-1.1l0,-4.5l2.7,0l0,-1l-2.7,0l0,-2.1l-1.1,0l0,2.1l-1.5,0l0,1l1.5,0l0,4.8c0,1.5,0.7,2.2,2.1,2.2c0.7,0,1.5,-0.2,2.3,-0.5l-0.2,-1Z" class="g14_7" />
<path d="M1335.4,238.9c-0.7,-0.3,-1.4,-0.4,-2.1,-0.4c-0.9,0,-1.7,0.2,-2.3,0.6c-0.6,0.4,-0.9,1,-0.9,1.6c0,0.3,0.1,0.6,0.2,0.9c0.1,0.2,0.3,0.4,0.6,0.6c0.2,0.2,0.5,0.3,0.8,0.4c0.2,0.1,0.7,0.2,1.3,0.4c0.7,0.3,1.2,0.5,1.4,0.7c0.2,0.2,0.3,0.4,0.3,0.7c0,0.4,-0.2,0.7,-0.6,1c-0.4,0.2,-0.9,0.3,-1.6,0.3c-0.7,0,-1.4,-0.1,-2.1,-0.4l-0.2,1c0.6,0.3,1.4,0.4,2.4,0.4c0.9,0,1.7,-0.2,2.3,-0.6c0.7,-0.5,1,-1.1,1,-1.8c0,-0.4,-0.1,-0.7,-0.3,-1c-0.1,-0.3,-0.4,-0.5,-0.7,-0.7c-0.3,-0.2,-0.7,-0.4,-1.3,-0.5l-1.1,-0.4c-0.5,-0.1,-0.8,-0.3,-1,-0.4c-0.2,-0.2,-0.2,-0.4,-0.2,-0.6c0,-0.4,0.1,-0.7,0.5,-0.9c0.4,-0.2,0.9,-0.3,1.5,-0.3c0.6,0,1.2,0.1,1.9,0.3l0.2,-0.9Z" class="g14_7" />
<path d="M1341.4,245.1c-0.2,0.1,-0.2,0.4,-0.2,0.6c0,0.3,0.1,0.5,0.2,0.7c0.2,0.2,0.4,0.3,0.7,0.3c0.2,0,0.5,-0.1,0.6,-0.3c0.2,-0.2,0.3,-0.4,0.3,-0.7c0,-0.2,-0.1,-0.5,-0.3,-0.6c-0.1,-0.2,-0.4,-0.3,-0.6,-0.3c-0.3,0,-0.5,0.1,-0.7,0.3Z" class="g14_7" />
<path d="M1351.3,236c-0.2,0.2,-0.3,0.4,-0.3,0.6c0,0.2,0.1,0.4,0.3,0.6c0.1,0.1,0.3,0.2,0.5,0.2c0.2,0,0.4,-0.1,0.6,-0.2c0.1,-0.2,0.2,-0.4,0.2,-0.6c0,-0.2,-0.1,-0.4,-0.2,-0.6c-0.2,-0.1,-0.4,-0.2,-0.6,-0.2c-0.2,0,-0.4,0.1,-0.5,0.2Zm1.1,2.7l-3.5,0l0,1l2.3,0l0,7.1c0,0.7,-0.1,1.2,-0.2,1.4c-0.2,0.2,-0.5,0.4,-0.9,0.4c-0.4,0,-0.9,-0.1,-1.5,-0.3l-0.3,1c0.7,0.2,1.3,0.3,1.8,0.3c0.8,0,1.4,-0.2,1.8,-0.6c0.3,-0.4,0.5,-1.1,0.5,-2.1l0,-8.2Z" class="g14_7" />
<path d="M1358.6,238.7l-1.1,0l0,10.9l1.1,0l0,-4.2c0.3,0.4,0.6,0.7,1,0.9c0.5,0.3,0.9,0.4,1.4,0.4c0.9,0,1.6,-0.4,2.2,-1.2c0.5,-0.8,0.8,-1.8,0.8,-3c0,-1.2,-0.3,-2.1,-0.8,-2.9c-0.5,-0.7,-1.2,-1.1,-2.1,-1.1c-0.5,0,-1,0.2,-1.4,0.4c-0.4,0.2,-0.8,0.5,-1.1,0.8l0,-1Zm2.1,0.8c0.7,0,1.2,0.3,1.5,0.9c0.4,0.6,0.5,1.3,0.5,2.2c0,0.9,-0.1,1.6,-0.5,2.2c-0.4,0.6,-0.9,0.9,-1.5,0.9c-0.4,0,-0.8,-0.2,-1.2,-0.5c-0.3,-0.3,-0.6,-0.6,-0.9,-1.1l0,-3.2c0.6,-0.9,1.3,-1.4,2.1,-1.4Z" class="g14_7" />
<path d="M1369.3,243.6c0.7,0,1.3,-0.3,1.8,-0.7c0.5,-0.5,0.8,-1.1,0.8,-1.8c0,-0.6,-0.1,-1,-0.4,-1.4l1.5,0l0,-1.2l-2.3,0.4c-0.4,-0.2,-0.9,-0.3,-1.4,-0.3c-0.8,0,-1.4,0.2,-1.9,0.7c-0.5,0.4,-0.7,1,-0.7,1.8c0,0.4,0.1,0.8,0.3,1.2c0.2,0.4,0.5,0.8,1,1c-1,0.5,-1.4,1,-1.4,1.6c0,0.4,0.3,0.8,1,1.2c-0.8,0.4,-1.2,0.9,-1.2,1.5c0,0.6,0.2,1.1,0.8,1.4c0.5,0.4,1.2,0.6,2.1,0.6c1.1,0,2,-0.3,2.8,-0.8c0.7,-0.5,1.1,-1.2,1.1,-2.1c0,-0.6,-0.1,-1,-0.5,-1.3c-0.3,-0.3,-0.8,-0.5,-1.4,-0.5l-2.6,0.1c-0.3,0,-0.6,0,-0.7,-0.1c-0.2,-0.1,-0.3,-0.3,-0.3,-0.4c0,-0.3,0.4,-0.6,1.1,-0.9c0.2,0,0.3,0,0.5,0Zm-1.1,-1.4c-0.3,-0.3,-0.4,-0.7,-0.4,-1.1c0,-0.5,0.1,-0.9,0.4,-1.2c0.3,-0.3,0.7,-0.4,1.1,-0.4c0.4,0,0.8,0.1,1,0.4c0.3,0.3,0.4,0.7,0.4,1.2c0,0.5,-0.1,0.8,-0.4,1.1c-0.3,0.3,-0.6,0.5,-1,0.5c-0.4,0,-0.8,-0.2,-1.1,-0.5Zm-0.2,6.1c-0.4,-0.2,-0.5,-0.4,-0.5,-0.7c0,-0.2,0,-0.4,0.1,-0.6c0.2,-0.2,0.3,-0.4,0.6,-0.5c0.2,-0.2,0.4,-0.3,0.5,-0.3c0.2,0,0.5,0,0.9,0c0.6,-0.1,1.1,-0.1,1.3,-0.1c0.8,0,1.2,0.3,1.2,0.8c0,0.5,-0.3,0.9,-0.8,1.3c-0.6,0.3,-1.2,0.5,-2,0.5c-0.5,0,-1,-0.1,-1.3,-0.4Z" class="g14_7" />
<text
x="1255"
y="246"
dx="0,0,0,0,0,0,0,0,0,0,0,0,0"
class="s3_7"
>nanonauts.jpg</text>

<text
x="1374"
y="246"
dx="0,0"
class="s1_7"
>'.</text>

<text
x="879"
y="289"
dx="0,-1.4,0,0,-0.6,0,0,0,-0.6,0,0,0,-0.6,0,0,0,-0.6,0,0,0,0,0,-0.3,0,-0.6,0,0,-0.6,0,0,0,-0.6,0,0,0,0,-0.6,0,0,-0.6,0,0,0,0,0,0,-0.6,0,0,0"
class="s1_7"
>You can add the picture to the page by adding the </text>

<text
x="879"
y="310"
dx="0,0,0,0,0,0,0,0,0,0,-0.9,0,0,0,0,-0.9,0,0,-0.9,0,0,0,0"
class="s1_7"
>following line of code:</text>

<text
x="879"
y="353"
dx="0,0,0,0,0,-0.9,0,0,-0.9,0,0,0,-0.9,0,0,0,-0.9,0,0,0,0,0,0,0,0,-0.9,0,0,0,0,-0.9,0,0,0,0,0"
class="s1_7"
>This is how the modified code looks:</text>

<text
x="877"
y="738"
dx="0,0,0,0,0,0,2.8,0,0,0,0,0,0,2.8,0,0,0,2.8,0,0,0,0,2.8,0,0,0,2.8,-0.3,0,0,0,0,0,0,0,0,2.8,0,0,2.8,0,0,2.8,0,0,0,2.8,0,-0.3,0,0,0,0,-1.4,0,2.8,0,0"
class="s1_7"
>After saving the page and reloading it in the browser, it </text>

<text
x="877"
y="759"
dx="0,0,0,0,0,0,-0.9,0,0,0,0,-0.9,0,0,0,0"
class="s1_7"
>looks like this:</text>

<text
x="1252"
y="289"
dx="0,0,0,0,0,0,0,0,-1.8,0,0,0,0,0,0,0,0,0,0,0,0,0,0,0,0,0,0,0,0,0,0,0,0,0,0"
class="s3_7"
>&lt;p&gt;&lt;img src="images/nanonauts.jpg" </text>

<text
x="1252"
y="310"
dx="0,0,0,0,0,0,0,0,0,0,0,0,0,-1.8,0,0,-1.8,0,0,0,-1.8,0,0,0,0,0,0,0,0,0,0,0,0,0,0,0"
class="s3_7"
>alt="Picture of the Nanonauts"/&gt;&lt;/p&gt;</text>

<text
x="879"
y="385"
dx="0,0,0,0,0,0,0,0,0,0,-1.8,0,0,0,0"
class="s3_7"
>&lt;!DOCTYPE html&gt;</text>

<text
x="879"
y="406"
dx="0,0,0,0,0,0"
class="s3_7"
>&lt;html&gt;</text>

<text
x="879"
y="428"
dx="0,0,0,0,0,0"
class="s3_7"
>&lt;head&gt;</text>

<text
x="879"
y="449"
dx="0,0,0,0,0,0,0,0,0,0,0,0,0,-1.8,0,0,0,0,0,0,0,0,0"
class="s3_7"
>&lt;title&gt;About Us&lt;/title&gt;</text>

<text
x="879"
y="471"
dx="0,0,0,0,0,0,-1.8,0,0,0,0,0,0,0,0,0,0,0,0,0,0,0,-1.8,0,0,0,0,0,0,0,0,0,0,0,0,0,0,0,0"
class="s3_7"
>&lt;link type="text/css" rel="stylesheet" </text>

<text
x="879"
y="492"
dx="0,0,0,0,0,0,0,0,0,0,0,0,0,0,0,0,0,0,0,0,0,0,0,0,0,0,0,0,0,0,0,0,0,0,0,0"
class="s3_7"
>href="css/my-first-stylesheet.css"/&gt;</text>

<text
x="879"
y="513"
dx="0,0,0,0,0,0,0"
class="s3_7"
>&lt;/head&gt;</text>

<text
x="879"
y="535"
dx="0,0,0,0,0,0"
class="s3_7"
>&lt;body&gt;</text>

<text
x="879"
y="556"
dx="0,0,0,0,0,0,0,0,0,0,-1.8,0,0,0,0,0,0"
class="s3_7"
>&lt;h1&gt;About Us&lt;/h1&gt;</text>

<path d="M886.4,575.3l-4.5,-2.6l4.5,-2.8l0,-1l-5.6,3.3l0,0.9l5.6,3.3l0,-1.1Z" class="g14_7" />
<path d="M891,570.3l-1.1,0l0,10.8l1.1,0l0,-4.2c0.3,0.4,0.6,0.7,1,1c0.5,0.2,0.9,0.3,1.4,0.3c0.9,0,1.6,-0.4,2.2,-1.2c0.5,-0.8,0.8,-1.7,0.8,-2.9c0,-1.2,-0.3,-2.2,-0.8,-2.9c-0.5,-0.8,-1.2,-1.1,-2.1,-1.1c-0.5,0,-1,0.1,-1.4,0.3c-0.4,0.2,-0.8,0.5,-1.1,0.9l0,-1Zm2.1,0.8c0.7,0,1.2,0.3,1.5,0.8c0.4,0.6,0.5,1.3,0.5,2.2c0,0.9,-0.1,1.6,-0.5,2.2c-0.4,0.6,-0.9,0.9,-1.5,0.9c-0.4,0,-0.8,-0.2,-1.2,-0.5c-0.3,-0.2,-0.6,-0.6,-0.9,-1.1l0,-3.2c0.6,-0.9,1.3,-1.3,2.1,-1.3Z" class="g14_7" />
<path d="M905,572.2l-5.6,-3.3l0,1l4.5,2.8l-4.5,2.6l0,1.1l5.6,-3.3l0,-0.9Z" class="g14_7" />
<path d="M913.9,575.3l-4.5,-2.6l4.5,-2.8l0,-1l-5.6,3.3l0,0.9l5.6,3.3l0,-1.1Z" class="g14_7" />
<path d="M920.3,567.6c-0.1,0.1,-0.2,0.3,-0.2,0.5c0,0.2,0.1,0.4,0.2,0.6c0.2,0.1,0.4,0.2,0.6,0.2c0.2,0,0.4,-0.1,0.5,-0.2c0.2,-0.2,0.3,-0.4,0.3,-0.6c0,-0.2,-0.1,-0.4,-0.3,-0.5c-0.1,-0.2,-0.3,-0.3,-0.5,-0.3c-0.2,0,-0.4,0.1,-0.6,0.3Zm1.1,2.7l-3.4,0l0,1l2.3,0l0,6.7l1.1,0l0,-7.7Z" class="g14_7" />
<path d="M933.2,572.6c0,-1.7,-0.5,-2.5,-1.5,-2.5c-0.2,0,-0.5,0.1,-0.9,0.3c-0.3,0.3,-0.5,0.6,-0.7,1c-0.1,-0.4,-0.3,-0.7,-0.5,-1c-0.3,-0.2,-0.6,-0.3,-0.9,-0.3c-0.3,0,-0.6,0.1,-0.9,0.3c-0.3,0.3,-0.6,0.6,-0.8,1l0,-1.1l-1.1,0l0,7.7l1.2,0l0,-5.6c0,0,0.1,-0.3,0.4,-0.7c0.3,-0.4,0.5,-0.6,0.8,-0.6c0.4,0,0.7,0.6,0.7,1.8l0,5.1l1.1,0l0,-5.6c0,0,0.2,-0.3,0.4,-0.7c0.3,-0.4,0.6,-0.6,0.8,-0.6c0.5,0,0.7,0.6,0.7,1.8l0,5.1l1.2,0l0,-5.4Z" class="g14_7" />
<path d="M938.3,575.1c0.8,0,1.4,-0.2,1.9,-0.7c0.5,-0.5,0.7,-1.1,0.7,-1.8c0,-0.5,-0.1,-1,-0.3,-1.4l1.5,0l0,-1.1l-2.3,0.3c-0.4,-0.2,-0.9,-0.3,-1.5,-0.3c-0.7,0,-1.3,0.2,-1.8,0.7c-0.5,0.5,-0.8,1.1,-0.8,1.8c0,0.4,0.1,0.9,0.4,1.3c0.2,0.4,0.5,0.7,0.9,1c-0.9,0.4,-1.3,0.9,-1.3,1.5c0,0.5,0.3,0.9,1,1.2c-0.8,0.4,-1.3,0.9,-1.3,1.6c0,0.5,0.3,1,0.9,1.4c0.5,0.3,1.2,0.5,2.1,0.5c1,0,1.9,-0.3,2.7,-0.8c0.8,-0.5,1.2,-1.2,1.2,-2.1c0,-0.5,-0.2,-1,-0.5,-1.3c-0.4,-0.3,-0.8,-0.4,-1.5,-0.4l-2.6,0c-0.3,0,-0.5,0,-0.7,-0.1c-0.1,-0.1,-0.2,-0.2,-0.2,-0.4c0,-0.2,0.3,-0.6,1.1,-0.9c0.1,0,0.3,0,0.4,0Zm-1,-1.3c-0.3,-0.3,-0.4,-0.7,-0.4,-1.2c0,-0.5,0.1,-0.9,0.4,-1.2c0.3,-0.3,0.6,-0.4,1,-0.4c0.5,0,0.8,0.1,1.1,0.4c0.3,0.3,0.4,0.7,0.4,1.2c0,0.5,-0.2,0.9,-0.4,1.2c-0.3,0.3,-0.6,0.4,-1.1,0.4c-0.4,0,-0.7,-0.1,-1,-0.4Zm-0.3,6.1c-0.3,-0.2,-0.5,-0.5,-0.5,-0.8c0,-0.2,0.1,-0.4,0.2,-0.6c0.1,-0.1,0.3,-0.3,0.5,-0.5c0.3,-0.2,0.4,-0.3,0.6,-0.3c0.2,0,0.5,0,0.9,0c0.6,0,1,-0.1,1.3,-0.1c0.8,0,1.1,0.3,1.1,0.8c0,0.5,-0.2,0.9,-0.8,1.3c-0.5,0.3,-1.2,0.5,-1.9,0.5c-0.6,0,-1,-0.1,-1.4,-0.3Z" class="g14_7" />
<path d="M957.7,570.4c-0.8,-0.2,-1.5,-0.3,-2.1,-0.3c-1,0,-1.8,0.2,-2.4,0.6c-0.6,0.4,-0.8,0.9,-0.8,1.6c0,0.3,0,0.5,0.1,0.8c0.2,0.2,0.4,0.5,0.6,0.6c0.2,0.2,0.5,0.3,0.8,0.4c0.3,0.1,0.7,0.3,1.3,0.5c0.8,0.2,1.2,0.4,1.4,0.6c0.2,0.2,0.3,0.5,0.3,0.7c0,0.4,-0.2,0.8,-0.6,1c-0.4,0.2,-0.9,0.4,-1.5,0.4c-0.8,0,-1.5,-0.2,-2.1,-0.5l-0.3,1c0.7,0.3,1.4,0.4,2.4,0.4c1,0,1.8,-0.2,2.4,-0.6c0.6,-0.4,0.9,-1,0.9,-1.8c0,-0.3,-0.1,-0.7,-0.2,-1c-0.2,-0.3,-0.4,-0.5,-0.8,-0.7c-0.3,-0.2,-0.7,-0.4,-1.2,-0.5l-1.1,-0.3c-0.5,-0.2,-0.9,-0.3,-1,-0.5c-0.2,-0.2,-0.3,-0.4,-0.3,-0.6c0,-0.3,0.2,-0.6,0.6,-0.8c0.3,-0.2,0.8,-0.4,1.5,-0.4c0.5,0,1.1,0.2,1.8,0.4l0.3,-1Z" class="g14_7" />
<path d="M965.8,570.1c-1,0,-1.8,0.6,-2.4,1.7l0,-1.5l-1.2,0l0,7.7l1.2,0l0,-5c0,0,0.1,-0.2,0.4,-0.6c0.3,-0.4,0.6,-0.7,0.9,-0.9c0.3,-0.2,0.7,-0.3,1,-0.3c0.4,0,0.8,0.2,1.3,0.4l0.5,-1.1c-0.6,-0.3,-1.1,-0.4,-1.7,-0.4Z" class="g14_7" />
<path d="M976.3,576.8c-0.7,0.3,-1.4,0.4,-2,0.4c-0.8,0,-1.5,-0.3,-2,-0.9c-0.6,-0.6,-0.8,-1.3,-0.8,-2.2c0,-0.9,0.2,-1.6,0.7,-2.2c0.5,-0.5,1.2,-0.8,2.1,-0.8c0.5,0,1.2,0.1,1.9,0.3l0.3,-0.9c-0.7,-0.3,-1.5,-0.4,-2.2,-0.4c-1.2,0,-2.2,0.3,-2.9,1.1c-0.8,0.7,-1.1,1.7,-1.1,2.9c0,1.3,0.3,2.3,1.1,3c0.7,0.8,1.7,1.1,2.9,1.1c0.8,0,1.5,-0.1,2.2,-0.4l-0.2,-1Z" class="g14_7" />
<path d="M986.5,570.5l-7,0l0,1l7,0l0,-1Zm0,3l-7,0l0,1l7,0l0,-1Z" class="g14_7" />
<path d="M993.8,567.5l-1.1,0l0,1.8l0.2,2.1l0.6,0l0.3,-2.1l0,-1.8Zm-2.7,0l-1.2,0l0,1.8l0.3,2.1l0.6,0l0.3,-2.1l0,-1.8Z" class="g14_7" />
<path d="M1001,567.6c-0.2,0.1,-0.2,0.3,-0.2,0.5c0,0.2,0,0.4,0.2,0.6c0.2,0.1,0.3,0.2,0.5,0.2c0.3,0,0.5,-0.1,0.6,-0.2c0.2,-0.2,0.2,-0.4,0.2,-0.6c0,-0.2,0,-0.4,-0.2,-0.5c-0.1,-0.2,-0.3,-0.3,-0.6,-0.3c-0.2,0,-0.3,0.1,-0.5,0.3Zm1.1,2.7l-3.4,0l0,1l2.2,0l0,6.7l1.2,0l0,-7.7Z" class="g14_7" />
<path d="M1013.8,572.6c0,-1.7,-0.4,-2.5,-1.4,-2.5c-0.3,0,-0.6,0.1,-0.9,0.3c-0.3,0.3,-0.5,0.6,-0.8,1c0,-0.4,-0.2,-0.7,-0.5,-1c-0.2,-0.2,-0.5,-0.3,-0.8,-0.3c-0.3,0,-0.6,0.1,-0.9,0.3c-0.3,0.3,-0.6,0.6,-0.8,1l0,-1.1l-1.1,0l0,7.7l1.2,0l0,-5.6c0,0,0.1,-0.3,0.4,-0.7c0.3,-0.4,0.5,-0.6,0.7,-0.6c0.5,0,0.7,0.6,0.7,1.8l0,5.1l1.2,0l0,-5.6c0,0,0.1,-0.3,0.4,-0.7c0.3,-0.4,0.5,-0.6,0.8,-0.6c0.4,0,0.7,0.6,0.7,1.8l0,5.1l1.1,0l0,-5.4Z" class="g14_7" />
<path d="M1022.4,576.2l0,-3.3c0,-1.9,-0.9,-2.8,-2.7,-2.8c-0.9,0,-1.9,0.2,-2.9,0.8l0.3,0.8c0.3,-0.2,0.7,-0.3,1.1,-0.4c0.5,-0.2,0.9,-0.2,1.2,-0.2c1.2,0,1.8,0.6,1.8,2l0,0.3l-1.3,0.2c-0.6,0,-1.1,0.1,-1.5,0.2c-0.4,0.1,-0.8,0.3,-1.1,0.5c-0.3,0.2,-0.5,0.4,-0.7,0.7c-0.1,0.3,-0.2,0.6,-0.2,1c0,0.7,0.2,1.2,0.7,1.6c0.4,0.4,0.9,0.6,1.5,0.6c1.1,0,2,-0.5,2.7,-1.4c0,0.5,0,0.9,0.1,1.2l1.2,0c-0.1,-0.5,-0.2,-1.1,-0.2,-1.8Zm-2.2,0.5c-0.5,0.3,-0.9,0.4,-1.3,0.4c-0.4,0,-0.7,-0.1,-0.9,-0.3c-0.3,-0.2,-0.4,-0.5,-0.4,-0.9c0,-0.3,0.2,-0.6,0.5,-0.9c0.2,-0.2,0.6,-0.3,1,-0.4c0.4,-0.1,1.1,-0.2,2.1,-0.3l0,1.4c-0.3,0.5,-0.6,0.8,-1,1Z" class="g14_7" />
<path d="M1028.2,575.1c0.7,0,1.4,-0.2,1.9,-0.7c0.4,-0.5,0.7,-1.1,0.7,-1.8c0,-0.5,-0.1,-1,-0.3,-1.4l1.4,0l0,-1.1l-2.3,0.3c-0.4,-0.2,-0.9,-0.3,-1.4,-0.3c-0.8,0,-1.4,0.2,-1.9,0.7c-0.5,0.5,-0.7,1.1,-0.7,1.8c0,0.4,0.1,0.9,0.3,1.3c0.2,0.4,0.5,0.7,1,1c-0.9,0.4,-1.4,0.9,-1.4,1.5c0,0.5,0.4,0.9,1.1,1.2c-0.9,0.4,-1.3,0.9,-1.3,1.6c0,0.5,0.3,1,0.8,1.4c0.6,0.3,1.3,0.5,2.1,0.5c1.1,0,2,-0.3,2.8,-0.8c0.8,-0.5,1.2,-1.2,1.2,-2.1c0,-0.5,-0.2,-1,-0.6,-1.3c-0.3,-0.3,-0.8,-0.4,-1.4,-0.4l-2.6,0c-0.3,0,-0.5,0,-0.7,-0.1c-0.2,-0.1,-0.3,-0.2,-0.3,-0.4c0,-0.2,0.4,-0.6,1.1,-0.9c0.2,0,0.3,0,0.5,0Zm-1.1,-1.3c-0.2,-0.3,-0.4,-0.7,-0.4,-1.2c0,-0.5,0.2,-0.9,0.4,-1.2c0.3,-0.3,0.7,-0.4,1.1,-0.4c0.4,0,0.8,0.1,1,0.4c0.3,0.3,0.4,0.7,0.4,1.2c0,0.5,-0.1,0.9,-0.4,1.2c-0.2,0.3,-0.6,0.4,-1,0.4c-0.4,0,-0.8,-0.1,-1.1,-0.4Zm-0.2,6.1c-0.3,-0.2,-0.5,-0.5,-0.5,-0.8c0,-0.2,0,-0.4,0.2,-0.6c0.1,-0.1,0.3,-0.3,0.5,-0.5c0.2,-0.2,0.4,-0.3,0.5,-0.3c0.2,0,0.5,0,0.9,0c0.7,0,1.1,-0.1,1.3,-0.1c0.8,0,1.2,0.3,1.2,0.8c0,0.5,-0.3,0.9,-0.8,1.3c-0.6,0.3,-1.2,0.5,-2,0.5c-0.5,0,-1,-0.1,-1.3,-0.3Z" class="g14_7" />
<path d="M1041,573.8c0,-1.1,-0.3,-2,-0.9,-2.7c-0.6,-0.7,-1.4,-1,-2.3,-1c-1,0,-1.8,0.3,-2.4,1.1c-0.7,0.7,-1,1.7,-1,2.9c0,1.3,0.4,2.3,1.1,3c0.7,0.8,1.6,1.1,2.8,1.1c0.9,0,1.7,-0.1,2.4,-0.4l-0.2,-1c-0.8,0.3,-1.5,0.4,-2.2,0.4c-0.8,0,-1.4,-0.3,-1.9,-0.8c-0.5,-0.6,-0.8,-1.3,-0.8,-2.2l5.4,0l0,-0.4Zm-5.3,-0.6c0,-0.6,0.3,-1.1,0.7,-1.5c0.4,-0.4,0.9,-0.6,1.5,-0.6c0.4,0,0.8,0.2,1.2,0.6c0.4,0.4,0.6,0.9,0.6,1.5l-4,0Z" class="g14_7" />
<path d="M1049.3,570.4c-0.7,-0.2,-1.4,-0.3,-2,-0.3c-1,0,-1.8,0.2,-2.4,0.6c-0.6,0.4,-0.9,0.9,-0.9,1.6c0,0.3,0.1,0.5,0.2,0.8c0.2,0.2,0.3,0.5,0.6,0.6c0.2,0.2,0.5,0.3,0.8,0.4c0.3,0.1,0.7,0.3,1.3,0.5c0.7,0.2,1.2,0.4,1.4,0.6c0.2,0.2,0.3,0.5,0.3,0.7c0,0.4,-0.2,0.8,-0.6,1c-0.4,0.2,-0.9,0.4,-1.6,0.4c-0.7,0,-1.4,-0.2,-2.1,-0.5l-0.2,1c0.6,0.3,1.4,0.4,2.4,0.4c0.9,0,1.7,-0.2,2.4,-0.6c0.6,-0.4,0.9,-1,0.9,-1.8c0,-0.3,-0.1,-0.7,-0.3,-1c-0.1,-0.3,-0.4,-0.5,-0.7,-0.7c-0.3,-0.2,-0.7,-0.4,-1.2,-0.5l-1.1,-0.3c-0.6,-0.2,-0.9,-0.3,-1.1,-0.5c-0.1,-0.2,-0.2,-0.4,-0.2,-0.6c0,-0.3,0.2,-0.6,0.5,-0.8c0.4,-0.2,0.9,-0.4,1.5,-0.4c0.6,0,1.2,0.2,1.9,0.4l0.2,-1Z" class="g14_7" />
<path d="M1057.6,567.3l-4.5,10.9l1.1,0l4.5,-10.9l-1.1,0Z" class="g14_7" />
<path d="M1068.2,572.7c0,-1.7,-0.7,-2.6,-2.2,-2.6c-0.9,0,-1.8,0.4,-2.6,1.3l0,-1.1l-1.2,0l0,7.7l1.2,0l0,-5.6c0.8,-0.9,1.6,-1.3,2.3,-1.3c0.5,0,0.8,0.1,1,0.4c0.3,0.4,0.4,0.9,0.4,1.5l0,5l1.1,0l0,-5.3Z" class="g14_7" />
<path d="M1077.4,576.2l0,-3.3c0,-1.9,-0.9,-2.8,-2.7,-2.8c-0.9,0,-1.9,0.2,-2.9,0.8l0.3,0.8c0.3,-0.2,0.7,-0.3,1.2,-0.4c0.4,-0.2,0.8,-0.2,1.1,-0.2c1.2,0,1.8,0.6,1.8,2l0,0.3l-1.3,0.2c-0.6,0,-1.1,0.1,-1.5,0.2c-0.4,0.1,-0.8,0.3,-1.1,0.5c-0.3,0.2,-0.5,0.4,-0.7,0.7c-0.1,0.3,-0.2,0.6,-0.2,1c0,0.7,0.2,1.2,0.7,1.6c0.4,0.4,0.9,0.6,1.5,0.6c1.1,0,2,-0.5,2.7,-1.4c0,0.5,0,0.9,0.1,1.2l1.2,0c-0.1,-0.5,-0.2,-1.1,-0.2,-1.8Zm-2.2,0.5c-0.4,0.3,-0.9,0.4,-1.3,0.4c-0.3,0,-0.7,-0.1,-0.9,-0.3c-0.2,-0.2,-0.4,-0.5,-0.4,-0.9c0,-0.3,0.2,-0.6,0.5,-0.9c0.2,-0.2,0.6,-0.3,1,-0.4c0.4,-0.1,1.1,-0.2,2.1,-0.3l0,1.4c-0.3,0.5,-0.6,0.8,-1,1Z" class="g14_7" />
<path d="M1086.6,572.7c0,-1.7,-0.8,-2.6,-2.2,-2.6c-0.9,0,-1.8,0.4,-2.7,1.3l0,-1.1l-1.1,0l0,7.7l1.1,0l0,-5.6c0.9,-0.9,1.6,-1.3,2.3,-1.3c0.5,0,0.8,0.1,1.1,0.4c0.2,0.4,0.3,0.9,0.3,1.5l0,5l1.2,0l0,-5.3Z" class="g14_7" />
<path d="M1090.2,571.2c-0.7,0.7,-1,1.7,-1,2.9c0,1.3,0.3,2.3,1,3c0.6,0.8,1.4,1.1,2.5,1.1c1.1,0,1.9,-0.3,2.6,-1.1c0.6,-0.7,0.9,-1.7,0.9,-3c0,-1.2,-0.3,-2.2,-0.9,-2.9c-0.7,-0.8,-1.5,-1.1,-2.6,-1.1c-1,0,-1.9,0.3,-2.5,1.1Zm0.9,5.1c-0.5,-0.6,-0.7,-1.3,-0.7,-2.1c0,-1,0.2,-1.7,0.6,-2.3c0.4,-0.5,1,-0.8,1.7,-0.8c0.7,0,1.3,0.3,1.7,0.8c0.4,0.6,0.6,1.4,0.6,2.3c0,0.8,-0.2,1.5,-0.6,2.1c-0.4,0.6,-1,0.9,-1.7,0.9c-0.7,0,-1.2,-0.3,-1.6,-0.9Z" class="g14_7" />
<path d="M1104.9,572.7c0,-1.7,-0.7,-2.6,-2.2,-2.6c-0.9,0,-1.8,0.4,-2.6,1.3l0,-1.1l-1.2,0l0,7.7l1.2,0l0,-5.6c0.8,-0.9,1.6,-1.3,2.3,-1.3c0.4,0,0.8,0.1,1,0.4c0.2,0.4,0.3,0.9,0.3,1.5l0,5l1.2,0l0,-5.3Z" class="g14_7" />
<path d="M1114.1,576.2l0,-3.3c0,-1.9,-0.9,-2.8,-2.7,-2.8c-0.9,0,-1.9,0.2,-2.9,0.8l0.3,0.8c0.3,-0.2,0.7,-0.3,1.1,-0.4c0.5,-0.2,0.8,-0.2,1.1,-0.2c1.3,0,1.9,0.6,1.9,2l0,0.3l-1.3,0.2c-0.6,0,-1.1,0.1,-1.5,0.2c-0.4,0.1,-0.8,0.3,-1.1,0.5c-0.3,0.2,-0.5,0.4,-0.7,0.7c-0.1,0.3,-0.2,0.6,-0.2,1c0,0.7,0.2,1.2,0.6,1.6c0.5,0.4,1,0.6,1.6,0.6c1.1,0,2,-0.5,2.7,-1.4c0,0.5,0,0.9,0.1,1.2l1.2,0c-0.2,-0.5,-0.2,-1.1,-0.2,-1.8Zm-2.3,0.5c-0.4,0.3,-0.8,0.4,-1.2,0.4c-0.4,0,-0.7,-0.1,-0.9,-0.3c-0.3,-0.2,-0.4,-0.5,-0.4,-0.9c0,-0.3,0.1,-0.6,0.4,-0.9c0.3,-0.2,0.7,-0.3,1,-0.4c0.4,-0.1,1.2,-0.2,2.2,-0.3l0,1.4c-0.3,0.5,-0.7,0.8,-1.1,1Z" class="g14_7" />
<path d="M1123.2,570.3l-1.1,0l0,5.6c-0.9,0.9,-1.6,1.3,-2.3,1.3c-0.5,0,-0.9,-0.2,-1.1,-0.5c-0.2,-0.3,-0.3,-0.8,-0.3,-1.5l0,-4.9l-1.2,0l0,5.3c0,1.7,0.8,2.6,2.2,2.6c0.9,0,1.8,-0.4,2.7,-1.3l0,1.1l1.1,0l0,-7.7Z" class="g14_7" />
<path d="M1132.3,576.8c-0.6,0.3,-1.3,0.4,-1.9,0.4c-0.4,0,-0.6,-0.1,-0.9,-0.4c-0.2,-0.3,-0.3,-0.6,-0.3,-1.1l0,-4.4l2.7,0l0,-1l-2.7,0l0,-2.2l-1.1,0l0,2.2l-1.5,0l0,1l1.5,0l0,4.7c0,1.5,0.7,2.2,2.1,2.2c0.7,0,1.5,-0.2,2.3,-0.5l-0.2,-0.9Z" class="g14_7" />
<path d="M1141,570.4c-0.7,-0.2,-1.4,-0.3,-2.1,-0.3c-0.9,0,-1.7,0.2,-2.3,0.6c-0.6,0.4,-0.9,0.9,-0.9,1.6c0,0.3,0.1,0.5,0.2,0.8c0.1,0.2,0.3,0.5,0.6,0.6c0.2,0.2,0.5,0.3,0.8,0.4c0.2,0.1,0.7,0.3,1.3,0.5c0.7,0.2,1.2,0.4,1.4,0.6c0.2,0.2,0.3,0.5,0.3,0.7c0,0.4,-0.2,0.8,-0.6,1c-0.4,0.2,-0.9,0.4,-1.6,0.4c-0.7,0,-1.4,-0.2,-2.1,-0.5l-0.2,1c0.6,0.3,1.4,0.4,2.4,0.4c0.9,0,1.7,-0.2,2.3,-0.6c0.7,-0.4,1,-1,1,-1.8c0,-0.3,-0.1,-0.7,-0.3,-1c-0.1,-0.3,-0.4,-0.5,-0.7,-0.7c-0.3,-0.2,-0.7,-0.4,-1.3,-0.5l-1.1,-0.3c-0.5,-0.2,-0.8,-0.3,-1,-0.5c-0.1,-0.2,-0.2,-0.4,-0.2,-0.6c0,-0.3,0.2,-0.6,0.5,-0.8c0.4,-0.2,0.9,-0.4,1.5,-0.4c0.6,0,1.2,0.2,1.9,0.4l0.2,-1Z" class="g14_7" />
<path d="M1147,576.6c-0.1,0.2,-0.2,0.4,-0.2,0.7c0,0.2,0.1,0.5,0.2,0.6c0.2,0.2,0.4,0.3,0.7,0.3c0.2,0,0.5,-0.1,0.6,-0.3c0.2,-0.1,0.3,-0.4,0.3,-0.6c0,-0.3,-0.1,-0.5,-0.3,-0.7c-0.1,-0.2,-0.4,-0.3,-0.6,-0.3c-0.3,0,-0.5,0.1,-0.7,0.3Z" class="g14_7" />
<path d="M1156.9,567.6c-0.2,0.1,-0.3,0.3,-0.3,0.5c0,0.2,0.1,0.4,0.3,0.6c0.1,0.1,0.3,0.2,0.5,0.2c0.2,0,0.4,-0.1,0.6,-0.2c0.1,-0.2,0.2,-0.4,0.2,-0.6c0,-0.2,-0.1,-0.4,-0.2,-0.5c-0.2,-0.2,-0.4,-0.3,-0.6,-0.3c-0.2,0,-0.4,0.1,-0.5,0.3Zm1.1,2.7l-3.5,0l0,1l2.3,0l0,7c0,0.7,-0.1,1.2,-0.2,1.4c-0.2,0.3,-0.5,0.4,-0.9,0.4c-0.4,0,-0.9,-0.1,-1.5,-0.3l-0.3,1c0.7,0.2,1.3,0.3,1.8,0.3c0.8,0,1.4,-0.2,1.8,-0.6c0.3,-0.4,0.5,-1.1,0.5,-2.1l0,-8.1Z" class="g14_7" />
<path d="M1164.3,570.3l-1.2,0l0,10.8l1.2,0l0,-4.2c0.2,0.4,0.5,0.7,1,1c0.4,0.2,0.8,0.3,1.3,0.3c0.9,0,1.6,-0.4,2.2,-1.2c0.5,-0.8,0.8,-1.7,0.8,-2.9c0,-1.2,-0.3,-2.2,-0.8,-2.9c-0.5,-0.8,-1.2,-1.1,-2.1,-1.1c-0.5,0,-1,0.1,-1.4,0.3c-0.4,0.2,-0.8,0.5,-1,0.9l0,-1Zm2,0.8c0.7,0,1.2,0.3,1.5,0.8c0.4,0.6,0.5,1.3,0.5,2.2c0,0.9,-0.1,1.6,-0.5,2.2c-0.4,0.6,-0.9,0.9,-1.5,0.9c-0.4,0,-0.8,-0.2,-1.2,-0.5c-0.3,-0.2,-0.6,-0.6,-0.8,-1.1l0,-3.2c0.5,-0.9,1.2,-1.3,2,-1.3Z" class="g14_7" />
<path d="M1174.9,575.1c0.7,0,1.3,-0.2,1.8,-0.7c0.5,-0.5,0.8,-1.1,0.8,-1.8c0,-0.5,-0.1,-1,-0.4,-1.4l1.5,0l0,-1.1l-2.3,0.3c-0.4,-0.2,-0.9,-0.3,-1.4,-0.3c-0.8,0,-1.4,0.2,-1.9,0.7c-0.5,0.5,-0.7,1.1,-0.7,1.8c0,0.4,0.1,0.9,0.3,1.3c0.2,0.4,0.5,0.7,1,1c-0.9,0.4,-1.4,0.9,-1.4,1.5c0,0.5,0.3,0.9,1,1.2c-0.8,0.4,-1.2,0.9,-1.2,1.6c0,0.5,0.3,1,0.8,1.4c0.5,0.3,1.3,0.5,2.1,0.5c1.1,0,2,-0.3,2.8,-0.8c0.8,-0.5,1.1,-1.2,1.1,-2.1c0,-0.5,-0.1,-1,-0.5,-1.3c-0.3,-0.3,-0.8,-0.4,-1.4,-0.4l-2.6,0c-0.3,0,-0.6,0,-0.7,-0.1c-0.2,-0.1,-0.3,-0.2,-0.3,-0.4c0,-0.2,0.4,-0.6,1.1,-0.9c0.2,0,0.3,0,0.5,0Zm-1.1,-1.3c-0.3,-0.3,-0.4,-0.7,-0.4,-1.2c0,-0.5,0.1,-0.9,0.4,-1.2c0.3,-0.3,0.7,-0.4,1.1,-0.4c0.4,0,0.8,0.1,1,0.4c0.3,0.3,0.4,0.7,0.4,1.2c0,0.5,-0.1,0.9,-0.4,1.2c-0.3,0.3,-0.6,0.4,-1,0.4c-0.4,0,-0.8,-0.1,-1.1,-0.4Zm-0.2,6.1c-0.4,-0.2,-0.5,-0.5,-0.5,-0.8c0,-0.2,0,-0.4,0.2,-0.6c0.1,-0.1,0.3,-0.3,0.5,-0.5c0.2,-0.2,0.4,-0.3,0.5,-0.3c0.2,0,0.5,0,0.9,0c0.6,0,1.1,-0.1,1.3,-0.1c0.8,0,1.2,0.3,1.2,0.8c0,0.5,-0.3,0.9,-0.8,1.3c-0.6,0.3,-1.2,0.5,-2,0.5c-0.5,0,-1,-0.1,-1.3,-0.3Z" class="g14_7" />
<path d="M1186.3,567.5l-1.1,0l0,1.8l0.3,2.1l0.6,0l0.2,-2.1l0,-1.8Zm-2.7,0l-1.1,0l0,1.8l0.3,2.1l0.6,0l0.2,-2.1l0,-1.8Z" class="g14_7" />
<text
x="879"
y="578"
dx="0,0,0,0,0,0,0,0,-1.8,0,0,0,0,0,0,0,0,0,0,0,0,0,0,0,0,0,0,0,0,0,0,0,0,0"
class="s3_7"
>&lt;p&gt;&lt;img src="images/nanonauts.jpg"</text>

<path d="M886.7,597.6l0,-3.3c0,-1.9,-0.9,-2.8,-2.7,-2.8c-0.9,0,-1.9,0.2,-2.9,0.8l0.3,0.8c0.3,-0.2,0.7,-0.3,1.2,-0.4c0.4,-0.2,0.8,-0.2,1.1,-0.2c1.2,0,1.8,0.6,1.8,2l0,0.3l-1.3,0.1c-0.6,0.1,-1.1,0.2,-1.5,0.3c-0.4,0.1,-0.8,0.3,-1.1,0.5c-0.3,0.2,-0.5,0.4,-0.7,0.7c-0.1,0.3,-0.2,0.6,-0.2,1c0,0.7,0.2,1.2,0.7,1.6c0.4,0.4,0.9,0.6,1.5,0.6c1.1,0,2,-0.5,2.7,-1.4c0,0.5,0,0.9,0.1,1.2l1.2,0c-0.1,-0.5,-0.2,-1.1,-0.2,-1.8Zm-2.2,0.5c-0.4,0.3,-0.9,0.4,-1.3,0.4c-0.3,0,-0.7,-0.1,-0.9,-0.3c-0.2,-0.2,-0.4,-0.5,-0.4,-0.9c0,-0.3,0.2,-0.6,0.5,-0.9c0.2,-0.2,0.6,-0.4,1,-0.4c0.4,-0.1,1.1,-0.2,2.1,-0.3l0,1.4c-0.3,0.4,-0.6,0.8,-1,1Z" class="g14_7" />
<path d="M895.5,598.5l-2,0l0,-10l-3,0l0,1l2,0l0,10l3,0l0,-1Z" class="g14_7" />
<path d="M904.9,598.2c-0.6,0.2,-1.2,0.4,-1.9,0.4c-0.3,0,-0.6,-0.1,-0.8,-0.4c-0.2,-0.3,-0.3,-0.6,-0.3,-1.1l0,-4.4l2.6,0l0,-1.1l-2.6,0l0,-2.1l-1.2,0l0,2.1l-1.5,0l0,1.1l1.5,0l0,4.7c0,1.5,0.7,2.2,2.1,2.2c0.8,0,1.5,-0.2,2.3,-0.5l-0.2,-0.9Z" class="g14_7" />
<path d="M914.5,592.5l-7,0l0,1l7,0l0,-1Zm0,3l-7,0l0,1l7,0l0,-1Z" class="g14_7" />
<path d="M922.3,588.9l-1.2,0l0,1.8l0.3,2.1l0.6,0l0.3,-2.1l0,-1.8Zm-2.7,0l-1.2,0l0,1.8l0.3,2.1l0.6,0l0.3,-2.1l0,-1.8Z" class="g14_7" />
<path d="M926.9,599.4l1.2,0l0,-4.7l1.5,0c1,0,1.8,-0.3,2.4,-0.8c0.6,-0.5,0.9,-1.3,0.9,-2.2c0,-0.8,-0.3,-1.5,-0.9,-2c-0.7,-0.6,-1.5,-0.8,-2.5,-0.8l-2.6,0l0,10.5Zm1.2,-9.4l1.4,0c0.6,0,1.1,0.1,1.5,0.5c0.4,0.3,0.6,0.8,0.6,1.3c0,1.2,-0.8,1.8,-2.2,1.8l-1.3,0l0,-3.6Z" class="g14_7" />
<path d="M938.7,588.9c-0.2,0.2,-0.3,0.4,-0.3,0.6c0,0.2,0.1,0.4,0.3,0.6c0.1,0.1,0.3,0.2,0.5,0.2c0.2,0,0.4,-0.1,0.6,-0.2c0.1,-0.2,0.2,-0.4,0.2,-0.6c0,-0.2,-0.1,-0.4,-0.2,-0.6c-0.2,-0.1,-0.4,-0.2,-0.6,-0.2c-0.2,0,-0.4,0.1,-0.5,0.2Zm1.1,2.7l-3.5,0l0,1.1l2.3,0l0,6.7l1.2,0l0,-7.8Z" class="g14_7" />
<path d="M950.6,598.2c-0.6,0.3,-1.3,0.4,-2,0.4c-0.8,0,-1.5,-0.3,-2,-0.9c-0.5,-0.6,-0.8,-1.3,-0.8,-2.2c0,-0.9,0.3,-1.7,0.8,-2.2c0.5,-0.6,1.1,-0.8,2,-0.8c0.6,0,1.2,0.1,1.9,0.3l0.3,-0.9c-0.7,-0.3,-1.4,-0.4,-2.2,-0.4c-1.2,0,-2.2,0.3,-2.9,1.1c-0.7,0.7,-1.1,1.7,-1.1,2.9c0,1.3,0.4,2.3,1.1,3c0.7,0.7,1.7,1.1,2.9,1.1c0.8,0,1.6,-0.1,2.2,-0.4l-0.2,-1Z" class="g14_7" />
<path d="M959.9,598.2c-0.6,0.2,-1.2,0.4,-1.9,0.4c-0.3,0,-0.6,-0.1,-0.8,-0.4c-0.2,-0.3,-0.3,-0.6,-0.3,-1.1l0,-4.4l2.6,0l0,-1.1l-2.6,0l0,-2.1l-1.2,0l0,2.1l-1.5,0l0,1.1l1.5,0l0,4.7c0,1.5,0.7,2.2,2.1,2.2c0.8,0,1.5,-0.2,2.3,-0.5l-0.2,-0.9Z" class="g14_7" />
<path d="M969.2,591.6l-1.2,0l0,5.7c-0.8,0.8,-1.5,1.3,-2.3,1.3c-0.5,0,-0.8,-0.2,-1,-0.5c-0.2,-0.3,-0.3,-0.8,-0.3,-1.5l0,-5l-1.2,0l0,5.4c0,1.7,0.7,2.6,2.2,2.6c0.9,0,1.8,-0.4,2.6,-1.3l0,1.1l1.2,0l0,-7.8Z" class="g14_7" />
<path d="M976.8,591.5c-1,0,-1.8,0.5,-2.4,1.7l0,-1.6l-1.2,0l0,7.8l1.2,0l0,-5c0,-0.1,0.1,-0.3,0.4,-0.6c0.3,-0.4,0.6,-0.7,0.9,-0.9c0.3,-0.2,0.7,-0.3,1,-0.3c0.4,0,0.8,0.1,1.3,0.4l0.5,-1.1c-0.5,-0.3,-1.1,-0.4,-1.7,-0.4Z" class="g14_7" />
<path d="M987.8,595.2c0,-1.1,-0.3,-2,-0.9,-2.7c-0.6,-0.7,-1.4,-1,-2.3,-1c-1,0,-1.8,0.3,-2.4,1.1c-0.7,0.7,-1,1.7,-1,2.9c0,1.3,0.4,2.3,1.1,3c0.7,0.7,1.6,1.1,2.8,1.1c0.9,0,1.7,-0.1,2.4,-0.4l-0.2,-1c-0.8,0.3,-1.5,0.4,-2.2,0.4c-0.8,0,-1.4,-0.3,-1.9,-0.9c-0.5,-0.5,-0.8,-1.3,-0.8,-2.1l5.4,0l0,-0.4Zm-5.3,-0.6c0.1,-0.6,0.3,-1.1,0.7,-1.5c0.4,-0.4,0.9,-0.6,1.5,-0.6c0.4,0,0.9,0.2,1.2,0.6c0.4,0.4,0.6,0.9,0.6,1.5l-4,0Z" class="g14_7" />
<path d="M998.5,592.6c-0.6,0.7,-1,1.7,-1,2.9c0,1.3,0.4,2.2,1,3c0.6,0.7,1.5,1.1,2.5,1.1c1.1,0,2,-0.4,2.6,-1.1c0.6,-0.8,0.9,-1.7,0.9,-3c0,-1.2,-0.3,-2.2,-0.9,-2.9c-0.6,-0.8,-1.5,-1.1,-2.6,-1.1c-1,0,-1.9,0.3,-2.5,1.1Zm0.9,5.1c-0.4,-0.6,-0.6,-1.3,-0.6,-2.2c0,-0.9,0.2,-1.6,0.6,-2.2c0.4,-0.5,0.9,-0.8,1.6,-0.8c0.8,0,1.3,0.3,1.7,0.8c0.4,0.6,0.6,1.3,0.6,2.2c0,0.9,-0.2,1.6,-0.6,2.2c-0.4,0.6,-1,0.9,-1.7,0.9c-0.7,0,-1.2,-0.3,-1.6,-0.9Z" class="g14_7" />
<path d="M1011.5,588.7c-0.8,0,-1.4,0.2,-1.7,0.6c-0.4,0.4,-0.6,1.1,-0.6,2.1l0,0.2l-1.9,0l0,1.1l1.9,0l0,6.7l1.2,0l0,-6.7l2.6,0l0,-1.1l-2.6,0l0,-0.1c0,-0.7,0.1,-1.2,0.2,-1.4c0.2,-0.3,0.5,-0.4,0.9,-0.4c0.4,0,0.9,0.1,1.5,0.3l0.3,-1c-0.7,-0.2,-1.3,-0.3,-1.8,-0.3Z" class="g14_7" />
<path d="M1029.6,598.2c-0.6,0.2,-1.3,0.4,-1.9,0.4c-0.3,0,-0.6,-0.1,-0.8,-0.4c-0.2,-0.3,-0.4,-0.6,-0.4,-1.1l0,-4.4l2.7,0l0,-1.1l-2.7,0l0,-2.1l-1.1,0l0,2.1l-1.5,0l0,1.1l1.5,0l0,4.7c0,1.5,0.7,2.2,2.1,2.2c0.8,0,1.5,-0.2,2.3,-0.5l-0.2,-0.9Z" class="g14_7" />
<path d="M1038.9,594.1c0,-1.8,-0.7,-2.6,-2.2,-2.6c-0.9,0,-1.8,0.4,-2.6,1.3l0,-3.9l-1.2,0l0,10.5l1.2,0l0,-5.6c0.8,-0.9,1.5,-1.3,2.3,-1.3c0.4,0,0.8,0.1,1,0.4c0.2,0.3,0.3,0.8,0.3,1.5l0,5l1.2,0l0,-5.3Z" class="g14_7" />
<path d="M1048.3,595.2c0,-1.1,-0.3,-2,-0.9,-2.7c-0.6,-0.7,-1.4,-1,-2.3,-1c-1,0,-1.8,0.3,-2.4,1.1c-0.6,0.7,-1,1.7,-1,2.9c0,1.3,0.4,2.3,1.1,3c0.7,0.7,1.6,1.1,2.8,1.1c0.9,0,1.7,-0.1,2.4,-0.4l-0.2,-1c-0.8,0.3,-1.5,0.4,-2.2,0.4c-0.7,0,-1.4,-0.3,-1.9,-0.9c-0.5,-0.5,-0.7,-1.3,-0.7,-2.1l5.3,0l0,-0.4Zm-5.3,-0.6c0.1,-0.6,0.3,-1.1,0.7,-1.5c0.4,-0.4,0.9,-0.6,1.5,-0.6c0.5,0,0.9,0.2,1.3,0.6c0.3,0.4,0.5,0.9,0.5,1.5l-4,0Z" class="g14_7" />
<path d="M1064.7,588.9l-1.2,0l0,8.2l-3.8,-8.2l-1.3,0l0,10.5l1.2,0l0,-8.3l3.8,8.3l1.3,0l0,-10.5Z" class="g14_7" />
<path d="M1073.7,597.6l0,-3.3c0,-1.9,-0.9,-2.8,-2.6,-2.8c-0.9,0,-1.9,0.2,-3,0.8l0.3,0.8c0.4,-0.2,0.7,-0.3,1.2,-0.4c0.4,-0.2,0.8,-0.2,1.1,-0.2c1.2,0,1.9,0.6,1.9,2l0,0.3l-1.3,0.1c-0.6,0.1,-1.1,0.2,-1.6,0.3c-0.4,0.1,-0.8,0.3,-1,0.5c-0.3,0.2,-0.6,0.4,-0.7,0.7c-0.2,0.3,-0.3,0.6,-0.3,1c0,0.7,0.3,1.2,0.7,1.6c0.4,0.4,1,0.6,1.5,0.6c1.2,0,2.1,-0.5,2.7,-1.4c0,0.5,0.1,0.9,0.2,1.2l1.1,0c-0.1,-0.5,-0.2,-1.1,-0.2,-1.8Zm-2.2,0.5c-0.4,0.3,-0.8,0.4,-1.2,0.4c-0.4,0,-0.7,-0.1,-1,-0.3c-0.2,-0.2,-0.3,-0.5,-0.3,-0.9c0,-0.3,0.1,-0.6,0.4,-0.9c0.3,-0.2,0.6,-0.4,1,-0.4c0.4,-0.1,1.1,-0.2,2.2,-0.3l0,1.4c-0.3,0.4,-0.7,0.8,-1.1,1Z" class="g14_7" />
<path d="M1082.9,594.1c0,-1.8,-0.7,-2.6,-2.2,-2.6c-0.9,0,-1.8,0.4,-2.6,1.3l0,-1.2l-1.2,0l0,7.8l1.2,0l0,-5.6c0.8,-0.9,1.6,-1.3,2.3,-1.3c0.4,0,0.8,0.1,1,0.4c0.2,0.3,0.3,0.8,0.3,1.5l0,5l1.2,0l0,-5.3Z" class="g14_7" />
<path d="M1086.5,592.6c-0.6,0.7,-0.9,1.7,-0.9,2.9c0,1.3,0.3,2.2,0.9,3c0.6,0.7,1.5,1.1,2.6,1.1c1,0,1.9,-0.4,2.5,-1.1c0.6,-0.8,1,-1.7,1,-3c0,-1.2,-0.4,-2.2,-1,-2.9c-0.6,-0.8,-1.5,-1.1,-2.5,-1.1c-1.1,0,-2,0.3,-2.6,1.1Zm0.9,5.1c-0.4,-0.6,-0.6,-1.3,-0.6,-2.2c0,-0.9,0.2,-1.6,0.6,-2.2c0.4,-0.5,0.9,-0.8,1.7,-0.8c0.7,0,1.2,0.3,1.6,0.8c0.4,0.6,0.6,1.3,0.6,2.2c0,0.9,-0.2,1.6,-0.6,2.2c-0.4,0.6,-0.9,0.9,-1.6,0.9c-0.8,0,-1.3,-0.3,-1.7,-0.9Z" class="g14_7" />
<path d="M1101.2,594.1c0,-1.8,-0.7,-2.6,-2.2,-2.6c-0.9,0,-1.8,0.4,-2.6,1.3l0,-1.2l-1.2,0l0,7.8l1.2,0l0,-5.6c0.8,-0.9,1.6,-1.3,2.3,-1.3c0.5,0,0.8,0.1,1,0.4c0.3,0.3,0.4,0.8,0.4,1.5l0,5l1.1,0l0,-5.3Z" class="g14_7" />
<path d="M1110.4,597.6l0,-3.3c0,-1.9,-0.9,-2.8,-2.7,-2.8c-0.9,0,-1.8,0.2,-2.9,0.8l0.3,0.8c0.3,-0.2,0.7,-0.3,1.2,-0.4c0.4,-0.2,0.8,-0.2,1.1,-0.2c1.2,0,1.8,0.6,1.8,2l0,0.3l-1.3,0.1c-0.6,0.1,-1.1,0.2,-1.5,0.3c-0.4,0.1,-0.8,0.3,-1.1,0.5c-0.3,0.2,-0.5,0.4,-0.7,0.7c-0.1,0.3,-0.2,0.6,-0.2,1c0,0.7,0.2,1.2,0.7,1.6c0.4,0.4,0.9,0.6,1.5,0.6c1.1,0,2,-0.5,2.7,-1.4c0,0.5,0,0.9,0.1,1.2l1.2,0c-0.1,-0.5,-0.2,-1.1,-0.2,-1.8Zm-2.2,0.5c-0.4,0.3,-0.9,0.4,-1.3,0.4c-0.3,0,-0.7,-0.1,-0.9,-0.3c-0.2,-0.2,-0.4,-0.5,-0.4,-0.9c0,-0.3,0.2,-0.6,0.5,-0.9c0.3,-0.2,0.6,-0.4,1,-0.4c0.4,-0.1,1.1,-0.2,2.1,-0.3l0,1.4c-0.3,0.4,-0.6,0.8,-1,1Z" class="g14_7" />
<path d="M1119.6,591.6l-1.2,0l0,5.7c-0.8,0.8,-1.6,1.3,-2.3,1.3c-0.5,0,-0.8,-0.2,-1.1,-0.5c-0.2,-0.3,-0.3,-0.8,-0.3,-1.5l0,-5l-1.1,0l0,5.4c0,1.7,0.7,2.6,2.2,2.6c0.9,0,1.8,-0.4,2.6,-1.3l0,1.1l1.2,0l0,-7.8Z" class="g14_7" />
<path d="M1128.6,598.2c-0.6,0.2,-1.2,0.4,-1.9,0.4c-0.3,0,-0.6,-0.1,-0.8,-0.4c-0.2,-0.3,-0.3,-0.6,-0.3,-1.1l0,-4.4l2.6,0l0,-1.1l-2.6,0l0,-2.1l-1.2,0l0,2.1l-1.5,0l0,1.1l1.5,0l0,4.7c0,1.5,0.7,2.2,2.1,2.2c0.8,0,1.5,-0.2,2.3,-0.5l-0.2,-0.9Z" class="g14_7" />
<path d="M1137.4,591.8c-0.8,-0.2,-1.5,-0.3,-2.1,-0.3c-1,0,-1.8,0.2,-2.4,0.5c-0.6,0.4,-0.8,1,-0.8,1.6c0,0.4,0,0.6,0.1,0.9c0.2,0.2,0.4,0.4,0.6,0.6c0.2,0.2,0.5,0.3,0.8,0.4c0.3,0.1,0.7,0.3,1.3,0.4c0.8,0.3,1.2,0.5,1.4,0.7c0.2,0.2,0.3,0.5,0.3,0.7c0,0.4,-0.2,0.7,-0.6,1c-0.4,0.2,-0.9,0.3,-1.5,0.3c-0.8,0,-1.5,-0.1,-2.1,-0.4l-0.3,1c0.7,0.3,1.4,0.4,2.4,0.4c1,0,1.8,-0.2,2.4,-0.6c0.6,-0.5,0.9,-1,0.9,-1.8c0,-0.4,-0.1,-0.7,-0.2,-1c-0.2,-0.3,-0.4,-0.5,-0.8,-0.7c-0.3,-0.2,-0.7,-0.4,-1.2,-0.5l-1.1,-0.3c-0.5,-0.2,-0.9,-0.3,-1,-0.5c-0.2,-0.2,-0.3,-0.4,-0.3,-0.6c0,-0.4,0.2,-0.6,0.6,-0.8c0.3,-0.3,0.8,-0.4,1.5,-0.4c0.5,0,1.1,0.1,1.8,0.4l0.3,-1Z" class="g14_7" />
<path d="M1146,588.9l-1.2,0l0,1.8l0.3,2.1l0.6,0l0.3,-2.1l0,-1.8Zm-2.7,0l-1.2,0l0,1.8l0.3,2.1l0.6,0l0.3,-2.1l0,-1.8Z" class="g14_7" />
<path d="M1154.8,588.7l-4.5,10.9l1.1,0l4.5,-10.9l-1.1,0Z" class="g14_7" />
<path d="M1165.4,593.6l-5.6,-3.4l0,1.1l4.5,2.8l-4.5,2.6l0,1.1l5.6,-3.3l0,-0.9Z" class="g14_7" />
<path d="M1174.3,596.7l-4.5,-2.6l4.5,-2.8l0,-1l-5.6,3.3l0,0.9l5.6,3.3l0,-1.1Z" class="g14_7" />
<path d="M1182.3,588.7l-4.5,10.9l1.1,0l4.5,-10.9l-1.1,0Z" class="g14_7" />
<path d="M1188.1,591.6l-1.2,0l0,10.9l1.2,0l0,-4.2c0.2,0.4,0.6,0.7,1,1c0.4,0.2,0.9,0.3,1.3,0.3c0.9,0,1.7,-0.4,2.2,-1.2c0.5,-0.8,0.8,-1.8,0.8,-3c0,-1.1,-0.3,-2.1,-0.8,-2.8c-0.5,-0.8,-1.2,-1.1,-2.1,-1.1c-0.5,0,-0.9,0.1,-1.4,0.3c-0.4,0.2,-0.8,0.5,-1,0.9l0,-1.1Zm2.1,0.9c0.6,0,1.1,0.2,1.5,0.8c0.3,0.6,0.5,1.3,0.5,2.2c0,0.9,-0.2,1.6,-0.6,2.2c-0.3,0.6,-0.8,0.9,-1.5,0.9c-0.4,0,-0.7,-0.2,-1.1,-0.5c-0.4,-0.3,-0.7,-0.6,-0.9,-1.1l0,-3.2c0.6,-0.9,1.3,-1.3,2.1,-1.3Z" class="g14_7" />
<path d="M1202.1,593.6l-5.6,-3.4l0,1.1l4.5,2.8l-4.5,2.6l0,1.1l5.6,-3.3l0,-0.9Z" class="g14_7" />
<text
x="879"
y="599"
dx="0,0,0,0,0,0,0,0,0,0,0,0,0,-1.8,0,0,-1.8,0,0,0,-1.8,0,0,0,0,0,0,0,0,0,0,0,0,0,0,0"
class="s3_7"
>alt="Picture of the Nanonauts"/&gt;&lt;/p&gt;</text>

<text
x="879"
y="620"
dx="0,0,0,0,0,0,-1.8,0,0,0,-1.8,0,0,0,-1.8,0,0,0,0,0,0,0,0,0,0,0,0,0"
class="s3_7"
>&lt;p&gt;We are the Nanonauts.&lt;/p&gt;</text>

<text
x="879"
y="642"
dx="0,0,0,0,0,0,0,-1.8,0,0,0,0,0,-1.8,0,0,0,-1.8,0,0,0,0,0,0,-1.8,0,0,0,0,0,0,0,-1.8,0,0,0,0,0,0,-1.8,0,0,0"
class="s3_7"
>&lt;p&gt;Our names are Holly, Dervla, Daniel and </text>

<text
x="879"
y="663"
dx="0,0,0,0,0,0,0,0"
class="s3_7"
>Sam.&lt;/p&gt;</text>

<text
x="879"
y="684"
dx="0,0,0,0,0,0,0"
class="s3_7"
>&lt;/body&gt;</text>

<text
x="879"
y="706"
dx="0,0,0,0,0,0,0"
class="s3_7"
>&lt;/html&gt;</text>

<path d="M870,54l0,4l-4,0l0,59l732,0l0,-4l4,0l0,-55l-4,0l0,-4Z" class="g15_7" />
<text
x="891"
y="103"
dx="0,0,-5.6,-4.3,-6.2,-4.5,-3.5,-4.5,-4.1,-3.6,0,0,-4.4,-3.4,0,0,-3.5,-3.5,-3.4,-3.4,-3.5,-3.6,-4.5,-5.3,0"
class="s6_7"
>&lt;Picturing the Nanonauts&gt;</text>

<text
x="890"
y="834"
dx="0,0,0,0,0,0,-1.1,0"
class="s7_7"
>About Us</text>

<text
x="890"
y="982"
dx="0,-0.2,0,-0.6,0,-0.2,0,-0.6,0,0,0,-0.6,0,0,0,0,0,0,0,0,0,0"
class="s8_7"
>We are the Nanonauts. </text>

<text
x="890"
y="997"
dx="0,0,0,0,-0.6,0,0,0,0,0,-0.6,0,-0.2,0,-0.6,0,0,0,0,-1,0,-0.6,0,0,0,0,0,0,0,-0.6,0,0,0,0,0,0,-0.6,0,0,0,-0.6,0,0,0"
class="s8_7"
>Our names are Holly, Dervla, Daniel and Sam.</text>

<path d="M1243,292l0,-4l-4,0l0,-4l-4,0l0,-4l-4,0l0,-4l-4,0l0,4l0,4l0,4l0,4l0,4l0,4l0,4l0,4l0,4l4,0l0,-4l4,0l0,-4l4,0l0,-4l4,0l0,-4l4,0l0,-4Z" class="g15_7" />
<path d="M1075,775l4,0l0,-5l4,0l0,-4l4,0l0,-4l4,0l0,-4l-4,0l-4,0l-4,0l-4,0l-4,0l-4,0l-4,0l-4,0l-4,0l0,4l4,0l0,4l4,0l0,4l4,0l0,5l4,0l0,4l4,0Z" class="g15_7" />
<text
x="1591"
y="1019"
dx="0,-1.6"
class="s9_7"
>13</text>

<text
x="36"
y="1019"
dx="0,-1.6"
class="s9_7"
>12</text>



<!-- Any embedded fonts defined here -->
<style type="text/css" ><![CDATA[

@font-face {
	font-family: PixelSplitter-Bold_6d;
	src: url("fonts/PixelSplitter-Bold_6d.woff") format("woff");
}

@font-face {
	font-family: AndaleMono_1cn;
	src: url("fonts/AndaleMono_1cn.woff") format("woff");
}

@font-face {
	font-family: Helvetica-Light_1by;
	src: url("fonts/Helvetica-Light_1by.woff") format("woff");
}

@font-face {
	font-family: PixelSplitter-Bold_1bs;
	src: url("fonts/PixelSplitter-Bold_1bs.woff") format("woff");
}

@font-face {
	font-family: Helvetica-Bold_1bu;
	src: url("fonts/Helvetica-Bold_1bu.woff") format("woff");
}

]]></style>

</svg>
