<?xml version="1.0" encoding="UTF-8" standalone="no"?>
<!DOCTYPE svg PUBLIC "-//W3C//DTD SVG 1.1//EN"
"http://www.w3.org/Graphics/SVG/1.1/DTD/svg11.dtd">


<!-- Page 1 -->
<svg x="0" y="0" width="909" height="1286" viewBox="0 0 909 1286" version="1.1" xmlns="http://www.w3.org/2000/svg" xmlns:xlink="http://www.w3.org/1999/xlink"
style="display: block;margin-left: auto;margin-right: auto;">
<defs>

<style type="text/css"><![CDATA[

.g3_1{
fill: #FFFFFF;
}
.g4_1{
fill: none;
stroke: #ED7D31;
stroke-width: 7;
stroke-linecap: butt;
stroke-linejoin: miter;
}
.g2_1{
fill: none;
stroke: #2E74B5;
stroke-width: 3;
stroke-linecap: butt;
stroke-linejoin: miter;
}
.g5_1{
fill: none;
stroke: #ED7D31;
stroke-width: 2;
stroke-linecap: butt;
stroke-linejoin: miter;
}
.g1_1{
fill: none;
stroke: #0563C1;
stroke-width: 1;
stroke-linecap: butt;
stroke-linejoin: miter;
}

.s6_1{
font-size: 16.81px;
font-family: Calibri-BoldItalic_6;
fill: #000000;
}
.s2_1{
font-size: 15.28px;
font-family: Calibri_8;
fill: #0563C1;
}
.s7_1{
font-size: 16.81px;
font-family: Calibri_8;
fill: #000000;
}
.s3_1{
font-size: 24.44px;
font-family: Calibri-Light_4;
fill: #2E74B5;
}
.s1_1{
font-size: 15.28px;
font-family: Calibri_8;
fill: #000000;
}
.s4_1{
font-size: 24.44px;
font-family: Calibri-Light-Bold_2;
fill: #2E74B5;
}
.s5_1{
font-size: 19.86px;
font-family: Calibri-Light_4;
fill: #2E74B5;
}

]]></style>

</defs>
<path d="M0,0
L0,1286
L909,1286
L909,0 Z " 
fill="#FFFFFF" stroke="none" />
<text 
x="186" 
y="68" 
dx="0,0,0,0,0,0,0,0,0,0,0,0,0,0,0,0,0,0,0,0,0,0,0,0,0,0,0,0,0,0,0,0,0,0,0,0,0,0,0,0,0,0,0,0,0,0,0,0,0,0,0,0,0" 
class="s1_1"
>To print more copies, use the Dropbox folder link at </text>

<text 
x="510" 
y="68" 
dx="0,0,0,0,0,0,0,0,0,0,0,0,0,0,0,0,0,0,0,0,0,0,0,0,0,0,0,0,0,0,0,0,0" 
class="s2_1"
>http://scratch.coderdojobray.com </text>

<path d="M510.5,70.5l212,0" class="g1_1" />
<text 
x="55" 
y="134" 
dx="0,0,0,0,0,0,0,0,0,0,0,0,0" 
class="s3_1"
>Step by Step </text>

<text 
x="182" 
y="134" 
dx="0,0,0,0,0,0" 
class="s4_1"
>Part 1</text>

<text 
x="241" 
y="134" 
dx="0" 
class="s3_1"
>:</text>

<path d="M182.5,138.5l59,0" class="g2_1" />
<text 
x="55" 
y="165" 
dx="0,0,0,0,0,0,0,0,0,0,0,0,0,0,0,0,0,0,0,0,0,0,0,0,0,0,0,0,0,0,0,0,0,0,0,0,0,0" 
class="s5_1"
>The Scratch window/ coding environment</text>

<image x="55" y="173" width="690" height="472" xlink:href="1/img/1.png" />
<text 
x="55" 
y="677" 
dx="0,0,0,0,0,0,0,0,0,0,0,0,0,0,0,0,0,0,0,0,0,0,0,0,0,0,0,0,0,0,0,0,0,0,0,0,0,0,0,0,0,0,0,0,0,0,0,0,0,0,0,0,0,0,0,0" 
class="s5_1"
>Make a sprite move and bounce off the edges of the stage</text>

<image x="55" y="685" width="193" height="199" xlink:href="1/img/2.png" />
<text 
x="55" 
y="917" 
dx="0,0,0,0,0,0,0,0,0,0,0,0,0,0,0,0,0,0" 
class="s5_1"
>Paint a new sprite</text>

<image x="55" y="924" width="690" height="258" xlink:href="1/img/3.png" />
<text 
x="55" 
y="1211" 
dx="0,0,0,0,0,0,0,0,0,0,0,0,0,0,0,0,0,0,0,0,0,0" 
class="s6_1"
>Turn the page over &gt;&gt;&gt;</text>

<path fill-rule="evenodd" d="M699.4,96.4L713.8,86C732.4,75.4,755,70.1,777.7,71.1c23.6,1.1,45.9,8.9,63.2,22c22.6,17.1,34.3,41.8,31.6,66.8c-2.5,24.1,-18,46,-42.3,60c-18.6,10.6,-41.1,15.9,-63.9,14.8c-23.5,-1,-45.9,-8.8,-63.1,-21.9C680.6,195.7,668.9,171,671.5,145.9c1.4,-13.3,6.8,-26.1,15.7,-37.3Z" class="g3_1" />
<path d="M699.4,96.4L713.8,86C732.4,75.4,755,70.1,777.7,71.1c23.6,1.1,45.9,8.9,63.2,22c22.6,17.1,34.3,41.8,31.6,66.8c-2.5,24.1,-18,46,-42.3,60c-18.6,10.6,-41.1,15.9,-63.9,14.8c-23.5,-1,-45.9,-8.8,-63.1,-21.9C680.6,195.7,668.9,171,671.5,145.9c1.4,-13.3,6.8,-26.1,15.7,-37.3Z" class="g4_1" />
<text 
x="714" 
y="112" 
dx="0,0,0,0,0,0,0,0,0,0,0,0,0,0,0,0,0,0" 
class="s7_1"
>Read all of these </text>

<text 
x="713" 
y="134" 
dx="0,0,0,0,0,0,0,0,0,0,0,0,0,0,0,0,0" 
class="s7_1"
>speech bubbles - </text>

<text 
x="702" 
y="156" 
dx="0,0,0,0,0,0,0,0,0,0,0,0,0,0,0,0,0,0,0,0,0" 
class="s7_1"
>they contain helpful </text>

<text 
x="727" 
y="178" 
dx="0,0,0,0,0,0,0,0,0,0,0,0,0" 
class="s7_1"
>hints for you</text>

<path fill-rule="evenodd" d="M166.4,348.2L158.2,317C67.9,309.2,34.3,281.3,92.7,262.8c22.1,-7,54.3,-11.7,90,-13.2c10,-0.4,20.1,-0.5,30.1,-0.4c14.2,0.2,28.2,0.8,41.6,2c90.3,7.8,123.9,35.7,65.5,54.2c-22.1,7,-54.3,11.7,-90,13.2c-5.9,0.2,-11.8,0.4,-17.7,0.4Z" class="g3_1" />
<path d="M166.4,348.2L158.2,317C67.9,309.2,34.3,281.3,92.7,262.8c22.1,-7,54.3,-11.7,90,-13.2c10,-0.4,20.1,-0.5,30.1,-0.4c14.2,0.2,28.2,0.8,41.6,2c90.3,7.8,123.9,35.7,65.5,54.2c-22.1,7,-54.3,11.7,-90,13.2c-5.9,0.2,-11.8,0.4,-17.7,0.4Z" class="g5_1" />
<text 
x="106" 
y="275" 
dx="0,0,0,0,0,0,0,0,0,0,0,0,0,0,0,0,0,0,0,0,0,0,0,0,0,0,0,0,0,0,0" 
class="s7_1"
>This is the ‘stage’ where your </text>

<text 
x="138" 
y="297" 
dx="0,0,0,0,0,0,0,0,0,0,0,0,0,0,0,0,0,0,0" 
class="s7_1"
>game will be played</text>

<path fill-rule="evenodd" d="M652.6,299.2l31.4,31c29.3,-6.3,59.7,2.7,82.7,24.6c19.3,18.4,32,44.4,35.5,73c3.4,27,-1.8,54.6,-14.4,77.7c-15,27.4,-39.3,46.3,-67,52.2C691.4,564,661.1,555,638.1,533.1c-19.4,-18.4,-32,-44.4,-35.5,-73c-3.4,-27,1.8,-54.6,14.4,-77.7c8,-14.5,18.6,-26.8,31.2,-36Z" class="g3_1" />
<path d="M652.6,299.2l31.4,31c29.3,-6.3,59.7,2.7,82.7,24.6c19.3,18.4,32,44.4,35.5,73c3.4,27,-1.8,54.6,-14.4,77.7c-15,27.4,-39.3,46.3,-67,52.2C691.4,564,661.1,555,638.1,533.1c-19.4,-18.4,-32,-44.4,-35.5,-73c-3.4,-27,1.8,-54.6,14.4,-77.7c8,-14.5,18.6,-26.8,31.2,-36Z" class="g5_1" />
<text 
x="654" 
y="378" 
dx="0,0,0,0,0,0,0,0,0,0,0,0,0,0" 
class="s7_1"
>Drag the code </text>

<text 
x="631" 
y="400" 
dx="0,0,0,0,0,0,0,0,0,0,0,0,0,0,0,0,0,0,0,0,0" 
class="s7_1"
>blocks you want into </text>

<text 
x="641" 
y="422" 
dx="0,0,0,0,0,0,0,0,0,0,0,0" 
class="s7_1"
>this space. </text>

<text 
x="721" 
y="422" 
dx="0,0,0,0,0" 
class="s7_1"
>When </text>

<text 
x="641" 
y="444" 
dx="0,0,0,0,0,0,0,0,0,0,0,0,0,0,0,0,0,0" 
class="s7_1"
>you run the code, </text>

<text 
x="638" 
y="466" 
dx="0,0,0,0,0,0,0,0,0,0,0,0,0,0,0,0,0,0,0,0" 
class="s7_1"
>your sprites follow </text>

<text 
x="644" 
y="489" 
dx="0,0,0,0,0,0,0,0,0,0,0,0,0,0,0,0,0,0" 
class="s7_1"
>your instructions </text>

<text 
x="678" 
y="511" 
dx="0,0,0,0,0,0,0" 
class="s7_1"
>exactly</text>

<path fill-rule="evenodd" d="M486.9,173.7l-2.6,-13.6c-25.7,-13.8,-32.2,-35.4,-15.8,-53c10.2,-10.8,27.9,-19,49.2,-22.6c11.9,-2,24.5,-2.5,36.8,-1.5c17,1.4,32.8,5.8,45.1,12.4c25.8,13.8,32.2,35.3,15.8,52.9c-10.1,10.9,-27.8,19.1,-49.1,22.7c-11.9,2,-24.5,2.5,-36.9,1.5C523,171.9,516.7,171,510.7,169.6Z" class="g3_1" />
<path d="M486.9,173.7l-2.6,-13.6c-25.7,-13.8,-32.2,-35.4,-15.8,-53c10.2,-10.8,27.9,-19,49.2,-22.6c11.9,-2,24.5,-2.5,36.8,-1.5c17,1.4,32.8,5.8,45.1,12.4c25.8,13.8,32.2,35.3,15.8,52.9c-10.1,10.9,-27.8,19.1,-49.1,22.7c-11.9,2,-24.5,2.5,-36.9,1.5C523,171.9,516.7,171,510.7,169.6Z" class="g5_1" />
<text 
x="485" 
y="112" 
dx="0,0,0,0,0,0,0,0,0,0,0,0,0,0,0,0,0,0" 
class="s7_1"
>These are all the </text>

<text 
x="491" 
y="134" 
dx="0,0,0,0,0,0,0,0,0,0,0,0,0,0,0,0" 
class="s7_1"
>types of ‘code’ </text>

<text 
x="501" 
y="156" 
dx="0,0,0,0,0,0,0,0,0,0,0" 
class="s7_1"
>you can use</text>

<path fill-rule="evenodd" d="M137.8,524.3L112,493.8C93,493.2,74.7,489.1,59.3,482.1C30.7,469,15.7,447.2,20.3,425.3c4,-19.5,23,-36.6,50.9,-45.8c15.5,-5.2,33,-7.6,50.6,-7c19,0.5,37.3,4.6,52.6,11.6C203,397.2,218,419,213.5,440.9c-4.1,19.5,-23.1,36.6,-51,45.9c-4.4,1.4,-9,2.7,-13.7,3.7Z" class="g3_1" />
<path d="M137.8,524.3L112,493.8C93,493.2,74.7,489.1,59.3,482.1C30.7,469,15.7,447.2,20.3,425.3c4,-19.5,23,-36.6,50.9,-45.8c15.5,-5.2,33,-7.6,50.6,-7c19,0.5,37.3,4.6,52.6,11.6C203,397.2,218,419,213.5,440.9c-4.1,19.5,-23.1,36.6,-51,45.9c-4.4,1.4,-9,2.7,-13.7,3.7Z" class="g5_1" />
<text 
x="54" 
y="406" 
dx="0,0,0,0,0,0,0,0,0,0,0,0,0,0,0,0,0,0,0,0,0,0" 
class="s7_1"
>This is a ‘sprite’ or </text>

<text 
x="58" 
y="428" 
dx="0,0,0,0,0,0,0,0,0,0,0,0,0,0,0,0,0,0" 
class="s7_1"
>character in your </text>

<text 
x="49" 
y="450" 
dx="0,0,0,0,0,0" 
class="s7_1"
>game. </text>

<text 
x="98" 
y="450" 
dx="0,0,0,0,0,0,0,0,0,0,0,0,0" 
class="s7_1"
>Sprites wear </text>

<text 
x="79" 
y="472" 
dx="0,0,0,0,0,0,0,0,0,0" 
class="s7_1"
>‘costumes’</text>

<path fill-rule="evenodd" d="M362,545.8l3.7,23c26.6,7.4,43.6,21.9,44.5,37.9c0.9,16.5,-15.6,32,-42.7,39.9c-12,3.6,-25.4,5.5,-39.1,5.5c-13.5,0.1,-26.7,-1.6,-38.7,-4.9c-26.5,-7.4,-43.6,-21.9,-44.5,-37.9c-0.8,-16.5,15.7,-32,42.7,-39.9c12,-3.6,25.4,-5.5,39.1,-5.5c2.9,0,5.7,0,8.5,0.2Z" class="g3_1" />
<path d="M362,545.8l3.7,23c26.6,7.4,43.6,21.9,44.5,37.9c0.9,16.5,-15.6,32,-42.7,39.9c-12,3.6,-25.4,5.5,-39.1,5.5c-13.5,0.1,-26.7,-1.6,-38.7,-4.9c-26.5,-7.4,-43.6,-21.9,-44.5,-37.9c-0.8,-16.5,15.7,-32,42.7,-39.9c12,-3.6,25.4,-5.5,39.1,-5.5c2.9,0,5.7,0,8.5,0.2Z" class="g5_1" />
<text 
x="276" 
y="593" 
dx="0,0,0,0,0,0,0,0,0,0,0,0,0,0,0" 
class="s7_1"
>You can add or </text>

<text 
x="287" 
y="615" 
dx="0,0,0,0,0,0,0,0,0,0,0,0" 
class="s7_1"
>paint a new </text>

<text 
x="271" 
y="637" 
dx="0,0,0,0,0,0,0,0,0,0,0,0,0,0,0,0" 
class="s7_1"
>sprite from here</text>

<path fill-rule="evenodd" d="M386.1,230.5L386.7,370c19.8,3.3,37,11,48.1,21.6c18.1,17.3,17.5,39.8,-1.5,56.8c-11.4,10.2,-28.5,17.4,-48,20.4c-13.4,2.1,-27.5,2,-40.9,-0.2c-19.8,-3.2,-37,-10.9,-48.2,-21.6c-18.1,-17.3,-17.5,-39.8,1.5,-56.8c11.5,-10.1,28.6,-17.4,48,-20.4c3.2,-0.5,6.3,-0.8,9.5,-1.1Z" class="g3_1" />
<path d="M386.1,230.5L386.7,370c19.8,3.3,37,11,48.1,21.6c18.1,17.3,17.5,39.8,-1.5,56.8c-11.4,10.2,-28.5,17.4,-48,20.4c-13.4,2.1,-27.5,2,-40.9,-0.2c-19.8,-3.2,-37,-10.9,-48.2,-21.6c-18.1,-17.3,-17.5,-39.8,1.5,-56.8c11.5,-10.1,28.6,-17.4,48,-20.4c3.2,-0.5,6.3,-0.8,9.5,-1.1Z" class="g5_1" />
<text 
x="314" 
y="399" 
dx="0,0,0,0,0,0,0,0,0,0,0,0,0,0,0,0" 
class="s7_1"
>Click the green </text>

<text 
x="312" 
y="421" 
dx="0,0,0,0,0,0,0,0,0,0,0,0,0,0,0,0,0" 
class="s7_1"
>flag to run your </text>

<text 
x="348" 
y="443" 
dx="0,0,0,0" 
class="s7_1"
>code</text>

<path fill-rule="evenodd" d="M244.9,757.5l90,3.7C361,749.5,397.4,741.5,437.7,738.6c17.8,-1.3,36,-1.6,54,-0.9c29,1.2,56.8,5,80.9,11.1c85.1,21.5,102.3,66,36.7,95.3c-26.1,11.7,-62.5,19.7,-102.9,22.6c-17.7,1.3,-35.9,1.6,-53.9,0.9c-29,-1.2,-56.8,-5,-80.9,-11.1c-64.2,-16.2,-92.3,-46.1,-69,-73.4Z" class="g3_1" />
<path d="M244.9,757.5l90,3.7C361,749.5,397.4,741.5,437.7,738.6c17.8,-1.3,36,-1.6,54,-0.9c29,1.2,56.8,5,80.9,11.1c85.1,21.5,102.3,66,36.7,95.3c-26.1,11.7,-62.5,19.7,-102.9,22.6c-17.7,1.3,-35.9,1.6,-53.9,0.9c-29,-1.2,-56.8,-5,-80.9,-11.1c-64.2,-16.2,-92.3,-46.1,-69,-73.4Z" class="g5_1" />
<text 
x="360" 
y="772" 
dx="0,0,0,0,0,0,0,0,0,0,0,0,0,0,0,0,0,0,0,0,0,0,0,0,0,0,0,0,0,0,0,0" 
class="s7_1"
>Use your mouse to find and drag </text>

<text 
x="351" 
y="794" 
dx="0,0,0,0,0,0,0,0,0,0,0,0,0,0,0,0,0,0,0,0,0,0,0,0,0,0,0,0,0,0,0,0,0,0,0,0,0" 
class="s7_1"
>blocks with the right colours to add </text>

<text 
x="354" 
y="817" 
dx="0,0,0,0,0,0,0,0,0,0,0,0,0,0,0,0,0,0,0,0,0,0,0,0,0,0,0,0,0,0,0,0,0,0,0,0" 
class="s7_1"
>this code for Sprite1. Then run the </text>

<text 
x="386" 
y="839" 
dx="0,0,0,0,0,0,0,0,0,0,0,0,0,0,0,0,0,0,0,0,0,0,0,0,0" 
class="s7_1"
>code using the green flag</text>

<path fill-rule="evenodd" d="M636,1050.2l-51.6,-31.4c-13.7,1.1,-27.8,1,-41.5,-0.1c-25,-2,-47.7,-7.4,-64.9,-15.5c-42.3,-19.9,-41.1,-51.1,2.7,-70.4c17.2,-7.6,39.4,-12.6,63.5,-14.4c13.8,-1.1,27.8,-1,41.6,0.1c24.9,2,47.7,7.4,64.8,15.5c42.3,19.9,41.1,51.1,-2.6,70.4c-6.5,2.9,-13.8,5.4,-21.7,7.5Z" class="g3_1" />
<path d="M636,1050.2l-51.6,-31.4c-13.7,1.1,-27.8,1,-41.5,-0.1c-25,-2,-47.7,-7.4,-64.9,-15.5c-42.3,-19.9,-41.1,-51.1,2.7,-70.4c17.2,-7.6,39.4,-12.6,63.5,-14.4c13.8,-1.1,27.8,-1,41.6,0.1c24.9,2,47.7,7.4,64.8,15.5c42.3,19.9,41.1,51.1,-2.6,70.4c-6.5,2.9,-13.8,5.4,-21.7,7.5Z" class="g5_1" />
<text 
x="481" 
y="948" 
dx="0,0,0,0,0,0,0,0,0,0,0,0,0,0,0,0,0,0,0,0,0,0,0" 
class="s7_1"
>Use the painting tools </text>

<text 
x="481" 
y="970" 
dx="0,0,0,0,0,0,0,0,0,0,0,0,0,0,0,0,0,0,0,0,0" 
class="s7_1"
>to make a shape that </text>

<text 
x="481" 
y="993" 
dx="0,0,0,0,0,0,0,0,0,0,0,0,0,0,0,0,0,0" 
class="s7_1"
>looks like a track</text>



<!-- Any embedded fonts defined here -->
<style type="text/css" ><![CDATA[

@font-face {
	font-family: Calibri_8;
	src: url("fonts/Calibri_8.woff") format("woff");
}

@font-face {
	font-family: Calibri-BoldItalic_6;
	src: url("fonts/Calibri-BoldItalic_6.woff") format("woff");
}

@font-face {
	font-family: Calibri-Light_4;
	src: url("fonts/Calibri-Light_4.woff") format("woff");
}

@font-face {
	font-family: Calibri-Light-Bold_2;
	src: url("fonts/Calibri-Light-Bold_2.woff") format("woff");
}

]]></style>

</svg>
