<?xml version="1.0" encoding="UTF-8" standalone="no"?>
<!DOCTYPE svg PUBLIC "-//W3C//DTD SVG 1.1//EN"
"http://www.w3.org/Graphics/SVG/1.1/DTD/svg11.dtd">


<!-- Page 10 -->
<svg x="0" y="0" width="1286" height="909" viewBox="0 0 1286 909" version="1.1" xmlns="http://www.w3.org/2000/svg" xmlns:xlink="http://www.w3.org/1999/xlink"
style="display: block;margin-left: auto;margin-right: auto;">
<defs>

<style type="text/css"><![CDATA[

.g3_10{
fill: none;
stroke: #F79646;
stroke-width: 4;
stroke-linecap: butt;
stroke-linejoin: miter;
}
.g2_10{
fill: #FFFFFF;
}
.g1_10{
fill: none;
stroke: #0000FF;
stroke-width: 1;
stroke-linecap: butt;
stroke-linejoin: miter;
}

.s2_10{
font-size: 15.28px;
font-family: Calibri_3h;
fill: #0000FF;
}
.s3_10{
font-size: 16.81px;
font-family: Calibri-Bold_3f;
fill: #000000;
}
.s4_10{
font-size: 16.81px;
font-family: Calibri_3h;
fill: #000000;
}
.s1_10{
font-size: 15.28px;
font-family: Calibri_3h;
fill: #000000;
}

]]></style>

</defs>
<path d="M0,0
L0,909
L1286,909
L1286,0 Z " 
fill="#FFFFFF" stroke="none" />
<text 
x="374" 
y="68" 
dx="0,0,0,0,0,0,0,0,0,0,0,0,0,0,0,0,0,0,0,0,0,0,0,0,0,0,0,0,0,0,0,0,0,0,0,0,0,0,0,0,0,0,0,0,0,0,0,0,0,0,0,0,0" 
class="s1_10"
>To print more copies, use the Dropbox folder link at </text>

<text 
x="699" 
y="68" 
dx="0,0,0,0,0,0,0,0,0,0,0,0,0,0,0,0,0,0,0,0,0,0,0,0,0,0,0,0,0,0,0,0,0" 
class="s2_10"
>http://scratch.coderdojobray.com </text>

<path d="M699.5,70.5l212,0" class="g1_10" />
<text 
x="110" 
y="128" 
dx="0,0,0,0,0,0,0,0,0,0,0,0,0,0,0,0,0,0,0,0,0,0,0,0,0,0,0,0,0,0,0,0,0,0,0,0,0,0,0,0,0,0,0,0,0,0,0,0,0,0,0,0,0,0,0,0,0,0,0,0,0,0,0,0,0,0,0,0,0,0,0,0,0,0,0,0,0,0,0" 
class="s3_10"
>CoderDojo Bray – Advanced - Finish a game with a scrolling background, part 2: </text>

<text 
x="110" 
y="167" 
dx="0,0,0,0,0,0,0,0,0,0,0,0,0,0,0,0,0,0,0,0,0,0,0,0,0,0,0,0,0,0,0,0,0,0,0,0,0,0,0,0,0,0,0,0,0,0" 
class="s4_10"
>This is where your scrolling game is heading. </text>

<text 
x="420" 
y="167" 
dx="0,0,0,0,0,0,0,0,0,0,0,0,0,0,0,0,0,0,0,0,0,0,0,0,0,0,0,0,0,0,0,0,0,0,0,0,0,0,0,0,0,0,0,0,0,0" 
class="s4_10"
>Make the scrolling background (part 1) first. </text>

<text 
x="727" 
y="167" 
dx="0,0,0,0,0,0,0,0,0,0,0,0,0,0,0,0,0,0,0" 
class="s4_10"
>Then do this part. </text>

<text 
x="856" 
y="167" 
dx="0,0,0,0,0,0,0,0,0,0,0,0,0,0,0,0,0,0,0,0,0,0,0,0,0,0,0,0,0,0,0,0,0,0,0" 
class="s4_10"
>Apples fall randomly from the sky. </text>

<text 
x="1097" 
y="167" 
dx="0,0,0,0,0" 
class="s4_10"
>Your </text>

<text 
x="110" 
y="190" 
dx="0,0,0,0,0,0,0,0,0,0,0,0,0,0,0,0,0,0,0,0,0,0,0,0,0,0,0,0,0,0,0,0,0,0,0,0,0,0,0,0,0,0,0,0,0,0,0,0,0,0,0,0,0,0,0,0,0,0,0,0" 
class="s4_10"
>character needs to collect green apples and avoid red ones. </text>

<text 
x="523" 
y="190" 
dx="0,0,0,0,0,0,0,0,0,0,0,0,0,0,0,0,0,0,0,0,0,0,0" 
class="s4_10"
>Play it when finished. </text>

<text 
x="676" 
y="190" 
dx="0,0,0,0,0,0,0,0,0,0,0,0,0,0,0,0" 
class="s4_10"
>Then improve it!</text>

<text 
x="110" 
y="229" 
dx="0,0,0,0,0,0,0,0,0,0,0,0,0,0,0,0,0,0,0,0,0,0,0,0,0,0,0,0,0,0,0,0,0,0,0,0,0,0,0,0,0,0,0,0,0,0,0,0,0,0,0,0,0,0,0,0,0,0,0,0,0,0,0,0" 
class="s4_10"
>Make two additional apple sprites, one green apple and one red. </text>

<text 
x="659" 
y="229" 
dx="0,0,0,0,0,0,0,0,0,0,0,0,0,0,0,0,0,0,0,0" 
class="s4_10"
>Add some variables: </text>

<text 
x="879" 
y="229" 
dx="0,0,0,0,0,0,0,0,0,0,0,0,0,0,0,0,0,0,0,0,0,0,0,0,0,0" 
class="s4_10"
>Add more code for the Cat:</text>

<image x="692" y="256" width="129" height="283" xlink:href="10/img/1.png" />
<image x="103" y="256" width="562" height="616" xlink:href="10/img/2.png" />
<image x="882" y="259" width="285" height="411" xlink:href="10/img/3.png" />
<path fill-rule="evenodd" d="M1000.4,325.7l82.5,-57.9c-13.3,-21.5,-10,-46.5,8.5,-65.8c13,-13.5,32.3,-23,54.4,-26.8c17.6,-3.1,36.1,-2.3,53.2,2.3c23.2,6.2,42,19,52.2,35.4c13.3,21.5,10,46.6,-8.6,65.9c-12.9,13.5,-32.3,23,-54.3,26.8c-17.7,3.1,-36.2,2.2,-53.2,-2.3c-11.9,-3.2,-22.8,-8.2,-31.9,-14.6Z" class="g2_10" />
<path d="M1000.4,325.7l82.5,-57.9c-13.3,-21.5,-10,-46.5,8.5,-65.8c13,-13.5,32.3,-23,54.4,-26.8c17.6,-3.1,36.1,-2.3,53.2,2.3c23.2,6.2,42,19,52.2,35.4c13.3,21.5,10,46.6,-8.6,65.9c-12.9,13.5,-32.3,23,-54.3,26.8c-17.7,3.1,-36.2,2.2,-53.2,-2.3c-11.9,-3.2,-22.8,-8.2,-31.9,-14.6Z" class="g3_10" />
<text 
x="1121" 
y="209" 
dx="0,0,0,0,0,0,0,0,0,0,0,0,0" 
class="s4_10"
>We want this </text>

<text 
x="1104" 
y="233" 
dx="0,0,0,0,0,0,0,0,0,0,0,0,0,0,0,0,0,0,0,0,0" 
class="s4_10"
>sprite to be visible </text>

<text 
x="1113" 
y="256" 
dx="0,0,0,0,0,0,0,0,0,0,0,0,0,0,0,0,0,0" 
class="s4_10"
>at all times, not </text>

<text 
x="1108" 
y="280" 
dx="0,0,0,0,0,0,0,0,0,0,0,0,0,0,0,0" 
class="s4_10"
>hidden by others</text>

<path fill-rule="evenodd" d="M1032.5,448l57.7,-29.4c-29.1,-15.7,-15.2,-37.4,30.2,-47c11.8,-2.5,25,-4,38.7,-4.4c9.3,-0.3,18.7,-0.1,27.9,0.6c23.3,1.9,43.7,6.9,56.9,14.1c29,15.8,15.1,37.5,-30.2,47c-11.8,2.5,-25.1,4.1,-38.8,4.5c-9.3,0.3,-18.7,0,-27.8,-0.7c-11.5,-0.9,-22.5,-2.6,-32.2,-5Z" class="g2_10" />
<path d="M1032.5,448l57.7,-29.4c-29.1,-15.7,-15.2,-37.4,30.2,-47c11.8,-2.5,25,-4,38.7,-4.4c9.3,-0.3,18.7,-0.1,27.9,0.6c23.3,1.9,43.7,6.9,56.9,14.1c29,15.8,15.1,37.5,-30.2,47c-11.8,2.5,-25.1,4.1,-38.8,4.5c-9.3,0.3,-18.7,0,-27.8,-0.7c-11.5,-0.9,-22.5,-2.6,-32.2,-5Z" class="g3_10" />
<text 
x="1104" 
y="393" 
dx="0,0,0,0,0,0,0,0,0,0,0,0,0,0,0,0,0,0,0" 
class="s4_10"
>Fuel keeps the cat </text>

<text 
x="1141" 
y="416" 
dx="0,0,0,0,0,0" 
class="s4_10"
>moving</text>

<path fill-rule="evenodd" d="M1041.6,493.9L1089.9,479c-10.4,-15.7,12.3,-31.9,53.5,-38.2c10.5,-1.7,21.9,-2.6,33.4,-2.7c10,-0.1,20,0.4,29.6,1.4c31.4,3.4,55.4,12.6,63,24.1c10.3,15.7,-12.4,31.9,-53.5,38.3c-10.6,1.6,-21.9,2.5,-33.4,2.6c-10,0.1,-20,-0.3,-29.6,-1.4c-19.6,-2.1,-36.6,-6.5,-48.5,-12.5Z" class="g2_10" />
<path d="M1041.6,493.9L1089.9,479c-10.4,-15.7,12.3,-31.9,53.5,-38.2c10.5,-1.7,21.9,-2.6,33.4,-2.7c10,-0.1,20,0.4,29.6,1.4c31.4,3.4,55.4,12.6,63,24.1c10.3,15.7,-12.4,31.9,-53.5,38.3c-10.6,1.6,-21.9,2.5,-33.4,2.6c-10,0.1,-20,-0.3,-29.6,-1.4c-19.6,-2.1,-36.6,-6.5,-48.5,-12.5Z" class="g3_10" />
<text 
x="1120" 
y="464" 
dx="0,0,0,0,0,0,0,0,0,0,0,0,0,0,0,0,0,0,0" 
class="s4_10"
>Apples fall slowly </text>

<text 
x="1141" 
y="488" 
dx="0,0,0,0,0,0,0,0,0,0,0,0" 
class="s4_10"
>at the start</text>

<path fill-rule="evenodd" d="M1103.5,602.3l48.7,69.6c14.4,-0.3,28.8,1.2,41.9,4.4c28.8,7,48.8,21.3,52.9,37.9c4.8,19.1,-12.4,38,-43.6,48c-13.4,4.3,-28.8,6.7,-44.5,7c-14.4,0.3,-28.7,-1.2,-41.9,-4.4c-28.7,-7,-48.8,-21.4,-52.9,-37.9c-4.7,-19.2,12.4,-38,43.6,-48c3.3,-1.1,6.7,-2,10.2,-2.8Z" class="g2_10" />
<path d="M1103.5,602.3l48.7,69.6c14.4,-0.3,28.8,1.2,41.9,4.4c28.8,7,48.8,21.3,52.9,37.9c4.8,19.1,-12.4,38,-43.6,48c-13.4,4.3,-28.8,6.7,-44.5,7c-14.4,0.3,-28.7,-1.2,-41.9,-4.4c-28.7,-7,-48.8,-21.4,-52.9,-37.9c-4.7,-19.2,12.4,-38,43.6,-48c3.3,-1.1,6.7,-2,10.2,-2.8Z" class="g3_10" />
<text 
x="1106" 
y="702" 
dx="0,0,0,0,0,0,0,0,0,0,0,0,0,0,0" 
class="s4_10"
>It’s game over </text>

<text 
x="1100" 
y="726" 
dx="0,0,0,0,0,0,0,0,0,0,0,0,0,0,0,0,0" 
class="s4_10"
>when the fuel is </text>

<text 
x="1138" 
y="749" 
dx="0,0,0,0" 
class="s4_10"
>gone</text>

<path fill-rule="evenodd" d="M275.1,471.4L222.7,427.7c-8.7,0.2,-17.5,0,-26,-0.7c-25.6,-1.9,-47.5,-7.3,-60.2,-14.9C110.9,397,129.8,377.5,177.5,370c10.7,-1.7,22.3,-2.7,34.1,-2.9c8.7,-0.2,17.5,0.1,26,0.7c25.5,1.9,47.4,7.3,60.2,14.9c25.6,15.1,6.7,34.6,-41,42.1Z" class="g2_10" />
<path d="M275.1,471.4L222.7,427.7c-8.7,0.2,-17.5,0,-26,-0.7c-25.6,-1.9,-47.5,-7.3,-60.2,-14.9C110.9,397,129.8,377.5,177.5,370c10.7,-1.7,22.3,-2.7,34.1,-2.9c8.7,-0.2,17.5,0.1,26,0.7c25.5,1.9,47.4,7.3,60.2,14.9c25.6,15.1,6.7,34.6,-41,42.1Z" class="g3_10" />
<text 
x="154" 
y="392" 
dx="0,0,0,0,0,0,0,0,0,0,0,0,0,0,0,0,0,0" 
class="s4_10"
>Small apples work </text>

<text 
x="201" 
y="416" 
dx="0,0,0,0" 
class="s4_10"
>best</text>

<path fill-rule="evenodd" d="M620.2,814.5L770.6,793.2c3.1,-20.3,19.3,-38.4,43.7,-48.9c16,-7,34.5,-10.3,53.2,-9.5c19.8,0.8,38.7,6.1,54,15.2c23.6,14.2,35.8,35.9,32.4,57.8c-3.2,20.3,-19.3,38.4,-43.7,48.9c-16,7,-34.5,10.3,-53.2,9.5C837.2,865.4,818.2,860.1,803,851c-14.2,-8.6,-24.6,-20,-29.6,-32.8Z" class="g2_10" />
<path d="M620.2,814.5L770.6,793.2c3.1,-20.3,19.3,-38.4,43.7,-48.9c16,-7,34.5,-10.3,53.2,-9.5c19.8,0.8,38.7,6.1,54,15.2c23.6,14.2,35.8,35.9,32.4,57.8c-3.2,20.3,-19.3,38.4,-43.7,48.9c-16,7,-34.5,10.3,-53.2,9.5C837.2,865.4,818.2,860.1,803,851c-14.2,-8.6,-24.6,-20,-29.6,-32.8Z" class="g3_10" />
<text 
x="802" 
y="770" 
dx="0,0,0,0,0,0,0,0,0,0,0,0,0,0,0,0,0,0" 
class="s4_10"
>To enter code for </text>

<text 
x="813" 
y="794" 
dx="0,0,0,0,0,0,0,0,0,0,0,0,0,0,0" 
class="s4_10"
>a Sprite, make </text>

<text 
x="814" 
y="817" 
dx="0,0,0,0,0,0,0,0,0,0,0,0,0,0" 
class="s4_10"
>sure you have </text>

<text 
x="814" 
y="841" 
dx="0,0,0,0,0,0,0,0,0,0,0,0,0,0,0" 
class="s4_10"
>clicked it here</text>

<path fill-rule="evenodd" d="M228.7,110.1l-50,-17.5c-10.2,0.3,-20.5,0.3,-30.6,0C126.9,92,106.5,90.3,88.3,87.4C-1.4,73.5,-3.1,38.9,85.3,24.4c18.7,-3.1,39.9,-5,61.9,-5.6c10.2,-0.3,20.5,-0.3,30.6,-0.1c21.2,0.6,41.6,2.4,59.8,5.2c89.8,13.9,91.5,48.5,3,63.1c-3,0.5,-6.1,0.9,-9.3,1.4Z" class="g2_10" />
<path d="M228.7,110.1l-50,-17.5c-10.2,0.3,-20.5,0.3,-30.6,0C126.9,92,106.5,90.3,88.3,87.4C-1.4,73.5,-3.1,38.9,85.3,24.4c18.7,-3.1,39.9,-5,61.9,-5.6c10.2,-0.3,20.5,-0.3,30.6,-0.1c21.2,0.6,41.6,2.4,59.8,5.2c89.8,13.9,91.5,48.5,3,63.1c-3,0.5,-6.1,0.9,-9.3,1.4Z" class="g3_10" />
<text 
x="87" 
y="46" 
dx="0,0,0,0,0,0,0,0,0,0,0,0,0,0,0,0,0,0,0,0,0" 
class="s4_10"
>These speech bubbles </text>

<text 
x="63" 
y="69" 
dx="0,0,0,0,0,0,0,0,0,0,0,0,0,0,0,0,0,0,0,0,0,0,0,0,0,0,0,0,0,0" 
class="s4_10"
>contain helpful hints for you.</text>



<!-- Any embedded fonts defined here -->
<style type="text/css" ><![CDATA[

@font-face {
	font-family: Calibri_3h;
	src: url("fonts/Calibri_3h.woff") format("woff");
}

@font-face {
	font-family: Calibri-Bold_3f;
	src: url("fonts/Calibri-Bold_3f.woff") format("woff");
}

]]></style>

</svg>
