<?xml version="1.0" encoding="UTF-8" standalone="no"?>
<!DOCTYPE svg PUBLIC "-//W3C//DTD SVG 1.1//EN"
"http://www.w3.org/Graphics/SVG/1.1/DTD/svg11.dtd">


<!-- Page 11 -->
<svg x="0" y="0" width="1286" height="909" viewBox="0 0 1286 909" version="1.1" xmlns="http://www.w3.org/2000/svg" xmlns:xlink="http://www.w3.org/1999/xlink"
style="display: block;margin-left: auto;margin-right: auto;">
<defs>

<style type="text/css"><![CDATA[

.g3_11{
fill: none;
stroke: #F79646;
stroke-width: 4;
stroke-linecap: butt;
stroke-linejoin: miter;
}
.g2_11{
fill: #FFFFFF;
}
.g1_11{
fill: none;
stroke: #0000FF;
stroke-width: 1;
stroke-linecap: butt;
stroke-linejoin: miter;
}

.s2_11{
font-size: 15.28px;
font-family: Calibri_3h;
fill: #0000FF;
}
.s3_11{
font-size: 16.81px;
font-family: Calibri_3h;
fill: #000000;
}
.s1_11{
font-size: 15.28px;
font-family: Calibri_3h;
fill: #000000;
}

]]></style>

</defs>
<path d="M0,0
L0,909
L1286,909
L1286,0 Z " 
fill="#FFFFFF" stroke="none" />
<text 
x="374" 
y="68" 
dx="0,0,0,0,0,0,0,0,0,0,0,0,0,0,0,0,0,0,0,0,0,0,0,0,0,0,0,0,0,0,0,0,0,0,0,0,0,0,0,0,0,0,0,0,0,0,0,0,0,0,0,0,0" 
class="s1_11"
>To print more copies, use the Dropbox folder link at </text>

<text 
x="699" 
y="68" 
dx="0,0,0,0,0,0,0,0,0,0,0,0,0,0,0,0,0,0,0,0,0,0,0,0,0,0,0,0,0,0,0,0,0" 
class="s2_11"
>http://scratch.coderdojobray.com </text>

<path d="M699.5,70.5l212,0" class="g1_11" />
<text 
x="165" 
y="128" 
dx="0,0,0,0,0,0,0,0,0,0,0,0,0,0,0,0,0,0,0,0,0,0,0" 
class="s3_11"
>Add code for Red Apple:</text>

<text 
x="660" 
y="128" 
dx="0,0,0,0,0,0,0,0,0,0,0,0,0,0,0,0,0,0,0,0,0,0,0,0,0,0,0,0,0,0,0,0,0,0,0,0,0,0,0,0,0,0,0,0,0" 
class="s3_11"
>And for Green Apple: (similar, minor changes)</text>

<image x="89" y="151" width="458" height="724" xlink:href="11/img/1.png" />
<image x="648" y="151" width="472" height="724" xlink:href="11/img/2.png" />
<path fill-rule="evenodd" d="M349.3,212.9l86.1,-43C401,153.7,414.2,130.2,463.5,119.8c12.6,-2.6,26.8,-4.3,41.4,-4.7c9.6,-0.3,19.3,-0.1,28.7,0.5c23.5,1.7,44.4,6.4,58.8,13.1c34.4,16.2,21.2,39.7,-28.1,50.1c-12.6,2.6,-26.8,4.3,-41.4,4.7c-9.6,0.3,-19.3,0.2,-28.7,-0.5c-11,-0.8,-21.5,-2.3,-31.1,-4.3Z" class="g2_11" />
<path d="M349.3,212.9l86.1,-43C401,153.7,414.2,130.2,463.5,119.8c12.6,-2.6,26.8,-4.3,41.4,-4.7c9.6,-0.3,19.3,-0.1,28.7,0.5c23.5,1.7,44.4,6.4,58.8,13.1c34.4,16.2,21.2,39.7,-28.1,50.1c-12.6,2.6,-26.8,4.3,-41.4,4.7c-9.6,0.3,-19.3,0.2,-28.7,-0.5c-11,-0.8,-21.5,-2.3,-31.1,-4.3Z" class="g3_11" />
<text 
x="459" 
y="141" 
dx="0,0,0,0,0,0,0,0,0,0,0,0,0,0,0,0,0" 
class="s3_11"
>Apples fall from </text>

<text 
x="448" 
y="165" 
dx="0,0,0,0,0,0,0,0,0,0,0,0,0,0,0,0,0,0" 
class="s3_11"
>random x positions</text>

<path fill-rule="evenodd" d="M312.6,262.2L427.4,247.8c0.1,-14.6,26.5,-27.6,65.6,-32.4c10.4,-1.3,21.3,-1.9,32.4,-1.9c11,0,22,0.6,32.4,1.9c39.3,4.8,65.6,17.9,65.5,32.5c0,14.5,-26.4,27.6,-65.5,32.4c-10.5,1.3,-21.4,1.9,-32.5,1.9c-11,0,-22,-0.7,-32.4,-1.9C466.3,277,445,269.8,434.5,260.6Z" class="g2_11" />
<path d="M312.6,262.2L427.4,247.8c0.1,-14.6,26.5,-27.6,65.6,-32.4c10.4,-1.3,21.3,-1.9,32.4,-1.9c11,0,22,0.6,32.4,1.9c39.3,4.8,65.6,17.9,65.5,32.5c0,14.5,-26.4,27.6,-65.5,32.4c-10.5,1.3,-21.4,1.9,-32.5,1.9c-11,0,-22,-0.7,-32.4,-1.9C466.3,277,445,269.8,434.5,260.6Z" class="g3_11" />
<text 
x="465" 
y="240" 
dx="0,0,0,0,0,0,0,0,0,0,0,0,0,0,0,0,0,0" 
class="s3_11"
>Applex stores the </text>

<text 
x="470" 
y="263" 
dx="0,0,0,0,0,0,0,0,0,0,0,0,0,0,0,0,0,0" 
class="s3_11"
>initial x position</text>

<path fill-rule="evenodd" d="M449.6,374.6l49.2,20.8c14,-2.8,29.1,-4,44.2,-3.5c17.7,0.6,34.8,3.5,49.6,8.5c36.1,12.1,53.3,34.6,43,56c-8,16.4,-30.9,29.8,-61.6,36c-14,2.8,-29.1,4,-44.2,3.5c-17.6,-0.5,-34.7,-3.5,-49.5,-8.4c-36.1,-12.2,-53.4,-34.7,-43,-56.1C442,421.7,451.9,413,466,406.1Z" class="g2_11" />
<path d="M449.6,374.6l49.2,20.8c14,-2.8,29.1,-4,44.2,-3.5c17.7,0.6,34.8,3.5,49.6,8.5c36.1,12.1,53.3,34.6,43,56c-8,16.4,-30.9,29.8,-61.6,36c-14,2.8,-29.1,4,-44.2,3.5c-17.6,-0.5,-34.7,-3.5,-49.5,-8.4c-36.1,-12.2,-53.4,-34.7,-43,-56.1C442,421.7,451.9,413,466,406.1Z" class="g3_11" />
<text 
x="481" 
y="423" 
dx="0,0,0,0,0,0,0,0,0,0,0,0,0,0,0,0,0" 
class="s3_11"
>This sends out a </text>

<text 
x="470" 
y="447" 
dx="0,0,0,0,0,0,0,0,0,0,0,0,0,0,0,0,0,0" 
class="s3_11"
>message which the </text>

<text 
x="466" 
y="470" 
dx="0,0,0,0,0,0,0,0,0,0,0,0,0,0,0,0,0,0,0,0,0" 
class="s3_11"
>other script receives</text>

<path fill-rule="evenodd" d="M109.7,162.1L91.6,151.2C73.9,153,56.1,148.7,41.6,139.3C25.4,128.7,14.7,112.4,12.1,94.4C9.4,75.8,15.5,57,28.9,42.8C40.8,30.1,57.5,22.1,75.7,20.2c17.7,-1.8,35.5,2.5,49.9,11.9c16.3,10.6,27,26.9,29.6,44.9c2.7,18.6,-3.4,37.4,-16.8,51.6c-5.8,6.2,-12.7,11.3,-20.5,15.1Z" class="g2_11" />
<path d="M109.7,162.1L91.6,151.2C73.9,153,56.1,148.7,41.6,139.3C25.4,128.7,14.7,112.4,12.1,94.4C9.4,75.8,15.5,57,28.9,42.8C40.8,30.1,57.5,22.1,75.7,20.2c17.7,-1.8,35.5,2.5,49.9,11.9c16.3,10.6,27,26.9,29.6,44.9c2.7,18.6,-3.4,37.4,-16.8,51.6c-5.8,6.2,-12.7,11.3,-20.5,15.1Z" class="g3_11" />
<text 
x="48" 
y="55" 
dx="0,0,0,0,0,0,0,0,0,0,0,0" 
class="s3_11"
>This script </text>

<text 
x="40" 
y="79" 
dx="0,0,0,0,0,0,0,0,0,0,0,0,0" 
class="s3_11"
>runs when it </text>

<text 
x="49" 
y="102" 
dx="0,0,0,0,0,0,0,0,0,0,0" 
class="s3_11"
>receives a </text>

<text 
x="53" 
y="126" 
dx="0,0,0,0,0,0,0,0" 
class="s3_11"
>message </text>

<path fill-rule="evenodd" d="M343.6,384.4L451.9,511.5c10.8,-0.3,21.6,0.1,32.1,1.1c27.6,2.9,50.7,10.2,63.1,20.1c22.4,17.9,4.7,39.7,-40.1,49.4c-12.6,2.8,-26.6,4.4,-41.1,4.8c-10.8,0.3,-21.6,-0.1,-32.1,-1.2c-27.6,-2.8,-50.7,-10.1,-63.1,-20.1C348.3,547.8,366,526,410.9,516.2c1.6,-0.3,3.2,-0.7,4.9,-1Z" class="g2_11" />
<path d="M343.6,384.4L451.9,511.5c10.8,-0.3,21.6,0.1,32.1,1.1c27.6,2.9,50.7,10.2,63.1,20.1c22.4,17.9,4.7,39.7,-40.1,49.4c-12.6,2.8,-26.6,4.4,-41.1,4.8c-10.8,0.3,-21.6,-0.1,-32.1,-1.2c-27.6,-2.8,-50.7,-10.1,-63.1,-20.1C348.3,547.8,366,526,410.9,516.2c1.6,-0.3,3.2,-0.7,4.9,-1Z" class="g3_11" />
<text 
x="407" 
y="539" 
dx="0,0,0,0,0,0,0,0,0,0,0,0,0,0,0" 
class="s3_11"
>This makes the </text>

<text 
x="394" 
y="562" 
dx="0,0,0,0,0,0,0,0,0,0,0,0,0,0,0,0,0,0,0,0,0" 
class="s3_11"
>apple fall vertically</text>

<path fill-rule="evenodd" d="M310.5,763.6l87.8,-53.3C378,685.7,386.4,656.2,419,636.6c16.9,-10.1,38.8,-16.7,62.7,-19c17.7,-1.6,35.9,-0.8,52.9,2.5c29.1,5.5,53.1,17.8,66.3,33.8c20.2,24.6,11.9,54.1,-20.8,73.7c-16.8,10.1,-38.8,16.7,-62.6,19c-17.7,1.6,-35.9,0.8,-53,-2.4c-15.1,-2.9,-29,-7.7,-40.7,-13.9Z" class="g2_11" />
<path d="M310.5,763.6l87.8,-53.3C378,685.7,386.4,656.2,419,636.6c16.9,-10.1,38.8,-16.7,62.7,-19c17.7,-1.6,35.9,-0.8,52.9,2.5c29.1,5.5,53.1,17.8,66.3,33.8c20.2,24.6,11.9,54.1,-20.8,73.7c-16.8,10.1,-38.8,16.7,-62.6,19c-17.7,1.6,-35.9,0.8,-53,-2.4c-15.1,-2.9,-29,-7.7,-40.7,-13.9Z" class="g3_11" />
<text 
x="424" 
y="652" 
dx="0,0,0,0,0,0,0,0,0,0,0,0,0,0,0,0,0,0,0,0,0,0,0" 
class="s3_11"
>A hit from a red apple </text>

<text 
x="426" 
y="676" 
dx="0,0,0,0,0,0,0,0,0,0,0,0,0,0,0,0,0,0,0,0,0,0,0" 
class="s3_11"
>costs the cat fuel and </text>

<text 
x="422" 
y="699" 
dx="0,0,0,0,0,0,0,0,0,0,0,0,0,0,0,0,0,0,0,0,0,0,0" 
class="s3_11"
>increases the speed of </text>

<text 
x="454" 
y="723" 
dx="0,0,0,0,0,0,0,0,0,0,0,0,0,0" 
class="s3_11"
>falling apples</text>

<path fill-rule="evenodd" d="M301.4,817.9l78,-11.4c2.6,-16,32.8,-30.1,76.1,-35.2c11.9,-1.4,24.3,-2.1,36.8,-2.1c12.9,0,25.7,0.8,37.9,2.4c46.2,6,76.2,22,73.5,39.3C601.2,827,570.9,841,527.6,846.2c-11.9,1.4,-24.3,2.1,-36.8,2c-12.9,0,-25.7,-0.8,-37.8,-2.4c-31.9,-4.1,-56.8,-13,-67.7,-24.3Z" class="g2_11" />
<path d="M301.4,817.9l78,-11.4c2.6,-16,32.8,-30.1,76.1,-35.2c11.9,-1.4,24.3,-2.1,36.8,-2.1c12.9,0,25.7,0.8,37.9,2.4c46.2,6,76.2,22,73.5,39.3C601.2,827,570.9,841,527.6,846.2c-11.9,1.4,-24.3,2.1,-36.8,2c-12.9,0,-25.7,-0.8,-37.8,-2.4c-31.9,-4.1,-56.8,-13,-67.7,-24.3Z" class="g3_11" />
<text 
x="424" 
y="797" 
dx="0,0,0,0,0,0,0,0,0,0,0,0,0,0,0,0,0,0,0" 
class="s3_11"
>Another apple then </text>

<text 
x="477" 
y="820" 
dx="0,0,0,0,0" 
class="s3_11"
>falls</text>

<path fill-rule="evenodd" d="M864.1,756.7l82.7,-29.9c-2.6,-21.6,9.9,-42.8,33.3,-56.4c15.1,-8.8,33.9,-14,53.4,-14.6c18.6,-0.6,37,2.9,52.7,10.1c24,10.8,39.6,29.2,42.1,49.5c2.6,21.5,-9.9,42.7,-33.3,56.3c-15.1,8.9,-33.8,14,-53.4,14.6c-18.6,0.6,-37,-2.9,-52.7,-10C975,770,963.8,761.2,956.4,750.7Z" class="g2_11" />
<path d="M864.1,756.7l82.7,-29.9c-2.6,-21.6,9.9,-42.8,33.3,-56.4c15.1,-8.8,33.9,-14,53.4,-14.6c18.6,-0.6,37,2.9,52.7,10.1c24,10.8,39.6,29.2,42.1,49.5c2.6,21.5,-9.9,42.7,-33.3,56.3c-15.1,8.9,-33.8,14,-53.4,14.6c-18.6,0.6,-37,-2.9,-52.7,-10C975,770,963.8,761.2,956.4,750.7Z" class="g3_11" />
<text 
x="975" 
y="691" 
dx="0,0,0,0,0,0,0,0,0,0,0,0,0,0,0,0,0,0,0" 
class="s3_11"
>A hit from a green </text>

<text 
x="980" 
y="715" 
dx="0,0,0,0,0,0,0,0,0,0,0,0,0,0,0,0,0" 
class="s3_11"
>apple boosts the </text>

<text 
x="991" 
y="738" 
dx="0,0,0,0,0,0,0,0,0,0,0,0,0,0,0" 
class="s3_11"
>cat’s fuel and </text>

<text 
x="1018" 
y="762" 
dx="0,0,0,0,0" 
class="s3_11"
>score</text>

<path fill-rule="evenodd" d="M876.7,266.3l161.4,-35.5c0,-21,14.1,-40.9,37.9,-53.2c15.5,-7.9,34,-12.2,53.1,-12.3c19,0,37.6,4.3,53.1,12.2c23.8,12.2,38,32,38.1,53c0.1,21,-14,40.9,-37.9,53.2c-15.4,7.9,-34,12.2,-53.1,12.3c-19,0,-37.6,-4.3,-53,-12.2c-14.1,-7.2,-25,-17.1,-31.5,-28.5Z" class="g2_11" />
<path d="M876.7,266.3l161.4,-35.5c0,-21,14.1,-40.9,37.9,-53.2c15.5,-7.9,34,-12.2,53.1,-12.3c19,0,37.6,4.3,53.1,12.2c23.8,12.2,38,32,38.1,53c0.1,21,-14,40.9,-37.9,53.2c-15.4,7.9,-34,12.2,-53.1,12.3c-19,0,-37.6,-4.3,-53,-12.2c-14.1,-7.2,-25,-17.1,-31.5,-28.5Z" class="g3_11" />
<text 
x="1078" 
y="201" 
dx="0,0,0,0,0,0,0,0,0,0,0,0,0,0,0" 
class="s3_11"
>Apple2x stores </text>

<text 
x="1090" 
y="224" 
dx="0,0,0,0,0,0,0,0,0,0,0,0,0,0" 
class="s3_11"
>the initial x </text>

<text 
x="1078" 
y="248" 
dx="0,0,0,0,0,0,0,0,0,0,0,0,0,0,0,0" 
class="s3_11"
>position of the </text>

<text 
x="1088" 
y="271" 
dx="0,0,0,0,0,0,0,0,0,0,0" 
class="s3_11"
>green apple</text>



<!-- Any embedded fonts defined here -->
<style type="text/css" ><![CDATA[

@font-face {
	font-family: Calibri_3h;
	src: url("fonts/Calibri_3h.woff") format("woff");
}

]]></style>

</svg>
