<?xml version="1.0" encoding="UTF-8" standalone="no"?>
<!DOCTYPE svg PUBLIC "-//W3C//DTD SVG 1.1//EN"
"http://www.w3.org/Graphics/SVG/1.1/DTD/svg11.dtd">


<!-- Page 12 -->
<svg x="0" y="0" width="1286" height="909" viewBox="0 0 1286 909" version="1.1" xmlns="http://www.w3.org/2000/svg" xmlns:xlink="http://www.w3.org/1999/xlink"
style="display: block;margin-left: auto;margin-right: auto;">
<defs>

<style type="text/css"><![CDATA[

.g3_12{
fill: none;
stroke: #F79646;
stroke-width: 4;
stroke-linecap: butt;
stroke-linejoin: miter;
}
.g2_12{
fill: #FFFFFF;
}
.g1_12{
fill: none;
stroke: #0000FF;
stroke-width: 1;
stroke-linecap: butt;
stroke-linejoin: miter;
}

.s4_12{
font-size: 16.81px;
font-family: Calibri_3_;
fill: #000000;
}
.s6_12{
font-size: 16.81px;
font-family: Calibri-Bold_3z;
fill: #000000;
}
.s5_12{
font-size: 16.81px;
font-family: SymbolMT_4c;
fill: #000000;
}
.s2_12{
font-size: 15.28px;
font-family: Calibri_3_;
fill: #0000FF;
}
.s3_12{
font-size: 24.44px;
font-family: Calibri-Bold_3z;
fill: #000000;
}
.s1_12{
font-size: 15.28px;
font-family: Calibri_3_;
fill: #000000;
}

]]></style>

</defs>
<path d="M0,0
L0,909
L1286,909
L1286,0 Z " 
fill="#FFFFFF" stroke="none" />
<text 
x="374" 
y="68" 
dx="0,0,0,0,0,0,0,0,0,0,0,0,0,0,0,0,0,0,0,0,0,0,0,0,0,0,0,0,0,0,0,0,0,0,0,0,0,0,0,0,0,0,0,0,0,0,0,0,0,0,0,0,0" 
class="s1_12"
>To print more copies, use the Dropbox folder link at </text>

<text 
x="699" 
y="68" 
dx="0,0,0,0,0,0,0,0,0,0,0,0,0,0,0,0,0,0,0,0,0,0,0,0,0,0,0,0,0,0,0,0,0" 
class="s2_12"
>http://scratch.coderdojobray.com </text>

<path d="M699.5,70.5l212,0" class="g1_12" />
<image x="879" y="294" width="374" height="579" xlink:href="12/img/1.png" />
<text 
x="55" 
y="114" 
dx="0,0,0,0,0,0,0,0,0,0,0,0,0,0,0,0,0,0,0,0,0,0,0,0,0,0,0,0,0,0,0,0,0,0,0,0,0,0,0,0,0,0,0" 
class="s3_12"
>CoderDojo Bray 2015: Flappy Bird in Scratch</text>

<text 
x="55" 
y="156" 
dx="0,0,0,0,0,0,0,0,0,0,0,0,0,0,0,0,0,0,0,0,0,0,0,0,0,0,0,0,0,0,0,0,0,0,0,0,0,0,0,0,0,0,0,0,0,0,0,0,0,0,0,0,0,0,0,0,0,0,0,0,0,0,0,0,0,0,0,0,0,0,0,0,0,0,0,0,0,0,0,0,0,0,0,0,0,0,0,0,0,0,0,0,0,0,0,0,0,0,0,0,0,0,0,0,0,0,0,0,0,0,0,0,0,0,0,0,0,0,0,0,0,0,0,0,0,0,0,0" 
class="s4_12"
>To play the game you use the space bar to make Flappy gain height. You must get him to fly through the gaps in the pillars. The </text>

<text 
x="55" 
y="180" 
dx="0,0,0,0,0,0,0,0,0,0,0,0,0,0,0,0,0,0,0,0" 
class="s4_12"
>highest score wins. </text>

<text 
x="55" 
y="219" 
dx="0,0,0,0,0,0,0,0,0,0,0,0,0,0,0,0,0" 
class="s4_12"
>Create 2 sprites:</text>

<text 
x="82" 
y="259" 
dx="0" 
class="s5_12"
></text>

<text 
x="109" 
y="259" 
dx="0,0,0,0,0,0" 
class="s6_12"
>Flappy</text>

<text 
x="159" 
y="259" 
dx="0,0,0,0,0,0,0,0,0,0,0,0,0,0,0,0,0,0,0,0,0,0,0,0,0,0,0,0,0,0,0,0,0,0,0,0,0,0,0,0,0,0,0,0,0,0,0,0,0,0,0,0,0,0,0,0,0,0,0,0,0,0,0,0,0,0,0,0,0,0,0,0,0,0,0,0,0,0,0,0,0,0" 
class="s4_12"
>- a bird with flapping wings. Use the butterfly available in Scratch if you like. </text>

<text 
x="684" 
y="259" 
dx="0,0,0,0,0,0,0,0,0,0,0,0,0,0,0,0,0,0,0,0,0,0,0,0,0,0,0,0,0,0,0,0,0,0,0,0" 
class="s4_12"
>Use two costumes for flapping wings.</text>

<text 
x="82" 
y="283" 
dx="0" 
class="s5_12"
></text>

<text 
x="109" 
y="283" 
dx="0,0,0,0,0,0" 
class="s6_12"
>Pillar</text>

<text 
x="149" 
y="283" 
dx="0,0,0,0,0,0,0,0,0,0,0,0,0,0,0,0,0,0,0,0,0,0,0,0,0,0,0,0,0,0,0,0,0,0,0,0,0,0,0,0,0,0,0,0,0,0,0,0,0,0,0,0,0,0,0,0,0,0,0,0,0,0,0,0,0,0,0,0,0,0,0,0,0,0,0,0,0,0,0,0,0,0,0,0,0,0,0,0,0,0,0,0,0,0,0,0,0,0,0,0,0,0,0,0,0,0,0,0,0,0,0" 
class="s4_12"
>– Draw this and make several copies as costumes (e.g. 5), then use the eraser to make one space in each pillar.</text>

<text 
x="82" 
y="308" 
dx="0" 
class="s5_12"
></text>

<text 
x="109" 
y="308" 
dx="0,0,0,0,0,0,0,0,0,0,0,0,0,0,0,0,0,0,0,0,0,0,0,0,0,0,0,0,0,0,0,0,0,0,0,0,0,0,0,0,0,0,0,0,0,0,0,0,0,0,0,0,0,0,0,0,0,0,0,0,0,0,0,0,0,0,0,0,0,0,0,0,0,0,0,0,0,0,0,0,0,0,0,0,0,0,0" 
class="s4_12"
>Enter the code below for Flappy (left) and the pillars (right); add the variables too. </text>

<text 
x="676" 
y="308" 
dx="0,0,0,0,0,0" 
class="s4_12"
>Play. </text>

<text 
x="716" 
y="308" 
dx="0,0,0,0,0,0,0,0,0,0,0,0,0,0,0,0,0,0" 
class="s4_12"
>Improve the game. </text>

<text 
x="599" 
y="347" 
dx="0,0,0,0,0,0,0,0,0,0,0,0,0,0,0,0,0,0,0,0" 
class="s4_12"
>Add these variables:</text>

<image x="50" y="337" width="528" height="505" xlink:href="12/img/2.png" />
<image x="607" y="372" width="128" height="201" xlink:href="12/img/3.png" />
<image x="974" y="1" width="280" height="283" xlink:href="12/img/4.png" />
<path fill-rule="evenodd" d="M203.9,536.9L393.3,700.5c13,-1.5,26.4,-1.8,39.6,-1c19.8,1.2,38.4,4.9,53.8,10.7c41,15.6,50.1,42.9,21,63.2c-14.6,10.2,-37.3,17.6,-63.4,20.5c-13,1.5,-26.4,1.8,-39.6,1C384.9,793.7,366.3,790,350.9,784.2c-41,-15.5,-50.1,-42.8,-21,-63.2c7.1,-5,16.2,-9.3,26.8,-12.8Z" class="g2_12" />
<path d="M203.9,536.9L393.3,700.5c13,-1.5,26.4,-1.8,39.6,-1c19.8,1.2,38.4,4.9,53.8,10.7c41,15.6,50.1,42.9,21,63.2c-14.6,10.2,-37.3,17.6,-63.4,20.5c-13,1.5,-26.4,1.8,-39.6,1C384.9,793.7,366.3,790,350.9,784.2c-41,-15.5,-50.1,-42.8,-21,-63.2c7.1,-5,16.2,-9.3,26.8,-12.8Z" class="g3_12" />
<text 
x="352" 
y="729" 
dx="0,0,0,0,0,0,0,0,0,0,0,0,0,0,0,0,0,0" 
class="s4_12"
>Changing costumes </text>

<text 
x="346" 
y="753" 
dx="0,0,0,0,0,0,0,0,0,0,0,0,0,0,0,0,0,0,0,0,0,0,0" 
class="s4_12"
>makes it look like the </text>

<text 
x="371" 
y="776" 
dx="0,0,0,0,0,0,0,0,0,0,0,0,0,0,0,0" 
class="s4_12"
>sprite is flying</text>

<path fill-rule="evenodd" d="M114,424.4l82.5,-3.1c4.2,-9.1,16.1,-16.6,31.9,-20.2c7.9,-1.8,16.5,-2.5,25,-2.1c10,0.4,19.6,2.3,27.8,5.5c18,7.2,26.3,19.7,20.8,31.5c-4.3,9.1,-16.1,16.6,-32,20.2c-7.9,1.8,-16.4,2.5,-24.9,2.2C235,458,225.4,456,217.3,452.8c-12.1,-4.8,-20,-12.1,-22,-20.1Z" class="g2_12" />
<path d="M114,424.4l82.5,-3.1c4.2,-9.1,16.1,-16.6,31.9,-20.2c7.9,-1.8,16.5,-2.5,25,-2.1c10,0.4,19.6,2.3,27.8,5.5c18,7.2,26.3,19.7,20.8,31.5c-4.3,9.1,-16.1,16.6,-32,20.2c-7.9,1.8,-16.4,2.5,-24.9,2.2C235,458,225.4,456,217.3,452.8c-12.1,-4.8,-20,-12.1,-22,-20.1Z" class="g3_12" />
<text 
x="217" 
y="424" 
dx="0,0,0,0,0,0,0,0,0" 
class="s4_12"
>Opposite </text>

<text 
x="224" 
y="447" 
dx="0,0,0,0,0,0,0" 
class="s4_12"
>of hide</text>

<path fill-rule="evenodd" d="M686.4,519.8l42,67.2c14.8,-0.9,29.6,1.3,42.6,6.3c20.2,7.8,34.3,21.6,38.1,37.5c4.3,17.9,-5,36.2,-24.6,48.2c-12.3,7.6,-27.6,12.1,-43.9,13C725.8,692.9,711,690.7,698,685.7c-20.3,-7.8,-34.3,-21.6,-38.1,-37.5c-4.3,-17.9,5,-36.2,24.6,-48.2c4.9,-3,10.3,-5.6,16.1,-7.6Z" class="g2_12" />
<path d="M686.4,519.8l42,67.2c14.8,-0.9,29.6,1.3,42.6,6.3c20.2,7.8,34.3,21.6,38.1,37.5c4.3,17.9,-5,36.2,-24.6,48.2c-12.3,7.6,-27.6,12.1,-43.9,13C725.8,692.9,711,690.7,698,685.7c-20.3,-7.8,-34.3,-21.6,-38.1,-37.5c-4.3,-17.9,5,-36.2,24.6,-48.2c4.9,-3,10.3,-5.6,16.1,-7.6Z" class="g3_12" />
<text 
x="695" 
y="618" 
dx="0,0,0,0,0,0,0,0,0,0,0,0" 
class="s4_12"
>Ticking box </text>

<text 
x="683" 
y="642" 
dx="0,0,0,0,0,0,0,0,0,0,0,0,0,0,0" 
class="s4_12"
>shows variable </text>

<text 
x="705" 
y="666" 
dx="0,0,0,0,0,0,0,0" 
class="s4_12"
>on stage</text>

<path fill-rule="evenodd" d="M1086.8,449.1l20.4,-44.5C1095,398,1088,387.5,1088.6,376.5c0.5,-10.7,8.1,-20.7,20.4,-26.7c8.1,-4,17.6,-6,27.4,-5.9c9.9,0.1,19.6,2.5,27.5,6.8c12.2,6.7,19.1,17.2,18.6,28.2c-0.6,10.7,-8.2,20.6,-20.5,26.7c-8,3.9,-17.6,6,-27.3,5.9c-3.9,-0.1,-7.7,-0.5,-11.4,-1.2Z" class="g2_12" />
<path d="M1086.8,449.1l20.4,-44.5C1095,398,1088,387.5,1088.6,376.5c0.5,-10.7,8.1,-20.7,20.4,-26.7c8.1,-4,17.6,-6,27.4,-5.9c9.9,0.1,19.6,2.5,27.5,6.8c12.2,6.7,19.1,17.2,18.6,28.2c-0.6,10.7,-8.2,20.6,-20.5,26.7c-8,3.9,-17.6,6,-27.3,5.9c-3.9,-0.1,-7.7,-0.5,-11.4,-1.2Z" class="g3_12" />
<text 
x="1109" 
y="370" 
dx="0,0,0,0,0,0,0,0" 
class="s4_12"
>Detects </text>

<text 
x="1107" 
y="394" 
dx="0,0,0,0,0,0,0,0,0" 
class="s4_12"
>collision</text>

<path fill-rule="evenodd" d="M923.8,813.5l-65.4,8.4C852,837.3,831,850,802.5,856c-12.9,2.6,-26.7,3.8,-40.6,3.4C746,859,730.6,856.5,717.1,852.1C684.2,841.5,667.6,821.4,675.8,802c6.5,-15.4,27.5,-28.1,56,-34.1c12.8,-2.6,26.7,-3.8,40.5,-3.4c16,0.4,31.4,2.9,44.9,7.3c22.2,7.2,37.4,18.8,41.9,32Z" class="g2_12" />
<path d="M923.8,813.5l-65.4,8.4C852,837.3,831,850,802.5,856c-12.9,2.6,-26.7,3.8,-40.6,3.4C746,859,730.6,856.5,717.1,852.1C684.2,841.5,667.6,821.4,675.8,802c6.5,-15.4,27.5,-28.1,56,-34.1c12.8,-2.6,26.7,-3.8,40.5,-3.4c16,0.4,31.4,2.9,44.9,7.3c22.2,7.2,37.4,18.8,41.9,32Z" class="g3_12" />
<text 
x="717" 
y="794" 
dx="0,0,0,0,0,0,0,0,0,0,0,0,0,0,0,0" 
class="s4_12"
>The next pillar </text>

<text 
x="704" 
y="818" 
dx="0,0,0,0,0,0,0,0,0,0,0,0,0,0,0,0,0,0" 
class="s4_12"
>shape is a random </text>

<text 
x="744" 
y="842" 
dx="0,0,0,0,0,0" 
class="s4_12"
>choice</text>

<path fill-rule="evenodd" d="M1086.4,706.9l24.8,-44.5c-17.6,-7.8,-26,-21.1,-21.4,-33.9c3.7,-10.4,15.6,-19.3,32.1,-23.7c8.8,-2.4,18.5,-3.4,28.1,-3c11,0.5,21.6,2.8,30.4,6.7c17.7,7.9,26.1,21.2,21.5,33.9c-3.7,10.5,-15.7,19.3,-32.1,23.8c-8.8,2.4,-18.5,3.4,-28.2,3c-3.6,-0.2,-7.2,-0.5,-10.7,-1.1Z" class="g2_12" />
<path d="M1086.4,706.9l24.8,-44.5c-17.6,-7.8,-26,-21.1,-21.4,-33.9c3.7,-10.4,15.6,-19.3,32.1,-23.7c8.8,-2.4,18.5,-3.4,28.1,-3c11,0.5,21.6,2.8,30.4,6.7c17.7,7.9,26.1,21.2,21.5,33.9c-3.7,10.5,-15.7,19.3,-32.1,23.8c-8.8,2.4,-18.5,3.4,-28.2,3c-3.6,-0.2,-7.2,-0.5,-10.7,-1.1Z" class="g3_12" />
<text 
x="1113" 
y="628" 
dx="0,0,0,0,0,0,0,0,0,0" 
class="s4_12"
>Left edge </text>

<text 
x="1118" 
y="651" 
dx="0,0,0,0,0,0,0,0" 
class="s4_12"
>of stage</text>

<path fill-rule="evenodd" d="M906.9,279.7L1084.5,167.2c-16.2,-8.1,-15.9,-20.7,0.7,-28.7c6.9,-3.3,16,-5.5,25.8,-6.3c5.8,-0.5,11.6,-0.4,17.3,0c10.1,0.9,19.3,3.3,26.2,6.7c16.2,8.2,15.8,20.7,-0.8,28.7c-6.9,3.3,-15.9,5.5,-25.8,6.3c-5.7,0.5,-11.5,0.5,-17.2,0c-4.2,-0.4,-8.2,-1,-11.9,-1.8Z" class="g2_12" />
<path d="M906.9,279.7L1084.5,167.2c-16.2,-8.1,-15.9,-20.7,0.7,-28.7c6.9,-3.3,16,-5.5,25.8,-6.3c5.8,-0.5,11.6,-0.4,17.3,0c10.1,0.9,19.3,3.3,26.2,6.7c16.2,8.2,15.8,20.7,-0.8,28.7c-6.9,3.3,-15.9,5.5,-25.8,6.3c-5.7,0.5,-11.5,0.5,-17.2,0c-4.2,-0.4,-8.2,-1,-11.9,-1.8Z" class="g3_12" />
<text 
x="1091" 
y="154" 
dx="0,0,0,0,0,0,0,0,0" 
class="s4_12"
>Like this</text>

<path fill-rule="evenodd" d="M267.3,91.1L208.5,76.8c-11.4,0.7,-23.3,1.1,-35.2,1.1c-11,0.1,-22,-0.2,-32.8,-0.8C83.7,74,40.1,62.7,30.6,48.7C18.5,31,64.2,13.8,135.3,9.2C146.8,8.5,158.6,8.1,170.5,8c11,0,22.1,0.3,32.9,0.9C260.1,12,303.7,23.3,313.2,37.3C322,50.1,300.5,63.2,257.8,71Z" class="g2_12" />
<path d="M267.3,91.1L208.5,76.8c-11.4,0.7,-23.3,1.1,-35.2,1.1c-11,0.1,-22,-0.2,-32.8,-0.8C83.7,74,40.1,62.7,30.6,48.7C18.5,31,64.2,13.8,135.3,9.2C146.8,8.5,158.6,8.1,170.5,8c11,0,22.1,0.3,32.9,0.9C260.1,12,303.7,23.3,313.2,37.3C322,50.1,300.5,63.2,257.8,71Z" class="g3_12" />
<text 
x="96" 
y="34" 
dx="0,0,0,0,0,0,0,0,0,0,0,0,0,0,0,0,0,0,0,0,0" 
class="s4_12"
>These speech bubbles </text>

<text 
x="72" 
y="58" 
dx="0,0,0,0,0,0,0,0,0,0,0,0,0,0,0,0,0,0,0,0,0,0,0,0,0,0,0,0,0,0" 
class="s4_12"
>contain helpful hints for you.</text>



<!-- Any embedded fonts defined here -->
<style type="text/css" ><![CDATA[

@font-face {
	font-family: Calibri-Bold_3z;
	src: url("fonts/Calibri-Bold_3z.woff") format("woff");
}

@font-face {
	font-family: SymbolMT_4c;
	src: url("fonts/SymbolMT_4c.woff") format("woff");
}

@font-face {
	font-family: Calibri_3_;
	src: url("fonts/Calibri_3_.woff") format("woff");
}

]]></style>

</svg>
