<?xml version="1.0" encoding="UTF-8" standalone="no"?>
<!DOCTYPE svg PUBLIC "-//W3C//DTD SVG 1.1//EN"
"http://www.w3.org/Graphics/SVG/1.1/DTD/svg11.dtd">


<!-- Page 2 -->
<svg x="0" y="0" width="909" height="1286" viewBox="0 0 909 1286" version="1.1" xmlns="http://www.w3.org/2000/svg" xmlns:xlink="http://www.w3.org/1999/xlink"
style="display: block;margin-left: auto;margin-right: auto;">
<defs>

<style type="text/css"><![CDATA[

.g3_2{
fill: none;
stroke: #ED7D31;
stroke-width: 2;
stroke-linecap: butt;
stroke-linejoin: miter;
}
.g2_2{
fill: #FFFFFF;
}
.g1_2{
fill: none;
stroke: #0563C1;
stroke-width: 1;
stroke-linecap: butt;
stroke-linejoin: miter;
}

.s4_2{
font-size: 16.81px;
font-family: Calibri_8;
fill: #000000;
}
.s2_2{
font-size: 15.28px;
font-family: Calibri_8;
fill: #0563C1;
}
.s3_2{
font-size: 19.86px;
font-family: Calibri-Light_4;
fill: #2E74B5;
}
.s1_2{
font-size: 15.28px;
font-family: Calibri_8;
fill: #000000;
}

]]></style>

</defs>
<path d="M0,0
L0,1286
L909,1286
L909,0 Z " 
fill="#FFFFFF" stroke="none" />
<text 
x="186" 
y="68" 
dx="0,0,0,0,0,0,0,0,0,0,0,0,0,0,0,0,0,0,0,0,0,0,0,0,0,0,0,0,0,0,0,0,0,0,0,0,0,0,0,0,0,0,0,0,0,0,0,0,0,0,0,0,0" 
class="s1_2"
>To print more copies, use the Dropbox folder link at </text>

<text 
x="510" 
y="68" 
dx="0,0,0,0,0,0,0,0,0,0,0,0,0,0,0,0,0,0,0,0,0,0,0,0,0,0,0,0,0,0,0,0,0" 
class="s2_2"
>http://scratch.coderdojobray.com </text>

<path d="M510.5,70.5l212,0" class="g1_2" />
<text 
x="55" 
y="112" 
dx="0,0,0,0,0,0,0,0,0,0,0,0,0,0,0,0,0,0,0,0,0,0,0,0,0,0,0,0,0,0,0,0,0,0,0,0,0,0,0,0,0,0,0,0,0,0,0,0,0,0,0,0,0,0,0,0,0,0,0,0,0,0,0,0,0,0" 
class="s3_2"
>Change the code for Sprite1 (the cat) so that it follows the track</text>

<image x="55" y="119" width="342" height="363" xlink:href="2/img/1.png" />
<text 
x="55" 
y="514" 
dx="0,0,0,0,0,0,0,0,0,0,0,0,0,0,0,0,0,0,0,0,0,0,0,0,0,0,0,0,0" 
class="s3_2"
>Save your project in a folder</text>

<text 
x="55" 
y="643" 
dx="0,0,0,0,0,0,0,0,0,0,0,0,0,0,0,0,0,0,0,0,0,0,0,0,0,0,0,0,0,0,0,0,0,0,0,0,0,0,0,0" 
class="s3_2"
>Enjoy it for a few minutes, then move on</text>

<text 
x="55" 
y="666" 
dx="0,0,0,0,0,0,0,0,0,0,0,0,0,0,0,0,0,0,0,0,0,0,0,0,0,0,0,0,0,0,0,0,0,0,0,0,0,0,0,0,0,0,0,0,0,0,0,0,0,0,0,0,0,0,0,0,0,0,0,0,0,0,0,0,0,0,0,0,0,0,0,0,0,0,0,0,0,0,0,0,0,0,0" 
class="s4_2"
>Watch the animation, show it to someone, or playa round with it for a few minutes. </text>

<text 
x="633" 
y="666" 
dx="0,0,0,0,0,0,0,0,0,0,0,0,0,0,0,0,0,0,0,0,0,0,0,0,0,0,0,0,0,0,0,0" 
class="s4_2"
>Then you’re ready for your next </text>

<text 
x="55" 
y="688" 
dx="0,0,0,0,0,0,0,0,0" 
class="s4_2"
>project. </text>

<text 
x="55" 
y="723" 
dx="0,0,0,0,0,0,0,0,0,0,0,0,0,0,0,0,0,0,0,0,0,0,0,0,0,0,0,0,0,0,0,0,0,0,0,0,0,0,0,0,0,0,0,0,0,0,0,0,0,0,0,0,0,0,0,0,0,0,0,0,0,0,0,0,0,0,0,0,0,0,0,0,0,0,0,0,0,0,0,0,0,0,0,0,0,0,0,0,0,0,0,0,0,0,0,0,0,0,0,0,0,0,0,0,0,0,0,0,0,0,0,0" 
class="s4_2"
>Grab the next handout, which helps you to build a game where a cat plays fetch with a ball thrown by a friendly </text>

<text 
x="55" 
y="745" 
dx="0,0,0,0,0,0" 
class="s4_2"
>alien.</text>

<image x="178" y="763" width="553" height="415" xlink:href="2/img/2.png" />
<path fill-rule="evenodd" d="M353.6,280.8l131.5,12.7C512,285.4,547.4,280,585.8,278.2c14.2,-0.7,28.7,-0.8,43.1,-0.5c23.2,0.5,45.9,2.4,66.8,5.4c105.9,15.4,130.7,57,48.6,81.6c-26.9,8.1,-62.2,13.5,-100.6,15.3c-14.3,0.7,-28.7,0.8,-43.1,0.5c-23.3,-0.5,-46,-2.4,-66.8,-5.4C451.4,363.1,414,334.7,448.2,310Z" class="g2_2" />
<path d="M353.6,280.8l131.5,12.7C512,285.4,547.4,280,585.8,278.2c14.2,-0.7,28.7,-0.8,43.1,-0.5c23.2,0.5,45.9,2.4,66.8,5.4c105.9,15.4,130.7,57,48.6,81.6c-26.9,8.1,-62.2,13.5,-100.6,15.3c-14.3,0.7,-28.7,0.8,-43.1,0.5c-23.3,-0.5,-46,-2.4,-66.8,-5.4C451.4,363.1,414,334.7,448.2,310Z" class="g3_2" />
<text 
x="488" 
y="308" 
dx="0,0,0,0,0,0,0,0,0,0,0,0,0,0,0,0,0,0,0,0,0,0,0,0,0,0,0,0,0,0,0,0,0,0,0,0,0" 
class="s4_2"
>As you drag in the new code, look at </text>

<text 
x="488" 
y="331" 
dx="0,0,0,0,0,0,0,0,0,0,0,0,0,0,0,0,0,0,0,0,0,0,0,0,0,0,0,0,0,0,0,0,0,0,0" 
class="s4_2"
>all the other options available in </text>

<text 
x="488" 
y="353" 
dx="0,0,0,0,0,0,0,0,0,0,0,0,0,0,0,0,0,0,0,0,0,0,0,0,0,0,0,0,0,0,0,0,0,0,0" 
class="s4_2"
>Scratch for code blocks you can use</text>

<path fill-rule="evenodd" d="M414.1,167l33.5,-9.6C470.6,140,514.9,127.2,568,122.5c17.9,-1.6,36.3,-2.2,54.7,-1.8c24,0.4,47.5,2.6,69.1,6.2c88.5,15.1,126.8,52.7,85.5,84C754.2,228.3,710,241.1,656.9,245.8c-17.9,1.6,-36.3,2.2,-54.7,1.8c-24,-0.4,-47.5,-2.6,-69.1,-6.2C467.7,230.2,427.4,206.4,431.1,181Z" class="g2_2" />
<path d="M414.1,167l33.5,-9.6C470.6,140,514.9,127.2,568,122.5c17.9,-1.6,36.3,-2.2,54.7,-1.8c24,0.4,47.5,2.6,69.1,6.2c88.5,15.1,126.8,52.7,85.5,84C754.2,228.3,710,241.1,656.9,245.8c-17.9,1.6,-36.3,2.2,-54.7,1.8c-24,-0.4,-47.5,-2.6,-69.1,-6.2C467.7,230.2,427.4,206.4,431.1,181Z" class="g3_2" />
<text 
x="484" 
y="155" 
dx="0,0,0,0,0,0,0,0,0,0,0,0,0,0,0,0,0,0,0,0,0,0,0,0,0,0,0,0,0,0,0,0,0,0,0" 
class="s4_2"
>To remove old code you don’t want, </text>

<text 
x="484" 
y="177" 
dx="0,0,0,0,0,0,0,0,0,0,0,0,0,0,0,0,0,0,0,0,0,0,0,0,0,0,0,0,0,0,0,0,0,0,0,0,0" 
class="s4_2"
>pull the block out using your mouse. </text>

<text 
x="484" 
y="199" 
dx="0,0,0,0,0,0,0,0,0,0,0,0,0,0,0,0,0,0,0,0,0,0,0,0,0,0,0,0,0,0,0,0,0" 
class="s4_2"
>Then click with your right mouse </text>

<text 
x="484" 
y="221" 
dx="0,0,0,0,0,0,0,0,0,0,0,0,0,0,0,0,0,0,0,0,0,0,0,0,0" 
class="s4_2"
>button to delete it fully</text>

<path fill-rule="evenodd" d="M451,427.7l44.6,-1.8c28.4,-4.6,65.5,-7.5,105.2,-8.2c8.5,-0.2,17.1,-0.2,25.6,-0.2c11.8,0,23.5,0.3,35,0.7c134.6,5,184.4,33.5,86.3,49.3c-28.5,4.6,-65.5,7.5,-105.3,8.2c-8.5,0.2,-17,0.2,-25.6,0.2c-11.8,0,-23.5,-0.3,-34.9,-0.7C473.7,471.2,413,451.7,457,435.1Z" class="g2_2" />
<path d="M451,427.7l44.6,-1.8c28.4,-4.6,65.5,-7.5,105.2,-8.2c8.5,-0.2,17.1,-0.2,25.6,-0.2c11.8,0,23.5,0.3,35,0.7c134.6,5,184.4,33.5,86.3,49.3c-28.5,4.6,-65.5,7.5,-105.3,8.2c-8.5,0.2,-17,0.2,-25.6,0.2c-11.8,0,-23.5,-0.3,-34.9,-0.7C473.7,471.2,413,451.7,457,435.1Z" class="g3_2" />
<text 
x="495" 
y="442" 
dx="0,0,0,0,0,0,0,0,0,0,0,0,0,0,0,0,0,0,0,0,0,0,0,0,0,0,0,0,0,0,0,0,0,0,0,0" 
class="s4_2"
>Press the green flag when finished, </text>

<text 
x="495" 
y="464" 
dx="0,0,0,0,0,0,0,0,0,0,0,0,0,0,0,0" 
class="s4_2"
>to run your code</text>

<path fill-rule="evenodd" d="M192.1,540.5l62.5,-3c39.2,-7.4,90,-12.1,144.6,-13.5c13.7,-0.3,27.6,-0.4,41.5,-0.3c20.1,0.1,39.9,0.7,59.2,1.8c181.3,9.8,242.3,55.2,108.3,80.5c-39.2,7.4,-90,12.1,-144.6,13.5c-13.7,0.3,-27.6,0.5,-41.5,0.4c-20.1,-0.2,-39.9,-0.8,-59.2,-1.8C218,610.2,140.8,579.2,200.5,552.7Z" class="g2_2" />
<path d="M192.1,540.5l62.5,-3c39.2,-7.4,90,-12.1,144.6,-13.5c13.7,-0.3,27.6,-0.4,41.5,-0.3c20.1,0.1,39.9,0.7,59.2,1.8c181.3,9.8,242.3,55.2,108.3,80.5c-39.2,7.4,-90,12.1,-144.6,13.5c-13.7,0.3,-27.6,0.5,-41.5,0.4c-20.1,-0.2,-39.9,-0.8,-59.2,-1.8C218,610.2,140.8,579.2,200.5,552.7Z" class="g3_2" />
<text 
x="253" 
y="554" 
dx="0,0,0,0,0,0,0,0,0,0,0,0,0,0,0,0,0,0,0,0,0,0,0,0,0,0,0,0,0,0,0,0,0,0,0,0,0,0,0,0,0,0,0,0,0,0,0,0" 
class="s4_2"
>Use File&gt;Save from the Scratch menu, just above </text>

<text 
x="253" 
y="576" 
dx="0,0,0,0,0,0,0,0,0,0,0" 
class="s4_2"
>the stage. </text>

<text 
x="328" 
y="576" 
dx="0,0,0,0,0,0,0,0,0,0,0,0,0,0,0,0,0,0,0,0,0,0,0,0,0,0,0,0,0,0,0,0,0,0,0,0,0,0,0,0,0,0,0" 
class="s4_2"
>Pick a folder (e.g. your desktop) and give </text>

<text 
x="253" 
y="598" 
dx="0,0,0,0,0,0,0,0,0,0,0,0,0,0,0,0" 
class="s4_2"
>your file a name</text>



<!-- Any embedded fonts defined here -->
<style type="text/css" ><![CDATA[

@font-face {
	font-family: Calibri_8;
	src: url("fonts/Calibri_8.woff") format("woff");
}

@font-face {
	font-family: Calibri-Light_4;
	src: url("fonts/Calibri-Light_4.woff") format("woff");
}

]]></style>

</svg>
