<?xml version="1.0" encoding="UTF-8" standalone="no"?>
<!DOCTYPE svg PUBLIC "-//W3C//DTD SVG 1.1//EN"
"http://www.w3.org/Graphics/SVG/1.1/DTD/svg11.dtd">


<!-- Page 3 -->
<svg x="0" y="0" width="909" height="1286" viewBox="0 0 909 1286" version="1.1" xmlns="http://www.w3.org/2000/svg" xmlns:xlink="http://www.w3.org/1999/xlink"
style="display: block;margin-left: auto;margin-right: auto;">
<defs>

<style type="text/css"><![CDATA[

.g3_3{
fill: #FFFFFF;
}
.g4_3{
fill: none;
stroke: #ED7D31;
stroke-width: 2;
stroke-linecap: butt;
stroke-linejoin: miter;
}
.g2_3{
fill: none;
stroke: #2E74B5;
stroke-width: 3;
stroke-linecap: butt;
stroke-linejoin: miter;
}
.g1_3{
fill: none;
stroke: #0563C1;
stroke-width: 1;
stroke-linecap: butt;
stroke-linejoin: miter;
}

.s2_3{
font-size: 15.28px;
font-family: Calibri_t;
fill: #0563C1;
}
.s6_3{
font-size: 16.81px;
font-family: Calibri_t;
fill: #000000;
}
.s3_3{
font-size: 24.44px;
font-family: Calibri-Light_r;
fill: #2E74B5;
}
.s1_3{
font-size: 15.28px;
font-family: Calibri_t;
fill: #000000;
}
.s4_3{
font-size: 24.44px;
font-family: Calibri-Light-Bold_p;
fill: #2E74B5;
}
.s5_3{
font-size: 19.86px;
font-family: Calibri-Light_r;
fill: #2E74B5;
}

]]></style>

</defs>
<path d="M0,0
L0,1286
L909,1286
L909,0 Z " 
fill="#FFFFFF" stroke="none" />
<text 
x="186" 
y="68" 
dx="0,0,0,0,0,0,0,0,0,0,0,0,0,0,0,0,0,0,0,0,0,0,0,0,0,0,0,0,0,0,0,0,0,0,0,0,0,0,0,0,0,0,0,0,0,0,0,0,0,0,0,0,0" 
class="s1_3"
>To print more copies, use the Dropbox folder link at </text>

<text 
x="510" 
y="68" 
dx="0,0,0,0,0,0,0,0,0,0,0,0,0,0,0,0,0,0,0,0,0,0,0,0,0,0,0,0,0,0,0,0,0" 
class="s2_3"
>http://scratch.coderdojobray.com </text>

<path d="M510.5,70.5l212,0" class="g1_3" />
<text 
x="55" 
y="134" 
dx="0,0,0,0,0,0,0,0,0,0,0,0,0" 
class="s3_3"
>Step by Step </text>

<text 
x="182" 
y="134" 
dx="0,0,0,0,0,0" 
class="s4_3"
>Part 2</text>

<text 
x="241" 
y="134" 
dx="0" 
class="s3_3"
>:</text>

<path d="M182.5,138.5l59,0" class="g2_3" />
<text 
x="55" 
y="165" 
dx="0,0,0,0,0,0,0,0,0,0,0,0,0,0,0,0,0,0,0,0,0,0,0,0,0,0,0,0,0,0,0,0,0,0,0,0,0,0,0,0,0,0,0,0,0,0,0,0,0,0,0,0,0,0,0,0,0,0,0,0,0,0,0,0,0,0,0,0,0,0,0,0,0,0,0,0,0,0,0,0,0,0,0,0,0,0,0" 
class="s5_3"
>Start a new project, in which a cat plays fetch with a ball thrown by a friendly alien.</text>

<text 
x="55" 
y="226" 
dx="0,0,0,0,0,0,0,0,0,0,0,0,0,0,0,0,0,0,0,0,0,0,0,0,0,0,0,0,0,0,0,0" 
class="s5_3"
>Add new sprites from the Library</text>

<image x="55" y="233" width="279" height="106" xlink:href="3/img/1.png" />
<image x="338" y="306" width="120" height="33" xlink:href="3/img/2.png" />
<text 
x="55" 
y="371" 
dx="0,0,0,0,0,0,0,0,0,0,0,0,0,0,0,0,0,0,0,0,0,0,0,0,0,0,0,0,0,0,0,0,0,0,0,0,0,0,0,0,0" 
class="s5_3"
>Get ready to track the score in your game</text>

<image x="55" y="378" width="140" height="140" xlink:href="3/img/3.png" />
<text 
x="55" 
y="551" 
dx="0,0,0,0,0,0,0,0,0,0,0,0,0,0,0,0,0,0,0,0,0,0,0,0,0,0,0,0,0,0,0,0,0,0,0,0,0,0,0,0,0,0,0,0,0,0,0,0,0,0,0,0,0,0,0,0,0,0,0,0,0,0,0,0,0,0,0,0,0,0,0,0,0,0,0,0" 
class="s5_3"
>Add these code blocks for Nano, so that he can send the command ‘throw ball’</text>

<image x="55" y="558" width="229" height="265" xlink:href="3/img/4.png" />
<text 
x="55" 
y="855" 
dx="0,0,0,0,0,0,0,0,0,0,0,0,0,0,0,0,0,0,0,0,0,0,0,0,0,0,0,0,0,0,0,0,0,0,0,0,0,0,0,0,0,0,0,0,0,0,0,0,0,0,0,0,0,0,0,0,0,0,0,0,0,0,0,0,0,0,0,0,0,0,0,0,0,0,0,0,0" 
class="s5_3"
>Add these code blocks for Ball, so that it responds to the throw ball command</text>

<image x="58" y="862" width="352" height="166" xlink:href="3/img/5.png" />
<path fill-rule="evenodd" d="M724.1,159.4l16.5,-1.9c9.8,-4.7,22.3,-7.8,35.9,-8.9c8.6,-0.7,17.5,-0.5,26.1,0.5c15.7,1.8,29.5,6.2,38.9,12.6c18.8,12.8,15.6,30.4,-7.5,41.4c-9.7,4.7,-22.2,7.8,-35.8,8.8c-8.7,0.7,-17.6,0.6,-26.1,-0.4c-15.7,-1.8,-29.6,-6.3,-38.9,-12.6c-13.5,-9.1,-16.1,-21,-6.9,-31.3Z" class="g3_3" />
<path d="M724.1,159.4l16.5,-1.9c9.8,-4.7,22.3,-7.8,35.9,-8.9c8.6,-0.7,17.5,-0.5,26.1,0.5c15.7,1.8,29.5,6.2,38.9,12.6c18.8,12.8,15.6,30.4,-7.5,41.4c-9.7,4.7,-22.2,7.8,-35.8,8.8c-8.7,0.7,-17.6,0.6,-26.1,-0.4c-15.7,-1.8,-29.6,-6.3,-38.9,-12.6c-13.5,-9.1,-16.1,-21,-6.9,-31.3Z" class="g4_3" />
<text 
x="740" 
y="173" 
dx="0,0,0,0,0,0,0,0,0,0,0,0" 
class="s6_3"
>Use File&gt;New</text>

<path fill-rule="evenodd" d="M192.2,438.7L300,439.9c42.3,-5.7,99.6,-9.2,161.2,-10c9.6,-0.1,19.3,-0.2,29,-0.1c12.1,0,24.3,0.1,36.3,0.3c196.3,4,281.9,35.3,146.3,53.6c-42.2,5.7,-99.6,9.3,-161.2,10.1c-9.6,0.1,-19.3,0.1,-29,0.1c-12.1,0,-24.3,-0.1,-36.3,-0.4C288.1,490.3,190.9,469.1,248.4,450.3Z" class="g3_3" />
<path d="M192.2,438.7L300,439.9c42.3,-5.7,99.6,-9.2,161.2,-10c9.6,-0.1,19.3,-0.2,29,-0.1c12.1,0,24.3,0.1,36.3,0.3c196.3,4,281.9,35.3,146.3,53.6c-42.2,5.7,-99.6,9.3,-161.2,10.1c-9.6,0.1,-19.3,0.1,-29,0.1c-12.1,0,-24.3,-0.1,-36.3,-0.4C288.1,490.3,190.9,469.1,248.4,450.3Z" class="g4_3" />
<text 
x="306" 
y="455" 
dx="0,0,0,0,0,0,0,0,0,0,0,0,0,0,0,0,0,0,0,0,0,0,0,0,0,0,0,0,0,0,0,0,0,0,0,0,0,0,0,0,0,0,0,0,0,0,0,0,0,0,0,0,0" 
class="s6_3"
>Create two ‘variables’ that will store the score and </text>

<text 
x="306" 
y="477" 
dx="0,0,0,0,0,0,0,0,0,0,0,0,0,0,0,0,0,0,0,0,0,0,0,0,0,0,0,0,0,0,0,0,0,0,0,0,0,0,0,0,0,0,0,0,0,0,0,0,0,0,0" 
class="s6_3"
>the amount of fuel remaining before its ‘game over’</text>

<path fill-rule="evenodd" d="M364.6,311.1l8.9,-8c-14.5,-8,-8.4,-19.1,13.4,-24.2c6,-1.5,12.9,-2.3,20.1,-2.6c4.8,-0.2,9.6,-0.1,14.3,0.3c11.4,1,21.4,3.5,28,7.1c14.4,8,8.3,19.1,-13.5,24.2c-6,1.5,-12.9,2.4,-20.1,2.6c-4.8,0.2,-9.6,0.1,-14.3,-0.3c-5.5,-0.5,-10.8,-1.3,-15.5,-2.5Z" class="g3_3" />
<path d="M364.6,311.1l8.9,-8c-14.5,-8,-8.4,-19.1,13.4,-24.2c6,-1.5,12.9,-2.3,20.1,-2.6c4.8,-0.2,9.6,-0.1,14.3,0.3c11.4,1,21.4,3.5,28,7.1c14.4,8,8.3,19.1,-13.5,24.2c-6,1.5,-12.9,2.4,-20.1,2.6c-4.8,0.2,-9.6,0.1,-14.3,-0.3c-5.5,-0.5,-10.8,-1.3,-15.5,-2.5Z" class="g4_3" />
<text 
x="379" 
y="297" 
dx="0,0,0,0,0,0,0,0,0" 
class="s6_3"
>Use this </text>

<path fill-rule="evenodd" d="M254.3,647.9l47.1,-16.5c5.3,-24.3,27.3,-45.5,59.2,-57.4c19.6,-7.2,41.9,-10.6,64.2,-9.6c24.3,1.1,47.4,7.2,66.3,17.6c31.7,17.4,47.6,44.8,41.6,72.1c-5.3,24.3,-27.2,45.5,-59.2,57.4c-19.5,7.2,-41.8,10.5,-64.1,9.6C385.1,720,361.9,713.8,343.1,703.5C323.4,692.7,309.5,677.9,303.5,661.3Z" class="g3_3" />
<path d="M254.3,647.9l47.1,-16.5c5.3,-24.3,27.3,-45.5,59.2,-57.4c19.6,-7.2,41.9,-10.6,64.2,-9.6c24.3,1.1,47.4,7.2,66.3,17.6c31.7,17.4,47.6,44.8,41.6,72.1c-5.3,24.3,-27.2,45.5,-59.2,57.4c-19.5,7.2,-41.8,10.5,-64.1,9.6C385.1,720,361.9,713.8,343.1,703.5C323.4,692.7,309.5,677.9,303.5,661.3Z" class="g4_3" />
<text 
x="334" 
y="603" 
dx="0,0,0,0,0,0,0,0,0,0,0,0,0,0,0,0,0,0,0,0" 
class="s6_3"
>This block gets the </text>

<text 
x="334" 
y="625" 
dx="0,0,0,0,0,0,0,0,0,0,0,0,0,0,0,0,0,0,0,0,0,0,0,0" 
class="s6_3"
>game started correctly. </text>

<text 
x="334" 
y="647" 
dx="0,0,0,0,0,0,0,0,0,0,0,0,0,0,0,0,0" 
class="s6_3"
>Coders call this </text>

<text 
x="334" 
y="669" 
dx="0,0,0,0,0,0,0,0,0,0,0,0,0,0,0,0" 
class="s6_3"
>‘initializing’. </text>

<text 
x="424" 
y="669" 
dx="0,0,0,0,0,0,0,0,0,0,0,0,0,0" 
class="s6_3"
>It’s a really </text>

<text 
x="334" 
y="692" 
dx="0,0,0,0,0,0,0,0,0" 
class="s6_3"
>good idea</text>

<path fill-rule="evenodd" d="M268.6,795.7l49.8,-15.6c-23,-22.9,27.7,-46.7,113.7,-53.5c14.8,-1.2,30.1,-1.8,45.5,-1.9c13.6,-0.1,27.2,0.3,40.5,1.1c60.7,3.6,109,15.9,124.9,31.7c22.9,22.8,-27.8,46.7,-113.8,53.5c-14.7,1.2,-30,1.8,-45.5,1.9c-13.6,0.1,-27.2,-0.3,-40.4,-1.1c-38.8,-2.3,-73.2,-8.2,-97,-16.6Z" class="g3_3" />
<path d="M268.6,795.7l49.8,-15.6c-23,-22.9,27.7,-46.7,113.7,-53.5c14.8,-1.2,30.1,-1.8,45.5,-1.9c13.6,-0.1,27.2,0.3,40.5,1.1c60.7,3.6,109,15.9,124.9,31.7c22.9,22.8,-27.8,46.7,-113.8,53.5c-14.7,1.2,-30,1.8,-45.5,1.9c-13.6,0.1,-27.2,-0.3,-40.4,-1.1c-38.8,-2.3,-73.2,-8.2,-97,-16.6Z" class="g4_3" />
<text 
x="362" 
y="753" 
dx="0,0,0,0,0,0,0,0,0,0,0,0,0,0,0,0,0,0,0,0,0,0,0,0,0,0,0,0,0,0,0,0,0,0,0,0" 
class="s6_3"
>This code listens for the space key </text>

<text 
x="362" 
y="776" 
dx="0,0,0,0,0,0,0,0,0,0,0,0,0,0,0,0,0,0,0,0,0,0,0,0,0,0,0,0,0,0,0,0,0" 
class="s6_3"
>to be pressed by you, then sends </text>

<text 
x="362" 
y="798" 
dx="0,0,0,0,0,0,0,0,0,0,0,0,0,0,0,0,0,0,0,0,0,0,0,0" 
class="s6_3"
>a command to all sprites</text>

<path fill-rule="evenodd" d="M400.4,1009.2l58.5,-6.5C477.5,988,524.4,976.9,582,973.6c13.2,-0.8,26.6,-1.1,40,-1.1c15.8,0.1,31.3,0.8,46.3,2c89,7.4,138.6,32.8,109.2,56.1c-18.7,14.7,-65.5,25.8,-123.2,29.1c-13.1,0.8,-26.5,1.1,-40,1.1C598.6,1060.7,583,1060,568,1058.7c-66.2,-5.4,-113,-21.1,-117.4,-39.3Z" class="g3_3" />
<path d="M400.4,1009.2l58.5,-6.5C477.5,988,524.4,976.9,582,973.6c13.2,-0.8,26.6,-1.1,40,-1.1c15.8,0.1,31.3,0.8,46.3,2c89,7.4,138.6,32.8,109.2,56.1c-18.7,14.7,-65.5,25.8,-123.2,29.1c-13.1,0.8,-26.5,1.1,-40,1.1C598.6,1060.7,583,1060,568,1058.7c-66.2,-5.4,-113,-21.1,-117.4,-39.3Z" class="g4_3" />
<text 
x="499" 
y="1001" 
dx="0,0,0,0,0,0,0,0,0,0,0,0,0,0,0,0,0,0,0,0,0,0,0,0,0,0,0,0,0,0,0,0,0" 
class="s6_3"
>This code makes the direction of </text>

<text 
x="499" 
y="1023" 
dx="0,0,0,0,0,0,0,0,0,0,0,0,0,0,0,0,0,0,0,0,0,0,0,0,0,0,0,0,0,0,0,0,0,0,0" 
class="s6_3"
>the ball a surprise every time – a </text>

<text 
x="499" 
y="1046" 
dx="0,0,0,0,0,0,0,0,0,0,0,0,0,0,0" 
class="s6_3"
>‘random number’</text>

<path fill-rule="evenodd" d="M204.3,974.9L435.4,928c-6.5,-19.8,15.3,-39.4,54.2,-48.7c13.8,-3.2,29,-5.1,44.6,-5.3c14.1,-0.2,28.1,0.9,41.3,3.3c34,6.2,58.4,20.2,63.9,36.7c6.5,19.7,-15.4,39.3,-54.2,48.6c-13.8,3.3,-29,5.1,-44.6,5.3c-14.1,0.2,-28.1,-0.9,-41.3,-3.3c-21.2,-3.8,-39.1,-10.8,-50.7,-19.7Z" class="g3_3" />
<path d="M204.3,974.9L435.4,928c-6.5,-19.8,15.3,-39.4,54.2,-48.7c13.8,-3.2,29,-5.1,44.6,-5.3c14.1,-0.2,28.1,0.9,41.3,3.3c34,6.2,58.4,20.2,63.9,36.7c6.5,19.7,-15.4,39.3,-54.2,48.6c-13.8,3.3,-29,5.1,-44.6,5.3c-14.1,0.2,-28.1,-0.9,-41.3,-3.3c-21.2,-3.8,-39.1,-10.8,-50.7,-19.7Z" class="g4_3" />
<text 
x="464" 
y="904" 
dx="0,0,0,0,0,0,0,0,0,0,0,0,0,0,0,0,0,0,0" 
class="s6_3"
>This code makes it </text>

<text 
x="464" 
y="926" 
dx="0,0,0,0,0,0,0,0,0,0,0,0,0,0,0" 
class="s6_3"
>look like Nano </text>

<text 
x="464" 
y="948" 
dx="0,0,0,0,0,0,0,0,0,0,0,0,0,0,0" 
class="s6_3"
>throws the ball</text>

<image x="706" y="226" width="177" height="140" xlink:href="3/img/6.png" />
<image x="699" y="222" width="167" height="125" xlink:href="3/img/7.png" />


<!-- Any embedded fonts defined here -->
<style type="text/css" ><![CDATA[

@font-face {
	font-family: Calibri_t;
	src: url("fonts/Calibri_t.woff") format("woff");
}

@font-face {
	font-family: Calibri-Light_r;
	src: url("fonts/Calibri-Light_r.woff") format("woff");
}

@font-face {
	font-family: Calibri-Light-Bold_p;
	src: url("fonts/Calibri-Light-Bold_p.woff") format("woff");
}

]]></style>

</svg>
