<?xml version="1.0" encoding="UTF-8" standalone="no"?>
<!DOCTYPE svg PUBLIC "-//W3C//DTD SVG 1.1//EN"
"http://www.w3.org/Graphics/SVG/1.1/DTD/svg11.dtd">


<!-- Page 4 -->
<svg x="0" y="0" width="909" height="1286" viewBox="0 0 909 1286" version="1.1" xmlns="http://www.w3.org/2000/svg" xmlns:xlink="http://www.w3.org/1999/xlink"
style="display: block;margin-left: auto;margin-right: auto;">
<defs>

<style type="text/css"><![CDATA[

.g3_4{
fill: none;
stroke: #ED7D31;
stroke-width: 2;
stroke-linecap: butt;
stroke-linejoin: miter;
}
.g2_4{
fill: #FFFFFF;
}
.g1_4{
fill: none;
stroke: #0563C1;
stroke-width: 1;
stroke-linecap: butt;
stroke-linejoin: miter;
}

.s4_4{
font-size: 19.86px;
font-family: Calibri-Light_r;
fill: #2E74B5;
}
.s2_4{
font-size: 15.28px;
font-family: Calibri_t;
fill: #0563C1;
}
.s3_4{
font-size: 16.81px;
font-family: Calibri-BoldItalic_17;
fill: #000000;
}
.s5_4{
font-size: 16.81px;
font-family: Calibri_t;
fill: #000000;
}
.s1_4{
font-size: 15.28px;
font-family: Calibri_t;
fill: #000000;
}

]]></style>

</defs>
<path d="M0,0
L0,1286
L909,1286
L909,0 Z " 
fill="#FFFFFF" stroke="none" />
<text 
x="186" 
y="68" 
dx="0,0,0,0,0,0,0,0,0,0,0,0,0,0,0,0,0,0,0,0,0,0,0,0,0,0,0,0,0,0,0,0,0,0,0,0,0,0,0,0,0,0,0,0,0,0,0,0,0,0,0,0,0" 
class="s1_4"
>To print more copies, use the Dropbox folder link at </text>

<text 
x="510" 
y="68" 
dx="0,0,0,0,0,0,0,0,0,0,0,0,0,0,0,0,0,0,0,0,0,0,0,0,0,0,0,0,0,0,0,0,0" 
class="s2_4"
>http://scratch.coderdojobray.com </text>

<path d="M510.5,70.5l212,0" class="g1_4" />
<text 
x="55" 
y="109" 
dx="0,0,0,0,0,0,0,0,0,0,0,0,0,0,0,0,0,0,0,0,0,0" 
class="s3_4"
>Turn the page over &gt;&gt;&gt;</text>

<image x="55" y="127" width="301" height="411" xlink:href="4/img/1.png" />
<text 
x="55" 
y="570" 
dx="0,0,0,0,0,0,0,0,0,0,0,0,0,0,0,0,0,0,0,0,0,0,0,0,0,0,0,0,0,0,0,0,0,0,0,0,0,0,0,0,0,0,0,0,0,0,0,0,0,0,0,0,0,0,0,0,0,0,0,0,0,0,0,0,0,0,0,0,0,0,0,0,0,0,0,0,0,0,0,0,0,0,0,0,0,0,0,0,0,0,0,0,0,0,0,0,0,0" 
class="s4_4"
>Add these code blocks for the cat, Sprite1, so that he can fetch the ball by following your mouse </text>

<text 
x="55" 
y="596" 
dx="0,0,0,0,0,0,0" 
class="s4_4"
>pointer</text>

<image x="55" y="603" width="226" height="286" xlink:href="4/img/2.png" />
<text 
x="55" 
y="920" 
dx="0,0,0,0,0,0,0,0,0,0,0,0,0,0,0,0,0,0,0,0,0,0,0,0,0,0,0,0,0,0,0,0,0,0,0,0,0,0,0,0,0,0,0,0,0,0,0,0,0,0,0,0,0,0,0,0,0,0,0,0,0,0,0,0,0,0,0,0,0,0,0,0,0,0,0,0,0" 
class="s4_4"
>Play the game and see how many fetches you can get before your fuel runs out.</text>

<text 
x="55" 
y="944" 
dx="0,0,0,0,0,0,0,0,0,0,0,0,0,0,0,0,0,0,0,0,0,0,0,0,0,0,0,0,0,0,0,0,0,0,0,0,0,0,0,0,0,0,0,0,0,0,0,0,0,0,0,0,0,0,0,0,0,0,0,0,0,0,0,0,0,0,0,0,0,0,0,0,0,0,0,0,0,0,0,0,0,0" 
class="s5_4"
>Press the green flag, then hit the spacebar to throw and move your mouse to fetch.</text>

<text 
x="55" 
y="981" 
dx="0,0,0,0,0,0,0,0,0,0,0,0,0" 
class="s4_4"
>Save the game</text>

<text 
x="55" 
y="1004" 
dx="0,0,0,0,0,0,0,0,0,0,0,0,0,0,0,0,0,0,0,0,0,0,0,0,0,0,0,0,0,0,0,0" 
class="s5_4"
>You already know how to do that.</text>

<text 
x="55" 
y="1041" 
dx="0,0,0,0,0,0,0,0,0,0,0,0,0,0,0" 
class="s4_4"
>Change the game</text>

<text 
x="55" 
y="1065" 
dx="0,0,0,0,0,0,0,0,0,0,0,0,0,0,0,0,0,0,0,0,0,0,0,0,0,0,0,0,0,0,0,0,0,0,0,0,0,0,0,0,0,0,0,0,0,0,0,0,0,0,0,0,0,0,0,0,0,0,0,0,0,0,0,0,0,0,0,0,0,0,0,0,0" 
class="s5_4"
>Try pulling out some code blocks to see what effect that has on the game.</text>

<text 
x="55" 
y="1099" 
dx="0,0,0,0,0,0,0,0,0,0,0,0,0,0,0,0,0,0,0,0,0,0,0,0,0,0,0,0,0,0,0,0,0,0,0,0,0,0,0,0,0,0,0,0,0,0,0,0,0,0,0,0,0,0,0,0,0,0,0,0,0,0,0,0,0,0,0,0,0,0,0,0,0,0,0,0,0,0,0,0,0,0,0,0,0,0,0,0,0,0,0,0,0,0,0,0,0,0,0,0,0,0,0,0,0,0,0,0,0,0,0,0,0,0" 
class="s5_4"
>Change the game to make it more fun to play – e.g. make it harder to score, make the ball move faster and come up </text>

<text 
x="55" 
y="1121" 
dx="0,0,0,0,0,0,0,0,0,0,0,0,0,0,0,0,0,0,0,0" 
class="s5_4"
>with your own ideas.</text>

<text 
x="55" 
y="1156" 
dx="0,0,0,0,0,0,0,0,0,0,0,0,0,0,0,0,0,0,0,0,0,0,0,0,0,0,0,0,0,0,0,0,0,0,0,0,0,0,0,0,0,0,0,0,0,0,0,0,0,0,0,0,0,0,0,0,0,0,0,0,0,0,0,0,0,0,0,0,0,0,0,0,0,0,0,0,0,0,0,0,0,0,0,0,0,0,0,0" 
class="s5_4"
>Move onto another project when you are ready (grab a handout or start your own project).</text>

<path fill-rule="evenodd" d="M343.1,204.2l53.5,-10.3c8.3,-19.4,57.3,-35.5,123.3,-40.6c14.6,-1.1,29.8,-1.7,45,-1.6c16.1,0,32.2,0.7,47.6,2.1c77.5,6.8,127.2,28.8,117.3,51.9c-8.4,19.4,-57.3,35.5,-123.3,40.6c-14.7,1.1,-29.8,1.7,-45,1.6c-16.2,0,-32.2,-0.7,-47.7,-2.1C458.6,240.9,415.9,228.2,401,212.2Z" class="g2_4" />
<path d="M343.1,204.2l53.5,-10.3c8.3,-19.4,57.3,-35.5,123.3,-40.6c14.6,-1.1,29.8,-1.7,45,-1.6c16.1,0,32.2,0.7,47.6,2.1c77.5,6.8,127.2,28.8,117.3,51.9c-8.4,19.4,-57.3,35.5,-123.3,40.6c-14.7,1.1,-29.8,1.7,-45,1.6c-16.2,0,-32.2,-0.7,-47.7,-2.1C458.6,240.9,415.9,228.2,401,212.2Z" class="g3_4" />
<text 
x="444" 
y="182" 
dx="0,0,0,0,0,0,0,0,0,0,0,0,0,0,0,0,0,0,0,0,0,0,0,0,0,0,0,0,0,0,0,0,0,0,0,0" 
class="s5_4"
>This code checks to see if Sprite1, </text>

<text 
x="444" 
y="204" 
dx="0,0,0,0,0,0,0,0,0,0,0,0,0,0,0,0,0,0,0,0,0,0,0,0,0,0,0,0,0,0" 
class="s5_4"
>the cat, has caught the ball. </text>

<text 
x="640" 
y="204" 
dx="0,0,0,0,0,0" 
class="s5_4"
>Every </text>

<text 
x="444" 
y="226" 
dx="0,0,0,0,0,0,0,0,0,0,0,0,0,0,0,0,0,0,0,0,0,0,0,0,0,0,0" 
class="s5_4"
>‘fetch’ increases the score</text>

<path fill-rule="evenodd" d="M335.1,325.6l53.5,-10.2c8.3,-19.5,57.2,-35.6,123.2,-40.6c14.7,-1.2,29.9,-1.7,45.1,-1.7c16.1,0.1,32.2,0.8,47.6,2.2c77.5,6.8,127.2,28.8,117.3,51.8c-8.4,19.5,-57.3,35.6,-123.3,40.6c-14.7,1.2,-29.8,1.7,-45,1.7c-16.2,-0.1,-32.3,-0.8,-47.7,-2.1C450.6,362.4,407.9,349.7,393,333.7Z" class="g2_4" />
<path d="M335.1,325.6l53.5,-10.2c8.3,-19.5,57.2,-35.6,123.2,-40.6c14.7,-1.2,29.9,-1.7,45.1,-1.7c16.1,0.1,32.2,0.8,47.6,2.2c77.5,6.8,127.2,28.8,117.3,51.8c-8.4,19.5,-57.3,35.6,-123.3,40.6c-14.7,1.2,-29.8,1.7,-45,1.7c-16.2,-0.1,-32.3,-0.8,-47.7,-2.1C450.6,362.4,407.9,349.7,393,333.7Z" class="g3_4" />
<text 
x="436" 
y="303" 
dx="0,0,0,0,0,0,0,0,0,0,0,0,0,0,0,0,0,0,0,0,0,0,0,0,0,0,0,0,0,0,0,0,0" 
class="s5_4"
>Otherwise, the Cat’s fuel drops. </text>

<text 
x="659" 
y="303" 
dx="0,0,0" 
class="s5_4"
>If </text>

<text 
x="436" 
y="325" 
dx="0,0,0,0,0,0,0,0,0,0,0,0,0,0,0,0,0,0,0,0,0,0,0,0,0,0,0,0,0,0" 
class="s5_4"
>the ball hits the edge of the </text>

<text 
x="436" 
y="347" 
dx="0,0,0,0,0,0,0,0,0,0,0,0,0,0,0,0,0,0,0,0,0,0,0" 
class="s5_4"
>screen, it bounces back</text>

<path fill-rule="evenodd" d="M350,460.3l53.4,-7.7c8.8,-15.3,62.6,-27.8,133.1,-30.9c11.4,-0.5,22.9,-0.8,34.5,-0.8c12.2,0.1,24.3,0.4,36.2,0.9c83.6,4.1,139.9,21.3,129.5,39.6c-8.8,15.4,-62.6,27.9,-133.1,31c-11.4,0.5,-22.9,0.7,-34.5,0.7c-12.2,0,-24.3,-0.3,-36.2,-0.9C472.2,489.3,424,479.3,407.9,466.4Z" class="g2_4" />
<path d="M350,460.3l53.4,-7.7c8.8,-15.3,62.6,-27.8,133.1,-30.9c11.4,-0.5,22.9,-0.8,34.5,-0.8c12.2,0.1,24.3,0.4,36.2,0.9c83.6,4.1,139.9,21.3,129.5,39.6c-8.8,15.4,-62.6,27.9,-133.1,31c-11.4,0.5,-22.9,0.7,-34.5,0.7c-12.2,0,-24.3,-0.3,-36.2,-0.9C472.2,489.3,424,479.3,407.9,466.4Z" class="g3_4" />
<text 
x="451" 
y="447" 
dx="0,0,0,0,0,0,0,0,0,0,0,0,0,0,0,0,0,0,0,0,0,0,0,0,0,0,0,0,0,0,0,0,0,0,0,0,0" 
class="s5_4"
>If the fuel level gets too low (&lt;0), </text>

<text 
x="451" 
y="469" 
dx="0,0,0,0,0,0,0,0,0,0,0,0,0,0" 
class="s5_4"
>it’s game over</text>

<path fill-rule="evenodd" d="M265.2,670.1L318.7,660c8.3,-19,57.7,-34.8,124.1,-39.7c14.4,-1,29.2,-1.5,44.1,-1.5c15.8,0.1,31.5,0.7,46.6,2c78,6.5,128.3,28.1,118.4,50.7c-8.4,19.1,-57.8,34.9,-124.2,39.7c-14.4,1.1,-29.2,1.6,-44.1,1.6c-15.7,-0.1,-31.4,-0.7,-46.6,-2C381.3,706.1,338.1,693.7,323.1,677.9Z" class="g2_4" />
<path d="M265.2,670.1L318.7,660c8.3,-19,57.7,-34.8,124.1,-39.7c14.4,-1,29.2,-1.5,44.1,-1.5c15.8,0.1,31.5,0.7,46.6,2c78,6.5,128.3,28.1,118.4,50.7c-8.4,19.1,-57.8,34.9,-124.2,39.7c-14.4,1.1,-29.2,1.6,-44.1,1.6c-15.7,-0.1,-31.4,-0.7,-46.6,-2C381.3,706.1,338.1,693.7,323.1,677.9Z" class="g3_4" />
<text 
x="366" 
y="648" 
dx="0,0,0,0,0,0,0,0,0,0,0,0,0,0,0,0,0,0,0,0,0,0,0,0,0,0,0,0,0,0,0,0,0,0,0,0" 
class="s5_4"
>This code sets up the cat correctly </text>

<text 
x="366" 
y="671" 
dx="0,0,0,0,0,0,0,0,0,0,0,0,0,0,0,0,0,0,0,0,0,0,0,0,0" 
class="s5_4"
>at the start of the game </text>

<text 
x="366" 
y="693" 
dx="0,0,0,0,0,0,0,0,0,0,0,0,0,0,0,0" 
class="s5_4"
>(‘initializing’)</text>

<path fill-rule="evenodd" d="M264.1,798.5l53.4,-7.6c8.8,-15.1,62.8,-27.5,133.6,-30.5c11.1,-0.4,22.5,-0.7,33.9,-0.7c12,0.1,24,0.3,35.6,0.9c84,4,140.6,21,130.1,39c-8.8,15.2,-62.8,27.5,-133.5,30.5c-11.2,0.5,-22.6,0.7,-34,0.7c-12,0,-23.9,-0.3,-35.6,-0.9C386.6,827.1,338.1,817.2,322,804.4Z" class="g2_4" />
<path d="M264.1,798.5l53.4,-7.6c8.8,-15.1,62.8,-27.5,133.6,-30.5c11.1,-0.4,22.5,-0.7,33.9,-0.7c12,0.1,24,0.3,35.6,0.9c84,4,140.6,21,130.1,39c-8.8,15.2,-62.8,27.5,-133.5,30.5c-11.2,0.5,-22.6,0.7,-34,0.7c-12,0,-23.9,-0.3,-35.6,-0.9C386.6,827.1,338.1,817.2,322,804.4Z" class="g3_4" />
<text 
x="365" 
y="786" 
dx="0,0,0,0,0,0,0,0,0,0,0,0,0,0,0,0,0,0,0,0,0,0,0,0,0,0,0,0,0,0,0" 
class="s5_4"
>This code makes the cat follow </text>

<text 
x="365" 
y="808" 
dx="0,0,0,0,0,0,0,0,0,0,0,0,0,0,0,0,0,0" 
class="s5_4"
>your mouse pointer</text>



<!-- Any embedded fonts defined here -->
<style type="text/css" ><![CDATA[

@font-face {
	font-family: Calibri_t;
	src: url("fonts/Calibri_t.woff") format("woff");
}

@font-face {
	font-family: Calibri-Light_r;
	src: url("fonts/Calibri-Light_r.woff") format("woff");
}

@font-face {
	font-family: Calibri-BoldItalic_17;
	src: url("fonts/Calibri-BoldItalic_17.woff") format("woff");
}

]]></style>

</svg>
