<?xml version="1.0" encoding="UTF-8" standalone="no"?>
<!DOCTYPE svg PUBLIC "-//W3C//DTD SVG 1.1//EN"
"http://www.w3.org/Graphics/SVG/1.1/DTD/svg11.dtd">


<!-- Page 9 -->
<svg x="0" y="0" width="1286" height="909" viewBox="0 0 1286 909" version="1.1" xmlns="http://www.w3.org/2000/svg" xmlns:xlink="http://www.w3.org/1999/xlink"
style="display: block;margin-left: auto;margin-right: auto;">
<defs>

<style type="text/css"><![CDATA[

.g3_9{
fill: none;
stroke: #F79646;
stroke-width: 4;
stroke-linecap: butt;
stroke-linejoin: miter;
}
.g2_9{
fill: #FFFFFF;
}
.g1_9{
fill: none;
stroke: #0000FF;
stroke-width: 1;
stroke-linecap: butt;
stroke-linejoin: miter;
}

.s2_9{
font-size: 15.28px;
font-family: Calibri_2_;
fill: #0000FF;
}
.s3_9{
font-size: 16.81px;
font-family: Calibri-Bold_2z;
fill: #000000;
}
.s4_9{
font-size: 16.81px;
font-family: Calibri_2_;
fill: #000000;
}
.s1_9{
font-size: 15.28px;
font-family: Calibri_2_;
fill: #000000;
}

]]></style>

</defs>
<path d="M0,0
L0,909
L1286,909
L1286,0 Z " 
fill="#FFFFFF" stroke="none" />
<text 
x="374" 
y="68" 
dx="0,0,0,0,0,0,0,0,0,0,0,0,0,0,0,0,0,0,0,0,0,0,0,0,0,0,0,0,0,0,0,0,0,0,0,0,0,0,0,0,0,0,0,0,0,0,0,0,0,0,0,0,0" 
class="s1_9"
>To print more copies, use the Dropbox folder link at </text>

<text 
x="699" 
y="68" 
dx="0,0,0,0,0,0,0,0,0,0,0,0,0,0,0,0,0,0,0,0,0,0,0,0,0,0,0,0,0,0,0,0,0" 
class="s2_9"
>http://scratch.coderdojobray.com </text>

<path d="M699.5,70.5l212,0" class="g1_9" />
<text 
x="110" 
y="126" 
dx="0,0,0,0,0,0,0,0,0,0,0,0,0,0,0,0,0,0,0,0,0,0,0,0,0,0,0,0,0,0,0,0,0,0,0,0,0,0,0,0,0,0,0,0,0,0,0,0,0,0,0,0,0,0,0,0,0,0,0,0,0,0,0,0" 
class="s3_9"
>CoderDojo Bray – Advanced: Start making a game with a scrolling </text>

<text 
x="110" 
y="149" 
dx="0,0,0,0,0,0,0,0,0,0" 
class="s3_9"
>background</text>

<text 
x="110" 
y="188" 
dx="0,0,0,0,0,0,0,0,0,0,0,0,0,0,0,0,0,0,0,0,0,0,0,0,0,0,0,0,0,0,0,0,0,0,0,0,0,0,0,0,0,0,0,0,0,0,0,0,0,0,0,0,0,0,0,0,0,0,0,0,0,0,0,0,0,0,0,0" 
class="s4_9"
>This sets you up to finish a scrolling game in your second session. </text>

<text 
x="110" 
y="227" 
dx="0,0,0,0,0,0,0,0,0,0,0" 
class="s4_9"
>Make three </text>

<text 
x="193" 
y="227" 
dx="0,0,0,0,0,0,0" 
class="s3_9"
>sprites</text>

<text 
x="243" 
y="227" 
dx="0,0,0,0,0,0,0,0,0,0,0,0,0,0,0,0,0,0,0,0,0,0,0,0,0,0,0,0,0,0,0,0,0,0,0,0,0,0,0,0,0,0,0,0,0,0,0,0,0,0,0,0,0,0,0,0,0,0" 
class="s4_9"
>as shown: the first two are full-size background pictures </text>

<text 
x="110" 
y="250" 
dx="0,0,0,0,0,0,0,0,0,0,0,0,0,0,0,0,0,0,0,0" 
class="s4_9"
>that will move. The </text>

<text 
x="244" 
y="250" 
dx="0,0,0,0,0,0,0,0" 
class="s3_9"
>costumes</text>

<text 
x="315" 
y="250" 
dx="0,0,0,0,0,0,0,0,0,0,0,0,0,0,0,0,0,0,0,0,0,0,0,0,0,0,0,0,0,0,0,0,0,0,0,0,0,0,0,0,0,0" 
class="s4_9"
>for these should be the same. You can use </text>

<text 
x="110" 
y="274" 
dx="0,0,0,0,0,0" 
class="s3_9"
>Import</text>

<text 
x="161" 
y="274" 
dx="0,0,0,0,0,0,0,0,0,0,0,0,0,0,0,0,0,0,0,0,0,0,0,0,0,0,0,0,0,0,0,0,0,0,0,0,0,0,0,0,0,0,0,0,0,0,0,0,0,0,0,0,0,0,0,0,0,0,0,0,0,0,0,0" 
class="s4_9"
>in the costume painting screen to grab a saved background image </text>

<text 
x="110" 
y="298" 
dx="0,0,0,0,0,0,0,0,0,0,0,0,0,0,0,0,0,0,0,0,0,0,0,0,0,0" 
class="s4_9"
>that will work for these. </text>

<text 
x="280" 
y="298" 
dx="0,0,0,0,0,0,0,0,0,0,0,0,0,0,0,0,0,0,0,0,0,0,0,0,0,0,0,0,0,0,0,0,0" 
class="s4_9"
>(You can create that image using </text>

<text 
x="507" 
y="298" 
dx="0,0,0,0,0,0,0,0,0,0,0,0" 
class="s3_9"
>New backdrop</text>

<text 
x="612" 
y="298" 
dx="0,0,0,0" 
class="s4_9"
>for </text>

<text 
x="110" 
y="321" 
dx="0,0,0,0" 
class="s4_9"
>the </text>

<text 
x="136" 
y="321" 
dx="0,0,0,0,0" 
class="s3_9"
>stage</text>

<text 
x="173" 
y="321" 
dx="0,0,0,0,0,0,0" 
class="s4_9"
>, then </text>

<text 
x="217" 
y="321" 
dx="0,0,0,0,0,0,0,0,0,0,0,0,0,0,0,0,0,0,0,0,0,0,0,0,0,0,0" 
class="s3_9"
>saving that to a local file</text>

<text 
x="387" 
y="321" 
dx="0,0,0,0,0,0,0,0,0,0,0,0,0,0,0,0,0,0,0,0,0,0,0,0,0,0,0,0,0,0,0,0,0,0,0,0,0" 
class="s4_9"
>). When you have finished this page, </text>

<text 
x="110" 
y="345" 
dx="0,0,0,0,0,0,0,0,0,0,0,0,0,0,0,0,0,0,0,0,0,0,0,0,0,0,0,0,0,0,0,0,0,0,0,0,0,0,0,0,0,0,0,0,0,0,0,0,0,0,0,0,0,0,0,0,0,0,0" 
class="s4_9"
>the cat should be able to walk forever in both directions. </text>

<text 
x="110" 
y="384" 
dx="0,0,0,0,0,0,0,0,0,0,0,0,0,0,0,0,0,0,0,0,0,0" 
class="s4_9"
>Code for the sprites: </text>

<text 
x="256" 
y="384" 
dx="0,0,0,0" 
class="s4_9"
>For </text>

<text 
x="283" 
y="384" 
dx="0,0,0,0,0,0,0,0" 
class="s3_9"
>Sprite 1</text>

<text 
x="336" 
y="384" 
dx="0,0" 
class="s4_9"
>: </text>

<text 
x="449" 
y="539" 
dx="0,0,0,0" 
class="s4_9"
>For </text>

<text 
x="475" 
y="539" 
dx="0,0,0,0,0,0,0,0" 
class="s3_9"
>Sprite 2</text>

<text 
x="529" 
y="539" 
dx="0" 
class="s4_9"
>:</text>

<text 
x="779" 
y="539" 
dx="0,0,0,0,0,0,0,0" 
class="s4_9"
>For the </text>

<text 
x="832" 
y="539" 
dx="0,0,0" 
class="s3_9"
>Cat</text>

<text 
x="855" 
y="539" 
dx="0" 
class="s4_9"
>:</text>

<image x="100" y="411" width="335" height="373" xlink:href="9/img/1.png" />
<image x="449" y="562" width="319" height="318" xlink:href="9/img/2.png" />
<image x="778" y="564" width="258" height="235" xlink:href="9/img/3.png" />
<image x="647" y="101" width="555" height="413" xlink:href="9/img/4.png" />
<image x="1014" y="75" width="248" height="199" xlink:href="9/img/5.png" />
<image x="1008" y="71" width="238" height="183" xlink:href="9/shade/1.png" />
<path fill-rule="evenodd" d="M254.5,500.5l69.7,-37.3c-7.7,-22.1,1.1,-45.6,23.2,-62.1c14.5,-10.7,33.7,-17.6,54.4,-19.6c18.1,-1.6,36.6,0.6,53,6.5c24,8.6,41.6,24.4,48.2,43.1c7.7,22.2,-1.1,45.7,-23.2,62.1c-14.5,10.8,-33.7,17.7,-54.4,19.6c-18.2,1.7,-36.6,-0.5,-53,-6.4c-13.2,-4.7,-24.7,-11.7,-33.3,-20.3Z" class="g2_9" />
<path d="M254.5,500.5l69.7,-37.3c-7.7,-22.1,1.1,-45.6,23.2,-62.1c14.5,-10.7,33.7,-17.6,54.4,-19.6c18.1,-1.6,36.6,0.6,53,6.5c24,8.6,41.6,24.4,48.2,43.1c7.7,22.2,-1.1,45.7,-23.2,62.1c-14.5,10.8,-33.7,17.7,-54.4,19.6c-18.2,1.7,-36.6,-0.5,-53,-6.4c-13.2,-4.7,-24.7,-11.7,-33.3,-20.3Z" class="g3_9" />
<text 
x="368" 
y="417" 
dx="0,0,0,0,0" 
class="s4_9"
>Puts </text>

<text 
x="406" 
y="417" 
dx="0,0,0,0,0,0,0,0" 
class="s4_9"
>edge of </text>

<text 
x="350" 
y="440" 
dx="0,0,0,0,0,0,0,0,0,0,0,0,0,0,0,0,0" 
class="s4_9"
>background image </text>

<text 
x="349" 
y="464" 
dx="0,0,0,0,0,0,0,0,0,0,0,0,0,0,0,0,0,0,0,0,0" 
class="s4_9"
>in starting position </text>

<text 
x="384" 
y="487" 
dx="0,0,0,0,0,0,0,0" 
class="s4_9"
>on stage</text>

<path fill-rule="evenodd" d="M128.6,573.4l13.6,186.2c24.8,3.3,46.8,11.9,62.3,24.2c26.8,21.2,30,50.4,8.1,73.7c-13.9,14.7,-36.5,25.6,-63.1,30.3c-17.3,3.1,-35.6,3.5,-53.2,1.2C71.5,885.7,49.5,877.1,34,864.8C7.2,843.6,4,814.4,26,791.1C39.8,776.4,62.4,765.5,89,760.8c4,-0.7,8,-1.3,12.1,-1.7Z" class="g2_9" />
<path d="M128.6,573.4l13.6,186.2c24.8,3.3,46.8,11.9,62.3,24.2c26.8,21.2,30,50.4,8.1,73.7c-13.9,14.7,-36.5,25.6,-63.1,30.3c-17.3,3.1,-35.6,3.5,-53.2,1.2C71.5,885.7,49.5,877.1,34,864.8C7.2,843.6,4,814.4,26,791.1C39.8,776.4,62.4,765.5,89,760.8c4,-0.7,8,-1.3,12.1,-1.7Z" class="g3_9" />
<text 
x="54" 
y="794" 
dx="0,0,0,0,0,0,0,0,0,0,0,0,0,0,0,0,0,0" 
class="s4_9"
>When the cat code </text>

<text 
x="51" 
y="817" 
dx="0,0,0,0,0,0,0,0,0,0,0,0,0,0,0,0,0,0,0,0,0" 
class="s4_9"
>changes scrollx, the </text>

<text 
x="56" 
y="841" 
dx="0,0,0,0,0,0,0,0,0,0,0,0,0,0,0,0,0,0" 
class="s4_9"
>background sprite </text>

<text 
x="96" 
y="864" 
dx="0,0,0,0,0" 
class="s4_9"
>moves</text>

<path fill-rule="evenodd" d="M972.9,667.7l135.5,84.9c17,-5.4,36,-7.9,55.2,-7.3c20.8,0.7,40.9,5.1,57.8,12.7c32.1,14.4,48.7,38.5,43.2,62.7c-4.9,21.2,-26.3,39.7,-57.3,49.6c-17.1,5.4,-36.1,7.9,-55.2,7.2c-20.9,-0.6,-41,-5,-57.9,-12.6c-32.1,-14.4,-48.7,-38.6,-43.1,-62.7c2.8,-12.6,11.5,-24.3,25,-33.9Z" class="g2_9" />
<path d="M972.9,667.7l135.5,84.9c17,-5.4,36,-7.9,55.2,-7.3c20.8,0.7,40.9,5.1,57.8,12.7c32.1,14.4,48.7,38.5,43.2,62.7c-4.9,21.2,-26.3,39.7,-57.3,49.6c-17.1,5.4,-36.1,7.9,-55.2,7.2c-20.9,-0.6,-41,-5,-57.9,-12.6c-32.1,-14.4,-48.7,-38.6,-43.1,-62.7c2.8,-12.6,11.5,-24.3,25,-33.9Z" class="g3_9" />
<text 
x="1092" 
y="781" 
dx="0,0,0,0,0,0,0,0,0,0,0,0,0,0,0,0,0,0" 
class="s4_9"
>When the cat code </text>

<text 
x="1090" 
y="804" 
dx="0,0,0,0,0,0,0,0,0,0,0,0,0,0,0,0,0,0,0,0,0" 
class="s4_9"
>changes scrollx, the </text>

<text 
x="1095" 
y="828" 
dx="0,0,0,0,0,0,0,0,0,0,0,0,0,0,0,0,0,0" 
class="s4_9"
>background sprite </text>

<text 
x="1134" 
y="852" 
dx="0,0,0,0,0" 
class="s4_9"
>moves</text>

<path fill-rule="evenodd" d="M709.9,716.4l108.8,83.4c12.5,-0.4,25.1,-0.3,37.5,0.3c29,1.5,55.9,5.7,77,12.2c66.3,20.3,54.7,55.7,-23.4,71.3c-18.6,3.6,-39.6,5.9,-61.4,6.6c-12.5,0.5,-25.1,0.4,-37.6,-0.3C781.9,888.5,755,884.2,733.9,877.7C667.6,857.5,679.2,822,757.3,806.5c2.9,-0.6,5.9,-1.1,9,-1.7Z" class="g2_9" />
<path d="M709.9,716.4l108.8,83.4c12.5,-0.4,25.1,-0.3,37.5,0.3c29,1.5,55.9,5.7,77,12.2c66.3,20.3,54.7,55.7,-23.4,71.3c-18.6,3.6,-39.6,5.9,-61.4,6.6c-12.5,0.5,-25.1,0.4,-37.6,-0.3C781.9,888.5,755,884.2,733.9,877.7C667.6,857.5,679.2,822,757.3,806.5c2.9,-0.6,5.9,-1.1,9,-1.7Z" class="g3_9" />
<text 
x="736" 
y="829" 
dx="0,0,0,0,0,0,0,0,0,0,0,0,0,0,0,0,0,0,0,0,0,0,0,0,0,0,0,0,0,0,0,0,0" 
class="s4_9"
>This sprite fills the space left </text>

<text 
x="734" 
y="853" 
dx="0,0,0,0,0,0,0,0,0,0,0,0,0,0,0,0,0,0,0,0,0,0,0,0,0,0,0" 
class="s4_9"
>when the other sprite moves</text>

<path fill-rule="evenodd" d="M778.8,237.4L725.2,196.7c-13.3,1.7,-27.1,1.8,-40.4,0.3c-20.6,-2.3,-39.1,-8.4,-52.4,-17.2c-26.3,-17.3,-27.9,-42.2,-4.1,-60.6c12.9,-9.8,31.9,-16.9,53.6,-19.7c13.3,-1.7,27.1,-1.9,40.4,-0.4c20.6,2.4,39.1,8.4,52.5,17.3c26.2,17.3,27.9,42.2,4,60.5c-6,4.6,-13.3,8.6,-21.6,11.8Z" class="g2_9" />
<path d="M778.8,237.4L725.2,196.7c-13.3,1.7,-27.1,1.8,-40.4,0.3c-20.6,-2.3,-39.1,-8.4,-52.4,-17.2c-26.3,-17.3,-27.9,-42.2,-4.1,-60.6c12.9,-9.8,31.9,-16.9,53.6,-19.7c13.3,-1.7,27.1,-1.9,40.4,-0.4c20.6,2.4,39.1,8.4,52.5,17.3c26.2,17.3,27.9,42.2,4,60.5c-6,4.6,-13.3,8.6,-21.6,11.8Z" class="g3_9" />
<text 
x="644" 
y="129" 
dx="0,0,0,0,0,0,0,0,0,0,0,0,0,0,0,0" 
class="s4_9"
>Both background </text>

<text 
x="640" 
y="152" 
dx="0,0,0,0,0,0,0,0,0,0,0,0,0,0,0,0,0,0,0" 
class="s4_9"
>sprites have width </text>

<text 
x="690" 
y="176" 
dx="0,0,0" 
class="s4_9"
>480</text>

<path fill-rule="evenodd" d="M228.9,106.7L186,97.8c-11.6,0.6,-23.6,0.8,-35.4,0.7C133.9,98.2,117.4,97.1,102,95.3C16.7,85.3,-14.9,55.1,37.3,33.7c22,-9,55.7,-15.2,93.8,-17.3c11.7,-0.6,23.6,-0.8,35.5,-0.6c16.7,0.2,33.1,1.3,48.5,3.1c85.3,10,117,40.2,64.7,61.7C268.7,85.1,254.6,89,238.2,91.9Z" class="g2_9" />
<path d="M228.9,106.7L186,97.8c-11.6,0.6,-23.6,0.8,-35.4,0.7C133.9,98.2,117.4,97.1,102,95.3C16.7,85.3,-14.9,55.1,37.3,33.7c22,-9,55.7,-15.2,93.8,-17.3c11.7,-0.6,23.6,-0.8,35.5,-0.6c16.7,0.2,33.1,1.3,48.5,3.1c85.3,10,117,40.2,64.7,61.7C268.7,85.1,254.6,89,238.2,91.9Z" class="g3_9" />
<text 
x="55" 
y="44" 
dx="0,0,0,0,0,0,0,0,0,0,0,0,0,0,0,0,0,0,0,0,0,0,0,0,0,0,0,0,0" 
class="s4_9"
>These speech bubbles contain </text>

<text 
x="87" 
y="68" 
dx="0,0,0,0,0,0,0,0,0,0,0,0,0,0,0,0,0,0,0,0,0,0" 
class="s4_9"
>helpful hints for you.</text>



<!-- Any embedded fonts defined here -->
<style type="text/css" ><![CDATA[

@font-face {
	font-family: Calibri-Bold_2z;
	src: url("fonts/Calibri-Bold_2z.woff") format("woff");
}

@font-face {
	font-family: Calibri_2_;
	src: url("fonts/Calibri_2_.woff") format("woff");
}

]]></style>

</svg>
